<?xml version="1.0" encoding="utf-8" standalone="no"?>
<!DOCTYPE svg PUBLIC "-//W3C//DTD SVG 1.1//EN"
  "http://www.w3.org/Graphics/SVG/1.1/DTD/svg11.dtd">
<!-- Created with matplotlib (https://matplotlib.org/) -->
<svg height="345.6pt" version="1.1" viewBox="0 0 460.8 345.6" width="460.8pt" xmlns="http://www.w3.org/2000/svg" xmlns:xlink="http://www.w3.org/1999/xlink">
 <defs>
  <style type="text/css">
*{stroke-linecap:butt;stroke-linejoin:round;}
  </style>
 </defs>
 <g id="figure_1">
  <g id="patch_1">
   <path d="M 0 345.6 
L 460.8 345.6 
L 460.8 0 
L 0 0 
z
" style="fill:#ffffff;"/>
  </g>
  <g id="axes_1">
   <g id="patch_2">
    <path d="M 57.6 307.584 
L 343.296 307.584 
L 343.296 41.472 
L 57.6 41.472 
z
" style="fill:#ffffff;"/>
   </g>
   <g id="matplotlib.axis_1">
    <g id="xtick_1">
     <g id="line2d_1">
      <defs>
       <path d="M 0 0 
L 0 3.5 
" id="mcf1cb266d6" style="stroke:#000000;stroke-width:0.8;"/>
      </defs>
      <g>
       <use style="stroke:#000000;stroke-width:0.8;" x="57.6" xlink:href="#mcf1cb266d6" y="307.584"/>
      </g>
     </g>
     <g id="text_1">
      <!-- −100 -->
      <defs>
       <path d="M 10.59375 35.5 
L 73.1875 35.5 
L 73.1875 27.203125 
L 10.59375 27.203125 
z
" id="DejaVuSans-8722"/>
       <path d="M 12.40625 8.296875 
L 28.515625 8.296875 
L 28.515625 63.921875 
L 10.984375 60.40625 
L 10.984375 69.390625 
L 28.421875 72.90625 
L 38.28125 72.90625 
L 38.28125 8.296875 
L 54.390625 8.296875 
L 54.390625 0 
L 12.40625 0 
z
" id="DejaVuSans-49"/>
       <path d="M 31.78125 66.40625 
Q 24.171875 66.40625 20.328125 58.90625 
Q 16.5 51.421875 16.5 36.375 
Q 16.5 21.390625 20.328125 13.890625 
Q 24.171875 6.390625 31.78125 6.390625 
Q 39.453125 6.390625 43.28125 13.890625 
Q 47.125 21.390625 47.125 36.375 
Q 47.125 51.421875 43.28125 58.90625 
Q 39.453125 66.40625 31.78125 66.40625 
z
M 31.78125 74.21875 
Q 44.046875 74.21875 50.515625 64.515625 
Q 56.984375 54.828125 56.984375 36.375 
Q 56.984375 17.96875 50.515625 8.265625 
Q 44.046875 -1.421875 31.78125 -1.421875 
Q 19.53125 -1.421875 13.0625 8.265625 
Q 6.59375 17.96875 6.59375 36.375 
Q 6.59375 54.828125 13.0625 64.515625 
Q 19.53125 74.21875 31.78125 74.21875 
z
" id="DejaVuSans-48"/>
      </defs>
      <g transform="translate(43.866406 322.182437)scale(0.1 -0.1)">
       <use xlink:href="#DejaVuSans-8722"/>
       <use x="83.789062" xlink:href="#DejaVuSans-49"/>
       <use x="147.412109" xlink:href="#DejaVuSans-48"/>
       <use x="211.035156" xlink:href="#DejaVuSans-48"/>
      </g>
     </g>
    </g>
    <g id="xtick_2">
     <g id="line2d_2">
      <g>
       <use style="stroke:#000000;stroke-width:0.8;" x="93.312" xlink:href="#mcf1cb266d6" y="307.584"/>
      </g>
     </g>
     <g id="text_2">
      <!-- −75 -->
      <defs>
       <path d="M 8.203125 72.90625 
L 55.078125 72.90625 
L 55.078125 68.703125 
L 28.609375 0 
L 18.3125 0 
L 43.21875 64.59375 
L 8.203125 64.59375 
z
" id="DejaVuSans-55"/>
       <path d="M 10.796875 72.90625 
L 49.515625 72.90625 
L 49.515625 64.59375 
L 19.828125 64.59375 
L 19.828125 46.734375 
Q 21.96875 47.46875 24.109375 47.828125 
Q 26.265625 48.1875 28.421875 48.1875 
Q 40.625 48.1875 47.75 41.5 
Q 54.890625 34.8125 54.890625 23.390625 
Q 54.890625 11.625 47.5625 5.09375 
Q 40.234375 -1.421875 26.90625 -1.421875 
Q 22.3125 -1.421875 17.546875 -0.640625 
Q 12.796875 0.140625 7.71875 1.703125 
L 7.71875 11.625 
Q 12.109375 9.234375 16.796875 8.0625 
Q 21.484375 6.890625 26.703125 6.890625 
Q 35.15625 6.890625 40.078125 11.328125 
Q 45.015625 15.765625 45.015625 23.390625 
Q 45.015625 31 40.078125 35.4375 
Q 35.15625 39.890625 26.703125 39.890625 
Q 22.75 39.890625 18.8125 39.015625 
Q 14.890625 38.140625 10.796875 36.28125 
z
" id="DejaVuSans-53"/>
      </defs>
      <g transform="translate(82.759656 322.182437)scale(0.1 -0.1)">
       <use xlink:href="#DejaVuSans-8722"/>
       <use x="83.789062" xlink:href="#DejaVuSans-55"/>
       <use x="147.412109" xlink:href="#DejaVuSans-53"/>
      </g>
     </g>
    </g>
    <g id="xtick_3">
     <g id="line2d_3">
      <g>
       <use style="stroke:#000000;stroke-width:0.8;" x="129.024" xlink:href="#mcf1cb266d6" y="307.584"/>
      </g>
     </g>
     <g id="text_3">
      <!-- −50 -->
      <g transform="translate(118.471656 322.182437)scale(0.1 -0.1)">
       <use xlink:href="#DejaVuSans-8722"/>
       <use x="83.789062" xlink:href="#DejaVuSans-53"/>
       <use x="147.412109" xlink:href="#DejaVuSans-48"/>
      </g>
     </g>
    </g>
    <g id="xtick_4">
     <g id="line2d_4">
      <g>
       <use style="stroke:#000000;stroke-width:0.8;" x="164.736" xlink:href="#mcf1cb266d6" y="307.584"/>
      </g>
     </g>
     <g id="text_4">
      <!-- −25 -->
      <defs>
       <path d="M 19.1875 8.296875 
L 53.609375 8.296875 
L 53.609375 0 
L 7.328125 0 
L 7.328125 8.296875 
Q 12.9375 14.109375 22.625 23.890625 
Q 32.328125 33.6875 34.8125 36.53125 
Q 39.546875 41.84375 41.421875 45.53125 
Q 43.3125 49.21875 43.3125 52.78125 
Q 43.3125 58.59375 39.234375 62.25 
Q 35.15625 65.921875 28.609375 65.921875 
Q 23.96875 65.921875 18.8125 64.3125 
Q 13.671875 62.703125 7.8125 59.421875 
L 7.8125 69.390625 
Q 13.765625 71.78125 18.9375 73 
Q 24.125 74.21875 28.421875 74.21875 
Q 39.75 74.21875 46.484375 68.546875 
Q 53.21875 62.890625 53.21875 53.421875 
Q 53.21875 48.921875 51.53125 44.890625 
Q 49.859375 40.875 45.40625 35.40625 
Q 44.1875 33.984375 37.640625 27.21875 
Q 31.109375 20.453125 19.1875 8.296875 
z
" id="DejaVuSans-50"/>
      </defs>
      <g transform="translate(154.183656 322.182437)scale(0.1 -0.1)">
       <use xlink:href="#DejaVuSans-8722"/>
       <use x="83.789062" xlink:href="#DejaVuSans-50"/>
       <use x="147.412109" xlink:href="#DejaVuSans-53"/>
      </g>
     </g>
    </g>
    <g id="xtick_5">
     <g id="line2d_5">
      <g>
       <use style="stroke:#000000;stroke-width:0.8;" x="200.448" xlink:href="#mcf1cb266d6" y="307.584"/>
      </g>
     </g>
     <g id="text_5">
      <!-- 0 -->
      <g transform="translate(197.26675 322.182437)scale(0.1 -0.1)">
       <use xlink:href="#DejaVuSans-48"/>
      </g>
     </g>
    </g>
    <g id="xtick_6">
     <g id="line2d_6">
      <g>
       <use style="stroke:#000000;stroke-width:0.8;" x="236.16" xlink:href="#mcf1cb266d6" y="307.584"/>
      </g>
     </g>
     <g id="text_6">
      <!-- 25 -->
      <g transform="translate(229.7975 322.182437)scale(0.1 -0.1)">
       <use xlink:href="#DejaVuSans-50"/>
       <use x="63.623047" xlink:href="#DejaVuSans-53"/>
      </g>
     </g>
    </g>
    <g id="xtick_7">
     <g id="line2d_7">
      <g>
       <use style="stroke:#000000;stroke-width:0.8;" x="271.872" xlink:href="#mcf1cb266d6" y="307.584"/>
      </g>
     </g>
     <g id="text_7">
      <!-- 50 -->
      <g transform="translate(265.5095 322.182437)scale(0.1 -0.1)">
       <use xlink:href="#DejaVuSans-53"/>
       <use x="63.623047" xlink:href="#DejaVuSans-48"/>
      </g>
     </g>
    </g>
    <g id="xtick_8">
     <g id="line2d_8">
      <g>
       <use style="stroke:#000000;stroke-width:0.8;" x="307.584" xlink:href="#mcf1cb266d6" y="307.584"/>
      </g>
     </g>
     <g id="text_8">
      <!-- 75 -->
      <g transform="translate(301.2215 322.182437)scale(0.1 -0.1)">
       <use xlink:href="#DejaVuSans-55"/>
       <use x="63.623047" xlink:href="#DejaVuSans-53"/>
      </g>
     </g>
    </g>
    <g id="xtick_9">
     <g id="line2d_9">
      <g>
       <use style="stroke:#000000;stroke-width:0.8;" x="343.296" xlink:href="#mcf1cb266d6" y="307.584"/>
      </g>
     </g>
     <g id="text_9">
      <!-- 100 -->
      <g transform="translate(333.75225 322.182437)scale(0.1 -0.1)">
       <use xlink:href="#DejaVuSans-49"/>
       <use x="63.623047" xlink:href="#DejaVuSans-48"/>
       <use x="127.246094" xlink:href="#DejaVuSans-48"/>
      </g>
     </g>
    </g>
   </g>
   <g id="matplotlib.axis_2">
    <g id="ytick_1">
     <g id="line2d_10">
      <defs>
       <path d="M 0 0 
L -3.5 0 
" id="m6e74890f06" style="stroke:#000000;stroke-width:0.8;"/>
      </defs>
      <g>
       <use style="stroke:#000000;stroke-width:0.8;" x="57.6" xlink:href="#m6e74890f06" y="307.584"/>
      </g>
     </g>
     <g id="text_10">
      <!-- −100 -->
      <g transform="translate(23.132812 311.383219)scale(0.1 -0.1)">
       <use xlink:href="#DejaVuSans-8722"/>
       <use x="83.789062" xlink:href="#DejaVuSans-49"/>
       <use x="147.412109" xlink:href="#DejaVuSans-48"/>
       <use x="211.035156" xlink:href="#DejaVuSans-48"/>
      </g>
     </g>
    </g>
    <g id="ytick_2">
     <g id="line2d_11">
      <g>
       <use style="stroke:#000000;stroke-width:0.8;" x="57.6" xlink:href="#m6e74890f06" y="274.32"/>
      </g>
     </g>
     <g id="text_11">
      <!-- −75 -->
      <g transform="translate(29.495313 278.119219)scale(0.1 -0.1)">
       <use xlink:href="#DejaVuSans-8722"/>
       <use x="83.789062" xlink:href="#DejaVuSans-55"/>
       <use x="147.412109" xlink:href="#DejaVuSans-53"/>
      </g>
     </g>
    </g>
    <g id="ytick_3">
     <g id="line2d_12">
      <g>
       <use style="stroke:#000000;stroke-width:0.8;" x="57.6" xlink:href="#m6e74890f06" y="241.056"/>
      </g>
     </g>
     <g id="text_12">
      <!-- −50 -->
      <g transform="translate(29.495313 244.855219)scale(0.1 -0.1)">
       <use xlink:href="#DejaVuSans-8722"/>
       <use x="83.789062" xlink:href="#DejaVuSans-53"/>
       <use x="147.412109" xlink:href="#DejaVuSans-48"/>
      </g>
     </g>
    </g>
    <g id="ytick_4">
     <g id="line2d_13">
      <g>
       <use style="stroke:#000000;stroke-width:0.8;" x="57.6" xlink:href="#m6e74890f06" y="207.792"/>
      </g>
     </g>
     <g id="text_13">
      <!-- −25 -->
      <g transform="translate(29.495313 211.591219)scale(0.1 -0.1)">
       <use xlink:href="#DejaVuSans-8722"/>
       <use x="83.789062" xlink:href="#DejaVuSans-50"/>
       <use x="147.412109" xlink:href="#DejaVuSans-53"/>
      </g>
     </g>
    </g>
    <g id="ytick_5">
     <g id="line2d_14">
      <g>
       <use style="stroke:#000000;stroke-width:0.8;" x="57.6" xlink:href="#m6e74890f06" y="174.528"/>
      </g>
     </g>
     <g id="text_14">
      <!-- 0 -->
      <g transform="translate(44.2375 178.327219)scale(0.1 -0.1)">
       <use xlink:href="#DejaVuSans-48"/>
      </g>
     </g>
    </g>
    <g id="ytick_6">
     <g id="line2d_15">
      <g>
       <use style="stroke:#000000;stroke-width:0.8;" x="57.6" xlink:href="#m6e74890f06" y="141.264"/>
      </g>
     </g>
     <g id="text_15">
      <!-- 25 -->
      <g transform="translate(37.875 145.063219)scale(0.1 -0.1)">
       <use xlink:href="#DejaVuSans-50"/>
       <use x="63.623047" xlink:href="#DejaVuSans-53"/>
      </g>
     </g>
    </g>
    <g id="ytick_7">
     <g id="line2d_16">
      <g>
       <use style="stroke:#000000;stroke-width:0.8;" x="57.6" xlink:href="#m6e74890f06" y="108"/>
      </g>
     </g>
     <g id="text_16">
      <!-- 50 -->
      <g transform="translate(37.875 111.799219)scale(0.1 -0.1)">
       <use xlink:href="#DejaVuSans-53"/>
       <use x="63.623047" xlink:href="#DejaVuSans-48"/>
      </g>
     </g>
    </g>
    <g id="ytick_8">
     <g id="line2d_17">
      <g>
       <use style="stroke:#000000;stroke-width:0.8;" x="57.6" xlink:href="#m6e74890f06" y="74.736"/>
      </g>
     </g>
     <g id="text_17">
      <!-- 75 -->
      <g transform="translate(37.875 78.535219)scale(0.1 -0.1)">
       <use xlink:href="#DejaVuSans-55"/>
       <use x="63.623047" xlink:href="#DejaVuSans-53"/>
      </g>
     </g>
    </g>
    <g id="ytick_9">
     <g id="line2d_18">
      <g>
       <use style="stroke:#000000;stroke-width:0.8;" x="57.6" xlink:href="#m6e74890f06" y="41.472"/>
      </g>
     </g>
     <g id="text_18">
      <!-- 100 -->
      <g transform="translate(31.5125 45.271219)scale(0.1 -0.1)">
       <use xlink:href="#DejaVuSans-49"/>
       <use x="63.623047" xlink:href="#DejaVuSans-48"/>
       <use x="127.246094" xlink:href="#DejaVuSans-48"/>
      </g>
     </g>
    </g>
   </g>
   <g id="LineCollection_1"/>
   <g id="LineCollection_2">
    <path clip-path="url(#p8d25bb6fbe)" d="M 181.690182 232.723913 
L 175.918545 231.783822 
L 170.146909 230.568395 
L 164.375273 229.069977 
L 157.711818 226.944 
L 152.832 225.078598 
L 149.946182 223.854496 
L 144.174545 221.062415 
L 140.245788 218.88 
L 135.517091 215.884605 
L 132.203831 213.504 
L 128.874877 210.816 
L 125.912555 208.128 
L 123.276104 205.44 
L 120.93062 202.752 
L 118.202182 199.098115 
L 117.054212 197.376 
L 115.316364 194.408752 
L 114.10866 192 
L 112.430545 187.852823 
L 112.004511 186.624 
L 111.258864 183.936 
L 110.699569 181.248 
L 110.326675 178.56 
L 110.140218 175.872 
L 110.140218 173.184 
L 110.326675 170.496 
L 110.699569 167.808 
L 111.258864 165.12 
L 112.430545 161.203177 
L 112.953286 159.744 
L 114.10866 157.056 
L 115.461195 154.368 
L 118.202182 149.957885 
L 118.869015 148.992 
L 121.088 146.117427 
L 123.973818 142.884741 
L 126.859636 140.045543 
L 129.745455 137.51565 
L 132.631273 135.233313 
L 135.966875 132.864 
L 141.288727 129.575636 
L 145.145368 127.488 
L 150.85865 124.8 
L 155.717818 122.845292 
L 158.603636 121.800443 
L 164.375273 119.986023 
L 170.146909 118.487605 
L 175.918545 117.272178 
L 181.690182 116.332087 
L 187.461818 115.660701 
L 193.233455 115.233513 
L 199.005091 115.050447 
L 204.776727 115.111468 
L 210.548364 115.416588 
L 216.32 115.965864 
L 222.091636 116.760501 
L 227.863273 117.847874 
L 234.509145 119.424 
L 239.406545 120.859586 
L 245.178182 122.845292 
L 250.949818 125.201504 
L 256.721455 127.993585 
L 260.650212 130.176 
L 265.378909 133.171395 
L 268.692169 135.552 
L 272.021123 138.24 
L 274.983445 140.928 
L 277.619896 143.616 
L 279.96538 146.304 
L 282.693818 149.957885 
L 283.841788 151.68 
L 285.579636 154.647248 
L 286.78734 157.056 
L 288.465455 161.203177 
L 288.891489 162.432 
L 289.637136 165.12 
L 290.196431 167.808 
L 290.569325 170.496 
L 290.755782 173.184 
L 290.755782 175.872 
L 290.569325 178.56 
L 290.196431 181.248 
L 289.637136 183.936 
L 288.465455 187.852823 
L 287.942714 189.312 
L 286.78734 192 
L 285.434805 194.688 
L 282.693818 199.098115 
L 282.026985 200.064 
L 279.808 202.938573 
L 276.922182 206.171259 
L 274.036364 209.010457 
L 271.150545 211.54035 
L 268.264727 213.822687 
L 264.929125 216.192 
L 259.607273 219.480364 
L 255.750632 221.568 
L 250.03735 224.256 
L 245.178182 226.210708 
L 242.292364 227.255557 
L 236.520727 229.069977 
L 230.749091 230.568395 
L 224.977455 231.783822 
L 219.205818 232.723913 
L 213.434182 233.395299 
L 207.662545 233.822487 
L 201.890909 234.005553 
L 196.119273 233.944532 
L 190.347636 233.639412 
L 184.576 233.090136 
L 181.690182 232.723913 
L 181.690182 232.723913 
" style="fill:none;stroke:#00df90;stroke-width:1.5;"/>
   </g>
   <g id="LineCollection_3">
    <path clip-path="url(#p8d25bb6fbe)" d="M 173.032727 256.713704 
L 167.261091 255.780383 
L 161.489455 254.661038 
L 155.717818 253.346406 
L 149.946182 251.817315 
L 144.174545 250.065706 
L 138.402909 248.084573 
L 132.427863 245.76 
L 126.340088 243.072 
L 120.91594 240.384 
L 115.316364 237.266858 
L 109.544727 233.642077 
L 106.658909 231.656538 
L 103.773091 229.539627 
L 100.506685 226.944 
L 97.391698 224.256 
L 94.523008 221.568 
L 91.881139 218.88 
L 89.344 216.065317 
L 86.458182 212.503999 
L 83.572364 208.498665 
L 83.319985 208.128 
L 80.686545 203.802247 
L 80.095719 202.752 
L 77.800727 198.065674 
L 77.490571 197.376 
L 76.415867 194.688 
L 74.914909 190.13167 
L 74.67463 189.312 
L 74.017895 186.624 
L 73.492437 183.936 
L 73.098301 181.248 
L 72.835522 178.56 
L 72.704126 175.872 
L 72.704126 173.184 
L 72.835522 170.496 
L 73.098301 167.808 
L 73.492437 165.12 
L 74.017895 162.432 
L 74.914909 158.92433 
L 75.475339 157.056 
L 76.415867 154.368 
L 77.800727 150.990326 
L 78.72081 148.992 
L 80.686545 145.253753 
L 81.630355 143.616 
L 83.572364 140.557335 
L 86.458182 136.552001 
L 87.228956 135.552 
L 89.451362 132.864 
L 92.229818 129.812945 
L 95.115636 126.920542 
L 98.001455 124.261815 
L 100.887273 121.801747 
L 103.893264 119.424 
L 109.544727 115.413923 
L 112.430545 113.542609 
L 118.202182 110.146884 
L 123.973818 107.130396 
L 129.745455 104.449416 
L 135.517091 102.066703 
L 141.288727 99.950345 
L 147.589086 97.92 
L 152.832 96.450941 
L 158.603636 95.021892 
L 164.375273 93.812872 
L 171.688971 92.544 
L 175.918545 91.95248 
L 181.690182 91.302884 
L 187.461818 90.826599 
L 193.233455 90.523548 
L 199.005091 90.39368 
L 204.776727 90.436969 
L 210.548364 90.653423 
L 216.32 91.043083 
L 222.091636 91.606013 
L 229.207029 92.544 
L 233.634909 93.275617 
L 239.406545 94.394962 
L 245.178182 95.709594 
L 250.949818 97.238685 
L 256.721455 98.990294 
L 262.493091 100.971427 
L 268.468137 103.296 
L 274.555912 105.984 
L 279.98006 108.672 
L 285.579636 111.789142 
L 291.351273 115.413923 
L 294.237091 117.399462 
L 297.122909 119.516373 
L 300.389315 122.112 
L 303.504302 124.8 
L 306.372992 127.488 
L 309.014861 130.176 
L 311.552 132.990683 
L 314.437818 136.552001 
L 317.323636 140.557335 
L 317.576015 140.928 
L 320.209455 145.253753 
L 320.800281 146.304 
L 323.095273 150.990326 
L 323.405429 151.68 
L 324.480133 154.368 
L 325.981091 158.92433 
L 326.22137 159.744 
L 326.878105 162.432 
L 327.403563 165.12 
L 327.797699 167.808 
L 328.060478 170.496 
L 328.191874 173.184 
L 328.191874 175.872 
L 328.060478 178.56 
L 327.797699 181.248 
L 327.403563 183.936 
L 326.878105 186.624 
L 325.981091 190.13167 
L 325.420661 192 
L 324.480133 194.688 
L 323.095273 198.065674 
L 322.17519 200.064 
L 320.209455 203.802247 
L 319.265645 205.44 
L 317.323636 208.498665 
L 314.437818 212.503999 
L 313.667044 213.504 
L 311.444638 216.192 
L 308.666182 219.243055 
L 305.780364 222.135458 
L 302.894545 224.794185 
L 300.008727 227.254253 
L 297.002736 229.632 
L 291.351273 233.642077 
L 288.465455 235.513391 
L 282.693818 238.909116 
L 276.922182 241.925604 
L 271.150545 244.606584 
L 265.378909 246.989297 
L 259.607273 249.105655 
L 253.306914 251.136 
L 248.064 252.605059 
L 242.292364 254.034108 
L 236.520727 255.243128 
L 229.207029 256.512 
L 224.977455 257.10352 
L 219.205818 257.753116 
L 213.434182 258.229401 
L 207.662545 258.532452 
L 201.890909 258.66232 
L 196.119273 258.619031 
L 190.347636 258.402577 
L 184.576 258.012917 
L 178.804364 257.449987 
L 173.032727 256.713704 
L 173.032727 256.713704 
" style="fill:none;stroke:#00bfa0;stroke-width:1.5;"/>
   </g>
   <g id="LineCollection_4">
    <path clip-path="url(#p8d25bb6fbe)" d="M 343.296 216.586218 
L 339.671398 221.568 
L 337.507329 224.256 
L 334.638545 227.530941 
L 331.752727 230.575522 
L 328.866909 233.404182 
L 325.981091 236.045088 
L 323.095273 238.52173 
L 320.209455 240.853849 
L 314.437818 245.125342 
L 311.552 247.089654 
L 308.666182 248.961647 
L 302.894545 252.418815 
L 297.122909 255.556074 
L 291.351273 258.404468 
L 285.579636 260.991107 
L 279.808 263.33977 
L 274.036364 265.471396 
L 268.264727 267.404508 
L 259.607273 269.939366 
L 253.835636 271.395926 
L 248.064 272.700938 
L 239.406545 274.335312 
L 233.021146 275.328 
L 224.977455 276.305696 
L 216.32 277.047748 
L 207.662545 277.471679 
L 199.005091 277.577649 
L 190.347636 277.365703 
L 181.690182 276.835755 
L 173.032727 275.987614 
L 167.261091 275.243066 
L 158.603636 273.82689 
L 152.547231 272.64 
L 144.174545 270.686508 
L 138.402909 269.132836 
L 132.191386 267.264 
L 124.34582 264.576 
L 121.088 263.33977 
L 115.316364 260.991107 
L 109.544727 258.404468 
L 103.773091 255.556074 
L 98.001455 252.418815 
L 92.229818 248.961647 
L 87.366884 245.76 
L 83.572364 243.0576 
L 77.800727 238.52173 
L 73.750863 235.008 
L 69.143273 230.575522 
L 65.721287 226.944 
L 63.371636 224.235279 
L 60.485818 220.59622 
L 57.6 216.586218 
L 57.6 216.586218 
" style="fill:none;stroke:#009fb0;stroke-width:1.5;"/>
    <path clip-path="url(#p8d25bb6fbe)" d="M 57.6 132.469782 
L 61.224602 127.488 
L 63.388671 124.8 
L 66.257455 121.525059 
L 69.143273 118.480478 
L 72.029091 115.651818 
L 74.914909 113.010912 
L 77.800727 110.53427 
L 80.686545 108.202151 
L 86.458182 103.930658 
L 89.344 101.966346 
L 92.229818 100.094353 
L 98.001455 96.637185 
L 103.773091 93.499926 
L 109.544727 90.651532 
L 115.316364 88.064893 
L 121.088 85.71623 
L 126.859636 83.584604 
L 132.631273 81.651492 
L 141.288727 79.116634 
L 147.060364 77.660074 
L 152.832 76.355062 
L 161.489455 74.720688 
L 167.874854 73.728 
L 175.918545 72.750304 
L 184.576 72.008252 
L 193.233455 71.584321 
L 201.890909 71.478351 
L 210.548364 71.690297 
L 219.205818 72.220245 
L 227.863273 73.068386 
L 233.634909 73.812934 
L 242.292364 75.22911 
L 248.348769 76.416 
L 256.721455 78.369492 
L 262.493091 79.923164 
L 268.704614 81.792 
L 276.55018 84.48 
L 279.808 85.71623 
L 285.579636 88.064893 
L 291.351273 90.651532 
L 297.122909 93.499926 
L 302.894545 96.637185 
L 308.666182 100.094353 
L 313.529116 103.296 
L 317.323636 105.9984 
L 323.095273 110.53427 
L 327.145137 114.048 
L 331.752727 118.480478 
L 335.174713 122.112 
L 337.524364 124.820721 
L 340.410182 128.45978 
L 343.296 132.469782 
L 343.296 132.469782 
" style="fill:none;stroke:#009fb0;stroke-width:1.5;"/>
   </g>
   <g id="LineCollection_5">
    <path clip-path="url(#p8d25bb6fbe)" d="M 343.296 247.393516 
L 338.71492 251.136 
L 334.638545 254.217608 
L 328.866909 258.235703 
L 323.095273 261.917684 
L 317.323636 265.275751 
L 311.552 268.365302 
L 305.780364 271.208783 
L 300.008727 273.826186 
L 294.237091 276.23537 
L 288.465455 278.452333 
L 282.042045 280.704 
L 274.036364 283.213966 
L 268.264727 284.825206 
L 262.493091 286.295672 
L 253.835636 288.216349 
L 248.064 289.323369 
L 239.406545 290.729901 
L 230.749091 291.845718 
L 222.091636 292.669933 
L 213.434182 293.219252 
L 204.776727 293.493857 
L 196.119273 293.493857 
L 187.461818 293.219252 
L 178.804364 292.669933 
L 170.146909 291.845718 
L 161.489455 290.729901 
L 152.832 289.323369 
L 147.060364 288.216349 
L 138.402909 286.295672 
L 132.631273 284.825206 
L 126.859636 283.213966 
L 118.202182 280.486008 
L 111.252065 278.016 
L 103.773091 275.061158 
L 98.001455 272.552576 
L 92.229818 269.82415 
L 86.458182 266.856453 
L 80.686545 263.62767 
L 74.914909 260.113226 
L 69.478627 256.512 
L 65.717853 253.824 
L 60.485818 249.782801 
L 57.6 247.393516 
L 57.6 247.393516 
" style="fill:none;stroke:#007fc0;stroke-width:1.5;"/>
    <path clip-path="url(#p8d25bb6fbe)" d="M 57.6 101.662484 
L 62.18108 97.92 
L 66.257455 94.838392 
L 72.029091 90.820297 
L 77.800727 87.138316 
L 83.572364 83.780249 
L 89.344 80.690698 
L 95.115636 77.847217 
L 100.887273 75.229814 
L 106.658909 72.82063 
L 112.430545 70.603667 
L 118.853955 68.352 
L 126.859636 65.842034 
L 132.631273 64.230794 
L 138.402909 62.760328 
L 147.060364 60.839651 
L 152.832 59.732631 
L 161.489455 58.326099 
L 170.146909 57.210282 
L 178.804364 56.386067 
L 187.461818 55.836748 
L 196.119273 55.562143 
L 204.776727 55.562143 
L 213.434182 55.836748 
L 222.091636 56.386067 
L 230.749091 57.210282 
L 239.406545 58.326099 
L 248.064 59.732631 
L 253.835636 60.839651 
L 262.493091 62.760328 
L 268.264727 64.230794 
L 274.036364 65.842034 
L 282.693818 68.569992 
L 289.643935 71.04 
L 297.122909 73.994842 
L 302.894545 76.503424 
L 308.666182 79.23185 
L 314.437818 82.199547 
L 320.209455 85.42833 
L 325.981091 88.942774 
L 331.417373 92.544 
L 335.178147 95.232 
L 340.410182 99.273199 
L 343.296 101.662484 
L 343.296 101.662484 
" style="fill:none;stroke:#007fc0;stroke-width:1.5;"/>
   </g>
   <g id="LineCollection_6">
    <path clip-path="url(#p8d25bb6fbe)" d="M 343.296 268.599717 
L 336.8965 272.64 
L 331.752727 275.638088 
L 325.981091 278.765885 
L 320.209455 281.670121 
L 314.437818 284.367183 
L 308.666182 286.8719 
L 302.894545 289.197721 
L 294.237091 292.365006 
L 285.579636 295.182741 
L 276.922182 297.673638 
L 268.264727 299.858411 
L 259.607273 301.74639 
L 250.949818 303.352363 
L 242.292364 304.696373 
L 233.634909 305.769833 
L 224.977455 306.592167 
L 216.32 307.167624 
L 207.662545 307.49638 
L 199.005091 307.57856 
L 190.347636 307.414197 
L 181.690182 307.003224 
L 173.032727 306.345495 
L 164.375273 305.44083 
L 155.717818 304.276408 
L 147.060364 302.848284 
L 138.402909 301.145682 
L 129.745455 299.164284 
L 120.902861 296.832 
L 111.986434 294.144 
L 103.773091 291.35456 
L 95.115636 288.055911 
L 89.344 285.645574 
L 83.572364 283.047629 
L 77.800727 280.247611 
L 72.029091 277.229538 
L 66.257455 273.975703 
L 60.485818 270.466445 
L 57.6 268.599717 
L 57.6 268.599717 
" style="fill:none;stroke:#005fd0;stroke-width:1.5;"/>
    <path clip-path="url(#p8d25bb6fbe)" d="M 57.6 80.456283 
L 63.9995 76.416 
L 69.143273 73.417912 
L 74.914909 70.290115 
L 80.686545 67.385879 
L 86.458182 64.688817 
L 92.229818 62.1841 
L 98.001455 59.858279 
L 106.658909 56.690994 
L 115.316364 53.873259 
L 123.973818 51.382362 
L 132.631273 49.197589 
L 141.288727 47.30961 
L 149.946182 45.703637 
L 158.603636 44.359627 
L 167.261091 43.286167 
L 175.918545 42.463833 
L 184.576 41.888376 
L 193.233455 41.55962 
L 201.890909 41.47744 
L 210.548364 41.641803 
L 219.205818 42.052776 
L 227.863273 42.710505 
L 236.520727 43.61517 
L 245.178182 44.779592 
L 253.835636 46.207716 
L 262.493091 47.910318 
L 271.150545 49.891716 
L 279.993139 52.224 
L 288.909566 54.912 
L 297.122909 57.70144 
L 305.780364 61.000089 
L 311.552 63.410426 
L 317.323636 66.008371 
L 323.095273 68.808389 
L 328.866909 71.826462 
L 334.638545 75.080297 
L 340.410182 78.589555 
L 343.296 80.456283 
L 343.296 80.456283 
" style="fill:none;stroke:#005fd0;stroke-width:1.5;"/>
   </g>
   <g id="LineCollection_7">
    <path clip-path="url(#p8d25bb6fbe)" d="M 110.116911 307.584 
L 109.544727 307.415393 
L 106.658909 306.537629 
L 103.773091 305.632471 
L 101.494047 304.896 
L 100.887273 304.69583 
L 98.001455 303.715856 
L 95.115636 302.707913 
L 93.722995 302.208 
L 92.229818 301.660577 
L 89.344 300.574017 
L 86.616359 299.52 
L 86.458182 299.457547 
L 83.572364 298.288927 
L 80.686545 297.091093 
L 80.077206 296.832 
L 77.800727 295.842505 
L 74.914909 294.558275 
L 74.005157 294.144 
L 72.029091 293.223694 
L 69.143273 291.849119 
L 68.33591 291.456 
L 66.257455 290.420424 
L 63.371636 288.951289 
L 63.019112 288.768 
L 60.485818 287.419501 
L 58.02085 286.08 
L 57.6 285.845729 
" style="fill:none;stroke:#003fe0;stroke-width:1.5;"/>
    <path clip-path="url(#p8d25bb6fbe)" d="M 343.296 285.845729 
L 342.87515 286.08 
L 340.410182 287.419501 
L 337.876888 288.768 
L 337.524364 288.951289 
L 334.638545 290.420424 
L 332.56009 291.456 
L 331.752727 291.849119 
L 328.866909 293.223694 
L 326.890843 294.144 
L 325.981091 294.558275 
L 323.095273 295.842505 
L 320.818794 296.832 
L 320.209455 297.091093 
L 317.323636 298.288927 
L 314.437818 299.457547 
L 314.279641 299.52 
L 311.552 300.574017 
L 308.666182 301.660577 
L 307.173005 302.208 
L 305.780364 302.707913 
L 302.894545 303.715856 
L 300.008727 304.69583 
L 299.401953 304.896 
L 297.122909 305.632471 
L 294.237091 306.537629 
L 291.351273 307.415393 
L 290.779089 307.584 
" style="fill:none;stroke:#003fe0;stroke-width:1.5;"/>
    <path clip-path="url(#p8d25bb6fbe)" d="M 57.6 63.210271 
L 58.02085 62.976 
L 60.485818 61.636499 
L 63.019112 60.288 
L 63.371636 60.104711 
L 66.257455 58.635576 
L 68.33591 57.6 
L 69.143273 57.206881 
L 72.029091 55.832306 
L 74.005157 54.912 
L 74.914909 54.497725 
L 77.800727 53.213495 
L 80.077206 52.224 
L 80.686545 51.964907 
L 83.572364 50.767073 
L 86.458182 49.598453 
L 86.616359 49.536 
L 89.344 48.481983 
L 92.229818 47.395423 
L 93.722995 46.848 
L 95.115636 46.348087 
L 98.001455 45.340144 
L 100.887273 44.36017 
L 101.494047 44.16 
L 103.773091 43.423529 
L 106.658909 42.518371 
L 109.544727 41.640607 
L 110.116911 41.472 
" style="fill:none;stroke:#003fe0;stroke-width:1.5;"/>
    <path clip-path="url(#p8d25bb6fbe)" d="M 290.779089 41.472 
L 291.351273 41.640607 
L 294.237091 42.518371 
L 297.122909 43.423529 
L 299.401953 44.16 
L 300.008727 44.36017 
L 302.894545 45.340144 
L 305.780364 46.348087 
L 307.173005 46.848 
L 308.666182 47.395423 
L 311.552 48.481983 
L 314.279641 49.536 
L 314.437818 49.598453 
L 317.323636 50.767073 
L 320.209455 51.964907 
L 320.818794 52.224 
L 323.095273 53.213495 
L 325.981091 54.497725 
L 326.890843 54.912 
L 328.866909 55.832306 
L 331.752727 57.206881 
L 332.56009 57.6 
L 334.638545 58.635576 
L 337.524364 60.104711 
L 337.876888 60.288 
L 340.410182 61.636499 
L 342.87515 62.976 
L 343.296 63.210271 
" style="fill:none;stroke:#003fe0;stroke-width:1.5;"/>
   </g>
   <g id="LineCollection_8">
    <path clip-path="url(#p8d25bb6fbe)" d="M 72.687701 307.584 
L 72.029091 307.308601 
L 69.143273 306.07444 
L 66.447711 304.896 
L 66.257455 304.811089 
L 63.371636 303.495115 
L 60.60798 302.208 
L 60.485818 302.149893 
L 57.6 300.748611 
" style="fill:none;stroke:#001ff0;stroke-width:1.5;"/>
    <path clip-path="url(#p8d25bb6fbe)" d="M 343.296 300.748611 
L 340.410182 302.149893 
L 340.28802 302.208 
L 337.524364 303.495115 
L 334.638545 304.811089 
L 334.448289 304.896 
L 331.752727 306.07444 
L 328.866909 307.308601 
L 328.208299 307.584 
" style="fill:none;stroke:#001ff0;stroke-width:1.5;"/>
    <path clip-path="url(#p8d25bb6fbe)" d="M 57.6 48.307389 
L 60.485818 46.906107 
L 60.60798 46.848 
L 63.371636 45.560885 
L 66.257455 44.244911 
L 66.447711 44.16 
L 69.143273 42.98156 
L 72.029091 41.747399 
L 72.687701 41.472 
" style="fill:none;stroke:#001ff0;stroke-width:1.5;"/>
    <path clip-path="url(#p8d25bb6fbe)" d="M 328.208299 41.472 
L 328.866909 41.747399 
L 331.752727 42.98156 
L 334.448289 44.16 
L 334.638545 44.244911 
L 337.524364 45.560885 
L 340.28802 46.848 
L 340.410182 46.906107 
L 343.296 48.307389 
" style="fill:none;stroke:#001ff0;stroke-width:1.5;"/>
   </g>
   <g id="LineCollection_9"/>
   <g id="patch_3">
    <path d="M 57.6 307.584 
L 57.6 41.472 
" style="fill:none;stroke:#000000;stroke-linecap:square;stroke-linejoin:miter;stroke-width:0.8;"/>
   </g>
   <g id="patch_4">
    <path d="M 343.296 307.584 
L 343.296 41.472 
" style="fill:none;stroke:#000000;stroke-linecap:square;stroke-linejoin:miter;stroke-width:0.8;"/>
   </g>
   <g id="patch_5">
    <path d="M 57.6 307.584 
L 343.296 307.584 
" style="fill:none;stroke:#000000;stroke-linecap:square;stroke-linejoin:miter;stroke-width:0.8;"/>
   </g>
   <g id="patch_6">
    <path d="M 57.6 41.472 
L 343.296 41.472 
" style="fill:none;stroke:#000000;stroke-linecap:square;stroke-linejoin:miter;stroke-width:0.8;"/>
   </g>
  </g>
  <g id="axes_2">
   <g id="patch_7">
    <path clip-path="url(#p7255c3840d)" d="M 361.152 307.584 
L 361.152 274.32 
L 361.152 74.736 
L 361.152 41.472 
L 374.4576 41.472 
L 374.4576 74.736 
L 374.4576 274.32 
L 374.4576 307.584 
z
" style="fill:#ffffff;stroke:#ffffff;stroke-linejoin:miter;stroke-width:0.01;"/>
   </g>
   <g id="matplotlib.axis_3"/>
   <g id="matplotlib.axis_4">
    <g id="ytick_10">
     <g id="line2d_19">
      <defs>
       <path d="M 0 0 
L 3.5 0 
" id="m14f1e637e5" style="stroke:#000000;stroke-width:0.8;"/>
      </defs>
      <g>
       <use style="stroke:#000000;stroke-width:0.8;" x="374.4576" xlink:href="#m14f1e637e5" y="307.584"/>
      </g>
     </g>
     <g id="text_19">
      <!-- 0 -->
      <g transform="translate(381.4576 311.383219)scale(0.1 -0.1)">
       <use xlink:href="#DejaVuSans-48"/>
      </g>
     </g>
    </g>
    <g id="ytick_11">
     <g id="line2d_20">
      <g>
       <use style="stroke:#000000;stroke-width:0.8;" x="374.4576" xlink:href="#m14f1e637e5" y="274.32"/>
      </g>
     </g>
     <g id="text_20">
      <!-- 4000 -->
      <defs>
       <path d="M 37.796875 64.3125 
L 12.890625 25.390625 
L 37.796875 25.390625 
z
M 35.203125 72.90625 
L 47.609375 72.90625 
L 47.609375 25.390625 
L 58.015625 25.390625 
L 58.015625 17.1875 
L 47.609375 17.1875 
L 47.609375 0 
L 37.796875 0 
L 37.796875 17.1875 
L 4.890625 17.1875 
L 4.890625 26.703125 
z
" id="DejaVuSans-52"/>
      </defs>
      <g transform="translate(381.4576 278.119219)scale(0.1 -0.1)">
       <use xlink:href="#DejaVuSans-52"/>
       <use x="63.623047" xlink:href="#DejaVuSans-48"/>
       <use x="127.246094" xlink:href="#DejaVuSans-48"/>
       <use x="190.869141" xlink:href="#DejaVuSans-48"/>
      </g>
     </g>
    </g>
    <g id="ytick_12">
     <g id="line2d_21">
      <g>
       <use style="stroke:#000000;stroke-width:0.8;" x="374.4576" xlink:href="#m14f1e637e5" y="241.056"/>
      </g>
     </g>
     <g id="text_21">
      <!-- 8000 -->
      <defs>
       <path d="M 31.78125 34.625 
Q 24.75 34.625 20.71875 30.859375 
Q 16.703125 27.09375 16.703125 20.515625 
Q 16.703125 13.921875 20.71875 10.15625 
Q 24.75 6.390625 31.78125 6.390625 
Q 38.8125 6.390625 42.859375 10.171875 
Q 46.921875 13.96875 46.921875 20.515625 
Q 46.921875 27.09375 42.890625 30.859375 
Q 38.875 34.625 31.78125 34.625 
z
M 21.921875 38.8125 
Q 15.578125 40.375 12.03125 44.71875 
Q 8.5 49.078125 8.5 55.328125 
Q 8.5 64.0625 14.71875 69.140625 
Q 20.953125 74.21875 31.78125 74.21875 
Q 42.671875 74.21875 48.875 69.140625 
Q 55.078125 64.0625 55.078125 55.328125 
Q 55.078125 49.078125 51.53125 44.71875 
Q 48 40.375 41.703125 38.8125 
Q 48.828125 37.15625 52.796875 32.3125 
Q 56.78125 27.484375 56.78125 20.515625 
Q 56.78125 9.90625 50.3125 4.234375 
Q 43.84375 -1.421875 31.78125 -1.421875 
Q 19.734375 -1.421875 13.25 4.234375 
Q 6.78125 9.90625 6.78125 20.515625 
Q 6.78125 27.484375 10.78125 32.3125 
Q 14.796875 37.15625 21.921875 38.8125 
z
M 18.3125 54.390625 
Q 18.3125 48.734375 21.84375 45.5625 
Q 25.390625 42.390625 31.78125 42.390625 
Q 38.140625 42.390625 41.71875 45.5625 
Q 45.3125 48.734375 45.3125 54.390625 
Q 45.3125 60.0625 41.71875 63.234375 
Q 38.140625 66.40625 31.78125 66.40625 
Q 25.390625 66.40625 21.84375 63.234375 
Q 18.3125 60.0625 18.3125 54.390625 
z
" id="DejaVuSans-56"/>
      </defs>
      <g transform="translate(381.4576 244.855219)scale(0.1 -0.1)">
       <use xlink:href="#DejaVuSans-56"/>
       <use x="63.623047" xlink:href="#DejaVuSans-48"/>
       <use x="127.246094" xlink:href="#DejaVuSans-48"/>
       <use x="190.869141" xlink:href="#DejaVuSans-48"/>
      </g>
     </g>
    </g>
    <g id="ytick_13">
     <g id="line2d_22">
      <g>
       <use style="stroke:#000000;stroke-width:0.8;" x="374.4576" xlink:href="#m14f1e637e5" y="207.792"/>
      </g>
     </g>
     <g id="text_22">
      <!-- 12000 -->
      <g transform="translate(381.4576 211.591219)scale(0.1 -0.1)">
       <use xlink:href="#DejaVuSans-49"/>
       <use x="63.623047" xlink:href="#DejaVuSans-50"/>
       <use x="127.246094" xlink:href="#DejaVuSans-48"/>
       <use x="190.869141" xlink:href="#DejaVuSans-48"/>
       <use x="254.492188" xlink:href="#DejaVuSans-48"/>
      </g>
     </g>
    </g>
    <g id="ytick_14">
     <g id="line2d_23">
      <g>
       <use style="stroke:#000000;stroke-width:0.8;" x="374.4576" xlink:href="#m14f1e637e5" y="174.528"/>
      </g>
     </g>
     <g id="text_23">
      <!-- 16000 -->
      <defs>
       <path d="M 33.015625 40.375 
Q 26.375 40.375 22.484375 35.828125 
Q 18.609375 31.296875 18.609375 23.390625 
Q 18.609375 15.53125 22.484375 10.953125 
Q 26.375 6.390625 33.015625 6.390625 
Q 39.65625 6.390625 43.53125 10.953125 
Q 47.40625 15.53125 47.40625 23.390625 
Q 47.40625 31.296875 43.53125 35.828125 
Q 39.65625 40.375 33.015625 40.375 
z
M 52.59375 71.296875 
L 52.59375 62.3125 
Q 48.875 64.0625 45.09375 64.984375 
Q 41.3125 65.921875 37.59375 65.921875 
Q 27.828125 65.921875 22.671875 59.328125 
Q 17.53125 52.734375 16.796875 39.40625 
Q 19.671875 43.65625 24.015625 45.921875 
Q 28.375 48.1875 33.59375 48.1875 
Q 44.578125 48.1875 50.953125 41.515625 
Q 57.328125 34.859375 57.328125 23.390625 
Q 57.328125 12.15625 50.6875 5.359375 
Q 44.046875 -1.421875 33.015625 -1.421875 
Q 20.359375 -1.421875 13.671875 8.265625 
Q 6.984375 17.96875 6.984375 36.375 
Q 6.984375 53.65625 15.1875 63.9375 
Q 23.390625 74.21875 37.203125 74.21875 
Q 40.921875 74.21875 44.703125 73.484375 
Q 48.484375 72.75 52.59375 71.296875 
z
" id="DejaVuSans-54"/>
      </defs>
      <g transform="translate(381.4576 178.327219)scale(0.1 -0.1)">
       <use xlink:href="#DejaVuSans-49"/>
       <use x="63.623047" xlink:href="#DejaVuSans-54"/>
       <use x="127.246094" xlink:href="#DejaVuSans-48"/>
       <use x="190.869141" xlink:href="#DejaVuSans-48"/>
       <use x="254.492188" xlink:href="#DejaVuSans-48"/>
      </g>
     </g>
    </g>
    <g id="ytick_15">
     <g id="line2d_24">
      <g>
       <use style="stroke:#000000;stroke-width:0.8;" x="374.4576" xlink:href="#m14f1e637e5" y="141.264"/>
      </g>
     </g>
     <g id="text_24">
      <!-- 20000 -->
      <g transform="translate(381.4576 145.063219)scale(0.1 -0.1)">
       <use xlink:href="#DejaVuSans-50"/>
       <use x="63.623047" xlink:href="#DejaVuSans-48"/>
       <use x="127.246094" xlink:href="#DejaVuSans-48"/>
       <use x="190.869141" xlink:href="#DejaVuSans-48"/>
       <use x="254.492188" xlink:href="#DejaVuSans-48"/>
      </g>
     </g>
    </g>
    <g id="ytick_16">
     <g id="line2d_25">
      <g>
       <use style="stroke:#000000;stroke-width:0.8;" x="374.4576" xlink:href="#m14f1e637e5" y="108"/>
      </g>
     </g>
     <g id="text_25">
      <!-- 24000 -->
      <g transform="translate(381.4576 111.799219)scale(0.1 -0.1)">
       <use xlink:href="#DejaVuSans-50"/>
       <use x="63.623047" xlink:href="#DejaVuSans-52"/>
       <use x="127.246094" xlink:href="#DejaVuSans-48"/>
       <use x="190.869141" xlink:href="#DejaVuSans-48"/>
       <use x="254.492188" xlink:href="#DejaVuSans-48"/>
      </g>
     </g>
    </g>
    <g id="ytick_17">
     <g id="line2d_26">
      <g>
       <use style="stroke:#000000;stroke-width:0.8;" x="374.4576" xlink:href="#m14f1e637e5" y="74.736"/>
      </g>
     </g>
     <g id="text_26">
      <!-- 28000 -->
      <g transform="translate(381.4576 78.535219)scale(0.1 -0.1)">
       <use xlink:href="#DejaVuSans-50"/>
       <use x="63.623047" xlink:href="#DejaVuSans-56"/>
       <use x="127.246094" xlink:href="#DejaVuSans-48"/>
       <use x="190.869141" xlink:href="#DejaVuSans-48"/>
       <use x="254.492188" xlink:href="#DejaVuSans-48"/>
      </g>
     </g>
    </g>
    <g id="ytick_18">
     <g id="line2d_27">
      <g>
       <use style="stroke:#000000;stroke-width:0.8;" x="374.4576" xlink:href="#m14f1e637e5" y="41.472"/>
      </g>
     </g>
     <g id="text_27">
      <!-- 32000 -->
      <defs>
       <path d="M 40.578125 39.3125 
Q 47.65625 37.796875 51.625 33 
Q 55.609375 28.21875 55.609375 21.1875 
Q 55.609375 10.40625 48.1875 4.484375 
Q 40.765625 -1.421875 27.09375 -1.421875 
Q 22.515625 -1.421875 17.65625 -0.515625 
Q 12.796875 0.390625 7.625 2.203125 
L 7.625 11.71875 
Q 11.71875 9.328125 16.59375 8.109375 
Q 21.484375 6.890625 26.8125 6.890625 
Q 36.078125 6.890625 40.9375 10.546875 
Q 45.796875 14.203125 45.796875 21.1875 
Q 45.796875 27.640625 41.28125 31.265625 
Q 36.765625 34.90625 28.71875 34.90625 
L 20.21875 34.90625 
L 20.21875 43.015625 
L 29.109375 43.015625 
Q 36.375 43.015625 40.234375 45.921875 
Q 44.09375 48.828125 44.09375 54.296875 
Q 44.09375 59.90625 40.109375 62.90625 
Q 36.140625 65.921875 28.71875 65.921875 
Q 24.65625 65.921875 20.015625 65.03125 
Q 15.375 64.15625 9.8125 62.3125 
L 9.8125 71.09375 
Q 15.4375 72.65625 20.34375 73.4375 
Q 25.25 74.21875 29.59375 74.21875 
Q 40.828125 74.21875 47.359375 69.109375 
Q 53.90625 64.015625 53.90625 55.328125 
Q 53.90625 49.265625 50.4375 45.09375 
Q 46.96875 40.921875 40.578125 39.3125 
z
" id="DejaVuSans-51"/>
      </defs>
      <g transform="translate(381.4576 45.271219)scale(0.1 -0.1)">
       <use xlink:href="#DejaVuSans-51"/>
       <use x="63.623047" xlink:href="#DejaVuSans-50"/>
       <use x="127.246094" xlink:href="#DejaVuSans-48"/>
       <use x="190.869141" xlink:href="#DejaVuSans-48"/>
       <use x="254.492188" xlink:href="#DejaVuSans-48"/>
      </g>
     </g>
    </g>
   </g>
   <g id="LineCollection_10">
    <path clip-path="url(#p7255c3840d)" d="M 361.152 307.584 
L 374.4576 307.584 
" style="fill:none;stroke:#00ff80;stroke-width:1.5;"/>
    <path clip-path="url(#p7255c3840d)" d="M 361.152 274.32 
L 374.4576 274.32 
" style="fill:none;stroke:#00df90;stroke-width:1.5;"/>
    <path clip-path="url(#p7255c3840d)" d="M 361.152 241.056 
L 374.4576 241.056 
" style="fill:none;stroke:#00bfa0;stroke-width:1.5;"/>
    <path clip-path="url(#p7255c3840d)" d="M 361.152 207.792 
L 374.4576 207.792 
" style="fill:none;stroke:#009fb0;stroke-width:1.5;"/>
    <path clip-path="url(#p7255c3840d)" d="M 361.152 174.528 
L 374.4576 174.528 
" style="fill:none;stroke:#007fc0;stroke-width:1.5;"/>
    <path clip-path="url(#p7255c3840d)" d="M 361.152 141.264 
L 374.4576 141.264 
" style="fill:none;stroke:#005fd0;stroke-width:1.5;"/>
    <path clip-path="url(#p7255c3840d)" d="M 361.152 108 
L 374.4576 108 
" style="fill:none;stroke:#003fe0;stroke-width:1.5;"/>
    <path clip-path="url(#p7255c3840d)" d="M 361.152 74.736 
L 374.4576 74.736 
" style="fill:none;stroke:#001ff0;stroke-width:1.5;"/>
    <path clip-path="url(#p7255c3840d)" d="M 361.152 41.472 
L 374.4576 41.472 
" style="fill:none;stroke:#0000ff;stroke-width:1.5;"/>
   </g>
   <g id="patch_8">
    <path d="M 361.152 307.584 
L 361.152 274.32 
L 361.152 74.736 
L 361.152 41.472 
L 374.4576 41.472 
L 374.4576 74.736 
L 374.4576 274.32 
L 374.4576 307.584 
z
" style="fill:none;stroke:#000000;stroke-linejoin:miter;stroke-width:0.8;"/>
   </g>
  </g>
 </g>
 <defs>
  <clipPath id="p8d25bb6fbe">
   <rect height="266.112" width="285.696" x="57.6" y="41.472"/>
  </clipPath>
  <clipPath id="p7255c3840d">
   <rect height="266.112" width="13.3056" x="361.152" y="41.472"/>
  </clipPath>
 </defs>
</svg>
