<?xml version="1.0" encoding="utf-8" standalone="no"?>
<!DOCTYPE svg PUBLIC "-//W3C//DTD SVG 1.1//EN"
  "http://www.w3.org/Graphics/SVG/1.1/DTD/svg11.dtd">
<!-- Created with matplotlib (https://matplotlib.org/) -->
<svg height="345.6pt" version="1.1" viewBox="0 0 460.8 345.6" width="460.8pt" xmlns="http://www.w3.org/2000/svg" xmlns:xlink="http://www.w3.org/1999/xlink">
 <defs>
  <style type="text/css">
*{stroke-linecap:butt;stroke-linejoin:round;}
  </style>
 </defs>
 <g id="figure_1">
  <g id="patch_1">
   <path d="M 0 345.6 
L 460.8 345.6 
L 460.8 0 
L 0 0 
z
" style="fill:#ffffff;"/>
  </g>
  <g id="axes_1">
   <g id="patch_2">
    <path d="M 57.6 307.584 
L 343.296 307.584 
L 343.296 41.472 
L 57.6 41.472 
z
" style="fill:#ffffff;"/>
   </g>
   <g id="matplotlib.axis_1">
    <g id="xtick_1">
     <g id="line2d_1">
      <defs>
       <path d="M 0 0 
L 0 3.5 
" id="mf28125f81c" style="stroke:#000000;stroke-width:0.8;"/>
      </defs>
      <g>
       <use style="stroke:#000000;stroke-width:0.8;" x="57.6" xlink:href="#mf28125f81c" y="307.584"/>
      </g>
     </g>
     <g id="text_1">
      <!-- −1.5 -->
      <defs>
       <path d="M 10.59375 35.5 
L 73.1875 35.5 
L 73.1875 27.203125 
L 10.59375 27.203125 
z
" id="DejaVuSans-8722"/>
       <path d="M 12.40625 8.296875 
L 28.515625 8.296875 
L 28.515625 63.921875 
L 10.984375 60.40625 
L 10.984375 69.390625 
L 28.421875 72.90625 
L 38.28125 72.90625 
L 38.28125 8.296875 
L 54.390625 8.296875 
L 54.390625 0 
L 12.40625 0 
z
" id="DejaVuSans-49"/>
       <path d="M 10.6875 12.40625 
L 21 12.40625 
L 21 0 
L 10.6875 0 
z
" id="DejaVuSans-46"/>
       <path d="M 10.796875 72.90625 
L 49.515625 72.90625 
L 49.515625 64.59375 
L 19.828125 64.59375 
L 19.828125 46.734375 
Q 21.96875 47.46875 24.109375 47.828125 
Q 26.265625 48.1875 28.421875 48.1875 
Q 40.625 48.1875 47.75 41.5 
Q 54.890625 34.8125 54.890625 23.390625 
Q 54.890625 11.625 47.5625 5.09375 
Q 40.234375 -1.421875 26.90625 -1.421875 
Q 22.3125 -1.421875 17.546875 -0.640625 
Q 12.796875 0.140625 7.71875 1.703125 
L 7.71875 11.625 
Q 12.109375 9.234375 16.796875 8.0625 
Q 21.484375 6.890625 26.703125 6.890625 
Q 35.15625 6.890625 40.078125 11.328125 
Q 45.015625 15.765625 45.015625 23.390625 
Q 45.015625 31 40.078125 35.4375 
Q 35.15625 39.890625 26.703125 39.890625 
Q 22.75 39.890625 18.8125 39.015625 
Q 14.890625 38.140625 10.796875 36.28125 
z
" id="DejaVuSans-53"/>
      </defs>
      <g transform="translate(45.458594 322.182437)scale(0.1 -0.1)">
       <use xlink:href="#DejaVuSans-8722"/>
       <use x="83.789062" xlink:href="#DejaVuSans-49"/>
       <use x="147.412109" xlink:href="#DejaVuSans-46"/>
       <use x="179.199219" xlink:href="#DejaVuSans-53"/>
      </g>
     </g>
    </g>
    <g id="xtick_2">
     <g id="line2d_2">
      <g>
       <use style="stroke:#000000;stroke-width:0.8;" x="105.216" xlink:href="#mf28125f81c" y="307.584"/>
      </g>
     </g>
     <g id="text_2">
      <!-- −1.0 -->
      <defs>
       <path d="M 31.78125 66.40625 
Q 24.171875 66.40625 20.328125 58.90625 
Q 16.5 51.421875 16.5 36.375 
Q 16.5 21.390625 20.328125 13.890625 
Q 24.171875 6.390625 31.78125 6.390625 
Q 39.453125 6.390625 43.28125 13.890625 
Q 47.125 21.390625 47.125 36.375 
Q 47.125 51.421875 43.28125 58.90625 
Q 39.453125 66.40625 31.78125 66.40625 
z
M 31.78125 74.21875 
Q 44.046875 74.21875 50.515625 64.515625 
Q 56.984375 54.828125 56.984375 36.375 
Q 56.984375 17.96875 50.515625 8.265625 
Q 44.046875 -1.421875 31.78125 -1.421875 
Q 19.53125 -1.421875 13.0625 8.265625 
Q 6.59375 17.96875 6.59375 36.375 
Q 6.59375 54.828125 13.0625 64.515625 
Q 19.53125 74.21875 31.78125 74.21875 
z
" id="DejaVuSans-48"/>
      </defs>
      <g transform="translate(93.074594 322.182437)scale(0.1 -0.1)">
       <use xlink:href="#DejaVuSans-8722"/>
       <use x="83.789062" xlink:href="#DejaVuSans-49"/>
       <use x="147.412109" xlink:href="#DejaVuSans-46"/>
       <use x="179.199219" xlink:href="#DejaVuSans-48"/>
      </g>
     </g>
    </g>
    <g id="xtick_3">
     <g id="line2d_3">
      <g>
       <use style="stroke:#000000;stroke-width:0.8;" x="152.832" xlink:href="#mf28125f81c" y="307.584"/>
      </g>
     </g>
     <g id="text_3">
      <!-- −0.5 -->
      <g transform="translate(140.690594 322.182437)scale(0.1 -0.1)">
       <use xlink:href="#DejaVuSans-8722"/>
       <use x="83.789062" xlink:href="#DejaVuSans-48"/>
       <use x="147.412109" xlink:href="#DejaVuSans-46"/>
       <use x="179.199219" xlink:href="#DejaVuSans-53"/>
      </g>
     </g>
    </g>
    <g id="xtick_4">
     <g id="line2d_4">
      <g>
       <use style="stroke:#000000;stroke-width:0.8;" x="200.448" xlink:href="#mf28125f81c" y="307.584"/>
      </g>
     </g>
     <g id="text_4">
      <!-- 0.0 -->
      <g transform="translate(192.496438 322.182437)scale(0.1 -0.1)">
       <use xlink:href="#DejaVuSans-48"/>
       <use x="63.623047" xlink:href="#DejaVuSans-46"/>
       <use x="95.410156" xlink:href="#DejaVuSans-48"/>
      </g>
     </g>
    </g>
    <g id="xtick_5">
     <g id="line2d_5">
      <g>
       <use style="stroke:#000000;stroke-width:0.8;" x="248.064" xlink:href="#mf28125f81c" y="307.584"/>
      </g>
     </g>
     <g id="text_5">
      <!-- 0.5 -->
      <g transform="translate(240.112438 322.182437)scale(0.1 -0.1)">
       <use xlink:href="#DejaVuSans-48"/>
       <use x="63.623047" xlink:href="#DejaVuSans-46"/>
       <use x="95.410156" xlink:href="#DejaVuSans-53"/>
      </g>
     </g>
    </g>
    <g id="xtick_6">
     <g id="line2d_6">
      <g>
       <use style="stroke:#000000;stroke-width:0.8;" x="295.68" xlink:href="#mf28125f81c" y="307.584"/>
      </g>
     </g>
     <g id="text_6">
      <!-- 1.0 -->
      <g transform="translate(287.728437 322.182437)scale(0.1 -0.1)">
       <use xlink:href="#DejaVuSans-49"/>
       <use x="63.623047" xlink:href="#DejaVuSans-46"/>
       <use x="95.410156" xlink:href="#DejaVuSans-48"/>
      </g>
     </g>
    </g>
    <g id="xtick_7">
     <g id="line2d_7">
      <g>
       <use style="stroke:#000000;stroke-width:0.8;" x="343.296" xlink:href="#mf28125f81c" y="307.584"/>
      </g>
     </g>
     <g id="text_7">
      <!-- 1.5 -->
      <g transform="translate(335.344438 322.182437)scale(0.1 -0.1)">
       <use xlink:href="#DejaVuSans-49"/>
       <use x="63.623047" xlink:href="#DejaVuSans-46"/>
       <use x="95.410156" xlink:href="#DejaVuSans-53"/>
      </g>
     </g>
    </g>
   </g>
   <g id="matplotlib.axis_2">
    <g id="ytick_1">
     <g id="line2d_8">
      <defs>
       <path d="M 0 0 
L -3.5 0 
" id="m1ed807dadf" style="stroke:#000000;stroke-width:0.8;"/>
      </defs>
      <g>
       <use style="stroke:#000000;stroke-width:0.8;" x="57.6" xlink:href="#m1ed807dadf" y="307.584"/>
      </g>
     </g>
     <g id="text_8">
      <!-- −1.5 -->
      <g transform="translate(26.317187 311.383219)scale(0.1 -0.1)">
       <use xlink:href="#DejaVuSans-8722"/>
       <use x="83.789062" xlink:href="#DejaVuSans-49"/>
       <use x="147.412109" xlink:href="#DejaVuSans-46"/>
       <use x="179.199219" xlink:href="#DejaVuSans-53"/>
      </g>
     </g>
    </g>
    <g id="ytick_2">
     <g id="line2d_9">
      <g>
       <use style="stroke:#000000;stroke-width:0.8;" x="57.6" xlink:href="#m1ed807dadf" y="263.232"/>
      </g>
     </g>
     <g id="text_9">
      <!-- −1.0 -->
      <g transform="translate(26.317187 267.031219)scale(0.1 -0.1)">
       <use xlink:href="#DejaVuSans-8722"/>
       <use x="83.789062" xlink:href="#DejaVuSans-49"/>
       <use x="147.412109" xlink:href="#DejaVuSans-46"/>
       <use x="179.199219" xlink:href="#DejaVuSans-48"/>
      </g>
     </g>
    </g>
    <g id="ytick_3">
     <g id="line2d_10">
      <g>
       <use style="stroke:#000000;stroke-width:0.8;" x="57.6" xlink:href="#m1ed807dadf" y="218.88"/>
      </g>
     </g>
     <g id="text_10">
      <!-- −0.5 -->
      <g transform="translate(26.317187 222.679219)scale(0.1 -0.1)">
       <use xlink:href="#DejaVuSans-8722"/>
       <use x="83.789062" xlink:href="#DejaVuSans-48"/>
       <use x="147.412109" xlink:href="#DejaVuSans-46"/>
       <use x="179.199219" xlink:href="#DejaVuSans-53"/>
      </g>
     </g>
    </g>
    <g id="ytick_4">
     <g id="line2d_11">
      <g>
       <use style="stroke:#000000;stroke-width:0.8;" x="57.6" xlink:href="#m1ed807dadf" y="174.528"/>
      </g>
     </g>
     <g id="text_11">
      <!-- 0.0 -->
      <g transform="translate(34.696875 178.327219)scale(0.1 -0.1)">
       <use xlink:href="#DejaVuSans-48"/>
       <use x="63.623047" xlink:href="#DejaVuSans-46"/>
       <use x="95.410156" xlink:href="#DejaVuSans-48"/>
      </g>
     </g>
    </g>
    <g id="ytick_5">
     <g id="line2d_12">
      <g>
       <use style="stroke:#000000;stroke-width:0.8;" x="57.6" xlink:href="#m1ed807dadf" y="130.176"/>
      </g>
     </g>
     <g id="text_12">
      <!-- 0.5 -->
      <g transform="translate(34.696875 133.975219)scale(0.1 -0.1)">
       <use xlink:href="#DejaVuSans-48"/>
       <use x="63.623047" xlink:href="#DejaVuSans-46"/>
       <use x="95.410156" xlink:href="#DejaVuSans-53"/>
      </g>
     </g>
    </g>
    <g id="ytick_6">
     <g id="line2d_13">
      <g>
       <use style="stroke:#000000;stroke-width:0.8;" x="57.6" xlink:href="#m1ed807dadf" y="85.824"/>
      </g>
     </g>
     <g id="text_13">
      <!-- 1.0 -->
      <g transform="translate(34.696875 89.623219)scale(0.1 -0.1)">
       <use xlink:href="#DejaVuSans-49"/>
       <use x="63.623047" xlink:href="#DejaVuSans-46"/>
       <use x="95.410156" xlink:href="#DejaVuSans-48"/>
      </g>
     </g>
    </g>
    <g id="ytick_7">
     <g id="line2d_14">
      <g>
       <use style="stroke:#000000;stroke-width:0.8;" x="57.6" xlink:href="#m1ed807dadf" y="41.472"/>
      </g>
     </g>
     <g id="text_14">
      <!-- 1.5 -->
      <g transform="translate(34.696875 45.271219)scale(0.1 -0.1)">
       <use xlink:href="#DejaVuSans-49"/>
       <use x="63.623047" xlink:href="#DejaVuSans-46"/>
       <use x="95.410156" xlink:href="#DejaVuSans-53"/>
      </g>
     </g>
    </g>
   </g>
   <g id="LineCollection_1"/>
   <g id="LineCollection_2">
    <path clip-path="url(#p03af49a0c9)" d="M 193.233455 224.829246 
L 191.586938 224.256 
L 190.347636 223.649053 
L 187.461818 221.46706 
L 185.431491 218.88 
L 183.576539 216.192 
L 181.109466 213.504 
L 178.804364 212.041915 
L 175.533914 210.816 
L 173.032727 210.254415 
L 167.261091 209.454535 
L 161.489455 208.843233 
L 157.120943 208.128 
L 155.717818 207.716425 
L 152.832 205.874 
L 152.483112 205.44 
L 151.247894 202.752 
L 149.895171 197.376 
L 149.024064 194.688 
L 147.654162 192 
L 147.060364 191.23937 
L 144.951918 189.312 
L 144.174545 188.823067 
L 141.288727 187.506352 
L 138.402909 186.540964 
L 132.631273 184.727859 
L 130.808141 183.936 
L 129.745455 183.325286 
L 127.361868 181.248 
L 126.859636 180.463659 
L 125.961295 178.56 
L 125.424054 175.872 
L 125.424054 173.184 
L 125.961295 170.496 
L 126.859636 168.592341 
L 127.361868 167.808 
L 129.745455 165.730714 
L 130.808141 165.12 
L 132.631273 164.328141 
L 141.288727 161.549648 
L 144.174545 160.232933 
L 144.951918 159.744 
L 147.060364 157.81663 
L 147.654162 157.056 
L 149.024064 154.368 
L 149.946182 151.461885 
L 151.247894 146.304 
L 152.483112 143.616 
L 152.832 143.182 
L 155.717818 141.339575 
L 157.120943 140.928 
L 158.603636 140.62131 
L 164.375273 139.901371 
L 170.146909 139.255535 
L 173.032727 138.801585 
L 175.918545 138.134563 
L 178.804364 137.014085 
L 181.109466 135.552 
L 181.690182 135.035913 
L 183.576539 132.864 
L 185.431491 130.176 
L 187.555241 127.488 
L 190.347636 125.406947 
L 191.586938 124.8 
L 193.233455 124.226754 
L 196.119273 123.632164 
L 199.005091 123.365188 
L 201.890909 123.365188 
L 204.776727 123.632164 
L 207.662545 124.226754 
L 209.309062 124.8 
L 210.548364 125.406947 
L 213.434182 127.58894 
L 215.464509 130.176 
L 217.319461 132.864 
L 219.786534 135.552 
L 222.091636 137.014085 
L 225.362086 138.24 
L 227.863273 138.801585 
L 233.634909 139.601465 
L 239.406545 140.212767 
L 243.775057 140.928 
L 245.178182 141.339575 
L 248.064 143.182 
L 248.412888 143.616 
L 249.648106 146.304 
L 251.000829 151.68 
L 251.871936 154.368 
L 253.241838 157.056 
L 253.835636 157.81663 
L 255.944082 159.744 
L 256.721455 160.232933 
L 259.607273 161.549648 
L 262.493091 162.515036 
L 268.264727 164.328141 
L 270.087859 165.12 
L 271.150545 165.730714 
L 273.534132 167.808 
L 274.036364 168.592341 
L 274.934705 170.496 
L 275.471946 173.184 
L 275.471946 175.872 
L 274.934705 178.56 
L 274.036364 180.463659 
L 273.534132 181.248 
L 271.150545 183.325286 
L 270.087859 183.936 
L 268.264727 184.727859 
L 259.607273 187.506352 
L 256.721455 188.823067 
L 255.944082 189.312 
L 253.835636 191.23937 
L 253.241838 192 
L 251.871936 194.688 
L 250.949818 197.594115 
L 249.648106 202.752 
L 248.412888 205.44 
L 248.064 205.874 
L 245.178182 207.716425 
L 243.775057 208.128 
L 242.292364 208.43469 
L 236.520727 209.154629 
L 230.749091 209.800465 
L 227.863273 210.254415 
L 224.977455 210.921437 
L 222.091636 212.041915 
L 219.786534 213.504 
L 219.205818 214.020087 
L 217.319461 216.192 
L 215.464509 218.88 
L 213.340759 221.568 
L 210.548364 223.649053 
L 209.309062 224.256 
L 207.662545 224.829246 
L 204.776727 225.423836 
L 201.890909 225.690812 
L 199.005091 225.690812 
L 196.119273 225.423836 
L 193.233455 224.829246 
L 193.233455 224.829246 
" style="fill:none;stroke:#00e38e;stroke-width:1.5;"/>
   </g>
   <g id="LineCollection_3">
    <path clip-path="url(#p03af49a0c9)" d="M 161.489455 246.106545 
L 160.691071 245.76 
L 158.603636 244.557865 
L 156.671536 243.072 
L 155.717818 242.11618 
L 151.861424 237.696 
L 149.946182 235.876303 
L 148.788108 235.008 
L 147.060364 233.99991 
L 144.174545 232.800464 
L 141.288727 231.95882 
L 135.517091 230.73702 
L 130.507216 229.632 
L 129.745455 229.422683 
L 126.859636 228.396265 
L 123.973818 226.717008 
L 121.687348 224.256 
L 121.088 223.3208 
L 120.130133 221.568 
L 118.202182 217.619944 
L 117.409503 216.192 
L 115.316364 213.433885 
L 111.79051 210.816 
L 109.544727 209.741181 
L 100.887273 206.420933 
L 98.946086 205.44 
L 98.001455 204.831201 
L 95.638504 202.752 
L 95.115636 202.045226 
L 93.956092 200.064 
L 93.021943 197.376 
L 92.503901 194.688 
L 92.285281 192 
L 92.354613 189.312 
L 92.83192 186.624 
L 94.191647 183.936 
L 95.115636 182.982855 
L 98.020394 181.248 
L 102.711342 178.56 
L 103.773091 177.464483 
L 104.847877 175.872 
L 104.847877 173.184 
L 103.773091 171.591517 
L 102.711342 170.496 
L 100.887273 169.374378 
L 98.001455 167.798132 
L 95.115636 166.073145 
L 94.191647 165.12 
L 92.83192 162.432 
L 92.354613 159.744 
L 92.285281 157.056 
L 92.503901 154.368 
L 93.021943 151.68 
L 93.956092 148.992 
L 95.638504 146.304 
L 98.001455 144.224799 
L 98.946086 143.616 
L 100.887273 142.635067 
L 106.658909 140.431697 
L 109.544727 139.314819 
L 112.430545 137.866017 
L 115.386108 135.552 
L 117.409503 132.864 
L 118.847253 130.176 
L 121.088 125.7352 
L 121.687348 124.8 
L 124.26573 122.112 
L 126.859636 120.659735 
L 130.507216 119.424 
L 135.517091 118.31898 
L 141.288727 117.09718 
L 144.174545 116.255536 
L 147.060364 115.05609 
L 148.788108 114.048 
L 149.946182 113.179697 
L 151.861424 111.36 
L 156.671536 105.984 
L 158.603636 104.498135 
L 161.489455 102.949455 
L 164.375273 102.062822 
L 167.261091 101.511086 
L 170.146909 101.216147 
L 173.032727 101.143649 
L 175.918545 101.294167 
L 178.804364 101.705691 
L 181.690182 102.469564 
L 184.576 103.788369 
L 191.571418 108.672 
L 193.233455 109.481404 
L 196.119273 110.416731 
L 199.005091 110.875416 
L 201.890909 110.875416 
L 204.776727 110.416731 
L 207.662545 109.481404 
L 209.324582 108.672 
L 210.548364 107.893475 
L 216.32 103.788369 
L 217.230935 103.296 
L 219.205818 102.469564 
L 222.091636 101.705691 
L 224.977455 101.294167 
L 227.863273 101.143649 
L 230.749091 101.216147 
L 233.634909 101.511086 
L 236.520727 102.062822 
L 240.204929 103.296 
L 242.292364 104.498135 
L 244.224464 105.984 
L 245.178182 106.93982 
L 249.034576 111.36 
L 250.949818 113.179697 
L 252.107892 114.048 
L 253.835636 115.05609 
L 256.721455 116.255536 
L 259.607273 117.09718 
L 265.378909 118.31898 
L 270.388784 119.424 
L 271.150545 119.633317 
L 274.036364 120.659735 
L 276.922182 122.338992 
L 279.208652 124.8 
L 279.808 125.7352 
L 280.765867 127.488 
L 282.693818 131.436056 
L 283.486497 132.864 
L 285.579636 135.622115 
L 289.10549 138.24 
L 291.351273 139.314819 
L 300.008727 142.635067 
L 301.949914 143.616 
L 302.894545 144.224799 
L 305.257496 146.304 
L 305.780364 147.010774 
L 306.939908 148.992 
L 307.874057 151.68 
L 308.392099 154.368 
L 308.610719 157.056 
L 308.541387 159.744 
L 308.06408 162.432 
L 306.704353 165.12 
L 305.780364 166.073145 
L 302.875606 167.808 
L 298.184658 170.496 
L 297.122909 171.591517 
L 296.048123 173.184 
L 296.048123 175.872 
L 297.122909 177.464483 
L 298.184658 178.56 
L 300.008727 179.681622 
L 302.894545 181.257868 
L 305.780364 182.982855 
L 306.704353 183.936 
L 308.06408 186.624 
L 308.541387 189.312 
L 308.610719 192 
L 308.392099 194.688 
L 307.874057 197.376 
L 306.939908 200.064 
L 305.257496 202.752 
L 302.894545 204.831201 
L 301.949914 205.44 
L 300.008727 206.420933 
L 294.237091 208.624303 
L 291.351273 209.741181 
L 288.465455 211.189983 
L 285.509892 213.504 
L 283.486497 216.192 
L 282.048747 218.88 
L 279.808 223.3208 
L 279.208652 224.256 
L 276.63027 226.944 
L 274.036364 228.396265 
L 270.388784 229.632 
L 265.378909 230.73702 
L 259.607273 231.95882 
L 256.721455 232.800464 
L 253.835636 233.99991 
L 252.107892 235.008 
L 250.949818 235.876303 
L 249.034576 237.696 
L 244.224464 243.072 
L 242.292364 244.557865 
L 239.406545 246.106545 
L 236.520727 246.993178 
L 233.634909 247.544914 
L 230.749091 247.839853 
L 227.863273 247.912351 
L 224.977455 247.761833 
L 222.091636 247.350309 
L 219.205818 246.586436 
L 216.32 245.267631 
L 209.324582 240.384 
L 207.662545 239.574596 
L 204.776727 238.639269 
L 201.890909 238.180584 
L 199.005091 238.180584 
L 196.119273 238.639269 
L 193.233455 239.574596 
L 191.571418 240.384 
L 190.347636 241.162525 
L 184.576 245.267631 
L 183.665065 245.76 
L 181.690182 246.586436 
L 178.804364 247.350309 
L 175.918545 247.761833 
L 173.032727 247.912351 
L 170.146909 247.839853 
L 167.261091 247.544914 
L 164.375273 246.993178 
L 161.489455 246.106545 
L 161.489455 246.106545 
" style="fill:none;stroke:#00c79c;stroke-width:1.5;"/>
   </g>
   <g id="LineCollection_4">
    <path clip-path="url(#p03af49a0c9)" d="M 190.347636 267.881192 
L 188.789542 267.264 
L 187.461818 266.606756 
L 184.23352 264.576 
L 180.448183 261.888 
L 178.804364 260.915738 
L 175.918545 259.570688 
L 174.844409 259.2 
L 173.032727 258.695374 
L 170.146909 258.169874 
L 167.261091 257.8862 
L 164.375273 257.815468 
L 161.489455 257.951359 
L 158.603636 258.308315 
L 154.747169 259.2 
L 152.832 259.83315 
L 147.060364 262.00174 
L 144.174545 262.633136 
L 141.288727 262.823839 
L 138.402909 262.49241 
L 136.456237 261.888 
L 135.517091 261.421509 
L 132.626446 259.2 
L 130.891083 256.512 
L 129.556457 253.824 
L 127.796598 251.136 
L 126.859636 250.421005 
L 123.973818 249.336171 
L 121.088 248.8836 
L 112.430545 247.960468 
L 109.544727 247.483403 
L 106.658909 246.83706 
L 103.305992 245.76 
L 100.887273 244.476794 
L 98.903246 243.072 
L 98.001455 242.159867 
L 96.539101 240.384 
L 94.977467 237.696 
L 92.620006 232.32 
L 92.229818 231.573799 
L 90.788511 229.632 
L 89.344 228.42744 
L 86.176069 226.944 
L 80.686545 225.295726 
L 77.317448 224.256 
L 74.914909 223.170229 
L 72.029091 221.401723 
L 69.905054 218.88 
L 68.892729 216.192 
L 68.890914 213.504 
L 69.143273 212.656903 
L 69.841201 210.816 
L 72.029091 207.777568 
L 74.914909 204.382812 
L 75.96721 202.752 
L 76.849873 200.064 
L 76.762597 197.376 
L 75.645232 194.688 
L 74.914909 193.788898 
L 73.07978 192 
L 72.029091 191.260765 
L 64.573622 186.624 
L 63.371636 185.487901 
L 62.182095 183.936 
L 60.972418 181.248 
L 60.361117 178.56 
L 60.110057 175.872 
L 60.110057 173.184 
L 60.485818 169.860039 
L 60.972418 167.808 
L 62.182095 165.12 
L 63.371636 163.568099 
L 64.573622 162.432 
L 66.257455 161.215679 
L 72.029091 157.795235 
L 73.07978 157.056 
L 74.914909 155.267102 
L 75.645232 154.368 
L 76.762597 151.68 
L 76.849873 148.992 
L 75.96721 146.304 
L 74.115258 143.616 
L 71.727475 140.928 
L 69.841201 138.24 
L 68.890914 135.552 
L 68.892729 132.864 
L 69.143273 132.106335 
L 69.905054 130.176 
L 72.214024 127.488 
L 74.914909 125.885771 
L 77.800727 124.619967 
L 86.458182 122.008461 
L 89.344 120.62856 
L 90.788511 119.424 
L 92.229818 117.482201 
L 92.620006 116.736 
L 95.115636 111.11119 
L 96.539101 108.672 
L 98.001455 106.896133 
L 98.903246 105.984 
L 100.887273 104.579206 
L 103.773091 103.103758 
L 106.658909 102.21894 
L 109.544727 101.572597 
L 112.430545 101.095532 
L 118.202182 100.456445 
L 121.088 100.1724 
L 123.973818 99.719829 
L 126.859636 98.634995 
L 127.796598 97.92 
L 129.745455 94.897097 
L 130.891083 92.544 
L 132.631273 89.851291 
L 135.517091 87.634491 
L 136.456237 87.168 
L 138.402909 86.56359 
L 141.288727 86.232161 
L 144.174545 86.422864 
L 147.4029 87.168 
L 154.747169 89.856 
L 155.717818 90.133453 
L 158.603636 90.747685 
L 161.489455 91.104641 
L 164.375273 91.240532 
L 167.261091 91.1698 
L 170.146909 90.886126 
L 173.032727 90.360626 
L 175.918545 89.485312 
L 178.804364 88.140262 
L 181.690182 86.317385 
L 184.576 84.239859 
L 187.461818 82.449244 
L 188.789542 81.792 
L 190.347636 81.174808 
L 193.233455 80.374215 
L 196.119273 79.88797 
L 199.005091 79.658143 
L 201.890909 79.658143 
L 204.776727 79.88797 
L 207.662545 80.374215 
L 210.548364 81.174808 
L 212.106458 81.792 
L 213.434182 82.449244 
L 216.66248 84.48 
L 220.447817 87.168 
L 222.091636 88.140262 
L 224.977455 89.485312 
L 226.051591 89.856 
L 227.863273 90.360626 
L 230.749091 90.886126 
L 233.634909 91.1698 
L 236.520727 91.240532 
L 239.406545 91.104641 
L 242.292364 90.747685 
L 246.148831 89.856 
L 248.064 89.22285 
L 253.835636 87.05426 
L 256.721455 86.422864 
L 259.607273 86.232161 
L 262.493091 86.56359 
L 264.439763 87.168 
L 265.378909 87.634491 
L 268.269554 89.856 
L 270.004917 92.544 
L 271.339543 95.232 
L 273.099402 97.92 
L 274.036364 98.634995 
L 276.922182 99.719829 
L 279.808 100.1724 
L 288.465455 101.095532 
L 291.351273 101.572597 
L 294.237091 102.21894 
L 297.590008 103.296 
L 300.008727 104.579206 
L 301.992754 105.984 
L 302.894545 106.896133 
L 304.356899 108.672 
L 305.918533 111.36 
L 308.275994 116.736 
L 308.666182 117.482201 
L 310.107489 119.424 
L 311.552 120.62856 
L 314.719931 122.112 
L 320.209455 123.760274 
L 323.578552 124.8 
L 325.981091 125.885771 
L 328.866909 127.654277 
L 330.990946 130.176 
L 332.003271 132.864 
L 332.005086 135.552 
L 331.752727 136.399097 
L 331.054799 138.24 
L 328.866909 141.278432 
L 325.981091 144.673188 
L 324.92879 146.304 
L 324.046127 148.992 
L 324.133403 151.68 
L 325.250768 154.368 
L 325.981091 155.267102 
L 327.81622 157.056 
L 328.866909 157.795235 
L 336.322378 162.432 
L 337.524364 163.568099 
L 338.713905 165.12 
L 339.923582 167.808 
L 340.534883 170.496 
L 340.785943 173.184 
L 340.785943 175.872 
L 340.410182 179.195961 
L 339.923582 181.248 
L 338.713905 183.936 
L 337.524364 185.487901 
L 336.322378 186.624 
L 334.638545 187.840321 
L 328.866909 191.260765 
L 327.81622 192 
L 325.981091 193.788898 
L 325.250768 194.688 
L 324.133403 197.376 
L 324.046127 200.064 
L 324.92879 202.752 
L 326.780742 205.44 
L 329.168525 208.128 
L 331.054799 210.816 
L 332.005086 213.504 
L 332.003271 216.192 
L 331.752727 216.949665 
L 330.990946 218.88 
L 328.681976 221.568 
L 325.981091 223.170229 
L 323.095273 224.436033 
L 314.437818 227.047539 
L 311.552 228.42744 
L 310.107489 229.632 
L 308.666182 231.573799 
L 308.275994 232.32 
L 305.780364 237.94481 
L 304.356899 240.384 
L 302.894545 242.159867 
L 301.992754 243.072 
L 300.008727 244.476794 
L 297.122909 245.952242 
L 294.237091 246.83706 
L 291.351273 247.483403 
L 288.465455 247.960468 
L 282.693818 248.599555 
L 279.808 248.8836 
L 276.922182 249.336171 
L 274.036364 250.421005 
L 273.099402 251.136 
L 271.150545 254.158903 
L 270.004917 256.512 
L 268.264727 259.204709 
L 265.378909 261.421509 
L 264.439763 261.888 
L 262.493091 262.49241 
L 259.607273 262.823839 
L 256.721455 262.633136 
L 253.4931 261.888 
L 246.148831 259.2 
L 245.178182 258.922547 
L 242.292364 258.308315 
L 239.406545 257.951359 
L 236.520727 257.815468 
L 233.634909 257.8862 
L 230.749091 258.169874 
L 227.863273 258.695374 
L 224.977455 259.570688 
L 222.091636 260.915738 
L 219.205818 262.738615 
L 216.32 264.816141 
L 213.434182 266.606756 
L 212.106458 267.264 
L 210.548364 267.881192 
L 207.662545 268.681785 
L 204.776727 269.16803 
L 201.890909 269.397857 
L 199.005091 269.397857 
L 196.119273 269.16803 
L 193.233455 268.681785 
L 190.347636 267.881192 
L 190.347636 267.881192 
" style="fill:none;stroke:#00aaaa;stroke-width:1.5;"/>
   </g>
   <g id="LineCollection_5">
    <path clip-path="url(#p03af49a0c9)" d="M 343.296 225.081853 
L 342.180739 226.944 
L 340.410182 228.917352 
L 339.536847 229.632 
L 337.524364 230.880553 
L 334.279364 232.32 
L 327.344792 235.008 
L 325.981091 235.674697 
L 322.718721 237.696 
L 320.011277 240.384 
L 318.248255 243.072 
L 315.365889 248.448 
L 314.437818 249.784862 
L 313.178657 251.136 
L 311.552 252.325903 
L 308.113677 253.824 
L 305.780364 254.473781 
L 296.588346 256.512 
L 294.237091 257.205381 
L 291.351273 258.284751 
L 288.465455 259.788723 
L 285.579636 261.926987 
L 279.808 267.67392 
L 276.60065 269.952 
L 274.036364 271.130605 
L 271.150545 272.071429 
L 268.264727 272.757823 
L 262.493091 273.710075 
L 256.721455 274.550739 
L 252.526823 275.328 
L 250.949818 275.709581 
L 248.064 276.625137 
L 245.153074 278.016 
L 241.120174 280.704 
L 239.406545 281.837887 
L 236.520727 283.505774 
L 233.634909 284.373338 
L 230.749091 284.761458 
L 227.863273 284.662975 
L 224.977455 284.124181 
L 222.091636 283.201311 
L 215.979811 280.704 
L 213.434182 279.893159 
L 210.548364 279.226904 
L 207.662545 278.77389 
L 204.776727 278.492926 
L 201.890909 278.358489 
L 199.005091 278.358489 
L 196.119273 278.492926 
L 193.233455 278.77389 
L 190.347636 279.226904 
L 187.461818 279.893159 
L 184.576 280.82748 
L 178.289405 283.392 
L 175.918545 284.124181 
L 173.032727 284.662975 
L 170.146909 284.761458 
L 167.261091 284.373338 
L 164.123024 283.392 
L 159.775826 280.704 
L 158.603636 279.842325 
L 155.717818 278.001802 
L 152.832 276.625137 
L 149.946182 275.709581 
L 147.060364 275.055334 
L 141.288727 274.12064 
L 135.517091 273.272451 
L 132.081033 272.64 
L 129.745455 272.071429 
L 126.859636 271.130605 
L 123.973818 269.767486 
L 120.626245 267.264 
L 115.273536 261.888 
L 112.430545 259.788723 
L 111.444327 259.2 
L 109.544727 258.284751 
L 106.658909 257.205381 
L 103.773091 256.369945 
L 92.782323 253.824 
L 92.229818 253.639515 
L 89.344 252.325903 
L 87.717343 251.136 
L 86.458182 249.784862 
L 85.530111 248.448 
L 82.647745 243.072 
L 80.686545 240.154698 
L 77.800727 237.416582 
L 74.914909 235.674697 
L 72.029091 234.364884 
L 66.257455 232.176781 
L 63.371636 230.880553 
L 61.359153 229.632 
L 60.485818 228.917352 
L 58.715261 226.944 
L 57.6 225.081853 
L 57.6 225.081853 
" style="fill:none;stroke:#008eb8;stroke-width:1.5;"/>
    <path clip-path="url(#p03af49a0c9)" d="M 57.6 123.974147 
L 58.715261 122.112 
L 60.485818 120.138648 
L 61.359153 119.424 
L 63.371636 118.175447 
L 66.616636 116.736 
L 73.551208 114.048 
L 74.914909 113.381303 
L 78.177279 111.36 
L 80.884723 108.672 
L 82.647745 105.984 
L 85.530111 100.608 
L 86.458182 99.271138 
L 87.717343 97.92 
L 89.344 96.730097 
L 92.782323 95.232 
L 95.115636 94.582219 
L 104.307654 92.544 
L 106.658909 91.850619 
L 109.544727 90.771249 
L 112.430545 89.267277 
L 115.316364 87.129013 
L 121.088 81.38208 
L 124.29535 79.104 
L 126.859636 77.925395 
L 129.745455 76.984571 
L 132.631273 76.298177 
L 138.402909 75.345925 
L 144.174545 74.505261 
L 148.369177 73.728 
L 149.946182 73.346419 
L 152.832 72.430863 
L 155.742926 71.04 
L 159.775826 68.352 
L 161.489455 67.218113 
L 164.375273 65.550226 
L 167.261091 64.682662 
L 170.146909 64.294542 
L 173.032727 64.393025 
L 175.918545 64.931819 
L 178.804364 65.854689 
L 184.916189 68.352 
L 187.461818 69.162841 
L 190.347636 69.829096 
L 193.233455 70.28211 
L 196.119273 70.563074 
L 199.005091 70.697511 
L 201.890909 70.697511 
L 204.776727 70.563074 
L 207.662545 70.28211 
L 210.548364 69.829096 
L 213.434182 69.162841 
L 216.32 68.22852 
L 222.606595 65.664 
L 224.977455 64.931819 
L 227.863273 64.393025 
L 230.749091 64.294542 
L 233.634909 64.682662 
L 236.772976 65.664 
L 241.120174 68.352 
L 242.292364 69.213675 
L 245.178182 71.054198 
L 248.064 72.430863 
L 250.949818 73.346419 
L 253.835636 74.000666 
L 259.607273 74.93536 
L 265.378909 75.783549 
L 268.814967 76.416 
L 271.150545 76.984571 
L 274.036364 77.925395 
L 276.922182 79.288514 
L 280.269755 81.792 
L 285.622464 87.168 
L 288.465455 89.267277 
L 289.451673 89.856 
L 291.351273 90.771249 
L 294.237091 91.850619 
L 297.122909 92.686055 
L 308.113677 95.232 
L 308.666182 95.416485 
L 311.552 96.730097 
L 313.178657 97.92 
L 314.437818 99.271138 
L 315.365889 100.608 
L 318.248255 105.984 
L 320.209455 108.901302 
L 323.095273 111.639418 
L 325.981091 113.381303 
L 328.866909 114.691116 
L 334.638545 116.879219 
L 337.524364 118.175447 
L 339.536847 119.424 
L 340.410182 120.138648 
L 342.180739 122.112 
L 343.296 123.974147 
L 343.296 123.974147 
" style="fill:none;stroke:#008eb8;stroke-width:1.5;"/>
   </g>
   <g id="LineCollection_6">
    <path clip-path="url(#p03af49a0c9)" d="M 343.296 250.0452 
L 341.751138 251.136 
L 340.410182 252.441945 
L 339.371007 253.824 
L 336.339625 259.2 
L 334.57713 261.888 
L 331.752727 264.672094 
L 328.866909 266.384099 
L 325.981091 267.606371 
L 323.095273 268.407164 
L 320.209455 269.028809 
L 308.666182 271.128591 
L 305.307055 272.64 
L 302.583652 275.328 
L 300.008727 278.892103 
L 298.449959 280.704 
L 297.122909 281.757835 
L 294.237091 283.441851 
L 291.351273 284.122948 
L 288.465455 284.352923 
L 285.579636 284.210833 
L 280.473333 283.392 
L 276.922182 282.754023 
L 274.036364 282.391968 
L 271.150545 282.221075 
L 268.264727 282.266328 
L 265.378909 282.549527 
L 261.473259 283.392 
L 259.607273 284.059968 
L 255.619192 286.08 
L 250.949818 289.281427 
L 247.205523 291.456 
L 245.178182 292.301168 
L 242.292364 293.18232 
L 239.406545 293.801941 
L 236.520727 294.23393 
L 230.749091 294.718062 
L 224.977455 294.906539 
L 219.205818 294.854012 
L 213.434182 294.484737 
L 210.548364 294.116252 
L 201.890909 292.714928 
L 199.005091 292.714928 
L 196.119273 293.095754 
L 190.168729 294.144 
L 187.461818 294.484737 
L 181.690182 294.854012 
L 175.918545 294.906539 
L 170.146909 294.718062 
L 164.375273 294.23393 
L 161.489455 293.801941 
L 158.603636 293.18232 
L 155.717818 292.301168 
L 152.832 291.027014 
L 149.200221 288.768 
L 145.276808 286.08 
L 144.174545 285.43887 
L 141.288727 284.059968 
L 138.402909 283.096864 
L 135.517091 282.549527 
L 132.631273 282.266328 
L 129.745455 282.221075 
L 126.859636 282.391968 
L 123.973818 282.754023 
L 115.316364 284.210833 
L 112.430545 284.352923 
L 109.544727 284.122948 
L 106.535356 283.392 
L 103.773091 281.757835 
L 102.446041 280.704 
L 100.185407 278.016 
L 98.001455 274.919186 
L 95.588945 272.64 
L 95.115636 272.346231 
L 92.229818 271.128591 
L 89.344 270.4476 
L 80.686545 269.028809 
L 77.800727 268.407164 
L 73.977344 267.264 
L 72.029091 266.384099 
L 69.013513 264.576 
L 66.257455 261.801294 
L 64.556375 259.2 
L 61.524993 253.824 
L 60.485818 252.441945 
L 59.144862 251.136 
L 57.6 250.0452 
L 57.6 250.0452 
" style="fill:none;stroke:#0071c6;stroke-width:1.5;"/>
    <path clip-path="url(#p03af49a0c9)" d="M 57.6 99.0108 
L 59.144862 97.92 
L 60.485818 96.614055 
L 61.524993 95.232 
L 64.556375 89.856 
L 66.31887 87.168 
L 69.143273 84.383906 
L 72.029091 82.671901 
L 74.914909 81.449629 
L 77.800727 80.648836 
L 80.686545 80.027191 
L 92.229818 77.927409 
L 95.588945 76.416 
L 98.312348 73.728 
L 100.887273 70.163897 
L 102.446041 68.352 
L 103.773091 67.298165 
L 106.658909 65.614149 
L 109.544727 64.933052 
L 112.430545 64.703077 
L 115.316364 64.845167 
L 120.422667 65.664 
L 123.973818 66.301977 
L 126.859636 66.664032 
L 129.745455 66.834925 
L 132.631273 66.789672 
L 135.517091 66.506473 
L 139.422741 65.664 
L 141.288727 64.996032 
L 145.276808 62.976 
L 149.946182 59.774573 
L 153.690477 57.6 
L 155.717818 56.754832 
L 158.603636 55.87368 
L 161.489455 55.254059 
L 164.375273 54.82207 
L 170.146909 54.337938 
L 175.918545 54.149461 
L 181.690182 54.201988 
L 187.461818 54.571263 
L 190.347636 54.939748 
L 199.005091 56.341072 
L 201.890909 56.341072 
L 204.776727 55.960246 
L 210.727271 54.912 
L 213.434182 54.571263 
L 219.205818 54.201988 
L 224.977455 54.149461 
L 230.749091 54.337938 
L 236.520727 54.82207 
L 239.406545 55.254059 
L 242.292364 55.87368 
L 245.178182 56.754832 
L 248.064 58.028986 
L 251.695779 60.288 
L 255.619192 62.976 
L 256.721455 63.61713 
L 259.607273 64.996032 
L 262.493091 65.959136 
L 265.378909 66.506473 
L 268.264727 66.789672 
L 271.150545 66.834925 
L 274.036364 66.664032 
L 276.922182 66.301977 
L 285.579636 64.845167 
L 288.465455 64.703077 
L 291.351273 64.933052 
L 294.360644 65.664 
L 297.122909 67.298165 
L 298.449959 68.352 
L 300.710593 71.04 
L 302.894545 74.136814 
L 305.307055 76.416 
L 305.780364 76.709769 
L 308.666182 77.927409 
L 311.552 78.6084 
L 320.209455 80.027191 
L 323.095273 80.648836 
L 326.918656 81.792 
L 328.866909 82.671901 
L 331.882487 84.48 
L 334.638545 87.254706 
L 336.339625 89.856 
L 339.371007 95.232 
L 340.410182 96.614055 
L 341.751138 97.92 
L 343.296 99.0108 
L 343.296 99.0108 
" style="fill:none;stroke:#0071c6;stroke-width:1.5;"/>
   </g>
   <g id="LineCollection_7">
    <path clip-path="url(#p03af49a0c9)" d="M 185.431491 307.584 
L 184.576 307.169143 
L 181.690182 305.802217 
L 179.559927 304.896 
L 178.804364 304.610578 
L 175.918545 303.727065 
L 173.032727 303.087012 
L 170.146909 302.66312 
L 167.261091 302.434065 
L 164.375273 302.385274 
L 161.489455 302.50789 
L 158.603636 302.796145 
L 155.717818 303.242429 
L 152.832 303.8285 
L 149.946182 304.511018 
L 148.263187 304.896 
L 147.060364 305.155863 
L 144.174545 305.57386 
L 141.288727 305.690486 
L 138.402909 305.424167 
L 136.175538 304.896 
L 135.517091 304.681532 
L 132.631273 303.249431 
L 130.893072 302.208 
L 129.745455 301.401717 
L 126.89157 299.52 
L 126.859636 299.50021 
L 123.973818 297.944294 
L 121.088 296.886783 
L 120.90877 296.832 
L 118.202182 296.122294 
L 115.316364 295.536398 
L 112.430545 295.036746 
L 109.544727 294.5587 
L 107.204743 294.144 
L 106.658909 294.044063 
L 103.773091 293.414956 
L 100.887273 292.63929 
L 98.001455 291.638427 
L 97.575082 291.456 
L 95.115636 290.188604 
L 92.934717 288.768 
L 92.229818 288.217146 
L 89.795917 286.08 
L 89.344 285.649756 
L 86.953809 283.392 
L 86.458182 282.955665 
L 83.572364 280.716853 
L 83.553197 280.704 
L 80.686545 279.087017 
L 78.298856 278.016 
L 77.800727 277.819955 
L 74.914909 276.831632 
L 72.029091 275.947904 
L 69.964234 275.328 
L 69.143273 275.074612 
L 66.257455 274.109695 
L 63.371636 272.907719 
L 62.839197 272.64 
L 60.485818 271.193411 
L 58.939119 269.952 
L 57.6 268.6032 
" style="fill:none;stroke:#0055d4;stroke-width:1.5;"/>
    <path clip-path="url(#p03af49a0c9)" d="M 343.296 268.6032 
L 341.956881 269.952 
L 340.410182 271.193411 
L 338.056803 272.64 
L 337.524364 272.907719 
L 334.638545 274.109695 
L 331.752727 275.074612 
L 330.931766 275.328 
L 328.866909 275.947904 
L 325.981091 276.831632 
L 323.095273 277.819955 
L 322.597144 278.016 
L 320.209455 279.087017 
L 317.342803 280.704 
L 317.323636 280.716853 
L 314.437818 282.955665 
L 313.942191 283.392 
L 311.552 285.649756 
L 311.100083 286.08 
L 308.666182 288.217146 
L 307.961283 288.768 
L 305.780364 290.188604 
L 303.320918 291.456 
L 302.894545 291.638427 
L 300.008727 292.63929 
L 297.122909 293.414956 
L 294.237091 294.044063 
L 293.691257 294.144 
L 291.351273 294.5587 
L 288.465455 295.036746 
L 285.579636 295.536398 
L 282.693818 296.122294 
L 279.98723 296.832 
L 279.808 296.886783 
L 276.922182 297.944294 
L 274.036364 299.50021 
L 274.00443 299.52 
L 271.150545 301.401717 
L 270.002928 302.208 
L 268.264727 303.249431 
L 265.378909 304.681532 
L 264.720462 304.896 
L 262.493091 305.424167 
L 259.607273 305.690486 
L 256.721455 305.57386 
L 253.835636 305.155863 
L 252.632813 304.896 
L 250.949818 304.511018 
L 248.064 303.8285 
L 245.178182 303.242429 
L 242.292364 302.796145 
L 239.406545 302.50789 
L 236.520727 302.385274 
L 233.634909 302.434065 
L 230.749091 302.66312 
L 227.863273 303.087012 
L 224.977455 303.727065 
L 222.091636 304.610578 
L 221.336073 304.896 
L 219.205818 305.802217 
L 216.32 307.169143 
L 215.464509 307.584 
" style="fill:none;stroke:#0055d4;stroke-width:1.5;"/>
    <path clip-path="url(#p03af49a0c9)" d="M 57.6 80.4528 
L 58.939119 79.104 
L 60.485818 77.862589 
L 62.839197 76.416 
L 63.371636 76.148281 
L 66.257455 74.946305 
L 69.143273 73.981388 
L 69.964234 73.728 
L 72.029091 73.108096 
L 74.914909 72.224368 
L 77.800727 71.236045 
L 78.298856 71.04 
L 80.686545 69.968983 
L 83.553197 68.352 
L 83.572364 68.339147 
L 86.458182 66.100335 
L 86.953809 65.664 
L 89.344 63.406244 
L 89.795917 62.976 
L 92.229818 60.838854 
L 92.934717 60.288 
L 95.115636 58.867396 
L 97.575082 57.6 
L 98.001455 57.417573 
L 100.887273 56.41671 
L 103.773091 55.641044 
L 106.658909 55.011937 
L 107.204743 54.912 
L 109.544727 54.4973 
L 112.430545 54.019254 
L 115.316364 53.519602 
L 118.202182 52.933706 
L 120.90877 52.224 
L 121.088 52.169217 
L 123.973818 51.111706 
L 126.859636 49.55579 
L 126.89157 49.536 
L 129.745455 47.654283 
L 130.893072 46.848 
L 132.631273 45.806569 
L 135.517091 44.374468 
L 136.175538 44.16 
L 138.402909 43.631833 
L 141.288727 43.365514 
L 144.174545 43.48214 
L 147.060364 43.900137 
L 148.263187 44.16 
L 149.946182 44.544982 
L 152.832 45.2275 
L 155.717818 45.813571 
L 158.603636 46.259855 
L 161.489455 46.54811 
L 164.375273 46.670726 
L 167.261091 46.621935 
L 170.146909 46.39288 
L 173.032727 45.968988 
L 175.918545 45.328935 
L 178.804364 44.445422 
L 179.559927 44.16 
L 181.690182 43.253783 
L 184.576 41.886857 
L 185.431491 41.472 
" style="fill:none;stroke:#0055d4;stroke-width:1.5;"/>
    <path clip-path="url(#p03af49a0c9)" d="M 215.464509 41.472 
L 216.32 41.886857 
L 219.205818 43.253783 
L 221.336073 44.16 
L 222.091636 44.445422 
L 224.977455 45.328935 
L 227.863273 45.968988 
L 230.749091 46.39288 
L 233.634909 46.621935 
L 236.520727 46.670726 
L 239.406545 46.54811 
L 242.292364 46.259855 
L 245.178182 45.813571 
L 248.064 45.2275 
L 250.949818 44.544982 
L 252.632813 44.16 
L 253.835636 43.900137 
L 256.721455 43.48214 
L 259.607273 43.365514 
L 262.493091 43.631833 
L 264.720462 44.16 
L 265.378909 44.374468 
L 268.264727 45.806569 
L 270.002928 46.848 
L 271.150545 47.654283 
L 274.00443 49.536 
L 274.036364 49.55579 
L 276.922182 51.111706 
L 279.808 52.169217 
L 279.98723 52.224 
L 282.693818 52.933706 
L 285.579636 53.519602 
L 288.465455 54.019254 
L 291.351273 54.4973 
L 293.691257 54.912 
L 294.237091 55.011937 
L 297.122909 55.641044 
L 300.008727 56.41671 
L 302.894545 57.417573 
L 303.320918 57.6 
L 305.780364 58.867396 
L 307.961283 60.288 
L 308.666182 60.838854 
L 311.100083 62.976 
L 311.552 63.406244 
L 313.942191 65.664 
L 314.437818 66.100335 
L 317.323636 68.339147 
L 317.342803 68.352 
L 320.209455 69.968983 
L 322.597144 71.04 
L 323.095273 71.236045 
L 325.981091 72.224368 
L 328.866909 73.108096 
L 330.931766 73.728 
L 331.752727 73.981388 
L 334.638545 74.946305 
L 337.524364 76.148281 
L 338.056803 76.416 
L 340.410182 77.862589 
L 341.956881 79.104 
L 343.296 80.4528 
" style="fill:none;stroke:#0055d4;stroke-width:1.5;"/>
   </g>
   <g id="LineCollection_8">
    <path clip-path="url(#p03af49a0c9)" d="M 118.847253 307.584 
L 118.202182 307.144936 
L 115.316364 305.320804 
L 114.55656 304.896 
L 112.430545 303.873366 
L 109.544727 302.759534 
L 107.740296 302.208 
L 106.658909 301.917552 
L 103.773091 301.300916 
L 100.887273 300.803301 
L 98.001455 300.378762 
L 95.115636 299.980935 
L 92.229818 299.55372 
L 92.022396 299.52 
L 89.344 299.007965 
L 86.458182 298.180612 
L 83.596891 296.832 
L 83.572364 296.816751 
L 80.686545 294.395782 
L 80.451072 294.144 
L 78.137862 291.456 
L 77.800727 291.097679 
L 75.455625 288.768 
L 74.914909 288.355753 
L 72.029091 286.584106 
L 70.898632 286.08 
L 69.143273 285.481733 
L 66.257455 284.823167 
L 63.371636 284.425155 
L 60.485818 284.205515 
L 57.6 284.06318 
" style="fill:none;stroke:#0038e3;stroke-width:1.5;"/>
    <path clip-path="url(#p03af49a0c9)" d="M 343.296 284.06318 
L 340.410182 284.205515 
L 337.524364 284.425155 
L 334.638545 284.823167 
L 331.752727 285.481733 
L 329.997368 286.08 
L 328.866909 286.584106 
L 325.981091 288.355753 
L 325.440375 288.768 
L 323.095273 291.097679 
L 322.758138 291.456 
L 320.444928 294.144 
L 320.209455 294.395782 
L 317.323636 296.816751 
L 317.299109 296.832 
L 314.437818 298.180612 
L 311.552 299.007965 
L 308.873604 299.52 
L 308.666182 299.55372 
L 305.780364 299.980935 
L 302.894545 300.378762 
L 300.008727 300.803301 
L 297.122909 301.300916 
L 294.237091 301.917552 
L 293.155704 302.208 
L 291.351273 302.759534 
L 288.465455 303.873366 
L 286.33944 304.896 
L 285.579636 305.320804 
L 282.693818 307.144936 
L 282.048747 307.584 
" style="fill:none;stroke:#0038e3;stroke-width:1.5;"/>
    <path clip-path="url(#p03af49a0c9)" d="M 57.6 64.99282 
L 60.485818 64.850485 
L 63.371636 64.630845 
L 66.257455 64.232833 
L 69.143273 63.574267 
L 70.898632 62.976 
L 72.029091 62.471894 
L 74.914909 60.700247 
L 75.455625 60.288 
L 77.800727 57.958321 
L 78.137862 57.6 
L 80.451072 54.912 
L 80.686545 54.660218 
L 83.572364 52.239249 
L 83.596891 52.224 
L 86.458182 50.875388 
L 89.344 50.048035 
L 92.022396 49.536 
L 92.229818 49.50228 
L 95.115636 49.075065 
L 98.001455 48.677238 
L 100.887273 48.252699 
L 103.773091 47.755084 
L 106.658909 47.138448 
L 107.740296 46.848 
L 109.544727 46.296466 
L 112.430545 45.182634 
L 114.55656 44.16 
L 115.316364 43.735196 
L 118.202182 41.911064 
L 118.847253 41.472 
" style="fill:none;stroke:#0038e3;stroke-width:1.5;"/>
    <path clip-path="url(#p03af49a0c9)" d="M 282.048747 41.472 
L 282.693818 41.911064 
L 285.579636 43.735196 
L 286.33944 44.16 
L 288.465455 45.182634 
L 291.351273 46.296466 
L 293.155704 46.848 
L 294.237091 47.138448 
L 297.122909 47.755084 
L 300.008727 48.252699 
L 302.894545 48.677238 
L 305.780364 49.075065 
L 308.666182 49.50228 
L 308.873604 49.536 
L 311.552 50.048035 
L 314.437818 50.875388 
L 317.299109 52.224 
L 317.323636 52.239249 
L 320.209455 54.660218 
L 320.444928 54.912 
L 322.758138 57.6 
L 323.095273 57.958321 
L 325.440375 60.288 
L 325.981091 60.700247 
L 328.866909 62.471894 
L 329.997368 62.976 
L 331.752727 63.574267 
L 334.638545 64.232833 
L 337.524364 64.630845 
L 340.410182 64.850485 
L 343.296 64.99282 
" style="fill:none;stroke:#0038e3;stroke-width:1.5;"/>
   </g>
   <g id="LineCollection_9">
    <path clip-path="url(#p03af49a0c9)" d="M 69.905054 307.584 
L 69.143273 307.112084 
L 66.257455 304.976908 
L 66.160189 304.896 
L 63.371636 302.24217 
L 63.33527 302.208 
L 60.485818 299.593853 
L 60.392919 299.52 
L 57.6 297.593843 
" style="fill:none;stroke:#001cf1;stroke-width:1.5;"/>
    <path clip-path="url(#p03af49a0c9)" d="M 343.296 297.593843 
L 340.503081 299.52 
L 340.410182 299.593853 
L 337.56073 302.208 
L 337.524364 302.24217 
L 334.735811 304.896 
L 334.638545 304.976908 
L 331.752727 307.112084 
L 330.990946 307.584 
" style="fill:none;stroke:#001cf1;stroke-width:1.5;"/>
    <path clip-path="url(#p03af49a0c9)" d="M 57.6 51.462157 
L 60.392919 49.536 
L 60.485818 49.462147 
L 63.33527 46.848 
L 63.371636 46.81383 
L 66.160189 44.16 
L 66.257455 44.079092 
L 69.143273 41.943916 
L 69.905054 41.472 
" style="fill:none;stroke:#001cf1;stroke-width:1.5;"/>
    <path clip-path="url(#p03af49a0c9)" d="M 330.990946 41.472 
L 331.752727 41.943916 
L 334.638545 44.079092 
L 334.735811 44.16 
L 337.524364 46.81383 
L 337.56073 46.848 
L 340.410182 49.462147 
L 340.503081 49.536 
L 343.296 51.462157 
" style="fill:none;stroke:#001cf1;stroke-width:1.5;"/>
   </g>
   <g id="LineCollection_10"/>
   <g id="patch_3">
    <path d="M 57.6 307.584 
L 57.6 41.472 
" style="fill:none;stroke:#000000;stroke-linecap:square;stroke-linejoin:miter;stroke-width:0.8;"/>
   </g>
   <g id="patch_4">
    <path d="M 343.296 307.584 
L 343.296 41.472 
" style="fill:none;stroke:#000000;stroke-linecap:square;stroke-linejoin:miter;stroke-width:0.8;"/>
   </g>
   <g id="patch_5">
    <path d="M 57.6 307.584 
L 343.296 307.584 
" style="fill:none;stroke:#000000;stroke-linecap:square;stroke-linejoin:miter;stroke-width:0.8;"/>
   </g>
   <g id="patch_6">
    <path d="M 57.6 41.472 
L 343.296 41.472 
" style="fill:none;stroke:#000000;stroke-linecap:square;stroke-linejoin:miter;stroke-width:0.8;"/>
   </g>
  </g>
  <g id="axes_2">
   <g id="patch_7">
    <path clip-path="url(#p9eff776e3c)" d="M 361.152 307.584 
L 361.152 278.016 
L 361.152 71.04 
L 361.152 41.472 
L 374.4576 41.472 
L 374.4576 71.04 
L 374.4576 278.016 
L 374.4576 307.584 
z
" style="fill:#ffffff;stroke:#ffffff;stroke-linejoin:miter;stroke-width:0.01;"/>
   </g>
   <g id="matplotlib.axis_3"/>
   <g id="matplotlib.axis_4">
    <g id="ytick_8">
     <g id="line2d_15">
      <defs>
       <path d="M 0 0 
L 3.5 0 
" id="maba7c72d84" style="stroke:#000000;stroke-width:0.8;"/>
      </defs>
      <g>
       <use style="stroke:#000000;stroke-width:0.8;" x="374.4576" xlink:href="#maba7c72d84" y="307.584"/>
      </g>
     </g>
     <g id="text_15">
      <!-- 0.0 -->
      <g transform="translate(381.4576 311.383219)scale(0.1 -0.1)">
       <use xlink:href="#DejaVuSans-48"/>
       <use x="63.623047" xlink:href="#DejaVuSans-46"/>
       <use x="95.410156" xlink:href="#DejaVuSans-48"/>
      </g>
     </g>
    </g>
    <g id="ytick_9">
     <g id="line2d_16">
      <g>
       <use style="stroke:#000000;stroke-width:0.8;" x="374.4576" xlink:href="#maba7c72d84" y="278.016"/>
      </g>
     </g>
     <g id="text_16">
      <!-- 0.8 -->
      <defs>
       <path d="M 31.78125 34.625 
Q 24.75 34.625 20.71875 30.859375 
Q 16.703125 27.09375 16.703125 20.515625 
Q 16.703125 13.921875 20.71875 10.15625 
Q 24.75 6.390625 31.78125 6.390625 
Q 38.8125 6.390625 42.859375 10.171875 
Q 46.921875 13.96875 46.921875 20.515625 
Q 46.921875 27.09375 42.890625 30.859375 
Q 38.875 34.625 31.78125 34.625 
z
M 21.921875 38.8125 
Q 15.578125 40.375 12.03125 44.71875 
Q 8.5 49.078125 8.5 55.328125 
Q 8.5 64.0625 14.71875 69.140625 
Q 20.953125 74.21875 31.78125 74.21875 
Q 42.671875 74.21875 48.875 69.140625 
Q 55.078125 64.0625 55.078125 55.328125 
Q 55.078125 49.078125 51.53125 44.71875 
Q 48 40.375 41.703125 38.8125 
Q 48.828125 37.15625 52.796875 32.3125 
Q 56.78125 27.484375 56.78125 20.515625 
Q 56.78125 9.90625 50.3125 4.234375 
Q 43.84375 -1.421875 31.78125 -1.421875 
Q 19.734375 -1.421875 13.25 4.234375 
Q 6.78125 9.90625 6.78125 20.515625 
Q 6.78125 27.484375 10.78125 32.3125 
Q 14.796875 37.15625 21.921875 38.8125 
z
M 18.3125 54.390625 
Q 18.3125 48.734375 21.84375 45.5625 
Q 25.390625 42.390625 31.78125 42.390625 
Q 38.140625 42.390625 41.71875 45.5625 
Q 45.3125 48.734375 45.3125 54.390625 
Q 45.3125 60.0625 41.71875 63.234375 
Q 38.140625 66.40625 31.78125 66.40625 
Q 25.390625 66.40625 21.84375 63.234375 
Q 18.3125 60.0625 18.3125 54.390625 
z
" id="DejaVuSans-56"/>
      </defs>
      <g transform="translate(381.4576 281.815219)scale(0.1 -0.1)">
       <use xlink:href="#DejaVuSans-48"/>
       <use x="63.623047" xlink:href="#DejaVuSans-46"/>
       <use x="95.410156" xlink:href="#DejaVuSans-56"/>
      </g>
     </g>
    </g>
    <g id="ytick_10">
     <g id="line2d_17">
      <g>
       <use style="stroke:#000000;stroke-width:0.8;" x="374.4576" xlink:href="#maba7c72d84" y="248.448"/>
      </g>
     </g>
     <g id="text_17">
      <!-- 1.6 -->
      <defs>
       <path d="M 33.015625 40.375 
Q 26.375 40.375 22.484375 35.828125 
Q 18.609375 31.296875 18.609375 23.390625 
Q 18.609375 15.53125 22.484375 10.953125 
Q 26.375 6.390625 33.015625 6.390625 
Q 39.65625 6.390625 43.53125 10.953125 
Q 47.40625 15.53125 47.40625 23.390625 
Q 47.40625 31.296875 43.53125 35.828125 
Q 39.65625 40.375 33.015625 40.375 
z
M 52.59375 71.296875 
L 52.59375 62.3125 
Q 48.875 64.0625 45.09375 64.984375 
Q 41.3125 65.921875 37.59375 65.921875 
Q 27.828125 65.921875 22.671875 59.328125 
Q 17.53125 52.734375 16.796875 39.40625 
Q 19.671875 43.65625 24.015625 45.921875 
Q 28.375 48.1875 33.59375 48.1875 
Q 44.578125 48.1875 50.953125 41.515625 
Q 57.328125 34.859375 57.328125 23.390625 
Q 57.328125 12.15625 50.6875 5.359375 
Q 44.046875 -1.421875 33.015625 -1.421875 
Q 20.359375 -1.421875 13.671875 8.265625 
Q 6.984375 17.96875 6.984375 36.375 
Q 6.984375 53.65625 15.1875 63.9375 
Q 23.390625 74.21875 37.203125 74.21875 
Q 40.921875 74.21875 44.703125 73.484375 
Q 48.484375 72.75 52.59375 71.296875 
z
" id="DejaVuSans-54"/>
      </defs>
      <g transform="translate(381.4576 252.247219)scale(0.1 -0.1)">
       <use xlink:href="#DejaVuSans-49"/>
       <use x="63.623047" xlink:href="#DejaVuSans-46"/>
       <use x="95.410156" xlink:href="#DejaVuSans-54"/>
      </g>
     </g>
    </g>
    <g id="ytick_11">
     <g id="line2d_18">
      <g>
       <use style="stroke:#000000;stroke-width:0.8;" x="374.4576" xlink:href="#maba7c72d84" y="218.88"/>
      </g>
     </g>
     <g id="text_18">
      <!-- 2.4 -->
      <defs>
       <path d="M 19.1875 8.296875 
L 53.609375 8.296875 
L 53.609375 0 
L 7.328125 0 
L 7.328125 8.296875 
Q 12.9375 14.109375 22.625 23.890625 
Q 32.328125 33.6875 34.8125 36.53125 
Q 39.546875 41.84375 41.421875 45.53125 
Q 43.3125 49.21875 43.3125 52.78125 
Q 43.3125 58.59375 39.234375 62.25 
Q 35.15625 65.921875 28.609375 65.921875 
Q 23.96875 65.921875 18.8125 64.3125 
Q 13.671875 62.703125 7.8125 59.421875 
L 7.8125 69.390625 
Q 13.765625 71.78125 18.9375 73 
Q 24.125 74.21875 28.421875 74.21875 
Q 39.75 74.21875 46.484375 68.546875 
Q 53.21875 62.890625 53.21875 53.421875 
Q 53.21875 48.921875 51.53125 44.890625 
Q 49.859375 40.875 45.40625 35.40625 
Q 44.1875 33.984375 37.640625 27.21875 
Q 31.109375 20.453125 19.1875 8.296875 
z
" id="DejaVuSans-50"/>
       <path d="M 37.796875 64.3125 
L 12.890625 25.390625 
L 37.796875 25.390625 
z
M 35.203125 72.90625 
L 47.609375 72.90625 
L 47.609375 25.390625 
L 58.015625 25.390625 
L 58.015625 17.1875 
L 47.609375 17.1875 
L 47.609375 0 
L 37.796875 0 
L 37.796875 17.1875 
L 4.890625 17.1875 
L 4.890625 26.703125 
z
" id="DejaVuSans-52"/>
      </defs>
      <g transform="translate(381.4576 222.679219)scale(0.1 -0.1)">
       <use xlink:href="#DejaVuSans-50"/>
       <use x="63.623047" xlink:href="#DejaVuSans-46"/>
       <use x="95.410156" xlink:href="#DejaVuSans-52"/>
      </g>
     </g>
    </g>
    <g id="ytick_12">
     <g id="line2d_19">
      <g>
       <use style="stroke:#000000;stroke-width:0.8;" x="374.4576" xlink:href="#maba7c72d84" y="189.312"/>
      </g>
     </g>
     <g id="text_19">
      <!-- 3.2 -->
      <defs>
       <path d="M 40.578125 39.3125 
Q 47.65625 37.796875 51.625 33 
Q 55.609375 28.21875 55.609375 21.1875 
Q 55.609375 10.40625 48.1875 4.484375 
Q 40.765625 -1.421875 27.09375 -1.421875 
Q 22.515625 -1.421875 17.65625 -0.515625 
Q 12.796875 0.390625 7.625 2.203125 
L 7.625 11.71875 
Q 11.71875 9.328125 16.59375 8.109375 
Q 21.484375 6.890625 26.8125 6.890625 
Q 36.078125 6.890625 40.9375 10.546875 
Q 45.796875 14.203125 45.796875 21.1875 
Q 45.796875 27.640625 41.28125 31.265625 
Q 36.765625 34.90625 28.71875 34.90625 
L 20.21875 34.90625 
L 20.21875 43.015625 
L 29.109375 43.015625 
Q 36.375 43.015625 40.234375 45.921875 
Q 44.09375 48.828125 44.09375 54.296875 
Q 44.09375 59.90625 40.109375 62.90625 
Q 36.140625 65.921875 28.71875 65.921875 
Q 24.65625 65.921875 20.015625 65.03125 
Q 15.375 64.15625 9.8125 62.3125 
L 9.8125 71.09375 
Q 15.4375 72.65625 20.34375 73.4375 
Q 25.25 74.21875 29.59375 74.21875 
Q 40.828125 74.21875 47.359375 69.109375 
Q 53.90625 64.015625 53.90625 55.328125 
Q 53.90625 49.265625 50.4375 45.09375 
Q 46.96875 40.921875 40.578125 39.3125 
z
" id="DejaVuSans-51"/>
      </defs>
      <g transform="translate(381.4576 193.111219)scale(0.1 -0.1)">
       <use xlink:href="#DejaVuSans-51"/>
       <use x="63.623047" xlink:href="#DejaVuSans-46"/>
       <use x="95.410156" xlink:href="#DejaVuSans-50"/>
      </g>
     </g>
    </g>
    <g id="ytick_13">
     <g id="line2d_20">
      <g>
       <use style="stroke:#000000;stroke-width:0.8;" x="374.4576" xlink:href="#maba7c72d84" y="159.744"/>
      </g>
     </g>
     <g id="text_20">
      <!-- 4.0 -->
      <g transform="translate(381.4576 163.543219)scale(0.1 -0.1)">
       <use xlink:href="#DejaVuSans-52"/>
       <use x="63.623047" xlink:href="#DejaVuSans-46"/>
       <use x="95.410156" xlink:href="#DejaVuSans-48"/>
      </g>
     </g>
    </g>
    <g id="ytick_14">
     <g id="line2d_21">
      <g>
       <use style="stroke:#000000;stroke-width:0.8;" x="374.4576" xlink:href="#maba7c72d84" y="130.176"/>
      </g>
     </g>
     <g id="text_21">
      <!-- 4.8 -->
      <g transform="translate(381.4576 133.975219)scale(0.1 -0.1)">
       <use xlink:href="#DejaVuSans-52"/>
       <use x="63.623047" xlink:href="#DejaVuSans-46"/>
       <use x="95.410156" xlink:href="#DejaVuSans-56"/>
      </g>
     </g>
    </g>
    <g id="ytick_15">
     <g id="line2d_22">
      <g>
       <use style="stroke:#000000;stroke-width:0.8;" x="374.4576" xlink:href="#maba7c72d84" y="100.608"/>
      </g>
     </g>
     <g id="text_22">
      <!-- 5.6 -->
      <g transform="translate(381.4576 104.407219)scale(0.1 -0.1)">
       <use xlink:href="#DejaVuSans-53"/>
       <use x="63.623047" xlink:href="#DejaVuSans-46"/>
       <use x="95.410156" xlink:href="#DejaVuSans-54"/>
      </g>
     </g>
    </g>
    <g id="ytick_16">
     <g id="line2d_23">
      <g>
       <use style="stroke:#000000;stroke-width:0.8;" x="374.4576" xlink:href="#maba7c72d84" y="71.04"/>
      </g>
     </g>
     <g id="text_23">
      <!-- 6.4 -->
      <g transform="translate(381.4576 74.839219)scale(0.1 -0.1)">
       <use xlink:href="#DejaVuSans-54"/>
       <use x="63.623047" xlink:href="#DejaVuSans-46"/>
       <use x="95.410156" xlink:href="#DejaVuSans-52"/>
      </g>
     </g>
    </g>
    <g id="ytick_17">
     <g id="line2d_24">
      <g>
       <use style="stroke:#000000;stroke-width:0.8;" x="374.4576" xlink:href="#maba7c72d84" y="41.472"/>
      </g>
     </g>
     <g id="text_24">
      <!-- 7.2 -->
      <defs>
       <path d="M 8.203125 72.90625 
L 55.078125 72.90625 
L 55.078125 68.703125 
L 28.609375 0 
L 18.3125 0 
L 43.21875 64.59375 
L 8.203125 64.59375 
z
" id="DejaVuSans-55"/>
      </defs>
      <g transform="translate(381.4576 45.271219)scale(0.1 -0.1)">
       <use xlink:href="#DejaVuSans-55"/>
       <use x="63.623047" xlink:href="#DejaVuSans-46"/>
       <use x="95.410156" xlink:href="#DejaVuSans-50"/>
      </g>
     </g>
    </g>
   </g>
   <g id="LineCollection_11">
    <path clip-path="url(#p9eff776e3c)" d="M 361.152 307.584 
L 374.4576 307.584 
" style="fill:none;stroke:#00ff80;stroke-width:1.5;"/>
    <path clip-path="url(#p9eff776e3c)" d="M 361.152 278.016 
L 374.4576 278.016 
" style="fill:none;stroke:#00e38e;stroke-width:1.5;"/>
    <path clip-path="url(#p9eff776e3c)" d="M 361.152 248.448 
L 374.4576 248.448 
" style="fill:none;stroke:#00c79c;stroke-width:1.5;"/>
    <path clip-path="url(#p9eff776e3c)" d="M 361.152 218.88 
L 374.4576 218.88 
" style="fill:none;stroke:#00aaaa;stroke-width:1.5;"/>
    <path clip-path="url(#p9eff776e3c)" d="M 361.152 189.312 
L 374.4576 189.312 
" style="fill:none;stroke:#008eb8;stroke-width:1.5;"/>
    <path clip-path="url(#p9eff776e3c)" d="M 361.152 159.744 
L 374.4576 159.744 
" style="fill:none;stroke:#0071c6;stroke-width:1.5;"/>
    <path clip-path="url(#p9eff776e3c)" d="M 361.152 130.176 
L 374.4576 130.176 
" style="fill:none;stroke:#0055d4;stroke-width:1.5;"/>
    <path clip-path="url(#p9eff776e3c)" d="M 361.152 100.608 
L 374.4576 100.608 
" style="fill:none;stroke:#0038e3;stroke-width:1.5;"/>
    <path clip-path="url(#p9eff776e3c)" d="M 361.152 71.04 
L 374.4576 71.04 
" style="fill:none;stroke:#001cf1;stroke-width:1.5;"/>
    <path clip-path="url(#p9eff776e3c)" d="M 361.152 41.472 
L 374.4576 41.472 
" style="fill:none;stroke:#0000ff;stroke-width:1.5;"/>
   </g>
   <g id="patch_8">
    <path d="M 361.152 307.584 
L 361.152 278.016 
L 361.152 71.04 
L 361.152 41.472 
L 374.4576 41.472 
L 374.4576 71.04 
L 374.4576 278.016 
L 374.4576 307.584 
z
" style="fill:none;stroke:#000000;stroke-linejoin:miter;stroke-width:0.8;"/>
   </g>
  </g>
 </g>
 <defs>
  <clipPath id="p03af49a0c9">
   <rect height="266.112" width="285.696" x="57.6" y="41.472"/>
  </clipPath>
  <clipPath id="p9eff776e3c">
   <rect height="266.112" width="13.3056" x="361.152" y="41.472"/>
  </clipPath>
 </defs>
</svg>
