<?xml version="1.0" encoding="utf-8" standalone="no"?>
<!DOCTYPE svg PUBLIC "-//W3C//DTD SVG 1.1//EN"
  "http://www.w3.org/Graphics/SVG/1.1/DTD/svg11.dtd">
<!-- Created with matplotlib (https://matplotlib.org/) -->
<svg height="345.6pt" version="1.1" viewBox="0 0 460.8 345.6" width="460.8pt" xmlns="http://www.w3.org/2000/svg" xmlns:xlink="http://www.w3.org/1999/xlink">
 <defs>
  <style type="text/css">
*{stroke-linecap:butt;stroke-linejoin:round;}
  </style>
 </defs>
 <g id="figure_1">
  <g id="patch_1">
   <path d="M 0 345.6 
L 460.8 345.6 
L 460.8 0 
L 0 0 
z
" style="fill:#ffffff;"/>
  </g>
  <g id="axes_1">
   <g id="patch_2">
    <path d="M 57.6 307.584 
L 343.296 307.584 
L 343.296 41.472 
L 57.6 41.472 
z
" style="fill:#ffffff;"/>
   </g>
   <g id="matplotlib.axis_1">
    <g id="xtick_1">
     <g id="line2d_1">
      <defs>
       <path d="M 0 0 
L 0 3.5 
" id="m9a59225393" style="stroke:#000000;stroke-width:0.8;"/>
      </defs>
      <g>
       <use style="stroke:#000000;stroke-width:0.8;" x="57.6" xlink:href="#m9a59225393" y="307.584"/>
      </g>
     </g>
     <g id="text_1">
      <!-- −10.0 -->
      <defs>
       <path d="M 10.59375 35.5 
L 73.1875 35.5 
L 73.1875 27.203125 
L 10.59375 27.203125 
z
" id="DejaVuSans-8722"/>
       <path d="M 12.40625 8.296875 
L 28.515625 8.296875 
L 28.515625 63.921875 
L 10.984375 60.40625 
L 10.984375 69.390625 
L 28.421875 72.90625 
L 38.28125 72.90625 
L 38.28125 8.296875 
L 54.390625 8.296875 
L 54.390625 0 
L 12.40625 0 
z
" id="DejaVuSans-49"/>
       <path d="M 31.78125 66.40625 
Q 24.171875 66.40625 20.328125 58.90625 
Q 16.5 51.421875 16.5 36.375 
Q 16.5 21.390625 20.328125 13.890625 
Q 24.171875 6.390625 31.78125 6.390625 
Q 39.453125 6.390625 43.28125 13.890625 
Q 47.125 21.390625 47.125 36.375 
Q 47.125 51.421875 43.28125 58.90625 
Q 39.453125 66.40625 31.78125 66.40625 
z
M 31.78125 74.21875 
Q 44.046875 74.21875 50.515625 64.515625 
Q 56.984375 54.828125 56.984375 36.375 
Q 56.984375 17.96875 50.515625 8.265625 
Q 44.046875 -1.421875 31.78125 -1.421875 
Q 19.53125 -1.421875 13.0625 8.265625 
Q 6.59375 17.96875 6.59375 36.375 
Q 6.59375 54.828125 13.0625 64.515625 
Q 19.53125 74.21875 31.78125 74.21875 
z
" id="DejaVuSans-48"/>
       <path d="M 10.6875 12.40625 
L 21 12.40625 
L 21 0 
L 10.6875 0 
z
" id="DejaVuSans-46"/>
      </defs>
      <g transform="translate(42.277344 322.182437)scale(0.1 -0.1)">
       <use xlink:href="#DejaVuSans-8722"/>
       <use x="83.789062" xlink:href="#DejaVuSans-49"/>
       <use x="147.412109" xlink:href="#DejaVuSans-48"/>
       <use x="211.035156" xlink:href="#DejaVuSans-46"/>
       <use x="242.822266" xlink:href="#DejaVuSans-48"/>
      </g>
     </g>
    </g>
    <g id="xtick_2">
     <g id="line2d_2">
      <g>
       <use style="stroke:#000000;stroke-width:0.8;" x="93.312" xlink:href="#m9a59225393" y="307.584"/>
      </g>
     </g>
     <g id="text_2">
      <!-- −7.5 -->
      <defs>
       <path d="M 8.203125 72.90625 
L 55.078125 72.90625 
L 55.078125 68.703125 
L 28.609375 0 
L 18.3125 0 
L 43.21875 64.59375 
L 8.203125 64.59375 
z
" id="DejaVuSans-55"/>
       <path d="M 10.796875 72.90625 
L 49.515625 72.90625 
L 49.515625 64.59375 
L 19.828125 64.59375 
L 19.828125 46.734375 
Q 21.96875 47.46875 24.109375 47.828125 
Q 26.265625 48.1875 28.421875 48.1875 
Q 40.625 48.1875 47.75 41.5 
Q 54.890625 34.8125 54.890625 23.390625 
Q 54.890625 11.625 47.5625 5.09375 
Q 40.234375 -1.421875 26.90625 -1.421875 
Q 22.3125 -1.421875 17.546875 -0.640625 
Q 12.796875 0.140625 7.71875 1.703125 
L 7.71875 11.625 
Q 12.109375 9.234375 16.796875 8.0625 
Q 21.484375 6.890625 26.703125 6.890625 
Q 35.15625 6.890625 40.078125 11.328125 
Q 45.015625 15.765625 45.015625 23.390625 
Q 45.015625 31 40.078125 35.4375 
Q 35.15625 39.890625 26.703125 39.890625 
Q 22.75 39.890625 18.8125 39.015625 
Q 14.890625 38.140625 10.796875 36.28125 
z
" id="DejaVuSans-53"/>
      </defs>
      <g transform="translate(81.170594 322.182437)scale(0.1 -0.1)">
       <use xlink:href="#DejaVuSans-8722"/>
       <use x="83.789062" xlink:href="#DejaVuSans-55"/>
       <use x="147.412109" xlink:href="#DejaVuSans-46"/>
       <use x="179.199219" xlink:href="#DejaVuSans-53"/>
      </g>
     </g>
    </g>
    <g id="xtick_3">
     <g id="line2d_3">
      <g>
       <use style="stroke:#000000;stroke-width:0.8;" x="129.024" xlink:href="#m9a59225393" y="307.584"/>
      </g>
     </g>
     <g id="text_3">
      <!-- −5.0 -->
      <g transform="translate(116.882594 322.182437)scale(0.1 -0.1)">
       <use xlink:href="#DejaVuSans-8722"/>
       <use x="83.789062" xlink:href="#DejaVuSans-53"/>
       <use x="147.412109" xlink:href="#DejaVuSans-46"/>
       <use x="179.199219" xlink:href="#DejaVuSans-48"/>
      </g>
     </g>
    </g>
    <g id="xtick_4">
     <g id="line2d_4">
      <g>
       <use style="stroke:#000000;stroke-width:0.8;" x="164.736" xlink:href="#m9a59225393" y="307.584"/>
      </g>
     </g>
     <g id="text_4">
      <!-- −2.5 -->
      <defs>
       <path d="M 19.1875 8.296875 
L 53.609375 8.296875 
L 53.609375 0 
L 7.328125 0 
L 7.328125 8.296875 
Q 12.9375 14.109375 22.625 23.890625 
Q 32.328125 33.6875 34.8125 36.53125 
Q 39.546875 41.84375 41.421875 45.53125 
Q 43.3125 49.21875 43.3125 52.78125 
Q 43.3125 58.59375 39.234375 62.25 
Q 35.15625 65.921875 28.609375 65.921875 
Q 23.96875 65.921875 18.8125 64.3125 
Q 13.671875 62.703125 7.8125 59.421875 
L 7.8125 69.390625 
Q 13.765625 71.78125 18.9375 73 
Q 24.125 74.21875 28.421875 74.21875 
Q 39.75 74.21875 46.484375 68.546875 
Q 53.21875 62.890625 53.21875 53.421875 
Q 53.21875 48.921875 51.53125 44.890625 
Q 49.859375 40.875 45.40625 35.40625 
Q 44.1875 33.984375 37.640625 27.21875 
Q 31.109375 20.453125 19.1875 8.296875 
z
" id="DejaVuSans-50"/>
      </defs>
      <g transform="translate(152.594594 322.182437)scale(0.1 -0.1)">
       <use xlink:href="#DejaVuSans-8722"/>
       <use x="83.789062" xlink:href="#DejaVuSans-50"/>
       <use x="147.412109" xlink:href="#DejaVuSans-46"/>
       <use x="179.199219" xlink:href="#DejaVuSans-53"/>
      </g>
     </g>
    </g>
    <g id="xtick_5">
     <g id="line2d_5">
      <g>
       <use style="stroke:#000000;stroke-width:0.8;" x="200.448" xlink:href="#m9a59225393" y="307.584"/>
      </g>
     </g>
     <g id="text_5">
      <!-- 0.0 -->
      <g transform="translate(192.496438 322.182437)scale(0.1 -0.1)">
       <use xlink:href="#DejaVuSans-48"/>
       <use x="63.623047" xlink:href="#DejaVuSans-46"/>
       <use x="95.410156" xlink:href="#DejaVuSans-48"/>
      </g>
     </g>
    </g>
    <g id="xtick_6">
     <g id="line2d_6">
      <g>
       <use style="stroke:#000000;stroke-width:0.8;" x="236.16" xlink:href="#m9a59225393" y="307.584"/>
      </g>
     </g>
     <g id="text_6">
      <!-- 2.5 -->
      <g transform="translate(228.208438 322.182437)scale(0.1 -0.1)">
       <use xlink:href="#DejaVuSans-50"/>
       <use x="63.623047" xlink:href="#DejaVuSans-46"/>
       <use x="95.410156" xlink:href="#DejaVuSans-53"/>
      </g>
     </g>
    </g>
    <g id="xtick_7">
     <g id="line2d_7">
      <g>
       <use style="stroke:#000000;stroke-width:0.8;" x="271.872" xlink:href="#m9a59225393" y="307.584"/>
      </g>
     </g>
     <g id="text_7">
      <!-- 5.0 -->
      <g transform="translate(263.920437 322.182437)scale(0.1 -0.1)">
       <use xlink:href="#DejaVuSans-53"/>
       <use x="63.623047" xlink:href="#DejaVuSans-46"/>
       <use x="95.410156" xlink:href="#DejaVuSans-48"/>
      </g>
     </g>
    </g>
    <g id="xtick_8">
     <g id="line2d_8">
      <g>
       <use style="stroke:#000000;stroke-width:0.8;" x="307.584" xlink:href="#m9a59225393" y="307.584"/>
      </g>
     </g>
     <g id="text_8">
      <!-- 7.5 -->
      <g transform="translate(299.632438 322.182437)scale(0.1 -0.1)">
       <use xlink:href="#DejaVuSans-55"/>
       <use x="63.623047" xlink:href="#DejaVuSans-46"/>
       <use x="95.410156" xlink:href="#DejaVuSans-53"/>
      </g>
     </g>
    </g>
    <g id="xtick_9">
     <g id="line2d_9">
      <g>
       <use style="stroke:#000000;stroke-width:0.8;" x="343.296" xlink:href="#m9a59225393" y="307.584"/>
      </g>
     </g>
     <g id="text_9">
      <!-- 10.0 -->
      <g transform="translate(332.163188 322.182437)scale(0.1 -0.1)">
       <use xlink:href="#DejaVuSans-49"/>
       <use x="63.623047" xlink:href="#DejaVuSans-48"/>
       <use x="127.246094" xlink:href="#DejaVuSans-46"/>
       <use x="159.033203" xlink:href="#DejaVuSans-48"/>
      </g>
     </g>
    </g>
   </g>
   <g id="matplotlib.axis_2">
    <g id="ytick_1">
     <g id="line2d_10">
      <defs>
       <path d="M 0 0 
L -3.5 0 
" id="m946c77a9e4" style="stroke:#000000;stroke-width:0.8;"/>
      </defs>
      <g>
       <use style="stroke:#000000;stroke-width:0.8;" x="57.6" xlink:href="#m946c77a9e4" y="307.584"/>
      </g>
     </g>
     <g id="text_10">
      <!-- −10.0 -->
      <g transform="translate(19.954687 311.383219)scale(0.1 -0.1)">
       <use xlink:href="#DejaVuSans-8722"/>
       <use x="83.789062" xlink:href="#DejaVuSans-49"/>
       <use x="147.412109" xlink:href="#DejaVuSans-48"/>
       <use x="211.035156" xlink:href="#DejaVuSans-46"/>
       <use x="242.822266" xlink:href="#DejaVuSans-48"/>
      </g>
     </g>
    </g>
    <g id="ytick_2">
     <g id="line2d_11">
      <g>
       <use style="stroke:#000000;stroke-width:0.8;" x="57.6" xlink:href="#m946c77a9e4" y="274.32"/>
      </g>
     </g>
     <g id="text_11">
      <!-- −7.5 -->
      <g transform="translate(26.317187 278.119219)scale(0.1 -0.1)">
       <use xlink:href="#DejaVuSans-8722"/>
       <use x="83.789062" xlink:href="#DejaVuSans-55"/>
       <use x="147.412109" xlink:href="#DejaVuSans-46"/>
       <use x="179.199219" xlink:href="#DejaVuSans-53"/>
      </g>
     </g>
    </g>
    <g id="ytick_3">
     <g id="line2d_12">
      <g>
       <use style="stroke:#000000;stroke-width:0.8;" x="57.6" xlink:href="#m946c77a9e4" y="241.056"/>
      </g>
     </g>
     <g id="text_12">
      <!-- −5.0 -->
      <g transform="translate(26.317187 244.855219)scale(0.1 -0.1)">
       <use xlink:href="#DejaVuSans-8722"/>
       <use x="83.789062" xlink:href="#DejaVuSans-53"/>
       <use x="147.412109" xlink:href="#DejaVuSans-46"/>
       <use x="179.199219" xlink:href="#DejaVuSans-48"/>
      </g>
     </g>
    </g>
    <g id="ytick_4">
     <g id="line2d_13">
      <g>
       <use style="stroke:#000000;stroke-width:0.8;" x="57.6" xlink:href="#m946c77a9e4" y="207.792"/>
      </g>
     </g>
     <g id="text_13">
      <!-- −2.5 -->
      <g transform="translate(26.317187 211.591219)scale(0.1 -0.1)">
       <use xlink:href="#DejaVuSans-8722"/>
       <use x="83.789062" xlink:href="#DejaVuSans-50"/>
       <use x="147.412109" xlink:href="#DejaVuSans-46"/>
       <use x="179.199219" xlink:href="#DejaVuSans-53"/>
      </g>
     </g>
    </g>
    <g id="ytick_5">
     <g id="line2d_14">
      <g>
       <use style="stroke:#000000;stroke-width:0.8;" x="57.6" xlink:href="#m946c77a9e4" y="174.528"/>
      </g>
     </g>
     <g id="text_14">
      <!-- 0.0 -->
      <g transform="translate(34.696875 178.327219)scale(0.1 -0.1)">
       <use xlink:href="#DejaVuSans-48"/>
       <use x="63.623047" xlink:href="#DejaVuSans-46"/>
       <use x="95.410156" xlink:href="#DejaVuSans-48"/>
      </g>
     </g>
    </g>
    <g id="ytick_6">
     <g id="line2d_15">
      <g>
       <use style="stroke:#000000;stroke-width:0.8;" x="57.6" xlink:href="#m946c77a9e4" y="141.264"/>
      </g>
     </g>
     <g id="text_15">
      <!-- 2.5 -->
      <g transform="translate(34.696875 145.063219)scale(0.1 -0.1)">
       <use xlink:href="#DejaVuSans-50"/>
       <use x="63.623047" xlink:href="#DejaVuSans-46"/>
       <use x="95.410156" xlink:href="#DejaVuSans-53"/>
      </g>
     </g>
    </g>
    <g id="ytick_7">
     <g id="line2d_16">
      <g>
       <use style="stroke:#000000;stroke-width:0.8;" x="57.6" xlink:href="#m946c77a9e4" y="108"/>
      </g>
     </g>
     <g id="text_16">
      <!-- 5.0 -->
      <g transform="translate(34.696875 111.799219)scale(0.1 -0.1)">
       <use xlink:href="#DejaVuSans-53"/>
       <use x="63.623047" xlink:href="#DejaVuSans-46"/>
       <use x="95.410156" xlink:href="#DejaVuSans-48"/>
      </g>
     </g>
    </g>
    <g id="ytick_8">
     <g id="line2d_17">
      <g>
       <use style="stroke:#000000;stroke-width:0.8;" x="57.6" xlink:href="#m946c77a9e4" y="74.736"/>
      </g>
     </g>
     <g id="text_17">
      <!-- 7.5 -->
      <g transform="translate(34.696875 78.535219)scale(0.1 -0.1)">
       <use xlink:href="#DejaVuSans-55"/>
       <use x="63.623047" xlink:href="#DejaVuSans-46"/>
       <use x="95.410156" xlink:href="#DejaVuSans-53"/>
      </g>
     </g>
    </g>
    <g id="ytick_9">
     <g id="line2d_18">
      <g>
       <use style="stroke:#000000;stroke-width:0.8;" x="57.6" xlink:href="#m946c77a9e4" y="41.472"/>
      </g>
     </g>
     <g id="text_18">
      <!-- 10.0 -->
      <g transform="translate(28.334375 45.271219)scale(0.1 -0.1)">
       <use xlink:href="#DejaVuSans-49"/>
       <use x="63.623047" xlink:href="#DejaVuSans-48"/>
       <use x="127.246094" xlink:href="#DejaVuSans-46"/>
       <use x="159.033203" xlink:href="#DejaVuSans-48"/>
      </g>
     </g>
    </g>
   </g>
   <g id="LineCollection_1"/>
   <g id="LineCollection_2">
    <path clip-path="url(#p30ee849cb4)" d="M 343.296 304.29404 
L 337.524364 302.996999 
L 331.752727 301.458221 
L 325.419494 299.52 
L 317.685484 296.832 
L 314.437818 295.599951 
L 308.666182 293.290861 
L 300.008727 289.53146 
L 291.351273 285.445978 
L 282.020531 280.704 
L 274.036364 276.383452 
L 265.378909 271.443617 
L 256.721455 266.248794 
L 248.064 260.807118 
L 239.406545 255.126382 
L 229.653371 248.448 
L 219.205818 240.972735 
L 210.548364 234.526161 
L 200.740631 226.944 
L 190.347636 218.596727 
L 181.025477 210.816 
L 171.696183 202.752 
L 161.489455 193.603292 
L 152.832 185.561527 
L 144.174545 177.247237 
L 134.688915 167.808 
L 126.859636 159.743717 
L 118.202182 150.487792 
L 109.544727 140.883489 
L 100.316795 130.176 
L 93.650723 122.112 
L 86.458182 113.062089 
L 80.686545 105.499984 
L 74.914909 97.623621 
L 69.143273 89.376132 
L 63.371636 80.68605 
L 58.985603 73.728 
L 57.6 71.462297 
L 57.6 71.462297 
" style="fill:none;stroke:#00e38e;stroke-width:1.5;"/>
    <path clip-path="url(#p30ee849cb4)" d="M 227.707627 41.472 
L 227.863273 41.593881 
L 230.749091 43.87396 
L 231.108527 44.16 
L 233.634909 46.180971 
L 234.463723 46.848 
L 236.520727 48.512146 
L 237.7787 49.536 
L 239.406545 50.867865 
L 241.054178 52.224 
L 242.292364 53.24852 
L 244.290859 54.912 
L 245.178182 55.654507 
L 247.489427 57.6 
L 248.064 58.086234 
L 250.650553 60.288 
L 250.949818 60.544115 
L 253.774889 62.976 
L 253.835636 63.028576 
L 256.721455 65.543328 
L 256.859093 65.664 
L 259.607273 68.086239 
L 259.907109 68.352 
L 262.493091 70.656354 
L 262.92123 71.04 
L 265.378909 73.254113 
L 265.902018 73.728 
L 268.264727 75.879962 
L 268.850024 76.416 
L 271.150545 78.534362 
L 271.765784 79.104 
L 274.036364 81.217779 
L 274.649826 81.792 
L 276.922182 83.930692 
L 277.502663 84.48 
L 279.808 86.673591 
L 280.3248 87.168 
L 282.693818 89.446974 
L 283.116729 89.856 
L 285.579636 92.251354 
L 285.878933 92.544 
L 288.465455 95.087253 
L 288.611885 95.232 
L 291.315093 97.92 
L 291.351273 97.956228 
L 293.985271 100.608 
L 294.237091 100.863002 
L 296.626868 103.296 
L 297.122909 103.803984 
L 299.240341 105.984 
L 300.008727 106.77978 
L 301.826136 108.672 
L 302.894545 109.791013 
L 304.38469 111.36 
L 305.780364 112.838319 
L 306.916432 114.048 
L 308.666182 115.922352 
L 309.421782 116.736 
L 311.552 119.043777 
L 311.901149 119.424 
L 314.352741 122.112 
L 314.437818 122.206152 
L 316.769312 124.8 
L 317.323636 125.420606 
L 319.160558 127.488 
L 320.209455 128.676021 
L 321.526875 130.176 
L 323.095273 131.973185 
L 323.868653 132.864 
L 325.981091 135.312908 
L 326.186269 135.552 
L 328.46991 138.24 
L 328.866909 138.711325 
L 330.724243 140.928 
L 331.752727 142.163762 
L 332.955076 143.616 
L 334.638545 145.663188 
L 335.162774 146.304 
L 337.343016 148.992 
L 337.524364 149.21832 
L 339.486484 151.68 
L 340.410182 152.847153 
L 341.60749 154.368 
L 343.296 156.528218 
" style="fill:none;stroke:#00e38e;stroke-width:1.5;"/>
   </g>
   <g id="LineCollection_3">
    <path clip-path="url(#p30ee849cb4)" d="M 253.427019 307.584 
L 241.474018 299.52 
L 229.954572 291.456 
L 218.820542 283.392 
L 207.662545 275.042341 
L 196.119273 266.1189 
L 184.080376 256.512 
L 173.032727 247.412332 
L 161.489455 237.621481 
L 149.301751 226.944 
L 137.412532 216.192 
L 125.888924 205.44 
L 114.714318 194.688 
L 103.773091 183.83323 
L 92.229818 171.99554 
L 83.177965 162.432 
L 73.303941 151.68 
L 63.371636 140.515781 
L 57.6 133.845544 
L 57.6 133.845544 
" style="fill:none;stroke:#00c79c;stroke-width:1.5;"/>
    <path clip-path="url(#p30ee849cb4)" d="M 279.257248 41.472 
L 279.808 41.961212 
L 282.273477 44.16 
L 282.693818 44.536315 
L 285.265659 46.848 
L 285.579636 47.131307 
L 288.234079 49.536 
L 288.465455 49.746418 
L 291.17902 52.224 
L 291.351273 52.381885 
L 294.100758 54.912 
L 294.237091 55.037946 
L 296.999567 57.6 
L 297.122909 57.714842 
L 299.875716 60.288 
L 300.008727 60.412821 
L 302.729469 62.976 
L 302.894545 63.132131 
L 305.561087 65.664 
L 305.780364 65.873028 
L 308.370827 68.352 
L 308.666182 68.635769 
L 311.158941 71.04 
L 311.552 71.420616 
L 313.925678 73.728 
L 314.437818 74.227836 
L 316.671283 76.416 
L 317.323636 77.0577 
L 319.395996 79.104 
L 320.209455 79.910482 
L 322.100056 81.792 
L 323.095273 82.786462 
L 324.783697 84.48 
L 325.981091 85.685924 
L 327.447148 87.168 
L 328.866909 88.609157 
L 330.090638 89.856 
L 331.752727 91.556455 
L 332.714388 92.544 
L 334.638545 94.528115 
L 335.318621 95.232 
L 337.524364 97.524442 
L 337.903552 97.92 
L 340.410182 100.545743 
L 340.469395 100.608 
L 343.011122 103.296 
L 343.296 103.598666 
" style="fill:none;stroke:#00c79c;stroke-width:1.5;"/>
   </g>
   <g id="LineCollection_4">
    <path clip-path="url(#p30ee849cb4)" d="M 207.363704 307.584 
L 204.776727 305.614972 
L 203.835574 304.896 
L 201.890909 303.405943 
L 200.333183 302.208 
L 199.005091 301.183568 
L 196.85625 299.52 
L 196.119273 298.947726 
L 193.404498 296.832 
L 193.233455 296.698294 
L 190.347636 294.430778 
L 189.984211 294.144 
L 187.461818 292.14759 
L 186.591104 291.456 
L 184.576 289.850609 
L 183.221879 288.768 
L 181.690182 287.539709 
L 179.876286 286.08 
L 178.804364 285.214763 
L 176.554076 283.392 
L 175.918545 282.875643 
L 173.255005 280.704 
L 173.032727 280.522218 
L 170.146909 278.152268 
L 169.981699 278.016 
L 167.261091 275.765202 
L 166.734428 275.328 
L 164.375273 273.363628 
L 163.509161 272.64 
L 161.489455 270.947412 
L 160.305675 269.952 
L 158.603636 268.516421 
L 157.12375 267.264 
L 155.717818 266.070517 
L 153.96317 264.576 
L 152.832 263.609565 
L 150.82372 261.888 
L 149.946182 261.133423 
L 147.70519 259.2 
L 147.060364 258.641952 
L 144.60737 256.512 
L 144.174545 256.135008 
L 141.530056 253.824 
L 141.288727 253.612447 
L 138.473044 251.136 
L 138.402909 251.074123 
L 135.517091 248.518777 
L 135.437443 248.448 
L 132.631273 245.946654 
L 132.422548 245.76 
L 129.745455 243.358557 
L 129.427031 243.072 
L 126.859636 240.754338 
L 126.450708 240.384 
L 123.973818 238.133845 
L 123.493394 237.696 
L 121.088 235.496924 
L 120.554907 235.008 
L 118.202182 232.843423 
L 117.635068 232.32 
L 115.316364 230.173182 
L 114.7337 229.632 
L 112.430545 227.486044 
L 111.850629 226.944 
L 109.544727 224.781847 
L 108.985682 224.256 
L 106.658909 222.060429 
L 106.138689 221.568 
L 103.773091 219.321625 
L 103.309481 218.88 
L 100.887273 216.565266 
L 100.497892 216.192 
L 98.001455 213.791185 
L 97.703758 213.504 
L 95.115636 210.99921 
L 94.926917 210.816 
L 92.229818 208.189166 
L 92.16721 208.128 
L 89.425734 205.44 
L 89.344 205.359573 
L 86.702306 202.752 
L 86.458182 202.510231 
L 83.995786 200.064 
L 83.572364 199.64196 
L 81.306016 197.376 
L 80.686545 196.754571 
L 78.632843 194.688 
L 77.800727 193.847871 
L 75.976112 192 
L 74.914909 190.921666 
L 73.335672 189.312 
L 72.029091 187.97576 
L 70.711375 186.624 
L 69.143273 185.009952 
L 68.103072 183.936 
L 66.257455 182.02404 
L 65.510618 181.248 
L 63.371636 179.017819 
L 62.933869 178.56 
L 60.485818 175.991082 
L 60.372682 175.872 
L 57.830385 173.184 
L 57.6 172.93943 
" style="fill:none;stroke:#00aaaa;stroke-width:1.5;"/>
    <path clip-path="url(#p30ee849cb4)" d="M 316.752013 41.472 
L 317.323636 42.005971 
L 319.622232 44.16 
L 320.209455 44.712055 
L 322.474276 46.848 
L 323.095273 47.435543 
L 325.308318 49.536 
L 325.981091 50.176606 
L 328.124527 52.224 
L 328.866909 52.935413 
L 330.923072 54.912 
L 331.752727 55.712137 
L 333.704117 57.6 
L 334.638545 58.506954 
L 336.467827 60.288 
L 337.524364 61.32004 
L 339.214363 62.976 
L 340.410182 64.151576 
L 341.943884 65.664 
L 343.296 67.001743 
" style="fill:none;stroke:#00aaaa;stroke-width:1.5;"/>
   </g>
   <g id="LineCollection_5">
    <path clip-path="url(#p30ee849cb4)" d="M 172.096498 307.584 
L 170.146909 306.001092 
L 168.789908 304.896 
L 167.261091 303.647712 
L 165.503108 302.208 
L 164.375273 301.281915 
L 162.235923 299.52 
L 161.489455 298.903602 
L 158.988176 296.832 
L 158.603636 296.512673 
L 155.759695 294.144 
L 155.717818 294.109028 
L 152.832 291.689454 
L 152.554414 291.456 
L 149.946182 289.256652 
L 149.368368 288.768 
L 147.060364 286.810979 
L 146.200784 286.08 
L 144.174545 284.352334 
L 143.051502 283.392 
L 141.288727 281.880612 
L 139.920364 280.704 
L 138.402909 279.39571 
L 136.807213 278.016 
L 135.517091 276.897521 
L 133.711894 275.328 
L 132.631273 274.385939 
L 130.634256 272.64 
L 129.745455 271.860856 
L 127.574147 269.952 
L 126.859636 269.322162 
L 124.531417 267.264 
L 123.973818 266.769747 
L 121.505919 264.576 
L 121.088 264.2035 
L 118.497507 261.888 
L 118.202182 261.623308 
L 115.506036 259.2 
L 115.316364 259.029057 
L 112.531365 256.512 
L 112.430545 256.420631 
L 109.573351 253.824 
L 109.544727 253.797915 
L 106.658909 251.160455 
L 106.632228 251.136 
L 103.773091 248.508307 
L 103.707652 248.448 
L 100.887273 245.841709 
L 100.799094 245.76 
L 98.001455 243.160541 
L 97.906423 243.072 
L 95.115636 240.464684 
L 95.02951 240.384 
L 92.229818 237.754017 
L 92.168226 237.696 
L 89.344 235.028416 
L 89.322443 235.008 
L 86.492501 232.32 
L 86.458182 232.287308 
L 83.678311 229.632 
L 83.572364 229.530516 
L 80.879451 226.944 
L 80.686545 226.758195 
L 78.095796 224.256 
L 77.800727 223.970213 
L 75.327222 221.568 
L 74.914909 221.166437 
L 72.573607 218.88 
L 72.029091 218.346733 
L 69.834831 216.192 
L 69.143273 215.510965 
L 67.110773 213.504 
L 66.257455 212.658994 
L 64.401316 210.816 
L 63.371636 209.790683 
L 61.706342 208.128 
L 60.485818 206.905889 
L 59.025736 205.44 
L 57.6 204.00447 
" style="fill:none;stroke:#008eb8;stroke-width:1.5;"/>
   </g>
   <g id="LineCollection_6">
    <path clip-path="url(#p30ee849cb4)" d="M 142.387607 307.584 
L 141.288727 306.65501 
L 139.213465 304.896 
L 138.402909 304.20733 
L 136.055848 302.208 
L 135.517091 301.747967 
L 132.914628 299.52 
L 132.631273 299.276839 
L 129.789678 296.832 
L 129.745455 296.79386 
L 126.859636 294.297105 
L 126.68315 294.144 
L 123.973818 291.788008 
L 123.592988 291.456 
L 121.088 289.266937 
L 120.518506 288.768 
L 118.202182 286.733804 
L 117.459585 286.08 
L 115.316364 284.188523 
L 114.416107 283.392 
L 112.430545 281.631006 
L 111.387956 280.704 
L 109.544727 279.061166 
L 108.375016 278.016 
L 106.658909 276.478913 
L 105.377173 275.328 
L 103.773091 273.884156 
L 102.394313 272.64 
L 100.887273 271.276805 
L 99.426325 269.952 
L 98.001455 268.656767 
L 96.473098 267.264 
L 95.115636 266.023951 
L 93.534521 264.576 
L 92.229818 263.378261 
L 90.610486 261.888 
L 89.344 260.719604 
L 87.700886 259.2 
L 86.458182 258.047884 
L 84.805613 256.512 
L 83.572364 255.363005 
L 81.924563 253.824 
L 80.686545 252.664868 
L 79.05763 251.136 
L 77.800727 249.953376 
L 76.204711 248.448 
L 74.914909 247.22843 
L 73.365704 245.76 
L 72.029091 244.489928 
L 70.540506 243.072 
L 69.143273 241.737769 
L 67.729019 240.384 
L 66.257455 238.971851 
L 64.931141 237.696 
L 63.371636 236.192071 
L 62.146775 235.008 
L 60.485818 233.398323 
L 59.375823 232.32 
L 57.6 230.590503 
" style="fill:none;stroke:#0071c6;stroke-width:1.5;"/>
   </g>
   <g id="LineCollection_7">
    <path clip-path="url(#p30ee849cb4)" d="M 116.224993 307.584 
L 115.316364 306.793023 
L 113.14226 304.896 
L 112.430545 304.273628 
L 110.073895 302.208 
L 109.544727 301.74316 
L 107.019796 299.52 
L 106.658909 299.201546 
L 103.979864 296.832 
L 103.773091 296.648711 
L 100.954001 294.144 
L 100.887273 294.084582 
L 98.001455 291.508502 
L 97.942786 291.456 
L 95.115636 288.920446 
L 94.946046 288.768 
L 92.229818 286.320991 
L 91.962922 286.08 
L 89.344 283.71006 
L 88.993322 283.392 
L 86.458182 281.087577 
L 86.037155 280.704 
L 83.572364 278.453467 
L 83.09433 278.016 
L 80.686545 275.80765 
L 80.164756 275.328 
L 77.800727 273.15005 
L 77.248344 272.64 
L 74.914909 270.480586 
L 74.345006 269.952 
L 72.029091 267.79918 
L 71.454654 267.264 
L 69.143273 265.105751 
L 68.577201 264.576 
L 66.257455 262.400218 
L 65.712561 261.888 
L 63.371636 259.682499 
L 62.860648 259.2 
L 60.485818 256.952512 
L 60.021378 256.512 
L 57.6 254.210174 
" style="fill:none;stroke:#0055d4;stroke-width:1.5;"/>
   </g>
   <g id="LineCollection_8">
    <path clip-path="url(#p30ee849cb4)" d="M 92.577719 307.584 
L 92.229818 307.274458 
L 89.562324 304.896 
L 89.344 304.700933 
L 86.559784 302.208 
L 86.458182 302.116841 
L 83.572364 299.522094 
L 83.570041 299.52 
L 80.686545 296.915827 
L 80.593922 296.832 
L 77.800727 294.298901 
L 77.630279 294.144 
L 74.914909 291.671252 
L 74.679031 291.456 
L 72.029091 289.032813 
L 71.740103 288.768 
L 69.143273 286.383516 
L 68.813416 286.08 
L 66.257455 283.723296 
L 65.898894 283.392 
L 63.371636 281.052085 
L 62.996462 280.704 
L 60.485818 278.369814 
L 60.106045 278.016 
L 57.6 275.676414 
" style="fill:none;stroke:#0038e3;stroke-width:1.5;"/>
   </g>
   <g id="LineCollection_9">
    <path clip-path="url(#p30ee849cb4)" d="M 70.839783 307.584 
L 69.143273 306.045938 
L 67.877366 304.896 
L 66.257455 303.421657 
L 64.926586 302.208 
L 63.371636 300.787265 
L 61.987374 299.52 
L 60.485818 298.142702 
L 59.059663 296.832 
L 57.6 295.487909 
" style="fill:none;stroke:#001cf1;stroke-width:1.5;"/>
   </g>
   <g id="LineCollection_10"/>
   <g id="patch_3">
    <path d="M 57.6 307.584 
L 57.6 41.472 
" style="fill:none;stroke:#000000;stroke-linecap:square;stroke-linejoin:miter;stroke-width:0.8;"/>
   </g>
   <g id="patch_4">
    <path d="M 343.296 307.584 
L 343.296 41.472 
" style="fill:none;stroke:#000000;stroke-linecap:square;stroke-linejoin:miter;stroke-width:0.8;"/>
   </g>
   <g id="patch_5">
    <path d="M 57.6 307.584 
L 343.296 307.584 
" style="fill:none;stroke:#000000;stroke-linecap:square;stroke-linejoin:miter;stroke-width:0.8;"/>
   </g>
   <g id="patch_6">
    <path d="M 57.6 41.472 
L 343.296 41.472 
" style="fill:none;stroke:#000000;stroke-linecap:square;stroke-linejoin:miter;stroke-width:0.8;"/>
   </g>
  </g>
  <g id="axes_2">
   <g id="patch_7">
    <path clip-path="url(#p15d5b49eb0)" d="M 361.152 307.584 
L 361.152 278.016 
L 361.152 71.04 
L 361.152 41.472 
L 374.4576 41.472 
L 374.4576 71.04 
L 374.4576 278.016 
L 374.4576 307.584 
z
" style="fill:#ffffff;stroke:#ffffff;stroke-linejoin:miter;stroke-width:0.01;"/>
   </g>
   <g id="matplotlib.axis_3"/>
   <g id="matplotlib.axis_4">
    <g id="ytick_10">
     <g id="line2d_19">
      <defs>
       <path d="M 0 0 
L 3.5 0 
" id="m93109dafd2" style="stroke:#000000;stroke-width:0.8;"/>
      </defs>
      <g>
       <use style="stroke:#000000;stroke-width:0.8;" x="374.4576" xlink:href="#m93109dafd2" y="307.584"/>
      </g>
     </g>
     <g id="text_19">
      <!-- 0 -->
      <g transform="translate(381.4576 311.383219)scale(0.1 -0.1)">
       <use xlink:href="#DejaVuSans-48"/>
      </g>
     </g>
    </g>
    <g id="ytick_11">
     <g id="line2d_20">
      <g>
       <use style="stroke:#000000;stroke-width:0.8;" x="374.4576" xlink:href="#m93109dafd2" y="278.016"/>
      </g>
     </g>
     <g id="text_20">
      <!-- 300 -->
      <defs>
       <path d="M 40.578125 39.3125 
Q 47.65625 37.796875 51.625 33 
Q 55.609375 28.21875 55.609375 21.1875 
Q 55.609375 10.40625 48.1875 4.484375 
Q 40.765625 -1.421875 27.09375 -1.421875 
Q 22.515625 -1.421875 17.65625 -0.515625 
Q 12.796875 0.390625 7.625 2.203125 
L 7.625 11.71875 
Q 11.71875 9.328125 16.59375 8.109375 
Q 21.484375 6.890625 26.8125 6.890625 
Q 36.078125 6.890625 40.9375 10.546875 
Q 45.796875 14.203125 45.796875 21.1875 
Q 45.796875 27.640625 41.28125 31.265625 
Q 36.765625 34.90625 28.71875 34.90625 
L 20.21875 34.90625 
L 20.21875 43.015625 
L 29.109375 43.015625 
Q 36.375 43.015625 40.234375 45.921875 
Q 44.09375 48.828125 44.09375 54.296875 
Q 44.09375 59.90625 40.109375 62.90625 
Q 36.140625 65.921875 28.71875 65.921875 
Q 24.65625 65.921875 20.015625 65.03125 
Q 15.375 64.15625 9.8125 62.3125 
L 9.8125 71.09375 
Q 15.4375 72.65625 20.34375 73.4375 
Q 25.25 74.21875 29.59375 74.21875 
Q 40.828125 74.21875 47.359375 69.109375 
Q 53.90625 64.015625 53.90625 55.328125 
Q 53.90625 49.265625 50.4375 45.09375 
Q 46.96875 40.921875 40.578125 39.3125 
z
" id="DejaVuSans-51"/>
      </defs>
      <g transform="translate(381.4576 281.815219)scale(0.1 -0.1)">
       <use xlink:href="#DejaVuSans-51"/>
       <use x="63.623047" xlink:href="#DejaVuSans-48"/>
       <use x="127.246094" xlink:href="#DejaVuSans-48"/>
      </g>
     </g>
    </g>
    <g id="ytick_12">
     <g id="line2d_21">
      <g>
       <use style="stroke:#000000;stroke-width:0.8;" x="374.4576" xlink:href="#m93109dafd2" y="248.448"/>
      </g>
     </g>
     <g id="text_21">
      <!-- 600 -->
      <defs>
       <path d="M 33.015625 40.375 
Q 26.375 40.375 22.484375 35.828125 
Q 18.609375 31.296875 18.609375 23.390625 
Q 18.609375 15.53125 22.484375 10.953125 
Q 26.375 6.390625 33.015625 6.390625 
Q 39.65625 6.390625 43.53125 10.953125 
Q 47.40625 15.53125 47.40625 23.390625 
Q 47.40625 31.296875 43.53125 35.828125 
Q 39.65625 40.375 33.015625 40.375 
z
M 52.59375 71.296875 
L 52.59375 62.3125 
Q 48.875 64.0625 45.09375 64.984375 
Q 41.3125 65.921875 37.59375 65.921875 
Q 27.828125 65.921875 22.671875 59.328125 
Q 17.53125 52.734375 16.796875 39.40625 
Q 19.671875 43.65625 24.015625 45.921875 
Q 28.375 48.1875 33.59375 48.1875 
Q 44.578125 48.1875 50.953125 41.515625 
Q 57.328125 34.859375 57.328125 23.390625 
Q 57.328125 12.15625 50.6875 5.359375 
Q 44.046875 -1.421875 33.015625 -1.421875 
Q 20.359375 -1.421875 13.671875 8.265625 
Q 6.984375 17.96875 6.984375 36.375 
Q 6.984375 53.65625 15.1875 63.9375 
Q 23.390625 74.21875 37.203125 74.21875 
Q 40.921875 74.21875 44.703125 73.484375 
Q 48.484375 72.75 52.59375 71.296875 
z
" id="DejaVuSans-54"/>
      </defs>
      <g transform="translate(381.4576 252.247219)scale(0.1 -0.1)">
       <use xlink:href="#DejaVuSans-54"/>
       <use x="63.623047" xlink:href="#DejaVuSans-48"/>
       <use x="127.246094" xlink:href="#DejaVuSans-48"/>
      </g>
     </g>
    </g>
    <g id="ytick_13">
     <g id="line2d_22">
      <g>
       <use style="stroke:#000000;stroke-width:0.8;" x="374.4576" xlink:href="#m93109dafd2" y="218.88"/>
      </g>
     </g>
     <g id="text_22">
      <!-- 900 -->
      <defs>
       <path d="M 10.984375 1.515625 
L 10.984375 10.5 
Q 14.703125 8.734375 18.5 7.8125 
Q 22.3125 6.890625 25.984375 6.890625 
Q 35.75 6.890625 40.890625 13.453125 
Q 46.046875 20.015625 46.78125 33.40625 
Q 43.953125 29.203125 39.59375 26.953125 
Q 35.25 24.703125 29.984375 24.703125 
Q 19.046875 24.703125 12.671875 31.3125 
Q 6.296875 37.9375 6.296875 49.421875 
Q 6.296875 60.640625 12.9375 67.421875 
Q 19.578125 74.21875 30.609375 74.21875 
Q 43.265625 74.21875 49.921875 64.515625 
Q 56.59375 54.828125 56.59375 36.375 
Q 56.59375 19.140625 48.40625 8.859375 
Q 40.234375 -1.421875 26.421875 -1.421875 
Q 22.703125 -1.421875 18.890625 -0.6875 
Q 15.09375 0.046875 10.984375 1.515625 
z
M 30.609375 32.421875 
Q 37.25 32.421875 41.125 36.953125 
Q 45.015625 41.5 45.015625 49.421875 
Q 45.015625 57.28125 41.125 61.84375 
Q 37.25 66.40625 30.609375 66.40625 
Q 23.96875 66.40625 20.09375 61.84375 
Q 16.21875 57.28125 16.21875 49.421875 
Q 16.21875 41.5 20.09375 36.953125 
Q 23.96875 32.421875 30.609375 32.421875 
z
" id="DejaVuSans-57"/>
      </defs>
      <g transform="translate(381.4576 222.679219)scale(0.1 -0.1)">
       <use xlink:href="#DejaVuSans-57"/>
       <use x="63.623047" xlink:href="#DejaVuSans-48"/>
       <use x="127.246094" xlink:href="#DejaVuSans-48"/>
      </g>
     </g>
    </g>
    <g id="ytick_14">
     <g id="line2d_23">
      <g>
       <use style="stroke:#000000;stroke-width:0.8;" x="374.4576" xlink:href="#m93109dafd2" y="189.312"/>
      </g>
     </g>
     <g id="text_23">
      <!-- 1200 -->
      <g transform="translate(381.4576 193.111219)scale(0.1 -0.1)">
       <use xlink:href="#DejaVuSans-49"/>
       <use x="63.623047" xlink:href="#DejaVuSans-50"/>
       <use x="127.246094" xlink:href="#DejaVuSans-48"/>
       <use x="190.869141" xlink:href="#DejaVuSans-48"/>
      </g>
     </g>
    </g>
    <g id="ytick_15">
     <g id="line2d_24">
      <g>
       <use style="stroke:#000000;stroke-width:0.8;" x="374.4576" xlink:href="#m93109dafd2" y="159.744"/>
      </g>
     </g>
     <g id="text_24">
      <!-- 1500 -->
      <g transform="translate(381.4576 163.543219)scale(0.1 -0.1)">
       <use xlink:href="#DejaVuSans-49"/>
       <use x="63.623047" xlink:href="#DejaVuSans-53"/>
       <use x="127.246094" xlink:href="#DejaVuSans-48"/>
       <use x="190.869141" xlink:href="#DejaVuSans-48"/>
      </g>
     </g>
    </g>
    <g id="ytick_16">
     <g id="line2d_25">
      <g>
       <use style="stroke:#000000;stroke-width:0.8;" x="374.4576" xlink:href="#m93109dafd2" y="130.176"/>
      </g>
     </g>
     <g id="text_25">
      <!-- 1800 -->
      <defs>
       <path d="M 31.78125 34.625 
Q 24.75 34.625 20.71875 30.859375 
Q 16.703125 27.09375 16.703125 20.515625 
Q 16.703125 13.921875 20.71875 10.15625 
Q 24.75 6.390625 31.78125 6.390625 
Q 38.8125 6.390625 42.859375 10.171875 
Q 46.921875 13.96875 46.921875 20.515625 
Q 46.921875 27.09375 42.890625 30.859375 
Q 38.875 34.625 31.78125 34.625 
z
M 21.921875 38.8125 
Q 15.578125 40.375 12.03125 44.71875 
Q 8.5 49.078125 8.5 55.328125 
Q 8.5 64.0625 14.71875 69.140625 
Q 20.953125 74.21875 31.78125 74.21875 
Q 42.671875 74.21875 48.875 69.140625 
Q 55.078125 64.0625 55.078125 55.328125 
Q 55.078125 49.078125 51.53125 44.71875 
Q 48 40.375 41.703125 38.8125 
Q 48.828125 37.15625 52.796875 32.3125 
Q 56.78125 27.484375 56.78125 20.515625 
Q 56.78125 9.90625 50.3125 4.234375 
Q 43.84375 -1.421875 31.78125 -1.421875 
Q 19.734375 -1.421875 13.25 4.234375 
Q 6.78125 9.90625 6.78125 20.515625 
Q 6.78125 27.484375 10.78125 32.3125 
Q 14.796875 37.15625 21.921875 38.8125 
z
M 18.3125 54.390625 
Q 18.3125 48.734375 21.84375 45.5625 
Q 25.390625 42.390625 31.78125 42.390625 
Q 38.140625 42.390625 41.71875 45.5625 
Q 45.3125 48.734375 45.3125 54.390625 
Q 45.3125 60.0625 41.71875 63.234375 
Q 38.140625 66.40625 31.78125 66.40625 
Q 25.390625 66.40625 21.84375 63.234375 
Q 18.3125 60.0625 18.3125 54.390625 
z
" id="DejaVuSans-56"/>
      </defs>
      <g transform="translate(381.4576 133.975219)scale(0.1 -0.1)">
       <use xlink:href="#DejaVuSans-49"/>
       <use x="63.623047" xlink:href="#DejaVuSans-56"/>
       <use x="127.246094" xlink:href="#DejaVuSans-48"/>
       <use x="190.869141" xlink:href="#DejaVuSans-48"/>
      </g>
     </g>
    </g>
    <g id="ytick_17">
     <g id="line2d_26">
      <g>
       <use style="stroke:#000000;stroke-width:0.8;" x="374.4576" xlink:href="#m93109dafd2" y="100.608"/>
      </g>
     </g>
     <g id="text_26">
      <!-- 2100 -->
      <g transform="translate(381.4576 104.407219)scale(0.1 -0.1)">
       <use xlink:href="#DejaVuSans-50"/>
       <use x="63.623047" xlink:href="#DejaVuSans-49"/>
       <use x="127.246094" xlink:href="#DejaVuSans-48"/>
       <use x="190.869141" xlink:href="#DejaVuSans-48"/>
      </g>
     </g>
    </g>
    <g id="ytick_18">
     <g id="line2d_27">
      <g>
       <use style="stroke:#000000;stroke-width:0.8;" x="374.4576" xlink:href="#m93109dafd2" y="71.04"/>
      </g>
     </g>
     <g id="text_27">
      <!-- 2400 -->
      <defs>
       <path d="M 37.796875 64.3125 
L 12.890625 25.390625 
L 37.796875 25.390625 
z
M 35.203125 72.90625 
L 47.609375 72.90625 
L 47.609375 25.390625 
L 58.015625 25.390625 
L 58.015625 17.1875 
L 47.609375 17.1875 
L 47.609375 0 
L 37.796875 0 
L 37.796875 17.1875 
L 4.890625 17.1875 
L 4.890625 26.703125 
z
" id="DejaVuSans-52"/>
      </defs>
      <g transform="translate(381.4576 74.839219)scale(0.1 -0.1)">
       <use xlink:href="#DejaVuSans-50"/>
       <use x="63.623047" xlink:href="#DejaVuSans-52"/>
       <use x="127.246094" xlink:href="#DejaVuSans-48"/>
       <use x="190.869141" xlink:href="#DejaVuSans-48"/>
      </g>
     </g>
    </g>
    <g id="ytick_19">
     <g id="line2d_28">
      <g>
       <use style="stroke:#000000;stroke-width:0.8;" x="374.4576" xlink:href="#m93109dafd2" y="41.472"/>
      </g>
     </g>
     <g id="text_28">
      <!-- 2700 -->
      <g transform="translate(381.4576 45.271219)scale(0.1 -0.1)">
       <use xlink:href="#DejaVuSans-50"/>
       <use x="63.623047" xlink:href="#DejaVuSans-55"/>
       <use x="127.246094" xlink:href="#DejaVuSans-48"/>
       <use x="190.869141" xlink:href="#DejaVuSans-48"/>
      </g>
     </g>
    </g>
   </g>
   <g id="LineCollection_11">
    <path clip-path="url(#p15d5b49eb0)" d="M 361.152 307.584 
L 374.4576 307.584 
" style="fill:none;stroke:#00ff80;stroke-width:1.5;"/>
    <path clip-path="url(#p15d5b49eb0)" d="M 361.152 278.016 
L 374.4576 278.016 
" style="fill:none;stroke:#00e38e;stroke-width:1.5;"/>
    <path clip-path="url(#p15d5b49eb0)" d="M 361.152 248.448 
L 374.4576 248.448 
" style="fill:none;stroke:#00c79c;stroke-width:1.5;"/>
    <path clip-path="url(#p15d5b49eb0)" d="M 361.152 218.88 
L 374.4576 218.88 
" style="fill:none;stroke:#00aaaa;stroke-width:1.5;"/>
    <path clip-path="url(#p15d5b49eb0)" d="M 361.152 189.312 
L 374.4576 189.312 
" style="fill:none;stroke:#008eb8;stroke-width:1.5;"/>
    <path clip-path="url(#p15d5b49eb0)" d="M 361.152 159.744 
L 374.4576 159.744 
" style="fill:none;stroke:#0071c6;stroke-width:1.5;"/>
    <path clip-path="url(#p15d5b49eb0)" d="M 361.152 130.176 
L 374.4576 130.176 
" style="fill:none;stroke:#0055d4;stroke-width:1.5;"/>
    <path clip-path="url(#p15d5b49eb0)" d="M 361.152 100.608 
L 374.4576 100.608 
" style="fill:none;stroke:#0038e3;stroke-width:1.5;"/>
    <path clip-path="url(#p15d5b49eb0)" d="M 361.152 71.04 
L 374.4576 71.04 
" style="fill:none;stroke:#001cf1;stroke-width:1.5;"/>
    <path clip-path="url(#p15d5b49eb0)" d="M 361.152 41.472 
L 374.4576 41.472 
" style="fill:none;stroke:#0000ff;stroke-width:1.5;"/>
   </g>
   <g id="patch_8">
    <path d="M 361.152 307.584 
L 361.152 278.016 
L 361.152 71.04 
L 361.152 41.472 
L 374.4576 41.472 
L 374.4576 71.04 
L 374.4576 278.016 
L 374.4576 307.584 
z
" style="fill:none;stroke:#000000;stroke-linejoin:miter;stroke-width:0.8;"/>
   </g>
  </g>
 </g>
 <defs>
  <clipPath id="p30ee849cb4">
   <rect height="266.112" width="285.696" x="57.6" y="41.472"/>
  </clipPath>
  <clipPath id="p15d5b49eb0">
   <rect height="266.112" width="13.3056" x="361.152" y="41.472"/>
  </clipPath>
 </defs>
</svg>
