<?xml version="1.0" encoding="utf-8" standalone="no"?>
<!DOCTYPE svg PUBLIC "-//W3C//DTD SVG 1.1//EN"
  "http://www.w3.org/Graphics/SVG/1.1/DTD/svg11.dtd">
<!-- Created with matplotlib (https://matplotlib.org/) -->
<svg height="345.6pt" version="1.1" viewBox="0 0 460.8 345.6" width="460.8pt" xmlns="http://www.w3.org/2000/svg" xmlns:xlink="http://www.w3.org/1999/xlink">
 <defs>
  <style type="text/css">
*{stroke-linecap:butt;stroke-linejoin:round;}
  </style>
 </defs>
 <g id="figure_1">
  <g id="patch_1">
   <path d="M 0 345.6 
L 460.8 345.6 
L 460.8 0 
L 0 0 
z
" style="fill:#ffffff;"/>
  </g>
  <g id="axes_1">
   <g id="patch_2">
    <path d="M 57.6 307.584 
L 343.296 307.584 
L 343.296 41.472 
L 57.6 41.472 
z
" style="fill:#ffffff;"/>
   </g>
   <g id="matplotlib.axis_1">
    <g id="xtick_1">
     <g id="line2d_1">
      <defs>
       <path d="M 0 0 
L 0 3.5 
" id="mcd9c688e0e" style="stroke:#000000;stroke-width:0.8;"/>
      </defs>
      <g>
       <use style="stroke:#000000;stroke-width:0.8;" x="57.6" xlink:href="#mcd9c688e0e" y="307.584"/>
      </g>
     </g>
     <g id="text_1">
      <!-- −20.0 -->
      <defs>
       <path d="M 10.59375 35.5 
L 73.1875 35.5 
L 73.1875 27.203125 
L 10.59375 27.203125 
z
" id="DejaVuSans-8722"/>
       <path d="M 19.1875 8.296875 
L 53.609375 8.296875 
L 53.609375 0 
L 7.328125 0 
L 7.328125 8.296875 
Q 12.9375 14.109375 22.625 23.890625 
Q 32.328125 33.6875 34.8125 36.53125 
Q 39.546875 41.84375 41.421875 45.53125 
Q 43.3125 49.21875 43.3125 52.78125 
Q 43.3125 58.59375 39.234375 62.25 
Q 35.15625 65.921875 28.609375 65.921875 
Q 23.96875 65.921875 18.8125 64.3125 
Q 13.671875 62.703125 7.8125 59.421875 
L 7.8125 69.390625 
Q 13.765625 71.78125 18.9375 73 
Q 24.125 74.21875 28.421875 74.21875 
Q 39.75 74.21875 46.484375 68.546875 
Q 53.21875 62.890625 53.21875 53.421875 
Q 53.21875 48.921875 51.53125 44.890625 
Q 49.859375 40.875 45.40625 35.40625 
Q 44.1875 33.984375 37.640625 27.21875 
Q 31.109375 20.453125 19.1875 8.296875 
z
" id="DejaVuSans-50"/>
       <path d="M 31.78125 66.40625 
Q 24.171875 66.40625 20.328125 58.90625 
Q 16.5 51.421875 16.5 36.375 
Q 16.5 21.390625 20.328125 13.890625 
Q 24.171875 6.390625 31.78125 6.390625 
Q 39.453125 6.390625 43.28125 13.890625 
Q 47.125 21.390625 47.125 36.375 
Q 47.125 51.421875 43.28125 58.90625 
Q 39.453125 66.40625 31.78125 66.40625 
z
M 31.78125 74.21875 
Q 44.046875 74.21875 50.515625 64.515625 
Q 56.984375 54.828125 56.984375 36.375 
Q 56.984375 17.96875 50.515625 8.265625 
Q 44.046875 -1.421875 31.78125 -1.421875 
Q 19.53125 -1.421875 13.0625 8.265625 
Q 6.59375 17.96875 6.59375 36.375 
Q 6.59375 54.828125 13.0625 64.515625 
Q 19.53125 74.21875 31.78125 74.21875 
z
" id="DejaVuSans-48"/>
       <path d="M 10.6875 12.40625 
L 21 12.40625 
L 21 0 
L 10.6875 0 
z
" id="DejaVuSans-46"/>
      </defs>
      <g transform="translate(42.277344 322.182437)scale(0.1 -0.1)">
       <use xlink:href="#DejaVuSans-8722"/>
       <use x="83.789062" xlink:href="#DejaVuSans-50"/>
       <use x="147.412109" xlink:href="#DejaVuSans-48"/>
       <use x="211.035156" xlink:href="#DejaVuSans-46"/>
       <use x="242.822266" xlink:href="#DejaVuSans-48"/>
      </g>
     </g>
    </g>
    <g id="xtick_2">
     <g id="line2d_2">
      <g>
       <use style="stroke:#000000;stroke-width:0.8;" x="93.312" xlink:href="#mcd9c688e0e" y="307.584"/>
      </g>
     </g>
     <g id="text_2">
      <!-- −17.5 -->
      <defs>
       <path d="M 12.40625 8.296875 
L 28.515625 8.296875 
L 28.515625 63.921875 
L 10.984375 60.40625 
L 10.984375 69.390625 
L 28.421875 72.90625 
L 38.28125 72.90625 
L 38.28125 8.296875 
L 54.390625 8.296875 
L 54.390625 0 
L 12.40625 0 
z
" id="DejaVuSans-49"/>
       <path d="M 8.203125 72.90625 
L 55.078125 72.90625 
L 55.078125 68.703125 
L 28.609375 0 
L 18.3125 0 
L 43.21875 64.59375 
L 8.203125 64.59375 
z
" id="DejaVuSans-55"/>
       <path d="M 10.796875 72.90625 
L 49.515625 72.90625 
L 49.515625 64.59375 
L 19.828125 64.59375 
L 19.828125 46.734375 
Q 21.96875 47.46875 24.109375 47.828125 
Q 26.265625 48.1875 28.421875 48.1875 
Q 40.625 48.1875 47.75 41.5 
Q 54.890625 34.8125 54.890625 23.390625 
Q 54.890625 11.625 47.5625 5.09375 
Q 40.234375 -1.421875 26.90625 -1.421875 
Q 22.3125 -1.421875 17.546875 -0.640625 
Q 12.796875 0.140625 7.71875 1.703125 
L 7.71875 11.625 
Q 12.109375 9.234375 16.796875 8.0625 
Q 21.484375 6.890625 26.703125 6.890625 
Q 35.15625 6.890625 40.078125 11.328125 
Q 45.015625 15.765625 45.015625 23.390625 
Q 45.015625 31 40.078125 35.4375 
Q 35.15625 39.890625 26.703125 39.890625 
Q 22.75 39.890625 18.8125 39.015625 
Q 14.890625 38.140625 10.796875 36.28125 
z
" id="DejaVuSans-53"/>
      </defs>
      <g transform="translate(77.989344 322.182437)scale(0.1 -0.1)">
       <use xlink:href="#DejaVuSans-8722"/>
       <use x="83.789062" xlink:href="#DejaVuSans-49"/>
       <use x="147.412109" xlink:href="#DejaVuSans-55"/>
       <use x="211.035156" xlink:href="#DejaVuSans-46"/>
       <use x="242.822266" xlink:href="#DejaVuSans-53"/>
      </g>
     </g>
    </g>
    <g id="xtick_3">
     <g id="line2d_3">
      <g>
       <use style="stroke:#000000;stroke-width:0.8;" x="129.024" xlink:href="#mcd9c688e0e" y="307.584"/>
      </g>
     </g>
     <g id="text_3">
      <!-- −15.0 -->
      <g transform="translate(113.701344 322.182437)scale(0.1 -0.1)">
       <use xlink:href="#DejaVuSans-8722"/>
       <use x="83.789062" xlink:href="#DejaVuSans-49"/>
       <use x="147.412109" xlink:href="#DejaVuSans-53"/>
       <use x="211.035156" xlink:href="#DejaVuSans-46"/>
       <use x="242.822266" xlink:href="#DejaVuSans-48"/>
      </g>
     </g>
    </g>
    <g id="xtick_4">
     <g id="line2d_4">
      <g>
       <use style="stroke:#000000;stroke-width:0.8;" x="164.736" xlink:href="#mcd9c688e0e" y="307.584"/>
      </g>
     </g>
     <g id="text_4">
      <!-- −12.5 -->
      <g transform="translate(149.413344 322.182437)scale(0.1 -0.1)">
       <use xlink:href="#DejaVuSans-8722"/>
       <use x="83.789062" xlink:href="#DejaVuSans-49"/>
       <use x="147.412109" xlink:href="#DejaVuSans-50"/>
       <use x="211.035156" xlink:href="#DejaVuSans-46"/>
       <use x="242.822266" xlink:href="#DejaVuSans-53"/>
      </g>
     </g>
    </g>
    <g id="xtick_5">
     <g id="line2d_5">
      <g>
       <use style="stroke:#000000;stroke-width:0.8;" x="200.448" xlink:href="#mcd9c688e0e" y="307.584"/>
      </g>
     </g>
     <g id="text_5">
      <!-- −10.0 -->
      <g transform="translate(185.125344 322.182437)scale(0.1 -0.1)">
       <use xlink:href="#DejaVuSans-8722"/>
       <use x="83.789062" xlink:href="#DejaVuSans-49"/>
       <use x="147.412109" xlink:href="#DejaVuSans-48"/>
       <use x="211.035156" xlink:href="#DejaVuSans-46"/>
       <use x="242.822266" xlink:href="#DejaVuSans-48"/>
      </g>
     </g>
    </g>
    <g id="xtick_6">
     <g id="line2d_6">
      <g>
       <use style="stroke:#000000;stroke-width:0.8;" x="236.16" xlink:href="#mcd9c688e0e" y="307.584"/>
      </g>
     </g>
     <g id="text_6">
      <!-- −7.5 -->
      <g transform="translate(224.018594 322.182437)scale(0.1 -0.1)">
       <use xlink:href="#DejaVuSans-8722"/>
       <use x="83.789062" xlink:href="#DejaVuSans-55"/>
       <use x="147.412109" xlink:href="#DejaVuSans-46"/>
       <use x="179.199219" xlink:href="#DejaVuSans-53"/>
      </g>
     </g>
    </g>
    <g id="xtick_7">
     <g id="line2d_7">
      <g>
       <use style="stroke:#000000;stroke-width:0.8;" x="271.872" xlink:href="#mcd9c688e0e" y="307.584"/>
      </g>
     </g>
     <g id="text_7">
      <!-- −5.0 -->
      <g transform="translate(259.730594 322.182437)scale(0.1 -0.1)">
       <use xlink:href="#DejaVuSans-8722"/>
       <use x="83.789062" xlink:href="#DejaVuSans-53"/>
       <use x="147.412109" xlink:href="#DejaVuSans-46"/>
       <use x="179.199219" xlink:href="#DejaVuSans-48"/>
      </g>
     </g>
    </g>
    <g id="xtick_8">
     <g id="line2d_8">
      <g>
       <use style="stroke:#000000;stroke-width:0.8;" x="307.584" xlink:href="#mcd9c688e0e" y="307.584"/>
      </g>
     </g>
     <g id="text_8">
      <!-- −2.5 -->
      <g transform="translate(295.442594 322.182437)scale(0.1 -0.1)">
       <use xlink:href="#DejaVuSans-8722"/>
       <use x="83.789062" xlink:href="#DejaVuSans-50"/>
       <use x="147.412109" xlink:href="#DejaVuSans-46"/>
       <use x="179.199219" xlink:href="#DejaVuSans-53"/>
      </g>
     </g>
    </g>
    <g id="xtick_9">
     <g id="line2d_9">
      <g>
       <use style="stroke:#000000;stroke-width:0.8;" x="343.296" xlink:href="#mcd9c688e0e" y="307.584"/>
      </g>
     </g>
     <g id="text_9">
      <!-- 0.0 -->
      <g transform="translate(335.344438 322.182437)scale(0.1 -0.1)">
       <use xlink:href="#DejaVuSans-48"/>
       <use x="63.623047" xlink:href="#DejaVuSans-46"/>
       <use x="95.410156" xlink:href="#DejaVuSans-48"/>
      </g>
     </g>
    </g>
   </g>
   <g id="matplotlib.axis_2">
    <g id="ytick_1">
     <g id="line2d_10">
      <defs>
       <path d="M 0 0 
L -3.5 0 
" id="md513c5f855" style="stroke:#000000;stroke-width:0.8;"/>
      </defs>
      <g>
       <use style="stroke:#000000;stroke-width:0.8;" x="57.6" xlink:href="#md513c5f855" y="307.584"/>
      </g>
     </g>
     <g id="text_10">
      <!-- −20.0 -->
      <g transform="translate(19.954687 311.383219)scale(0.1 -0.1)">
       <use xlink:href="#DejaVuSans-8722"/>
       <use x="83.789062" xlink:href="#DejaVuSans-50"/>
       <use x="147.412109" xlink:href="#DejaVuSans-48"/>
       <use x="211.035156" xlink:href="#DejaVuSans-46"/>
       <use x="242.822266" xlink:href="#DejaVuSans-48"/>
      </g>
     </g>
    </g>
    <g id="ytick_2">
     <g id="line2d_11">
      <g>
       <use style="stroke:#000000;stroke-width:0.8;" x="57.6" xlink:href="#md513c5f855" y="274.32"/>
      </g>
     </g>
     <g id="text_11">
      <!-- −17.5 -->
      <g transform="translate(19.954687 278.119219)scale(0.1 -0.1)">
       <use xlink:href="#DejaVuSans-8722"/>
       <use x="83.789062" xlink:href="#DejaVuSans-49"/>
       <use x="147.412109" xlink:href="#DejaVuSans-55"/>
       <use x="211.035156" xlink:href="#DejaVuSans-46"/>
       <use x="242.822266" xlink:href="#DejaVuSans-53"/>
      </g>
     </g>
    </g>
    <g id="ytick_3">
     <g id="line2d_12">
      <g>
       <use style="stroke:#000000;stroke-width:0.8;" x="57.6" xlink:href="#md513c5f855" y="241.056"/>
      </g>
     </g>
     <g id="text_12">
      <!-- −15.0 -->
      <g transform="translate(19.954687 244.855219)scale(0.1 -0.1)">
       <use xlink:href="#DejaVuSans-8722"/>
       <use x="83.789062" xlink:href="#DejaVuSans-49"/>
       <use x="147.412109" xlink:href="#DejaVuSans-53"/>
       <use x="211.035156" xlink:href="#DejaVuSans-46"/>
       <use x="242.822266" xlink:href="#DejaVuSans-48"/>
      </g>
     </g>
    </g>
    <g id="ytick_4">
     <g id="line2d_13">
      <g>
       <use style="stroke:#000000;stroke-width:0.8;" x="57.6" xlink:href="#md513c5f855" y="207.792"/>
      </g>
     </g>
     <g id="text_13">
      <!-- −12.5 -->
      <g transform="translate(19.954687 211.591219)scale(0.1 -0.1)">
       <use xlink:href="#DejaVuSans-8722"/>
       <use x="83.789062" xlink:href="#DejaVuSans-49"/>
       <use x="147.412109" xlink:href="#DejaVuSans-50"/>
       <use x="211.035156" xlink:href="#DejaVuSans-46"/>
       <use x="242.822266" xlink:href="#DejaVuSans-53"/>
      </g>
     </g>
    </g>
    <g id="ytick_5">
     <g id="line2d_14">
      <g>
       <use style="stroke:#000000;stroke-width:0.8;" x="57.6" xlink:href="#md513c5f855" y="174.528"/>
      </g>
     </g>
     <g id="text_14">
      <!-- −10.0 -->
      <g transform="translate(19.954687 178.327219)scale(0.1 -0.1)">
       <use xlink:href="#DejaVuSans-8722"/>
       <use x="83.789062" xlink:href="#DejaVuSans-49"/>
       <use x="147.412109" xlink:href="#DejaVuSans-48"/>
       <use x="211.035156" xlink:href="#DejaVuSans-46"/>
       <use x="242.822266" xlink:href="#DejaVuSans-48"/>
      </g>
     </g>
    </g>
    <g id="ytick_6">
     <g id="line2d_15">
      <g>
       <use style="stroke:#000000;stroke-width:0.8;" x="57.6" xlink:href="#md513c5f855" y="141.264"/>
      </g>
     </g>
     <g id="text_15">
      <!-- −7.5 -->
      <g transform="translate(26.317187 145.063219)scale(0.1 -0.1)">
       <use xlink:href="#DejaVuSans-8722"/>
       <use x="83.789062" xlink:href="#DejaVuSans-55"/>
       <use x="147.412109" xlink:href="#DejaVuSans-46"/>
       <use x="179.199219" xlink:href="#DejaVuSans-53"/>
      </g>
     </g>
    </g>
    <g id="ytick_7">
     <g id="line2d_16">
      <g>
       <use style="stroke:#000000;stroke-width:0.8;" x="57.6" xlink:href="#md513c5f855" y="108"/>
      </g>
     </g>
     <g id="text_16">
      <!-- −5.0 -->
      <g transform="translate(26.317187 111.799219)scale(0.1 -0.1)">
       <use xlink:href="#DejaVuSans-8722"/>
       <use x="83.789062" xlink:href="#DejaVuSans-53"/>
       <use x="147.412109" xlink:href="#DejaVuSans-46"/>
       <use x="179.199219" xlink:href="#DejaVuSans-48"/>
      </g>
     </g>
    </g>
    <g id="ytick_8">
     <g id="line2d_17">
      <g>
       <use style="stroke:#000000;stroke-width:0.8;" x="57.6" xlink:href="#md513c5f855" y="74.736"/>
      </g>
     </g>
     <g id="text_17">
      <!-- −2.5 -->
      <g transform="translate(26.317187 78.535219)scale(0.1 -0.1)">
       <use xlink:href="#DejaVuSans-8722"/>
       <use x="83.789062" xlink:href="#DejaVuSans-50"/>
       <use x="147.412109" xlink:href="#DejaVuSans-46"/>
       <use x="179.199219" xlink:href="#DejaVuSans-53"/>
      </g>
     </g>
    </g>
    <g id="ytick_9">
     <g id="line2d_18">
      <g>
       <use style="stroke:#000000;stroke-width:0.8;" x="57.6" xlink:href="#md513c5f855" y="41.472"/>
      </g>
     </g>
     <g id="text_18">
      <!-- 0.0 -->
      <g transform="translate(34.696875 45.271219)scale(0.1 -0.1)">
       <use xlink:href="#DejaVuSans-48"/>
       <use x="63.623047" xlink:href="#DejaVuSans-46"/>
       <use x="95.410156" xlink:href="#DejaVuSans-48"/>
      </g>
     </g>
    </g>
   </g>
   <g id="LineCollection_1"/>
   <g id="LineCollection_2">
    <path clip-path="url(#p19d9fc1998)" d="M 190.347636 240.38736 
L 187.461818 239.9395 
L 181.690182 238.7075 
L 178.071636 237.696 
L 175.918545 236.998435 
L 170.715055 235.008 
L 170.146909 234.767455 
L 165.089212 232.32 
L 164.375273 231.94 
L 160.452364 229.632 
L 156.481358 226.944 
L 153.006727 224.256 
L 152.832 224.111333 
L 149.941172 221.568 
L 147.060364 218.71725 
L 144.174545 215.4808 
L 141.288727 211.782 
L 140.597333 210.816 
L 138.402909 207.463 
L 137.218248 205.44 
L 135.517091 202.2228 
L 134.509407 200.064 
L 132.631273 195.3705 
L 132.38703 194.688 
L 131.545333 192 
L 130.823879 189.312 
L 130.222667 186.624 
L 129.741847 183.936 
L 129.395549 181.248 
L 129.164684 178.56 
L 129.049251 175.872 
L 129.049251 173.184 
L 129.164684 170.496 
L 129.395549 167.808 
L 129.745455 165.099 
L 130.222667 162.432 
L 130.823879 159.744 
L 131.545333 157.056 
L 132.631273 153.6855 
L 133.380174 151.68 
L 135.517091 146.8332 
L 135.775339 146.304 
L 138.402909 141.593 
L 138.810874 140.928 
L 141.288727 137.274 
L 144.174545 133.5752 
L 147.060364 130.33875 
L 147.215677 130.176 
L 149.946182 127.483333 
L 153.006727 124.8 
L 156.481358 122.112 
L 160.452364 119.424 
L 164.375273 117.116 
L 167.261091 115.632545 
L 170.715055 114.048 
L 175.918545 112.057565 
L 178.804364 111.1325 
L 184.576 109.6765 
L 190.347636 108.66864 
L 196.119273 108.13104 
L 201.890909 108.02352 
L 207.662545 108.34608 
L 210.570909 108.672 
L 216.32 109.6765 
L 222.091636 111.1325 
L 224.977455 112.057565 
L 230.180945 114.048 
L 230.749091 114.288545 
L 235.806788 116.736 
L 236.520727 117.116 
L 240.443636 119.424 
L 244.414642 122.112 
L 247.889273 124.8 
L 248.064 124.944667 
L 250.954828 127.488 
L 253.835636 130.33875 
L 256.721455 133.5752 
L 259.607273 137.274 
L 260.298667 138.24 
L 262.493091 141.593 
L 263.677752 143.616 
L 265.378909 146.8332 
L 266.386593 148.992 
L 268.264727 153.6855 
L 268.50897 154.368 
L 269.350667 157.056 
L 270.072121 159.744 
L 270.673333 162.432 
L 271.154153 165.12 
L 271.500451 167.808 
L 271.731316 170.496 
L 271.846749 173.184 
L 271.846749 175.872 
L 271.731316 178.56 
L 271.500451 181.248 
L 271.150545 183.957 
L 270.673333 186.624 
L 270.072121 189.312 
L 269.350667 192 
L 268.264727 195.3705 
L 267.515826 197.376 
L 265.378909 202.2228 
L 265.120661 202.752 
L 262.493091 207.463 
L 262.085126 208.128 
L 259.607273 211.782 
L 256.721455 215.4808 
L 253.835636 218.71725 
L 253.680323 218.88 
L 250.949818 221.572667 
L 247.889273 224.256 
L 244.414642 226.944 
L 240.443636 229.632 
L 236.520727 231.94 
L 233.634909 233.423455 
L 230.180945 235.008 
L 224.977455 236.998435 
L 222.091636 237.9235 
L 216.32 239.3795 
L 210.548364 240.38736 
L 204.776727 240.92496 
L 199.005091 241.03248 
L 193.233455 240.70992 
L 190.347636 240.38736 
L 190.347636 240.38736 
" style="fill:none;stroke:#00e38e;stroke-width:1.5;"/>
   </g>
   <g id="LineCollection_3">
    <path clip-path="url(#p19d9fc1998)" d="M 184.576 267.4416 
L 178.804364 266.419059 
L 173.032727 265.075059 
L 167.261091 263.379636 
L 161.489455 261.32625 
L 155.717818 258.880258 
L 149.946182 256.0024 
L 146.101589 253.824 
L 141.288727 250.782 
L 137.968397 248.448 
L 134.474119 245.76 
L 131.27103 243.072 
L 128.324189 240.384 
L 125.604028 237.696 
L 123.08536 235.008 
L 120.746597 232.32 
L 118.202182 229.1364 
L 114.709139 224.256 
L 111.377455 218.88 
L 108.524545 213.504 
L 106.106887 208.128 
L 104.095559 202.752 
L 103.237305 200.064 
L 101.794396 194.688 
L 100.696603 189.312 
L 99.954535 183.936 
L 99.542275 178.56 
L 99.459823 173.184 
L 99.707179 167.808 
L 100.284343 162.432 
L 101.200257 157.056 
L 102.473412 151.68 
L 104.095559 146.304 
L 106.106887 140.928 
L 107.262 138.24 
L 109.888 132.864 
L 112.977648 127.488 
L 115.316364 123.906947 
L 118.582234 119.424 
L 121.088 116.331273 
L 123.973818 113.076522 
L 126.859636 110.093 
L 129.745455 107.34816 
L 132.631273 104.814462 
L 135.517091 102.468444 
L 138.402909 100.29 
L 141.8208 97.92 
L 147.060364 94.6664 
L 152.832 91.563097 
L 158.603636 88.90575 
L 164.375273 86.653818 
L 170.146909 84.780364 
L 173.032727 83.980941 
L 178.804364 82.636941 
L 184.576 81.6144 
L 190.347636 80.9232 
L 196.119273 80.5392 
L 201.890909 80.4624 
L 207.662545 80.6928 
L 213.434182 81.2304 
L 219.205818 82.083529 
L 224.977455 83.269412 
L 230.749091 84.780364 
L 236.520727 86.653818 
L 239.406545 87.72975 
L 245.178182 90.175742 
L 250.949818 93.0536 
L 254.794411 95.232 
L 259.607273 98.274 
L 262.927603 100.608 
L 266.421881 103.296 
L 269.62497 105.984 
L 272.571811 108.672 
L 275.291972 111.36 
L 277.81064 114.048 
L 280.149403 116.736 
L 282.693818 119.9196 
L 286.186861 124.8 
L 289.518545 130.176 
L 292.371455 135.552 
L 294.789113 140.928 
L 296.800441 146.304 
L 297.658695 148.992 
L 299.101604 154.368 
L 300.199397 159.744 
L 300.941465 165.12 
L 301.353725 170.496 
L 301.436177 175.872 
L 301.188821 181.248 
L 300.611657 186.624 
L 299.695743 192 
L 298.422588 197.376 
L 296.800441 202.752 
L 294.789113 208.128 
L 293.634 210.816 
L 291.008 216.192 
L 287.918352 221.568 
L 285.579636 225.149053 
L 282.313766 229.632 
L 279.808 232.724727 
L 276.922182 235.979478 
L 274.036364 238.963 
L 271.150545 241.70784 
L 268.264727 244.241538 
L 265.378909 246.587556 
L 262.493091 248.766 
L 259.0752 251.136 
L 253.835636 254.3896 
L 248.064 257.492903 
L 242.292364 260.15025 
L 236.520727 262.402182 
L 230.749091 264.275636 
L 227.863273 265.075059 
L 222.091636 266.419059 
L 216.32 267.4416 
L 210.548364 268.1328 
L 204.776727 268.5168 
L 199.005091 268.5936 
L 193.233455 268.3632 
L 187.461818 267.8256 
L 184.576 267.4416 
L 184.576 267.4416 
" style="fill:none;stroke:#00c79c;stroke-width:1.5;"/>
   </g>
   <g id="LineCollection_4">
    <path clip-path="url(#p19d9fc1998)" d="M 184.576 288.805116 
L 178.804364 287.974 
L 173.032727 286.886 
L 167.261091 285.528878 
L 161.489455 283.889854 
L 155.717818 281.9535 
L 149.946182 279.711077 
L 144.174545 277.138421 
L 138.402909 274.208757 
L 132.631273 270.892333 
L 129.745455 269.076 
L 126.859636 267.152824 
L 121.088 262.913818 
L 116.550922 259.2 
L 112.430545 255.49 
L 108.048273 251.136 
L 105.557598 248.448 
L 103.213433 245.76 
L 98.941922 240.384 
L 96.991919 237.696 
L 93.43143 232.32 
L 91.805014 229.632 
L 88.856093 224.256 
L 86.271055 218.88 
L 84.034545 213.504 
L 82.122856 208.128 
L 80.508329 202.752 
L 79.20284 197.376 
L 78.17219 192 
L 77.425319 186.624 
L 76.955535 181.248 
L 76.754199 175.872 
L 76.821311 170.496 
L 77.156871 165.12 
L 77.800727 159.478 
L 78.65316 154.368 
L 79.821229 148.992 
L 81.278226 143.616 
L 83.037871 138.24 
L 85.116727 132.864 
L 87.524177 127.488 
L 90.286163 122.112 
L 93.43143 116.736 
L 96.991919 111.36 
L 98.941922 108.672 
L 101.006631 105.984 
L 105.557598 100.608 
L 109.544727 96.381931 
L 113.527758 92.544 
L 118.202182 88.462125 
L 121.088 86.142182 
L 123.973818 83.958706 
L 129.745455 79.98 
L 132.631273 78.163667 
L 138.402909 74.847243 
L 144.174545 71.917579 
L 149.946182 69.344923 
L 155.717818 67.1025 
L 161.489455 65.166146 
L 167.261091 63.527122 
L 173.032727 62.17 
L 178.804364 61.082 
L 184.576 60.250884 
L 190.347636 59.688279 
L 196.119273 59.375721 
L 201.890909 59.313209 
L 207.662545 59.500744 
L 213.434182 59.938326 
L 219.205818 60.634 
L 224.977455 61.594 
L 231.429554 62.976 
L 236.520727 64.313854 
L 242.292364 66.0945 
L 248.504299 68.352 
L 254.837129 71.04 
L 260.375965 73.728 
L 265.378909 76.446333 
L 271.150545 79.98 
L 274.036364 81.903176 
L 279.808 86.142182 
L 284.345078 89.856 
L 288.465455 93.566 
L 292.847727 97.92 
L 295.338402 100.608 
L 297.682567 103.296 
L 301.954078 108.672 
L 303.904081 111.36 
L 307.46457 116.736 
L 309.090986 119.424 
L 312.039907 124.8 
L 314.624945 130.176 
L 316.861455 135.552 
L 318.773144 140.928 
L 320.387671 146.304 
L 321.69316 151.68 
L 322.72381 157.056 
L 323.470681 162.432 
L 323.940465 167.808 
L 324.141801 173.184 
L 324.074689 178.56 
L 323.739129 183.936 
L 323.095273 189.578 
L 322.24284 194.688 
L 321.074771 200.064 
L 319.617774 205.44 
L 317.858129 210.816 
L 315.779273 216.192 
L 313.371823 221.568 
L 310.609837 226.944 
L 307.46457 232.32 
L 303.904081 237.696 
L 301.954078 240.384 
L 299.889369 243.072 
L 295.338402 248.448 
L 291.351273 252.674069 
L 287.368242 256.512 
L 282.693818 260.593875 
L 279.808 262.913818 
L 276.922182 265.097294 
L 271.150545 269.076 
L 268.264727 270.892333 
L 262.493091 274.208757 
L 256.721455 277.138421 
L 250.949818 279.711077 
L 245.178182 281.9535 
L 239.406545 283.889854 
L 233.634909 285.528878 
L 227.863273 286.886 
L 222.091636 287.974 
L 216.32 288.805116 
L 210.548364 289.367721 
L 204.776727 289.680279 
L 199.005091 289.742791 
L 193.233455 289.555256 
L 187.461818 289.117674 
L 184.576 288.805116 
L 184.576 288.805116 
" style="fill:none;stroke:#00aaaa;stroke-width:1.5;"/>
   </g>
   <g id="LineCollection_5">
    <path clip-path="url(#p19d9fc1998)" d="M 173.032727 305.108571 
L 167.261091 303.937 
L 160.278442 302.208 
L 155.717818 300.885447 
L 149.946182 298.986783 
L 144.174545 296.824533 
L 137.894612 294.144 
L 132.285576 291.456 
L 126.859636 288.568 
L 121.088 285.153951 
L 115.316364 281.3676 
L 110.673455 278.016 
L 106.658909 274.883027 
L 103.773091 272.481333 
L 100.887273 269.9424 
L 95.28598 264.576 
L 92.229818 261.3735 
L 87.947338 256.512 
L 85.745745 253.824 
L 81.680745 248.448 
L 78.015446 243.072 
L 74.914909 238.018 
L 73.217851 235.008 
L 70.433875 229.632 
L 67.959146 224.256 
L 65.773926 218.88 
L 63.870515 213.504 
L 62.236848 208.128 
L 60.854061 202.752 
L 59.727555 197.376 
L 58.844141 192 
L 58.196304 186.624 
L 57.784045 181.248 
L 57.607362 175.872 
L 57.666256 170.496 
L 57.960727 165.12 
L 58.490776 159.744 
L 59.256401 154.368 
L 60.485818 147.9504 
L 61.515394 143.616 
L 63.371636 137.112 
L 64.79152 132.864 
L 66.829913 127.488 
L 69.151289 122.112 
L 72.029091 116.262545 
L 74.914909 111.038 
L 78.015446 105.984 
L 81.680745 100.608 
L 85.745745 95.232 
L 89.344 90.907355 
L 92.707538 87.168 
L 95.28598 84.48 
L 98.011761 81.792 
L 103.773091 76.574667 
L 107.211273 73.728 
L 112.430545 69.739077 
L 118.202182 65.7396 
L 122.59771 62.976 
L 127.220364 60.288 
L 132.631273 57.424364 
L 138.402909 54.680533 
L 144.193531 52.224 
L 149.946182 50.069217 
L 155.717818 48.170553 
L 161.489455 46.519 
L 167.261091 45.119 
L 173.032727 43.947429 
L 178.804364 43.014857 
L 184.576 42.301714 
L 190.347636 41.808 
L 196.119273 41.533714 
L 201.890909 41.478857 
L 207.662545 41.643429 
L 213.434182 42.027429 
L 219.205818 42.630857 
L 224.977455 43.453714 
L 230.749091 44.503 
L 236.520727 45.791 
L 242.292364 47.312681 
L 249.400813 49.536 
L 253.835636 51.121043 
L 259.607273 53.426133 
L 265.378909 56.019273 
L 271.150545 58.920558 
L 276.922182 62.152 
L 282.57787 65.664 
L 286.529552 68.352 
L 291.351273 71.897684 
L 296.93708 76.416 
L 300.008727 79.1136 
L 305.61002 84.48 
L 308.666182 87.6825 
L 312.948662 92.544 
L 315.150255 95.232 
L 319.215255 100.608 
L 322.880554 105.984 
L 325.981091 111.038 
L 327.678149 114.048 
L 330.462125 119.424 
L 332.936854 124.8 
L 335.122074 130.176 
L 337.025485 135.552 
L 338.659152 140.928 
L 340.041939 146.304 
L 341.168445 151.68 
L 342.051859 157.056 
L 342.699696 162.432 
L 343.111955 167.808 
L 343.288638 173.184 
L 343.229744 178.56 
L 342.935273 183.936 
L 342.405224 189.312 
L 341.639599 194.688 
L 340.410182 201.1056 
L 339.380606 205.44 
L 337.524364 211.944 
L 336.10448 216.192 
L 334.066087 221.568 
L 331.744711 226.944 
L 328.866909 232.793455 
L 325.981091 238.018 
L 322.880554 243.072 
L 319.215255 248.448 
L 315.150255 253.824 
L 311.552 258.148645 
L 308.188462 261.888 
L 305.61002 264.576 
L 302.884239 267.264 
L 297.122909 272.481333 
L 293.684727 275.328 
L 288.465455 279.316923 
L 282.693818 283.3164 
L 278.29829 286.08 
L 273.675636 288.768 
L 268.264727 291.631636 
L 262.493091 294.375467 
L 256.702469 296.832 
L 250.949818 298.986783 
L 245.178182 300.885447 
L 239.406545 302.537 
L 233.634909 303.937 
L 227.863273 305.108571 
L 222.091636 306.041143 
L 216.32 306.754286 
L 210.548364 307.248 
L 204.776727 307.522286 
L 199.005091 307.577143 
L 193.233455 307.412571 
L 187.461818 307.028571 
L 181.690182 306.425143 
L 175.918545 305.602286 
L 173.032727 305.108571 
L 173.032727 305.108571 
" style="fill:none;stroke:#008eb8;stroke-width:1.5;"/>
   </g>
   <g id="LineCollection_6">
    <path clip-path="url(#p19d9fc1998)" d="M 129.034822 307.584 
L 126.859636 306.550286 
L 123.973818 305.124 
L 123.529589 304.896 
L 121.088 303.61675 
L 118.495273 302.208 
L 118.202182 302.045362 
L 115.316364 300.386809 
L 113.858424 299.52 
L 112.430545 298.652609 
L 109.544727 296.84113 
L 109.530636 296.832 
L 106.658909 294.929867 
L 105.508408 294.144 
L 103.773091 292.931727 
L 101.722781 291.456 
L 100.887273 290.840651 
L 98.153475 288.768 
L 98.001455 288.65 
L 95.115636 286.346 
L 94.791469 286.08 
L 92.229818 283.926732 
L 91.610411 283.392 
L 89.344 281.3865 
L 88.592485 280.704 
L 86.458182 278.716 
L 85.725455 278.016 
L 83.572364 275.904947 
L 82.998279 275.328 
L 80.686545 272.941946 
L 80.40097 272.64 
L 77.927411 269.952 
L 77.800727 269.8104 
L 75.575543 267.264 
L 74.914909 266.485765 
L 73.330579 264.576 
L 72.029091 262.959636 
L 71.18539 261.888 
L 69.143273 259.213125 
L 69.13347 259.2 
L 67.18868 256.512 
L 66.257455 255.182 
L 65.326855 253.824 
L 63.546244 251.136 
L 63.371636 250.863 
L 61.859212 248.448 
L 60.485818 246.173778 
L 60.241039 245.76 
L 58.709788 243.072 
L 57.6 241.04592 
" style="fill:none;stroke:#0071c6;stroke-width:1.5;"/>
    <path clip-path="url(#p19d9fc1998)" d="M 343.296 241.04592 
L 342.186212 243.072 
L 340.654961 245.76 
L 340.410182 246.173778 
L 339.036788 248.448 
L 337.524364 250.863 
L 337.349756 251.136 
L 335.569145 253.824 
L 334.638545 255.182 
L 333.70732 256.512 
L 331.76253 259.2 
L 331.752727 259.213125 
L 329.71061 261.888 
L 328.866909 262.959636 
L 327.565421 264.576 
L 325.981091 266.485765 
L 325.320457 267.264 
L 323.095273 269.8104 
L 322.968589 269.952 
L 320.49503 272.64 
L 320.209455 272.941946 
L 317.897721 275.328 
L 317.323636 275.904947 
L 315.170545 278.016 
L 314.437818 278.716 
L 312.303515 280.704 
L 311.552 281.3865 
L 309.285589 283.392 
L 308.666182 283.926732 
L 306.104531 286.08 
L 305.780364 286.346 
L 302.894545 288.65 
L 302.742525 288.768 
L 300.008727 290.840651 
L 299.173219 291.456 
L 297.122909 292.931727 
L 295.387592 294.144 
L 294.237091 294.929867 
L 291.365364 296.832 
L 291.351273 296.84113 
L 288.465455 298.652609 
L 287.037576 299.52 
L 285.579636 300.386809 
L 282.693818 302.045362 
L 282.400727 302.208 
L 279.808 303.61675 
L 277.366411 304.896 
L 276.922182 305.124 
L 274.036364 306.550286 
L 271.861178 307.584 
" style="fill:none;stroke:#0071c6;stroke-width:1.5;"/>
    <path clip-path="url(#p19d9fc1998)" d="M 57.6 108.01008 
L 58.709788 105.984 
L 60.241039 103.296 
L 60.485818 102.882222 
L 61.859212 100.608 
L 63.371636 98.193 
L 63.546244 97.92 
L 65.326855 95.232 
L 66.257455 93.874 
L 67.18868 92.544 
L 69.13347 89.856 
L 69.143273 89.842875 
L 71.18539 87.168 
L 72.029091 86.096364 
L 73.330579 84.48 
L 74.914909 82.570235 
L 75.575543 81.792 
L 77.800727 79.2456 
L 77.927411 79.104 
L 80.40097 76.416 
L 80.686545 76.114054 
L 82.998279 73.728 
L 83.572364 73.151053 
L 85.725455 71.04 
L 86.458182 70.34 
L 88.592485 68.352 
L 89.344 67.6695 
L 91.610411 65.664 
L 92.229818 65.129268 
L 94.791469 62.976 
L 95.115636 62.71 
L 98.001455 60.406 
L 98.153475 60.288 
L 100.887273 58.215349 
L 101.722781 57.6 
L 103.773091 56.124273 
L 105.508408 54.912 
L 106.658909 54.126133 
L 109.530636 52.224 
L 109.544727 52.21487 
L 112.430545 50.403391 
L 113.858424 49.536 
L 115.316364 48.669191 
L 118.202182 47.010638 
L 118.495273 46.848 
L 121.088 45.43925 
L 123.529589 44.16 
L 123.973818 43.932 
L 126.859636 42.505714 
L 129.034822 41.472 
" style="fill:none;stroke:#0071c6;stroke-width:1.5;"/>
    <path clip-path="url(#p19d9fc1998)" d="M 271.861178 41.472 
L 274.036364 42.505714 
L 276.922182 43.932 
L 277.366411 44.16 
L 279.808 45.43925 
L 282.400727 46.848 
L 282.693818 47.010638 
L 285.579636 48.669192 
L 287.037576 49.536 
L 288.465455 50.403391 
L 291.351273 52.21487 
L 291.365363 52.224 
L 294.237091 54.126136 
L 295.387586 54.912 
L 297.122909 56.124279 
L 299.1732 57.6 
L 300.008727 58.215365 
L 302.74248 60.288 
L 302.894545 60.406035 
L 305.780364 62.710063 
L 306.104446 62.976 
L 308.666182 65.129367 
L 309.285461 65.664 
L 311.552 67.669629 
L 312.303367 68.352 
L 314.437818 70.340138 
L 315.170407 71.04 
L 317.323636 73.151171 
L 317.897614 73.728 
L 320.209455 76.114133 
L 320.494963 76.416 
L 322.968551 79.104 
L 323.095273 79.245641 
L 325.320439 81.792 
L 325.981091 82.570253 
L 327.565414 84.48 
L 328.866909 86.096369 
L 329.710608 87.168 
L 331.752727 89.842876 
L 331.762529 89.856 
L 333.70732 92.544 
L 334.638545 93.874 
L 335.569145 95.232 
L 337.349756 97.92 
L 337.524364 98.193 
L 339.036788 100.608 
L 340.410182 102.882222 
L 340.654961 103.296 
L 342.186212 105.984 
L 343.296 108.01008 
" style="fill:none;stroke:#0071c6;stroke-width:1.5;"/>
   </g>
   <g id="LineCollection_7">
    <path clip-path="url(#p19d9fc1998)" d="M 99.449517 307.584 
L 98.001455 306.620571 
L 95.481374 304.896 
L 95.115636 304.6405 
L 92.229818 302.5685 
L 91.740938 302.208 
L 89.344 300.402894 
L 88.201697 299.52 
L 86.458182 298.14313 
L 84.839418 296.832 
L 83.572364 295.782933 
L 81.641153 294.144 
L 80.686545 293.315455 
L 78.595186 291.456 
L 77.800727 290.733209 
L 75.690892 288.768 
L 74.914909 288.028 
L 72.918612 286.08 
L 72.029091 285.190829 
L 70.269543 283.392 
L 69.143273 282.2118 
L 67.735652 280.704 
L 66.257455 279.08 
L 65.309586 278.016 
L 63.371636 275.783368 
L 62.984606 275.328 
L 60.760121 272.64 
L 60.485818 272.299333 
L 58.63433 269.952 
L 57.6 268.6032 
" style="fill:none;stroke:#0055d4;stroke-width:1.5;"/>
    <path clip-path="url(#p19d9fc1998)" d="M 343.296 268.6032 
L 342.26167 269.952 
L 340.410182 272.299333 
L 340.135879 272.64 
L 337.911394 275.328 
L 337.524364 275.783368 
L 335.586414 278.016 
L 334.638545 279.08 
L 333.160348 280.704 
L 331.752727 282.2118 
L 330.626457 283.392 
L 328.866909 285.190829 
L 327.977388 286.08 
L 325.981091 288.028 
L 325.205108 288.768 
L 323.095273 290.733209 
L 322.300814 291.456 
L 320.209455 293.315455 
L 319.254847 294.144 
L 317.323636 295.782933 
L 316.056582 296.832 
L 314.437818 298.14313 
L 312.694303 299.52 
L 311.552 300.402894 
L 309.155062 302.208 
L 308.666182 302.5685 
L 305.780364 304.6405 
L 305.414626 304.896 
L 302.894545 306.620571 
L 301.446483 307.584 
" style="fill:none;stroke:#0055d4;stroke-width:1.5;"/>
    <path clip-path="url(#p19d9fc1998)" d="M 57.6 80.4528 
L 58.63433 79.104 
L 60.485818 76.756667 
L 60.760121 76.416 
L 62.984606 73.728 
L 63.371636 73.272632 
L 65.309586 71.04 
L 66.257455 69.976 
L 67.735652 68.352 
L 69.143273 66.8442 
L 70.269543 65.664 
L 72.029091 63.865171 
L 72.918612 62.976 
L 74.914909 61.028 
L 75.690892 60.288 
L 77.800727 58.322791 
L 78.595186 57.6 
L 80.686545 55.740545 
L 81.641153 54.912 
L 83.572364 53.273067 
L 84.839418 52.224 
L 86.458182 50.91287 
L 88.201697 49.536 
L 89.344 48.653106 
L 91.740938 46.848 
L 92.229818 46.4875 
L 95.115636 44.4155 
L 95.481374 44.16 
L 98.001455 42.435429 
L 99.449517 41.472 
" style="fill:none;stroke:#0055d4;stroke-width:1.5;"/>
    <path clip-path="url(#p19d9fc1998)" d="M 301.446262 41.472 
L 302.894545 42.435651 
L 305.413754 44.16 
L 305.780364 44.416158 
L 308.666182 46.489162 
L 309.152266 46.848 
L 311.552 48.656842 
L 312.687402 49.536 
L 314.437818 50.920171 
L 316.043748 52.224 
L 317.323636 53.285339 
L 319.235885 54.912 
L 320.209455 55.758092 
L 322.277994 57.6 
L 323.095273 58.343926 
L 325.182417 60.288 
L 325.981091 61.049255 
L 327.958551 62.976 
L 328.866909 63.882833 
L 330.613281 65.664 
L 331.752727 66.856154 
L 333.152509 68.352 
L 334.638545 69.982428 
L 335.582404 71.04 
L 337.524364 73.275236 
L 337.90961 73.728 
L 340.135172 76.416 
L 340.410182 76.757479 
L 342.261431 79.104 
L 343.296 80.453006 
" style="fill:none;stroke:#0055d4;stroke-width:1.5;"/>
   </g>
   <g id="LineCollection_8">
    <path clip-path="url(#p19d9fc1998)" d="M 76.74581 307.584 
L 74.914909 306.087429 
L 73.490446 304.896 
L 72.029091 303.64825 
L 70.379766 302.208 
L 69.143273 301.105277 
L 67.404332 299.52 
L 66.257455 298.451739 
L 64.555513 296.832 
L 63.371636 295.680267 
L 61.825394 294.144 
L 60.485818 292.782818 
L 59.206709 291.456 
L 57.6 289.750605 
" style="fill:none;stroke:#0038e3;stroke-width:1.5;"/>
    <path clip-path="url(#p19d9fc1998)" d="M 343.296 289.750605 
L 341.689291 291.456 
L 340.410182 292.782818 
L 339.070606 294.144 
L 337.524364 295.680267 
L 336.340487 296.832 
L 334.638545 298.451739 
L 333.491668 299.52 
L 331.752727 301.105277 
L 330.516234 302.208 
L 328.866909 303.64825 
L 327.405554 304.896 
L 325.981091 306.087429 
L 324.15019 307.584 
" style="fill:none;stroke:#0038e3;stroke-width:1.5;"/>
    <path clip-path="url(#p19d9fc1998)" d="M 57.6 59.305395 
L 59.206709 57.6 
L 60.485818 56.273182 
L 61.825394 54.912 
L 63.371636 53.375733 
L 64.555513 52.224 
L 66.257455 50.604261 
L 67.404332 49.536 
L 69.143273 47.950723 
L 70.379766 46.848 
L 72.029091 45.40775 
L 73.490446 44.16 
L 74.914909 42.968571 
L 76.74581 41.472 
" style="fill:none;stroke:#0038e3;stroke-width:1.5;"/>
    <path clip-path="url(#p19d9fc1998)" d="M 324.014093 41.472 
L 325.981091 43.119425 
L 327.186061 44.16 
L 328.866909 45.630213 
L 330.22541 46.848 
L 331.752727 48.231061 
L 333.169622 49.536 
L 334.638545 50.904231 
L 336.039518 52.224 
L 337.524364 53.646622 
L 338.831772 54.912 
L 340.410182 56.477628 
L 341.527336 57.6 
L 343.296 59.432163 
" style="fill:none;stroke:#0038e3;stroke-width:1.5;"/>
   </g>
   <g id="LineCollection_9">
    <path clip-path="url(#p19d9fc1998)" d="M 342.581615 41.472 
L 343.296 42.137415 
" style="fill:none;stroke:#001cf1;stroke-width:1.5;"/>
   </g>
   <g id="LineCollection_10"/>
   <g id="patch_3">
    <path d="M 57.6 307.584 
L 57.6 41.472 
" style="fill:none;stroke:#000000;stroke-linecap:square;stroke-linejoin:miter;stroke-width:0.8;"/>
   </g>
   <g id="patch_4">
    <path d="M 343.296 307.584 
L 343.296 41.472 
" style="fill:none;stroke:#000000;stroke-linecap:square;stroke-linejoin:miter;stroke-width:0.8;"/>
   </g>
   <g id="patch_5">
    <path d="M 57.6 307.584 
L 343.296 307.584 
" style="fill:none;stroke:#000000;stroke-linecap:square;stroke-linejoin:miter;stroke-width:0.8;"/>
   </g>
   <g id="patch_6">
    <path d="M 57.6 41.472 
L 343.296 41.472 
" style="fill:none;stroke:#000000;stroke-linecap:square;stroke-linejoin:miter;stroke-width:0.8;"/>
   </g>
  </g>
  <g id="axes_2">
   <g id="patch_7">
    <path clip-path="url(#pe0dd90d44c)" d="M 361.152 307.584 
L 361.152 278.016 
L 361.152 71.04 
L 361.152 41.472 
L 374.4576 41.472 
L 374.4576 71.04 
L 374.4576 278.016 
L 374.4576 307.584 
z
" style="fill:#ffffff;stroke:#ffffff;stroke-linejoin:miter;stroke-width:0.01;"/>
   </g>
   <g id="matplotlib.axis_3"/>
   <g id="matplotlib.axis_4">
    <g id="ytick_10">
     <g id="line2d_19">
      <defs>
       <path d="M 0 0 
L 3.5 0 
" id="me2557eadc6" style="stroke:#000000;stroke-width:0.8;"/>
      </defs>
      <g>
       <use style="stroke:#000000;stroke-width:0.8;" x="374.4576" xlink:href="#me2557eadc6" y="307.584"/>
      </g>
     </g>
     <g id="text_19">
      <!-- 0 -->
      <g transform="translate(381.4576 311.383219)scale(0.1 -0.1)">
       <use xlink:href="#DejaVuSans-48"/>
      </g>
     </g>
    </g>
    <g id="ytick_11">
     <g id="line2d_20">
      <g>
       <use style="stroke:#000000;stroke-width:0.8;" x="374.4576" xlink:href="#me2557eadc6" y="278.016"/>
      </g>
     </g>
     <g id="text_20">
      <!-- 25 -->
      <g transform="translate(381.4576 281.815219)scale(0.1 -0.1)">
       <use xlink:href="#DejaVuSans-50"/>
       <use x="63.623047" xlink:href="#DejaVuSans-53"/>
      </g>
     </g>
    </g>
    <g id="ytick_12">
     <g id="line2d_21">
      <g>
       <use style="stroke:#000000;stroke-width:0.8;" x="374.4576" xlink:href="#me2557eadc6" y="248.448"/>
      </g>
     </g>
     <g id="text_21">
      <!-- 50 -->
      <g transform="translate(381.4576 252.247219)scale(0.1 -0.1)">
       <use xlink:href="#DejaVuSans-53"/>
       <use x="63.623047" xlink:href="#DejaVuSans-48"/>
      </g>
     </g>
    </g>
    <g id="ytick_13">
     <g id="line2d_22">
      <g>
       <use style="stroke:#000000;stroke-width:0.8;" x="374.4576" xlink:href="#me2557eadc6" y="218.88"/>
      </g>
     </g>
     <g id="text_22">
      <!-- 75 -->
      <g transform="translate(381.4576 222.679219)scale(0.1 -0.1)">
       <use xlink:href="#DejaVuSans-55"/>
       <use x="63.623047" xlink:href="#DejaVuSans-53"/>
      </g>
     </g>
    </g>
    <g id="ytick_14">
     <g id="line2d_23">
      <g>
       <use style="stroke:#000000;stroke-width:0.8;" x="374.4576" xlink:href="#me2557eadc6" y="189.312"/>
      </g>
     </g>
     <g id="text_23">
      <!-- 100 -->
      <g transform="translate(381.4576 193.111219)scale(0.1 -0.1)">
       <use xlink:href="#DejaVuSans-49"/>
       <use x="63.623047" xlink:href="#DejaVuSans-48"/>
       <use x="127.246094" xlink:href="#DejaVuSans-48"/>
      </g>
     </g>
    </g>
    <g id="ytick_15">
     <g id="line2d_24">
      <g>
       <use style="stroke:#000000;stroke-width:0.8;" x="374.4576" xlink:href="#me2557eadc6" y="159.744"/>
      </g>
     </g>
     <g id="text_24">
      <!-- 125 -->
      <g transform="translate(381.4576 163.543219)scale(0.1 -0.1)">
       <use xlink:href="#DejaVuSans-49"/>
       <use x="63.623047" xlink:href="#DejaVuSans-50"/>
       <use x="127.246094" xlink:href="#DejaVuSans-53"/>
      </g>
     </g>
    </g>
    <g id="ytick_16">
     <g id="line2d_25">
      <g>
       <use style="stroke:#000000;stroke-width:0.8;" x="374.4576" xlink:href="#me2557eadc6" y="130.176"/>
      </g>
     </g>
     <g id="text_25">
      <!-- 150 -->
      <g transform="translate(381.4576 133.975219)scale(0.1 -0.1)">
       <use xlink:href="#DejaVuSans-49"/>
       <use x="63.623047" xlink:href="#DejaVuSans-53"/>
       <use x="127.246094" xlink:href="#DejaVuSans-48"/>
      </g>
     </g>
    </g>
    <g id="ytick_17">
     <g id="line2d_26">
      <g>
       <use style="stroke:#000000;stroke-width:0.8;" x="374.4576" xlink:href="#me2557eadc6" y="100.608"/>
      </g>
     </g>
     <g id="text_26">
      <!-- 175 -->
      <g transform="translate(381.4576 104.407219)scale(0.1 -0.1)">
       <use xlink:href="#DejaVuSans-49"/>
       <use x="63.623047" xlink:href="#DejaVuSans-55"/>
       <use x="127.246094" xlink:href="#DejaVuSans-53"/>
      </g>
     </g>
    </g>
    <g id="ytick_18">
     <g id="line2d_27">
      <g>
       <use style="stroke:#000000;stroke-width:0.8;" x="374.4576" xlink:href="#me2557eadc6" y="71.04"/>
      </g>
     </g>
     <g id="text_27">
      <!-- 200 -->
      <g transform="translate(381.4576 74.839219)scale(0.1 -0.1)">
       <use xlink:href="#DejaVuSans-50"/>
       <use x="63.623047" xlink:href="#DejaVuSans-48"/>
       <use x="127.246094" xlink:href="#DejaVuSans-48"/>
      </g>
     </g>
    </g>
    <g id="ytick_19">
     <g id="line2d_28">
      <g>
       <use style="stroke:#000000;stroke-width:0.8;" x="374.4576" xlink:href="#me2557eadc6" y="41.472"/>
      </g>
     </g>
     <g id="text_28">
      <!-- 225 -->
      <g transform="translate(381.4576 45.271219)scale(0.1 -0.1)">
       <use xlink:href="#DejaVuSans-50"/>
       <use x="63.623047" xlink:href="#DejaVuSans-50"/>
       <use x="127.246094" xlink:href="#DejaVuSans-53"/>
      </g>
     </g>
    </g>
   </g>
   <g id="LineCollection_11">
    <path clip-path="url(#pe0dd90d44c)" d="M 361.152 307.584 
L 374.4576 307.584 
" style="fill:none;stroke:#00ff80;stroke-width:1.5;"/>
    <path clip-path="url(#pe0dd90d44c)" d="M 361.152 278.016 
L 374.4576 278.016 
" style="fill:none;stroke:#00e38e;stroke-width:1.5;"/>
    <path clip-path="url(#pe0dd90d44c)" d="M 361.152 248.448 
L 374.4576 248.448 
" style="fill:none;stroke:#00c79c;stroke-width:1.5;"/>
    <path clip-path="url(#pe0dd90d44c)" d="M 361.152 218.88 
L 374.4576 218.88 
" style="fill:none;stroke:#00aaaa;stroke-width:1.5;"/>
    <path clip-path="url(#pe0dd90d44c)" d="M 361.152 189.312 
L 374.4576 189.312 
" style="fill:none;stroke:#008eb8;stroke-width:1.5;"/>
    <path clip-path="url(#pe0dd90d44c)" d="M 361.152 159.744 
L 374.4576 159.744 
" style="fill:none;stroke:#0071c6;stroke-width:1.5;"/>
    <path clip-path="url(#pe0dd90d44c)" d="M 361.152 130.176 
L 374.4576 130.176 
" style="fill:none;stroke:#0055d4;stroke-width:1.5;"/>
    <path clip-path="url(#pe0dd90d44c)" d="M 361.152 100.608 
L 374.4576 100.608 
" style="fill:none;stroke:#0038e3;stroke-width:1.5;"/>
    <path clip-path="url(#pe0dd90d44c)" d="M 361.152 71.04 
L 374.4576 71.04 
" style="fill:none;stroke:#001cf1;stroke-width:1.5;"/>
    <path clip-path="url(#pe0dd90d44c)" d="M 361.152 41.472 
L 374.4576 41.472 
" style="fill:none;stroke:#0000ff;stroke-width:1.5;"/>
   </g>
   <g id="patch_8">
    <path d="M 361.152 307.584 
L 361.152 278.016 
L 361.152 71.04 
L 361.152 41.472 
L 374.4576 41.472 
L 374.4576 71.04 
L 374.4576 278.016 
L 374.4576 307.584 
z
" style="fill:none;stroke:#000000;stroke-linejoin:miter;stroke-width:0.8;"/>
   </g>
  </g>
 </g>
 <defs>
  <clipPath id="p19d9fc1998">
   <rect height="266.112" width="285.696" x="57.6" y="41.472"/>
  </clipPath>
  <clipPath id="pe0dd90d44c">
   <rect height="266.112" width="13.3056" x="361.152" y="41.472"/>
  </clipPath>
 </defs>
</svg>
