<?xml version="1.0" encoding="utf-8" standalone="no"?>
<!DOCTYPE svg PUBLIC "-//W3C//DTD SVG 1.1//EN"
  "http://www.w3.org/Graphics/SVG/1.1/DTD/svg11.dtd">
<!-- Created with matplotlib (https://matplotlib.org/) -->
<svg height="345.6pt" version="1.1" viewBox="0 0 460.8 345.6" width="460.8pt" xmlns="http://www.w3.org/2000/svg" xmlns:xlink="http://www.w3.org/1999/xlink">
 <defs>
  <style type="text/css">
*{stroke-linecap:butt;stroke-linejoin:round;}
  </style>
 </defs>
 <g id="figure_1">
  <g id="patch_1">
   <path d="M 0 345.6 
L 460.8 345.6 
L 460.8 0 
L 0 0 
z
" style="fill:#ffffff;"/>
  </g>
  <g id="axes_1">
   <g id="patch_2">
    <path d="M 57.6 307.584 
L 343.296 307.584 
L 343.296 41.472 
L 57.6 41.472 
z
" style="fill:#ffffff;"/>
   </g>
   <g id="matplotlib.axis_1">
    <g id="xtick_1">
     <g id="line2d_1">
      <defs>
       <path d="M 0 0 
L 0 3.5 
" id="m0f838166bc" style="stroke:#000000;stroke-width:0.8;"/>
      </defs>
      <g>
       <use style="stroke:#000000;stroke-width:0.8;" x="57.6" xlink:href="#m0f838166bc" y="307.584"/>
      </g>
     </g>
     <g id="text_1">
      <!-- −1.00 -->
      <defs>
       <path d="M 10.59375 35.5 
L 73.1875 35.5 
L 73.1875 27.203125 
L 10.59375 27.203125 
z
" id="DejaVuSans-8722"/>
       <path d="M 12.40625 8.296875 
L 28.515625 8.296875 
L 28.515625 63.921875 
L 10.984375 60.40625 
L 10.984375 69.390625 
L 28.421875 72.90625 
L 38.28125 72.90625 
L 38.28125 8.296875 
L 54.390625 8.296875 
L 54.390625 0 
L 12.40625 0 
z
" id="DejaVuSans-49"/>
       <path d="M 10.6875 12.40625 
L 21 12.40625 
L 21 0 
L 10.6875 0 
z
" id="DejaVuSans-46"/>
       <path d="M 31.78125 66.40625 
Q 24.171875 66.40625 20.328125 58.90625 
Q 16.5 51.421875 16.5 36.375 
Q 16.5 21.390625 20.328125 13.890625 
Q 24.171875 6.390625 31.78125 6.390625 
Q 39.453125 6.390625 43.28125 13.890625 
Q 47.125 21.390625 47.125 36.375 
Q 47.125 51.421875 43.28125 58.90625 
Q 39.453125 66.40625 31.78125 66.40625 
z
M 31.78125 74.21875 
Q 44.046875 74.21875 50.515625 64.515625 
Q 56.984375 54.828125 56.984375 36.375 
Q 56.984375 17.96875 50.515625 8.265625 
Q 44.046875 -1.421875 31.78125 -1.421875 
Q 19.53125 -1.421875 13.0625 8.265625 
Q 6.59375 17.96875 6.59375 36.375 
Q 6.59375 54.828125 13.0625 64.515625 
Q 19.53125 74.21875 31.78125 74.21875 
z
" id="DejaVuSans-48"/>
      </defs>
      <g transform="translate(42.277344 322.182437)scale(0.1 -0.1)">
       <use xlink:href="#DejaVuSans-8722"/>
       <use x="83.789062" xlink:href="#DejaVuSans-49"/>
       <use x="147.412109" xlink:href="#DejaVuSans-46"/>
       <use x="179.199219" xlink:href="#DejaVuSans-48"/>
       <use x="242.822266" xlink:href="#DejaVuSans-48"/>
      </g>
     </g>
    </g>
    <g id="xtick_2">
     <g id="line2d_2">
      <g>
       <use style="stroke:#000000;stroke-width:0.8;" x="93.312" xlink:href="#m0f838166bc" y="307.584"/>
      </g>
     </g>
     <g id="text_2">
      <!-- −0.75 -->
      <defs>
       <path d="M 8.203125 72.90625 
L 55.078125 72.90625 
L 55.078125 68.703125 
L 28.609375 0 
L 18.3125 0 
L 43.21875 64.59375 
L 8.203125 64.59375 
z
" id="DejaVuSans-55"/>
       <path d="M 10.796875 72.90625 
L 49.515625 72.90625 
L 49.515625 64.59375 
L 19.828125 64.59375 
L 19.828125 46.734375 
Q 21.96875 47.46875 24.109375 47.828125 
Q 26.265625 48.1875 28.421875 48.1875 
Q 40.625 48.1875 47.75 41.5 
Q 54.890625 34.8125 54.890625 23.390625 
Q 54.890625 11.625 47.5625 5.09375 
Q 40.234375 -1.421875 26.90625 -1.421875 
Q 22.3125 -1.421875 17.546875 -0.640625 
Q 12.796875 0.140625 7.71875 1.703125 
L 7.71875 11.625 
Q 12.109375 9.234375 16.796875 8.0625 
Q 21.484375 6.890625 26.703125 6.890625 
Q 35.15625 6.890625 40.078125 11.328125 
Q 45.015625 15.765625 45.015625 23.390625 
Q 45.015625 31 40.078125 35.4375 
Q 35.15625 39.890625 26.703125 39.890625 
Q 22.75 39.890625 18.8125 39.015625 
Q 14.890625 38.140625 10.796875 36.28125 
z
" id="DejaVuSans-53"/>
      </defs>
      <g transform="translate(77.989344 322.182437)scale(0.1 -0.1)">
       <use xlink:href="#DejaVuSans-8722"/>
       <use x="83.789062" xlink:href="#DejaVuSans-48"/>
       <use x="147.412109" xlink:href="#DejaVuSans-46"/>
       <use x="179.199219" xlink:href="#DejaVuSans-55"/>
       <use x="242.822266" xlink:href="#DejaVuSans-53"/>
      </g>
     </g>
    </g>
    <g id="xtick_3">
     <g id="line2d_3">
      <g>
       <use style="stroke:#000000;stroke-width:0.8;" x="129.024" xlink:href="#m0f838166bc" y="307.584"/>
      </g>
     </g>
     <g id="text_3">
      <!-- −0.50 -->
      <g transform="translate(113.701344 322.182437)scale(0.1 -0.1)">
       <use xlink:href="#DejaVuSans-8722"/>
       <use x="83.789062" xlink:href="#DejaVuSans-48"/>
       <use x="147.412109" xlink:href="#DejaVuSans-46"/>
       <use x="179.199219" xlink:href="#DejaVuSans-53"/>
       <use x="242.822266" xlink:href="#DejaVuSans-48"/>
      </g>
     </g>
    </g>
    <g id="xtick_4">
     <g id="line2d_4">
      <g>
       <use style="stroke:#000000;stroke-width:0.8;" x="164.736" xlink:href="#m0f838166bc" y="307.584"/>
      </g>
     </g>
     <g id="text_4">
      <!-- −0.25 -->
      <defs>
       <path d="M 19.1875 8.296875 
L 53.609375 8.296875 
L 53.609375 0 
L 7.328125 0 
L 7.328125 8.296875 
Q 12.9375 14.109375 22.625 23.890625 
Q 32.328125 33.6875 34.8125 36.53125 
Q 39.546875 41.84375 41.421875 45.53125 
Q 43.3125 49.21875 43.3125 52.78125 
Q 43.3125 58.59375 39.234375 62.25 
Q 35.15625 65.921875 28.609375 65.921875 
Q 23.96875 65.921875 18.8125 64.3125 
Q 13.671875 62.703125 7.8125 59.421875 
L 7.8125 69.390625 
Q 13.765625 71.78125 18.9375 73 
Q 24.125 74.21875 28.421875 74.21875 
Q 39.75 74.21875 46.484375 68.546875 
Q 53.21875 62.890625 53.21875 53.421875 
Q 53.21875 48.921875 51.53125 44.890625 
Q 49.859375 40.875 45.40625 35.40625 
Q 44.1875 33.984375 37.640625 27.21875 
Q 31.109375 20.453125 19.1875 8.296875 
z
" id="DejaVuSans-50"/>
      </defs>
      <g transform="translate(149.413344 322.182437)scale(0.1 -0.1)">
       <use xlink:href="#DejaVuSans-8722"/>
       <use x="83.789062" xlink:href="#DejaVuSans-48"/>
       <use x="147.412109" xlink:href="#DejaVuSans-46"/>
       <use x="179.199219" xlink:href="#DejaVuSans-50"/>
       <use x="242.822266" xlink:href="#DejaVuSans-53"/>
      </g>
     </g>
    </g>
    <g id="xtick_5">
     <g id="line2d_5">
      <g>
       <use style="stroke:#000000;stroke-width:0.8;" x="200.448" xlink:href="#m0f838166bc" y="307.584"/>
      </g>
     </g>
     <g id="text_5">
      <!-- 0.00 -->
      <g transform="translate(189.315188 322.182437)scale(0.1 -0.1)">
       <use xlink:href="#DejaVuSans-48"/>
       <use x="63.623047" xlink:href="#DejaVuSans-46"/>
       <use x="95.410156" xlink:href="#DejaVuSans-48"/>
       <use x="159.033203" xlink:href="#DejaVuSans-48"/>
      </g>
     </g>
    </g>
    <g id="xtick_6">
     <g id="line2d_6">
      <g>
       <use style="stroke:#000000;stroke-width:0.8;" x="236.16" xlink:href="#m0f838166bc" y="307.584"/>
      </g>
     </g>
     <g id="text_6">
      <!-- 0.25 -->
      <g transform="translate(225.027188 322.182437)scale(0.1 -0.1)">
       <use xlink:href="#DejaVuSans-48"/>
       <use x="63.623047" xlink:href="#DejaVuSans-46"/>
       <use x="95.410156" xlink:href="#DejaVuSans-50"/>
       <use x="159.033203" xlink:href="#DejaVuSans-53"/>
      </g>
     </g>
    </g>
    <g id="xtick_7">
     <g id="line2d_7">
      <g>
       <use style="stroke:#000000;stroke-width:0.8;" x="271.872" xlink:href="#m0f838166bc" y="307.584"/>
      </g>
     </g>
     <g id="text_7">
      <!-- 0.50 -->
      <g transform="translate(260.739188 322.182437)scale(0.1 -0.1)">
       <use xlink:href="#DejaVuSans-48"/>
       <use x="63.623047" xlink:href="#DejaVuSans-46"/>
       <use x="95.410156" xlink:href="#DejaVuSans-53"/>
       <use x="159.033203" xlink:href="#DejaVuSans-48"/>
      </g>
     </g>
    </g>
    <g id="xtick_8">
     <g id="line2d_8">
      <g>
       <use style="stroke:#000000;stroke-width:0.8;" x="307.584" xlink:href="#m0f838166bc" y="307.584"/>
      </g>
     </g>
     <g id="text_8">
      <!-- 0.75 -->
      <g transform="translate(296.451188 322.182437)scale(0.1 -0.1)">
       <use xlink:href="#DejaVuSans-48"/>
       <use x="63.623047" xlink:href="#DejaVuSans-46"/>
       <use x="95.410156" xlink:href="#DejaVuSans-55"/>
       <use x="159.033203" xlink:href="#DejaVuSans-53"/>
      </g>
     </g>
    </g>
    <g id="xtick_9">
     <g id="line2d_9">
      <g>
       <use style="stroke:#000000;stroke-width:0.8;" x="343.296" xlink:href="#m0f838166bc" y="307.584"/>
      </g>
     </g>
     <g id="text_9">
      <!-- 1.00 -->
      <g transform="translate(332.163188 322.182437)scale(0.1 -0.1)">
       <use xlink:href="#DejaVuSans-49"/>
       <use x="63.623047" xlink:href="#DejaVuSans-46"/>
       <use x="95.410156" xlink:href="#DejaVuSans-48"/>
       <use x="159.033203" xlink:href="#DejaVuSans-48"/>
      </g>
     </g>
    </g>
   </g>
   <g id="matplotlib.axis_2">
    <g id="ytick_1">
     <g id="line2d_10">
      <defs>
       <path d="M 0 0 
L -3.5 0 
" id="m31b4d64178" style="stroke:#000000;stroke-width:0.8;"/>
      </defs>
      <g>
       <use style="stroke:#000000;stroke-width:0.8;" x="57.6" xlink:href="#m31b4d64178" y="307.584"/>
      </g>
     </g>
     <g id="text_10">
      <!-- −1.00 -->
      <g transform="translate(19.954687 311.383219)scale(0.1 -0.1)">
       <use xlink:href="#DejaVuSans-8722"/>
       <use x="83.789062" xlink:href="#DejaVuSans-49"/>
       <use x="147.412109" xlink:href="#DejaVuSans-46"/>
       <use x="179.199219" xlink:href="#DejaVuSans-48"/>
       <use x="242.822266" xlink:href="#DejaVuSans-48"/>
      </g>
     </g>
    </g>
    <g id="ytick_2">
     <g id="line2d_11">
      <g>
       <use style="stroke:#000000;stroke-width:0.8;" x="57.6" xlink:href="#m31b4d64178" y="274.32"/>
      </g>
     </g>
     <g id="text_11">
      <!-- −0.75 -->
      <g transform="translate(19.954687 278.119219)scale(0.1 -0.1)">
       <use xlink:href="#DejaVuSans-8722"/>
       <use x="83.789062" xlink:href="#DejaVuSans-48"/>
       <use x="147.412109" xlink:href="#DejaVuSans-46"/>
       <use x="179.199219" xlink:href="#DejaVuSans-55"/>
       <use x="242.822266" xlink:href="#DejaVuSans-53"/>
      </g>
     </g>
    </g>
    <g id="ytick_3">
     <g id="line2d_12">
      <g>
       <use style="stroke:#000000;stroke-width:0.8;" x="57.6" xlink:href="#m31b4d64178" y="241.056"/>
      </g>
     </g>
     <g id="text_12">
      <!-- −0.50 -->
      <g transform="translate(19.954687 244.855219)scale(0.1 -0.1)">
       <use xlink:href="#DejaVuSans-8722"/>
       <use x="83.789062" xlink:href="#DejaVuSans-48"/>
       <use x="147.412109" xlink:href="#DejaVuSans-46"/>
       <use x="179.199219" xlink:href="#DejaVuSans-53"/>
       <use x="242.822266" xlink:href="#DejaVuSans-48"/>
      </g>
     </g>
    </g>
    <g id="ytick_4">
     <g id="line2d_13">
      <g>
       <use style="stroke:#000000;stroke-width:0.8;" x="57.6" xlink:href="#m31b4d64178" y="207.792"/>
      </g>
     </g>
     <g id="text_13">
      <!-- −0.25 -->
      <g transform="translate(19.954687 211.591219)scale(0.1 -0.1)">
       <use xlink:href="#DejaVuSans-8722"/>
       <use x="83.789062" xlink:href="#DejaVuSans-48"/>
       <use x="147.412109" xlink:href="#DejaVuSans-46"/>
       <use x="179.199219" xlink:href="#DejaVuSans-50"/>
       <use x="242.822266" xlink:href="#DejaVuSans-53"/>
      </g>
     </g>
    </g>
    <g id="ytick_5">
     <g id="line2d_14">
      <g>
       <use style="stroke:#000000;stroke-width:0.8;" x="57.6" xlink:href="#m31b4d64178" y="174.528"/>
      </g>
     </g>
     <g id="text_14">
      <!-- 0.00 -->
      <g transform="translate(28.334375 178.327219)scale(0.1 -0.1)">
       <use xlink:href="#DejaVuSans-48"/>
       <use x="63.623047" xlink:href="#DejaVuSans-46"/>
       <use x="95.410156" xlink:href="#DejaVuSans-48"/>
       <use x="159.033203" xlink:href="#DejaVuSans-48"/>
      </g>
     </g>
    </g>
    <g id="ytick_6">
     <g id="line2d_15">
      <g>
       <use style="stroke:#000000;stroke-width:0.8;" x="57.6" xlink:href="#m31b4d64178" y="141.264"/>
      </g>
     </g>
     <g id="text_15">
      <!-- 0.25 -->
      <g transform="translate(28.334375 145.063219)scale(0.1 -0.1)">
       <use xlink:href="#DejaVuSans-48"/>
       <use x="63.623047" xlink:href="#DejaVuSans-46"/>
       <use x="95.410156" xlink:href="#DejaVuSans-50"/>
       <use x="159.033203" xlink:href="#DejaVuSans-53"/>
      </g>
     </g>
    </g>
    <g id="ytick_7">
     <g id="line2d_16">
      <g>
       <use style="stroke:#000000;stroke-width:0.8;" x="57.6" xlink:href="#m31b4d64178" y="108"/>
      </g>
     </g>
     <g id="text_16">
      <!-- 0.50 -->
      <g transform="translate(28.334375 111.799219)scale(0.1 -0.1)">
       <use xlink:href="#DejaVuSans-48"/>
       <use x="63.623047" xlink:href="#DejaVuSans-46"/>
       <use x="95.410156" xlink:href="#DejaVuSans-53"/>
       <use x="159.033203" xlink:href="#DejaVuSans-48"/>
      </g>
     </g>
    </g>
    <g id="ytick_8">
     <g id="line2d_17">
      <g>
       <use style="stroke:#000000;stroke-width:0.8;" x="57.6" xlink:href="#m31b4d64178" y="74.736"/>
      </g>
     </g>
     <g id="text_17">
      <!-- 0.75 -->
      <g transform="translate(28.334375 78.535219)scale(0.1 -0.1)">
       <use xlink:href="#DejaVuSans-48"/>
       <use x="63.623047" xlink:href="#DejaVuSans-46"/>
       <use x="95.410156" xlink:href="#DejaVuSans-55"/>
       <use x="159.033203" xlink:href="#DejaVuSans-53"/>
      </g>
     </g>
    </g>
    <g id="ytick_9">
     <g id="line2d_18">
      <g>
       <use style="stroke:#000000;stroke-width:0.8;" x="57.6" xlink:href="#m31b4d64178" y="41.472"/>
      </g>
     </g>
     <g id="text_18">
      <!-- 1.00 -->
      <g transform="translate(28.334375 45.271219)scale(0.1 -0.1)">
       <use xlink:href="#DejaVuSans-49"/>
       <use x="63.623047" xlink:href="#DejaVuSans-46"/>
       <use x="95.410156" xlink:href="#DejaVuSans-48"/>
       <use x="159.033203" xlink:href="#DejaVuSans-48"/>
      </g>
     </g>
    </g>
   </g>
   <g id="LineCollection_1"/>
   <g id="LineCollection_2">
    <path clip-path="url(#p2257ff29f7)" d="M 173.032727 240.523385 
L 167.261091 239.853052 
L 161.489455 238.788984 
L 157.304962 237.696 
L 155.717818 237.191014 
L 152.832 236.107282 
L 149.946182 234.81049 
L 145.718097 232.32 
L 144.174545 231.203884 
L 141.288727 228.716621 
L 139.601164 226.944 
L 137.468539 224.256 
L 135.517091 221.190604 
L 134.336909 218.88 
L 132.631273 214.713653 
L 132.223215 213.504 
L 131.457852 210.816 
L 130.827465 208.128 
L 129.906969 202.752 
L 129.365889 197.376 
L 129.085889 192 
L 128.978454 183.936 
L 129.199116 154.368 
L 129.595811 148.992 
L 129.906969 146.304 
L 130.827465 140.928 
L 131.457852 138.24 
L 132.631273 134.342347 
L 133.173422 132.864 
L 134.336909 130.176 
L 135.729136 127.488 
L 138.402909 123.549744 
L 139.601164 122.112 
L 142.271472 119.424 
L 144.174545 117.852116 
L 147.060364 115.865679 
L 150.351351 114.048 
L 152.832 112.948718 
L 157.304962 111.36 
L 158.603636 110.979914 
L 161.489455 110.267016 
L 167.261091 109.202948 
L 173.032727 108.532615 
L 178.804364 108.163112 
L 184.576 107.993623 
L 193.233455 107.969327 
L 207.662545 107.969327 
L 216.32 107.993623 
L 222.091636 108.163112 
L 227.863273 108.532615 
L 233.634909 109.202948 
L 239.406545 110.267016 
L 243.591038 111.36 
L 245.178182 111.864986 
L 248.064 112.948718 
L 250.949818 114.24551 
L 255.177903 116.736 
L 256.721455 117.852116 
L 259.607273 120.339379 
L 261.294836 122.112 
L 263.427461 124.8 
L 265.378909 127.865396 
L 266.559091 130.176 
L 268.264727 134.342347 
L 268.672785 135.552 
L 269.438148 138.24 
L 270.068535 140.928 
L 270.989031 146.304 
L 271.530111 151.68 
L 271.810111 157.056 
L 271.917546 165.12 
L 271.696884 194.688 
L 271.300189 200.064 
L 270.989031 202.752 
L 270.068535 208.128 
L 269.438148 210.816 
L 268.264727 214.713653 
L 267.722578 216.192 
L 266.559091 218.88 
L 265.166864 221.568 
L 262.493091 225.506256 
L 261.294836 226.944 
L 258.624528 229.632 
L 256.721455 231.203884 
L 253.835636 233.190321 
L 250.544649 235.008 
L 248.064 236.107282 
L 243.591038 237.696 
L 242.292364 238.076086 
L 239.406545 238.788984 
L 233.634909 239.853052 
L 227.863273 240.523385 
L 222.091636 240.892888 
L 216.32 241.062377 
L 207.662545 241.086673 
L 193.233455 241.086673 
L 184.576 241.062377 
L 178.804364 240.892888 
L 173.032727 240.523385 
L 173.032727 240.523385 
" style="fill:none;stroke:#00df90;stroke-width:1.5;"/>
   </g>
   <g id="LineCollection_3">
    <path clip-path="url(#p2257ff29f7)" d="M 144.174545 267.564273 
L 141.288727 267.045959 
L 135.517091 265.665852 
L 131.985186 264.576 
L 129.745455 263.752937 
L 125.485983 261.888 
L 123.973818 261.114063 
L 120.696389 259.2 
L 116.971545 256.512 
L 113.933024 253.824 
L 111.409136 251.136 
L 109.275281 248.448 
L 106.658909 244.351491 
L 105.958602 243.072 
L 104.656725 240.384 
L 103.534805 237.696 
L 102.603033 235.008 
L 101.802219 232.32 
L 100.887273 228.53815 
L 100.112353 224.256 
L 99.451219 218.88 
L 99.060478 213.504 
L 98.879783 208.128 
L 98.884845 200.064 
L 99.237024 186.624 
L 99.446052 175.872 
L 99.373411 167.808 
L 98.850975 143.616 
L 98.947408 138.24 
L 99.225966 132.864 
L 99.74397 127.488 
L 100.564901 122.112 
L 101.12136 119.424 
L 101.802219 116.736 
L 102.603033 114.048 
L 103.773091 110.758201 
L 104.656725 108.672 
L 106.658909 104.704509 
L 107.489803 103.296 
L 109.544727 100.243233 
L 112.430545 96.773721 
L 115.316364 93.943486 
L 118.202182 91.592607 
L 121.088 89.605023 
L 125.485983 87.168 
L 126.859636 86.515698 
L 131.985186 84.48 
L 132.631273 84.258048 
L 135.517091 83.390148 
L 141.288727 82.010041 
L 144.174545 81.491727 
L 149.946182 80.727068 
L 155.717818 80.244573 
L 161.489455 79.98511 
L 170.146909 79.898731 
L 181.690182 80.106199 
L 199.005091 80.449573 
L 207.662545 80.381911 
L 233.634909 79.895287 
L 239.406545 79.98511 
L 245.178182 80.244573 
L 250.949818 80.727068 
L 256.721455 81.491727 
L 259.607273 82.010041 
L 265.378909 83.390148 
L 268.910814 84.48 
L 271.150545 85.303063 
L 275.410017 87.168 
L 276.922182 87.941937 
L 280.199611 89.856 
L 283.924455 92.544 
L 286.962976 95.232 
L 289.486864 97.92 
L 291.620719 100.608 
L 294.237091 104.704509 
L 294.937398 105.984 
L 296.239275 108.672 
L 297.361195 111.36 
L 298.292967 114.048 
L 299.093781 116.736 
L 300.008727 120.51785 
L 300.783647 124.8 
L 301.444781 130.176 
L 301.835522 135.552 
L 302.016217 140.928 
L 302.011155 148.992 
L 301.658976 162.432 
L 301.449948 173.184 
L 301.522589 181.248 
L 302.045025 205.44 
L 301.948592 210.816 
L 301.670034 216.192 
L 301.15203 221.568 
L 300.331099 226.944 
L 299.77464 229.632 
L 299.093781 232.32 
L 298.292967 235.008 
L 297.122909 238.297799 
L 296.239275 240.384 
L 294.237091 244.351491 
L 293.406197 245.76 
L 291.351273 248.812767 
L 288.465455 252.282279 
L 285.579636 255.112514 
L 282.693818 257.463393 
L 279.808 259.450977 
L 275.410017 261.888 
L 274.036364 262.540302 
L 268.910814 264.576 
L 268.264727 264.797952 
L 265.378909 265.665852 
L 259.607273 267.045959 
L 256.721455 267.564273 
L 250.949818 268.328932 
L 245.178182 268.811427 
L 239.406545 269.07089 
L 230.749091 269.157269 
L 219.205818 268.949801 
L 201.890909 268.606427 
L 193.233455 268.674089 
L 167.261091 269.160713 
L 161.489455 269.07089 
L 155.717818 268.811427 
L 149.946182 268.328932 
L 144.174545 267.564273 
L 144.174545 267.564273 
" style="fill:none;stroke:#00bfa0;stroke-width:1.5;"/>
   </g>
   <g id="LineCollection_4">
    <path clip-path="url(#p2257ff29f7)" d="M 141.288727 289.03678 
L 135.517091 288.249028 
L 129.745455 287.162021 
L 123.973818 285.727046 
L 118.202182 283.8459 
L 115.316364 282.709558 
L 110.947429 280.704 
L 109.544727 279.980728 
L 106.108919 278.016 
L 102.118534 275.328 
L 98.712726 272.64 
L 95.777807 269.952 
L 93.223219 267.264 
L 90.976942 264.576 
L 88.981731 261.888 
L 86.458182 257.893451 
L 85.681252 256.512 
L 83.572364 252.242534 
L 82.019106 248.448 
L 80.686545 244.55717 
L 79.524895 240.384 
L 78.357892 235.008 
L 77.512167 229.632 
L 76.938391 224.256 
L 76.572356 218.88 
L 76.32391 210.816 
L 76.323157 202.752 
L 76.703079 167.808 
L 76.32391 138.24 
L 76.572356 130.176 
L 76.938391 124.8 
L 77.512167 119.424 
L 78.357892 114.048 
L 79.524895 108.672 
L 81.065474 103.296 
L 83.08506 97.92 
L 84.305028 95.232 
L 86.458182 91.162549 
L 87.234681 89.856 
L 89.344 86.655711 
L 92.229818 82.93886 
L 95.115636 79.766515 
L 98.001455 77.03278 
L 100.887273 74.653305 
L 103.773091 72.561006 
L 106.658909 70.702564 
L 110.947429 68.352 
L 112.430545 67.628328 
L 117.014215 65.664 
L 121.088 64.217216 
L 125.265169 62.976 
L 129.745455 61.893979 
L 135.517091 60.806972 
L 141.288727 60.01922 
L 147.060364 59.484776 
L 152.832 59.143831 
L 161.489455 58.912417 
L 170.146909 58.911715 
L 207.662545 59.265594 
L 239.406545 58.912417 
L 248.064 59.143831 
L 253.835636 59.484776 
L 259.607273 60.01922 
L 265.378909 60.806972 
L 271.150545 61.893979 
L 276.922182 63.328954 
L 282.693818 65.2101 
L 285.579636 66.346442 
L 289.948571 68.352 
L 291.351273 69.075272 
L 294.787081 71.04 
L 298.777466 73.728 
L 302.183274 76.416 
L 305.118193 79.104 
L 307.672781 81.792 
L 309.919058 84.48 
L 311.914269 87.168 
L 314.437818 91.162549 
L 315.214748 92.544 
L 317.323636 96.813466 
L 318.876894 100.608 
L 320.209455 104.49883 
L 321.371105 108.672 
L 322.538108 114.048 
L 323.383833 119.424 
L 323.957609 124.8 
L 324.323644 130.176 
L 324.57209 138.24 
L 324.572843 146.304 
L 324.192921 181.248 
L 324.57209 210.816 
L 324.323644 218.88 
L 323.957609 224.256 
L 323.383833 229.632 
L 322.538108 235.008 
L 321.371105 240.384 
L 319.830526 245.76 
L 317.81094 251.136 
L 316.590972 253.824 
L 314.437818 257.893451 
L 313.661319 259.2 
L 311.552 262.400289 
L 308.666182 266.11714 
L 305.780364 269.289485 
L 302.894545 272.02322 
L 300.008727 274.402695 
L 297.122909 276.494994 
L 294.237091 278.353436 
L 289.948571 280.704 
L 288.465455 281.427672 
L 283.881785 283.392 
L 279.808 284.838784 
L 275.630831 286.08 
L 271.150545 287.162021 
L 265.378909 288.249028 
L 259.607273 289.03678 
L 253.835636 289.571224 
L 248.064 289.912169 
L 239.406545 290.143583 
L 230.749091 290.144285 
L 193.233455 289.790406 
L 161.489455 290.143583 
L 152.832 289.912169 
L 147.060364 289.571224 
L 141.288727 289.03678 
L 141.288727 289.03678 
" style="fill:none;stroke:#009fb0;stroke-width:1.5;"/>
   </g>
   <g id="LineCollection_5">
    <path clip-path="url(#p2257ff29f7)" d="M 135.517091 305.04979 
L 129.745455 304.053149 
L 123.973818 302.803042 
L 118.202182 301.239368 
L 112.430545 299.328554 
L 106.315659 296.832 
L 100.861455 294.144 
L 96.267607 291.456 
L 92.225752 288.768 
L 88.701486 286.08 
L 85.545833 283.392 
L 82.705747 280.704 
L 80.135853 278.016 
L 77.797582 275.328 
L 74.914909 271.566995 
L 72.01391 267.264 
L 68.975064 261.888 
L 66.46299 256.512 
L 65.389278 253.824 
L 63.371636 247.958163 
L 62.026582 243.072 
L 60.821484 237.696 
L 59.887223 232.32 
L 59.172597 226.944 
L 58.635737 221.568 
L 58.098869 213.504 
L 57.801375 205.44 
L 57.637268 194.688 
L 57.600061 170.496 
L 57.694919 148.992 
L 57.977434 138.24 
L 58.424595 130.176 
L 58.883837 124.8 
L 59.505789 119.424 
L 60.485818 113.14612 
L 61.390697 108.672 
L 62.732804 103.296 
L 63.518524 100.608 
L 65.389278 95.232 
L 66.46299 92.544 
L 69.143273 86.848279 
L 72.029091 81.767952 
L 74.914909 77.489005 
L 77.800727 73.724212 
L 80.686545 70.441529 
L 83.572364 67.502191 
L 86.458182 64.856789 
L 89.344 62.463057 
L 92.229818 60.28507 
L 96.267607 57.6 
L 100.887273 54.897859 
L 106.658909 52.067321 
L 112.430545 49.727446 
L 115.316364 48.727336 
L 121.613885 46.848 
L 126.859636 45.595147 
L 132.631273 44.472656 
L 138.402909 43.602437 
L 144.174545 42.936798 
L 152.832 42.24007 
L 161.489455 41.823562 
L 173.032727 41.560413 
L 190.347636 41.473672 
L 227.863273 41.560413 
L 239.406545 41.823562 
L 248.064 42.24007 
L 256.721455 42.936798 
L 262.493091 43.602437 
L 268.264727 44.472656 
L 274.036364 45.595147 
L 279.808 46.984819 
L 285.579636 48.727336 
L 288.465455 49.727446 
L 294.580341 52.224 
L 300.034545 54.912 
L 304.628393 57.6 
L 308.670248 60.288 
L 312.194514 62.976 
L 315.350167 65.664 
L 318.190253 68.352 
L 320.760147 71.04 
L 323.098418 73.728 
L 325.981091 77.489005 
L 328.88209 81.792 
L 331.920936 87.168 
L 334.43301 92.544 
L 335.506722 95.232 
L 337.524364 101.097837 
L 338.869418 105.984 
L 340.074516 111.36 
L 341.008777 116.736 
L 341.723403 122.112 
L 342.260263 127.488 
L 342.797131 135.552 
L 343.094625 143.616 
L 343.258732 154.368 
L 343.295939 178.56 
L 343.201081 200.064 
L 342.918566 210.816 
L 342.471405 218.88 
L 342.012163 224.256 
L 341.390211 229.632 
L 340.410182 235.90988 
L 339.505303 240.384 
L 338.163196 245.76 
L 337.377476 248.448 
L 335.506722 253.824 
L 334.43301 256.512 
L 331.752727 262.207721 
L 328.866909 267.288048 
L 325.981091 271.566995 
L 323.095273 275.331788 
L 320.209455 278.614471 
L 317.323636 281.553809 
L 314.437818 284.199211 
L 311.552 286.592943 
L 308.666182 288.77093 
L 304.628393 291.456 
L 300.008727 294.158141 
L 294.237091 296.988679 
L 288.465455 299.328554 
L 285.579636 300.328664 
L 279.282115 302.208 
L 274.036364 303.460853 
L 268.264727 304.583344 
L 262.493091 305.453563 
L 256.721455 306.119202 
L 248.064 306.81593 
L 239.406545 307.232438 
L 227.863273 307.495587 
L 210.548364 307.582328 
L 173.032727 307.495587 
L 161.489455 307.232438 
L 152.832 306.81593 
L 144.174545 306.119202 
L 138.402909 305.453563 
L 135.517091 305.04979 
L 135.517091 305.04979 
" style="fill:none;stroke:#007fc0;stroke-width:1.5;"/>
   </g>
   <g id="LineCollection_6">
    <path clip-path="url(#p2257ff29f7)" d="M 99.470125 307.584 
L 98.001455 306.843897 
L 95.115636 305.303015 
L 94.397079 304.896 
L 92.229818 303.629469 
L 89.915821 302.208 
L 89.344 301.844865 
L 86.458182 299.912306 
L 85.900906 299.52 
L 83.572364 297.822917 
L 82.272463 296.832 
L 80.686545 295.578043 
L 78.949996 294.144 
L 77.800727 293.1578 
L 75.898829 291.456 
L 74.914909 290.539526 
L 73.087868 288.768 
L 72.029091 287.697512 
L 70.489512 286.08 
L 69.143273 284.602794 
L 68.079431 283.392 
L 66.257455 281.223076 
L 65.836277 280.704 
L 63.761495 278.016 
L 63.371636 277.483376 
L 61.845557 275.328 
L 60.485818 273.309301 
L 60.04885 272.64 
L 58.39457 269.952 
L 57.6 268.584004 
" style="fill:none;stroke:#005fd0;stroke-width:1.5;"/>
    <path clip-path="url(#p2257ff29f7)" d="M 343.296 268.584004 
L 342.50143 269.952 
L 340.84715 272.64 
L 340.410182 273.309301 
L 339.050443 275.328 
L 337.524364 277.483376 
L 337.134505 278.016 
L 335.059723 280.704 
L 334.638545 281.223076 
L 332.816569 283.392 
L 331.752727 284.602794 
L 330.406488 286.08 
L 328.866909 287.697512 
L 327.808132 288.768 
L 325.981091 290.539526 
L 324.997171 291.456 
L 323.095273 293.1578 
L 321.946004 294.144 
L 320.209455 295.578043 
L 318.623537 296.832 
L 317.323636 297.822917 
L 314.995094 299.52 
L 314.437818 299.912306 
L 311.552 301.844865 
L 310.980179 302.208 
L 308.666182 303.629469 
L 306.498921 304.896 
L 305.780364 305.303015 
L 302.894545 306.843897 
L 301.425875 307.584 
" style="fill:none;stroke:#005fd0;stroke-width:1.5;"/>
    <path clip-path="url(#p2257ff29f7)" d="M 57.6 80.471996 
L 58.39457 79.104 
L 60.04885 76.416 
L 60.485818 75.746699 
L 61.845557 73.728 
L 63.371636 71.572624 
L 63.761495 71.04 
L 65.836277 68.352 
L 66.257455 67.832924 
L 68.079431 65.664 
L 69.143273 64.453206 
L 70.489512 62.976 
L 72.029091 61.358488 
L 73.087868 60.288 
L 74.914909 58.516474 
L 75.898829 57.6 
L 77.800727 55.8982 
L 78.949996 54.912 
L 80.686545 53.477957 
L 82.272463 52.224 
L 83.572364 51.233083 
L 85.900906 49.536 
L 86.458182 49.143694 
L 89.344 47.211135 
L 89.915821 46.848 
L 92.229818 45.426531 
L 94.397079 44.16 
L 95.115636 43.752985 
L 98.001455 42.212103 
L 99.470125 41.472 
" style="fill:none;stroke:#005fd0;stroke-width:1.5;"/>
    <path clip-path="url(#p2257ff29f7)" d="M 301.425875 41.472 
L 302.894545 42.212103 
L 305.780364 43.752985 
L 306.498921 44.16 
L 308.666182 45.426531 
L 310.980179 46.848 
L 311.552 47.211135 
L 314.437818 49.143694 
L 314.995094 49.536 
L 317.323636 51.233083 
L 318.623537 52.224 
L 320.209455 53.477957 
L 321.946004 54.912 
L 323.095273 55.8982 
L 324.997171 57.6 
L 325.981091 58.516474 
L 327.808132 60.288 
L 328.866909 61.358488 
L 330.406488 62.976 
L 331.752727 64.453206 
L 332.816569 65.664 
L 334.638545 67.832924 
L 335.059723 68.352 
L 337.134505 71.04 
L 337.524364 71.572624 
L 339.050443 73.728 
L 340.410182 75.746699 
L 340.84715 76.416 
L 342.50143 79.104 
L 343.296 80.471996 
" style="fill:none;stroke:#005fd0;stroke-width:1.5;"/>
   </g>
   <g id="LineCollection_7">
    <path clip-path="url(#p2257ff29f7)" d="M 80.338785 307.584 
L 77.800727 305.694976 
L 76.765103 304.896 
L 74.914909 303.428273 
L 73.429219 302.208 
L 72.029091 301.023775 
L 70.309755 299.52 
L 69.143273 298.467881 
L 67.387002 296.832 
L 66.257455 295.745479 
L 64.643012 294.144 
L 63.371636 292.839848 
L 62.06156 291.456 
L 60.485818 289.732634 
L 59.628043 288.768 
L 57.6 286.403922 
" style="fill:none;stroke:#003fe0;stroke-width:1.5;"/>
    <path clip-path="url(#p2257ff29f7)" d="M 343.296 286.403922 
L 341.267957 288.768 
L 340.410182 289.732634 
L 338.83444 291.456 
L 337.524364 292.839848 
L 336.252988 294.144 
L 334.638545 295.745479 
L 333.508998 296.832 
L 331.752727 298.467881 
L 330.586245 299.52 
L 328.866909 301.023775 
L 327.466781 302.208 
L 325.981091 303.428273 
L 324.130897 304.896 
L 323.095273 305.694976 
L 320.557215 307.584 
" style="fill:none;stroke:#003fe0;stroke-width:1.5;"/>
    <path clip-path="url(#p2257ff29f7)" d="M 57.6 62.652078 
L 59.628043 60.288 
L 60.485818 59.323366 
L 62.06156 57.6 
L 63.371636 56.216152 
L 64.643012 54.912 
L 66.257455 53.310521 
L 67.387002 52.224 
L 69.143273 50.588119 
L 70.309755 49.536 
L 72.029091 48.032225 
L 73.429219 46.848 
L 74.914909 45.627727 
L 76.765103 44.16 
L 77.800727 43.361024 
L 80.338785 41.472 
" style="fill:none;stroke:#003fe0;stroke-width:1.5;"/>
    <path clip-path="url(#p2257ff29f7)" d="M 320.557215 41.472 
L 323.095273 43.361024 
L 324.130897 44.16 
L 325.981091 45.627727 
L 327.466781 46.848 
L 328.866909 48.032225 
L 330.586245 49.536 
L 331.752727 50.588119 
L 333.508998 52.224 
L 334.638545 53.310521 
L 336.252988 54.912 
L 337.524364 56.216152 
L 338.83444 57.6 
L 340.410182 59.323366 
L 341.267957 60.288 
L 343.296 62.652078 
" style="fill:none;stroke:#003fe0;stroke-width:1.5;"/>
   </g>
   <g id="LineCollection_8">
    <path clip-path="url(#p2257ff29f7)" d="M 67.536105 307.584 
L 66.257455 306.481362 
L 64.467886 304.896 
L 63.371636 303.900811 
L 61.554246 302.208 
L 60.485818 301.186897 
L 58.783785 299.52 
L 57.6 298.328999 
" style="fill:none;stroke:#001ff0;stroke-width:1.5;"/>
    <path clip-path="url(#p2257ff29f7)" d="M 343.296 298.328999 
L 342.112215 299.52 
L 340.410182 301.186897 
L 339.341754 302.208 
L 337.524364 303.900811 
L 336.428114 304.896 
L 334.638545 306.481362 
L 333.359895 307.584 
" style="fill:none;stroke:#001ff0;stroke-width:1.5;"/>
    <path clip-path="url(#p2257ff29f7)" d="M 57.6 50.727001 
L 58.783785 49.536 
L 60.485818 47.869103 
L 61.554246 46.848 
L 63.371636 45.155189 
L 64.467886 44.16 
L 66.257455 42.574638 
L 67.536105 41.472 
" style="fill:none;stroke:#001ff0;stroke-width:1.5;"/>
    <path clip-path="url(#p2257ff29f7)" d="M 333.359895 41.472 
L 334.638545 42.574638 
L 336.428114 44.16 
L 337.524364 45.155189 
L 339.341754 46.848 
L 340.410182 47.869103 
L 342.112215 49.536 
L 343.296 50.727001 
" style="fill:none;stroke:#001ff0;stroke-width:1.5;"/>
   </g>
   <g id="LineCollection_9"/>
   <g id="patch_3">
    <path d="M 57.6 307.584 
L 57.6 41.472 
" style="fill:none;stroke:#000000;stroke-linecap:square;stroke-linejoin:miter;stroke-width:0.8;"/>
   </g>
   <g id="patch_4">
    <path d="M 343.296 307.584 
L 343.296 41.472 
" style="fill:none;stroke:#000000;stroke-linecap:square;stroke-linejoin:miter;stroke-width:0.8;"/>
   </g>
   <g id="patch_5">
    <path d="M 57.6 307.584 
L 343.296 307.584 
" style="fill:none;stroke:#000000;stroke-linecap:square;stroke-linejoin:miter;stroke-width:0.8;"/>
   </g>
   <g id="patch_6">
    <path d="M 57.6 41.472 
L 343.296 41.472 
" style="fill:none;stroke:#000000;stroke-linecap:square;stroke-linejoin:miter;stroke-width:0.8;"/>
   </g>
  </g>
  <g id="axes_2">
   <g id="patch_7">
    <path clip-path="url(#p4b52be6527)" d="M 361.152 307.584 
L 361.152 274.32 
L 361.152 74.736 
L 361.152 41.472 
L 374.4576 41.472 
L 374.4576 74.736 
L 374.4576 274.32 
L 374.4576 307.584 
z
" style="fill:#ffffff;stroke:#ffffff;stroke-linejoin:miter;stroke-width:0.01;"/>
   </g>
   <g id="matplotlib.axis_3"/>
   <g id="matplotlib.axis_4">
    <g id="ytick_10">
     <g id="line2d_19">
      <defs>
       <path d="M 0 0 
L 3.5 0 
" id="mf3c65afc83" style="stroke:#000000;stroke-width:0.8;"/>
      </defs>
      <g>
       <use style="stroke:#000000;stroke-width:0.8;" x="374.4576" xlink:href="#mf3c65afc83" y="307.584"/>
      </g>
     </g>
     <g id="text_19">
      <!-- 0.00 -->
      <g transform="translate(381.4576 311.383219)scale(0.1 -0.1)">
       <use xlink:href="#DejaVuSans-48"/>
       <use x="63.623047" xlink:href="#DejaVuSans-46"/>
       <use x="95.410156" xlink:href="#DejaVuSans-48"/>
       <use x="159.033203" xlink:href="#DejaVuSans-48"/>
      </g>
     </g>
    </g>
    <g id="ytick_11">
     <g id="line2d_20">
      <g>
       <use style="stroke:#000000;stroke-width:0.8;" x="374.4576" xlink:href="#mf3c65afc83" y="274.32"/>
      </g>
     </g>
     <g id="text_20">
      <!-- 0.25 -->
      <g transform="translate(381.4576 278.119219)scale(0.1 -0.1)">
       <use xlink:href="#DejaVuSans-48"/>
       <use x="63.623047" xlink:href="#DejaVuSans-46"/>
       <use x="95.410156" xlink:href="#DejaVuSans-50"/>
       <use x="159.033203" xlink:href="#DejaVuSans-53"/>
      </g>
     </g>
    </g>
    <g id="ytick_12">
     <g id="line2d_21">
      <g>
       <use style="stroke:#000000;stroke-width:0.8;" x="374.4576" xlink:href="#mf3c65afc83" y="241.056"/>
      </g>
     </g>
     <g id="text_21">
      <!-- 0.50 -->
      <g transform="translate(381.4576 244.855219)scale(0.1 -0.1)">
       <use xlink:href="#DejaVuSans-48"/>
       <use x="63.623047" xlink:href="#DejaVuSans-46"/>
       <use x="95.410156" xlink:href="#DejaVuSans-53"/>
       <use x="159.033203" xlink:href="#DejaVuSans-48"/>
      </g>
     </g>
    </g>
    <g id="ytick_13">
     <g id="line2d_22">
      <g>
       <use style="stroke:#000000;stroke-width:0.8;" x="374.4576" xlink:href="#mf3c65afc83" y="207.792"/>
      </g>
     </g>
     <g id="text_22">
      <!-- 0.75 -->
      <g transform="translate(381.4576 211.591219)scale(0.1 -0.1)">
       <use xlink:href="#DejaVuSans-48"/>
       <use x="63.623047" xlink:href="#DejaVuSans-46"/>
       <use x="95.410156" xlink:href="#DejaVuSans-55"/>
       <use x="159.033203" xlink:href="#DejaVuSans-53"/>
      </g>
     </g>
    </g>
    <g id="ytick_14">
     <g id="line2d_23">
      <g>
       <use style="stroke:#000000;stroke-width:0.8;" x="374.4576" xlink:href="#mf3c65afc83" y="174.528"/>
      </g>
     </g>
     <g id="text_23">
      <!-- 1.00 -->
      <g transform="translate(381.4576 178.327219)scale(0.1 -0.1)">
       <use xlink:href="#DejaVuSans-49"/>
       <use x="63.623047" xlink:href="#DejaVuSans-46"/>
       <use x="95.410156" xlink:href="#DejaVuSans-48"/>
       <use x="159.033203" xlink:href="#DejaVuSans-48"/>
      </g>
     </g>
    </g>
    <g id="ytick_15">
     <g id="line2d_24">
      <g>
       <use style="stroke:#000000;stroke-width:0.8;" x="374.4576" xlink:href="#mf3c65afc83" y="141.264"/>
      </g>
     </g>
     <g id="text_24">
      <!-- 1.25 -->
      <g transform="translate(381.4576 145.063219)scale(0.1 -0.1)">
       <use xlink:href="#DejaVuSans-49"/>
       <use x="63.623047" xlink:href="#DejaVuSans-46"/>
       <use x="95.410156" xlink:href="#DejaVuSans-50"/>
       <use x="159.033203" xlink:href="#DejaVuSans-53"/>
      </g>
     </g>
    </g>
    <g id="ytick_16">
     <g id="line2d_25">
      <g>
       <use style="stroke:#000000;stroke-width:0.8;" x="374.4576" xlink:href="#mf3c65afc83" y="108"/>
      </g>
     </g>
     <g id="text_25">
      <!-- 1.50 -->
      <g transform="translate(381.4576 111.799219)scale(0.1 -0.1)">
       <use xlink:href="#DejaVuSans-49"/>
       <use x="63.623047" xlink:href="#DejaVuSans-46"/>
       <use x="95.410156" xlink:href="#DejaVuSans-53"/>
       <use x="159.033203" xlink:href="#DejaVuSans-48"/>
      </g>
     </g>
    </g>
    <g id="ytick_17">
     <g id="line2d_26">
      <g>
       <use style="stroke:#000000;stroke-width:0.8;" x="374.4576" xlink:href="#mf3c65afc83" y="74.736"/>
      </g>
     </g>
     <g id="text_26">
      <!-- 1.75 -->
      <g transform="translate(381.4576 78.535219)scale(0.1 -0.1)">
       <use xlink:href="#DejaVuSans-49"/>
       <use x="63.623047" xlink:href="#DejaVuSans-46"/>
       <use x="95.410156" xlink:href="#DejaVuSans-55"/>
       <use x="159.033203" xlink:href="#DejaVuSans-53"/>
      </g>
     </g>
    </g>
    <g id="ytick_18">
     <g id="line2d_27">
      <g>
       <use style="stroke:#000000;stroke-width:0.8;" x="374.4576" xlink:href="#mf3c65afc83" y="41.472"/>
      </g>
     </g>
     <g id="text_27">
      <!-- 2.00 -->
      <g transform="translate(381.4576 45.271219)scale(0.1 -0.1)">
       <use xlink:href="#DejaVuSans-50"/>
       <use x="63.623047" xlink:href="#DejaVuSans-46"/>
       <use x="95.410156" xlink:href="#DejaVuSans-48"/>
       <use x="159.033203" xlink:href="#DejaVuSans-48"/>
      </g>
     </g>
    </g>
   </g>
   <g id="LineCollection_10">
    <path clip-path="url(#p4b52be6527)" d="M 361.152 307.584 
L 374.4576 307.584 
" style="fill:none;stroke:#00ff80;stroke-width:1.5;"/>
    <path clip-path="url(#p4b52be6527)" d="M 361.152 274.32 
L 374.4576 274.32 
" style="fill:none;stroke:#00df90;stroke-width:1.5;"/>
    <path clip-path="url(#p4b52be6527)" d="M 361.152 241.056 
L 374.4576 241.056 
" style="fill:none;stroke:#00bfa0;stroke-width:1.5;"/>
    <path clip-path="url(#p4b52be6527)" d="M 361.152 207.792 
L 374.4576 207.792 
" style="fill:none;stroke:#009fb0;stroke-width:1.5;"/>
    <path clip-path="url(#p4b52be6527)" d="M 361.152 174.528 
L 374.4576 174.528 
" style="fill:none;stroke:#007fc0;stroke-width:1.5;"/>
    <path clip-path="url(#p4b52be6527)" d="M 361.152 141.264 
L 374.4576 141.264 
" style="fill:none;stroke:#005fd0;stroke-width:1.5;"/>
    <path clip-path="url(#p4b52be6527)" d="M 361.152 108 
L 374.4576 108 
" style="fill:none;stroke:#003fe0;stroke-width:1.5;"/>
    <path clip-path="url(#p4b52be6527)" d="M 361.152 74.736 
L 374.4576 74.736 
" style="fill:none;stroke:#001ff0;stroke-width:1.5;"/>
    <path clip-path="url(#p4b52be6527)" d="M 361.152 41.472 
L 374.4576 41.472 
" style="fill:none;stroke:#0000ff;stroke-width:1.5;"/>
   </g>
   <g id="patch_8">
    <path d="M 361.152 307.584 
L 361.152 274.32 
L 361.152 74.736 
L 361.152 41.472 
L 374.4576 41.472 
L 374.4576 74.736 
L 374.4576 274.32 
L 374.4576 307.584 
z
" style="fill:none;stroke:#000000;stroke-linejoin:miter;stroke-width:0.8;"/>
   </g>
  </g>
 </g>
 <defs>
  <clipPath id="p2257ff29f7">
   <rect height="266.112" width="285.696" x="57.6" y="41.472"/>
  </clipPath>
  <clipPath id="p4b52be6527">
   <rect height="266.112" width="13.3056" x="361.152" y="41.472"/>
  </clipPath>
 </defs>
</svg>
