<?xml version="1.0" encoding="utf-8" standalone="no"?>
<!DOCTYPE svg PUBLIC "-//W3C//DTD SVG 1.1//EN"
  "http://www.w3.org/Graphics/SVG/1.1/DTD/svg11.dtd">
<!-- Created with matplotlib (https://matplotlib.org/) -->
<svg height="345.6pt" version="1.1" viewBox="0 0 460.8 345.6" width="460.8pt" xmlns="http://www.w3.org/2000/svg" xmlns:xlink="http://www.w3.org/1999/xlink">
 <defs>
  <style type="text/css">
*{stroke-linecap:butt;stroke-linejoin:round;}
  </style>
 </defs>
 <g id="figure_1">
  <g id="patch_1">
   <path d="M 0 345.6 
L 460.8 345.6 
L 460.8 0 
L 0 0 
z
" style="fill:#ffffff;"/>
  </g>
  <g id="axes_1">
   <g id="patch_2">
    <path d="M 57.6 307.584 
L 343.296 307.584 
L 343.296 41.472 
L 57.6 41.472 
z
" style="fill:#ffffff;"/>
   </g>
   <g id="matplotlib.axis_1">
    <g id="xtick_1">
     <g id="line2d_1">
      <defs>
       <path d="M 0 0 
L 0 3.5 
" id="mf261cc2fa3" style="stroke:#000000;stroke-width:0.8;"/>
      </defs>
      <g>
       <use style="stroke:#000000;stroke-width:0.8;" x="86.1696" xlink:href="#mf261cc2fa3" y="307.584"/>
      </g>
     </g>
     <g id="text_1">
      <!-- −14 -->
      <defs>
       <path d="M 10.59375 35.5 
L 73.1875 35.5 
L 73.1875 27.203125 
L 10.59375 27.203125 
z
" id="DejaVuSans-8722"/>
       <path d="M 12.40625 8.296875 
L 28.515625 8.296875 
L 28.515625 63.921875 
L 10.984375 60.40625 
L 10.984375 69.390625 
L 28.421875 72.90625 
L 38.28125 72.90625 
L 38.28125 8.296875 
L 54.390625 8.296875 
L 54.390625 0 
L 12.40625 0 
z
" id="DejaVuSans-49"/>
       <path d="M 37.796875 64.3125 
L 12.890625 25.390625 
L 37.796875 25.390625 
z
M 35.203125 72.90625 
L 47.609375 72.90625 
L 47.609375 25.390625 
L 58.015625 25.390625 
L 58.015625 17.1875 
L 47.609375 17.1875 
L 47.609375 0 
L 37.796875 0 
L 37.796875 17.1875 
L 4.890625 17.1875 
L 4.890625 26.703125 
z
" id="DejaVuSans-52"/>
      </defs>
      <g transform="translate(75.617256 322.182437)scale(0.1 -0.1)">
       <use xlink:href="#DejaVuSans-8722"/>
       <use x="83.789062" xlink:href="#DejaVuSans-49"/>
       <use x="147.412109" xlink:href="#DejaVuSans-52"/>
      </g>
     </g>
    </g>
    <g id="xtick_2">
     <g id="line2d_2">
      <g>
       <use style="stroke:#000000;stroke-width:0.8;" x="143.3088" xlink:href="#mf261cc2fa3" y="307.584"/>
      </g>
     </g>
     <g id="text_2">
      <!-- −12 -->
      <defs>
       <path d="M 19.1875 8.296875 
L 53.609375 8.296875 
L 53.609375 0 
L 7.328125 0 
L 7.328125 8.296875 
Q 12.9375 14.109375 22.625 23.890625 
Q 32.328125 33.6875 34.8125 36.53125 
Q 39.546875 41.84375 41.421875 45.53125 
Q 43.3125 49.21875 43.3125 52.78125 
Q 43.3125 58.59375 39.234375 62.25 
Q 35.15625 65.921875 28.609375 65.921875 
Q 23.96875 65.921875 18.8125 64.3125 
Q 13.671875 62.703125 7.8125 59.421875 
L 7.8125 69.390625 
Q 13.765625 71.78125 18.9375 73 
Q 24.125 74.21875 28.421875 74.21875 
Q 39.75 74.21875 46.484375 68.546875 
Q 53.21875 62.890625 53.21875 53.421875 
Q 53.21875 48.921875 51.53125 44.890625 
Q 49.859375 40.875 45.40625 35.40625 
Q 44.1875 33.984375 37.640625 27.21875 
Q 31.109375 20.453125 19.1875 8.296875 
z
" id="DejaVuSans-50"/>
      </defs>
      <g transform="translate(132.756456 322.182437)scale(0.1 -0.1)">
       <use xlink:href="#DejaVuSans-8722"/>
       <use x="83.789062" xlink:href="#DejaVuSans-49"/>
       <use x="147.412109" xlink:href="#DejaVuSans-50"/>
      </g>
     </g>
    </g>
    <g id="xtick_3">
     <g id="line2d_3">
      <g>
       <use style="stroke:#000000;stroke-width:0.8;" x="200.448" xlink:href="#mf261cc2fa3" y="307.584"/>
      </g>
     </g>
     <g id="text_3">
      <!-- −10 -->
      <defs>
       <path d="M 31.78125 66.40625 
Q 24.171875 66.40625 20.328125 58.90625 
Q 16.5 51.421875 16.5 36.375 
Q 16.5 21.390625 20.328125 13.890625 
Q 24.171875 6.390625 31.78125 6.390625 
Q 39.453125 6.390625 43.28125 13.890625 
Q 47.125 21.390625 47.125 36.375 
Q 47.125 51.421875 43.28125 58.90625 
Q 39.453125 66.40625 31.78125 66.40625 
z
M 31.78125 74.21875 
Q 44.046875 74.21875 50.515625 64.515625 
Q 56.984375 54.828125 56.984375 36.375 
Q 56.984375 17.96875 50.515625 8.265625 
Q 44.046875 -1.421875 31.78125 -1.421875 
Q 19.53125 -1.421875 13.0625 8.265625 
Q 6.59375 17.96875 6.59375 36.375 
Q 6.59375 54.828125 13.0625 64.515625 
Q 19.53125 74.21875 31.78125 74.21875 
z
" id="DejaVuSans-48"/>
      </defs>
      <g transform="translate(189.895656 322.182437)scale(0.1 -0.1)">
       <use xlink:href="#DejaVuSans-8722"/>
       <use x="83.789062" xlink:href="#DejaVuSans-49"/>
       <use x="147.412109" xlink:href="#DejaVuSans-48"/>
      </g>
     </g>
    </g>
    <g id="xtick_4">
     <g id="line2d_4">
      <g>
       <use style="stroke:#000000;stroke-width:0.8;" x="257.5872" xlink:href="#mf261cc2fa3" y="307.584"/>
      </g>
     </g>
     <g id="text_4">
      <!-- −8 -->
      <defs>
       <path d="M 31.78125 34.625 
Q 24.75 34.625 20.71875 30.859375 
Q 16.703125 27.09375 16.703125 20.515625 
Q 16.703125 13.921875 20.71875 10.15625 
Q 24.75 6.390625 31.78125 6.390625 
Q 38.8125 6.390625 42.859375 10.171875 
Q 46.921875 13.96875 46.921875 20.515625 
Q 46.921875 27.09375 42.890625 30.859375 
Q 38.875 34.625 31.78125 34.625 
z
M 21.921875 38.8125 
Q 15.578125 40.375 12.03125 44.71875 
Q 8.5 49.078125 8.5 55.328125 
Q 8.5 64.0625 14.71875 69.140625 
Q 20.953125 74.21875 31.78125 74.21875 
Q 42.671875 74.21875 48.875 69.140625 
Q 55.078125 64.0625 55.078125 55.328125 
Q 55.078125 49.078125 51.53125 44.71875 
Q 48 40.375 41.703125 38.8125 
Q 48.828125 37.15625 52.796875 32.3125 
Q 56.78125 27.484375 56.78125 20.515625 
Q 56.78125 9.90625 50.3125 4.234375 
Q 43.84375 -1.421875 31.78125 -1.421875 
Q 19.734375 -1.421875 13.25 4.234375 
Q 6.78125 9.90625 6.78125 20.515625 
Q 6.78125 27.484375 10.78125 32.3125 
Q 14.796875 37.15625 21.921875 38.8125 
z
M 18.3125 54.390625 
Q 18.3125 48.734375 21.84375 45.5625 
Q 25.390625 42.390625 31.78125 42.390625 
Q 38.140625 42.390625 41.71875 45.5625 
Q 45.3125 48.734375 45.3125 54.390625 
Q 45.3125 60.0625 41.71875 63.234375 
Q 38.140625 66.40625 31.78125 66.40625 
Q 25.390625 66.40625 21.84375 63.234375 
Q 18.3125 60.0625 18.3125 54.390625 
z
" id="DejaVuSans-56"/>
      </defs>
      <g transform="translate(250.216106 322.182437)scale(0.1 -0.1)">
       <use xlink:href="#DejaVuSans-8722"/>
       <use x="83.789062" xlink:href="#DejaVuSans-56"/>
      </g>
     </g>
    </g>
    <g id="xtick_5">
     <g id="line2d_5">
      <g>
       <use style="stroke:#000000;stroke-width:0.8;" x="314.7264" xlink:href="#mf261cc2fa3" y="307.584"/>
      </g>
     </g>
     <g id="text_5">
      <!-- −6 -->
      <defs>
       <path d="M 33.015625 40.375 
Q 26.375 40.375 22.484375 35.828125 
Q 18.609375 31.296875 18.609375 23.390625 
Q 18.609375 15.53125 22.484375 10.953125 
Q 26.375 6.390625 33.015625 6.390625 
Q 39.65625 6.390625 43.53125 10.953125 
Q 47.40625 15.53125 47.40625 23.390625 
Q 47.40625 31.296875 43.53125 35.828125 
Q 39.65625 40.375 33.015625 40.375 
z
M 52.59375 71.296875 
L 52.59375 62.3125 
Q 48.875 64.0625 45.09375 64.984375 
Q 41.3125 65.921875 37.59375 65.921875 
Q 27.828125 65.921875 22.671875 59.328125 
Q 17.53125 52.734375 16.796875 39.40625 
Q 19.671875 43.65625 24.015625 45.921875 
Q 28.375 48.1875 33.59375 48.1875 
Q 44.578125 48.1875 50.953125 41.515625 
Q 57.328125 34.859375 57.328125 23.390625 
Q 57.328125 12.15625 50.6875 5.359375 
Q 44.046875 -1.421875 33.015625 -1.421875 
Q 20.359375 -1.421875 13.671875 8.265625 
Q 6.984375 17.96875 6.984375 36.375 
Q 6.984375 53.65625 15.1875 63.9375 
Q 23.390625 74.21875 37.203125 74.21875 
Q 40.921875 74.21875 44.703125 73.484375 
Q 48.484375 72.75 52.59375 71.296875 
z
" id="DejaVuSans-54"/>
      </defs>
      <g transform="translate(307.355306 322.182437)scale(0.1 -0.1)">
       <use xlink:href="#DejaVuSans-8722"/>
       <use x="83.789062" xlink:href="#DejaVuSans-54"/>
      </g>
     </g>
    </g>
   </g>
   <g id="matplotlib.axis_2">
    <g id="ytick_1">
     <g id="line2d_6">
      <defs>
       <path d="M 0 0 
L -3.5 0 
" id="m4eab1f07eb" style="stroke:#000000;stroke-width:0.8;"/>
      </defs>
      <g>
       <use style="stroke:#000000;stroke-width:0.8;" x="57.6" xlink:href="#m4eab1f07eb" y="307.584"/>
      </g>
     </g>
     <g id="text_6">
      <!-- −3 -->
      <defs>
       <path d="M 40.578125 39.3125 
Q 47.65625 37.796875 51.625 33 
Q 55.609375 28.21875 55.609375 21.1875 
Q 55.609375 10.40625 48.1875 4.484375 
Q 40.765625 -1.421875 27.09375 -1.421875 
Q 22.515625 -1.421875 17.65625 -0.515625 
Q 12.796875 0.390625 7.625 2.203125 
L 7.625 11.71875 
Q 11.71875 9.328125 16.59375 8.109375 
Q 21.484375 6.890625 26.8125 6.890625 
Q 36.078125 6.890625 40.9375 10.546875 
Q 45.796875 14.203125 45.796875 21.1875 
Q 45.796875 27.640625 41.28125 31.265625 
Q 36.765625 34.90625 28.71875 34.90625 
L 20.21875 34.90625 
L 20.21875 43.015625 
L 29.109375 43.015625 
Q 36.375 43.015625 40.234375 45.921875 
Q 44.09375 48.828125 44.09375 54.296875 
Q 44.09375 59.90625 40.109375 62.90625 
Q 36.140625 65.921875 28.71875 65.921875 
Q 24.65625 65.921875 20.015625 65.03125 
Q 15.375 64.15625 9.8125 62.3125 
L 9.8125 71.09375 
Q 15.4375 72.65625 20.34375 73.4375 
Q 25.25 74.21875 29.59375 74.21875 
Q 40.828125 74.21875 47.359375 69.109375 
Q 53.90625 64.015625 53.90625 55.328125 
Q 53.90625 49.265625 50.4375 45.09375 
Q 46.96875 40.921875 40.578125 39.3125 
z
" id="DejaVuSans-51"/>
      </defs>
      <g transform="translate(35.857813 311.383219)scale(0.1 -0.1)">
       <use xlink:href="#DejaVuSans-8722"/>
       <use x="83.789062" xlink:href="#DejaVuSans-51"/>
      </g>
     </g>
    </g>
    <g id="ytick_2">
     <g id="line2d_7">
      <g>
       <use style="stroke:#000000;stroke-width:0.8;" x="57.6" xlink:href="#m4eab1f07eb" y="263.232"/>
      </g>
     </g>
     <g id="text_7">
      <!-- −2 -->
      <g transform="translate(35.857813 267.031219)scale(0.1 -0.1)">
       <use xlink:href="#DejaVuSans-8722"/>
       <use x="83.789062" xlink:href="#DejaVuSans-50"/>
      </g>
     </g>
    </g>
    <g id="ytick_3">
     <g id="line2d_8">
      <g>
       <use style="stroke:#000000;stroke-width:0.8;" x="57.6" xlink:href="#m4eab1f07eb" y="218.88"/>
      </g>
     </g>
     <g id="text_8">
      <!-- −1 -->
      <g transform="translate(35.857813 222.679219)scale(0.1 -0.1)">
       <use xlink:href="#DejaVuSans-8722"/>
       <use x="83.789062" xlink:href="#DejaVuSans-49"/>
      </g>
     </g>
    </g>
    <g id="ytick_4">
     <g id="line2d_9">
      <g>
       <use style="stroke:#000000;stroke-width:0.8;" x="57.6" xlink:href="#m4eab1f07eb" y="174.528"/>
      </g>
     </g>
     <g id="text_9">
      <!-- 0 -->
      <g transform="translate(44.2375 178.327219)scale(0.1 -0.1)">
       <use xlink:href="#DejaVuSans-48"/>
      </g>
     </g>
    </g>
    <g id="ytick_5">
     <g id="line2d_10">
      <g>
       <use style="stroke:#000000;stroke-width:0.8;" x="57.6" xlink:href="#m4eab1f07eb" y="130.176"/>
      </g>
     </g>
     <g id="text_10">
      <!-- 1 -->
      <g transform="translate(44.2375 133.975219)scale(0.1 -0.1)">
       <use xlink:href="#DejaVuSans-49"/>
      </g>
     </g>
    </g>
    <g id="ytick_6">
     <g id="line2d_11">
      <g>
       <use style="stroke:#000000;stroke-width:0.8;" x="57.6" xlink:href="#m4eab1f07eb" y="85.824"/>
      </g>
     </g>
     <g id="text_11">
      <!-- 2 -->
      <g transform="translate(44.2375 89.623219)scale(0.1 -0.1)">
       <use xlink:href="#DejaVuSans-50"/>
      </g>
     </g>
    </g>
    <g id="ytick_7">
     <g id="line2d_12">
      <g>
       <use style="stroke:#000000;stroke-width:0.8;" x="57.6" xlink:href="#m4eab1f07eb" y="41.472"/>
      </g>
     </g>
     <g id="text_12">
      <!-- 3 -->
      <g transform="translate(44.2375 45.271219)scale(0.1 -0.1)">
       <use xlink:href="#DejaVuSans-51"/>
      </g>
     </g>
    </g>
   </g>
   <g id="LineCollection_1"/>
   <g id="LineCollection_2">
    <path clip-path="url(#pfd80897b17)" d="M 343.296 167.485008 
L 337.524364 166.621419 
L 317.323636 163.094608 
L 314.128222 162.432 
L 308.666182 161.508762 
L 302.894545 160.328433 
L 300.008727 159.696642 
L 294.237091 158.616031 
L 276.922182 154.774212 
L 274.036364 154.120583 
L 268.264727 152.823855 
L 262.493091 151.394701 
L 256.721455 150.012563 
L 253.030491 148.992 
L 248.064 147.831824 
L 216.32 139.040968 
L 213.434182 138.133262 
L 210.548364 137.360564 
L 190.347636 131.065513 
L 187.461818 130.069262 
L 184.576 129.21663 
L 158.603636 120.310397 
L 155.717818 119.232403 
L 152.832 118.263824 
L 147.060364 116.135845 
L 135.517091 111.757286 
L 134.558279 111.36 
L 132.631273 110.708188 
L 115.316364 103.852207 
L 114.045242 103.296 
L 112.430545 102.718013 
L 103.773091 99.174637 
L 100.887273 97.872642 
L 98.001455 96.763958 
L 94.634861 95.232 
L 92.229818 94.308762 
L 82.171223 89.856 
L 80.686545 89.275377 
L 66.257455 82.805027 
L 63.371636 81.453691 
L 57.6 78.781008 
L 57.6 78.781008 
" style="fill:none;stroke:#00df90;stroke-width:1.5;"/>
    <path clip-path="url(#pfd80897b17)" d="M 57.6 70.719257 
L 58.247253 71.04 
L 60.485818 71.981503 
L 64.06973 73.728 
L 66.257455 74.633672 
L 69.97687 76.416 
L 72.029091 77.251082 
L 77.800727 79.834898 
L 88.218602 84.48 
L 92.229818 86.130814 
L 95.115636 87.408247 
L 98.001455 88.571383 
L 100.887273 89.887126 
L 103.773091 90.98196 
L 107.303864 92.544 
L 109.544727 93.367129 
L 115.316364 95.733271 
L 135.517091 103.66626 
L 138.402909 104.723755 
L 141.470324 105.984 
L 144.174545 106.88285 
L 149.946182 109.04908 
L 152.832 110.060879 
L 156.150105 111.36 
L 158.603636 112.135579 
L 171.524806 116.736 
L 175.918545 118.132081 
L 179.471896 119.424 
L 184.576 121.018004 
L 187.625154 122.112 
L 190.347636 122.884852 
L 204.776727 127.512111 
L 210.548364 129.16782 
L 213.612252 130.176 
L 219.205818 131.713091 
L 222.862793 132.864 
L 227.863273 134.176423 
L 233.634909 135.833089 
L 239.406545 137.370379 
L 242.336844 138.24 
L 248.064 139.628879 
L 253.835636 141.164217 
L 259.607273 142.554885 
L 265.378909 143.98626 
L 271.150545 145.330656 
L 274.967172 146.304 
L 279.808 147.293455 
L 291.351273 149.815129 
L 305.780364 152.752459 
L 317.323636 154.96299 
L 325.981091 156.551515 
L 328.866909 157.096458 
L 337.524364 158.434531 
L 343.296 159.423257 
L 343.296 159.423257 
" style="fill:none;stroke:#00df90;stroke-width:1.5;"/>
   </g>
   <g id="LineCollection_3">
    <path clip-path="url(#pfd80897b17)" d="M 343.296 179.403789 
L 325.981091 176.553018 
L 305.780364 172.812712 
L 297.122909 171.080661 
L 274.036364 166.05958 
L 253.835636 161.188329 
L 236.520727 156.644529 
L 224.977455 153.453313 
L 210.548364 149.229951 
L 187.461818 142.04375 
L 164.375273 134.257274 
L 144.174545 126.958398 
L 132.631273 122.59075 
L 106.658909 112.249846 
L 80.686545 101.160434 
L 57.6 90.699789 
L 57.6 90.699789 
" style="fill:none;stroke:#00bfa0;stroke-width:1.5;"/>
    <path clip-path="url(#pfd80897b17)" d="M 57.6 58.767725 
L 66.683718 62.976 
L 92.229818 74.247168 
L 110.241309 81.792 
L 137.566844 92.544 
L 161.489455 101.273773 
L 175.918545 106.259721 
L 199.005091 113.74994 
L 208.712713 116.736 
L 230.749091 123.097132 
L 246.988837 127.488 
L 268.629827 132.864 
L 292.689302 138.24 
L 311.552 141.990847 
L 325.981091 144.618668 
L 340.410182 147.023686 
L 343.296 147.471725 
L 343.296 147.471725 
" style="fill:none;stroke:#00bfa0;stroke-width:1.5;"/>
   </g>
   <g id="LineCollection_4">
    <path clip-path="url(#pfd80897b17)" d="M 343.296 199.335335 
L 328.866909 196.982574 
L 315.989902 194.688 
L 305.780364 192.756942 
L 288.465455 189.197046 
L 276.826005 186.624 
L 265.311975 183.936 
L 253.835636 181.115869 
L 242.292364 178.136842 
L 227.863273 174.208815 
L 210.548364 169.191437 
L 193.233455 163.843384 
L 175.918545 158.16342 
L 157.296148 151.68 
L 147.060364 147.973382 
L 132.631273 142.539272 
L 115.316364 135.709928 
L 95.115636 127.341606 
L 83.00866 122.112 
L 70.925076 116.736 
L 60.485818 111.970151 
L 57.6 110.631335 
L 57.6 110.631335 
" style="fill:none;stroke:#009fb0;stroke-width:1.5;"/>
    <path clip-path="url(#pfd80897b17)" d="M 63.270391 41.472 
L 81.212829 49.536 
L 100.887273 57.974314 
L 118.202182 65.053567 
L 129.745455 69.589816 
L 141.288727 73.993061 
L 158.603636 80.306653 
L 173.032727 85.327129 
L 187.461818 90.126185 
L 204.776727 95.580077 
L 222.091636 100.720297 
L 241.100199 105.984 
L 256.721455 110.005297 
L 271.150545 113.498344 
L 282.693818 116.125567 
L 294.237091 118.606792 
L 305.780364 120.943233 
L 320.209455 123.662507 
L 334.638545 126.155062 
L 343.296 127.553544 
L 343.296 127.553544 
" style="fill:none;stroke:#009fb0;stroke-width:1.5;"/>
   </g>
   <g id="LineCollection_5">
    <path clip-path="url(#pfd80897b17)" d="M 343.296 227.256531 
L 328.866909 224.911072 
L 314.437818 222.337623 
L 300.008727 219.536779 
L 282.693818 215.875591 
L 268.264727 212.580967 
L 253.835636 209.056579 
L 236.520727 204.528752 
L 222.091636 200.50409 
L 204.776727 195.38044 
L 187.461818 189.919296 
L 169.598847 183.936 
L 158.603636 180.090812 
L 144.174545 174.835922 
L 129.745455 169.355192 
L 115.316364 163.648061 
L 98.001455 156.498477 
L 83.572364 150.295861 
L 66.257455 142.550967 
L 57.6 138.552531 
L 57.6 138.552531 
" style="fill:none;stroke:#007fc0;stroke-width:1.5;"/>
    <path clip-path="url(#pfd80897b17)" d="M 129.24492 41.472 
L 129.745455 41.665254 
L 132.631273 42.772243 
L 135.517091 43.879802 
L 136.251676 44.16 
L 138.402909 44.970428 
L 141.288727 46.055591 
L 143.400846 46.848 
L 144.174545 47.134617 
L 147.060364 48.19717 
L 149.946182 49.259508 
L 150.702194 49.536 
L 152.832 50.305029 
L 155.717818 51.344409 
L 158.164794 52.224 
L 158.603636 52.379702 
L 161.489455 53.395932 
L 164.375273 54.411256 
L 165.805913 54.912 
L 167.261091 55.414661 
L 170.146909 56.406533 
L 173.032727 57.396989 
L 173.62882 57.6 
L 175.918545 58.369477 
L 178.804364 59.336208 
L 181.651429 60.288 
L 181.690182 60.30078 
L 184.576 61.243624 
L 187.461818 62.184496 
L 189.898244 62.976 
L 190.347636 63.119987 
L 193.233455 64.036738 
L 196.119273 64.951093 
L 198.379453 65.664 
L 199.005091 65.858592 
L 201.890909 66.749689 
L 204.776727 67.639093 
L 207.100959 68.352 
L 207.662545 68.52182 
L 210.548364 69.386719 
L 213.434182 70.248496 
L 216.096604 71.04 
L 216.32 71.105459 
L 219.205818 71.942564 
L 222.091636 72.776208 
L 224.977455 73.606108 
L 225.405637 73.728 
L 227.863273 74.417479 
L 230.749091 75.222533 
L 233.634909 76.023544 
L 235.060809 76.416 
L 236.520727 76.811882 
L 239.406545 77.587932 
L 242.292364 78.359663 
L 245.092791 79.104 
L 245.178182 79.126354 
L 248.064 79.873029 
L 250.949818 80.615131 
L 253.835636 81.352426 
L 255.571829 81.792 
L 256.721455 82.078617 
L 259.607273 82.79078 
L 262.493091 83.497913 
L 265.378909 84.199802 
L 266.543623 84.48 
L 268.264727 84.88762 
L 271.150545 85.564339 
L 274.036364 86.23562 
L 276.922182 86.901264 
L 278.092271 87.168 
L 279.808 87.552937 
L 282.693818 88.193413 
L 285.579636 88.828083 
L 288.465455 89.456767 
L 290.319316 89.856 
L 291.351273 90.07465 
L 294.237091 90.678203 
L 297.122909 91.275626 
L 300.008727 91.866749 
L 302.894545 92.451411 
L 303.358478 92.544 
L 305.780364 93.019414 
L 308.666182 93.579063 
L 311.552 94.132137 
L 314.437818 94.678487 
L 317.323636 95.217969 
L 317.399978 95.232 
L 320.209455 95.739723 
L 323.095273 96.254366 
L 325.981091 96.762053 
L 328.866909 97.262653 
L 331.752727 97.756036 
L 332.72861 97.92 
L 334.638545 98.2354 
L 337.524364 98.70418 
L 340.410182 99.165682 
L 343.296 99.619787 
" style="fill:none;stroke:#007fc0;stroke-width:1.5;"/>
   </g>
   <g id="LineCollection_6">
    <path clip-path="url(#pfd80897b17)" d="M 343.296 263.169999 
L 328.866909 260.823414 
L 314.437818 258.250548 
L 300.008727 255.451793 
L 285.579636 252.426772 
L 271.150545 249.174341 
L 256.721455 245.693509 
L 242.292364 241.99344 
L 226.574242 237.696 
L 213.434182 233.906704 
L 199.005091 229.518935 
L 184.576 224.898991 
L 167.261091 219.051147 
L 149.946182 212.881867 
L 135.517091 207.490154 
L 121.088 201.872825 
L 106.658909 196.029054 
L 89.344 188.715857 
L 74.914909 182.375036 
L 57.6 174.465999 
L 57.6 174.465999 
" style="fill:none;stroke:#005fd0;stroke-width:1.5;"/>
    <path clip-path="url(#pfd80897b17)" d="M 238.662132 41.472 
L 239.406545 41.672154 
L 242.292364 42.439865 
L 245.178182 43.201501 
L 248.064 43.956925 
L 248.848438 44.16 
L 250.949818 44.698735 
L 253.835636 45.431578 
L 256.721455 46.158047 
L 259.487376 46.848 
L 259.607273 46.877613 
L 262.493091 47.581481 
L 265.378909 48.278825 
L 268.264727 48.969522 
L 270.656325 49.536 
L 271.150545 49.651886 
L 274.036364 50.319962 
L 276.922182 50.981258 
L 279.808 51.635662 
L 282.431296 52.224 
L 282.693818 52.282275 
L 285.579636 52.914065 
L 288.465455 53.538845 
L 291.351273 54.156512 
L 294.237091 54.766964 
L 294.932597 54.912 
L 297.122909 55.363998 
L 300.008727 55.951872 
L 302.894545 56.532433 
L 305.780364 57.105587 
L 308.303602 57.6 
L 308.666182 57.67029 
L 311.552 58.220941 
L 314.437818 58.764101 
L 317.323636 59.299683 
L 320.209455 59.827604 
L 322.764374 60.288 
L 323.095273 60.346981 
L 325.981091 60.852518 
L 328.866909 61.350326 
L 331.752727 61.840329 
L 334.638545 62.322449 
L 337.524364 62.796614 
L 338.636487 62.976 
L 340.410182 63.258924 
L 343.296 63.710897 
" style="fill:none;stroke:#005fd0;stroke-width:1.5;"/>
   </g>
   <g id="LineCollection_7">
    <path clip-path="url(#pfd80897b17)" d="M 343.296 307.062635 
L 328.866909 304.716379 
L 314.437818 302.144549 
L 300.008727 299.347424 
L 285.579636 296.324742 
L 271.150545 293.075703 
L 256.721455 289.598981 
L 242.292364 285.894475 
L 227.863273 281.967885 
L 213.434182 277.810481 
L 199.005091 273.429139 
L 184.576 268.8058 
L 170.146909 263.954882 
L 155.717818 258.877627 
L 141.288727 253.574748 
L 126.859636 248.04642 
L 112.430545 242.292277 
L 98.001455 236.311422 
L 80.686545 228.834574 
L 64.544048 221.568 
L 57.6 218.358635 
L 57.6 218.358635 
" style="fill:none;stroke:#003fe0;stroke-width:1.5;"/>
   </g>
   <g id="LineCollection_8">
    <path clip-path="url(#pfd80897b17)" d="M 146.993529 307.584 
L 144.174545 306.5411 
L 141.288727 305.46154 
L 139.791661 304.896 
L 138.402909 304.373522 
L 135.517091 303.277287 
L 132.732801 302.208 
L 132.631273 302.169167 
L 129.745455 301.056205 
L 126.859636 299.930987 
L 125.815077 299.52 
L 123.973818 298.798422 
L 121.088 297.656316 
L 119.025828 296.832 
L 118.202182 296.504056 
L 115.316364 295.344997 
L 112.430545 294.173419 
L 112.358643 294.144 
L 109.544727 292.997134 
L 106.658909 291.808422 
L 105.810556 291.456 
L 103.773091 290.612821 
L 100.887273 289.406896 
L 99.372202 288.768 
L 98.001455 288.192141 
L 95.115636 286.96892 
L 93.03857 286.08 
L 92.229818 285.735168 
L 89.344 284.494562 
L 86.80496 283.392 
L 86.458182 283.241968 
L 83.572364 281.983881 
L 80.686545 280.712655 
L 80.667038 280.704 
L 77.800727 279.436926 
L 74.914909 278.147999 
L 74.62153 278.016 
L 72.029091 276.853736 
L 69.143273 275.547 
L 68.663218 275.328 
L 66.257455 274.234341 
L 63.371636 272.909683 
L 62.788502 272.64 
L 60.485818 271.578759 
L 57.6 270.23606 
" style="fill:none;stroke:#001ff0;stroke-width:1.5;"/>
   </g>
   <g id="LineCollection_9"/>
   <g id="patch_3">
    <path d="M 57.6 307.584 
L 57.6 41.472 
" style="fill:none;stroke:#000000;stroke-linecap:square;stroke-linejoin:miter;stroke-width:0.8;"/>
   </g>
   <g id="patch_4">
    <path d="M 343.296 307.584 
L 343.296 41.472 
" style="fill:none;stroke:#000000;stroke-linecap:square;stroke-linejoin:miter;stroke-width:0.8;"/>
   </g>
   <g id="patch_5">
    <path d="M 57.6 307.584 
L 343.296 307.584 
" style="fill:none;stroke:#000000;stroke-linecap:square;stroke-linejoin:miter;stroke-width:0.8;"/>
   </g>
   <g id="patch_6">
    <path d="M 57.6 41.472 
L 343.296 41.472 
" style="fill:none;stroke:#000000;stroke-linecap:square;stroke-linejoin:miter;stroke-width:0.8;"/>
   </g>
  </g>
  <g id="axes_2">
   <g id="patch_7">
    <path clip-path="url(#p3e657958c9)" d="M 361.152 307.584 
L 361.152 274.32 
L 361.152 74.736 
L 361.152 41.472 
L 374.4576 41.472 
L 374.4576 74.736 
L 374.4576 274.32 
L 374.4576 307.584 
z
" style="fill:#ffffff;stroke:#ffffff;stroke-linejoin:miter;stroke-width:0.01;"/>
   </g>
   <g id="matplotlib.axis_3"/>
   <g id="matplotlib.axis_4">
    <g id="ytick_8">
     <g id="line2d_13">
      <defs>
       <path d="M 0 0 
L 3.5 0 
" id="m67ef2b2846" style="stroke:#000000;stroke-width:0.8;"/>
      </defs>
      <g>
       <use style="stroke:#000000;stroke-width:0.8;" x="374.4576" xlink:href="#m67ef2b2846" y="307.584"/>
      </g>
     </g>
     <g id="text_13">
      <!-- 0 -->
      <g transform="translate(381.4576 311.383219)scale(0.1 -0.1)">
       <use xlink:href="#DejaVuSans-48"/>
      </g>
     </g>
    </g>
    <g id="ytick_9">
     <g id="line2d_14">
      <g>
       <use style="stroke:#000000;stroke-width:0.8;" x="374.4576" xlink:href="#m67ef2b2846" y="274.32"/>
      </g>
     </g>
     <g id="text_14">
      <!-- 30 -->
      <g transform="translate(381.4576 278.119219)scale(0.1 -0.1)">
       <use xlink:href="#DejaVuSans-51"/>
       <use x="63.623047" xlink:href="#DejaVuSans-48"/>
      </g>
     </g>
    </g>
    <g id="ytick_10">
     <g id="line2d_15">
      <g>
       <use style="stroke:#000000;stroke-width:0.8;" x="374.4576" xlink:href="#m67ef2b2846" y="241.056"/>
      </g>
     </g>
     <g id="text_15">
      <!-- 60 -->
      <g transform="translate(381.4576 244.855219)scale(0.1 -0.1)">
       <use xlink:href="#DejaVuSans-54"/>
       <use x="63.623047" xlink:href="#DejaVuSans-48"/>
      </g>
     </g>
    </g>
    <g id="ytick_11">
     <g id="line2d_16">
      <g>
       <use style="stroke:#000000;stroke-width:0.8;" x="374.4576" xlink:href="#m67ef2b2846" y="207.792"/>
      </g>
     </g>
     <g id="text_16">
      <!-- 90 -->
      <defs>
       <path d="M 10.984375 1.515625 
L 10.984375 10.5 
Q 14.703125 8.734375 18.5 7.8125 
Q 22.3125 6.890625 25.984375 6.890625 
Q 35.75 6.890625 40.890625 13.453125 
Q 46.046875 20.015625 46.78125 33.40625 
Q 43.953125 29.203125 39.59375 26.953125 
Q 35.25 24.703125 29.984375 24.703125 
Q 19.046875 24.703125 12.671875 31.3125 
Q 6.296875 37.9375 6.296875 49.421875 
Q 6.296875 60.640625 12.9375 67.421875 
Q 19.578125 74.21875 30.609375 74.21875 
Q 43.265625 74.21875 49.921875 64.515625 
Q 56.59375 54.828125 56.59375 36.375 
Q 56.59375 19.140625 48.40625 8.859375 
Q 40.234375 -1.421875 26.421875 -1.421875 
Q 22.703125 -1.421875 18.890625 -0.6875 
Q 15.09375 0.046875 10.984375 1.515625 
z
M 30.609375 32.421875 
Q 37.25 32.421875 41.125 36.953125 
Q 45.015625 41.5 45.015625 49.421875 
Q 45.015625 57.28125 41.125 61.84375 
Q 37.25 66.40625 30.609375 66.40625 
Q 23.96875 66.40625 20.09375 61.84375 
Q 16.21875 57.28125 16.21875 49.421875 
Q 16.21875 41.5 20.09375 36.953125 
Q 23.96875 32.421875 30.609375 32.421875 
z
" id="DejaVuSans-57"/>
      </defs>
      <g transform="translate(381.4576 211.591219)scale(0.1 -0.1)">
       <use xlink:href="#DejaVuSans-57"/>
       <use x="63.623047" xlink:href="#DejaVuSans-48"/>
      </g>
     </g>
    </g>
    <g id="ytick_12">
     <g id="line2d_17">
      <g>
       <use style="stroke:#000000;stroke-width:0.8;" x="374.4576" xlink:href="#m67ef2b2846" y="174.528"/>
      </g>
     </g>
     <g id="text_17">
      <!-- 120 -->
      <g transform="translate(381.4576 178.327219)scale(0.1 -0.1)">
       <use xlink:href="#DejaVuSans-49"/>
       <use x="63.623047" xlink:href="#DejaVuSans-50"/>
       <use x="127.246094" xlink:href="#DejaVuSans-48"/>
      </g>
     </g>
    </g>
    <g id="ytick_13">
     <g id="line2d_18">
      <g>
       <use style="stroke:#000000;stroke-width:0.8;" x="374.4576" xlink:href="#m67ef2b2846" y="141.264"/>
      </g>
     </g>
     <g id="text_18">
      <!-- 150 -->
      <defs>
       <path d="M 10.796875 72.90625 
L 49.515625 72.90625 
L 49.515625 64.59375 
L 19.828125 64.59375 
L 19.828125 46.734375 
Q 21.96875 47.46875 24.109375 47.828125 
Q 26.265625 48.1875 28.421875 48.1875 
Q 40.625 48.1875 47.75 41.5 
Q 54.890625 34.8125 54.890625 23.390625 
Q 54.890625 11.625 47.5625 5.09375 
Q 40.234375 -1.421875 26.90625 -1.421875 
Q 22.3125 -1.421875 17.546875 -0.640625 
Q 12.796875 0.140625 7.71875 1.703125 
L 7.71875 11.625 
Q 12.109375 9.234375 16.796875 8.0625 
Q 21.484375 6.890625 26.703125 6.890625 
Q 35.15625 6.890625 40.078125 11.328125 
Q 45.015625 15.765625 45.015625 23.390625 
Q 45.015625 31 40.078125 35.4375 
Q 35.15625 39.890625 26.703125 39.890625 
Q 22.75 39.890625 18.8125 39.015625 
Q 14.890625 38.140625 10.796875 36.28125 
z
" id="DejaVuSans-53"/>
      </defs>
      <g transform="translate(381.4576 145.063219)scale(0.1 -0.1)">
       <use xlink:href="#DejaVuSans-49"/>
       <use x="63.623047" xlink:href="#DejaVuSans-53"/>
       <use x="127.246094" xlink:href="#DejaVuSans-48"/>
      </g>
     </g>
    </g>
    <g id="ytick_14">
     <g id="line2d_19">
      <g>
       <use style="stroke:#000000;stroke-width:0.8;" x="374.4576" xlink:href="#m67ef2b2846" y="108"/>
      </g>
     </g>
     <g id="text_19">
      <!-- 180 -->
      <g transform="translate(381.4576 111.799219)scale(0.1 -0.1)">
       <use xlink:href="#DejaVuSans-49"/>
       <use x="63.623047" xlink:href="#DejaVuSans-56"/>
       <use x="127.246094" xlink:href="#DejaVuSans-48"/>
      </g>
     </g>
    </g>
    <g id="ytick_15">
     <g id="line2d_20">
      <g>
       <use style="stroke:#000000;stroke-width:0.8;" x="374.4576" xlink:href="#m67ef2b2846" y="74.736"/>
      </g>
     </g>
     <g id="text_20">
      <!-- 210 -->
      <g transform="translate(381.4576 78.535219)scale(0.1 -0.1)">
       <use xlink:href="#DejaVuSans-50"/>
       <use x="63.623047" xlink:href="#DejaVuSans-49"/>
       <use x="127.246094" xlink:href="#DejaVuSans-48"/>
      </g>
     </g>
    </g>
    <g id="ytick_16">
     <g id="line2d_21">
      <g>
       <use style="stroke:#000000;stroke-width:0.8;" x="374.4576" xlink:href="#m67ef2b2846" y="41.472"/>
      </g>
     </g>
     <g id="text_21">
      <!-- 240 -->
      <g transform="translate(381.4576 45.271219)scale(0.1 -0.1)">
       <use xlink:href="#DejaVuSans-50"/>
       <use x="63.623047" xlink:href="#DejaVuSans-52"/>
       <use x="127.246094" xlink:href="#DejaVuSans-48"/>
      </g>
     </g>
    </g>
   </g>
   <g id="LineCollection_10">
    <path clip-path="url(#p3e657958c9)" d="M 361.152 307.584 
L 374.4576 307.584 
" style="fill:none;stroke:#00ff80;stroke-width:1.5;"/>
    <path clip-path="url(#p3e657958c9)" d="M 361.152 274.32 
L 374.4576 274.32 
" style="fill:none;stroke:#00df90;stroke-width:1.5;"/>
    <path clip-path="url(#p3e657958c9)" d="M 361.152 241.056 
L 374.4576 241.056 
" style="fill:none;stroke:#00bfa0;stroke-width:1.5;"/>
    <path clip-path="url(#p3e657958c9)" d="M 361.152 207.792 
L 374.4576 207.792 
" style="fill:none;stroke:#009fb0;stroke-width:1.5;"/>
    <path clip-path="url(#p3e657958c9)" d="M 361.152 174.528 
L 374.4576 174.528 
" style="fill:none;stroke:#007fc0;stroke-width:1.5;"/>
    <path clip-path="url(#p3e657958c9)" d="M 361.152 141.264 
L 374.4576 141.264 
" style="fill:none;stroke:#005fd0;stroke-width:1.5;"/>
    <path clip-path="url(#p3e657958c9)" d="M 361.152 108 
L 374.4576 108 
" style="fill:none;stroke:#003fe0;stroke-width:1.5;"/>
    <path clip-path="url(#p3e657958c9)" d="M 361.152 74.736 
L 374.4576 74.736 
" style="fill:none;stroke:#001ff0;stroke-width:1.5;"/>
    <path clip-path="url(#p3e657958c9)" d="M 361.152 41.472 
L 374.4576 41.472 
" style="fill:none;stroke:#0000ff;stroke-width:1.5;"/>
   </g>
   <g id="patch_8">
    <path d="M 361.152 307.584 
L 361.152 274.32 
L 361.152 74.736 
L 361.152 41.472 
L 374.4576 41.472 
L 374.4576 74.736 
L 374.4576 274.32 
L 374.4576 307.584 
z
" style="fill:none;stroke:#000000;stroke-linejoin:miter;stroke-width:0.8;"/>
   </g>
  </g>
 </g>
 <defs>
  <clipPath id="pfd80897b17">
   <rect height="266.112" width="285.696" x="57.6" y="41.472"/>
  </clipPath>
  <clipPath id="p3e657958c9">
   <rect height="266.112" width="13.3056" x="361.152" y="41.472"/>
  </clipPath>
 </defs>
</svg>
