<?xml version="1.0" encoding="utf-8" standalone="no"?>
<!DOCTYPE svg PUBLIC "-//W3C//DTD SVG 1.1//EN"
  "http://www.w3.org/Graphics/SVG/1.1/DTD/svg11.dtd">
<!-- Created with matplotlib (https://matplotlib.org/) -->
<svg height="345.6pt" version="1.1" viewBox="0 0 460.8 345.6" width="460.8pt" xmlns="http://www.w3.org/2000/svg" xmlns:xlink="http://www.w3.org/1999/xlink">
 <defs>
  <style type="text/css">
*{stroke-linecap:butt;stroke-linejoin:round;}
  </style>
 </defs>
 <g id="figure_1">
  <g id="patch_1">
   <path d="M 0 345.6 
L 460.8 345.6 
L 460.8 0 
L 0 0 
z
" style="fill:#ffffff;"/>
  </g>
  <g id="axes_1">
   <g id="patch_2">
    <path d="M 57.6 307.584 
L 343.296 307.584 
L 343.296 41.472 
L 57.6 41.472 
z
" style="fill:#ffffff;"/>
   </g>
   <g id="matplotlib.axis_1">
    <g id="xtick_1">
     <g id="line2d_1">
      <defs>
       <path d="M 0 0 
L 0 3.5 
" id="m9707e45e5d" style="stroke:#000000;stroke-width:0.8;"/>
      </defs>
      <g>
       <use style="stroke:#000000;stroke-width:0.8;" x="57.6" xlink:href="#m9707e45e5d" y="307.584"/>
      </g>
     </g>
     <g id="text_1">
      <!-- −20 -->
      <defs>
       <path d="M 10.59375 35.5 
L 73.1875 35.5 
L 73.1875 27.203125 
L 10.59375 27.203125 
z
" id="DejaVuSans-8722"/>
       <path d="M 19.1875 8.296875 
L 53.609375 8.296875 
L 53.609375 0 
L 7.328125 0 
L 7.328125 8.296875 
Q 12.9375 14.109375 22.625 23.890625 
Q 32.328125 33.6875 34.8125 36.53125 
Q 39.546875 41.84375 41.421875 45.53125 
Q 43.3125 49.21875 43.3125 52.78125 
Q 43.3125 58.59375 39.234375 62.25 
Q 35.15625 65.921875 28.609375 65.921875 
Q 23.96875 65.921875 18.8125 64.3125 
Q 13.671875 62.703125 7.8125 59.421875 
L 7.8125 69.390625 
Q 13.765625 71.78125 18.9375 73 
Q 24.125 74.21875 28.421875 74.21875 
Q 39.75 74.21875 46.484375 68.546875 
Q 53.21875 62.890625 53.21875 53.421875 
Q 53.21875 48.921875 51.53125 44.890625 
Q 49.859375 40.875 45.40625 35.40625 
Q 44.1875 33.984375 37.640625 27.21875 
Q 31.109375 20.453125 19.1875 8.296875 
z
" id="DejaVuSans-50"/>
       <path d="M 31.78125 66.40625 
Q 24.171875 66.40625 20.328125 58.90625 
Q 16.5 51.421875 16.5 36.375 
Q 16.5 21.390625 20.328125 13.890625 
Q 24.171875 6.390625 31.78125 6.390625 
Q 39.453125 6.390625 43.28125 13.890625 
Q 47.125 21.390625 47.125 36.375 
Q 47.125 51.421875 43.28125 58.90625 
Q 39.453125 66.40625 31.78125 66.40625 
z
M 31.78125 74.21875 
Q 44.046875 74.21875 50.515625 64.515625 
Q 56.984375 54.828125 56.984375 36.375 
Q 56.984375 17.96875 50.515625 8.265625 
Q 44.046875 -1.421875 31.78125 -1.421875 
Q 19.53125 -1.421875 13.0625 8.265625 
Q 6.59375 17.96875 6.59375 36.375 
Q 6.59375 54.828125 13.0625 64.515625 
Q 19.53125 74.21875 31.78125 74.21875 
z
" id="DejaVuSans-48"/>
      </defs>
      <g transform="translate(47.047656 322.182437)scale(0.1 -0.1)">
       <use xlink:href="#DejaVuSans-8722"/>
       <use x="83.789062" xlink:href="#DejaVuSans-50"/>
       <use x="147.412109" xlink:href="#DejaVuSans-48"/>
      </g>
     </g>
    </g>
    <g id="xtick_2">
     <g id="line2d_2">
      <g>
       <use style="stroke:#000000;stroke-width:0.8;" x="93.312" xlink:href="#m9707e45e5d" y="307.584"/>
      </g>
     </g>
     <g id="text_2">
      <!-- −15 -->
      <defs>
       <path d="M 12.40625 8.296875 
L 28.515625 8.296875 
L 28.515625 63.921875 
L 10.984375 60.40625 
L 10.984375 69.390625 
L 28.421875 72.90625 
L 38.28125 72.90625 
L 38.28125 8.296875 
L 54.390625 8.296875 
L 54.390625 0 
L 12.40625 0 
z
" id="DejaVuSans-49"/>
       <path d="M 10.796875 72.90625 
L 49.515625 72.90625 
L 49.515625 64.59375 
L 19.828125 64.59375 
L 19.828125 46.734375 
Q 21.96875 47.46875 24.109375 47.828125 
Q 26.265625 48.1875 28.421875 48.1875 
Q 40.625 48.1875 47.75 41.5 
Q 54.890625 34.8125 54.890625 23.390625 
Q 54.890625 11.625 47.5625 5.09375 
Q 40.234375 -1.421875 26.90625 -1.421875 
Q 22.3125 -1.421875 17.546875 -0.640625 
Q 12.796875 0.140625 7.71875 1.703125 
L 7.71875 11.625 
Q 12.109375 9.234375 16.796875 8.0625 
Q 21.484375 6.890625 26.703125 6.890625 
Q 35.15625 6.890625 40.078125 11.328125 
Q 45.015625 15.765625 45.015625 23.390625 
Q 45.015625 31 40.078125 35.4375 
Q 35.15625 39.890625 26.703125 39.890625 
Q 22.75 39.890625 18.8125 39.015625 
Q 14.890625 38.140625 10.796875 36.28125 
z
" id="DejaVuSans-53"/>
      </defs>
      <g transform="translate(82.759656 322.182437)scale(0.1 -0.1)">
       <use xlink:href="#DejaVuSans-8722"/>
       <use x="83.789062" xlink:href="#DejaVuSans-49"/>
       <use x="147.412109" xlink:href="#DejaVuSans-53"/>
      </g>
     </g>
    </g>
    <g id="xtick_3">
     <g id="line2d_3">
      <g>
       <use style="stroke:#000000;stroke-width:0.8;" x="129.024" xlink:href="#m9707e45e5d" y="307.584"/>
      </g>
     </g>
     <g id="text_3">
      <!-- −10 -->
      <g transform="translate(118.471656 322.182437)scale(0.1 -0.1)">
       <use xlink:href="#DejaVuSans-8722"/>
       <use x="83.789062" xlink:href="#DejaVuSans-49"/>
       <use x="147.412109" xlink:href="#DejaVuSans-48"/>
      </g>
     </g>
    </g>
    <g id="xtick_4">
     <g id="line2d_4">
      <g>
       <use style="stroke:#000000;stroke-width:0.8;" x="164.736" xlink:href="#m9707e45e5d" y="307.584"/>
      </g>
     </g>
     <g id="text_4">
      <!-- −5 -->
      <g transform="translate(157.364906 322.182437)scale(0.1 -0.1)">
       <use xlink:href="#DejaVuSans-8722"/>
       <use x="83.789062" xlink:href="#DejaVuSans-53"/>
      </g>
     </g>
    </g>
    <g id="xtick_5">
     <g id="line2d_5">
      <g>
       <use style="stroke:#000000;stroke-width:0.8;" x="200.448" xlink:href="#m9707e45e5d" y="307.584"/>
      </g>
     </g>
     <g id="text_5">
      <!-- 0 -->
      <g transform="translate(197.26675 322.182437)scale(0.1 -0.1)">
       <use xlink:href="#DejaVuSans-48"/>
      </g>
     </g>
    </g>
    <g id="xtick_6">
     <g id="line2d_6">
      <g>
       <use style="stroke:#000000;stroke-width:0.8;" x="236.16" xlink:href="#m9707e45e5d" y="307.584"/>
      </g>
     </g>
     <g id="text_6">
      <!-- 5 -->
      <g transform="translate(232.97875 322.182437)scale(0.1 -0.1)">
       <use xlink:href="#DejaVuSans-53"/>
      </g>
     </g>
    </g>
    <g id="xtick_7">
     <g id="line2d_7">
      <g>
       <use style="stroke:#000000;stroke-width:0.8;" x="271.872" xlink:href="#m9707e45e5d" y="307.584"/>
      </g>
     </g>
     <g id="text_7">
      <!-- 10 -->
      <g transform="translate(265.5095 322.182437)scale(0.1 -0.1)">
       <use xlink:href="#DejaVuSans-49"/>
       <use x="63.623047" xlink:href="#DejaVuSans-48"/>
      </g>
     </g>
    </g>
    <g id="xtick_8">
     <g id="line2d_8">
      <g>
       <use style="stroke:#000000;stroke-width:0.8;" x="307.584" xlink:href="#m9707e45e5d" y="307.584"/>
      </g>
     </g>
     <g id="text_8">
      <!-- 15 -->
      <g transform="translate(301.2215 322.182437)scale(0.1 -0.1)">
       <use xlink:href="#DejaVuSans-49"/>
       <use x="63.623047" xlink:href="#DejaVuSans-53"/>
      </g>
     </g>
    </g>
    <g id="xtick_9">
     <g id="line2d_9">
      <g>
       <use style="stroke:#000000;stroke-width:0.8;" x="343.296" xlink:href="#m9707e45e5d" y="307.584"/>
      </g>
     </g>
     <g id="text_9">
      <!-- 20 -->
      <g transform="translate(336.9335 322.182437)scale(0.1 -0.1)">
       <use xlink:href="#DejaVuSans-50"/>
       <use x="63.623047" xlink:href="#DejaVuSans-48"/>
      </g>
     </g>
    </g>
   </g>
   <g id="matplotlib.axis_2">
    <g id="ytick_1">
     <g id="line2d_10">
      <defs>
       <path d="M 0 0 
L -3.5 0 
" id="md869b20362" style="stroke:#000000;stroke-width:0.8;"/>
      </defs>
      <g>
       <use style="stroke:#000000;stroke-width:0.8;" x="57.6" xlink:href="#md869b20362" y="307.584"/>
      </g>
     </g>
     <g id="text_10">
      <!-- −20 -->
      <g transform="translate(29.495313 311.383219)scale(0.1 -0.1)">
       <use xlink:href="#DejaVuSans-8722"/>
       <use x="83.789062" xlink:href="#DejaVuSans-50"/>
       <use x="147.412109" xlink:href="#DejaVuSans-48"/>
      </g>
     </g>
    </g>
    <g id="ytick_2">
     <g id="line2d_11">
      <g>
       <use style="stroke:#000000;stroke-width:0.8;" x="57.6" xlink:href="#md869b20362" y="274.32"/>
      </g>
     </g>
     <g id="text_11">
      <!-- −15 -->
      <g transform="translate(29.495313 278.119219)scale(0.1 -0.1)">
       <use xlink:href="#DejaVuSans-8722"/>
       <use x="83.789062" xlink:href="#DejaVuSans-49"/>
       <use x="147.412109" xlink:href="#DejaVuSans-53"/>
      </g>
     </g>
    </g>
    <g id="ytick_3">
     <g id="line2d_12">
      <g>
       <use style="stroke:#000000;stroke-width:0.8;" x="57.6" xlink:href="#md869b20362" y="241.056"/>
      </g>
     </g>
     <g id="text_12">
      <!-- −10 -->
      <g transform="translate(29.495313 244.855219)scale(0.1 -0.1)">
       <use xlink:href="#DejaVuSans-8722"/>
       <use x="83.789062" xlink:href="#DejaVuSans-49"/>
       <use x="147.412109" xlink:href="#DejaVuSans-48"/>
      </g>
     </g>
    </g>
    <g id="ytick_4">
     <g id="line2d_13">
      <g>
       <use style="stroke:#000000;stroke-width:0.8;" x="57.6" xlink:href="#md869b20362" y="207.792"/>
      </g>
     </g>
     <g id="text_13">
      <!-- −5 -->
      <g transform="translate(35.857813 211.591219)scale(0.1 -0.1)">
       <use xlink:href="#DejaVuSans-8722"/>
       <use x="83.789062" xlink:href="#DejaVuSans-53"/>
      </g>
     </g>
    </g>
    <g id="ytick_5">
     <g id="line2d_14">
      <g>
       <use style="stroke:#000000;stroke-width:0.8;" x="57.6" xlink:href="#md869b20362" y="174.528"/>
      </g>
     </g>
     <g id="text_14">
      <!-- 0 -->
      <g transform="translate(44.2375 178.327219)scale(0.1 -0.1)">
       <use xlink:href="#DejaVuSans-48"/>
      </g>
     </g>
    </g>
    <g id="ytick_6">
     <g id="line2d_15">
      <g>
       <use style="stroke:#000000;stroke-width:0.8;" x="57.6" xlink:href="#md869b20362" y="141.264"/>
      </g>
     </g>
     <g id="text_15">
      <!-- 5 -->
      <g transform="translate(44.2375 145.063219)scale(0.1 -0.1)">
       <use xlink:href="#DejaVuSans-53"/>
      </g>
     </g>
    </g>
    <g id="ytick_7">
     <g id="line2d_16">
      <g>
       <use style="stroke:#000000;stroke-width:0.8;" x="57.6" xlink:href="#md869b20362" y="108"/>
      </g>
     </g>
     <g id="text_16">
      <!-- 10 -->
      <g transform="translate(37.875 111.799219)scale(0.1 -0.1)">
       <use xlink:href="#DejaVuSans-49"/>
       <use x="63.623047" xlink:href="#DejaVuSans-48"/>
      </g>
     </g>
    </g>
    <g id="ytick_8">
     <g id="line2d_17">
      <g>
       <use style="stroke:#000000;stroke-width:0.8;" x="57.6" xlink:href="#md869b20362" y="74.736"/>
      </g>
     </g>
     <g id="text_17">
      <!-- 15 -->
      <g transform="translate(37.875 78.535219)scale(0.1 -0.1)">
       <use xlink:href="#DejaVuSans-49"/>
       <use x="63.623047" xlink:href="#DejaVuSans-53"/>
      </g>
     </g>
    </g>
    <g id="ytick_9">
     <g id="line2d_18">
      <g>
       <use style="stroke:#000000;stroke-width:0.8;" x="57.6" xlink:href="#md869b20362" y="41.472"/>
      </g>
     </g>
     <g id="text_18">
      <!-- 20 -->
      <g transform="translate(37.875 45.271219)scale(0.1 -0.1)">
       <use xlink:href="#DejaVuSans-50"/>
       <use x="63.623047" xlink:href="#DejaVuSans-48"/>
      </g>
     </g>
    </g>
   </g>
   <g id="LineCollection_1"/>
   <g id="LineCollection_2">
    <path clip-path="url(#p9fe0fe5964)" d="M 199.005091 291.43828 
L 198.393012 288.768 
L 197.931497 286.08 
L 197.600136 283.392 
L 197.377295 280.704 
L 197.243945 278.016 
L 197.183438 275.328 
L 197.181301 272.64 
L 197.225026 269.952 
L 197.303885 267.264 
L 197.408741 264.576 
L 197.531887 261.888 
L 197.666879 259.2 
L 197.808397 256.512 
L 197.952106 253.824 
L 198.094533 251.136 
L 198.232953 248.448 
L 198.365288 245.76 
L 198.490013 243.072 
L 198.60607 240.384 
L 198.712799 237.696 
L 198.809866 235.008 
L 198.897204 232.32 
L 198.974966 229.632 
L 199.005091 228.450063 
L 201.890909 228.450063 
L 201.921034 229.632 
L 201.998796 232.32 
L 202.086134 235.008 
L 202.183201 237.696 
L 202.28993 240.384 
L 202.405987 243.072 
L 202.530712 245.76 
L 202.663047 248.448 
L 202.801467 251.136 
L 202.943894 253.824 
L 203.087603 256.512 
L 203.229121 259.2 
L 203.364113 261.888 
L 203.487259 264.576 
L 203.592115 267.264 
L 203.670974 269.952 
L 203.714699 272.64 
L 203.712562 275.328 
L 203.652055 278.016 
L 203.518705 280.704 
L 203.295864 283.392 
L 202.964503 286.08 
L 202.502988 288.768 
L 201.890909 291.43828 
L 199.005091 291.43828 
" style="fill:none;stroke:#00e68c;stroke-width:1.5;"/>
    <path clip-path="url(#p9fe0fe5964)" d="M 199.005091 120.605937 
L 198.974966 119.424 
L 198.897204 116.736 
L 198.809866 114.048 
L 198.712799 111.36 
L 198.60607 108.672 
L 198.490013 105.984 
L 198.365288 103.296 
L 198.232953 100.608 
L 198.094533 97.92 
L 197.952106 95.232 
L 197.808397 92.544 
L 197.666879 89.856 
L 197.531887 87.168 
L 197.408741 84.48 
L 197.303885 81.792 
L 197.225026 79.104 
L 197.181301 76.416 
L 197.183438 73.728 
L 197.243945 71.04 
L 197.377295 68.352 
L 197.600136 65.664 
L 197.931497 62.976 
L 198.393012 60.288 
L 199.005091 57.61772 
L 201.890909 57.61772 
L 202.502988 60.288 
L 202.964503 62.976 
L 203.295864 65.664 
L 203.518705 68.352 
L 203.652055 71.04 
L 203.712562 73.728 
L 203.714699 76.416 
L 203.670974 79.104 
L 203.592115 81.792 
L 203.487259 84.48 
L 203.364113 87.168 
L 203.229121 89.856 
L 203.087603 92.544 
L 202.943894 95.232 
L 202.801467 97.92 
L 202.663047 100.608 
L 202.530712 103.296 
L 202.405987 105.984 
L 202.28993 108.672 
L 202.183201 111.36 
L 202.086134 114.048 
L 201.998796 116.736 
L 201.921034 119.424 
L 201.890909 120.605937 
L 199.005091 120.605937 
" style="fill:none;stroke:#00e68c;stroke-width:1.5;"/>
   </g>
   <g id="LineCollection_3">
    <path clip-path="url(#p9fe0fe5964)" d="M 150.996519 307.584 
L 150.79095 304.896 
L 150.614165 302.208 
L 150.463038 299.52 
L 150.334692 296.832 
L 150.226487 294.144 
L 150.136009 291.456 
L 150.061064 288.768 
L 149.999663 286.08 
L 149.950009 283.392 
L 149.946182 283.131381 
L 149.91249 280.704 
L 149.883382 278.016 
L 149.861257 275.328 
L 149.845036 272.64 
L 149.833765 269.952 
L 149.826607 267.264 
L 149.822827 264.576 
L 149.821786 261.888 
L 149.822932 259.2 
L 149.825788 256.512 
L 149.829948 253.824 
L 149.835068 251.136 
L 149.840857 248.448 
L 149.847073 245.76 
L 149.853519 243.072 
L 149.860031 240.384 
L 149.86648 237.696 
L 149.872766 235.008 
L 149.878809 232.32 
L 149.884554 229.632 
L 149.889959 226.944 
L 149.895 224.256 
L 149.899661 221.568 
L 149.903939 218.88 
L 149.907838 216.192 
L 149.911365 213.504 
L 149.914536 210.816 
L 149.917366 208.128 
L 149.919875 205.44 
L 149.922083 202.752 
L 149.924011 200.064 
L 149.925678 197.376 
L 149.927106 194.688 
L 149.928312 192 
L 149.929312 189.312 
L 149.930122 186.624 
L 149.930755 183.936 
L 149.93122 181.248 
L 149.931525 178.56 
L 149.931677 175.872 
L 149.931677 173.184 
L 149.931525 170.496 
L 149.93122 167.808 
L 149.930755 165.12 
L 149.930122 162.432 
L 149.929312 159.744 
L 149.928312 157.056 
L 149.927106 154.368 
L 149.925678 151.68 
L 149.924011 148.992 
L 149.922083 146.304 
L 149.919875 143.616 
L 149.917366 140.928 
L 149.914536 138.24 
L 149.911365 135.552 
L 149.907838 132.864 
L 149.903939 130.176 
L 149.899661 127.488 
L 149.895 124.8 
L 149.889959 122.112 
L 149.884554 119.424 
L 149.878809 116.736 
L 149.872766 114.048 
L 149.86648 111.36 
L 149.860031 108.672 
L 149.853519 105.984 
L 149.847073 103.296 
L 149.840857 100.608 
L 149.835068 97.92 
L 149.829948 95.232 
L 149.825788 92.544 
L 149.822932 89.856 
L 149.821786 87.168 
L 149.822827 84.48 
L 149.826607 81.792 
L 149.833765 79.104 
L 149.845036 76.416 
L 149.861257 73.728 
L 149.883382 71.04 
L 149.91249 68.352 
L 149.946182 65.924619 
L 149.950009 65.664 
L 149.999663 62.976 
L 150.061064 60.288 
L 150.136009 57.6 
L 150.226487 54.912 
L 150.334692 52.224 
L 150.463038 49.536 
L 150.614165 46.848 
L 150.79095 44.16 
L 150.996519 41.472 
" style="fill:none;stroke:#00cc99;stroke-width:1.5;"/>
    <path clip-path="url(#p9fe0fe5964)" d="M 249.899481 41.472 
L 250.10505 44.16 
L 250.281835 46.848 
L 250.432962 49.536 
L 250.561308 52.224 
L 250.669513 54.912 
L 250.759991 57.6 
L 250.834936 60.288 
L 250.896337 62.976 
L 250.945991 65.664 
L 250.949818 65.924619 
L 250.98351 68.352 
L 251.012618 71.04 
L 251.034743 73.728 
L 251.050964 76.416 
L 251.062235 79.104 
L 251.069393 81.792 
L 251.073173 84.48 
L 251.074214 87.168 
L 251.073068 89.856 
L 251.070212 92.544 
L 251.066052 95.232 
L 251.060932 97.92 
L 251.055143 100.608 
L 251.048927 103.296 
L 251.042481 105.984 
L 251.035969 108.672 
L 251.02952 111.36 
L 251.023234 114.048 
L 251.017191 116.736 
L 251.011446 119.424 
L 251.006041 122.112 
L 251.001 124.8 
L 250.996339 127.488 
L 250.992061 130.176 
L 250.988162 132.864 
L 250.984635 135.552 
L 250.981464 138.24 
L 250.978634 140.928 
L 250.976125 143.616 
L 250.973917 146.304 
L 250.971989 148.992 
L 250.970322 151.68 
L 250.968894 154.368 
L 250.967688 157.056 
L 250.966688 159.744 
L 250.965878 162.432 
L 250.965245 165.12 
L 250.96478 167.808 
L 250.964475 170.496 
L 250.964323 173.184 
L 250.964323 175.872 
L 250.964475 178.56 
L 250.96478 181.248 
L 250.965245 183.936 
L 250.965878 186.624 
L 250.966688 189.312 
L 250.967688 192 
L 250.968894 194.688 
L 250.970322 197.376 
L 250.971989 200.064 
L 250.973917 202.752 
L 250.976125 205.44 
L 250.978634 208.128 
L 250.981464 210.816 
L 250.984635 213.504 
L 250.988162 216.192 
L 250.992061 218.88 
L 250.996339 221.568 
L 251.001 224.256 
L 251.006041 226.944 
L 251.011446 229.632 
L 251.017191 232.32 
L 251.023234 235.008 
L 251.02952 237.696 
L 251.035969 240.384 
L 251.042481 243.072 
L 251.048927 245.76 
L 251.055143 248.448 
L 251.060932 251.136 
L 251.066052 253.824 
L 251.070212 256.512 
L 251.073068 259.2 
L 251.074214 261.888 
L 251.073173 264.576 
L 251.069393 267.264 
L 251.062235 269.952 
L 251.050964 272.64 
L 251.034743 275.328 
L 251.012618 278.016 
L 250.98351 280.704 
L 250.949818 283.131381 
L 250.945991 283.392 
L 250.896337 286.08 
L 250.834936 288.768 
L 250.759991 291.456 
L 250.669513 294.144 
L 250.561308 296.832 
L 250.432962 299.52 
L 250.281835 302.208 
L 250.10505 304.896 
L 249.899481 307.584 
" style="fill:none;stroke:#00cc99;stroke-width:1.5;"/>
   </g>
   <g id="LineCollection_4">
    <path clip-path="url(#p9fe0fe5964)" d="M 130.335689 307.584 
L 130.125701 304.896 
L 129.941255 302.208 
L 129.77989 299.52 
L 129.745455 298.860013 
L 129.643724 296.832 
L 129.526848 294.144 
L 129.42595 291.456 
L 129.339297 288.768 
L 129.265302 286.08 
L 129.202508 283.392 
L 129.149592 280.704 
L 129.10535 278.016 
L 129.068691 275.328 
L 129.038634 272.64 
L 129.014297 269.952 
L 128.994889 267.264 
L 128.979705 264.576 
L 128.968121 261.888 
L 128.95958 259.2 
L 128.953597 256.512 
L 128.949741 253.824 
L 128.94764 251.136 
L 128.946967 248.448 
L 128.947442 245.76 
L 128.948821 243.072 
L 128.950898 240.384 
L 128.953498 237.696 
L 128.956471 235.008 
L 128.959692 232.32 
L 128.96306 229.632 
L 128.966489 226.944 
L 128.969909 224.256 
L 128.973267 221.568 
L 128.976519 218.88 
L 128.979631 216.192 
L 128.982578 213.504 
L 128.985342 210.816 
L 128.987911 208.128 
L 128.990276 205.44 
L 128.992434 202.752 
L 128.994383 200.064 
L 128.996124 197.376 
L 128.997659 194.688 
L 128.99899 192 
L 129.000122 189.312 
L 129.001059 186.624 
L 129.001803 183.936 
L 129.002359 181.248 
L 129.002727 178.56 
L 129.002911 175.872 
L 129.002911 173.184 
L 129.002727 170.496 
L 129.002359 167.808 
L 129.001803 165.12 
L 129.001059 162.432 
L 129.000122 159.744 
L 128.99899 157.056 
L 128.997659 154.368 
L 128.996124 151.68 
L 128.994383 148.992 
L 128.992434 146.304 
L 128.990276 143.616 
L 128.987911 140.928 
L 128.985342 138.24 
L 128.982578 135.552 
L 128.979631 132.864 
L 128.976519 130.176 
L 128.973267 127.488 
L 128.969909 124.8 
L 128.966489 122.112 
L 128.96306 119.424 
L 128.959692 116.736 
L 128.956471 114.048 
L 128.953498 111.36 
L 128.950898 108.672 
L 128.948821 105.984 
L 128.947442 103.296 
L 128.946967 100.608 
L 128.94764 97.92 
L 128.949741 95.232 
L 128.953597 92.544 
L 128.95958 89.856 
L 128.968121 87.168 
L 128.979705 84.48 
L 128.994889 81.792 
L 129.014297 79.104 
L 129.038634 76.416 
L 129.068691 73.728 
L 129.10535 71.04 
L 129.149592 68.352 
L 129.202508 65.664 
L 129.265302 62.976 
L 129.339297 60.288 
L 129.42595 57.6 
L 129.526848 54.912 
L 129.643724 52.224 
L 129.745455 50.195987 
L 129.77989 49.536 
L 129.941255 46.848 
L 130.125701 44.16 
L 130.335689 41.472 
" style="fill:none;stroke:#00b3a6;stroke-width:1.5;"/>
    <path clip-path="url(#p9fe0fe5964)" d="M 270.560311 41.472 
L 270.770299 44.16 
L 270.954745 46.848 
L 271.11611 49.536 
L 271.150545 50.195987 
L 271.252276 52.224 
L 271.369152 54.912 
L 271.47005 57.6 
L 271.556703 60.288 
L 271.630698 62.976 
L 271.693492 65.664 
L 271.746408 68.352 
L 271.79065 71.04 
L 271.827309 73.728 
L 271.857366 76.416 
L 271.881703 79.104 
L 271.901111 81.792 
L 271.916295 84.48 
L 271.927879 87.168 
L 271.93642 89.856 
L 271.942403 92.544 
L 271.946259 95.232 
L 271.94836 97.92 
L 271.949033 100.608 
L 271.948558 103.296 
L 271.947179 105.984 
L 271.945102 108.672 
L 271.942502 111.36 
L 271.939529 114.048 
L 271.936308 116.736 
L 271.93294 119.424 
L 271.929511 122.112 
L 271.926091 124.8 
L 271.922733 127.488 
L 271.919481 130.176 
L 271.916369 132.864 
L 271.913422 135.552 
L 271.910658 138.24 
L 271.908089 140.928 
L 271.905724 143.616 
L 271.903566 146.304 
L 271.901617 148.992 
L 271.899876 151.68 
L 271.898341 154.368 
L 271.89701 157.056 
L 271.895878 159.744 
L 271.894941 162.432 
L 271.894197 165.12 
L 271.893641 167.808 
L 271.893273 170.496 
L 271.893089 173.184 
L 271.893089 175.872 
L 271.893273 178.56 
L 271.893641 181.248 
L 271.894197 183.936 
L 271.894941 186.624 
L 271.895878 189.312 
L 271.89701 192 
L 271.898341 194.688 
L 271.899876 197.376 
L 271.901617 200.064 
L 271.903566 202.752 
L 271.905724 205.44 
L 271.908089 208.128 
L 271.910658 210.816 
L 271.913422 213.504 
L 271.916369 216.192 
L 271.919481 218.88 
L 271.922733 221.568 
L 271.926091 224.256 
L 271.929511 226.944 
L 271.93294 229.632 
L 271.936308 232.32 
L 271.939529 235.008 
L 271.942502 237.696 
L 271.945102 240.384 
L 271.947179 243.072 
L 271.948558 245.76 
L 271.949033 248.448 
L 271.94836 251.136 
L 271.946259 253.824 
L 271.942403 256.512 
L 271.93642 259.2 
L 271.927879 261.888 
L 271.916295 264.576 
L 271.901111 267.264 
L 271.881703 269.952 
L 271.857366 272.64 
L 271.827309 275.328 
L 271.79065 278.016 
L 271.746408 280.704 
L 271.693492 283.392 
L 271.630698 286.08 
L 271.556703 288.768 
L 271.47005 291.456 
L 271.369152 294.144 
L 271.252276 296.832 
L 271.150545 298.860013 
L 271.11611 299.52 
L 270.954745 302.208 
L 270.770299 304.896 
L 270.560311 307.584 
" style="fill:none;stroke:#00b3a6;stroke-width:1.5;"/>
   </g>
   <g id="LineCollection_5">
    <path clip-path="url(#p9fe0fe5964)" d="M 114.692419 307.584 
L 114.463448 304.896 
L 114.259102 302.208 
L 114.077269 299.52 
L 113.915956 296.832 
L 113.773294 294.144 
L 113.647535 291.456 
L 113.53705 288.768 
L 113.440325 286.08 
L 113.355963 283.392 
L 113.282673 280.704 
L 113.219269 278.016 
L 113.164665 275.328 
L 113.11787 272.64 
L 113.077979 269.952 
L 113.044175 267.264 
L 113.015717 264.576 
L 112.991935 261.888 
L 112.972229 259.2 
L 112.956061 256.512 
L 112.94295 253.824 
L 112.932468 251.136 
L 112.924235 248.448 
L 112.917914 245.76 
L 112.91321 243.072 
L 112.909863 240.384 
L 112.907643 237.696 
L 112.906354 235.008 
L 112.905822 232.32 
L 112.905899 229.632 
L 112.906456 226.944 
L 112.907383 224.256 
L 112.908587 221.568 
L 112.909988 218.88 
L 112.911519 216.192 
L 112.913124 213.504 
L 112.914756 210.816 
L 112.916376 208.128 
L 112.917952 205.44 
L 112.919459 202.752 
L 112.920875 200.064 
L 112.922184 197.376 
L 112.923372 194.688 
L 112.924429 192 
L 112.925347 189.312 
L 112.92612 186.624 
L 112.926743 183.936 
L 112.927213 181.248 
L 112.927527 178.56 
L 112.927685 175.872 
L 112.927685 173.184 
L 112.927527 170.496 
L 112.927213 167.808 
L 112.926743 165.12 
L 112.92612 162.432 
L 112.925347 159.744 
L 112.924429 157.056 
L 112.923372 154.368 
L 112.922184 151.68 
L 112.920875 148.992 
L 112.919459 146.304 
L 112.917952 143.616 
L 112.916376 140.928 
L 112.914756 138.24 
L 112.913124 135.552 
L 112.911519 132.864 
L 112.909988 130.176 
L 112.908587 127.488 
L 112.907383 124.8 
L 112.906456 122.112 
L 112.905899 119.424 
L 112.905822 116.736 
L 112.906354 114.048 
L 112.907643 111.36 
L 112.909863 108.672 
L 112.91321 105.984 
L 112.917914 103.296 
L 112.924235 100.608 
L 112.932468 97.92 
L 112.94295 95.232 
L 112.956061 92.544 
L 112.972229 89.856 
L 112.991935 87.168 
L 113.015717 84.48 
L 113.044175 81.792 
L 113.077979 79.104 
L 113.11787 76.416 
L 113.164665 73.728 
L 113.219269 71.04 
L 113.282673 68.352 
L 113.355963 65.664 
L 113.440325 62.976 
L 113.53705 60.288 
L 113.647535 57.6 
L 113.773294 54.912 
L 113.915956 52.224 
L 114.077269 49.536 
L 114.259102 46.848 
L 114.463448 44.16 
L 114.692419 41.472 
" style="fill:none;stroke:#0099b2;stroke-width:1.5;"/>
    <path clip-path="url(#p9fe0fe5964)" d="M 286.203581 41.472 
L 286.432552 44.16 
L 286.636898 46.848 
L 286.818731 49.536 
L 286.980044 52.224 
L 287.122706 54.912 
L 287.248465 57.6 
L 287.35895 60.288 
L 287.455675 62.976 
L 287.540037 65.664 
L 287.613327 68.352 
L 287.676731 71.04 
L 287.731335 73.728 
L 287.77813 76.416 
L 287.818021 79.104 
L 287.851825 81.792 
L 287.880283 84.48 
L 287.904065 87.168 
L 287.923771 89.856 
L 287.939939 92.544 
L 287.95305 95.232 
L 287.963532 97.92 
L 287.971765 100.608 
L 287.978086 103.296 
L 287.98279 105.984 
L 287.986137 108.672 
L 287.988357 111.36 
L 287.989646 114.048 
L 287.990178 116.736 
L 287.990101 119.424 
L 287.989544 122.112 
L 287.988617 124.8 
L 287.987413 127.488 
L 287.986012 130.176 
L 287.984481 132.864 
L 287.982876 135.552 
L 287.981244 138.24 
L 287.979624 140.928 
L 287.978048 143.616 
L 287.976541 146.304 
L 287.975125 148.992 
L 287.973816 151.68 
L 287.972628 154.368 
L 287.971571 157.056 
L 287.970653 159.744 
L 287.96988 162.432 
L 287.969257 165.12 
L 287.968787 167.808 
L 287.968473 170.496 
L 287.968315 173.184 
L 287.968315 175.872 
L 287.968473 178.56 
L 287.968787 181.248 
L 287.969257 183.936 
L 287.96988 186.624 
L 287.970653 189.312 
L 287.971571 192 
L 287.972628 194.688 
L 287.973816 197.376 
L 287.975125 200.064 
L 287.976541 202.752 
L 287.978048 205.44 
L 287.979624 208.128 
L 287.981244 210.816 
L 287.982876 213.504 
L 287.984481 216.192 
L 287.986012 218.88 
L 287.987413 221.568 
L 287.988617 224.256 
L 287.989544 226.944 
L 287.990101 229.632 
L 287.990178 232.32 
L 287.989646 235.008 
L 287.988357 237.696 
L 287.986137 240.384 
L 287.98279 243.072 
L 287.978086 245.76 
L 287.971765 248.448 
L 287.963532 251.136 
L 287.95305 253.824 
L 287.939939 256.512 
L 287.923771 259.2 
L 287.904065 261.888 
L 287.880283 264.576 
L 287.851825 267.264 
L 287.818021 269.952 
L 287.77813 272.64 
L 287.731335 275.328 
L 287.676731 278.016 
L 287.613327 280.704 
L 287.540037 283.392 
L 287.455675 286.08 
L 287.35895 288.768 
L 287.248465 291.456 
L 287.122706 294.144 
L 286.980044 296.832 
L 286.818731 299.52 
L 286.636898 302.208 
L 286.432552 304.896 
L 286.203581 307.584 
" style="fill:none;stroke:#0099b2;stroke-width:1.5;"/>
   </g>
   <g id="LineCollection_6">
    <path clip-path="url(#p9fe0fe5964)" d="M 101.67789 307.584 
L 101.413006 304.896 
L 101.173717 302.208 
L 100.958052 299.52 
L 100.887273 298.536031 
L 100.768061 296.832 
L 100.599603 294.144 
L 100.448794 291.456 
L 100.314114 288.768 
L 100.194134 286.08 
L 100.087523 283.392 
L 99.993036 280.704 
L 99.909517 278.016 
L 99.835897 275.328 
L 99.771187 272.64 
L 99.714478 269.952 
L 99.664934 267.264 
L 99.621791 264.576 
L 99.584349 261.888 
L 99.551974 259.2 
L 99.524089 256.512 
L 99.50017 253.824 
L 99.479746 251.136 
L 99.462391 248.448 
L 99.447723 245.76 
L 99.435399 243.072 
L 99.425114 240.384 
L 99.416595 237.696 
L 99.409598 235.008 
L 99.40391 232.32 
L 99.399339 229.632 
L 99.395718 226.944 
L 99.3929 224.256 
L 99.390754 221.568 
L 99.389169 218.88 
L 99.388044 216.192 
L 99.387296 213.504 
L 99.386849 210.816 
L 99.38664 208.128 
L 99.386614 205.44 
L 99.386723 202.752 
L 99.386927 200.064 
L 99.387193 197.376 
L 99.387492 194.688 
L 99.3878 192 
L 99.388097 189.312 
L 99.388368 186.624 
L 99.388598 183.936 
L 99.38878 181.248 
L 99.388904 178.56 
L 99.388968 175.872 
L 99.388968 173.184 
L 99.388904 170.496 
L 99.38878 167.808 
L 99.388598 165.12 
L 99.388368 162.432 
L 99.388097 159.744 
L 99.3878 157.056 
L 99.387492 154.368 
L 99.387193 151.68 
L 99.386927 148.992 
L 99.386723 146.304 
L 99.386614 143.616 
L 99.38664 140.928 
L 99.386849 138.24 
L 99.387296 135.552 
L 99.388044 132.864 
L 99.389169 130.176 
L 99.390754 127.488 
L 99.3929 124.8 
L 99.395718 122.112 
L 99.399339 119.424 
L 99.40391 116.736 
L 99.409598 114.048 
L 99.416595 111.36 
L 99.425114 108.672 
L 99.435399 105.984 
L 99.447723 103.296 
L 99.462391 100.608 
L 99.479746 97.92 
L 99.50017 95.232 
L 99.524089 92.544 
L 99.551974 89.856 
L 99.584349 87.168 
L 99.621791 84.48 
L 99.664934 81.792 
L 99.714478 79.104 
L 99.771187 76.416 
L 99.835897 73.728 
L 99.909517 71.04 
L 99.993036 68.352 
L 100.087523 65.664 
L 100.194134 62.976 
L 100.314114 60.288 
L 100.448794 57.6 
L 100.599603 54.912 
L 100.768061 52.224 
L 100.887273 50.519969 
L 100.958052 49.536 
L 101.173717 46.848 
L 101.413006 44.16 
L 101.67789 41.472 
" style="fill:none;stroke:#007fc0;stroke-width:1.5;"/>
    <path clip-path="url(#p9fe0fe5964)" d="M 299.21811 41.472 
L 299.482994 44.16 
L 299.722283 46.848 
L 299.937948 49.536 
L 300.008727 50.519969 
L 300.127939 52.224 
L 300.296397 54.912 
L 300.447206 57.6 
L 300.581886 60.288 
L 300.701866 62.976 
L 300.808477 65.664 
L 300.902964 68.352 
L 300.986483 71.04 
L 301.060103 73.728 
L 301.124813 76.416 
L 301.181522 79.104 
L 301.231066 81.792 
L 301.274209 84.48 
L 301.311651 87.168 
L 301.344026 89.856 
L 301.371911 92.544 
L 301.39583 95.232 
L 301.416254 97.92 
L 301.433609 100.608 
L 301.448277 103.296 
L 301.460601 105.984 
L 301.470886 108.672 
L 301.479405 111.36 
L 301.486402 114.048 
L 301.49209 116.736 
L 301.496661 119.424 
L 301.500282 122.112 
L 301.5031 124.8 
L 301.505246 127.488 
L 301.506831 130.176 
L 301.507956 132.864 
L 301.508704 135.552 
L 301.509151 138.24 
L 301.50936 140.928 
L 301.509386 143.616 
L 301.509277 146.304 
L 301.509073 148.992 
L 301.508807 151.68 
L 301.508508 154.368 
L 301.5082 157.056 
L 301.507903 159.744 
L 301.507632 162.432 
L 301.507402 165.12 
L 301.50722 167.808 
L 301.507096 170.496 
L 301.507032 173.184 
L 301.507032 175.872 
L 301.507096 178.56 
L 301.50722 181.248 
L 301.507402 183.936 
L 301.507632 186.624 
L 301.507903 189.312 
L 301.5082 192 
L 301.508508 194.688 
L 301.508807 197.376 
L 301.509073 200.064 
L 301.509277 202.752 
L 301.509386 205.44 
L 301.50936 208.128 
L 301.509151 210.816 
L 301.508704 213.504 
L 301.507956 216.192 
L 301.506831 218.88 
L 301.505246 221.568 
L 301.5031 224.256 
L 301.500282 226.944 
L 301.496661 229.632 
L 301.49209 232.32 
L 301.486402 235.008 
L 301.479405 237.696 
L 301.470886 240.384 
L 301.460601 243.072 
L 301.448277 245.76 
L 301.433609 248.448 
L 301.416254 251.136 
L 301.39583 253.824 
L 301.371911 256.512 
L 301.344026 259.2 
L 301.311651 261.888 
L 301.274209 264.576 
L 301.231066 267.264 
L 301.181522 269.952 
L 301.124813 272.64 
L 301.060103 275.328 
L 300.986483 278.016 
L 300.902964 280.704 
L 300.808477 283.392 
L 300.701866 286.08 
L 300.581886 288.768 
L 300.447206 291.456 
L 300.296397 294.144 
L 300.127939 296.832 
L 300.008727 298.536031 
L 299.937948 299.52 
L 299.722283 302.208 
L 299.482994 304.896 
L 299.21811 307.584 
" style="fill:none;stroke:#007fc0;stroke-width:1.5;"/>
   </g>
   <g id="LineCollection_7">
    <path clip-path="url(#p9fe0fe5964)" d="M 90.377439 307.584 
L 90.077574 304.896 
L 89.803923 302.208 
L 89.554678 299.52 
L 89.344 297.0197 
L 89.328576 296.832 
L 89.129124 294.144 
L 88.948424 291.456 
L 88.785024 288.768 
L 88.637549 286.08 
L 88.504701 283.392 
L 88.385256 280.704 
L 88.278068 278.016 
L 88.182062 275.328 
L 88.096239 272.64 
L 88.019667 269.952 
L 87.951483 267.264 
L 87.890887 264.576 
L 87.837145 261.888 
L 87.789576 259.2 
L 87.74756 256.512 
L 87.710527 253.824 
L 87.677955 251.136 
L 87.649371 248.448 
L 87.624342 245.76 
L 87.602479 243.072 
L 87.583425 240.384 
L 87.566861 237.696 
L 87.552499 235.008 
L 87.540079 232.32 
L 87.529368 229.632 
L 87.520156 226.944 
L 87.512259 224.256 
L 87.50551 221.568 
L 87.49976 218.88 
L 87.494879 216.192 
L 87.490751 213.504 
L 87.487273 210.816 
L 87.484354 208.128 
L 87.481917 205.44 
L 87.479891 202.752 
L 87.478217 200.064 
L 87.476842 197.376 
L 87.475722 194.688 
L 87.474818 192 
L 87.4741 189.312 
L 87.47354 186.624 
L 87.473116 183.936 
L 87.472813 181.248 
L 87.472618 178.56 
L 87.472522 175.872 
L 87.472522 173.184 
L 87.472618 170.496 
L 87.472813 167.808 
L 87.473116 165.12 
L 87.47354 162.432 
L 87.4741 159.744 
L 87.474818 157.056 
L 87.475722 154.368 
L 87.476842 151.68 
L 87.478217 148.992 
L 87.479891 146.304 
L 87.481917 143.616 
L 87.484354 140.928 
L 87.487273 138.24 
L 87.490751 135.552 
L 87.494879 132.864 
L 87.49976 130.176 
L 87.50551 127.488 
L 87.512259 124.8 
L 87.520156 122.112 
L 87.529368 119.424 
L 87.540079 116.736 
L 87.552499 114.048 
L 87.566861 111.36 
L 87.583425 108.672 
L 87.602479 105.984 
L 87.624342 103.296 
L 87.649371 100.608 
L 87.677955 97.92 
L 87.710527 95.232 
L 87.74756 92.544 
L 87.789576 89.856 
L 87.837145 87.168 
L 87.890887 84.48 
L 87.951483 81.792 
L 88.019667 79.104 
L 88.096239 76.416 
L 88.182062 73.728 
L 88.278068 71.04 
L 88.385256 68.352 
L 88.504701 65.664 
L 88.637549 62.976 
L 88.785024 60.288 
L 88.948424 57.6 
L 89.129124 54.912 
L 89.328576 52.224 
L 89.344 52.0363 
L 89.554678 49.536 
L 89.803923 46.848 
L 90.077574 44.16 
L 90.377439 41.472 
" style="fill:none;stroke:#0066cc;stroke-width:1.5;"/>
    <path clip-path="url(#p9fe0fe5964)" d="M 310.518561 41.472 
L 310.818426 44.16 
L 311.092077 46.848 
L 311.341322 49.536 
L 311.552 52.0363 
L 311.567424 52.224 
L 311.766876 54.912 
L 311.947576 57.6 
L 312.110976 60.288 
L 312.258451 62.976 
L 312.391299 65.664 
L 312.510744 68.352 
L 312.617932 71.04 
L 312.713938 73.728 
L 312.799761 76.416 
L 312.876333 79.104 
L 312.944517 81.792 
L 313.005113 84.48 
L 313.058855 87.168 
L 313.106424 89.856 
L 313.14844 92.544 
L 313.185473 95.232 
L 313.218045 97.92 
L 313.246629 100.608 
L 313.271658 103.296 
L 313.293521 105.984 
L 313.312575 108.672 
L 313.329139 111.36 
L 313.343501 114.048 
L 313.355921 116.736 
L 313.366632 119.424 
L 313.375844 122.112 
L 313.383741 124.8 
L 313.39049 127.488 
L 313.39624 130.176 
L 313.401121 132.864 
L 313.405249 135.552 
L 313.408727 138.24 
L 313.411646 140.928 
L 313.414083 143.616 
L 313.416109 146.304 
L 313.417783 148.992 
L 313.419158 151.68 
L 313.420278 154.368 
L 313.421182 157.056 
L 313.4219 159.744 
L 313.42246 162.432 
L 313.422884 165.12 
L 313.423187 167.808 
L 313.423382 170.496 
L 313.423478 173.184 
L 313.423478 175.872 
L 313.423382 178.56 
L 313.423187 181.248 
L 313.422884 183.936 
L 313.42246 186.624 
L 313.4219 189.312 
L 313.421182 192 
L 313.420278 194.688 
L 313.419158 197.376 
L 313.417783 200.064 
L 313.416109 202.752 
L 313.414083 205.44 
L 313.411646 208.128 
L 313.408727 210.816 
L 313.405249 213.504 
L 313.401121 216.192 
L 313.39624 218.88 
L 313.39049 221.568 
L 313.383741 224.256 
L 313.375844 226.944 
L 313.366632 229.632 
L 313.355921 232.32 
L 313.343501 235.008 
L 313.329139 237.696 
L 313.312575 240.384 
L 313.293521 243.072 
L 313.271658 245.76 
L 313.246629 248.448 
L 313.218045 251.136 
L 313.185473 253.824 
L 313.14844 256.512 
L 313.106424 259.2 
L 313.058855 261.888 
L 313.005113 264.576 
L 312.944517 267.264 
L 312.876333 269.952 
L 312.799761 272.64 
L 312.713938 275.328 
L 312.617932 278.016 
L 312.510744 280.704 
L 312.391299 283.392 
L 312.258451 286.08 
L 312.110976 288.768 
L 311.947576 291.456 
L 311.766876 294.144 
L 311.567424 296.832 
L 311.552 297.0197 
L 311.341322 299.52 
L 311.092077 302.208 
L 310.818426 304.896 
L 310.518561 307.584 
" style="fill:none;stroke:#0066cc;stroke-width:1.5;"/>
   </g>
   <g id="LineCollection_8">
    <path clip-path="url(#p9fe0fe5964)" d="M 80.318302 307.584 
L 79.985522 304.896 
L 79.679155 302.208 
L 79.397579 299.52 
L 79.139216 296.832 
L 78.90254 294.144 
L 78.686081 291.456 
L 78.488424 288.768 
L 78.308219 286.08 
L 78.144178 283.392 
L 77.995077 280.704 
L 77.859759 278.016 
L 77.800727 276.719557 
L 77.738865 275.328 
L 77.630893 272.64 
L 77.533291 269.952 
L 77.44519 267.264 
L 77.365776 264.576 
L 77.294291 261.888 
L 77.230033 259.2 
L 77.172348 256.512 
L 77.120633 253.824 
L 77.074333 251.136 
L 77.032935 248.448 
L 76.995969 245.76 
L 76.963002 243.072 
L 76.933642 240.384 
L 76.907526 237.696 
L 76.884328 235.008 
L 76.863748 232.32 
L 76.845516 229.632 
L 76.829386 226.944 
L 76.815137 224.256 
L 76.802569 221.568 
L 76.7915 218.88 
L 76.78177 216.192 
L 76.773234 213.504 
L 76.765763 210.816 
L 76.75924 208.128 
L 76.753563 205.44 
L 76.748642 202.752 
L 76.744398 200.064 
L 76.74076 197.376 
L 76.737668 194.688 
L 76.735069 192 
L 76.732921 189.312 
L 76.731184 186.624 
L 76.729831 183.936 
L 76.728835 181.248 
L 76.728182 178.56 
L 76.727858 175.872 
L 76.727858 173.184 
L 76.728182 170.496 
L 76.728835 167.808 
L 76.729831 165.12 
L 76.731184 162.432 
L 76.732921 159.744 
L 76.735069 157.056 
L 76.737668 154.368 
L 76.74076 151.68 
L 76.744398 148.992 
L 76.748642 146.304 
L 76.753563 143.616 
L 76.75924 140.928 
L 76.765763 138.24 
L 76.773234 135.552 
L 76.78177 132.864 
L 76.7915 130.176 
L 76.802569 127.488 
L 76.815137 124.8 
L 76.829386 122.112 
L 76.845516 119.424 
L 76.863748 116.736 
L 76.884328 114.048 
L 76.907526 111.36 
L 76.933642 108.672 
L 76.963002 105.984 
L 76.995969 103.296 
L 77.032935 100.608 
L 77.074333 97.92 
L 77.120633 95.232 
L 77.172348 92.544 
L 77.230033 89.856 
L 77.294291 87.168 
L 77.365776 84.48 
L 77.44519 81.792 
L 77.533291 79.104 
L 77.630893 76.416 
L 77.738865 73.728 
L 77.800727 72.336443 
L 77.859759 71.04 
L 77.995077 68.352 
L 78.144178 65.664 
L 78.308219 62.976 
L 78.488424 60.288 
L 78.686081 57.6 
L 78.90254 54.912 
L 79.139216 52.224 
L 79.397579 49.536 
L 79.679155 46.848 
L 79.985522 44.16 
L 80.318302 41.472 
" style="fill:none;stroke:#004cd9;stroke-width:1.5;"/>
    <path clip-path="url(#p9fe0fe5964)" d="M 320.577698 41.472 
L 320.910478 44.16 
L 321.216845 46.848 
L 321.498421 49.536 
L 321.756784 52.224 
L 321.99346 54.912 
L 322.209919 57.6 
L 322.407576 60.288 
L 322.587781 62.976 
L 322.751822 65.664 
L 322.900923 68.352 
L 323.036241 71.04 
L 323.095273 72.336443 
L 323.157135 73.728 
L 323.265107 76.416 
L 323.362709 79.104 
L 323.45081 81.792 
L 323.530224 84.48 
L 323.601709 87.168 
L 323.665967 89.856 
L 323.723652 92.544 
L 323.775367 95.232 
L 323.821667 97.92 
L 323.863065 100.608 
L 323.900031 103.296 
L 323.932998 105.984 
L 323.962358 108.672 
L 323.988474 111.36 
L 324.011672 114.048 
L 324.032252 116.736 
L 324.050484 119.424 
L 324.066614 122.112 
L 324.080863 124.8 
L 324.093431 127.488 
L 324.1045 130.176 
L 324.11423 132.864 
L 324.122766 135.552 
L 324.130237 138.24 
L 324.13676 140.928 
L 324.142437 143.616 
L 324.147358 146.304 
L 324.151602 148.992 
L 324.15524 151.68 
L 324.158332 154.368 
L 324.160931 157.056 
L 324.163079 159.744 
L 324.164816 162.432 
L 324.166169 165.12 
L 324.167165 167.808 
L 324.167818 170.496 
L 324.168142 173.184 
L 324.168142 175.872 
L 324.167818 178.56 
L 324.167165 181.248 
L 324.166169 183.936 
L 324.164816 186.624 
L 324.163079 189.312 
L 324.160931 192 
L 324.158332 194.688 
L 324.15524 197.376 
L 324.151602 200.064 
L 324.147358 202.752 
L 324.142437 205.44 
L 324.13676 208.128 
L 324.130237 210.816 
L 324.122766 213.504 
L 324.11423 216.192 
L 324.1045 218.88 
L 324.093431 221.568 
L 324.080863 224.256 
L 324.066614 226.944 
L 324.050484 229.632 
L 324.032252 232.32 
L 324.011672 235.008 
L 323.988474 237.696 
L 323.962358 240.384 
L 323.932998 243.072 
L 323.900031 245.76 
L 323.863065 248.448 
L 323.821667 251.136 
L 323.775367 253.824 
L 323.723652 256.512 
L 323.665967 259.2 
L 323.601709 261.888 
L 323.530224 264.576 
L 323.45081 267.264 
L 323.362709 269.952 
L 323.265107 272.64 
L 323.157135 275.328 
L 323.095273 276.719557 
L 323.036241 278.016 
L 322.900923 280.704 
L 322.751822 283.392 
L 322.587781 286.08 
L 322.407576 288.768 
L 322.209919 291.456 
L 321.99346 294.144 
L 321.756784 296.832 
L 321.498421 299.52 
L 321.216845 302.208 
L 320.910478 304.896 
L 320.577698 307.584 
" style="fill:none;stroke:#004cd9;stroke-width:1.5;"/>
   </g>
   <g id="LineCollection_9">
    <path clip-path="url(#p9fe0fe5964)" d="M 71.239537 307.584 
L 70.865967 304.896 
L 70.519544 302.208 
L 70.19878 299.52 
L 69.902214 296.832 
L 69.628419 294.144 
L 69.376006 291.456 
L 69.143626 288.768 
L 69.143273 288.763532 
L 68.935873 286.08 
L 68.745036 283.392 
L 68.569955 280.704 
L 68.409533 278.016 
L 68.262722 275.328 
L 68.128529 272.64 
L 68.006014 269.952 
L 67.894287 267.264 
L 67.792512 264.576 
L 67.699902 261.888 
L 67.615721 259.2 
L 67.539281 256.512 
L 67.46994 253.824 
L 67.4071 251.136 
L 67.350207 248.448 
L 67.298748 245.76 
L 67.252247 243.072 
L 67.210267 240.384 
L 67.172404 237.696 
L 67.138286 235.008 
L 67.107575 232.32 
L 67.079958 229.632 
L 67.05515 226.944 
L 67.032893 224.256 
L 67.01295 221.568 
L 66.995107 218.88 
L 66.979168 216.192 
L 66.96496 213.504 
L 66.952322 210.816 
L 66.941114 208.128 
L 66.931208 205.44 
L 66.922489 202.752 
L 66.914858 200.064 
L 66.908226 197.376 
L 66.902516 194.688 
L 66.897659 192 
L 66.893598 189.312 
L 66.890286 186.624 
L 66.887683 183.936 
L 66.885757 181.248 
L 66.884486 178.56 
L 66.883855 175.872 
L 66.883855 173.184 
L 66.884486 170.496 
L 66.885757 167.808 
L 66.887683 165.12 
L 66.890286 162.432 
L 66.893598 159.744 
L 66.897659 157.056 
L 66.902516 154.368 
L 66.908226 151.68 
L 66.914858 148.992 
L 66.922489 146.304 
L 66.931208 143.616 
L 66.941114 140.928 
L 66.952322 138.24 
L 66.96496 135.552 
L 66.979168 132.864 
L 66.995107 130.176 
L 67.01295 127.488 
L 67.032893 124.8 
L 67.05515 122.112 
L 67.079958 119.424 
L 67.107575 116.736 
L 67.138286 114.048 
L 67.172404 111.36 
L 67.210267 108.672 
L 67.252247 105.984 
L 67.298748 103.296 
L 67.350207 100.608 
L 67.4071 97.92 
L 67.46994 95.232 
L 67.539281 92.544 
L 67.615721 89.856 
L 67.699902 87.168 
L 67.792512 84.48 
L 67.894287 81.792 
L 68.006014 79.104 
L 68.128529 76.416 
L 68.262722 73.728 
L 68.409533 71.04 
L 68.569955 68.352 
L 68.745036 65.664 
L 68.935873 62.976 
L 69.143273 60.292468 
L 69.143626 60.288 
L 69.376006 57.6 
L 69.628419 54.912 
L 69.902214 52.224 
L 70.19878 49.536 
L 70.519544 46.848 
L 70.865967 44.16 
L 71.239537 41.472 
" style="fill:none;stroke:#0033e6;stroke-width:1.5;"/>
    <path clip-path="url(#p9fe0fe5964)" d="M 329.656463 41.472 
L 330.030033 44.16 
L 330.376456 46.848 
L 330.69722 49.536 
L 330.993786 52.224 
L 331.267581 54.912 
L 331.519994 57.6 
L 331.752374 60.288 
L 331.752727 60.292468 
L 331.960127 62.976 
L 332.150964 65.664 
L 332.326045 68.352 
L 332.486467 71.04 
L 332.633278 73.728 
L 332.767471 76.416 
L 332.889986 79.104 
L 333.001713 81.792 
L 333.103488 84.48 
L 333.196098 87.168 
L 333.280279 89.856 
L 333.356719 92.544 
L 333.42606 95.232 
L 333.4889 97.92 
L 333.545793 100.608 
L 333.597252 103.296 
L 333.643753 105.984 
L 333.685733 108.672 
L 333.723596 111.36 
L 333.757714 114.048 
L 333.788425 116.736 
L 333.816042 119.424 
L 333.84085 122.112 
L 333.863107 124.8 
L 333.88305 127.488 
L 333.900893 130.176 
L 333.916832 132.864 
L 333.93104 135.552 
L 333.943678 138.24 
L 333.954886 140.928 
L 333.964792 143.616 
L 333.973511 146.304 
L 333.981142 148.992 
L 333.987774 151.68 
L 333.993484 154.368 
L 333.998341 157.056 
L 334.002402 159.744 
L 334.005714 162.432 
L 334.008317 165.12 
L 334.010243 167.808 
L 334.011514 170.496 
L 334.012145 173.184 
L 334.012145 175.872 
L 334.011514 178.56 
L 334.010243 181.248 
L 334.008317 183.936 
L 334.005714 186.624 
L 334.002402 189.312 
L 333.998341 192 
L 333.993484 194.688 
L 333.987774 197.376 
L 333.981142 200.064 
L 333.973511 202.752 
L 333.964792 205.44 
L 333.954886 208.128 
L 333.943678 210.816 
L 333.93104 213.504 
L 333.916832 216.192 
L 333.900893 218.88 
L 333.88305 221.568 
L 333.863107 224.256 
L 333.84085 226.944 
L 333.816042 229.632 
L 333.788425 232.32 
L 333.757714 235.008 
L 333.723596 237.696 
L 333.685733 240.384 
L 333.643753 243.072 
L 333.597252 245.76 
L 333.545793 248.448 
L 333.4889 251.136 
L 333.42606 253.824 
L 333.356719 256.512 
L 333.280279 259.2 
L 333.196098 261.888 
L 333.103488 264.576 
L 333.001713 267.264 
L 332.889986 269.952 
L 332.767471 272.64 
L 332.633278 275.328 
L 332.486467 278.016 
L 332.326045 280.704 
L 332.150964 283.392 
L 331.960127 286.08 
L 331.752727 288.763532 
L 331.752374 288.768 
L 331.519994 291.456 
L 331.267581 294.144 
L 330.993786 296.832 
L 330.69722 299.52 
L 330.376456 302.208 
L 330.030033 304.896 
L 329.656463 307.584 
" style="fill:none;stroke:#0033e6;stroke-width:1.5;"/>
   </g>
   <g id="LineCollection_10">
    <path clip-path="url(#p9fe0fe5964)" d="M 62.944028 307.584 
L 62.532187 304.896 
L 62.147796 302.208 
L 61.789524 299.52 
L 61.45605 296.832 
L 61.146069 294.144 
L 60.858298 291.456 
L 60.591482 288.768 
L 60.485818 287.614325 
L 60.348296 286.08 
L 60.125962 283.392 
L 59.920443 280.704 
L 59.73068 278.016 
L 59.555657 275.328 
L 59.394399 272.64 
L 59.245975 269.952 
L 59.1095 267.264 
L 58.984133 264.576 
L 58.869076 261.888 
L 58.763577 259.2 
L 58.666929 256.512 
L 58.578465 253.824 
L 58.497559 251.136 
L 58.423629 248.448 
L 58.356127 245.76 
L 58.294547 243.072 
L 58.238415 240.384 
L 58.187293 237.696 
L 58.140774 235.008 
L 58.098484 232.32 
L 58.060075 229.632 
L 58.02523 226.944 
L 57.993656 224.256 
L 57.965084 221.568 
L 57.939268 218.88 
L 57.915985 216.192 
L 57.89503 213.504 
L 57.876219 210.816 
L 57.859384 208.128 
L 57.844375 205.44 
L 57.831056 202.752 
L 57.819307 200.064 
L 57.80902 197.376 
L 57.800102 194.688 
L 57.79247 192 
L 57.786056 189.312 
L 57.780798 186.624 
L 57.77665 183.936 
L 57.773572 181.248 
L 57.771535 178.56 
L 57.770522 175.872 
L 57.770522 173.184 
L 57.771535 170.496 
L 57.773572 167.808 
L 57.77665 165.12 
L 57.780798 162.432 
L 57.786056 159.744 
L 57.79247 157.056 
L 57.800102 154.368 
L 57.80902 151.68 
L 57.819307 148.992 
L 57.831056 146.304 
L 57.844375 143.616 
L 57.859384 140.928 
L 57.876219 138.24 
L 57.89503 135.552 
L 57.915985 132.864 
L 57.939268 130.176 
L 57.965084 127.488 
L 57.993656 124.8 
L 58.02523 122.112 
L 58.060075 119.424 
L 58.098484 116.736 
L 58.140774 114.048 
L 58.187293 111.36 
L 58.238415 108.672 
L 58.294547 105.984 
L 58.356127 103.296 
L 58.423629 100.608 
L 58.497559 97.92 
L 58.578465 95.232 
L 58.666929 92.544 
L 58.763577 89.856 
L 58.869076 87.168 
L 58.984133 84.48 
L 59.1095 81.792 
L 59.245975 79.104 
L 59.394399 76.416 
L 59.555657 73.728 
L 59.73068 71.04 
L 59.920443 68.352 
L 60.125962 65.664 
L 60.348296 62.976 
L 60.485818 61.441675 
L 60.591482 60.288 
L 60.858298 57.6 
L 61.146069 54.912 
L 61.45605 52.224 
L 61.789524 49.536 
L 62.147796 46.848 
L 62.532187 44.16 
L 62.944028 41.472 
" style="fill:none;stroke:#0019f2;stroke-width:1.5;"/>
    <path clip-path="url(#p9fe0fe5964)" d="M 337.951972 41.472 
L 338.363813 44.16 
L 338.748204 46.848 
L 339.106476 49.536 
L 339.43995 52.224 
L 339.749931 54.912 
L 340.037702 57.6 
L 340.304518 60.288 
L 340.410182 61.441675 
L 340.547704 62.976 
L 340.770038 65.664 
L 340.975557 68.352 
L 341.16532 71.04 
L 341.340343 73.728 
L 341.501601 76.416 
L 341.650025 79.104 
L 341.7865 81.792 
L 341.911867 84.48 
L 342.026924 87.168 
L 342.132423 89.856 
L 342.229071 92.544 
L 342.317535 95.232 
L 342.398441 97.92 
L 342.472371 100.608 
L 342.539873 103.296 
L 342.601453 105.984 
L 342.657585 108.672 
L 342.708707 111.36 
L 342.755226 114.048 
L 342.797516 116.736 
L 342.835925 119.424 
L 342.87077 122.112 
L 342.902344 124.8 
L 342.930916 127.488 
L 342.956732 130.176 
L 342.980015 132.864 
L 343.00097 135.552 
L 343.019781 138.24 
L 343.036616 140.928 
L 343.051625 143.616 
L 343.064944 146.304 
L 343.076693 148.992 
L 343.08698 151.68 
L 343.095898 154.368 
L 343.10353 157.056 
L 343.109944 159.744 
L 343.115202 162.432 
L 343.11935 165.12 
L 343.122428 167.808 
L 343.124465 170.496 
L 343.125478 173.184 
L 343.125478 175.872 
L 343.124465 178.56 
L 343.122428 181.248 
L 343.11935 183.936 
L 343.115202 186.624 
L 343.109944 189.312 
L 343.10353 192 
L 343.095898 194.688 
L 343.08698 197.376 
L 343.076693 200.064 
L 343.064944 202.752 
L 343.051625 205.44 
L 343.036616 208.128 
L 343.019781 210.816 
L 343.00097 213.504 
L 342.980015 216.192 
L 342.956732 218.88 
L 342.930916 221.568 
L 342.902344 224.256 
L 342.87077 226.944 
L 342.835925 229.632 
L 342.797516 232.32 
L 342.755226 235.008 
L 342.708707 237.696 
L 342.657585 240.384 
L 342.601453 243.072 
L 342.539873 245.76 
L 342.472371 248.448 
L 342.398441 251.136 
L 342.317535 253.824 
L 342.229071 256.512 
L 342.132423 259.2 
L 342.026924 261.888 
L 341.911867 264.576 
L 341.7865 267.264 
L 341.650025 269.952 
L 341.501601 272.64 
L 341.340343 275.328 
L 341.16532 278.016 
L 340.975557 280.704 
L 340.770038 283.392 
L 340.547704 286.08 
L 340.410182 287.614325 
L 340.304518 288.768 
L 340.037702 291.456 
L 339.749931 294.144 
L 339.43995 296.832 
L 339.106476 299.52 
L 338.748204 302.208 
L 338.363813 304.896 
L 337.951972 307.584 
" style="fill:none;stroke:#0019f2;stroke-width:1.5;"/>
   </g>
   <g id="LineCollection_11"/>
   <g id="patch_3">
    <path d="M 57.6 307.584 
L 57.6 41.472 
" style="fill:none;stroke:#000000;stroke-linecap:square;stroke-linejoin:miter;stroke-width:0.8;"/>
   </g>
   <g id="patch_4">
    <path d="M 343.296 307.584 
L 343.296 41.472 
" style="fill:none;stroke:#000000;stroke-linecap:square;stroke-linejoin:miter;stroke-width:0.8;"/>
   </g>
   <g id="patch_5">
    <path d="M 57.6 307.584 
L 343.296 307.584 
" style="fill:none;stroke:#000000;stroke-linecap:square;stroke-linejoin:miter;stroke-width:0.8;"/>
   </g>
   <g id="patch_6">
    <path d="M 57.6 41.472 
L 343.296 41.472 
" style="fill:none;stroke:#000000;stroke-linecap:square;stroke-linejoin:miter;stroke-width:0.8;"/>
   </g>
  </g>
  <g id="axes_2">
   <g id="patch_7">
    <path clip-path="url(#p0948a46cae)" d="M 361.152 307.584 
L 361.152 280.9728 
L 361.152 68.0832 
L 361.152 41.472 
L 374.4576 41.472 
L 374.4576 68.0832 
L 374.4576 280.9728 
L 374.4576 307.584 
z
" style="fill:#ffffff;stroke:#ffffff;stroke-linejoin:miter;stroke-width:0.01;"/>
   </g>
   <g id="matplotlib.axis_3"/>
   <g id="matplotlib.axis_4">
    <g id="ytick_10">
     <g id="line2d_19">
      <defs>
       <path d="M 0 0 
L 3.5 0 
" id="ma6621fa5d0" style="stroke:#000000;stroke-width:0.8;"/>
      </defs>
      <g>
       <use style="stroke:#000000;stroke-width:0.8;" x="374.4576" xlink:href="#ma6621fa5d0" y="280.9728"/>
      </g>
     </g>
     <g id="text_19">
      <!-- 0 -->
      <g transform="translate(381.4576 284.772019)scale(0.1 -0.1)">
       <use xlink:href="#DejaVuSans-48"/>
      </g>
     </g>
    </g>
    <g id="ytick_11">
     <g id="line2d_20">
      <g>
       <use style="stroke:#000000;stroke-width:0.8;" x="374.4576" xlink:href="#ma6621fa5d0" y="227.7504"/>
      </g>
     </g>
     <g id="text_20">
      <!-- 1 -->
      <g transform="translate(381.4576 231.549619)scale(0.1 -0.1)">
       <use xlink:href="#DejaVuSans-49"/>
      </g>
     </g>
    </g>
    <g id="ytick_12">
     <g id="line2d_21">
      <g>
       <use style="stroke:#000000;stroke-width:0.8;" x="374.4576" xlink:href="#ma6621fa5d0" y="174.528"/>
      </g>
     </g>
     <g id="text_21">
      <!-- 2 -->
      <g transform="translate(381.4576 178.327219)scale(0.1 -0.1)">
       <use xlink:href="#DejaVuSans-50"/>
      </g>
     </g>
    </g>
    <g id="ytick_13">
     <g id="line2d_22">
      <g>
       <use style="stroke:#000000;stroke-width:0.8;" x="374.4576" xlink:href="#ma6621fa5d0" y="121.3056"/>
      </g>
     </g>
     <g id="text_22">
      <!-- 3 -->
      <defs>
       <path d="M 40.578125 39.3125 
Q 47.65625 37.796875 51.625 33 
Q 55.609375 28.21875 55.609375 21.1875 
Q 55.609375 10.40625 48.1875 4.484375 
Q 40.765625 -1.421875 27.09375 -1.421875 
Q 22.515625 -1.421875 17.65625 -0.515625 
Q 12.796875 0.390625 7.625 2.203125 
L 7.625 11.71875 
Q 11.71875 9.328125 16.59375 8.109375 
Q 21.484375 6.890625 26.8125 6.890625 
Q 36.078125 6.890625 40.9375 10.546875 
Q 45.796875 14.203125 45.796875 21.1875 
Q 45.796875 27.640625 41.28125 31.265625 
Q 36.765625 34.90625 28.71875 34.90625 
L 20.21875 34.90625 
L 20.21875 43.015625 
L 29.109375 43.015625 
Q 36.375 43.015625 40.234375 45.921875 
Q 44.09375 48.828125 44.09375 54.296875 
Q 44.09375 59.90625 40.109375 62.90625 
Q 36.140625 65.921875 28.71875 65.921875 
Q 24.65625 65.921875 20.015625 65.03125 
Q 15.375 64.15625 9.8125 62.3125 
L 9.8125 71.09375 
Q 15.4375 72.65625 20.34375 73.4375 
Q 25.25 74.21875 29.59375 74.21875 
Q 40.828125 74.21875 47.359375 69.109375 
Q 53.90625 64.015625 53.90625 55.328125 
Q 53.90625 49.265625 50.4375 45.09375 
Q 46.96875 40.921875 40.578125 39.3125 
z
" id="DejaVuSans-51"/>
      </defs>
      <g transform="translate(381.4576 125.104819)scale(0.1 -0.1)">
       <use xlink:href="#DejaVuSans-51"/>
      </g>
     </g>
    </g>
    <g id="ytick_14">
     <g id="line2d_23">
      <g>
       <use style="stroke:#000000;stroke-width:0.8;" x="374.4576" xlink:href="#ma6621fa5d0" y="68.0832"/>
      </g>
     </g>
     <g id="text_23">
      <!-- 4 -->
      <defs>
       <path d="M 37.796875 64.3125 
L 12.890625 25.390625 
L 37.796875 25.390625 
z
M 35.203125 72.90625 
L 47.609375 72.90625 
L 47.609375 25.390625 
L 58.015625 25.390625 
L 58.015625 17.1875 
L 47.609375 17.1875 
L 47.609375 0 
L 37.796875 0 
L 37.796875 17.1875 
L 4.890625 17.1875 
L 4.890625 26.703125 
z
" id="DejaVuSans-52"/>
      </defs>
      <g transform="translate(381.4576 71.882419)scale(0.1 -0.1)">
       <use xlink:href="#DejaVuSans-52"/>
      </g>
     </g>
    </g>
    <g id="text_24">
     <!-- 1e7 -->
     <defs>
      <path d="M 56.203125 29.59375 
L 56.203125 25.203125 
L 14.890625 25.203125 
Q 15.484375 15.921875 20.484375 11.0625 
Q 25.484375 6.203125 34.421875 6.203125 
Q 39.59375 6.203125 44.453125 7.46875 
Q 49.3125 8.734375 54.109375 11.28125 
L 54.109375 2.78125 
Q 49.265625 0.734375 44.1875 -0.34375 
Q 39.109375 -1.421875 33.890625 -1.421875 
Q 20.796875 -1.421875 13.15625 6.1875 
Q 5.515625 13.8125 5.515625 26.8125 
Q 5.515625 40.234375 12.765625 48.109375 
Q 20.015625 56 32.328125 56 
Q 43.359375 56 49.78125 48.890625 
Q 56.203125 41.796875 56.203125 29.59375 
z
M 47.21875 32.234375 
Q 47.125 39.59375 43.09375 43.984375 
Q 39.0625 48.390625 32.421875 48.390625 
Q 24.90625 48.390625 20.390625 44.140625 
Q 15.875 39.890625 15.1875 32.171875 
z
" id="DejaVuSans-101"/>
      <path d="M 8.203125 72.90625 
L 55.078125 72.90625 
L 55.078125 68.703125 
L 28.609375 0 
L 18.3125 0 
L 43.21875 64.59375 
L 8.203125 64.59375 
z
" id="DejaVuSans-55"/>
     </defs>
     <g transform="translate(355.579475 38.472)scale(0.1 -0.1)">
      <use xlink:href="#DejaVuSans-49"/>
      <use x="63.623047" xlink:href="#DejaVuSans-101"/>
      <use x="125.146484" xlink:href="#DejaVuSans-55"/>
     </g>
    </g>
   </g>
   <g id="LineCollection_12">
    <path clip-path="url(#p0948a46cae)" d="M 361.152 307.584 
L 374.4576 307.584 
" style="fill:none;stroke:#00ff80;stroke-width:1.5;"/>
    <path clip-path="url(#p0948a46cae)" d="M 361.152 280.9728 
L 374.4576 280.9728 
" style="fill:none;stroke:#00e68c;stroke-width:1.5;"/>
    <path clip-path="url(#p0948a46cae)" d="M 361.152 254.3616 
L 374.4576 254.3616 
" style="fill:none;stroke:#00cc99;stroke-width:1.5;"/>
    <path clip-path="url(#p0948a46cae)" d="M 361.152 227.7504 
L 374.4576 227.7504 
" style="fill:none;stroke:#00b3a6;stroke-width:1.5;"/>
    <path clip-path="url(#p0948a46cae)" d="M 361.152 201.1392 
L 374.4576 201.1392 
" style="fill:none;stroke:#0099b2;stroke-width:1.5;"/>
    <path clip-path="url(#p0948a46cae)" d="M 361.152 174.528 
L 374.4576 174.528 
" style="fill:none;stroke:#007fc0;stroke-width:1.5;"/>
    <path clip-path="url(#p0948a46cae)" d="M 361.152 147.9168 
L 374.4576 147.9168 
" style="fill:none;stroke:#0066cc;stroke-width:1.5;"/>
    <path clip-path="url(#p0948a46cae)" d="M 361.152 121.3056 
L 374.4576 121.3056 
" style="fill:none;stroke:#004cd9;stroke-width:1.5;"/>
    <path clip-path="url(#p0948a46cae)" d="M 361.152 94.6944 
L 374.4576 94.6944 
" style="fill:none;stroke:#0033e6;stroke-width:1.5;"/>
    <path clip-path="url(#p0948a46cae)" d="M 361.152 68.0832 
L 374.4576 68.0832 
" style="fill:none;stroke:#0019f2;stroke-width:1.5;"/>
    <path clip-path="url(#p0948a46cae)" d="M 361.152 41.472 
L 374.4576 41.472 
" style="fill:none;stroke:#0000ff;stroke-width:1.5;"/>
   </g>
   <g id="patch_8">
    <path d="M 361.152 307.584 
L 361.152 280.9728 
L 361.152 68.0832 
L 361.152 41.472 
L 374.4576 41.472 
L 374.4576 68.0832 
L 374.4576 280.9728 
L 374.4576 307.584 
z
" style="fill:none;stroke:#000000;stroke-linejoin:miter;stroke-width:0.8;"/>
   </g>
  </g>
 </g>
 <defs>
  <clipPath id="p9fe0fe5964">
   <rect height="266.112" width="285.696" x="57.6" y="41.472"/>
  </clipPath>
  <clipPath id="p0948a46cae">
   <rect height="266.112" width="13.3056" x="361.152" y="41.472"/>
  </clipPath>
 </defs>
</svg>
