<?xml version="1.0" encoding="utf-8" standalone="no"?>
<!DOCTYPE svg PUBLIC "-//W3C//DTD SVG 1.1//EN"
  "http://www.w3.org/Graphics/SVG/1.1/DTD/svg11.dtd">
<!-- Created with matplotlib (https://matplotlib.org/) -->
<svg height="345.6pt" version="1.1" viewBox="0 0 460.8 345.6" width="460.8pt" xmlns="http://www.w3.org/2000/svg" xmlns:xlink="http://www.w3.org/1999/xlink">
 <defs>
  <style type="text/css">
*{stroke-linecap:butt;stroke-linejoin:round;}
  </style>
 </defs>
 <g id="figure_1">
  <g id="patch_1">
   <path d="M 0 345.6 
L 460.8 345.6 
L 460.8 0 
L 0 0 
z
" style="fill:#ffffff;"/>
  </g>
  <g id="axes_1">
   <g id="patch_2">
    <path d="M 57.6 307.584 
L 343.296 307.584 
L 343.296 41.472 
L 57.6 41.472 
z
" style="fill:#ffffff;"/>
   </g>
   <g id="matplotlib.axis_1">
    <g id="xtick_1">
     <g id="line2d_1">
      <defs>
       <path d="M 0 0 
L 0 3.5 
" id="mbb3b829d88" style="stroke:#000000;stroke-width:0.8;"/>
      </defs>
      <g>
       <use style="stroke:#000000;stroke-width:0.8;" x="86.1696" xlink:href="#mbb3b829d88" y="307.584"/>
      </g>
     </g>
     <g id="text_1">
      <!-- −40 -->
      <defs>
       <path d="M 10.59375 35.5 
L 73.1875 35.5 
L 73.1875 27.203125 
L 10.59375 27.203125 
z
" id="DejaVuSans-8722"/>
       <path d="M 37.796875 64.3125 
L 12.890625 25.390625 
L 37.796875 25.390625 
z
M 35.203125 72.90625 
L 47.609375 72.90625 
L 47.609375 25.390625 
L 58.015625 25.390625 
L 58.015625 17.1875 
L 47.609375 17.1875 
L 47.609375 0 
L 37.796875 0 
L 37.796875 17.1875 
L 4.890625 17.1875 
L 4.890625 26.703125 
z
" id="DejaVuSans-52"/>
       <path d="M 31.78125 66.40625 
Q 24.171875 66.40625 20.328125 58.90625 
Q 16.5 51.421875 16.5 36.375 
Q 16.5 21.390625 20.328125 13.890625 
Q 24.171875 6.390625 31.78125 6.390625 
Q 39.453125 6.390625 43.28125 13.890625 
Q 47.125 21.390625 47.125 36.375 
Q 47.125 51.421875 43.28125 58.90625 
Q 39.453125 66.40625 31.78125 66.40625 
z
M 31.78125 74.21875 
Q 44.046875 74.21875 50.515625 64.515625 
Q 56.984375 54.828125 56.984375 36.375 
Q 56.984375 17.96875 50.515625 8.265625 
Q 44.046875 -1.421875 31.78125 -1.421875 
Q 19.53125 -1.421875 13.0625 8.265625 
Q 6.59375 17.96875 6.59375 36.375 
Q 6.59375 54.828125 13.0625 64.515625 
Q 19.53125 74.21875 31.78125 74.21875 
z
" id="DejaVuSans-48"/>
      </defs>
      <g transform="translate(75.617256 322.182437)scale(0.1 -0.1)">
       <use xlink:href="#DejaVuSans-8722"/>
       <use x="83.789062" xlink:href="#DejaVuSans-52"/>
       <use x="147.412109" xlink:href="#DejaVuSans-48"/>
      </g>
     </g>
    </g>
    <g id="xtick_2">
     <g id="line2d_2">
      <g>
       <use style="stroke:#000000;stroke-width:0.8;" x="143.3088" xlink:href="#mbb3b829d88" y="307.584"/>
      </g>
     </g>
     <g id="text_2">
      <!-- −20 -->
      <defs>
       <path d="M 19.1875 8.296875 
L 53.609375 8.296875 
L 53.609375 0 
L 7.328125 0 
L 7.328125 8.296875 
Q 12.9375 14.109375 22.625 23.890625 
Q 32.328125 33.6875 34.8125 36.53125 
Q 39.546875 41.84375 41.421875 45.53125 
Q 43.3125 49.21875 43.3125 52.78125 
Q 43.3125 58.59375 39.234375 62.25 
Q 35.15625 65.921875 28.609375 65.921875 
Q 23.96875 65.921875 18.8125 64.3125 
Q 13.671875 62.703125 7.8125 59.421875 
L 7.8125 69.390625 
Q 13.765625 71.78125 18.9375 73 
Q 24.125 74.21875 28.421875 74.21875 
Q 39.75 74.21875 46.484375 68.546875 
Q 53.21875 62.890625 53.21875 53.421875 
Q 53.21875 48.921875 51.53125 44.890625 
Q 49.859375 40.875 45.40625 35.40625 
Q 44.1875 33.984375 37.640625 27.21875 
Q 31.109375 20.453125 19.1875 8.296875 
z
" id="DejaVuSans-50"/>
      </defs>
      <g transform="translate(132.756456 322.182437)scale(0.1 -0.1)">
       <use xlink:href="#DejaVuSans-8722"/>
       <use x="83.789062" xlink:href="#DejaVuSans-50"/>
       <use x="147.412109" xlink:href="#DejaVuSans-48"/>
      </g>
     </g>
    </g>
    <g id="xtick_3">
     <g id="line2d_3">
      <g>
       <use style="stroke:#000000;stroke-width:0.8;" x="200.448" xlink:href="#mbb3b829d88" y="307.584"/>
      </g>
     </g>
     <g id="text_3">
      <!-- 0 -->
      <g transform="translate(197.26675 322.182437)scale(0.1 -0.1)">
       <use xlink:href="#DejaVuSans-48"/>
      </g>
     </g>
    </g>
    <g id="xtick_4">
     <g id="line2d_4">
      <g>
       <use style="stroke:#000000;stroke-width:0.8;" x="257.5872" xlink:href="#mbb3b829d88" y="307.584"/>
      </g>
     </g>
     <g id="text_4">
      <!-- 20 -->
      <g transform="translate(251.2247 322.182437)scale(0.1 -0.1)">
       <use xlink:href="#DejaVuSans-50"/>
       <use x="63.623047" xlink:href="#DejaVuSans-48"/>
      </g>
     </g>
    </g>
    <g id="xtick_5">
     <g id="line2d_5">
      <g>
       <use style="stroke:#000000;stroke-width:0.8;" x="314.7264" xlink:href="#mbb3b829d88" y="307.584"/>
      </g>
     </g>
     <g id="text_5">
      <!-- 40 -->
      <g transform="translate(308.3639 322.182437)scale(0.1 -0.1)">
       <use xlink:href="#DejaVuSans-52"/>
       <use x="63.623047" xlink:href="#DejaVuSans-48"/>
      </g>
     </g>
    </g>
   </g>
   <g id="matplotlib.axis_2">
    <g id="ytick_1">
     <g id="line2d_6">
      <defs>
       <path d="M 0 0 
L -3.5 0 
" id="m67e82c8bf3" style="stroke:#000000;stroke-width:0.8;"/>
      </defs>
      <g>
       <use style="stroke:#000000;stroke-width:0.8;" x="57.6" xlink:href="#m67e82c8bf3" y="280.9728"/>
      </g>
     </g>
     <g id="text_6">
      <!-- −40 -->
      <g transform="translate(29.495313 284.772019)scale(0.1 -0.1)">
       <use xlink:href="#DejaVuSans-8722"/>
       <use x="83.789062" xlink:href="#DejaVuSans-52"/>
       <use x="147.412109" xlink:href="#DejaVuSans-48"/>
      </g>
     </g>
    </g>
    <g id="ytick_2">
     <g id="line2d_7">
      <g>
       <use style="stroke:#000000;stroke-width:0.8;" x="57.6" xlink:href="#m67e82c8bf3" y="227.7504"/>
      </g>
     </g>
     <g id="text_7">
      <!-- −20 -->
      <g transform="translate(29.495313 231.549619)scale(0.1 -0.1)">
       <use xlink:href="#DejaVuSans-8722"/>
       <use x="83.789062" xlink:href="#DejaVuSans-50"/>
       <use x="147.412109" xlink:href="#DejaVuSans-48"/>
      </g>
     </g>
    </g>
    <g id="ytick_3">
     <g id="line2d_8">
      <g>
       <use style="stroke:#000000;stroke-width:0.8;" x="57.6" xlink:href="#m67e82c8bf3" y="174.528"/>
      </g>
     </g>
     <g id="text_8">
      <!-- 0 -->
      <g transform="translate(44.2375 178.327219)scale(0.1 -0.1)">
       <use xlink:href="#DejaVuSans-48"/>
      </g>
     </g>
    </g>
    <g id="ytick_4">
     <g id="line2d_9">
      <g>
       <use style="stroke:#000000;stroke-width:0.8;" x="57.6" xlink:href="#m67e82c8bf3" y="121.3056"/>
      </g>
     </g>
     <g id="text_9">
      <!-- 20 -->
      <g transform="translate(37.875 125.104819)scale(0.1 -0.1)">
       <use xlink:href="#DejaVuSans-50"/>
       <use x="63.623047" xlink:href="#DejaVuSans-48"/>
      </g>
     </g>
    </g>
    <g id="ytick_5">
     <g id="line2d_10">
      <g>
       <use style="stroke:#000000;stroke-width:0.8;" x="57.6" xlink:href="#m67e82c8bf3" y="68.0832"/>
      </g>
     </g>
     <g id="text_10">
      <!-- 40 -->
      <g transform="translate(37.875 71.882419)scale(0.1 -0.1)">
       <use xlink:href="#DejaVuSans-52"/>
       <use x="63.623047" xlink:href="#DejaVuSans-48"/>
      </g>
     </g>
    </g>
   </g>
   <g id="LineCollection_1"/>
   <g id="LineCollection_2">
    <path clip-path="url(#pb85d0a5505)" d="M 210.548364 166.075476 
L 209.522571 165.12 
L 210.548364 164.83033 
L 210.859352 165.12 
L 210.548364 166.075476 
" style="fill:none;stroke:#00e38e;stroke-width:1.5;"/>
   </g>
   <g id="LineCollection_3">
    <path clip-path="url(#pb85d0a5505)" d="M 210.548364 167.243802 
L 208.268265 165.12 
L 210.548364 164.47613 
L 211.239618 165.12 
L 210.548364 167.243802 
" style="fill:none;stroke:#00c79c;stroke-width:1.5;"/>
   </g>
   <g id="LineCollection_4">
    <path clip-path="url(#pb85d0a5505)" d="M 210.548364 168.058163 
L 209.629303 167.808 
L 207.662545 165.97606 
L 207.393972 165.12 
L 207.662545 164.860469 
L 210.548364 164.12193 
L 211.619884 165.12 
L 210.826994 167.808 
L 210.548364 168.058163 
" style="fill:none;stroke:#00aaaa;stroke-width:1.5;"/>
   </g>
   <g id="LineCollection_5">
    <path clip-path="url(#pb85d0a5505)" d="M 210.548364 168.541954 
L 207.851927 167.808 
L 207.662545 167.6316 
L 206.874577 165.12 
L 207.662545 164.358562 
L 210.548364 163.76773 
L 212.000151 165.12 
L 211.365838 167.808 
L 210.548364 168.541954 
" style="fill:none;stroke:#008eb8;stroke-width:1.5;"/>
   </g>
   <g id="LineCollection_6">
    <path clip-path="url(#pb85d0a5505)" d="M 207.662545 168.420496 
L 207.004974 167.808 
L 206.355182 165.12 
L 207.662545 163.856654 
L 210.548364 163.413531 
L 212.380417 165.12 
L 211.904683 167.808 
L 210.548364 169.025746 
L 207.662545 168.420496 
" style="fill:none;stroke:#0071c6;stroke-width:1.5;"/>
   </g>
   <g id="LineCollection_7">
    <path clip-path="url(#pb85d0a5505)" d="M 207.662545 169.106037 
L 206.268982 167.808 
L 205.835787 165.12 
L 207.662545 163.354747 
L 210.548364 163.059331 
L 212.760684 165.12 
L 212.443528 167.808 
L 210.548364 169.509537 
L 207.662545 169.106037 
" style="fill:none;stroke:#0055d4;stroke-width:1.5;"/>
   </g>
   <g id="LineCollection_8">
    <path clip-path="url(#pb85d0a5505)" d="M 207.662545 169.791578 
L 205.53299 167.808 
L 205.316392 165.12 
L 207.662545 162.852839 
L 210.548364 162.705131 
L 213.14095 165.12 
L 212.982372 167.808 
L 210.548364 169.993328 
L 207.662545 169.791578 
" style="fill:none;stroke:#0038e3;stroke-width:1.5;"/>
   </g>
   <g id="LineCollection_9">
    <path clip-path="url(#pb85d0a5505)" d="M 207.662545 240.384 
L 210.548364 240.384 
L 213.434182 240.384 
L 216.06957 237.696 
L 213.434182 237.696 
L 210.548364 237.696 
L 207.662545 237.696 
L 204.796997 237.696 
L 207.662545 240.384 
" style="fill:none;stroke:#001cf1;stroke-width:1.5;"/>
    <path clip-path="url(#pb85d0a5505)" d="M 184.576 237.696 
L 184.576002 235.008 
L 184.576001 232.32 
L 184.576001 229.632 
L 187.461818 229.632 
L 190.347636 229.632 
L 193.233455 229.632 
L 193.234707 226.944 
L 193.234707 224.256 
L 193.234707 221.568 
L 196.119273 221.568 
L 199.005091 221.568 
L 201.890909 221.568 
L 204.776727 221.568 
L 204.796997 218.88 
L 204.796997 216.192 
L 204.796997 213.504 
L 207.662545 213.504 
L 210.548364 213.504 
L 213.434182 213.504 
L 216.06957 213.504 
L 216.06957 216.192 
L 216.06957 218.88 
L 216.32 221.568 
L 219.205818 221.568 
L 222.091636 221.568 
L 224.977129 221.568 
L 224.977129 224.256 
L 224.977129 226.944 
L 224.977455 229.632 
L 227.863273 229.632 
L 230.749091 229.632 
L 233.634909 229.632 
L 233.634909 232.32 
L 233.634909 235.008 
L 233.634909 237.696 
L 236.520727 235.008 
L 239.406545 235.008 
L 242.292364 232.32 
L 242.292364 229.632 
L 239.406545 229.632 
L 236.520727 229.632 
L 233.634909 229.632 
L 233.634909 226.944 
L 233.634909 224.256 
L 233.634909 221.568 
L 230.749091 221.568 
L 227.863273 221.568 
L 224.977455 221.568 
L 224.977129 218.88 
L 224.977129 216.192 
L 224.977129 213.504 
L 222.091636 213.504 
L 219.205818 213.504 
L 216.32 213.504 
L 216.06957 210.816 
L 216.06957 208.128 
L 216.06957 205.44 
L 213.434182 205.44 
L 210.548364 205.44 
L 207.662545 205.44 
L 204.796997 205.44 
L 204.796997 208.128 
L 204.796997 210.816 
L 204.776727 213.504 
L 201.890909 213.504 
L 199.005091 213.504 
L 196.119273 213.504 
L 193.234707 213.504 
L 193.234707 216.192 
L 193.234707 218.88 
L 193.233455 221.568 
L 190.347636 221.568 
L 187.461818 221.568 
L 184.576001 221.568 
L 184.576001 224.256 
L 184.576001 226.944 
L 184.576 229.632 
L 181.690182 229.632 
L 178.804364 229.632 
L 175.918545 229.632 
L 175.918545 232.32 
L 178.804364 235.008 
L 181.690182 235.008 
L 184.576 237.696 
" style="fill:none;stroke:#001cf1;stroke-width:1.5;"/>
    <path clip-path="url(#pb85d0a5505)" d="M 196.119273 237.696 
L 199.005091 237.696 
L 201.890909 237.696 
L 204.776727 237.696 
L 204.796997 235.008 
L 204.796997 232.32 
L 204.796997 229.632 
L 207.662545 229.632 
L 210.548364 229.632 
L 213.434182 229.632 
L 216.06957 229.632 
L 216.06957 232.32 
L 216.06957 235.008 
L 216.32 237.696 
L 219.205818 237.696 
L 222.091636 237.696 
L 224.977129 235.008 
L 224.977129 232.32 
L 224.977129 229.632 
L 222.091636 229.632 
L 219.205818 229.632 
L 216.32 229.632 
L 216.06957 226.944 
L 216.06957 224.256 
L 216.06957 221.568 
L 213.434182 221.568 
L 210.548364 221.568 
L 207.662545 221.568 
L 204.796997 221.568 
L 204.796997 224.256 
L 204.796997 226.944 
L 204.776727 229.632 
L 201.890909 229.632 
L 199.005091 229.632 
L 196.119273 229.632 
L 193.234707 229.632 
L 193.234707 232.32 
L 193.234707 235.008 
L 196.119273 237.696 
" style="fill:none;stroke:#001cf1;stroke-width:1.5;"/>
    <path clip-path="url(#pb85d0a5505)" d="M 170.146909 229.632 
L 173.032727 229.632 
L 175.918545 229.632 
L 175.918545 226.944 
L 175.918545 224.256 
L 175.918545 221.568 
L 178.804364 221.568 
L 181.690182 221.568 
L 184.576 221.568 
L 184.576001 218.88 
L 184.576001 216.192 
L 184.576001 213.504 
L 187.461818 213.504 
L 190.347636 213.504 
L 193.233455 213.504 
L 193.234707 210.816 
L 193.234707 208.128 
L 193.234707 205.44 
L 196.119273 205.44 
L 199.005091 205.44 
L 201.890909 205.44 
L 204.776727 205.44 
L 204.796997 202.752 
L 204.796997 200.064 
L 204.796997 197.376 
L 207.662545 197.376 
L 210.548364 197.376 
L 213.434182 197.376 
L 216.06957 197.376 
L 216.06957 200.064 
L 216.06957 202.752 
L 216.32 205.44 
L 219.205818 205.44 
L 222.091636 205.44 
L 224.977129 205.44 
L 224.977129 208.128 
L 224.977129 210.816 
L 224.977455 213.504 
L 227.863273 213.504 
L 230.749091 213.504 
L 233.634909 213.504 
L 233.634909 216.192 
L 233.634909 218.88 
L 233.634909 221.568 
L 236.520727 221.568 
L 239.406545 221.568 
L 242.292364 221.568 
L 242.292364 224.256 
L 242.292364 226.944 
L 242.292364 229.632 
L 245.178182 229.632 
L 248.064 229.632 
L 250.949818 226.944 
L 250.949818 224.256 
L 250.949818 221.568 
L 248.064 221.568 
L 245.178182 221.568 
L 242.292364 221.568 
L 242.292364 218.88 
L 242.292364 216.192 
L 242.292364 213.504 
L 239.406545 213.504 
L 236.520727 213.504 
L 233.634909 213.504 
L 233.634909 210.816 
L 233.634909 208.128 
L 233.634909 205.44 
L 230.749091 205.44 
L 227.863273 205.44 
L 224.977455 205.44 
L 224.977129 202.752 
L 224.977129 200.064 
L 224.977129 197.376 
L 222.091636 197.376 
L 219.205818 197.376 
L 216.32 197.376 
L 216.06957 194.688 
L 216.06957 192 
L 216.06957 189.312 
L 213.434182 189.311999 
L 210.548364 189.311999 
L 207.662545 189.311999 
L 204.796997 189.312 
L 204.796997 192 
L 204.796997 194.688 
L 204.776727 197.376 
L 201.890909 197.376 
L 199.005091 197.376 
L 196.119273 197.376 
L 193.234707 197.376 
L 193.234707 200.064 
L 193.234707 202.752 
L 193.233455 205.44 
L 190.347636 205.44 
L 187.461818 205.44 
L 184.576001 205.44 
L 184.576001 208.128 
L 184.576001 210.816 
L 184.576 213.504 
L 181.690182 213.504 
L 178.804364 213.504 
L 175.918545 213.504 
L 175.918545 216.192 
L 175.918545 218.88 
L 175.918545 221.568 
L 173.032727 221.568 
L 170.146909 221.568 
L 167.261091 221.568 
L 167.261091 224.256 
L 167.261091 226.944 
L 170.146909 229.632 
" style="fill:none;stroke:#001cf1;stroke-width:1.5;"/>
    <path clip-path="url(#pb85d0a5505)" d="M 259.607273 224.256 
L 262.493091 221.568 
L 259.607273 221.568 
L 259.607273 213.504 
L 250.949818 213.504 
L 250.949818 205.44 
L 242.292364 205.44 
L 242.292364 197.376 
L 233.634909 197.376 
L 233.634909 189.312 
L 224.977455 189.311999 
L 224.977129 181.248 
L 216.32 181.246833 
L 216.06957 178.56 
L 216.06957 170.496 
L 204.796997 170.496 
L 204.776727 181.246833 
L 193.234707 181.248 
L 193.233455 189.311999 
L 184.576001 189.312 
L 184.576 197.376 
L 175.918545 197.376 
L 175.918545 205.44 
L 167.261091 205.44 
L 167.261091 213.504 
L 158.603636 213.504 
L 158.603636 218.88 
L 161.489455 221.568 
L 167.261091 221.568 
L 167.261091 213.504 
L 175.918545 213.504 
L 175.918545 205.44 
L 184.576 205.44 
L 184.576001 197.376 
L 193.233455 197.376 
L 193.234707 189.312 
L 204.776727 189.311999 
L 204.796997 181.248 
L 216.06957 181.248 
L 216.06957 186.624 
L 216.32 189.311999 
L 224.977129 189.312 
L 224.977455 197.376 
L 233.634909 197.376 
L 233.634909 205.44 
L 242.292364 205.44 
L 242.292364 213.504 
L 250.949818 213.504 
L 250.949818 221.568 
L 259.607273 221.568 
L 259.607273 224.256 
L 259.607273 224.256 
" style="fill:none;stroke:#001cf1;stroke-width:1.5;"/>
    <path clip-path="url(#pb85d0a5505)" d="M 268.264727 216.192 
L 271.150545 213.504 
L 268.264727 213.504 
L 268.264727 205.44 
L 259.607273 205.44 
L 259.607273 197.376 
L 250.949818 197.376 
L 250.949818 189.312 
L 242.292364 189.311999 
L 242.292364 181.248 
L 233.634909 181.246833 
L 233.634909 170.496 
L 224.977455 170.47712 
L 224.977455 159.977263 
L 230.749091 159.977263 
L 233.634909 159.744 
L 233.634909 151.680303 
L 242.292364 151.68 
L 242.292364 143.616 
L 250.949818 143.616 
L 250.949818 135.552 
L 259.607273 135.552 
L 259.607273 127.488 
L 268.264727 127.488 
L 268.264727 119.424 
L 271.150545 119.424 
L 268.264727 116.736 
L 268.264727 119.424 
L 259.607273 119.424 
L 259.607273 127.488 
L 250.949818 127.488 
L 250.949818 135.552 
L 242.292364 135.552 
L 242.292364 143.616 
L 233.634909 143.616 
L 233.634909 151.68 
L 224.977455 151.680303 
L 224.977129 159.744 
L 222.091636 159.977263 
L 216.32 159.977263 
L 216.06957 162.432 
L 216.06957 167.808 
L 216.32 170.47712 
L 224.977129 170.496 
L 224.977455 181.246833 
L 233.634909 181.248 
L 233.634909 189.311999 
L 242.292364 189.312 
L 242.292364 197.376 
L 250.949818 197.376 
L 250.949818 205.44 
L 259.607273 205.44 
L 259.607273 213.504 
L 268.264727 213.504 
L 268.264727 216.192 
L 268.264727 216.192 
" style="fill:none;stroke:#001cf1;stroke-width:1.5;"/>
    <path clip-path="url(#pb85d0a5505)" d="M 152.832 213.504 
L 158.603636 213.504 
L 158.603636 205.44 
L 167.261091 205.44 
L 167.261091 197.376 
L 175.918545 197.376 
L 175.918545 189.312 
L 184.576 189.311999 
L 184.576001 181.248 
L 193.233455 181.246833 
L 193.234707 170.496 
L 204.776727 170.47712 
L 204.776727 159.977263 
L 196.119273 159.977263 
L 193.234707 159.744 
L 193.233455 151.680303 
L 184.576001 151.68 
L 184.576 143.616 
L 175.918545 143.616 
L 175.918545 135.552 
L 167.261091 135.552 
L 167.261091 127.488 
L 158.603636 127.488 
L 158.603636 119.424 
L 149.946182 119.424 
L 149.946182 116.736 
L 147.060364 119.424 
L 149.946182 119.424 
L 149.946182 127.488 
L 158.603636 127.488 
L 158.603636 135.552 
L 167.261091 135.552 
L 167.261091 143.616 
L 175.918545 143.616 
L 175.918545 151.68 
L 184.576 151.680303 
L 184.576001 159.744 
L 187.461818 159.977263 
L 193.233455 159.977263 
L 193.233455 170.47712 
L 184.576001 170.496 
L 184.576 181.246833 
L 175.918545 181.248 
L 175.918545 189.311999 
L 167.261091 189.312 
L 167.261091 197.376 
L 158.603636 197.376 
L 158.603636 205.44 
L 149.946182 205.44 
L 149.946182 210.816 
L 152.832 213.504 
L 152.832 213.504 
" style="fill:none;stroke:#001cf1;stroke-width:1.5;"/>
    <path clip-path="url(#pb85d0a5505)" d="M 144.174545 205.44 
L 147.060364 205.44 
L 149.946182 205.44 
L 149.946182 202.752 
L 149.946182 200.064 
L 149.946182 197.376 
L 152.832 197.376 
L 155.717818 197.376 
L 158.603636 197.376 
L 158.603636 194.688 
L 158.603636 192 
L 158.603636 189.312 
L 161.489455 189.311999 
L 164.375273 189.311999 
L 167.261091 189.311999 
L 167.261091 186.624 
L 167.261091 183.936 
L 167.261091 181.248 
L 170.146909 181.246833 
L 173.032727 181.246833 
L 175.918545 181.246833 
L 175.918545 178.56 
L 175.918545 175.872 
L 175.918545 173.184 
L 175.918545 170.496 
L 178.804364 170.47712 
L 181.690182 170.47712 
L 184.576 170.47712 
L 184.576001 167.808 
L 184.576001 165.12 
L 184.576001 162.432 
L 184.576 159.977263 
L 181.690182 159.977263 
L 178.804364 159.977263 
L 175.918545 159.744 
L 175.918545 157.056 
L 175.918545 154.368 
L 175.918545 151.680303 
L 173.032727 151.680303 
L 170.146909 151.680303 
L 167.261091 151.68 
L 167.261091 148.992 
L 167.261091 146.304 
L 167.261091 143.616 
L 164.375273 143.616 
L 161.489455 143.616 
L 158.603636 143.616 
L 158.603636 140.928 
L 158.603636 138.24 
L 158.603636 135.552 
L 155.717818 135.552 
L 152.832 135.552 
L 149.946182 135.552 
L 149.946182 132.864 
L 149.946182 130.176 
L 149.946182 127.488 
L 147.060364 127.488 
L 144.174545 127.488 
L 141.288727 130.176 
L 141.288727 132.864 
L 141.288727 135.552 
L 144.174545 135.552 
L 147.060364 135.552 
L 149.946182 135.552 
L 149.946182 138.24 
L 149.946182 140.928 
L 149.946182 143.616 
L 152.832 143.616 
L 155.717818 143.616 
L 158.603636 143.616 
L 158.603636 146.304 
L 158.603636 148.992 
L 158.603636 151.68 
L 161.489455 151.680303 
L 164.375273 151.680303 
L 167.261091 151.680303 
L 167.261091 154.368 
L 167.261091 157.056 
L 167.261091 159.744 
L 170.146909 159.977263 
L 173.032727 159.977263 
L 175.918545 159.977263 
L 175.918545 162.432 
L 175.918545 165.12 
L 175.918545 167.808 
L 175.918545 170.47712 
L 173.032727 170.47712 
L 170.146909 170.47712 
L 167.261091 170.496 
L 167.261091 173.184 
L 167.261091 175.872 
L 167.261091 178.56 
L 167.261091 181.246833 
L 164.375273 181.246833 
L 161.489455 181.246833 
L 158.603636 181.248 
L 158.603636 183.936 
L 158.603636 186.624 
L 158.603636 189.311999 
L 155.717818 189.311999 
L 152.832 189.311999 
L 149.946182 189.312 
L 149.946182 192 
L 149.946182 194.688 
L 149.946182 197.376 
L 147.060364 197.376 
L 144.174545 197.376 
L 141.288727 197.376 
L 141.288727 200.064 
L 141.288727 202.752 
L 144.174545 205.44 
" style="fill:none;stroke:#001cf1;stroke-width:1.5;"/>
    <path clip-path="url(#pb85d0a5505)" d="M 268.264727 205.44 
L 271.150545 205.44 
L 274.036364 205.44 
L 276.922182 202.752 
L 276.922182 200.064 
L 276.922182 197.376 
L 274.036364 197.376 
L 271.150545 197.376 
L 268.264727 197.376 
L 268.264727 194.688 
L 268.264727 192 
L 268.264727 189.312 
L 265.378909 189.311999 
L 262.493091 189.311999 
L 259.607273 189.311999 
L 259.607273 186.624 
L 259.607273 183.936 
L 259.607273 181.248 
L 256.721455 181.246833 
L 253.835636 181.246833 
L 250.949818 181.246833 
L 250.949818 178.56 
L 250.949818 175.872 
L 250.949818 173.184 
L 250.949818 170.496 
L 248.064 170.47712 
L 245.178182 170.47712 
L 242.292364 170.47712 
L 242.292364 167.808 
L 242.292364 165.12 
L 242.292364 162.432 
L 242.292364 159.977263 
L 245.178182 159.977263 
L 248.064 159.977263 
L 250.949818 159.744 
L 250.949818 157.056 
L 250.949818 154.368 
L 250.949818 151.680303 
L 253.835636 151.680303 
L 256.721455 151.680303 
L 259.607273 151.68 
L 259.607273 148.992 
L 259.607273 146.304 
L 259.607273 143.616 
L 262.493091 143.616 
L 265.378909 143.616 
L 268.264727 143.616 
L 268.264727 140.928 
L 268.264727 138.24 
L 268.264727 135.552 
L 271.150545 135.552 
L 274.036364 135.552 
L 276.922182 135.552 
L 276.922182 132.864 
L 276.922182 130.176 
L 274.036364 127.488 
L 271.150545 127.488 
L 268.264727 127.488 
L 268.264727 130.176 
L 268.264727 132.864 
L 268.264727 135.552 
L 265.378909 135.552 
L 262.493091 135.552 
L 259.607273 135.552 
L 259.607273 138.24 
L 259.607273 140.928 
L 259.607273 143.616 
L 256.721455 143.616 
L 253.835636 143.616 
L 250.949818 143.616 
L 250.949818 146.304 
L 250.949818 148.992 
L 250.949818 151.68 
L 248.064 151.680303 
L 245.178182 151.680303 
L 242.292364 151.680303 
L 242.292364 154.368 
L 242.292364 157.056 
L 242.292364 159.744 
L 239.406545 159.977263 
L 236.520727 159.977263 
L 233.634909 159.977263 
L 233.634909 162.432 
L 233.634909 165.12 
L 233.634909 167.808 
L 233.634909 170.47712 
L 236.520727 170.47712 
L 239.406545 170.47712 
L 242.292364 170.496 
L 242.292364 173.184 
L 242.292364 175.872 
L 242.292364 178.56 
L 242.292364 181.246833 
L 245.178182 181.246833 
L 248.064 181.246833 
L 250.949818 181.248 
L 250.949818 183.936 
L 250.949818 186.624 
L 250.949818 189.311999 
L 253.835636 189.311999 
L 256.721455 189.311999 
L 259.607273 189.312 
L 259.607273 192 
L 259.607273 194.688 
L 259.607273 197.376 
L 262.493091 197.376 
L 265.378909 197.376 
L 268.264727 197.376 
L 268.264727 200.064 
L 268.264727 202.752 
L 268.264727 205.44 
" style="fill:none;stroke:#001cf1;stroke-width:1.5;"/>
    <path clip-path="url(#pb85d0a5505)" d="M 138.402909 197.376 
L 141.288727 197.376 
L 141.288727 194.688 
L 141.288727 192 
L 141.288727 189.312 
L 144.174545 189.311999 
L 147.060364 189.311999 
L 149.946182 189.311999 
L 149.946182 186.624 
L 149.946182 183.936 
L 149.946182 181.248 
L 152.832 181.246833 
L 155.717818 181.246833 
L 158.603636 181.246833 
L 158.603636 178.56 
L 158.603636 175.872 
L 158.603636 173.184 
L 158.603636 170.496 
L 161.489455 170.47712 
L 164.375273 170.47712 
L 167.261091 170.47712 
L 167.261091 167.808 
L 167.261091 165.12 
L 167.261091 162.432 
L 167.261091 159.977263 
L 164.375273 159.977263 
L 161.489455 159.977263 
L 158.603636 159.744 
L 158.603636 157.056 
L 158.603636 154.368 
L 158.603636 151.680303 
L 155.717818 151.680303 
L 152.832 151.680303 
L 149.946182 151.68 
L 149.946182 148.992 
L 149.946182 146.304 
L 149.946182 143.616 
L 147.060364 143.616 
L 144.174545 143.616 
L 141.288727 143.616 
L 141.288727 140.928 
L 141.288727 138.24 
L 141.288727 135.552 
L 138.402909 135.552 
L 135.517091 138.24 
L 135.517091 140.928 
L 132.631273 143.616 
L 135.517091 143.616 
L 138.402909 143.616 
L 141.288727 143.616 
L 141.288727 146.304 
L 141.288727 148.992 
L 141.288727 151.68 
L 144.174545 151.680303 
L 147.060364 151.680303 
L 149.946182 151.680303 
L 149.946182 154.368 
L 149.946182 157.056 
L 149.946182 159.744 
L 152.832 159.977263 
L 155.717818 159.977263 
L 158.603636 159.977263 
L 158.603636 162.432 
L 158.603636 165.12 
L 158.603636 167.808 
L 158.603636 170.47712 
L 155.717818 170.47712 
L 152.832 170.47712 
L 149.946182 170.496 
L 149.946182 173.184 
L 149.946182 175.872 
L 149.946182 178.56 
L 149.946182 181.246833 
L 147.060364 181.246833 
L 144.174545 181.246833 
L 141.288727 181.248 
L 141.288727 183.936 
L 141.288727 186.624 
L 141.288727 189.311999 
L 138.402909 189.311999 
L 135.517091 189.311998 
L 132.631273 189.312 
L 135.517091 192 
L 135.517091 194.688 
L 138.402909 197.376 
" style="fill:none;stroke:#001cf1;stroke-width:1.5;"/>
    <path clip-path="url(#pb85d0a5505)" d="M 276.922182 197.376 
L 279.808 197.376 
L 282.693818 194.688 
L 282.693818 192 
L 285.579636 189.312 
L 282.693818 189.311999 
L 279.808 189.311999 
L 276.922182 189.311999 
L 276.922182 186.624 
L 276.922182 183.936 
L 276.922182 181.248 
L 274.036364 181.246833 
L 271.150545 181.246833 
L 268.264727 181.246833 
L 268.264727 178.56 
L 268.264727 175.872 
L 268.264727 173.184 
L 268.264727 170.496 
L 265.378909 170.47712 
L 262.493091 170.47712 
L 259.607273 170.47712 
L 259.607273 167.808 
L 259.607273 165.12 
L 259.607273 162.432 
L 259.607273 159.977263 
L 262.493091 159.977263 
L 265.378909 159.977263 
L 268.264727 159.744 
L 268.264727 157.056 
L 268.264727 154.368 
L 268.264727 151.680303 
L 271.150545 151.680303 
L 274.036364 151.680303 
L 276.922182 151.68 
L 276.922182 148.992 
L 276.922182 146.304 
L 276.922182 143.616 
L 279.808 143.616 
L 282.693818 143.616 
L 285.579636 143.616 
L 282.693818 140.928 
L 282.693818 138.24 
L 279.808 135.552 
L 276.922182 135.552 
L 276.922182 138.24 
L 276.922182 140.928 
L 276.922182 143.616 
L 274.036364 143.616 
L 271.150545 143.616 
L 268.264727 143.616 
L 268.264727 146.304 
L 268.264727 148.992 
L 268.264727 151.68 
L 265.378909 151.680303 
L 262.493091 151.680303 
L 259.607273 151.680303 
L 259.607273 154.368 
L 259.607273 157.056 
L 259.607273 159.744 
L 256.721455 159.977263 
L 253.835636 159.977263 
L 250.949818 159.977263 
L 250.949818 162.432 
L 250.949818 165.12 
L 250.949818 167.808 
L 250.949818 170.47712 
L 253.835636 170.47712 
L 256.721455 170.47712 
L 259.607273 170.496 
L 259.607273 173.184 
L 259.607273 175.872 
L 259.607273 178.56 
L 259.607273 181.246833 
L 262.493091 181.246833 
L 265.378909 181.246833 
L 268.264727 181.248 
L 268.264727 183.936 
L 268.264727 186.624 
L 268.264727 189.311999 
L 271.150545 189.311999 
L 274.036364 189.311999 
L 276.922182 189.312 
L 276.922182 192 
L 276.922182 194.688 
L 276.922182 197.376 
" style="fill:none;stroke:#001cf1;stroke-width:1.5;"/>
    <path clip-path="url(#pb85d0a5505)" d="M 135.517091 181.246833 
L 138.402909 181.246833 
L 141.288727 181.246833 
L 141.288727 178.56 
L 141.288727 175.872 
L 141.288727 173.184 
L 141.288727 170.496 
L 144.174545 170.47712 
L 147.060364 170.47712 
L 149.946182 170.47712 
L 149.946182 167.808 
L 149.946182 165.12 
L 149.946182 162.432 
L 149.946182 159.977263 
L 147.060364 159.977263 
L 144.174545 159.977263 
L 141.288727 159.744 
L 141.288727 157.056 
L 141.288727 154.368 
L 141.288727 151.680303 
L 138.402909 151.680303 
L 135.517091 151.680303 
L 132.631273 154.368 
L 132.631273 157.056 
L 132.631273 159.744 
L 135.517091 159.977263 
L 138.402909 159.977263 
L 141.288727 159.977263 
L 141.288727 162.432 
L 141.288727 165.12 
L 141.288727 167.808 
L 141.288727 170.47712 
L 138.402909 170.47712 
L 135.517091 170.47712 
L 132.631273 170.496 
L 132.631273 173.184 
L 132.631273 175.872 
L 132.631273 178.56 
L 135.517091 181.246833 
" style="fill:none;stroke:#001cf1;stroke-width:1.5;"/>
    <path clip-path="url(#pb85d0a5505)" d="M 276.922182 181.246833 
L 279.808 181.246833 
L 282.693818 181.246833 
L 285.579636 181.248 
L 288.465455 178.56 
L 288.465455 175.872 
L 288.465455 173.184 
L 288.465455 170.496 
L 285.579636 170.47712 
L 282.693818 170.47712 
L 279.808 170.47712 
L 276.922182 170.47712 
L 276.922182 167.808 
L 276.922182 165.12 
L 276.922182 162.432 
L 276.922182 159.977263 
L 279.808 159.977263 
L 282.693818 159.977263 
L 285.579636 159.977263 
L 288.465455 159.744 
L 288.465455 157.056 
L 288.465455 154.368 
L 285.579636 151.680278 
L 282.693818 151.680303 
L 279.808 151.680303 
L 276.922182 151.680303 
L 276.922182 154.368 
L 276.922182 157.056 
L 276.922182 159.744 
L 274.036364 159.977263 
L 271.150545 159.977263 
L 268.264727 159.977263 
L 268.264727 162.432 
L 268.264727 165.12 
L 268.264727 167.808 
L 268.264727 170.47712 
L 271.150545 170.47712 
L 274.036364 170.47712 
L 276.922182 170.496 
L 276.922182 173.184 
L 276.922182 175.872 
L 276.922182 178.56 
L 276.922182 181.246833 
" style="fill:none;stroke:#001cf1;stroke-width:1.5;"/>
    <path clip-path="url(#pb85d0a5505)" d="M 132.631273 170.47712 
L 132.631273 167.808 
L 132.631273 165.12 
L 132.631273 162.432 
L 132.631273 159.977263 
L 129.745455 162.432 
L 129.745455 165.12 
L 129.745455 167.808 
L 132.631273 170.47712 
" style="fill:none;stroke:#001cf1;stroke-width:1.5;"/>
    <path clip-path="url(#pb85d0a5505)" d="M 207.662545 159.977263 
L 213.434182 159.977263 
L 216.06957 159.744 
L 216.06957 154.368 
L 216.32 151.680303 
L 224.977129 151.68 
L 224.977455 143.616 
L 233.634909 143.616 
L 233.634909 135.552 
L 242.292364 135.552 
L 242.292364 127.488 
L 250.949818 127.488 
L 250.949818 119.424 
L 259.607273 119.424 
L 259.607273 111.36 
L 262.493091 111.36 
L 259.607273 108.672 
L 259.607273 111.36 
L 250.949818 111.36 
L 250.949818 119.424 
L 242.292364 119.424 
L 242.292364 127.488 
L 233.634909 127.488 
L 233.634909 135.552 
L 224.977455 135.552 
L 224.977129 143.616 
L 216.32 143.616 
L 216.06957 146.304 
L 216.06957 151.68 
L 204.796997 151.68 
L 204.776727 143.616 
L 193.234707 143.616 
L 193.233455 135.552 
L 184.576001 135.552 
L 184.576 127.488 
L 175.918545 127.488 
L 175.918545 119.424 
L 167.261091 119.424 
L 167.261091 111.36 
L 158.603636 111.36 
L 158.603636 108.672 
L 155.717818 111.36 
L 158.603636 111.36 
L 158.603636 119.424 
L 167.261091 119.424 
L 167.261091 127.488 
L 175.918545 127.488 
L 175.918545 135.552 
L 184.576 135.552 
L 184.576001 143.616 
L 193.233455 143.616 
L 193.234707 151.68 
L 204.776727 151.680303 
L 204.796997 159.744 
L 207.662545 159.977263 
L 207.662545 159.977263 
" style="fill:none;stroke:#001cf1;stroke-width:1.5;"/>
    <path clip-path="url(#pb85d0a5505)" d="M 207.662545 143.616 
L 210.548364 143.616 
L 213.434182 143.616 
L 216.06957 143.616 
L 216.06957 140.928 
L 216.06957 138.24 
L 216.32 135.552 
L 219.205818 135.552 
L 222.091636 135.552 
L 224.977129 135.552 
L 224.977129 132.864 
L 224.977129 130.176 
L 224.977455 127.488 
L 227.863273 127.488 
L 230.749091 127.488 
L 233.634909 127.488 
L 233.634909 124.8 
L 233.634909 122.112 
L 233.634909 119.424 
L 236.520727 119.424 
L 239.406545 119.424 
L 242.292364 119.424 
L 242.292364 116.736 
L 242.292364 114.048 
L 242.292364 111.36 
L 245.178182 111.36 
L 248.064 111.36 
L 250.949818 111.36 
L 250.949818 108.672 
L 250.949818 105.984 
L 248.064 103.296 
L 245.178182 103.296 
L 242.292364 103.296 
L 242.292364 105.984 
L 242.292364 108.672 
L 242.292364 111.36 
L 239.406545 111.36 
L 236.520727 111.36 
L 233.634909 111.36 
L 233.634909 114.048 
L 233.634909 116.736 
L 233.634909 119.424 
L 230.749091 119.424 
L 227.863273 119.424 
L 224.977455 119.424 
L 224.977129 122.112 
L 224.977129 124.8 
L 224.977129 127.488 
L 222.091636 127.488 
L 219.205818 127.488 
L 216.32 127.488 
L 216.06957 130.176 
L 216.06957 132.864 
L 216.06957 135.552 
L 213.434182 135.552 
L 210.548364 135.552 
L 207.662545 135.552 
L 204.796997 135.552 
L 204.796997 132.864 
L 204.796997 130.176 
L 204.776727 127.488 
L 201.890909 127.488 
L 199.005091 127.488 
L 196.119273 127.488 
L 193.234707 127.488 
L 193.234707 124.8 
L 193.234707 122.112 
L 193.233455 119.424 
L 190.347636 119.424 
L 187.461818 119.424 
L 184.576001 119.424 
L 184.576001 116.736 
L 184.576001 114.048 
L 184.576 111.36 
L 181.690182 111.36 
L 178.804364 111.36 
L 175.918545 111.36 
L 175.918545 108.672 
L 175.918545 105.984 
L 175.918545 103.296 
L 173.032727 103.296 
L 170.146909 103.296 
L 167.261091 105.984 
L 167.261091 108.672 
L 167.261091 111.36 
L 170.146909 111.36 
L 173.032727 111.36 
L 175.918545 111.36 
L 175.918545 114.048 
L 175.918545 116.736 
L 175.918545 119.424 
L 178.804364 119.424 
L 181.690182 119.424 
L 184.576 119.424 
L 184.576001 122.112 
L 184.576001 124.8 
L 184.576001 127.488 
L 187.461818 127.488 
L 190.347636 127.488 
L 193.233455 127.488 
L 193.234707 130.176 
L 193.234707 132.864 
L 193.234707 135.552 
L 196.119273 135.552 
L 199.005091 135.552 
L 201.890909 135.552 
L 204.776727 135.552 
L 204.796997 138.24 
L 204.796997 140.928 
L 204.796997 143.616 
L 207.662545 143.616 
" style="fill:none;stroke:#001cf1;stroke-width:1.5;"/>
    <path clip-path="url(#pb85d0a5505)" d="M 207.662545 127.488 
L 210.548364 127.488 
L 213.434182 127.488 
L 216.06957 127.488 
L 216.06957 124.8 
L 216.06957 122.112 
L 216.32 119.424 
L 219.205818 119.424 
L 222.091636 119.424 
L 224.977129 119.424 
L 224.977129 116.736 
L 224.977129 114.048 
L 224.977455 111.36 
L 227.863273 111.36 
L 230.749091 111.36 
L 233.634909 111.36 
L 233.634909 108.672 
L 233.634909 105.984 
L 233.634909 103.296 
L 236.520727 103.296 
L 239.406545 103.296 
L 242.292364 103.296 
L 242.292364 100.608 
L 239.406545 97.92 
L 236.520727 97.92 
L 233.634909 95.232 
L 233.634909 97.92 
L 233.634909 100.608 
L 233.634909 103.296 
L 230.749091 103.296 
L 227.863273 103.296 
L 224.977455 103.296 
L 224.977129 105.984 
L 224.977129 108.672 
L 224.977129 111.36 
L 222.091636 111.36 
L 219.205818 111.36 
L 216.32 111.36 
L 216.06957 114.048 
L 216.06957 116.736 
L 216.06957 119.424 
L 213.434182 119.424 
L 210.548364 119.424 
L 207.662545 119.424 
L 204.796997 119.424 
L 204.796997 116.736 
L 204.796997 114.048 
L 204.776727 111.36 
L 201.890909 111.36 
L 199.005091 111.36 
L 196.119273 111.36 
L 193.234707 111.36 
L 193.234707 108.672 
L 193.234707 105.984 
L 193.233455 103.296 
L 190.347636 103.296 
L 187.461818 103.296 
L 184.576001 103.296 
L 184.576001 100.608 
L 184.576001 97.92 
L 184.576 95.232 
L 181.690182 97.92 
L 178.804364 97.92 
L 175.918545 100.608 
L 175.918545 103.296 
L 178.804364 103.296 
L 181.690182 103.296 
L 184.576 103.296 
L 184.576001 105.984 
L 184.576001 108.672 
L 184.576001 111.36 
L 187.461818 111.36 
L 190.347636 111.36 
L 193.233455 111.36 
L 193.234707 114.048 
L 193.234707 116.736 
L 193.234707 119.424 
L 196.119273 119.424 
L 199.005091 119.424 
L 201.890909 119.424 
L 204.776727 119.424 
L 204.796997 122.112 
L 204.796997 124.8 
L 204.796997 127.488 
L 207.662545 127.488 
" style="fill:none;stroke:#001cf1;stroke-width:1.5;"/>
    <path clip-path="url(#pb85d0a5505)" d="M 207.662545 111.36 
L 210.548364 111.36 
L 213.434182 111.36 
L 216.06957 111.36 
L 216.06957 108.672 
L 216.06957 105.984 
L 216.32 103.296 
L 219.205818 103.296 
L 222.091636 103.296 
L 224.977129 103.296 
L 224.977129 100.608 
L 224.977129 97.92 
L 224.977156 95.232 
L 222.091636 92.544 
L 219.205818 92.544 
L 216.32 92.544 
L 216.06957 95.232 
L 216.06957 97.92 
L 216.06957 100.608 
L 216.06957 103.296 
L 213.434182 103.296 
L 210.548364 103.296 
L 207.662545 103.296 
L 204.796997 103.296 
L 204.796997 100.608 
L 204.796997 97.92 
L 204.796997 95.232 
L 204.776727 92.544 
L 201.890909 92.544 
L 199.005091 92.544 
L 196.119273 92.544 
L 193.233455 95.232 
L 193.234707 97.92 
L 193.234707 100.608 
L 193.234707 103.296 
L 196.119273 103.296 
L 199.005091 103.296 
L 201.890909 103.296 
L 204.776727 103.296 
L 204.796997 105.984 
L 204.796997 108.672 
L 204.796997 111.36 
L 207.662545 111.36 
" style="fill:none;stroke:#001cf1;stroke-width:1.5;"/>
   </g>
   <g id="LineCollection_10"/>
   <g id="patch_3">
    <path d="M 57.6 307.584 
L 57.6 41.472 
" style="fill:none;stroke:#000000;stroke-linecap:square;stroke-linejoin:miter;stroke-width:0.8;"/>
   </g>
   <g id="patch_4">
    <path d="M 343.296 307.584 
L 343.296 41.472 
" style="fill:none;stroke:#000000;stroke-linecap:square;stroke-linejoin:miter;stroke-width:0.8;"/>
   </g>
   <g id="patch_5">
    <path d="M 57.6 307.584 
L 343.296 307.584 
" style="fill:none;stroke:#000000;stroke-linecap:square;stroke-linejoin:miter;stroke-width:0.8;"/>
   </g>
   <g id="patch_6">
    <path d="M 57.6 41.472 
L 343.296 41.472 
" style="fill:none;stroke:#000000;stroke-linecap:square;stroke-linejoin:miter;stroke-width:0.8;"/>
   </g>
  </g>
  <g id="axes_2">
   <g id="patch_7">
    <path clip-path="url(#p523abb9c8f)" d="M 361.152 307.584 
L 361.152 278.016 
L 361.152 71.04 
L 361.152 41.472 
L 374.4576 41.472 
L 374.4576 71.04 
L 374.4576 278.016 
L 374.4576 307.584 
z
" style="fill:#ffffff;stroke:#ffffff;stroke-linejoin:miter;stroke-width:0.01;"/>
   </g>
   <g id="matplotlib.axis_3"/>
   <g id="matplotlib.axis_4">
    <g id="ytick_6">
     <g id="line2d_11">
      <defs>
       <path d="M 0 0 
L 3.5 0 
" id="m54a64cac52" style="stroke:#000000;stroke-width:0.8;"/>
      </defs>
      <g>
       <use style="stroke:#000000;stroke-width:0.8;" x="374.4576" xlink:href="#m54a64cac52" y="307.584"/>
      </g>
     </g>
     <g id="text_11">
      <!-- −0.64 -->
      <defs>
       <path d="M 10.6875 12.40625 
L 21 12.40625 
L 21 0 
L 10.6875 0 
z
" id="DejaVuSans-46"/>
       <path d="M 33.015625 40.375 
Q 26.375 40.375 22.484375 35.828125 
Q 18.609375 31.296875 18.609375 23.390625 
Q 18.609375 15.53125 22.484375 10.953125 
Q 26.375 6.390625 33.015625 6.390625 
Q 39.65625 6.390625 43.53125 10.953125 
Q 47.40625 15.53125 47.40625 23.390625 
Q 47.40625 31.296875 43.53125 35.828125 
Q 39.65625 40.375 33.015625 40.375 
z
M 52.59375 71.296875 
L 52.59375 62.3125 
Q 48.875 64.0625 45.09375 64.984375 
Q 41.3125 65.921875 37.59375 65.921875 
Q 27.828125 65.921875 22.671875 59.328125 
Q 17.53125 52.734375 16.796875 39.40625 
Q 19.671875 43.65625 24.015625 45.921875 
Q 28.375 48.1875 33.59375 48.1875 
Q 44.578125 48.1875 50.953125 41.515625 
Q 57.328125 34.859375 57.328125 23.390625 
Q 57.328125 12.15625 50.6875 5.359375 
Q 44.046875 -1.421875 33.015625 -1.421875 
Q 20.359375 -1.421875 13.671875 8.265625 
Q 6.984375 17.96875 6.984375 36.375 
Q 6.984375 53.65625 15.1875 63.9375 
Q 23.390625 74.21875 37.203125 74.21875 
Q 40.921875 74.21875 44.703125 73.484375 
Q 48.484375 72.75 52.59375 71.296875 
z
" id="DejaVuSans-54"/>
      </defs>
      <g transform="translate(381.4576 311.383219)scale(0.1 -0.1)">
       <use xlink:href="#DejaVuSans-8722"/>
       <use x="83.789062" xlink:href="#DejaVuSans-48"/>
       <use x="147.412109" xlink:href="#DejaVuSans-46"/>
       <use x="179.199219" xlink:href="#DejaVuSans-54"/>
       <use x="242.822266" xlink:href="#DejaVuSans-52"/>
      </g>
     </g>
    </g>
    <g id="ytick_7">
     <g id="line2d_12">
      <g>
       <use style="stroke:#000000;stroke-width:0.8;" x="374.4576" xlink:href="#m54a64cac52" y="278.016"/>
      </g>
     </g>
     <g id="text_12">
      <!-- −0.56 -->
      <defs>
       <path d="M 10.796875 72.90625 
L 49.515625 72.90625 
L 49.515625 64.59375 
L 19.828125 64.59375 
L 19.828125 46.734375 
Q 21.96875 47.46875 24.109375 47.828125 
Q 26.265625 48.1875 28.421875 48.1875 
Q 40.625 48.1875 47.75 41.5 
Q 54.890625 34.8125 54.890625 23.390625 
Q 54.890625 11.625 47.5625 5.09375 
Q 40.234375 -1.421875 26.90625 -1.421875 
Q 22.3125 -1.421875 17.546875 -0.640625 
Q 12.796875 0.140625 7.71875 1.703125 
L 7.71875 11.625 
Q 12.109375 9.234375 16.796875 8.0625 
Q 21.484375 6.890625 26.703125 6.890625 
Q 35.15625 6.890625 40.078125 11.328125 
Q 45.015625 15.765625 45.015625 23.390625 
Q 45.015625 31 40.078125 35.4375 
Q 35.15625 39.890625 26.703125 39.890625 
Q 22.75 39.890625 18.8125 39.015625 
Q 14.890625 38.140625 10.796875 36.28125 
z
" id="DejaVuSans-53"/>
      </defs>
      <g transform="translate(381.4576 281.815219)scale(0.1 -0.1)">
       <use xlink:href="#DejaVuSans-8722"/>
       <use x="83.789062" xlink:href="#DejaVuSans-48"/>
       <use x="147.412109" xlink:href="#DejaVuSans-46"/>
       <use x="179.199219" xlink:href="#DejaVuSans-53"/>
       <use x="242.822266" xlink:href="#DejaVuSans-54"/>
      </g>
     </g>
    </g>
    <g id="ytick_8">
     <g id="line2d_13">
      <g>
       <use style="stroke:#000000;stroke-width:0.8;" x="374.4576" xlink:href="#m54a64cac52" y="248.448"/>
      </g>
     </g>
     <g id="text_13">
      <!-- −0.48 -->
      <defs>
       <path d="M 31.78125 34.625 
Q 24.75 34.625 20.71875 30.859375 
Q 16.703125 27.09375 16.703125 20.515625 
Q 16.703125 13.921875 20.71875 10.15625 
Q 24.75 6.390625 31.78125 6.390625 
Q 38.8125 6.390625 42.859375 10.171875 
Q 46.921875 13.96875 46.921875 20.515625 
Q 46.921875 27.09375 42.890625 30.859375 
Q 38.875 34.625 31.78125 34.625 
z
M 21.921875 38.8125 
Q 15.578125 40.375 12.03125 44.71875 
Q 8.5 49.078125 8.5 55.328125 
Q 8.5 64.0625 14.71875 69.140625 
Q 20.953125 74.21875 31.78125 74.21875 
Q 42.671875 74.21875 48.875 69.140625 
Q 55.078125 64.0625 55.078125 55.328125 
Q 55.078125 49.078125 51.53125 44.71875 
Q 48 40.375 41.703125 38.8125 
Q 48.828125 37.15625 52.796875 32.3125 
Q 56.78125 27.484375 56.78125 20.515625 
Q 56.78125 9.90625 50.3125 4.234375 
Q 43.84375 -1.421875 31.78125 -1.421875 
Q 19.734375 -1.421875 13.25 4.234375 
Q 6.78125 9.90625 6.78125 20.515625 
Q 6.78125 27.484375 10.78125 32.3125 
Q 14.796875 37.15625 21.921875 38.8125 
z
M 18.3125 54.390625 
Q 18.3125 48.734375 21.84375 45.5625 
Q 25.390625 42.390625 31.78125 42.390625 
Q 38.140625 42.390625 41.71875 45.5625 
Q 45.3125 48.734375 45.3125 54.390625 
Q 45.3125 60.0625 41.71875 63.234375 
Q 38.140625 66.40625 31.78125 66.40625 
Q 25.390625 66.40625 21.84375 63.234375 
Q 18.3125 60.0625 18.3125 54.390625 
z
" id="DejaVuSans-56"/>
      </defs>
      <g transform="translate(381.4576 252.247219)scale(0.1 -0.1)">
       <use xlink:href="#DejaVuSans-8722"/>
       <use x="83.789062" xlink:href="#DejaVuSans-48"/>
       <use x="147.412109" xlink:href="#DejaVuSans-46"/>
       <use x="179.199219" xlink:href="#DejaVuSans-52"/>
       <use x="242.822266" xlink:href="#DejaVuSans-56"/>
      </g>
     </g>
    </g>
    <g id="ytick_9">
     <g id="line2d_14">
      <g>
       <use style="stroke:#000000;stroke-width:0.8;" x="374.4576" xlink:href="#m54a64cac52" y="218.88"/>
      </g>
     </g>
     <g id="text_14">
      <!-- −0.40 -->
      <g transform="translate(381.4576 222.679219)scale(0.1 -0.1)">
       <use xlink:href="#DejaVuSans-8722"/>
       <use x="83.789062" xlink:href="#DejaVuSans-48"/>
       <use x="147.412109" xlink:href="#DejaVuSans-46"/>
       <use x="179.199219" xlink:href="#DejaVuSans-52"/>
       <use x="242.822266" xlink:href="#DejaVuSans-48"/>
      </g>
     </g>
    </g>
    <g id="ytick_10">
     <g id="line2d_15">
      <g>
       <use style="stroke:#000000;stroke-width:0.8;" x="374.4576" xlink:href="#m54a64cac52" y="189.312"/>
      </g>
     </g>
     <g id="text_15">
      <!-- −0.32 -->
      <defs>
       <path d="M 40.578125 39.3125 
Q 47.65625 37.796875 51.625 33 
Q 55.609375 28.21875 55.609375 21.1875 
Q 55.609375 10.40625 48.1875 4.484375 
Q 40.765625 -1.421875 27.09375 -1.421875 
Q 22.515625 -1.421875 17.65625 -0.515625 
Q 12.796875 0.390625 7.625 2.203125 
L 7.625 11.71875 
Q 11.71875 9.328125 16.59375 8.109375 
Q 21.484375 6.890625 26.8125 6.890625 
Q 36.078125 6.890625 40.9375 10.546875 
Q 45.796875 14.203125 45.796875 21.1875 
Q 45.796875 27.640625 41.28125 31.265625 
Q 36.765625 34.90625 28.71875 34.90625 
L 20.21875 34.90625 
L 20.21875 43.015625 
L 29.109375 43.015625 
Q 36.375 43.015625 40.234375 45.921875 
Q 44.09375 48.828125 44.09375 54.296875 
Q 44.09375 59.90625 40.109375 62.90625 
Q 36.140625 65.921875 28.71875 65.921875 
Q 24.65625 65.921875 20.015625 65.03125 
Q 15.375 64.15625 9.8125 62.3125 
L 9.8125 71.09375 
Q 15.4375 72.65625 20.34375 73.4375 
Q 25.25 74.21875 29.59375 74.21875 
Q 40.828125 74.21875 47.359375 69.109375 
Q 53.90625 64.015625 53.90625 55.328125 
Q 53.90625 49.265625 50.4375 45.09375 
Q 46.96875 40.921875 40.578125 39.3125 
z
" id="DejaVuSans-51"/>
      </defs>
      <g transform="translate(381.4576 193.111219)scale(0.1 -0.1)">
       <use xlink:href="#DejaVuSans-8722"/>
       <use x="83.789062" xlink:href="#DejaVuSans-48"/>
       <use x="147.412109" xlink:href="#DejaVuSans-46"/>
       <use x="179.199219" xlink:href="#DejaVuSans-51"/>
       <use x="242.822266" xlink:href="#DejaVuSans-50"/>
      </g>
     </g>
    </g>
    <g id="ytick_11">
     <g id="line2d_16">
      <g>
       <use style="stroke:#000000;stroke-width:0.8;" x="374.4576" xlink:href="#m54a64cac52" y="159.744"/>
      </g>
     </g>
     <g id="text_16">
      <!-- −0.24 -->
      <g transform="translate(381.4576 163.543219)scale(0.1 -0.1)">
       <use xlink:href="#DejaVuSans-8722"/>
       <use x="83.789062" xlink:href="#DejaVuSans-48"/>
       <use x="147.412109" xlink:href="#DejaVuSans-46"/>
       <use x="179.199219" xlink:href="#DejaVuSans-50"/>
       <use x="242.822266" xlink:href="#DejaVuSans-52"/>
      </g>
     </g>
    </g>
    <g id="ytick_12">
     <g id="line2d_17">
      <g>
       <use style="stroke:#000000;stroke-width:0.8;" x="374.4576" xlink:href="#m54a64cac52" y="130.176"/>
      </g>
     </g>
     <g id="text_17">
      <!-- −0.16 -->
      <defs>
       <path d="M 12.40625 8.296875 
L 28.515625 8.296875 
L 28.515625 63.921875 
L 10.984375 60.40625 
L 10.984375 69.390625 
L 28.421875 72.90625 
L 38.28125 72.90625 
L 38.28125 8.296875 
L 54.390625 8.296875 
L 54.390625 0 
L 12.40625 0 
z
" id="DejaVuSans-49"/>
      </defs>
      <g transform="translate(381.4576 133.975219)scale(0.1 -0.1)">
       <use xlink:href="#DejaVuSans-8722"/>
       <use x="83.789062" xlink:href="#DejaVuSans-48"/>
       <use x="147.412109" xlink:href="#DejaVuSans-46"/>
       <use x="179.199219" xlink:href="#DejaVuSans-49"/>
       <use x="242.822266" xlink:href="#DejaVuSans-54"/>
      </g>
     </g>
    </g>
    <g id="ytick_13">
     <g id="line2d_18">
      <g>
       <use style="stroke:#000000;stroke-width:0.8;" x="374.4576" xlink:href="#m54a64cac52" y="100.608"/>
      </g>
     </g>
     <g id="text_18">
      <!-- −0.08 -->
      <g transform="translate(381.4576 104.407219)scale(0.1 -0.1)">
       <use xlink:href="#DejaVuSans-8722"/>
       <use x="83.789062" xlink:href="#DejaVuSans-48"/>
       <use x="147.412109" xlink:href="#DejaVuSans-46"/>
       <use x="179.199219" xlink:href="#DejaVuSans-48"/>
       <use x="242.822266" xlink:href="#DejaVuSans-56"/>
      </g>
     </g>
    </g>
    <g id="ytick_14">
     <g id="line2d_19">
      <g>
       <use style="stroke:#000000;stroke-width:0.8;" x="374.4576" xlink:href="#m54a64cac52" y="71.04"/>
      </g>
     </g>
     <g id="text_19">
      <!-- 0.00 -->
      <g transform="translate(381.4576 74.839219)scale(0.1 -0.1)">
       <use xlink:href="#DejaVuSans-48"/>
       <use x="63.623047" xlink:href="#DejaVuSans-46"/>
       <use x="95.410156" xlink:href="#DejaVuSans-48"/>
       <use x="159.033203" xlink:href="#DejaVuSans-48"/>
      </g>
     </g>
    </g>
    <g id="ytick_15">
     <g id="line2d_20">
      <g>
       <use style="stroke:#000000;stroke-width:0.8;" x="374.4576" xlink:href="#m54a64cac52" y="41.472"/>
      </g>
     </g>
     <g id="text_20">
      <!-- 0.08 -->
      <g transform="translate(381.4576 45.271219)scale(0.1 -0.1)">
       <use xlink:href="#DejaVuSans-48"/>
       <use x="63.623047" xlink:href="#DejaVuSans-46"/>
       <use x="95.410156" xlink:href="#DejaVuSans-48"/>
       <use x="159.033203" xlink:href="#DejaVuSans-56"/>
      </g>
     </g>
    </g>
   </g>
   <g id="LineCollection_11">
    <path clip-path="url(#p523abb9c8f)" d="M 361.152 307.584 
L 374.4576 307.584 
" style="fill:none;stroke:#00ff80;stroke-width:1.5;"/>
    <path clip-path="url(#p523abb9c8f)" d="M 361.152 278.016 
L 374.4576 278.016 
" style="fill:none;stroke:#00e38e;stroke-width:1.5;"/>
    <path clip-path="url(#p523abb9c8f)" d="M 361.152 248.448 
L 374.4576 248.448 
" style="fill:none;stroke:#00c79c;stroke-width:1.5;"/>
    <path clip-path="url(#p523abb9c8f)" d="M 361.152 218.88 
L 374.4576 218.88 
" style="fill:none;stroke:#00aaaa;stroke-width:1.5;"/>
    <path clip-path="url(#p523abb9c8f)" d="M 361.152 189.312 
L 374.4576 189.312 
" style="fill:none;stroke:#008eb8;stroke-width:1.5;"/>
    <path clip-path="url(#p523abb9c8f)" d="M 361.152 159.744 
L 374.4576 159.744 
" style="fill:none;stroke:#0071c6;stroke-width:1.5;"/>
    <path clip-path="url(#p523abb9c8f)" d="M 361.152 130.176 
L 374.4576 130.176 
" style="fill:none;stroke:#0055d4;stroke-width:1.5;"/>
    <path clip-path="url(#p523abb9c8f)" d="M 361.152 100.608 
L 374.4576 100.608 
" style="fill:none;stroke:#0038e3;stroke-width:1.5;"/>
    <path clip-path="url(#p523abb9c8f)" d="M 361.152 71.04 
L 374.4576 71.04 
" style="fill:none;stroke:#001cf1;stroke-width:1.5;"/>
    <path clip-path="url(#p523abb9c8f)" d="M 361.152 41.472 
L 374.4576 41.472 
" style="fill:none;stroke:#0000ff;stroke-width:1.5;"/>
   </g>
   <g id="patch_8">
    <path d="M 361.152 307.584 
L 361.152 278.016 
L 361.152 71.04 
L 361.152 41.472 
L 374.4576 41.472 
L 374.4576 71.04 
L 374.4576 278.016 
L 374.4576 307.584 
z
" style="fill:none;stroke:#000000;stroke-linejoin:miter;stroke-width:0.8;"/>
   </g>
  </g>
 </g>
 <defs>
  <clipPath id="pb85d0a5505">
   <rect height="266.112" width="285.696" x="57.6" y="41.472"/>
  </clipPath>
  <clipPath id="p523abb9c8f">
   <rect height="266.112" width="13.3056" x="361.152" y="41.472"/>
  </clipPath>
 </defs>
</svg>
