<?xml version="1.0" encoding="utf-8" standalone="no"?>
<!DOCTYPE svg PUBLIC "-//W3C//DTD SVG 1.1//EN"
  "http://www.w3.org/Graphics/SVG/1.1/DTD/svg11.dtd">
<!-- Created with matplotlib (https://matplotlib.org/) -->
<svg height="345.6pt" version="1.1" viewBox="0 0 460.8 345.6" width="460.8pt" xmlns="http://www.w3.org/2000/svg" xmlns:xlink="http://www.w3.org/1999/xlink">
 <defs>
  <style type="text/css">
*{stroke-linecap:butt;stroke-linejoin:round;}
  </style>
 </defs>
 <g id="figure_1">
  <g id="patch_1">
   <path d="M 0 345.6 
L 460.8 345.6 
L 460.8 0 
L 0 0 
z
" style="fill:#ffffff;"/>
  </g>
  <g id="axes_1">
   <g id="patch_2">
    <path d="M 57.6 307.584 
L 343.296 307.584 
L 343.296 41.472 
L 57.6 41.472 
z
" style="fill:#ffffff;"/>
   </g>
   <g id="matplotlib.axis_1">
    <g id="xtick_1">
     <g id="line2d_1">
      <defs>
       <path d="M 0 0 
L 0 3.5 
" id="ma8e0b5474c" style="stroke:#000000;stroke-width:0.8;"/>
      </defs>
      <g>
       <use style="stroke:#000000;stroke-width:0.8;" x="57.6" xlink:href="#ma8e0b5474c" y="307.584"/>
      </g>
     </g>
     <g id="text_1">
      <!-- −40 -->
      <defs>
       <path d="M 10.59375 35.5 
L 73.1875 35.5 
L 73.1875 27.203125 
L 10.59375 27.203125 
z
" id="DejaVuSans-8722"/>
       <path d="M 37.796875 64.3125 
L 12.890625 25.390625 
L 37.796875 25.390625 
z
M 35.203125 72.90625 
L 47.609375 72.90625 
L 47.609375 25.390625 
L 58.015625 25.390625 
L 58.015625 17.1875 
L 47.609375 17.1875 
L 47.609375 0 
L 37.796875 0 
L 37.796875 17.1875 
L 4.890625 17.1875 
L 4.890625 26.703125 
z
" id="DejaVuSans-52"/>
       <path d="M 31.78125 66.40625 
Q 24.171875 66.40625 20.328125 58.90625 
Q 16.5 51.421875 16.5 36.375 
Q 16.5 21.390625 20.328125 13.890625 
Q 24.171875 6.390625 31.78125 6.390625 
Q 39.453125 6.390625 43.28125 13.890625 
Q 47.125 21.390625 47.125 36.375 
Q 47.125 51.421875 43.28125 58.90625 
Q 39.453125 66.40625 31.78125 66.40625 
z
M 31.78125 74.21875 
Q 44.046875 74.21875 50.515625 64.515625 
Q 56.984375 54.828125 56.984375 36.375 
Q 56.984375 17.96875 50.515625 8.265625 
Q 44.046875 -1.421875 31.78125 -1.421875 
Q 19.53125 -1.421875 13.0625 8.265625 
Q 6.59375 17.96875 6.59375 36.375 
Q 6.59375 54.828125 13.0625 64.515625 
Q 19.53125 74.21875 31.78125 74.21875 
z
" id="DejaVuSans-48"/>
      </defs>
      <g transform="translate(47.047656 322.182437)scale(0.1 -0.1)">
       <use xlink:href="#DejaVuSans-8722"/>
       <use x="83.789062" xlink:href="#DejaVuSans-52"/>
       <use x="147.412109" xlink:href="#DejaVuSans-48"/>
      </g>
     </g>
    </g>
    <g id="xtick_2">
     <g id="line2d_2">
      <g>
       <use style="stroke:#000000;stroke-width:0.8;" x="93.312" xlink:href="#ma8e0b5474c" y="307.584"/>
      </g>
     </g>
     <g id="text_2">
      <!-- −30 -->
      <defs>
       <path d="M 40.578125 39.3125 
Q 47.65625 37.796875 51.625 33 
Q 55.609375 28.21875 55.609375 21.1875 
Q 55.609375 10.40625 48.1875 4.484375 
Q 40.765625 -1.421875 27.09375 -1.421875 
Q 22.515625 -1.421875 17.65625 -0.515625 
Q 12.796875 0.390625 7.625 2.203125 
L 7.625 11.71875 
Q 11.71875 9.328125 16.59375 8.109375 
Q 21.484375 6.890625 26.8125 6.890625 
Q 36.078125 6.890625 40.9375 10.546875 
Q 45.796875 14.203125 45.796875 21.1875 
Q 45.796875 27.640625 41.28125 31.265625 
Q 36.765625 34.90625 28.71875 34.90625 
L 20.21875 34.90625 
L 20.21875 43.015625 
L 29.109375 43.015625 
Q 36.375 43.015625 40.234375 45.921875 
Q 44.09375 48.828125 44.09375 54.296875 
Q 44.09375 59.90625 40.109375 62.90625 
Q 36.140625 65.921875 28.71875 65.921875 
Q 24.65625 65.921875 20.015625 65.03125 
Q 15.375 64.15625 9.8125 62.3125 
L 9.8125 71.09375 
Q 15.4375 72.65625 20.34375 73.4375 
Q 25.25 74.21875 29.59375 74.21875 
Q 40.828125 74.21875 47.359375 69.109375 
Q 53.90625 64.015625 53.90625 55.328125 
Q 53.90625 49.265625 50.4375 45.09375 
Q 46.96875 40.921875 40.578125 39.3125 
z
" id="DejaVuSans-51"/>
      </defs>
      <g transform="translate(82.759656 322.182437)scale(0.1 -0.1)">
       <use xlink:href="#DejaVuSans-8722"/>
       <use x="83.789062" xlink:href="#DejaVuSans-51"/>
       <use x="147.412109" xlink:href="#DejaVuSans-48"/>
      </g>
     </g>
    </g>
    <g id="xtick_3">
     <g id="line2d_3">
      <g>
       <use style="stroke:#000000;stroke-width:0.8;" x="129.024" xlink:href="#ma8e0b5474c" y="307.584"/>
      </g>
     </g>
     <g id="text_3">
      <!-- −20 -->
      <defs>
       <path d="M 19.1875 8.296875 
L 53.609375 8.296875 
L 53.609375 0 
L 7.328125 0 
L 7.328125 8.296875 
Q 12.9375 14.109375 22.625 23.890625 
Q 32.328125 33.6875 34.8125 36.53125 
Q 39.546875 41.84375 41.421875 45.53125 
Q 43.3125 49.21875 43.3125 52.78125 
Q 43.3125 58.59375 39.234375 62.25 
Q 35.15625 65.921875 28.609375 65.921875 
Q 23.96875 65.921875 18.8125 64.3125 
Q 13.671875 62.703125 7.8125 59.421875 
L 7.8125 69.390625 
Q 13.765625 71.78125 18.9375 73 
Q 24.125 74.21875 28.421875 74.21875 
Q 39.75 74.21875 46.484375 68.546875 
Q 53.21875 62.890625 53.21875 53.421875 
Q 53.21875 48.921875 51.53125 44.890625 
Q 49.859375 40.875 45.40625 35.40625 
Q 44.1875 33.984375 37.640625 27.21875 
Q 31.109375 20.453125 19.1875 8.296875 
z
" id="DejaVuSans-50"/>
      </defs>
      <g transform="translate(118.471656 322.182437)scale(0.1 -0.1)">
       <use xlink:href="#DejaVuSans-8722"/>
       <use x="83.789062" xlink:href="#DejaVuSans-50"/>
       <use x="147.412109" xlink:href="#DejaVuSans-48"/>
      </g>
     </g>
    </g>
    <g id="xtick_4">
     <g id="line2d_4">
      <g>
       <use style="stroke:#000000;stroke-width:0.8;" x="164.736" xlink:href="#ma8e0b5474c" y="307.584"/>
      </g>
     </g>
     <g id="text_4">
      <!-- −10 -->
      <defs>
       <path d="M 12.40625 8.296875 
L 28.515625 8.296875 
L 28.515625 63.921875 
L 10.984375 60.40625 
L 10.984375 69.390625 
L 28.421875 72.90625 
L 38.28125 72.90625 
L 38.28125 8.296875 
L 54.390625 8.296875 
L 54.390625 0 
L 12.40625 0 
z
" id="DejaVuSans-49"/>
      </defs>
      <g transform="translate(154.183656 322.182437)scale(0.1 -0.1)">
       <use xlink:href="#DejaVuSans-8722"/>
       <use x="83.789062" xlink:href="#DejaVuSans-49"/>
       <use x="147.412109" xlink:href="#DejaVuSans-48"/>
      </g>
     </g>
    </g>
    <g id="xtick_5">
     <g id="line2d_5">
      <g>
       <use style="stroke:#000000;stroke-width:0.8;" x="200.448" xlink:href="#ma8e0b5474c" y="307.584"/>
      </g>
     </g>
     <g id="text_5">
      <!-- 0 -->
      <g transform="translate(197.26675 322.182437)scale(0.1 -0.1)">
       <use xlink:href="#DejaVuSans-48"/>
      </g>
     </g>
    </g>
    <g id="xtick_6">
     <g id="line2d_6">
      <g>
       <use style="stroke:#000000;stroke-width:0.8;" x="236.16" xlink:href="#ma8e0b5474c" y="307.584"/>
      </g>
     </g>
     <g id="text_6">
      <!-- 10 -->
      <g transform="translate(229.7975 322.182437)scale(0.1 -0.1)">
       <use xlink:href="#DejaVuSans-49"/>
       <use x="63.623047" xlink:href="#DejaVuSans-48"/>
      </g>
     </g>
    </g>
    <g id="xtick_7">
     <g id="line2d_7">
      <g>
       <use style="stroke:#000000;stroke-width:0.8;" x="271.872" xlink:href="#ma8e0b5474c" y="307.584"/>
      </g>
     </g>
     <g id="text_7">
      <!-- 20 -->
      <g transform="translate(265.5095 322.182437)scale(0.1 -0.1)">
       <use xlink:href="#DejaVuSans-50"/>
       <use x="63.623047" xlink:href="#DejaVuSans-48"/>
      </g>
     </g>
    </g>
    <g id="xtick_8">
     <g id="line2d_8">
      <g>
       <use style="stroke:#000000;stroke-width:0.8;" x="307.584" xlink:href="#ma8e0b5474c" y="307.584"/>
      </g>
     </g>
     <g id="text_8">
      <!-- 30 -->
      <g transform="translate(301.2215 322.182437)scale(0.1 -0.1)">
       <use xlink:href="#DejaVuSans-51"/>
       <use x="63.623047" xlink:href="#DejaVuSans-48"/>
      </g>
     </g>
    </g>
    <g id="xtick_9">
     <g id="line2d_9">
      <g>
       <use style="stroke:#000000;stroke-width:0.8;" x="343.296" xlink:href="#ma8e0b5474c" y="307.584"/>
      </g>
     </g>
     <g id="text_9">
      <!-- 40 -->
      <g transform="translate(336.9335 322.182437)scale(0.1 -0.1)">
       <use xlink:href="#DejaVuSans-52"/>
       <use x="63.623047" xlink:href="#DejaVuSans-48"/>
      </g>
     </g>
    </g>
   </g>
   <g id="matplotlib.axis_2">
    <g id="ytick_1">
     <g id="line2d_10">
      <defs>
       <path d="M 0 0 
L -3.5 0 
" id="m18a88b1b34" style="stroke:#000000;stroke-width:0.8;"/>
      </defs>
      <g>
       <use style="stroke:#000000;stroke-width:0.8;" x="57.6" xlink:href="#m18a88b1b34" y="307.584"/>
      </g>
     </g>
     <g id="text_10">
      <!-- −40 -->
      <g transform="translate(29.495313 311.383219)scale(0.1 -0.1)">
       <use xlink:href="#DejaVuSans-8722"/>
       <use x="83.789062" xlink:href="#DejaVuSans-52"/>
       <use x="147.412109" xlink:href="#DejaVuSans-48"/>
      </g>
     </g>
    </g>
    <g id="ytick_2">
     <g id="line2d_11">
      <g>
       <use style="stroke:#000000;stroke-width:0.8;" x="57.6" xlink:href="#m18a88b1b34" y="274.32"/>
      </g>
     </g>
     <g id="text_11">
      <!-- −30 -->
      <g transform="translate(29.495313 278.119219)scale(0.1 -0.1)">
       <use xlink:href="#DejaVuSans-8722"/>
       <use x="83.789062" xlink:href="#DejaVuSans-51"/>
       <use x="147.412109" xlink:href="#DejaVuSans-48"/>
      </g>
     </g>
    </g>
    <g id="ytick_3">
     <g id="line2d_12">
      <g>
       <use style="stroke:#000000;stroke-width:0.8;" x="57.6" xlink:href="#m18a88b1b34" y="241.056"/>
      </g>
     </g>
     <g id="text_12">
      <!-- −20 -->
      <g transform="translate(29.495313 244.855219)scale(0.1 -0.1)">
       <use xlink:href="#DejaVuSans-8722"/>
       <use x="83.789062" xlink:href="#DejaVuSans-50"/>
       <use x="147.412109" xlink:href="#DejaVuSans-48"/>
      </g>
     </g>
    </g>
    <g id="ytick_4">
     <g id="line2d_13">
      <g>
       <use style="stroke:#000000;stroke-width:0.8;" x="57.6" xlink:href="#m18a88b1b34" y="207.792"/>
      </g>
     </g>
     <g id="text_13">
      <!-- −10 -->
      <g transform="translate(29.495313 211.591219)scale(0.1 -0.1)">
       <use xlink:href="#DejaVuSans-8722"/>
       <use x="83.789062" xlink:href="#DejaVuSans-49"/>
       <use x="147.412109" xlink:href="#DejaVuSans-48"/>
      </g>
     </g>
    </g>
    <g id="ytick_5">
     <g id="line2d_14">
      <g>
       <use style="stroke:#000000;stroke-width:0.8;" x="57.6" xlink:href="#m18a88b1b34" y="174.528"/>
      </g>
     </g>
     <g id="text_14">
      <!-- 0 -->
      <g transform="translate(44.2375 178.327219)scale(0.1 -0.1)">
       <use xlink:href="#DejaVuSans-48"/>
      </g>
     </g>
    </g>
    <g id="ytick_6">
     <g id="line2d_15">
      <g>
       <use style="stroke:#000000;stroke-width:0.8;" x="57.6" xlink:href="#m18a88b1b34" y="141.264"/>
      </g>
     </g>
     <g id="text_15">
      <!-- 10 -->
      <g transform="translate(37.875 145.063219)scale(0.1 -0.1)">
       <use xlink:href="#DejaVuSans-49"/>
       <use x="63.623047" xlink:href="#DejaVuSans-48"/>
      </g>
     </g>
    </g>
    <g id="ytick_7">
     <g id="line2d_16">
      <g>
       <use style="stroke:#000000;stroke-width:0.8;" x="57.6" xlink:href="#m18a88b1b34" y="108"/>
      </g>
     </g>
     <g id="text_16">
      <!-- 20 -->
      <g transform="translate(37.875 111.799219)scale(0.1 -0.1)">
       <use xlink:href="#DejaVuSans-50"/>
       <use x="63.623047" xlink:href="#DejaVuSans-48"/>
      </g>
     </g>
    </g>
    <g id="ytick_8">
     <g id="line2d_17">
      <g>
       <use style="stroke:#000000;stroke-width:0.8;" x="57.6" xlink:href="#m18a88b1b34" y="74.736"/>
      </g>
     </g>
     <g id="text_17">
      <!-- 30 -->
      <g transform="translate(37.875 78.535219)scale(0.1 -0.1)">
       <use xlink:href="#DejaVuSans-51"/>
       <use x="63.623047" xlink:href="#DejaVuSans-48"/>
      </g>
     </g>
    </g>
    <g id="ytick_9">
     <g id="line2d_18">
      <g>
       <use style="stroke:#000000;stroke-width:0.8;" x="57.6" xlink:href="#m18a88b1b34" y="41.472"/>
      </g>
     </g>
     <g id="text_18">
      <!-- 40 -->
      <g transform="translate(37.875 45.271219)scale(0.1 -0.1)">
       <use xlink:href="#DejaVuSans-52"/>
       <use x="63.623047" xlink:href="#DejaVuSans-48"/>
      </g>
     </g>
    </g>
   </g>
   <g id="LineCollection_1"/>
   <g id="LineCollection_2">
    <path clip-path="url(#pa8e550aaaf)" d="M 199.005091 178.041502 
L 196.675929 175.872 
L 196.675929 173.184 
L 199.005091 171.014498 
L 201.890909 171.014498 
L 204.220071 173.184 
L 204.220071 175.872 
L 201.890909 178.041502 
L 199.005091 178.041502 
" style="fill:none;stroke:#00df90;stroke-width:1.5;"/>
   </g>
   <g id="LineCollection_3">
    <path clip-path="url(#pa8e550aaaf)" d="M 193.233455 182.534286 
L 191.852507 181.248 
L 191.70159 178.56 
L 191.95713 175.872 
L 191.95713 173.184 
L 191.70159 170.496 
L 191.852507 167.808 
L 193.233455 166.521714 
L 196.119273 166.381142 
L 199.005091 166.619165 
L 201.890909 166.619165 
L 204.776727 166.381142 
L 207.662545 166.521714 
L 209.043493 167.808 
L 209.19441 170.496 
L 208.93887 173.184 
L 208.93887 175.872 
L 209.19441 178.56 
L 209.043493 181.248 
L 207.662545 182.534286 
L 204.776727 182.674858 
L 201.890909 182.436835 
L 199.005091 182.436835 
L 196.119273 182.674858 
L 193.233455 182.534286 
" style="fill:none;stroke:#00bfa0;stroke-width:1.5;"/>
   </g>
   <g id="LineCollection_4">
    <path clip-path="url(#pa8e550aaaf)" d="M 190.347636 184.341342 
L 189.912464 183.936 
L 188.073736 181.248 
L 187.876144 178.56 
L 187.976533 175.872 
L 187.976533 173.184 
L 187.876144 170.496 
L 188.073736 167.808 
L 189.912464 165.12 
L 190.347636 164.714658 
L 193.233455 163.001972 
L 196.119273 162.817925 
L 199.005091 162.911432 
L 201.890909 162.911432 
L 204.776727 162.817925 
L 207.662545 163.001972 
L 210.548364 164.714658 
L 210.983536 165.12 
L 212.822264 167.808 
L 213.019856 170.496 
L 212.919467 173.184 
L 212.919467 175.872 
L 213.019856 178.56 
L 212.822264 181.248 
L 210.983536 183.936 
L 210.548364 184.341342 
L 207.662545 186.054028 
L 204.776727 186.238075 
L 201.890909 186.144568 
L 199.005091 186.144568 
L 196.119273 186.238075 
L 193.233455 186.054028 
L 190.347636 184.341342 
" style="fill:none;stroke:#009fb0;stroke-width:1.5;"/>
   </g>
   <g id="LineCollection_5">
    <path clip-path="url(#pa8e550aaaf)" d="M 193.233455 195.856045 
L 191.697301 194.688 
L 191.653591 192 
L 190.347636 189.739065 
L 190.143032 189.312 
L 187.547504 186.624 
L 187.461818 186.544188 
L 184.576 184.126579 
L 184.117506 183.936 
L 181.690182 182.719566 
L 178.804364 182.678853 
L 177.550358 181.248 
L 178.804364 178.946885 
L 179.575057 178.56 
L 181.690182 176.476327 
L 181.903002 175.872 
L 181.903002 173.184 
L 181.690182 172.579673 
L 179.575057 170.496 
L 178.804364 170.109115 
L 177.550358 167.808 
L 178.804364 166.377147 
L 181.690182 166.336434 
L 184.117506 165.12 
L 184.576 164.929421 
L 187.461818 162.511812 
L 187.547504 162.432 
L 190.143032 159.744 
L 190.347636 159.316935 
L 191.653591 157.056 
L 191.697301 154.368 
L 193.233455 153.199955 
L 195.703916 154.368 
L 196.119273 155.085863 
L 198.35629 157.056 
L 199.005091 157.254231 
L 201.890909 157.254231 
L 202.53971 157.056 
L 204.776727 155.085863 
L 205.192084 154.368 
L 207.662545 153.199955 
L 209.198699 154.368 
L 209.242409 157.056 
L 210.548364 159.316935 
L 210.752968 159.744 
L 213.348496 162.432 
L 213.434182 162.511812 
L 216.32 164.929421 
L 216.778494 165.12 
L 219.205818 166.336434 
L 222.091636 166.377147 
L 223.345642 167.808 
L 222.091636 170.109115 
L 221.320943 170.496 
L 219.205818 172.579673 
L 218.992998 173.184 
L 218.992998 175.872 
L 219.205818 176.476327 
L 221.320943 178.56 
L 222.091636 178.946885 
L 223.345642 181.248 
L 222.091636 182.678853 
L 219.205818 182.719566 
L 216.778494 183.936 
L 216.32 184.126579 
L 213.434182 186.544188 
L 213.348496 186.624 
L 210.752968 189.312 
L 210.548364 189.739065 
L 209.242409 192 
L 209.198699 194.688 
L 207.662545 195.856045 
L 205.192084 194.688 
L 204.776727 193.970137 
L 202.53971 192 
L 201.890909 191.801769 
L 199.005091 191.801769 
L 198.35629 192 
L 196.119273 193.970137 
L 195.703916 194.688 
L 193.233455 195.856045 
" style="fill:none;stroke:#007fc0;stroke-width:1.5;"/>
   </g>
   <g id="LineCollection_6">
    <path clip-path="url(#pa8e550aaaf)" d="M 193.233455 200.347268 
L 192.649658 200.064 
L 190.347636 199.304376 
L 187.574932 197.376 
L 187.461818 197.237026 
L 184.576 195.363635 
L 181.690182 195.766961 
L 178.804364 197.34264 
L 175.954361 194.688 
L 177.645999 192 
L 178.079006 189.312 
L 176.067747 186.624 
L 175.918545 186.51864 
L 173.848254 183.936 
L 173.032727 181.791779 
L 172.728613 181.248 
L 173.032727 180.155309 
L 173.33401 178.56 
L 174.088437 175.872 
L 174.088437 173.184 
L 173.33401 170.496 
L 173.032727 168.900691 
L 172.728613 167.808 
L 173.032727 167.264221 
L 173.848254 165.12 
L 175.918545 162.53736 
L 176.067747 162.432 
L 178.079006 159.744 
L 177.645999 157.056 
L 175.954361 154.368 
L 178.804364 151.71336 
L 181.690182 153.289039 
L 184.576 153.692365 
L 187.461818 151.818974 
L 187.574932 151.68 
L 190.347636 149.751624 
L 192.649658 148.992 
L 193.233455 148.708732 
L 194.40656 148.992 
L 196.119273 149.272631 
L 199.005091 149.975342 
L 201.890909 149.975342 
L 204.776727 149.272631 
L 206.48944 148.992 
L 207.662545 148.708732 
L 208.246342 148.992 
L 210.548364 149.751624 
L 213.321068 151.68 
L 213.434182 151.818974 
L 216.32 153.692365 
L 219.205818 153.289039 
L 222.091636 151.71336 
L 224.941639 154.368 
L 223.250001 157.056 
L 222.816994 159.744 
L 224.828253 162.432 
L 224.977455 162.53736 
L 227.047746 165.12 
L 227.863273 167.264221 
L 228.167387 167.808 
L 227.863273 168.900691 
L 227.56199 170.496 
L 226.807563 173.184 
L 226.807563 175.872 
L 227.56199 178.56 
L 227.863273 180.155309 
L 228.167387 181.248 
L 227.863273 181.791779 
L 227.047746 183.936 
L 224.977455 186.51864 
L 224.828253 186.624 
L 222.816994 189.312 
L 223.250001 192 
L 224.941639 194.688 
L 222.091636 197.34264 
L 219.205818 195.766961 
L 216.32 195.363635 
L 213.434182 197.237026 
L 213.321068 197.376 
L 210.548364 199.304376 
L 208.246342 200.064 
L 207.662545 200.347268 
L 206.48944 200.064 
L 204.776727 199.783369 
L 201.890909 199.080658 
L 199.005091 199.080658 
L 196.119273 199.783369 
L 194.40656 200.064 
L 193.233455 200.347268 
" style="fill:none;stroke:#005fd0;stroke-width:1.5;"/>
   </g>
   <g id="LineCollection_7">
    <path clip-path="url(#pa8e550aaaf)" d="M 175.918545 211.160629 
L 175.530438 210.816 
L 174.805898 208.128 
L 175.918545 205.889082 
L 176.51057 205.44 
L 176.562352 202.752 
L 175.918545 202.370287 
L 173.963314 200.064 
L 173.032727 199.197204 
L 170.556713 197.376 
L 170.146909 196.776325 
L 167.261091 196.824558 
L 166.77896 197.376 
L 164.375273 198.412378 
L 161.489455 197.737504 
L 161.119463 197.376 
L 160.110115 194.688 
L 161.489455 192.363814 
L 162.274879 192 
L 164.375273 189.958768 
L 167.261091 189.691371 
L 167.360313 189.312 
L 167.261091 189.209304 
L 164.375273 188.622827 
L 162.748961 186.624 
L 161.489455 186.100109 
L 159.647792 183.936 
L 158.631567 181.248 
L 159.660766 178.56 
L 161.28506 175.872 
L 161.28506 173.184 
L 159.660766 170.496 
L 158.631567 167.808 
L 159.647792 165.12 
L 161.489455 162.955891 
L 162.748961 162.432 
L 164.375273 160.433173 
L 167.360313 159.744 
L 167.261091 159.364629 
L 164.375273 159.097232 
L 162.274879 157.056 
L 161.489455 156.692186 
L 160.110115 154.368 
L 161.119463 151.68 
L 161.489455 151.318496 
L 164.375273 150.643622 
L 166.77896 151.68 
L 167.261091 152.231442 
L 170.146909 152.279675 
L 170.556713 151.68 
L 173.032727 149.858796 
L 173.963314 148.992 
L 175.918545 146.685713 
L 176.562352 146.304 
L 176.51057 143.616 
L 175.918545 143.166918 
L 174.805898 140.928 
L 175.530438 138.24 
L 175.918545 137.895371 
L 178.804364 136.955212 
L 181.299594 138.24 
L 181.690182 138.971585 
L 183.881634 140.928 
L 184.16871 143.616 
L 184.576 143.708421 
L 184.686253 143.616 
L 185.315892 140.928 
L 187.461818 139.41317 
L 188.024264 138.24 
L 190.347636 136.524581 
L 193.233455 135.578016 
L 196.119273 136.536665 
L 199.005091 138.049617 
L 201.890909 138.049617 
L 204.776727 136.536665 
L 207.662545 135.578016 
L 210.548364 136.524581 
L 212.871736 138.24 
L 213.434182 139.41317 
L 215.580108 140.928 
L 216.32 143.708421 
L 216.72729 143.616 
L 217.014366 140.928 
L 219.205818 138.971585 
L 219.596406 138.24 
L 222.091636 136.955212 
L 224.977455 137.895371 
L 225.365562 138.24 
L 226.090102 140.928 
L 224.977455 143.166918 
L 224.38543 143.616 
L 224.333648 146.304 
L 224.977455 146.685713 
L 226.932686 148.992 
L 227.863273 149.858796 
L 230.339287 151.68 
L 230.749091 152.279675 
L 233.634909 152.231442 
L 234.11704 151.68 
L 236.520727 150.643622 
L 239.406545 151.318496 
L 239.776537 151.68 
L 240.785885 154.368 
L 239.406545 156.692186 
L 238.621121 157.056 
L 236.520727 159.097232 
L 233.634909 159.364629 
L 233.535687 159.744 
L 233.634909 159.846696 
L 236.520727 160.433173 
L 238.147039 162.432 
L 239.406545 162.955891 
L 241.248208 165.12 
L 242.264433 167.808 
L 241.235234 170.496 
L 239.61094 173.184 
L 239.61094 175.872 
L 241.235234 178.56 
L 242.264433 181.248 
L 241.248208 183.936 
L 239.406545 186.100109 
L 238.147039 186.624 
L 236.520727 188.622827 
L 233.535687 189.312 
L 233.634909 189.691371 
L 236.520727 189.958768 
L 238.621121 192 
L 239.406545 192.363814 
L 240.785885 194.688 
L 239.776537 197.376 
L 239.406545 197.737504 
L 236.520727 198.412378 
L 234.11704 197.376 
L 233.634909 196.824558 
L 230.749091 196.776325 
L 230.339287 197.376 
L 227.863273 199.197204 
L 226.932686 200.064 
L 224.977455 202.370287 
L 224.333648 202.752 
L 224.38543 205.44 
L 224.977455 205.889082 
L 226.090102 208.128 
L 225.365562 210.816 
L 224.977455 211.160629 
L 222.091636 212.100788 
L 219.596406 210.816 
L 219.205818 210.084415 
L 217.014366 208.128 
L 216.72729 205.44 
L 216.32 205.347579 
L 216.209747 205.44 
L 215.580108 208.128 
L 213.434182 209.64283 
L 212.871736 210.816 
L 210.548364 212.531419 
L 207.662545 213.477984 
L 204.776727 212.519335 
L 201.890909 211.006383 
L 199.005091 211.006383 
L 196.119273 212.519335 
L 193.233455 213.477984 
L 190.347636 212.531419 
L 188.024264 210.816 
L 187.461818 209.64283 
L 185.315892 208.128 
L 184.576 205.347579 
L 184.16871 205.44 
L 183.881634 208.128 
L 181.690182 210.084415 
L 181.299594 210.816 
L 178.804364 212.100788 
L 175.918545 211.160629 
L 175.918545 211.160629 
" style="fill:none;stroke:#003fe0;stroke-width:1.5;"/>
   </g>
   <g id="LineCollection_8">
    <path clip-path="url(#pa8e550aaaf)" d="M 57.6 307.559855 
L 57.625922 307.584 
" style="fill:none;stroke:#001ff0;stroke-width:1.5;"/>
    <path clip-path="url(#pa8e550aaaf)" d="M 118.176955 307.584 
L 118.202182 307.566499 
L 118.217689 307.584 
" style="fill:none;stroke:#001ff0;stroke-width:1.5;"/>
    <path clip-path="url(#pa8e550aaaf)" d="M 132.504286 307.584 
L 132.631273 307.455807 
L 132.780615 307.584 
" style="fill:none;stroke:#001ff0;stroke-width:1.5;"/>
    <path clip-path="url(#pa8e550aaaf)" d="M 192.96137 307.584 
L 193.233455 307.370537 
L 193.431435 307.584 
" style="fill:none;stroke:#001ff0;stroke-width:1.5;"/>
    <path clip-path="url(#pa8e550aaaf)" d="M 207.464565 307.584 
L 207.662545 307.370537 
L 207.93463 307.584 
" style="fill:none;stroke:#001ff0;stroke-width:1.5;"/>
    <path clip-path="url(#pa8e550aaaf)" d="M 268.115385 307.584 
L 268.264727 307.455807 
L 268.391714 307.584 
" style="fill:none;stroke:#001ff0;stroke-width:1.5;"/>
    <path clip-path="url(#pa8e550aaaf)" d="M 282.678311 307.584 
L 282.693818 307.566499 
L 282.719045 307.584 
" style="fill:none;stroke:#001ff0;stroke-width:1.5;"/>
    <path clip-path="url(#pa8e550aaaf)" d="M 343.270078 307.584 
L 343.296 307.559855 
" style="fill:none;stroke:#001ff0;stroke-width:1.5;"/>
    <path clip-path="url(#pa8e550aaaf)" d="M 343.296 251.159497 
L 343.277211 251.136 
L 343.296 251.121556 
" style="fill:none;stroke:#001ff0;stroke-width:1.5;"/>
    <path clip-path="url(#pa8e550aaaf)" d="M 57.6 251.121556 
L 57.618789 251.136 
L 57.6 251.159497 
" style="fill:none;stroke:#001ff0;stroke-width:1.5;"/>
    <path clip-path="url(#pa8e550aaaf)" d="M 343.296 237.814282 
L 343.158372 237.696 
L 343.296 237.556895 
" style="fill:none;stroke:#001ff0;stroke-width:1.5;"/>
    <path clip-path="url(#pa8e550aaaf)" d="M 57.6 237.556895 
L 57.737628 237.696 
L 57.6 237.814282 
" style="fill:none;stroke:#001ff0;stroke-width:1.5;"/>
    <path clip-path="url(#pa8e550aaaf)" d="M 343.296 181.501434 
L 343.066827 181.248 
L 343.296 181.06359 
" style="fill:none;stroke:#001ff0;stroke-width:1.5;"/>
    <path clip-path="url(#pa8e550aaaf)" d="M 57.6 181.06359 
L 57.829173 181.248 
L 57.6 181.501434 
" style="fill:none;stroke:#001ff0;stroke-width:1.5;"/>
    <path clip-path="url(#pa8e550aaaf)" d="M 343.296 167.99241 
L 343.066827 167.808 
L 343.296 167.554566 
" style="fill:none;stroke:#001ff0;stroke-width:1.5;"/>
    <path clip-path="url(#pa8e550aaaf)" d="M 57.6 167.554566 
L 57.829173 167.808 
L 57.6 167.99241 
" style="fill:none;stroke:#001ff0;stroke-width:1.5;"/>
    <path clip-path="url(#pa8e550aaaf)" d="M 343.296 111.499105 
L 343.158372 111.36 
L 343.296 111.241718 
" style="fill:none;stroke:#001ff0;stroke-width:1.5;"/>
    <path clip-path="url(#pa8e550aaaf)" d="M 57.6 111.241718 
L 57.737628 111.36 
L 57.6 111.499105 
" style="fill:none;stroke:#001ff0;stroke-width:1.5;"/>
    <path clip-path="url(#pa8e550aaaf)" d="M 343.296 97.934444 
L 343.277211 97.92 
L 343.296 97.896503 
" style="fill:none;stroke:#001ff0;stroke-width:1.5;"/>
    <path clip-path="url(#pa8e550aaaf)" d="M 57.6 97.896503 
L 57.618789 97.92 
L 57.6 97.934444 
" style="fill:none;stroke:#001ff0;stroke-width:1.5;"/>
    <path clip-path="url(#pa8e550aaaf)" d="M 57.625922 41.472 
L 57.6 41.496145 
" style="fill:none;stroke:#001ff0;stroke-width:1.5;"/>
    <path clip-path="url(#pa8e550aaaf)" d="M 118.217689 41.472 
L 118.202182 41.489501 
L 118.176955 41.472 
" style="fill:none;stroke:#001ff0;stroke-width:1.5;"/>
    <path clip-path="url(#pa8e550aaaf)" d="M 132.780615 41.472 
L 132.631273 41.600193 
L 132.504286 41.472 
" style="fill:none;stroke:#001ff0;stroke-width:1.5;"/>
    <path clip-path="url(#pa8e550aaaf)" d="M 193.431435 41.472 
L 193.233455 41.685463 
L 192.96137 41.472 
" style="fill:none;stroke:#001ff0;stroke-width:1.5;"/>
    <path clip-path="url(#pa8e550aaaf)" d="M 207.93463 41.472 
L 207.662545 41.685463 
L 207.464565 41.472 
" style="fill:none;stroke:#001ff0;stroke-width:1.5;"/>
    <path clip-path="url(#pa8e550aaaf)" d="M 268.391714 41.472 
L 268.264727 41.600193 
L 268.115385 41.472 
" style="fill:none;stroke:#001ff0;stroke-width:1.5;"/>
    <path clip-path="url(#pa8e550aaaf)" d="M 282.719045 41.472 
L 282.693818 41.489501 
L 282.678311 41.472 
" style="fill:none;stroke:#001ff0;stroke-width:1.5;"/>
    <path clip-path="url(#pa8e550aaaf)" d="M 343.296 41.496145 
L 343.270078 41.472 
" style="fill:none;stroke:#001ff0;stroke-width:1.5;"/>
    <path clip-path="url(#pa8e550aaaf)" d="M 132.631273 294.1947 
L 132.566961 294.144 
L 132.631273 294.041638 
L 132.70723 294.144 
L 132.631273 294.1947 
" style="fill:none;stroke:#001ff0;stroke-width:1.5;"/>
    <path clip-path="url(#pa8e550aaaf)" d="M 193.233455 294.340285 
L 192.908395 294.144 
L 193.233455 293.737567 
L 193.470254 294.144 
L 193.233455 294.340285 
" style="fill:none;stroke:#001ff0;stroke-width:1.5;"/>
    <path clip-path="url(#pa8e550aaaf)" d="M 207.662545 294.340285 
L 207.425746 294.144 
L 207.662545 293.737567 
L 207.987605 294.144 
L 207.662545 294.340285 
" style="fill:none;stroke:#001ff0;stroke-width:1.5;"/>
    <path clip-path="url(#pa8e550aaaf)" d="M 268.264727 294.1947 
L 268.18877 294.144 
L 268.264727 294.041638 
L 268.329039 294.144 
L 268.264727 294.1947 
" style="fill:none;stroke:#001ff0;stroke-width:1.5;"/>
    <path clip-path="url(#pa8e550aaaf)" d="M 193.233455 280.80961 
L 193.032158 280.704 
L 193.233455 279.683005 
L 193.38046 280.704 
L 193.233455 280.80961 
" style="fill:none;stroke:#001ff0;stroke-width:1.5;"/>
    <path clip-path="url(#pa8e550aaaf)" d="M 207.662545 280.80961 
L 207.51554 280.704 
L 207.662545 279.683005 
L 207.863842 280.704 
L 207.662545 280.80961 
" style="fill:none;stroke:#001ff0;stroke-width:1.5;"/>
    <path clip-path="url(#pa8e550aaaf)" d="M 193.233455 267.325002 
L 193.107409 267.264 
L 191.820414 264.576 
L 193.233455 263.751316 
L 194.27182 264.576 
L 193.326026 267.264 
L 193.233455 267.325002 
" style="fill:none;stroke:#001ff0;stroke-width:1.5;"/>
    <path clip-path="url(#pa8e550aaaf)" d="M 207.662545 267.325002 
L 207.569974 267.264 
L 206.62418 264.576 
L 207.662545 263.751316 
L 209.075586 264.576 
L 207.788591 267.264 
L 207.662545 267.325002 
" style="fill:none;stroke:#001ff0;stroke-width:1.5;"/>
    <path clip-path="url(#pa8e550aaaf)" d="M 132.631273 265.194503 
L 132.427506 264.576 
L 132.631273 264.426397 
L 132.878142 264.576 
L 132.631273 265.194503 
" style="fill:none;stroke:#001ff0;stroke-width:1.5;"/>
    <path clip-path="url(#pa8e550aaaf)" d="M 147.060364 265.241452 
L 146.875796 264.576 
L 147.060364 264.408153 
L 147.539166 264.576 
L 147.060364 265.241452 
" style="fill:none;stroke:#001ff0;stroke-width:1.5;"/>
    <path clip-path="url(#pa8e550aaaf)" d="M 178.804364 266.421541 
L 177.135376 264.576 
L 178.804364 264.064276 
L 179.349028 264.576 
L 178.804364 266.421541 
" style="fill:none;stroke:#001ff0;stroke-width:1.5;"/>
    <path clip-path="url(#pa8e550aaaf)" d="M 222.091636 266.421541 
L 221.546972 264.576 
L 222.091636 264.064276 
L 223.760624 264.576 
L 222.091636 266.421541 
" style="fill:none;stroke:#001ff0;stroke-width:1.5;"/>
    <path clip-path="url(#pa8e550aaaf)" d="M 253.835636 265.241452 
L 253.356834 264.576 
L 253.835636 264.408153 
L 254.020204 264.576 
L 253.835636 265.241452 
" style="fill:none;stroke:#001ff0;stroke-width:1.5;"/>
    <path clip-path="url(#pa8e550aaaf)" d="M 268.264727 265.194503 
L 268.017858 264.576 
L 268.264727 264.426397 
L 268.468494 264.576 
L 268.264727 265.194503 
" style="fill:none;stroke:#001ff0;stroke-width:1.5;"/>
    <path clip-path="url(#pa8e550aaaf)" d="M 193.233455 254.087572 
L 192.665483 253.824 
L 190.347636 251.684295 
L 190.020896 251.136 
L 190.347636 250.67602 
L 193.233455 248.699994 
L 195.729217 251.136 
L 193.656154 253.824 
L 193.233455 254.087572 
" style="fill:none;stroke:#001ff0;stroke-width:1.5;"/>
    <path clip-path="url(#pa8e550aaaf)" d="M 207.662545 254.087572 
L 207.239846 253.824 
L 205.166783 251.136 
L 207.662545 248.699994 
L 210.548364 250.67602 
L 210.875104 251.136 
L 210.548364 251.684295 
L 208.230517 253.824 
L 207.662545 254.087572 
" style="fill:none;stroke:#001ff0;stroke-width:1.5;"/>
    <path clip-path="url(#pa8e550aaaf)" d="M 118.202182 251.863385 
L 117.421267 251.136 
L 118.202182 250.669482 
L 118.703032 251.136 
L 118.202182 251.863385 
" style="fill:none;stroke:#001ff0;stroke-width:1.5;"/>
    <path clip-path="url(#pa8e550aaaf)" d="M 132.631273 252.387447 
L 131.689787 251.136 
L 132.631273 250.310836 
L 133.799283 251.136 
L 132.631273 252.387447 
" style="fill:none;stroke:#001ff0;stroke-width:1.5;"/>
    <path clip-path="url(#pa8e550aaaf)" d="M 147.060364 252.643726 
L 146.11486 251.136 
L 147.060364 250.099563 
L 149.618425 251.136 
L 147.060364 252.643726 
" style="fill:none;stroke:#001ff0;stroke-width:1.5;"/>
    <path clip-path="url(#pa8e550aaaf)" d="M 161.489455 252.645976 
L 160.617338 251.136 
L 161.489455 250.036084 
L 164.375273 250.07322 
L 165.2411 251.136 
L 164.375273 252.574571 
L 161.489455 252.645976 
" style="fill:none;stroke:#001ff0;stroke-width:1.5;"/>
    <path clip-path="url(#pa8e550aaaf)" d="M 175.918545 252.359116 
L 175.220349 251.136 
L 175.918545 250.179637 
L 178.804364 249.180617 
L 180.51966 251.136 
L 178.804364 253.686643 
L 175.918545 252.359116 
" style="fill:none;stroke:#001ff0;stroke-width:1.5;"/>
    <path clip-path="url(#pa8e550aaaf)" d="M 222.091636 253.686643 
L 220.37634 251.136 
L 222.091636 249.180617 
L 224.977455 250.179637 
L 225.675651 251.136 
L 224.977455 252.359116 
L 222.091636 253.686643 
" style="fill:none;stroke:#001ff0;stroke-width:1.5;"/>
    <path clip-path="url(#pa8e550aaaf)" d="M 236.520727 252.574571 
L 235.6549 251.136 
L 236.520727 250.07322 
L 239.406545 250.036084 
L 240.278662 251.136 
L 239.406545 252.645976 
L 236.520727 252.574571 
" style="fill:none;stroke:#001ff0;stroke-width:1.5;"/>
    <path clip-path="url(#pa8e550aaaf)" d="M 253.835636 252.643726 
L 251.277575 251.136 
L 253.835636 250.099563 
L 254.78114 251.136 
L 253.835636 252.643726 
" style="fill:none;stroke:#001ff0;stroke-width:1.5;"/>
    <path clip-path="url(#pa8e550aaaf)" d="M 268.264727 252.387447 
L 267.096717 251.136 
L 268.264727 250.310836 
L 269.206213 251.136 
L 268.264727 252.387447 
" style="fill:none;stroke:#001ff0;stroke-width:1.5;"/>
    <path clip-path="url(#pa8e550aaaf)" d="M 282.693818 251.863385 
L 282.192968 251.136 
L 282.693818 250.669482 
L 283.474733 251.136 
L 282.693818 251.863385 
" style="fill:none;stroke:#001ff0;stroke-width:1.5;"/>
    <path clip-path="url(#pa8e550aaaf)" d="M 178.804364 240.984003 
L 176.56629 240.384 
L 175.918545 240.192722 
L 173.852132 237.696 
L 174.866466 235.008 
L 175.918545 233.698846 
L 178.804364 232.774526 
L 181.184741 235.008 
L 181.690182 236.21443 
L 182.443686 237.696 
L 181.690182 238.348769 
L 179.665273 240.384 
L 178.804364 240.984003 
" style="fill:none;stroke:#001ff0;stroke-width:1.5;"/>
    <path clip-path="url(#pa8e550aaaf)" d="M 193.233455 241.503698 
L 190.347636 240.146579 
L 188.187941 237.696 
L 189.019412 235.008 
L 190.347636 233.237991 
L 192.00674 232.32 
L 190.992733 229.632 
L 190.347636 229.406904 
L 187.461818 227.221209 
L 184.576 226.475281 
L 181.690182 227.894951 
L 178.804364 229.427571 
L 175.918545 228.71713 
L 173.032727 226.026194 
L 170.146909 224.350198 
L 167.261091 225.663053 
L 164.375273 227.8096 
L 161.489455 227.587458 
L 160.802871 226.944 
L 158.112641 224.256 
L 158.603636 221.510145 
L 160.457186 218.88 
L 160.819744 216.192 
L 158.489182 213.504 
L 155.717818 211.439803 
L 152.832 211.777509 
L 149.946182 213.549486 
L 147.060364 213.961338 
L 146.630833 213.504 
L 143.483733 210.816 
L 143.245243 208.128 
L 145.549762 205.44 
L 146.959233 202.752 
L 145.159896 200.064 
L 144.174545 199.213876 
L 142.270925 197.376 
L 141.508201 194.688 
L 144.677758 189.312 
L 143.876935 186.624 
L 141.530389 183.936 
L 141.288727 183.335124 
L 138.402909 182.390625 
L 137.417361 183.936 
L 135.517091 185.173177 
L 132.631273 185.947652 
L 130.000348 183.936 
L 129.745455 183.538077 
L 128.543354 181.248 
L 129.745455 179.487553 
L 130.589782 178.56 
L 132.631273 176.812797 
L 135.517091 177.667183 
L 136.833594 178.56 
L 138.402909 180.287329 
L 141.288727 179.415276 
L 141.707379 178.56 
L 143.514871 175.872 
L 143.514871 173.184 
L 141.707379 170.496 
L 141.288727 169.640724 
L 138.402909 168.768671 
L 136.833594 170.496 
L 135.517091 171.388817 
L 132.631273 172.243203 
L 130.589782 170.496 
L 129.745455 169.568447 
L 128.543354 167.808 
L 130.000348 165.12 
L 132.631273 163.108348 
L 135.517091 163.882823 
L 137.417361 165.12 
L 138.402909 166.665375 
L 141.288727 165.720876 
L 141.530389 165.12 
L 143.876935 162.432 
L 144.677758 159.744 
L 143.153611 157.056 
L 141.508201 154.368 
L 142.270925 151.68 
L 145.159896 148.992 
L 146.959233 146.304 
L 145.549762 143.616 
L 143.245243 140.928 
L 143.483733 138.24 
L 144.174545 137.600481 
L 147.060364 135.094662 
L 150.008295 135.552 
L 152.832 137.278491 
L 155.717818 137.616197 
L 158.603636 135.445392 
L 160.819744 132.864 
L 160.457186 130.176 
L 158.554803 127.488 
L 158.112641 124.8 
L 158.603636 124.399913 
L 161.489455 121.468542 
L 164.375273 121.2464 
L 167.261091 123.392947 
L 170.146909 124.705802 
L 173.032727 123.029806 
L 173.945415 122.112 
L 175.918545 120.33887 
L 178.804364 119.628429 
L 184.576 122.580719 
L 187.461818 121.834791 
L 190.347636 119.649096 
L 190.992733 119.424 
L 192.00674 116.736 
L 190.347636 115.818009 
L 189.019412 114.048 
L 188.187941 111.36 
L 190.347636 108.909421 
L 190.774844 108.672 
L 193.233455 107.552302 
L 195.123458 108.672 
L 196.119273 109.458451 
L 197.995058 111.36 
L 197.077795 114.048 
L 196.119273 115.274259 
L 194.264825 116.736 
L 195.201054 119.424 
L 196.119273 119.813954 
L 199.005091 121.497545 
L 201.890909 121.497545 
L 204.776727 119.813954 
L 205.694946 119.424 
L 206.631175 116.736 
L 204.776727 115.274259 
L 203.818205 114.048 
L 202.900942 111.36 
L 204.776727 109.458451 
L 205.772542 108.672 
L 207.662545 107.552302 
L 210.548364 108.909421 
L 212.708059 111.36 
L 211.876588 114.048 
L 210.548364 115.818009 
L 208.88926 116.736 
L 209.903267 119.424 
L 210.548364 119.649096 
L 213.434182 121.834791 
L 216.32 122.580719 
L 219.205818 121.161049 
L 222.091636 119.628429 
L 224.977455 120.33887 
L 227.863273 123.029806 
L 230.749091 124.705802 
L 233.634909 123.392947 
L 236.520727 121.2464 
L 239.406545 121.468542 
L 240.093129 122.112 
L 242.783359 124.8 
L 242.292364 127.545855 
L 240.438814 130.176 
L 240.076256 132.864 
L 242.406818 135.552 
L 245.178182 137.616197 
L 248.064 137.278491 
L 250.949818 135.506514 
L 253.835636 135.094662 
L 254.265167 135.552 
L 257.412267 138.24 
L 257.650757 140.928 
L 255.346238 143.616 
L 253.936767 146.304 
L 255.736104 148.992 
L 256.721455 149.842124 
L 258.625075 151.68 
L 259.387799 154.368 
L 256.218242 159.744 
L 257.019065 162.432 
L 259.365611 165.12 
L 259.607273 165.720876 
L 262.493091 166.665375 
L 263.478639 165.12 
L 265.378909 163.882823 
L 268.264727 163.108348 
L 270.895652 165.12 
L 271.150545 165.517923 
L 272.352646 167.808 
L 271.150545 169.568447 
L 270.306218 170.496 
L 268.264727 172.243203 
L 265.378909 171.388817 
L 264.062406 170.496 
L 262.493091 168.768671 
L 259.607273 169.640724 
L 259.188621 170.496 
L 257.381129 173.184 
L 257.381129 175.872 
L 259.188621 178.56 
L 259.607273 179.415276 
L 262.493091 180.287329 
L 264.062406 178.56 
L 265.378909 177.667183 
L 268.264727 176.812797 
L 270.306218 178.56 
L 271.150545 179.487553 
L 272.352646 181.248 
L 270.895652 183.936 
L 268.264727 185.947652 
L 265.378909 185.173177 
L 263.478639 183.936 
L 262.493091 182.390625 
L 259.607273 183.335124 
L 259.365611 183.936 
L 257.019065 186.624 
L 256.218242 189.312 
L 257.742389 192 
L 259.387799 194.688 
L 258.625075 197.376 
L 255.736104 200.064 
L 253.936767 202.752 
L 255.346238 205.44 
L 257.650757 208.128 
L 257.412267 210.816 
L 256.721455 211.455519 
L 253.835636 213.961338 
L 250.887705 213.504 
L 248.064 211.777509 
L 245.178182 211.439803 
L 242.292364 213.610608 
L 240.076256 216.192 
L 240.438814 218.88 
L 242.341197 221.568 
L 242.783359 224.256 
L 242.292364 224.656087 
L 239.406545 227.587458 
L 236.520727 227.8096 
L 233.634909 225.663053 
L 230.749091 224.350198 
L 227.863273 226.026194 
L 226.950585 226.944 
L 224.977455 228.71713 
L 222.091636 229.427571 
L 216.32 226.475281 
L 213.434182 227.221209 
L 210.548364 229.406904 
L 209.903267 229.632 
L 208.88926 232.32 
L 210.548364 233.237991 
L 211.876588 235.008 
L 212.708059 237.696 
L 210.548364 240.146579 
L 210.121156 240.384 
L 207.662545 241.503698 
L 205.772542 240.384 
L 204.776727 239.597549 
L 202.900942 237.696 
L 203.818205 235.008 
L 204.776727 233.781741 
L 206.631175 232.32 
L 205.694946 229.632 
L 204.776727 229.242046 
L 201.890909 227.558455 
L 199.005091 227.558455 
L 196.119273 229.242046 
L 195.201054 229.632 
L 194.264825 232.32 
L 196.119273 233.781741 
L 197.077795 235.008 
L 197.995058 237.696 
L 196.119273 239.597549 
L 195.123458 240.384 
L 193.233455 241.503698 
L 193.233455 241.503698 
" style="fill:none;stroke:#001ff0;stroke-width:1.5;"/>
    <path clip-path="url(#pa8e550aaaf)" d="M 222.091636 240.984003 
L 221.230727 240.384 
L 219.205818 238.348769 
L 218.452314 237.696 
L 219.205818 236.21443 
L 219.711259 235.008 
L 222.091636 232.774526 
L 224.977455 233.698846 
L 226.029534 235.008 
L 227.043868 237.696 
L 224.977455 240.192722 
L 224.32971 240.384 
L 222.091636 240.984003 
" style="fill:none;stroke:#001ff0;stroke-width:1.5;"/>
    <path clip-path="url(#pa8e550aaaf)" d="M 72.029091 237.755903 
L 71.974659 237.696 
L 72.029091 237.625249 
L 72.138986 237.696 
L 72.029091 237.755903 
" style="fill:none;stroke:#001ff0;stroke-width:1.5;"/>
    <path clip-path="url(#pa8e550aaaf)" d="M 103.773091 237.885799 
L 103.10907 237.696 
L 103.773091 237.466053 
L 103.933703 237.696 
L 103.773091 237.885799 
" style="fill:none;stroke:#001ff0;stroke-width:1.5;"/>
    <path clip-path="url(#pa8e550aaaf)" d="M 118.202182 238.572949 
L 116.858637 237.696 
L 118.202182 236.608055 
L 119.088073 237.696 
L 118.202182 238.572949 
" style="fill:none;stroke:#001ff0;stroke-width:1.5;"/>
    <path clip-path="url(#pa8e550aaaf)" d="M 132.631273 239.117706 
L 131.104939 237.696 
L 132.631273 235.859597 
L 134.602823 237.696 
L 132.631273 239.117706 
" style="fill:none;stroke:#001ff0;stroke-width:1.5;"/>
    <path clip-path="url(#pa8e550aaaf)" d="M 147.060364 239.571236 
L 145.381766 237.696 
L 147.060364 235.106571 
L 149.946182 236.403992 
L 150.700397 237.696 
L 149.946182 238.587842 
L 147.060364 239.571236 
" style="fill:none;stroke:#001ff0;stroke-width:1.5;"/>
    <path clip-path="url(#pa8e550aaaf)" d="M 161.489455 239.949449 
L 159.623911 237.696 
L 160.951098 235.008 
L 161.489455 234.419336 
L 164.375273 234.299591 
L 165.105718 235.008 
L 166.456251 237.696 
L 164.375273 239.990045 
L 161.489455 239.949449 
" style="fill:none;stroke:#001ff0;stroke-width:1.5;"/>
    <path clip-path="url(#pa8e550aaaf)" d="M 236.520727 239.990045 
L 234.439749 237.696 
L 235.790282 235.008 
L 236.520727 234.299591 
L 239.406545 234.419336 
L 239.944902 235.008 
L 241.272089 237.696 
L 239.406545 239.949449 
L 236.520727 239.990045 
" style="fill:none;stroke:#001ff0;stroke-width:1.5;"/>
    <path clip-path="url(#pa8e550aaaf)" d="M 250.949818 238.587842 
L 250.195603 237.696 
L 250.949818 236.403992 
L 253.835636 235.106571 
L 255.514234 237.696 
L 253.835636 239.571236 
L 250.949818 238.587842 
" style="fill:none;stroke:#001ff0;stroke-width:1.5;"/>
    <path clip-path="url(#pa8e550aaaf)" d="M 268.264727 239.117706 
L 266.293177 237.696 
L 268.264727 235.859597 
L 269.791061 237.696 
L 268.264727 239.117706 
" style="fill:none;stroke:#001ff0;stroke-width:1.5;"/>
    <path clip-path="url(#pa8e550aaaf)" d="M 282.693818 238.572949 
L 281.807927 237.696 
L 282.693818 236.608055 
L 284.037363 237.696 
L 282.693818 238.572949 
" style="fill:none;stroke:#001ff0;stroke-width:1.5;"/>
    <path clip-path="url(#pa8e550aaaf)" d="M 297.122909 237.885799 
L 296.962297 237.696 
L 297.122909 237.466053 
L 297.78693 237.696 
L 297.122909 237.885799 
" style="fill:none;stroke:#001ff0;stroke-width:1.5;"/>
    <path clip-path="url(#pa8e550aaaf)" d="M 328.866909 237.755903 
L 328.757014 237.696 
L 328.866909 237.625249 
L 328.921341 237.696 
L 328.866909 237.755903 
" style="fill:none;stroke:#001ff0;stroke-width:1.5;"/>
    <path clip-path="url(#pa8e550aaaf)" d="M 103.773091 224.427916 
L 103.058667 224.256 
L 103.773091 223.810019 
L 103.953291 224.256 
L 103.773091 224.427916 
" style="fill:none;stroke:#001ff0;stroke-width:1.5;"/>
    <path clip-path="url(#pa8e550aaaf)" d="M 118.202182 225.13669 
L 116.583498 224.256 
L 118.202182 221.873289 
L 119.314894 224.256 
L 118.202182 225.13669 
" style="fill:none;stroke:#001ff0;stroke-width:1.5;"/>
    <path clip-path="url(#pa8e550aaaf)" d="M 132.631273 225.819532 
L 130.618033 224.256 
L 131.673798 221.568 
L 132.631273 220.865485 
L 134.018364 221.568 
L 135.411266 224.256 
L 132.631273 225.819532 
" style="fill:none;stroke:#001ff0;stroke-width:1.5;"/>
    <path clip-path="url(#pa8e550aaaf)" d="M 147.060364 226.561955 
L 144.584706 224.256 
L 145.192002 221.568 
L 147.060364 219.779171 
L 149.946182 220.27659 
L 151.332631 221.568 
L 151.866656 224.256 
L 149.946182 225.996289 
L 147.060364 226.561955 
" style="fill:none;stroke:#001ff0;stroke-width:1.5;"/>
    <path clip-path="url(#pa8e550aaaf)" d="M 250.949818 225.996289 
L 249.029344 224.256 
L 249.563369 221.568 
L 250.949818 220.27659 
L 253.835636 219.779171 
L 255.703998 221.568 
L 256.311294 224.256 
L 253.835636 226.561955 
L 250.949818 225.996289 
" style="fill:none;stroke:#001ff0;stroke-width:1.5;"/>
    <path clip-path="url(#pa8e550aaaf)" d="M 268.264727 225.819532 
L 265.484734 224.256 
L 266.877636 221.568 
L 268.264727 220.865485 
L 269.222202 221.568 
L 270.277967 224.256 
L 268.264727 225.819532 
" style="fill:none;stroke:#001ff0;stroke-width:1.5;"/>
    <path clip-path="url(#pa8e550aaaf)" d="M 282.693818 225.13669 
L 281.581106 224.256 
L 282.693818 221.873289 
L 284.312502 224.256 
L 282.693818 225.13669 
" style="fill:none;stroke:#001ff0;stroke-width:1.5;"/>
    <path clip-path="url(#pa8e550aaaf)" d="M 297.122909 224.427916 
L 296.942709 224.256 
L 297.122909 223.810019 
L 297.837333 224.256 
L 297.122909 224.427916 
" style="fill:none;stroke:#001ff0;stroke-width:1.5;"/>
    <path clip-path="url(#pa8e550aaaf)" d="M 167.261091 219.105802 
L 170.146909 220.628625 
L 171.226809 218.88 
L 170.146909 216.360105 
L 167.261091 217.290782 
L 167.029719 218.88 
L 167.261091 219.105802 
" style="fill:none;stroke:#001ff0;stroke-width:1.5;"/>
    <path clip-path="url(#pa8e550aaaf)" d="M 230.749091 220.628625 
L 233.634909 219.105802 
L 233.866281 218.88 
L 233.634909 217.290782 
L 230.749091 216.360105 
L 229.669191 218.88 
L 230.749091 220.628625 
" style="fill:none;stroke:#001ff0;stroke-width:1.5;"/>
    <path clip-path="url(#pa8e550aaaf)" d="M 118.202182 211.628334 
L 116.581082 210.816 
L 116.657742 208.128 
L 118.202182 207.321524 
L 119.343175 208.128 
L 119.383043 210.816 
L 118.202182 211.628334 
" style="fill:none;stroke:#001ff0;stroke-width:1.5;"/>
    <path clip-path="url(#pa8e550aaaf)" d="M 132.631273 212.553663 
L 130.211986 210.816 
L 130.168402 208.128 
L 132.631273 206.189669 
L 135.517091 207.447626 
L 136.277634 208.128 
L 136.149076 210.816 
L 135.517091 211.317453 
L 132.631273 212.553663 
" style="fill:none;stroke:#001ff0;stroke-width:1.5;"/>
    <path clip-path="url(#pa8e550aaaf)" d="M 265.378909 211.317453 
L 264.746924 210.816 
L 264.618366 208.128 
L 265.378909 207.447626 
L 268.264727 206.189669 
L 270.727598 208.128 
L 270.684014 210.816 
L 268.264727 212.553663 
L 265.378909 211.317453 
" style="fill:none;stroke:#001ff0;stroke-width:1.5;"/>
    <path clip-path="url(#pa8e550aaaf)" d="M 282.693818 211.628334 
L 281.512957 210.816 
L 281.552825 208.128 
L 282.693818 207.321524 
L 284.238258 208.128 
L 284.314918 210.816 
L 282.693818 211.628334 
" style="fill:none;stroke:#001ff0;stroke-width:1.5;"/>
    <path clip-path="url(#pa8e550aaaf)" d="M 152.832 205.655512 
L 154.538173 205.44 
L 155.537342 202.752 
L 152.832 201.746126 
L 150.954689 202.752 
L 152.589581 205.44 
L 152.832 205.655512 
" style="fill:none;stroke:#001ff0;stroke-width:1.5;"/>
    <path clip-path="url(#pa8e550aaaf)" d="M 248.064 205.655512 
L 248.306419 205.44 
L 249.941311 202.752 
L 248.064 201.746126 
L 245.358658 202.752 
L 246.357827 205.44 
L 248.064 205.655512 
" style="fill:none;stroke:#001ff0;stroke-width:1.5;"/>
    <path clip-path="url(#pa8e550aaaf)" d="M 118.202182 198.026336 
L 116.889053 197.376 
L 115.463829 194.688 
L 118.202182 193.090285 
L 120.301467 194.688 
L 119.228926 197.376 
L 118.202182 198.026336 
" style="fill:none;stroke:#001ff0;stroke-width:1.5;"/>
    <path clip-path="url(#pa8e550aaaf)" d="M 132.631273 199.300764 
L 129.950809 197.376 
L 129.745455 196.772657 
L 129.101295 194.688 
L 129.745455 193.886104 
L 131.930465 192 
L 132.631273 191.298147 
L 134.221876 192 
L 135.517091 192.470794 
L 137.914934 194.688 
L 136.92259 197.376 
L 135.517091 198.355961 
L 132.631273 199.300764 
" style="fill:none;stroke:#001ff0;stroke-width:1.5;"/>
    <path clip-path="url(#pa8e550aaaf)" d="M 265.378909 198.355961 
L 263.97341 197.376 
L 262.981066 194.688 
L 265.378909 192.470794 
L 266.674124 192 
L 268.264727 191.298147 
L 268.965535 192 
L 271.150545 193.886104 
L 271.794705 194.688 
L 271.150545 196.772657 
L 270.945191 197.376 
L 268.264727 199.300764 
L 265.378909 198.355961 
" style="fill:none;stroke:#001ff0;stroke-width:1.5;"/>
    <path clip-path="url(#pa8e550aaaf)" d="M 282.693818 198.026336 
L 281.667074 197.376 
L 280.594533 194.688 
L 282.693818 193.090285 
L 285.432171 194.688 
L 284.006947 197.376 
L 282.693818 198.026336 
" style="fill:none;stroke:#001ff0;stroke-width:1.5;"/>
    <path clip-path="url(#pa8e550aaaf)" d="M 103.773091 196.242581 
L 101.79173 194.688 
L 103.773091 194.180671 
L 104.322474 194.688 
L 103.773091 196.242581 
" style="fill:none;stroke:#001ff0;stroke-width:1.5;"/>
    <path clip-path="url(#pa8e550aaaf)" d="M 297.122909 196.242581 
L 296.573526 194.688 
L 297.122909 194.180671 
L 299.10427 194.688 
L 297.122909 196.242581 
" style="fill:none;stroke:#001ff0;stroke-width:1.5;"/>
    <path clip-path="url(#pa8e550aaaf)" d="M 118.202182 184.240343 
L 117.613536 183.936 
L 115.316364 181.777038 
L 115.033395 181.248 
L 115.316364 180.854276 
L 118.202182 178.923318 
L 120.817461 181.248 
L 118.696013 183.936 
L 118.202182 184.240343 
" style="fill:none;stroke:#001ff0;stroke-width:1.5;"/>
    <path clip-path="url(#pa8e550aaaf)" d="M 282.693818 184.240343 
L 282.199987 183.936 
L 280.078539 181.248 
L 282.693818 178.923318 
L 285.579636 180.854276 
L 285.862605 181.248 
L 285.579636 181.777038 
L 283.282464 183.936 
L 282.693818 184.240343 
" style="fill:none;stroke:#001ff0;stroke-width:1.5;"/>
    <path clip-path="url(#pa8e550aaaf)" d="M 72.029091 181.550777 
L 71.818361 181.248 
L 72.029091 181.027433 
L 72.465434 181.248 
L 72.029091 181.550777 
" style="fill:none;stroke:#001ff0;stroke-width:1.5;"/>
    <path clip-path="url(#pa8e550aaaf)" d="M 86.458182 181.435498 
L 86.344799 181.248 
L 86.458182 181.111071 
L 87.554315 181.248 
L 86.458182 181.435498 
" style="fill:none;stroke:#001ff0;stroke-width:1.5;"/>
    <path clip-path="url(#pa8e550aaaf)" d="M 100.887273 181.365406 
L 100.821781 181.248 
L 100.887273 181.161774 
L 103.773091 180.280813 
L 104.658465 181.248 
L 103.773091 182.564179 
L 100.887273 181.365406 
" style="fill:none;stroke:#001ff0;stroke-width:1.5;"/>
    <path clip-path="url(#pa8e550aaaf)" d="M 297.122909 182.564179 
L 296.237535 181.248 
L 297.122909 180.280813 
L 300.008727 181.161774 
L 300.074219 181.248 
L 300.008727 181.365406 
L 297.122909 182.564179 
" style="fill:none;stroke:#001ff0;stroke-width:1.5;"/>
    <path clip-path="url(#pa8e550aaaf)" d="M 314.437818 181.435498 
L 313.341685 181.248 
L 314.437818 181.111071 
L 314.551201 181.248 
L 314.437818 181.435498 
" style="fill:none;stroke:#001ff0;stroke-width:1.5;"/>
    <path clip-path="url(#pa8e550aaaf)" d="M 328.866909 181.550777 
L 328.430566 181.248 
L 328.866909 181.027433 
L 329.077639 181.248 
L 328.866909 181.550777 
" style="fill:none;stroke:#001ff0;stroke-width:1.5;"/>
    <path clip-path="url(#pa8e550aaaf)" d="M 72.029091 168.028567 
L 71.818361 167.808 
L 72.029091 167.505223 
L 72.465434 167.808 
L 72.029091 168.028567 
" style="fill:none;stroke:#001ff0;stroke-width:1.5;"/>
    <path clip-path="url(#pa8e550aaaf)" d="M 86.458182 167.944929 
L 86.344799 167.808 
L 86.458182 167.620502 
L 87.554315 167.808 
L 86.458182 167.944929 
" style="fill:none;stroke:#001ff0;stroke-width:1.5;"/>
    <path clip-path="url(#pa8e550aaaf)" d="M 100.887273 167.894226 
L 100.821781 167.808 
L 100.887273 167.690594 
L 103.773091 166.491821 
L 104.658465 167.808 
L 103.773091 168.775187 
L 100.887273 167.894226 
" style="fill:none;stroke:#001ff0;stroke-width:1.5;"/>
    <path clip-path="url(#pa8e550aaaf)" d="M 115.316364 168.201724 
L 115.033395 167.808 
L 115.316364 167.278962 
L 117.613536 165.12 
L 118.202182 164.815657 
L 118.696013 165.12 
L 120.817461 167.808 
L 118.202182 170.132682 
L 115.316364 168.201724 
" style="fill:none;stroke:#001ff0;stroke-width:1.5;"/>
    <path clip-path="url(#pa8e550aaaf)" d="M 282.693818 170.132682 
L 280.078539 167.808 
L 282.199987 165.12 
L 282.693818 164.815657 
L 283.282464 165.12 
L 285.579636 167.278962 
L 285.862605 167.808 
L 285.579636 168.201724 
L 282.693818 170.132682 
" style="fill:none;stroke:#001ff0;stroke-width:1.5;"/>
    <path clip-path="url(#pa8e550aaaf)" d="M 297.122909 168.775187 
L 296.237535 167.808 
L 297.122909 166.491821 
L 300.008727 167.690594 
L 300.074219 167.808 
L 300.008727 167.894226 
L 297.122909 168.775187 
" style="fill:none;stroke:#001ff0;stroke-width:1.5;"/>
    <path clip-path="url(#pa8e550aaaf)" d="M 314.437818 167.944929 
L 313.341685 167.808 
L 314.437818 167.620502 
L 314.551201 167.808 
L 314.437818 167.944929 
" style="fill:none;stroke:#001ff0;stroke-width:1.5;"/>
    <path clip-path="url(#pa8e550aaaf)" d="M 328.866909 168.028567 
L 328.430566 167.808 
L 328.866909 167.505223 
L 329.077639 167.808 
L 328.866909 168.028567 
" style="fill:none;stroke:#001ff0;stroke-width:1.5;"/>
    <path clip-path="url(#pa8e550aaaf)" d="M 132.631273 157.757853 
L 131.930465 157.056 
L 129.745455 155.169896 
L 129.101295 154.368 
L 129.745455 152.283343 
L 129.950809 151.68 
L 132.631273 149.755236 
L 135.517091 150.700039 
L 136.92259 151.68 
L 137.914934 154.368 
L 135.517091 156.585206 
L 134.221876 157.056 
L 132.631273 157.757853 
" style="fill:none;stroke:#001ff0;stroke-width:1.5;"/>
    <path clip-path="url(#pa8e550aaaf)" d="M 268.264727 157.757853 
L 266.674124 157.056 
L 265.378909 156.585206 
L 262.981066 154.368 
L 263.97341 151.68 
L 265.378909 150.700039 
L 268.264727 149.755236 
L 270.945191 151.68 
L 271.150545 152.283343 
L 271.794705 154.368 
L 271.150545 155.169896 
L 268.965535 157.056 
L 268.264727 157.757853 
" style="fill:none;stroke:#001ff0;stroke-width:1.5;"/>
    <path clip-path="url(#pa8e550aaaf)" d="M 103.773091 154.875329 
L 101.79173 154.368 
L 103.773091 152.813419 
L 104.322474 154.368 
L 103.773091 154.875329 
" style="fill:none;stroke:#001ff0;stroke-width:1.5;"/>
    <path clip-path="url(#pa8e550aaaf)" d="M 118.202182 155.965715 
L 115.463829 154.368 
L 116.889053 151.68 
L 118.202182 151.029664 
L 119.228926 151.68 
L 120.301467 154.368 
L 118.202182 155.965715 
" style="fill:none;stroke:#001ff0;stroke-width:1.5;"/>
    <path clip-path="url(#pa8e550aaaf)" d="M 282.693818 155.965715 
L 280.594533 154.368 
L 281.667074 151.68 
L 282.693818 151.029664 
L 284.006947 151.68 
L 285.432171 154.368 
L 282.693818 155.965715 
" style="fill:none;stroke:#001ff0;stroke-width:1.5;"/>
    <path clip-path="url(#pa8e550aaaf)" d="M 297.122909 154.875329 
L 296.573526 154.368 
L 297.122909 152.813419 
L 299.10427 154.368 
L 297.122909 154.875329 
" style="fill:none;stroke:#001ff0;stroke-width:1.5;"/>
    <path clip-path="url(#pa8e550aaaf)" d="M 152.832 147.309874 
L 155.537342 146.304 
L 154.538173 143.616 
L 152.832 143.400488 
L 152.589581 143.616 
L 150.954689 146.304 
L 152.832 147.309874 
" style="fill:none;stroke:#001ff0;stroke-width:1.5;"/>
    <path clip-path="url(#pa8e550aaaf)" d="M 248.064 147.309874 
L 249.941311 146.304 
L 248.306419 143.616 
L 248.064 143.400488 
L 246.357827 143.616 
L 245.358658 146.304 
L 248.064 147.309874 
" style="fill:none;stroke:#001ff0;stroke-width:1.5;"/>
    <path clip-path="url(#pa8e550aaaf)" d="M 118.202182 141.734476 
L 116.657742 140.928 
L 116.581082 138.24 
L 118.202182 137.427666 
L 119.383043 138.24 
L 119.343175 140.928 
L 118.202182 141.734476 
" style="fill:none;stroke:#001ff0;stroke-width:1.5;"/>
    <path clip-path="url(#pa8e550aaaf)" d="M 132.631273 142.866331 
L 130.168402 140.928 
L 130.211986 138.24 
L 132.631273 136.502337 
L 135.517091 137.738547 
L 136.149076 138.24 
L 136.277634 140.928 
L 135.517091 141.608374 
L 132.631273 142.866331 
" style="fill:none;stroke:#001ff0;stroke-width:1.5;"/>
    <path clip-path="url(#pa8e550aaaf)" d="M 265.378909 141.608374 
L 264.618366 140.928 
L 264.746924 138.24 
L 265.378909 137.738547 
L 268.264727 136.502337 
L 270.684014 138.24 
L 270.727598 140.928 
L 268.264727 142.866331 
L 265.378909 141.608374 
" style="fill:none;stroke:#001ff0;stroke-width:1.5;"/>
    <path clip-path="url(#pa8e550aaaf)" d="M 282.693818 141.734476 
L 281.552825 140.928 
L 281.512957 138.24 
L 282.693818 137.427666 
L 284.314918 138.24 
L 284.238258 140.928 
L 282.693818 141.734476 
" style="fill:none;stroke:#001ff0;stroke-width:1.5;"/>
    <path clip-path="url(#pa8e550aaaf)" d="M 167.261091 131.765218 
L 170.146909 132.695895 
L 171.226809 130.176 
L 170.146909 128.427375 
L 167.261091 129.950198 
L 167.029719 130.176 
L 167.261091 131.765218 
" style="fill:none;stroke:#001ff0;stroke-width:1.5;"/>
    <path clip-path="url(#pa8e550aaaf)" d="M 230.749091 132.695895 
L 233.634909 131.765218 
L 233.866281 130.176 
L 233.634909 129.950198 
L 230.749091 128.427375 
L 229.669191 130.176 
L 230.749091 132.695895 
" style="fill:none;stroke:#001ff0;stroke-width:1.5;"/>
    <path clip-path="url(#pa8e550aaaf)" d="M 132.631273 128.190515 
L 131.673798 127.488 
L 130.618033 124.8 
L 132.631273 123.236468 
L 135.411266 124.8 
L 134.018364 127.488 
L 132.631273 128.190515 
" style="fill:none;stroke:#001ff0;stroke-width:1.5;"/>
    <path clip-path="url(#pa8e550aaaf)" d="M 147.060364 129.276829 
L 145.192002 127.488 
L 144.584706 124.8 
L 147.060364 122.494045 
L 149.946182 123.059711 
L 151.866656 124.8 
L 151.332631 127.488 
L 149.946182 128.77941 
L 147.060364 129.276829 
" style="fill:none;stroke:#001ff0;stroke-width:1.5;"/>
    <path clip-path="url(#pa8e550aaaf)" d="M 250.949818 128.77941 
L 249.563369 127.488 
L 249.029344 124.8 
L 250.949818 123.059711 
L 253.835636 122.494045 
L 256.311294 124.8 
L 255.703998 127.488 
L 253.835636 129.276829 
L 250.949818 128.77941 
" style="fill:none;stroke:#001ff0;stroke-width:1.5;"/>
    <path clip-path="url(#pa8e550aaaf)" d="M 268.264727 128.190515 
L 266.877636 127.488 
L 265.484734 124.8 
L 268.264727 123.236468 
L 270.277967 124.8 
L 269.222202 127.488 
L 268.264727 128.190515 
" style="fill:none;stroke:#001ff0;stroke-width:1.5;"/>
    <path clip-path="url(#pa8e550aaaf)" d="M 103.773091 125.245981 
L 103.058667 124.8 
L 103.773091 124.628084 
L 103.953291 124.8 
L 103.773091 125.245981 
" style="fill:none;stroke:#001ff0;stroke-width:1.5;"/>
    <path clip-path="url(#pa8e550aaaf)" d="M 118.202182 127.182711 
L 116.583498 124.8 
L 118.202182 123.91931 
L 119.314894 124.8 
L 118.202182 127.182711 
" style="fill:none;stroke:#001ff0;stroke-width:1.5;"/>
    <path clip-path="url(#pa8e550aaaf)" d="M 282.693818 127.182711 
L 281.581106 124.8 
L 282.693818 123.91931 
L 284.312502 124.8 
L 282.693818 127.182711 
" style="fill:none;stroke:#001ff0;stroke-width:1.5;"/>
    <path clip-path="url(#pa8e550aaaf)" d="M 297.122909 125.245981 
L 296.942709 124.8 
L 297.122909 124.628084 
L 297.837333 124.8 
L 297.122909 125.245981 
" style="fill:none;stroke:#001ff0;stroke-width:1.5;"/>
    <path clip-path="url(#pa8e550aaaf)" d="M 161.489455 114.636664 
L 160.951098 114.048 
L 159.623911 111.36 
L 161.489455 109.106551 
L 164.375273 109.065955 
L 166.456251 111.36 
L 165.105718 114.048 
L 164.375273 114.756409 
L 161.489455 114.636664 
" style="fill:none;stroke:#001ff0;stroke-width:1.5;"/>
    <path clip-path="url(#pa8e550aaaf)" d="M 175.918545 115.357154 
L 174.866466 114.048 
L 173.852132 111.36 
L 175.918545 108.863278 
L 176.56629 108.672 
L 178.804364 108.071997 
L 179.665273 108.672 
L 181.690182 110.707231 
L 182.443686 111.36 
L 181.690182 112.84157 
L 181.184741 114.048 
L 178.804364 116.281474 
L 175.918545 115.357154 
" style="fill:none;stroke:#001ff0;stroke-width:1.5;"/>
    <path clip-path="url(#pa8e550aaaf)" d="M 222.091636 116.281474 
L 219.711259 114.048 
L 219.205818 112.84157 
L 218.452314 111.36 
L 219.205818 110.707231 
L 221.230727 108.672 
L 222.091636 108.071997 
L 224.32971 108.672 
L 224.977455 108.863278 
L 227.043868 111.36 
L 226.029534 114.048 
L 224.977455 115.357154 
L 222.091636 116.281474 
" style="fill:none;stroke:#001ff0;stroke-width:1.5;"/>
    <path clip-path="url(#pa8e550aaaf)" d="M 236.520727 114.756409 
L 235.790282 114.048 
L 234.439749 111.36 
L 236.520727 109.065955 
L 239.406545 109.106551 
L 241.272089 111.36 
L 239.944902 114.048 
L 239.406545 114.636664 
L 236.520727 114.756409 
" style="fill:none;stroke:#001ff0;stroke-width:1.5;"/>
    <path clip-path="url(#pa8e550aaaf)" d="M 72.029091 111.430751 
L 71.974659 111.36 
L 72.029091 111.300097 
L 72.138986 111.36 
L 72.029091 111.430751 
" style="fill:none;stroke:#001ff0;stroke-width:1.5;"/>
    <path clip-path="url(#pa8e550aaaf)" d="M 103.773091 111.589947 
L 103.10907 111.36 
L 103.773091 111.170201 
L 103.933703 111.36 
L 103.773091 111.589947 
" style="fill:none;stroke:#001ff0;stroke-width:1.5;"/>
    <path clip-path="url(#pa8e550aaaf)" d="M 118.202182 112.447945 
L 116.858637 111.36 
L 118.202182 110.483051 
L 119.088073 111.36 
L 118.202182 112.447945 
" style="fill:none;stroke:#001ff0;stroke-width:1.5;"/>
    <path clip-path="url(#pa8e550aaaf)" d="M 132.631273 113.196403 
L 131.104939 111.36 
L 132.631273 109.938294 
L 134.602823 111.36 
L 132.631273 113.196403 
" style="fill:none;stroke:#001ff0;stroke-width:1.5;"/>
    <path clip-path="url(#pa8e550aaaf)" d="M 147.060364 113.949429 
L 145.381766 111.36 
L 147.060364 109.484764 
L 149.946182 110.468158 
L 150.700397 111.36 
L 149.946182 112.652008 
L 147.060364 113.949429 
" style="fill:none;stroke:#001ff0;stroke-width:1.5;"/>
    <path clip-path="url(#pa8e550aaaf)" d="M 250.949818 112.652008 
L 250.195603 111.36 
L 250.949818 110.468158 
L 253.835636 109.484764 
L 255.514234 111.36 
L 253.835636 113.949429 
L 250.949818 112.652008 
" style="fill:none;stroke:#001ff0;stroke-width:1.5;"/>
    <path clip-path="url(#pa8e550aaaf)" d="M 268.264727 113.196403 
L 266.293177 111.36 
L 268.264727 109.938294 
L 269.791061 111.36 
L 268.264727 113.196403 
" style="fill:none;stroke:#001ff0;stroke-width:1.5;"/>
    <path clip-path="url(#pa8e550aaaf)" d="M 282.693818 112.447945 
L 281.807927 111.36 
L 282.693818 110.483051 
L 284.037363 111.36 
L 282.693818 112.447945 
" style="fill:none;stroke:#001ff0;stroke-width:1.5;"/>
    <path clip-path="url(#pa8e550aaaf)" d="M 297.122909 111.589947 
L 296.962297 111.36 
L 297.122909 111.170201 
L 297.78693 111.36 
L 297.122909 111.589947 
" style="fill:none;stroke:#001ff0;stroke-width:1.5;"/>
    <path clip-path="url(#pa8e550aaaf)" d="M 328.866909 111.430751 
L 328.757014 111.36 
L 328.866909 111.300097 
L 328.921341 111.36 
L 328.866909 111.430751 
" style="fill:none;stroke:#001ff0;stroke-width:1.5;"/>
    <path clip-path="url(#pa8e550aaaf)" d="M 118.202182 98.386518 
L 117.421267 97.92 
L 118.202182 97.192615 
L 118.703032 97.92 
L 118.202182 98.386518 
" style="fill:none;stroke:#001ff0;stroke-width:1.5;"/>
    <path clip-path="url(#pa8e550aaaf)" d="M 132.631273 98.745164 
L 131.689787 97.92 
L 132.631273 96.668553 
L 133.799283 97.92 
L 132.631273 98.745164 
" style="fill:none;stroke:#001ff0;stroke-width:1.5;"/>
    <path clip-path="url(#pa8e550aaaf)" d="M 147.060364 98.956437 
L 146.11486 97.92 
L 147.060364 96.412274 
L 149.618425 97.92 
L 147.060364 98.956437 
" style="fill:none;stroke:#001ff0;stroke-width:1.5;"/>
    <path clip-path="url(#pa8e550aaaf)" d="M 161.489455 99.019916 
L 160.617338 97.92 
L 161.489455 96.410024 
L 164.375273 96.481429 
L 165.2411 97.92 
L 164.375273 98.98278 
L 161.489455 99.019916 
" style="fill:none;stroke:#001ff0;stroke-width:1.5;"/>
    <path clip-path="url(#pa8e550aaaf)" d="M 175.918545 98.876363 
L 175.220349 97.92 
L 175.918545 96.696884 
L 178.804364 95.369357 
L 180.51966 97.92 
L 178.804364 99.875383 
L 175.918545 98.876363 
" style="fill:none;stroke:#001ff0;stroke-width:1.5;"/>
    <path clip-path="url(#pa8e550aaaf)" d="M 190.347636 98.37998 
L 190.020896 97.92 
L 190.347636 97.371705 
L 192.665483 95.232 
L 193.233455 94.968428 
L 193.656154 95.232 
L 195.729217 97.92 
L 193.233455 100.356006 
L 190.347636 98.37998 
" style="fill:none;stroke:#001ff0;stroke-width:1.5;"/>
    <path clip-path="url(#pa8e550aaaf)" d="M 207.662545 100.356006 
L 205.166783 97.92 
L 207.239846 95.232 
L 207.662545 94.968428 
L 208.230517 95.232 
L 210.548364 97.371705 
L 210.875104 97.92 
L 210.548364 98.37998 
L 207.662545 100.356006 
" style="fill:none;stroke:#001ff0;stroke-width:1.5;"/>
    <path clip-path="url(#pa8e550aaaf)" d="M 222.091636 99.875383 
L 220.37634 97.92 
L 222.091636 95.369357 
L 224.977455 96.696884 
L 225.675651 97.92 
L 224.977455 98.876363 
L 222.091636 99.875383 
" style="fill:none;stroke:#001ff0;stroke-width:1.5;"/>
    <path clip-path="url(#pa8e550aaaf)" d="M 236.520727 98.98278 
L 235.6549 97.92 
L 236.520727 96.481429 
L 239.406545 96.410024 
L 240.278662 97.92 
L 239.406545 99.019916 
L 236.520727 98.98278 
" style="fill:none;stroke:#001ff0;stroke-width:1.5;"/>
    <path clip-path="url(#pa8e550aaaf)" d="M 253.835636 98.956437 
L 251.277575 97.92 
L 253.835636 96.412274 
L 254.78114 97.92 
L 253.835636 98.956437 
" style="fill:none;stroke:#001ff0;stroke-width:1.5;"/>
    <path clip-path="url(#pa8e550aaaf)" d="M 268.264727 98.745164 
L 267.096717 97.92 
L 268.264727 96.668553 
L 269.206213 97.92 
L 268.264727 98.745164 
" style="fill:none;stroke:#001ff0;stroke-width:1.5;"/>
    <path clip-path="url(#pa8e550aaaf)" d="M 282.693818 98.386518 
L 282.192968 97.92 
L 282.693818 97.192615 
L 283.474733 97.92 
L 282.693818 98.386518 
" style="fill:none;stroke:#001ff0;stroke-width:1.5;"/>
    <path clip-path="url(#pa8e550aaaf)" d="M 132.631273 84.629603 
L 132.427506 84.48 
L 132.631273 83.861497 
L 132.878142 84.48 
L 132.631273 84.629603 
" style="fill:none;stroke:#001ff0;stroke-width:1.5;"/>
    <path clip-path="url(#pa8e550aaaf)" d="M 147.060364 84.647847 
L 146.875796 84.48 
L 147.060364 83.814548 
L 147.539166 84.48 
L 147.060364 84.647847 
" style="fill:none;stroke:#001ff0;stroke-width:1.5;"/>
    <path clip-path="url(#pa8e550aaaf)" d="M 178.804364 84.991724 
L 177.135376 84.48 
L 178.804364 82.634459 
L 179.349028 84.48 
L 178.804364 84.991724 
" style="fill:none;stroke:#001ff0;stroke-width:1.5;"/>
    <path clip-path="url(#pa8e550aaaf)" d="M 193.233455 85.304684 
L 191.820414 84.48 
L 193.107409 81.792 
L 193.233455 81.730998 
L 193.326026 81.792 
L 194.27182 84.48 
L 193.233455 85.304684 
" style="fill:none;stroke:#001ff0;stroke-width:1.5;"/>
    <path clip-path="url(#pa8e550aaaf)" d="M 207.662545 85.304684 
L 206.62418 84.48 
L 207.569974 81.792 
L 207.662545 81.730998 
L 207.788591 81.792 
L 209.075586 84.48 
L 207.662545 85.304684 
" style="fill:none;stroke:#001ff0;stroke-width:1.5;"/>
    <path clip-path="url(#pa8e550aaaf)" d="M 222.091636 84.991724 
L 221.546972 84.48 
L 222.091636 82.634459 
L 223.760624 84.48 
L 222.091636 84.991724 
" style="fill:none;stroke:#001ff0;stroke-width:1.5;"/>
    <path clip-path="url(#pa8e550aaaf)" d="M 253.835636 84.647847 
L 253.356834 84.48 
L 253.835636 83.814548 
L 254.020204 84.48 
L 253.835636 84.647847 
" style="fill:none;stroke:#001ff0;stroke-width:1.5;"/>
    <path clip-path="url(#pa8e550aaaf)" d="M 268.264727 84.629603 
L 268.017858 84.48 
L 268.264727 83.861497 
L 268.468494 84.48 
L 268.264727 84.629603 
" style="fill:none;stroke:#001ff0;stroke-width:1.5;"/>
    <path clip-path="url(#pa8e550aaaf)" d="M 193.233455 69.372995 
L 193.032158 68.352 
L 193.233455 68.24639 
L 193.38046 68.352 
L 193.233455 69.372995 
" style="fill:none;stroke:#001ff0;stroke-width:1.5;"/>
    <path clip-path="url(#pa8e550aaaf)" d="M 207.662545 69.372995 
L 207.51554 68.352 
L 207.662545 68.24639 
L 207.863842 68.352 
L 207.662545 69.372995 
" style="fill:none;stroke:#001ff0;stroke-width:1.5;"/>
    <path clip-path="url(#pa8e550aaaf)" d="M 132.631273 55.014362 
L 132.566961 54.912 
L 132.631273 54.8613 
L 132.70723 54.912 
L 132.631273 55.014362 
" style="fill:none;stroke:#001ff0;stroke-width:1.5;"/>
    <path clip-path="url(#pa8e550aaaf)" d="M 193.233455 55.318433 
L 192.908395 54.912 
L 193.233455 54.715715 
L 193.470254 54.912 
L 193.233455 55.318433 
" style="fill:none;stroke:#001ff0;stroke-width:1.5;"/>
    <path clip-path="url(#pa8e550aaaf)" d="M 207.662545 55.318433 
L 207.425746 54.912 
L 207.662545 54.715715 
L 207.987605 54.912 
L 207.662545 55.318433 
" style="fill:none;stroke:#001ff0;stroke-width:1.5;"/>
    <path clip-path="url(#pa8e550aaaf)" d="M 268.264727 55.014362 
L 268.18877 54.912 
L 268.264727 54.8613 
L 268.329039 54.912 
L 268.264727 55.014362 
" style="fill:none;stroke:#001ff0;stroke-width:1.5;"/>
   </g>
   <g id="LineCollection_9"/>
   <g id="patch_3">
    <path d="M 57.6 307.584 
L 57.6 41.472 
" style="fill:none;stroke:#000000;stroke-linecap:square;stroke-linejoin:miter;stroke-width:0.8;"/>
   </g>
   <g id="patch_4">
    <path d="M 343.296 307.584 
L 343.296 41.472 
" style="fill:none;stroke:#000000;stroke-linecap:square;stroke-linejoin:miter;stroke-width:0.8;"/>
   </g>
   <g id="patch_5">
    <path d="M 57.6 307.584 
L 343.296 307.584 
" style="fill:none;stroke:#000000;stroke-linecap:square;stroke-linejoin:miter;stroke-width:0.8;"/>
   </g>
   <g id="patch_6">
    <path d="M 57.6 41.472 
L 343.296 41.472 
" style="fill:none;stroke:#000000;stroke-linecap:square;stroke-linejoin:miter;stroke-width:0.8;"/>
   </g>
  </g>
  <g id="axes_2">
   <g id="patch_7">
    <path clip-path="url(#pa09b37d263)" d="M 361.152 307.584 
L 361.152 274.32 
L 361.152 74.736 
L 361.152 41.472 
L 374.4576 41.472 
L 374.4576 74.736 
L 374.4576 274.32 
L 374.4576 307.584 
z
" style="fill:#ffffff;stroke:#ffffff;stroke-linejoin:miter;stroke-width:0.01;"/>
   </g>
   <g id="matplotlib.axis_3"/>
   <g id="matplotlib.axis_4">
    <g id="ytick_10">
     <g id="line2d_19">
      <defs>
       <path d="M 0 0 
L 3.5 0 
" id="m7aaea9e4fa" style="stroke:#000000;stroke-width:0.8;"/>
      </defs>
      <g>
       <use style="stroke:#000000;stroke-width:0.8;" x="374.4576" xlink:href="#m7aaea9e4fa" y="307.584"/>
      </g>
     </g>
     <g id="text_19">
      <!-- 2.5 -->
      <defs>
       <path d="M 10.6875 12.40625 
L 21 12.40625 
L 21 0 
L 10.6875 0 
z
" id="DejaVuSans-46"/>
       <path d="M 10.796875 72.90625 
L 49.515625 72.90625 
L 49.515625 64.59375 
L 19.828125 64.59375 
L 19.828125 46.734375 
Q 21.96875 47.46875 24.109375 47.828125 
Q 26.265625 48.1875 28.421875 48.1875 
Q 40.625 48.1875 47.75 41.5 
Q 54.890625 34.8125 54.890625 23.390625 
Q 54.890625 11.625 47.5625 5.09375 
Q 40.234375 -1.421875 26.90625 -1.421875 
Q 22.3125 -1.421875 17.546875 -0.640625 
Q 12.796875 0.140625 7.71875 1.703125 
L 7.71875 11.625 
Q 12.109375 9.234375 16.796875 8.0625 
Q 21.484375 6.890625 26.703125 6.890625 
Q 35.15625 6.890625 40.078125 11.328125 
Q 45.015625 15.765625 45.015625 23.390625 
Q 45.015625 31 40.078125 35.4375 
Q 35.15625 39.890625 26.703125 39.890625 
Q 22.75 39.890625 18.8125 39.015625 
Q 14.890625 38.140625 10.796875 36.28125 
z
" id="DejaVuSans-53"/>
      </defs>
      <g transform="translate(381.4576 311.383219)scale(0.1 -0.1)">
       <use xlink:href="#DejaVuSans-50"/>
       <use x="63.623047" xlink:href="#DejaVuSans-46"/>
       <use x="95.410156" xlink:href="#DejaVuSans-53"/>
      </g>
     </g>
    </g>
    <g id="ytick_11">
     <g id="line2d_20">
      <g>
       <use style="stroke:#000000;stroke-width:0.8;" x="374.4576" xlink:href="#m7aaea9e4fa" y="274.32"/>
      </g>
     </g>
     <g id="text_20">
      <!-- 5.0 -->
      <g transform="translate(381.4576 278.119219)scale(0.1 -0.1)">
       <use xlink:href="#DejaVuSans-53"/>
       <use x="63.623047" xlink:href="#DejaVuSans-46"/>
       <use x="95.410156" xlink:href="#DejaVuSans-48"/>
      </g>
     </g>
    </g>
    <g id="ytick_12">
     <g id="line2d_21">
      <g>
       <use style="stroke:#000000;stroke-width:0.8;" x="374.4576" xlink:href="#m7aaea9e4fa" y="241.056"/>
      </g>
     </g>
     <g id="text_21">
      <!-- 7.5 -->
      <defs>
       <path d="M 8.203125 72.90625 
L 55.078125 72.90625 
L 55.078125 68.703125 
L 28.609375 0 
L 18.3125 0 
L 43.21875 64.59375 
L 8.203125 64.59375 
z
" id="DejaVuSans-55"/>
      </defs>
      <g transform="translate(381.4576 244.855219)scale(0.1 -0.1)">
       <use xlink:href="#DejaVuSans-55"/>
       <use x="63.623047" xlink:href="#DejaVuSans-46"/>
       <use x="95.410156" xlink:href="#DejaVuSans-53"/>
      </g>
     </g>
    </g>
    <g id="ytick_13">
     <g id="line2d_22">
      <g>
       <use style="stroke:#000000;stroke-width:0.8;" x="374.4576" xlink:href="#m7aaea9e4fa" y="207.792"/>
      </g>
     </g>
     <g id="text_22">
      <!-- 10.0 -->
      <g transform="translate(381.4576 211.591219)scale(0.1 -0.1)">
       <use xlink:href="#DejaVuSans-49"/>
       <use x="63.623047" xlink:href="#DejaVuSans-48"/>
       <use x="127.246094" xlink:href="#DejaVuSans-46"/>
       <use x="159.033203" xlink:href="#DejaVuSans-48"/>
      </g>
     </g>
    </g>
    <g id="ytick_14">
     <g id="line2d_23">
      <g>
       <use style="stroke:#000000;stroke-width:0.8;" x="374.4576" xlink:href="#m7aaea9e4fa" y="174.528"/>
      </g>
     </g>
     <g id="text_23">
      <!-- 12.5 -->
      <g transform="translate(381.4576 178.327219)scale(0.1 -0.1)">
       <use xlink:href="#DejaVuSans-49"/>
       <use x="63.623047" xlink:href="#DejaVuSans-50"/>
       <use x="127.246094" xlink:href="#DejaVuSans-46"/>
       <use x="159.033203" xlink:href="#DejaVuSans-53"/>
      </g>
     </g>
    </g>
    <g id="ytick_15">
     <g id="line2d_24">
      <g>
       <use style="stroke:#000000;stroke-width:0.8;" x="374.4576" xlink:href="#m7aaea9e4fa" y="141.264"/>
      </g>
     </g>
     <g id="text_24">
      <!-- 15.0 -->
      <g transform="translate(381.4576 145.063219)scale(0.1 -0.1)">
       <use xlink:href="#DejaVuSans-49"/>
       <use x="63.623047" xlink:href="#DejaVuSans-53"/>
       <use x="127.246094" xlink:href="#DejaVuSans-46"/>
       <use x="159.033203" xlink:href="#DejaVuSans-48"/>
      </g>
     </g>
    </g>
    <g id="ytick_16">
     <g id="line2d_25">
      <g>
       <use style="stroke:#000000;stroke-width:0.8;" x="374.4576" xlink:href="#m7aaea9e4fa" y="108"/>
      </g>
     </g>
     <g id="text_25">
      <!-- 17.5 -->
      <g transform="translate(381.4576 111.799219)scale(0.1 -0.1)">
       <use xlink:href="#DejaVuSans-49"/>
       <use x="63.623047" xlink:href="#DejaVuSans-55"/>
       <use x="127.246094" xlink:href="#DejaVuSans-46"/>
       <use x="159.033203" xlink:href="#DejaVuSans-53"/>
      </g>
     </g>
    </g>
    <g id="ytick_17">
     <g id="line2d_26">
      <g>
       <use style="stroke:#000000;stroke-width:0.8;" x="374.4576" xlink:href="#m7aaea9e4fa" y="74.736"/>
      </g>
     </g>
     <g id="text_26">
      <!-- 20.0 -->
      <g transform="translate(381.4576 78.535219)scale(0.1 -0.1)">
       <use xlink:href="#DejaVuSans-50"/>
       <use x="63.623047" xlink:href="#DejaVuSans-48"/>
       <use x="127.246094" xlink:href="#DejaVuSans-46"/>
       <use x="159.033203" xlink:href="#DejaVuSans-48"/>
      </g>
     </g>
    </g>
    <g id="ytick_18">
     <g id="line2d_27">
      <g>
       <use style="stroke:#000000;stroke-width:0.8;" x="374.4576" xlink:href="#m7aaea9e4fa" y="41.472"/>
      </g>
     </g>
     <g id="text_27">
      <!-- 22.5 -->
      <g transform="translate(381.4576 45.271219)scale(0.1 -0.1)">
       <use xlink:href="#DejaVuSans-50"/>
       <use x="63.623047" xlink:href="#DejaVuSans-50"/>
       <use x="127.246094" xlink:href="#DejaVuSans-46"/>
       <use x="159.033203" xlink:href="#DejaVuSans-53"/>
      </g>
     </g>
    </g>
   </g>
   <g id="LineCollection_10">
    <path clip-path="url(#pa09b37d263)" d="M 361.152 307.584 
L 374.4576 307.584 
" style="fill:none;stroke:#00ff80;stroke-width:1.5;"/>
    <path clip-path="url(#pa09b37d263)" d="M 361.152 274.32 
L 374.4576 274.32 
" style="fill:none;stroke:#00df90;stroke-width:1.5;"/>
    <path clip-path="url(#pa09b37d263)" d="M 361.152 241.056 
L 374.4576 241.056 
" style="fill:none;stroke:#00bfa0;stroke-width:1.5;"/>
    <path clip-path="url(#pa09b37d263)" d="M 361.152 207.792 
L 374.4576 207.792 
" style="fill:none;stroke:#009fb0;stroke-width:1.5;"/>
    <path clip-path="url(#pa09b37d263)" d="M 361.152 174.528 
L 374.4576 174.528 
" style="fill:none;stroke:#007fc0;stroke-width:1.5;"/>
    <path clip-path="url(#pa09b37d263)" d="M 361.152 141.264 
L 374.4576 141.264 
" style="fill:none;stroke:#005fd0;stroke-width:1.5;"/>
    <path clip-path="url(#pa09b37d263)" d="M 361.152 108 
L 374.4576 108 
" style="fill:none;stroke:#003fe0;stroke-width:1.5;"/>
    <path clip-path="url(#pa09b37d263)" d="M 361.152 74.736 
L 374.4576 74.736 
" style="fill:none;stroke:#001ff0;stroke-width:1.5;"/>
    <path clip-path="url(#pa09b37d263)" d="M 361.152 41.472 
L 374.4576 41.472 
" style="fill:none;stroke:#0000ff;stroke-width:1.5;"/>
   </g>
   <g id="patch_8">
    <path d="M 361.152 307.584 
L 361.152 274.32 
L 361.152 74.736 
L 361.152 41.472 
L 374.4576 41.472 
L 374.4576 74.736 
L 374.4576 274.32 
L 374.4576 307.584 
z
" style="fill:none;stroke:#000000;stroke-linejoin:miter;stroke-width:0.8;"/>
   </g>
  </g>
 </g>
 <defs>
  <clipPath id="pa8e550aaaf">
   <rect height="266.112" width="285.696" x="57.6" y="41.472"/>
  </clipPath>
  <clipPath id="pa09b37d263">
   <rect height="266.112" width="13.3056" x="361.152" y="41.472"/>
  </clipPath>
 </defs>
</svg>
