<?xml version="1.0" encoding="utf-8" standalone="no"?>
<!DOCTYPE svg PUBLIC "-//W3C//DTD SVG 1.1//EN"
  "http://www.w3.org/Graphics/SVG/1.1/DTD/svg11.dtd">
<!-- Created with matplotlib (https://matplotlib.org/) -->
<svg height="345.6pt" version="1.1" viewBox="0 0 460.8 345.6" width="460.8pt" xmlns="http://www.w3.org/2000/svg" xmlns:xlink="http://www.w3.org/1999/xlink">
 <defs>
  <style type="text/css">
*{stroke-linecap:butt;stroke-linejoin:round;}
  </style>
 </defs>
 <g id="figure_1">
  <g id="patch_1">
   <path d="M 0 345.6 
L 460.8 345.6 
L 460.8 0 
L 0 0 
z
" style="fill:#ffffff;"/>
  </g>
  <g id="axes_1">
   <g id="patch_2">
    <path d="M 57.6 307.584 
L 343.296 307.584 
L 343.296 41.472 
L 57.6 41.472 
z
" style="fill:#ffffff;"/>
   </g>
   <g id="matplotlib.axis_1">
    <g id="xtick_1">
     <g id="line2d_1">
      <defs>
       <path d="M 0 0 
L 0 3.5 
" id="m05dcc24871" style="stroke:#000000;stroke-width:0.8;"/>
      </defs>
      <g>
       <use style="stroke:#000000;stroke-width:0.8;" x="86.1696" xlink:href="#m05dcc24871" y="307.584"/>
      </g>
     </g>
     <g id="text_1">
      <!-- −4 -->
      <defs>
       <path d="M 10.59375 35.5 
L 73.1875 35.5 
L 73.1875 27.203125 
L 10.59375 27.203125 
z
" id="DejaVuSans-8722"/>
       <path d="M 37.796875 64.3125 
L 12.890625 25.390625 
L 37.796875 25.390625 
z
M 35.203125 72.90625 
L 47.609375 72.90625 
L 47.609375 25.390625 
L 58.015625 25.390625 
L 58.015625 17.1875 
L 47.609375 17.1875 
L 47.609375 0 
L 37.796875 0 
L 37.796875 17.1875 
L 4.890625 17.1875 
L 4.890625 26.703125 
z
" id="DejaVuSans-52"/>
      </defs>
      <g transform="translate(78.798506 322.182437)scale(0.1 -0.1)">
       <use xlink:href="#DejaVuSans-8722"/>
       <use x="83.789062" xlink:href="#DejaVuSans-52"/>
      </g>
     </g>
    </g>
    <g id="xtick_2">
     <g id="line2d_2">
      <g>
       <use style="stroke:#000000;stroke-width:0.8;" x="143.3088" xlink:href="#m05dcc24871" y="307.584"/>
      </g>
     </g>
     <g id="text_2">
      <!-- −2 -->
      <defs>
       <path d="M 19.1875 8.296875 
L 53.609375 8.296875 
L 53.609375 0 
L 7.328125 0 
L 7.328125 8.296875 
Q 12.9375 14.109375 22.625 23.890625 
Q 32.328125 33.6875 34.8125 36.53125 
Q 39.546875 41.84375 41.421875 45.53125 
Q 43.3125 49.21875 43.3125 52.78125 
Q 43.3125 58.59375 39.234375 62.25 
Q 35.15625 65.921875 28.609375 65.921875 
Q 23.96875 65.921875 18.8125 64.3125 
Q 13.671875 62.703125 7.8125 59.421875 
L 7.8125 69.390625 
Q 13.765625 71.78125 18.9375 73 
Q 24.125 74.21875 28.421875 74.21875 
Q 39.75 74.21875 46.484375 68.546875 
Q 53.21875 62.890625 53.21875 53.421875 
Q 53.21875 48.921875 51.53125 44.890625 
Q 49.859375 40.875 45.40625 35.40625 
Q 44.1875 33.984375 37.640625 27.21875 
Q 31.109375 20.453125 19.1875 8.296875 
z
" id="DejaVuSans-50"/>
      </defs>
      <g transform="translate(135.937706 322.182437)scale(0.1 -0.1)">
       <use xlink:href="#DejaVuSans-8722"/>
       <use x="83.789062" xlink:href="#DejaVuSans-50"/>
      </g>
     </g>
    </g>
    <g id="xtick_3">
     <g id="line2d_3">
      <g>
       <use style="stroke:#000000;stroke-width:0.8;" x="200.448" xlink:href="#m05dcc24871" y="307.584"/>
      </g>
     </g>
     <g id="text_3">
      <!-- 0 -->
      <defs>
       <path d="M 31.78125 66.40625 
Q 24.171875 66.40625 20.328125 58.90625 
Q 16.5 51.421875 16.5 36.375 
Q 16.5 21.390625 20.328125 13.890625 
Q 24.171875 6.390625 31.78125 6.390625 
Q 39.453125 6.390625 43.28125 13.890625 
Q 47.125 21.390625 47.125 36.375 
Q 47.125 51.421875 43.28125 58.90625 
Q 39.453125 66.40625 31.78125 66.40625 
z
M 31.78125 74.21875 
Q 44.046875 74.21875 50.515625 64.515625 
Q 56.984375 54.828125 56.984375 36.375 
Q 56.984375 17.96875 50.515625 8.265625 
Q 44.046875 -1.421875 31.78125 -1.421875 
Q 19.53125 -1.421875 13.0625 8.265625 
Q 6.59375 17.96875 6.59375 36.375 
Q 6.59375 54.828125 13.0625 64.515625 
Q 19.53125 74.21875 31.78125 74.21875 
z
" id="DejaVuSans-48"/>
      </defs>
      <g transform="translate(197.26675 322.182437)scale(0.1 -0.1)">
       <use xlink:href="#DejaVuSans-48"/>
      </g>
     </g>
    </g>
    <g id="xtick_4">
     <g id="line2d_4">
      <g>
       <use style="stroke:#000000;stroke-width:0.8;" x="257.5872" xlink:href="#m05dcc24871" y="307.584"/>
      </g>
     </g>
     <g id="text_4">
      <!-- 2 -->
      <g transform="translate(254.40595 322.182437)scale(0.1 -0.1)">
       <use xlink:href="#DejaVuSans-50"/>
      </g>
     </g>
    </g>
    <g id="xtick_5">
     <g id="line2d_5">
      <g>
       <use style="stroke:#000000;stroke-width:0.8;" x="314.7264" xlink:href="#m05dcc24871" y="307.584"/>
      </g>
     </g>
     <g id="text_5">
      <!-- 4 -->
      <g transform="translate(311.54515 322.182437)scale(0.1 -0.1)">
       <use xlink:href="#DejaVuSans-52"/>
      </g>
     </g>
    </g>
   </g>
   <g id="matplotlib.axis_2">
    <g id="ytick_1">
     <g id="line2d_6">
      <defs>
       <path d="M 0 0 
L -3.5 0 
" id="md77daaa71f" style="stroke:#000000;stroke-width:0.8;"/>
      </defs>
      <g>
       <use style="stroke:#000000;stroke-width:0.8;" x="57.6" xlink:href="#md77daaa71f" y="280.9728"/>
      </g>
     </g>
     <g id="text_6">
      <!-- −4 -->
      <g transform="translate(35.857813 284.772019)scale(0.1 -0.1)">
       <use xlink:href="#DejaVuSans-8722"/>
       <use x="83.789062" xlink:href="#DejaVuSans-52"/>
      </g>
     </g>
    </g>
    <g id="ytick_2">
     <g id="line2d_7">
      <g>
       <use style="stroke:#000000;stroke-width:0.8;" x="57.6" xlink:href="#md77daaa71f" y="227.7504"/>
      </g>
     </g>
     <g id="text_7">
      <!-- −2 -->
      <g transform="translate(35.857813 231.549619)scale(0.1 -0.1)">
       <use xlink:href="#DejaVuSans-8722"/>
       <use x="83.789062" xlink:href="#DejaVuSans-50"/>
      </g>
     </g>
    </g>
    <g id="ytick_3">
     <g id="line2d_8">
      <g>
       <use style="stroke:#000000;stroke-width:0.8;" x="57.6" xlink:href="#md77daaa71f" y="174.528"/>
      </g>
     </g>
     <g id="text_8">
      <!-- 0 -->
      <g transform="translate(44.2375 178.327219)scale(0.1 -0.1)">
       <use xlink:href="#DejaVuSans-48"/>
      </g>
     </g>
    </g>
    <g id="ytick_4">
     <g id="line2d_9">
      <g>
       <use style="stroke:#000000;stroke-width:0.8;" x="57.6" xlink:href="#md77daaa71f" y="121.3056"/>
      </g>
     </g>
     <g id="text_9">
      <!-- 2 -->
      <g transform="translate(44.2375 125.104819)scale(0.1 -0.1)">
       <use xlink:href="#DejaVuSans-50"/>
      </g>
     </g>
    </g>
    <g id="ytick_5">
     <g id="line2d_10">
      <g>
       <use style="stroke:#000000;stroke-width:0.8;" x="57.6" xlink:href="#md77daaa71f" y="68.0832"/>
      </g>
     </g>
     <g id="text_10">
      <!-- 4 -->
      <g transform="translate(44.2375 71.882419)scale(0.1 -0.1)">
       <use xlink:href="#DejaVuSans-52"/>
      </g>
     </g>
    </g>
   </g>
   <g id="LineCollection_1"/>
   <g id="LineCollection_2">
    <path clip-path="url(#pa99e669ed3)" d="M 193.233455 265.202803 
L 192.295488 264.576 
L 190.347636 262.895648 
L 189.429203 261.888 
L 187.750097 259.2 
L 187.461818 258.319594 
L 186.957999 256.512 
L 186.886156 253.824 
L 187.461818 251.139084 
L 187.462595 251.136 
L 188.837085 248.448 
L 190.347636 246.398141 
L 190.945696 245.76 
L 193.233455 243.804437 
L 194.476726 243.072 
L 196.119273 242.226879 
L 199.005091 241.469674 
L 201.890909 241.469674 
L 204.776727 242.226879 
L 206.419274 243.072 
L 207.662545 243.804437 
L 209.950304 245.76 
L 210.548364 246.398141 
L 212.058915 248.448 
L 213.433405 251.136 
L 213.434182 251.139084 
L 214.009844 253.824 
L 213.938001 256.512 
L 213.434182 258.319594 
L 213.145903 259.2 
L 211.466797 261.888 
L 210.548364 262.895648 
L 208.600512 264.576 
L 207.662545 265.202803 
L 204.776727 266.531898 
L 201.890909 267.209694 
L 199.005091 267.209694 
L 196.119273 266.531898 
L 193.233455 265.202803 
" style="fill:none;stroke:#00db92;stroke-width:1.5;"/>
    <path clip-path="url(#pa99e669ed3)" d="M 193.233455 195.68726 
L 191.312034 194.688 
L 190.347636 194.177179 
L 187.461818 192.233169 
L 187.167183 192 
L 184.576 189.825537 
L 184.02467 189.312 
L 181.690182 186.898439 
L 181.439853 186.624 
L 179.352778 183.936 
L 178.804364 183.03771 
L 177.731565 181.248 
L 176.621093 178.56 
L 176.054787 175.872 
L 176.054787 173.184 
L 176.621093 170.496 
L 177.731565 167.808 
L 178.804364 166.01829 
L 179.352778 165.12 
L 181.439853 162.432 
L 181.690182 162.157561 
L 184.02467 159.744 
L 184.576 159.230463 
L 187.167183 157.056 
L 187.461818 156.822831 
L 190.347636 154.878821 
L 191.312034 154.368 
L 193.233455 153.36874 
L 196.119273 152.334389 
L 199.005091 151.806902 
L 201.890909 151.806902 
L 204.776727 152.334389 
L 207.662545 153.36874 
L 209.583966 154.368 
L 210.548364 154.878821 
L 213.434182 156.822831 
L 213.728817 157.056 
L 216.32 159.230463 
L 216.87133 159.744 
L 219.205818 162.157561 
L 219.456147 162.432 
L 221.543222 165.12 
L 222.091636 166.01829 
L 223.164435 167.808 
L 224.274907 170.496 
L 224.841213 173.184 
L 224.841213 175.872 
L 224.274907 178.56 
L 223.164435 181.248 
L 222.091636 183.03771 
L 221.543222 183.936 
L 219.456147 186.624 
L 219.205818 186.898439 
L 216.87133 189.312 
L 216.32 189.825537 
L 213.728817 192 
L 213.434182 192.233169 
L 210.548364 194.177179 
L 209.583966 194.688 
L 207.662545 195.68726 
L 204.776727 196.721611 
L 201.890909 197.249098 
L 199.005091 197.249098 
L 196.119273 196.721611 
L 193.233455 195.68726 
" style="fill:none;stroke:#00db92;stroke-width:1.5;"/>
    <path clip-path="url(#pa99e669ed3)" d="M 112.430545 187.093283 
L 110.489925 186.624 
L 109.544727 186.355482 
L 106.658909 184.791476 
L 105.577105 183.936 
L 103.773091 182.12167 
L 103.100159 181.248 
L 101.673253 178.56 
L 100.945575 175.872 
L 100.945575 173.184 
L 101.673253 170.496 
L 103.100159 167.808 
L 103.773091 166.93433 
L 105.577105 165.12 
L 106.658909 164.264524 
L 109.544727 162.700518 
L 110.489925 162.432 
L 112.430545 161.962717 
L 115.316364 161.895798 
L 118.198871 162.432 
L 118.202182 162.432724 
L 121.088 163.712994 
L 123.288715 165.12 
L 123.973818 165.677064 
L 126.073297 167.808 
L 126.859636 168.966047 
L 127.766952 170.496 
L 128.579883 173.184 
L 128.579883 175.872 
L 127.766952 178.56 
L 126.859636 180.089953 
L 126.073297 181.248 
L 123.973818 183.378936 
L 123.288715 183.936 
L 121.088 185.343006 
L 118.202182 186.623276 
L 118.198871 186.624 
L 115.316364 187.160202 
L 112.430545 187.093283 
" style="fill:none;stroke:#00db92;stroke-width:1.5;"/>
    <path clip-path="url(#pa99e669ed3)" d="M 285.579636 187.160202 
L 282.697129 186.624 
L 282.693818 186.623276 
L 279.808 185.343006 
L 277.607285 183.936 
L 276.922182 183.378936 
L 274.822703 181.248 
L 274.036364 180.089953 
L 273.129048 178.56 
L 272.316117 175.872 
L 272.316117 173.184 
L 273.129048 170.496 
L 274.036364 168.966047 
L 274.822703 167.808 
L 276.922182 165.677064 
L 277.607285 165.12 
L 279.808 163.712994 
L 282.693818 162.432724 
L 282.697129 162.432 
L 285.579636 161.895798 
L 288.465455 161.962717 
L 290.406075 162.432 
L 291.351273 162.700518 
L 294.237091 164.264524 
L 295.318895 165.12 
L 297.122909 166.93433 
L 297.795841 167.808 
L 299.222747 170.496 
L 299.950425 173.184 
L 299.950425 175.872 
L 299.222747 178.56 
L 297.795841 181.248 
L 297.122909 182.12167 
L 295.318895 183.936 
L 294.237091 184.791476 
L 291.351273 186.355482 
L 290.406075 186.624 
L 288.465455 187.093283 
L 285.579636 187.160202 
" style="fill:none;stroke:#00db92;stroke-width:1.5;"/>
    <path clip-path="url(#pa99e669ed3)" d="M 196.119273 106.829121 
L 194.476726 105.984 
L 193.233455 105.251563 
L 190.945696 103.296 
L 190.347636 102.657859 
L 188.837085 100.608 
L 187.462595 97.92 
L 187.461818 97.916916 
L 186.886156 95.232 
L 186.957999 92.544 
L 187.461818 90.736406 
L 187.750097 89.856 
L 189.429203 87.168 
L 190.347636 86.160352 
L 192.295488 84.48 
L 193.233455 83.853197 
L 196.119273 82.524102 
L 199.005091 81.846306 
L 201.890909 81.846306 
L 204.776727 82.524102 
L 207.662545 83.853197 
L 208.600512 84.48 
L 210.548364 86.160352 
L 211.466797 87.168 
L 213.145903 89.856 
L 213.434182 90.736406 
L 213.938001 92.544 
L 214.009844 95.232 
L 213.434182 97.916916 
L 213.433405 97.92 
L 212.058915 100.608 
L 210.548364 102.657859 
L 209.950304 103.296 
L 207.662545 105.251563 
L 206.419274 105.984 
L 204.776727 106.829121 
L 201.890909 107.586326 
L 199.005091 107.586326 
L 196.119273 106.829121 
" style="fill:none;stroke:#00db92;stroke-width:1.5;"/>
   </g>
   <g id="LineCollection_3">
    <path clip-path="url(#pa99e669ed3)" d="M 190.347636 278.183418 
L 187.461818 276.614891 
L 184.576 274.739742 
L 181.690182 272.579611 
L 178.648536 269.952 
L 175.918545 267.217333 
L 173.666547 264.576 
L 171.82059 261.888 
L 170.528586 259.2 
L 169.818789 256.512 
L 169.746694 253.824 
L 170.307365 251.136 
L 171.364979 248.448 
L 173.032727 245.557114 
L 174.689159 243.072 
L 178.886421 237.696 
L 185.616162 229.632 
L 189.529271 224.256 
L 190.906061 221.568 
L 191.639663 218.88 
L 191.450616 216.192 
L 190.326704 213.504 
L 188.716216 210.816 
L 187.461818 209.340294 
L 186.584642 208.128 
L 181.590105 202.752 
L 175.918545 197.255042 
L 170.028706 192 
L 166.737534 189.312 
L 164.375273 187.441048 
L 163.073762 186.624 
L 161.489455 185.45559 
L 158.535624 183.936 
L 155.717818 182.908628 
L 152.832 182.73254 
L 149.946182 183.415854 
L 148.938493 183.936 
L 147.060364 184.698268 
L 143.92731 186.624 
L 141.288727 188.343139 
L 138.402909 190.408453 
L 132.523672 194.688 
L 126.859636 198.521114 
L 123.973818 200.197758 
L 121.088 201.617427 
L 118.202182 202.602543 
L 115.316364 203.124781 
L 112.430545 203.057628 
L 109.544727 202.396486 
L 106.658909 201.193047 
L 103.773091 199.473627 
L 100.887273 197.339682 
L 97.854399 194.688 
L 95.115636 191.930889 
L 92.229818 188.497623 
L 90.848221 186.624 
L 89.164262 183.936 
L 87.861263 181.248 
L 86.963242 178.56 
L 86.505279 175.872 
L 86.505279 173.184 
L 86.963242 170.496 
L 87.861263 167.808 
L 89.344 164.828452 
L 90.848221 162.432 
L 92.861368 159.744 
L 95.18047 157.056 
L 98.001455 154.222854 
L 100.937375 151.68 
L 103.773091 149.582373 
L 106.658909 147.862953 
L 109.544727 146.659514 
L 112.430545 145.998372 
L 115.316364 145.931219 
L 118.202182 146.453457 
L 121.088 147.438573 
L 124.191636 148.992 
L 126.859636 150.534886 
L 132.631273 154.444433 
L 141.288727 160.712861 
L 147.060364 164.357732 
L 149.946182 165.640146 
L 152.832 166.32346 
L 155.717818 166.147372 
L 158.603636 165.100502 
L 161.489455 163.60041 
L 163.073762 162.432 
L 164.375273 161.614952 
L 170.146909 156.962783 
L 176.048405 151.68 
L 181.690182 146.1939 
L 184.576 143.128332 
L 186.584642 140.928 
L 187.461818 139.715706 
L 188.716216 138.24 
L 190.347636 135.48865 
L 191.450616 132.864 
L 191.639663 130.176 
L 190.906061 127.488 
L 190.347636 126.549387 
L 189.529271 124.8 
L 187.461818 121.881713 
L 185.616162 119.424 
L 183.398855 116.736 
L 178.804364 111.259775 
L 174.689159 105.984 
L 172.889125 103.296 
L 171.364979 100.608 
L 170.307365 97.92 
L 169.746694 95.232 
L 169.818789 92.544 
L 170.528586 89.856 
L 171.82059 87.168 
L 173.666547 84.48 
L 175.957537 81.792 
L 178.804364 78.967025 
L 181.764379 76.416 
L 185.450309 73.728 
L 187.461818 72.441109 
L 190.347636 70.872582 
L 193.233455 69.658902 
L 196.119273 68.822439 
L 199.005091 68.395868 
L 201.890909 68.395868 
L 204.776727 68.822439 
L 207.662545 69.658902 
L 210.861367 71.04 
L 213.434182 72.441109 
L 216.32 74.316258 
L 219.205818 76.476389 
L 222.247464 79.104 
L 224.977455 81.838667 
L 227.229453 84.48 
L 229.07541 87.168 
L 230.367414 89.856 
L 231.077211 92.544 
L 231.149306 95.232 
L 230.588635 97.92 
L 229.531021 100.608 
L 227.863273 103.498886 
L 226.206841 105.984 
L 222.009579 111.36 
L 215.279838 119.424 
L 211.366729 124.8 
L 209.989939 127.488 
L 209.256337 130.176 
L 209.445384 132.864 
L 210.569296 135.552 
L 212.179784 138.24 
L 213.434182 139.715706 
L 214.311358 140.928 
L 219.305895 146.304 
L 224.977455 151.800958 
L 230.867294 157.056 
L 234.158466 159.744 
L 236.520727 161.614952 
L 237.822238 162.432 
L 239.406545 163.60041 
L 242.360376 165.12 
L 245.178182 166.147372 
L 248.064 166.32346 
L 250.949818 165.640146 
L 251.957507 165.12 
L 253.835636 164.357732 
L 256.96869 162.432 
L 259.607273 160.712861 
L 262.493091 158.647547 
L 268.372328 154.368 
L 274.036364 150.534886 
L 276.922182 148.858242 
L 279.808 147.438573 
L 282.693818 146.453457 
L 285.579636 145.931219 
L 288.465455 145.998372 
L 291.351273 146.659514 
L 294.237091 147.862953 
L 297.122909 149.582373 
L 300.008727 151.716318 
L 303.041601 154.368 
L 305.780364 157.125111 
L 308.666182 160.558377 
L 310.047779 162.432 
L 311.731738 165.12 
L 313.034737 167.808 
L 313.932758 170.496 
L 314.390721 173.184 
L 314.390721 175.872 
L 313.932758 178.56 
L 313.034737 181.248 
L 311.552 184.227548 
L 310.047779 186.624 
L 308.034632 189.312 
L 305.71553 192 
L 302.894545 194.833146 
L 299.958625 197.376 
L 297.122909 199.473627 
L 294.237091 201.193047 
L 291.351273 202.396486 
L 288.465455 203.057628 
L 285.579636 203.124781 
L 282.693818 202.602543 
L 279.808 201.617427 
L 276.704364 200.064 
L 274.036364 198.521114 
L 268.264727 194.611567 
L 259.607273 188.343139 
L 253.835636 184.698268 
L 250.949818 183.415854 
L 248.064 182.73254 
L 245.178182 182.908628 
L 242.292364 183.955498 
L 239.406545 185.45559 
L 237.822238 186.624 
L 236.520727 187.441048 
L 230.749091 192.093217 
L 224.847595 197.376 
L 219.205818 202.8621 
L 216.32 205.927668 
L 214.311358 208.128 
L 213.434182 209.340294 
L 212.179784 210.816 
L 210.548364 213.56735 
L 209.445384 216.192 
L 209.256337 218.88 
L 209.989939 221.568 
L 210.548364 222.506613 
L 211.366729 224.256 
L 213.434182 227.174287 
L 215.279838 229.632 
L 217.497145 232.32 
L 222.091636 237.796225 
L 226.206841 243.072 
L 228.006875 245.76 
L 229.531021 248.448 
L 230.588635 251.136 
L 231.149306 253.824 
L 231.077211 256.512 
L 230.367414 259.2 
L 229.07541 261.888 
L 227.229453 264.576 
L 224.938463 267.264 
L 222.091636 270.088975 
L 219.131621 272.64 
L 215.445691 275.328 
L 213.434182 276.614891 
L 210.548364 278.183418 
L 207.662545 279.397098 
L 204.776727 280.233561 
L 201.890909 280.660132 
L 199.005091 280.660132 
L 196.119273 280.233561 
L 193.233455 279.397098 
L 190.347636 278.183418 
L 190.347636 278.183418 
" style="fill:none;stroke:#00b6a4;stroke-width:1.5;"/>
    <path clip-path="url(#pa99e669ed3)" d="M 112.430545 272.725333 
L 111.942027 272.64 
L 109.544727 272.183624 
L 106.658909 271.135558 
L 104.42544 269.952 
L 103.773091 269.559168 
L 100.887273 267.315819 
L 100.83164 267.264 
L 98.423197 264.576 
L 98.001455 263.968369 
L 96.730795 261.888 
L 95.605599 259.2 
L 95.115636 256.967032 
L 95.024023 256.512 
L 94.972128 253.824 
L 95.115636 252.897388 
L 95.412939 251.136 
L 96.334007 248.448 
L 97.661373 245.76 
L 98.001455 245.20829 
L 99.497862 243.072 
L 100.887273 241.339641 
L 101.805647 240.384 
L 103.773091 238.479293 
L 104.817567 237.696 
L 106.658909 236.340914 
L 109.301684 235.008 
L 109.544727 234.881456 
L 112.430545 234.093849 
L 115.316364 234.018324 
L 118.202182 234.624184 
L 119.102716 235.008 
L 121.088 235.827649 
L 123.973818 237.544663 
L 124.177583 237.696 
L 126.859636 239.725906 
L 127.619047 240.384 
L 129.745455 242.364646 
L 130.45198 243.072 
L 132.631273 245.570203 
L 132.793747 245.76 
L 134.637121 248.448 
L 135.517091 250.297196 
L 135.929153 251.136 
L 136.5796 253.824 
L 136.498517 256.512 
L 135.652948 259.2 
L 135.517091 259.426383 
L 134.086083 261.888 
L 132.631273 263.603121 
L 131.790335 264.576 
L 129.745455 266.408578 
L 128.719485 267.264 
L 126.859636 268.558169 
L 124.56613 269.952 
L 123.973818 270.268769 
L 121.088 271.505147 
L 118.202182 272.363077 
L 116.311168 272.64 
L 115.316364 272.773671 
L 112.430545 272.725333 
" style="fill:none;stroke:#00b6a4;stroke-width:1.5;"/>
    <path clip-path="url(#pa99e669ed3)" d="M 285.579636 272.773671 
L 284.584832 272.64 
L 282.693818 272.363077 
L 279.808 271.505147 
L 276.922182 270.268769 
L 276.32987 269.952 
L 274.036364 268.558169 
L 272.176515 267.264 
L 271.150545 266.408578 
L 269.105665 264.576 
L 268.264727 263.603121 
L 266.809917 261.888 
L 265.378909 259.426383 
L 265.243052 259.2 
L 264.397483 256.512 
L 264.3164 253.824 
L 264.966847 251.136 
L 265.378909 250.297196 
L 266.258879 248.448 
L 268.102253 245.76 
L 268.264727 245.570203 
L 270.44402 243.072 
L 271.150545 242.364646 
L 273.276953 240.384 
L 274.036364 239.725906 
L 276.718417 237.696 
L 276.922182 237.544663 
L 279.808 235.827649 
L 281.793284 235.008 
L 282.693818 234.624184 
L 285.579636 234.018324 
L 288.465455 234.093849 
L 291.351273 234.881456 
L 291.594316 235.008 
L 294.237091 236.340914 
L 296.078433 237.696 
L 297.122909 238.479293 
L 299.090353 240.384 
L 300.008727 241.339641 
L 301.398138 243.072 
L 302.894545 245.20829 
L 303.234627 245.76 
L 304.561993 248.448 
L 305.483061 251.136 
L 305.780364 252.897388 
L 305.923872 253.824 
L 305.871977 256.512 
L 305.780364 256.967032 
L 305.290401 259.2 
L 304.165205 261.888 
L 302.894545 263.968369 
L 302.472803 264.576 
L 300.06436 267.264 
L 300.008727 267.315819 
L 297.122909 269.559168 
L 296.47056 269.952 
L 294.237091 271.135558 
L 291.351273 272.183624 
L 288.953973 272.64 
L 288.465455 272.725333 
L 285.579636 272.773671 
" style="fill:none;stroke:#00b6a4;stroke-width:1.5;"/>
    <path clip-path="url(#pa99e669ed3)" d="M 109.544727 114.174544 
L 109.301684 114.048 
L 106.658909 112.715086 
L 104.817567 111.36 
L 103.773091 110.576707 
L 101.805647 108.672 
L 100.887273 107.716359 
L 99.497862 105.984 
L 98.001455 103.84771 
L 97.661373 103.296 
L 96.334007 100.608 
L 95.412939 97.92 
L 95.115636 96.158612 
L 94.972128 95.232 
L 95.024023 92.544 
L 95.115636 92.088968 
L 95.605599 89.856 
L 96.730795 87.168 
L 98.001455 85.087631 
L 98.423197 84.48 
L 100.83164 81.792 
L 100.887273 81.740181 
L 103.773091 79.496832 
L 104.42544 79.104 
L 106.658909 77.920442 
L 109.544727 76.872376 
L 111.942027 76.416 
L 112.430545 76.330667 
L 115.316364 76.282329 
L 116.311168 76.416 
L 118.202182 76.692923 
L 121.088 77.550853 
L 123.973818 78.787231 
L 124.56613 79.104 
L 126.859636 80.497831 
L 128.719485 81.792 
L 129.745455 82.647422 
L 131.790335 84.48 
L 132.631273 85.452879 
L 134.086083 87.168 
L 135.517091 89.629617 
L 135.652948 89.856 
L 136.498517 92.544 
L 136.5796 95.232 
L 135.929153 97.92 
L 135.517091 98.758804 
L 134.637121 100.608 
L 132.793747 103.296 
L 132.631273 103.485797 
L 130.45198 105.984 
L 129.745455 106.691354 
L 127.619047 108.672 
L 126.859636 109.330094 
L 124.177583 111.36 
L 123.973818 111.511337 
L 121.088 113.228351 
L 119.102716 114.048 
L 118.202182 114.431816 
L 115.316364 115.037676 
L 112.430545 114.962151 
L 109.544727 114.174544 
" style="fill:none;stroke:#00b6a4;stroke-width:1.5;"/>
    <path clip-path="url(#pa99e669ed3)" d="M 282.693818 114.431816 
L 281.793284 114.048 
L 279.808 113.228351 
L 276.922182 111.511337 
L 276.718417 111.36 
L 274.036364 109.330094 
L 273.276953 108.672 
L 271.150545 106.691354 
L 270.44402 105.984 
L 268.264727 103.485797 
L 268.102253 103.296 
L 266.258879 100.608 
L 265.378909 98.758804 
L 264.966847 97.92 
L 264.3164 95.232 
L 264.397483 92.544 
L 265.243052 89.856 
L 265.378909 89.629617 
L 266.809917 87.168 
L 268.264727 85.452879 
L 269.105665 84.48 
L 271.150545 82.647422 
L 272.176515 81.792 
L 274.036364 80.497831 
L 276.32987 79.104 
L 276.922182 78.787231 
L 279.808 77.550853 
L 282.693818 76.692923 
L 284.584832 76.416 
L 285.579636 76.282329 
L 288.465455 76.330667 
L 288.953973 76.416 
L 291.351273 76.872376 
L 294.237091 77.920442 
L 296.47056 79.104 
L 297.122909 79.496832 
L 300.008727 81.740181 
L 300.06436 81.792 
L 302.472803 84.48 
L 302.894545 85.087631 
L 304.165205 87.168 
L 305.290401 89.856 
L 305.780364 92.088968 
L 305.871977 92.544 
L 305.923872 95.232 
L 305.780364 96.158612 
L 305.483061 97.92 
L 304.561993 100.608 
L 303.234627 103.296 
L 302.894545 103.84771 
L 301.398138 105.984 
L 300.008727 107.716359 
L 299.090353 108.672 
L 297.122909 110.576707 
L 296.078433 111.36 
L 294.237091 112.715086 
L 291.594316 114.048 
L 291.351273 114.174544 
L 288.465455 114.962151 
L 285.579636 115.037676 
L 282.693818 114.431816 
" style="fill:none;stroke:#00b6a4;stroke-width:1.5;"/>
   </g>
   <g id="LineCollection_4">
    <path clip-path="url(#pa99e669ed3)" d="M 196.119273 294.708625 
L 195.094544 294.144 
L 193.233455 293.325357 
L 190.313744 291.456 
L 186.569628 288.768 
L 183.010021 286.08 
L 178.804364 282.866987 
L 172.286444 278.016 
L 168.305817 275.328 
L 167.261091 274.627535 
L 163.633123 272.64 
L 161.489455 271.580591 
L 158.603636 270.575356 
L 155.717818 270.020961 
L 152.641068 269.952 
L 149.946182 270.288222 
L 147.060364 271.073098 
L 143.388357 272.64 
L 141.288727 273.628156 
L 135.517091 276.848894 
L 129.745455 280.15595 
L 126.859636 281.683042 
L 122.982153 283.392 
L 121.088 284.128895 
L 118.202182 284.907935 
L 115.316364 285.291678 
L 112.430545 285.243842 
L 109.544727 284.744983 
L 106.658909 283.793291 
L 103.773091 282.447894 
L 100.845437 280.704 
L 97.136503 278.016 
L 93.934957 275.328 
L 91.107156 272.64 
L 88.602804 269.952 
L 86.426216 267.264 
L 84.585949 264.576 
L 83.141541 261.888 
L 82.119811 259.2 
L 81.584239 256.512 
L 81.532882 253.824 
L 81.944867 251.136 
L 82.781239 248.448 
L 83.968413 245.76 
L 85.407089 243.072 
L 88.793973 237.696 
L 94.054759 229.632 
L 95.548562 226.944 
L 96.797852 224.256 
L 97.640489 221.568 
L 98.030516 218.88 
L 97.927419 216.192 
L 97.332224 213.504 
L 96.25301 210.816 
L 94.754332 208.128 
L 92.229818 204.466888 
L 90.969687 202.752 
L 86.458182 197.327698 
L 77.025173 186.624 
L 74.885374 183.936 
L 72.90798 181.248 
L 71.422914 178.56 
L 70.552345 175.872 
L 70.552345 173.184 
L 71.422914 170.496 
L 72.029091 169.541515 
L 72.90798 167.808 
L 74.914909 165.088431 
L 77.800727 161.600968 
L 80.686545 158.285366 
L 84.136014 154.368 
L 89.344 148.296873 
L 92.229818 144.589112 
L 92.981832 143.616 
L 95.115636 140.236723 
L 96.25301 138.24 
L 97.332224 135.552 
L 97.927419 132.864 
L 98.001455 129.998156 
L 97.640489 127.488 
L 96.797852 124.8 
L 95.115636 121.379704 
L 94.054759 119.424 
L 90.596997 114.048 
L 87.046564 108.672 
L 85.407089 105.984 
L 83.572364 102.372312 
L 82.781239 100.608 
L 81.944867 97.92 
L 81.532882 95.232 
L 81.584239 92.544 
L 82.119811 89.856 
L 83.141541 87.168 
L 84.585949 84.48 
L 86.458182 81.753032 
L 89.344 78.298339 
L 92.229818 75.316254 
L 95.115636 72.682295 
L 98.001455 70.349611 
L 100.887273 68.322225 
L 103.773091 66.608106 
L 106.658909 65.262709 
L 109.544727 64.311017 
L 112.430545 63.812158 
L 115.316364 63.764322 
L 118.202182 64.148065 
L 121.088 64.927105 
L 123.973818 66.032901 
L 126.859636 67.372958 
L 133.522658 71.04 
L 138.402909 73.848894 
L 141.288727 75.427844 
L 144.174545 76.819249 
L 147.060364 77.982902 
L 149.946182 78.767778 
L 152.832 79.13107 
L 155.717818 79.035039 
L 158.603636 78.480644 
L 161.489455 77.475409 
L 164.375273 76.079462 
L 168.305817 73.728 
L 170.146909 72.554248 
L 175.970402 68.352 
L 187.461818 59.565609 
L 190.347636 57.572489 
L 193.233455 55.730643 
L 196.119273 54.347375 
L 199.005091 53.536483 
L 201.890909 53.536483 
L 204.776727 54.347375 
L 205.801456 54.912 
L 207.662545 55.730643 
L 210.582256 57.6 
L 214.326372 60.288 
L 217.885979 62.976 
L 222.091636 66.189013 
L 228.609556 71.04 
L 232.590183 73.728 
L 233.634909 74.428465 
L 237.262877 76.416 
L 239.406545 77.475409 
L 242.292364 78.480644 
L 245.178182 79.035039 
L 248.254932 79.104 
L 250.949818 78.767778 
L 253.835636 77.982902 
L 257.507643 76.416 
L 259.607273 75.427844 
L 265.378909 72.207106 
L 271.150545 68.90005 
L 274.036364 67.372958 
L 277.913847 65.664 
L 279.808 64.927105 
L 282.693818 64.148065 
L 285.579636 63.764322 
L 288.465455 63.812158 
L 291.351273 64.311017 
L 294.237091 65.262709 
L 297.122909 66.608106 
L 300.050563 68.352 
L 303.759497 71.04 
L 306.961043 73.728 
L 309.788844 76.416 
L 312.293196 79.104 
L 314.469784 81.792 
L 316.310051 84.48 
L 317.754459 87.168 
L 318.776189 89.856 
L 319.311761 92.544 
L 319.363118 95.232 
L 318.951133 97.92 
L 318.114761 100.608 
L 316.927587 103.296 
L 315.488911 105.984 
L 312.102027 111.36 
L 306.841241 119.424 
L 305.347438 122.112 
L 304.098148 124.8 
L 303.255511 127.488 
L 302.865484 130.176 
L 302.968581 132.864 
L 303.563776 135.552 
L 304.64299 138.24 
L 306.141668 140.928 
L 308.666182 144.589112 
L 309.926313 146.304 
L 314.437818 151.728302 
L 323.870827 162.432 
L 326.010626 165.12 
L 327.98802 167.808 
L 329.473086 170.496 
L 330.343655 173.184 
L 330.343655 175.872 
L 329.473086 178.56 
L 328.866909 179.514485 
L 327.98802 181.248 
L 325.981091 183.967569 
L 323.095273 187.455032 
L 320.209455 190.770634 
L 316.759986 194.688 
L 311.552 200.759127 
L 308.666182 204.466888 
L 307.914168 205.44 
L 305.780364 208.819277 
L 304.64299 210.816 
L 303.563776 213.504 
L 302.968581 216.192 
L 302.894545 219.057844 
L 303.255511 221.568 
L 304.098148 224.256 
L 305.780364 227.676296 
L 306.841241 229.632 
L 310.299003 235.008 
L 313.849436 240.384 
L 315.488911 243.072 
L 317.323636 246.683688 
L 318.114761 248.448 
L 318.951133 251.136 
L 319.363118 253.824 
L 319.311761 256.512 
L 318.776189 259.2 
L 317.754459 261.888 
L 316.310051 264.576 
L 314.437818 267.302968 
L 311.552 270.757661 
L 308.666182 273.739746 
L 305.780364 276.373705 
L 302.894545 278.706389 
L 300.008727 280.733775 
L 297.122909 282.447894 
L 294.237091 283.793291 
L 291.351273 284.744983 
L 288.465455 285.243842 
L 285.579636 285.291678 
L 282.693818 284.907935 
L 279.808 284.128895 
L 276.922182 283.023099 
L 274.036364 281.683042 
L 267.373342 278.016 
L 262.493091 275.207106 
L 259.607273 273.628156 
L 256.721455 272.236751 
L 253.835636 271.073098 
L 250.949818 270.288222 
L 248.064 269.92493 
L 245.178182 270.020961 
L 242.292364 270.575356 
L 239.406545 271.580591 
L 236.520727 272.976538 
L 232.590183 275.328 
L 230.749091 276.501752 
L 224.925598 280.704 
L 213.434182 289.490391 
L 210.548364 291.483511 
L 207.662545 293.325357 
L 204.776727 294.708625 
L 201.890909 295.519517 
L 199.005091 295.519517 
L 196.119273 294.708625 
L 196.119273 294.708625 
" style="fill:none;stroke:#0092b6;stroke-width:1.5;"/>
    <path clip-path="url(#pa99e669ed3)" d="M 152.832 238.023783 
L 155.717818 237.892478 
L 156.440503 237.696 
L 158.603636 237.118893 
L 161.489455 235.722877 
L 162.531059 235.008 
L 164.375273 233.701357 
L 165.920617 232.32 
L 167.261091 231.01444 
L 168.472251 229.632 
L 170.146909 227.409778 
L 170.463093 226.944 
L 171.897588 224.256 
L 172.865145 221.568 
L 173.032727 220.553092 
L 173.292887 218.88 
L 173.185176 216.192 
L 173.032727 215.555293 
L 172.511181 213.504 
L 171.271975 210.816 
L 170.146909 209.095887 
L 169.444124 208.128 
L 167.261091 205.744984 
L 166.933663 205.44 
L 164.375273 203.406611 
L 163.336156 202.752 
L 161.489455 201.704055 
L 158.603636 200.549795 
L 156.401383 200.064 
L 155.717818 199.922001 
L 152.832 199.821674 
L 151.03578 200.064 
L 149.946182 200.220094 
L 147.060364 201.121327 
L 144.174545 202.45749 
L 143.67449 202.752 
L 141.288727 204.311863 
L 139.804549 205.44 
L 138.402909 206.688586 
L 136.919894 208.128 
L 135.517091 209.845796 
L 134.749604 210.816 
L 133.250851 213.504 
L 132.631273 215.518854 
L 132.420335 216.192 
L 132.279367 218.88 
L 132.631273 220.6092 
L 132.822749 221.568 
L 133.992958 224.256 
L 135.517091 226.617381 
L 135.734719 226.944 
L 138.012934 229.632 
L 138.402909 230.027781 
L 140.86382 232.32 
L 141.288727 232.683243 
L 144.174545 234.80529 
L 144.525201 235.008 
L 147.060364 236.427656 
L 149.946182 237.517649 
L 150.975543 237.696 
L 152.832 238.023783 
" style="fill:none;stroke:#0092b6;stroke-width:1.5;"/>
    <path clip-path="url(#pa99e669ed3)" d="M 245.178182 237.892478 
L 248.064 238.023783 
L 249.920457 237.696 
L 250.949818 237.517649 
L 253.835636 236.427656 
L 256.370799 235.008 
L 256.721455 234.80529 
L 259.607273 232.683243 
L 260.03218 232.32 
L 262.493091 230.027781 
L 262.883066 229.632 
L 265.161281 226.944 
L 265.378909 226.617381 
L 266.903042 224.256 
L 268.073251 221.568 
L 268.264727 220.6092 
L 268.616633 218.88 
L 268.475665 216.192 
L 268.264727 215.518854 
L 267.645149 213.504 
L 266.146396 210.816 
L 265.378909 209.845796 
L 263.976106 208.128 
L 262.493091 206.688586 
L 261.091451 205.44 
L 259.607273 204.311863 
L 257.22151 202.752 
L 256.721455 202.45749 
L 253.835636 201.121327 
L 250.949818 200.220094 
L 249.86022 200.064 
L 248.064 199.821674 
L 245.178182 199.922001 
L 244.494617 200.064 
L 242.292364 200.549795 
L 239.406545 201.704055 
L 237.559844 202.752 
L 236.520727 203.406611 
L 233.962337 205.44 
L 233.634909 205.744984 
L 231.451876 208.128 
L 230.749091 209.095887 
L 229.624025 210.816 
L 228.384819 213.504 
L 227.863273 215.555293 
L 227.710824 216.192 
L 227.603113 218.88 
L 227.863273 220.553092 
L 228.030855 221.568 
L 228.998412 224.256 
L 230.432907 226.944 
L 230.749091 227.409778 
L 232.423749 229.632 
L 233.634909 231.01444 
L 234.975383 232.32 
L 236.520727 233.701357 
L 238.364941 235.008 
L 239.406545 235.722877 
L 242.292364 237.118893 
L 244.455497 237.696 
L 245.178182 237.892478 
" style="fill:none;stroke:#0092b6;stroke-width:1.5;"/>
    <path clip-path="url(#pa99e669ed3)" d="M 152.832 149.234326 
L 155.717818 149.133999 
L 156.401383 148.992 
L 158.603636 148.506205 
L 161.489455 147.351945 
L 163.336156 146.304 
L 164.375273 145.649389 
L 166.933663 143.616 
L 167.261091 143.311016 
L 169.444124 140.928 
L 170.146909 139.960113 
L 171.271975 138.24 
L 172.511181 135.552 
L 173.032727 133.500707 
L 173.185176 132.864 
L 173.292887 130.176 
L 173.032727 128.502908 
L 172.865145 127.488 
L 171.897588 124.8 
L 170.463093 122.112 
L 170.146909 121.646222 
L 168.472251 119.424 
L 167.261091 118.04156 
L 165.920617 116.736 
L 164.375273 115.354643 
L 162.531059 114.048 
L 161.489455 113.333123 
L 158.603636 111.937107 
L 156.440503 111.36 
L 155.717818 111.163522 
L 152.832 111.032217 
L 150.975543 111.36 
L 149.946182 111.538351 
L 147.060364 112.628344 
L 144.525201 114.048 
L 144.174545 114.25071 
L 141.288727 116.372757 
L 140.86382 116.736 
L 138.402909 119.028219 
L 138.012934 119.424 
L 135.734719 122.112 
L 135.517091 122.438619 
L 133.992958 124.8 
L 132.822749 127.488 
L 132.631273 128.4468 
L 132.279367 130.176 
L 132.420335 132.864 
L 132.631273 133.537146 
L 133.250851 135.552 
L 134.749604 138.24 
L 135.517091 139.210204 
L 136.919894 140.928 
L 138.402909 142.367414 
L 139.804549 143.616 
L 141.288727 144.744137 
L 143.67449 146.304 
L 144.174545 146.59851 
L 147.060364 147.934673 
L 149.946182 148.835906 
L 151.03578 148.992 
L 152.832 149.234326 
" style="fill:none;stroke:#0092b6;stroke-width:1.5;"/>
    <path clip-path="url(#pa99e669ed3)" d="M 245.178182 149.133999 
L 248.064 149.234326 
L 249.86022 148.992 
L 250.949818 148.835906 
L 253.835636 147.934673 
L 256.721455 146.59851 
L 257.22151 146.304 
L 259.607273 144.744137 
L 261.091451 143.616 
L 262.493091 142.367414 
L 263.976106 140.928 
L 265.378909 139.210204 
L 266.146396 138.24 
L 267.645149 135.552 
L 268.264727 133.537146 
L 268.475665 132.864 
L 268.616633 130.176 
L 268.264727 128.4468 
L 268.073251 127.488 
L 266.903042 124.8 
L 265.378909 122.438619 
L 265.161281 122.112 
L 262.883066 119.424 
L 262.493091 119.028219 
L 260.03218 116.736 
L 259.607273 116.372757 
L 256.721455 114.25071 
L 256.370799 114.048 
L 253.835636 112.628344 
L 250.949818 111.538351 
L 249.920457 111.36 
L 248.064 111.032217 
L 245.178182 111.163522 
L 244.455497 111.36 
L 242.292364 111.937107 
L 239.406545 113.333123 
L 238.364941 114.048 
L 236.520727 115.354643 
L 234.975383 116.736 
L 233.634909 118.04156 
L 232.423749 119.424 
L 230.749091 121.646222 
L 230.432907 122.112 
L 228.998412 124.8 
L 228.030855 127.488 
L 227.863273 128.502908 
L 227.603113 130.176 
L 227.710824 132.864 
L 227.863273 133.500707 
L 228.384819 135.552 
L 229.624025 138.24 
L 230.749091 139.960113 
L 231.451876 140.928 
L 233.634909 143.311016 
L 233.962337 143.616 
L 236.520727 145.649389 
L 237.559844 146.304 
L 239.406545 147.351945 
L 242.292364 148.506205 
L 244.494617 148.992 
L 245.178182 149.133999 
" style="fill:none;stroke:#0092b6;stroke-width:1.5;"/>
   </g>
   <g id="LineCollection_5">
    <path clip-path="url(#pa99e669ed3)" d="M 105.339255 307.584 
L 105.609281 304.896 
L 105.070631 302.208 
L 103.773091 299.71054 
L 103.696406 299.52 
L 101.940104 296.832 
L 100.887273 295.65877 
L 99.752811 294.144 
L 98.001455 292.277157 
L 97.32354 291.456 
L 95.115636 289.185148 
L 94.743487 288.768 
L 92.229818 286.261449 
L 92.056796 286.08 
L 89.344 283.450142 
L 89.285093 283.392 
L 86.458182 280.723955 
L 86.436758 280.704 
L 83.572364 278.070869 
L 83.509943 278.016 
L 80.686545 275.489162 
L 80.491743 275.328 
L 77.800727 272.986639 
L 77.35288 272.64 
L 74.914909 270.583445 
L 74.033321 269.952 
L 72.029091 268.320696 
L 70.402844 267.264 
L 69.143273 266.283338 
L 66.257455 264.647428 
L 66.052892 264.576 
L 63.371636 263.367404 
L 60.485818 262.865678 
L 57.6 263.117194 
" style="fill:none;stroke:#006dc8;stroke-width:1.5;"/>
    <path clip-path="url(#pa99e669ed3)" d="M 179.206738 307.584 
L 179.372534 304.896 
L 179.041802 302.208 
L 178.804364 301.463677 
L 178.195587 299.52 
L 176.828767 296.832 
L 175.918545 295.528656 
L 174.93176 294.144 
L 173.032727 292.016704 
L 172.501209 291.456 
L 170.146909 289.347203 
L 169.429057 288.768 
L 167.261091 287.211874 
L 165.413046 286.08 
L 164.375273 285.492441 
L 161.489455 284.197401 
L 158.943179 283.392 
L 158.603636 283.289304 
L 155.717818 282.807931 
L 152.832 282.72737 
L 149.946182 283.03999 
L 148.455581 283.392 
L 147.060364 283.736574 
L 144.174545 284.793225 
L 141.411754 286.08 
L 141.288727 286.141986 
L 138.402909 287.832335 
L 136.936838 288.768 
L 135.517091 289.786545 
L 133.262911 291.456 
L 132.631273 292.006931 
L 130.134474 294.144 
L 129.745455 294.56109 
L 127.468837 296.832 
L 126.859636 297.666596 
L 125.310614 299.52 
L 123.973818 302.116724 
L 123.915163 302.208 
L 123.248918 304.896 
L 123.582907 307.584 
" style="fill:none;stroke:#006dc8;stroke-width:1.5;"/>
    <path clip-path="url(#pa99e669ed3)" d="M 277.313093 307.584 
L 277.647082 304.896 
L 276.980837 302.208 
L 276.922182 302.116724 
L 275.585386 299.52 
L 274.036364 297.666596 
L 273.427163 296.832 
L 271.150545 294.56109 
L 270.761526 294.144 
L 268.264727 292.006931 
L 267.633089 291.456 
L 265.378909 289.786545 
L 263.959162 288.768 
L 262.493091 287.832335 
L 259.607273 286.141986 
L 259.484246 286.08 
L 256.721455 284.793225 
L 253.835636 283.736574 
L 252.440419 283.392 
L 250.949818 283.03999 
L 248.064 282.72737 
L 245.178182 282.807931 
L 242.292364 283.289304 
L 241.952821 283.392 
L 239.406545 284.197401 
L 236.520727 285.492441 
L 235.482954 286.08 
L 233.634909 287.211874 
L 231.466943 288.768 
L 230.749091 289.347203 
L 228.394791 291.456 
L 227.863273 292.016704 
L 225.96424 294.144 
L 224.977455 295.528656 
L 224.067233 296.832 
L 222.700413 299.52 
L 222.091636 301.463677 
L 221.854198 302.208 
L 221.523466 304.896 
L 221.689262 307.584 
" style="fill:none;stroke:#006dc8;stroke-width:1.5;"/>
    <path clip-path="url(#pa99e669ed3)" d="M 343.296 263.117194 
L 340.410182 262.865678 
L 337.524364 263.367404 
L 334.843108 264.576 
L 334.638545 264.647428 
L 331.752727 266.283338 
L 330.493156 267.264 
L 328.866909 268.320696 
L 326.862679 269.952 
L 325.981091 270.583445 
L 323.54312 272.64 
L 323.095273 272.986639 
L 320.404257 275.328 
L 320.209455 275.489162 
L 317.386057 278.016 
L 317.323636 278.070869 
L 314.459242 280.704 
L 314.437818 280.723955 
L 311.610907 283.392 
L 311.552 283.450142 
L 308.839204 286.08 
L 308.666182 286.261449 
L 306.152513 288.768 
L 305.780364 289.185148 
L 303.57246 291.456 
L 302.894545 292.277157 
L 301.143189 294.144 
L 300.008727 295.65877 
L 298.955896 296.832 
L 297.199594 299.52 
L 297.122909 299.71054 
L 295.825369 302.208 
L 295.286719 304.896 
L 295.556745 307.584 
" style="fill:none;stroke:#006dc8;stroke-width:1.5;"/>
    <path clip-path="url(#pa99e669ed3)" d="M 57.6 246.124115 
L 60.485818 246.435209 
L 63.371636 245.814635 
L 63.46963 245.76 
L 66.257455 244.514839 
L 68.247256 243.072 
L 69.143273 242.504559 
L 71.581306 240.384 
L 72.029091 240.021648 
L 74.323434 237.696 
L 74.914909 237.107659 
L 76.707224 235.008 
L 77.800727 233.685574 
L 78.805251 232.32 
L 80.619998 229.632 
L 80.686545 229.517407 
L 82.068018 226.944 
L 83.202432 224.256 
L 83.572364 222.956422 
L 83.95028 221.568 
L 84.285906 218.88 
L 84.199416 216.192 
L 83.682618 213.504 
L 83.572364 213.187732 
L 82.70769 210.816 
L 81.317345 208.128 
L 80.686545 207.161364 
L 79.471373 205.44 
L 77.800727 203.420644 
L 77.178899 202.752 
L 74.914909 200.559084 
L 74.312941 200.064 
L 72.029091 198.295143 
L 70.542534 197.376 
L 69.143273 196.528173 
L 66.257455 195.255046 
L 64.170736 194.688 
L 63.371636 194.466837 
L 60.485818 194.158777 
L 57.6 194.313208 
" style="fill:none;stroke:#006dc8;stroke-width:1.5;"/>
    <path clip-path="url(#pa99e669ed3)" d="M 343.296 194.313208 
L 340.410182 194.158777 
L 337.524364 194.466837 
L 336.725264 194.688 
L 334.638545 195.255046 
L 331.752727 196.528173 
L 330.353466 197.376 
L 328.866909 198.295143 
L 326.583059 200.064 
L 325.981091 200.559084 
L 323.717101 202.752 
L 323.095273 203.420644 
L 321.424627 205.44 
L 320.209455 207.161364 
L 319.578655 208.128 
L 318.18831 210.816 
L 317.323636 213.187732 
L 317.213382 213.504 
L 316.696584 216.192 
L 316.610094 218.88 
L 316.94572 221.568 
L 317.323636 222.956422 
L 317.693568 224.256 
L 318.827982 226.944 
L 320.209455 229.517407 
L 320.276002 229.632 
L 322.090749 232.32 
L 323.095273 233.685574 
L 324.188776 235.008 
L 325.981091 237.107659 
L 326.572566 237.696 
L 328.866909 240.021648 
L 329.314694 240.384 
L 331.752727 242.504559 
L 332.648744 243.072 
L 334.638545 244.514839 
L 337.42637 245.76 
L 337.524364 245.814635 
L 340.410182 246.435209 
L 343.296 246.124115 
" style="fill:none;stroke:#006dc8;stroke-width:1.5;"/>
    <path clip-path="url(#pa99e669ed3)" d="M 57.6 154.742792 
L 60.485818 154.897223 
L 63.371636 154.589163 
L 64.170736 154.368 
L 66.257455 153.800954 
L 69.143273 152.527827 
L 70.542534 151.68 
L 72.029091 150.760857 
L 74.312941 148.992 
L 74.914909 148.496916 
L 77.178899 146.304 
L 77.800727 145.635356 
L 79.471373 143.616 
L 80.686545 141.894636 
L 81.317345 140.928 
L 82.70769 138.24 
L 83.572364 135.868268 
L 83.682618 135.552 
L 84.199416 132.864 
L 84.285906 130.176 
L 83.95028 127.488 
L 83.572364 126.099578 
L 83.202432 124.8 
L 82.068018 122.112 
L 80.686545 119.538593 
L 80.619998 119.424 
L 78.805251 116.736 
L 77.800727 115.370426 
L 76.707224 114.048 
L 74.914909 111.948341 
L 74.323434 111.36 
L 72.029091 109.034352 
L 71.581306 108.672 
L 69.143273 106.551441 
L 68.247256 105.984 
L 66.257455 104.541161 
L 63.46963 103.296 
L 63.371636 103.241365 
L 60.485818 102.620791 
L 57.6 102.931885 
" style="fill:none;stroke:#006dc8;stroke-width:1.5;"/>
    <path clip-path="url(#pa99e669ed3)" d="M 343.296 102.931885 
L 340.410182 102.620791 
L 337.524364 103.241365 
L 337.42637 103.296 
L 334.638545 104.541161 
L 332.648744 105.984 
L 331.752727 106.551441 
L 329.314694 108.672 
L 328.866909 109.034352 
L 326.572566 111.36 
L 325.981091 111.948341 
L 324.188776 114.048 
L 323.095273 115.370426 
L 322.090749 116.736 
L 320.276002 119.424 
L 320.209455 119.538593 
L 318.827982 122.112 
L 317.693568 124.8 
L 317.323636 126.099578 
L 316.94572 127.488 
L 316.610094 130.176 
L 316.696584 132.864 
L 317.213382 135.552 
L 317.323636 135.868268 
L 318.18831 138.24 
L 319.578655 140.928 
L 320.209455 141.894636 
L 321.424627 143.616 
L 323.095273 145.635356 
L 323.717101 146.304 
L 325.981091 148.496916 
L 326.583059 148.992 
L 328.866909 150.760857 
L 330.353466 151.68 
L 331.752727 152.527827 
L 334.638545 153.800954 
L 336.725264 154.368 
L 337.524364 154.589163 
L 340.410182 154.897223 
L 343.296 154.742792 
" style="fill:none;stroke:#006dc8;stroke-width:1.5;"/>
    <path clip-path="url(#pa99e669ed3)" d="M 57.6 85.938806 
L 60.485818 86.190322 
L 63.371636 85.688596 
L 66.052892 84.48 
L 66.257455 84.408572 
L 69.143273 82.772662 
L 70.402844 81.792 
L 72.029091 80.735304 
L 74.033321 79.104 
L 74.914909 78.472555 
L 77.35288 76.416 
L 77.800727 76.069361 
L 80.491743 73.728 
L 80.686545 73.566838 
L 83.509943 71.04 
L 83.572364 70.985131 
L 86.436758 68.352 
L 86.458182 68.332045 
L 89.285093 65.664 
L 89.344 65.605858 
L 92.056796 62.976 
L 92.229818 62.794551 
L 94.743487 60.288 
L 95.115636 59.870852 
L 97.32354 57.6 
L 98.001455 56.778843 
L 99.752811 54.912 
L 100.887273 53.39723 
L 101.940104 52.224 
L 103.696406 49.536 
L 103.773091 49.34546 
L 105.070631 46.848 
L 105.609281 44.16 
L 105.339255 41.472 
" style="fill:none;stroke:#006dc8;stroke-width:1.5;"/>
    <path clip-path="url(#pa99e669ed3)" d="M 123.582907 41.472 
L 123.248918 44.16 
L 123.915163 46.848 
L 123.973818 46.939276 
L 125.310614 49.536 
L 126.859636 51.389404 
L 127.468837 52.224 
L 129.745455 54.49491 
L 130.134474 54.912 
L 132.631273 57.049069 
L 133.262911 57.6 
L 135.517091 59.269455 
L 136.936838 60.288 
L 138.402909 61.223665 
L 141.288727 62.914014 
L 141.411754 62.976 
L 144.174545 64.262775 
L 147.060364 65.319426 
L 148.455581 65.664 
L 149.946182 66.01601 
L 152.832 66.32863 
L 155.717818 66.248069 
L 158.603636 65.766696 
L 158.943179 65.664 
L 161.489455 64.858599 
L 164.375273 63.563559 
L 165.413046 62.976 
L 167.261091 61.844126 
L 169.429057 60.288 
L 170.146909 59.708797 
L 172.501209 57.6 
L 173.032727 57.039296 
L 174.93176 54.912 
L 175.918545 53.527344 
L 176.828767 52.224 
L 178.195587 49.536 
L 178.804364 47.592323 
L 179.041802 46.848 
L 179.372534 44.16 
L 179.206738 41.472 
" style="fill:none;stroke:#006dc8;stroke-width:1.5;"/>
    <path clip-path="url(#pa99e669ed3)" d="M 221.689262 41.472 
L 221.523466 44.16 
L 221.854198 46.848 
L 222.091636 47.592323 
L 222.700413 49.536 
L 224.067233 52.224 
L 224.977455 53.527344 
L 225.96424 54.912 
L 227.863273 57.039296 
L 228.394791 57.6 
L 230.749091 59.708797 
L 231.466943 60.288 
L 233.634909 61.844126 
L 235.482954 62.976 
L 236.520727 63.563559 
L 239.406545 64.858599 
L 241.952821 65.664 
L 242.292364 65.766696 
L 245.178182 66.248069 
L 248.064 66.32863 
L 250.949818 66.01601 
L 252.440419 65.664 
L 253.835636 65.319426 
L 256.721455 64.262775 
L 259.484246 62.976 
L 259.607273 62.914014 
L 262.493091 61.223665 
L 263.959162 60.288 
L 265.378909 59.269455 
L 267.633089 57.6 
L 268.264727 57.049069 
L 270.761526 54.912 
L 271.150545 54.49491 
L 273.427163 52.224 
L 274.036364 51.389404 
L 275.585386 49.536 
L 276.922182 46.939276 
L 276.980837 46.848 
L 277.647082 44.16 
L 277.313093 41.472 
" style="fill:none;stroke:#006dc8;stroke-width:1.5;"/>
    <path clip-path="url(#pa99e669ed3)" d="M 295.556745 41.472 
L 295.286719 44.16 
L 295.825369 46.848 
L 297.122909 49.34546 
L 297.199594 49.536 
L 298.955896 52.224 
L 300.008727 53.39723 
L 301.143189 54.912 
L 302.894545 56.778843 
L 303.57246 57.6 
L 305.780364 59.870852 
L 306.152513 60.288 
L 308.666182 62.794551 
L 308.839204 62.976 
L 311.552 65.605858 
L 311.610907 65.664 
L 314.437818 68.332045 
L 314.459242 68.352 
L 317.323636 70.985131 
L 317.386057 71.04 
L 320.209455 73.566838 
L 320.404257 73.728 
L 323.095273 76.069361 
L 323.54312 76.416 
L 325.981091 78.472555 
L 326.862679 79.104 
L 328.866909 80.735304 
L 330.493156 81.792 
L 331.752727 82.772662 
L 334.638545 84.408572 
L 334.843108 84.48 
L 337.524364 85.688596 
L 340.410182 86.190322 
L 343.296 85.938806 
" style="fill:none;stroke:#006dc8;stroke-width:1.5;"/>
   </g>
   <g id="LineCollection_6">
    <path clip-path="url(#pa99e669ed3)" d="M 89.048305 307.584 
L 89.179948 304.896 
L 88.917346 302.208 
L 88.23651 299.52 
L 87.131184 296.832 
L 86.458182 295.640347 
L 85.601894 294.144 
L 83.675077 291.456 
L 83.572364 291.334332 
L 81.306613 288.768 
L 80.686545 288.143208 
L 78.4715 286.08 
L 77.800727 285.502437 
L 75.045531 283.392 
L 74.914909 283.296327 
L 72.029091 281.501591 
L 70.422623 280.704 
L 69.143273 280.077131 
L 66.257455 279.047573 
L 63.371636 278.413408 
L 60.485818 278.168807 
L 57.6 278.291425 
" style="fill:none;stroke:#0049db;stroke-width:1.5;"/>
    <path clip-path="url(#pa99e669ed3)" d="M 157.879534 307.584 
L 158.603636 304.970848 
L 158.615075 304.896 
L 158.603636 304.858478 
L 157.138558 302.208 
L 155.717818 301.216636 
L 152.832 300.879635 
L 149.946182 302.187378 
L 149.925307 302.208 
L 148.875803 304.896 
L 149.401921 307.584 
" style="fill:none;stroke:#0049db;stroke-width:1.5;"/>
    <path clip-path="url(#pa99e669ed3)" d="M 251.494079 307.584 
L 252.020197 304.896 
L 250.970693 302.208 
L 250.949818 302.187378 
L 248.064 300.879635 
L 245.178182 301.216636 
L 243.757442 302.208 
L 242.292364 304.858478 
L 242.280925 304.896 
L 242.292364 304.970848 
L 243.016466 307.584 
" style="fill:none;stroke:#0049db;stroke-width:1.5;"/>
    <path clip-path="url(#pa99e669ed3)" d="M 343.296 278.291425 
L 340.410182 278.168807 
L 337.524364 278.413408 
L 334.638545 279.047573 
L 331.752727 280.077131 
L 330.473377 280.704 
L 328.866909 281.501591 
L 325.981091 283.296327 
L 325.850469 283.392 
L 323.095273 285.502437 
L 322.4245 286.08 
L 320.209455 288.143208 
L 319.589387 288.768 
L 317.323636 291.334332 
L 317.220923 291.456 
L 315.294106 294.144 
L 314.437818 295.640347 
L 313.764816 296.832 
L 312.65949 299.52 
L 311.978654 302.208 
L 311.716052 304.896 
L 311.847695 307.584 
" style="fill:none;stroke:#0049db;stroke-width:1.5;"/>
    <path clip-path="url(#pa99e669ed3)" d="M 57.6 222.074953 
L 60.485818 222.565006 
L 63.371636 221.587444 
L 63.393776 221.568 
L 64.79776 218.88 
L 64.435958 216.192 
L 63.371636 214.86865 
L 60.526101 213.504 
L 60.485818 213.493346 
L 60.405461 213.504 
L 57.6 214.178466 
" style="fill:none;stroke:#0049db;stroke-width:1.5;"/>
    <path clip-path="url(#pa99e669ed3)" d="M 343.296 214.178466 
L 340.490539 213.504 
L 340.410182 213.493346 
L 340.369899 213.504 
L 337.524364 214.86865 
L 336.460042 216.192 
L 336.09824 218.88 
L 337.502224 221.568 
L 337.524364 221.587444 
L 340.410182 222.565006 
L 343.296 222.074953 
" style="fill:none;stroke:#0049db;stroke-width:1.5;"/>
    <path clip-path="url(#pa99e669ed3)" d="M 57.6 134.877534 
L 60.405461 135.552 
L 60.485818 135.562654 
L 60.526101 135.552 
L 63.371636 134.18735 
L 64.435958 132.864 
L 64.79776 130.176 
L 63.393776 127.488 
L 63.371636 127.468556 
L 60.485818 126.490994 
L 57.6 126.981047 
" style="fill:none;stroke:#0049db;stroke-width:1.5;"/>
    <path clip-path="url(#pa99e669ed3)" d="M 343.296 126.981047 
L 340.410182 126.490994 
L 337.524364 127.468556 
L 337.502224 127.488 
L 336.09824 130.176 
L 336.460042 132.864 
L 337.524364 134.18735 
L 340.369899 135.552 
L 340.410182 135.562654 
L 340.490539 135.552 
L 343.296 134.877534 
" style="fill:none;stroke:#0049db;stroke-width:1.5;"/>
    <path clip-path="url(#pa99e669ed3)" d="M 57.6 70.764575 
L 60.485818 70.887193 
L 63.371636 70.642592 
L 66.257455 70.008427 
L 69.143273 68.978869 
L 70.422623 68.352 
L 72.029091 67.554409 
L 74.914909 65.759673 
L 75.045531 65.664 
L 77.800727 63.553563 
L 78.4715 62.976 
L 80.686545 60.912792 
L 81.306613 60.288 
L 83.572364 57.721668 
L 83.675077 57.6 
L 85.601894 54.912 
L 86.458182 53.415653 
L 87.131184 52.224 
L 88.23651 49.536 
L 88.917346 46.848 
L 89.179948 44.16 
L 89.048305 41.472 
" style="fill:none;stroke:#0049db;stroke-width:1.5;"/>
    <path clip-path="url(#pa99e669ed3)" d="M 149.401921 41.472 
L 148.875803 44.16 
L 149.925307 46.848 
L 149.946182 46.868622 
L 152.832 48.176365 
L 155.717818 47.839364 
L 157.138558 46.848 
L 158.603636 44.197522 
L 158.615075 44.16 
L 158.603636 44.085152 
L 157.879534 41.472 
" style="fill:none;stroke:#0049db;stroke-width:1.5;"/>
    <path clip-path="url(#pa99e669ed3)" d="M 243.016466 41.472 
L 242.292364 44.085152 
L 242.280925 44.16 
L 242.292364 44.197522 
L 243.757442 46.848 
L 245.178182 47.839364 
L 248.064 48.176365 
L 250.949818 46.868622 
L 250.970693 46.848 
L 252.020197 44.16 
L 251.494079 41.472 
" style="fill:none;stroke:#0049db;stroke-width:1.5;"/>
    <path clip-path="url(#pa99e669ed3)" d="M 311.847695 41.472 
L 311.716052 44.16 
L 311.978654 46.848 
L 312.65949 49.536 
L 313.764816 52.224 
L 314.437818 53.415653 
L 315.294106 54.912 
L 317.220923 57.6 
L 317.323636 57.721668 
L 319.589387 60.288 
L 320.209455 60.912792 
L 322.4245 62.976 
L 323.095273 63.553563 
L 325.850469 65.664 
L 325.981091 65.759673 
L 328.866909 67.554409 
L 330.473377 68.352 
L 331.752727 68.978869 
L 334.638545 70.008427 
L 337.524364 70.642592 
L 340.410182 70.887193 
L 343.296 70.764575 
" style="fill:none;stroke:#0049db;stroke-width:1.5;"/>
   </g>
   <g id="LineCollection_7">
    <path clip-path="url(#pa99e669ed3)" d="M 74.709402 307.584 
L 74.909178 304.896 
L 74.510662 302.208 
L 73.477445 299.52 
L 72.029091 297.199058 
L 71.742166 296.832 
L 69.143273 294.411257 
L 68.749202 294.144 
L 66.257455 292.794928 
L 63.371636 291.832537 
L 60.485818 291.461338 
L 57.6 291.64742 
" style="fill:none;stroke:#0024ed;stroke-width:1.5;"/>
    <path clip-path="url(#pa99e669ed3)" d="M 343.296 291.64742 
L 340.410182 291.461338 
L 337.524364 291.832537 
L 334.638545 292.794928 
L 332.146798 294.144 
L 331.752727 294.411257 
L 329.153834 296.832 
L 328.866909 297.199058 
L 327.418555 299.52 
L 326.385338 302.208 
L 325.986822 304.896 
L 326.186598 307.584 
" style="fill:none;stroke:#0024ed;stroke-width:1.5;"/>
    <path clip-path="url(#pa99e669ed3)" d="M 57.6 57.40858 
L 60.485818 57.594662 
L 63.371636 57.223463 
L 66.257455 56.261072 
L 68.749202 54.912 
L 69.143273 54.644743 
L 71.742166 52.224 
L 72.029091 51.856942 
L 73.477445 49.536 
L 74.510662 46.848 
L 74.909178 44.16 
L 74.709402 41.472 
" style="fill:none;stroke:#0024ed;stroke-width:1.5;"/>
    <path clip-path="url(#pa99e669ed3)" d="M 326.186598 41.472 
L 325.986822 44.16 
L 326.385338 46.848 
L 327.418555 49.536 
L 328.866909 51.856942 
L 329.153834 52.224 
L 331.752727 54.644743 
L 332.146798 54.912 
L 334.638545 56.261072 
L 337.524364 57.223463 
L 340.410182 57.594662 
L 343.296 57.40858 
" style="fill:none;stroke:#0024ed;stroke-width:1.5;"/>
   </g>
   <g id="LineCollection_8"/>
   <g id="patch_3">
    <path d="M 57.6 307.584 
L 57.6 41.472 
" style="fill:none;stroke:#000000;stroke-linecap:square;stroke-linejoin:miter;stroke-width:0.8;"/>
   </g>
   <g id="patch_4">
    <path d="M 343.296 307.584 
L 343.296 41.472 
" style="fill:none;stroke:#000000;stroke-linecap:square;stroke-linejoin:miter;stroke-width:0.8;"/>
   </g>
   <g id="patch_5">
    <path d="M 57.6 307.584 
L 343.296 307.584 
" style="fill:none;stroke:#000000;stroke-linecap:square;stroke-linejoin:miter;stroke-width:0.8;"/>
   </g>
   <g id="patch_6">
    <path d="M 57.6 41.472 
L 343.296 41.472 
" style="fill:none;stroke:#000000;stroke-linecap:square;stroke-linejoin:miter;stroke-width:0.8;"/>
   </g>
  </g>
  <g id="axes_2">
   <g id="patch_7">
    <path clip-path="url(#pf420f50f1a)" d="M 361.152 307.584 
L 361.152 269.568 
L 361.152 79.488 
L 361.152 41.472 
L 374.4576 41.472 
L 374.4576 79.488 
L 374.4576 269.568 
L 374.4576 307.584 
z
" style="fill:#ffffff;stroke:#ffffff;stroke-linejoin:miter;stroke-width:0.01;"/>
   </g>
   <g id="matplotlib.axis_3"/>
   <g id="matplotlib.axis_4">
    <g id="ytick_6">
     <g id="line2d_11">
      <defs>
       <path d="M 0 0 
L 3.5 0 
" id="mbb5b23a915" style="stroke:#000000;stroke-width:0.8;"/>
      </defs>
      <g>
       <use style="stroke:#000000;stroke-width:0.8;" x="374.4576" xlink:href="#mbb5b23a915" y="307.584"/>
      </g>
     </g>
     <g id="text_11">
      <!-- 0 -->
      <g transform="translate(381.4576 311.383219)scale(0.1 -0.1)">
       <use xlink:href="#DejaVuSans-48"/>
      </g>
     </g>
    </g>
    <g id="ytick_7">
     <g id="line2d_12">
      <g>
       <use style="stroke:#000000;stroke-width:0.8;" x="374.4576" xlink:href="#mbb5b23a915" y="269.568"/>
      </g>
     </g>
     <g id="text_12">
      <!-- 15 -->
      <defs>
       <path d="M 12.40625 8.296875 
L 28.515625 8.296875 
L 28.515625 63.921875 
L 10.984375 60.40625 
L 10.984375 69.390625 
L 28.421875 72.90625 
L 38.28125 72.90625 
L 38.28125 8.296875 
L 54.390625 8.296875 
L 54.390625 0 
L 12.40625 0 
z
" id="DejaVuSans-49"/>
       <path d="M 10.796875 72.90625 
L 49.515625 72.90625 
L 49.515625 64.59375 
L 19.828125 64.59375 
L 19.828125 46.734375 
Q 21.96875 47.46875 24.109375 47.828125 
Q 26.265625 48.1875 28.421875 48.1875 
Q 40.625 48.1875 47.75 41.5 
Q 54.890625 34.8125 54.890625 23.390625 
Q 54.890625 11.625 47.5625 5.09375 
Q 40.234375 -1.421875 26.90625 -1.421875 
Q 22.3125 -1.421875 17.546875 -0.640625 
Q 12.796875 0.140625 7.71875 1.703125 
L 7.71875 11.625 
Q 12.109375 9.234375 16.796875 8.0625 
Q 21.484375 6.890625 26.703125 6.890625 
Q 35.15625 6.890625 40.078125 11.328125 
Q 45.015625 15.765625 45.015625 23.390625 
Q 45.015625 31 40.078125 35.4375 
Q 35.15625 39.890625 26.703125 39.890625 
Q 22.75 39.890625 18.8125 39.015625 
Q 14.890625 38.140625 10.796875 36.28125 
z
" id="DejaVuSans-53"/>
      </defs>
      <g transform="translate(381.4576 273.367219)scale(0.1 -0.1)">
       <use xlink:href="#DejaVuSans-49"/>
       <use x="63.623047" xlink:href="#DejaVuSans-53"/>
      </g>
     </g>
    </g>
    <g id="ytick_8">
     <g id="line2d_13">
      <g>
       <use style="stroke:#000000;stroke-width:0.8;" x="374.4576" xlink:href="#mbb5b23a915" y="231.552"/>
      </g>
     </g>
     <g id="text_13">
      <!-- 30 -->
      <defs>
       <path d="M 40.578125 39.3125 
Q 47.65625 37.796875 51.625 33 
Q 55.609375 28.21875 55.609375 21.1875 
Q 55.609375 10.40625 48.1875 4.484375 
Q 40.765625 -1.421875 27.09375 -1.421875 
Q 22.515625 -1.421875 17.65625 -0.515625 
Q 12.796875 0.390625 7.625 2.203125 
L 7.625 11.71875 
Q 11.71875 9.328125 16.59375 8.109375 
Q 21.484375 6.890625 26.8125 6.890625 
Q 36.078125 6.890625 40.9375 10.546875 
Q 45.796875 14.203125 45.796875 21.1875 
Q 45.796875 27.640625 41.28125 31.265625 
Q 36.765625 34.90625 28.71875 34.90625 
L 20.21875 34.90625 
L 20.21875 43.015625 
L 29.109375 43.015625 
Q 36.375 43.015625 40.234375 45.921875 
Q 44.09375 48.828125 44.09375 54.296875 
Q 44.09375 59.90625 40.109375 62.90625 
Q 36.140625 65.921875 28.71875 65.921875 
Q 24.65625 65.921875 20.015625 65.03125 
Q 15.375 64.15625 9.8125 62.3125 
L 9.8125 71.09375 
Q 15.4375 72.65625 20.34375 73.4375 
Q 25.25 74.21875 29.59375 74.21875 
Q 40.828125 74.21875 47.359375 69.109375 
Q 53.90625 64.015625 53.90625 55.328125 
Q 53.90625 49.265625 50.4375 45.09375 
Q 46.96875 40.921875 40.578125 39.3125 
z
" id="DejaVuSans-51"/>
      </defs>
      <g transform="translate(381.4576 235.351219)scale(0.1 -0.1)">
       <use xlink:href="#DejaVuSans-51"/>
       <use x="63.623047" xlink:href="#DejaVuSans-48"/>
      </g>
     </g>
    </g>
    <g id="ytick_9">
     <g id="line2d_14">
      <g>
       <use style="stroke:#000000;stroke-width:0.8;" x="374.4576" xlink:href="#mbb5b23a915" y="193.536"/>
      </g>
     </g>
     <g id="text_14">
      <!-- 45 -->
      <g transform="translate(381.4576 197.335219)scale(0.1 -0.1)">
       <use xlink:href="#DejaVuSans-52"/>
       <use x="63.623047" xlink:href="#DejaVuSans-53"/>
      </g>
     </g>
    </g>
    <g id="ytick_10">
     <g id="line2d_15">
      <g>
       <use style="stroke:#000000;stroke-width:0.8;" x="374.4576" xlink:href="#mbb5b23a915" y="155.52"/>
      </g>
     </g>
     <g id="text_15">
      <!-- 60 -->
      <defs>
       <path d="M 33.015625 40.375 
Q 26.375 40.375 22.484375 35.828125 
Q 18.609375 31.296875 18.609375 23.390625 
Q 18.609375 15.53125 22.484375 10.953125 
Q 26.375 6.390625 33.015625 6.390625 
Q 39.65625 6.390625 43.53125 10.953125 
Q 47.40625 15.53125 47.40625 23.390625 
Q 47.40625 31.296875 43.53125 35.828125 
Q 39.65625 40.375 33.015625 40.375 
z
M 52.59375 71.296875 
L 52.59375 62.3125 
Q 48.875 64.0625 45.09375 64.984375 
Q 41.3125 65.921875 37.59375 65.921875 
Q 27.828125 65.921875 22.671875 59.328125 
Q 17.53125 52.734375 16.796875 39.40625 
Q 19.671875 43.65625 24.015625 45.921875 
Q 28.375 48.1875 33.59375 48.1875 
Q 44.578125 48.1875 50.953125 41.515625 
Q 57.328125 34.859375 57.328125 23.390625 
Q 57.328125 12.15625 50.6875 5.359375 
Q 44.046875 -1.421875 33.015625 -1.421875 
Q 20.359375 -1.421875 13.671875 8.265625 
Q 6.984375 17.96875 6.984375 36.375 
Q 6.984375 53.65625 15.1875 63.9375 
Q 23.390625 74.21875 37.203125 74.21875 
Q 40.921875 74.21875 44.703125 73.484375 
Q 48.484375 72.75 52.59375 71.296875 
z
" id="DejaVuSans-54"/>
      </defs>
      <g transform="translate(381.4576 159.319219)scale(0.1 -0.1)">
       <use xlink:href="#DejaVuSans-54"/>
       <use x="63.623047" xlink:href="#DejaVuSans-48"/>
      </g>
     </g>
    </g>
    <g id="ytick_11">
     <g id="line2d_16">
      <g>
       <use style="stroke:#000000;stroke-width:0.8;" x="374.4576" xlink:href="#mbb5b23a915" y="117.504"/>
      </g>
     </g>
     <g id="text_16">
      <!-- 75 -->
      <defs>
       <path d="M 8.203125 72.90625 
L 55.078125 72.90625 
L 55.078125 68.703125 
L 28.609375 0 
L 18.3125 0 
L 43.21875 64.59375 
L 8.203125 64.59375 
z
" id="DejaVuSans-55"/>
      </defs>
      <g transform="translate(381.4576 121.303219)scale(0.1 -0.1)">
       <use xlink:href="#DejaVuSans-55"/>
       <use x="63.623047" xlink:href="#DejaVuSans-53"/>
      </g>
     </g>
    </g>
    <g id="ytick_12">
     <g id="line2d_17">
      <g>
       <use style="stroke:#000000;stroke-width:0.8;" x="374.4576" xlink:href="#mbb5b23a915" y="79.488"/>
      </g>
     </g>
     <g id="text_17">
      <!-- 90 -->
      <defs>
       <path d="M 10.984375 1.515625 
L 10.984375 10.5 
Q 14.703125 8.734375 18.5 7.8125 
Q 22.3125 6.890625 25.984375 6.890625 
Q 35.75 6.890625 40.890625 13.453125 
Q 46.046875 20.015625 46.78125 33.40625 
Q 43.953125 29.203125 39.59375 26.953125 
Q 35.25 24.703125 29.984375 24.703125 
Q 19.046875 24.703125 12.671875 31.3125 
Q 6.296875 37.9375 6.296875 49.421875 
Q 6.296875 60.640625 12.9375 67.421875 
Q 19.578125 74.21875 30.609375 74.21875 
Q 43.265625 74.21875 49.921875 64.515625 
Q 56.59375 54.828125 56.59375 36.375 
Q 56.59375 19.140625 48.40625 8.859375 
Q 40.234375 -1.421875 26.421875 -1.421875 
Q 22.703125 -1.421875 18.890625 -0.6875 
Q 15.09375 0.046875 10.984375 1.515625 
z
M 30.609375 32.421875 
Q 37.25 32.421875 41.125 36.953125 
Q 45.015625 41.5 45.015625 49.421875 
Q 45.015625 57.28125 41.125 61.84375 
Q 37.25 66.40625 30.609375 66.40625 
Q 23.96875 66.40625 20.09375 61.84375 
Q 16.21875 57.28125 16.21875 49.421875 
Q 16.21875 41.5 20.09375 36.953125 
Q 23.96875 32.421875 30.609375 32.421875 
z
" id="DejaVuSans-57"/>
      </defs>
      <g transform="translate(381.4576 83.287219)scale(0.1 -0.1)">
       <use xlink:href="#DejaVuSans-57"/>
       <use x="63.623047" xlink:href="#DejaVuSans-48"/>
      </g>
     </g>
    </g>
    <g id="ytick_13">
     <g id="line2d_18">
      <g>
       <use style="stroke:#000000;stroke-width:0.8;" x="374.4576" xlink:href="#mbb5b23a915" y="41.472"/>
      </g>
     </g>
     <g id="text_18">
      <!-- 105 -->
      <g transform="translate(381.4576 45.271219)scale(0.1 -0.1)">
       <use xlink:href="#DejaVuSans-49"/>
       <use x="63.623047" xlink:href="#DejaVuSans-48"/>
       <use x="127.246094" xlink:href="#DejaVuSans-53"/>
      </g>
     </g>
    </g>
   </g>
   <g id="LineCollection_9">
    <path clip-path="url(#pf420f50f1a)" d="M 361.152 307.584 
L 374.4576 307.584 
" style="fill:none;stroke:#00ff80;stroke-width:1.5;"/>
    <path clip-path="url(#pf420f50f1a)" d="M 361.152 269.568 
L 374.4576 269.568 
" style="fill:none;stroke:#00db92;stroke-width:1.5;"/>
    <path clip-path="url(#pf420f50f1a)" d="M 361.152 231.552 
L 374.4576 231.552 
" style="fill:none;stroke:#00b6a4;stroke-width:1.5;"/>
    <path clip-path="url(#pf420f50f1a)" d="M 361.152 193.536 
L 374.4576 193.536 
" style="fill:none;stroke:#0092b6;stroke-width:1.5;"/>
    <path clip-path="url(#pf420f50f1a)" d="M 361.152 155.52 
L 374.4576 155.52 
" style="fill:none;stroke:#006dc8;stroke-width:1.5;"/>
    <path clip-path="url(#pf420f50f1a)" d="M 361.152 117.504 
L 374.4576 117.504 
" style="fill:none;stroke:#0049db;stroke-width:1.5;"/>
    <path clip-path="url(#pf420f50f1a)" d="M 361.152 79.488 
L 374.4576 79.488 
" style="fill:none;stroke:#0024ed;stroke-width:1.5;"/>
    <path clip-path="url(#pf420f50f1a)" d="M 361.152 41.472 
L 374.4576 41.472 
" style="fill:none;stroke:#0000ff;stroke-width:1.5;"/>
   </g>
   <g id="patch_8">
    <path d="M 361.152 307.584 
L 361.152 269.568 
L 361.152 79.488 
L 361.152 41.472 
L 374.4576 41.472 
L 374.4576 79.488 
L 374.4576 269.568 
L 374.4576 307.584 
z
" style="fill:none;stroke:#000000;stroke-linejoin:miter;stroke-width:0.8;"/>
   </g>
  </g>
 </g>
 <defs>
  <clipPath id="pa99e669ed3">
   <rect height="266.112" width="285.696" x="57.6" y="41.472"/>
  </clipPath>
  <clipPath id="pf420f50f1a">
   <rect height="266.112" width="13.3056" x="361.152" y="41.472"/>
  </clipPath>
 </defs>
</svg>
