<?xml version="1.0" encoding="utf-8" standalone="no"?>
<!DOCTYPE svg PUBLIC "-//W3C//DTD SVG 1.1//EN"
  "http://www.w3.org/Graphics/SVG/1.1/DTD/svg11.dtd">
<!-- Created with matplotlib (https://matplotlib.org/) -->
<svg height="345.6pt" version="1.1" viewBox="0 0 460.8 345.6" width="460.8pt" xmlns="http://www.w3.org/2000/svg" xmlns:xlink="http://www.w3.org/1999/xlink">
 <defs>
  <style type="text/css">
*{stroke-linecap:butt;stroke-linejoin:round;}
  </style>
 </defs>
 <g id="figure_1">
  <g id="patch_1">
   <path d="M 0 345.6 
L 460.8 345.6 
L 460.8 0 
L 0 0 
z
" style="fill:#ffffff;"/>
  </g>
  <g id="axes_1">
   <g id="patch_2">
    <path d="M 57.6 307.584 
L 343.296 307.584 
L 343.296 41.472 
L 57.6 41.472 
z
" style="fill:#ffffff;"/>
   </g>
   <g id="matplotlib.axis_1">
    <g id="xtick_1">
     <g id="line2d_1">
      <defs>
       <path d="M 0 0 
L 0 3.5 
" id="m7cd5711751" style="stroke:#000000;stroke-width:0.8;"/>
      </defs>
      <g>
       <use style="stroke:#000000;stroke-width:0.8;" x="57.6" xlink:href="#m7cd5711751" y="307.584"/>
      </g>
     </g>
     <g id="text_1">
      <!-- −2.0 -->
      <defs>
       <path d="M 10.59375 35.5 
L 73.1875 35.5 
L 73.1875 27.203125 
L 10.59375 27.203125 
z
" id="DejaVuSans-8722"/>
       <path d="M 19.1875 8.296875 
L 53.609375 8.296875 
L 53.609375 0 
L 7.328125 0 
L 7.328125 8.296875 
Q 12.9375 14.109375 22.625 23.890625 
Q 32.328125 33.6875 34.8125 36.53125 
Q 39.546875 41.84375 41.421875 45.53125 
Q 43.3125 49.21875 43.3125 52.78125 
Q 43.3125 58.59375 39.234375 62.25 
Q 35.15625 65.921875 28.609375 65.921875 
Q 23.96875 65.921875 18.8125 64.3125 
Q 13.671875 62.703125 7.8125 59.421875 
L 7.8125 69.390625 
Q 13.765625 71.78125 18.9375 73 
Q 24.125 74.21875 28.421875 74.21875 
Q 39.75 74.21875 46.484375 68.546875 
Q 53.21875 62.890625 53.21875 53.421875 
Q 53.21875 48.921875 51.53125 44.890625 
Q 49.859375 40.875 45.40625 35.40625 
Q 44.1875 33.984375 37.640625 27.21875 
Q 31.109375 20.453125 19.1875 8.296875 
z
" id="DejaVuSans-50"/>
       <path d="M 10.6875 12.40625 
L 21 12.40625 
L 21 0 
L 10.6875 0 
z
" id="DejaVuSans-46"/>
       <path d="M 31.78125 66.40625 
Q 24.171875 66.40625 20.328125 58.90625 
Q 16.5 51.421875 16.5 36.375 
Q 16.5 21.390625 20.328125 13.890625 
Q 24.171875 6.390625 31.78125 6.390625 
Q 39.453125 6.390625 43.28125 13.890625 
Q 47.125 21.390625 47.125 36.375 
Q 47.125 51.421875 43.28125 58.90625 
Q 39.453125 66.40625 31.78125 66.40625 
z
M 31.78125 74.21875 
Q 44.046875 74.21875 50.515625 64.515625 
Q 56.984375 54.828125 56.984375 36.375 
Q 56.984375 17.96875 50.515625 8.265625 
Q 44.046875 -1.421875 31.78125 -1.421875 
Q 19.53125 -1.421875 13.0625 8.265625 
Q 6.59375 17.96875 6.59375 36.375 
Q 6.59375 54.828125 13.0625 64.515625 
Q 19.53125 74.21875 31.78125 74.21875 
z
" id="DejaVuSans-48"/>
      </defs>
      <g transform="translate(45.458594 322.182437)scale(0.1 -0.1)">
       <use xlink:href="#DejaVuSans-8722"/>
       <use x="83.789062" xlink:href="#DejaVuSans-50"/>
       <use x="147.412109" xlink:href="#DejaVuSans-46"/>
       <use x="179.199219" xlink:href="#DejaVuSans-48"/>
      </g>
     </g>
    </g>
    <g id="xtick_2">
     <g id="line2d_2">
      <g>
       <use style="stroke:#000000;stroke-width:0.8;" x="93.312" xlink:href="#m7cd5711751" y="307.584"/>
      </g>
     </g>
     <g id="text_2">
      <!-- −1.5 -->
      <defs>
       <path d="M 12.40625 8.296875 
L 28.515625 8.296875 
L 28.515625 63.921875 
L 10.984375 60.40625 
L 10.984375 69.390625 
L 28.421875 72.90625 
L 38.28125 72.90625 
L 38.28125 8.296875 
L 54.390625 8.296875 
L 54.390625 0 
L 12.40625 0 
z
" id="DejaVuSans-49"/>
       <path d="M 10.796875 72.90625 
L 49.515625 72.90625 
L 49.515625 64.59375 
L 19.828125 64.59375 
L 19.828125 46.734375 
Q 21.96875 47.46875 24.109375 47.828125 
Q 26.265625 48.1875 28.421875 48.1875 
Q 40.625 48.1875 47.75 41.5 
Q 54.890625 34.8125 54.890625 23.390625 
Q 54.890625 11.625 47.5625 5.09375 
Q 40.234375 -1.421875 26.90625 -1.421875 
Q 22.3125 -1.421875 17.546875 -0.640625 
Q 12.796875 0.140625 7.71875 1.703125 
L 7.71875 11.625 
Q 12.109375 9.234375 16.796875 8.0625 
Q 21.484375 6.890625 26.703125 6.890625 
Q 35.15625 6.890625 40.078125 11.328125 
Q 45.015625 15.765625 45.015625 23.390625 
Q 45.015625 31 40.078125 35.4375 
Q 35.15625 39.890625 26.703125 39.890625 
Q 22.75 39.890625 18.8125 39.015625 
Q 14.890625 38.140625 10.796875 36.28125 
z
" id="DejaVuSans-53"/>
      </defs>
      <g transform="translate(81.170594 322.182437)scale(0.1 -0.1)">
       <use xlink:href="#DejaVuSans-8722"/>
       <use x="83.789062" xlink:href="#DejaVuSans-49"/>
       <use x="147.412109" xlink:href="#DejaVuSans-46"/>
       <use x="179.199219" xlink:href="#DejaVuSans-53"/>
      </g>
     </g>
    </g>
    <g id="xtick_3">
     <g id="line2d_3">
      <g>
       <use style="stroke:#000000;stroke-width:0.8;" x="129.024" xlink:href="#m7cd5711751" y="307.584"/>
      </g>
     </g>
     <g id="text_3">
      <!-- −1.0 -->
      <g transform="translate(116.882594 322.182437)scale(0.1 -0.1)">
       <use xlink:href="#DejaVuSans-8722"/>
       <use x="83.789062" xlink:href="#DejaVuSans-49"/>
       <use x="147.412109" xlink:href="#DejaVuSans-46"/>
       <use x="179.199219" xlink:href="#DejaVuSans-48"/>
      </g>
     </g>
    </g>
    <g id="xtick_4">
     <g id="line2d_4">
      <g>
       <use style="stroke:#000000;stroke-width:0.8;" x="164.736" xlink:href="#m7cd5711751" y="307.584"/>
      </g>
     </g>
     <g id="text_4">
      <!-- −0.5 -->
      <g transform="translate(152.594594 322.182437)scale(0.1 -0.1)">
       <use xlink:href="#DejaVuSans-8722"/>
       <use x="83.789062" xlink:href="#DejaVuSans-48"/>
       <use x="147.412109" xlink:href="#DejaVuSans-46"/>
       <use x="179.199219" xlink:href="#DejaVuSans-53"/>
      </g>
     </g>
    </g>
    <g id="xtick_5">
     <g id="line2d_5">
      <g>
       <use style="stroke:#000000;stroke-width:0.8;" x="200.448" xlink:href="#m7cd5711751" y="307.584"/>
      </g>
     </g>
     <g id="text_5">
      <!-- 0.0 -->
      <g transform="translate(192.496438 322.182437)scale(0.1 -0.1)">
       <use xlink:href="#DejaVuSans-48"/>
       <use x="63.623047" xlink:href="#DejaVuSans-46"/>
       <use x="95.410156" xlink:href="#DejaVuSans-48"/>
      </g>
     </g>
    </g>
    <g id="xtick_6">
     <g id="line2d_6">
      <g>
       <use style="stroke:#000000;stroke-width:0.8;" x="236.16" xlink:href="#m7cd5711751" y="307.584"/>
      </g>
     </g>
     <g id="text_6">
      <!-- 0.5 -->
      <g transform="translate(228.208438 322.182437)scale(0.1 -0.1)">
       <use xlink:href="#DejaVuSans-48"/>
       <use x="63.623047" xlink:href="#DejaVuSans-46"/>
       <use x="95.410156" xlink:href="#DejaVuSans-53"/>
      </g>
     </g>
    </g>
    <g id="xtick_7">
     <g id="line2d_7">
      <g>
       <use style="stroke:#000000;stroke-width:0.8;" x="271.872" xlink:href="#m7cd5711751" y="307.584"/>
      </g>
     </g>
     <g id="text_7">
      <!-- 1.0 -->
      <g transform="translate(263.920437 322.182437)scale(0.1 -0.1)">
       <use xlink:href="#DejaVuSans-49"/>
       <use x="63.623047" xlink:href="#DejaVuSans-46"/>
       <use x="95.410156" xlink:href="#DejaVuSans-48"/>
      </g>
     </g>
    </g>
    <g id="xtick_8">
     <g id="line2d_8">
      <g>
       <use style="stroke:#000000;stroke-width:0.8;" x="307.584" xlink:href="#m7cd5711751" y="307.584"/>
      </g>
     </g>
     <g id="text_8">
      <!-- 1.5 -->
      <g transform="translate(299.632437 322.182437)scale(0.1 -0.1)">
       <use xlink:href="#DejaVuSans-49"/>
       <use x="63.623047" xlink:href="#DejaVuSans-46"/>
       <use x="95.410156" xlink:href="#DejaVuSans-53"/>
      </g>
     </g>
    </g>
    <g id="xtick_9">
     <g id="line2d_9">
      <g>
       <use style="stroke:#000000;stroke-width:0.8;" x="343.296" xlink:href="#m7cd5711751" y="307.584"/>
      </g>
     </g>
     <g id="text_9">
      <!-- 2.0 -->
      <g transform="translate(335.344438 322.182437)scale(0.1 -0.1)">
       <use xlink:href="#DejaVuSans-50"/>
       <use x="63.623047" xlink:href="#DejaVuSans-46"/>
       <use x="95.410156" xlink:href="#DejaVuSans-48"/>
      </g>
     </g>
    </g>
   </g>
   <g id="matplotlib.axis_2">
    <g id="ytick_1">
     <g id="line2d_10">
      <defs>
       <path d="M 0 0 
L -3.5 0 
" id="m8e382aef13" style="stroke:#000000;stroke-width:0.8;"/>
      </defs>
      <g>
       <use style="stroke:#000000;stroke-width:0.8;" x="57.6" xlink:href="#m8e382aef13" y="307.584"/>
      </g>
     </g>
     <g id="text_10">
      <!-- −2.0 -->
      <g transform="translate(26.317187 311.383219)scale(0.1 -0.1)">
       <use xlink:href="#DejaVuSans-8722"/>
       <use x="83.789062" xlink:href="#DejaVuSans-50"/>
       <use x="147.412109" xlink:href="#DejaVuSans-46"/>
       <use x="179.199219" xlink:href="#DejaVuSans-48"/>
      </g>
     </g>
    </g>
    <g id="ytick_2">
     <g id="line2d_11">
      <g>
       <use style="stroke:#000000;stroke-width:0.8;" x="57.6" xlink:href="#m8e382aef13" y="274.32"/>
      </g>
     </g>
     <g id="text_11">
      <!-- −1.5 -->
      <g transform="translate(26.317187 278.119219)scale(0.1 -0.1)">
       <use xlink:href="#DejaVuSans-8722"/>
       <use x="83.789062" xlink:href="#DejaVuSans-49"/>
       <use x="147.412109" xlink:href="#DejaVuSans-46"/>
       <use x="179.199219" xlink:href="#DejaVuSans-53"/>
      </g>
     </g>
    </g>
    <g id="ytick_3">
     <g id="line2d_12">
      <g>
       <use style="stroke:#000000;stroke-width:0.8;" x="57.6" xlink:href="#m8e382aef13" y="241.056"/>
      </g>
     </g>
     <g id="text_12">
      <!-- −1.0 -->
      <g transform="translate(26.317187 244.855219)scale(0.1 -0.1)">
       <use xlink:href="#DejaVuSans-8722"/>
       <use x="83.789062" xlink:href="#DejaVuSans-49"/>
       <use x="147.412109" xlink:href="#DejaVuSans-46"/>
       <use x="179.199219" xlink:href="#DejaVuSans-48"/>
      </g>
     </g>
    </g>
    <g id="ytick_4">
     <g id="line2d_13">
      <g>
       <use style="stroke:#000000;stroke-width:0.8;" x="57.6" xlink:href="#m8e382aef13" y="207.792"/>
      </g>
     </g>
     <g id="text_13">
      <!-- −0.5 -->
      <g transform="translate(26.317187 211.591219)scale(0.1 -0.1)">
       <use xlink:href="#DejaVuSans-8722"/>
       <use x="83.789062" xlink:href="#DejaVuSans-48"/>
       <use x="147.412109" xlink:href="#DejaVuSans-46"/>
       <use x="179.199219" xlink:href="#DejaVuSans-53"/>
      </g>
     </g>
    </g>
    <g id="ytick_5">
     <g id="line2d_14">
      <g>
       <use style="stroke:#000000;stroke-width:0.8;" x="57.6" xlink:href="#m8e382aef13" y="174.528"/>
      </g>
     </g>
     <g id="text_14">
      <!-- 0.0 -->
      <g transform="translate(34.696875 178.327219)scale(0.1 -0.1)">
       <use xlink:href="#DejaVuSans-48"/>
       <use x="63.623047" xlink:href="#DejaVuSans-46"/>
       <use x="95.410156" xlink:href="#DejaVuSans-48"/>
      </g>
     </g>
    </g>
    <g id="ytick_6">
     <g id="line2d_15">
      <g>
       <use style="stroke:#000000;stroke-width:0.8;" x="57.6" xlink:href="#m8e382aef13" y="141.264"/>
      </g>
     </g>
     <g id="text_15">
      <!-- 0.5 -->
      <g transform="translate(34.696875 145.063219)scale(0.1 -0.1)">
       <use xlink:href="#DejaVuSans-48"/>
       <use x="63.623047" xlink:href="#DejaVuSans-46"/>
       <use x="95.410156" xlink:href="#DejaVuSans-53"/>
      </g>
     </g>
    </g>
    <g id="ytick_7">
     <g id="line2d_16">
      <g>
       <use style="stroke:#000000;stroke-width:0.8;" x="57.6" xlink:href="#m8e382aef13" y="108"/>
      </g>
     </g>
     <g id="text_16">
      <!-- 1.0 -->
      <g transform="translate(34.696875 111.799219)scale(0.1 -0.1)">
       <use xlink:href="#DejaVuSans-49"/>
       <use x="63.623047" xlink:href="#DejaVuSans-46"/>
       <use x="95.410156" xlink:href="#DejaVuSans-48"/>
      </g>
     </g>
    </g>
    <g id="ytick_8">
     <g id="line2d_17">
      <g>
       <use style="stroke:#000000;stroke-width:0.8;" x="57.6" xlink:href="#m8e382aef13" y="74.736"/>
      </g>
     </g>
     <g id="text_17">
      <!-- 1.5 -->
      <g transform="translate(34.696875 78.535219)scale(0.1 -0.1)">
       <use xlink:href="#DejaVuSans-49"/>
       <use x="63.623047" xlink:href="#DejaVuSans-46"/>
       <use x="95.410156" xlink:href="#DejaVuSans-53"/>
      </g>
     </g>
    </g>
    <g id="ytick_9">
     <g id="line2d_18">
      <g>
       <use style="stroke:#000000;stroke-width:0.8;" x="57.6" xlink:href="#m8e382aef13" y="41.472"/>
      </g>
     </g>
     <g id="text_18">
      <!-- 2.0 -->
      <g transform="translate(34.696875 45.271219)scale(0.1 -0.1)">
       <use xlink:href="#DejaVuSans-50"/>
       <use x="63.623047" xlink:href="#DejaVuSans-46"/>
       <use x="95.410156" xlink:href="#DejaVuSans-48"/>
      </g>
     </g>
    </g>
   </g>
   <g id="LineCollection_1"/>
   <g id="LineCollection_2">
    <path clip-path="url(#p90576188ae)" d="M 190.347636 203.560998 
L 187.972748 202.752 
L 187.461818 202.562569 
L 184.576 201.222502 
L 182.50981 200.064 
L 181.690182 199.556285 
L 178.804364 197.463201 
L 178.699129 197.376 
L 175.918545 194.786021 
L 175.824927 194.688 
L 173.577807 192 
L 173.032727 191.236556 
L 171.788968 189.312 
L 170.350281 186.624 
L 170.146909 186.148094 
L 169.278375 183.936 
L 168.49043 181.248 
L 167.967274 178.56 
L 167.706336 175.872 
L 167.706336 173.184 
L 167.967274 170.496 
L 168.49043 167.808 
L 169.278375 165.12 
L 170.146909 162.907906 
L 170.350281 162.432 
L 171.788968 159.744 
L 173.032727 157.819444 
L 173.577807 157.056 
L 175.824927 154.368 
L 175.918545 154.269979 
L 178.699129 151.68 
L 178.804364 151.592799 
L 181.690182 149.499715 
L 182.50981 148.992 
L 184.576 147.833498 
L 187.461818 146.493431 
L 187.972748 146.304 
L 190.347636 145.495002 
L 193.233455 144.76107 
L 196.119273 144.273775 
L 199.005091 144.030724 
L 201.890909 144.030724 
L 204.776727 144.273775 
L 207.662545 144.76107 
L 210.548364 145.495002 
L 212.923252 146.304 
L 213.434182 146.493431 
L 216.32 147.833498 
L 218.38619 148.992 
L 219.205818 149.499715 
L 222.091636 151.592799 
L 222.196871 151.68 
L 224.977455 154.269979 
L 225.071073 154.368 
L 227.318193 157.056 
L 227.863273 157.819444 
L 229.107032 159.744 
L 230.545719 162.432 
L 230.749091 162.907906 
L 231.617625 165.12 
L 232.40557 167.808 
L 232.928726 170.496 
L 233.189664 173.184 
L 233.189664 175.872 
L 232.928726 178.56 
L 232.40557 181.248 
L 231.617625 183.936 
L 230.749091 186.148094 
L 230.545719 186.624 
L 229.107032 189.312 
L 227.863273 191.236556 
L 227.318193 192 
L 225.071073 194.688 
L 224.977455 194.786021 
L 222.196871 197.376 
L 222.091636 197.463201 
L 219.205818 199.556285 
L 218.38619 200.064 
L 216.32 201.222502 
L 213.434182 202.562569 
L 212.923252 202.752 
L 210.548364 203.560998 
L 207.662545 204.29493 
L 204.776727 204.782225 
L 201.890909 205.025276 
L 199.005091 205.025276 
L 196.119273 204.782225 
L 193.233455 204.29493 
L 190.347636 203.560998 
" style="fill:none;stroke:#00db92;stroke-width:1.5;"/>
   </g>
   <g id="LineCollection_3">
    <path clip-path="url(#p90576188ae)" d="M 193.233455 224.539059 
L 190.347636 224.104787 
L 187.461818 223.51327 
L 184.576 222.768422 
L 180.87335 221.568 
L 178.804364 220.780935 
L 174.639308 218.88 
L 173.032727 218.043058 
L 169.889485 216.192 
L 166.058236 213.504 
L 162.819696 210.816 
L 160.043815 208.128 
L 157.639002 205.44 
L 155.540118 202.752 
L 152.832 198.567548 
L 152.150336 197.376 
L 150.791169 194.688 
L 149.62567 192 
L 148.657417 189.312 
L 147.857753 186.624 
L 147.060364 183.017513 
L 146.756474 181.248 
L 146.449462 178.56 
L 146.296331 175.872 
L 146.296331 173.184 
L 146.449462 170.496 
L 147.060364 166.038487 
L 147.222705 165.12 
L 147.857753 162.432 
L 148.657417 159.744 
L 149.946182 156.295161 
L 150.791169 154.368 
L 152.832 150.488452 
L 153.730536 148.992 
L 155.717818 146.064222 
L 158.603636 142.495599 
L 161.489455 139.479056 
L 164.375273 136.893457 
L 167.261091 134.65349 
L 170.146909 132.698481 
L 174.639308 130.176 
L 175.918545 129.541063 
L 180.87335 127.488 
L 181.690182 127.189459 
L 184.576 126.287578 
L 187.461818 125.54273 
L 191.333718 124.8 
L 193.233455 124.516941 
L 196.119273 124.230975 
L 199.005091 124.088341 
L 201.890909 124.088341 
L 204.776727 124.230975 
L 209.562282 124.8 
L 210.548364 124.951213 
L 213.434182 125.54273 
L 216.32 126.287578 
L 220.02265 127.488 
L 222.091636 128.275065 
L 226.256692 130.176 
L 227.863273 131.012942 
L 231.006515 132.864 
L 234.837764 135.552 
L 238.076304 138.24 
L 240.852185 140.928 
L 243.256998 143.616 
L 245.355882 146.304 
L 248.064 150.488452 
L 248.745664 151.68 
L 250.104831 154.368 
L 251.27033 157.056 
L 252.238583 159.744 
L 253.038247 162.432 
L 253.835636 166.038487 
L 254.139526 167.808 
L 254.446538 170.496 
L 254.599669 173.184 
L 254.599669 175.872 
L 254.446538 178.56 
L 253.835636 183.017513 
L 253.673295 183.936 
L 253.038247 186.624 
L 252.238583 189.312 
L 250.949818 192.760839 
L 250.104831 194.688 
L 248.064 198.567548 
L 247.165464 200.064 
L 245.178182 202.991778 
L 242.292364 206.560401 
L 239.406545 209.576944 
L 236.520727 212.162543 
L 233.634909 214.40251 
L 230.749091 216.357519 
L 226.256692 218.88 
L 224.977455 219.514937 
L 220.02265 221.568 
L 219.205818 221.866541 
L 216.32 222.768422 
L 213.434182 223.51327 
L 209.562282 224.256 
L 207.662545 224.539059 
L 204.776727 224.825025 
L 201.890909 224.967659 
L 199.005091 224.967659 
L 196.119273 224.825025 
L 193.233455 224.539059 
L 193.233455 224.539059 
" style="fill:none;stroke:#00b6a4;stroke-width:1.5;"/>
   </g>
   <g id="LineCollection_4">
    <path clip-path="url(#p90576188ae)" d="M 187.461818 240.675533 
L 184.576 240.126818 
L 181.690182 239.462127 
L 178.804364 238.678381 
L 175.704629 237.696 
L 173.032727 236.733255 
L 168.917354 235.008 
L 167.261091 234.243561 
L 163.556016 232.32 
L 159.080865 229.632 
L 158.603636 229.322366 
L 155.232335 226.944 
L 151.861838 224.256 
L 148.868112 221.568 
L 146.190913 218.88 
L 143.784895 216.192 
L 141.288727 213.059485 
L 138.402909 208.891098 
L 137.91525 208.128 
L 135.517091 203.897272 
L 134.923281 202.752 
L 133.664869 200.064 
L 132.55007 197.376 
L 131.576595 194.688 
L 130.735171 192 
L 129.745455 188.058156 
L 129.432467 186.624 
L 128.964822 183.936 
L 128.616087 181.248 
L 128.384544 178.56 
L 128.269056 175.872 
L 128.269056 173.184 
L 128.384544 170.496 
L 128.616087 167.808 
L 128.964822 165.12 
L 129.745455 160.997844 
L 130.021563 159.744 
L 130.735171 157.056 
L 131.576595 154.368 
L 132.631273 151.480748 
L 133.664869 148.992 
L 135.517091 145.158728 
L 136.337787 143.616 
L 138.402909 140.164902 
L 139.673844 138.24 
L 141.621148 135.552 
L 144.174545 132.411796 
L 147.060364 129.272341 
L 149.946182 126.48383 
L 152.832 123.990149 
L 155.717818 121.749059 
L 159.080865 119.424 
L 163.556016 116.736 
L 164.375273 116.281769 
L 168.917354 114.048 
L 170.146909 113.494895 
L 173.032727 112.322745 
L 175.918545 111.284364 
L 178.804364 110.377619 
L 181.690182 109.593873 
L 185.922118 108.672 
L 190.347636 107.944879 
L 196.119273 107.404378 
L 201.890909 107.296806 
L 207.662545 107.620049 
L 213.434182 108.380467 
L 216.32 108.929182 
L 219.205818 109.593873 
L 222.091636 110.377619 
L 225.191371 111.36 
L 227.863273 112.322745 
L 231.978646 114.048 
L 233.634909 114.812439 
L 237.339984 116.736 
L 241.815135 119.424 
L 242.292364 119.733634 
L 245.663665 122.112 
L 249.034162 124.8 
L 252.027888 127.488 
L 254.705087 130.176 
L 257.111105 132.864 
L 259.607273 135.996515 
L 262.493091 140.164902 
L 262.98075 140.928 
L 265.378909 145.158728 
L 265.972719 146.304 
L 267.231131 148.992 
L 268.34593 151.68 
L 269.319405 154.368 
L 270.160829 157.056 
L 271.150545 160.997844 
L 271.463533 162.432 
L 271.931178 165.12 
L 272.279913 167.808 
L 272.511456 170.496 
L 272.626944 173.184 
L 272.626944 175.872 
L 272.511456 178.56 
L 272.279913 181.248 
L 271.931178 183.936 
L 271.150545 188.058156 
L 270.874437 189.312 
L 270.160829 192 
L 269.319405 194.688 
L 268.264727 197.575252 
L 267.231131 200.064 
L 265.378909 203.897272 
L 264.558213 205.44 
L 262.493091 208.891098 
L 261.222156 210.816 
L 259.274852 213.504 
L 256.721455 216.644204 
L 253.835636 219.783659 
L 250.949818 222.57217 
L 248.064 225.065851 
L 245.178182 227.306941 
L 241.815135 229.632 
L 237.339984 232.32 
L 236.520727 232.774231 
L 231.978646 235.008 
L 230.749091 235.561105 
L 227.863273 236.733255 
L 224.977455 237.771636 
L 222.091636 238.678381 
L 219.205818 239.462127 
L 214.973882 240.384 
L 210.548364 241.111121 
L 204.776727 241.651622 
L 199.005091 241.759194 
L 193.233455 241.435951 
L 187.461818 240.675533 
L 187.461818 240.675533 
" style="fill:none;stroke:#0092b6;stroke-width:1.5;"/>
   </g>
   <g id="LineCollection_5">
    <path clip-path="url(#p90576188ae)" d="M 181.690182 256.768015 
L 175.918545 255.442395 
L 170.146909 253.723065 
L 164.375273 251.59783 
L 161.489455 250.369646 
L 157.462835 248.448 
L 152.832 245.951622 
L 149.946182 244.211331 
L 147.060364 242.318223 
L 144.174545 240.261535 
L 140.886263 237.696 
L 137.75303 235.008 
L 134.894963 232.32 
L 132.278259 229.632 
L 129.745455 226.788671 
L 126.859636 223.203053 
L 123.973818 219.181881 
L 122.047951 216.192 
L 120.470375 213.504 
L 118.202182 209.144945 
L 116.50526 205.44 
L 114.446817 200.064 
L 112.817988 194.688 
L 111.588367 189.312 
L 110.747735 183.936 
L 110.286026 178.56 
L 110.194136 173.184 
L 110.470257 167.808 
L 111.119825 162.432 
L 112.15569 157.056 
L 113.578866 151.68 
L 115.424727 146.304 
L 116.50526 143.616 
L 119.024934 138.24 
L 121.088 134.489399 
L 122.047951 132.864 
L 123.973818 129.874119 
L 126.859636 125.852947 
L 129.745455 122.267329 
L 132.278259 119.424 
L 135.517091 116.130669 
L 138.402909 113.468518 
L 141.288727 111.031185 
L 144.341306 108.672 
L 148.1908 105.984 
L 152.507902 103.296 
L 155.717818 101.502148 
L 158.603636 100.032712 
L 164.375273 97.45817 
L 170.146909 95.332935 
L 175.918545 93.613605 
L 181.690182 92.287985 
L 187.461818 91.323127 
L 193.233455 90.718086 
L 199.005091 90.460892 
L 204.776727 90.546484 
L 210.548364 90.976543 
L 216.32 91.759552 
L 222.091636 92.904884 
L 227.863273 94.422059 
L 233.634909 96.339399 
L 239.406545 98.686354 
L 243.433165 100.608 
L 248.064 103.104378 
L 250.949818 104.844669 
L 253.835636 106.737777 
L 256.721455 108.794465 
L 260.009737 111.36 
L 263.14297 114.048 
L 266.001037 116.736 
L 268.617741 119.424 
L 271.150545 122.267329 
L 274.036364 125.852947 
L 276.922182 129.874119 
L 278.848049 132.864 
L 280.425625 135.552 
L 282.693818 139.911055 
L 284.39074 143.616 
L 286.449183 148.992 
L 288.078012 154.368 
L 289.307633 159.744 
L 290.148265 165.12 
L 290.609974 170.496 
L 290.701864 175.872 
L 290.425743 181.248 
L 289.776175 186.624 
L 288.74031 192 
L 287.317134 197.376 
L 285.471273 202.752 
L 284.39074 205.44 
L 281.871066 210.816 
L 279.808 214.566601 
L 278.848049 216.192 
L 276.922182 219.181881 
L 274.036364 223.203053 
L 271.150545 226.788671 
L 268.617741 229.632 
L 265.378909 232.925331 
L 262.493091 235.587482 
L 259.607273 238.024815 
L 256.554694 240.384 
L 252.7052 243.072 
L 248.388098 245.76 
L 245.178182 247.553852 
L 242.292364 249.023288 
L 236.520727 251.59783 
L 230.749091 253.723065 
L 224.977455 255.442395 
L 219.205818 256.768015 
L 213.434182 257.732873 
L 207.662545 258.337914 
L 201.890909 258.595108 
L 196.119273 258.509516 
L 190.347636 258.079457 
L 184.576 257.296448 
L 181.690182 256.768015 
L 181.690182 256.768015 
" style="fill:none;stroke:#006dc8;stroke-width:1.5;"/>
   </g>
   <g id="LineCollection_6">
    <path clip-path="url(#p90576188ae)" d="M 178.804364 275.782262 
L 173.032727 274.564305 
L 167.261091 273.031998 
L 161.489455 271.185554 
L 155.717818 268.991191 
L 149.946182 266.430863 
L 144.174545 263.474267 
L 138.402909 260.077061 
L 135.517091 258.197877 
L 132.631273 256.183911 
L 129.479873 253.824 
L 126.153742 251.136 
L 123.077581 248.448 
L 120.223071 245.76 
L 117.567771 243.072 
L 115.094147 240.384 
L 112.430545 237.265588 
L 108.603121 232.32 
L 104.955903 226.944 
L 101.781723 221.568 
L 99.032972 216.192 
L 96.67712 210.816 
L 94.69479 205.44 
L 93.049716 200.064 
L 91.742126 194.688 
L 90.744903 189.312 
L 90.066811 183.936 
L 89.694376 178.56 
L 89.620253 173.184 
L 89.842985 167.808 
L 90.366955 162.432 
L 91.20253 157.056 
L 92.361766 151.68 
L 93.826053 146.304 
L 95.643212 140.928 
L 97.815373 135.552 
L 100.35906 130.176 
L 103.31622 124.8 
L 104.955903 122.112 
L 108.603121 116.736 
L 110.6206 114.048 
L 112.78278 111.36 
L 115.316364 108.424623 
L 118.202182 105.326494 
L 121.088 102.461198 
L 123.973818 99.80236 
L 126.859636 97.329077 
L 129.745455 95.025016 
L 133.093361 92.544 
L 138.402909 88.978939 
L 144.174545 85.581733 
L 149.946182 82.625137 
L 155.717818 80.064809 
L 161.489455 77.870446 
L 167.261091 76.024002 
L 173.032727 74.491695 
L 178.804364 73.273738 
L 184.576 72.344873 
L 190.347636 71.713263 
L 196.119273 71.366358 
L 201.890909 71.297316 
L 207.662545 71.504781 
L 213.434182 71.992833 
L 219.205818 72.771131 
L 224.977455 73.850903 
L 230.749091 75.214815 
L 236.520727 76.907411 
L 242.292364 78.930674 
L 248.064 81.299995 
L 253.835636 84.054447 
L 256.721455 85.581733 
L 262.493091 88.978939 
L 265.378909 90.858123 
L 268.264727 92.872089 
L 271.416127 95.232 
L 274.742258 97.92 
L 277.818419 100.608 
L 280.672929 103.296 
L 283.328229 105.984 
L 285.801853 108.672 
L 288.465455 111.790412 
L 292.292879 116.736 
L 295.940097 122.112 
L 299.114277 127.488 
L 301.863028 132.864 
L 304.21888 138.24 
L 306.20121 143.616 
L 307.846284 148.992 
L 309.153874 154.368 
L 310.151097 159.744 
L 310.829189 165.12 
L 311.201624 170.496 
L 311.275747 175.872 
L 311.053015 181.248 
L 310.529045 186.624 
L 309.69347 192 
L 308.534234 197.376 
L 307.069947 202.752 
L 305.252788 208.128 
L 303.080627 213.504 
L 300.53694 218.88 
L 297.57978 224.256 
L 295.940097 226.944 
L 292.292879 232.32 
L 290.2754 235.008 
L 288.11322 237.696 
L 285.579636 240.631377 
L 282.693818 243.729506 
L 279.808 246.594802 
L 276.922182 249.25364 
L 274.036364 251.726923 
L 271.150545 254.030984 
L 267.802639 256.512 
L 262.493091 260.077061 
L 256.721455 263.474267 
L 250.949818 266.430863 
L 245.178182 268.991191 
L 239.406545 271.185554 
L 233.634909 273.031998 
L 227.863273 274.564305 
L 222.091636 275.782262 
L 216.32 276.711127 
L 210.548364 277.342737 
L 204.776727 277.689642 
L 199.005091 277.758684 
L 193.233455 277.551219 
L 187.461818 277.063167 
L 181.690182 276.284869 
L 178.804364 275.782262 
L 178.804364 275.782262 
" style="fill:none;stroke:#0049db;stroke-width:1.5;"/>
   </g>
   <g id="LineCollection_7">
    <path clip-path="url(#p90576188ae)" d="M 178.804364 302.547245 
L 173.032727 301.589104 
L 167.261091 300.391948 
L 161.489455 298.944381 
L 155.717818 297.245455 
L 149.946182 295.294326 
L 144.174545 293.058821 
L 138.402909 290.530683 
L 132.631273 287.692905 
L 126.859636 284.518821 
L 120.682857 280.704 
L 115.316364 277.034826 
L 109.544727 272.629455 
L 103.773091 267.724394 
L 100.392997 264.576 
L 97.684297 261.888 
L 92.697142 256.512 
L 89.344 252.528758 
L 86.171816 248.448 
L 82.362617 243.072 
L 78.954942 237.696 
L 75.908323 232.32 
L 73.194132 226.944 
L 70.794109 221.568 
L 68.699391 216.192 
L 66.875435 210.816 
L 65.321337 205.44 
L 64.036079 200.064 
L 63.007426 194.688 
L 62.211038 189.312 
L 61.66951 183.936 
L 61.372082 178.56 
L 61.312887 173.184 
L 61.490762 167.808 
L 61.909207 162.432 
L 62.576502 157.056 
L 63.4986 151.68 
L 64.642613 146.304 
L 66.257455 140.332867 
L 67.745188 135.552 
L 69.712725 130.176 
L 72.029091 124.677303 
L 74.518867 119.424 
L 77.800727 113.354175 
L 80.686545 108.578295 
L 84.215648 103.296 
L 88.223116 97.92 
L 92.229818 93.083962 
L 95.126957 89.856 
L 100.392997 84.48 
L 103.773091 81.331606 
L 106.658909 78.808583 
L 112.430545 74.16329 
L 116.706927 71.04 
L 121.088 68.085264 
L 126.859636 64.537179 
L 132.631273 61.363095 
L 138.402909 58.525317 
L 144.174545 55.997179 
L 149.946182 53.761674 
L 155.717818 51.810545 
L 161.489455 50.111619 
L 167.261091 48.664052 
L 173.032727 47.466896 
L 178.804364 46.508755 
L 184.576 45.766959 
L 190.347636 45.262552 
L 196.119273 44.985512 
L 201.890909 44.930375 
L 207.662545 45.096057 
L 213.434182 45.485818 
L 219.205818 46.107371 
L 224.977455 46.966261 
L 230.749091 48.031854 
L 237.159658 49.536 
L 242.292364 50.921752 
L 248.064 52.754417 
L 253.967363 54.912 
L 259.607273 57.231106 
L 266.123795 60.288 
L 271.251146 62.976 
L 276.922182 66.263188 
L 282.693818 69.995951 
L 287.885755 73.728 
L 291.351273 76.426545 
L 297.122909 81.331606 
L 300.503003 84.48 
L 303.211703 87.168 
L 308.198858 92.544 
L 311.552 96.527242 
L 314.724184 100.608 
L 318.533383 105.984 
L 321.941058 111.36 
L 324.987677 116.736 
L 327.701868 122.112 
L 330.101891 127.488 
L 332.196609 132.864 
L 334.020565 138.24 
L 335.574663 143.616 
L 336.859921 148.992 
L 337.888574 154.368 
L 338.684962 159.744 
L 339.22649 165.12 
L 339.523918 170.496 
L 339.583113 175.872 
L 339.405238 181.248 
L 338.986793 186.624 
L 338.319498 192 
L 337.3974 197.376 
L 336.253387 202.752 
L 334.638545 208.723133 
L 333.150812 213.504 
L 331.183275 218.88 
L 328.866909 224.378697 
L 326.377133 229.632 
L 323.095273 235.701825 
L 320.209455 240.477705 
L 316.680352 245.76 
L 312.672884 251.136 
L 308.666182 255.972038 
L 305.769043 259.2 
L 300.503003 264.576 
L 297.122909 267.724394 
L 294.237091 270.247417 
L 288.465455 274.89271 
L 284.189073 278.016 
L 279.808 280.970736 
L 274.036364 284.518821 
L 268.264727 287.692905 
L 262.493091 290.530683 
L 256.721455 293.058821 
L 250.949818 295.294326 
L 245.178182 297.245455 
L 239.406545 298.944381 
L 233.634909 300.391948 
L 227.863273 301.589104 
L 222.091636 302.547245 
L 216.32 303.289041 
L 210.548364 303.793448 
L 204.776727 304.070488 
L 199.005091 304.125625 
L 193.233455 303.959943 
L 187.461818 303.570182 
L 181.690182 302.948629 
L 178.804364 302.547245 
L 178.804364 302.547245 
" style="fill:none;stroke:#0024ed;stroke-width:1.5;"/>
   </g>
   <g id="LineCollection_8"/>
   <g id="patch_3">
    <path d="M 57.6 307.584 
L 57.6 41.472 
" style="fill:none;stroke:#000000;stroke-linecap:square;stroke-linejoin:miter;stroke-width:0.8;"/>
   </g>
   <g id="patch_4">
    <path d="M 343.296 307.584 
L 343.296 41.472 
" style="fill:none;stroke:#000000;stroke-linecap:square;stroke-linejoin:miter;stroke-width:0.8;"/>
   </g>
   <g id="patch_5">
    <path d="M 57.6 307.584 
L 343.296 307.584 
" style="fill:none;stroke:#000000;stroke-linecap:square;stroke-linejoin:miter;stroke-width:0.8;"/>
   </g>
   <g id="patch_6">
    <path d="M 57.6 41.472 
L 343.296 41.472 
" style="fill:none;stroke:#000000;stroke-linecap:square;stroke-linejoin:miter;stroke-width:0.8;"/>
   </g>
  </g>
  <g id="axes_2">
   <g id="patch_7">
    <path clip-path="url(#p9f04f44fa0)" d="M 361.152 307.584 
L 361.152 269.568 
L 361.152 79.488 
L 361.152 41.472 
L 374.4576 41.472 
L 374.4576 79.488 
L 374.4576 269.568 
L 374.4576 307.584 
z
" style="fill:#ffffff;stroke:#ffffff;stroke-linejoin:miter;stroke-width:0.01;"/>
   </g>
   <g id="matplotlib.axis_3"/>
   <g id="matplotlib.axis_4">
    <g id="ytick_10">
     <g id="line2d_19">
      <defs>
       <path d="M 0 0 
L 3.5 0 
" id="mf8e1ed15d4" style="stroke:#000000;stroke-width:0.8;"/>
      </defs>
      <g>
       <use style="stroke:#000000;stroke-width:0.8;" x="374.4576" xlink:href="#mf8e1ed15d4" y="307.584"/>
      </g>
     </g>
     <g id="text_19">
      <!-- −1.05 -->
      <g transform="translate(381.4576 311.383219)scale(0.1 -0.1)">
       <use xlink:href="#DejaVuSans-8722"/>
       <use x="83.789062" xlink:href="#DejaVuSans-49"/>
       <use x="147.412109" xlink:href="#DejaVuSans-46"/>
       <use x="179.199219" xlink:href="#DejaVuSans-48"/>
       <use x="242.822266" xlink:href="#DejaVuSans-53"/>
      </g>
     </g>
    </g>
    <g id="ytick_11">
     <g id="line2d_20">
      <g>
       <use style="stroke:#000000;stroke-width:0.8;" x="374.4576" xlink:href="#mf8e1ed15d4" y="269.568"/>
      </g>
     </g>
     <g id="text_20">
      <!-- −0.90 -->
      <defs>
       <path d="M 10.984375 1.515625 
L 10.984375 10.5 
Q 14.703125 8.734375 18.5 7.8125 
Q 22.3125 6.890625 25.984375 6.890625 
Q 35.75 6.890625 40.890625 13.453125 
Q 46.046875 20.015625 46.78125 33.40625 
Q 43.953125 29.203125 39.59375 26.953125 
Q 35.25 24.703125 29.984375 24.703125 
Q 19.046875 24.703125 12.671875 31.3125 
Q 6.296875 37.9375 6.296875 49.421875 
Q 6.296875 60.640625 12.9375 67.421875 
Q 19.578125 74.21875 30.609375 74.21875 
Q 43.265625 74.21875 49.921875 64.515625 
Q 56.59375 54.828125 56.59375 36.375 
Q 56.59375 19.140625 48.40625 8.859375 
Q 40.234375 -1.421875 26.421875 -1.421875 
Q 22.703125 -1.421875 18.890625 -0.6875 
Q 15.09375 0.046875 10.984375 1.515625 
z
M 30.609375 32.421875 
Q 37.25 32.421875 41.125 36.953125 
Q 45.015625 41.5 45.015625 49.421875 
Q 45.015625 57.28125 41.125 61.84375 
Q 37.25 66.40625 30.609375 66.40625 
Q 23.96875 66.40625 20.09375 61.84375 
Q 16.21875 57.28125 16.21875 49.421875 
Q 16.21875 41.5 20.09375 36.953125 
Q 23.96875 32.421875 30.609375 32.421875 
z
" id="DejaVuSans-57"/>
      </defs>
      <g transform="translate(381.4576 273.367219)scale(0.1 -0.1)">
       <use xlink:href="#DejaVuSans-8722"/>
       <use x="83.789062" xlink:href="#DejaVuSans-48"/>
       <use x="147.412109" xlink:href="#DejaVuSans-46"/>
       <use x="179.199219" xlink:href="#DejaVuSans-57"/>
       <use x="242.822266" xlink:href="#DejaVuSans-48"/>
      </g>
     </g>
    </g>
    <g id="ytick_12">
     <g id="line2d_21">
      <g>
       <use style="stroke:#000000;stroke-width:0.8;" x="374.4576" xlink:href="#mf8e1ed15d4" y="231.552"/>
      </g>
     </g>
     <g id="text_21">
      <!-- −0.75 -->
      <defs>
       <path d="M 8.203125 72.90625 
L 55.078125 72.90625 
L 55.078125 68.703125 
L 28.609375 0 
L 18.3125 0 
L 43.21875 64.59375 
L 8.203125 64.59375 
z
" id="DejaVuSans-55"/>
      </defs>
      <g transform="translate(381.4576 235.351219)scale(0.1 -0.1)">
       <use xlink:href="#DejaVuSans-8722"/>
       <use x="83.789062" xlink:href="#DejaVuSans-48"/>
       <use x="147.412109" xlink:href="#DejaVuSans-46"/>
       <use x="179.199219" xlink:href="#DejaVuSans-55"/>
       <use x="242.822266" xlink:href="#DejaVuSans-53"/>
      </g>
     </g>
    </g>
    <g id="ytick_13">
     <g id="line2d_22">
      <g>
       <use style="stroke:#000000;stroke-width:0.8;" x="374.4576" xlink:href="#mf8e1ed15d4" y="193.536"/>
      </g>
     </g>
     <g id="text_22">
      <!-- −0.60 -->
      <defs>
       <path d="M 33.015625 40.375 
Q 26.375 40.375 22.484375 35.828125 
Q 18.609375 31.296875 18.609375 23.390625 
Q 18.609375 15.53125 22.484375 10.953125 
Q 26.375 6.390625 33.015625 6.390625 
Q 39.65625 6.390625 43.53125 10.953125 
Q 47.40625 15.53125 47.40625 23.390625 
Q 47.40625 31.296875 43.53125 35.828125 
Q 39.65625 40.375 33.015625 40.375 
z
M 52.59375 71.296875 
L 52.59375 62.3125 
Q 48.875 64.0625 45.09375 64.984375 
Q 41.3125 65.921875 37.59375 65.921875 
Q 27.828125 65.921875 22.671875 59.328125 
Q 17.53125 52.734375 16.796875 39.40625 
Q 19.671875 43.65625 24.015625 45.921875 
Q 28.375 48.1875 33.59375 48.1875 
Q 44.578125 48.1875 50.953125 41.515625 
Q 57.328125 34.859375 57.328125 23.390625 
Q 57.328125 12.15625 50.6875 5.359375 
Q 44.046875 -1.421875 33.015625 -1.421875 
Q 20.359375 -1.421875 13.671875 8.265625 
Q 6.984375 17.96875 6.984375 36.375 
Q 6.984375 53.65625 15.1875 63.9375 
Q 23.390625 74.21875 37.203125 74.21875 
Q 40.921875 74.21875 44.703125 73.484375 
Q 48.484375 72.75 52.59375 71.296875 
z
" id="DejaVuSans-54"/>
      </defs>
      <g transform="translate(381.4576 197.335219)scale(0.1 -0.1)">
       <use xlink:href="#DejaVuSans-8722"/>
       <use x="83.789062" xlink:href="#DejaVuSans-48"/>
       <use x="147.412109" xlink:href="#DejaVuSans-46"/>
       <use x="179.199219" xlink:href="#DejaVuSans-54"/>
       <use x="242.822266" xlink:href="#DejaVuSans-48"/>
      </g>
     </g>
    </g>
    <g id="ytick_14">
     <g id="line2d_23">
      <g>
       <use style="stroke:#000000;stroke-width:0.8;" x="374.4576" xlink:href="#mf8e1ed15d4" y="155.52"/>
      </g>
     </g>
     <g id="text_23">
      <!-- −0.45 -->
      <defs>
       <path d="M 37.796875 64.3125 
L 12.890625 25.390625 
L 37.796875 25.390625 
z
M 35.203125 72.90625 
L 47.609375 72.90625 
L 47.609375 25.390625 
L 58.015625 25.390625 
L 58.015625 17.1875 
L 47.609375 17.1875 
L 47.609375 0 
L 37.796875 0 
L 37.796875 17.1875 
L 4.890625 17.1875 
L 4.890625 26.703125 
z
" id="DejaVuSans-52"/>
      </defs>
      <g transform="translate(381.4576 159.319219)scale(0.1 -0.1)">
       <use xlink:href="#DejaVuSans-8722"/>
       <use x="83.789062" xlink:href="#DejaVuSans-48"/>
       <use x="147.412109" xlink:href="#DejaVuSans-46"/>
       <use x="179.199219" xlink:href="#DejaVuSans-52"/>
       <use x="242.822266" xlink:href="#DejaVuSans-53"/>
      </g>
     </g>
    </g>
    <g id="ytick_15">
     <g id="line2d_24">
      <g>
       <use style="stroke:#000000;stroke-width:0.8;" x="374.4576" xlink:href="#mf8e1ed15d4" y="117.504"/>
      </g>
     </g>
     <g id="text_24">
      <!-- −0.30 -->
      <defs>
       <path d="M 40.578125 39.3125 
Q 47.65625 37.796875 51.625 33 
Q 55.609375 28.21875 55.609375 21.1875 
Q 55.609375 10.40625 48.1875 4.484375 
Q 40.765625 -1.421875 27.09375 -1.421875 
Q 22.515625 -1.421875 17.65625 -0.515625 
Q 12.796875 0.390625 7.625 2.203125 
L 7.625 11.71875 
Q 11.71875 9.328125 16.59375 8.109375 
Q 21.484375 6.890625 26.8125 6.890625 
Q 36.078125 6.890625 40.9375 10.546875 
Q 45.796875 14.203125 45.796875 21.1875 
Q 45.796875 27.640625 41.28125 31.265625 
Q 36.765625 34.90625 28.71875 34.90625 
L 20.21875 34.90625 
L 20.21875 43.015625 
L 29.109375 43.015625 
Q 36.375 43.015625 40.234375 45.921875 
Q 44.09375 48.828125 44.09375 54.296875 
Q 44.09375 59.90625 40.109375 62.90625 
Q 36.140625 65.921875 28.71875 65.921875 
Q 24.65625 65.921875 20.015625 65.03125 
Q 15.375 64.15625 9.8125 62.3125 
L 9.8125 71.09375 
Q 15.4375 72.65625 20.34375 73.4375 
Q 25.25 74.21875 29.59375 74.21875 
Q 40.828125 74.21875 47.359375 69.109375 
Q 53.90625 64.015625 53.90625 55.328125 
Q 53.90625 49.265625 50.4375 45.09375 
Q 46.96875 40.921875 40.578125 39.3125 
z
" id="DejaVuSans-51"/>
      </defs>
      <g transform="translate(381.4576 121.303219)scale(0.1 -0.1)">
       <use xlink:href="#DejaVuSans-8722"/>
       <use x="83.789062" xlink:href="#DejaVuSans-48"/>
       <use x="147.412109" xlink:href="#DejaVuSans-46"/>
       <use x="179.199219" xlink:href="#DejaVuSans-51"/>
       <use x="242.822266" xlink:href="#DejaVuSans-48"/>
      </g>
     </g>
    </g>
    <g id="ytick_16">
     <g id="line2d_25">
      <g>
       <use style="stroke:#000000;stroke-width:0.8;" x="374.4576" xlink:href="#mf8e1ed15d4" y="79.488"/>
      </g>
     </g>
     <g id="text_25">
      <!-- −0.15 -->
      <g transform="translate(381.4576 83.287219)scale(0.1 -0.1)">
       <use xlink:href="#DejaVuSans-8722"/>
       <use x="83.789062" xlink:href="#DejaVuSans-48"/>
       <use x="147.412109" xlink:href="#DejaVuSans-46"/>
       <use x="179.199219" xlink:href="#DejaVuSans-49"/>
       <use x="242.822266" xlink:href="#DejaVuSans-53"/>
      </g>
     </g>
    </g>
    <g id="ytick_17">
     <g id="line2d_26">
      <g>
       <use style="stroke:#000000;stroke-width:0.8;" x="374.4576" xlink:href="#mf8e1ed15d4" y="41.472"/>
      </g>
     </g>
     <g id="text_26">
      <!-- 0.00 -->
      <g transform="translate(381.4576 45.271219)scale(0.1 -0.1)">
       <use xlink:href="#DejaVuSans-48"/>
       <use x="63.623047" xlink:href="#DejaVuSans-46"/>
       <use x="95.410156" xlink:href="#DejaVuSans-48"/>
       <use x="159.033203" xlink:href="#DejaVuSans-48"/>
      </g>
     </g>
    </g>
   </g>
   <g id="LineCollection_9">
    <path clip-path="url(#p9f04f44fa0)" d="M 361.152 307.584 
L 374.4576 307.584 
" style="fill:none;stroke:#00ff80;stroke-width:1.5;"/>
    <path clip-path="url(#p9f04f44fa0)" d="M 361.152 269.568 
L 374.4576 269.568 
" style="fill:none;stroke:#00db92;stroke-width:1.5;"/>
    <path clip-path="url(#p9f04f44fa0)" d="M 361.152 231.552 
L 374.4576 231.552 
" style="fill:none;stroke:#00b6a4;stroke-width:1.5;"/>
    <path clip-path="url(#p9f04f44fa0)" d="M 361.152 193.536 
L 374.4576 193.536 
" style="fill:none;stroke:#0092b6;stroke-width:1.5;"/>
    <path clip-path="url(#p9f04f44fa0)" d="M 361.152 155.52 
L 374.4576 155.52 
" style="fill:none;stroke:#006dc8;stroke-width:1.5;"/>
    <path clip-path="url(#p9f04f44fa0)" d="M 361.152 117.504 
L 374.4576 117.504 
" style="fill:none;stroke:#0049db;stroke-width:1.5;"/>
    <path clip-path="url(#p9f04f44fa0)" d="M 361.152 79.488 
L 374.4576 79.488 
" style="fill:none;stroke:#0024ed;stroke-width:1.5;"/>
    <path clip-path="url(#p9f04f44fa0)" d="M 361.152 41.472 
L 374.4576 41.472 
" style="fill:none;stroke:#0000ff;stroke-width:1.5;"/>
   </g>
   <g id="patch_8">
    <path d="M 361.152 307.584 
L 361.152 269.568 
L 361.152 79.488 
L 361.152 41.472 
L 374.4576 41.472 
L 374.4576 79.488 
L 374.4576 269.568 
L 374.4576 307.584 
z
" style="fill:none;stroke:#000000;stroke-linejoin:miter;stroke-width:0.8;"/>
   </g>
  </g>
 </g>
 <defs>
  <clipPath id="p90576188ae">
   <rect height="266.112" width="285.696" x="57.6" y="41.472"/>
  </clipPath>
  <clipPath id="p9f04f44fa0">
   <rect height="266.112" width="13.3056" x="361.152" y="41.472"/>
  </clipPath>
 </defs>
</svg>
