<?xml version="1.0" encoding="utf-8" standalone="no"?>
<!DOCTYPE svg PUBLIC "-//W3C//DTD SVG 1.1//EN"
  "http://www.w3.org/Graphics/SVG/1.1/DTD/svg11.dtd">
<!-- Created with matplotlib (https://matplotlib.org/) -->
<svg height="345.6pt" version="1.1" viewBox="0 0 460.8 345.6" width="460.8pt" xmlns="http://www.w3.org/2000/svg" xmlns:xlink="http://www.w3.org/1999/xlink">
 <defs>
  <style type="text/css">
*{stroke-linecap:butt;stroke-linejoin:round;}
  </style>
 </defs>
 <g id="figure_1">
  <g id="patch_1">
   <path d="M 0 345.6 
L 460.8 345.6 
L 460.8 0 
L 0 0 
z
" style="fill:#ffffff;"/>
  </g>
  <g id="axes_1">
   <g id="patch_2">
    <path d="M 57.6 307.584 
L 343.296 307.584 
L 343.296 41.472 
L 57.6 41.472 
z
" style="fill:#ffffff;"/>
   </g>
   <g id="matplotlib.axis_1">
    <g id="xtick_1">
     <g id="line2d_1">
      <defs>
       <path d="M 0 0 
L 0 3.5 
" id="mafcbadc085" style="stroke:#000000;stroke-width:0.8;"/>
      </defs>
      <g>
       <use style="stroke:#000000;stroke-width:0.8;" x="86.1696" xlink:href="#mafcbadc085" y="307.584"/>
      </g>
     </g>
     <g id="text_1">
      <!-- −4 -->
      <defs>
       <path d="M 10.59375 35.5 
L 73.1875 35.5 
L 73.1875 27.203125 
L 10.59375 27.203125 
z
" id="DejaVuSans-8722"/>
       <path d="M 37.796875 64.3125 
L 12.890625 25.390625 
L 37.796875 25.390625 
z
M 35.203125 72.90625 
L 47.609375 72.90625 
L 47.609375 25.390625 
L 58.015625 25.390625 
L 58.015625 17.1875 
L 47.609375 17.1875 
L 47.609375 0 
L 37.796875 0 
L 37.796875 17.1875 
L 4.890625 17.1875 
L 4.890625 26.703125 
z
" id="DejaVuSans-52"/>
      </defs>
      <g transform="translate(78.798506 322.182437)scale(0.1 -0.1)">
       <use xlink:href="#DejaVuSans-8722"/>
       <use x="83.789062" xlink:href="#DejaVuSans-52"/>
      </g>
     </g>
    </g>
    <g id="xtick_2">
     <g id="line2d_2">
      <g>
       <use style="stroke:#000000;stroke-width:0.8;" x="143.3088" xlink:href="#mafcbadc085" y="307.584"/>
      </g>
     </g>
     <g id="text_2">
      <!-- −2 -->
      <defs>
       <path d="M 19.1875 8.296875 
L 53.609375 8.296875 
L 53.609375 0 
L 7.328125 0 
L 7.328125 8.296875 
Q 12.9375 14.109375 22.625 23.890625 
Q 32.328125 33.6875 34.8125 36.53125 
Q 39.546875 41.84375 41.421875 45.53125 
Q 43.3125 49.21875 43.3125 52.78125 
Q 43.3125 58.59375 39.234375 62.25 
Q 35.15625 65.921875 28.609375 65.921875 
Q 23.96875 65.921875 18.8125 64.3125 
Q 13.671875 62.703125 7.8125 59.421875 
L 7.8125 69.390625 
Q 13.765625 71.78125 18.9375 73 
Q 24.125 74.21875 28.421875 74.21875 
Q 39.75 74.21875 46.484375 68.546875 
Q 53.21875 62.890625 53.21875 53.421875 
Q 53.21875 48.921875 51.53125 44.890625 
Q 49.859375 40.875 45.40625 35.40625 
Q 44.1875 33.984375 37.640625 27.21875 
Q 31.109375 20.453125 19.1875 8.296875 
z
" id="DejaVuSans-50"/>
      </defs>
      <g transform="translate(135.937706 322.182437)scale(0.1 -0.1)">
       <use xlink:href="#DejaVuSans-8722"/>
       <use x="83.789062" xlink:href="#DejaVuSans-50"/>
      </g>
     </g>
    </g>
    <g id="xtick_3">
     <g id="line2d_3">
      <g>
       <use style="stroke:#000000;stroke-width:0.8;" x="200.448" xlink:href="#mafcbadc085" y="307.584"/>
      </g>
     </g>
     <g id="text_3">
      <!-- 0 -->
      <defs>
       <path d="M 31.78125 66.40625 
Q 24.171875 66.40625 20.328125 58.90625 
Q 16.5 51.421875 16.5 36.375 
Q 16.5 21.390625 20.328125 13.890625 
Q 24.171875 6.390625 31.78125 6.390625 
Q 39.453125 6.390625 43.28125 13.890625 
Q 47.125 21.390625 47.125 36.375 
Q 47.125 51.421875 43.28125 58.90625 
Q 39.453125 66.40625 31.78125 66.40625 
z
M 31.78125 74.21875 
Q 44.046875 74.21875 50.515625 64.515625 
Q 56.984375 54.828125 56.984375 36.375 
Q 56.984375 17.96875 50.515625 8.265625 
Q 44.046875 -1.421875 31.78125 -1.421875 
Q 19.53125 -1.421875 13.0625 8.265625 
Q 6.59375 17.96875 6.59375 36.375 
Q 6.59375 54.828125 13.0625 64.515625 
Q 19.53125 74.21875 31.78125 74.21875 
z
" id="DejaVuSans-48"/>
      </defs>
      <g transform="translate(197.26675 322.182437)scale(0.1 -0.1)">
       <use xlink:href="#DejaVuSans-48"/>
      </g>
     </g>
    </g>
    <g id="xtick_4">
     <g id="line2d_4">
      <g>
       <use style="stroke:#000000;stroke-width:0.8;" x="257.5872" xlink:href="#mafcbadc085" y="307.584"/>
      </g>
     </g>
     <g id="text_4">
      <!-- 2 -->
      <g transform="translate(254.40595 322.182437)scale(0.1 -0.1)">
       <use xlink:href="#DejaVuSans-50"/>
      </g>
     </g>
    </g>
    <g id="xtick_5">
     <g id="line2d_5">
      <g>
       <use style="stroke:#000000;stroke-width:0.8;" x="314.7264" xlink:href="#mafcbadc085" y="307.584"/>
      </g>
     </g>
     <g id="text_5">
      <!-- 4 -->
      <g transform="translate(311.54515 322.182437)scale(0.1 -0.1)">
       <use xlink:href="#DejaVuSans-52"/>
      </g>
     </g>
    </g>
   </g>
   <g id="matplotlib.axis_2">
    <g id="ytick_1">
     <g id="line2d_6">
      <defs>
       <path d="M 0 0 
L -3.5 0 
" id="mc156ef98e3" style="stroke:#000000;stroke-width:0.8;"/>
      </defs>
      <g>
       <use style="stroke:#000000;stroke-width:0.8;" x="57.6" xlink:href="#mc156ef98e3" y="280.9728"/>
      </g>
     </g>
     <g id="text_6">
      <!-- −4 -->
      <g transform="translate(35.857813 284.772019)scale(0.1 -0.1)">
       <use xlink:href="#DejaVuSans-8722"/>
       <use x="83.789062" xlink:href="#DejaVuSans-52"/>
      </g>
     </g>
    </g>
    <g id="ytick_2">
     <g id="line2d_7">
      <g>
       <use style="stroke:#000000;stroke-width:0.8;" x="57.6" xlink:href="#mc156ef98e3" y="227.7504"/>
      </g>
     </g>
     <g id="text_7">
      <!-- −2 -->
      <g transform="translate(35.857813 231.549619)scale(0.1 -0.1)">
       <use xlink:href="#DejaVuSans-8722"/>
       <use x="83.789062" xlink:href="#DejaVuSans-50"/>
      </g>
     </g>
    </g>
    <g id="ytick_3">
     <g id="line2d_8">
      <g>
       <use style="stroke:#000000;stroke-width:0.8;" x="57.6" xlink:href="#mc156ef98e3" y="174.528"/>
      </g>
     </g>
     <g id="text_8">
      <!-- 0 -->
      <g transform="translate(44.2375 178.327219)scale(0.1 -0.1)">
       <use xlink:href="#DejaVuSans-48"/>
      </g>
     </g>
    </g>
    <g id="ytick_4">
     <g id="line2d_9">
      <g>
       <use style="stroke:#000000;stroke-width:0.8;" x="57.6" xlink:href="#mc156ef98e3" y="121.3056"/>
      </g>
     </g>
     <g id="text_9">
      <!-- 2 -->
      <g transform="translate(44.2375 125.104819)scale(0.1 -0.1)">
       <use xlink:href="#DejaVuSans-50"/>
      </g>
     </g>
    </g>
    <g id="ytick_5">
     <g id="line2d_10">
      <g>
       <use style="stroke:#000000;stroke-width:0.8;" x="57.6" xlink:href="#mc156ef98e3" y="68.0832"/>
      </g>
     </g>
     <g id="text_10">
      <!-- 4 -->
      <g transform="translate(44.2375 71.882419)scale(0.1 -0.1)">
       <use xlink:href="#DejaVuSans-52"/>
      </g>
     </g>
    </g>
   </g>
   <g id="LineCollection_1"/>
   <g id="LineCollection_2">
    <path clip-path="url(#p5344e601fd)" d="M 93.475228 307.584 
L 92.359438 304.896 
L 92.229818 304.498322 
L 91.59041 302.208 
L 91.039655 299.52 
L 90.676125 296.832 
L 90.490384 294.144 
L 90.477752 291.456 
L 90.638005 288.768 
L 90.975374 286.08 
L 91.498808 283.392 
L 92.222569 280.704 
L 92.229818 280.682822 
L 93.301454 278.016 
L 94.666241 275.328 
L 95.115636 274.594169 
L 96.585019 272.64 
L 98.001455 271.061168 
L 99.289268 269.952 
L 100.887273 268.762699 
L 103.705605 267.264 
L 103.773091 267.23217 
L 106.658909 266.348392 
L 109.544727 265.935371 
L 112.430545 265.971624 
L 115.316364 266.459228 
L 117.732021 267.264 
L 118.202182 267.439064 
L 121.088 269.074209 
L 122.214427 269.952 
L 123.973818 271.542589 
L 124.919987 272.64 
L 126.857165 275.328 
L 126.859636 275.332121 
L 128.18721 278.016 
L 129.238979 280.704 
L 129.745455 282.380681 
L 130.008414 283.392 
L 130.520459 286.08 
L 130.850435 288.768 
L 131.007151 291.456 
L 130.994767 294.144 
L 130.813064 296.832 
L 130.457436 299.52 
L 129.918596 302.208 
L 129.745455 302.850067 
L 129.1044 304.896 
L 128.0176 307.584 
" style="fill:none;stroke:#00e38e;stroke-width:1.5;"/>
    <path clip-path="url(#p5344e601fd)" d="M 272.8784 307.584 
L 271.7916 304.896 
L 271.150545 302.850067 
L 270.977404 302.208 
L 270.438564 299.52 
L 270.082936 296.832 
L 269.901233 294.144 
L 269.888849 291.456 
L 270.045565 288.768 
L 270.375541 286.08 
L 270.887586 283.392 
L 271.150545 282.380681 
L 271.657021 280.704 
L 272.70879 278.016 
L 274.036364 275.332121 
L 274.038835 275.328 
L 275.976013 272.64 
L 276.922182 271.542589 
L 278.681573 269.952 
L 279.808 269.074209 
L 282.693818 267.439064 
L 283.163979 267.264 
L 285.579636 266.459228 
L 288.465455 265.971624 
L 291.351273 265.935371 
L 294.237091 266.348392 
L 297.122909 267.23217 
L 297.190395 267.264 
L 300.008727 268.762699 
L 301.606732 269.952 
L 302.894545 271.061168 
L 304.310981 272.64 
L 305.780364 274.594169 
L 306.229759 275.328 
L 307.594546 278.016 
L 308.666182 280.682822 
L 308.673431 280.704 
L 309.397192 283.392 
L 309.920626 286.08 
L 310.257995 288.768 
L 310.418248 291.456 
L 310.405616 294.144 
L 310.219875 296.832 
L 309.856345 299.52 
L 309.30559 302.208 
L 308.666182 304.498322 
L 308.536562 304.896 
L 307.420772 307.584 
" style="fill:none;stroke:#00e38e;stroke-width:1.5;"/>
    <path clip-path="url(#p5344e601fd)" d="M 128.0176 41.472 
L 129.1044 44.16 
L 129.745455 46.205933 
L 129.918596 46.848 
L 130.457436 49.536 
L 130.813064 52.224 
L 130.994767 54.912 
L 131.007151 57.6 
L 130.850435 60.288 
L 130.520459 62.976 
L 130.008414 65.664 
L 129.745455 66.675319 
L 129.238979 68.352 
L 128.18721 71.04 
L 126.859636 73.723879 
L 126.857165 73.728 
L 124.919987 76.416 
L 123.973818 77.513411 
L 122.214427 79.104 
L 121.088 79.981791 
L 118.202182 81.616936 
L 117.732021 81.792 
L 115.316364 82.596772 
L 112.430545 83.084376 
L 109.544727 83.120629 
L 106.658909 82.707608 
L 103.773091 81.82383 
L 103.705605 81.792 
L 100.887273 80.293301 
L 99.289268 79.104 
L 98.001455 77.994832 
L 96.585019 76.416 
L 95.115636 74.461831 
L 94.666241 73.728 
L 93.301454 71.04 
L 92.229818 68.373178 
L 92.222569 68.352 
L 91.498808 65.664 
L 90.975374 62.976 
L 90.638005 60.288 
L 90.477752 57.6 
L 90.490384 54.912 
L 90.676125 52.224 
L 91.039655 49.536 
L 91.59041 46.848 
L 92.229818 44.557678 
L 92.359438 44.16 
L 93.475228 41.472 
" style="fill:none;stroke:#00e38e;stroke-width:1.5;"/>
    <path clip-path="url(#p5344e601fd)" d="M 307.420772 41.472 
L 308.536562 44.16 
L 308.666182 44.557678 
L 309.30559 46.848 
L 309.856345 49.536 
L 310.219875 52.224 
L 310.405616 54.912 
L 310.418248 57.6 
L 310.257995 60.288 
L 309.920626 62.976 
L 309.397192 65.664 
L 308.673431 68.352 
L 308.666182 68.373178 
L 307.594546 71.04 
L 306.229759 73.728 
L 305.780364 74.461831 
L 304.310981 76.416 
L 302.894545 77.994832 
L 301.606732 79.104 
L 300.008727 80.293301 
L 297.190395 81.792 
L 297.122909 81.82383 
L 294.237091 82.707608 
L 291.351273 83.120629 
L 288.465455 83.084376 
L 285.579636 82.596772 
L 283.163979 81.792 
L 282.693818 81.616936 
L 279.808 79.981791 
L 278.681573 79.104 
L 276.922182 77.513411 
L 275.976013 76.416 
L 274.038835 73.728 
L 274.036364 73.723879 
L 272.70879 71.04 
L 271.657021 68.352 
L 271.150545 66.675319 
L 270.887586 65.664 
L 270.375541 62.976 
L 270.045565 60.288 
L 269.888849 57.6 
L 269.901233 54.912 
L 270.082936 52.224 
L 270.438564 49.536 
L 270.977404 46.848 
L 271.150545 46.205933 
L 271.7916 44.16 
L 272.8784 41.472 
" style="fill:none;stroke:#00e38e;stroke-width:1.5;"/>
    <path clip-path="url(#p5344e601fd)" d="M 193.233455 200.274773 
L 192.796292 200.064 
L 190.347636 198.732512 
L 188.55268 197.376 
L 187.461818 196.421853 
L 185.923485 194.688 
L 184.576 192.876294 
L 184.043582 192 
L 182.690485 189.312 
L 181.690182 186.81012 
L 181.626645 186.624 
L 180.903559 183.936 
L 180.377562 181.248 
L 180.034376 178.56 
L 179.864971 175.872 
L 179.864971 173.184 
L 180.034376 170.496 
L 180.377562 167.808 
L 180.903559 165.12 
L 181.626645 162.432 
L 181.690182 162.24588 
L 182.690485 159.744 
L 184.043582 157.056 
L 184.576 156.179706 
L 185.923485 154.368 
L 187.461818 152.634147 
L 188.55268 151.68 
L 190.347636 150.323488 
L 192.796292 148.992 
L 193.233455 148.781227 
L 196.119273 147.869164 
L 199.005091 147.424754 
L 201.890909 147.424754 
L 204.776727 147.869164 
L 207.662545 148.781227 
L 208.099708 148.992 
L 210.548364 150.323488 
L 212.34332 151.68 
L 213.434182 152.634147 
L 214.972515 154.368 
L 216.32 156.179706 
L 216.852418 157.056 
L 218.205515 159.744 
L 219.205818 162.24588 
L 219.269355 162.432 
L 219.992441 165.12 
L 220.518438 167.808 
L 220.861624 170.496 
L 221.031029 173.184 
L 221.031029 175.872 
L 220.861624 178.56 
L 220.518438 181.248 
L 219.992441 183.936 
L 219.269355 186.624 
L 219.205818 186.81012 
L 218.205515 189.312 
L 216.852418 192 
L 216.32 192.876294 
L 214.972515 194.688 
L 213.434182 196.421853 
L 212.34332 197.376 
L 210.548364 198.732512 
L 208.099708 200.064 
L 207.662545 200.274773 
L 204.776727 201.186836 
L 201.890909 201.631246 
L 199.005091 201.631246 
L 196.119273 201.186836 
L 193.233455 200.274773 
" style="fill:none;stroke:#00e38e;stroke-width:1.5;"/>
   </g>
   <g id="LineCollection_3">
    <path clip-path="url(#p5344e601fd)" d="M 82.574108 307.584 
L 82.070683 304.896 
L 81.681914 302.208 
L 81.396879 299.52 
L 81.207933 296.832 
L 81.110194 294.144 
L 81.10122 291.456 
L 81.18086 288.768 
L 81.351244 286.08 
L 81.616923 283.392 
L 81.985167 280.704 
L 82.466465 278.016 
L 83.075293 275.328 
L 83.572364 273.537177 
L 83.850656 272.64 
L 84.84983 269.952 
L 86.074003 267.264 
L 86.458182 266.544414 
L 87.679856 264.576 
L 89.344 262.340193 
L 89.746936 261.888 
L 92.229818 259.494681 
L 92.609113 259.2 
L 95.115636 257.48457 
L 96.960553 256.512 
L 98.001455 256.017811 
L 100.887273 254.975379 
L 103.773091 254.244431 
L 106.397618 253.824 
L 106.658909 253.784673 
L 109.544727 253.576835 
L 112.430545 253.592611 
L 115.209952 253.824 
L 115.316364 253.83335 
L 118.202182 254.3319 
L 121.088 255.10567 
L 123.973818 256.200155 
L 124.60749 256.512 
L 126.859636 257.746005 
L 128.913764 259.2 
L 129.745455 259.870375 
L 131.770875 261.888 
L 132.631273 262.889487 
L 133.845507 264.576 
L 135.45601 267.264 
L 135.517091 267.382919 
L 136.665081 269.952 
L 137.647352 272.64 
L 138.402909 275.177804 
L 138.443028 275.328 
L 139.042803 278.016 
L 139.516824 280.704 
L 139.879423 283.392 
L 140.140981 286.08 
L 140.308689 288.768 
L 140.387049 291.456 
L 140.378166 294.144 
L 140.281889 296.832 
L 140.095805 299.52 
L 139.815082 302.208 
L 139.432157 304.896 
L 138.936217 307.584 
" style="fill:none;stroke:#00c79c;stroke-width:1.5;"/>
    <path clip-path="url(#p5344e601fd)" d="M 261.959783 307.584 
L 261.463843 304.896 
L 261.080918 302.208 
L 260.800195 299.52 
L 260.614111 296.832 
L 260.517834 294.144 
L 260.508951 291.456 
L 260.587311 288.768 
L 260.755019 286.08 
L 261.016577 283.392 
L 261.379176 280.704 
L 261.853197 278.016 
L 262.452972 275.328 
L 262.493091 275.177804 
L 263.248648 272.64 
L 264.230919 269.952 
L 265.378909 267.382919 
L 265.43999 267.264 
L 267.050493 264.576 
L 268.264727 262.889487 
L 269.125125 261.888 
L 271.150545 259.870375 
L 271.982236 259.2 
L 274.036364 257.746005 
L 276.28851 256.512 
L 276.922182 256.200155 
L 279.808 255.10567 
L 282.693818 254.3319 
L 285.579636 253.83335 
L 285.686048 253.824 
L 288.465455 253.592611 
L 291.351273 253.576835 
L 294.237091 253.784673 
L 294.498382 253.824 
L 297.122909 254.244431 
L 300.008727 254.975379 
L 302.894545 256.017811 
L 303.935447 256.512 
L 305.780364 257.48457 
L 308.286887 259.2 
L 308.666182 259.494681 
L 311.149064 261.888 
L 311.552 262.340193 
L 313.216144 264.576 
L 314.437818 266.544414 
L 314.821997 267.264 
L 316.04617 269.952 
L 317.045344 272.64 
L 317.323636 273.537177 
L 317.820707 275.328 
L 318.429535 278.016 
L 318.910833 280.704 
L 319.279077 283.392 
L 319.544756 286.08 
L 319.71514 288.768 
L 319.79478 291.456 
L 319.785806 294.144 
L 319.688067 296.832 
L 319.499121 299.52 
L 319.214086 302.208 
L 318.825317 304.896 
L 318.321892 307.584 
" style="fill:none;stroke:#00c79c;stroke-width:1.5;"/>
    <path clip-path="url(#p5344e601fd)" d="M 138.936217 41.472 
L 139.432157 44.16 
L 139.815082 46.848 
L 140.095805 49.536 
L 140.281889 52.224 
L 140.378166 54.912 
L 140.387049 57.6 
L 140.308689 60.288 
L 140.140981 62.976 
L 139.879423 65.664 
L 139.516824 68.352 
L 139.042803 71.04 
L 138.443028 73.728 
L 138.402909 73.878196 
L 137.647352 76.416 
L 136.665081 79.104 
L 135.517091 81.673081 
L 135.45601 81.792 
L 133.845507 84.48 
L 132.631273 86.166513 
L 131.770875 87.168 
L 129.745455 89.185625 
L 128.913764 89.856 
L 126.859636 91.309995 
L 124.60749 92.544 
L 123.973818 92.855845 
L 121.088 93.95033 
L 118.202182 94.7241 
L 115.316364 95.22265 
L 115.209952 95.232 
L 112.430545 95.463389 
L 109.544727 95.479165 
L 106.658909 95.271327 
L 106.397618 95.232 
L 103.773091 94.811569 
L 100.887273 94.080621 
L 98.001455 93.038189 
L 96.960553 92.544 
L 95.115636 91.57143 
L 92.609113 89.856 
L 92.229818 89.561319 
L 89.746936 87.168 
L 89.344 86.715807 
L 87.679856 84.48 
L 86.458182 82.511586 
L 86.074003 81.792 
L 84.84983 79.104 
L 83.850656 76.416 
L 83.572364 75.518823 
L 83.075293 73.728 
L 82.466465 71.04 
L 81.985167 68.352 
L 81.616923 65.664 
L 81.351244 62.976 
L 81.18086 60.288 
L 81.10122 57.6 
L 81.110194 54.912 
L 81.207933 52.224 
L 81.396879 49.536 
L 81.681914 46.848 
L 82.070683 44.16 
L 82.574108 41.472 
" style="fill:none;stroke:#00c79c;stroke-width:1.5;"/>
    <path clip-path="url(#p5344e601fd)" d="M 318.321892 41.472 
L 318.825317 44.16 
L 319.214086 46.848 
L 319.499121 49.536 
L 319.688067 52.224 
L 319.785806 54.912 
L 319.79478 57.6 
L 319.71514 60.288 
L 319.544756 62.976 
L 319.279077 65.664 
L 318.910833 68.352 
L 318.429535 71.04 
L 317.820707 73.728 
L 317.323636 75.518823 
L 317.045344 76.416 
L 316.04617 79.104 
L 314.821997 81.792 
L 314.437818 82.511586 
L 313.216144 84.48 
L 311.552 86.715807 
L 311.149064 87.168 
L 308.666182 89.561319 
L 308.286887 89.856 
L 305.780364 91.57143 
L 303.935447 92.544 
L 302.894545 93.038189 
L 300.008727 94.080621 
L 297.122909 94.811569 
L 294.498382 95.232 
L 294.237091 95.271327 
L 291.351273 95.479165 
L 288.465455 95.463389 
L 285.686048 95.232 
L 285.579636 95.22265 
L 282.693818 94.7241 
L 279.808 93.95033 
L 276.922182 92.855845 
L 276.28851 92.544 
L 274.036364 91.309995 
L 271.982236 89.856 
L 271.150545 89.185625 
L 269.125125 87.168 
L 268.264727 86.166513 
L 267.050493 84.48 
L 265.43999 81.792 
L 265.378909 81.673081 
L 264.230919 79.104 
L 263.248648 76.416 
L 262.493091 73.878196 
L 262.452972 73.728 
L 261.853197 71.04 
L 261.379176 68.352 
L 261.016577 65.664 
L 260.755019 62.976 
L 260.587311 60.288 
L 260.508951 57.6 
L 260.517834 54.912 
L 260.614111 52.224 
L 260.800195 49.536 
L 261.080918 46.848 
L 261.463843 44.16 
L 261.959783 41.472 
" style="fill:none;stroke:#00c79c;stroke-width:1.5;"/>
    <path clip-path="url(#p5344e601fd)" d="M 196.119273 213.65878 
L 195.122288 213.504 
L 193.233455 213.191669 
L 190.347636 212.449185 
L 187.461818 211.39509 
L 186.256107 210.816 
L 184.576 209.919319 
L 181.984787 208.128 
L 181.690182 207.896622 
L 179.164574 205.44 
L 178.804364 205.031764 
L 177.121596 202.752 
L 175.918545 200.795831 
L 175.530881 200.064 
L 174.315934 197.376 
L 173.323597 194.688 
L 173.032727 193.7444 
L 172.550973 192 
L 171.943628 189.312 
L 171.462114 186.624 
L 171.091982 183.936 
L 170.822736 181.248 
L 170.647067 178.56 
L 170.560352 175.872 
L 170.560352 173.184 
L 170.647067 170.496 
L 170.822736 167.808 
L 171.091982 165.12 
L 171.462114 162.432 
L 171.943628 159.744 
L 172.550973 157.056 
L 173.032727 155.3116 
L 173.323597 154.368 
L 174.315934 151.68 
L 175.530881 148.992 
L 175.918545 148.260169 
L 177.121596 146.304 
L 178.804364 144.024236 
L 179.164574 143.616 
L 181.690182 141.159378 
L 181.984787 140.928 
L 184.576 139.136681 
L 186.256107 138.24 
L 187.461818 137.66091 
L 190.347636 136.606815 
L 193.233455 135.864331 
L 195.122288 135.552 
L 196.119273 135.39722 
L 199.005091 135.175934 
L 201.890909 135.175934 
L 204.776727 135.39722 
L 205.773712 135.552 
L 207.662545 135.864331 
L 210.548364 136.606815 
L 213.434182 137.66091 
L 214.639893 138.24 
L 216.32 139.136681 
L 218.911213 140.928 
L 219.205818 141.159378 
L 221.731426 143.616 
L 222.091636 144.024236 
L 223.774404 146.304 
L 224.977455 148.260169 
L 225.365119 148.992 
L 226.580066 151.68 
L 227.572403 154.368 
L 227.863273 155.3116 
L 228.345027 157.056 
L 228.952372 159.744 
L 229.433886 162.432 
L 229.804018 165.12 
L 230.073264 167.808 
L 230.248933 170.496 
L 230.335648 173.184 
L 230.335648 175.872 
L 230.248933 178.56 
L 230.073264 181.248 
L 229.804018 183.936 
L 229.433886 186.624 
L 228.952372 189.312 
L 228.345027 192 
L 227.863273 193.7444 
L 227.572403 194.688 
L 226.580066 197.376 
L 225.365119 200.064 
L 224.977455 200.795831 
L 223.774404 202.752 
L 222.091636 205.031764 
L 221.731426 205.44 
L 219.205818 207.896622 
L 218.911213 208.128 
L 216.32 209.919319 
L 214.639893 210.816 
L 213.434182 211.39509 
L 210.548364 212.449185 
L 207.662545 213.191669 
L 205.773712 213.504 
L 204.776727 213.65878 
L 201.890909 213.880066 
L 199.005091 213.880066 
L 196.119273 213.65878 
" style="fill:none;stroke:#00c79c;stroke-width:1.5;"/>
   </g>
   <g id="LineCollection_4">
    <path clip-path="url(#p5344e601fd)" d="M 74.017257 307.584 
L 73.788721 304.896 
L 73.611604 302.208 
L 73.480961 299.52 
L 73.393318 296.832 
L 73.346443 294.144 
L 73.339194 291.456 
L 73.371454 288.768 
L 73.444124 286.08 
L 73.559181 283.392 
L 73.719809 280.704 
L 73.930624 278.016 
L 74.198005 275.328 
L 74.530601 272.64 
L 74.914909 270.110289 
L 74.940933 269.952 
L 75.460113 267.264 
L 76.097545 264.576 
L 76.884534 261.888 
L 77.800727 259.365252 
L 77.868876 259.2 
L 79.167857 256.512 
L 80.686545 254.05431 
L 80.854969 253.824 
L 83.215359 251.136 
L 83.572364 250.79796 
L 86.458182 248.601011 
L 86.71013 248.448 
L 89.344 247.048896 
L 92.229818 245.899472 
L 92.670027 245.76 
L 95.115636 245.053767 
L 98.001455 244.422669 
L 100.887273 243.958517 
L 103.773091 243.632261 
L 106.658909 243.42523 
L 109.544727 243.326325 
L 112.430545 243.330496 
L 115.316364 243.43809 
L 118.202182 243.654903 
L 121.088 243.992953 
L 123.973818 244.472171 
L 126.859636 245.123478 
L 129.009299 245.76 
L 129.745455 245.999896 
L 132.631273 247.191811 
L 134.931186 248.448 
L 135.517091 248.815479 
L 138.402909 251.121715 
L 138.41749 251.136 
L 140.736676 253.824 
L 141.288727 254.611751 
L 142.415798 256.512 
L 143.691214 259.2 
L 144.174545 260.435064 
L 144.676185 261.888 
L 145.449258 264.576 
L 146.075024 267.264 
L 146.584437 269.952 
L 146.999639 272.64 
L 147.060364 273.108899 
L 147.328286 275.328 
L 147.590911 278.016 
L 147.797916 280.704 
L 147.955594 283.392 
L 148.068496 286.08 
L 148.139763 288.768 
L 148.171341 291.456 
L 148.164118 294.144 
L 148.117975 296.832 
L 148.031787 299.52 
L 147.90335 302.208 
L 147.729235 304.896 
L 147.504562 307.584 
" style="fill:none;stroke:#00aaaa;stroke-width:1.5;"/>
    <path clip-path="url(#p5344e601fd)" d="M 253.391438 307.584 
L 253.166765 304.896 
L 252.99265 302.208 
L 252.864213 299.52 
L 252.778025 296.832 
L 252.731882 294.144 
L 252.724659 291.456 
L 252.756237 288.768 
L 252.827504 286.08 
L 252.940406 283.392 
L 253.098084 280.704 
L 253.305089 278.016 
L 253.567714 275.328 
L 253.835636 273.108899 
L 253.896361 272.64 
L 254.311563 269.952 
L 254.820976 267.264 
L 255.446742 264.576 
L 256.219815 261.888 
L 256.721455 260.435064 
L 257.204786 259.2 
L 258.480202 256.512 
L 259.607273 254.611751 
L 260.159324 253.824 
L 262.47851 251.136 
L 262.493091 251.121715 
L 265.378909 248.815479 
L 265.964814 248.448 
L 268.264727 247.191811 
L 271.150545 245.999896 
L 271.886701 245.76 
L 274.036364 245.123478 
L 276.922182 244.472171 
L 279.808 243.992953 
L 282.693818 243.654903 
L 285.579636 243.43809 
L 288.465455 243.330496 
L 291.351273 243.326325 
L 294.237091 243.42523 
L 297.122909 243.632261 
L 300.008727 243.958517 
L 302.894545 244.422669 
L 305.780364 245.053767 
L 308.225973 245.76 
L 308.666182 245.899472 
L 311.552 247.048896 
L 314.18587 248.448 
L 314.437818 248.601011 
L 317.323636 250.79796 
L 317.680641 251.136 
L 320.041031 253.824 
L 320.209455 254.05431 
L 321.728143 256.512 
L 323.027124 259.2 
L 323.095273 259.365252 
L 324.011466 261.888 
L 324.798455 264.576 
L 325.435887 267.264 
L 325.955067 269.952 
L 325.981091 270.110289 
L 326.365399 272.64 
L 326.697995 275.328 
L 326.965376 278.016 
L 327.176191 280.704 
L 327.336819 283.392 
L 327.451876 286.08 
L 327.524546 288.768 
L 327.556806 291.456 
L 327.549557 294.144 
L 327.502682 296.832 
L 327.415039 299.52 
L 327.284396 302.208 
L 327.107279 304.896 
L 326.878743 307.584 
" style="fill:none;stroke:#00aaaa;stroke-width:1.5;"/>
    <path clip-path="url(#p5344e601fd)" d="M 343.296 191.134371 
L 343.113194 189.312 
L 342.897176 186.624 
L 342.731155 183.936 
L 342.610402 181.248 
L 342.531624 178.56 
L 342.492739 175.872 
L 342.492739 173.184 
L 342.531624 170.496 
L 342.610402 167.808 
L 342.731155 165.12 
L 342.897176 162.432 
L 343.113194 159.744 
L 343.296 157.921629 
" style="fill:none;stroke:#00aaaa;stroke-width:1.5;"/>
    <path clip-path="url(#p5344e601fd)" d="M 57.6 157.921629 
L 57.782806 159.744 
L 57.998824 162.432 
L 58.164845 165.12 
L 58.285598 167.808 
L 58.364376 170.496 
L 58.403261 173.184 
L 58.403261 175.872 
L 58.364376 178.56 
L 58.285598 181.248 
L 58.164845 183.936 
L 57.998824 186.624 
L 57.782806 189.312 
L 57.6 191.134371 
" style="fill:none;stroke:#00aaaa;stroke-width:1.5;"/>
    <path clip-path="url(#p5344e601fd)" d="M 147.504562 41.472 
L 147.729235 44.16 
L 147.90335 46.848 
L 148.031787 49.536 
L 148.117975 52.224 
L 148.164118 54.912 
L 148.171341 57.6 
L 148.139763 60.288 
L 148.068496 62.976 
L 147.955594 65.664 
L 147.797916 68.352 
L 147.590911 71.04 
L 147.328286 73.728 
L 147.060364 75.947101 
L 146.999639 76.416 
L 146.584437 79.104 
L 146.075024 81.792 
L 145.449258 84.48 
L 144.676185 87.168 
L 144.174545 88.620936 
L 143.691214 89.856 
L 142.415798 92.544 
L 141.288727 94.444249 
L 140.736676 95.232 
L 138.41749 97.92 
L 138.402909 97.934285 
L 135.517091 100.240521 
L 134.931186 100.608 
L 132.631273 101.864189 
L 129.745455 103.056104 
L 129.009299 103.296 
L 126.859636 103.932522 
L 123.973818 104.583829 
L 121.088 105.063047 
L 118.202182 105.401097 
L 115.316364 105.61791 
L 112.430545 105.725504 
L 109.544727 105.729675 
L 106.658909 105.63077 
L 103.773091 105.423739 
L 100.887273 105.097483 
L 98.001455 104.633331 
L 95.115636 104.002233 
L 92.670027 103.296 
L 92.229818 103.156528 
L 89.344 102.007104 
L 86.71013 100.608 
L 86.458182 100.454989 
L 83.572364 98.25804 
L 83.215359 97.92 
L 80.854969 95.232 
L 80.686545 95.00169 
L 79.167857 92.544 
L 77.868876 89.856 
L 77.800727 89.690748 
L 76.884534 87.168 
L 76.097545 84.48 
L 75.460113 81.792 
L 74.940933 79.104 
L 74.914909 78.945711 
L 74.530601 76.416 
L 74.198005 73.728 
L 73.930624 71.04 
L 73.719809 68.352 
L 73.559181 65.664 
L 73.444124 62.976 
L 73.371454 60.288 
L 73.339194 57.6 
L 73.346443 54.912 
L 73.393318 52.224 
L 73.480961 49.536 
L 73.611604 46.848 
L 73.788721 44.16 
L 74.017257 41.472 
" style="fill:none;stroke:#00aaaa;stroke-width:1.5;"/>
    <path clip-path="url(#p5344e601fd)" d="M 326.878743 41.472 
L 327.107279 44.16 
L 327.284396 46.848 
L 327.415039 49.536 
L 327.502682 52.224 
L 327.549557 54.912 
L 327.556806 57.6 
L 327.524546 60.288 
L 327.451876 62.976 
L 327.336819 65.664 
L 327.176191 68.352 
L 326.965376 71.04 
L 326.697995 73.728 
L 326.365399 76.416 
L 325.981091 78.945711 
L 325.955067 79.104 
L 325.435887 81.792 
L 324.798455 84.48 
L 324.011466 87.168 
L 323.095273 89.690748 
L 323.027124 89.856 
L 321.728143 92.544 
L 320.209455 95.00169 
L 320.041031 95.232 
L 317.680641 97.92 
L 317.323636 98.25804 
L 314.437818 100.454989 
L 314.18587 100.608 
L 311.552 102.007104 
L 308.666182 103.156528 
L 308.225973 103.296 
L 305.780364 104.002233 
L 302.894545 104.633331 
L 300.008727 105.097483 
L 297.122909 105.423739 
L 294.237091 105.63077 
L 291.351273 105.729675 
L 288.465455 105.725504 
L 285.579636 105.61791 
L 282.693818 105.401097 
L 279.808 105.063047 
L 276.922182 104.583829 
L 274.036364 103.932522 
L 271.886701 103.296 
L 271.150545 103.056104 
L 268.264727 101.864189 
L 265.964814 100.608 
L 265.378909 100.240521 
L 262.493091 97.934285 
L 262.47851 97.92 
L 260.159324 95.232 
L 259.607273 94.444249 
L 258.480202 92.544 
L 257.204786 89.856 
L 256.721455 88.620936 
L 256.219815 87.168 
L 255.446742 84.48 
L 254.820976 81.792 
L 254.311563 79.104 
L 253.896361 76.416 
L 253.835636 75.947101 
L 253.567714 73.728 
L 253.305089 71.04 
L 253.098084 68.352 
L 252.940406 65.664 
L 252.827504 62.976 
L 252.756237 60.288 
L 252.724659 57.6 
L 252.731882 54.912 
L 252.778025 52.224 
L 252.864213 49.536 
L 252.99265 46.848 
L 253.166765 44.16 
L 253.391438 41.472 
" style="fill:none;stroke:#00aaaa;stroke-width:1.5;"/>
    <path clip-path="url(#p5344e601fd)" d="M 184.576 222.355947 
L 181.861126 221.568 
L 181.690182 221.513508 
L 178.804364 220.364945 
L 176.026129 218.88 
L 175.918545 218.814165 
L 173.032727 216.610907 
L 172.593938 216.192 
L 170.264798 213.504 
L 170.146909 213.341027 
L 168.602697 210.816 
L 167.321536 208.128 
L 167.261091 207.979493 
L 166.350165 205.44 
L 165.573104 202.752 
L 164.943343 200.064 
L 164.42987 197.376 
L 164.375273 197.039807 
L 164.022051 194.688 
L 163.691397 192 
L 163.424605 189.312 
L 163.213091 186.624 
L 163.050505 183.936 
L 162.932236 181.248 
L 162.855072 178.56 
L 162.816982 175.872 
L 162.816982 173.184 
L 162.855072 170.496 
L 162.932236 167.808 
L 163.050505 165.12 
L 163.213091 162.432 
L 163.424605 159.744 
L 163.691397 157.056 
L 164.022051 154.368 
L 164.375273 152.016193 
L 164.42987 151.68 
L 164.943343 148.992 
L 165.573104 146.304 
L 166.350165 143.616 
L 167.261091 141.076507 
L 167.321536 140.928 
L 168.602697 138.24 
L 170.146909 135.714973 
L 170.264798 135.552 
L 172.593938 132.864 
L 173.032727 132.445093 
L 175.918545 130.241835 
L 176.026129 130.176 
L 178.804364 128.691055 
L 181.690182 127.542492 
L 181.861126 127.488 
L 184.576 126.700053 
L 187.461818 126.070051 
L 190.347636 125.606423 
L 193.233455 125.279851 
L 196.119273 125.071451 
L 199.005091 124.969906 
L 201.890909 124.969906 
L 204.776727 125.071451 
L 207.662545 125.279851 
L 210.548364 125.606423 
L 213.434182 126.070051 
L 216.32 126.700053 
L 219.034874 127.488 
L 219.205818 127.542492 
L 222.091636 128.691055 
L 224.869871 130.176 
L 224.977455 130.241835 
L 227.863273 132.445093 
L 228.302062 132.864 
L 230.631202 135.552 
L 230.749091 135.714973 
L 232.293303 138.24 
L 233.574464 140.928 
L 233.634909 141.076507 
L 234.545835 143.616 
L 235.322896 146.304 
L 235.952657 148.992 
L 236.46613 151.68 
L 236.520727 152.016193 
L 236.873949 154.368 
L 237.204603 157.056 
L 237.471395 159.744 
L 237.682909 162.432 
L 237.845495 165.12 
L 237.963764 167.808 
L 238.040928 170.496 
L 238.079018 173.184 
L 238.079018 175.872 
L 238.040928 178.56 
L 237.963764 181.248 
L 237.845495 183.936 
L 237.682909 186.624 
L 237.471395 189.312 
L 237.204603 192 
L 236.873949 194.688 
L 236.520727 197.039807 
L 236.46613 197.376 
L 235.952657 200.064 
L 235.322896 202.752 
L 234.545835 205.44 
L 233.634909 207.979493 
L 233.574464 208.128 
L 232.293303 210.816 
L 230.749091 213.341027 
L 230.631202 213.504 
L 228.302062 216.192 
L 227.863273 216.610907 
L 224.977455 218.814165 
L 224.869871 218.88 
L 222.091636 220.364945 
L 219.205818 221.513508 
L 219.034874 221.568 
L 216.32 222.355947 
L 213.434182 222.985949 
L 210.548364 223.449577 
L 207.662545 223.776149 
L 204.776727 223.984549 
L 201.890909 224.086094 
L 199.005091 224.086094 
L 196.119273 223.984549 
L 193.233455 223.776149 
L 190.347636 223.449577 
L 187.461818 222.985949 
L 184.576 222.355947 
" style="fill:none;stroke:#00aaaa;stroke-width:1.5;"/>
   </g>
   <g id="LineCollection_5">
    <path clip-path="url(#p5344e601fd)" d="M 66.181081 307.584 
L 66.163961 304.896 
L 66.14952 302.208 
L 66.137414 299.52 
L 66.12738 296.832 
L 66.11922 294.144 
L 66.112788 291.456 
L 66.107985 288.768 
L 66.104755 286.08 
L 66.10308 283.392 
L 66.102986 280.704 
L 66.104541 278.016 
L 66.107866 275.328 
L 66.113147 272.64 
L 66.120649 269.952 
L 66.13075 267.264 
L 66.143979 264.576 
L 66.161086 261.888 
L 66.183157 259.2 
L 66.211807 256.512 
L 66.249525 253.824 
L 66.257455 253.356345 
L 66.30041 251.136 
L 66.371399 248.448 
L 66.475611 245.76 
L 66.641042 243.072 
L 66.939802 240.384 
L 67.631296 237.696 
L 69.143273 235.785811 
L 70.917297 235.008 
L 72.029091 234.748011 
L 74.914909 234.375597 
L 77.800727 234.185242 
L 80.686545 234.070544 
L 83.572364 233.99447 
L 86.458182 233.940755 
L 89.344 233.901146 
L 92.229818 233.871012 
L 95.115636 233.847564 
L 98.001455 233.829026 
L 100.887273 233.814221 
L 103.773091 233.802344 
L 106.658909 233.792836 
L 109.544727 233.785305 
L 112.430545 233.779479 
L 115.316364 233.775183 
L 118.202182 233.772319 
L 121.088 233.770861 
L 123.973818 233.770864 
L 126.859636 233.772476 
L 129.745455 233.775973 
L 132.631273 233.781827 
L 135.517091 233.79083 
L 138.402909 233.804355 
L 141.288727 233.824935 
L 144.174545 233.857724 
L 147.060364 233.914953 
L 149.946182 234.034223 
L 152.832 234.41436 
L 154.030485 235.008 
L 155.027456 237.696 
L 155.224222 240.384 
L 155.307294 243.072 
L 155.352455 245.76 
L 155.380329 248.448 
L 155.398832 251.136 
L 155.41165 253.824 
L 155.420727 256.512 
L 155.427179 259.2 
L 155.43169 261.888 
L 155.434697 264.576 
L 155.436488 267.264 
L 155.437256 269.952 
L 155.437131 272.64 
L 155.436197 275.328 
L 155.434505 278.016 
L 155.432078 280.704 
L 155.428921 283.392 
L 155.425015 286.08 
L 155.420324 288.768 
L 155.414795 291.456 
L 155.408351 294.144 
L 155.400893 296.832 
L 155.392293 299.52 
L 155.38239 302.208 
L 155.370982 304.896 
L 155.357808 307.584 
" style="fill:none;stroke:#008eb8;stroke-width:1.5;"/>
    <path clip-path="url(#p5344e601fd)" d="M 245.538192 307.584 
L 245.525018 304.896 
L 245.51361 302.208 
L 245.503707 299.52 
L 245.495107 296.832 
L 245.487649 294.144 
L 245.481205 291.456 
L 245.475676 288.768 
L 245.470985 286.08 
L 245.467079 283.392 
L 245.463922 280.704 
L 245.461495 278.016 
L 245.459803 275.328 
L 245.458869 272.64 
L 245.458744 269.952 
L 245.459512 267.264 
L 245.461303 264.576 
L 245.46431 261.888 
L 245.468821 259.2 
L 245.475273 256.512 
L 245.48435 253.824 
L 245.497168 251.136 
L 245.515671 248.448 
L 245.543545 245.76 
L 245.588706 243.072 
L 245.671778 240.384 
L 245.868544 237.696 
L 246.865515 235.008 
L 248.064 234.41436 
L 250.949818 234.034223 
L 253.835636 233.914953 
L 256.721455 233.857724 
L 259.607273 233.824935 
L 262.493091 233.804355 
L 265.378909 233.79083 
L 268.264727 233.781827 
L 271.150545 233.775973 
L 274.036364 233.772476 
L 276.922182 233.770864 
L 279.808 233.770861 
L 282.693818 233.772319 
L 285.579636 233.775183 
L 288.465455 233.779479 
L 291.351273 233.785305 
L 294.237091 233.792836 
L 297.122909 233.802344 
L 300.008727 233.814221 
L 302.894545 233.829026 
L 305.780364 233.847564 
L 308.666182 233.871012 
L 311.552 233.901146 
L 314.437818 233.940755 
L 317.323636 233.99447 
L 320.209455 234.070544 
L 323.095273 234.185242 
L 325.981091 234.375597 
L 328.866909 234.748011 
L 329.978703 235.008 
L 331.752727 235.785811 
L 333.264704 237.696 
L 333.956198 240.384 
L 334.254958 243.072 
L 334.420389 245.76 
L 334.524601 248.448 
L 334.59559 251.136 
L 334.638545 253.356345 
L 334.646475 253.824 
L 334.684193 256.512 
L 334.712843 259.2 
L 334.734914 261.888 
L 334.752021 264.576 
L 334.76525 267.264 
L 334.775351 269.952 
L 334.782853 272.64 
L 334.788134 275.328 
L 334.791459 278.016 
L 334.793014 280.704 
L 334.79292 283.392 
L 334.791245 286.08 
L 334.788015 288.768 
L 334.783212 291.456 
L 334.77678 294.144 
L 334.76862 296.832 
L 334.758586 299.52 
L 334.74648 302.208 
L 334.732039 304.896 
L 334.714919 307.584 
" style="fill:none;stroke:#008eb8;stroke-width:1.5;"/>
    <path clip-path="url(#p5344e601fd)" d="M 343.296 232.655534 
L 341.003127 232.32 
L 340.410182 232.187332 
L 337.524364 230.615534 
L 336.900932 229.632 
L 336.147216 226.944 
L 335.831109 224.256 
L 335.658172 221.568 
L 335.549721 218.88 
L 335.475808 216.192 
L 335.422552 213.504 
L 335.382643 210.816 
L 335.351868 208.128 
L 335.32763 205.44 
L 335.308247 202.752 
L 335.292581 200.064 
L 335.279839 197.376 
L 335.269457 194.688 
L 335.261019 192 
L 335.254224 189.312 
L 335.248845 186.624 
L 335.244715 183.936 
L 335.241714 181.248 
L 335.239757 178.56 
L 335.238792 175.872 
L 335.238792 173.184 
L 335.239757 170.496 
L 335.241714 167.808 
L 335.244715 165.12 
L 335.248845 162.432 
L 335.254224 159.744 
L 335.261019 157.056 
L 335.269457 154.368 
L 335.279839 151.68 
L 335.292581 148.992 
L 335.308247 146.304 
L 335.32763 143.616 
L 335.351868 140.928 
L 335.382643 138.24 
L 335.422552 135.552 
L 335.475808 132.864 
L 335.549721 130.176 
L 335.658172 127.488 
L 335.831109 124.8 
L 336.147216 122.112 
L 336.900932 119.424 
L 337.524364 118.440466 
L 340.410182 116.868668 
L 341.003127 116.736 
L 343.296 116.400466 
" style="fill:none;stroke:#008eb8;stroke-width:1.5;"/>
    <path clip-path="url(#p5344e601fd)" d="M 57.6 116.400466 
L 59.892873 116.736 
L 60.485818 116.868668 
L 63.371636 118.440466 
L 63.995068 119.424 
L 64.748784 122.112 
L 65.064891 124.8 
L 65.237828 127.488 
L 65.346279 130.176 
L 65.420192 132.864 
L 65.473448 135.552 
L 65.513357 138.24 
L 65.544132 140.928 
L 65.56837 143.616 
L 65.587753 146.304 
L 65.603419 148.992 
L 65.616161 151.68 
L 65.626543 154.368 
L 65.634981 157.056 
L 65.641776 159.744 
L 65.647155 162.432 
L 65.651285 165.12 
L 65.654286 167.808 
L 65.656243 170.496 
L 65.657208 173.184 
L 65.657208 175.872 
L 65.656243 178.56 
L 65.654286 181.248 
L 65.651285 183.936 
L 65.647155 186.624 
L 65.641776 189.312 
L 65.634981 192 
L 65.626543 194.688 
L 65.616161 197.376 
L 65.603419 200.064 
L 65.587753 202.752 
L 65.56837 205.44 
L 65.544132 208.128 
L 65.513357 210.816 
L 65.473448 213.504 
L 65.420192 216.192 
L 65.346279 218.88 
L 65.237828 221.568 
L 65.064891 224.256 
L 64.748784 226.944 
L 63.995068 229.632 
L 63.371636 230.615534 
L 60.485818 232.187332 
L 59.892873 232.32 
L 57.6 232.655534 
" style="fill:none;stroke:#008eb8;stroke-width:1.5;"/>
    <path clip-path="url(#p5344e601fd)" d="M 155.357808 41.472 
L 155.370982 44.16 
L 155.38239 46.848 
L 155.392293 49.536 
L 155.400893 52.224 
L 155.408351 54.912 
L 155.414795 57.6 
L 155.420324 60.288 
L 155.425015 62.976 
L 155.428921 65.664 
L 155.432078 68.352 
L 155.434505 71.04 
L 155.436197 73.728 
L 155.437131 76.416 
L 155.437256 79.104 
L 155.436488 81.792 
L 155.434697 84.48 
L 155.43169 87.168 
L 155.427179 89.856 
L 155.420727 92.544 
L 155.41165 95.232 
L 155.398832 97.92 
L 155.380329 100.608 
L 155.352455 103.296 
L 155.307294 105.984 
L 155.224222 108.672 
L 155.027456 111.36 
L 154.030485 114.048 
L 152.832 114.64164 
L 149.946182 115.021777 
L 147.060364 115.141047 
L 144.174545 115.198276 
L 141.288727 115.231065 
L 138.402909 115.251645 
L 135.517091 115.26517 
L 132.631273 115.274173 
L 129.745455 115.280027 
L 126.859636 115.283524 
L 123.973818 115.285136 
L 121.088 115.285139 
L 118.202182 115.283681 
L 115.316364 115.280817 
L 112.430545 115.276521 
L 109.544727 115.270695 
L 106.658909 115.263164 
L 103.773091 115.253656 
L 100.887273 115.241779 
L 98.001455 115.226974 
L 95.115636 115.208436 
L 92.229818 115.184988 
L 89.344 115.154854 
L 86.458182 115.115245 
L 83.572364 115.06153 
L 80.686545 114.985456 
L 77.800727 114.870758 
L 74.914909 114.680403 
L 72.029091 114.307989 
L 70.917297 114.048 
L 69.143273 113.270189 
L 67.631296 111.36 
L 66.939802 108.672 
L 66.641042 105.984 
L 66.475611 103.296 
L 66.371399 100.608 
L 66.30041 97.92 
L 66.257455 95.699655 
L 66.249525 95.232 
L 66.211807 92.544 
L 66.183157 89.856 
L 66.161086 87.168 
L 66.143979 84.48 
L 66.13075 81.792 
L 66.120649 79.104 
L 66.113147 76.416 
L 66.107866 73.728 
L 66.104541 71.04 
L 66.102986 68.352 
L 66.10308 65.664 
L 66.104755 62.976 
L 66.107985 60.288 
L 66.112788 57.6 
L 66.11922 54.912 
L 66.12738 52.224 
L 66.137414 49.536 
L 66.14952 46.848 
L 66.163961 44.16 
L 66.181081 41.472 
" style="fill:none;stroke:#008eb8;stroke-width:1.5;"/>
    <path clip-path="url(#p5344e601fd)" d="M 334.714919 41.472 
L 334.732039 44.16 
L 334.74648 46.848 
L 334.758586 49.536 
L 334.76862 52.224 
L 334.77678 54.912 
L 334.783212 57.6 
L 334.788015 60.288 
L 334.791245 62.976 
L 334.79292 65.664 
L 334.793014 68.352 
L 334.791459 71.04 
L 334.788134 73.728 
L 334.782853 76.416 
L 334.775351 79.104 
L 334.76525 81.792 
L 334.752021 84.48 
L 334.734914 87.168 
L 334.712843 89.856 
L 334.684193 92.544 
L 334.646475 95.232 
L 334.638545 95.699655 
L 334.59559 97.92 
L 334.524601 100.608 
L 334.420389 103.296 
L 334.254958 105.984 
L 333.956198 108.672 
L 333.264704 111.36 
L 331.752727 113.270189 
L 329.978703 114.048 
L 328.866909 114.307989 
L 325.981091 114.680403 
L 323.095273 114.870758 
L 320.209455 114.985456 
L 317.323636 115.06153 
L 314.437818 115.115245 
L 311.552 115.154854 
L 308.666182 115.184988 
L 305.780364 115.208436 
L 302.894545 115.226974 
L 300.008727 115.241779 
L 297.122909 115.253656 
L 294.237091 115.263164 
L 291.351273 115.270695 
L 288.465455 115.276521 
L 285.579636 115.280817 
L 282.693818 115.283681 
L 279.808 115.285139 
L 276.922182 115.285136 
L 274.036364 115.283524 
L 271.150545 115.280027 
L 268.264727 115.274173 
L 265.378909 115.26517 
L 262.493091 115.251645 
L 259.607273 115.231065 
L 256.721455 115.198276 
L 253.835636 115.141047 
L 250.949818 115.021777 
L 248.064 114.64164 
L 246.865515 114.048 
L 245.868544 111.36 
L 245.671778 108.672 
L 245.588706 105.984 
L 245.543545 103.296 
L 245.515671 100.608 
L 245.497168 97.92 
L 245.48435 95.232 
L 245.475273 92.544 
L 245.468821 89.856 
L 245.46431 87.168 
L 245.461303 84.48 
L 245.459512 81.792 
L 245.458744 79.104 
L 245.458869 76.416 
L 245.459803 73.728 
L 245.461495 71.04 
L 245.463922 68.352 
L 245.467079 65.664 
L 245.470985 62.976 
L 245.475676 60.288 
L 245.481205 57.6 
L 245.487649 54.912 
L 245.495107 52.224 
L 245.503707 49.536 
L 245.51361 46.848 
L 245.525018 44.16 
L 245.538192 41.472 
" style="fill:none;stroke:#008eb8;stroke-width:1.5;"/>
    <path clip-path="url(#p5344e601fd)" d="M 158.603636 233.023359 
L 157.00215 232.32 
L 156.021864 229.632 
L 155.826096 226.944 
L 155.668703 218.88 
L 155.596042 194.688 
L 155.649291 132.864 
L 155.826096 122.112 
L 156.021864 119.424 
L 157.00215 116.736 
L 158.603636 116.032641 
L 161.489455 115.721384 
L 167.261091 115.560882 
L 184.576 115.470767 
L 227.863273 115.508573 
L 236.520727 115.614368 
L 239.406545 115.721384 
L 242.292364 116.032641 
L 243.89385 116.736 
L 244.874136 119.424 
L 245.069904 122.112 
L 245.227297 130.176 
L 245.299958 154.368 
L 245.246709 216.192 
L 245.069904 226.944 
L 244.874136 229.632 
L 243.89385 232.32 
L 242.292364 233.023359 
L 239.406545 233.334616 
L 233.634909 233.495118 
L 216.32 233.585233 
L 173.032727 233.547427 
L 164.375273 233.441632 
L 161.489455 233.334616 
L 158.603636 233.023359 
L 158.603636 233.023359 
" style="fill:none;stroke:#008eb8;stroke-width:1.5;"/>
   </g>
   <g id="LineCollection_6">
    <path clip-path="url(#p5344e601fd)" d="M 58.375945 307.584 
L 58.567385 304.896 
L 58.713343 302.208 
L 58.818014 299.52 
L 58.884302 296.832 
L 58.914012 294.144 
L 58.907978 291.456 
L 58.866112 288.768 
L 58.787404 286.08 
L 58.66986 283.392 
L 58.510372 280.704 
L 58.304507 278.016 
L 58.046192 275.328 
L 57.72723 272.64 
L 57.6 271.737302 
" style="fill:none;stroke:#0071c6;stroke-width:1.5;"/>
    <path clip-path="url(#p5344e601fd)" d="M 237.697329 307.584 
L 237.895289 304.896 
L 238.046226 302.208 
L 238.154497 299.52 
L 238.223115 296.832 
L 238.253954 294.144 
L 238.247882 291.456 
L 238.20481 288.768 
L 238.123695 286.08 
L 238.00247 283.392 
L 237.837915 280.704 
L 237.625437 278.016 
L 237.358734 275.328 
L 237.029304 272.64 
L 236.625704 269.952 
L 236.520727 269.355491 
L 236.119766 267.264 
L 235.495899 264.576 
L 234.726921 261.888 
L 233.768999 259.2 
L 233.634909 258.876315 
L 232.509104 256.512 
L 230.874014 253.824 
L 230.749091 253.649233 
L 228.582086 251.136 
L 227.863273 250.450851 
L 225.22514 248.448 
L 224.977455 248.287596 
L 222.091636 246.762596 
L 219.55981 245.76 
L 219.205818 245.634407 
L 216.32 244.805689 
L 213.434182 244.184905 
L 210.548364 243.728004 
L 207.662545 243.406141 
L 204.776727 243.200732 
L 201.890909 243.10064 
L 199.005091 243.10064 
L 196.119273 243.200732 
L 193.233455 243.406141 
L 190.347636 243.728004 
L 187.461818 244.184905 
L 184.576 244.805689 
L 181.690182 245.634407 
L 181.33619 245.76 
L 178.804364 246.762596 
L 175.918545 248.287596 
L 175.67086 248.448 
L 173.032727 250.450851 
L 172.313914 251.136 
L 170.146909 253.649233 
L 170.021986 253.824 
L 168.386896 256.512 
L 167.261091 258.876315 
L 167.127001 259.2 
L 166.169079 261.888 
L 165.400101 264.576 
L 164.776234 267.264 
L 164.375273 269.355491 
L 164.270296 269.952 
L 163.866696 272.64 
L 163.537266 275.328 
L 163.270563 278.016 
L 163.058085 280.704 
L 162.89353 283.392 
L 162.772305 286.08 
L 162.69119 288.768 
L 162.648118 291.456 
L 162.642046 294.144 
L 162.672885 296.832 
L 162.741503 299.52 
L 162.849774 302.208 
L 163.000711 304.896 
L 163.198671 307.584 
" style="fill:none;stroke:#0071c6;stroke-width:1.5;"/>
    <path clip-path="url(#p5344e601fd)" d="M 343.296 271.737302 
L 343.16877 272.64 
L 342.849808 275.328 
L 342.591493 278.016 
L 342.385628 280.704 
L 342.22614 283.392 
L 342.108596 286.08 
L 342.029888 288.768 
L 341.988022 291.456 
L 341.981988 294.144 
L 342.011698 296.832 
L 342.077986 299.52 
L 342.182657 302.208 
L 342.328615 304.896 
L 342.520055 307.584 
" style="fill:none;stroke:#0071c6;stroke-width:1.5;"/>
    <path clip-path="url(#p5344e601fd)" d="M 57.6 77.318698 
L 57.72723 76.416 
L 58.046192 73.728 
L 58.304507 71.04 
L 58.510372 68.352 
L 58.66986 65.664 
L 58.787404 62.976 
L 58.866112 60.288 
L 58.907978 57.6 
L 58.914012 54.912 
L 58.884302 52.224 
L 58.818014 49.536 
L 58.713343 46.848 
L 58.567385 44.16 
L 58.375945 41.472 
" style="fill:none;stroke:#0071c6;stroke-width:1.5;"/>
    <path clip-path="url(#p5344e601fd)" d="M 163.198671 41.472 
L 163.000711 44.16 
L 162.849774 46.848 
L 162.741503 49.536 
L 162.672885 52.224 
L 162.642046 54.912 
L 162.648118 57.6 
L 162.69119 60.288 
L 162.772305 62.976 
L 162.89353 65.664 
L 163.058085 68.352 
L 163.270563 71.04 
L 163.537266 73.728 
L 163.866696 76.416 
L 164.270296 79.104 
L 164.375273 79.700509 
L 164.776234 81.792 
L 165.400101 84.48 
L 166.169079 87.168 
L 167.127001 89.856 
L 167.261091 90.179685 
L 168.386896 92.544 
L 170.021986 95.232 
L 170.146909 95.406767 
L 172.313914 97.92 
L 173.032727 98.605149 
L 175.67086 100.608 
L 175.918545 100.768404 
L 178.804364 102.293404 
L 181.33619 103.296 
L 181.690182 103.421593 
L 184.576 104.250311 
L 187.461818 104.871095 
L 190.347636 105.327996 
L 193.233455 105.649859 
L 196.119273 105.855268 
L 199.005091 105.95536 
L 201.890909 105.95536 
L 204.776727 105.855268 
L 207.662545 105.649859 
L 210.548364 105.327996 
L 213.434182 104.871095 
L 216.32 104.250311 
L 219.205818 103.421593 
L 219.55981 103.296 
L 222.091636 102.293404 
L 224.977455 100.768404 
L 225.22514 100.608 
L 227.863273 98.605149 
L 228.582086 97.92 
L 230.749091 95.406767 
L 230.874014 95.232 
L 232.509104 92.544 
L 233.634909 90.179685 
L 233.768999 89.856 
L 234.726921 87.168 
L 235.495899 84.48 
L 236.119766 81.792 
L 236.520727 79.700509 
L 236.625704 79.104 
L 237.029304 76.416 
L 237.358734 73.728 
L 237.625437 71.04 
L 237.837915 68.352 
L 238.00247 65.664 
L 238.123695 62.976 
L 238.20481 60.288 
L 238.247882 57.6 
L 238.253954 54.912 
L 238.223115 52.224 
L 238.154497 49.536 
L 238.046226 46.848 
L 237.895289 44.16 
L 237.697329 41.472 
" style="fill:none;stroke:#0071c6;stroke-width:1.5;"/>
    <path clip-path="url(#p5344e601fd)" d="M 342.520055 41.472 
L 342.328615 44.16 
L 342.182657 46.848 
L 342.077986 49.536 
L 342.011698 52.224 
L 341.981988 54.912 
L 341.988022 57.6 
L 342.029888 60.288 
L 342.108596 62.976 
L 342.22614 65.664 
L 342.385628 68.352 
L 342.591493 71.04 
L 342.849808 73.728 
L 343.16877 76.416 
L 343.296 77.318698 
" style="fill:none;stroke:#0071c6;stroke-width:1.5;"/>
    <path clip-path="url(#p5344e601fd)" d="M 109.544727 224.258353 
L 115.316364 224.125676 
L 118.202182 223.903156 
L 121.088 223.562488 
L 123.973818 223.083893 
L 126.859636 222.436826 
L 129.76366 221.568 
L 132.631273 220.397629 
L 135.517091 218.805198 
L 138.752749 216.192 
L 141.288727 213.134895 
L 142.665777 210.816 
L 144.174545 207.483317 
L 144.88288 205.44 
L 145.645861 202.752 
L 146.264327 200.064 
L 147.177005 194.688 
L 147.76477 189.312 
L 148.132874 183.936 
L 148.325197 178.56 
L 148.362683 173.184 
L 148.249259 167.808 
L 147.972888 162.432 
L 147.502287 157.056 
L 146.768677 151.68 
L 146.264327 148.992 
L 145.645861 146.304 
L 144.88288 143.616 
L 143.921331 140.928 
L 142.665777 138.24 
L 141.029921 135.552 
L 138.402909 132.520846 
L 135.398266 130.176 
L 132.631273 128.658371 
L 129.745455 127.481358 
L 126.859636 126.619174 
L 123.973818 125.972107 
L 121.088 125.493512 
L 118.202182 125.152844 
L 112.430545 124.813907 
L 106.658909 124.880701 
L 103.773091 125.067675 
L 100.887273 125.368786 
L 98.001455 125.801502 
L 95.115636 126.393134 
L 91.353534 127.488 
L 89.344 128.261241 
L 85.739463 130.176 
L 83.572364 131.78053 
L 82.41043 132.864 
L 80.148143 135.552 
L 78.521739 138.24 
L 77.288087 140.928 
L 76.339226 143.616 
L 75.57856 146.304 
L 74.914909 149.233816 
L 74.078349 154.368 
L 73.494926 159.744 
L 73.129696 165.12 
L 72.938922 170.496 
L 72.901742 175.872 
L 73.014244 181.248 
L 73.288419 186.624 
L 73.755433 192 
L 74.475013 197.376 
L 74.96235 200.064 
L 75.57856 202.752 
L 76.339226 205.44 
L 77.800727 209.338087 
L 78.521739 210.816 
L 80.686545 214.240866 
L 82.41043 216.192 
L 83.572364 217.27547 
L 86.458182 219.334814 
L 89.344 220.794759 
L 92.229818 221.870517 
L 95.115636 222.662866 
L 98.001455 223.254498 
L 100.887273 223.687214 
L 103.773091 223.988325 
L 109.544727 224.258353 
L 109.544727 224.258353 
" style="fill:none;stroke:#0071c6;stroke-width:1.5;"/>
    <path clip-path="url(#p5344e601fd)" d="M 291.351273 224.258353 
L 297.122909 223.988325 
L 300.008727 223.687214 
L 302.894545 223.254498 
L 305.780364 222.662866 
L 309.542466 221.568 
L 311.552 220.794759 
L 315.156537 218.88 
L 317.323636 217.27547 
L 318.48557 216.192 
L 320.747857 213.504 
L 322.374261 210.816 
L 323.607913 208.128 
L 324.556774 205.44 
L 325.31744 202.752 
L 325.981091 199.822184 
L 326.817651 194.688 
L 327.401074 189.312 
L 327.766304 183.936 
L 327.957078 178.56 
L 327.994258 173.184 
L 327.881756 167.808 
L 327.607581 162.432 
L 327.140567 157.056 
L 326.420987 151.68 
L 325.93365 148.992 
L 325.31744 146.304 
L 324.556774 143.616 
L 323.095273 139.717913 
L 322.374261 138.24 
L 320.209455 134.815134 
L 318.48557 132.864 
L 317.323636 131.78053 
L 314.437818 129.721186 
L 311.552 128.261241 
L 308.666182 127.185483 
L 305.780364 126.393134 
L 302.894545 125.801502 
L 300.008727 125.368786 
L 297.122909 125.067675 
L 291.351273 124.797647 
L 285.579636 124.930324 
L 282.693818 125.152844 
L 279.808 125.493512 
L 276.922182 125.972107 
L 274.036364 126.619174 
L 271.13234 127.488 
L 268.264727 128.658371 
L 265.378909 130.250802 
L 262.143251 132.864 
L 259.607273 135.921105 
L 258.230223 138.24 
L 256.721455 141.572683 
L 256.01312 143.616 
L 255.250139 146.304 
L 254.631673 148.992 
L 253.718995 154.368 
L 253.13123 159.744 
L 252.763126 165.12 
L 252.570803 170.496 
L 252.533317 175.872 
L 252.646741 181.248 
L 252.923112 186.624 
L 253.393713 192 
L 254.127323 197.376 
L 254.631673 200.064 
L 255.250139 202.752 
L 256.01312 205.44 
L 256.974669 208.128 
L 258.230223 210.816 
L 259.866079 213.504 
L 262.493091 216.535154 
L 265.497734 218.88 
L 268.264727 220.397629 
L 271.150545 221.574642 
L 274.036364 222.436826 
L 276.922182 223.083893 
L 279.808 223.562488 
L 282.693818 223.903156 
L 288.465455 224.242093 
L 291.351273 224.258353 
L 291.351273 224.258353 
" style="fill:none;stroke:#0071c6;stroke-width:1.5;"/>
   </g>
   <g id="LineCollection_7">
    <path clip-path="url(#p5344e601fd)" d="M 229.193635 307.584 
L 229.661175 304.896 
L 230.019267 302.208 
L 230.278163 299.52 
L 230.444981 296.832 
L 230.524194 294.144 
L 230.517928 291.456 
L 230.426101 288.768 
L 230.246417 286.08 
L 229.974225 283.392 
L 229.602217 280.704 
L 229.119923 278.016 
L 228.512955 275.328 
L 227.863273 272.990841 
L 227.754427 272.64 
L 226.765404 269.952 
L 225.555531 267.264 
L 224.977455 266.176319 
L 223.990076 264.576 
L 222.091636 262.010342 
L 221.983432 261.888 
L 219.21564 259.2 
L 219.205818 259.191708 
L 216.32 257.200053 
L 215.029117 256.512 
L 213.434182 255.746767 
L 210.548364 254.701515 
L 207.662545 253.965163 
L 206.80817 253.824 
L 204.776727 253.508832 
L 201.890909 253.289317 
L 199.005091 253.289317 
L 196.119273 253.508832 
L 194.08783 253.824 
L 193.233455 253.965163 
L 190.347636 254.701515 
L 187.461818 255.746767 
L 185.866883 256.512 
L 184.576 257.200053 
L 181.690182 259.191708 
L 181.68036 259.2 
L 178.912568 261.888 
L 178.804364 262.010342 
L 176.905924 264.576 
L 175.918545 266.176319 
L 175.340469 267.264 
L 174.130596 269.952 
L 173.141573 272.64 
L 173.032727 272.990841 
L 172.383045 275.328 
L 171.776077 278.016 
L 171.293783 280.704 
L 170.921775 283.392 
L 170.649583 286.08 
L 170.469899 288.768 
L 170.378072 291.456 
L 170.371806 294.144 
L 170.451019 296.832 
L 170.617837 299.52 
L 170.876733 302.208 
L 171.234825 304.896 
L 171.702365 307.584 
" style="fill:none;stroke:#0055d4;stroke-width:1.5;"/>
    <path clip-path="url(#p5344e601fd)" d="M 171.702365 41.472 
L 171.234825 44.16 
L 170.876733 46.848 
L 170.617837 49.536 
L 170.451019 52.224 
L 170.371806 54.912 
L 170.378072 57.6 
L 170.469899 60.288 
L 170.649583 62.976 
L 170.921775 65.664 
L 171.293783 68.352 
L 171.776077 71.04 
L 172.383045 73.728 
L 173.032727 76.065159 
L 173.141573 76.416 
L 174.130596 79.104 
L 175.340469 81.792 
L 175.918545 82.879681 
L 176.905924 84.48 
L 178.804364 87.045658 
L 178.912568 87.168 
L 181.68036 89.856 
L 181.690182 89.864292 
L 184.576 91.855947 
L 185.866883 92.544 
L 187.461818 93.309233 
L 190.347636 94.354485 
L 193.233455 95.090837 
L 194.08783 95.232 
L 196.119273 95.547168 
L 199.005091 95.766683 
L 201.890909 95.766683 
L 204.776727 95.547168 
L 206.80817 95.232 
L 207.662545 95.090837 
L 210.548364 94.354485 
L 213.434182 93.309233 
L 215.029117 92.544 
L 216.32 91.855947 
L 219.205818 89.864292 
L 219.21564 89.856 
L 221.983432 87.168 
L 222.091636 87.045658 
L 223.990076 84.48 
L 224.977455 82.879681 
L 225.555531 81.792 
L 226.765404 79.104 
L 227.754427 76.416 
L 227.863273 76.065159 
L 228.512955 73.728 
L 229.119923 71.04 
L 229.602217 68.352 
L 229.974225 65.664 
L 230.246417 62.976 
L 230.426101 60.288 
L 230.517928 57.6 
L 230.524194 54.912 
L 230.444981 52.224 
L 230.278163 49.536 
L 230.019267 46.848 
L 229.661175 44.16 
L 229.193635 41.472 
" style="fill:none;stroke:#0055d4;stroke-width:1.5;"/>
    <path clip-path="url(#p5344e601fd)" d="M 106.658909 213.855676 
L 109.544727 214.045885 
L 112.430545 214.016883 
L 115.316364 213.767308 
L 116.904771 213.504 
L 118.202182 213.27468 
L 121.088 212.499585 
L 123.973818 211.408255 
L 125.170661 210.816 
L 126.859636 209.885913 
L 129.336039 208.128 
L 129.745455 207.797261 
L 132.109802 205.44 
L 132.631273 204.833006 
L 134.130859 202.752 
L 135.517091 200.437399 
L 135.710126 200.064 
L 136.905624 197.376 
L 137.882223 194.688 
L 138.402909 192.951991 
L 138.659177 192 
L 139.258063 189.312 
L 139.732907 186.624 
L 140.097935 183.936 
L 140.363481 181.248 
L 140.536742 178.56 
L 140.622269 175.872 
L 140.622269 173.184 
L 140.536742 170.496 
L 140.363481 167.808 
L 140.097935 165.12 
L 139.732907 162.432 
L 139.258063 159.744 
L 138.659177 157.056 
L 138.402909 156.104009 
L 137.882223 154.368 
L 136.905624 151.68 
L 135.710126 148.992 
L 135.517091 148.618601 
L 134.130859 146.304 
L 132.631273 144.222994 
L 132.109802 143.616 
L 129.745455 141.258739 
L 129.336039 140.928 
L 126.859636 139.170087 
L 125.170661 138.24 
L 123.973818 137.647745 
L 121.088 136.556415 
L 118.202182 135.78132 
L 116.904771 135.552 
L 115.316364 135.288692 
L 112.430545 135.039117 
L 109.544727 135.010115 
L 106.658909 135.200324 
L 104.232103 135.552 
L 103.773091 135.62277 
L 100.887273 136.323502 
L 98.001455 137.327799 
L 96.046692 138.24 
L 95.115636 138.722191 
L 92.229818 140.649937 
L 91.8934 140.928 
L 89.344 143.357427 
L 89.120173 143.616 
L 87.1094 146.304 
L 86.458182 147.338887 
L 85.564255 148.992 
L 84.350321 151.68 
L 83.572364 153.768567 
L 83.374068 154.368 
L 82.623686 157.056 
L 82.01835 159.744 
L 81.538506 162.432 
L 81.169704 165.12 
L 80.90145 167.808 
L 80.726439 170.496 
L 80.686545 171.733916 
L 80.642675 173.184 
L 80.642675 175.872 
L 80.686545 177.322084 
L 80.726439 178.56 
L 80.90145 181.248 
L 81.169704 183.936 
L 81.538506 186.624 
L 82.01835 189.312 
L 82.623686 192 
L 83.374068 194.688 
L 83.572364 195.287433 
L 84.350321 197.376 
L 85.564255 200.064 
L 86.458182 201.717113 
L 87.1094 202.752 
L 89.120173 205.44 
L 89.344 205.698573 
L 91.8934 208.128 
L 92.229818 208.406063 
L 95.115636 210.333809 
L 96.046692 210.816 
L 98.001455 211.728201 
L 100.887273 212.732498 
L 103.773091 213.43323 
L 104.232103 213.504 
L 106.658909 213.855676 
" style="fill:none;stroke:#0055d4;stroke-width:1.5;"/>
    <path clip-path="url(#p5344e601fd)" d="M 285.579636 213.767308 
L 288.465455 214.016883 
L 291.351273 214.045885 
L 294.237091 213.855676 
L 296.663897 213.504 
L 297.122909 213.43323 
L 300.008727 212.732498 
L 302.894545 211.728201 
L 304.849308 210.816 
L 305.780364 210.333809 
L 308.666182 208.406063 
L 309.0026 208.128 
L 311.552 205.698573 
L 311.775827 205.44 
L 313.7866 202.752 
L 314.437818 201.717113 
L 315.331745 200.064 
L 316.545679 197.376 
L 317.323636 195.287433 
L 317.521932 194.688 
L 318.272314 192 
L 318.87765 189.312 
L 319.357494 186.624 
L 319.726296 183.936 
L 319.99455 181.248 
L 320.169561 178.56 
L 320.209455 177.322084 
L 320.253325 175.872 
L 320.253325 173.184 
L 320.209455 171.733916 
L 320.169561 170.496 
L 319.99455 167.808 
L 319.726296 165.12 
L 319.357494 162.432 
L 318.87765 159.744 
L 318.272314 157.056 
L 317.521932 154.368 
L 317.323636 153.768567 
L 316.545679 151.68 
L 315.331745 148.992 
L 314.437818 147.338887 
L 313.7866 146.304 
L 311.775827 143.616 
L 311.552 143.357427 
L 309.0026 140.928 
L 308.666182 140.649937 
L 305.780364 138.722191 
L 304.849308 138.24 
L 302.894545 137.327799 
L 300.008727 136.323502 
L 297.122909 135.62277 
L 296.663897 135.552 
L 294.237091 135.200324 
L 291.351273 135.010115 
L 288.465455 135.039117 
L 285.579636 135.288692 
L 283.991229 135.552 
L 282.693818 135.78132 
L 279.808 136.556415 
L 276.922182 137.647745 
L 275.725339 138.24 
L 274.036364 139.170087 
L 271.559961 140.928 
L 271.150545 141.258739 
L 268.786198 143.616 
L 268.264727 144.222994 
L 266.765141 146.304 
L 265.378909 148.618601 
L 265.185874 148.992 
L 263.990376 151.68 
L 263.013777 154.368 
L 262.493091 156.104009 
L 262.236823 157.056 
L 261.637937 159.744 
L 261.163093 162.432 
L 260.798065 165.12 
L 260.532519 167.808 
L 260.359258 170.496 
L 260.273731 173.184 
L 260.273731 175.872 
L 260.359258 178.56 
L 260.532519 181.248 
L 260.798065 183.936 
L 261.163093 186.624 
L 261.637937 189.312 
L 262.236823 192 
L 262.493091 192.951991 
L 263.013777 194.688 
L 263.990376 197.376 
L 265.185874 200.064 
L 265.378909 200.437399 
L 266.765141 202.752 
L 268.264727 204.833006 
L 268.786198 205.44 
L 271.150545 207.797261 
L 271.559961 208.128 
L 274.036364 209.885913 
L 275.725339 210.816 
L 276.922182 211.408255 
L 279.808 212.499585 
L 282.693818 213.27468 
L 283.991229 213.504 
L 285.579636 213.767308 
" style="fill:none;stroke:#0055d4;stroke-width:1.5;"/>
   </g>
   <g id="LineCollection_8">
    <path clip-path="url(#p5344e601fd)" d="M 218.541395 307.584 
L 219.205818 305.906489 
L 219.54751 304.896 
L 220.256471 302.208 
L 220.770314 299.52 
L 221.103111 296.832 
L 221.263733 294.144 
L 221.256434 291.456 
L 221.081129 288.768 
L 220.733389 286.08 
L 220.204163 283.392 
L 219.479186 280.704 
L 219.205818 279.908455 
L 218.444254 278.016 
L 217.092306 275.328 
L 216.32 274.061789 
L 215.258507 272.64 
L 213.434182 270.589868 
L 212.702814 269.952 
L 210.548364 268.327561 
L 208.588051 267.264 
L 207.662545 266.818598 
L 204.776727 265.91294 
L 201.890909 265.471611 
L 199.005091 265.471611 
L 196.119273 265.91294 
L 193.233455 266.818598 
L 192.307949 267.264 
L 190.347636 268.327561 
L 188.193186 269.952 
L 187.461818 270.589868 
L 185.637493 272.64 
L 184.576 274.061789 
L 183.803694 275.328 
L 182.451746 278.016 
L 181.690182 279.908455 
L 181.416814 280.704 
L 180.691837 283.392 
L 180.162611 286.08 
L 179.814871 288.768 
L 179.639566 291.456 
L 179.632267 294.144 
L 179.792889 296.832 
L 180.125686 299.52 
L 180.639529 302.208 
L 181.34849 304.896 
L 181.690182 305.906489 
L 182.354605 307.584 
" style="fill:none;stroke:#0038e3;stroke-width:1.5;"/>
    <path clip-path="url(#p5344e601fd)" d="M 182.354605 41.472 
L 181.690182 43.149511 
L 181.34849 44.16 
L 180.639529 46.848 
L 180.125686 49.536 
L 179.792889 52.224 
L 179.632267 54.912 
L 179.639566 57.6 
L 179.814871 60.288 
L 180.162611 62.976 
L 180.691837 65.664 
L 181.416814 68.352 
L 181.690182 69.147545 
L 182.451746 71.04 
L 183.803694 73.728 
L 184.576 74.994211 
L 185.637493 76.416 
L 187.461818 78.466132 
L 188.193186 79.104 
L 190.347636 80.728439 
L 192.307949 81.792 
L 193.233455 82.237402 
L 196.119273 83.14306 
L 199.005091 83.584389 
L 201.890909 83.584389 
L 204.776727 83.14306 
L 207.662545 82.237402 
L 208.588051 81.792 
L 210.548364 80.728439 
L 212.702814 79.104 
L 213.434182 78.466132 
L 215.258507 76.416 
L 216.32 74.994211 
L 217.092306 73.728 
L 218.444254 71.04 
L 219.205818 69.147545 
L 219.479186 68.352 
L 220.204163 65.664 
L 220.733389 62.976 
L 221.081129 60.288 
L 221.256434 57.6 
L 221.263733 54.912 
L 221.103111 52.224 
L 220.770314 49.536 
L 220.256471 46.848 
L 219.54751 44.16 
L 219.205818 43.149511 
L 218.541395 41.472 
" style="fill:none;stroke:#0038e3;stroke-width:1.5;"/>
    <path clip-path="url(#p5344e601fd)" d="M 103.773091 200.588685 
L 106.658909 201.439069 
L 109.544727 201.827096 
L 112.430545 201.77325 
L 115.316364 201.274934 
L 118.202182 200.306145 
L 118.68352 200.064 
L 121.088 198.698173 
L 122.780147 197.376 
L 123.973818 196.295123 
L 125.359918 194.688 
L 126.859636 192.610671 
L 127.22135 192 
L 128.545652 189.312 
L 129.595721 186.624 
L 129.745455 186.133866 
L 130.323826 183.936 
L 130.840397 181.248 
L 131.177448 178.56 
L 131.34383 175.872 
L 131.34383 173.184 
L 131.177448 170.496 
L 130.840397 167.808 
L 130.323826 165.12 
L 129.745455 162.922134 
L 129.595721 162.432 
L 128.545652 159.744 
L 127.22135 157.056 
L 126.859636 156.445329 
L 125.359918 154.368 
L 123.973818 152.760877 
L 122.780147 151.68 
L 121.088 150.357827 
L 118.68352 148.992 
L 118.202182 148.749855 
L 115.316364 147.781066 
L 112.430545 147.28275 
L 109.544727 147.228904 
L 106.658909 147.616931 
L 103.773091 148.467315 
L 102.637987 148.992 
L 100.887273 149.903666 
L 98.460141 151.68 
L 98.001455 152.068078 
L 95.906078 154.368 
L 95.115636 155.401667 
L 94.086921 157.056 
L 92.717914 159.744 
L 92.229818 160.935297 
L 91.707958 162.432 
L 90.97898 165.12 
L 90.448759 167.808 
L 90.102846 170.496 
L 89.932102 173.184 
L 89.932102 175.872 
L 90.102846 178.56 
L 90.448759 181.248 
L 90.97898 183.936 
L 91.707958 186.624 
L 92.229818 188.120703 
L 92.717914 189.312 
L 94.086921 192 
L 95.115636 193.654333 
L 95.906078 194.688 
L 98.001455 196.987922 
L 98.460141 197.376 
L 100.887273 199.152334 
L 102.637987 200.064 
L 103.773091 200.588685 
" style="fill:none;stroke:#0038e3;stroke-width:1.5;"/>
    <path clip-path="url(#p5344e601fd)" d="M 282.693818 200.306145 
L 285.579636 201.274934 
L 288.465455 201.77325 
L 291.351273 201.827096 
L 294.237091 201.439069 
L 297.122909 200.588685 
L 298.258013 200.064 
L 300.008727 199.152334 
L 302.435859 197.376 
L 302.894545 196.987922 
L 304.989922 194.688 
L 305.780364 193.654333 
L 306.809079 192 
L 308.178086 189.312 
L 308.666182 188.120703 
L 309.188042 186.624 
L 309.91702 183.936 
L 310.447241 181.248 
L 310.793154 178.56 
L 310.963898 175.872 
L 310.963898 173.184 
L 310.793154 170.496 
L 310.447241 167.808 
L 309.91702 165.12 
L 309.188042 162.432 
L 308.666182 160.935297 
L 308.178086 159.744 
L 306.809079 157.056 
L 305.780364 155.401667 
L 304.989922 154.368 
L 302.894545 152.068078 
L 302.435859 151.68 
L 300.008727 149.903666 
L 298.258013 148.992 
L 297.122909 148.467315 
L 294.237091 147.616931 
L 291.351273 147.228904 
L 288.465455 147.28275 
L 285.579636 147.781066 
L 282.693818 148.749855 
L 282.21248 148.992 
L 279.808 150.357827 
L 278.115853 151.68 
L 276.922182 152.760877 
L 275.536082 154.368 
L 274.036364 156.445329 
L 273.67465 157.056 
L 272.350348 159.744 
L 271.300279 162.432 
L 271.150545 162.922134 
L 270.572174 165.12 
L 270.055603 167.808 
L 269.718552 170.496 
L 269.55217 173.184 
L 269.55217 175.872 
L 269.718552 178.56 
L 270.055603 181.248 
L 270.572174 183.936 
L 271.150545 186.133866 
L 271.300279 186.624 
L 272.350348 189.312 
L 273.67465 192 
L 274.036364 192.610671 
L 275.536082 194.688 
L 276.922182 196.295123 
L 278.115853 197.376 
L 279.808 198.698173 
L 282.21248 200.064 
L 282.693818 200.306145 
" style="fill:none;stroke:#0038e3;stroke-width:1.5;"/>
   </g>
   <g id="LineCollection_9">
    <path clip-path="url(#p5344e601fd)" d="M 199.005091 295.831223 
L 201.890909 295.831223 
L 202.770579 294.144 
L 202.729161 291.456 
L 201.890909 289.937807 
L 199.005091 289.937807 
L 198.166839 291.456 
L 198.125421 294.144 
L 199.005091 295.831223 
" style="fill:none;stroke:#001cf1;stroke-width:1.5;"/>
    <path clip-path="url(#p5344e601fd)" d="M 109.544727 176.445644 
L 112.165527 175.872 
L 112.165527 173.184 
L 109.544727 172.610356 
L 109.19583 173.184 
L 109.19583 175.872 
L 109.544727 176.445644 
" style="fill:none;stroke:#001cf1;stroke-width:1.5;"/>
    <path clip-path="url(#p5344e601fd)" d="M 291.351273 176.445644 
L 291.70017 175.872 
L 291.70017 173.184 
L 291.351273 172.610356 
L 288.730473 173.184 
L 288.730473 175.872 
L 291.351273 176.445644 
" style="fill:none;stroke:#001cf1;stroke-width:1.5;"/>
    <path clip-path="url(#p5344e601fd)" d="M 199.005091 59.118193 
L 201.890909 59.118193 
L 202.729161 57.6 
L 202.770579 54.912 
L 201.890909 53.224777 
L 199.005091 53.224777 
L 198.125421 54.912 
L 198.166839 57.6 
L 199.005091 59.118193 
" style="fill:none;stroke:#001cf1;stroke-width:1.5;"/>
   </g>
   <g id="LineCollection_10"/>
   <g id="patch_3">
    <path d="M 57.6 307.584 
L 57.6 41.472 
" style="fill:none;stroke:#000000;stroke-linecap:square;stroke-linejoin:miter;stroke-width:0.8;"/>
   </g>
   <g id="patch_4">
    <path d="M 343.296 307.584 
L 343.296 41.472 
" style="fill:none;stroke:#000000;stroke-linecap:square;stroke-linejoin:miter;stroke-width:0.8;"/>
   </g>
   <g id="patch_5">
    <path d="M 57.6 307.584 
L 343.296 307.584 
" style="fill:none;stroke:#000000;stroke-linecap:square;stroke-linejoin:miter;stroke-width:0.8;"/>
   </g>
   <g id="patch_6">
    <path d="M 57.6 41.472 
L 343.296 41.472 
" style="fill:none;stroke:#000000;stroke-linecap:square;stroke-linejoin:miter;stroke-width:0.8;"/>
   </g>
  </g>
  <g id="axes_2">
   <g id="patch_7">
    <path clip-path="url(#p3f46be4b41)" d="M 361.152 307.584 
L 361.152 278.016 
L 361.152 71.04 
L 361.152 41.472 
L 374.4576 41.472 
L 374.4576 71.04 
L 374.4576 278.016 
L 374.4576 307.584 
z
" style="fill:#ffffff;stroke:#ffffff;stroke-linejoin:miter;stroke-width:0.01;"/>
   </g>
   <g id="matplotlib.axis_3"/>
   <g id="matplotlib.axis_4">
    <g id="ytick_6">
     <g id="line2d_11">
      <defs>
       <path d="M 0 0 
L 3.5 0 
" id="m6fbfff35df" style="stroke:#000000;stroke-width:0.8;"/>
      </defs>
      <g>
       <use style="stroke:#000000;stroke-width:0.8;" x="374.4576" xlink:href="#m6fbfff35df" y="307.584"/>
      </g>
     </g>
     <g id="text_11">
      <!-- 0.00 -->
      <defs>
       <path d="M 10.6875 12.40625 
L 21 12.40625 
L 21 0 
L 10.6875 0 
z
" id="DejaVuSans-46"/>
      </defs>
      <g transform="translate(381.4576 311.383219)scale(0.1 -0.1)">
       <use xlink:href="#DejaVuSans-48"/>
       <use x="63.623047" xlink:href="#DejaVuSans-46"/>
       <use x="95.410156" xlink:href="#DejaVuSans-48"/>
       <use x="159.033203" xlink:href="#DejaVuSans-48"/>
      </g>
     </g>
    </g>
    <g id="ytick_7">
     <g id="line2d_12">
      <g>
       <use style="stroke:#000000;stroke-width:0.8;" x="374.4576" xlink:href="#m6fbfff35df" y="278.016"/>
      </g>
     </g>
     <g id="text_12">
      <!-- 0.25 -->
      <defs>
       <path d="M 10.796875 72.90625 
L 49.515625 72.90625 
L 49.515625 64.59375 
L 19.828125 64.59375 
L 19.828125 46.734375 
Q 21.96875 47.46875 24.109375 47.828125 
Q 26.265625 48.1875 28.421875 48.1875 
Q 40.625 48.1875 47.75 41.5 
Q 54.890625 34.8125 54.890625 23.390625 
Q 54.890625 11.625 47.5625 5.09375 
Q 40.234375 -1.421875 26.90625 -1.421875 
Q 22.3125 -1.421875 17.546875 -0.640625 
Q 12.796875 0.140625 7.71875 1.703125 
L 7.71875 11.625 
Q 12.109375 9.234375 16.796875 8.0625 
Q 21.484375 6.890625 26.703125 6.890625 
Q 35.15625 6.890625 40.078125 11.328125 
Q 45.015625 15.765625 45.015625 23.390625 
Q 45.015625 31 40.078125 35.4375 
Q 35.15625 39.890625 26.703125 39.890625 
Q 22.75 39.890625 18.8125 39.015625 
Q 14.890625 38.140625 10.796875 36.28125 
z
" id="DejaVuSans-53"/>
      </defs>
      <g transform="translate(381.4576 281.815219)scale(0.1 -0.1)">
       <use xlink:href="#DejaVuSans-48"/>
       <use x="63.623047" xlink:href="#DejaVuSans-46"/>
       <use x="95.410156" xlink:href="#DejaVuSans-50"/>
       <use x="159.033203" xlink:href="#DejaVuSans-53"/>
      </g>
     </g>
    </g>
    <g id="ytick_8">
     <g id="line2d_13">
      <g>
       <use style="stroke:#000000;stroke-width:0.8;" x="374.4576" xlink:href="#m6fbfff35df" y="248.448"/>
      </g>
     </g>
     <g id="text_13">
      <!-- 0.50 -->
      <g transform="translate(381.4576 252.247219)scale(0.1 -0.1)">
       <use xlink:href="#DejaVuSans-48"/>
       <use x="63.623047" xlink:href="#DejaVuSans-46"/>
       <use x="95.410156" xlink:href="#DejaVuSans-53"/>
       <use x="159.033203" xlink:href="#DejaVuSans-48"/>
      </g>
     </g>
    </g>
    <g id="ytick_9">
     <g id="line2d_14">
      <g>
       <use style="stroke:#000000;stroke-width:0.8;" x="374.4576" xlink:href="#m6fbfff35df" y="218.88"/>
      </g>
     </g>
     <g id="text_14">
      <!-- 0.75 -->
      <defs>
       <path d="M 8.203125 72.90625 
L 55.078125 72.90625 
L 55.078125 68.703125 
L 28.609375 0 
L 18.3125 0 
L 43.21875 64.59375 
L 8.203125 64.59375 
z
" id="DejaVuSans-55"/>
      </defs>
      <g transform="translate(381.4576 222.679219)scale(0.1 -0.1)">
       <use xlink:href="#DejaVuSans-48"/>
       <use x="63.623047" xlink:href="#DejaVuSans-46"/>
       <use x="95.410156" xlink:href="#DejaVuSans-55"/>
       <use x="159.033203" xlink:href="#DejaVuSans-53"/>
      </g>
     </g>
    </g>
    <g id="ytick_10">
     <g id="line2d_15">
      <g>
       <use style="stroke:#000000;stroke-width:0.8;" x="374.4576" xlink:href="#m6fbfff35df" y="189.312"/>
      </g>
     </g>
     <g id="text_15">
      <!-- 1.00 -->
      <defs>
       <path d="M 12.40625 8.296875 
L 28.515625 8.296875 
L 28.515625 63.921875 
L 10.984375 60.40625 
L 10.984375 69.390625 
L 28.421875 72.90625 
L 38.28125 72.90625 
L 38.28125 8.296875 
L 54.390625 8.296875 
L 54.390625 0 
L 12.40625 0 
z
" id="DejaVuSans-49"/>
      </defs>
      <g transform="translate(381.4576 193.111219)scale(0.1 -0.1)">
       <use xlink:href="#DejaVuSans-49"/>
       <use x="63.623047" xlink:href="#DejaVuSans-46"/>
       <use x="95.410156" xlink:href="#DejaVuSans-48"/>
       <use x="159.033203" xlink:href="#DejaVuSans-48"/>
      </g>
     </g>
    </g>
    <g id="ytick_11">
     <g id="line2d_16">
      <g>
       <use style="stroke:#000000;stroke-width:0.8;" x="374.4576" xlink:href="#m6fbfff35df" y="159.744"/>
      </g>
     </g>
     <g id="text_16">
      <!-- 1.25 -->
      <g transform="translate(381.4576 163.543219)scale(0.1 -0.1)">
       <use xlink:href="#DejaVuSans-49"/>
       <use x="63.623047" xlink:href="#DejaVuSans-46"/>
       <use x="95.410156" xlink:href="#DejaVuSans-50"/>
       <use x="159.033203" xlink:href="#DejaVuSans-53"/>
      </g>
     </g>
    </g>
    <g id="ytick_12">
     <g id="line2d_17">
      <g>
       <use style="stroke:#000000;stroke-width:0.8;" x="374.4576" xlink:href="#m6fbfff35df" y="130.176"/>
      </g>
     </g>
     <g id="text_17">
      <!-- 1.50 -->
      <g transform="translate(381.4576 133.975219)scale(0.1 -0.1)">
       <use xlink:href="#DejaVuSans-49"/>
       <use x="63.623047" xlink:href="#DejaVuSans-46"/>
       <use x="95.410156" xlink:href="#DejaVuSans-53"/>
       <use x="159.033203" xlink:href="#DejaVuSans-48"/>
      </g>
     </g>
    </g>
    <g id="ytick_13">
     <g id="line2d_18">
      <g>
       <use style="stroke:#000000;stroke-width:0.8;" x="374.4576" xlink:href="#m6fbfff35df" y="100.608"/>
      </g>
     </g>
     <g id="text_18">
      <!-- 1.75 -->
      <g transform="translate(381.4576 104.407219)scale(0.1 -0.1)">
       <use xlink:href="#DejaVuSans-49"/>
       <use x="63.623047" xlink:href="#DejaVuSans-46"/>
       <use x="95.410156" xlink:href="#DejaVuSans-55"/>
       <use x="159.033203" xlink:href="#DejaVuSans-53"/>
      </g>
     </g>
    </g>
    <g id="ytick_14">
     <g id="line2d_19">
      <g>
       <use style="stroke:#000000;stroke-width:0.8;" x="374.4576" xlink:href="#m6fbfff35df" y="71.04"/>
      </g>
     </g>
     <g id="text_19">
      <!-- 2.00 -->
      <g transform="translate(381.4576 74.839219)scale(0.1 -0.1)">
       <use xlink:href="#DejaVuSans-50"/>
       <use x="63.623047" xlink:href="#DejaVuSans-46"/>
       <use x="95.410156" xlink:href="#DejaVuSans-48"/>
       <use x="159.033203" xlink:href="#DejaVuSans-48"/>
      </g>
     </g>
    </g>
    <g id="ytick_15">
     <g id="line2d_20">
      <g>
       <use style="stroke:#000000;stroke-width:0.8;" x="374.4576" xlink:href="#m6fbfff35df" y="41.472"/>
      </g>
     </g>
     <g id="text_20">
      <!-- 2.25 -->
      <g transform="translate(381.4576 45.271219)scale(0.1 -0.1)">
       <use xlink:href="#DejaVuSans-50"/>
       <use x="63.623047" xlink:href="#DejaVuSans-46"/>
       <use x="95.410156" xlink:href="#DejaVuSans-50"/>
       <use x="159.033203" xlink:href="#DejaVuSans-53"/>
      </g>
     </g>
    </g>
   </g>
   <g id="LineCollection_11">
    <path clip-path="url(#p3f46be4b41)" d="M 361.152 307.584 
L 374.4576 307.584 
" style="fill:none;stroke:#00ff80;stroke-width:1.5;"/>
    <path clip-path="url(#p3f46be4b41)" d="M 361.152 278.016 
L 374.4576 278.016 
" style="fill:none;stroke:#00e38e;stroke-width:1.5;"/>
    <path clip-path="url(#p3f46be4b41)" d="M 361.152 248.448 
L 374.4576 248.448 
" style="fill:none;stroke:#00c79c;stroke-width:1.5;"/>
    <path clip-path="url(#p3f46be4b41)" d="M 361.152 218.88 
L 374.4576 218.88 
" style="fill:none;stroke:#00aaaa;stroke-width:1.5;"/>
    <path clip-path="url(#p3f46be4b41)" d="M 361.152 189.312 
L 374.4576 189.312 
" style="fill:none;stroke:#008eb8;stroke-width:1.5;"/>
    <path clip-path="url(#p3f46be4b41)" d="M 361.152 159.744 
L 374.4576 159.744 
" style="fill:none;stroke:#0071c6;stroke-width:1.5;"/>
    <path clip-path="url(#p3f46be4b41)" d="M 361.152 130.176 
L 374.4576 130.176 
" style="fill:none;stroke:#0055d4;stroke-width:1.5;"/>
    <path clip-path="url(#p3f46be4b41)" d="M 361.152 100.608 
L 374.4576 100.608 
" style="fill:none;stroke:#0038e3;stroke-width:1.5;"/>
    <path clip-path="url(#p3f46be4b41)" d="M 361.152 71.04 
L 374.4576 71.04 
" style="fill:none;stroke:#001cf1;stroke-width:1.5;"/>
    <path clip-path="url(#p3f46be4b41)" d="M 361.152 41.472 
L 374.4576 41.472 
" style="fill:none;stroke:#0000ff;stroke-width:1.5;"/>
   </g>
   <g id="patch_8">
    <path d="M 361.152 307.584 
L 361.152 278.016 
L 361.152 71.04 
L 361.152 41.472 
L 374.4576 41.472 
L 374.4576 71.04 
L 374.4576 278.016 
L 374.4576 307.584 
z
" style="fill:none;stroke:#000000;stroke-linejoin:miter;stroke-width:0.8;"/>
   </g>
  </g>
 </g>
 <defs>
  <clipPath id="p5344e601fd">
   <rect height="266.112" width="285.696" x="57.6" y="41.472"/>
  </clipPath>
  <clipPath id="p3f46be4b41">
   <rect height="266.112" width="13.3056" x="361.152" y="41.472"/>
  </clipPath>
 </defs>
</svg>
