<?xml version="1.0" encoding="utf-8" standalone="no"?>
<!DOCTYPE svg PUBLIC "-//W3C//DTD SVG 1.1//EN"
  "http://www.w3.org/Graphics/SVG/1.1/DTD/svg11.dtd">
<!-- Created with matplotlib (https://matplotlib.org/) -->
<svg height="345.6pt" version="1.1" viewBox="0 0 460.8 345.6" width="460.8pt" xmlns="http://www.w3.org/2000/svg" xmlns:xlink="http://www.w3.org/1999/xlink">
 <defs>
  <style type="text/css">
*{stroke-linecap:butt;stroke-linejoin:round;}
  </style>
 </defs>
 <g id="figure_1">
  <g id="patch_1">
   <path d="M 0 345.6 
L 460.8 345.6 
L 460.8 0 
L 0 0 
z
" style="fill:#ffffff;"/>
  </g>
  <g id="axes_1">
   <g id="patch_2">
    <path d="M 57.6 307.584 
L 343.296 307.584 
L 343.296 41.472 
L 57.6 41.472 
z
" style="fill:#ffffff;"/>
   </g>
   <g id="matplotlib.axis_1">
    <g id="xtick_1">
     <g id="line2d_1">
      <defs>
       <path d="M 0 0 
L 0 3.5 
" id="m9473cbef99" style="stroke:#000000;stroke-width:0.8;"/>
      </defs>
      <g>
       <use style="stroke:#000000;stroke-width:0.8;" x="57.6" xlink:href="#m9473cbef99" y="307.584"/>
      </g>
     </g>
     <g id="text_1">
      <!-- −2.0 -->
      <defs>
       <path d="M 10.59375 35.5 
L 73.1875 35.5 
L 73.1875 27.203125 
L 10.59375 27.203125 
z
" id="DejaVuSans-8722"/>
       <path d="M 19.1875 8.296875 
L 53.609375 8.296875 
L 53.609375 0 
L 7.328125 0 
L 7.328125 8.296875 
Q 12.9375 14.109375 22.625 23.890625 
Q 32.328125 33.6875 34.8125 36.53125 
Q 39.546875 41.84375 41.421875 45.53125 
Q 43.3125 49.21875 43.3125 52.78125 
Q 43.3125 58.59375 39.234375 62.25 
Q 35.15625 65.921875 28.609375 65.921875 
Q 23.96875 65.921875 18.8125 64.3125 
Q 13.671875 62.703125 7.8125 59.421875 
L 7.8125 69.390625 
Q 13.765625 71.78125 18.9375 73 
Q 24.125 74.21875 28.421875 74.21875 
Q 39.75 74.21875 46.484375 68.546875 
Q 53.21875 62.890625 53.21875 53.421875 
Q 53.21875 48.921875 51.53125 44.890625 
Q 49.859375 40.875 45.40625 35.40625 
Q 44.1875 33.984375 37.640625 27.21875 
Q 31.109375 20.453125 19.1875 8.296875 
z
" id="DejaVuSans-50"/>
       <path d="M 10.6875 12.40625 
L 21 12.40625 
L 21 0 
L 10.6875 0 
z
" id="DejaVuSans-46"/>
       <path d="M 31.78125 66.40625 
Q 24.171875 66.40625 20.328125 58.90625 
Q 16.5 51.421875 16.5 36.375 
Q 16.5 21.390625 20.328125 13.890625 
Q 24.171875 6.390625 31.78125 6.390625 
Q 39.453125 6.390625 43.28125 13.890625 
Q 47.125 21.390625 47.125 36.375 
Q 47.125 51.421875 43.28125 58.90625 
Q 39.453125 66.40625 31.78125 66.40625 
z
M 31.78125 74.21875 
Q 44.046875 74.21875 50.515625 64.515625 
Q 56.984375 54.828125 56.984375 36.375 
Q 56.984375 17.96875 50.515625 8.265625 
Q 44.046875 -1.421875 31.78125 -1.421875 
Q 19.53125 -1.421875 13.0625 8.265625 
Q 6.59375 17.96875 6.59375 36.375 
Q 6.59375 54.828125 13.0625 64.515625 
Q 19.53125 74.21875 31.78125 74.21875 
z
" id="DejaVuSans-48"/>
      </defs>
      <g transform="translate(45.458594 322.182437)scale(0.1 -0.1)">
       <use xlink:href="#DejaVuSans-8722"/>
       <use x="83.789062" xlink:href="#DejaVuSans-50"/>
       <use x="147.412109" xlink:href="#DejaVuSans-46"/>
       <use x="179.199219" xlink:href="#DejaVuSans-48"/>
      </g>
     </g>
    </g>
    <g id="xtick_2">
     <g id="line2d_2">
      <g>
       <use style="stroke:#000000;stroke-width:0.8;" x="93.312" xlink:href="#m9473cbef99" y="307.584"/>
      </g>
     </g>
     <g id="text_2">
      <!-- −1.5 -->
      <defs>
       <path d="M 12.40625 8.296875 
L 28.515625 8.296875 
L 28.515625 63.921875 
L 10.984375 60.40625 
L 10.984375 69.390625 
L 28.421875 72.90625 
L 38.28125 72.90625 
L 38.28125 8.296875 
L 54.390625 8.296875 
L 54.390625 0 
L 12.40625 0 
z
" id="DejaVuSans-49"/>
       <path d="M 10.796875 72.90625 
L 49.515625 72.90625 
L 49.515625 64.59375 
L 19.828125 64.59375 
L 19.828125 46.734375 
Q 21.96875 47.46875 24.109375 47.828125 
Q 26.265625 48.1875 28.421875 48.1875 
Q 40.625 48.1875 47.75 41.5 
Q 54.890625 34.8125 54.890625 23.390625 
Q 54.890625 11.625 47.5625 5.09375 
Q 40.234375 -1.421875 26.90625 -1.421875 
Q 22.3125 -1.421875 17.546875 -0.640625 
Q 12.796875 0.140625 7.71875 1.703125 
L 7.71875 11.625 
Q 12.109375 9.234375 16.796875 8.0625 
Q 21.484375 6.890625 26.703125 6.890625 
Q 35.15625 6.890625 40.078125 11.328125 
Q 45.015625 15.765625 45.015625 23.390625 
Q 45.015625 31 40.078125 35.4375 
Q 35.15625 39.890625 26.703125 39.890625 
Q 22.75 39.890625 18.8125 39.015625 
Q 14.890625 38.140625 10.796875 36.28125 
z
" id="DejaVuSans-53"/>
      </defs>
      <g transform="translate(81.170594 322.182437)scale(0.1 -0.1)">
       <use xlink:href="#DejaVuSans-8722"/>
       <use x="83.789062" xlink:href="#DejaVuSans-49"/>
       <use x="147.412109" xlink:href="#DejaVuSans-46"/>
       <use x="179.199219" xlink:href="#DejaVuSans-53"/>
      </g>
     </g>
    </g>
    <g id="xtick_3">
     <g id="line2d_3">
      <g>
       <use style="stroke:#000000;stroke-width:0.8;" x="129.024" xlink:href="#m9473cbef99" y="307.584"/>
      </g>
     </g>
     <g id="text_3">
      <!-- −1.0 -->
      <g transform="translate(116.882594 322.182437)scale(0.1 -0.1)">
       <use xlink:href="#DejaVuSans-8722"/>
       <use x="83.789062" xlink:href="#DejaVuSans-49"/>
       <use x="147.412109" xlink:href="#DejaVuSans-46"/>
       <use x="179.199219" xlink:href="#DejaVuSans-48"/>
      </g>
     </g>
    </g>
    <g id="xtick_4">
     <g id="line2d_4">
      <g>
       <use style="stroke:#000000;stroke-width:0.8;" x="164.736" xlink:href="#m9473cbef99" y="307.584"/>
      </g>
     </g>
     <g id="text_4">
      <!-- −0.5 -->
      <g transform="translate(152.594594 322.182437)scale(0.1 -0.1)">
       <use xlink:href="#DejaVuSans-8722"/>
       <use x="83.789062" xlink:href="#DejaVuSans-48"/>
       <use x="147.412109" xlink:href="#DejaVuSans-46"/>
       <use x="179.199219" xlink:href="#DejaVuSans-53"/>
      </g>
     </g>
    </g>
    <g id="xtick_5">
     <g id="line2d_5">
      <g>
       <use style="stroke:#000000;stroke-width:0.8;" x="200.448" xlink:href="#m9473cbef99" y="307.584"/>
      </g>
     </g>
     <g id="text_5">
      <!-- 0.0 -->
      <g transform="translate(192.496438 322.182437)scale(0.1 -0.1)">
       <use xlink:href="#DejaVuSans-48"/>
       <use x="63.623047" xlink:href="#DejaVuSans-46"/>
       <use x="95.410156" xlink:href="#DejaVuSans-48"/>
      </g>
     </g>
    </g>
    <g id="xtick_6">
     <g id="line2d_6">
      <g>
       <use style="stroke:#000000;stroke-width:0.8;" x="236.16" xlink:href="#m9473cbef99" y="307.584"/>
      </g>
     </g>
     <g id="text_6">
      <!-- 0.5 -->
      <g transform="translate(228.208438 322.182437)scale(0.1 -0.1)">
       <use xlink:href="#DejaVuSans-48"/>
       <use x="63.623047" xlink:href="#DejaVuSans-46"/>
       <use x="95.410156" xlink:href="#DejaVuSans-53"/>
      </g>
     </g>
    </g>
    <g id="xtick_7">
     <g id="line2d_7">
      <g>
       <use style="stroke:#000000;stroke-width:0.8;" x="271.872" xlink:href="#m9473cbef99" y="307.584"/>
      </g>
     </g>
     <g id="text_7">
      <!-- 1.0 -->
      <g transform="translate(263.920437 322.182437)scale(0.1 -0.1)">
       <use xlink:href="#DejaVuSans-49"/>
       <use x="63.623047" xlink:href="#DejaVuSans-46"/>
       <use x="95.410156" xlink:href="#DejaVuSans-48"/>
      </g>
     </g>
    </g>
    <g id="xtick_8">
     <g id="line2d_8">
      <g>
       <use style="stroke:#000000;stroke-width:0.8;" x="307.584" xlink:href="#m9473cbef99" y="307.584"/>
      </g>
     </g>
     <g id="text_8">
      <!-- 1.5 -->
      <g transform="translate(299.632437 322.182437)scale(0.1 -0.1)">
       <use xlink:href="#DejaVuSans-49"/>
       <use x="63.623047" xlink:href="#DejaVuSans-46"/>
       <use x="95.410156" xlink:href="#DejaVuSans-53"/>
      </g>
     </g>
    </g>
    <g id="xtick_9">
     <g id="line2d_9">
      <g>
       <use style="stroke:#000000;stroke-width:0.8;" x="343.296" xlink:href="#m9473cbef99" y="307.584"/>
      </g>
     </g>
     <g id="text_9">
      <!-- 2.0 -->
      <g transform="translate(335.344438 322.182437)scale(0.1 -0.1)">
       <use xlink:href="#DejaVuSans-50"/>
       <use x="63.623047" xlink:href="#DejaVuSans-46"/>
       <use x="95.410156" xlink:href="#DejaVuSans-48"/>
      </g>
     </g>
    </g>
   </g>
   <g id="matplotlib.axis_2">
    <g id="ytick_1">
     <g id="line2d_10">
      <defs>
       <path d="M 0 0 
L -3.5 0 
" id="m6df993b905" style="stroke:#000000;stroke-width:0.8;"/>
      </defs>
      <g>
       <use style="stroke:#000000;stroke-width:0.8;" x="57.6" xlink:href="#m6df993b905" y="307.584"/>
      </g>
     </g>
     <g id="text_10">
      <!-- −2.0 -->
      <g transform="translate(26.317187 311.383219)scale(0.1 -0.1)">
       <use xlink:href="#DejaVuSans-8722"/>
       <use x="83.789062" xlink:href="#DejaVuSans-50"/>
       <use x="147.412109" xlink:href="#DejaVuSans-46"/>
       <use x="179.199219" xlink:href="#DejaVuSans-48"/>
      </g>
     </g>
    </g>
    <g id="ytick_2">
     <g id="line2d_11">
      <g>
       <use style="stroke:#000000;stroke-width:0.8;" x="57.6" xlink:href="#m6df993b905" y="274.32"/>
      </g>
     </g>
     <g id="text_11">
      <!-- −1.5 -->
      <g transform="translate(26.317187 278.119219)scale(0.1 -0.1)">
       <use xlink:href="#DejaVuSans-8722"/>
       <use x="83.789062" xlink:href="#DejaVuSans-49"/>
       <use x="147.412109" xlink:href="#DejaVuSans-46"/>
       <use x="179.199219" xlink:href="#DejaVuSans-53"/>
      </g>
     </g>
    </g>
    <g id="ytick_3">
     <g id="line2d_12">
      <g>
       <use style="stroke:#000000;stroke-width:0.8;" x="57.6" xlink:href="#m6df993b905" y="241.056"/>
      </g>
     </g>
     <g id="text_12">
      <!-- −1.0 -->
      <g transform="translate(26.317187 244.855219)scale(0.1 -0.1)">
       <use xlink:href="#DejaVuSans-8722"/>
       <use x="83.789062" xlink:href="#DejaVuSans-49"/>
       <use x="147.412109" xlink:href="#DejaVuSans-46"/>
       <use x="179.199219" xlink:href="#DejaVuSans-48"/>
      </g>
     </g>
    </g>
    <g id="ytick_4">
     <g id="line2d_13">
      <g>
       <use style="stroke:#000000;stroke-width:0.8;" x="57.6" xlink:href="#m6df993b905" y="207.792"/>
      </g>
     </g>
     <g id="text_13">
      <!-- −0.5 -->
      <g transform="translate(26.317187 211.591219)scale(0.1 -0.1)">
       <use xlink:href="#DejaVuSans-8722"/>
       <use x="83.789062" xlink:href="#DejaVuSans-48"/>
       <use x="147.412109" xlink:href="#DejaVuSans-46"/>
       <use x="179.199219" xlink:href="#DejaVuSans-53"/>
      </g>
     </g>
    </g>
    <g id="ytick_5">
     <g id="line2d_14">
      <g>
       <use style="stroke:#000000;stroke-width:0.8;" x="57.6" xlink:href="#m6df993b905" y="174.528"/>
      </g>
     </g>
     <g id="text_14">
      <!-- 0.0 -->
      <g transform="translate(34.696875 178.327219)scale(0.1 -0.1)">
       <use xlink:href="#DejaVuSans-48"/>
       <use x="63.623047" xlink:href="#DejaVuSans-46"/>
       <use x="95.410156" xlink:href="#DejaVuSans-48"/>
      </g>
     </g>
    </g>
    <g id="ytick_6">
     <g id="line2d_15">
      <g>
       <use style="stroke:#000000;stroke-width:0.8;" x="57.6" xlink:href="#m6df993b905" y="141.264"/>
      </g>
     </g>
     <g id="text_15">
      <!-- 0.5 -->
      <g transform="translate(34.696875 145.063219)scale(0.1 -0.1)">
       <use xlink:href="#DejaVuSans-48"/>
       <use x="63.623047" xlink:href="#DejaVuSans-46"/>
       <use x="95.410156" xlink:href="#DejaVuSans-53"/>
      </g>
     </g>
    </g>
    <g id="ytick_7">
     <g id="line2d_16">
      <g>
       <use style="stroke:#000000;stroke-width:0.8;" x="57.6" xlink:href="#m6df993b905" y="108"/>
      </g>
     </g>
     <g id="text_16">
      <!-- 1.0 -->
      <g transform="translate(34.696875 111.799219)scale(0.1 -0.1)">
       <use xlink:href="#DejaVuSans-49"/>
       <use x="63.623047" xlink:href="#DejaVuSans-46"/>
       <use x="95.410156" xlink:href="#DejaVuSans-48"/>
      </g>
     </g>
    </g>
    <g id="ytick_8">
     <g id="line2d_17">
      <g>
       <use style="stroke:#000000;stroke-width:0.8;" x="57.6" xlink:href="#m6df993b905" y="74.736"/>
      </g>
     </g>
     <g id="text_17">
      <!-- 1.5 -->
      <g transform="translate(34.696875 78.535219)scale(0.1 -0.1)">
       <use xlink:href="#DejaVuSans-49"/>
       <use x="63.623047" xlink:href="#DejaVuSans-46"/>
       <use x="95.410156" xlink:href="#DejaVuSans-53"/>
      </g>
     </g>
    </g>
    <g id="ytick_9">
     <g id="line2d_18">
      <g>
       <use style="stroke:#000000;stroke-width:0.8;" x="57.6" xlink:href="#m6df993b905" y="41.472"/>
      </g>
     </g>
     <g id="text_18">
      <!-- 2.0 -->
      <g transform="translate(34.696875 45.271219)scale(0.1 -0.1)">
       <use xlink:href="#DejaVuSans-50"/>
       <use x="63.623047" xlink:href="#DejaVuSans-46"/>
       <use x="95.410156" xlink:href="#DejaVuSans-48"/>
      </g>
     </g>
    </g>
   </g>
   <g id="LineCollection_1"/>
   <g id="LineCollection_2">
    <path clip-path="url(#p5bf8a3a7f1)" d="M 170.146909 291.533439 
L 164.375273 290.610039 
L 158.603636 289.402029 
L 152.832 287.888324 
L 147.060364 286.066951 
L 141.288727 283.897165 
L 138.402909 282.680696 
L 132.631273 279.967859 
L 126.859636 276.846862 
L 123.973818 275.128811 
L 118.202182 271.304657 
L 115.316364 269.198376 
L 112.430545 266.947084 
L 109.544727 264.535273 
L 106.599752 261.888 
L 103.773091 259.156146 
L 100.887273 256.144479 
L 96.549251 251.136 
L 94.429073 248.448 
L 92.229818 245.456722 
L 88.86303 240.384 
L 85.739815 235.008 
L 83.030022 229.632 
L 80.686545 224.219954 
L 78.745141 218.88 
L 77.120038 213.504 
L 75.823127 208.128 
L 74.831771 202.752 
L 74.159276 197.376 
L 73.782382 192 
L 73.701092 186.624 
L 73.915404 181.248 
L 74.425318 175.872 
L 75.239137 170.496 
L 76.369195 165.12 
L 77.802675 159.744 
L 79.586352 154.368 
L 81.70919 148.992 
L 84.200163 143.616 
L 87.091706 138.24 
L 90.420179 132.864 
L 92.250077 130.176 
L 96.33084 124.8 
L 98.575257 122.112 
L 100.974195 119.424 
L 103.773091 116.514078 
L 106.658909 113.728229 
L 109.544727 111.134839 
L 112.485267 108.672 
L 115.961323 105.984 
L 121.088 102.389484 
L 123.973818 100.536619 
L 129.745455 97.205443 
L 135.517091 94.295622 
L 141.288727 91.771994 
L 147.060364 89.603204 
L 152.832 87.777256 
L 158.603636 86.266688 
L 161.489455 85.625676 
L 167.261091 84.814058 
L 167.77386 84.48 
L 170.146909 84.136668 
L 172.989869 84.48 
L 170.146909 85.974168 
L 169.153738 87.168 
L 165.675672 89.856 
L 162.524954 92.544 
L 159.657446 95.232 
L 157.036606 97.92 
L 154.631918 100.608 
L 152.417699 103.296 
L 149.946182 106.605851 
L 146.808847 111.36 
L 143.804241 116.736 
L 141.288727 122.143256 
L 139.278521 127.488 
L 138.402909 130.219355 
L 137.031549 135.552 
L 136.02986 140.928 
L 135.413201 146.304 
L 135.182336 151.68 
L 135.320855 157.056 
L 135.839062 162.432 
L 136.745352 167.808 
L 138.033238 173.184 
L 138.834549 175.872 
L 140.758427 181.248 
L 141.888875 183.936 
L 144.505488 189.312 
L 147.060364 193.74059 
L 149.437728 197.376 
L 151.389091 200.064 
L 153.501391 202.752 
L 155.795394 205.44 
L 158.603636 208.428424 
L 161.489455 211.22373 
L 164.375273 213.778581 
L 167.354786 216.192 
L 171.036374 218.88 
L 175.918545 222.0416 
L 179.821496 224.256 
L 184.576 226.635743 
L 187.461818 227.907398 
L 193.233455 230.125949 
L 199.005091 231.917949 
L 201.890909 232.664331 
L 207.662545 233.863934 
L 213.434182 234.708099 
L 219.205818 235.190784 
L 224.977455 235.319808 
L 230.749091 235.104768 
L 236.520727 234.53038 
L 242.292364 233.597355 
L 248.064 232.308513 
L 253.835636 230.60841 
L 256.721455 229.620106 
L 262.493091 227.28892 
L 265.378909 225.945248 
L 268.69989 224.256 
L 274.036364 221.155485 
L 277.480107 218.88 
L 281.141321 216.192 
L 284.449647 213.504 
L 287.45376 210.816 
L 290.193774 208.128 
L 292.703051 205.44 
L 294.237091 203.677091 
L 295.518781 202.752 
L 297.122909 200.103921 
L 297.491508 202.752 
L 297.122909 204.96238 
L 296.764267 205.44 
L 295.204734 213.504 
L 293.582998 218.88 
L 291.351273 224.920826 
L 289.294274 229.632 
L 287.992742 232.32 
L 285.08025 237.696 
L 281.72823 243.072 
L 279.808 245.866667 
L 275.777645 251.136 
L 273.518458 253.824 
L 271.103196 256.512 
L 268.264727 259.440976 
L 265.378909 262.206631 
L 262.493091 264.78188 
L 259.506067 267.264 
L 256.001506 269.952 
L 250.949818 273.468206 
L 248.033007 275.328 
L 242.292364 278.617938 
L 236.520727 281.507332 
L 230.749091 284.012738 
L 224.977455 286.165247 
L 219.205818 287.971757 
L 213.434182 289.469141 
L 207.662545 290.663022 
L 201.890909 291.571298 
L 196.119273 292.183928 
L 190.347636 292.521219 
L 184.576 292.58317 
L 178.804364 292.369782 
L 173.032727 291.881055 
L 170.146909 291.533439 
L 170.146909 291.533439 
" style="fill:none;stroke:#00db92;stroke-width:1.5;"/>
   </g>
   <g id="LineCollection_3">
    <path clip-path="url(#p5bf8a3a7f1)" d="M 138.796225 307.584 
L 138.402909 307.450515 
L 135.517091 306.410098 
L 132.631273 305.308658 
L 131.606845 304.896 
L 129.745455 304.12878 
L 126.859636 302.876878 
L 125.391022 302.208 
L 123.973818 301.547187 
L 121.088 300.137665 
L 119.878273 299.52 
L 118.202182 298.643371 
L 115.316364 297.068551 
L 114.900195 296.832 
L 112.430545 295.393199 
L 110.368653 294.144 
L 109.544727 293.632041 
L 106.658909 291.770059 
L 106.189514 291.456 
L 103.773091 289.796752 
L 102.326457 288.768 
L 100.887273 287.716923 
L 98.720508 286.08 
L 98.001455 285.521709 
L 95.346827 283.392 
L 95.115636 283.201233 
L 92.229818 280.743304 
L 92.185068 280.704 
L 89.344 278.135401 
L 89.215812 278.016 
L 86.458182 275.369682 
L 86.415985 275.328 
L 83.77717 272.64 
L 83.572364 272.424657 
L 81.285923 269.952 
L 80.686545 269.282236 
L 78.929156 267.264 
L 77.800727 265.92347 
L 76.696267 264.576 
L 74.914909 262.325219 
L 74.577738 261.888 
L 72.578727 259.2 
L 72.029091 258.432553 
L 70.68796 256.512 
L 69.143273 254.211641 
L 68.889314 253.824 
L 67.198597 251.136 
L 66.257455 249.574803 
L 65.594334 248.448 
L 64.081081 245.76 
L 63.371636 244.439943 
L 62.653534 243.072 
L 61.3095 240.384 
L 60.485818 238.650205 
L 60.042791 237.696 
L 58.860293 235.008 
L 57.743308 232.32 
L 57.6 231.953645 
" style="fill:none;stroke:#00b6a4;stroke-width:1.5;"/>
    <path clip-path="url(#p5bf8a3a7f1)" d="M 57.6 143.706583 
L 58.745647 140.928 
L 61.178783 135.552 
L 63.93353 130.176 
L 67.033392 124.8 
L 70.504219 119.424 
L 74.374511 114.048 
L 77.800727 109.743254 
L 81.041769 105.984 
L 83.572364 103.240263 
L 88.931892 97.92 
L 92.229818 94.927245 
L 98.001455 90.142932 
L 101.953933 87.168 
L 106.658909 83.89944 
L 112.430545 80.273902 
L 118.202182 77.022359 
L 123.973818 74.118064 
L 129.745455 71.536764 
L 135.517091 69.25641 
L 141.288727 67.256917 
L 147.060364 65.519948 
L 152.832 64.051639 
L 158.603636 62.820703 
L 164.375273 61.841687 
L 170.146909 61.091681 
L 175.918545 60.570684 
L 181.690182 60.278891 
L 187.461818 60.217226 
L 193.233455 60.381751 
L 199.005091 60.776792 
L 204.776727 61.400843 
L 210.548364 62.253904 
L 216.32 63.343808 
L 222.091636 64.683421 
L 227.863273 66.27022 
L 234.301031 68.352 
L 239.406545 70.247208 
L 245.178182 72.663283 
L 250.949818 75.386775 
L 256.721455 78.440205 
L 259.607273 80.102328 
L 265.378909 83.709659 
L 270.374265 87.168 
L 274.036364 89.914882 
L 279.808 94.677288 
L 283.391897 97.92 
L 288.465455 102.941596 
L 291.351273 106.054678 
L 295.846343 111.36 
L 297.949942 114.048 
L 301.822748 119.424 
L 305.294989 124.8 
L 306.885333 127.488 
L 309.809255 132.864 
L 312.403136 138.24 
L 314.689003 143.616 
L 316.672803 148.992 
L 318.376379 154.368 
L 319.814578 159.744 
L 320.984692 165.12 
L 321.900532 170.496 
L 322.570509 175.872 
L 322.994623 181.248 
L 323.171255 186.624 
L 323.095273 192.213073 
L 322.791785 197.376 
L 322.232447 202.752 
L 321.427245 208.128 
L 320.209455 214.229493 
L 319.054656 218.88 
L 317.323636 224.727117 
L 315.613492 229.632 
L 313.46685 235.008 
L 311.018678 240.384 
L 308.247411 245.76 
L 305.129381 251.136 
L 301.638546 256.512 
L 297.746194 261.888 
L 294.237091 266.270458 
L 291.043225 269.952 
L 285.90682 275.328 
L 282.693818 278.399859 
L 279.808 280.992548 
L 274.036364 285.749126 
L 270.000455 288.768 
L 265.378909 291.959355 
L 259.607273 295.564345 
L 253.835636 298.797252 
L 248.064 301.684623 
L 242.292364 304.250537 
L 236.520727 306.516885 
L 233.53766 307.584 
L 233.53766 307.584 
" style="fill:none;stroke:#00b6a4;stroke-width:1.5;"/>
   </g>
   <g id="LineCollection_4">
    <path clip-path="url(#p5bf8a3a7f1)" d="M 94.701447 307.584 
L 92.229818 305.908958 
L 90.78036 304.896 
L 89.344 303.868878 
L 87.089587 302.208 
L 86.458182 301.731767 
L 83.609414 299.52 
L 83.572364 299.490533 
L 80.686545 297.129939 
L 80.332147 296.832 
L 77.800727 294.650727 
L 77.228114 294.144 
L 74.914909 292.044538 
L 74.283059 291.456 
L 72.029091 289.301361 
L 71.485073 288.768 
L 69.143273 286.410105 
L 68.823407 286.08 
L 66.28909 283.392 
L 66.257455 283.357489 
L 63.882917 280.704 
L 63.371636 280.115877 
L 61.588529 278.016 
L 60.485818 276.6781 
L 59.398313 275.328 
L 57.6 273.025797 
" style="fill:none;stroke:#0092b6;stroke-width:1.5;"/>
    <path clip-path="url(#p5bf8a3a7f1)" d="M 343.296 201.075327 
L 343.127505 202.752 
L 342.803886 205.44 
L 342.426778 208.128 
L 341.996178 210.816 
L 341.512088 213.504 
L 340.974508 216.192 
L 340.410182 218.758371 
L 340.382931 218.88 
L 339.726197 221.568 
L 339.014961 224.256 
L 338.249224 226.944 
L 337.524364 229.319442 
L 337.427151 229.632 
L 336.535575 232.32 
L 335.588449 235.008 
L 334.638545 237.554526 
L 334.584737 237.696 
L 333.505741 240.384 
L 332.370105 243.072 
L 331.752727 244.463886 
L 331.16632 245.76 
L 329.8924 248.448 
L 328.866909 250.517935 
L 328.554451 251.136 
L 327.136597 253.824 
L 325.981091 255.927186 
L 325.653089 256.512 
L 324.085298 259.2 
L 323.095273 260.834662 
L 322.443736 261.888 
L 320.71962 264.576 
L 320.209455 265.344 
L 318.906283 267.264 
L 317.323636 269.518163 
L 317.012263 269.952 
L 315.018834 272.64 
L 314.437818 273.399014 
L 312.927606 275.328 
L 311.552 277.031891 
L 310.738999 278.016 
L 308.666182 280.451383 
L 308.446048 280.704 
L 306.034893 283.392 
L 305.780364 283.667883 
L 303.500603 286.08 
L 302.894545 286.703935 
L 300.839438 288.768 
L 300.008727 289.580405 
L 298.041629 291.456 
L 297.122909 292.309552 
L 295.096373 294.144 
L 294.237091 294.902412 
L 291.991698 296.832 
L 291.351273 297.368945 
L 288.714301 299.52 
L 288.465455 299.718164 
L 285.579636 301.952304 
L 285.239628 302.208 
L 282.693818 304.078049 
L 281.546497 304.896 
L 279.808 306.107278 
L 277.622185 307.584 
" style="fill:none;stroke:#0092b6;stroke-width:1.5;"/>
    <path clip-path="url(#p5bf8a3a7f1)" d="M 57.6 102.643981 
L 59.185398 100.608 
L 60.485818 98.988674 
L 61.363965 97.92 
L 63.371636 95.548701 
L 63.646149 95.232 
L 66.044707 92.544 
L 66.257455 92.312211 
L 68.566812 89.856 
L 69.143273 89.259475 
L 71.214865 87.168 
L 72.029091 86.367621 
L 73.998542 84.48 
L 74.914909 83.624257 
L 76.928535 81.792 
L 77.800727 81.018233 
L 80.016693 79.104 
L 80.686545 78.539487 
L 83.276177 76.416 
L 83.572364 76.178918 
L 86.458182 73.933044 
L 86.729389 73.728 
L 89.344 71.797271 
L 90.400533 71.04 
L 92.229818 69.758689 
L 94.300764 68.352 
L 95.115636 67.810812 
L 98.001455 65.954029 
L 98.467219 65.664 
L 100.887273 64.189841 
L 102.948571 62.976 
L 103.773091 62.500805 
L 106.658909 60.894875 
L 107.789766 60.288 
L 109.544727 59.365839 
L 112.430545 57.905518 
L 113.058398 57.6 
L 115.316364 56.523702 
L 118.202182 55.20304 
L 118.865732 54.912 
L 121.088 53.956805 
L 123.973818 52.77021 
L 125.365317 52.224 
L 126.859636 51.648942 
L 129.745455 50.591152 
L 132.631273 49.58612 
L 132.783158 49.536 
L 135.517091 48.651211 
L 138.402909 47.769009 
L 141.288727 46.938549 
L 141.624288 46.848 
L 144.174545 46.172827 
L 147.060364 45.459581 
L 149.946182 44.797099 
L 152.832 44.185382 
L 152.96258 44.16 
L 155.717818 43.634358 
L 158.603636 43.133627 
L 161.489455 42.682721 
L 164.375273 42.281639 
L 167.261091 41.93038 
L 170.146909 41.628945 
L 171.946974 41.472 
" style="fill:none;stroke:#0092b6;stroke-width:1.5;"/>
    <path clip-path="url(#p5bf8a3a7f1)" d="M 200.375126 41.472 
L 201.890909 41.601542 
L 204.776727 41.897994 
L 207.662545 42.244271 
L 210.548364 42.640371 
L 213.434182 43.086295 
L 216.32 43.582043 
L 219.205818 44.127614 
L 219.362787 44.16 
L 222.091636 44.733643 
L 224.977455 45.391048 
L 227.863273 46.099218 
L 230.710485 46.848 
L 230.749091 46.858348 
L 233.634909 47.683634 
L 236.520727 48.560662 
L 239.406545 49.489432 
L 239.543603 49.536 
L 242.292364 50.488275 
L 245.178182 51.540789 
L 246.962017 52.224 
L 248.064 52.654511 
L 250.949818 53.835724 
L 253.464692 54.912 
L 253.835636 55.073994 
L 256.721455 56.389164 
L 259.271847 57.6 
L 259.607273 57.762569 
L 262.493091 59.217285 
L 264.538328 60.288 
L 265.378909 60.737431 
L 268.264727 62.337636 
L 269.376191 62.976 
L 271.150545 64.017271 
L 273.862925 65.664 
L 274.036364 65.77164 
L 276.922182 67.622443 
L 278.024122 68.352 
L 279.808 69.559918 
L 281.927478 71.04 
L 282.693818 71.587614 
L 285.579636 73.712354 
L 285.600279 73.728 
L 288.465455 75.951447 
L 289.047435 76.416 
L 291.351273 78.299897 
L 292.308005 79.104 
L 294.237091 80.765917 
L 295.396741 81.792 
L 297.122909 83.358562 
L 298.326877 84.48 
L 300.008727 86.087842 
L 301.110322 87.168 
L 302.894545 88.96485 
L 303.757824 89.856 
L 305.780364 92.001914 
L 306.279105 92.544 
L 308.666182 95.212773 
L 308.682979 95.232 
L 310.964086 97.92 
L 311.552 98.633809 
L 313.141006 100.608 
L 314.437818 102.269596 
L 315.221066 103.296 
L 317.208075 105.984 
L 317.323636 106.145549 
L 319.091553 108.672 
L 320.209455 110.324725 
L 320.894798 111.36 
L 322.612766 114.048 
L 323.095273 114.830961 
L 324.244785 116.736 
L 325.806558 119.424 
L 325.981091 119.736433 
L 327.281036 122.112 
L 328.692994 124.8 
L 328.866909 125.145516 
L 330.022392 127.488 
L 331.290534 130.176 
L 331.752727 131.202444 
L 332.486218 132.864 
L 333.61619 135.552 
L 334.638545 138.112338 
L 334.68854 138.24 
L 335.685661 140.928 
L 336.627232 143.616 
L 337.513254 146.304 
L 337.524364 146.33996 
L 338.328251 148.992 
L 339.088537 151.68 
L 339.794323 154.368 
L 340.410182 156.909791 
L 340.444951 157.056 
L 341.030673 159.744 
L 341.562904 162.432 
L 342.041645 165.12 
L 342.466896 167.808 
L 342.838655 170.496 
L 343.156924 173.184 
L 343.296 174.595879 
" style="fill:none;stroke:#0092b6;stroke-width:1.5;"/>
   </g>
   <g id="LineCollection_5">
    <path clip-path="url(#p5bf8a3a7f1)" d="M 65.801934 307.584 
L 63.371636 305.423074 
L 62.792629 304.896 
L 60.485818 302.747317 
L 59.919955 302.208 
L 57.6 299.944295 
" style="fill:none;stroke:#006dc8;stroke-width:1.5;"/>
    <path clip-path="url(#p5bf8a3a7f1)" d="M 343.296 261.915551 
L 341.810967 264.576 
L 340.410182 266.999133 
L 340.254173 267.264 
L 338.616424 269.952 
L 337.524364 271.686647 
L 336.91262 272.64 
L 335.132245 275.328 
L 334.638545 276.050832 
L 333.269977 278.016 
L 331.752727 280.130678 
L 331.333143 280.704 
L 329.308159 283.392 
L 328.866909 283.961476 
L 327.191867 286.08 
L 325.981091 287.570008 
L 324.987304 288.768 
L 323.095273 290.988867 
L 322.68883 291.456 
L 320.288592 294.144 
L 320.209455 294.230412 
L 317.775036 296.832 
L 317.323636 297.302646 
L 315.149643 299.52 
L 314.437818 300.228756 
L 312.404777 302.208 
L 311.552 303.018927 
L 309.532095 304.896 
L 308.666182 305.682415 
L 306.522456 307.584 
" style="fill:none;stroke:#006dc8;stroke-width:1.5;"/>
    <path clip-path="url(#p5bf8a3a7f1)" d="M 57.6 75.724777 
L 59.641528 73.728 
L 60.485818 72.921444 
L 62.501031 71.04 
L 63.371636 70.245679 
L 65.496539 68.352 
L 66.257455 67.68897 
L 68.637991 65.664 
L 69.143273 65.243543 
L 71.93632 62.976 
L 72.029091 62.902288 
L 74.914909 60.666581 
L 75.41642 60.288 
L 77.800727 58.525664 
L 79.086883 57.6 
L 80.686545 56.472221 
L 82.960978 54.912 
L 83.572364 54.500997 
L 86.458182 52.614823 
L 87.073696 52.224 
L 89.344 50.810756 
L 91.453791 49.536 
L 92.229818 49.076142 
L 95.115636 47.417809 
L 96.139149 46.848 
L 98.001455 45.830799 
L 100.887273 44.305314 
L 101.171633 44.16 
L 103.773091 42.855236 
L 106.629331 41.472 
" style="fill:none;stroke:#006dc8;stroke-width:1.5;"/>
    <path clip-path="url(#p5bf8a3a7f1)" d="M 265.692529 41.472 
L 268.264727 42.713238 
L 271.150545 44.15564 
L 271.158976 44.16 
L 274.036364 45.675966 
L 276.189072 46.848 
L 276.922182 47.254822 
L 279.808 48.907981 
L 280.871023 49.536 
L 282.693818 50.634018 
L 285.255566 52.224 
L 285.579636 52.429165 
L 288.465455 54.309958 
L 289.36351 54.912 
L 291.351273 56.271788 
L 293.240332 57.6 
L 294.237091 58.315445 
L 296.912841 60.288 
L 297.122909 60.44616 
L 300.008727 62.676141 
L 300.387062 62.976 
L 302.894545 65.006625 
L 303.686472 65.664 
L 305.780364 67.440801 
L 306.828579 68.352 
L 308.666182 69.985747 
L 309.824373 71.04 
L 311.552 72.649201 
L 312.683838 73.728 
L 314.437818 75.439638 
L 315.416075 76.416 
L 317.323636 78.366359 
L 318.02939 79.104 
L 320.209455 81.439599 
L 320.531382 81.792 
L 322.925474 84.48 
L 323.095273 84.675668 
L 325.212994 87.168 
L 325.981091 88.096433 
L 327.407051 89.856 
L 328.866909 91.707505 
L 329.513257 92.544 
L 331.532463 95.232 
L 331.752727 95.533856 
L 333.459721 97.92 
L 334.638545 99.617845 
L 335.312783 100.608 
L 337.087602 103.296 
L 337.524364 103.978856 
L 338.782651 105.984 
L 340.410182 108.664147 
L 340.414862 108.672 
L 341.963415 111.36 
L 343.296 113.755878 
" style="fill:none;stroke:#006dc8;stroke-width:1.5;"/>
   </g>
   <g id="LineCollection_6">
    <path clip-path="url(#p5bf8a3a7f1)" d="M 343.296 291.750269 
L 341.435864 294.144 
L 340.410182 295.430951 
L 339.272477 296.832 
L 337.524364 298.932307 
L 337.025803 299.52 
L 334.689929 302.208 
L 334.638545 302.265756 
L 332.252577 304.896 
L 331.752727 305.434515 
L 329.717633 307.584 
" style="fill:none;stroke:#0049db;stroke-width:1.5;"/>
    <path clip-path="url(#p5bf8a3a7f1)" d="M 57.6 54.119592 
L 59.907672 52.224 
L 60.485818 51.758414 
L 63.30963 49.536 
L 63.371636 49.488139 
L 66.257455 47.312385 
L 66.888398 46.848 
L 69.143273 45.219717 
L 70.647429 44.16 
L 72.029091 43.204627 
L 74.598984 41.472 
" style="fill:none;stroke:#0049db;stroke-width:1.5;"/>
    <path clip-path="url(#p5bf8a3a7f1)" d="M 297.724893 41.472 
L 300.008727 43.007822 
L 301.679179 44.16 
L 302.894545 45.014119 
L 305.440337 46.848 
L 305.780364 47.097655 
L 308.666182 49.268235 
L 309.013891 49.536 
L 311.552 51.528919 
L 312.417089 52.224 
L 314.437818 53.88012 
L 315.668865 54.912 
L 317.323636 56.327387 
L 318.779106 57.6 
L 320.209455 58.87673 
L 321.756855 60.288 
L 323.095273 61.534671 
L 324.610403 62.976 
L 325.981091 64.3083 
L 327.347359 65.664 
L 328.866909 67.205339 
L 329.974728 68.352 
L 331.752727 70.234212 
L 332.498962 71.04 
L 334.638545 73.404126 
L 334.926016 73.728 
L 337.256335 76.416 
L 337.524364 76.732718 
L 339.493206 79.104 
L 340.410182 80.236055 
L 341.647152 81.792 
L 343.296 83.919281 
" style="fill:none;stroke:#0049db;stroke-width:1.5;"/>
   </g>
   <g id="LineCollection_7">
    <path clip-path="url(#p5bf8a3a7f1)" d="M 322.426064 41.472 
L 323.095273 42.014458 
L 325.686942 44.16 
L 325.981091 44.408113 
L 328.814587 46.848 
L 328.866909 46.893921 
L 331.752727 49.478437 
L 331.815739 49.536 
L 334.638545 52.165307 
L 334.700345 52.224 
L 337.475063 54.912 
L 337.524364 54.960735 
L 340.143809 57.6 
L 340.410182 57.873985 
L 342.713621 60.288 
L 343.296 60.911335 
" style="fill:none;stroke:#0024ed;stroke-width:1.5;"/>
   </g>
   <g id="LineCollection_8"/>
   <g id="patch_3">
    <path d="M 57.6 307.584 
L 57.6 41.472 
" style="fill:none;stroke:#000000;stroke-linecap:square;stroke-linejoin:miter;stroke-width:0.8;"/>
   </g>
   <g id="patch_4">
    <path d="M 343.296 307.584 
L 343.296 41.472 
" style="fill:none;stroke:#000000;stroke-linecap:square;stroke-linejoin:miter;stroke-width:0.8;"/>
   </g>
   <g id="patch_5">
    <path d="M 57.6 307.584 
L 343.296 307.584 
" style="fill:none;stroke:#000000;stroke-linecap:square;stroke-linejoin:miter;stroke-width:0.8;"/>
   </g>
   <g id="patch_6">
    <path d="M 57.6 41.472 
L 343.296 41.472 
" style="fill:none;stroke:#000000;stroke-linecap:square;stroke-linejoin:miter;stroke-width:0.8;"/>
   </g>
  </g>
  <g id="axes_2">
   <g id="patch_7">
    <path clip-path="url(#pee1ba2f68d)" d="M 361.152 307.584 
L 361.152 269.568 
L 361.152 79.488 
L 361.152 41.472 
L 374.4576 41.472 
L 374.4576 79.488 
L 374.4576 269.568 
L 374.4576 307.584 
z
" style="fill:#ffffff;stroke:#ffffff;stroke-linejoin:miter;stroke-width:0.01;"/>
   </g>
   <g id="matplotlib.axis_3"/>
   <g id="matplotlib.axis_4">
    <g id="ytick_10">
     <g id="line2d_19">
      <defs>
       <path d="M 0 0 
L 3.5 0 
" id="mb4ebb22808" style="stroke:#000000;stroke-width:0.8;"/>
      </defs>
      <g>
       <use style="stroke:#000000;stroke-width:0.8;" x="374.4576" xlink:href="#mb4ebb22808" y="307.584"/>
      </g>
     </g>
     <g id="text_19">
      <!-- 0.0 -->
      <g transform="translate(381.4576 311.383219)scale(0.1 -0.1)">
       <use xlink:href="#DejaVuSans-48"/>
       <use x="63.623047" xlink:href="#DejaVuSans-46"/>
       <use x="95.410156" xlink:href="#DejaVuSans-48"/>
      </g>
     </g>
    </g>
    <g id="ytick_11">
     <g id="line2d_20">
      <g>
       <use style="stroke:#000000;stroke-width:0.8;" x="374.4576" xlink:href="#mb4ebb22808" y="269.568"/>
      </g>
     </g>
     <g id="text_20">
      <!-- 1.5 -->
      <g transform="translate(381.4576 273.367219)scale(0.1 -0.1)">
       <use xlink:href="#DejaVuSans-49"/>
       <use x="63.623047" xlink:href="#DejaVuSans-46"/>
       <use x="95.410156" xlink:href="#DejaVuSans-53"/>
      </g>
     </g>
    </g>
    <g id="ytick_12">
     <g id="line2d_21">
      <g>
       <use style="stroke:#000000;stroke-width:0.8;" x="374.4576" xlink:href="#mb4ebb22808" y="231.552"/>
      </g>
     </g>
     <g id="text_21">
      <!-- 3.0 -->
      <defs>
       <path d="M 40.578125 39.3125 
Q 47.65625 37.796875 51.625 33 
Q 55.609375 28.21875 55.609375 21.1875 
Q 55.609375 10.40625 48.1875 4.484375 
Q 40.765625 -1.421875 27.09375 -1.421875 
Q 22.515625 -1.421875 17.65625 -0.515625 
Q 12.796875 0.390625 7.625 2.203125 
L 7.625 11.71875 
Q 11.71875 9.328125 16.59375 8.109375 
Q 21.484375 6.890625 26.8125 6.890625 
Q 36.078125 6.890625 40.9375 10.546875 
Q 45.796875 14.203125 45.796875 21.1875 
Q 45.796875 27.640625 41.28125 31.265625 
Q 36.765625 34.90625 28.71875 34.90625 
L 20.21875 34.90625 
L 20.21875 43.015625 
L 29.109375 43.015625 
Q 36.375 43.015625 40.234375 45.921875 
Q 44.09375 48.828125 44.09375 54.296875 
Q 44.09375 59.90625 40.109375 62.90625 
Q 36.140625 65.921875 28.71875 65.921875 
Q 24.65625 65.921875 20.015625 65.03125 
Q 15.375 64.15625 9.8125 62.3125 
L 9.8125 71.09375 
Q 15.4375 72.65625 20.34375 73.4375 
Q 25.25 74.21875 29.59375 74.21875 
Q 40.828125 74.21875 47.359375 69.109375 
Q 53.90625 64.015625 53.90625 55.328125 
Q 53.90625 49.265625 50.4375 45.09375 
Q 46.96875 40.921875 40.578125 39.3125 
z
" id="DejaVuSans-51"/>
      </defs>
      <g transform="translate(381.4576 235.351219)scale(0.1 -0.1)">
       <use xlink:href="#DejaVuSans-51"/>
       <use x="63.623047" xlink:href="#DejaVuSans-46"/>
       <use x="95.410156" xlink:href="#DejaVuSans-48"/>
      </g>
     </g>
    </g>
    <g id="ytick_13">
     <g id="line2d_22">
      <g>
       <use style="stroke:#000000;stroke-width:0.8;" x="374.4576" xlink:href="#mb4ebb22808" y="193.536"/>
      </g>
     </g>
     <g id="text_22">
      <!-- 4.5 -->
      <defs>
       <path d="M 37.796875 64.3125 
L 12.890625 25.390625 
L 37.796875 25.390625 
z
M 35.203125 72.90625 
L 47.609375 72.90625 
L 47.609375 25.390625 
L 58.015625 25.390625 
L 58.015625 17.1875 
L 47.609375 17.1875 
L 47.609375 0 
L 37.796875 0 
L 37.796875 17.1875 
L 4.890625 17.1875 
L 4.890625 26.703125 
z
" id="DejaVuSans-52"/>
      </defs>
      <g transform="translate(381.4576 197.335219)scale(0.1 -0.1)">
       <use xlink:href="#DejaVuSans-52"/>
       <use x="63.623047" xlink:href="#DejaVuSans-46"/>
       <use x="95.410156" xlink:href="#DejaVuSans-53"/>
      </g>
     </g>
    </g>
    <g id="ytick_14">
     <g id="line2d_23">
      <g>
       <use style="stroke:#000000;stroke-width:0.8;" x="374.4576" xlink:href="#mb4ebb22808" y="155.52"/>
      </g>
     </g>
     <g id="text_23">
      <!-- 6.0 -->
      <defs>
       <path d="M 33.015625 40.375 
Q 26.375 40.375 22.484375 35.828125 
Q 18.609375 31.296875 18.609375 23.390625 
Q 18.609375 15.53125 22.484375 10.953125 
Q 26.375 6.390625 33.015625 6.390625 
Q 39.65625 6.390625 43.53125 10.953125 
Q 47.40625 15.53125 47.40625 23.390625 
Q 47.40625 31.296875 43.53125 35.828125 
Q 39.65625 40.375 33.015625 40.375 
z
M 52.59375 71.296875 
L 52.59375 62.3125 
Q 48.875 64.0625 45.09375 64.984375 
Q 41.3125 65.921875 37.59375 65.921875 
Q 27.828125 65.921875 22.671875 59.328125 
Q 17.53125 52.734375 16.796875 39.40625 
Q 19.671875 43.65625 24.015625 45.921875 
Q 28.375 48.1875 33.59375 48.1875 
Q 44.578125 48.1875 50.953125 41.515625 
Q 57.328125 34.859375 57.328125 23.390625 
Q 57.328125 12.15625 50.6875 5.359375 
Q 44.046875 -1.421875 33.015625 -1.421875 
Q 20.359375 -1.421875 13.671875 8.265625 
Q 6.984375 17.96875 6.984375 36.375 
Q 6.984375 53.65625 15.1875 63.9375 
Q 23.390625 74.21875 37.203125 74.21875 
Q 40.921875 74.21875 44.703125 73.484375 
Q 48.484375 72.75 52.59375 71.296875 
z
" id="DejaVuSans-54"/>
      </defs>
      <g transform="translate(381.4576 159.319219)scale(0.1 -0.1)">
       <use xlink:href="#DejaVuSans-54"/>
       <use x="63.623047" xlink:href="#DejaVuSans-46"/>
       <use x="95.410156" xlink:href="#DejaVuSans-48"/>
      </g>
     </g>
    </g>
    <g id="ytick_15">
     <g id="line2d_24">
      <g>
       <use style="stroke:#000000;stroke-width:0.8;" x="374.4576" xlink:href="#mb4ebb22808" y="117.504"/>
      </g>
     </g>
     <g id="text_24">
      <!-- 7.5 -->
      <defs>
       <path d="M 8.203125 72.90625 
L 55.078125 72.90625 
L 55.078125 68.703125 
L 28.609375 0 
L 18.3125 0 
L 43.21875 64.59375 
L 8.203125 64.59375 
z
" id="DejaVuSans-55"/>
      </defs>
      <g transform="translate(381.4576 121.303219)scale(0.1 -0.1)">
       <use xlink:href="#DejaVuSans-55"/>
       <use x="63.623047" xlink:href="#DejaVuSans-46"/>
       <use x="95.410156" xlink:href="#DejaVuSans-53"/>
      </g>
     </g>
    </g>
    <g id="ytick_16">
     <g id="line2d_25">
      <g>
       <use style="stroke:#000000;stroke-width:0.8;" x="374.4576" xlink:href="#mb4ebb22808" y="79.488"/>
      </g>
     </g>
     <g id="text_25">
      <!-- 9.0 -->
      <defs>
       <path d="M 10.984375 1.515625 
L 10.984375 10.5 
Q 14.703125 8.734375 18.5 7.8125 
Q 22.3125 6.890625 25.984375 6.890625 
Q 35.75 6.890625 40.890625 13.453125 
Q 46.046875 20.015625 46.78125 33.40625 
Q 43.953125 29.203125 39.59375 26.953125 
Q 35.25 24.703125 29.984375 24.703125 
Q 19.046875 24.703125 12.671875 31.3125 
Q 6.296875 37.9375 6.296875 49.421875 
Q 6.296875 60.640625 12.9375 67.421875 
Q 19.578125 74.21875 30.609375 74.21875 
Q 43.265625 74.21875 49.921875 64.515625 
Q 56.59375 54.828125 56.59375 36.375 
Q 56.59375 19.140625 48.40625 8.859375 
Q 40.234375 -1.421875 26.421875 -1.421875 
Q 22.703125 -1.421875 18.890625 -0.6875 
Q 15.09375 0.046875 10.984375 1.515625 
z
M 30.609375 32.421875 
Q 37.25 32.421875 41.125 36.953125 
Q 45.015625 41.5 45.015625 49.421875 
Q 45.015625 57.28125 41.125 61.84375 
Q 37.25 66.40625 30.609375 66.40625 
Q 23.96875 66.40625 20.09375 61.84375 
Q 16.21875 57.28125 16.21875 49.421875 
Q 16.21875 41.5 20.09375 36.953125 
Q 23.96875 32.421875 30.609375 32.421875 
z
" id="DejaVuSans-57"/>
      </defs>
      <g transform="translate(381.4576 83.287219)scale(0.1 -0.1)">
       <use xlink:href="#DejaVuSans-57"/>
       <use x="63.623047" xlink:href="#DejaVuSans-46"/>
       <use x="95.410156" xlink:href="#DejaVuSans-48"/>
      </g>
     </g>
    </g>
    <g id="ytick_17">
     <g id="line2d_26">
      <g>
       <use style="stroke:#000000;stroke-width:0.8;" x="374.4576" xlink:href="#mb4ebb22808" y="41.472"/>
      </g>
     </g>
     <g id="text_26">
      <!-- 10.5 -->
      <g transform="translate(381.4576 45.271219)scale(0.1 -0.1)">
       <use xlink:href="#DejaVuSans-49"/>
       <use x="63.623047" xlink:href="#DejaVuSans-48"/>
       <use x="127.246094" xlink:href="#DejaVuSans-46"/>
       <use x="159.033203" xlink:href="#DejaVuSans-53"/>
      </g>
     </g>
    </g>
   </g>
   <g id="LineCollection_9">
    <path clip-path="url(#pee1ba2f68d)" d="M 361.152 307.584 
L 374.4576 307.584 
" style="fill:none;stroke:#00ff80;stroke-width:1.5;"/>
    <path clip-path="url(#pee1ba2f68d)" d="M 361.152 269.568 
L 374.4576 269.568 
" style="fill:none;stroke:#00db92;stroke-width:1.5;"/>
    <path clip-path="url(#pee1ba2f68d)" d="M 361.152 231.552 
L 374.4576 231.552 
" style="fill:none;stroke:#00b6a4;stroke-width:1.5;"/>
    <path clip-path="url(#pee1ba2f68d)" d="M 361.152 193.536 
L 374.4576 193.536 
" style="fill:none;stroke:#0092b6;stroke-width:1.5;"/>
    <path clip-path="url(#pee1ba2f68d)" d="M 361.152 155.52 
L 374.4576 155.52 
" style="fill:none;stroke:#006dc8;stroke-width:1.5;"/>
    <path clip-path="url(#pee1ba2f68d)" d="M 361.152 117.504 
L 374.4576 117.504 
" style="fill:none;stroke:#0049db;stroke-width:1.5;"/>
    <path clip-path="url(#pee1ba2f68d)" d="M 361.152 79.488 
L 374.4576 79.488 
" style="fill:none;stroke:#0024ed;stroke-width:1.5;"/>
    <path clip-path="url(#pee1ba2f68d)" d="M 361.152 41.472 
L 374.4576 41.472 
" style="fill:none;stroke:#0000ff;stroke-width:1.5;"/>
   </g>
   <g id="patch_8">
    <path d="M 361.152 307.584 
L 361.152 269.568 
L 361.152 79.488 
L 361.152 41.472 
L 374.4576 41.472 
L 374.4576 79.488 
L 374.4576 269.568 
L 374.4576 307.584 
z
" style="fill:none;stroke:#000000;stroke-linejoin:miter;stroke-width:0.8;"/>
   </g>
  </g>
 </g>
 <defs>
  <clipPath id="p5bf8a3a7f1">
   <rect height="266.112" width="285.696" x="57.6" y="41.472"/>
  </clipPath>
  <clipPath id="pee1ba2f68d">
   <rect height="266.112" width="13.3056" x="361.152" y="41.472"/>
  </clipPath>
 </defs>
</svg>
