<?xml version="1.0" encoding="utf-8" standalone="no"?>
<!DOCTYPE svg PUBLIC "-//W3C//DTD SVG 1.1//EN"
  "http://www.w3.org/Graphics/SVG/1.1/DTD/svg11.dtd">
<!-- Created with matplotlib (https://matplotlib.org/) -->
<svg height="345.6pt" version="1.1" viewBox="0 0 460.8 345.6" width="460.8pt" xmlns="http://www.w3.org/2000/svg" xmlns:xlink="http://www.w3.org/1999/xlink">
 <defs>
  <style type="text/css">
*{stroke-linecap:butt;stroke-linejoin:round;}
  </style>
 </defs>
 <g id="figure_1">
  <g id="patch_1">
   <path d="M 0 345.6 
L 460.8 345.6 
L 460.8 0 
L 0 0 
z
" style="fill:#ffffff;"/>
  </g>
  <g id="axes_1">
   <g id="patch_2">
    <path d="M 57.6 307.584 
L 343.296 307.584 
L 343.296 41.472 
L 57.6 41.472 
z
" style="fill:#ffffff;"/>
   </g>
   <g id="matplotlib.axis_1">
    <g id="xtick_1">
     <g id="line2d_1">
      <defs>
       <path d="M 0 0 
L 0 3.5 
" id="m1fc2ab911a" style="stroke:#000000;stroke-width:0.8;"/>
      </defs>
      <g>
       <use style="stroke:#000000;stroke-width:0.8;" x="86.1696" xlink:href="#m1fc2ab911a" y="307.584"/>
      </g>
     </g>
     <g id="text_1">
      <!-- −4 -->
      <defs>
       <path d="M 10.59375 35.5 
L 73.1875 35.5 
L 73.1875 27.203125 
L 10.59375 27.203125 
z
" id="DejaVuSans-8722"/>
       <path d="M 37.796875 64.3125 
L 12.890625 25.390625 
L 37.796875 25.390625 
z
M 35.203125 72.90625 
L 47.609375 72.90625 
L 47.609375 25.390625 
L 58.015625 25.390625 
L 58.015625 17.1875 
L 47.609375 17.1875 
L 47.609375 0 
L 37.796875 0 
L 37.796875 17.1875 
L 4.890625 17.1875 
L 4.890625 26.703125 
z
" id="DejaVuSans-52"/>
      </defs>
      <g transform="translate(78.798506 322.182437)scale(0.1 -0.1)">
       <use xlink:href="#DejaVuSans-8722"/>
       <use x="83.789062" xlink:href="#DejaVuSans-52"/>
      </g>
     </g>
    </g>
    <g id="xtick_2">
     <g id="line2d_2">
      <g>
       <use style="stroke:#000000;stroke-width:0.8;" x="143.3088" xlink:href="#m1fc2ab911a" y="307.584"/>
      </g>
     </g>
     <g id="text_2">
      <!-- −2 -->
      <defs>
       <path d="M 19.1875 8.296875 
L 53.609375 8.296875 
L 53.609375 0 
L 7.328125 0 
L 7.328125 8.296875 
Q 12.9375 14.109375 22.625 23.890625 
Q 32.328125 33.6875 34.8125 36.53125 
Q 39.546875 41.84375 41.421875 45.53125 
Q 43.3125 49.21875 43.3125 52.78125 
Q 43.3125 58.59375 39.234375 62.25 
Q 35.15625 65.921875 28.609375 65.921875 
Q 23.96875 65.921875 18.8125 64.3125 
Q 13.671875 62.703125 7.8125 59.421875 
L 7.8125 69.390625 
Q 13.765625 71.78125 18.9375 73 
Q 24.125 74.21875 28.421875 74.21875 
Q 39.75 74.21875 46.484375 68.546875 
Q 53.21875 62.890625 53.21875 53.421875 
Q 53.21875 48.921875 51.53125 44.890625 
Q 49.859375 40.875 45.40625 35.40625 
Q 44.1875 33.984375 37.640625 27.21875 
Q 31.109375 20.453125 19.1875 8.296875 
z
" id="DejaVuSans-50"/>
      </defs>
      <g transform="translate(135.937706 322.182437)scale(0.1 -0.1)">
       <use xlink:href="#DejaVuSans-8722"/>
       <use x="83.789062" xlink:href="#DejaVuSans-50"/>
      </g>
     </g>
    </g>
    <g id="xtick_3">
     <g id="line2d_3">
      <g>
       <use style="stroke:#000000;stroke-width:0.8;" x="200.448" xlink:href="#m1fc2ab911a" y="307.584"/>
      </g>
     </g>
     <g id="text_3">
      <!-- 0 -->
      <defs>
       <path d="M 31.78125 66.40625 
Q 24.171875 66.40625 20.328125 58.90625 
Q 16.5 51.421875 16.5 36.375 
Q 16.5 21.390625 20.328125 13.890625 
Q 24.171875 6.390625 31.78125 6.390625 
Q 39.453125 6.390625 43.28125 13.890625 
Q 47.125 21.390625 47.125 36.375 
Q 47.125 51.421875 43.28125 58.90625 
Q 39.453125 66.40625 31.78125 66.40625 
z
M 31.78125 74.21875 
Q 44.046875 74.21875 50.515625 64.515625 
Q 56.984375 54.828125 56.984375 36.375 
Q 56.984375 17.96875 50.515625 8.265625 
Q 44.046875 -1.421875 31.78125 -1.421875 
Q 19.53125 -1.421875 13.0625 8.265625 
Q 6.59375 17.96875 6.59375 36.375 
Q 6.59375 54.828125 13.0625 64.515625 
Q 19.53125 74.21875 31.78125 74.21875 
z
" id="DejaVuSans-48"/>
      </defs>
      <g transform="translate(197.26675 322.182437)scale(0.1 -0.1)">
       <use xlink:href="#DejaVuSans-48"/>
      </g>
     </g>
    </g>
    <g id="xtick_4">
     <g id="line2d_4">
      <g>
       <use style="stroke:#000000;stroke-width:0.8;" x="257.5872" xlink:href="#m1fc2ab911a" y="307.584"/>
      </g>
     </g>
     <g id="text_4">
      <!-- 2 -->
      <g transform="translate(254.40595 322.182437)scale(0.1 -0.1)">
       <use xlink:href="#DejaVuSans-50"/>
      </g>
     </g>
    </g>
    <g id="xtick_5">
     <g id="line2d_5">
      <g>
       <use style="stroke:#000000;stroke-width:0.8;" x="314.7264" xlink:href="#m1fc2ab911a" y="307.584"/>
      </g>
     </g>
     <g id="text_5">
      <!-- 4 -->
      <g transform="translate(311.54515 322.182437)scale(0.1 -0.1)">
       <use xlink:href="#DejaVuSans-52"/>
      </g>
     </g>
    </g>
   </g>
   <g id="matplotlib.axis_2">
    <g id="ytick_1">
     <g id="line2d_6">
      <defs>
       <path d="M 0 0 
L -3.5 0 
" id="mdd0da0fc5f" style="stroke:#000000;stroke-width:0.8;"/>
      </defs>
      <g>
       <use style="stroke:#000000;stroke-width:0.8;" x="57.6" xlink:href="#mdd0da0fc5f" y="280.9728"/>
      </g>
     </g>
     <g id="text_6">
      <!-- −4 -->
      <g transform="translate(35.857813 284.772019)scale(0.1 -0.1)">
       <use xlink:href="#DejaVuSans-8722"/>
       <use x="83.789062" xlink:href="#DejaVuSans-52"/>
      </g>
     </g>
    </g>
    <g id="ytick_2">
     <g id="line2d_7">
      <g>
       <use style="stroke:#000000;stroke-width:0.8;" x="57.6" xlink:href="#mdd0da0fc5f" y="227.7504"/>
      </g>
     </g>
     <g id="text_7">
      <!-- −2 -->
      <g transform="translate(35.857813 231.549619)scale(0.1 -0.1)">
       <use xlink:href="#DejaVuSans-8722"/>
       <use x="83.789062" xlink:href="#DejaVuSans-50"/>
      </g>
     </g>
    </g>
    <g id="ytick_3">
     <g id="line2d_8">
      <g>
       <use style="stroke:#000000;stroke-width:0.8;" x="57.6" xlink:href="#mdd0da0fc5f" y="174.528"/>
      </g>
     </g>
     <g id="text_8">
      <!-- 0 -->
      <g transform="translate(44.2375 178.327219)scale(0.1 -0.1)">
       <use xlink:href="#DejaVuSans-48"/>
      </g>
     </g>
    </g>
    <g id="ytick_4">
     <g id="line2d_9">
      <g>
       <use style="stroke:#000000;stroke-width:0.8;" x="57.6" xlink:href="#mdd0da0fc5f" y="121.3056"/>
      </g>
     </g>
     <g id="text_9">
      <!-- 2 -->
      <g transform="translate(44.2375 125.104819)scale(0.1 -0.1)">
       <use xlink:href="#DejaVuSans-50"/>
      </g>
     </g>
    </g>
    <g id="ytick_5">
     <g id="line2d_10">
      <g>
       <use style="stroke:#000000;stroke-width:0.8;" x="57.6" xlink:href="#mdd0da0fc5f" y="68.0832"/>
      </g>
     </g>
     <g id="text_10">
      <!-- 4 -->
      <g transform="translate(44.2375 71.882419)scale(0.1 -0.1)">
       <use xlink:href="#DejaVuSans-52"/>
      </g>
     </g>
    </g>
   </g>
   <g id="LineCollection_1"/>
   <g id="LineCollection_2">
    <path clip-path="url(#p6ca24d09ee)" d="M 72.029091 294.475732 
L 71.297901 294.144 
L 69.143273 292.993326 
L 66.257455 290.889847 
L 64.22007 288.768 
L 63.371636 287.673114 
L 62.347999 286.08 
L 61.000572 283.392 
L 60.06547 280.704 
L 59.462439 278.016 
L 59.093461 275.328 
L 58.931044 272.64 
L 58.950321 269.952 
L 59.128763 267.264 
L 59.445933 264.576 
L 60.423907 259.2 
L 61.123792 256.512 
L 62.767135 251.136 
L 63.714207 248.448 
L 66.257455 242.183478 
L 69.721466 235.008 
L 72.637277 229.632 
L 75.841285 224.256 
L 77.800727 221.093091 
L 83.572364 212.735795 
L 89.344 205.317752 
L 95.115636 198.736401 
L 96.558895 197.376 
L 98.001455 195.816819 
L 99.362993 194.688 
L 100.887273 193.203199 
L 102.60104 192 
L 103.773091 191.000563 
L 106.658909 189.419763 
L 107.124513 189.312 
L 109.544727 188.587025 
L 112.430545 188.901593 
L 113.180969 189.312 
L 115.316364 190.347269 
L 118.202182 192.825344 
L 122.134477 197.376 
L 124.250481 200.064 
L 128.06722 205.44 
L 131.588198 210.816 
L 133.243347 213.504 
L 136.308323 218.88 
L 139.015235 224.256 
L 141.288727 229.650798 
L 142.22127 232.32 
L 143.014336 235.008 
L 143.647778 237.696 
L 144.174545 241.006107 
L 144.388185 243.072 
L 144.471587 245.76 
L 144.348301 248.448 
L 144.010108 251.136 
L 143.450303 253.824 
L 142.659264 256.512 
L 141.288727 259.905054 
L 140.358029 261.888 
L 138.402909 265.222077 
L 137.061089 267.264 
L 135.021312 269.952 
L 132.631273 272.717997 
L 129.745455 275.651786 
L 126.859636 278.278629 
L 123.914458 280.704 
L 120.237441 283.392 
L 115.316364 286.527903 
L 111.307075 288.768 
L 105.612812 291.456 
L 100.887273 293.258991 
L 98.001455 294.218622 
L 95.115636 294.976354 
L 92.229818 295.608044 
L 89.344 296.093264 
L 86.458182 296.409427 
L 83.572364 296.531528 
L 80.686545 296.431829 
L 77.800727 296.079509 
L 74.914909 295.440245 
L 72.029091 294.475732 
L 72.029091 294.475732 
" style="fill:none;stroke:#00e38e;stroke-width:1.5;"/>
    <path clip-path="url(#p6ca24d09ee)" d="M 294.237091 270.303825 
L 291.351273 269.621682 
L 288.465455 268.765112 
L 284.190128 267.264 
L 279.808 265.322165 
L 276.922182 263.838534 
L 273.54916 261.888 
L 269.614447 259.2 
L 266.256885 256.512 
L 263.372734 253.824 
L 260.889022 251.136 
L 258.754518 248.448 
L 256.721455 245.392981 
L 255.382316 243.072 
L 253.835636 239.754423 
L 253.006671 237.696 
L 252.126995 235.008 
L 251.425223 232.32 
L 250.876095 229.632 
L 250.452746 226.944 
L 249.926189 221.568 
L 249.701157 216.192 
L 249.641902 205.44 
L 249.521808 197.376 
L 249.241754 192 
L 248.718065 186.624 
L 247.887659 181.248 
L 246.688097 175.872 
L 245.085359 170.496 
L 243.011669 165.12 
L 241.789447 162.432 
L 239.406545 157.883635 
L 237.275903 154.368 
L 235.455713 151.68 
L 233.469982 148.992 
L 230.749091 145.698011 
L 227.863273 142.595964 
L 224.977455 139.839507 
L 222.091636 137.3925 
L 219.205818 135.231667 
L 215.48713 132.864 
L 213.434182 131.700665 
L 210.188752 130.176 
L 207.662545 129.169671 
L 204.776727 128.264121 
L 201.219673 127.488 
L 199.005091 127.137192 
L 196.119273 126.896846 
L 193.233455 126.863296 
L 190.347636 127.025135 
L 186.817869 127.488 
L 184.576 127.882688 
L 181.690182 128.552019 
L 178.804364 129.370932 
L 173.032727 131.405478 
L 167.261091 133.90416 
L 161.489455 136.800021 
L 155.717818 140.03659 
L 149.85373 143.616 
L 141.288727 149.303888 
L 123.973818 161.28134 
L 121.088 162.915933 
L 118.202182 164.20079 
L 115.316364 164.788255 
L 112.430545 164.459453 
L 109.544727 162.925346 
L 109.062678 162.432 
L 106.658909 160.291445 
L 106.259499 159.744 
L 103.773091 156.762484 
L 100.363147 151.68 
L 97.159423 146.304 
L 94.254736 140.928 
L 91.600397 135.552 
L 89.172242 130.176 
L 86.028959 122.112 
L 83.572364 114.566278 
L 82.733979 111.36 
L 81.514982 105.984 
L 80.604549 100.608 
L 80.126797 95.232 
L 80.04377 92.544 
L 80.079531 89.856 
L 80.245804 87.168 
L 80.686545 83.718386 
L 81.058145 81.792 
L 81.765381 79.104 
L 82.676544 76.416 
L 83.837193 73.728 
L 85.376634 71.04 
L 87.303289 68.352 
L 89.78138 65.664 
L 93.109983 62.976 
L 95.115636 61.709555 
L 98.001455 60.17857 
L 100.887273 59.043497 
L 103.773091 58.122902 
L 106.658909 57.423454 
L 109.544727 56.945621 
L 112.430545 56.618878 
L 115.316364 56.430549 
L 118.202182 56.368299 
L 123.973818 56.574514 
L 129.745455 57.146415 
L 135.517091 58.048036 
L 141.288727 59.232239 
L 147.060364 60.600112 
L 155.717818 62.995799 
L 184.576 72.017698 
L 190.347636 73.500238 
L 199.005091 75.293517 
L 204.776727 76.021174 
L 210.548364 76.394697 
L 216.32 76.467861 
L 222.091636 76.272185 
L 227.863273 75.888968 
L 236.520727 75.08639 
L 250.949818 73.690005 
L 256.721455 73.340355 
L 262.493091 73.159414 
L 268.264727 73.203542 
L 274.036364 73.527497 
L 276.922182 73.820142 
L 282.693818 74.751863 
L 285.579636 75.381395 
L 289.408128 76.416 
L 291.351273 77.060522 
L 296.401516 79.104 
L 297.122909 79.4445 
L 301.345767 81.792 
L 302.894545 82.800069 
L 305.780364 84.924929 
L 308.666182 87.465912 
L 311.552 90.54496 
L 314.437818 94.305938 
L 315.055385 95.232 
L 317.323636 99.035491 
L 319.374556 103.296 
L 320.490249 105.984 
L 322.286034 111.36 
L 323.095273 114.164238 
L 324.272937 119.424 
L 325.258052 124.8 
L 326.058372 130.176 
L 326.929726 138.24 
L 330.538652 175.872 
L 332.01578 186.624 
L 333.996419 200.064 
L 335.151256 208.128 
L 336.114439 216.192 
L 336.613329 221.568 
L 336.932092 226.944 
L 337.005226 232.32 
L 336.75899 237.696 
L 336.111581 243.072 
L 335.60974 245.76 
L 334.638545 249.60038 
L 334.128712 251.136 
L 333.055962 253.824 
L 331.752727 256.57261 
L 330.084963 259.2 
L 327.989868 261.888 
L 325.24623 264.576 
L 323.095273 266.212839 
L 320.209455 267.935528 
L 317.323636 269.220147 
L 314.437818 270.176757 
L 311.552 270.80811 
L 308.666182 271.206429 
L 305.780364 271.38971 
L 302.894545 271.375105 
L 300.008727 271.178969 
L 297.122909 270.81691 
L 294.237091 270.303825 
L 294.237091 270.303825 
" style="fill:none;stroke:#00e38e;stroke-width:1.5;"/>
   </g>
   <g id="LineCollection_3">
    <path clip-path="url(#p6ca24d09ee)" d="M 72.07578 307.584 
L 72.029091 307.577073 
L 69.143273 306.942209 
L 66.257455 306.071422 
L 63.371636 304.939812 
L 63.281107 304.896 
L 60.485818 303.358985 
L 58.766641 302.208 
L 57.6 301.309915 
" style="fill:none;stroke:#00c79c;stroke-width:1.5;"/>
    <path clip-path="url(#p6ca24d09ee)" d="M 343.296 264.041494 
L 343.033591 264.576 
L 341.534159 267.264 
L 340.410182 269.04886 
L 339.771348 269.952 
L 337.641336 272.64 
L 337.524364 272.772636 
L 334.973895 275.328 
L 334.638545 275.631481 
L 331.752727 277.918785 
L 331.611176 278.016 
L 328.866909 279.728215 
L 327.037988 280.704 
L 325.981091 281.218562 
L 323.095273 282.401346 
L 320.209455 283.375694 
L 320.149122 283.392 
L 317.323636 284.092139 
L 314.437818 284.641259 
L 311.552 285.036042 
L 308.666182 285.287683 
L 305.780364 285.406961 
L 302.894545 285.404256 
L 300.008727 285.289563 
L 297.122909 285.072514 
L 294.237091 284.762387 
L 291.351273 284.368122 
L 288.465455 283.898337 
L 285.744117 283.392 
L 285.579636 283.358598 
L 282.693818 282.709144 
L 279.808 282.003583 
L 276.922182 281.249988 
L 274.935722 280.704 
L 274.036364 280.433203 
L 271.150545 279.530041 
L 268.264727 278.598819 
L 266.495186 278.016 
L 265.378909 277.611624 
L 262.493091 276.553724 
L 259.607273 275.488661 
L 259.170305 275.328 
L 256.721455 274.333176 
L 253.835636 273.169109 
L 252.503347 272.64 
L 250.949818 271.955072 
L 248.064 270.709496 
L 246.259965 269.952 
L 245.178182 269.445027 
L 242.292364 268.139548 
L 240.276607 267.264 
L 239.406545 266.839602 
L 236.520727 265.501309 
L 234.410524 264.576 
L 233.634909 264.191323 
L 230.749091 262.854878 
L 228.498356 261.888 
L 227.863273 261.576804 
L 224.977455 260.287798 
L 222.283846 259.2 
L 222.091636 259.110553 
L 219.205818 257.931194 
L 216.32 256.910052 
L 214.960563 256.512 
L 213.434182 255.989195 
L 210.548364 255.213574 
L 207.662545 254.657257 
L 204.776727 254.335444 
L 201.890909 254.264407 
L 199.005091 254.461726 
L 196.119273 254.946578 
L 193.233455 255.740071 
L 191.237933 256.512 
L 190.347636 256.81307 
L 187.461818 258.070887 
L 185.379335 259.2 
L 184.576 259.582493 
L 181.690182 261.21658 
L 180.671984 261.888 
L 178.804364 262.973992 
L 176.398353 264.576 
L 175.918545 264.859274 
L 173.032727 266.765656 
L 172.351817 267.264 
L 170.146909 268.699968 
L 168.396568 269.952 
L 167.261091 270.678199 
L 164.440094 272.64 
L 164.375273 272.680481 
L 161.489455 274.610167 
L 160.486418 275.328 
L 158.603636 276.541494 
L 156.452183 278.016 
L 155.717818 278.471014 
L 152.832 280.354811 
L 152.321039 280.704 
L 149.946182 282.174994 
L 148.067149 283.392 
L 147.060364 283.985021 
L 144.174545 285.748581 
L 143.648159 286.08 
L 141.288727 287.434065 
L 139.034158 288.768 
L 138.402909 289.109462 
L 135.517091 290.701179 
L 134.173695 291.456 
L 132.631273 292.249963 
L 129.745455 293.755983 
L 129.005797 294.144 
L 126.859636 295.177449 
L 123.973818 296.574849 
L 123.438947 296.832 
L 121.088 297.871447 
L 118.202182 299.139818 
L 117.320669 299.52 
L 115.316364 300.316399 
L 112.430545 301.437675 
L 110.386721 302.208 
L 109.544727 302.500885 
L 106.658909 303.459173 
L 103.773091 304.371303 
L 101.995868 304.896 
L 100.887273 305.198368 
L 98.001455 305.917607 
L 95.115636 306.564327 
L 92.229818 307.127355 
L 89.408769 307.584 
" style="fill:none;stroke:#00c79c;stroke-width:1.5;"/>
    <path clip-path="url(#p6ca24d09ee)" d="M 57.6 230.17583 
L 65.02704 210.816 
L 68.84738 200.064 
L 71.334437 192 
L 73.2942 183.936 
L 74.233409 178.56 
L 74.852284 173.184 
L 75.200034 167.808 
L 75.242914 162.432 
L 75.003094 157.056 
L 74.258837 148.992 
L 73.539884 143.616 
L 72.207421 135.552 
L 70.341689 124.8 
L 68.970914 116.736 
L 67.864759 108.672 
L 67.294663 103.296 
L 66.91948 97.92 
L 66.795849 92.544 
L 66.984506 87.168 
L 67.550565 81.792 
L 67.99674 79.104 
L 69.143273 74.183494 
L 69.272641 73.728 
L 70.190733 71.04 
L 72.029091 66.741153 
L 72.584418 65.664 
L 74.914909 61.887277 
L 76.110145 60.288 
L 78.446831 57.6 
L 81.356099 54.912 
L 85.076012 52.224 
L 86.458182 51.389001 
L 90.045444 49.536 
L 92.229818 48.626334 
L 95.115636 47.596845 
L 98.001455 46.740193 
L 100.887273 46.089137 
L 103.773091 45.566787 
L 109.544727 44.872043 
L 115.316364 44.585917 
L 121.088 44.642223 
L 126.859636 44.978938 
L 132.631273 45.538448 
L 141.288727 46.680803 
L 147.060364 47.646096 
L 158.603636 49.780313 
L 175.918545 53.192112 
L 184.576 54.722818 
L 196.119273 56.475796 
L 204.776727 57.421006 
L 213.434182 58.102947 
L 222.091636 58.507056 
L 230.749091 58.687634 
L 262.493091 59.062881 
L 268.264727 59.384906 
L 274.036364 59.879152 
L 279.808 60.610568 
L 285.579636 61.647668 
L 291.351273 62.995626 
L 297.122909 64.836538 
L 300.008727 65.93137 
L 305.223932 68.352 
L 305.780364 68.64344 
L 309.83077 71.04 
L 313.625743 73.728 
L 314.437818 74.368932 
L 317.323636 76.877534 
L 320.209455 79.813635 
L 323.095273 83.276137 
L 325.834024 87.168 
L 327.425535 89.856 
L 328.89721 92.544 
L 331.316921 97.92 
L 332.343094 100.608 
L 334.104224 105.984 
L 334.864541 108.672 
L 336.130718 114.048 
L 337.524364 121.216504 
L 338.44971 127.488 
L 339.437097 135.552 
L 340.544209 146.304 
L 342.563022 167.808 
L 343.296 174.520733 
L 343.296 174.520733 
" style="fill:none;stroke:#00c79c;stroke-width:1.5;"/>
   </g>
   <g id="LineCollection_4">
    <path clip-path="url(#p6ca24d09ee)" d="M 343.296 281.464876 
L 341.265592 283.392 
L 340.410182 284.13377 
L 337.891516 286.08 
L 337.524364 286.340228 
L 334.638545 288.150109 
L 333.515013 288.768 
L 331.752727 289.660433 
L 328.866909 290.928965 
L 327.467879 291.456 
L 325.981091 291.973508 
L 323.095273 292.820893 
L 320.209455 293.521103 
L 317.323636 294.083709 
L 316.922784 294.144 
L 314.437818 294.490543 
L 311.552 294.782341 
L 308.666182 294.971497 
L 305.780364 295.065719 
L 302.894545 295.072463 
L 300.008727 294.998943 
L 297.122909 294.852135 
L 294.237091 294.638789 
L 291.351273 294.365432 
L 289.396296 294.144 
L 288.465455 294.030059 
L 285.579636 293.6259 
L 282.693818 293.176748 
L 279.808 292.688743 
L 276.922182 292.167817 
L 274.036364 291.619701 
L 273.205659 291.456 
L 271.150545 291.016885 
L 268.264727 290.383025 
L 265.378909 289.736982 
L 262.493091 289.084112 
L 261.096917 288.768 
L 259.607273 288.401044 
L 256.721455 287.694779 
L 253.835636 286.997109 
L 250.949818 286.313021 
L 249.936877 286.08 
L 248.064 285.609363 
L 245.178182 284.910059 
L 242.292364 284.240328 
L 239.406545 283.604816 
L 238.374028 283.392 
L 236.520727 282.972756 
L 233.634909 282.36779 
L 230.749091 281.813896 
L 227.863273 281.315417 
L 224.977455 280.87653 
L 223.645862 280.704 
L 222.091636 280.481578 
L 219.205818 280.143643 
L 216.32 279.883527 
L 213.434182 279.705217 
L 210.548364 279.612556 
L 207.662545 279.609242 
L 204.776727 279.698838 
L 201.890909 279.884767 
L 199.005091 280.170319 
L 196.119273 280.558653 
L 195.264193 280.704 
L 193.233455 281.020072 
L 190.347636 281.565687 
L 187.461818 282.211243 
L 184.576 282.958794 
L 183.099768 283.392 
L 181.690182 283.771275 
L 178.804364 284.638133 
L 175.918545 285.600476 
L 174.603429 286.08 
L 173.032727 286.605967 
L 170.146909 287.654164 
L 167.313522 288.768 
L 167.261091 288.786966 
L 164.375273 289.897208 
L 161.489455 291.083556 
L 160.63073 291.456 
L 158.603636 292.266113 
L 155.717818 293.481246 
L 154.214342 294.144 
L 152.832 294.70648 
L 149.946182 295.928937 
L 147.894976 296.832 
L 147.060364 297.171755 
L 144.174545 298.381499 
L 141.543664 299.52 
L 141.288727 299.622174 
L 138.402909 300.800581 
L 135.517091 302.007449 
L 135.042925 302.208 
L 132.631273 303.153703 
L 129.745455 304.300277 
L 128.254475 304.896 
L 126.859636 305.413482 
L 123.973818 306.483997 
L 121.088 307.554628 
L 121.007635 307.584 
" style="fill:none;stroke:#00aaaa;stroke-width:1.5;"/>
    <path clip-path="url(#p6ca24d09ee)" d="M 57.6 197.185283 
L 58.214663 194.688 
L 58.824658 192 
L 59.382397 189.312 
L 59.887851 186.624 
L 60.3412 183.936 
L 60.485818 182.972693 
L 60.767162 181.248 
L 61.150468 178.56 
L 61.478273 175.872 
L 61.751705 173.184 
L 61.972078 170.496 
L 62.140879 167.808 
L 62.259771 165.12 
L 62.330589 162.432 
L 62.355332 159.744 
L 62.336167 157.056 
L 62.275422 154.368 
L 62.175587 151.68 
L 62.039313 148.992 
L 61.869409 146.304 
L 61.668843 143.616 
L 61.440744 140.928 
L 61.188397 138.24 
L 60.91525 135.552 
L 60.624908 132.864 
L 60.485818 131.636187 
L 60.334334 130.176 
L 60.046074 127.488 
L 59.752734 124.8 
L 59.458246 122.112 
L 59.166703 119.424 
L 58.88236 116.736 
L 58.609634 114.048 
L 58.35311 111.36 
L 58.11754 108.672 
L 57.907851 105.984 
L 57.729145 103.296 
L 57.6 100.859556 
" style="fill:none;stroke:#00aaaa;stroke-width:1.5;"/>
    <path clip-path="url(#p6ca24d09ee)" d="M 57.6 87.522029 
L 57.616391 87.168 
L 57.813032 84.48 
L 58.088303 81.792 
L 58.449087 79.104 
L 58.902496 76.416 
L 59.45587 73.728 
L 60.116792 71.04 
L 60.485818 69.763023 
L 60.927648 68.352 
L 61.903807 65.664 
L 63.023066 62.976 
L 63.371636 62.239682 
L 64.376437 60.288 
L 65.9374 57.6 
L 66.257455 57.108232 
L 67.818164 54.912 
L 69.143273 53.238645 
L 70.024322 52.224 
L 72.029091 50.142111 
L 72.672177 49.536 
L 74.914909 47.621543 
L 75.918865 46.848 
L 77.800727 45.529491 
L 79.980064 44.16 
L 80.686545 43.754813 
L 83.572364 42.280471 
L 85.363675 41.472 
" style="fill:none;stroke:#00aaaa;stroke-width:1.5;"/>
    <path clip-path="url(#p6ca24d09ee)" d="M 164.606516 41.472 
L 167.261091 41.909188 
L 170.146909 42.374997 
L 173.032727 42.828817 
L 175.918545 43.268566 
L 178.804364 43.692425 
L 181.690182 44.09883 
L 182.143492 44.16 
L 184.576 44.515242 
L 187.461818 44.915198 
L 190.347636 45.292402 
L 193.233455 45.646228 
L 196.119273 45.976302 
L 199.005091 46.282495 
L 201.890909 46.564915 
L 204.776727 46.823901 
L 205.069552 46.848 
L 207.662545 47.078727 
L 210.548364 47.311425 
L 213.434182 47.520953 
L 216.32 47.70862 
L 219.205818 47.875943 
L 222.091636 48.024633 
L 224.977455 48.15659 
L 227.863273 48.27389 
L 230.749091 48.378776 
L 233.634909 48.473652 
L 236.520727 48.56107 
L 239.406545 48.643725 
L 242.292364 48.724442 
L 245.178182 48.806169 
L 248.064 48.891968 
L 250.949818 48.98501 
L 253.835636 49.088562 
L 256.721455 49.20598 
L 259.607273 49.340705 
L 262.493091 49.49625 
L 263.126396 49.536 
L 265.378909 49.68748 
L 268.264727 49.912005 
L 271.150545 50.17054 
L 274.036364 50.467067 
L 276.922182 50.805602 
L 279.808 51.190191 
L 282.693818 51.624899 
L 285.579636 52.113812 
L 286.156427 52.224 
L 288.465455 52.695115 
L 291.351273 53.351608 
L 294.237091 54.078923 
L 297.122909 54.881345 
L 297.222267 54.912 
L 300.008727 55.829193 
L 302.894545 56.868269 
L 304.752415 57.6 
L 305.780364 58.031941 
L 308.666182 59.356921 
L 310.533943 60.288 
L 311.552 60.829372 
L 314.437818 62.494784 
L 315.207401 62.976 
L 317.323636 64.387141 
L 319.098929 65.664 
L 320.209455 66.516072 
L 322.429512 68.352 
L 323.095273 68.939473 
L 325.305765 71.04 
L 325.981091 71.724821 
L 327.817212 73.728 
L 328.866909 74.950041 
L 330.038537 76.416 
L 331.752727 78.704208 
L 332.031695 79.104 
L 333.780592 81.792 
L 334.638545 83.201699 
L 335.363421 84.48 
L 336.785146 87.168 
L 337.524364 88.666825 
L 338.07108 89.856 
L 339.219544 92.544 
L 340.291759 95.232 
L 340.410182 95.553125 
L 341.223741 97.92 
L 342.082727 100.608 
L 342.8817 103.296 
L 343.296 104.801326 
" style="fill:none;stroke:#00aaaa;stroke-width:1.5;"/>
   </g>
   <g id="LineCollection_5">
    <path clip-path="url(#p6ca24d09ee)" d="M 343.296 292.191993 
L 340.410182 294.137137 
L 340.398767 294.144 
L 337.524364 295.743128 
L 335.314111 296.832 
L 334.638545 297.140784 
L 331.752727 298.299293 
L 328.866909 299.306413 
L 328.153957 299.52 
L 325.981091 300.125718 
L 323.095273 300.805815 
L 320.209455 301.369375 
L 317.323636 301.823922 
L 314.437818 302.176746 
L 314.088189 302.208 
L 311.552 302.419569 
L 308.666182 302.578417 
L 305.780364 302.661579 
L 302.894545 302.675038 
L 300.008727 302.624597 
L 297.122909 302.515879 
L 294.237091 302.354333 
L 292.216441 302.208 
L 291.351273 302.140696 
L 288.465455 301.870952 
L 285.579636 301.561003 
L 282.693818 301.215984 
L 279.808 300.840866 
L 276.922182 300.440455 
L 274.036364 300.019401 
L 271.150545 299.582197 
L 270.749903 299.52 
L 268.264727 299.104263 
L 265.378909 298.613422 
L 262.493091 298.118655 
L 259.607273 297.624147 
L 256.721455 297.133932 
L 254.911631 296.832 
L 253.835636 296.637947 
L 250.949818 296.131331 
L 248.064 295.641289 
L 245.178182 295.17154 
L 242.292364 294.725656 
L 239.406545 294.307066 
L 238.190695 294.144 
L 236.520727 293.900875 
L 233.634909 293.517819 
L 230.749091 293.174293 
L 227.863273 292.87341 
L 224.977455 292.618136 
L 222.091636 292.411296 
L 219.205818 292.255572 
L 216.32 292.153505 
L 213.434182 292.107491 
L 210.548364 292.119785 
L 207.662545 292.192497 
L 204.776727 292.327593 
L 201.890909 292.526893 
L 199.005091 292.792065 
L 196.119273 293.124631 
L 193.233455 293.525956 
L 190.347636 293.997247 
L 189.562238 294.144 
L 187.461818 294.507886 
L 184.576 295.072456 
L 181.690182 295.70316 
L 178.804364 296.400342 
L 177.167693 296.832 
L 175.918545 297.137796 
L 173.032727 297.901746 
L 170.146909 298.725915 
L 167.55198 299.52 
L 167.261091 299.602729 
L 164.375273 300.471135 
L 161.489455 301.391935 
L 159.063214 302.208 
L 158.603636 302.351829 
L 155.717818 303.293854 
L 152.832 304.279026 
L 151.091418 304.896 
L 149.946182 305.274129 
L 147.060364 306.257392 
L 144.174545 307.273266 
L 143.311985 307.584 
" style="fill:none;stroke:#008eb8;stroke-width:1.5;"/>
    <path clip-path="url(#p6ca24d09ee)" d="M 57.6 56.33998 
L 58.388598 54.912 
L 60.040435 52.224 
L 60.485818 51.56948 
L 61.987148 49.536 
L 63.371636 47.835212 
L 64.246645 46.848 
L 66.257455 44.782637 
L 66.920119 44.16 
L 69.143273 42.251715 
L 70.140717 41.472 
" style="fill:none;stroke:#008eb8;stroke-width:1.5;"/>
    <path clip-path="url(#p6ca24d09ee)" d="M 252.333388 41.472 
L 253.835636 41.546192 
L 256.721455 41.701332 
L 259.607273 41.871568 
L 262.493091 42.059956 
L 265.378909 42.269619 
L 268.264727 42.503746 
L 271.150545 42.765586 
L 274.036364 43.058439 
L 276.922182 43.385655 
L 279.808 43.750626 
L 282.693818 44.156781 
L 282.714268 44.16 
L 285.579636 44.639882 
L 288.465455 45.174366 
L 291.351273 45.763693 
L 294.237091 46.411574 
L 296.004841 46.848 
L 297.122909 47.141454 
L 300.008727 47.972984 
L 302.894545 48.878374 
L 304.819159 49.536 
L 305.780364 49.885039 
L 308.666182 51.025963 
L 311.473399 52.224 
L 311.552 52.25965 
L 314.437818 53.681102 
L 316.76233 54.912 
L 317.323636 55.22786 
L 320.209455 56.979456 
L 321.160614 57.6 
L 323.095273 58.941 
L 324.907631 60.288 
L 325.981091 61.135925 
L 328.154949 62.976 
L 328.866909 63.616636 
L 330.991688 65.664 
L 331.752727 66.443647 
L 333.493663 68.352 
L 334.638545 69.686294 
L 335.725007 71.04 
L 337.524364 73.423343 
L 337.739695 73.728 
L 339.518293 76.416 
L 340.410182 77.851118 
L 341.139331 79.104 
L 342.604784 81.792 
L 343.296 83.146307 
" style="fill:none;stroke:#008eb8;stroke-width:1.5;"/>
   </g>
   <g id="LineCollection_6">
    <path clip-path="url(#p6ca24d09ee)" d="M 280.006867 307.584 
L 279.808 307.562358 
L 276.922182 307.227649 
L 274.036364 306.875766 
L 271.150545 306.510653 
L 268.264727 306.136122 
L 265.378909 305.755855 
L 262.493091 305.373409 
L 259.607273 304.99221 
L 258.868532 304.896 
L 256.721455 304.59557 
L 253.835636 304.200283 
L 250.949818 303.816475 
L 248.064 303.447292 
L 245.178182 303.095759 
L 242.292364 302.764772 
L 239.406545 302.457108 
L 236.853378 302.208 
L 236.520727 302.173001 
L 233.634909 301.900972 
L 230.749091 301.662068 
L 227.863273 301.458761 
L 224.977455 301.293398 
L 222.091636 301.1682 
L 219.205818 301.08526 
L 216.32 301.046547 
L 213.434182 301.053901 
L 210.548364 301.109033 
L 207.662545 301.213526 
L 204.776727 301.368833 
L 201.890909 301.57627 
L 199.005091 301.837022 
L 196.119273 302.152136 
L 195.681712 302.208 
L 193.233455 302.499688 
L 190.347636 302.894913 
L 187.461818 303.342349 
L 184.576 303.842352 
L 181.690182 304.395129 
L 179.300691 304.896 
L 178.804364 304.993168 
L 175.918545 305.603676 
L 173.032727 306.262323 
L 170.146909 306.968614 
L 167.786357 307.584 
" style="fill:none;stroke:#0071c6;stroke-width:1.5;"/>
    <path clip-path="url(#p6ca24d09ee)" d="M 343.296 300.307009 
L 340.410182 301.856825 
L 339.67777 302.208 
L 337.524364 303.169954 
L 334.638545 304.312911 
L 332.963957 304.896 
L 331.752727 305.289861 
L 328.866909 306.106727 
L 325.981091 306.809327 
L 323.095273 307.404558 
L 322.047752 307.584 
" style="fill:none;stroke:#0071c6;stroke-width:1.5;"/>
    <path clip-path="url(#p6ca24d09ee)" d="M 57.6 44.27976 
L 57.698624 44.16 
L 60.119642 41.472 
" style="fill:none;stroke:#0071c6;stroke-width:1.5;"/>
    <path clip-path="url(#p6ca24d09ee)" d="M 300.146377 41.472 
L 302.894545 42.273698 
L 305.780364 43.185109 
L 308.638637 44.16 
L 308.666182 44.169956 
L 311.552 45.302426 
L 314.437818 46.519178 
L 315.16047 46.848 
L 317.323636 47.890632 
L 320.209455 49.381233 
L 320.487908 49.536 
L 323.095273 51.071032 
L 324.927247 52.224 
L 325.981091 52.926817 
L 328.766719 54.912 
L 328.866909 54.987687 
L 331.752727 57.319157 
L 332.07853 57.6 
L 334.638545 59.938364 
L 334.997644 60.288 
L 337.524364 62.895281 
L 337.597798 62.976 
L 339.899861 65.664 
L 340.410182 66.296216 
L 341.96812 68.352 
L 343.296 70.21021 
" style="fill:none;stroke:#0071c6;stroke-width:1.5;"/>
   </g>
   <g id="LineCollection_7">
    <path clip-path="url(#p6ca24d09ee)" d="M 343.296 306.961304 
L 341.962112 307.584 
" style="fill:none;stroke:#0055d4;stroke-width:1.5;"/>
    <path clip-path="url(#p6ca24d09ee)" d="M 316.882202 41.472 
L 317.323636 41.665288 
L 320.209455 43.024374 
L 322.466595 44.16 
L 323.095273 44.494401 
L 325.981091 46.138323 
L 327.148008 46.848 
L 328.866909 47.95312 
L 331.177794 49.536 
L 331.752727 49.952469 
L 334.638545 52.179108 
L 334.693147 52.224 
L 337.524364 54.685108 
L 337.76988 54.912 
L 340.410182 57.4923 
L 340.513903 57.6 
L 342.958286 60.288 
L 343.296 60.681213 
" style="fill:none;stroke:#0055d4;stroke-width:1.5;"/>
   </g>
   <g id="LineCollection_8">
    <path clip-path="url(#p6ca24d09ee)" d="M 328.097713 41.472 
L 328.866909 41.919145 
L 331.752727 43.707303 
L 332.438878 44.16 
L 334.638545 45.691459 
L 336.202427 46.848 
L 337.524364 47.879974 
L 339.522321 49.536 
L 340.410182 50.313042 
L 342.467695 52.224 
L 343.296 53.036472 
" style="fill:none;stroke:#0038e3;stroke-width:1.5;"/>
   </g>
   <g id="LineCollection_9">
    <path clip-path="url(#p6ca24d09ee)" d="M 336.77367 41.472 
L 337.524364 42.000929 
L 340.410182 44.157098 
L 340.413841 44.16 
L 343.296 46.568945 
" style="fill:none;stroke:#001cf1;stroke-width:1.5;"/>
   </g>
   <g id="LineCollection_10"/>
   <g id="patch_3">
    <path d="M 57.6 307.584 
L 57.6 41.472 
" style="fill:none;stroke:#000000;stroke-linecap:square;stroke-linejoin:miter;stroke-width:0.8;"/>
   </g>
   <g id="patch_4">
    <path d="M 343.296 307.584 
L 343.296 41.472 
" style="fill:none;stroke:#000000;stroke-linecap:square;stroke-linejoin:miter;stroke-width:0.8;"/>
   </g>
   <g id="patch_5">
    <path d="M 57.6 307.584 
L 343.296 307.584 
" style="fill:none;stroke:#000000;stroke-linecap:square;stroke-linejoin:miter;stroke-width:0.8;"/>
   </g>
   <g id="patch_6">
    <path d="M 57.6 41.472 
L 343.296 41.472 
" style="fill:none;stroke:#000000;stroke-linecap:square;stroke-linejoin:miter;stroke-width:0.8;"/>
   </g>
  </g>
  <g id="axes_2">
   <g id="patch_7">
    <path clip-path="url(#p8dccde6fe6)" d="M 361.152 307.584 
L 361.152 278.016 
L 361.152 71.04 
L 361.152 41.472 
L 374.4576 41.472 
L 374.4576 71.04 
L 374.4576 278.016 
L 374.4576 307.584 
z
" style="fill:#ffffff;stroke:#ffffff;stroke-linejoin:miter;stroke-width:0.01;"/>
   </g>
   <g id="matplotlib.axis_3"/>
   <g id="matplotlib.axis_4">
    <g id="ytick_6">
     <g id="line2d_11">
      <defs>
       <path d="M 0 0 
L 3.5 0 
" id="mbdeb11bcdc" style="stroke:#000000;stroke-width:0.8;"/>
      </defs>
      <g>
       <use style="stroke:#000000;stroke-width:0.8;" x="374.4576" xlink:href="#mbdeb11bcdc" y="307.584"/>
      </g>
     </g>
     <g id="text_11">
      <!-- 0 -->
      <g transform="translate(381.4576 311.383219)scale(0.1 -0.1)">
       <use xlink:href="#DejaVuSans-48"/>
      </g>
     </g>
    </g>
    <g id="ytick_7">
     <g id="line2d_12">
      <g>
       <use style="stroke:#000000;stroke-width:0.8;" x="374.4576" xlink:href="#mbdeb11bcdc" y="278.016"/>
      </g>
     </g>
     <g id="text_12">
      <!-- 100 -->
      <defs>
       <path d="M 12.40625 8.296875 
L 28.515625 8.296875 
L 28.515625 63.921875 
L 10.984375 60.40625 
L 10.984375 69.390625 
L 28.421875 72.90625 
L 38.28125 72.90625 
L 38.28125 8.296875 
L 54.390625 8.296875 
L 54.390625 0 
L 12.40625 0 
z
" id="DejaVuSans-49"/>
      </defs>
      <g transform="translate(381.4576 281.815219)scale(0.1 -0.1)">
       <use xlink:href="#DejaVuSans-49"/>
       <use x="63.623047" xlink:href="#DejaVuSans-48"/>
       <use x="127.246094" xlink:href="#DejaVuSans-48"/>
      </g>
     </g>
    </g>
    <g id="ytick_8">
     <g id="line2d_13">
      <g>
       <use style="stroke:#000000;stroke-width:0.8;" x="374.4576" xlink:href="#mbdeb11bcdc" y="248.448"/>
      </g>
     </g>
     <g id="text_13">
      <!-- 200 -->
      <g transform="translate(381.4576 252.247219)scale(0.1 -0.1)">
       <use xlink:href="#DejaVuSans-50"/>
       <use x="63.623047" xlink:href="#DejaVuSans-48"/>
       <use x="127.246094" xlink:href="#DejaVuSans-48"/>
      </g>
     </g>
    </g>
    <g id="ytick_9">
     <g id="line2d_14">
      <g>
       <use style="stroke:#000000;stroke-width:0.8;" x="374.4576" xlink:href="#mbdeb11bcdc" y="218.88"/>
      </g>
     </g>
     <g id="text_14">
      <!-- 300 -->
      <defs>
       <path d="M 40.578125 39.3125 
Q 47.65625 37.796875 51.625 33 
Q 55.609375 28.21875 55.609375 21.1875 
Q 55.609375 10.40625 48.1875 4.484375 
Q 40.765625 -1.421875 27.09375 -1.421875 
Q 22.515625 -1.421875 17.65625 -0.515625 
Q 12.796875 0.390625 7.625 2.203125 
L 7.625 11.71875 
Q 11.71875 9.328125 16.59375 8.109375 
Q 21.484375 6.890625 26.8125 6.890625 
Q 36.078125 6.890625 40.9375 10.546875 
Q 45.796875 14.203125 45.796875 21.1875 
Q 45.796875 27.640625 41.28125 31.265625 
Q 36.765625 34.90625 28.71875 34.90625 
L 20.21875 34.90625 
L 20.21875 43.015625 
L 29.109375 43.015625 
Q 36.375 43.015625 40.234375 45.921875 
Q 44.09375 48.828125 44.09375 54.296875 
Q 44.09375 59.90625 40.109375 62.90625 
Q 36.140625 65.921875 28.71875 65.921875 
Q 24.65625 65.921875 20.015625 65.03125 
Q 15.375 64.15625 9.8125 62.3125 
L 9.8125 71.09375 
Q 15.4375 72.65625 20.34375 73.4375 
Q 25.25 74.21875 29.59375 74.21875 
Q 40.828125 74.21875 47.359375 69.109375 
Q 53.90625 64.015625 53.90625 55.328125 
Q 53.90625 49.265625 50.4375 45.09375 
Q 46.96875 40.921875 40.578125 39.3125 
z
" id="DejaVuSans-51"/>
      </defs>
      <g transform="translate(381.4576 222.679219)scale(0.1 -0.1)">
       <use xlink:href="#DejaVuSans-51"/>
       <use x="63.623047" xlink:href="#DejaVuSans-48"/>
       <use x="127.246094" xlink:href="#DejaVuSans-48"/>
      </g>
     </g>
    </g>
    <g id="ytick_10">
     <g id="line2d_15">
      <g>
       <use style="stroke:#000000;stroke-width:0.8;" x="374.4576" xlink:href="#mbdeb11bcdc" y="189.312"/>
      </g>
     </g>
     <g id="text_15">
      <!-- 400 -->
      <g transform="translate(381.4576 193.111219)scale(0.1 -0.1)">
       <use xlink:href="#DejaVuSans-52"/>
       <use x="63.623047" xlink:href="#DejaVuSans-48"/>
       <use x="127.246094" xlink:href="#DejaVuSans-48"/>
      </g>
     </g>
    </g>
    <g id="ytick_11">
     <g id="line2d_16">
      <g>
       <use style="stroke:#000000;stroke-width:0.8;" x="374.4576" xlink:href="#mbdeb11bcdc" y="159.744"/>
      </g>
     </g>
     <g id="text_16">
      <!-- 500 -->
      <defs>
       <path d="M 10.796875 72.90625 
L 49.515625 72.90625 
L 49.515625 64.59375 
L 19.828125 64.59375 
L 19.828125 46.734375 
Q 21.96875 47.46875 24.109375 47.828125 
Q 26.265625 48.1875 28.421875 48.1875 
Q 40.625 48.1875 47.75 41.5 
Q 54.890625 34.8125 54.890625 23.390625 
Q 54.890625 11.625 47.5625 5.09375 
Q 40.234375 -1.421875 26.90625 -1.421875 
Q 22.3125 -1.421875 17.546875 -0.640625 
Q 12.796875 0.140625 7.71875 1.703125 
L 7.71875 11.625 
Q 12.109375 9.234375 16.796875 8.0625 
Q 21.484375 6.890625 26.703125 6.890625 
Q 35.15625 6.890625 40.078125 11.328125 
Q 45.015625 15.765625 45.015625 23.390625 
Q 45.015625 31 40.078125 35.4375 
Q 35.15625 39.890625 26.703125 39.890625 
Q 22.75 39.890625 18.8125 39.015625 
Q 14.890625 38.140625 10.796875 36.28125 
z
" id="DejaVuSans-53"/>
      </defs>
      <g transform="translate(381.4576 163.543219)scale(0.1 -0.1)">
       <use xlink:href="#DejaVuSans-53"/>
       <use x="63.623047" xlink:href="#DejaVuSans-48"/>
       <use x="127.246094" xlink:href="#DejaVuSans-48"/>
      </g>
     </g>
    </g>
    <g id="ytick_12">
     <g id="line2d_17">
      <g>
       <use style="stroke:#000000;stroke-width:0.8;" x="374.4576" xlink:href="#mbdeb11bcdc" y="130.176"/>
      </g>
     </g>
     <g id="text_17">
      <!-- 600 -->
      <defs>
       <path d="M 33.015625 40.375 
Q 26.375 40.375 22.484375 35.828125 
Q 18.609375 31.296875 18.609375 23.390625 
Q 18.609375 15.53125 22.484375 10.953125 
Q 26.375 6.390625 33.015625 6.390625 
Q 39.65625 6.390625 43.53125 10.953125 
Q 47.40625 15.53125 47.40625 23.390625 
Q 47.40625 31.296875 43.53125 35.828125 
Q 39.65625 40.375 33.015625 40.375 
z
M 52.59375 71.296875 
L 52.59375 62.3125 
Q 48.875 64.0625 45.09375 64.984375 
Q 41.3125 65.921875 37.59375 65.921875 
Q 27.828125 65.921875 22.671875 59.328125 
Q 17.53125 52.734375 16.796875 39.40625 
Q 19.671875 43.65625 24.015625 45.921875 
Q 28.375 48.1875 33.59375 48.1875 
Q 44.578125 48.1875 50.953125 41.515625 
Q 57.328125 34.859375 57.328125 23.390625 
Q 57.328125 12.15625 50.6875 5.359375 
Q 44.046875 -1.421875 33.015625 -1.421875 
Q 20.359375 -1.421875 13.671875 8.265625 
Q 6.984375 17.96875 6.984375 36.375 
Q 6.984375 53.65625 15.1875 63.9375 
Q 23.390625 74.21875 37.203125 74.21875 
Q 40.921875 74.21875 44.703125 73.484375 
Q 48.484375 72.75 52.59375 71.296875 
z
" id="DejaVuSans-54"/>
      </defs>
      <g transform="translate(381.4576 133.975219)scale(0.1 -0.1)">
       <use xlink:href="#DejaVuSans-54"/>
       <use x="63.623047" xlink:href="#DejaVuSans-48"/>
       <use x="127.246094" xlink:href="#DejaVuSans-48"/>
      </g>
     </g>
    </g>
    <g id="ytick_13">
     <g id="line2d_18">
      <g>
       <use style="stroke:#000000;stroke-width:0.8;" x="374.4576" xlink:href="#mbdeb11bcdc" y="100.608"/>
      </g>
     </g>
     <g id="text_18">
      <!-- 700 -->
      <defs>
       <path d="M 8.203125 72.90625 
L 55.078125 72.90625 
L 55.078125 68.703125 
L 28.609375 0 
L 18.3125 0 
L 43.21875 64.59375 
L 8.203125 64.59375 
z
" id="DejaVuSans-55"/>
      </defs>
      <g transform="translate(381.4576 104.407219)scale(0.1 -0.1)">
       <use xlink:href="#DejaVuSans-55"/>
       <use x="63.623047" xlink:href="#DejaVuSans-48"/>
       <use x="127.246094" xlink:href="#DejaVuSans-48"/>
      </g>
     </g>
    </g>
    <g id="ytick_14">
     <g id="line2d_19">
      <g>
       <use style="stroke:#000000;stroke-width:0.8;" x="374.4576" xlink:href="#mbdeb11bcdc" y="71.04"/>
      </g>
     </g>
     <g id="text_19">
      <!-- 800 -->
      <defs>
       <path d="M 31.78125 34.625 
Q 24.75 34.625 20.71875 30.859375 
Q 16.703125 27.09375 16.703125 20.515625 
Q 16.703125 13.921875 20.71875 10.15625 
Q 24.75 6.390625 31.78125 6.390625 
Q 38.8125 6.390625 42.859375 10.171875 
Q 46.921875 13.96875 46.921875 20.515625 
Q 46.921875 27.09375 42.890625 30.859375 
Q 38.875 34.625 31.78125 34.625 
z
M 21.921875 38.8125 
Q 15.578125 40.375 12.03125 44.71875 
Q 8.5 49.078125 8.5 55.328125 
Q 8.5 64.0625 14.71875 69.140625 
Q 20.953125 74.21875 31.78125 74.21875 
Q 42.671875 74.21875 48.875 69.140625 
Q 55.078125 64.0625 55.078125 55.328125 
Q 55.078125 49.078125 51.53125 44.71875 
Q 48 40.375 41.703125 38.8125 
Q 48.828125 37.15625 52.796875 32.3125 
Q 56.78125 27.484375 56.78125 20.515625 
Q 56.78125 9.90625 50.3125 4.234375 
Q 43.84375 -1.421875 31.78125 -1.421875 
Q 19.734375 -1.421875 13.25 4.234375 
Q 6.78125 9.90625 6.78125 20.515625 
Q 6.78125 27.484375 10.78125 32.3125 
Q 14.796875 37.15625 21.921875 38.8125 
z
M 18.3125 54.390625 
Q 18.3125 48.734375 21.84375 45.5625 
Q 25.390625 42.390625 31.78125 42.390625 
Q 38.140625 42.390625 41.71875 45.5625 
Q 45.3125 48.734375 45.3125 54.390625 
Q 45.3125 60.0625 41.71875 63.234375 
Q 38.140625 66.40625 31.78125 66.40625 
Q 25.390625 66.40625 21.84375 63.234375 
Q 18.3125 60.0625 18.3125 54.390625 
z
" id="DejaVuSans-56"/>
      </defs>
      <g transform="translate(381.4576 74.839219)scale(0.1 -0.1)">
       <use xlink:href="#DejaVuSans-56"/>
       <use x="63.623047" xlink:href="#DejaVuSans-48"/>
       <use x="127.246094" xlink:href="#DejaVuSans-48"/>
      </g>
     </g>
    </g>
    <g id="ytick_15">
     <g id="line2d_20">
      <g>
       <use style="stroke:#000000;stroke-width:0.8;" x="374.4576" xlink:href="#mbdeb11bcdc" y="41.472"/>
      </g>
     </g>
     <g id="text_20">
      <!-- 900 -->
      <defs>
       <path d="M 10.984375 1.515625 
L 10.984375 10.5 
Q 14.703125 8.734375 18.5 7.8125 
Q 22.3125 6.890625 25.984375 6.890625 
Q 35.75 6.890625 40.890625 13.453125 
Q 46.046875 20.015625 46.78125 33.40625 
Q 43.953125 29.203125 39.59375 26.953125 
Q 35.25 24.703125 29.984375 24.703125 
Q 19.046875 24.703125 12.671875 31.3125 
Q 6.296875 37.9375 6.296875 49.421875 
Q 6.296875 60.640625 12.9375 67.421875 
Q 19.578125 74.21875 30.609375 74.21875 
Q 43.265625 74.21875 49.921875 64.515625 
Q 56.59375 54.828125 56.59375 36.375 
Q 56.59375 19.140625 48.40625 8.859375 
Q 40.234375 -1.421875 26.421875 -1.421875 
Q 22.703125 -1.421875 18.890625 -0.6875 
Q 15.09375 0.046875 10.984375 1.515625 
z
M 30.609375 32.421875 
Q 37.25 32.421875 41.125 36.953125 
Q 45.015625 41.5 45.015625 49.421875 
Q 45.015625 57.28125 41.125 61.84375 
Q 37.25 66.40625 30.609375 66.40625 
Q 23.96875 66.40625 20.09375 61.84375 
Q 16.21875 57.28125 16.21875 49.421875 
Q 16.21875 41.5 20.09375 36.953125 
Q 23.96875 32.421875 30.609375 32.421875 
z
" id="DejaVuSans-57"/>
      </defs>
      <g transform="translate(381.4576 45.271219)scale(0.1 -0.1)">
       <use xlink:href="#DejaVuSans-57"/>
       <use x="63.623047" xlink:href="#DejaVuSans-48"/>
       <use x="127.246094" xlink:href="#DejaVuSans-48"/>
      </g>
     </g>
    </g>
   </g>
   <g id="LineCollection_11">
    <path clip-path="url(#p8dccde6fe6)" d="M 361.152 307.584 
L 374.4576 307.584 
" style="fill:none;stroke:#00ff80;stroke-width:1.5;"/>
    <path clip-path="url(#p8dccde6fe6)" d="M 361.152 278.016 
L 374.4576 278.016 
" style="fill:none;stroke:#00e38e;stroke-width:1.5;"/>
    <path clip-path="url(#p8dccde6fe6)" d="M 361.152 248.448 
L 374.4576 248.448 
" style="fill:none;stroke:#00c79c;stroke-width:1.5;"/>
    <path clip-path="url(#p8dccde6fe6)" d="M 361.152 218.88 
L 374.4576 218.88 
" style="fill:none;stroke:#00aaaa;stroke-width:1.5;"/>
    <path clip-path="url(#p8dccde6fe6)" d="M 361.152 189.312 
L 374.4576 189.312 
" style="fill:none;stroke:#008eb8;stroke-width:1.5;"/>
    <path clip-path="url(#p8dccde6fe6)" d="M 361.152 159.744 
L 374.4576 159.744 
" style="fill:none;stroke:#0071c6;stroke-width:1.5;"/>
    <path clip-path="url(#p8dccde6fe6)" d="M 361.152 130.176 
L 374.4576 130.176 
" style="fill:none;stroke:#0055d4;stroke-width:1.5;"/>
    <path clip-path="url(#p8dccde6fe6)" d="M 361.152 100.608 
L 374.4576 100.608 
" style="fill:none;stroke:#0038e3;stroke-width:1.5;"/>
    <path clip-path="url(#p8dccde6fe6)" d="M 361.152 71.04 
L 374.4576 71.04 
" style="fill:none;stroke:#001cf1;stroke-width:1.5;"/>
    <path clip-path="url(#p8dccde6fe6)" d="M 361.152 41.472 
L 374.4576 41.472 
" style="fill:none;stroke:#0000ff;stroke-width:1.5;"/>
   </g>
   <g id="patch_8">
    <path d="M 361.152 307.584 
L 361.152 278.016 
L 361.152 71.04 
L 361.152 41.472 
L 374.4576 41.472 
L 374.4576 71.04 
L 374.4576 278.016 
L 374.4576 307.584 
z
" style="fill:none;stroke:#000000;stroke-linejoin:miter;stroke-width:0.8;"/>
   </g>
  </g>
 </g>
 <defs>
  <clipPath id="p6ca24d09ee">
   <rect height="266.112" width="285.696" x="57.6" y="41.472"/>
  </clipPath>
  <clipPath id="p8dccde6fe6">
   <rect height="266.112" width="13.3056" x="361.152" y="41.472"/>
  </clipPath>
 </defs>
</svg>
