<?xml version="1.0" encoding="utf-8" standalone="no"?>
<!DOCTYPE svg PUBLIC "-//W3C//DTD SVG 1.1//EN"
  "http://www.w3.org/Graphics/SVG/1.1/DTD/svg11.dtd">
<!-- Created with matplotlib (https://matplotlib.org/) -->
<svg height="345.6pt" version="1.1" viewBox="0 0 460.8 345.6" width="460.8pt" xmlns="http://www.w3.org/2000/svg" xmlns:xlink="http://www.w3.org/1999/xlink">
 <defs>
  <style type="text/css">
*{stroke-linecap:butt;stroke-linejoin:round;}
  </style>
 </defs>
 <g id="figure_1">
  <g id="patch_1">
   <path d="M 0 345.6 
L 460.8 345.6 
L 460.8 0 
L 0 0 
z
" style="fill:#ffffff;"/>
  </g>
  <g id="axes_1">
   <g id="patch_2">
    <path d="M 57.6 307.584 
L 343.296 307.584 
L 343.296 41.472 
L 57.6 41.472 
z
" style="fill:#ffffff;"/>
   </g>
   <g id="matplotlib.axis_1">
    <g id="xtick_1">
     <g id="line2d_1">
      <defs>
       <path d="M 0 0 
L 0 3.5 
" id="mc2e97cfa30" style="stroke:#000000;stroke-width:0.8;"/>
      </defs>
      <g>
       <use style="stroke:#000000;stroke-width:0.8;" x="57.6" xlink:href="#mc2e97cfa30" y="307.584"/>
      </g>
     </g>
     <g id="text_1">
      <!-- −10.0 -->
      <defs>
       <path d="M 10.59375 35.5 
L 73.1875 35.5 
L 73.1875 27.203125 
L 10.59375 27.203125 
z
" id="DejaVuSans-8722"/>
       <path d="M 12.40625 8.296875 
L 28.515625 8.296875 
L 28.515625 63.921875 
L 10.984375 60.40625 
L 10.984375 69.390625 
L 28.421875 72.90625 
L 38.28125 72.90625 
L 38.28125 8.296875 
L 54.390625 8.296875 
L 54.390625 0 
L 12.40625 0 
z
" id="DejaVuSans-49"/>
       <path d="M 31.78125 66.40625 
Q 24.171875 66.40625 20.328125 58.90625 
Q 16.5 51.421875 16.5 36.375 
Q 16.5 21.390625 20.328125 13.890625 
Q 24.171875 6.390625 31.78125 6.390625 
Q 39.453125 6.390625 43.28125 13.890625 
Q 47.125 21.390625 47.125 36.375 
Q 47.125 51.421875 43.28125 58.90625 
Q 39.453125 66.40625 31.78125 66.40625 
z
M 31.78125 74.21875 
Q 44.046875 74.21875 50.515625 64.515625 
Q 56.984375 54.828125 56.984375 36.375 
Q 56.984375 17.96875 50.515625 8.265625 
Q 44.046875 -1.421875 31.78125 -1.421875 
Q 19.53125 -1.421875 13.0625 8.265625 
Q 6.59375 17.96875 6.59375 36.375 
Q 6.59375 54.828125 13.0625 64.515625 
Q 19.53125 74.21875 31.78125 74.21875 
z
" id="DejaVuSans-48"/>
       <path d="M 10.6875 12.40625 
L 21 12.40625 
L 21 0 
L 10.6875 0 
z
" id="DejaVuSans-46"/>
      </defs>
      <g transform="translate(42.277344 322.182437)scale(0.1 -0.1)">
       <use xlink:href="#DejaVuSans-8722"/>
       <use x="83.789062" xlink:href="#DejaVuSans-49"/>
       <use x="147.412109" xlink:href="#DejaVuSans-48"/>
       <use x="211.035156" xlink:href="#DejaVuSans-46"/>
       <use x="242.822266" xlink:href="#DejaVuSans-48"/>
      </g>
     </g>
    </g>
    <g id="xtick_2">
     <g id="line2d_2">
      <g>
       <use style="stroke:#000000;stroke-width:0.8;" x="93.312" xlink:href="#mc2e97cfa30" y="307.584"/>
      </g>
     </g>
     <g id="text_2">
      <!-- −7.5 -->
      <defs>
       <path d="M 8.203125 72.90625 
L 55.078125 72.90625 
L 55.078125 68.703125 
L 28.609375 0 
L 18.3125 0 
L 43.21875 64.59375 
L 8.203125 64.59375 
z
" id="DejaVuSans-55"/>
       <path d="M 10.796875 72.90625 
L 49.515625 72.90625 
L 49.515625 64.59375 
L 19.828125 64.59375 
L 19.828125 46.734375 
Q 21.96875 47.46875 24.109375 47.828125 
Q 26.265625 48.1875 28.421875 48.1875 
Q 40.625 48.1875 47.75 41.5 
Q 54.890625 34.8125 54.890625 23.390625 
Q 54.890625 11.625 47.5625 5.09375 
Q 40.234375 -1.421875 26.90625 -1.421875 
Q 22.3125 -1.421875 17.546875 -0.640625 
Q 12.796875 0.140625 7.71875 1.703125 
L 7.71875 11.625 
Q 12.109375 9.234375 16.796875 8.0625 
Q 21.484375 6.890625 26.703125 6.890625 
Q 35.15625 6.890625 40.078125 11.328125 
Q 45.015625 15.765625 45.015625 23.390625 
Q 45.015625 31 40.078125 35.4375 
Q 35.15625 39.890625 26.703125 39.890625 
Q 22.75 39.890625 18.8125 39.015625 
Q 14.890625 38.140625 10.796875 36.28125 
z
" id="DejaVuSans-53"/>
      </defs>
      <g transform="translate(81.170594 322.182437)scale(0.1 -0.1)">
       <use xlink:href="#DejaVuSans-8722"/>
       <use x="83.789062" xlink:href="#DejaVuSans-55"/>
       <use x="147.412109" xlink:href="#DejaVuSans-46"/>
       <use x="179.199219" xlink:href="#DejaVuSans-53"/>
      </g>
     </g>
    </g>
    <g id="xtick_3">
     <g id="line2d_3">
      <g>
       <use style="stroke:#000000;stroke-width:0.8;" x="129.024" xlink:href="#mc2e97cfa30" y="307.584"/>
      </g>
     </g>
     <g id="text_3">
      <!-- −5.0 -->
      <g transform="translate(116.882594 322.182437)scale(0.1 -0.1)">
       <use xlink:href="#DejaVuSans-8722"/>
       <use x="83.789062" xlink:href="#DejaVuSans-53"/>
       <use x="147.412109" xlink:href="#DejaVuSans-46"/>
       <use x="179.199219" xlink:href="#DejaVuSans-48"/>
      </g>
     </g>
    </g>
    <g id="xtick_4">
     <g id="line2d_4">
      <g>
       <use style="stroke:#000000;stroke-width:0.8;" x="164.736" xlink:href="#mc2e97cfa30" y="307.584"/>
      </g>
     </g>
     <g id="text_4">
      <!-- −2.5 -->
      <defs>
       <path d="M 19.1875 8.296875 
L 53.609375 8.296875 
L 53.609375 0 
L 7.328125 0 
L 7.328125 8.296875 
Q 12.9375 14.109375 22.625 23.890625 
Q 32.328125 33.6875 34.8125 36.53125 
Q 39.546875 41.84375 41.421875 45.53125 
Q 43.3125 49.21875 43.3125 52.78125 
Q 43.3125 58.59375 39.234375 62.25 
Q 35.15625 65.921875 28.609375 65.921875 
Q 23.96875 65.921875 18.8125 64.3125 
Q 13.671875 62.703125 7.8125 59.421875 
L 7.8125 69.390625 
Q 13.765625 71.78125 18.9375 73 
Q 24.125 74.21875 28.421875 74.21875 
Q 39.75 74.21875 46.484375 68.546875 
Q 53.21875 62.890625 53.21875 53.421875 
Q 53.21875 48.921875 51.53125 44.890625 
Q 49.859375 40.875 45.40625 35.40625 
Q 44.1875 33.984375 37.640625 27.21875 
Q 31.109375 20.453125 19.1875 8.296875 
z
" id="DejaVuSans-50"/>
      </defs>
      <g transform="translate(152.594594 322.182437)scale(0.1 -0.1)">
       <use xlink:href="#DejaVuSans-8722"/>
       <use x="83.789062" xlink:href="#DejaVuSans-50"/>
       <use x="147.412109" xlink:href="#DejaVuSans-46"/>
       <use x="179.199219" xlink:href="#DejaVuSans-53"/>
      </g>
     </g>
    </g>
    <g id="xtick_5">
     <g id="line2d_5">
      <g>
       <use style="stroke:#000000;stroke-width:0.8;" x="200.448" xlink:href="#mc2e97cfa30" y="307.584"/>
      </g>
     </g>
     <g id="text_5">
      <!-- 0.0 -->
      <g transform="translate(192.496438 322.182437)scale(0.1 -0.1)">
       <use xlink:href="#DejaVuSans-48"/>
       <use x="63.623047" xlink:href="#DejaVuSans-46"/>
       <use x="95.410156" xlink:href="#DejaVuSans-48"/>
      </g>
     </g>
    </g>
    <g id="xtick_6">
     <g id="line2d_6">
      <g>
       <use style="stroke:#000000;stroke-width:0.8;" x="236.16" xlink:href="#mc2e97cfa30" y="307.584"/>
      </g>
     </g>
     <g id="text_6">
      <!-- 2.5 -->
      <g transform="translate(228.208438 322.182437)scale(0.1 -0.1)">
       <use xlink:href="#DejaVuSans-50"/>
       <use x="63.623047" xlink:href="#DejaVuSans-46"/>
       <use x="95.410156" xlink:href="#DejaVuSans-53"/>
      </g>
     </g>
    </g>
    <g id="xtick_7">
     <g id="line2d_7">
      <g>
       <use style="stroke:#000000;stroke-width:0.8;" x="271.872" xlink:href="#mc2e97cfa30" y="307.584"/>
      </g>
     </g>
     <g id="text_7">
      <!-- 5.0 -->
      <g transform="translate(263.920437 322.182437)scale(0.1 -0.1)">
       <use xlink:href="#DejaVuSans-53"/>
       <use x="63.623047" xlink:href="#DejaVuSans-46"/>
       <use x="95.410156" xlink:href="#DejaVuSans-48"/>
      </g>
     </g>
    </g>
    <g id="xtick_8">
     <g id="line2d_8">
      <g>
       <use style="stroke:#000000;stroke-width:0.8;" x="307.584" xlink:href="#mc2e97cfa30" y="307.584"/>
      </g>
     </g>
     <g id="text_8">
      <!-- 7.5 -->
      <g transform="translate(299.632438 322.182437)scale(0.1 -0.1)">
       <use xlink:href="#DejaVuSans-55"/>
       <use x="63.623047" xlink:href="#DejaVuSans-46"/>
       <use x="95.410156" xlink:href="#DejaVuSans-53"/>
      </g>
     </g>
    </g>
    <g id="xtick_9">
     <g id="line2d_9">
      <g>
       <use style="stroke:#000000;stroke-width:0.8;" x="343.296" xlink:href="#mc2e97cfa30" y="307.584"/>
      </g>
     </g>
     <g id="text_9">
      <!-- 10.0 -->
      <g transform="translate(332.163188 322.182437)scale(0.1 -0.1)">
       <use xlink:href="#DejaVuSans-49"/>
       <use x="63.623047" xlink:href="#DejaVuSans-48"/>
       <use x="127.246094" xlink:href="#DejaVuSans-46"/>
       <use x="159.033203" xlink:href="#DejaVuSans-48"/>
      </g>
     </g>
    </g>
   </g>
   <g id="matplotlib.axis_2">
    <g id="ytick_1">
     <g id="line2d_10">
      <defs>
       <path d="M 0 0 
L -3.5 0 
" id="mbc2a491847" style="stroke:#000000;stroke-width:0.8;"/>
      </defs>
      <g>
       <use style="stroke:#000000;stroke-width:0.8;" x="57.6" xlink:href="#mbc2a491847" y="307.584"/>
      </g>
     </g>
     <g id="text_10">
      <!-- −10.0 -->
      <g transform="translate(19.954687 311.383219)scale(0.1 -0.1)">
       <use xlink:href="#DejaVuSans-8722"/>
       <use x="83.789062" xlink:href="#DejaVuSans-49"/>
       <use x="147.412109" xlink:href="#DejaVuSans-48"/>
       <use x="211.035156" xlink:href="#DejaVuSans-46"/>
       <use x="242.822266" xlink:href="#DejaVuSans-48"/>
      </g>
     </g>
    </g>
    <g id="ytick_2">
     <g id="line2d_11">
      <g>
       <use style="stroke:#000000;stroke-width:0.8;" x="57.6" xlink:href="#mbc2a491847" y="274.32"/>
      </g>
     </g>
     <g id="text_11">
      <!-- −7.5 -->
      <g transform="translate(26.317187 278.119219)scale(0.1 -0.1)">
       <use xlink:href="#DejaVuSans-8722"/>
       <use x="83.789062" xlink:href="#DejaVuSans-55"/>
       <use x="147.412109" xlink:href="#DejaVuSans-46"/>
       <use x="179.199219" xlink:href="#DejaVuSans-53"/>
      </g>
     </g>
    </g>
    <g id="ytick_3">
     <g id="line2d_12">
      <g>
       <use style="stroke:#000000;stroke-width:0.8;" x="57.6" xlink:href="#mbc2a491847" y="241.056"/>
      </g>
     </g>
     <g id="text_12">
      <!-- −5.0 -->
      <g transform="translate(26.317187 244.855219)scale(0.1 -0.1)">
       <use xlink:href="#DejaVuSans-8722"/>
       <use x="83.789062" xlink:href="#DejaVuSans-53"/>
       <use x="147.412109" xlink:href="#DejaVuSans-46"/>
       <use x="179.199219" xlink:href="#DejaVuSans-48"/>
      </g>
     </g>
    </g>
    <g id="ytick_4">
     <g id="line2d_13">
      <g>
       <use style="stroke:#000000;stroke-width:0.8;" x="57.6" xlink:href="#mbc2a491847" y="207.792"/>
      </g>
     </g>
     <g id="text_13">
      <!-- −2.5 -->
      <g transform="translate(26.317187 211.591219)scale(0.1 -0.1)">
       <use xlink:href="#DejaVuSans-8722"/>
       <use x="83.789062" xlink:href="#DejaVuSans-50"/>
       <use x="147.412109" xlink:href="#DejaVuSans-46"/>
       <use x="179.199219" xlink:href="#DejaVuSans-53"/>
      </g>
     </g>
    </g>
    <g id="ytick_5">
     <g id="line2d_14">
      <g>
       <use style="stroke:#000000;stroke-width:0.8;" x="57.6" xlink:href="#mbc2a491847" y="174.528"/>
      </g>
     </g>
     <g id="text_14">
      <!-- 0.0 -->
      <g transform="translate(34.696875 178.327219)scale(0.1 -0.1)">
       <use xlink:href="#DejaVuSans-48"/>
       <use x="63.623047" xlink:href="#DejaVuSans-46"/>
       <use x="95.410156" xlink:href="#DejaVuSans-48"/>
      </g>
     </g>
    </g>
    <g id="ytick_6">
     <g id="line2d_15">
      <g>
       <use style="stroke:#000000;stroke-width:0.8;" x="57.6" xlink:href="#mbc2a491847" y="141.264"/>
      </g>
     </g>
     <g id="text_15">
      <!-- 2.5 -->
      <g transform="translate(34.696875 145.063219)scale(0.1 -0.1)">
       <use xlink:href="#DejaVuSans-50"/>
       <use x="63.623047" xlink:href="#DejaVuSans-46"/>
       <use x="95.410156" xlink:href="#DejaVuSans-53"/>
      </g>
     </g>
    </g>
    <g id="ytick_7">
     <g id="line2d_16">
      <g>
       <use style="stroke:#000000;stroke-width:0.8;" x="57.6" xlink:href="#mbc2a491847" y="108"/>
      </g>
     </g>
     <g id="text_16">
      <!-- 5.0 -->
      <g transform="translate(34.696875 111.799219)scale(0.1 -0.1)">
       <use xlink:href="#DejaVuSans-53"/>
       <use x="63.623047" xlink:href="#DejaVuSans-46"/>
       <use x="95.410156" xlink:href="#DejaVuSans-48"/>
      </g>
     </g>
    </g>
    <g id="ytick_8">
     <g id="line2d_17">
      <g>
       <use style="stroke:#000000;stroke-width:0.8;" x="57.6" xlink:href="#mbc2a491847" y="74.736"/>
      </g>
     </g>
     <g id="text_17">
      <!-- 7.5 -->
      <g transform="translate(34.696875 78.535219)scale(0.1 -0.1)">
       <use xlink:href="#DejaVuSans-55"/>
       <use x="63.623047" xlink:href="#DejaVuSans-46"/>
       <use x="95.410156" xlink:href="#DejaVuSans-53"/>
      </g>
     </g>
    </g>
    <g id="ytick_9">
     <g id="line2d_18">
      <g>
       <use style="stroke:#000000;stroke-width:0.8;" x="57.6" xlink:href="#mbc2a491847" y="41.472"/>
      </g>
     </g>
     <g id="text_18">
      <!-- 10.0 -->
      <g transform="translate(28.334375 45.271219)scale(0.1 -0.1)">
       <use xlink:href="#DejaVuSans-49"/>
       <use x="63.623047" xlink:href="#DejaVuSans-48"/>
       <use x="127.246094" xlink:href="#DejaVuSans-46"/>
       <use x="159.033203" xlink:href="#DejaVuSans-48"/>
      </g>
     </g>
    </g>
   </g>
   <g id="LineCollection_1"/>
   <g id="LineCollection_2">
    <path clip-path="url(#p3102a88488)" d="M 82.418309 307.584 
L 80.686545 306.071271 
L 80.015807 304.896 
L 79.790376 302.208 
L 80.686545 299.698992 
L 80.815403 299.52 
L 83.572364 297.782473 
L 86.458182 297.623604 
L 89.344 298.920714 
L 89.980942 299.52 
L 91.329658 302.208 
L 91.10081 304.896 
L 89.344 307.190693 
L 88.687094 307.584 
" style="fill:none;stroke:#00df90;stroke-width:1.5;"/>
    <path clip-path="url(#p3102a88488)" d="M 312.208906 307.584 
L 311.552 307.190693 
L 309.79519 304.896 
L 309.566342 302.208 
L 310.915058 299.52 
L 311.552 298.920714 
L 314.437818 297.623604 
L 317.323636 297.782473 
L 320.080597 299.52 
L 320.209455 299.698992 
L 321.105624 302.208 
L 320.880193 304.896 
L 320.209455 306.071271 
L 318.477691 307.584 
" style="fill:none;stroke:#00df90;stroke-width:1.5;"/>
    <path clip-path="url(#p3102a88488)" d="M 88.687094 41.472 
L 89.344 41.865307 
L 91.10081 44.16 
L 91.329658 46.848 
L 89.980942 49.536 
L 89.344 50.135286 
L 86.458182 51.432396 
L 83.572364 51.273527 
L 80.815403 49.536 
L 80.686545 49.357008 
L 79.790376 46.848 
L 80.015807 44.16 
L 80.686545 42.984729 
L 82.418309 41.472 
" style="fill:none;stroke:#00df90;stroke-width:1.5;"/>
    <path clip-path="url(#p3102a88488)" d="M 318.477691 41.472 
L 320.209455 42.984729 
L 320.880193 44.16 
L 321.105624 46.848 
L 320.209455 49.357008 
L 320.080597 49.536 
L 317.323636 51.273527 
L 314.437818 51.432396 
L 311.552 50.135286 
L 310.915058 49.536 
L 309.566342 46.848 
L 309.79519 44.16 
L 311.552 41.865307 
L 312.208906 41.472 
" style="fill:none;stroke:#00df90;stroke-width:1.5;"/>
   </g>
   <g id="LineCollection_3">
    <path clip-path="url(#p3102a88488)" d="M 77.524179 307.584 
L 76.597424 304.896 
L 76.457671 302.208 
L 77.003682 299.52 
L 77.800727 297.806186 
L 78.529517 296.832 
L 80.686545 295.031635 
L 83.045983 294.144 
L 83.572364 293.991719 
L 86.458182 293.926842 
L 87.443566 294.144 
L 89.344 294.676177 
L 92.229818 296.432389 
L 92.653316 296.832 
L 94.495761 299.52 
L 95.115636 301.513245 
L 95.284806 302.208 
L 95.186981 304.896 
L 95.115636 305.100717 
L 93.980194 307.584 
" style="fill:none;stroke:#00bfa0;stroke-width:1.5;"/>
    <path clip-path="url(#p3102a88488)" d="M 306.915806 307.584 
L 305.780364 305.100717 
L 305.709019 304.896 
L 305.611194 302.208 
L 305.780364 301.513245 
L 306.400239 299.52 
L 308.242684 296.832 
L 308.666182 296.432389 
L 311.552 294.676177 
L 313.452434 294.144 
L 314.437818 293.926842 
L 317.323636 293.991719 
L 317.850017 294.144 
L 320.209455 295.031635 
L 322.366483 296.832 
L 323.095273 297.806186 
L 323.892318 299.52 
L 324.438329 302.208 
L 324.298576 304.896 
L 323.371821 307.584 
" style="fill:none;stroke:#00bfa0;stroke-width:1.5;"/>
    <path clip-path="url(#p3102a88488)" d="M 343.221643 307.584 
L 342.767104 304.896 
L 342.679497 302.208 
L 342.905367 299.52 
L 343.296 297.598051 
" style="fill:none;stroke:#00bfa0;stroke-width:1.5;"/>
    <path clip-path="url(#p3102a88488)" d="M 57.6 297.598051 
L 57.990633 299.52 
L 58.216503 302.208 
L 58.128896 304.896 
L 57.674357 307.584 
" style="fill:none;stroke:#00bfa0;stroke-width:1.5;"/>
    <path clip-path="url(#p3102a88488)" d="M 343.296 51.457949 
L 342.905367 49.536 
L 342.679497 46.848 
L 342.767104 44.16 
L 343.221643 41.472 
" style="fill:none;stroke:#00bfa0;stroke-width:1.5;"/>
    <path clip-path="url(#p3102a88488)" d="M 57.674357 41.472 
L 58.128896 44.16 
L 58.216503 46.848 
L 57.990633 49.536 
L 57.6 51.457949 
" style="fill:none;stroke:#00bfa0;stroke-width:1.5;"/>
    <path clip-path="url(#p3102a88488)" d="M 93.980194 41.472 
L 95.115636 43.955283 
L 95.186981 44.16 
L 95.284806 46.848 
L 95.115636 47.542755 
L 94.495761 49.536 
L 92.653316 52.224 
L 92.229818 52.623611 
L 89.344 54.379823 
L 87.443566 54.912 
L 86.458182 55.129158 
L 83.572364 55.064281 
L 83.045983 54.912 
L 80.686545 54.024365 
L 78.529517 52.224 
L 77.800727 51.249814 
L 77.003682 49.536 
L 76.457671 46.848 
L 76.597424 44.16 
L 77.524179 41.472 
" style="fill:none;stroke:#00bfa0;stroke-width:1.5;"/>
    <path clip-path="url(#p3102a88488)" d="M 323.371821 41.472 
L 324.298576 44.16 
L 324.438329 46.848 
L 323.892318 49.536 
L 323.095273 51.249814 
L 322.366483 52.224 
L 320.209455 54.024365 
L 317.850017 54.912 
L 317.323636 55.064281 
L 314.437818 55.129158 
L 313.452434 54.912 
L 311.552 54.379823 
L 308.666182 52.623611 
L 308.242684 52.224 
L 306.400239 49.536 
L 305.780364 47.542755 
L 305.611194 46.848 
L 305.709019 44.16 
L 305.780364 43.955283 
L 306.915806 41.472 
" style="fill:none;stroke:#00bfa0;stroke-width:1.5;"/>
   </g>
   <g id="LineCollection_4">
    <path clip-path="url(#p3102a88488)" d="M 74.73185 307.584 
L 74.137272 304.896 
L 74.044234 302.208 
L 74.386168 299.52 
L 74.914909 297.718533 
L 75.284204 296.832 
L 77.149342 294.144 
L 77.800727 293.496042 
L 80.686545 291.835262 
L 82.174111 291.456 
L 83.572364 291.156935 
L 86.458182 291.116207 
L 88.490887 291.456 
L 89.344 291.622778 
L 92.229818 292.826206 
L 94.150939 294.144 
L 95.115636 295.055739 
L 96.474093 296.832 
L 97.729134 299.52 
L 98.001455 300.78662 
L 98.261019 302.208 
L 98.196467 304.896 
L 98.001455 305.660424 
L 97.410338 307.584 
" style="fill:none;stroke:#009fb0;stroke-width:1.5;"/>
    <path clip-path="url(#p3102a88488)" d="M 303.485662 307.584 
L 302.894545 305.660424 
L 302.699533 304.896 
L 302.634981 302.208 
L 302.894545 300.78662 
L 303.166866 299.52 
L 304.421907 296.832 
L 305.780364 295.055739 
L 306.745061 294.144 
L 308.666182 292.826206 
L 311.552 291.622778 
L 312.405113 291.456 
L 314.437818 291.116207 
L 317.323636 291.156935 
L 318.721889 291.456 
L 320.209455 291.835262 
L 323.095273 293.496042 
L 323.746658 294.144 
L 325.611796 296.832 
L 325.981091 297.718533 
L 326.509832 299.52 
L 326.851766 302.208 
L 326.758728 304.896 
L 326.16415 307.584 
" style="fill:none;stroke:#009fb0;stroke-width:1.5;"/>
    <path clip-path="url(#p3102a88488)" d="M 341.895968 307.584 
L 341.51829 304.896 
L 341.446398 302.208 
L 341.635745 299.52 
L 342.101533 296.832 
L 342.92074 294.144 
L 343.296 293.306324 
" style="fill:none;stroke:#009fb0;stroke-width:1.5;"/>
    <path clip-path="url(#p3102a88488)" d="M 57.6 293.306324 
L 57.97526 294.144 
L 58.794467 296.832 
L 59.260255 299.52 
L 59.449602 302.208 
L 59.37771 304.896 
L 59.000032 307.584 
" style="fill:none;stroke:#009fb0;stroke-width:1.5;"/>
    <path clip-path="url(#p3102a88488)" d="M 343.296 55.749676 
L 342.92074 54.912 
L 342.101533 52.224 
L 341.635745 49.536 
L 341.446398 46.848 
L 341.51829 44.16 
L 341.895968 41.472 
" style="fill:none;stroke:#009fb0;stroke-width:1.5;"/>
    <path clip-path="url(#p3102a88488)" d="M 59.000032 41.472 
L 59.37771 44.16 
L 59.449602 46.848 
L 59.260255 49.536 
L 58.794467 52.224 
L 57.97526 54.912 
L 57.6 55.749676 
" style="fill:none;stroke:#009fb0;stroke-width:1.5;"/>
    <path clip-path="url(#p3102a88488)" d="M 97.410338 41.472 
L 98.001455 43.395576 
L 98.196467 44.16 
L 98.261019 46.848 
L 98.001455 48.26938 
L 97.729134 49.536 
L 96.474093 52.224 
L 95.115636 54.000261 
L 94.150939 54.912 
L 92.229818 56.229794 
L 89.344 57.433222 
L 88.490887 57.6 
L 86.458182 57.939793 
L 83.572364 57.899065 
L 82.174111 57.6 
L 80.686545 57.220738 
L 77.800727 55.559958 
L 77.149342 54.912 
L 75.284204 52.224 
L 74.914909 51.337467 
L 74.386168 49.536 
L 74.044234 46.848 
L 74.137272 44.16 
L 74.73185 41.472 
" style="fill:none;stroke:#009fb0;stroke-width:1.5;"/>
    <path clip-path="url(#p3102a88488)" d="M 326.16415 41.472 
L 326.758728 44.16 
L 326.851766 46.848 
L 326.509832 49.536 
L 325.981091 51.337467 
L 325.611796 52.224 
L 323.746658 54.912 
L 323.095273 55.559958 
L 320.209455 57.220738 
L 318.721889 57.6 
L 317.323636 57.899065 
L 314.437818 57.939793 
L 312.405113 57.6 
L 311.552 57.433222 
L 308.666182 56.229794 
L 306.745061 54.912 
L 305.780364 54.000261 
L 304.421907 52.224 
L 303.166866 49.536 
L 302.894545 48.26938 
L 302.634981 46.848 
L 302.699533 44.16 
L 302.894545 43.395576 
L 303.485662 41.472 
" style="fill:none;stroke:#009fb0;stroke-width:1.5;"/>
   </g>
   <g id="LineCollection_5">
    <path clip-path="url(#p3102a88488)" d="M 72.554228 307.584 
L 72.075512 304.896 
L 72.029091 303.29154 
L 72.003528 302.208 
L 72.029091 301.889164 
L 72.268369 299.52 
L 72.912541 296.832 
L 74.040271 294.144 
L 74.914909 292.7674 
L 76.216706 291.456 
L 77.800727 290.283723 
L 80.686545 289.118477 
L 82.671691 288.768 
L 83.572364 288.626222 
L 86.458182 288.600555 
L 87.78465 288.768 
L 89.344 288.985239 
L 92.229818 289.845296 
L 95.115636 291.318988 
L 95.307334 291.456 
L 98.001455 294.026301 
L 98.093546 294.144 
L 99.61266 296.832 
L 100.502743 299.52 
L 100.887273 302.07072 
L 100.905882 302.208 
L 100.887273 303.366992 
L 100.860733 304.896 
L 100.29543 307.584 
" style="fill:none;stroke:#007fc0;stroke-width:1.5;"/>
    <path clip-path="url(#p3102a88488)" d="M 126.763937 307.584 
L 125.246594 304.896 
L 125.244325 302.208 
L 126.608469 299.52 
L 126.859636 299.266712 
L 129.745455 297.93715 
L 132.631273 298.001279 
L 135.517091 299.362102 
L 135.689502 299.52 
L 137.239629 302.208 
L 137.305606 304.896 
L 135.680608 307.584 
" style="fill:none;stroke:#007fc0;stroke-width:1.5;"/>
    <path clip-path="url(#p3102a88488)" d="M 265.215392 307.584 
L 263.590394 304.896 
L 263.656371 302.208 
L 265.206498 299.52 
L 265.378909 299.362102 
L 268.264727 298.001279 
L 271.150545 297.93715 
L 274.036364 299.266712 
L 274.287531 299.52 
L 275.651675 302.208 
L 275.649406 304.896 
L 274.132063 307.584 
" style="fill:none;stroke:#007fc0;stroke-width:1.5;"/>
    <path clip-path="url(#p3102a88488)" d="M 300.60057 307.584 
L 300.035267 304.896 
L 300.008727 303.366992 
L 299.990118 302.208 
L 300.008727 302.07072 
L 300.393257 299.52 
L 301.28334 296.832 
L 302.802454 294.144 
L 302.894545 294.026301 
L 305.588666 291.456 
L 305.780364 291.318988 
L 308.666182 289.845296 
L 311.552 288.985239 
L 313.11135 288.768 
L 314.437818 288.600555 
L 317.323636 288.626222 
L 318.224309 288.768 
L 320.209455 289.118477 
L 323.095273 290.283723 
L 324.679294 291.456 
L 325.981091 292.7674 
L 326.855729 294.144 
L 327.983459 296.832 
L 328.627631 299.52 
L 328.866909 301.889164 
L 328.892472 302.208 
L 328.866909 303.29154 
L 328.820488 304.896 
L 328.341772 307.584 
" style="fill:none;stroke:#007fc0;stroke-width:1.5;"/>
    <path clip-path="url(#p3102a88488)" d="M 340.570292 307.584 
L 340.410182 306.193341 
L 340.26733 304.896 
L 340.210113 302.208 
L 340.365369 299.52 
L 340.410182 299.183304 
L 340.74011 296.832 
L 341.39684 294.144 
L 342.478462 291.456 
L 343.296 290.101376 
" style="fill:none;stroke:#007fc0;stroke-width:1.5;"/>
    <path clip-path="url(#p3102a88488)" d="M 57.6 290.101376 
L 58.417538 291.456 
L 59.49916 294.144 
L 60.15589 296.832 
L 60.485818 299.183304 
L 60.530631 299.52 
L 60.685887 302.208 
L 60.62867 304.896 
L 60.485818 306.193341 
L 60.325708 307.584 
" style="fill:none;stroke:#007fc0;stroke-width:1.5;"/>
    <path clip-path="url(#p3102a88488)" d="M 343.296 58.954624 
L 342.478462 57.6 
L 341.39684 54.912 
L 340.74011 52.224 
L 340.410182 49.872696 
L 340.365369 49.536 
L 340.210113 46.848 
L 340.26733 44.16 
L 340.410182 42.862659 
L 340.570292 41.472 
" style="fill:none;stroke:#007fc0;stroke-width:1.5;"/>
    <path clip-path="url(#p3102a88488)" d="M 60.325708 41.472 
L 60.485818 42.862659 
L 60.62867 44.16 
L 60.685887 46.848 
L 60.530631 49.536 
L 60.485818 49.872696 
L 60.15589 52.224 
L 59.49916 54.912 
L 58.417538 57.6 
L 57.6 58.954624 
" style="fill:none;stroke:#007fc0;stroke-width:1.5;"/>
    <path clip-path="url(#p3102a88488)" d="M 100.29543 41.472 
L 100.860733 44.16 
L 100.887273 45.689008 
L 100.905882 46.848 
L 100.887273 46.98528 
L 100.502743 49.536 
L 99.61266 52.224 
L 98.093546 54.912 
L 98.001455 55.029699 
L 95.307334 57.6 
L 95.115636 57.737012 
L 92.229818 59.210704 
L 89.344 60.070761 
L 87.78465 60.288 
L 86.458182 60.455445 
L 83.572364 60.429778 
L 82.671691 60.288 
L 80.686545 59.937523 
L 77.800727 58.772277 
L 76.216706 57.6 
L 74.914909 56.2886 
L 74.040271 54.912 
L 72.912541 52.224 
L 72.268369 49.536 
L 72.029091 47.166836 
L 72.003528 46.848 
L 72.029091 45.76446 
L 72.075512 44.16 
L 72.554228 41.472 
" style="fill:none;stroke:#007fc0;stroke-width:1.5;"/>
    <path clip-path="url(#p3102a88488)" d="M 135.680608 41.472 
L 137.305606 44.16 
L 137.239629 46.848 
L 135.689502 49.536 
L 135.517091 49.693898 
L 132.631273 51.054721 
L 129.745455 51.11885 
L 126.859636 49.789288 
L 126.608469 49.536 
L 125.244325 46.848 
L 125.246594 44.16 
L 126.763937 41.472 
" style="fill:none;stroke:#007fc0;stroke-width:1.5;"/>
    <path clip-path="url(#p3102a88488)" d="M 274.132063 41.472 
L 275.649406 44.16 
L 275.651675 46.848 
L 274.287531 49.536 
L 274.036364 49.789288 
L 271.150545 51.11885 
L 268.264727 51.054721 
L 265.378909 49.693898 
L 265.206498 49.536 
L 263.656371 46.848 
L 263.590394 44.16 
L 265.215392 41.472 
" style="fill:none;stroke:#007fc0;stroke-width:1.5;"/>
    <path clip-path="url(#p3102a88488)" d="M 328.341772 41.472 
L 328.820488 44.16 
L 328.866909 45.76446 
L 328.892472 46.848 
L 328.866909 47.166836 
L 328.627631 49.536 
L 327.983459 52.224 
L 326.855729 54.912 
L 325.981091 56.2886 
L 324.679294 57.6 
L 323.095273 58.772277 
L 320.209455 59.937523 
L 318.224309 60.288 
L 317.323636 60.429778 
L 314.437818 60.455445 
L 313.11135 60.288 
L 311.552 60.070761 
L 308.666182 59.210704 
L 305.780364 57.737012 
L 305.588666 57.6 
L 302.894545 55.029699 
L 302.802454 54.912 
L 301.28334 52.224 
L 300.393257 49.536 
L 300.008727 46.98528 
L 299.990118 46.848 
L 300.008727 45.689008 
L 300.035267 44.16 
L 300.60057 41.472 
" style="fill:none;stroke:#007fc0;stroke-width:1.5;"/>
   </g>
   <g id="LineCollection_6">
    <path clip-path="url(#p3102a88488)" d="M 70.668055 307.584 
L 70.371221 304.896 
L 70.322308 302.208 
L 70.487622 299.52 
L 70.882242 296.832 
L 71.572653 294.144 
L 72.029091 292.956386 
L 72.862299 291.456 
L 74.914909 289.051663 
L 75.318896 288.768 
L 77.800727 287.406876 
L 80.686545 286.592782 
L 83.572364 286.243629 
L 86.458182 286.227851 
L 89.344 286.510127 
L 92.229818 287.121077 
L 95.115636 288.167316 
L 96.238895 288.768 
L 98.001455 289.955961 
L 99.562339 291.456 
L 100.887273 293.273525 
L 101.388405 294.144 
L 102.457704 296.832 
L 103.084445 299.52 
L 103.370464 302.208 
L 103.341079 304.896 
L 102.95017 307.584 
" style="fill:none;stroke:#005fd0;stroke-width:1.5;"/>
    <path clip-path="url(#p3102a88488)" d="M 120.537331 307.584 
L 119.949413 304.896 
L 119.937845 302.208 
L 120.439228 299.52 
L 121.088 297.831522 
L 121.640808 296.832 
L 123.973818 294.213199 
L 124.080443 294.144 
L 126.859636 292.775417 
L 129.745455 292.184848 
L 132.631273 292.230671 
L 135.517091 292.875795 
L 138.264306 294.144 
L 138.402909 294.226768 
L 141.166869 296.832 
L 141.288727 297.008272 
L 142.586023 299.52 
L 143.273225 302.208 
L 143.31557 304.896 
L 142.632355 307.584 
" style="fill:none;stroke:#005fd0;stroke-width:1.5;"/>
    <path clip-path="url(#p3102a88488)" d="M 173.830213 307.584 
L 173.032727 306.865311 
L 171.98861 304.896 
L 172.210176 302.208 
L 173.032727 300.902564 
L 174.89906 299.52 
L 175.918545 299.098646 
L 178.804364 299.151909 
L 179.642362 299.52 
L 181.690182 301.118001 
L 182.390242 302.208 
L 182.641188 304.896 
L 181.690182 306.697229 
L 180.75308 307.584 
" style="fill:none;stroke:#005fd0;stroke-width:1.5;"/>
    <path clip-path="url(#p3102a88488)" d="M 220.14292 307.584 
L 219.205818 306.697229 
L 218.254812 304.896 
L 218.505758 302.208 
L 219.205818 301.118001 
L 221.253638 299.52 
L 222.091636 299.151909 
L 224.977455 299.098646 
L 225.99694 299.52 
L 227.863273 300.902564 
L 228.685824 302.208 
L 228.90739 304.896 
L 227.863273 306.865311 
L 227.065787 307.584 
" style="fill:none;stroke:#005fd0;stroke-width:1.5;"/>
    <path clip-path="url(#p3102a88488)" d="M 258.263645 307.584 
L 257.58043 304.896 
L 257.622775 302.208 
L 258.309977 299.52 
L 259.607273 297.008272 
L 259.729131 296.832 
L 262.493091 294.226768 
L 262.631694 294.144 
L 265.378909 292.875795 
L 268.264727 292.230671 
L 271.150545 292.184848 
L 274.036364 292.775417 
L 276.815557 294.144 
L 276.922182 294.213199 
L 279.255192 296.832 
L 279.808 297.831522 
L 280.456772 299.52 
L 280.958155 302.208 
L 280.946587 304.896 
L 280.358669 307.584 
" style="fill:none;stroke:#005fd0;stroke-width:1.5;"/>
    <path clip-path="url(#p3102a88488)" d="M 297.94583 307.584 
L 297.554921 304.896 
L 297.525536 302.208 
L 297.811555 299.52 
L 298.438296 296.832 
L 299.507595 294.144 
L 300.008727 293.273525 
L 301.333661 291.456 
L 302.894545 289.955961 
L 304.657105 288.768 
L 305.780364 288.167316 
L 308.666182 287.121077 
L 311.552 286.510127 
L 314.437818 286.227851 
L 317.323636 286.243629 
L 320.209455 286.592782 
L 323.095273 287.406876 
L 325.577104 288.768 
L 325.981091 289.051663 
L 328.033701 291.456 
L 328.866909 292.956386 
L 329.323347 294.144 
L 330.013758 296.832 
L 330.408378 299.52 
L 330.573692 302.208 
L 330.524779 304.896 
L 330.227945 307.584 
" style="fill:none;stroke:#005fd0;stroke-width:1.5;"/>
    <path clip-path="url(#p3102a88488)" d="M 339.227922 307.584 
L 338.999475 304.896 
L 338.95706 302.208 
L 339.074004 299.52 
L 339.360039 296.832 
L 339.862712 294.144 
L 340.410182 292.272448 
L 340.685872 291.456 
L 342.057439 288.768 
L 343.296 287.248449 
" style="fill:none;stroke:#005fd0;stroke-width:1.5;"/>
    <path clip-path="url(#p3102a88488)" d="M 57.6 287.248449 
L 58.838561 288.768 
L 60.210128 291.456 
L 60.485818 292.272448 
L 61.033288 294.144 
L 61.535961 296.832 
L 61.821996 299.52 
L 61.93894 302.208 
L 61.896525 304.896 
L 61.668078 307.584 
" style="fill:none;stroke:#005fd0;stroke-width:1.5;"/>
    <path clip-path="url(#p3102a88488)" d="M 343.296 267.248226 
L 342.559709 264.576 
L 342.236655 261.888 
L 342.221942 259.2 
L 342.489304 256.512 
L 343.074037 253.824 
L 343.296 253.176674 
" style="fill:none;stroke:#005fd0;stroke-width:1.5;"/>
    <path clip-path="url(#p3102a88488)" d="M 57.6 253.176674 
L 57.821963 253.824 
L 58.406696 256.512 
L 58.674058 259.2 
L 58.659345 261.888 
L 58.336291 264.576 
L 57.6 267.248226 
" style="fill:none;stroke:#005fd0;stroke-width:1.5;"/>
    <path clip-path="url(#p3102a88488)" d="M 343.296 95.879326 
L 343.074037 95.232 
L 342.489304 92.544 
L 342.221942 89.856 
L 342.236655 87.168 
L 342.559709 84.48 
L 343.296 81.807774 
" style="fill:none;stroke:#005fd0;stroke-width:1.5;"/>
    <path clip-path="url(#p3102a88488)" d="M 57.6 81.807774 
L 58.336291 84.48 
L 58.659345 87.168 
L 58.674058 89.856 
L 58.406696 92.544 
L 57.821963 95.232 
L 57.6 95.879326 
" style="fill:none;stroke:#005fd0;stroke-width:1.5;"/>
    <path clip-path="url(#p3102a88488)" d="M 343.296 61.807551 
L 342.057439 60.288 
L 340.685872 57.6 
L 340.410182 56.783552 
L 339.862712 54.912 
L 339.360039 52.224 
L 339.074004 49.536 
L 338.95706 46.848 
L 338.999475 44.16 
L 339.227922 41.472 
" style="fill:none;stroke:#005fd0;stroke-width:1.5;"/>
    <path clip-path="url(#p3102a88488)" d="M 61.668078 41.472 
L 61.896525 44.16 
L 61.93894 46.848 
L 61.821996 49.536 
L 61.535961 52.224 
L 61.033288 54.912 
L 60.485818 56.783552 
L 60.210128 57.6 
L 58.838561 60.288 
L 57.6 61.807551 
" style="fill:none;stroke:#005fd0;stroke-width:1.5;"/>
    <path clip-path="url(#p3102a88488)" d="M 102.95017 41.472 
L 103.341079 44.16 
L 103.370464 46.848 
L 103.084445 49.536 
L 102.457704 52.224 
L 101.388405 54.912 
L 100.887273 55.782475 
L 99.562339 57.6 
L 98.001455 59.100039 
L 96.238895 60.288 
L 95.115636 60.888684 
L 92.229818 61.934923 
L 89.344 62.545873 
L 86.458182 62.828149 
L 83.572364 62.812371 
L 80.686545 62.463218 
L 77.800727 61.649124 
L 75.318896 60.288 
L 74.914909 60.004337 
L 72.862299 57.6 
L 72.029091 56.099614 
L 71.572653 54.912 
L 70.882242 52.224 
L 70.487622 49.536 
L 70.322308 46.848 
L 70.371221 44.16 
L 70.668055 41.472 
" style="fill:none;stroke:#005fd0;stroke-width:1.5;"/>
    <path clip-path="url(#p3102a88488)" d="M 142.632355 41.472 
L 143.31557 44.16 
L 143.273225 46.848 
L 142.586023 49.536 
L 141.288727 52.047728 
L 141.166869 52.224 
L 138.402909 54.829232 
L 138.264306 54.912 
L 135.517091 56.180205 
L 132.631273 56.825329 
L 129.745455 56.871152 
L 126.859636 56.280583 
L 124.080443 54.912 
L 123.973818 54.842801 
L 121.640808 52.224 
L 121.088 51.224478 
L 120.439228 49.536 
L 119.937845 46.848 
L 119.949413 44.16 
L 120.537331 41.472 
" style="fill:none;stroke:#005fd0;stroke-width:1.5;"/>
    <path clip-path="url(#p3102a88488)" d="M 180.75308 41.472 
L 181.690182 42.358771 
L 182.641188 44.16 
L 182.390242 46.848 
L 181.690182 47.937999 
L 179.642362 49.536 
L 178.804364 49.904091 
L 175.918545 49.957354 
L 174.89906 49.536 
L 173.032727 48.153436 
L 172.210176 46.848 
L 171.98861 44.16 
L 173.032727 42.190689 
L 173.830213 41.472 
" style="fill:none;stroke:#005fd0;stroke-width:1.5;"/>
    <path clip-path="url(#p3102a88488)" d="M 227.065787 41.472 
L 227.863273 42.190689 
L 228.90739 44.16 
L 228.685824 46.848 
L 227.863273 48.153436 
L 225.99694 49.536 
L 224.977455 49.957354 
L 222.091636 49.904091 
L 221.253638 49.536 
L 219.205818 47.937999 
L 218.505758 46.848 
L 218.254812 44.16 
L 219.205818 42.358771 
L 220.14292 41.472 
" style="fill:none;stroke:#005fd0;stroke-width:1.5;"/>
    <path clip-path="url(#p3102a88488)" d="M 280.358669 41.472 
L 280.946587 44.16 
L 280.958155 46.848 
L 280.456772 49.536 
L 279.808 51.224478 
L 279.255192 52.224 
L 276.922182 54.842801 
L 276.815557 54.912 
L 274.036364 56.280583 
L 271.150545 56.871152 
L 268.264727 56.825329 
L 265.378909 56.180205 
L 262.631694 54.912 
L 262.493091 54.829232 
L 259.729131 52.224 
L 259.607273 52.047728 
L 258.309977 49.536 
L 257.622775 46.848 
L 257.58043 44.16 
L 258.263645 41.472 
" style="fill:none;stroke:#005fd0;stroke-width:1.5;"/>
    <path clip-path="url(#p3102a88488)" d="M 330.227945 41.472 
L 330.524779 44.16 
L 330.573692 46.848 
L 330.408378 49.536 
L 330.013758 52.224 
L 329.323347 54.912 
L 328.866909 56.099614 
L 328.033701 57.6 
L 325.981091 60.004337 
L 325.577104 60.288 
L 323.095273 61.649124 
L 320.209455 62.463218 
L 317.323636 62.812371 
L 314.437818 62.828149 
L 311.552 62.545873 
L 308.666182 61.934923 
L 305.780364 60.888684 
L 304.657105 60.288 
L 302.894545 59.100039 
L 301.333661 57.6 
L 300.008727 55.782475 
L 299.507595 54.912 
L 298.438296 52.224 
L 297.811555 49.536 
L 297.525536 46.848 
L 297.554921 44.16 
L 297.94583 41.472 
" style="fill:none;stroke:#005fd0;stroke-width:1.5;"/>
    <path clip-path="url(#p3102a88488)" d="M 80.686545 268.155588 
L 79.155487 267.264 
L 77.800727 265.943054 
L 76.968781 264.576 
L 76.245169 261.888 
L 76.265164 259.2 
L 76.981238 256.512 
L 77.800727 255.001765 
L 78.889687 253.824 
L 80.686545 252.557459 
L 83.572364 251.731372 
L 86.458182 251.840148 
L 89.344 252.796587 
L 90.960573 253.824 
L 92.229818 255.021233 
L 93.308926 256.512 
L 94.312546 259.2 
L 94.420853 261.888 
L 93.559004 264.576 
L 92.229818 266.284812 
L 91.08021 267.264 
L 89.344 268.139228 
L 86.458182 268.859696 
L 83.572364 268.88532 
L 80.686545 268.155588 
" style="fill:none;stroke:#005fd0;stroke-width:1.5;"/>
    <path clip-path="url(#p3102a88488)" d="M 311.552 268.139228 
L 309.81579 267.264 
L 308.666182 266.284812 
L 307.336996 264.576 
L 306.475147 261.888 
L 306.583454 259.2 
L 307.587074 256.512 
L 308.666182 255.021233 
L 309.935427 253.824 
L 311.552 252.796587 
L 314.437818 251.840148 
L 317.323636 251.731372 
L 320.209455 252.557459 
L 322.006313 253.824 
L 323.095273 255.001765 
L 323.914762 256.512 
L 324.630836 259.2 
L 324.650831 261.888 
L 323.927219 264.576 
L 323.095273 265.943054 
L 321.740513 267.264 
L 320.209455 268.155588 
L 317.323636 268.88532 
L 314.437818 268.859696 
L 311.552 268.139228 
" style="fill:none;stroke:#005fd0;stroke-width:1.5;"/>
    <path clip-path="url(#p3102a88488)" d="M 80.686545 96.498541 
L 78.889687 95.232 
L 77.800727 94.054235 
L 76.981238 92.544 
L 76.265164 89.856 
L 76.245169 87.168 
L 76.968781 84.48 
L 77.800727 83.112946 
L 79.155487 81.792 
L 80.686545 80.900412 
L 83.572364 80.17068 
L 86.458182 80.196304 
L 89.344 80.916772 
L 91.08021 81.792 
L 92.229818 82.771188 
L 93.559004 84.48 
L 94.420853 87.168 
L 94.312546 89.856 
L 93.308926 92.544 
L 92.229818 94.034767 
L 90.960573 95.232 
L 89.344 96.259413 
L 86.458182 97.215852 
L 83.572364 97.324628 
L 80.686545 96.498541 
" style="fill:none;stroke:#005fd0;stroke-width:1.5;"/>
    <path clip-path="url(#p3102a88488)" d="M 311.552 96.259413 
L 309.935427 95.232 
L 308.666182 94.034767 
L 307.587074 92.544 
L 306.583454 89.856 
L 306.475147 87.168 
L 307.336996 84.48 
L 308.666182 82.771188 
L 309.81579 81.792 
L 311.552 80.916772 
L 314.437818 80.196304 
L 317.323636 80.17068 
L 320.209455 80.900412 
L 321.740513 81.792 
L 323.095273 83.112946 
L 323.927219 84.48 
L 324.650831 87.168 
L 324.630836 89.856 
L 323.914762 92.544 
L 323.095273 94.054235 
L 322.006313 95.232 
L 320.209455 96.498541 
L 317.323636 97.324628 
L 314.437818 97.215852 
L 311.552 96.259413 
" style="fill:none;stroke:#005fd0;stroke-width:1.5;"/>
   </g>
   <g id="LineCollection_7">
    <path clip-path="url(#p3102a88488)" d="M 68.909482 307.584 
L 68.736516 304.896 
L 68.707368 302.208 
L 68.802107 299.52 
L 69.029034 296.832 
L 69.143273 295.99333 
L 69.470123 294.144 
L 70.226908 291.456 
L 71.507912 288.768 
L 72.029091 288.019586 
L 74.320283 286.08 
L 74.914909 285.714454 
L 77.800727 284.654728 
L 80.686545 284.124542 
L 83.572364 283.897999 
L 86.458182 283.889759 
L 89.344 284.077348 
L 92.229818 284.481571 
L 95.115636 285.173386 
L 97.490663 286.08 
L 98.001455 286.314777 
L 100.887273 288.285673 
L 101.380881 288.768 
L 103.335726 291.456 
L 103.773091 292.360459 
L 104.485458 294.144 
L 105.185882 296.832 
L 105.596557 299.52 
L 105.784696 302.208 
L 105.767482 304.896 
L 105.515634 307.584 
" style="fill:none;stroke:#003fe0;stroke-width:1.5;"/>
    <path clip-path="url(#p3102a88488)" d="M 116.698137 307.584 
L 116.371634 304.896 
L 116.361352 302.208 
L 116.631382 299.52 
L 117.209005 296.832 
L 118.191005 294.144 
L 118.202182 294.12166 
L 120.149043 291.456 
L 121.088 290.555471 
L 123.973818 288.899674 
L 124.389158 288.768 
L 126.859636 288.08476 
L 129.745455 287.753039 
L 132.631273 287.787035 
L 135.517091 288.167947 
L 137.767405 288.768 
L 138.402909 288.960023 
L 141.288727 290.360967 
L 142.764587 291.456 
L 144.174545 292.842846 
L 145.147802 294.144 
L 146.519326 296.832 
L 147.060364 298.546897 
L 147.321259 299.52 
L 147.697563 302.208 
L 147.725539 304.896 
L 147.364191 307.584 
" style="fill:none;stroke:#003fe0;stroke-width:1.5;"/>
    <path clip-path="url(#p3102a88488)" d="M 164.981439 307.584 
L 164.472054 304.896 
L 164.539802 302.208 
L 165.131341 299.52 
L 166.310571 296.832 
L 167.261091 295.441579 
L 168.58169 294.144 
L 170.146909 293.009762 
L 173.032727 291.813591 
L 175.018206 291.456 
L 175.918545 291.312934 
L 178.804364 291.342451 
L 179.452218 291.456 
L 181.690182 291.900791 
L 184.576 293.11507 
L 186.052257 294.144 
L 187.461818 295.460196 
L 188.483249 296.832 
L 189.779117 299.52 
L 190.347636 301.810341 
L 190.428094 302.208 
L 190.511484 304.896 
L 190.347636 305.900677 
L 190.013617 307.584 
" style="fill:none;stroke:#003fe0;stroke-width:1.5;"/>
    <path clip-path="url(#p3102a88488)" d="M 210.882383 307.584 
L 210.548364 305.900677 
L 210.384516 304.896 
L 210.467906 302.208 
L 210.548364 301.810341 
L 211.116883 299.52 
L 212.412751 296.832 
L 213.434182 295.460196 
L 214.843743 294.144 
L 216.32 293.11507 
L 219.205818 291.900791 
L 221.443782 291.456 
L 222.091636 291.342451 
L 224.977455 291.312934 
L 225.877794 291.456 
L 227.863273 291.813591 
L 230.749091 293.009762 
L 232.31431 294.144 
L 233.634909 295.441579 
L 234.585429 296.832 
L 235.764659 299.52 
L 236.356198 302.208 
L 236.423946 304.896 
L 235.914561 307.584 
" style="fill:none;stroke:#003fe0;stroke-width:1.5;"/>
    <path clip-path="url(#p3102a88488)" d="M 253.531809 307.584 
L 253.170461 304.896 
L 253.198437 302.208 
L 253.574741 299.52 
L 253.835636 298.546897 
L 254.376674 296.832 
L 255.748198 294.144 
L 256.721455 292.842846 
L 258.131413 291.456 
L 259.607273 290.360967 
L 262.493091 288.960023 
L 263.128595 288.768 
L 265.378909 288.167947 
L 268.264727 287.787035 
L 271.150545 287.753039 
L 274.036364 288.08476 
L 276.506842 288.768 
L 276.922182 288.899674 
L 279.808 290.555471 
L 280.746957 291.456 
L 282.693818 294.12166 
L 282.704995 294.144 
L 283.686995 296.832 
L 284.264618 299.52 
L 284.534648 302.208 
L 284.524366 304.896 
L 284.197863 307.584 
" style="fill:none;stroke:#003fe0;stroke-width:1.5;"/>
    <path clip-path="url(#p3102a88488)" d="M 295.380366 307.584 
L 295.128518 304.896 
L 295.111304 302.208 
L 295.299443 299.52 
L 295.710118 296.832 
L 296.410542 294.144 
L 297.122909 292.360459 
L 297.560274 291.456 
L 299.515119 288.768 
L 300.008727 288.285673 
L 302.894545 286.314777 
L 303.405337 286.08 
L 305.780364 285.173386 
L 308.666182 284.481571 
L 311.552 284.077348 
L 314.437818 283.889759 
L 317.323636 283.897999 
L 320.209455 284.124542 
L 323.095273 284.654728 
L 325.981091 285.714454 
L 326.575717 286.08 
L 328.866909 288.019586 
L 329.388088 288.768 
L 330.669092 291.456 
L 331.425877 294.144 
L 331.752727 295.99333 
L 331.866966 296.832 
L 332.093893 299.52 
L 332.188632 302.208 
L 332.159484 304.896 
L 331.986518 307.584 
" style="fill:none;stroke:#003fe0;stroke-width:1.5;"/>
    <path clip-path="url(#p3102a88488)" d="M 337.88326 307.584 
L 337.731619 304.896 
L 337.704006 302.208 
L 337.782639 299.52 
L 337.974004 296.832 
L 338.3098 294.144 
L 338.862937 291.456 
L 339.797367 288.768 
L 340.410182 287.616024 
L 341.512392 286.08 
L 343.296 284.532428 
" style="fill:none;stroke:#003fe0;stroke-width:1.5;"/>
    <path clip-path="url(#p3102a88488)" d="M 57.6 284.532428 
L 59.383608 286.08 
L 60.485818 287.616024 
L 61.098633 288.768 
L 62.033063 291.456 
L 62.5862 294.144 
L 62.921996 296.832 
L 63.113361 299.52 
L 63.191994 302.208 
L 63.164381 304.896 
L 63.01274 307.584 
" style="fill:none;stroke:#003fe0;stroke-width:1.5;"/>
    <path clip-path="url(#p3102a88488)" d="M 343.296 272.330698 
L 341.61785 269.952 
L 340.657492 267.264 
L 340.410182 265.978657 
L 340.158439 264.576 
L 339.938549 261.888 
L 339.93035 259.2 
L 340.11637 256.512 
L 340.410182 254.520838 
L 340.517839 253.824 
L 341.195801 251.136 
L 342.328084 248.448 
L 343.296 246.969071 
" style="fill:none;stroke:#003fe0;stroke-width:1.5;"/>
    <path clip-path="url(#p3102a88488)" d="M 57.6 246.969071 
L 58.567916 248.448 
L 59.700199 251.136 
L 60.378161 253.824 
L 60.485818 254.520838 
L 60.77963 256.512 
L 60.96565 259.2 
L 60.957451 261.888 
L 60.737561 264.576 
L 60.485818 265.978657 
L 60.238508 267.264 
L 59.27815 269.952 
L 57.6 272.330698 
" style="fill:none;stroke:#003fe0;stroke-width:1.5;"/>
    <path clip-path="url(#p3102a88488)" d="M 343.296 223.985655 
L 342.706959 221.568 
L 342.422524 218.88 
L 342.432328 216.192 
L 342.725433 213.504 
L 343.296 211.041579 
" style="fill:none;stroke:#003fe0;stroke-width:1.5;"/>
    <path clip-path="url(#p3102a88488)" d="M 57.6 211.041579 
L 58.170567 213.504 
L 58.463672 216.192 
L 58.473476 218.88 
L 58.189041 221.568 
L 57.6 223.985655 
" style="fill:none;stroke:#003fe0;stroke-width:1.5;"/>
    <path clip-path="url(#p3102a88488)" d="M 343.296 138.014421 
L 342.725433 135.552 
L 342.432328 132.864 
L 342.422524 130.176 
L 342.706959 127.488 
L 343.296 125.070345 
" style="fill:none;stroke:#003fe0;stroke-width:1.5;"/>
    <path clip-path="url(#p3102a88488)" d="M 57.6 125.070345 
L 58.189041 127.488 
L 58.473476 130.176 
L 58.463672 132.864 
L 58.170567 135.552 
L 57.6 138.014421 
" style="fill:none;stroke:#003fe0;stroke-width:1.5;"/>
    <path clip-path="url(#p3102a88488)" d="M 343.296 102.086929 
L 342.328084 100.608 
L 341.195801 97.92 
L 340.517839 95.232 
L 340.410182 94.535162 
L 340.11637 92.544 
L 339.93035 89.856 
L 339.938549 87.168 
L 340.158439 84.48 
L 340.410182 83.077343 
L 340.657492 81.792 
L 341.61785 79.104 
L 343.296 76.725302 
" style="fill:none;stroke:#003fe0;stroke-width:1.5;"/>
    <path clip-path="url(#p3102a88488)" d="M 57.6 76.725302 
L 59.27815 79.104 
L 60.238508 81.792 
L 60.485818 83.077343 
L 60.737561 84.48 
L 60.957451 87.168 
L 60.96565 89.856 
L 60.77963 92.544 
L 60.485818 94.535162 
L 60.378161 95.232 
L 59.700199 97.92 
L 58.567916 100.608 
L 57.6 102.086929 
" style="fill:none;stroke:#003fe0;stroke-width:1.5;"/>
    <path clip-path="url(#p3102a88488)" d="M 343.296 64.523572 
L 341.512392 62.976 
L 340.410182 61.439976 
L 339.797367 60.288 
L 338.862937 57.6 
L 338.3098 54.912 
L 337.974004 52.224 
L 337.782639 49.536 
L 337.704006 46.848 
L 337.731619 44.16 
L 337.88326 41.472 
" style="fill:none;stroke:#003fe0;stroke-width:1.5;"/>
    <path clip-path="url(#p3102a88488)" d="M 63.01274 41.472 
L 63.164381 44.16 
L 63.191994 46.848 
L 63.113361 49.536 
L 62.921996 52.224 
L 62.5862 54.912 
L 62.033063 57.6 
L 61.098633 60.288 
L 60.485818 61.439976 
L 59.383608 62.976 
L 57.6 64.523572 
" style="fill:none;stroke:#003fe0;stroke-width:1.5;"/>
    <path clip-path="url(#p3102a88488)" d="M 105.515634 41.472 
L 105.767482 44.16 
L 105.784696 46.848 
L 105.596557 49.536 
L 105.185882 52.224 
L 104.485458 54.912 
L 103.773091 56.695541 
L 103.335726 57.6 
L 101.380881 60.288 
L 100.887273 60.770327 
L 98.001455 62.741223 
L 97.490663 62.976 
L 95.115636 63.882614 
L 92.229818 64.574429 
L 89.344 64.978652 
L 86.458182 65.166241 
L 83.572364 65.158001 
L 80.686545 64.931458 
L 77.800727 64.401272 
L 74.914909 63.341546 
L 74.320283 62.976 
L 72.029091 61.036414 
L 71.507912 60.288 
L 70.226908 57.6 
L 69.470123 54.912 
L 69.143273 53.06267 
L 69.029034 52.224 
L 68.802107 49.536 
L 68.707368 46.848 
L 68.736516 44.16 
L 68.909482 41.472 
" style="fill:none;stroke:#003fe0;stroke-width:1.5;"/>
    <path clip-path="url(#p3102a88488)" d="M 147.364191 41.472 
L 147.725539 44.16 
L 147.697563 46.848 
L 147.321259 49.536 
L 147.060364 50.509103 
L 146.519326 52.224 
L 145.147802 54.912 
L 144.174545 56.213154 
L 142.764587 57.6 
L 141.288727 58.695033 
L 138.402909 60.095977 
L 137.767405 60.288 
L 135.517091 60.888053 
L 132.631273 61.268965 
L 129.745455 61.302961 
L 126.859636 60.97124 
L 124.389158 60.288 
L 123.973818 60.156326 
L 121.088 58.500529 
L 120.149043 57.6 
L 118.202182 54.93434 
L 118.191005 54.912 
L 117.209005 52.224 
L 116.631382 49.536 
L 116.361352 46.848 
L 116.371634 44.16 
L 116.698137 41.472 
" style="fill:none;stroke:#003fe0;stroke-width:1.5;"/>
    <path clip-path="url(#p3102a88488)" d="M 190.013617 41.472 
L 190.347636 43.155323 
L 190.511484 44.16 
L 190.428094 46.848 
L 190.347636 47.245659 
L 189.779117 49.536 
L 188.483249 52.224 
L 187.461818 53.595804 
L 186.052257 54.912 
L 184.576 55.94093 
L 181.690182 57.155209 
L 179.452218 57.6 
L 178.804364 57.713549 
L 175.918545 57.743066 
L 175.018206 57.6 
L 173.032727 57.242409 
L 170.146909 56.046238 
L 168.58169 54.912 
L 167.261091 53.614421 
L 166.310571 52.224 
L 165.131341 49.536 
L 164.539802 46.848 
L 164.472054 44.16 
L 164.981439 41.472 
" style="fill:none;stroke:#003fe0;stroke-width:1.5;"/>
    <path clip-path="url(#p3102a88488)" d="M 235.914561 41.472 
L 236.423946 44.16 
L 236.356198 46.848 
L 235.764659 49.536 
L 234.585429 52.224 
L 233.634909 53.614421 
L 232.31431 54.912 
L 230.749091 56.046238 
L 227.863273 57.242409 
L 225.877794 57.6 
L 224.977455 57.743066 
L 222.091636 57.713549 
L 221.443782 57.6 
L 219.205818 57.155209 
L 216.32 55.94093 
L 214.843743 54.912 
L 213.434182 53.595804 
L 212.412751 52.224 
L 211.116883 49.536 
L 210.548364 47.245659 
L 210.467906 46.848 
L 210.384516 44.16 
L 210.548364 43.155323 
L 210.882383 41.472 
" style="fill:none;stroke:#003fe0;stroke-width:1.5;"/>
    <path clip-path="url(#p3102a88488)" d="M 284.197863 41.472 
L 284.524366 44.16 
L 284.534648 46.848 
L 284.264618 49.536 
L 283.686995 52.224 
L 282.704995 54.912 
L 282.693818 54.93434 
L 280.746957 57.6 
L 279.808 58.500529 
L 276.922182 60.156326 
L 276.506842 60.288 
L 274.036364 60.97124 
L 271.150545 61.302961 
L 268.264727 61.268965 
L 265.378909 60.888053 
L 263.128595 60.288 
L 262.493091 60.095977 
L 259.607273 58.695033 
L 258.131413 57.6 
L 256.721455 56.213154 
L 255.748198 54.912 
L 254.376674 52.224 
L 253.835636 50.509103 
L 253.574741 49.536 
L 253.198437 46.848 
L 253.170461 44.16 
L 253.531809 41.472 
" style="fill:none;stroke:#003fe0;stroke-width:1.5;"/>
    <path clip-path="url(#p3102a88488)" d="M 331.986518 41.472 
L 332.159484 44.16 
L 332.188632 46.848 
L 332.093893 49.536 
L 331.866966 52.224 
L 331.752727 53.06267 
L 331.425877 54.912 
L 330.669092 57.6 
L 329.388088 60.288 
L 328.866909 61.036414 
L 326.575717 62.976 
L 325.981091 63.341546 
L 323.095273 64.401272 
L 320.209455 64.931458 
L 317.323636 65.158001 
L 314.437818 65.166241 
L 311.552 64.978652 
L 308.666182 64.574429 
L 305.780364 63.882614 
L 303.405337 62.976 
L 302.894545 62.741223 
L 300.008727 60.770327 
L 299.515119 60.288 
L 297.560274 57.6 
L 297.122909 56.695541 
L 296.410542 54.912 
L 295.710118 52.224 
L 295.299443 49.536 
L 295.111304 46.848 
L 295.128518 44.16 
L 295.380366 41.472 
" style="fill:none;stroke:#003fe0;stroke-width:1.5;"/>
    <path clip-path="url(#p3102a88488)" d="M 80.686545 272.813918 
L 79.940485 272.64 
L 77.800727 271.963655 
L 74.914909 270.179764 
L 74.688177 269.952 
L 73.009389 267.264 
L 72.151064 264.576 
L 72.029091 263.704688 
L 71.832679 261.888 
L 71.834816 259.2 
L 72.029091 257.292677 
L 72.13239 256.512 
L 72.869126 253.824 
L 74.141199 251.136 
L 74.914909 250.042318 
L 76.760322 248.448 
L 77.800727 247.779307 
L 80.686545 246.770965 
L 83.572364 246.382321 
L 86.458182 246.447244 
L 89.344 246.927975 
L 92.229818 247.878023 
L 93.357442 248.448 
L 95.115636 249.58143 
L 96.804171 251.136 
L 98.001455 252.725538 
L 98.658603 253.824 
L 99.692902 256.512 
L 100.21159 259.2 
L 100.280184 261.888 
L 99.866377 264.576 
L 98.80925 267.264 
L 98.001455 268.388667 
L 96.525908 269.952 
L 95.115636 270.874862 
L 92.229818 272.135599 
L 90.311216 272.64 
L 89.344 272.828924 
L 86.458182 273.112309 
L 83.572364 273.116528 
L 80.686545 272.813918 
" style="fill:none;stroke:#003fe0;stroke-width:1.5;"/>
    <path clip-path="url(#p3102a88488)" d="M 311.552 272.828924 
L 310.584784 272.64 
L 308.666182 272.135599 
L 305.780364 270.874862 
L 304.370092 269.952 
L 302.894545 268.388667 
L 302.08675 267.264 
L 301.029623 264.576 
L 300.615816 261.888 
L 300.68441 259.2 
L 301.203098 256.512 
L 302.237397 253.824 
L 302.894545 252.725538 
L 304.091829 251.136 
L 305.780364 249.58143 
L 307.538558 248.448 
L 308.666182 247.878023 
L 311.552 246.927975 
L 314.437818 246.447244 
L 317.323636 246.382321 
L 320.209455 246.770965 
L 323.095273 247.779307 
L 324.135678 248.448 
L 325.981091 250.042318 
L 326.754801 251.136 
L 328.026874 253.824 
L 328.76361 256.512 
L 328.866909 257.292677 
L 329.061184 259.2 
L 329.063321 261.888 
L 328.866909 263.704688 
L 328.744936 264.576 
L 327.886611 267.264 
L 326.207823 269.952 
L 325.981091 270.179764 
L 323.095273 271.963655 
L 320.955515 272.64 
L 320.209455 272.813918 
L 317.323636 273.116528 
L 314.437818 273.112309 
L 311.552 272.828924 
" style="fill:none;stroke:#003fe0;stroke-width:1.5;"/>
    <path clip-path="url(#p3102a88488)" d="M 83.572364 224.455872 
L 82.721914 224.256 
L 80.686545 223.50368 
L 78.722381 221.568 
L 77.800727 219.462242 
L 77.649529 218.88 
L 77.729316 216.192 
L 77.800727 215.959376 
L 79.098262 213.504 
L 80.686545 212.003193 
L 83.572364 211.034702 
L 86.458182 211.456609 
L 89.344 213.170846 
L 89.670731 213.504 
L 91.077122 216.192 
L 91.273248 218.88 
L 90.211576 221.568 
L 89.344 222.492947 
L 86.458182 224.20518 
L 86.05341 224.256 
L 83.572364 224.455872 
" style="fill:none;stroke:#003fe0;stroke-width:1.5;"/>
    <path clip-path="url(#p3102a88488)" d="M 317.323636 224.455872 
L 314.84259 224.256 
L 314.437818 224.20518 
L 311.552 222.492947 
L 310.684424 221.568 
L 309.622752 218.88 
L 309.818878 216.192 
L 311.225269 213.504 
L 311.552 213.170846 
L 314.437818 211.456609 
L 317.323636 211.034702 
L 320.209455 212.003193 
L 321.797738 213.504 
L 323.095273 215.959376 
L 323.166684 216.192 
L 323.246471 218.88 
L 323.095273 219.462242 
L 322.173619 221.568 
L 320.209455 223.50368 
L 318.174086 224.256 
L 317.323636 224.455872 
" style="fill:none;stroke:#003fe0;stroke-width:1.5;"/>
    <path clip-path="url(#p3102a88488)" d="M 80.686545 137.052807 
L 79.098262 135.552 
L 77.800727 133.096624 
L 77.729316 132.864 
L 77.649529 130.176 
L 77.800727 129.593758 
L 78.722381 127.488 
L 80.686545 125.55232 
L 82.721914 124.8 
L 83.572364 124.600128 
L 86.05341 124.8 
L 86.458182 124.85082 
L 89.344 126.563053 
L 90.211576 127.488 
L 91.273248 130.176 
L 91.077122 132.864 
L 89.670731 135.552 
L 89.344 135.885154 
L 86.458182 137.599391 
L 83.572364 138.021298 
L 80.686545 137.052807 
" style="fill:none;stroke:#003fe0;stroke-width:1.5;"/>
    <path clip-path="url(#p3102a88488)" d="M 311.552 135.885154 
L 311.225269 135.552 
L 309.818878 132.864 
L 309.622752 130.176 
L 310.684424 127.488 
L 311.552 126.563053 
L 314.437818 124.85082 
L 314.84259 124.8 
L 317.323636 124.600128 
L 318.174086 124.8 
L 320.209455 125.55232 
L 322.173619 127.488 
L 323.095273 129.593758 
L 323.246471 130.176 
L 323.166684 132.864 
L 323.095273 133.096624 
L 321.797738 135.552 
L 320.209455 137.052807 
L 317.323636 138.021298 
L 314.437818 137.599391 
L 311.552 135.885154 
" style="fill:none;stroke:#003fe0;stroke-width:1.5;"/>
    <path clip-path="url(#p3102a88488)" d="M 77.800727 101.276693 
L 76.760322 100.608 
L 74.914909 99.013682 
L 74.141199 97.92 
L 72.869126 95.232 
L 72.13239 92.544 
L 72.029091 91.763323 
L 71.834816 89.856 
L 71.832679 87.168 
L 72.029091 85.351312 
L 72.151064 84.48 
L 73.009389 81.792 
L 74.688177 79.104 
L 74.914909 78.876236 
L 77.800727 77.092345 
L 79.940485 76.416 
L 80.686545 76.242082 
L 83.572364 75.939472 
L 86.458182 75.943691 
L 89.344 76.227076 
L 90.311216 76.416 
L 92.229818 76.920401 
L 95.115636 78.181138 
L 96.525908 79.104 
L 98.001455 80.667333 
L 98.80925 81.792 
L 99.866377 84.48 
L 100.280184 87.168 
L 100.21159 89.856 
L 99.692902 92.544 
L 98.658603 95.232 
L 98.001455 96.330462 
L 96.804171 97.92 
L 95.115636 99.47457 
L 93.357442 100.608 
L 92.229818 101.177977 
L 89.344 102.128025 
L 86.458182 102.608756 
L 83.572364 102.673679 
L 80.686545 102.285035 
L 77.800727 101.276693 
" style="fill:none;stroke:#003fe0;stroke-width:1.5;"/>
    <path clip-path="url(#p3102a88488)" d="M 308.666182 101.177977 
L 307.538558 100.608 
L 305.780364 99.47457 
L 304.091829 97.92 
L 302.894545 96.330462 
L 302.237397 95.232 
L 301.203098 92.544 
L 300.68441 89.856 
L 300.615816 87.168 
L 301.029623 84.48 
L 302.08675 81.792 
L 302.894545 80.667333 
L 304.370092 79.104 
L 305.780364 78.181138 
L 308.666182 76.920401 
L 310.584784 76.416 
L 311.552 76.227076 
L 314.437818 75.943691 
L 317.323636 75.939472 
L 320.209455 76.242082 
L 320.955515 76.416 
L 323.095273 77.092345 
L 325.981091 78.876236 
L 326.207823 79.104 
L 327.886611 81.792 
L 328.744936 84.48 
L 328.866909 85.351312 
L 329.063321 87.168 
L 329.061184 89.856 
L 328.866909 91.763323 
L 328.76361 92.544 
L 328.026874 95.232 
L 326.754801 97.92 
L 325.981091 99.013682 
L 324.135678 100.608 
L 323.095273 101.276693 
L 320.209455 102.285035 
L 317.323636 102.673679 
L 314.437818 102.608756 
L 311.552 102.128025 
L 308.666182 101.177977 
" style="fill:none;stroke:#003fe0;stroke-width:1.5;"/>
   </g>
   <g id="LineCollection_8">
    <path clip-path="url(#p3102a88488)" d="M 67.349362 307.584 
L 67.262749 304.896 
L 67.248044 302.208 
L 67.29528 299.52 
L 67.408609 296.832 
L 67.606985 294.144 
L 67.933703 291.456 
L 68.485946 288.768 
L 69.143273 286.86024 
L 69.57393 286.08 
L 72.029091 283.583903 
L 72.409494 283.392 
L 74.914909 282.434324 
L 77.800727 281.894426 
L 80.686545 281.624442 
L 83.572364 281.509478 
L 86.458182 281.506258 
L 89.344 281.603606 
L 92.229818 281.812557 
L 95.115636 282.17001 
L 98.001455 282.758608 
L 99.971504 283.392 
L 100.887273 283.756314 
L 103.773091 285.63854 
L 104.212265 286.08 
L 105.997107 288.768 
L 106.658909 290.476507 
L 106.965058 291.456 
L 107.548856 294.144 
L 107.907067 296.832 
L 108.117132 299.52 
L 108.21368 302.208 
L 108.205793 304.896 
L 108.078944 307.584 
" style="fill:none;stroke:#001ff0;stroke-width:1.5;"/>
    <path clip-path="url(#p3102a88488)" d="M 113.535772 307.584 
L 113.392319 304.896 
L 113.386537 302.208 
L 113.502372 299.52 
L 113.75121 296.832 
L 114.174446 294.144 
L 114.86405 291.456 
L 115.316364 290.25306 
L 116.136923 288.768 
L 118.202182 286.436438 
L 118.743717 286.08 
L 121.088 284.87806 
L 123.973818 284.095317 
L 126.859636 283.695384 
L 129.745455 283.533455 
L 132.631273 283.554463 
L 135.517091 283.749575 
L 138.402909 284.147736 
L 141.288727 284.82922 
L 144.174545 285.97581 
L 144.36297 286.08 
L 147.060364 288.017118 
L 147.754486 288.768 
L 149.481061 291.456 
L 149.946182 292.550391 
L 150.494669 294.144 
L 151.113176 296.832 
L 151.483998 299.52 
L 151.667933 302.208 
L 151.683427 304.896 
L 151.511162 307.584 
" style="fill:none;stroke:#001ff0;stroke-width:1.5;"/>
    <path clip-path="url(#p3102a88488)" d="M 159.899512 307.584 
L 159.709617 304.896 
L 159.732326 302.208 
L 159.947101 299.52 
L 160.376414 296.832 
L 161.091518 294.144 
L 161.489455 293.105113 
L 162.352039 291.456 
L 164.375273 288.949712 
L 164.601618 288.768 
L 167.261091 287.104302 
L 170.146909 286.117946 
L 170.339178 286.08 
L 173.032727 285.583624 
L 175.918545 285.35541 
L 178.804364 285.373452 
L 181.690182 285.634629 
L 184.043492 286.08 
L 184.576 286.187822 
L 187.461818 287.15315 
L 190.236242 288.768 
L 190.347636 288.84943 
L 192.733673 291.456 
L 193.233455 292.25569 
L 194.121536 294.144 
L 194.953438 296.832 
L 195.456545 299.52 
L 195.713792 302.208 
L 195.752113 304.896 
L 195.549526 307.584 
" style="fill:none;stroke:#001ff0;stroke-width:1.5;"/>
    <path clip-path="url(#p3102a88488)" d="M 205.346474 307.584 
L 205.143887 304.896 
L 205.182208 302.208 
L 205.439455 299.52 
L 205.942562 296.832 
L 206.774464 294.144 
L 207.662545 292.25569 
L 208.162327 291.456 
L 210.548364 288.84943 
L 210.659758 288.768 
L 213.434182 287.15315 
L 216.32 286.187822 
L 216.852508 286.08 
L 219.205818 285.634629 
L 222.091636 285.373452 
L 224.977455 285.35541 
L 227.863273 285.583624 
L 230.556822 286.08 
L 230.749091 286.117946 
L 233.634909 287.104302 
L 236.294382 288.768 
L 236.520727 288.949712 
L 238.543961 291.456 
L 239.406545 293.105113 
L 239.804482 294.144 
L 240.519586 296.832 
L 240.948899 299.52 
L 241.163674 302.208 
L 241.186383 304.896 
L 240.996488 307.584 
" style="fill:none;stroke:#001ff0;stroke-width:1.5;"/>
    <path clip-path="url(#p3102a88488)" d="M 249.384838 307.584 
L 249.212573 304.896 
L 249.228067 302.208 
L 249.412002 299.52 
L 249.782824 296.832 
L 250.401331 294.144 
L 250.949818 292.550391 
L 251.414939 291.456 
L 253.141514 288.768 
L 253.835636 288.017118 
L 256.53303 286.08 
L 256.721455 285.97581 
L 259.607273 284.82922 
L 262.493091 284.147736 
L 265.378909 283.749575 
L 268.264727 283.554463 
L 271.150545 283.533455 
L 274.036364 283.695384 
L 276.922182 284.095317 
L 279.808 284.87806 
L 282.152283 286.08 
L 282.693818 286.436438 
L 284.759077 288.768 
L 285.579636 290.25306 
L 286.03195 291.456 
L 286.721554 294.144 
L 287.14479 296.832 
L 287.393628 299.52 
L 287.509463 302.208 
L 287.503681 304.896 
L 287.360228 307.584 
" style="fill:none;stroke:#001ff0;stroke-width:1.5;"/>
    <path clip-path="url(#p3102a88488)" d="M 292.817056 307.584 
L 292.690207 304.896 
L 292.68232 302.208 
L 292.778868 299.52 
L 292.988933 296.832 
L 293.347144 294.144 
L 293.930942 291.456 
L 294.237091 290.476507 
L 294.898893 288.768 
L 296.683735 286.08 
L 297.122909 285.63854 
L 300.008727 283.756314 
L 300.924496 283.392 
L 302.894545 282.758608 
L 305.780364 282.17001 
L 308.666182 281.812557 
L 311.552 281.603606 
L 314.437818 281.506258 
L 317.323636 281.509478 
L 320.209455 281.624442 
L 323.095273 281.894426 
L 325.981091 282.434324 
L 328.486506 283.392 
L 328.866909 283.583903 
L 331.32207 286.08 
L 331.752727 286.86024 
L 332.410054 288.768 
L 332.962297 291.456 
L 333.289015 294.144 
L 333.487391 296.832 
L 333.60072 299.52 
L 333.647956 302.208 
L 333.633251 304.896 
L 333.546638 307.584 
" style="fill:none;stroke:#001ff0;stroke-width:1.5;"/>
    <path clip-path="url(#p3102a88488)" d="M 336.048016 307.584 
L 335.934751 304.896 
L 335.914335 302.208 
L 335.97363 299.52 
L 336.117695 296.832 
L 336.370553 294.144 
L 336.787311 291.456 
L 337.4918 288.768 
L 337.524364 288.676817 
L 338.373394 286.08 
L 340.385673 283.392 
L 340.410182 283.371751 
L 343.296 281.823073 
" style="fill:none;stroke:#001ff0;stroke-width:1.5;"/>
    <path clip-path="url(#p3102a88488)" d="M 57.6 281.823073 
L 60.485818 283.371751 
L 60.510327 283.392 
L 62.522606 286.08 
L 63.371636 288.676817 
L 63.4042 288.768 
L 64.108689 291.456 
L 64.525447 294.144 
L 64.778305 296.832 
L 64.92237 299.52 
L 64.981665 302.208 
L 64.961249 304.896 
L 64.847984 307.584 
" style="fill:none;stroke:#001ff0;stroke-width:1.5;"/>
    <path clip-path="url(#p3102a88488)" d="M 343.296 275.937699 
L 342.013187 275.328 
L 340.410182 273.949696 
L 339.444622 272.64 
L 338.43724 269.952 
L 337.944834 267.264 
L 337.692793 264.576 
L 337.58391 261.888 
L 337.58087 259.2 
L 337.674934 256.512 
L 337.878544 253.824 
L 338.230456 251.136 
L 338.818334 248.448 
L 339.849831 245.76 
L 340.410182 244.821287 
L 341.868787 243.072 
L 343.296 242.019025 
" style="fill:none;stroke:#001ff0;stroke-width:1.5;"/>
    <path clip-path="url(#p3102a88488)" d="M 57.6 242.019025 
L 59.027213 243.072 
L 60.485818 244.821287 
L 61.046169 245.76 
L 62.077666 248.448 
L 62.665544 251.136 
L 63.017456 253.824 
L 63.221066 256.512 
L 63.31513 259.2 
L 63.31209 261.888 
L 63.203207 264.576 
L 62.951166 267.264 
L 62.45876 269.952 
L 61.451378 272.64 
L 60.485818 273.949696 
L 58.882813 275.328 
L 57.6 275.937699 
" style="fill:none;stroke:#001ff0;stroke-width:1.5;"/>
    <path clip-path="url(#p3102a88488)" d="M 343.296 231.86915 
L 341.237604 229.632 
L 340.410182 227.907888 
L 340.02787 226.944 
L 339.377465 224.256 
L 339.034177 221.568 
L 338.887159 218.88 
L 338.893791 216.192 
L 339.048664 213.504 
L 339.378734 210.816 
L 339.957447 208.128 
L 340.410182 206.77862 
L 340.9293 205.44 
L 342.691856 202.752 
L 343.296 202.165381 
" style="fill:none;stroke:#001ff0;stroke-width:1.5;"/>
    <path clip-path="url(#p3102a88488)" d="M 57.6 202.165381 
L 58.204144 202.752 
L 59.9667 205.44 
L 60.485818 206.77862 
L 60.938553 208.128 
L 61.517266 210.816 
L 61.847336 213.504 
L 62.002209 216.192 
L 62.008841 218.88 
L 61.861823 221.568 
L 61.518535 224.256 
L 60.86813 226.944 
L 60.485818 227.907888 
L 59.658396 229.632 
L 57.6 231.86915 
" style="fill:none;stroke:#001ff0;stroke-width:1.5;"/>
    <path clip-path="url(#p3102a88488)" d="M 343.296 188.278404 
L 341.989008 186.624 
L 340.776999 183.936 
L 340.410182 182.5582 
L 340.090185 181.248 
L 339.70183 178.56 
L 339.52739 175.872 
L 339.52739 173.184 
L 339.70183 170.496 
L 340.090185 167.808 
L 340.410182 166.4978 
L 340.776999 165.12 
L 341.989008 162.432 
L 343.296 160.777596 
" style="fill:none;stroke:#001ff0;stroke-width:1.5;"/>
    <path clip-path="url(#p3102a88488)" d="M 57.6 160.777596 
L 58.906992 162.432 
L 60.119001 165.12 
L 60.485818 166.4978 
L 60.805815 167.808 
L 61.19417 170.496 
L 61.36861 173.184 
L 61.36861 175.872 
L 61.19417 178.56 
L 60.805815 181.248 
L 60.485818 182.5582 
L 60.119001 183.936 
L 58.906992 186.624 
L 57.6 188.278404 
" style="fill:none;stroke:#001ff0;stroke-width:1.5;"/>
    <path clip-path="url(#p3102a88488)" d="M 343.296 146.890619 
L 342.691856 146.304 
L 340.9293 143.616 
L 340.410182 142.27738 
L 339.957447 140.928 
L 339.378734 138.24 
L 339.048664 135.552 
L 338.893791 132.864 
L 338.887159 130.176 
L 339.034177 127.488 
L 339.377465 124.8 
L 340.02787 122.112 
L 340.410182 121.148112 
L 341.237604 119.424 
L 343.296 117.18685 
" style="fill:none;stroke:#001ff0;stroke-width:1.5;"/>
    <path clip-path="url(#p3102a88488)" d="M 57.6 117.18685 
L 59.658396 119.424 
L 60.485818 121.148112 
L 60.86813 122.112 
L 61.518535 124.8 
L 61.861823 127.488 
L 62.008841 130.176 
L 62.002209 132.864 
L 61.847336 135.552 
L 61.517266 138.24 
L 60.938553 140.928 
L 60.485818 142.27738 
L 59.9667 143.616 
L 58.204144 146.304 
L 57.6 146.890619 
" style="fill:none;stroke:#001ff0;stroke-width:1.5;"/>
    <path clip-path="url(#p3102a88488)" d="M 343.296 107.036975 
L 341.868787 105.984 
L 340.410182 104.234713 
L 339.849831 103.296 
L 338.818334 100.608 
L 338.230456 97.92 
L 337.878544 95.232 
L 337.674934 92.544 
L 337.58087 89.856 
L 337.58391 87.168 
L 337.692793 84.48 
L 337.944834 81.792 
L 338.43724 79.104 
L 339.444622 76.416 
L 340.410182 75.106304 
L 342.013187 73.728 
L 343.296 73.118301 
" style="fill:none;stroke:#001ff0;stroke-width:1.5;"/>
    <path clip-path="url(#p3102a88488)" d="M 57.6 73.118301 
L 58.882813 73.728 
L 60.485818 75.106304 
L 61.451378 76.416 
L 62.45876 79.104 
L 62.951166 81.792 
L 63.203207 84.48 
L 63.31209 87.168 
L 63.31513 89.856 
L 63.221066 92.544 
L 63.017456 95.232 
L 62.665544 97.92 
L 62.077666 100.608 
L 61.046169 103.296 
L 60.485818 104.234713 
L 59.027213 105.984 
L 57.6 107.036975 
" style="fill:none;stroke:#001ff0;stroke-width:1.5;"/>
    <path clip-path="url(#p3102a88488)" d="M 343.296 67.232927 
L 340.410182 65.684249 
L 340.385673 65.664 
L 338.373394 62.976 
L 337.524364 60.379183 
L 337.4918 60.288 
L 336.787311 57.6 
L 336.370553 54.912 
L 336.117695 52.224 
L 335.97363 49.536 
L 335.914335 46.848 
L 335.934751 44.16 
L 336.048016 41.472 
" style="fill:none;stroke:#001ff0;stroke-width:1.5;"/>
    <path clip-path="url(#p3102a88488)" d="M 64.847984 41.472 
L 64.961249 44.16 
L 64.981665 46.848 
L 64.92237 49.536 
L 64.778305 52.224 
L 64.525447 54.912 
L 64.108689 57.6 
L 63.4042 60.288 
L 63.371636 60.379183 
L 62.522606 62.976 
L 60.510327 65.664 
L 60.485818 65.684249 
L 57.6 67.232927 
" style="fill:none;stroke:#001ff0;stroke-width:1.5;"/>
    <path clip-path="url(#p3102a88488)" d="M 108.078944 41.472 
L 108.205793 44.16 
L 108.21368 46.848 
L 108.117132 49.536 
L 107.907067 52.224 
L 107.548856 54.912 
L 106.965058 57.6 
L 106.658909 58.579493 
L 105.997107 60.288 
L 104.212265 62.976 
L 103.773091 63.41746 
L 100.887273 65.299686 
L 99.971504 65.664 
L 98.001455 66.297392 
L 95.115636 66.88599 
L 92.229818 67.243443 
L 89.344 67.452394 
L 86.458182 67.549742 
L 83.572364 67.546522 
L 80.686545 67.431558 
L 77.800727 67.161574 
L 74.914909 66.621676 
L 72.409494 65.664 
L 72.029091 65.472097 
L 69.57393 62.976 
L 69.143273 62.19576 
L 68.485946 60.288 
L 67.933703 57.6 
L 67.606985 54.912 
L 67.408609 52.224 
L 67.29528 49.536 
L 67.248044 46.848 
L 67.262749 44.16 
L 67.349362 41.472 
" style="fill:none;stroke:#001ff0;stroke-width:1.5;"/>
    <path clip-path="url(#p3102a88488)" d="M 151.511162 41.472 
L 151.683427 44.16 
L 151.667933 46.848 
L 151.483998 49.536 
L 151.113176 52.224 
L 150.494669 54.912 
L 149.946182 56.505609 
L 149.481061 57.6 
L 147.754486 60.288 
L 147.060364 61.038882 
L 144.36297 62.976 
L 144.174545 63.08019 
L 141.288727 64.22678 
L 138.402909 64.908264 
L 135.517091 65.306425 
L 132.631273 65.501537 
L 129.745455 65.522545 
L 126.859636 65.360616 
L 123.973818 64.960683 
L 121.088 64.17794 
L 118.743717 62.976 
L 118.202182 62.619562 
L 116.136923 60.288 
L 115.316364 58.80294 
L 114.86405 57.6 
L 114.174446 54.912 
L 113.75121 52.224 
L 113.502372 49.536 
L 113.386537 46.848 
L 113.392319 44.16 
L 113.535772 41.472 
" style="fill:none;stroke:#001ff0;stroke-width:1.5;"/>
    <path clip-path="url(#p3102a88488)" d="M 195.549526 41.472 
L 195.752113 44.16 
L 195.713792 46.848 
L 195.456545 49.536 
L 194.953438 52.224 
L 194.121536 54.912 
L 193.233455 56.80031 
L 192.733673 57.6 
L 190.347636 60.20657 
L 190.236242 60.288 
L 187.461818 61.90285 
L 184.576 62.868178 
L 184.043492 62.976 
L 181.690182 63.421371 
L 178.804364 63.682548 
L 175.918545 63.70059 
L 173.032727 63.472376 
L 170.339178 62.976 
L 170.146909 62.938054 
L 167.261091 61.951698 
L 164.601618 60.288 
L 164.375273 60.106288 
L 162.352039 57.6 
L 161.489455 55.950887 
L 161.091518 54.912 
L 160.376414 52.224 
L 159.947101 49.536 
L 159.732326 46.848 
L 159.709617 44.16 
L 159.899512 41.472 
" style="fill:none;stroke:#001ff0;stroke-width:1.5;"/>
    <path clip-path="url(#p3102a88488)" d="M 240.996488 41.472 
L 241.186383 44.16 
L 241.163674 46.848 
L 240.948899 49.536 
L 240.519586 52.224 
L 239.804482 54.912 
L 239.406545 55.950887 
L 238.543961 57.6 
L 236.520727 60.106288 
L 236.294382 60.288 
L 233.634909 61.951698 
L 230.749091 62.938054 
L 230.556822 62.976 
L 227.863273 63.472376 
L 224.977455 63.70059 
L 222.091636 63.682548 
L 219.205818 63.421371 
L 216.852508 62.976 
L 216.32 62.868178 
L 213.434182 61.90285 
L 210.659758 60.288 
L 210.548364 60.20657 
L 208.162327 57.6 
L 207.662545 56.80031 
L 206.774464 54.912 
L 205.942562 52.224 
L 205.439455 49.536 
L 205.182208 46.848 
L 205.143887 44.16 
L 205.346474 41.472 
" style="fill:none;stroke:#001ff0;stroke-width:1.5;"/>
    <path clip-path="url(#p3102a88488)" d="M 287.360228 41.472 
L 287.503681 44.16 
L 287.509463 46.848 
L 287.393628 49.536 
L 287.14479 52.224 
L 286.721554 54.912 
L 286.03195 57.6 
L 285.579636 58.80294 
L 284.759077 60.288 
L 282.693818 62.619562 
L 282.152283 62.976 
L 279.808 64.17794 
L 276.922182 64.960683 
L 274.036364 65.360616 
L 271.150545 65.522545 
L 268.264727 65.501537 
L 265.378909 65.306425 
L 262.493091 64.908264 
L 259.607273 64.22678 
L 256.721455 63.08019 
L 256.53303 62.976 
L 253.835636 61.038882 
L 253.141514 60.288 
L 251.414939 57.6 
L 250.949818 56.505609 
L 250.401331 54.912 
L 249.782824 52.224 
L 249.412002 49.536 
L 249.228067 46.848 
L 249.212573 44.16 
L 249.384838 41.472 
" style="fill:none;stroke:#001ff0;stroke-width:1.5;"/>
    <path clip-path="url(#p3102a88488)" d="M 333.546638 41.472 
L 333.633251 44.16 
L 333.647956 46.848 
L 333.60072 49.536 
L 333.487391 52.224 
L 333.289015 54.912 
L 332.962297 57.6 
L 332.410054 60.288 
L 331.752727 62.19576 
L 331.32207 62.976 
L 328.866909 65.472097 
L 328.486506 65.664 
L 325.981091 66.621676 
L 323.095273 67.161574 
L 320.209455 67.431558 
L 317.323636 67.546522 
L 314.437818 67.549742 
L 311.552 67.452394 
L 308.666182 67.243443 
L 305.780364 66.88599 
L 302.894545 66.297392 
L 300.924496 65.664 
L 300.008727 65.299686 
L 297.122909 63.41746 
L 296.683735 62.976 
L 294.898893 60.288 
L 294.237091 58.579493 
L 293.930942 57.6 
L 293.347144 54.912 
L 292.988933 52.224 
L 292.778868 49.536 
L 292.68232 46.848 
L 292.690207 44.16 
L 292.817056 41.472 
" style="fill:none;stroke:#001ff0;stroke-width:1.5;"/>
    <path clip-path="url(#p3102a88488)" d="M 77.800727 275.823334 
L 75.451667 275.328 
L 74.914909 275.171751 
L 72.029091 273.612479 
L 71.092472 272.64 
L 69.700052 269.952 
L 69.143273 267.825813 
L 69.036466 267.264 
L 68.738453 264.576 
L 68.611044 261.888 
L 68.610416 259.2 
L 68.726822 256.512 
L 68.976013 253.824 
L 69.143273 252.695898 
L 69.452385 251.136 
L 70.299024 248.448 
L 71.787614 245.76 
L 72.029091 245.45633 
L 74.914909 243.36827 
L 75.701476 243.072 
L 77.800727 242.420042 
L 80.686545 241.96383 
L 83.572364 241.790076 
L 86.458182 241.824419 
L 89.344 242.051078 
L 92.229818 242.496434 
L 94.533785 243.072 
L 95.115636 243.240528 
L 98.001455 244.464536 
L 99.960138 245.76 
L 100.887273 246.594522 
L 102.408795 248.448 
L 103.773091 251.089993 
L 103.792802 251.136 
L 104.631645 253.824 
L 105.130738 256.512 
L 105.382964 259.2 
L 105.421333 261.888 
L 105.232428 264.576 
L 104.7426 267.264 
L 103.773091 269.90863 
L 103.754262 269.952 
L 101.682043 272.64 
L 100.887273 273.222768 
L 98.001455 274.654275 
L 95.750774 275.328 
L 95.115636 275.463865 
L 92.229818 275.896031 
L 89.344 276.149471 
L 86.458182 276.269246 
L 83.572364 276.269359 
L 80.686545 276.13743 
L 77.800727 275.823334 
" style="fill:none;stroke:#001ff0;stroke-width:1.5;"/>
    <path clip-path="url(#p3102a88488)" d="M 305.780364 275.463865 
L 305.145226 275.328 
L 302.894545 274.654275 
L 300.008727 273.222768 
L 299.213957 272.64 
L 297.141738 269.952 
L 297.122909 269.90863 
L 296.1534 267.264 
L 295.663572 264.576 
L 295.474667 261.888 
L 295.513036 259.2 
L 295.765262 256.512 
L 296.264355 253.824 
L 297.103198 251.136 
L 297.122909 251.089993 
L 298.487205 248.448 
L 300.008727 246.594522 
L 300.935862 245.76 
L 302.894545 244.464536 
L 305.780364 243.240528 
L 306.362215 243.072 
L 308.666182 242.496434 
L 311.552 242.051078 
L 314.437818 241.824419 
L 317.323636 241.790076 
L 320.209455 241.96383 
L 323.095273 242.420042 
L 325.194524 243.072 
L 325.981091 243.36827 
L 328.866909 245.45633 
L 329.108386 245.76 
L 330.596976 248.448 
L 331.443615 251.136 
L 331.752727 252.695898 
L 331.919987 253.824 
L 332.169178 256.512 
L 332.285584 259.2 
L 332.284956 261.888 
L 332.157547 264.576 
L 331.859534 267.264 
L 331.752727 267.825813 
L 331.195948 269.952 
L 329.803528 272.64 
L 328.866909 273.612479 
L 325.981091 275.171751 
L 325.444333 275.328 
L 323.095273 275.823334 
L 320.209455 276.13743 
L 317.323636 276.269359 
L 314.437818 276.269246 
L 311.552 276.149471 
L 308.666182 275.896031 
L 305.780364 275.463865 
" style="fill:none;stroke:#001ff0;stroke-width:1.5;"/>
    <path clip-path="url(#p3102a88488)" d="M 126.859636 273.160609 
L 124.282213 272.64 
L 123.973818 272.554537 
L 121.088 271.094764 
L 119.781633 269.952 
L 118.202182 267.539297 
L 118.077613 267.264 
L 117.391412 264.576 
L 117.138686 261.888 
L 117.218439 259.2 
L 117.616783 256.512 
L 118.202182 254.428895 
L 118.436872 253.824 
L 120.065499 251.136 
L 121.088 249.99132 
L 123.409169 248.448 
L 123.973818 248.15289 
L 126.859636 247.32472 
L 129.745455 247.044185 
L 132.631273 247.193605 
L 135.517091 247.762134 
L 137.431933 248.448 
L 138.402909 248.863396 
L 141.288727 250.789261 
L 141.661592 251.136 
L 143.773448 253.824 
L 144.174545 254.602097 
L 144.978427 256.512 
L 145.614155 259.2 
L 145.80241 261.888 
L 145.528135 264.576 
L 144.656223 267.264 
L 144.174545 268.046241 
L 142.641739 269.952 
L 141.288727 270.934967 
L 138.402909 272.320203 
L 137.325816 272.64 
L 135.517091 273.025141 
L 132.631273 273.342813 
L 129.745455 273.391089 
L 126.859636 273.160609 
" style="fill:none;stroke:#001ff0;stroke-width:1.5;"/>
    <path clip-path="url(#p3102a88488)" d="M 265.378909 273.025141 
L 263.570184 272.64 
L 262.493091 272.320203 
L 259.607273 270.934967 
L 258.254261 269.952 
L 256.721455 268.046241 
L 256.239777 267.264 
L 255.367865 264.576 
L 255.09359 261.888 
L 255.281845 259.2 
L 255.917573 256.512 
L 256.721455 254.602097 
L 257.122552 253.824 
L 259.234408 251.136 
L 259.607273 250.789261 
L 262.493091 248.863396 
L 263.464067 248.448 
L 265.378909 247.762134 
L 268.264727 247.193605 
L 271.150545 247.044185 
L 274.036364 247.32472 
L 276.922182 248.15289 
L 277.486831 248.448 
L 279.808 249.99132 
L 280.830501 251.136 
L 282.459128 253.824 
L 282.693818 254.428895 
L 283.279217 256.512 
L 283.677561 259.2 
L 283.757314 261.888 
L 283.504588 264.576 
L 282.818387 267.264 
L 282.693818 267.539297 
L 281.114367 269.952 
L 279.808 271.094764 
L 276.922182 272.554537 
L 276.613787 272.64 
L 274.036364 273.160609 
L 271.150545 273.391089 
L 268.264727 273.342813 
L 265.378909 273.025141 
" style="fill:none;stroke:#001ff0;stroke-width:1.5;"/>
    <path clip-path="url(#p3102a88488)" d="M 173.032727 268.558391 
L 170.635083 267.264 
L 170.146909 266.765458 
L 168.831828 264.576 
L 168.386319 261.888 
L 168.894291 259.2 
L 170.146909 256.882848 
L 170.477707 256.512 
L 173.032727 254.759118 
L 175.918545 253.970037 
L 178.804364 254.150369 
L 181.690182 255.287309 
L 183.290625 256.512 
L 184.576 258.097824 
L 185.176929 259.2 
L 185.744081 261.888 
L 185.349359 264.576 
L 184.576 265.918736 
L 183.405277 267.264 
L 181.690182 268.276321 
L 178.804364 269.122977 
L 175.918545 269.216315 
L 173.032727 268.558391 
" style="fill:none;stroke:#001ff0;stroke-width:1.5;"/>
    <path clip-path="url(#p3102a88488)" d="M 219.205818 268.276321 
L 217.490723 267.264 
L 216.32 265.918736 
L 215.546641 264.576 
L 215.151919 261.888 
L 215.719071 259.2 
L 216.32 258.097824 
L 217.605375 256.512 
L 219.205818 255.287309 
L 222.091636 254.150369 
L 224.977455 253.970037 
L 227.863273 254.759118 
L 230.418293 256.512 
L 230.749091 256.882848 
L 232.001709 259.2 
L 232.509681 261.888 
L 232.064172 264.576 
L 230.749091 266.765458 
L 230.260917 267.264 
L 227.863273 268.558391 
L 224.977455 269.216315 
L 222.091636 269.122977 
L 219.205818 268.276321 
" style="fill:none;stroke:#001ff0;stroke-width:1.5;"/>
    <path clip-path="url(#p3102a88488)" d="M 74.914909 229.976126 
L 74.449442 229.632 
L 72.165926 226.944 
L 72.029091 226.673215 
L 71.193628 224.256 
L 70.697191 221.568 
L 70.487836 218.88 
L 70.504721 216.192 
L 70.74149 213.504 
L 71.239739 210.816 
L 72.029091 208.350735 
L 72.133112 208.128 
L 74.048702 205.44 
L 74.914909 204.634912 
L 77.800727 203.129972 
L 79.28291 202.752 
L 80.686545 202.45041 
L 83.572364 202.233958 
L 86.458182 202.342974 
L 89.288644 202.752 
L 89.344 202.761178 
L 92.229818 203.602148 
L 95.115636 204.975913 
L 95.816381 205.44 
L 98.001455 207.438275 
L 98.576165 208.128 
L 100.104136 210.816 
L 100.887273 213.144833 
L 100.995099 213.504 
L 101.433407 216.192 
L 101.510252 218.88 
L 101.218511 221.568 
L 100.887273 222.79997 
L 100.449159 224.256 
L 98.924593 226.944 
L 98.001455 227.918167 
L 95.776904 229.632 
L 95.115636 229.973522 
L 92.229818 231.035045 
L 89.344 231.673525 
L 86.458182 232.002999 
L 83.572364 232.064595 
L 80.686545 231.840762 
L 77.800727 231.234365 
L 74.914909 229.976126 
" style="fill:none;stroke:#001ff0;stroke-width:1.5;"/>
    <path clip-path="url(#p3102a88488)" d="M 305.780364 229.973522 
L 305.119096 229.632 
L 302.894545 227.918167 
L 301.971407 226.944 
L 300.446841 224.256 
L 300.008727 222.79997 
L 299.677489 221.568 
L 299.385748 218.88 
L 299.462593 216.192 
L 299.900901 213.504 
L 300.008727 213.144833 
L 300.791864 210.816 
L 302.319835 208.128 
L 302.894545 207.438275 
L 305.079619 205.44 
L 305.780364 204.975913 
L 308.666182 203.602148 
L 311.552 202.761178 
L 311.607356 202.752 
L 314.437818 202.342974 
L 317.323636 202.233958 
L 320.209455 202.45041 
L 321.61309 202.752 
L 323.095273 203.129972 
L 325.981091 204.634912 
L 326.847298 205.44 
L 328.762888 208.128 
L 328.866909 208.350735 
L 329.656261 210.816 
L 330.15451 213.504 
L 330.391279 216.192 
L 330.408164 218.88 
L 330.198809 221.568 
L 329.702372 224.256 
L 328.866909 226.673215 
L 328.730074 226.944 
L 326.446558 229.632 
L 325.981091 229.976126 
L 323.095273 231.234365 
L 320.209455 231.840762 
L 317.323636 232.064595 
L 314.437818 232.002999 
L 311.552 231.673525 
L 308.666182 231.035045 
L 305.780364 229.973522 
" style="fill:none;stroke:#001ff0;stroke-width:1.5;"/>
    <path clip-path="url(#p3102a88488)" d="M 77.800727 187.096831 
L 76.864642 186.624 
L 74.914909 185.254904 
L 73.832702 183.936 
L 72.467046 181.248 
L 72.029091 179.737538 
L 71.784645 178.56 
L 71.521632 175.872 
L 71.521632 173.184 
L 71.784645 170.496 
L 72.029091 169.318462 
L 72.467046 167.808 
L 73.832702 165.12 
L 74.914909 163.801096 
L 76.864642 162.432 
L 77.800727 161.959169 
L 80.686545 161.198519 
L 83.572364 160.952395 
L 86.458182 161.096529 
L 89.344 161.613934 
L 91.849966 162.432 
L 92.229818 162.594864 
L 95.115636 164.45021 
L 95.862755 165.12 
L 97.807344 167.808 
L 98.001455 168.263615 
L 98.817692 170.496 
L 99.265529 173.184 
L 99.265529 175.872 
L 98.817692 178.56 
L 98.001455 180.792385 
L 97.807344 181.248 
L 95.862755 183.936 
L 95.115636 184.60579 
L 92.229818 186.461136 
L 91.849966 186.624 
L 89.344 187.442066 
L 86.458182 187.959471 
L 83.572364 188.103605 
L 80.686545 187.857481 
L 77.800727 187.096831 
" style="fill:none;stroke:#001ff0;stroke-width:1.5;"/>
    <path clip-path="url(#p3102a88488)" d="M 311.552 187.442066 
L 309.046034 186.624 
L 308.666182 186.461136 
L 305.780364 184.60579 
L 305.033245 183.936 
L 303.088656 181.248 
L 302.894545 180.792385 
L 302.078308 178.56 
L 301.630471 175.872 
L 301.630471 173.184 
L 302.078308 170.496 
L 302.894545 168.263615 
L 303.088656 167.808 
L 305.033245 165.12 
L 305.780364 164.45021 
L 308.666182 162.594864 
L 309.046034 162.432 
L 311.552 161.613934 
L 314.437818 161.096529 
L 317.323636 160.952395 
L 320.209455 161.198519 
L 323.095273 161.959169 
L 324.031358 162.432 
L 325.981091 163.801096 
L 327.063298 165.12 
L 328.428954 167.808 
L 328.866909 169.318462 
L 329.111355 170.496 
L 329.374368 173.184 
L 329.374368 175.872 
L 329.111355 178.56 
L 328.866909 179.737538 
L 328.428954 181.248 
L 327.063298 183.936 
L 325.981091 185.254904 
L 324.031358 186.624 
L 323.095273 187.096831 
L 320.209455 187.857481 
L 317.323636 188.103605 
L 314.437818 187.959471 
L 311.552 187.442066 
" style="fill:none;stroke:#001ff0;stroke-width:1.5;"/>
    <path clip-path="url(#p3102a88488)" d="M 80.686545 146.60559 
L 79.28291 146.304 
L 77.800727 145.926028 
L 74.914909 144.421088 
L 74.048702 143.616 
L 72.133112 140.928 
L 72.029091 140.705265 
L 71.239739 138.24 
L 70.74149 135.552 
L 70.504721 132.864 
L 70.487836 130.176 
L 70.697191 127.488 
L 71.193628 124.8 
L 72.029091 122.382785 
L 72.165926 122.112 
L 74.449442 119.424 
L 74.914909 119.079874 
L 77.800727 117.821635 
L 80.686545 117.215238 
L 83.572364 116.991405 
L 86.458182 117.053001 
L 89.344 117.382475 
L 92.229818 118.020955 
L 95.115636 119.082478 
L 95.776904 119.424 
L 98.001455 121.137833 
L 98.924593 122.112 
L 100.449159 124.8 
L 100.887273 126.25603 
L 101.218511 127.488 
L 101.510252 130.176 
L 101.433407 132.864 
L 100.995099 135.552 
L 100.887273 135.911167 
L 100.104136 138.24 
L 98.576165 140.928 
L 98.001455 141.617725 
L 95.816381 143.616 
L 95.115636 144.080087 
L 92.229818 145.453852 
L 89.344 146.294822 
L 89.288644 146.304 
L 86.458182 146.713026 
L 83.572364 146.822042 
L 80.686545 146.60559 
" style="fill:none;stroke:#001ff0;stroke-width:1.5;"/>
    <path clip-path="url(#p3102a88488)" d="M 314.437818 146.713026 
L 311.607356 146.304 
L 311.552 146.294822 
L 308.666182 145.453852 
L 305.780364 144.080087 
L 305.079619 143.616 
L 302.894545 141.617725 
L 302.319835 140.928 
L 300.791864 138.24 
L 300.008727 135.911167 
L 299.900901 135.552 
L 299.462593 132.864 
L 299.385748 130.176 
L 299.677489 127.488 
L 300.008727 126.25603 
L 300.446841 124.8 
L 301.971407 122.112 
L 302.894545 121.137833 
L 305.119096 119.424 
L 305.780364 119.082478 
L 308.666182 118.020955 
L 311.552 117.382475 
L 314.437818 117.053001 
L 317.323636 116.991405 
L 320.209455 117.215238 
L 323.095273 117.821635 
L 325.981091 119.079874 
L 326.446558 119.424 
L 328.730074 122.112 
L 328.866909 122.382785 
L 329.702372 124.8 
L 330.198809 127.488 
L 330.408164 130.176 
L 330.391279 132.864 
L 330.15451 135.552 
L 329.656261 138.24 
L 328.866909 140.705265 
L 328.762888 140.928 
L 326.847298 143.616 
L 325.981091 144.421088 
L 323.095273 145.926028 
L 321.61309 146.304 
L 320.209455 146.60559 
L 317.323636 146.822042 
L 314.437818 146.713026 
" style="fill:none;stroke:#001ff0;stroke-width:1.5;"/>
    <path clip-path="url(#p3102a88488)" d="M 77.800727 106.635958 
L 75.701476 105.984 
L 74.914909 105.68773 
L 72.029091 103.59967 
L 71.787614 103.296 
L 70.299024 100.608 
L 69.452385 97.92 
L 69.143273 96.360102 
L 68.976013 95.232 
L 68.726822 92.544 
L 68.610416 89.856 
L 68.611044 87.168 
L 68.738453 84.48 
L 69.036466 81.792 
L 69.143273 81.230187 
L 69.700052 79.104 
L 71.092472 76.416 
L 72.029091 75.443521 
L 74.914909 73.884249 
L 75.451667 73.728 
L 77.800727 73.232666 
L 80.686545 72.91857 
L 83.572364 72.786641 
L 86.458182 72.786754 
L 89.344 72.906529 
L 92.229818 73.159969 
L 95.115636 73.592135 
L 95.750774 73.728 
L 98.001455 74.401725 
L 100.887273 75.833232 
L 101.682043 76.416 
L 103.754262 79.104 
L 103.773091 79.14737 
L 104.7426 81.792 
L 105.232428 84.48 
L 105.421333 87.168 
L 105.382964 89.856 
L 105.130738 92.544 
L 104.631645 95.232 
L 103.792802 97.92 
L 103.773091 97.966007 
L 102.408795 100.608 
L 100.887273 102.461478 
L 99.960138 103.296 
L 98.001455 104.591464 
L 95.115636 105.815472 
L 94.533785 105.984 
L 92.229818 106.559566 
L 89.344 107.004922 
L 86.458182 107.231581 
L 83.572364 107.265924 
L 80.686545 107.09217 
L 77.800727 106.635958 
" style="fill:none;stroke:#001ff0;stroke-width:1.5;"/>
    <path clip-path="url(#p3102a88488)" d="M 308.666182 106.559566 
L 306.362215 105.984 
L 305.780364 105.815472 
L 302.894545 104.591464 
L 300.935862 103.296 
L 300.008727 102.461478 
L 298.487205 100.608 
L 297.122909 97.966007 
L 297.103198 97.92 
L 296.264355 95.232 
L 295.765262 92.544 
L 295.513036 89.856 
L 295.474667 87.168 
L 295.663572 84.48 
L 296.1534 81.792 
L 297.122909 79.14737 
L 297.141738 79.104 
L 299.213957 76.416 
L 300.008727 75.833232 
L 302.894545 74.401725 
L 305.145226 73.728 
L 305.780364 73.592135 
L 308.666182 73.159969 
L 311.552 72.906529 
L 314.437818 72.786754 
L 317.323636 72.786641 
L 320.209455 72.91857 
L 323.095273 73.232666 
L 325.444333 73.728 
L 325.981091 73.884249 
L 328.866909 75.443521 
L 329.803528 76.416 
L 331.195948 79.104 
L 331.752727 81.230187 
L 331.859534 81.792 
L 332.157547 84.48 
L 332.284956 87.168 
L 332.285584 89.856 
L 332.169178 92.544 
L 331.919987 95.232 
L 331.752727 96.360102 
L 331.443615 97.92 
L 330.596976 100.608 
L 329.108386 103.296 
L 328.866909 103.59967 
L 325.981091 105.68773 
L 325.194524 105.984 
L 323.095273 106.635958 
L 320.209455 107.09217 
L 317.323636 107.265924 
L 314.437818 107.231581 
L 311.552 107.004922 
L 308.666182 106.559566 
" style="fill:none;stroke:#001ff0;stroke-width:1.5;"/>
    <path clip-path="url(#p3102a88488)" d="M 123.973818 100.90311 
L 123.409169 100.608 
L 121.088 99.06468 
L 120.065499 97.92 
L 118.436872 95.232 
L 118.202182 94.627105 
L 117.616783 92.544 
L 117.218439 89.856 
L 117.138686 87.168 
L 117.391412 84.48 
L 118.077613 81.792 
L 118.202182 81.516703 
L 119.781633 79.104 
L 121.088 77.961236 
L 123.973818 76.501463 
L 124.282213 76.416 
L 126.859636 75.895391 
L 129.745455 75.664911 
L 132.631273 75.713187 
L 135.517091 76.030859 
L 137.325816 76.416 
L 138.402909 76.735797 
L 141.288727 78.121033 
L 142.641739 79.104 
L 144.174545 81.009759 
L 144.656223 81.792 
L 145.528135 84.48 
L 145.80241 87.168 
L 145.614155 89.856 
L 144.978427 92.544 
L 144.174545 94.453903 
L 143.773448 95.232 
L 141.661592 97.92 
L 141.288727 98.266739 
L 138.402909 100.192604 
L 137.431933 100.608 
L 135.517091 101.293866 
L 132.631273 101.862395 
L 129.745455 102.011815 
L 126.859636 101.73128 
L 123.973818 100.90311 
" style="fill:none;stroke:#001ff0;stroke-width:1.5;"/>
    <path clip-path="url(#p3102a88488)" d="M 265.378909 101.293866 
L 263.464067 100.608 
L 262.493091 100.192604 
L 259.607273 98.266739 
L 259.234408 97.92 
L 257.122552 95.232 
L 256.721455 94.453903 
L 255.917573 92.544 
L 255.281845 89.856 
L 255.09359 87.168 
L 255.367865 84.48 
L 256.239777 81.792 
L 256.721455 81.009759 
L 258.254261 79.104 
L 259.607273 78.121033 
L 262.493091 76.735797 
L 263.570184 76.416 
L 265.378909 76.030859 
L 268.264727 75.713187 
L 271.150545 75.664911 
L 274.036364 75.895391 
L 276.613787 76.416 
L 276.922182 76.501463 
L 279.808 77.961236 
L 281.114367 79.104 
L 282.693818 81.516703 
L 282.818387 81.792 
L 283.504588 84.48 
L 283.757314 87.168 
L 283.677561 89.856 
L 283.279217 92.544 
L 282.693818 94.627105 
L 282.459128 95.232 
L 280.830501 97.92 
L 279.808 99.06468 
L 277.486831 100.608 
L 276.922182 100.90311 
L 274.036364 101.73128 
L 271.150545 102.011815 
L 268.264727 101.862395 
L 265.378909 101.293866 
" style="fill:none;stroke:#001ff0;stroke-width:1.5;"/>
    <path clip-path="url(#p3102a88488)" d="M 173.032727 94.296882 
L 170.477707 92.544 
L 170.146909 92.173152 
L 168.894291 89.856 
L 168.386319 87.168 
L 168.831828 84.48 
L 170.146909 82.290542 
L 170.635083 81.792 
L 173.032727 80.497609 
L 175.918545 79.839685 
L 178.804364 79.933023 
L 181.690182 80.779679 
L 183.405277 81.792 
L 184.576 83.137264 
L 185.349359 84.48 
L 185.744081 87.168 
L 185.176929 89.856 
L 184.576 90.958176 
L 183.290625 92.544 
L 181.690182 93.768691 
L 178.804364 94.905631 
L 175.918545 95.085963 
L 173.032727 94.296882 
" style="fill:none;stroke:#001ff0;stroke-width:1.5;"/>
    <path clip-path="url(#p3102a88488)" d="M 219.205818 93.768691 
L 217.605375 92.544 
L 216.32 90.958176 
L 215.719071 89.856 
L 215.151919 87.168 
L 215.546641 84.48 
L 216.32 83.137264 
L 217.490723 81.792 
L 219.205818 80.779679 
L 222.091636 79.933023 
L 224.977455 79.839685 
L 227.863273 80.497609 
L 230.260917 81.792 
L 230.749091 82.290542 
L 232.064172 84.48 
L 232.509681 87.168 
L 232.001709 89.856 
L 230.749091 92.173152 
L 230.418293 92.544 
L 227.863273 94.296882 
L 224.977455 95.085963 
L 222.091636 94.905631 
L 219.205818 93.768691 
" style="fill:none;stroke:#001ff0;stroke-width:1.5;"/>
   </g>
   <g id="LineCollection_9"/>
   <g id="patch_3">
    <path d="M 57.6 307.584 
L 57.6 41.472 
" style="fill:none;stroke:#000000;stroke-linecap:square;stroke-linejoin:miter;stroke-width:0.8;"/>
   </g>
   <g id="patch_4">
    <path d="M 343.296 307.584 
L 343.296 41.472 
" style="fill:none;stroke:#000000;stroke-linecap:square;stroke-linejoin:miter;stroke-width:0.8;"/>
   </g>
   <g id="patch_5">
    <path d="M 57.6 307.584 
L 343.296 307.584 
" style="fill:none;stroke:#000000;stroke-linecap:square;stroke-linejoin:miter;stroke-width:0.8;"/>
   </g>
   <g id="patch_6">
    <path d="M 57.6 41.472 
L 343.296 41.472 
" style="fill:none;stroke:#000000;stroke-linecap:square;stroke-linejoin:miter;stroke-width:0.8;"/>
   </g>
  </g>
  <g id="axes_2">
   <g id="patch_7">
    <path clip-path="url(#p4c10fb6467)" d="M 361.152 307.584 
L 361.152 274.32 
L 361.152 74.736 
L 361.152 41.472 
L 374.4576 41.472 
L 374.4576 74.736 
L 374.4576 274.32 
L 374.4576 307.584 
z
" style="fill:#ffffff;stroke:#ffffff;stroke-linejoin:miter;stroke-width:0.01;"/>
   </g>
   <g id="matplotlib.axis_3"/>
   <g id="matplotlib.axis_4">
    <g id="ytick_10">
     <g id="line2d_19">
      <defs>
       <path d="M 0 0 
L 3.5 0 
" id="me769f60437" style="stroke:#000000;stroke-width:0.8;"/>
      </defs>
      <g>
       <use style="stroke:#000000;stroke-width:0.8;" x="374.4576" xlink:href="#me769f60437" y="307.584"/>
      </g>
     </g>
     <g id="text_19">
      <!-- −20.0 -->
      <g transform="translate(381.4576 311.383219)scale(0.1 -0.1)">
       <use xlink:href="#DejaVuSans-8722"/>
       <use x="83.789062" xlink:href="#DejaVuSans-50"/>
       <use x="147.412109" xlink:href="#DejaVuSans-48"/>
       <use x="211.035156" xlink:href="#DejaVuSans-46"/>
       <use x="242.822266" xlink:href="#DejaVuSans-48"/>
      </g>
     </g>
    </g>
    <g id="ytick_11">
     <g id="line2d_20">
      <g>
       <use style="stroke:#000000;stroke-width:0.8;" x="374.4576" xlink:href="#me769f60437" y="274.32"/>
      </g>
     </g>
     <g id="text_20">
      <!-- −17.5 -->
      <g transform="translate(381.4576 278.119219)scale(0.1 -0.1)">
       <use xlink:href="#DejaVuSans-8722"/>
       <use x="83.789062" xlink:href="#DejaVuSans-49"/>
       <use x="147.412109" xlink:href="#DejaVuSans-55"/>
       <use x="211.035156" xlink:href="#DejaVuSans-46"/>
       <use x="242.822266" xlink:href="#DejaVuSans-53"/>
      </g>
     </g>
    </g>
    <g id="ytick_12">
     <g id="line2d_21">
      <g>
       <use style="stroke:#000000;stroke-width:0.8;" x="374.4576" xlink:href="#me769f60437" y="241.056"/>
      </g>
     </g>
     <g id="text_21">
      <!-- −15.0 -->
      <g transform="translate(381.4576 244.855219)scale(0.1 -0.1)">
       <use xlink:href="#DejaVuSans-8722"/>
       <use x="83.789062" xlink:href="#DejaVuSans-49"/>
       <use x="147.412109" xlink:href="#DejaVuSans-53"/>
       <use x="211.035156" xlink:href="#DejaVuSans-46"/>
       <use x="242.822266" xlink:href="#DejaVuSans-48"/>
      </g>
     </g>
    </g>
    <g id="ytick_13">
     <g id="line2d_22">
      <g>
       <use style="stroke:#000000;stroke-width:0.8;" x="374.4576" xlink:href="#me769f60437" y="207.792"/>
      </g>
     </g>
     <g id="text_22">
      <!-- −12.5 -->
      <g transform="translate(381.4576 211.591219)scale(0.1 -0.1)">
       <use xlink:href="#DejaVuSans-8722"/>
       <use x="83.789062" xlink:href="#DejaVuSans-49"/>
       <use x="147.412109" xlink:href="#DejaVuSans-50"/>
       <use x="211.035156" xlink:href="#DejaVuSans-46"/>
       <use x="242.822266" xlink:href="#DejaVuSans-53"/>
      </g>
     </g>
    </g>
    <g id="ytick_14">
     <g id="line2d_23">
      <g>
       <use style="stroke:#000000;stroke-width:0.8;" x="374.4576" xlink:href="#me769f60437" y="174.528"/>
      </g>
     </g>
     <g id="text_23">
      <!-- −10.0 -->
      <g transform="translate(381.4576 178.327219)scale(0.1 -0.1)">
       <use xlink:href="#DejaVuSans-8722"/>
       <use x="83.789062" xlink:href="#DejaVuSans-49"/>
       <use x="147.412109" xlink:href="#DejaVuSans-48"/>
       <use x="211.035156" xlink:href="#DejaVuSans-46"/>
       <use x="242.822266" xlink:href="#DejaVuSans-48"/>
      </g>
     </g>
    </g>
    <g id="ytick_15">
     <g id="line2d_24">
      <g>
       <use style="stroke:#000000;stroke-width:0.8;" x="374.4576" xlink:href="#me769f60437" y="141.264"/>
      </g>
     </g>
     <g id="text_24">
      <!-- −7.5 -->
      <g transform="translate(381.4576 145.063219)scale(0.1 -0.1)">
       <use xlink:href="#DejaVuSans-8722"/>
       <use x="83.789062" xlink:href="#DejaVuSans-55"/>
       <use x="147.412109" xlink:href="#DejaVuSans-46"/>
       <use x="179.199219" xlink:href="#DejaVuSans-53"/>
      </g>
     </g>
    </g>
    <g id="ytick_16">
     <g id="line2d_25">
      <g>
       <use style="stroke:#000000;stroke-width:0.8;" x="374.4576" xlink:href="#me769f60437" y="108"/>
      </g>
     </g>
     <g id="text_25">
      <!-- −5.0 -->
      <g transform="translate(381.4576 111.799219)scale(0.1 -0.1)">
       <use xlink:href="#DejaVuSans-8722"/>
       <use x="83.789062" xlink:href="#DejaVuSans-53"/>
       <use x="147.412109" xlink:href="#DejaVuSans-46"/>
       <use x="179.199219" xlink:href="#DejaVuSans-48"/>
      </g>
     </g>
    </g>
    <g id="ytick_17">
     <g id="line2d_26">
      <g>
       <use style="stroke:#000000;stroke-width:0.8;" x="374.4576" xlink:href="#me769f60437" y="74.736"/>
      </g>
     </g>
     <g id="text_26">
      <!-- −2.5 -->
      <g transform="translate(381.4576 78.535219)scale(0.1 -0.1)">
       <use xlink:href="#DejaVuSans-8722"/>
       <use x="83.789062" xlink:href="#DejaVuSans-50"/>
       <use x="147.412109" xlink:href="#DejaVuSans-46"/>
       <use x="179.199219" xlink:href="#DejaVuSans-53"/>
      </g>
     </g>
    </g>
    <g id="ytick_18">
     <g id="line2d_27">
      <g>
       <use style="stroke:#000000;stroke-width:0.8;" x="374.4576" xlink:href="#me769f60437" y="41.472"/>
      </g>
     </g>
     <g id="text_27">
      <!-- 0.0 -->
      <g transform="translate(381.4576 45.271219)scale(0.1 -0.1)">
       <use xlink:href="#DejaVuSans-48"/>
       <use x="63.623047" xlink:href="#DejaVuSans-46"/>
       <use x="95.410156" xlink:href="#DejaVuSans-48"/>
      </g>
     </g>
    </g>
   </g>
   <g id="LineCollection_10">
    <path clip-path="url(#p4c10fb6467)" d="M 361.152 307.584 
L 374.4576 307.584 
" style="fill:none;stroke:#00ff80;stroke-width:1.5;"/>
    <path clip-path="url(#p4c10fb6467)" d="M 361.152 274.32 
L 374.4576 274.32 
" style="fill:none;stroke:#00df90;stroke-width:1.5;"/>
    <path clip-path="url(#p4c10fb6467)" d="M 361.152 241.056 
L 374.4576 241.056 
" style="fill:none;stroke:#00bfa0;stroke-width:1.5;"/>
    <path clip-path="url(#p4c10fb6467)" d="M 361.152 207.792 
L 374.4576 207.792 
" style="fill:none;stroke:#009fb0;stroke-width:1.5;"/>
    <path clip-path="url(#p4c10fb6467)" d="M 361.152 174.528 
L 374.4576 174.528 
" style="fill:none;stroke:#007fc0;stroke-width:1.5;"/>
    <path clip-path="url(#p4c10fb6467)" d="M 361.152 141.264 
L 374.4576 141.264 
" style="fill:none;stroke:#005fd0;stroke-width:1.5;"/>
    <path clip-path="url(#p4c10fb6467)" d="M 361.152 108 
L 374.4576 108 
" style="fill:none;stroke:#003fe0;stroke-width:1.5;"/>
    <path clip-path="url(#p4c10fb6467)" d="M 361.152 74.736 
L 374.4576 74.736 
" style="fill:none;stroke:#001ff0;stroke-width:1.5;"/>
    <path clip-path="url(#p4c10fb6467)" d="M 361.152 41.472 
L 374.4576 41.472 
" style="fill:none;stroke:#0000ff;stroke-width:1.5;"/>
   </g>
   <g id="patch_8">
    <path d="M 361.152 307.584 
L 361.152 274.32 
L 361.152 74.736 
L 361.152 41.472 
L 374.4576 41.472 
L 374.4576 74.736 
L 374.4576 274.32 
L 374.4576 307.584 
z
" style="fill:none;stroke:#000000;stroke-linejoin:miter;stroke-width:0.8;"/>
   </g>
  </g>
 </g>
 <defs>
  <clipPath id="p3102a88488">
   <rect height="266.112" width="285.696" x="57.6" y="41.472"/>
  </clipPath>
  <clipPath id="p4c10fb6467">
   <rect height="266.112" width="13.3056" x="361.152" y="41.472"/>
  </clipPath>
 </defs>
</svg>
