<?xml version="1.0" encoding="utf-8" standalone="no"?>
<!DOCTYPE svg PUBLIC "-//W3C//DTD SVG 1.1//EN"
  "http://www.w3.org/Graphics/SVG/1.1/DTD/svg11.dtd">
<!-- Created with matplotlib (https://matplotlib.org/) -->
<svg height="345.6pt" version="1.1" viewBox="0 0 460.8 345.6" width="460.8pt" xmlns="http://www.w3.org/2000/svg" xmlns:xlink="http://www.w3.org/1999/xlink">
 <defs>
  <style type="text/css">
*{stroke-linecap:butt;stroke-linejoin:round;}
  </style>
 </defs>
 <g id="figure_1">
  <g id="patch_1">
   <path d="M 0 345.6 
L 460.8 345.6 
L 460.8 0 
L 0 0 
z
" style="fill:#ffffff;"/>
  </g>
  <g id="axes_1">
   <g id="patch_2">
    <path d="M 57.6 307.584 
L 343.296 307.584 
L 343.296 41.472 
L 57.6 41.472 
z
" style="fill:#ffffff;"/>
   </g>
   <g id="matplotlib.axis_1">
    <g id="xtick_1">
     <g id="line2d_1">
      <defs>
       <path d="M 0 0 
L 0 3.5 
" id="me85923ad4b" style="stroke:#000000;stroke-width:0.8;"/>
      </defs>
      <g>
       <use style="stroke:#000000;stroke-width:0.8;" x="57.6" xlink:href="#me85923ad4b" y="307.584"/>
      </g>
     </g>
     <g id="text_1">
      <!-- −4 -->
      <defs>
       <path d="M 10.59375 35.5 
L 73.1875 35.5 
L 73.1875 27.203125 
L 10.59375 27.203125 
z
" id="DejaVuSans-8722"/>
       <path d="M 37.796875 64.3125 
L 12.890625 25.390625 
L 37.796875 25.390625 
z
M 35.203125 72.90625 
L 47.609375 72.90625 
L 47.609375 25.390625 
L 58.015625 25.390625 
L 58.015625 17.1875 
L 47.609375 17.1875 
L 47.609375 0 
L 37.796875 0 
L 37.796875 17.1875 
L 4.890625 17.1875 
L 4.890625 26.703125 
z
" id="DejaVuSans-52"/>
      </defs>
      <g transform="translate(50.228906 322.182437)scale(0.1 -0.1)">
       <use xlink:href="#DejaVuSans-8722"/>
       <use x="83.789062" xlink:href="#DejaVuSans-52"/>
      </g>
     </g>
    </g>
    <g id="xtick_2">
     <g id="line2d_2">
      <g>
       <use style="stroke:#000000;stroke-width:0.8;" x="93.312" xlink:href="#me85923ad4b" y="307.584"/>
      </g>
     </g>
     <g id="text_2">
      <!-- −3 -->
      <defs>
       <path d="M 40.578125 39.3125 
Q 47.65625 37.796875 51.625 33 
Q 55.609375 28.21875 55.609375 21.1875 
Q 55.609375 10.40625 48.1875 4.484375 
Q 40.765625 -1.421875 27.09375 -1.421875 
Q 22.515625 -1.421875 17.65625 -0.515625 
Q 12.796875 0.390625 7.625 2.203125 
L 7.625 11.71875 
Q 11.71875 9.328125 16.59375 8.109375 
Q 21.484375 6.890625 26.8125 6.890625 
Q 36.078125 6.890625 40.9375 10.546875 
Q 45.796875 14.203125 45.796875 21.1875 
Q 45.796875 27.640625 41.28125 31.265625 
Q 36.765625 34.90625 28.71875 34.90625 
L 20.21875 34.90625 
L 20.21875 43.015625 
L 29.109375 43.015625 
Q 36.375 43.015625 40.234375 45.921875 
Q 44.09375 48.828125 44.09375 54.296875 
Q 44.09375 59.90625 40.109375 62.90625 
Q 36.140625 65.921875 28.71875 65.921875 
Q 24.65625 65.921875 20.015625 65.03125 
Q 15.375 64.15625 9.8125 62.3125 
L 9.8125 71.09375 
Q 15.4375 72.65625 20.34375 73.4375 
Q 25.25 74.21875 29.59375 74.21875 
Q 40.828125 74.21875 47.359375 69.109375 
Q 53.90625 64.015625 53.90625 55.328125 
Q 53.90625 49.265625 50.4375 45.09375 
Q 46.96875 40.921875 40.578125 39.3125 
z
" id="DejaVuSans-51"/>
      </defs>
      <g transform="translate(85.940906 322.182437)scale(0.1 -0.1)">
       <use xlink:href="#DejaVuSans-8722"/>
       <use x="83.789062" xlink:href="#DejaVuSans-51"/>
      </g>
     </g>
    </g>
    <g id="xtick_3">
     <g id="line2d_3">
      <g>
       <use style="stroke:#000000;stroke-width:0.8;" x="129.024" xlink:href="#me85923ad4b" y="307.584"/>
      </g>
     </g>
     <g id="text_3">
      <!-- −2 -->
      <defs>
       <path d="M 19.1875 8.296875 
L 53.609375 8.296875 
L 53.609375 0 
L 7.328125 0 
L 7.328125 8.296875 
Q 12.9375 14.109375 22.625 23.890625 
Q 32.328125 33.6875 34.8125 36.53125 
Q 39.546875 41.84375 41.421875 45.53125 
Q 43.3125 49.21875 43.3125 52.78125 
Q 43.3125 58.59375 39.234375 62.25 
Q 35.15625 65.921875 28.609375 65.921875 
Q 23.96875 65.921875 18.8125 64.3125 
Q 13.671875 62.703125 7.8125 59.421875 
L 7.8125 69.390625 
Q 13.765625 71.78125 18.9375 73 
Q 24.125 74.21875 28.421875 74.21875 
Q 39.75 74.21875 46.484375 68.546875 
Q 53.21875 62.890625 53.21875 53.421875 
Q 53.21875 48.921875 51.53125 44.890625 
Q 49.859375 40.875 45.40625 35.40625 
Q 44.1875 33.984375 37.640625 27.21875 
Q 31.109375 20.453125 19.1875 8.296875 
z
" id="DejaVuSans-50"/>
      </defs>
      <g transform="translate(121.652906 322.182437)scale(0.1 -0.1)">
       <use xlink:href="#DejaVuSans-8722"/>
       <use x="83.789062" xlink:href="#DejaVuSans-50"/>
      </g>
     </g>
    </g>
    <g id="xtick_4">
     <g id="line2d_4">
      <g>
       <use style="stroke:#000000;stroke-width:0.8;" x="164.736" xlink:href="#me85923ad4b" y="307.584"/>
      </g>
     </g>
     <g id="text_4">
      <!-- −1 -->
      <defs>
       <path d="M 12.40625 8.296875 
L 28.515625 8.296875 
L 28.515625 63.921875 
L 10.984375 60.40625 
L 10.984375 69.390625 
L 28.421875 72.90625 
L 38.28125 72.90625 
L 38.28125 8.296875 
L 54.390625 8.296875 
L 54.390625 0 
L 12.40625 0 
z
" id="DejaVuSans-49"/>
      </defs>
      <g transform="translate(157.364906 322.182437)scale(0.1 -0.1)">
       <use xlink:href="#DejaVuSans-8722"/>
       <use x="83.789062" xlink:href="#DejaVuSans-49"/>
      </g>
     </g>
    </g>
    <g id="xtick_5">
     <g id="line2d_5">
      <g>
       <use style="stroke:#000000;stroke-width:0.8;" x="200.448" xlink:href="#me85923ad4b" y="307.584"/>
      </g>
     </g>
     <g id="text_5">
      <!-- 0 -->
      <defs>
       <path d="M 31.78125 66.40625 
Q 24.171875 66.40625 20.328125 58.90625 
Q 16.5 51.421875 16.5 36.375 
Q 16.5 21.390625 20.328125 13.890625 
Q 24.171875 6.390625 31.78125 6.390625 
Q 39.453125 6.390625 43.28125 13.890625 
Q 47.125 21.390625 47.125 36.375 
Q 47.125 51.421875 43.28125 58.90625 
Q 39.453125 66.40625 31.78125 66.40625 
z
M 31.78125 74.21875 
Q 44.046875 74.21875 50.515625 64.515625 
Q 56.984375 54.828125 56.984375 36.375 
Q 56.984375 17.96875 50.515625 8.265625 
Q 44.046875 -1.421875 31.78125 -1.421875 
Q 19.53125 -1.421875 13.0625 8.265625 
Q 6.59375 17.96875 6.59375 36.375 
Q 6.59375 54.828125 13.0625 64.515625 
Q 19.53125 74.21875 31.78125 74.21875 
z
" id="DejaVuSans-48"/>
      </defs>
      <g transform="translate(197.26675 322.182437)scale(0.1 -0.1)">
       <use xlink:href="#DejaVuSans-48"/>
      </g>
     </g>
    </g>
    <g id="xtick_6">
     <g id="line2d_6">
      <g>
       <use style="stroke:#000000;stroke-width:0.8;" x="236.16" xlink:href="#me85923ad4b" y="307.584"/>
      </g>
     </g>
     <g id="text_6">
      <!-- 1 -->
      <g transform="translate(232.97875 322.182437)scale(0.1 -0.1)">
       <use xlink:href="#DejaVuSans-49"/>
      </g>
     </g>
    </g>
    <g id="xtick_7">
     <g id="line2d_7">
      <g>
       <use style="stroke:#000000;stroke-width:0.8;" x="271.872" xlink:href="#me85923ad4b" y="307.584"/>
      </g>
     </g>
     <g id="text_7">
      <!-- 2 -->
      <g transform="translate(268.69075 322.182437)scale(0.1 -0.1)">
       <use xlink:href="#DejaVuSans-50"/>
      </g>
     </g>
    </g>
    <g id="xtick_8">
     <g id="line2d_8">
      <g>
       <use style="stroke:#000000;stroke-width:0.8;" x="307.584" xlink:href="#me85923ad4b" y="307.584"/>
      </g>
     </g>
     <g id="text_8">
      <!-- 3 -->
      <g transform="translate(304.40275 322.182437)scale(0.1 -0.1)">
       <use xlink:href="#DejaVuSans-51"/>
      </g>
     </g>
    </g>
    <g id="xtick_9">
     <g id="line2d_9">
      <g>
       <use style="stroke:#000000;stroke-width:0.8;" x="343.296" xlink:href="#me85923ad4b" y="307.584"/>
      </g>
     </g>
     <g id="text_9">
      <!-- 4 -->
      <g transform="translate(340.11475 322.182437)scale(0.1 -0.1)">
       <use xlink:href="#DejaVuSans-52"/>
      </g>
     </g>
    </g>
   </g>
   <g id="matplotlib.axis_2">
    <g id="ytick_1">
     <g id="line2d_10">
      <defs>
       <path d="M 0 0 
L -3.5 0 
" id="m71545353dc" style="stroke:#000000;stroke-width:0.8;"/>
      </defs>
      <g>
       <use style="stroke:#000000;stroke-width:0.8;" x="57.6" xlink:href="#m71545353dc" y="307.584"/>
      </g>
     </g>
     <g id="text_10">
      <!-- −4 -->
      <g transform="translate(35.857813 311.383219)scale(0.1 -0.1)">
       <use xlink:href="#DejaVuSans-8722"/>
       <use x="83.789062" xlink:href="#DejaVuSans-52"/>
      </g>
     </g>
    </g>
    <g id="ytick_2">
     <g id="line2d_11">
      <g>
       <use style="stroke:#000000;stroke-width:0.8;" x="57.6" xlink:href="#m71545353dc" y="274.32"/>
      </g>
     </g>
     <g id="text_11">
      <!-- −3 -->
      <g transform="translate(35.857813 278.119219)scale(0.1 -0.1)">
       <use xlink:href="#DejaVuSans-8722"/>
       <use x="83.789062" xlink:href="#DejaVuSans-51"/>
      </g>
     </g>
    </g>
    <g id="ytick_3">
     <g id="line2d_12">
      <g>
       <use style="stroke:#000000;stroke-width:0.8;" x="57.6" xlink:href="#m71545353dc" y="241.056"/>
      </g>
     </g>
     <g id="text_12">
      <!-- −2 -->
      <g transform="translate(35.857813 244.855219)scale(0.1 -0.1)">
       <use xlink:href="#DejaVuSans-8722"/>
       <use x="83.789062" xlink:href="#DejaVuSans-50"/>
      </g>
     </g>
    </g>
    <g id="ytick_4">
     <g id="line2d_13">
      <g>
       <use style="stroke:#000000;stroke-width:0.8;" x="57.6" xlink:href="#m71545353dc" y="207.792"/>
      </g>
     </g>
     <g id="text_13">
      <!-- −1 -->
      <g transform="translate(35.857813 211.591219)scale(0.1 -0.1)">
       <use xlink:href="#DejaVuSans-8722"/>
       <use x="83.789062" xlink:href="#DejaVuSans-49"/>
      </g>
     </g>
    </g>
    <g id="ytick_5">
     <g id="line2d_14">
      <g>
       <use style="stroke:#000000;stroke-width:0.8;" x="57.6" xlink:href="#m71545353dc" y="174.528"/>
      </g>
     </g>
     <g id="text_14">
      <!-- 0 -->
      <g transform="translate(44.2375 178.327219)scale(0.1 -0.1)">
       <use xlink:href="#DejaVuSans-48"/>
      </g>
     </g>
    </g>
    <g id="ytick_6">
     <g id="line2d_15">
      <g>
       <use style="stroke:#000000;stroke-width:0.8;" x="57.6" xlink:href="#m71545353dc" y="141.264"/>
      </g>
     </g>
     <g id="text_15">
      <!-- 1 -->
      <g transform="translate(44.2375 145.063219)scale(0.1 -0.1)">
       <use xlink:href="#DejaVuSans-49"/>
      </g>
     </g>
    </g>
    <g id="ytick_7">
     <g id="line2d_16">
      <g>
       <use style="stroke:#000000;stroke-width:0.8;" x="57.6" xlink:href="#m71545353dc" y="108"/>
      </g>
     </g>
     <g id="text_16">
      <!-- 2 -->
      <g transform="translate(44.2375 111.799219)scale(0.1 -0.1)">
       <use xlink:href="#DejaVuSans-50"/>
      </g>
     </g>
    </g>
    <g id="ytick_8">
     <g id="line2d_17">
      <g>
       <use style="stroke:#000000;stroke-width:0.8;" x="57.6" xlink:href="#m71545353dc" y="74.736"/>
      </g>
     </g>
     <g id="text_17">
      <!-- 3 -->
      <g transform="translate(44.2375 78.535219)scale(0.1 -0.1)">
       <use xlink:href="#DejaVuSans-51"/>
      </g>
     </g>
    </g>
    <g id="ytick_9">
     <g id="line2d_18">
      <g>
       <use style="stroke:#000000;stroke-width:0.8;" x="57.6" xlink:href="#m71545353dc" y="41.472"/>
      </g>
     </g>
     <g id="text_18">
      <!-- 4 -->
      <g transform="translate(44.2375 45.271219)scale(0.1 -0.1)">
       <use xlink:href="#DejaVuSans-52"/>
      </g>
     </g>
    </g>
   </g>
   <g id="LineCollection_1"/>
   <g id="LineCollection_2">
    <path clip-path="url(#p88b4516e55)" d="M 196.119273 195.056364 
L 194.608774 194.688 
L 193.233455 194.338284 
L 190.347636 193.205217 
L 188.137568 192 
L 187.461818 191.588051 
L 184.576 189.330065 
L 184.556606 189.312 
L 182.132447 186.624 
L 181.690182 185.994572 
L 180.396269 183.936 
L 179.179816 181.248 
L 178.804364 179.966956 
L 178.40889 178.56 
L 178.033408 175.872 
L 178.033408 173.184 
L 178.40889 170.496 
L 178.804364 169.089044 
L 179.179816 167.808 
L 180.396269 165.12 
L 181.690182 163.061428 
L 182.132447 162.432 
L 184.556606 159.744 
L 184.576 159.725935 
L 187.461818 157.467949 
L 188.137568 157.056 
L 190.347636 155.850783 
L 193.233455 154.717716 
L 194.608774 154.368 
L 196.119273 153.999636 
L 199.005091 153.649892 
L 201.890909 153.649892 
L 204.776727 153.999636 
L 206.287226 154.368 
L 207.662545 154.717716 
L 210.548364 155.850783 
L 212.758432 157.056 
L 213.434182 157.467949 
L 216.32 159.725935 
L 216.339394 159.744 
L 218.763553 162.432 
L 219.205818 163.061428 
L 220.499731 165.12 
L 221.716184 167.808 
L 222.091636 169.089044 
L 222.48711 170.496 
L 222.862592 173.184 
L 222.862592 175.872 
L 222.48711 178.56 
L 222.091636 179.966956 
L 221.716184 181.248 
L 220.499731 183.936 
L 219.205818 185.994572 
L 218.763553 186.624 
L 216.339394 189.312 
L 216.32 189.330065 
L 213.434182 191.588051 
L 212.758432 192 
L 210.548364 193.205217 
L 207.662545 194.338284 
L 206.287226 194.688 
L 204.776727 195.056364 
L 201.890909 195.406108 
L 199.005091 195.406108 
L 196.119273 195.056364 
" style="fill:none;stroke:#00e38e;stroke-width:1.5;"/>
   </g>
   <g id="LineCollection_3">
    <path clip-path="url(#p88b4516e55)" d="M 196.119273 216.443216 
L 193.233455 216.096899 
L 190.347636 215.571713 
L 187.461818 214.860516 
L 183.387804 213.504 
L 181.690182 212.837928 
L 177.547224 210.816 
L 175.918545 209.892414 
L 173.032727 208.008313 
L 169.758426 205.44 
L 166.904277 202.752 
L 164.375273 199.90335 
L 162.48101 197.376 
L 160.762365 194.688 
L 159.318726 192 
L 158.119715 189.312 
L 157.147291 186.624 
L 156.383754 183.936 
L 155.717818 180.514101 
L 155.448114 178.56 
L 155.263258 175.872 
L 155.263258 173.184 
L 155.448114 170.496 
L 155.819918 167.808 
L 156.383754 165.12 
L 157.147291 162.432 
L 158.603636 158.637253 
L 159.318726 157.056 
L 161.489455 153.197036 
L 162.48101 151.68 
L 164.503768 148.992 
L 167.261091 145.942146 
L 170.146909 143.283645 
L 173.2052 140.928 
L 175.918545 139.163586 
L 178.804364 137.562751 
L 181.690182 136.218072 
L 184.576 135.10125 
L 187.461818 134.195484 
L 190.347636 133.484287 
L 194.021363 132.864 
L 196.119273 132.612784 
L 199.005091 132.440599 
L 201.890909 132.440599 
L 204.776727 132.612784 
L 207.662545 132.959101 
L 210.548364 133.484287 
L 213.434182 134.195484 
L 217.508196 135.552 
L 219.205818 136.218072 
L 223.348776 138.24 
L 224.977455 139.163586 
L 227.863273 141.047687 
L 231.137574 143.616 
L 233.991723 146.304 
L 236.520727 149.15265 
L 238.41499 151.68 
L 240.133635 154.368 
L 241.577274 157.056 
L 242.776285 159.744 
L 243.748709 162.432 
L 244.512246 165.12 
L 245.178182 168.541899 
L 245.447886 170.496 
L 245.632742 173.184 
L 245.632742 175.872 
L 245.447886 178.56 
L 245.076082 181.248 
L 244.512246 183.936 
L 243.748709 186.624 
L 242.292364 190.418747 
L 241.577274 192 
L 239.406545 195.858964 
L 238.41499 197.376 
L 236.392232 200.064 
L 233.634909 203.113854 
L 230.749091 205.772355 
L 227.6908 208.128 
L 224.977455 209.892414 
L 222.091636 211.493249 
L 219.205818 212.837928 
L 216.32 213.95475 
L 213.434182 214.860516 
L 210.548364 215.571713 
L 206.874637 216.192 
L 204.776727 216.443216 
L 201.890909 216.615401 
L 199.005091 216.615401 
L 196.119273 216.443216 
L 196.119273 216.443216 
" style="fill:none;stroke:#00c79c;stroke-width:1.5;"/>
   </g>
   <g id="LineCollection_4">
    <path clip-path="url(#p88b4516e55)" d="M 193.233455 237.74136 
L 190.347636 237.39758 
L 187.461818 236.936098 
L 184.576 236.354248 
L 179.462109 235.008 
L 178.804364 234.81585 
L 175.918545 233.848161 
L 172.046574 232.32 
L 170.146909 231.486123 
L 166.437795 229.632 
L 164.375273 228.48795 
L 161.489455 226.720858 
L 157.943206 224.256 
L 154.553869 221.568 
L 151.565246 218.88 
L 148.90968 216.192 
L 146.537094 213.504 
L 144.174545 210.487979 
L 141.288727 206.20686 
L 140.814447 205.44 
L 138.402909 200.982554 
L 137.949785 200.064 
L 136.762286 197.376 
L 135.517091 194.075342 
L 134.829041 192 
L 134.071769 189.312 
L 133.447098 186.624 
L 132.631273 181.604102 
L 132.582575 181.248 
L 132.337428 178.56 
L 132.215173 175.872 
L 132.215173 173.184 
L 132.337428 170.496 
L 132.631273 167.451898 
L 132.951655 165.12 
L 133.447098 162.432 
L 134.071769 159.744 
L 135.517091 154.980658 
L 135.723381 154.368 
L 136.762286 151.68 
L 138.402909 148.073446 
L 139.298154 146.304 
L 141.288727 142.84914 
L 142.516971 140.928 
L 144.414109 138.24 
L 147.060364 134.936841 
L 149.946182 131.779838 
L 152.832 128.99608 
L 155.717818 126.522549 
L 158.603636 124.312599 
L 161.841616 122.112 
L 166.437795 119.424 
L 167.261091 118.982231 
L 172.046574 116.736 
L 173.032727 116.313937 
L 175.918545 115.207839 
L 179.462109 114.048 
L 181.690182 113.407115 
L 184.576 112.701752 
L 187.461818 112.119902 
L 192.851146 111.36 
L 193.233455 111.31464 
L 196.119273 111.086298 
L 199.005091 110.972423 
L 201.890909 110.972423 
L 204.776727 111.086298 
L 208.044854 111.36 
L 210.548364 111.65842 
L 213.434182 112.119902 
L 216.32 112.701752 
L 221.433891 114.048 
L 222.091636 114.24015 
L 224.977455 115.207839 
L 228.849426 116.736 
L 230.749091 117.569877 
L 234.458205 119.424 
L 236.520727 120.56805 
L 239.406545 122.335142 
L 242.952794 124.8 
L 246.342131 127.488 
L 249.330754 130.176 
L 251.98632 132.864 
L 254.358906 135.552 
L 256.721455 138.568021 
L 259.607273 142.84914 
L 260.081553 143.616 
L 262.493091 148.073446 
L 262.946215 148.992 
L 264.133714 151.68 
L 265.378909 154.980658 
L 266.066959 157.056 
L 266.824231 159.744 
L 267.448902 162.432 
L 268.264727 167.451898 
L 268.313425 167.808 
L 268.558572 170.496 
L 268.680827 173.184 
L 268.680827 175.872 
L 268.558572 178.56 
L 268.264727 181.604102 
L 267.944345 183.936 
L 267.448902 186.624 
L 266.824231 189.312 
L 265.378909 194.075342 
L 265.172619 194.688 
L 264.133714 197.376 
L 262.493091 200.982554 
L 261.597846 202.752 
L 259.607273 206.20686 
L 258.379029 208.128 
L 256.481891 210.816 
L 253.835636 214.119159 
L 250.949818 217.276162 
L 248.064 220.05992 
L 245.178182 222.533451 
L 242.292364 224.743401 
L 239.054384 226.944 
L 234.458205 229.632 
L 233.634909 230.073769 
L 228.849426 232.32 
L 227.863273 232.742063 
L 224.977455 233.848161 
L 221.433891 235.008 
L 219.205818 235.648885 
L 216.32 236.354248 
L 213.434182 236.936098 
L 208.044854 237.696 
L 207.662545 237.74136 
L 204.776727 237.969702 
L 201.890909 238.083577 
L 199.005091 238.083577 
L 196.119273 237.969702 
L 193.233455 237.74136 
L 193.233455 237.74136 
" style="fill:none;stroke:#00aaaa;stroke-width:1.5;"/>
   </g>
   <g id="LineCollection_5">
    <path clip-path="url(#p88b4516e55)" d="M 190.347636 259.318739 
L 184.576 258.548395 
L 178.804364 257.4227 
L 173.032727 255.927176 
L 167.261091 254.041341 
L 164.375273 252.942458 
L 158.603636 250.413417 
L 154.739995 248.448 
L 149.946182 245.697947 
L 145.930898 243.072 
L 142.235571 240.384 
L 138.402909 237.27859 
L 135.517091 234.692555 
L 132.631273 231.862347 
L 129.745455 228.750061 
L 126.859636 225.308043 
L 123.973818 221.472634 
L 121.088 217.102795 
L 118.977942 213.504 
L 117.558697 210.816 
L 115.083028 205.44 
L 113.058408 200.064 
L 111.452824 194.688 
L 110.244286 189.312 
L 109.41725 183.936 
L 108.960684 178.56 
L 108.869644 173.184 
L 109.143037 167.808 
L 109.783901 162.432 
L 110.800024 157.056 
L 112.204623 151.68 
L 113.058408 148.992 
L 115.083028 143.616 
L 116.262781 140.928 
L 118.977942 135.552 
L 121.088 131.953205 
L 124.040438 127.488 
L 126.859636 123.747957 
L 129.745455 120.305939 
L 133.079401 116.736 
L 135.855751 114.048 
L 138.894242 111.36 
L 142.235571 108.672 
L 145.930898 105.984 
L 150.048566 103.296 
L 154.739995 100.608 
L 158.603636 98.642583 
L 161.489455 97.320625 
L 167.261091 95.014659 
L 173.032727 93.128824 
L 178.804364 91.6333 
L 184.576 90.507605 
L 190.347636 89.737261 
L 196.119273 89.311992 
L 201.890909 89.227193 
L 207.662545 89.481845 
L 213.434182 90.078779 
L 219.205818 91.025248 
L 224.977455 92.333564 
L 230.749091 94.021725 
L 236.520727 96.113542 
L 242.292364 98.642583 
L 246.156005 100.608 
L 250.949818 103.358053 
L 254.965102 105.984 
L 258.660429 108.672 
L 262.493091 111.77741 
L 265.378909 114.363445 
L 268.264727 117.193653 
L 271.150545 120.305939 
L 274.036364 123.747957 
L 276.922182 127.583366 
L 279.808 131.953205 
L 281.918058 135.552 
L 283.337303 138.24 
L 285.812972 143.616 
L 287.837592 148.992 
L 289.443176 154.368 
L 290.651714 159.744 
L 291.47875 165.12 
L 291.935316 170.496 
L 292.026356 175.872 
L 291.752963 181.248 
L 291.112099 186.624 
L 290.095976 192 
L 288.691377 197.376 
L 287.837592 200.064 
L 285.812972 205.44 
L 284.633219 208.128 
L 281.918058 213.504 
L 279.808 217.102795 
L 276.855562 221.568 
L 274.036364 225.308043 
L 271.150545 228.750061 
L 267.816599 232.32 
L 265.040249 235.008 
L 262.001758 237.696 
L 258.660429 240.384 
L 254.965102 243.072 
L 250.847434 245.76 
L 246.156005 248.448 
L 242.292364 250.413417 
L 239.406545 251.735375 
L 233.634909 254.041341 
L 227.863273 255.927176 
L 222.091636 257.4227 
L 216.32 258.548395 
L 210.548364 259.318739 
L 204.776727 259.744008 
L 199.005091 259.828807 
L 193.233455 259.574155 
L 190.347636 259.318739 
L 190.347636 259.318739 
" style="fill:none;stroke:#008eb8;stroke-width:1.5;"/>
   </g>
   <g id="LineCollection_6">
    <path clip-path="url(#p88b4516e55)" d="M 184.576 280.84557 
L 178.804364 279.958494 
L 173.032727 278.786794 
L 167.261091 277.320948 
L 160.852136 275.328 
L 155.717818 273.451927 
L 149.946182 271.011029 
L 144.174545 268.198868 
L 141.288727 266.643384 
L 135.517091 263.205236 
L 132.631273 261.311665 
L 129.619725 259.2 
L 126.06879 256.512 
L 121.088 252.354876 
L 116.893605 248.448 
L 114.243758 245.76 
L 111.766166 243.072 
L 109.446277 240.384 
L 105.244733 235.008 
L 103.337728 232.32 
L 99.883605 226.944 
L 96.864489 221.568 
L 94.243957 216.192 
L 91.993165 210.816 
L 90.090203 205.44 
L 88.516481 200.064 
L 87.258552 194.688 
L 86.306194 189.312 
L 85.651088 183.936 
L 85.288795 178.56 
L 85.21648 173.184 
L 85.433569 167.808 
L 85.941775 162.432 
L 86.744769 157.056 
L 87.84874 151.68 
L 89.344 146.039062 
L 90.999693 140.928 
L 93.074028 135.552 
L 95.505858 130.176 
L 98.321234 124.8 
L 101.553562 119.424 
L 105.244733 114.048 
L 107.277658 111.36 
L 109.544727 108.554889 
L 112.430545 105.247365 
L 115.316364 102.187008 
L 119.733136 97.92 
L 123.973818 94.23292 
L 126.859636 91.925163 
L 129.745455 89.764298 
L 135.517091 85.850764 
L 138.402909 84.074481 
L 144.174545 80.857132 
L 149.946182 78.044971 
L 155.717818 75.604073 
L 161.489455 73.507569 
L 167.261091 71.735052 
L 173.032727 70.269206 
L 178.804364 69.097506 
L 184.576 68.21043 
L 190.347636 67.600231 
L 196.119273 67.262773 
L 201.890909 67.195415 
L 207.662545 67.397623 
L 213.434182 67.870992 
L 219.205818 68.618942 
L 224.977455 69.647237 
L 231.033527 71.04 
L 236.520727 72.582198 
L 242.292364 74.51434 
L 248.064 76.779473 
L 253.835636 79.40186 
L 259.607273 82.412616 
L 265.378909 85.850764 
L 268.264727 87.744335 
L 271.276275 89.856 
L 274.82721 92.544 
L 279.808 96.701124 
L 284.002395 100.608 
L 286.652242 103.296 
L 289.129834 105.984 
L 291.449723 108.672 
L 295.651267 114.048 
L 297.558272 116.736 
L 301.012395 122.112 
L 304.031511 127.488 
L 306.652043 132.864 
L 308.902835 138.24 
L 310.805797 143.616 
L 312.379519 148.992 
L 313.637448 154.368 
L 314.589806 159.744 
L 315.244912 165.12 
L 315.607205 170.496 
L 315.67952 175.872 
L 315.462431 181.248 
L 314.954225 186.624 
L 314.151231 192 
L 313.04726 197.376 
L 311.552 203.016938 
L 309.896307 208.128 
L 307.821972 213.504 
L 305.390142 218.88 
L 302.574766 224.256 
L 299.342438 229.632 
L 295.651267 235.008 
L 293.618342 237.696 
L 291.351273 240.501111 
L 288.465455 243.808635 
L 285.579636 246.868992 
L 281.162864 251.136 
L 276.922182 254.82308 
L 274.036364 257.130837 
L 271.150545 259.291702 
L 265.378909 263.205236 
L 262.493091 264.981519 
L 256.721455 268.198868 
L 250.949818 271.011029 
L 245.178182 273.451927 
L 239.406545 275.548431 
L 233.634909 277.320948 
L 227.863273 278.786794 
L 222.091636 279.958494 
L 216.32 280.84557 
L 210.548364 281.455769 
L 204.776727 281.793227 
L 199.005091 281.860585 
L 193.233455 281.658377 
L 187.461818 281.185008 
L 184.576 280.84557 
L 184.576 280.84557 
" style="fill:none;stroke:#0071c6;stroke-width:1.5;"/>
   </g>
   <g id="LineCollection_7">
    <path clip-path="url(#p88b4516e55)" d="M 178.804364 302.617032 
L 173.032727 301.654441 
L 167.261091 300.455175 
L 161.489455 299.012336 
L 155.717818 297.31747 
L 149.946182 295.359708 
L 144.174545 293.126363 
L 138.402909 290.601452 
L 132.631273 287.765265 
L 126.859636 284.593886 
L 121.088 281.058694 
L 116.581715 278.016 
L 112.430545 274.98452 
L 106.658909 270.345747 
L 103.155105 267.264 
L 98.001455 262.317249 
L 95.01842 259.2 
L 90.30763 253.824 
L 86.458182 248.953323 
L 83.572364 244.960747 
L 80.531487 240.384 
L 77.311086 235.008 
L 74.436287 229.632 
L 71.884271 224.256 
L 69.636835 218.88 
L 67.677854 213.504 
L 65.994789 208.128 
L 64.57747 202.752 
L 63.371636 197.119818 
L 62.509066 192 
L 61.846397 186.624 
L 61.426452 181.248 
L 61.246897 175.872 
L 61.306721 170.496 
L 61.60626 165.12 
L 62.147194 159.744 
L 62.932502 154.368 
L 63.965934 148.992 
L 65.253458 143.616 
L 66.802479 138.24 
L 68.622075 132.864 
L 70.723916 127.488 
L 73.121619 122.112 
L 75.832346 116.736 
L 78.877256 111.36 
L 82.282027 105.984 
L 86.077384 100.608 
L 89.344 96.410613 
L 92.598576 92.544 
L 97.578731 87.168 
L 100.887273 83.904376 
L 106.198071 79.104 
L 109.544727 76.325448 
L 115.316364 71.937575 
L 120.545488 68.352 
L 124.83189 65.664 
L 129.745455 62.83157 
L 135.517091 59.831923 
L 141.288727 57.154187 
L 147.060364 54.777107 
L 152.832 52.68373 
L 158.603636 50.859033 
L 164.375273 49.29134 
L 170.146909 47.971175 
L 176.193581 46.848 
L 181.690182 46.044558 
L 187.461818 45.427313 
L 193.233455 45.036155 
L 199.005091 44.868909 
L 204.776727 44.924631 
L 210.548364 45.203638 
L 216.32 45.707492 
L 222.091636 46.438968 
L 227.863273 47.401559 
L 233.634909 48.600825 
L 239.406545 50.043664 
L 245.178182 51.73853 
L 250.949818 53.696292 
L 256.721455 55.929637 
L 262.493091 58.454548 
L 268.264727 61.290735 
L 274.036364 64.462114 
L 279.808 67.997306 
L 284.314285 71.04 
L 288.465455 74.07148 
L 294.237091 78.710253 
L 297.740895 81.792 
L 302.894545 86.738751 
L 305.87758 89.856 
L 310.58837 95.232 
L 314.437818 100.102677 
L 317.323636 104.095253 
L 320.364513 108.672 
L 323.584914 114.048 
L 326.459713 119.424 
L 329.011729 124.8 
L 331.259165 130.176 
L 333.218146 135.552 
L 334.901211 140.928 
L 336.31853 146.304 
L 337.524364 151.936182 
L 338.386934 157.056 
L 339.049603 162.432 
L 339.469548 167.808 
L 339.649103 173.184 
L 339.589279 178.56 
L 339.28974 183.936 
L 338.748806 189.312 
L 337.963498 194.688 
L 336.930066 200.064 
L 335.642542 205.44 
L 334.093521 210.816 
L 332.273925 216.192 
L 330.172084 221.568 
L 327.774381 226.944 
L 325.063654 232.32 
L 322.018744 237.696 
L 318.613973 243.072 
L 314.818616 248.448 
L 311.552 252.645387 
L 308.297424 256.512 
L 303.317269 261.888 
L 300.008727 265.151624 
L 294.697929 269.952 
L 291.351273 272.730552 
L 285.579636 277.118425 
L 280.350512 280.704 
L 276.06411 283.392 
L 271.150545 286.22443 
L 265.378909 289.224077 
L 259.607273 291.901813 
L 253.835636 294.278893 
L 248.064 296.37227 
L 242.292364 298.196967 
L 236.520727 299.76466 
L 230.749091 301.084825 
L 224.702419 302.208 
L 219.205818 303.011442 
L 213.434182 303.628687 
L 207.662545 304.019845 
L 201.890909 304.187091 
L 196.119273 304.131369 
L 190.347636 303.852362 
L 184.576 303.348508 
L 178.804364 302.617032 
L 178.804364 302.617032 
" style="fill:none;stroke:#0055d4;stroke-width:1.5;"/>
   </g>
   <g id="LineCollection_8">
    <path clip-path="url(#p88b4516e55)" d="M 120.904846 307.584 
L 118.202182 306.150622 
L 115.933989 304.896 
L 115.316364 304.549567 
L 112.430545 302.871122 
L 111.33136 302.208 
L 109.544727 301.113362 
L 107.038642 299.52 
L 106.658909 299.27454 
L 103.773091 297.347658 
L 103.025601 296.832 
L 100.887273 295.329943 
L 99.253039 294.144 
L 98.001455 293.218098 
L 95.692424 291.456 
L 95.115636 291.006752 
L 92.325227 288.768 
L 92.229818 288.689779 
L 89.344 286.258406 
L 89.137835 286.08 
L 86.458182 283.706592 
L 86.112053 283.392 
L 83.572364 281.026403 
L 83.23462 280.704 
L 80.686545 278.208033 
L 80.49501 278.016 
L 77.884705 275.328 
L 77.800727 275.239131 
L 75.397219 272.64 
L 74.914909 272.10275 
L 73.023133 269.952 
L 72.029091 268.78621 
L 70.755871 267.264 
L 69.143273 265.272251 
L 68.589666 264.576 
L 66.520979 261.888 
L 66.257455 261.534297 
L 64.546832 259.2 
L 63.371636 257.535838 
L 62.659713 256.512 
L 60.857747 253.824 
L 60.485818 253.248712 
L 59.138865 251.136 
L 57.6 248.618599 
" style="fill:none;stroke:#0038e3;stroke-width:1.5;"/>
    <path clip-path="url(#p88b4516e55)" d="M 343.296 248.618599 
L 341.757135 251.136 
L 340.410182 253.248712 
L 340.038253 253.824 
L 338.236287 256.512 
L 337.524364 257.535838 
L 336.349168 259.2 
L 334.638545 261.534297 
L 334.375021 261.888 
L 332.306334 264.576 
L 331.752727 265.272251 
L 330.140129 267.264 
L 328.866909 268.78621 
L 327.872867 269.952 
L 325.981091 272.10275 
L 325.498781 272.64 
L 323.095273 275.239131 
L 323.011295 275.328 
L 320.40099 278.016 
L 320.209455 278.208033 
L 317.66138 280.704 
L 317.323636 281.026403 
L 314.783947 283.392 
L 314.437818 283.706592 
L 311.758165 286.08 
L 311.552 286.258406 
L 308.666182 288.689779 
L 308.570773 288.768 
L 305.780364 291.006752 
L 305.203576 291.456 
L 302.894545 293.218098 
L 301.642961 294.144 
L 300.008727 295.329943 
L 297.870399 296.832 
L 297.122909 297.347658 
L 294.237091 299.27454 
L 293.857358 299.52 
L 291.351273 301.113362 
L 289.56464 302.208 
L 288.465455 302.871122 
L 285.579636 304.549567 
L 284.962011 304.896 
L 282.693818 306.150622 
L 279.991154 307.584 
" style="fill:none;stroke:#0038e3;stroke-width:1.5;"/>
    <path clip-path="url(#p88b4516e55)" d="M 57.6 100.437401 
L 59.138865 97.92 
L 60.485818 95.807288 
L 60.857747 95.232 
L 62.659713 92.544 
L 63.371636 91.520162 
L 64.546832 89.856 
L 66.257455 87.521703 
L 66.520979 87.168 
L 68.589666 84.48 
L 69.143273 83.783749 
L 70.755871 81.792 
L 72.029091 80.26979 
L 73.023133 79.104 
L 74.914909 76.95325 
L 75.397219 76.416 
L 77.800727 73.816869 
L 77.884705 73.728 
L 80.49501 71.04 
L 80.686545 70.847967 
L 83.23462 68.352 
L 83.572364 68.029597 
L 86.112053 65.664 
L 86.458182 65.349408 
L 89.137835 62.976 
L 89.344 62.797594 
L 92.229818 60.366221 
L 92.325227 60.288 
L 95.115636 58.049248 
L 95.692424 57.6 
L 98.001455 55.837902 
L 99.253039 54.912 
L 100.887273 53.726057 
L 103.025601 52.224 
L 103.773091 51.708342 
L 106.658909 49.78146 
L 107.038642 49.536 
L 109.544727 47.942638 
L 111.33136 46.848 
L 112.430545 46.184878 
L 115.316364 44.506433 
L 115.933989 44.16 
L 118.202182 42.905378 
L 120.904846 41.472 
" style="fill:none;stroke:#0038e3;stroke-width:1.5;"/>
    <path clip-path="url(#p88b4516e55)" d="M 279.991154 41.472 
L 282.693818 42.905378 
L 284.962011 44.16 
L 285.579636 44.506433 
L 288.465455 46.184878 
L 289.56464 46.848 
L 291.351273 47.942638 
L 293.857358 49.536 
L 294.237091 49.78146 
L 297.122909 51.708342 
L 297.870399 52.224 
L 300.008727 53.726057 
L 301.642961 54.912 
L 302.894545 55.837902 
L 305.203576 57.6 
L 305.780364 58.049248 
L 308.570773 60.288 
L 308.666182 60.366221 
L 311.552 62.797594 
L 311.758165 62.976 
L 314.437818 65.349408 
L 314.783947 65.664 
L 317.323636 68.029597 
L 317.66138 68.352 
L 320.209455 70.847967 
L 320.40099 71.04 
L 323.011295 73.728 
L 323.095273 73.816869 
L 325.498781 76.416 
L 325.981091 76.95325 
L 327.872867 79.104 
L 328.866909 80.26979 
L 330.140129 81.792 
L 331.752727 83.783749 
L 332.306334 84.48 
L 334.375021 87.168 
L 334.638545 87.521703 
L 336.349168 89.856 
L 337.524364 91.520162 
L 338.236287 92.544 
L 340.038253 95.232 
L 340.410182 95.807288 
L 341.757135 97.92 
L 343.296 100.437401 
" style="fill:none;stroke:#0038e3;stroke-width:1.5;"/>
   </g>
   <g id="LineCollection_9">
    <path clip-path="url(#p88b4516e55)" d="M 78.023819 307.584 
L 77.800727 307.406051 
L 74.914909 305.047023 
L 74.734463 304.896 
L 72.029091 302.587269 
L 71.594933 302.208 
L 69.143273 300.02214 
L 68.59253 299.52 
L 66.257455 297.34499 
L 65.718361 296.832 
L 63.371636 294.548397 
L 62.964456 294.144 
L 60.485818 291.624077 
L 60.323681 291.456 
L 57.791045 288.768 
L 57.6 288.560201 
" style="fill:none;stroke:#001cf1;stroke-width:1.5;"/>
    <path clip-path="url(#p88b4516e55)" d="M 343.296 288.560201 
L 343.104955 288.768 
L 340.572319 291.456 
L 340.410182 291.624077 
L 337.931544 294.144 
L 337.524364 294.548397 
L 335.177639 296.832 
L 334.638545 297.34499 
L 332.30347 299.52 
L 331.752727 300.02214 
L 329.301067 302.208 
L 328.866909 302.587269 
L 326.161537 304.896 
L 325.981091 305.047023 
L 323.095273 307.406051 
L 322.872181 307.584 
" style="fill:none;stroke:#001cf1;stroke-width:1.5;"/>
    <path clip-path="url(#p88b4516e55)" d="M 57.6 60.495799 
L 57.791045 60.288 
L 60.323681 57.6 
L 60.485818 57.431923 
L 62.964456 54.912 
L 63.371636 54.507603 
L 65.718361 52.224 
L 66.257455 51.71101 
L 68.59253 49.536 
L 69.143273 49.03386 
L 71.594933 46.848 
L 72.029091 46.468731 
L 74.734463 44.16 
L 74.914909 44.008977 
L 77.800727 41.649949 
L 78.023819 41.472 
" style="fill:none;stroke:#001cf1;stroke-width:1.5;"/>
    <path clip-path="url(#p88b4516e55)" d="M 322.872181 41.472 
L 323.095273 41.649949 
L 325.981091 44.008977 
L 326.161537 44.16 
L 328.866909 46.468731 
L 329.301067 46.848 
L 331.752727 49.03386 
L 332.30347 49.536 
L 334.638545 51.71101 
L 335.177639 52.224 
L 337.524364 54.507603 
L 337.931544 54.912 
L 340.410182 57.431923 
L 340.572319 57.6 
L 343.104955 60.288 
L 343.296 60.495799 
" style="fill:none;stroke:#001cf1;stroke-width:1.5;"/>
   </g>
   <g id="LineCollection_10"/>
   <g id="patch_3">
    <path d="M 57.6 307.584 
L 57.6 41.472 
" style="fill:none;stroke:#000000;stroke-linecap:square;stroke-linejoin:miter;stroke-width:0.8;"/>
   </g>
   <g id="patch_4">
    <path d="M 343.296 307.584 
L 343.296 41.472 
" style="fill:none;stroke:#000000;stroke-linecap:square;stroke-linejoin:miter;stroke-width:0.8;"/>
   </g>
   <g id="patch_5">
    <path d="M 57.6 307.584 
L 343.296 307.584 
" style="fill:none;stroke:#000000;stroke-linecap:square;stroke-linejoin:miter;stroke-width:0.8;"/>
   </g>
   <g id="patch_6">
    <path d="M 57.6 41.472 
L 343.296 41.472 
" style="fill:none;stroke:#000000;stroke-linecap:square;stroke-linejoin:miter;stroke-width:0.8;"/>
   </g>
  </g>
  <g id="axes_2">
   <g id="patch_7">
    <path clip-path="url(#p97abf1c44b)" d="M 361.152 307.584 
L 361.152 278.016 
L 361.152 71.04 
L 361.152 41.472 
L 374.4576 41.472 
L 374.4576 71.04 
L 374.4576 278.016 
L 374.4576 307.584 
z
" style="fill:#ffffff;stroke:#ffffff;stroke-linejoin:miter;stroke-width:0.01;"/>
   </g>
   <g id="matplotlib.axis_3"/>
   <g id="matplotlib.axis_4">
    <g id="ytick_10">
     <g id="line2d_19">
      <defs>
       <path d="M 0 0 
L 3.5 0 
" id="m6fd3df1ae0" style="stroke:#000000;stroke-width:0.8;"/>
      </defs>
      <g>
       <use style="stroke:#000000;stroke-width:0.8;" x="374.4576" xlink:href="#m6fd3df1ae0" y="307.584"/>
      </g>
     </g>
     <g id="text_19">
      <!-- −200.0 -->
      <defs>
       <path d="M 10.6875 12.40625 
L 21 12.40625 
L 21 0 
L 10.6875 0 
z
" id="DejaVuSans-46"/>
      </defs>
      <g transform="translate(381.4576 311.383219)scale(0.1 -0.1)">
       <use xlink:href="#DejaVuSans-8722"/>
       <use x="83.789062" xlink:href="#DejaVuSans-50"/>
       <use x="147.412109" xlink:href="#DejaVuSans-48"/>
       <use x="211.035156" xlink:href="#DejaVuSans-48"/>
       <use x="274.658203" xlink:href="#DejaVuSans-46"/>
       <use x="306.445312" xlink:href="#DejaVuSans-48"/>
      </g>
     </g>
    </g>
    <g id="ytick_11">
     <g id="line2d_20">
      <g>
       <use style="stroke:#000000;stroke-width:0.8;" x="374.4576" xlink:href="#m6fd3df1ae0" y="278.016"/>
      </g>
     </g>
     <g id="text_20">
      <!-- −197.5 -->
      <defs>
       <path d="M 10.984375 1.515625 
L 10.984375 10.5 
Q 14.703125 8.734375 18.5 7.8125 
Q 22.3125 6.890625 25.984375 6.890625 
Q 35.75 6.890625 40.890625 13.453125 
Q 46.046875 20.015625 46.78125 33.40625 
Q 43.953125 29.203125 39.59375 26.953125 
Q 35.25 24.703125 29.984375 24.703125 
Q 19.046875 24.703125 12.671875 31.3125 
Q 6.296875 37.9375 6.296875 49.421875 
Q 6.296875 60.640625 12.9375 67.421875 
Q 19.578125 74.21875 30.609375 74.21875 
Q 43.265625 74.21875 49.921875 64.515625 
Q 56.59375 54.828125 56.59375 36.375 
Q 56.59375 19.140625 48.40625 8.859375 
Q 40.234375 -1.421875 26.421875 -1.421875 
Q 22.703125 -1.421875 18.890625 -0.6875 
Q 15.09375 0.046875 10.984375 1.515625 
z
M 30.609375 32.421875 
Q 37.25 32.421875 41.125 36.953125 
Q 45.015625 41.5 45.015625 49.421875 
Q 45.015625 57.28125 41.125 61.84375 
Q 37.25 66.40625 30.609375 66.40625 
Q 23.96875 66.40625 20.09375 61.84375 
Q 16.21875 57.28125 16.21875 49.421875 
Q 16.21875 41.5 20.09375 36.953125 
Q 23.96875 32.421875 30.609375 32.421875 
z
" id="DejaVuSans-57"/>
       <path d="M 8.203125 72.90625 
L 55.078125 72.90625 
L 55.078125 68.703125 
L 28.609375 0 
L 18.3125 0 
L 43.21875 64.59375 
L 8.203125 64.59375 
z
" id="DejaVuSans-55"/>
       <path d="M 10.796875 72.90625 
L 49.515625 72.90625 
L 49.515625 64.59375 
L 19.828125 64.59375 
L 19.828125 46.734375 
Q 21.96875 47.46875 24.109375 47.828125 
Q 26.265625 48.1875 28.421875 48.1875 
Q 40.625 48.1875 47.75 41.5 
Q 54.890625 34.8125 54.890625 23.390625 
Q 54.890625 11.625 47.5625 5.09375 
Q 40.234375 -1.421875 26.90625 -1.421875 
Q 22.3125 -1.421875 17.546875 -0.640625 
Q 12.796875 0.140625 7.71875 1.703125 
L 7.71875 11.625 
Q 12.109375 9.234375 16.796875 8.0625 
Q 21.484375 6.890625 26.703125 6.890625 
Q 35.15625 6.890625 40.078125 11.328125 
Q 45.015625 15.765625 45.015625 23.390625 
Q 45.015625 31 40.078125 35.4375 
Q 35.15625 39.890625 26.703125 39.890625 
Q 22.75 39.890625 18.8125 39.015625 
Q 14.890625 38.140625 10.796875 36.28125 
z
" id="DejaVuSans-53"/>
      </defs>
      <g transform="translate(381.4576 281.815219)scale(0.1 -0.1)">
       <use xlink:href="#DejaVuSans-8722"/>
       <use x="83.789062" xlink:href="#DejaVuSans-49"/>
       <use x="147.412109" xlink:href="#DejaVuSans-57"/>
       <use x="211.035156" xlink:href="#DejaVuSans-55"/>
       <use x="274.658203" xlink:href="#DejaVuSans-46"/>
       <use x="306.445312" xlink:href="#DejaVuSans-53"/>
      </g>
     </g>
    </g>
    <g id="ytick_12">
     <g id="line2d_21">
      <g>
       <use style="stroke:#000000;stroke-width:0.8;" x="374.4576" xlink:href="#m6fd3df1ae0" y="248.448"/>
      </g>
     </g>
     <g id="text_21">
      <!-- −195.0 -->
      <g transform="translate(381.4576 252.247219)scale(0.1 -0.1)">
       <use xlink:href="#DejaVuSans-8722"/>
       <use x="83.789062" xlink:href="#DejaVuSans-49"/>
       <use x="147.412109" xlink:href="#DejaVuSans-57"/>
       <use x="211.035156" xlink:href="#DejaVuSans-53"/>
       <use x="274.658203" xlink:href="#DejaVuSans-46"/>
       <use x="306.445312" xlink:href="#DejaVuSans-48"/>
      </g>
     </g>
    </g>
    <g id="ytick_13">
     <g id="line2d_22">
      <g>
       <use style="stroke:#000000;stroke-width:0.8;" x="374.4576" xlink:href="#m6fd3df1ae0" y="218.88"/>
      </g>
     </g>
     <g id="text_22">
      <!-- −192.5 -->
      <g transform="translate(381.4576 222.679219)scale(0.1 -0.1)">
       <use xlink:href="#DejaVuSans-8722"/>
       <use x="83.789062" xlink:href="#DejaVuSans-49"/>
       <use x="147.412109" xlink:href="#DejaVuSans-57"/>
       <use x="211.035156" xlink:href="#DejaVuSans-50"/>
       <use x="274.658203" xlink:href="#DejaVuSans-46"/>
       <use x="306.445312" xlink:href="#DejaVuSans-53"/>
      </g>
     </g>
    </g>
    <g id="ytick_14">
     <g id="line2d_23">
      <g>
       <use style="stroke:#000000;stroke-width:0.8;" x="374.4576" xlink:href="#m6fd3df1ae0" y="189.312"/>
      </g>
     </g>
     <g id="text_23">
      <!-- −190.0 -->
      <g transform="translate(381.4576 193.111219)scale(0.1 -0.1)">
       <use xlink:href="#DejaVuSans-8722"/>
       <use x="83.789062" xlink:href="#DejaVuSans-49"/>
       <use x="147.412109" xlink:href="#DejaVuSans-57"/>
       <use x="211.035156" xlink:href="#DejaVuSans-48"/>
       <use x="274.658203" xlink:href="#DejaVuSans-46"/>
       <use x="306.445312" xlink:href="#DejaVuSans-48"/>
      </g>
     </g>
    </g>
    <g id="ytick_15">
     <g id="line2d_24">
      <g>
       <use style="stroke:#000000;stroke-width:0.8;" x="374.4576" xlink:href="#m6fd3df1ae0" y="159.744"/>
      </g>
     </g>
     <g id="text_24">
      <!-- −187.5 -->
      <defs>
       <path d="M 31.78125 34.625 
Q 24.75 34.625 20.71875 30.859375 
Q 16.703125 27.09375 16.703125 20.515625 
Q 16.703125 13.921875 20.71875 10.15625 
Q 24.75 6.390625 31.78125 6.390625 
Q 38.8125 6.390625 42.859375 10.171875 
Q 46.921875 13.96875 46.921875 20.515625 
Q 46.921875 27.09375 42.890625 30.859375 
Q 38.875 34.625 31.78125 34.625 
z
M 21.921875 38.8125 
Q 15.578125 40.375 12.03125 44.71875 
Q 8.5 49.078125 8.5 55.328125 
Q 8.5 64.0625 14.71875 69.140625 
Q 20.953125 74.21875 31.78125 74.21875 
Q 42.671875 74.21875 48.875 69.140625 
Q 55.078125 64.0625 55.078125 55.328125 
Q 55.078125 49.078125 51.53125 44.71875 
Q 48 40.375 41.703125 38.8125 
Q 48.828125 37.15625 52.796875 32.3125 
Q 56.78125 27.484375 56.78125 20.515625 
Q 56.78125 9.90625 50.3125 4.234375 
Q 43.84375 -1.421875 31.78125 -1.421875 
Q 19.734375 -1.421875 13.25 4.234375 
Q 6.78125 9.90625 6.78125 20.515625 
Q 6.78125 27.484375 10.78125 32.3125 
Q 14.796875 37.15625 21.921875 38.8125 
z
M 18.3125 54.390625 
Q 18.3125 48.734375 21.84375 45.5625 
Q 25.390625 42.390625 31.78125 42.390625 
Q 38.140625 42.390625 41.71875 45.5625 
Q 45.3125 48.734375 45.3125 54.390625 
Q 45.3125 60.0625 41.71875 63.234375 
Q 38.140625 66.40625 31.78125 66.40625 
Q 25.390625 66.40625 21.84375 63.234375 
Q 18.3125 60.0625 18.3125 54.390625 
z
" id="DejaVuSans-56"/>
      </defs>
      <g transform="translate(381.4576 163.543219)scale(0.1 -0.1)">
       <use xlink:href="#DejaVuSans-8722"/>
       <use x="83.789062" xlink:href="#DejaVuSans-49"/>
       <use x="147.412109" xlink:href="#DejaVuSans-56"/>
       <use x="211.035156" xlink:href="#DejaVuSans-55"/>
       <use x="274.658203" xlink:href="#DejaVuSans-46"/>
       <use x="306.445312" xlink:href="#DejaVuSans-53"/>
      </g>
     </g>
    </g>
    <g id="ytick_16">
     <g id="line2d_25">
      <g>
       <use style="stroke:#000000;stroke-width:0.8;" x="374.4576" xlink:href="#m6fd3df1ae0" y="130.176"/>
      </g>
     </g>
     <g id="text_25">
      <!-- −185.0 -->
      <g transform="translate(381.4576 133.975219)scale(0.1 -0.1)">
       <use xlink:href="#DejaVuSans-8722"/>
       <use x="83.789062" xlink:href="#DejaVuSans-49"/>
       <use x="147.412109" xlink:href="#DejaVuSans-56"/>
       <use x="211.035156" xlink:href="#DejaVuSans-53"/>
       <use x="274.658203" xlink:href="#DejaVuSans-46"/>
       <use x="306.445312" xlink:href="#DejaVuSans-48"/>
      </g>
     </g>
    </g>
    <g id="ytick_17">
     <g id="line2d_26">
      <g>
       <use style="stroke:#000000;stroke-width:0.8;" x="374.4576" xlink:href="#m6fd3df1ae0" y="100.608"/>
      </g>
     </g>
     <g id="text_26">
      <!-- −182.5 -->
      <g transform="translate(381.4576 104.407219)scale(0.1 -0.1)">
       <use xlink:href="#DejaVuSans-8722"/>
       <use x="83.789062" xlink:href="#DejaVuSans-49"/>
       <use x="147.412109" xlink:href="#DejaVuSans-56"/>
       <use x="211.035156" xlink:href="#DejaVuSans-50"/>
       <use x="274.658203" xlink:href="#DejaVuSans-46"/>
       <use x="306.445312" xlink:href="#DejaVuSans-53"/>
      </g>
     </g>
    </g>
    <g id="ytick_18">
     <g id="line2d_27">
      <g>
       <use style="stroke:#000000;stroke-width:0.8;" x="374.4576" xlink:href="#m6fd3df1ae0" y="71.04"/>
      </g>
     </g>
     <g id="text_27">
      <!-- −180.0 -->
      <g transform="translate(381.4576 74.839219)scale(0.1 -0.1)">
       <use xlink:href="#DejaVuSans-8722"/>
       <use x="83.789062" xlink:href="#DejaVuSans-49"/>
       <use x="147.412109" xlink:href="#DejaVuSans-56"/>
       <use x="211.035156" xlink:href="#DejaVuSans-48"/>
       <use x="274.658203" xlink:href="#DejaVuSans-46"/>
       <use x="306.445312" xlink:href="#DejaVuSans-48"/>
      </g>
     </g>
    </g>
    <g id="ytick_19">
     <g id="line2d_28">
      <g>
       <use style="stroke:#000000;stroke-width:0.8;" x="374.4576" xlink:href="#m6fd3df1ae0" y="41.472"/>
      </g>
     </g>
     <g id="text_28">
      <!-- −177.5 -->
      <g transform="translate(381.4576 45.271219)scale(0.1 -0.1)">
       <use xlink:href="#DejaVuSans-8722"/>
       <use x="83.789062" xlink:href="#DejaVuSans-49"/>
       <use x="147.412109" xlink:href="#DejaVuSans-55"/>
       <use x="211.035156" xlink:href="#DejaVuSans-55"/>
       <use x="274.658203" xlink:href="#DejaVuSans-46"/>
       <use x="306.445312" xlink:href="#DejaVuSans-53"/>
      </g>
     </g>
    </g>
   </g>
   <g id="LineCollection_11">
    <path clip-path="url(#p97abf1c44b)" d="M 361.152 307.584 
L 374.4576 307.584 
" style="fill:none;stroke:#00ff80;stroke-width:1.5;"/>
    <path clip-path="url(#p97abf1c44b)" d="M 361.152 278.016 
L 374.4576 278.016 
" style="fill:none;stroke:#00e38e;stroke-width:1.5;"/>
    <path clip-path="url(#p97abf1c44b)" d="M 361.152 248.448 
L 374.4576 248.448 
" style="fill:none;stroke:#00c79c;stroke-width:1.5;"/>
    <path clip-path="url(#p97abf1c44b)" d="M 361.152 218.88 
L 374.4576 218.88 
" style="fill:none;stroke:#00aaaa;stroke-width:1.5;"/>
    <path clip-path="url(#p97abf1c44b)" d="M 361.152 189.312 
L 374.4576 189.312 
" style="fill:none;stroke:#008eb8;stroke-width:1.5;"/>
    <path clip-path="url(#p97abf1c44b)" d="M 361.152 159.744 
L 374.4576 159.744 
" style="fill:none;stroke:#0071c6;stroke-width:1.5;"/>
    <path clip-path="url(#p97abf1c44b)" d="M 361.152 130.176 
L 374.4576 130.176 
" style="fill:none;stroke:#0055d4;stroke-width:1.5;"/>
    <path clip-path="url(#p97abf1c44b)" d="M 361.152 100.608 
L 374.4576 100.608 
" style="fill:none;stroke:#0038e3;stroke-width:1.5;"/>
    <path clip-path="url(#p97abf1c44b)" d="M 361.152 71.04 
L 374.4576 71.04 
" style="fill:none;stroke:#001cf1;stroke-width:1.5;"/>
    <path clip-path="url(#p97abf1c44b)" d="M 361.152 41.472 
L 374.4576 41.472 
" style="fill:none;stroke:#0000ff;stroke-width:1.5;"/>
   </g>
   <g id="patch_8">
    <path d="M 361.152 307.584 
L 361.152 278.016 
L 361.152 71.04 
L 361.152 41.472 
L 374.4576 41.472 
L 374.4576 71.04 
L 374.4576 278.016 
L 374.4576 307.584 
z
" style="fill:none;stroke:#000000;stroke-linejoin:miter;stroke-width:0.8;"/>
   </g>
  </g>
 </g>
 <defs>
  <clipPath id="p88b4516e55">
   <rect height="266.112" width="285.696" x="57.6" y="41.472"/>
  </clipPath>
  <clipPath id="p97abf1c44b">
   <rect height="266.112" width="13.3056" x="361.152" y="41.472"/>
  </clipPath>
 </defs>
</svg>
