<?xml version="1.0" encoding="utf-8" standalone="no"?>
<!DOCTYPE svg PUBLIC "-//W3C//DTD SVG 1.1//EN"
  "http://www.w3.org/Graphics/SVG/1.1/DTD/svg11.dtd">
<!-- Created with matplotlib (https://matplotlib.org/) -->
<svg height="345.6pt" version="1.1" viewBox="0 0 460.8 345.6" width="460.8pt" xmlns="http://www.w3.org/2000/svg" xmlns:xlink="http://www.w3.org/1999/xlink">
 <defs>
  <style type="text/css">
*{stroke-linecap:butt;stroke-linejoin:round;}
  </style>
 </defs>
 <g id="figure_1">
  <g id="patch_1">
   <path d="M 0 345.6 
L 460.8 345.6 
L 460.8 0 
L 0 0 
z
" style="fill:#ffffff;"/>
  </g>
  <g id="axes_1">
   <g id="patch_2">
    <path d="M 57.6 307.584 
L 343.296 307.584 
L 343.296 41.472 
L 57.6 41.472 
z
" style="fill:#ffffff;"/>
   </g>
   <g id="matplotlib.axis_1">
    <g id="xtick_1">
     <g id="line2d_1">
      <defs>
       <path d="M 0 0 
L 0 3.5 
" id="m4c075b8e97" style="stroke:#000000;stroke-width:0.8;"/>
      </defs>
      <g>
       <use style="stroke:#000000;stroke-width:0.8;" x="57.6" xlink:href="#m4c075b8e97" y="307.584"/>
      </g>
     </g>
     <g id="text_1">
      <!-- −1.5 -->
      <defs>
       <path d="M 10.59375 35.5 
L 73.1875 35.5 
L 73.1875 27.203125 
L 10.59375 27.203125 
z
" id="DejaVuSans-8722"/>
       <path d="M 12.40625 8.296875 
L 28.515625 8.296875 
L 28.515625 63.921875 
L 10.984375 60.40625 
L 10.984375 69.390625 
L 28.421875 72.90625 
L 38.28125 72.90625 
L 38.28125 8.296875 
L 54.390625 8.296875 
L 54.390625 0 
L 12.40625 0 
z
" id="DejaVuSans-49"/>
       <path d="M 10.6875 12.40625 
L 21 12.40625 
L 21 0 
L 10.6875 0 
z
" id="DejaVuSans-46"/>
       <path d="M 10.796875 72.90625 
L 49.515625 72.90625 
L 49.515625 64.59375 
L 19.828125 64.59375 
L 19.828125 46.734375 
Q 21.96875 47.46875 24.109375 47.828125 
Q 26.265625 48.1875 28.421875 48.1875 
Q 40.625 48.1875 47.75 41.5 
Q 54.890625 34.8125 54.890625 23.390625 
Q 54.890625 11.625 47.5625 5.09375 
Q 40.234375 -1.421875 26.90625 -1.421875 
Q 22.3125 -1.421875 17.546875 -0.640625 
Q 12.796875 0.140625 7.71875 1.703125 
L 7.71875 11.625 
Q 12.109375 9.234375 16.796875 8.0625 
Q 21.484375 6.890625 26.703125 6.890625 
Q 35.15625 6.890625 40.078125 11.328125 
Q 45.015625 15.765625 45.015625 23.390625 
Q 45.015625 31 40.078125 35.4375 
Q 35.15625 39.890625 26.703125 39.890625 
Q 22.75 39.890625 18.8125 39.015625 
Q 14.890625 38.140625 10.796875 36.28125 
z
" id="DejaVuSans-53"/>
      </defs>
      <g transform="translate(45.458594 322.182437)scale(0.1 -0.1)">
       <use xlink:href="#DejaVuSans-8722"/>
       <use x="83.789062" xlink:href="#DejaVuSans-49"/>
       <use x="147.412109" xlink:href="#DejaVuSans-46"/>
       <use x="179.199219" xlink:href="#DejaVuSans-53"/>
      </g>
     </g>
    </g>
    <g id="xtick_2">
     <g id="line2d_2">
      <g>
       <use style="stroke:#000000;stroke-width:0.8;" x="105.216" xlink:href="#m4c075b8e97" y="307.584"/>
      </g>
     </g>
     <g id="text_2">
      <!-- −1.0 -->
      <defs>
       <path d="M 31.78125 66.40625 
Q 24.171875 66.40625 20.328125 58.90625 
Q 16.5 51.421875 16.5 36.375 
Q 16.5 21.390625 20.328125 13.890625 
Q 24.171875 6.390625 31.78125 6.390625 
Q 39.453125 6.390625 43.28125 13.890625 
Q 47.125 21.390625 47.125 36.375 
Q 47.125 51.421875 43.28125 58.90625 
Q 39.453125 66.40625 31.78125 66.40625 
z
M 31.78125 74.21875 
Q 44.046875 74.21875 50.515625 64.515625 
Q 56.984375 54.828125 56.984375 36.375 
Q 56.984375 17.96875 50.515625 8.265625 
Q 44.046875 -1.421875 31.78125 -1.421875 
Q 19.53125 -1.421875 13.0625 8.265625 
Q 6.59375 17.96875 6.59375 36.375 
Q 6.59375 54.828125 13.0625 64.515625 
Q 19.53125 74.21875 31.78125 74.21875 
z
" id="DejaVuSans-48"/>
      </defs>
      <g transform="translate(93.074594 322.182437)scale(0.1 -0.1)">
       <use xlink:href="#DejaVuSans-8722"/>
       <use x="83.789062" xlink:href="#DejaVuSans-49"/>
       <use x="147.412109" xlink:href="#DejaVuSans-46"/>
       <use x="179.199219" xlink:href="#DejaVuSans-48"/>
      </g>
     </g>
    </g>
    <g id="xtick_3">
     <g id="line2d_3">
      <g>
       <use style="stroke:#000000;stroke-width:0.8;" x="152.832" xlink:href="#m4c075b8e97" y="307.584"/>
      </g>
     </g>
     <g id="text_3">
      <!-- −0.5 -->
      <g transform="translate(140.690594 322.182437)scale(0.1 -0.1)">
       <use xlink:href="#DejaVuSans-8722"/>
       <use x="83.789062" xlink:href="#DejaVuSans-48"/>
       <use x="147.412109" xlink:href="#DejaVuSans-46"/>
       <use x="179.199219" xlink:href="#DejaVuSans-53"/>
      </g>
     </g>
    </g>
    <g id="xtick_4">
     <g id="line2d_4">
      <g>
       <use style="stroke:#000000;stroke-width:0.8;" x="200.448" xlink:href="#m4c075b8e97" y="307.584"/>
      </g>
     </g>
     <g id="text_4">
      <!-- 0.0 -->
      <g transform="translate(192.496438 322.182437)scale(0.1 -0.1)">
       <use xlink:href="#DejaVuSans-48"/>
       <use x="63.623047" xlink:href="#DejaVuSans-46"/>
       <use x="95.410156" xlink:href="#DejaVuSans-48"/>
      </g>
     </g>
    </g>
    <g id="xtick_5">
     <g id="line2d_5">
      <g>
       <use style="stroke:#000000;stroke-width:0.8;" x="248.064" xlink:href="#m4c075b8e97" y="307.584"/>
      </g>
     </g>
     <g id="text_5">
      <!-- 0.5 -->
      <g transform="translate(240.112438 322.182437)scale(0.1 -0.1)">
       <use xlink:href="#DejaVuSans-48"/>
       <use x="63.623047" xlink:href="#DejaVuSans-46"/>
       <use x="95.410156" xlink:href="#DejaVuSans-53"/>
      </g>
     </g>
    </g>
    <g id="xtick_6">
     <g id="line2d_6">
      <g>
       <use style="stroke:#000000;stroke-width:0.8;" x="295.68" xlink:href="#m4c075b8e97" y="307.584"/>
      </g>
     </g>
     <g id="text_6">
      <!-- 1.0 -->
      <g transform="translate(287.728437 322.182437)scale(0.1 -0.1)">
       <use xlink:href="#DejaVuSans-49"/>
       <use x="63.623047" xlink:href="#DejaVuSans-46"/>
       <use x="95.410156" xlink:href="#DejaVuSans-48"/>
      </g>
     </g>
    </g>
    <g id="xtick_7">
     <g id="line2d_7">
      <g>
       <use style="stroke:#000000;stroke-width:0.8;" x="343.296" xlink:href="#m4c075b8e97" y="307.584"/>
      </g>
     </g>
     <g id="text_7">
      <!-- 1.5 -->
      <g transform="translate(335.344438 322.182437)scale(0.1 -0.1)">
       <use xlink:href="#DejaVuSans-49"/>
       <use x="63.623047" xlink:href="#DejaVuSans-46"/>
       <use x="95.410156" xlink:href="#DejaVuSans-53"/>
      </g>
     </g>
    </g>
   </g>
   <g id="matplotlib.axis_2">
    <g id="ytick_1">
     <g id="line2d_8">
      <defs>
       <path d="M 0 0 
L -3.5 0 
" id="mfcaeb0aebf" style="stroke:#000000;stroke-width:0.8;"/>
      </defs>
      <g>
       <use style="stroke:#000000;stroke-width:0.8;" x="57.6" xlink:href="#mfcaeb0aebf" y="307.584"/>
      </g>
     </g>
     <g id="text_8">
      <!-- −1.5 -->
      <g transform="translate(26.317187 311.383219)scale(0.1 -0.1)">
       <use xlink:href="#DejaVuSans-8722"/>
       <use x="83.789062" xlink:href="#DejaVuSans-49"/>
       <use x="147.412109" xlink:href="#DejaVuSans-46"/>
       <use x="179.199219" xlink:href="#DejaVuSans-53"/>
      </g>
     </g>
    </g>
    <g id="ytick_2">
     <g id="line2d_9">
      <g>
       <use style="stroke:#000000;stroke-width:0.8;" x="57.6" xlink:href="#mfcaeb0aebf" y="263.232"/>
      </g>
     </g>
     <g id="text_9">
      <!-- −1.0 -->
      <g transform="translate(26.317187 267.031219)scale(0.1 -0.1)">
       <use xlink:href="#DejaVuSans-8722"/>
       <use x="83.789062" xlink:href="#DejaVuSans-49"/>
       <use x="147.412109" xlink:href="#DejaVuSans-46"/>
       <use x="179.199219" xlink:href="#DejaVuSans-48"/>
      </g>
     </g>
    </g>
    <g id="ytick_3">
     <g id="line2d_10">
      <g>
       <use style="stroke:#000000;stroke-width:0.8;" x="57.6" xlink:href="#mfcaeb0aebf" y="218.88"/>
      </g>
     </g>
     <g id="text_10">
      <!-- −0.5 -->
      <g transform="translate(26.317187 222.679219)scale(0.1 -0.1)">
       <use xlink:href="#DejaVuSans-8722"/>
       <use x="83.789062" xlink:href="#DejaVuSans-48"/>
       <use x="147.412109" xlink:href="#DejaVuSans-46"/>
       <use x="179.199219" xlink:href="#DejaVuSans-53"/>
      </g>
     </g>
    </g>
    <g id="ytick_4">
     <g id="line2d_11">
      <g>
       <use style="stroke:#000000;stroke-width:0.8;" x="57.6" xlink:href="#mfcaeb0aebf" y="174.528"/>
      </g>
     </g>
     <g id="text_11">
      <!-- 0.0 -->
      <g transform="translate(34.696875 178.327219)scale(0.1 -0.1)">
       <use xlink:href="#DejaVuSans-48"/>
       <use x="63.623047" xlink:href="#DejaVuSans-46"/>
       <use x="95.410156" xlink:href="#DejaVuSans-48"/>
      </g>
     </g>
    </g>
    <g id="ytick_5">
     <g id="line2d_12">
      <g>
       <use style="stroke:#000000;stroke-width:0.8;" x="57.6" xlink:href="#mfcaeb0aebf" y="130.176"/>
      </g>
     </g>
     <g id="text_12">
      <!-- 0.5 -->
      <g transform="translate(34.696875 133.975219)scale(0.1 -0.1)">
       <use xlink:href="#DejaVuSans-48"/>
       <use x="63.623047" xlink:href="#DejaVuSans-46"/>
       <use x="95.410156" xlink:href="#DejaVuSans-53"/>
      </g>
     </g>
    </g>
    <g id="ytick_6">
     <g id="line2d_13">
      <g>
       <use style="stroke:#000000;stroke-width:0.8;" x="57.6" xlink:href="#mfcaeb0aebf" y="85.824"/>
      </g>
     </g>
     <g id="text_13">
      <!-- 1.0 -->
      <g transform="translate(34.696875 89.623219)scale(0.1 -0.1)">
       <use xlink:href="#DejaVuSans-49"/>
       <use x="63.623047" xlink:href="#DejaVuSans-46"/>
       <use x="95.410156" xlink:href="#DejaVuSans-48"/>
      </g>
     </g>
    </g>
    <g id="ytick_7">
     <g id="line2d_14">
      <g>
       <use style="stroke:#000000;stroke-width:0.8;" x="57.6" xlink:href="#mfcaeb0aebf" y="41.472"/>
      </g>
     </g>
     <g id="text_14">
      <!-- 1.5 -->
      <g transform="translate(34.696875 45.271219)scale(0.1 -0.1)">
       <use xlink:href="#DejaVuSans-49"/>
       <use x="63.623047" xlink:href="#DejaVuSans-46"/>
       <use x="95.410156" xlink:href="#DejaVuSans-53"/>
      </g>
     </g>
    </g>
   </g>
   <g id="LineCollection_1"/>
   <g id="LineCollection_2">
    <path clip-path="url(#p7efa11a4dc)" d="M 59.939976 307.584 
L 61.283315 299.52 
L 66.887945 267.264 
L 73.025514 235.008 
L 78.007328 210.816 
L 84.786324 181.248 
L 88.806752 165.12 
L 90.228931 159.744 
L 95.115636 142.061235 
L 101.303419 122.112 
L 106.658909 106.637442 
L 112.430545 91.876371 
L 118.202182 78.921047 
L 122.187135 71.04 
L 125.127778 65.664 
L 128.317776 60.288 
L 129.995324 57.6 
L 133.700847 52.224 
L 135.673768 49.536 
L 138.402909 46.123916 
L 142.604959 41.472 
L 142.604959 41.472 
" style="fill:none;stroke:#00df90;stroke-width:1.5;"/>
    <path clip-path="url(#p7efa11a4dc)" d="M 341.195304 41.472 
L 339.408667 52.224 
L 334.283316 81.792 
L 325.981091 124.966066 
L 317.323636 164.178479 
L 310.259609 192 
L 307.289373 202.752 
L 304.144885 213.504 
L 301.654953 221.568 
L 299.039265 229.632 
L 295.311149 240.384 
L 293.336968 245.76 
L 290.197186 253.824 
L 286.824214 261.888 
L 284.422308 267.264 
L 281.879054 272.64 
L 279.163523 278.016 
L 276.239625 283.392 
L 273.064786 288.768 
L 271.150545 291.848497 
L 267.728968 296.832 
L 265.378909 300.022631 
L 261.343676 304.896 
L 258.901486 307.584 
L 258.901486 307.584 
" style="fill:none;stroke:#00df90;stroke-width:1.5;"/>
   </g>
   <g id="LineCollection_3">
    <path clip-path="url(#p7efa11a4dc)" d="M 57.6 257.763247 
L 57.810101 256.512 
L 58.258591 253.824 
L 58.7013 251.136 
L 59.138443 248.448 
L 59.570224 245.76 
L 59.996838 243.072 
L 60.418471 240.384 
L 60.485818 239.954002 
L 60.880171 237.696 
L 61.344456 235.008 
L 61.802832 232.32 
L 62.255519 229.632 
L 62.702724 226.944 
L 63.144644 224.256 
L 63.371636 222.867216 
L 63.607922 221.568 
L 64.093608 218.88 
L 64.573078 216.192 
L 65.046565 213.504 
L 65.514286 210.816 
L 65.97645 208.128 
L 66.257455 206.482104 
L 66.454981 205.44 
L 66.961799 202.752 
L 67.462138 200.064 
L 67.956238 197.376 
L 68.444328 194.688 
L 68.926625 192 
L 69.143273 190.786368 
L 69.43479 189.312 
L 69.962418 186.624 
L 70.48335 183.936 
L 70.997834 181.248 
L 71.506104 178.56 
L 72.008385 175.872 
L 72.029091 175.761174 
L 72.561148 173.184 
L 73.109252 170.496 
L 73.650494 167.808 
L 74.185125 165.12 
L 74.713384 162.432 
L 74.914909 161.402121 
L 75.272804 159.744 
L 75.84833 157.056 
L 76.416611 154.368 
L 76.977914 151.68 
L 77.532492 148.992 
L 77.800727 147.684575 
L 78.112598 146.304 
L 78.715734 143.616 
L 79.311283 140.928 
L 79.899522 138.24 
L 80.480718 135.552 
L 80.686545 134.596217 
L 81.096533 132.864 
L 81.727448 130.176 
L 82.350476 127.488 
L 82.965906 124.8 
L 83.572364 122.119372 
L 83.574194 122.112 
L 84.241532 119.424 
L 84.900418 116.736 
L 85.551165 114.048 
L 86.194067 111.36 
L 86.458182 110.250447 
L 86.869864 108.672 
L 87.565644 105.984 
L 88.252764 103.296 
L 88.931542 100.608 
L 89.344 98.962767 
L 89.630074 97.92 
L 90.363783 95.232 
L 91.088341 92.544 
L 91.804083 89.856 
L 92.229818 88.245733 
L 92.541246 87.168 
L 93.31396 84.48 
L 94.077067 81.792 
L 94.830918 79.104 
L 95.115636 78.084283 
L 95.624151 76.416 
L 96.437038 73.728 
L 97.239903 71.04 
L 98.001455 68.460527 
L 98.036409 68.352 
L 98.901584 65.664 
L 99.755967 62.976 
L 100.599952 60.288 
L 100.887273 59.36925 
L 101.490275 57.6 
L 102.398824 54.912 
L 103.29624 52.224 
L 103.773091 50.786541 
L 104.224958 49.536 
L 105.190521 46.848 
L 106.144227 44.16 
L 106.658909 42.699891 
L 107.130163 41.472 
" style="fill:none;stroke:#00bfa0;stroke-width:1.5;"/>
    <path clip-path="url(#p7efa11a4dc)" d="M 343.296 92.385343 
L 343.269325 92.544 
L 342.817932 95.232 
L 342.3724 97.92 
L 341.932511 100.608 
L 341.498057 103.296 
L 341.068842 105.984 
L 340.644676 108.672 
L 340.410182 110.167407 
L 340.201622 111.36 
L 339.734378 114.048 
L 339.273124 116.736 
L 338.817638 119.424 
L 338.36771 122.112 
L 337.923138 124.8 
L 337.524364 127.236733 
L 337.478603 127.488 
L 336.989835 130.176 
L 336.507367 132.864 
L 336.030966 135.552 
L 335.560408 138.24 
L 335.095484 140.928 
L 334.638545 143.600876 
L 334.635675 143.616 
L 334.125664 146.304 
L 333.622221 148.992 
L 333.125102 151.68 
L 332.634076 154.368 
L 332.148922 157.056 
L 331.752727 159.272397 
L 331.659339 159.744 
L 331.128423 162.432 
L 330.604294 165.12 
L 330.086701 167.808 
L 329.575407 170.496 
L 329.070184 173.184 
L 328.866909 174.270447 
L 328.535749 175.872 
L 327.984277 178.56 
L 327.43976 181.248 
L 326.901944 183.936 
L 326.370587 186.624 
L 325.981091 188.611523 
L 325.829648 189.312 
L 325.25059 192 
L 324.678876 194.688 
L 324.114235 197.376 
L 323.556411 200.064 
L 323.095273 202.308146 
L 322.994833 202.752 
L 322.388011 205.44 
L 321.78888 208.128 
L 321.197159 210.816 
L 320.612577 213.504 
L 320.209455 215.372872 
L 320.01523 216.192 
L 319.380486 218.88 
L 318.753737 221.568 
L 318.134691 224.256 
L 317.52307 226.944 
L 317.323636 227.823748 
L 316.873847 229.632 
L 316.211001 232.32 
L 315.556407 235.008 
L 314.909764 237.696 
L 314.437818 239.675059 
L 314.252547 240.384 
L 313.552568 243.072 
L 312.861369 245.76 
L 312.178628 248.448 
L 311.552 250.942732 
L 311.498867 251.136 
L 310.760721 253.824 
L 310.031854 256.512 
L 309.311926 259.2 
L 308.666182 261.637477 
L 308.593629 261.888 
L 307.816242 264.576 
L 307.048598 267.264 
L 306.29034 269.952 
L 305.780364 271.774588 
L 305.51596 272.64 
L 304.698166 275.328 
L 303.890539 278.016 
L 303.092708 280.704 
L 302.894545 281.373549 
L 302.242956 283.392 
L 301.383436 286.08 
L 300.534464 288.768 
L 300.008727 290.445114 
L 299.663297 291.456 
L 298.749217 294.144 
L 297.846434 296.832 
L 297.122909 299.007532 
L 296.937223 299.52 
L 295.965716 302.208 
L 295.006245 304.896 
L 294.237091 307.072151 
L 294.04007 307.584 
" style="fill:none;stroke:#00bfa0;stroke-width:1.5;"/>
   </g>
   <g id="LineCollection_4">
    <path clip-path="url(#p7efa11a4dc)" d="M 57.6 208.719949 
L 57.698772 208.128 
L 58.146141 205.44 
L 58.588817 202.752 
L 59.026943 200.064 
L 59.460655 197.376 
L 59.890086 194.688 
L 60.315361 192 
L 60.485818 190.918621 
L 60.764754 189.312 
L 61.228443 186.624 
L 61.687318 183.936 
L 62.141525 181.248 
L 62.591204 178.56 
L 63.03649 175.872 
L 63.371636 173.834135 
L 63.48921 173.184 
L 63.973989 170.496 
L 64.453712 167.808 
L 64.928535 165.12 
L 65.398602 162.432 
L 65.864057 159.744 
L 66.257455 157.45339 
L 66.332378 157.056 
L 66.838275 154.368 
L 67.338901 151.68 
L 67.834417 148.992 
L 68.324976 146.304 
L 68.810724 143.616 
L 69.143273 141.763563 
L 69.307659 140.928 
L 69.834681 138.24 
L 70.356245 135.552 
L 70.872517 132.864 
L 71.383653 130.176 
L 71.889807 127.488 
L 72.029091 126.746464 
L 72.429072 124.8 
L 72.977232 122.112 
L 73.519777 119.424 
L 74.056876 116.736 
L 74.588692 114.048 
L 74.914909 112.389374 
L 75.136119 111.36 
L 75.711385 108.672 
L 76.280734 105.984 
L 76.844343 103.296 
L 77.402383 100.608 
L 77.800727 98.675826 
L 77.970767 97.92 
L 78.573639 95.232 
L 79.170312 92.544 
L 79.760973 89.856 
L 80.345801 87.168 
L 80.686545 85.592991 
L 80.948968 84.48 
L 81.579961 81.792 
L 82.2045 79.104 
L 82.822778 76.416 
L 83.434981 73.728 
L 83.572364 73.123559 
L 84.087843 71.04 
L 84.747522 68.352 
L 85.400519 65.664 
L 86.047032 62.976 
L 86.458182 61.255898 
L 86.709798 60.288 
L 87.405908 57.6 
L 88.094924 54.912 
L 88.777058 52.224 
L 89.344 49.971449 
L 89.463101 49.536 
L 90.196988 46.848 
L 90.923385 44.16 
L 91.642514 41.472 
" style="fill:none;stroke:#009fb0;stroke-width:1.5;"/>
    <path clip-path="url(#p7efa11a4dc)" d="M 343.296 141.2257 
L 342.896858 143.616 
L 342.452223 146.304 
L 342.012182 148.992 
L 341.576598 151.68 
L 341.145337 154.368 
L 340.718272 157.056 
L 340.410182 159.008607 
L 340.282367 159.744 
L 339.816626 162.432 
L 339.355745 165.12 
L 338.899578 167.808 
L 338.447982 170.496 
L 338.000822 173.184 
L 337.557968 175.872 
L 337.524364 176.076068 
L 337.074766 178.56 
L 336.592951 181.248 
L 336.116084 183.936 
L 335.644018 186.624 
L 335.17661 189.312 
L 334.713722 192 
L 334.638545 192.437144 
L 334.213779 194.688 
L 333.71098 197.376 
L 333.213342 200.064 
L 332.720709 202.752 
L 332.232933 205.44 
L 331.752727 208.111952 
L 331.749566 208.128 
L 331.220245 210.816 
L 330.696434 213.504 
L 330.177969 216.192 
L 329.664687 218.88 
L 329.156437 221.568 
L 328.866909 223.107627 
L 328.630627 224.256 
L 328.080099 226.944 
L 327.535241 229.632 
L 326.995882 232.32 
L 326.461858 235.008 
L 325.981091 237.449422 
L 325.928031 237.696 
L 325.350277 240.384 
L 324.778499 243.072 
L 324.212517 245.76 
L 323.652158 248.448 
L 323.097256 251.136 
L 323.095273 251.145606 
L 322.491983 253.824 
L 321.892767 256.512 
L 321.299622 259.2 
L 320.712368 261.888 
L 320.209455 264.209463 
L 320.122905 264.576 
L 319.489195 267.264 
L 318.862003 269.952 
L 318.241135 272.64 
L 317.626401 275.328 
L 317.323636 276.658193 
L 316.987194 278.016 
L 316.324689 280.704 
L 315.668933 283.392 
L 315.019726 286.08 
L 314.437818 288.510864 
L 314.370864 288.768 
L 313.671751 291.456 
L 312.979805 294.144 
L 312.294809 296.832 
L 311.616559 299.52 
L 311.552 299.776057 
L 310.885796 302.208 
L 310.156294 304.896 
L 309.434133 307.584 
" style="fill:none;stroke:#009fb0;stroke-width:1.5;"/>
   </g>
   <g id="LineCollection_5">
    <path clip-path="url(#p7efa11a4dc)" d="M 343.296 182.396782 
L 343.039942 183.936 
L 342.595149 186.624 
L 342.154347 189.312 
L 341.717431 192 
L 341.2843 194.688 
L 340.854857 197.376 
L 340.429007 200.064 
L 340.410182 200.182848 
L 339.965362 202.752 
L 339.503992 205.44 
L 339.046725 208.128 
L 338.593453 210.816 
L 338.144072 213.504 
L 337.698484 216.192 
L 337.524364 217.245712 
L 337.229559 218.88 
L 336.747384 221.568 
L 336.269512 224.256 
L 335.795832 226.944 
L 335.326234 229.632 
L 334.860615 232.32 
L 334.638545 233.607043 
L 334.37502 235.008 
L 333.871823 237.696 
L 333.373115 240.384 
L 332.878778 243.072 
L 332.388698 245.76 
L 331.902767 248.448 
L 331.752727 249.280031 
L 331.388341 251.136 
L 330.86391 253.824 
L 330.344132 256.512 
L 329.828887 259.2 
L 329.318058 261.888 
L 328.866909 264.279872 
L 328.806157 264.576 
L 328.255331 267.264 
L 327.709432 269.952 
L 327.168332 272.64 
L 326.631906 275.328 
L 326.100034 278.016 
L 325.981091 278.618184 
L 325.533565 280.704 
L 324.960867 283.392 
L 324.393222 286.08 
L 323.830499 288.768 
L 323.272571 291.456 
L 323.095273 292.312413 
L 322.683776 294.144 
L 322.083584 296.832 
L 321.488685 299.52 
L 320.898943 302.208 
L 320.314225 304.896 
L 320.209455 305.378315 
L 319.689976 307.584 
" style="fill:none;stroke:#007fc0;stroke-width:1.5;"/>
    <path clip-path="url(#p7efa11a4dc)" d="M 57.6 167.427016 
L 57.983442 165.12 
L 58.426711 162.432 
L 58.86602 159.744 
L 59.301471 157.056 
L 59.733167 154.368 
L 60.161202 151.68 
L 60.485818 149.628458 
L 60.595934 148.992 
L 61.059918 146.304 
L 61.519722 143.616 
L 61.975455 140.928 
L 62.427223 138.24 
L 62.875129 135.552 
L 63.31927 132.864 
L 63.371636 132.546819 
L 63.798888 130.176 
L 64.279428 127.488 
L 64.755698 124.8 
L 65.227808 122.112 
L 65.695866 119.424 
L 66.159976 116.736 
L 66.257455 116.170522 
L 66.656306 114.048 
L 67.157801 111.36 
L 67.654843 108.672 
L 68.147547 105.984 
L 68.636025 103.296 
L 69.120387 100.608 
L 69.143273 100.480965 
L 69.645543 97.92 
L 70.16821 95.232 
L 70.68626 92.544 
L 71.199811 89.856 
L 71.708981 87.168 
L 72.029091 85.469133 
L 72.231792 84.48 
L 72.780757 81.792 
L 73.324832 79.104 
L 73.864146 76.416 
L 74.398822 73.728 
L 74.914909 71.111935 
L 74.930328 71.04 
L 75.506257 68.352 
L 76.077037 65.664 
L 76.642803 62.976 
L 77.203686 60.288 
L 77.75981 57.6 
L 77.800727 57.402135 
L 78.359504 54.912 
L 78.957684 52.224 
L 79.550612 49.536 
L 80.138423 46.848 
L 80.686545 44.321359 
L 80.724505 44.16 
L 81.356443 41.472 
" style="fill:none;stroke:#007fc0;stroke-width:1.5;"/>
   </g>
   <g id="LineCollection_6">
    <path clip-path="url(#p7efa11a4dc)" d="M 343.296 218.671733 
L 343.261442 218.88 
L 342.815766 221.568 
L 342.373685 224.256 
L 341.935114 226.944 
L 341.499971 229.632 
L 341.068178 232.32 
L 340.639656 235.008 
L 340.410182 236.453158 
L 340.195514 237.696 
L 339.733012 240.384 
L 339.274211 243.072 
L 338.819023 245.76 
L 338.367365 248.448 
L 337.919155 251.136 
L 337.524364 253.519513 
L 337.469564 253.824 
L 336.986306 256.512 
L 336.506927 259.2 
L 336.031338 261.888 
L 335.559448 264.576 
L 335.091174 267.264 
L 334.638545 269.881416 
L 334.625297 269.952 
L 334.120955 272.64 
L 333.620659 275.328 
L 333.124315 278.016 
L 332.631831 280.704 
L 332.143117 283.392 
L 331.752727 285.552269 
L 331.64933 286.08 
L 331.123567 288.768 
L 330.602003 291.456 
L 330.08454 294.144 
L 329.571082 296.832 
L 329.061538 299.52 
L 328.866909 300.549626 
L 328.527399 302.208 
L 327.979849 304.896 
L 327.436636 307.584 
" style="fill:none;stroke:#005fd0;stroke-width:1.5;"/>
    <path clip-path="url(#p7efa11a4dc)" d="M 57.6 131.073704 
L 57.74884 130.176 
L 58.193253 127.488 
L 58.634093 124.8 
L 59.071446 122.112 
L 59.505392 119.424 
L 59.93601 116.736 
L 60.363377 114.048 
L 60.485818 113.276312 
L 60.816535 111.36 
L 61.277737 108.672 
L 61.735261 105.984 
L 62.189195 103.296 
L 62.639621 100.608 
L 63.08662 97.92 
L 63.371636 96.197869 
L 63.545317 95.232 
L 64.027215 92.544 
L 64.505259 89.856 
L 64.979538 87.168 
L 65.45014 84.48 
L 65.91715 81.792 
L 66.257455 79.822478 
L 66.392187 79.104 
L 66.895112 76.416 
L 67.394017 73.728 
L 67.888995 71.04 
L 68.380138 68.352 
L 68.867535 65.664 
L 69.143273 64.136843 
L 69.370501 62.976 
L 69.894791 60.288 
L 70.41491 57.6 
L 70.930954 54.912 
L 71.443018 52.224 
L 71.951194 49.536 
L 72.029091 49.123533 
L 72.494491 46.848 
L 73.040514 44.16 
L 73.58223 41.472 
" style="fill:none;stroke:#005fd0;stroke-width:1.5;"/>
   </g>
   <g id="LineCollection_7">
    <path clip-path="url(#p7efa11a4dc)" d="M 343.296 251.464035 
L 342.905212 253.824 
L 342.462987 256.512 
L 342.023973 259.2 
L 341.588102 261.888 
L 341.155305 264.576 
L 340.72552 267.264 
L 340.410182 269.2462 
L 340.288495 269.952 
L 339.826002 272.64 
L 339.36689 275.328 
L 338.911087 278.016 
L 338.458522 280.704 
L 338.009127 283.392 
L 337.562836 286.08 
L 337.524364 286.311824 
L 337.083141 288.768 
L 336.603512 291.456 
L 336.127351 294.144 
L 335.654583 296.832 
L 335.185138 299.52 
L 334.718944 302.208 
L 334.638545 302.672068 
L 334.221865 304.896 
L 333.721297 307.584 
" style="fill:none;stroke:#003fe0;stroke-width:1.5;"/>
    <path clip-path="url(#p7efa11a4dc)" d="M 57.6 98.219688 
L 57.649597 97.92 
L 58.094022 95.232 
L 58.535184 92.544 
L 58.973152 89.856 
L 59.407996 87.168 
L 59.839782 84.48 
L 60.268572 81.792 
L 60.485818 80.425445 
L 60.713476 79.104 
L 61.174854 76.416 
L 61.63287 73.728 
L 62.087595 71.04 
L 62.539099 68.352 
L 62.987451 65.664 
L 63.371636 63.346967 
L 63.438232 62.976 
L 63.920238 60.288 
L 64.398719 57.6 
L 64.873753 54.912 
L 65.345411 52.224 
L 65.813766 49.536 
L 66.257455 46.972693 
L 66.280801 46.848 
L 66.783848 44.16 
L 67.28322 41.472 
" style="fill:none;stroke:#003fe0;stroke-width:1.5;"/>
   </g>
   <g id="LineCollection_8">
    <path clip-path="url(#p7efa11a4dc)" d="M 343.296 281.618603 
L 343.002773 283.392 
L 342.560333 286.08 
L 342.120872 288.768 
L 341.684331 291.456 
L 341.250653 294.144 
L 340.819781 296.832 
L 340.410182 299.402995 
L 340.390037 299.52 
L 339.927442 302.208 
L 339.467981 304.896 
L 339.011593 307.584 
" style="fill:none;stroke:#001ff0;stroke-width:1.5;"/>
    <path clip-path="url(#p7efa11a4dc)" d="M 57.6 68.017526 
L 57.988889 65.664 
L 58.430395 62.976 
L 58.868936 60.288 
L 59.304571 57.6 
L 59.737358 54.912 
L 60.167351 52.224 
L 60.485818 50.223731 
L 60.60414 49.536 
L 61.065755 46.848 
L 61.52425 44.16 
L 61.979688 41.472 
" style="fill:none;stroke:#001ff0;stroke-width:1.5;"/>
   </g>
   <g id="LineCollection_9"/>
   <g id="patch_3">
    <path d="M 57.6 307.584 
L 57.6 41.472 
" style="fill:none;stroke:#000000;stroke-linecap:square;stroke-linejoin:miter;stroke-width:0.8;"/>
   </g>
   <g id="patch_4">
    <path d="M 343.296 307.584 
L 343.296 41.472 
" style="fill:none;stroke:#000000;stroke-linecap:square;stroke-linejoin:miter;stroke-width:0.8;"/>
   </g>
   <g id="patch_5">
    <path d="M 57.6 307.584 
L 343.296 307.584 
" style="fill:none;stroke:#000000;stroke-linecap:square;stroke-linejoin:miter;stroke-width:0.8;"/>
   </g>
   <g id="patch_6">
    <path d="M 57.6 41.472 
L 343.296 41.472 
" style="fill:none;stroke:#000000;stroke-linecap:square;stroke-linejoin:miter;stroke-width:0.8;"/>
   </g>
  </g>
  <g id="axes_2">
   <g id="patch_7">
    <path clip-path="url(#pb297104dec)" d="M 361.152 307.584 
L 361.152 274.32 
L 361.152 74.736 
L 361.152 41.472 
L 374.4576 41.472 
L 374.4576 74.736 
L 374.4576 274.32 
L 374.4576 307.584 
z
" style="fill:#ffffff;stroke:#ffffff;stroke-linejoin:miter;stroke-width:0.01;"/>
   </g>
   <g id="matplotlib.axis_3"/>
   <g id="matplotlib.axis_4">
    <g id="ytick_8">
     <g id="line2d_15">
      <defs>
       <path d="M 0 0 
L 3.5 0 
" id="ma2d2af15ea" style="stroke:#000000;stroke-width:0.8;"/>
      </defs>
      <g>
       <use style="stroke:#000000;stroke-width:0.8;" x="374.4576" xlink:href="#ma2d2af15ea" y="307.584"/>
      </g>
     </g>
     <g id="text_15">
      <!-- 0 -->
      <g transform="translate(381.4576 311.383219)scale(0.1 -0.1)">
       <use xlink:href="#DejaVuSans-48"/>
      </g>
     </g>
    </g>
    <g id="ytick_9">
     <g id="line2d_16">
      <g>
       <use style="stroke:#000000;stroke-width:0.8;" x="374.4576" xlink:href="#ma2d2af15ea" y="274.32"/>
      </g>
     </g>
     <g id="text_16">
      <!-- 300 -->
      <defs>
       <path d="M 40.578125 39.3125 
Q 47.65625 37.796875 51.625 33 
Q 55.609375 28.21875 55.609375 21.1875 
Q 55.609375 10.40625 48.1875 4.484375 
Q 40.765625 -1.421875 27.09375 -1.421875 
Q 22.515625 -1.421875 17.65625 -0.515625 
Q 12.796875 0.390625 7.625 2.203125 
L 7.625 11.71875 
Q 11.71875 9.328125 16.59375 8.109375 
Q 21.484375 6.890625 26.8125 6.890625 
Q 36.078125 6.890625 40.9375 10.546875 
Q 45.796875 14.203125 45.796875 21.1875 
Q 45.796875 27.640625 41.28125 31.265625 
Q 36.765625 34.90625 28.71875 34.90625 
L 20.21875 34.90625 
L 20.21875 43.015625 
L 29.109375 43.015625 
Q 36.375 43.015625 40.234375 45.921875 
Q 44.09375 48.828125 44.09375 54.296875 
Q 44.09375 59.90625 40.109375 62.90625 
Q 36.140625 65.921875 28.71875 65.921875 
Q 24.65625 65.921875 20.015625 65.03125 
Q 15.375 64.15625 9.8125 62.3125 
L 9.8125 71.09375 
Q 15.4375 72.65625 20.34375 73.4375 
Q 25.25 74.21875 29.59375 74.21875 
Q 40.828125 74.21875 47.359375 69.109375 
Q 53.90625 64.015625 53.90625 55.328125 
Q 53.90625 49.265625 50.4375 45.09375 
Q 46.96875 40.921875 40.578125 39.3125 
z
" id="DejaVuSans-51"/>
      </defs>
      <g transform="translate(381.4576 278.119219)scale(0.1 -0.1)">
       <use xlink:href="#DejaVuSans-51"/>
       <use x="63.623047" xlink:href="#DejaVuSans-48"/>
       <use x="127.246094" xlink:href="#DejaVuSans-48"/>
      </g>
     </g>
    </g>
    <g id="ytick_10">
     <g id="line2d_17">
      <g>
       <use style="stroke:#000000;stroke-width:0.8;" x="374.4576" xlink:href="#ma2d2af15ea" y="241.056"/>
      </g>
     </g>
     <g id="text_17">
      <!-- 600 -->
      <defs>
       <path d="M 33.015625 40.375 
Q 26.375 40.375 22.484375 35.828125 
Q 18.609375 31.296875 18.609375 23.390625 
Q 18.609375 15.53125 22.484375 10.953125 
Q 26.375 6.390625 33.015625 6.390625 
Q 39.65625 6.390625 43.53125 10.953125 
Q 47.40625 15.53125 47.40625 23.390625 
Q 47.40625 31.296875 43.53125 35.828125 
Q 39.65625 40.375 33.015625 40.375 
z
M 52.59375 71.296875 
L 52.59375 62.3125 
Q 48.875 64.0625 45.09375 64.984375 
Q 41.3125 65.921875 37.59375 65.921875 
Q 27.828125 65.921875 22.671875 59.328125 
Q 17.53125 52.734375 16.796875 39.40625 
Q 19.671875 43.65625 24.015625 45.921875 
Q 28.375 48.1875 33.59375 48.1875 
Q 44.578125 48.1875 50.953125 41.515625 
Q 57.328125 34.859375 57.328125 23.390625 
Q 57.328125 12.15625 50.6875 5.359375 
Q 44.046875 -1.421875 33.015625 -1.421875 
Q 20.359375 -1.421875 13.671875 8.265625 
Q 6.984375 17.96875 6.984375 36.375 
Q 6.984375 53.65625 15.1875 63.9375 
Q 23.390625 74.21875 37.203125 74.21875 
Q 40.921875 74.21875 44.703125 73.484375 
Q 48.484375 72.75 52.59375 71.296875 
z
" id="DejaVuSans-54"/>
      </defs>
      <g transform="translate(381.4576 244.855219)scale(0.1 -0.1)">
       <use xlink:href="#DejaVuSans-54"/>
       <use x="63.623047" xlink:href="#DejaVuSans-48"/>
       <use x="127.246094" xlink:href="#DejaVuSans-48"/>
      </g>
     </g>
    </g>
    <g id="ytick_11">
     <g id="line2d_18">
      <g>
       <use style="stroke:#000000;stroke-width:0.8;" x="374.4576" xlink:href="#ma2d2af15ea" y="207.792"/>
      </g>
     </g>
     <g id="text_18">
      <!-- 900 -->
      <defs>
       <path d="M 10.984375 1.515625 
L 10.984375 10.5 
Q 14.703125 8.734375 18.5 7.8125 
Q 22.3125 6.890625 25.984375 6.890625 
Q 35.75 6.890625 40.890625 13.453125 
Q 46.046875 20.015625 46.78125 33.40625 
Q 43.953125 29.203125 39.59375 26.953125 
Q 35.25 24.703125 29.984375 24.703125 
Q 19.046875 24.703125 12.671875 31.3125 
Q 6.296875 37.9375 6.296875 49.421875 
Q 6.296875 60.640625 12.9375 67.421875 
Q 19.578125 74.21875 30.609375 74.21875 
Q 43.265625 74.21875 49.921875 64.515625 
Q 56.59375 54.828125 56.59375 36.375 
Q 56.59375 19.140625 48.40625 8.859375 
Q 40.234375 -1.421875 26.421875 -1.421875 
Q 22.703125 -1.421875 18.890625 -0.6875 
Q 15.09375 0.046875 10.984375 1.515625 
z
M 30.609375 32.421875 
Q 37.25 32.421875 41.125 36.953125 
Q 45.015625 41.5 45.015625 49.421875 
Q 45.015625 57.28125 41.125 61.84375 
Q 37.25 66.40625 30.609375 66.40625 
Q 23.96875 66.40625 20.09375 61.84375 
Q 16.21875 57.28125 16.21875 49.421875 
Q 16.21875 41.5 20.09375 36.953125 
Q 23.96875 32.421875 30.609375 32.421875 
z
" id="DejaVuSans-57"/>
      </defs>
      <g transform="translate(381.4576 211.591219)scale(0.1 -0.1)">
       <use xlink:href="#DejaVuSans-57"/>
       <use x="63.623047" xlink:href="#DejaVuSans-48"/>
       <use x="127.246094" xlink:href="#DejaVuSans-48"/>
      </g>
     </g>
    </g>
    <g id="ytick_12">
     <g id="line2d_19">
      <g>
       <use style="stroke:#000000;stroke-width:0.8;" x="374.4576" xlink:href="#ma2d2af15ea" y="174.528"/>
      </g>
     </g>
     <g id="text_19">
      <!-- 1200 -->
      <defs>
       <path d="M 19.1875 8.296875 
L 53.609375 8.296875 
L 53.609375 0 
L 7.328125 0 
L 7.328125 8.296875 
Q 12.9375 14.109375 22.625 23.890625 
Q 32.328125 33.6875 34.8125 36.53125 
Q 39.546875 41.84375 41.421875 45.53125 
Q 43.3125 49.21875 43.3125 52.78125 
Q 43.3125 58.59375 39.234375 62.25 
Q 35.15625 65.921875 28.609375 65.921875 
Q 23.96875 65.921875 18.8125 64.3125 
Q 13.671875 62.703125 7.8125 59.421875 
L 7.8125 69.390625 
Q 13.765625 71.78125 18.9375 73 
Q 24.125 74.21875 28.421875 74.21875 
Q 39.75 74.21875 46.484375 68.546875 
Q 53.21875 62.890625 53.21875 53.421875 
Q 53.21875 48.921875 51.53125 44.890625 
Q 49.859375 40.875 45.40625 35.40625 
Q 44.1875 33.984375 37.640625 27.21875 
Q 31.109375 20.453125 19.1875 8.296875 
z
" id="DejaVuSans-50"/>
      </defs>
      <g transform="translate(381.4576 178.327219)scale(0.1 -0.1)">
       <use xlink:href="#DejaVuSans-49"/>
       <use x="63.623047" xlink:href="#DejaVuSans-50"/>
       <use x="127.246094" xlink:href="#DejaVuSans-48"/>
       <use x="190.869141" xlink:href="#DejaVuSans-48"/>
      </g>
     </g>
    </g>
    <g id="ytick_13">
     <g id="line2d_20">
      <g>
       <use style="stroke:#000000;stroke-width:0.8;" x="374.4576" xlink:href="#ma2d2af15ea" y="141.264"/>
      </g>
     </g>
     <g id="text_20">
      <!-- 1500 -->
      <g transform="translate(381.4576 145.063219)scale(0.1 -0.1)">
       <use xlink:href="#DejaVuSans-49"/>
       <use x="63.623047" xlink:href="#DejaVuSans-53"/>
       <use x="127.246094" xlink:href="#DejaVuSans-48"/>
       <use x="190.869141" xlink:href="#DejaVuSans-48"/>
      </g>
     </g>
    </g>
    <g id="ytick_14">
     <g id="line2d_21">
      <g>
       <use style="stroke:#000000;stroke-width:0.8;" x="374.4576" xlink:href="#ma2d2af15ea" y="108"/>
      </g>
     </g>
     <g id="text_21">
      <!-- 1800 -->
      <defs>
       <path d="M 31.78125 34.625 
Q 24.75 34.625 20.71875 30.859375 
Q 16.703125 27.09375 16.703125 20.515625 
Q 16.703125 13.921875 20.71875 10.15625 
Q 24.75 6.390625 31.78125 6.390625 
Q 38.8125 6.390625 42.859375 10.171875 
Q 46.921875 13.96875 46.921875 20.515625 
Q 46.921875 27.09375 42.890625 30.859375 
Q 38.875 34.625 31.78125 34.625 
z
M 21.921875 38.8125 
Q 15.578125 40.375 12.03125 44.71875 
Q 8.5 49.078125 8.5 55.328125 
Q 8.5 64.0625 14.71875 69.140625 
Q 20.953125 74.21875 31.78125 74.21875 
Q 42.671875 74.21875 48.875 69.140625 
Q 55.078125 64.0625 55.078125 55.328125 
Q 55.078125 49.078125 51.53125 44.71875 
Q 48 40.375 41.703125 38.8125 
Q 48.828125 37.15625 52.796875 32.3125 
Q 56.78125 27.484375 56.78125 20.515625 
Q 56.78125 9.90625 50.3125 4.234375 
Q 43.84375 -1.421875 31.78125 -1.421875 
Q 19.734375 -1.421875 13.25 4.234375 
Q 6.78125 9.90625 6.78125 20.515625 
Q 6.78125 27.484375 10.78125 32.3125 
Q 14.796875 37.15625 21.921875 38.8125 
z
M 18.3125 54.390625 
Q 18.3125 48.734375 21.84375 45.5625 
Q 25.390625 42.390625 31.78125 42.390625 
Q 38.140625 42.390625 41.71875 45.5625 
Q 45.3125 48.734375 45.3125 54.390625 
Q 45.3125 60.0625 41.71875 63.234375 
Q 38.140625 66.40625 31.78125 66.40625 
Q 25.390625 66.40625 21.84375 63.234375 
Q 18.3125 60.0625 18.3125 54.390625 
z
" id="DejaVuSans-56"/>
      </defs>
      <g transform="translate(381.4576 111.799219)scale(0.1 -0.1)">
       <use xlink:href="#DejaVuSans-49"/>
       <use x="63.623047" xlink:href="#DejaVuSans-56"/>
       <use x="127.246094" xlink:href="#DejaVuSans-48"/>
       <use x="190.869141" xlink:href="#DejaVuSans-48"/>
      </g>
     </g>
    </g>
    <g id="ytick_15">
     <g id="line2d_22">
      <g>
       <use style="stroke:#000000;stroke-width:0.8;" x="374.4576" xlink:href="#ma2d2af15ea" y="74.736"/>
      </g>
     </g>
     <g id="text_22">
      <!-- 2100 -->
      <g transform="translate(381.4576 78.535219)scale(0.1 -0.1)">
       <use xlink:href="#DejaVuSans-50"/>
       <use x="63.623047" xlink:href="#DejaVuSans-49"/>
       <use x="127.246094" xlink:href="#DejaVuSans-48"/>
       <use x="190.869141" xlink:href="#DejaVuSans-48"/>
      </g>
     </g>
    </g>
    <g id="ytick_16">
     <g id="line2d_23">
      <g>
       <use style="stroke:#000000;stroke-width:0.8;" x="374.4576" xlink:href="#ma2d2af15ea" y="41.472"/>
      </g>
     </g>
     <g id="text_23">
      <!-- 2400 -->
      <defs>
       <path d="M 37.796875 64.3125 
L 12.890625 25.390625 
L 37.796875 25.390625 
z
M 35.203125 72.90625 
L 47.609375 72.90625 
L 47.609375 25.390625 
L 58.015625 25.390625 
L 58.015625 17.1875 
L 47.609375 17.1875 
L 47.609375 0 
L 37.796875 0 
L 37.796875 17.1875 
L 4.890625 17.1875 
L 4.890625 26.703125 
z
" id="DejaVuSans-52"/>
      </defs>
      <g transform="translate(381.4576 45.271219)scale(0.1 -0.1)">
       <use xlink:href="#DejaVuSans-50"/>
       <use x="63.623047" xlink:href="#DejaVuSans-52"/>
       <use x="127.246094" xlink:href="#DejaVuSans-48"/>
       <use x="190.869141" xlink:href="#DejaVuSans-48"/>
      </g>
     </g>
    </g>
   </g>
   <g id="LineCollection_10">
    <path clip-path="url(#pb297104dec)" d="M 361.152 307.584 
L 374.4576 307.584 
" style="fill:none;stroke:#00ff80;stroke-width:1.5;"/>
    <path clip-path="url(#pb297104dec)" d="M 361.152 274.32 
L 374.4576 274.32 
" style="fill:none;stroke:#00df90;stroke-width:1.5;"/>
    <path clip-path="url(#pb297104dec)" d="M 361.152 241.056 
L 374.4576 241.056 
" style="fill:none;stroke:#00bfa0;stroke-width:1.5;"/>
    <path clip-path="url(#pb297104dec)" d="M 361.152 207.792 
L 374.4576 207.792 
" style="fill:none;stroke:#009fb0;stroke-width:1.5;"/>
    <path clip-path="url(#pb297104dec)" d="M 361.152 174.528 
L 374.4576 174.528 
" style="fill:none;stroke:#007fc0;stroke-width:1.5;"/>
    <path clip-path="url(#pb297104dec)" d="M 361.152 141.264 
L 374.4576 141.264 
" style="fill:none;stroke:#005fd0;stroke-width:1.5;"/>
    <path clip-path="url(#pb297104dec)" d="M 361.152 108 
L 374.4576 108 
" style="fill:none;stroke:#003fe0;stroke-width:1.5;"/>
    <path clip-path="url(#pb297104dec)" d="M 361.152 74.736 
L 374.4576 74.736 
" style="fill:none;stroke:#001ff0;stroke-width:1.5;"/>
    <path clip-path="url(#pb297104dec)" d="M 361.152 41.472 
L 374.4576 41.472 
" style="fill:none;stroke:#0000ff;stroke-width:1.5;"/>
   </g>
   <g id="patch_8">
    <path d="M 361.152 307.584 
L 361.152 274.32 
L 361.152 74.736 
L 361.152 41.472 
L 374.4576 41.472 
L 374.4576 74.736 
L 374.4576 274.32 
L 374.4576 307.584 
z
" style="fill:none;stroke:#000000;stroke-linejoin:miter;stroke-width:0.8;"/>
   </g>
  </g>
 </g>
 <defs>
  <clipPath id="p7efa11a4dc">
   <rect height="266.112" width="285.696" x="57.6" y="41.472"/>
  </clipPath>
  <clipPath id="pb297104dec">
   <rect height="266.112" width="13.3056" x="361.152" y="41.472"/>
  </clipPath>
 </defs>
</svg>
