<?xml version="1.0" encoding="utf-8" standalone="no"?>
<!DOCTYPE svg PUBLIC "-//W3C//DTD SVG 1.1//EN"
  "http://www.w3.org/Graphics/SVG/1.1/DTD/svg11.dtd">
<!-- Created with matplotlib (https://matplotlib.org/) -->
<svg height="345.6pt" version="1.1" viewBox="0 0 460.8 345.6" width="460.8pt" xmlns="http://www.w3.org/2000/svg" xmlns:xlink="http://www.w3.org/1999/xlink">
 <defs>
  <style type="text/css">
*{stroke-linecap:butt;stroke-linejoin:round;}
  </style>
 </defs>
 <g id="figure_1">
  <g id="patch_1">
   <path d="M 0 345.6 
L 460.8 345.6 
L 460.8 0 
L 0 0 
z
" style="fill:#ffffff;"/>
  </g>
  <g id="axes_1">
   <g id="patch_2">
    <path d="M 57.6 307.584 
L 343.296 307.584 
L 343.296 41.472 
L 57.6 41.472 
z
" style="fill:#ffffff;"/>
   </g>
   <g id="matplotlib.axis_1">
    <g id="xtick_1">
     <g id="line2d_1">
      <defs>
       <path d="M 0 0 
L 0 3.5 
" id="m6dbacb5f7d" style="stroke:#000000;stroke-width:0.8;"/>
      </defs>
      <g>
       <use style="stroke:#000000;stroke-width:0.8;" x="57.6" xlink:href="#m6dbacb5f7d" y="307.584"/>
      </g>
     </g>
     <g id="text_1">
      <!-- −10.0 -->
      <defs>
       <path d="M 10.59375 35.5 
L 73.1875 35.5 
L 73.1875 27.203125 
L 10.59375 27.203125 
z
" id="DejaVuSans-8722"/>
       <path d="M 12.40625 8.296875 
L 28.515625 8.296875 
L 28.515625 63.921875 
L 10.984375 60.40625 
L 10.984375 69.390625 
L 28.421875 72.90625 
L 38.28125 72.90625 
L 38.28125 8.296875 
L 54.390625 8.296875 
L 54.390625 0 
L 12.40625 0 
z
" id="DejaVuSans-49"/>
       <path d="M 31.78125 66.40625 
Q 24.171875 66.40625 20.328125 58.90625 
Q 16.5 51.421875 16.5 36.375 
Q 16.5 21.390625 20.328125 13.890625 
Q 24.171875 6.390625 31.78125 6.390625 
Q 39.453125 6.390625 43.28125 13.890625 
Q 47.125 21.390625 47.125 36.375 
Q 47.125 51.421875 43.28125 58.90625 
Q 39.453125 66.40625 31.78125 66.40625 
z
M 31.78125 74.21875 
Q 44.046875 74.21875 50.515625 64.515625 
Q 56.984375 54.828125 56.984375 36.375 
Q 56.984375 17.96875 50.515625 8.265625 
Q 44.046875 -1.421875 31.78125 -1.421875 
Q 19.53125 -1.421875 13.0625 8.265625 
Q 6.59375 17.96875 6.59375 36.375 
Q 6.59375 54.828125 13.0625 64.515625 
Q 19.53125 74.21875 31.78125 74.21875 
z
" id="DejaVuSans-48"/>
       <path d="M 10.6875 12.40625 
L 21 12.40625 
L 21 0 
L 10.6875 0 
z
" id="DejaVuSans-46"/>
      </defs>
      <g transform="translate(42.277344 322.182437)scale(0.1 -0.1)">
       <use xlink:href="#DejaVuSans-8722"/>
       <use x="83.789062" xlink:href="#DejaVuSans-49"/>
       <use x="147.412109" xlink:href="#DejaVuSans-48"/>
       <use x="211.035156" xlink:href="#DejaVuSans-46"/>
       <use x="242.822266" xlink:href="#DejaVuSans-48"/>
      </g>
     </g>
    </g>
    <g id="xtick_2">
     <g id="line2d_2">
      <g>
       <use style="stroke:#000000;stroke-width:0.8;" x="93.312" xlink:href="#m6dbacb5f7d" y="307.584"/>
      </g>
     </g>
     <g id="text_2">
      <!-- −7.5 -->
      <defs>
       <path d="M 8.203125 72.90625 
L 55.078125 72.90625 
L 55.078125 68.703125 
L 28.609375 0 
L 18.3125 0 
L 43.21875 64.59375 
L 8.203125 64.59375 
z
" id="DejaVuSans-55"/>
       <path d="M 10.796875 72.90625 
L 49.515625 72.90625 
L 49.515625 64.59375 
L 19.828125 64.59375 
L 19.828125 46.734375 
Q 21.96875 47.46875 24.109375 47.828125 
Q 26.265625 48.1875 28.421875 48.1875 
Q 40.625 48.1875 47.75 41.5 
Q 54.890625 34.8125 54.890625 23.390625 
Q 54.890625 11.625 47.5625 5.09375 
Q 40.234375 -1.421875 26.90625 -1.421875 
Q 22.3125 -1.421875 17.546875 -0.640625 
Q 12.796875 0.140625 7.71875 1.703125 
L 7.71875 11.625 
Q 12.109375 9.234375 16.796875 8.0625 
Q 21.484375 6.890625 26.703125 6.890625 
Q 35.15625 6.890625 40.078125 11.328125 
Q 45.015625 15.765625 45.015625 23.390625 
Q 45.015625 31 40.078125 35.4375 
Q 35.15625 39.890625 26.703125 39.890625 
Q 22.75 39.890625 18.8125 39.015625 
Q 14.890625 38.140625 10.796875 36.28125 
z
" id="DejaVuSans-53"/>
      </defs>
      <g transform="translate(81.170594 322.182437)scale(0.1 -0.1)">
       <use xlink:href="#DejaVuSans-8722"/>
       <use x="83.789062" xlink:href="#DejaVuSans-55"/>
       <use x="147.412109" xlink:href="#DejaVuSans-46"/>
       <use x="179.199219" xlink:href="#DejaVuSans-53"/>
      </g>
     </g>
    </g>
    <g id="xtick_3">
     <g id="line2d_3">
      <g>
       <use style="stroke:#000000;stroke-width:0.8;" x="129.024" xlink:href="#m6dbacb5f7d" y="307.584"/>
      </g>
     </g>
     <g id="text_3">
      <!-- −5.0 -->
      <g transform="translate(116.882594 322.182437)scale(0.1 -0.1)">
       <use xlink:href="#DejaVuSans-8722"/>
       <use x="83.789062" xlink:href="#DejaVuSans-53"/>
       <use x="147.412109" xlink:href="#DejaVuSans-46"/>
       <use x="179.199219" xlink:href="#DejaVuSans-48"/>
      </g>
     </g>
    </g>
    <g id="xtick_4">
     <g id="line2d_4">
      <g>
       <use style="stroke:#000000;stroke-width:0.8;" x="164.736" xlink:href="#m6dbacb5f7d" y="307.584"/>
      </g>
     </g>
     <g id="text_4">
      <!-- −2.5 -->
      <defs>
       <path d="M 19.1875 8.296875 
L 53.609375 8.296875 
L 53.609375 0 
L 7.328125 0 
L 7.328125 8.296875 
Q 12.9375 14.109375 22.625 23.890625 
Q 32.328125 33.6875 34.8125 36.53125 
Q 39.546875 41.84375 41.421875 45.53125 
Q 43.3125 49.21875 43.3125 52.78125 
Q 43.3125 58.59375 39.234375 62.25 
Q 35.15625 65.921875 28.609375 65.921875 
Q 23.96875 65.921875 18.8125 64.3125 
Q 13.671875 62.703125 7.8125 59.421875 
L 7.8125 69.390625 
Q 13.765625 71.78125 18.9375 73 
Q 24.125 74.21875 28.421875 74.21875 
Q 39.75 74.21875 46.484375 68.546875 
Q 53.21875 62.890625 53.21875 53.421875 
Q 53.21875 48.921875 51.53125 44.890625 
Q 49.859375 40.875 45.40625 35.40625 
Q 44.1875 33.984375 37.640625 27.21875 
Q 31.109375 20.453125 19.1875 8.296875 
z
" id="DejaVuSans-50"/>
      </defs>
      <g transform="translate(152.594594 322.182437)scale(0.1 -0.1)">
       <use xlink:href="#DejaVuSans-8722"/>
       <use x="83.789062" xlink:href="#DejaVuSans-50"/>
       <use x="147.412109" xlink:href="#DejaVuSans-46"/>
       <use x="179.199219" xlink:href="#DejaVuSans-53"/>
      </g>
     </g>
    </g>
    <g id="xtick_5">
     <g id="line2d_5">
      <g>
       <use style="stroke:#000000;stroke-width:0.8;" x="200.448" xlink:href="#m6dbacb5f7d" y="307.584"/>
      </g>
     </g>
     <g id="text_5">
      <!-- 0.0 -->
      <g transform="translate(192.496438 322.182437)scale(0.1 -0.1)">
       <use xlink:href="#DejaVuSans-48"/>
       <use x="63.623047" xlink:href="#DejaVuSans-46"/>
       <use x="95.410156" xlink:href="#DejaVuSans-48"/>
      </g>
     </g>
    </g>
    <g id="xtick_6">
     <g id="line2d_6">
      <g>
       <use style="stroke:#000000;stroke-width:0.8;" x="236.16" xlink:href="#m6dbacb5f7d" y="307.584"/>
      </g>
     </g>
     <g id="text_6">
      <!-- 2.5 -->
      <g transform="translate(228.208438 322.182437)scale(0.1 -0.1)">
       <use xlink:href="#DejaVuSans-50"/>
       <use x="63.623047" xlink:href="#DejaVuSans-46"/>
       <use x="95.410156" xlink:href="#DejaVuSans-53"/>
      </g>
     </g>
    </g>
    <g id="xtick_7">
     <g id="line2d_7">
      <g>
       <use style="stroke:#000000;stroke-width:0.8;" x="271.872" xlink:href="#m6dbacb5f7d" y="307.584"/>
      </g>
     </g>
     <g id="text_7">
      <!-- 5.0 -->
      <g transform="translate(263.920437 322.182437)scale(0.1 -0.1)">
       <use xlink:href="#DejaVuSans-53"/>
       <use x="63.623047" xlink:href="#DejaVuSans-46"/>
       <use x="95.410156" xlink:href="#DejaVuSans-48"/>
      </g>
     </g>
    </g>
    <g id="xtick_8">
     <g id="line2d_8">
      <g>
       <use style="stroke:#000000;stroke-width:0.8;" x="307.584" xlink:href="#m6dbacb5f7d" y="307.584"/>
      </g>
     </g>
     <g id="text_8">
      <!-- 7.5 -->
      <g transform="translate(299.632438 322.182437)scale(0.1 -0.1)">
       <use xlink:href="#DejaVuSans-55"/>
       <use x="63.623047" xlink:href="#DejaVuSans-46"/>
       <use x="95.410156" xlink:href="#DejaVuSans-53"/>
      </g>
     </g>
    </g>
    <g id="xtick_9">
     <g id="line2d_9">
      <g>
       <use style="stroke:#000000;stroke-width:0.8;" x="343.296" xlink:href="#m6dbacb5f7d" y="307.584"/>
      </g>
     </g>
     <g id="text_9">
      <!-- 10.0 -->
      <g transform="translate(332.163188 322.182437)scale(0.1 -0.1)">
       <use xlink:href="#DejaVuSans-49"/>
       <use x="63.623047" xlink:href="#DejaVuSans-48"/>
       <use x="127.246094" xlink:href="#DejaVuSans-46"/>
       <use x="159.033203" xlink:href="#DejaVuSans-48"/>
      </g>
     </g>
    </g>
   </g>
   <g id="matplotlib.axis_2">
    <g id="ytick_1">
     <g id="line2d_10">
      <defs>
       <path d="M 0 0 
L -3.5 0 
" id="me10a403d51" style="stroke:#000000;stroke-width:0.8;"/>
      </defs>
      <g>
       <use style="stroke:#000000;stroke-width:0.8;" x="57.6" xlink:href="#me10a403d51" y="307.584"/>
      </g>
     </g>
     <g id="text_10">
      <!-- −10.0 -->
      <g transform="translate(19.954687 311.383219)scale(0.1 -0.1)">
       <use xlink:href="#DejaVuSans-8722"/>
       <use x="83.789062" xlink:href="#DejaVuSans-49"/>
       <use x="147.412109" xlink:href="#DejaVuSans-48"/>
       <use x="211.035156" xlink:href="#DejaVuSans-46"/>
       <use x="242.822266" xlink:href="#DejaVuSans-48"/>
      </g>
     </g>
    </g>
    <g id="ytick_2">
     <g id="line2d_11">
      <g>
       <use style="stroke:#000000;stroke-width:0.8;" x="57.6" xlink:href="#me10a403d51" y="274.32"/>
      </g>
     </g>
     <g id="text_11">
      <!-- −7.5 -->
      <g transform="translate(26.317187 278.119219)scale(0.1 -0.1)">
       <use xlink:href="#DejaVuSans-8722"/>
       <use x="83.789062" xlink:href="#DejaVuSans-55"/>
       <use x="147.412109" xlink:href="#DejaVuSans-46"/>
       <use x="179.199219" xlink:href="#DejaVuSans-53"/>
      </g>
     </g>
    </g>
    <g id="ytick_3">
     <g id="line2d_12">
      <g>
       <use style="stroke:#000000;stroke-width:0.8;" x="57.6" xlink:href="#me10a403d51" y="241.056"/>
      </g>
     </g>
     <g id="text_12">
      <!-- −5.0 -->
      <g transform="translate(26.317187 244.855219)scale(0.1 -0.1)">
       <use xlink:href="#DejaVuSans-8722"/>
       <use x="83.789062" xlink:href="#DejaVuSans-53"/>
       <use x="147.412109" xlink:href="#DejaVuSans-46"/>
       <use x="179.199219" xlink:href="#DejaVuSans-48"/>
      </g>
     </g>
    </g>
    <g id="ytick_4">
     <g id="line2d_13">
      <g>
       <use style="stroke:#000000;stroke-width:0.8;" x="57.6" xlink:href="#me10a403d51" y="207.792"/>
      </g>
     </g>
     <g id="text_13">
      <!-- −2.5 -->
      <g transform="translate(26.317187 211.591219)scale(0.1 -0.1)">
       <use xlink:href="#DejaVuSans-8722"/>
       <use x="83.789062" xlink:href="#DejaVuSans-50"/>
       <use x="147.412109" xlink:href="#DejaVuSans-46"/>
       <use x="179.199219" xlink:href="#DejaVuSans-53"/>
      </g>
     </g>
    </g>
    <g id="ytick_5">
     <g id="line2d_14">
      <g>
       <use style="stroke:#000000;stroke-width:0.8;" x="57.6" xlink:href="#me10a403d51" y="174.528"/>
      </g>
     </g>
     <g id="text_14">
      <!-- 0.0 -->
      <g transform="translate(34.696875 178.327219)scale(0.1 -0.1)">
       <use xlink:href="#DejaVuSans-48"/>
       <use x="63.623047" xlink:href="#DejaVuSans-46"/>
       <use x="95.410156" xlink:href="#DejaVuSans-48"/>
      </g>
     </g>
    </g>
    <g id="ytick_6">
     <g id="line2d_15">
      <g>
       <use style="stroke:#000000;stroke-width:0.8;" x="57.6" xlink:href="#me10a403d51" y="141.264"/>
      </g>
     </g>
     <g id="text_15">
      <!-- 2.5 -->
      <g transform="translate(34.696875 145.063219)scale(0.1 -0.1)">
       <use xlink:href="#DejaVuSans-50"/>
       <use x="63.623047" xlink:href="#DejaVuSans-46"/>
       <use x="95.410156" xlink:href="#DejaVuSans-53"/>
      </g>
     </g>
    </g>
    <g id="ytick_7">
     <g id="line2d_16">
      <g>
       <use style="stroke:#000000;stroke-width:0.8;" x="57.6" xlink:href="#me10a403d51" y="108"/>
      </g>
     </g>
     <g id="text_16">
      <!-- 5.0 -->
      <g transform="translate(34.696875 111.799219)scale(0.1 -0.1)">
       <use xlink:href="#DejaVuSans-53"/>
       <use x="63.623047" xlink:href="#DejaVuSans-46"/>
       <use x="95.410156" xlink:href="#DejaVuSans-48"/>
      </g>
     </g>
    </g>
    <g id="ytick_8">
     <g id="line2d_17">
      <g>
       <use style="stroke:#000000;stroke-width:0.8;" x="57.6" xlink:href="#me10a403d51" y="74.736"/>
      </g>
     </g>
     <g id="text_17">
      <!-- 7.5 -->
      <g transform="translate(34.696875 78.535219)scale(0.1 -0.1)">
       <use xlink:href="#DejaVuSans-55"/>
       <use x="63.623047" xlink:href="#DejaVuSans-46"/>
       <use x="95.410156" xlink:href="#DejaVuSans-53"/>
      </g>
     </g>
    </g>
    <g id="ytick_9">
     <g id="line2d_18">
      <g>
       <use style="stroke:#000000;stroke-width:0.8;" x="57.6" xlink:href="#me10a403d51" y="41.472"/>
      </g>
     </g>
     <g id="text_18">
      <!-- 10.0 -->
      <g transform="translate(28.334375 45.271219)scale(0.1 -0.1)">
       <use xlink:href="#DejaVuSans-49"/>
       <use x="63.623047" xlink:href="#DejaVuSans-48"/>
       <use x="127.246094" xlink:href="#DejaVuSans-46"/>
       <use x="159.033203" xlink:href="#DejaVuSans-48"/>
      </g>
     </g>
    </g>
   </g>
   <g id="LineCollection_1"/>
   <g id="LineCollection_2">
    <path clip-path="url(#pef2d79d00c)" d="M 57.6 210.207642 
L 59.548446 208.128 
L 60.485818 207.129859 
L 62.076061 205.44 
L 63.371636 204.066492 
L 64.6141 202.752 
L 66.257455 201.017439 
L 67.162627 200.064 
L 69.143273 197.982601 
L 69.721706 197.376 
L 72.029091 194.961879 
L 72.291404 194.688 
L 74.872922 192 
L 74.914909 191.956486 
L 77.471829 189.312 
L 77.800727 188.972602 
L 80.081301 186.624 
L 80.686545 186.002099 
L 82.701402 183.936 
L 83.572364 183.044886 
L 85.332197 181.248 
L 86.458182 180.100875 
L 87.973753 178.56 
L 89.344 177.169978 
L 90.626134 175.872 
L 92.229818 174.252107 
L 93.289408 173.184 
L 95.115636 171.347175 
L 95.963642 170.496 
L 98.001455 168.455097 
L 98.648904 167.808 
L 100.887273 165.575788 
L 101.345262 165.12 
L 103.773091 162.709163 
L 104.052785 162.432 
L 106.658909 159.855138 
L 106.771543 159.744 
L 109.50274 157.056 
L 109.544727 157.014806 
L 112.247987 154.368 
L 112.430545 154.189634 
L 115.004393 151.68 
L 115.316364 151.376459 
L 117.772027 148.992 
L 118.202182 148.575203 
L 120.550958 146.304 
L 121.088 145.785793 
L 123.341255 143.616 
L 123.973818 143.008152 
L 126.142987 140.928 
L 126.859636 140.242206 
L 128.956225 138.24 
L 129.745455 137.487882 
L 131.78104 135.552 
L 132.631273 134.745107 
L 134.617504 132.864 
L 135.517091 132.013808 
L 137.465689 130.176 
L 138.402909 129.293912 
L 140.325668 127.488 
L 141.288727 126.58535 
L 143.197513 124.8 
L 144.174545 123.88805 
L 146.0813 122.112 
L 147.060364 121.201942 
L 148.977103 119.424 
L 149.946182 118.526957 
L 151.884997 116.736 
L 152.832 115.863025 
L 154.805057 114.048 
L 155.717818 113.210078 
L 157.737362 111.36 
L 158.603636 110.568049 
L 160.681986 108.672 
L 161.489455 107.936871 
L 163.639009 105.984 
L 164.375273 105.316475 
L 166.608509 103.296 
L 167.261091 102.706798 
L 169.590565 100.608 
L 170.146909 100.107771 
L 172.585257 97.92 
L 173.032727 97.519332 
L 175.592666 95.232 
L 175.918545 94.941415 
L 178.612871 92.544 
L 178.804364 92.373955 
L 181.645956 89.856 
L 181.690182 89.816891 
L 184.576 87.272913 
L 184.695317 87.168 
L 187.461818 84.740522 
L 187.759378 84.48 
L 190.347636 82.218595 
L 190.836967 81.792 
L 193.233455 79.707068 
L 193.928174 79.104 
L 196.119273 77.205877 
L 197.033088 76.416 
L 199.005091 74.714957 
L 200.151803 73.728 
L 201.890909 72.234246 
L 203.284409 71.04 
L 204.776727 69.763681 
L 206.431 68.352 
L 207.662545 67.3032 
L 209.59167 65.664 
L 210.548364 64.852741 
L 212.766513 62.976 
L 213.434182 62.412244 
L 215.955625 60.288 
L 216.32 59.981647 
L 219.159102 57.6 
L 219.205818 57.560891 
L 222.091636 55.156332 
L 222.385671 54.912 
L 224.977455 52.762783 
L 225.628698 52.224 
L 227.863273 50.379124 
L 228.886879 49.536 
L 230.749091 48.005295 
L 232.16032 46.848 
L 233.634909 45.641235 
L 235.44913 44.16 
L 236.520727 43.286883 
L 238.753417 41.472 
" style="fill:none;stroke:#00db92;stroke-width:1.5;"/>
    <path clip-path="url(#pef2d79d00c)" d="M 343.296 138.848358 
L 341.347554 140.928 
L 340.410182 141.926141 
L 338.819939 143.616 
L 337.524364 144.989508 
L 336.2819 146.304 
L 334.638545 148.038561 
L 333.733373 148.992 
L 331.752727 151.073399 
L 331.174294 151.68 
L 328.866909 154.094121 
L 328.604596 154.368 
L 326.023078 157.056 
L 325.981091 157.099514 
L 323.424171 159.744 
L 323.095273 160.083398 
L 320.814699 162.432 
L 320.209455 163.053901 
L 318.194598 165.12 
L 317.323636 166.011114 
L 315.563803 167.808 
L 314.437818 168.955125 
L 312.922247 170.496 
L 311.552 171.886022 
L 310.269866 173.184 
L 308.666182 174.803893 
L 307.606592 175.872 
L 305.780364 177.708825 
L 304.932358 178.56 
L 302.894545 180.600903 
L 302.247096 181.248 
L 300.008727 183.480212 
L 299.550738 183.936 
L 297.122909 186.346837 
L 296.843215 186.624 
L 294.237091 189.200862 
L 294.124457 189.312 
L 291.39326 192 
L 291.351273 192.041194 
L 288.648013 194.688 
L 288.465455 194.866366 
L 285.891607 197.376 
L 285.579636 197.679541 
L 283.123973 200.064 
L 282.693818 200.480797 
L 280.345042 202.752 
L 279.808 203.270207 
L 277.554745 205.44 
L 276.922182 206.047848 
L 274.753013 208.128 
L 274.036364 208.813794 
L 271.939775 210.816 
L 271.150545 211.568118 
L 269.11496 213.504 
L 268.264727 214.310893 
L 266.278496 216.192 
L 265.378909 217.042192 
L 263.430311 218.88 
L 262.493091 219.762088 
L 260.570332 221.568 
L 259.607273 222.47065 
L 257.698487 224.256 
L 256.721455 225.16795 
L 254.8147 226.944 
L 253.835636 227.854058 
L 251.918897 229.632 
L 250.949818 230.529043 
L 249.011003 232.32 
L 248.064 233.192975 
L 246.090943 235.008 
L 245.178182 235.845922 
L 243.158638 237.696 
L 242.292364 238.487951 
L 240.214014 240.384 
L 239.406545 241.119129 
L 237.256991 243.072 
L 236.520727 243.739525 
L 234.287491 245.76 
L 233.634909 246.349202 
L 231.305435 248.448 
L 230.749091 248.948229 
L 228.310743 251.136 
L 227.863273 251.536668 
L 225.303334 253.824 
L 224.977455 254.114585 
L 222.283129 256.512 
L 222.091636 256.682045 
L 219.250044 259.2 
L 219.205818 259.239109 
L 216.32 261.783087 
L 216.200683 261.888 
L 213.434182 264.315478 
L 213.136622 264.576 
L 210.548364 266.837405 
L 210.059033 267.264 
L 207.662545 269.348932 
L 206.967826 269.952 
L 204.776727 271.850123 
L 203.862912 272.64 
L 201.890909 274.341043 
L 200.744197 275.328 
L 199.005091 276.821754 
L 197.611591 278.016 
L 196.119273 279.292319 
L 194.465 280.704 
L 193.233455 281.7528 
L 191.30433 283.392 
L 190.347636 284.203259 
L 188.129487 286.08 
L 187.461818 286.643756 
L 184.940375 288.768 
L 184.576 289.074353 
L 181.736898 291.456 
L 181.690182 291.495109 
L 178.804364 293.899668 
L 178.510329 294.144 
L 175.918545 296.293217 
L 175.267302 296.832 
L 173.032727 298.676876 
L 172.009121 299.52 
L 170.146909 301.050705 
L 168.73568 302.208 
L 167.261091 303.414765 
L 165.44687 304.896 
L 164.375273 305.769117 
L 162.142583 307.584 
" style="fill:none;stroke:#00db92;stroke-width:1.5;"/>
   </g>
   <g id="LineCollection_3">
    <path clip-path="url(#pef2d79d00c)" d="M 343.296 185.149449 
L 341.816026 186.624 
L 340.410182 188.022529 
L 339.112086 189.312 
L 337.524364 190.886741 
L 336.400298 192 
L 334.638545 193.742126 
L 333.680626 194.688 
L 331.752727 196.588726 
L 330.953036 197.376 
L 328.866909 199.426581 
L 328.217495 200.064 
L 325.981091 202.25573 
L 325.473966 202.752 
L 323.095273 205.076214 
L 322.722416 205.44 
L 320.209455 207.888073 
L 319.962808 208.128 
L 317.323636 210.691347 
L 317.195107 210.816 
L 314.437818 213.486073 
L 314.419279 213.504 
L 311.633723 216.192 
L 311.552 216.270734 
L 308.839769 218.88 
L 308.666182 219.046748 
L 306.037728 221.568 
L 305.780364 221.8145 
L 303.227565 224.256 
L 302.894545 224.574027 
L 300.409244 226.944 
L 300.008727 227.325365 
L 297.582732 229.632 
L 297.122909 230.068551 
L 294.74799 232.32 
L 294.237091 232.803621 
L 291.904984 235.008 
L 291.351273 235.530612 
L 289.053677 237.696 
L 288.465455 238.249558 
L 286.194033 240.384 
L 285.579636 240.960495 
L 283.326015 243.072 
L 282.693818 243.663459 
L 280.449587 245.76 
L 279.808 246.358485 
L 277.564711 248.448 
L 276.922182 249.045607 
L 274.67135 251.136 
L 274.036364 251.724861 
L 271.769466 253.824 
L 271.150545 254.396281 
L 268.859023 256.512 
L 268.264727 257.059901 
L 265.939981 259.2 
L 265.378909 259.715755 
L 263.012303 261.888 
L 262.493091 262.363878 
L 260.075951 264.576 
L 259.607273 265.004302 
L 257.130885 267.264 
L 256.721455 267.637062 
L 254.177068 269.952 
L 253.835636 270.262191 
L 251.214459 272.64 
L 250.949818 272.879722 
L 248.24302 275.328 
L 248.064 275.489688 
L 245.26271 278.016 
L 245.178182 278.092121 
L 242.292364 280.686731 
L 242.273118 280.704 
L 239.406545 283.272282 
L 239.272718 283.392 
L 236.520727 285.850261 
L 236.263144 286.08 
L 233.634909 288.420702 
L 233.244351 288.768 
L 230.749091 290.983638 
L 230.216299 291.456 
L 227.863273 293.539102 
L 227.178944 294.144 
L 224.977455 296.087127 
L 224.132243 296.832 
L 222.091636 298.627744 
L 221.076153 299.52 
L 219.205818 301.160987 
L 218.010631 302.208 
L 216.32 303.686887 
L 214.935632 304.896 
L 213.434182 306.205476 
L 211.851114 307.584 
" style="fill:none;stroke:#00b6a4;stroke-width:1.5;"/>
    <path clip-path="url(#pef2d79d00c)" d="M 57.6 163.906551 
L 59.079974 162.432 
L 60.485818 161.033471 
L 61.783914 159.744 
L 63.371636 158.169259 
L 64.495702 157.056 
L 66.257455 155.313874 
L 67.215374 154.368 
L 69.143273 152.467274 
L 69.942964 151.68 
L 72.029091 149.629419 
L 72.678505 148.992 
L 74.914909 146.80027 
L 75.422034 146.304 
L 77.800727 143.979786 
L 78.173584 143.616 
L 80.686545 141.167927 
L 80.933192 140.928 
L 83.572364 138.364653 
L 83.700893 138.24 
L 86.458182 135.569927 
L 86.476721 135.552 
L 89.262277 132.864 
L 89.344 132.785266 
L 92.056231 130.176 
L 92.229818 130.009252 
L 94.858272 127.488 
L 95.115636 127.2415 
L 97.668435 124.8 
L 98.001455 124.481973 
L 100.486756 122.112 
L 100.887273 121.730635 
L 103.313268 119.424 
L 103.773091 118.987449 
L 106.14801 116.736 
L 106.658909 116.252379 
L 108.991016 114.048 
L 109.544727 113.525388 
L 111.842323 111.36 
L 112.430545 110.806442 
L 114.701967 108.672 
L 115.316364 108.095505 
L 117.569985 105.984 
L 118.202182 105.392541 
L 120.446413 103.296 
L 121.088 102.697515 
L 123.331289 100.608 
L 123.973818 100.010393 
L 126.22465 97.92 
L 126.859636 97.331139 
L 129.126534 95.232 
L 129.745455 94.659719 
L 132.036977 92.544 
L 132.631273 91.996099 
L 134.956019 89.856 
L 135.517091 89.340245 
L 137.883697 87.168 
L 138.402909 86.692122 
L 140.820049 84.48 
L 141.288727 84.051698 
L 143.765115 81.792 
L 144.174545 81.418938 
L 146.718932 79.104 
L 147.060364 78.793809 
L 149.681541 76.416 
L 149.946182 76.176278 
L 152.65298 73.728 
L 152.832 73.566312 
L 155.63329 71.04 
L 155.717818 70.963879 
L 158.603636 68.369269 
L 158.622882 68.352 
L 161.489455 65.783718 
L 161.623282 65.664 
L 164.375273 63.205739 
L 164.632856 62.976 
L 167.261091 60.635298 
L 167.651649 60.288 
L 170.146909 58.072362 
L 170.679701 57.6 
L 173.032727 55.516898 
L 173.717056 54.912 
L 175.918545 52.968873 
L 176.763757 52.224 
L 178.804364 50.428256 
L 179.819847 49.536 
L 181.690182 47.895013 
L 182.885369 46.848 
L 184.576 45.369113 
L 185.960368 44.16 
L 187.461818 42.850524 
L 189.044886 41.472 
" style="fill:none;stroke:#00b6a4;stroke-width:1.5;"/>
   </g>
   <g id="LineCollection_4">
    <path clip-path="url(#pef2d79d00c)" d="M 343.296 219.104481 
L 340.751105 221.568 
L 340.410182 221.897618 
L 337.968024 224.256 
L 337.524364 224.683917 
L 335.178356 226.944 
L 334.638545 227.463403 
L 332.382077 229.632 
L 331.752727 230.236103 
L 329.579164 232.32 
L 328.866909 233.002039 
L 326.769593 235.008 
L 325.981091 235.761238 
L 323.95334 237.696 
L 323.095273 238.513723 
L 321.130383 240.384 
L 320.209455 241.259519 
L 318.300696 243.072 
L 317.323636 243.99865 
L 315.464255 245.76 
L 314.437818 246.731142 
L 312.621037 248.448 
L 311.552 249.457017 
L 309.771017 251.136 
L 308.666182 252.1763 
L 306.91417 253.824 
L 305.780364 254.889014 
L 304.050473 256.512 
L 302.894545 257.595185 
L 301.1799 259.2 
L 300.008727 260.294834 
L 298.302427 261.888 
L 297.122909 262.987986 
L 295.418028 264.576 
L 294.237091 265.674663 
L 292.526679 267.264 
L 291.351273 268.354891 
L 289.628354 269.952 
L 288.465455 271.028691 
L 286.723029 272.64 
L 285.579636 273.696086 
L 283.810677 275.328 
L 282.693818 276.3571 
L 280.891274 278.016 
L 279.808 279.011756 
L 277.964793 280.704 
L 276.922182 281.660076 
L 275.031209 283.392 
L 274.036364 284.302083 
L 272.090496 286.08 
L 271.150545 286.9378 
L 269.142629 288.768 
L 268.264727 289.567249 
L 266.18758 291.456 
L 265.378909 292.190451 
L 263.225323 294.144 
L 262.493091 294.807431 
L 260.255833 296.832 
L 259.607273 297.418209 
L 257.279082 299.52 
L 256.721455 300.022807 
L 254.295045 302.208 
L 253.835636 302.621248 
L 251.303693 304.896 
L 250.949818 305.213554 
L 248.305001 307.584 
" style="fill:none;stroke:#0092b6;stroke-width:1.5;"/>
    <path clip-path="url(#pef2d79d00c)" d="M 57.6 129.951519 
L 60.144895 127.488 
L 60.485818 127.158382 
L 62.927976 124.8 
L 63.371636 124.372083 
L 65.717644 122.112 
L 66.257455 121.592597 
L 68.513923 119.424 
L 69.143273 118.819897 
L 71.316836 116.736 
L 72.029091 116.053961 
L 74.126407 114.048 
L 74.914909 113.294762 
L 76.94266 111.36 
L 77.800727 110.542277 
L 79.765617 108.672 
L 80.686545 107.796481 
L 82.595304 105.984 
L 83.572364 105.05735 
L 85.431745 103.296 
L 86.458182 102.324858 
L 88.274963 100.608 
L 89.344 99.598983 
L 91.124983 97.92 
L 92.229818 96.8797 
L 93.98183 95.232 
L 95.115636 94.166986 
L 96.845527 92.544 
L 98.001455 91.460815 
L 99.7161 89.856 
L 100.887273 88.761166 
L 102.593573 87.168 
L 103.773091 86.068014 
L 105.477972 84.48 
L 106.658909 83.381337 
L 108.369321 81.792 
L 109.544727 80.701109 
L 111.267646 79.104 
L 112.430545 78.027309 
L 114.172971 76.416 
L 115.316364 75.359914 
L 117.085323 73.728 
L 118.202182 72.6989 
L 120.004726 71.04 
L 121.088 70.044244 
L 122.931207 68.352 
L 123.973818 67.395924 
L 125.864791 65.664 
L 126.859636 64.753917 
L 128.805504 62.976 
L 129.745455 62.1182 
L 131.753371 60.288 
L 132.631273 59.488751 
L 134.70842 57.6 
L 135.517091 56.865549 
L 137.670677 54.912 
L 138.402909 54.248569 
L 140.640167 52.224 
L 141.288727 51.637791 
L 143.616918 49.536 
L 144.174545 49.033193 
L 146.600955 46.848 
L 147.060364 46.434752 
L 149.592307 44.16 
L 149.946182 43.842446 
L 152.590999 41.472 
" style="fill:none;stroke:#0092b6;stroke-width:1.5;"/>
   </g>
   <g id="LineCollection_5">
    <path clip-path="url(#pef2d79d00c)" d="M 343.296 247.243378 
L 342.032149 248.448 
L 340.410182 249.992321 
L 339.207758 251.136 
L 337.524364 252.735459 
L 336.377513 253.824 
L 334.638545 255.47281 
L 333.541396 256.512 
L 331.752727 258.204392 
L 330.699389 259.2 
L 328.866909 260.930223 
L 327.851473 261.888 
L 325.981091 263.650322 
L 324.99763 264.576 
L 323.095273 266.364706 
L 322.137842 267.264 
L 320.209455 269.073393 
L 319.27209 269.952 
L 317.323636 271.776403 
L 316.400355 272.64 
L 314.437818 274.473751 
L 313.522619 275.328 
L 311.552 277.165456 
L 310.638862 278.016 
L 308.666182 279.851536 
L 307.749066 280.704 
L 305.780364 282.532008 
L 304.853211 283.392 
L 302.894545 285.206891 
L 301.95128 286.08 
L 300.008727 287.8762 
L 299.043251 288.768 
L 297.122909 290.539954 
L 296.129107 291.456 
L 294.237091 293.19817 
L 293.208828 294.144 
L 291.351273 295.850866 
L 290.282395 296.832 
L 288.465455 298.498058 
L 287.349787 299.52 
L 285.579636 301.139764 
L 284.410987 302.208 
L 282.693818 303.776 
L 281.465973 304.896 
L 279.808 306.406784 
L 278.514726 307.584 
" style="fill:none;stroke:#006dc8;stroke-width:1.5;"/>
    <path clip-path="url(#pef2d79d00c)" d="M 57.6 101.812622 
L 58.863851 100.608 
L 60.485818 99.063679 
L 61.688242 97.92 
L 63.371636 96.320541 
L 64.518487 95.232 
L 66.257455 93.58319 
L 67.354604 92.544 
L 69.143273 90.851608 
L 70.196611 89.856 
L 72.029091 88.125777 
L 73.044527 87.168 
L 74.914909 85.405678 
L 75.89837 84.48 
L 77.800727 82.691294 
L 78.758158 81.792 
L 80.686545 79.982607 
L 81.62391 79.104 
L 83.572364 77.279597 
L 84.495645 76.416 
L 86.458182 74.582249 
L 87.373381 73.728 
L 89.344 71.890544 
L 90.257138 71.04 
L 92.229818 69.204464 
L 93.146934 68.352 
L 95.115636 66.523992 
L 96.042789 65.664 
L 98.001455 63.849109 
L 98.94472 62.976 
L 100.887273 61.1798 
L 101.852749 60.288 
L 103.773091 58.516046 
L 104.766893 57.6 
L 106.658909 55.85783 
L 107.687172 54.912 
L 109.544727 53.205134 
L 110.613605 52.224 
L 112.430545 50.557942 
L 113.546213 49.536 
L 115.316364 47.916236 
L 116.485013 46.848 
L 118.202182 45.28 
L 119.430027 44.16 
L 121.088 42.649216 
L 122.381274 41.472 
" style="fill:none;stroke:#006dc8;stroke-width:1.5;"/>
   </g>
   <g id="LineCollection_6">
    <path clip-path="url(#pef2d79d00c)" d="M 343.296 271.817243 
L 342.423376 272.64 
L 340.410182 274.536361 
L 339.568989 275.328 
L 337.524364 277.250368 
L 336.709281 278.016 
L 334.638545 279.959279 
L 333.844239 280.704 
L 331.752727 282.663107 
L 330.973846 283.392 
L 328.866909 285.361867 
L 328.098088 286.08 
L 325.981091 288.055573 
L 325.21695 288.768 
L 323.095273 290.744239 
L 322.330416 291.456 
L 320.209455 293.42788 
L 319.438472 294.144 
L 317.323636 296.10651 
L 316.541102 296.832 
L 314.437818 298.780142 
L 313.638291 299.52 
L 311.552 301.44879 
L 310.730023 302.208 
L 308.666182 304.112469 
L 307.816284 304.896 
L 305.780364 306.771193 
L 304.897057 307.584 
" style="fill:none;stroke:#0049db;stroke-width:1.5;"/>
    <path clip-path="url(#pef2d79d00c)" d="M 57.6 77.238757 
L 58.472624 76.416 
L 60.485818 74.519639 
L 61.327011 73.728 
L 63.371636 71.805632 
L 64.186719 71.04 
L 66.257455 69.096721 
L 67.051761 68.352 
L 69.143273 66.392893 
L 69.922154 65.664 
L 72.029091 63.694133 
L 72.797912 62.976 
L 74.914909 61.000427 
L 75.67905 60.288 
L 77.800727 58.311761 
L 78.565584 57.6 
L 80.686545 55.62812 
L 81.457528 54.912 
L 83.572364 52.94949 
L 84.354898 52.224 
L 86.458182 50.275858 
L 87.257709 49.536 
L 89.344 47.60721 
L 90.165977 46.848 
L 92.229818 44.943531 
L 93.079716 44.16 
L 95.115636 42.284807 
L 95.998943 41.472 
" style="fill:none;stroke:#0049db;stroke-width:1.5;"/>
   </g>
   <g id="LineCollection_7">
    <path clip-path="url(#pef2d79d00c)" d="M 343.296 293.912027 
L 343.048019 294.144 
L 340.410182 296.60944 
L 340.171855 296.832 
L 337.524364 299.302233 
L 337.29077 299.52 
L 334.638545 301.990419 
L 334.404752 302.208 
L 331.752727 304.67401 
L 331.513788 304.896 
L 328.866909 307.353018 
L 328.617865 307.584 
" style="fill:none;stroke:#0024ed;stroke-width:1.5;"/>
    <path clip-path="url(#pef2d79d00c)" d="M 57.6 55.143973 
L 57.847981 54.912 
L 60.485818 52.44656 
L 60.724145 52.224 
L 63.371636 49.753767 
L 63.60523 49.536 
L 66.257455 47.065581 
L 66.491248 46.848 
L 69.143273 44.38199 
L 69.382212 44.16 
L 72.029091 41.702982 
L 72.278135 41.472 
" style="fill:none;stroke:#0024ed;stroke-width:1.5;"/>
   </g>
   <g id="LineCollection_8"/>
   <g id="patch_3">
    <path d="M 57.6 307.584 
L 57.6 41.472 
" style="fill:none;stroke:#000000;stroke-linecap:square;stroke-linejoin:miter;stroke-width:0.8;"/>
   </g>
   <g id="patch_4">
    <path d="M 343.296 307.584 
L 343.296 41.472 
" style="fill:none;stroke:#000000;stroke-linecap:square;stroke-linejoin:miter;stroke-width:0.8;"/>
   </g>
   <g id="patch_5">
    <path d="M 57.6 307.584 
L 343.296 307.584 
" style="fill:none;stroke:#000000;stroke-linecap:square;stroke-linejoin:miter;stroke-width:0.8;"/>
   </g>
   <g id="patch_6">
    <path d="M 57.6 41.472 
L 343.296 41.472 
" style="fill:none;stroke:#000000;stroke-linecap:square;stroke-linejoin:miter;stroke-width:0.8;"/>
   </g>
  </g>
  <g id="axes_2">
   <g id="patch_7">
    <path clip-path="url(#paafb81dfba)" d="M 361.152 307.584 
L 361.152 269.568 
L 361.152 79.488 
L 361.152 41.472 
L 374.4576 41.472 
L 374.4576 79.488 
L 374.4576 269.568 
L 374.4576 307.584 
z
" style="fill:#ffffff;stroke:#ffffff;stroke-linejoin:miter;stroke-width:0.01;"/>
   </g>
   <g id="matplotlib.axis_3"/>
   <g id="matplotlib.axis_4">
    <g id="ytick_10">
     <g id="line2d_19">
      <defs>
       <path d="M 0 0 
L 3.5 0 
" id="mda09f87ded" style="stroke:#000000;stroke-width:0.8;"/>
      </defs>
      <g>
       <use style="stroke:#000000;stroke-width:0.8;" x="374.4576" xlink:href="#mda09f87ded" y="307.584"/>
      </g>
     </g>
     <g id="text_19">
      <!-- 0 -->
      <g transform="translate(381.4576 311.383219)scale(0.1 -0.1)">
       <use xlink:href="#DejaVuSans-48"/>
      </g>
     </g>
    </g>
    <g id="ytick_11">
     <g id="line2d_20">
      <g>
       <use style="stroke:#000000;stroke-width:0.8;" x="374.4576" xlink:href="#mda09f87ded" y="269.568"/>
      </g>
     </g>
     <g id="text_20">
      <!-- 15 -->
      <g transform="translate(381.4576 273.367219)scale(0.1 -0.1)">
       <use xlink:href="#DejaVuSans-49"/>
       <use x="63.623047" xlink:href="#DejaVuSans-53"/>
      </g>
     </g>
    </g>
    <g id="ytick_12">
     <g id="line2d_21">
      <g>
       <use style="stroke:#000000;stroke-width:0.8;" x="374.4576" xlink:href="#mda09f87ded" y="231.552"/>
      </g>
     </g>
     <g id="text_21">
      <!-- 30 -->
      <defs>
       <path d="M 40.578125 39.3125 
Q 47.65625 37.796875 51.625 33 
Q 55.609375 28.21875 55.609375 21.1875 
Q 55.609375 10.40625 48.1875 4.484375 
Q 40.765625 -1.421875 27.09375 -1.421875 
Q 22.515625 -1.421875 17.65625 -0.515625 
Q 12.796875 0.390625 7.625 2.203125 
L 7.625 11.71875 
Q 11.71875 9.328125 16.59375 8.109375 
Q 21.484375 6.890625 26.8125 6.890625 
Q 36.078125 6.890625 40.9375 10.546875 
Q 45.796875 14.203125 45.796875 21.1875 
Q 45.796875 27.640625 41.28125 31.265625 
Q 36.765625 34.90625 28.71875 34.90625 
L 20.21875 34.90625 
L 20.21875 43.015625 
L 29.109375 43.015625 
Q 36.375 43.015625 40.234375 45.921875 
Q 44.09375 48.828125 44.09375 54.296875 
Q 44.09375 59.90625 40.109375 62.90625 
Q 36.140625 65.921875 28.71875 65.921875 
Q 24.65625 65.921875 20.015625 65.03125 
Q 15.375 64.15625 9.8125 62.3125 
L 9.8125 71.09375 
Q 15.4375 72.65625 20.34375 73.4375 
Q 25.25 74.21875 29.59375 74.21875 
Q 40.828125 74.21875 47.359375 69.109375 
Q 53.90625 64.015625 53.90625 55.328125 
Q 53.90625 49.265625 50.4375 45.09375 
Q 46.96875 40.921875 40.578125 39.3125 
z
" id="DejaVuSans-51"/>
      </defs>
      <g transform="translate(381.4576 235.351219)scale(0.1 -0.1)">
       <use xlink:href="#DejaVuSans-51"/>
       <use x="63.623047" xlink:href="#DejaVuSans-48"/>
      </g>
     </g>
    </g>
    <g id="ytick_13">
     <g id="line2d_22">
      <g>
       <use style="stroke:#000000;stroke-width:0.8;" x="374.4576" xlink:href="#mda09f87ded" y="193.536"/>
      </g>
     </g>
     <g id="text_22">
      <!-- 45 -->
      <defs>
       <path d="M 37.796875 64.3125 
L 12.890625 25.390625 
L 37.796875 25.390625 
z
M 35.203125 72.90625 
L 47.609375 72.90625 
L 47.609375 25.390625 
L 58.015625 25.390625 
L 58.015625 17.1875 
L 47.609375 17.1875 
L 47.609375 0 
L 37.796875 0 
L 37.796875 17.1875 
L 4.890625 17.1875 
L 4.890625 26.703125 
z
" id="DejaVuSans-52"/>
      </defs>
      <g transform="translate(381.4576 197.335219)scale(0.1 -0.1)">
       <use xlink:href="#DejaVuSans-52"/>
       <use x="63.623047" xlink:href="#DejaVuSans-53"/>
      </g>
     </g>
    </g>
    <g id="ytick_14">
     <g id="line2d_23">
      <g>
       <use style="stroke:#000000;stroke-width:0.8;" x="374.4576" xlink:href="#mda09f87ded" y="155.52"/>
      </g>
     </g>
     <g id="text_23">
      <!-- 60 -->
      <defs>
       <path d="M 33.015625 40.375 
Q 26.375 40.375 22.484375 35.828125 
Q 18.609375 31.296875 18.609375 23.390625 
Q 18.609375 15.53125 22.484375 10.953125 
Q 26.375 6.390625 33.015625 6.390625 
Q 39.65625 6.390625 43.53125 10.953125 
Q 47.40625 15.53125 47.40625 23.390625 
Q 47.40625 31.296875 43.53125 35.828125 
Q 39.65625 40.375 33.015625 40.375 
z
M 52.59375 71.296875 
L 52.59375 62.3125 
Q 48.875 64.0625 45.09375 64.984375 
Q 41.3125 65.921875 37.59375 65.921875 
Q 27.828125 65.921875 22.671875 59.328125 
Q 17.53125 52.734375 16.796875 39.40625 
Q 19.671875 43.65625 24.015625 45.921875 
Q 28.375 48.1875 33.59375 48.1875 
Q 44.578125 48.1875 50.953125 41.515625 
Q 57.328125 34.859375 57.328125 23.390625 
Q 57.328125 12.15625 50.6875 5.359375 
Q 44.046875 -1.421875 33.015625 -1.421875 
Q 20.359375 -1.421875 13.671875 8.265625 
Q 6.984375 17.96875 6.984375 36.375 
Q 6.984375 53.65625 15.1875 63.9375 
Q 23.390625 74.21875 37.203125 74.21875 
Q 40.921875 74.21875 44.703125 73.484375 
Q 48.484375 72.75 52.59375 71.296875 
z
" id="DejaVuSans-54"/>
      </defs>
      <g transform="translate(381.4576 159.319219)scale(0.1 -0.1)">
       <use xlink:href="#DejaVuSans-54"/>
       <use x="63.623047" xlink:href="#DejaVuSans-48"/>
      </g>
     </g>
    </g>
    <g id="ytick_15">
     <g id="line2d_24">
      <g>
       <use style="stroke:#000000;stroke-width:0.8;" x="374.4576" xlink:href="#mda09f87ded" y="117.504"/>
      </g>
     </g>
     <g id="text_24">
      <!-- 75 -->
      <g transform="translate(381.4576 121.303219)scale(0.1 -0.1)">
       <use xlink:href="#DejaVuSans-55"/>
       <use x="63.623047" xlink:href="#DejaVuSans-53"/>
      </g>
     </g>
    </g>
    <g id="ytick_16">
     <g id="line2d_25">
      <g>
       <use style="stroke:#000000;stroke-width:0.8;" x="374.4576" xlink:href="#mda09f87ded" y="79.488"/>
      </g>
     </g>
     <g id="text_25">
      <!-- 90 -->
      <defs>
       <path d="M 10.984375 1.515625 
L 10.984375 10.5 
Q 14.703125 8.734375 18.5 7.8125 
Q 22.3125 6.890625 25.984375 6.890625 
Q 35.75 6.890625 40.890625 13.453125 
Q 46.046875 20.015625 46.78125 33.40625 
Q 43.953125 29.203125 39.59375 26.953125 
Q 35.25 24.703125 29.984375 24.703125 
Q 19.046875 24.703125 12.671875 31.3125 
Q 6.296875 37.9375 6.296875 49.421875 
Q 6.296875 60.640625 12.9375 67.421875 
Q 19.578125 74.21875 30.609375 74.21875 
Q 43.265625 74.21875 49.921875 64.515625 
Q 56.59375 54.828125 56.59375 36.375 
Q 56.59375 19.140625 48.40625 8.859375 
Q 40.234375 -1.421875 26.421875 -1.421875 
Q 22.703125 -1.421875 18.890625 -0.6875 
Q 15.09375 0.046875 10.984375 1.515625 
z
M 30.609375 32.421875 
Q 37.25 32.421875 41.125 36.953125 
Q 45.015625 41.5 45.015625 49.421875 
Q 45.015625 57.28125 41.125 61.84375 
Q 37.25 66.40625 30.609375 66.40625 
Q 23.96875 66.40625 20.09375 61.84375 
Q 16.21875 57.28125 16.21875 49.421875 
Q 16.21875 41.5 20.09375 36.953125 
Q 23.96875 32.421875 30.609375 32.421875 
z
" id="DejaVuSans-57"/>
      </defs>
      <g transform="translate(381.4576 83.287219)scale(0.1 -0.1)">
       <use xlink:href="#DejaVuSans-57"/>
       <use x="63.623047" xlink:href="#DejaVuSans-48"/>
      </g>
     </g>
    </g>
    <g id="ytick_17">
     <g id="line2d_26">
      <g>
       <use style="stroke:#000000;stroke-width:0.8;" x="374.4576" xlink:href="#mda09f87ded" y="41.472"/>
      </g>
     </g>
     <g id="text_26">
      <!-- 105 -->
      <g transform="translate(381.4576 45.271219)scale(0.1 -0.1)">
       <use xlink:href="#DejaVuSans-49"/>
       <use x="63.623047" xlink:href="#DejaVuSans-48"/>
       <use x="127.246094" xlink:href="#DejaVuSans-53"/>
      </g>
     </g>
    </g>
   </g>
   <g id="LineCollection_9">
    <path clip-path="url(#paafb81dfba)" d="M 361.152 307.584 
L 374.4576 307.584 
" style="fill:none;stroke:#00ff80;stroke-width:1.5;"/>
    <path clip-path="url(#paafb81dfba)" d="M 361.152 269.568 
L 374.4576 269.568 
" style="fill:none;stroke:#00db92;stroke-width:1.5;"/>
    <path clip-path="url(#paafb81dfba)" d="M 361.152 231.552 
L 374.4576 231.552 
" style="fill:none;stroke:#00b6a4;stroke-width:1.5;"/>
    <path clip-path="url(#paafb81dfba)" d="M 361.152 193.536 
L 374.4576 193.536 
" style="fill:none;stroke:#0092b6;stroke-width:1.5;"/>
    <path clip-path="url(#paafb81dfba)" d="M 361.152 155.52 
L 374.4576 155.52 
" style="fill:none;stroke:#006dc8;stroke-width:1.5;"/>
    <path clip-path="url(#paafb81dfba)" d="M 361.152 117.504 
L 374.4576 117.504 
" style="fill:none;stroke:#0049db;stroke-width:1.5;"/>
    <path clip-path="url(#paafb81dfba)" d="M 361.152 79.488 
L 374.4576 79.488 
" style="fill:none;stroke:#0024ed;stroke-width:1.5;"/>
    <path clip-path="url(#paafb81dfba)" d="M 361.152 41.472 
L 374.4576 41.472 
" style="fill:none;stroke:#0000ff;stroke-width:1.5;"/>
   </g>
   <g id="patch_8">
    <path d="M 361.152 307.584 
L 361.152 269.568 
L 361.152 79.488 
L 361.152 41.472 
L 374.4576 41.472 
L 374.4576 79.488 
L 374.4576 269.568 
L 374.4576 307.584 
z
" style="fill:none;stroke:#000000;stroke-linejoin:miter;stroke-width:0.8;"/>
   </g>
  </g>
 </g>
 <defs>
  <clipPath id="pef2d79d00c">
   <rect height="266.112" width="285.696" x="57.6" y="41.472"/>
  </clipPath>
  <clipPath id="paafb81dfba">
   <rect height="266.112" width="13.3056" x="361.152" y="41.472"/>
  </clipPath>
 </defs>
</svg>
