<?xml version="1.0" encoding="utf-8" standalone="no"?>
<!DOCTYPE svg PUBLIC "-//W3C//DTD SVG 1.1//EN"
  "http://www.w3.org/Graphics/SVG/1.1/DTD/svg11.dtd">
<!-- Created with matplotlib (https://matplotlib.org/) -->
<svg height="345.6pt" version="1.1" viewBox="0 0 460.8 345.6" width="460.8pt" xmlns="http://www.w3.org/2000/svg" xmlns:xlink="http://www.w3.org/1999/xlink">
 <defs>
  <style type="text/css">
*{stroke-linecap:butt;stroke-linejoin:round;}
  </style>
 </defs>
 <g id="figure_1">
  <g id="patch_1">
   <path d="M 0 345.6 
L 460.8 345.6 
L 460.8 0 
L 0 0 
z
" style="fill:#ffffff;"/>
  </g>
  <g id="axes_1">
   <g id="patch_2">
    <path d="M 57.6 307.584 
L 343.296 307.584 
L 343.296 41.472 
L 57.6 41.472 
z
" style="fill:#ffffff;"/>
   </g>
   <g id="matplotlib.axis_1">
    <g id="xtick_1">
     <g id="line2d_1">
      <defs>
       <path d="M 0 0 
L 0 3.5 
" id="mb80de66b55" style="stroke:#000000;stroke-width:0.8;"/>
      </defs>
      <g>
       <use style="stroke:#000000;stroke-width:0.8;" x="57.6" xlink:href="#mb80de66b55" y="307.584"/>
      </g>
     </g>
     <g id="text_1">
      <!-- −2 -->
      <defs>
       <path d="M 10.59375 35.5 
L 73.1875 35.5 
L 73.1875 27.203125 
L 10.59375 27.203125 
z
" id="DejaVuSans-8722"/>
       <path d="M 19.1875 8.296875 
L 53.609375 8.296875 
L 53.609375 0 
L 7.328125 0 
L 7.328125 8.296875 
Q 12.9375 14.109375 22.625 23.890625 
Q 32.328125 33.6875 34.8125 36.53125 
Q 39.546875 41.84375 41.421875 45.53125 
Q 43.3125 49.21875 43.3125 52.78125 
Q 43.3125 58.59375 39.234375 62.25 
Q 35.15625 65.921875 28.609375 65.921875 
Q 23.96875 65.921875 18.8125 64.3125 
Q 13.671875 62.703125 7.8125 59.421875 
L 7.8125 69.390625 
Q 13.765625 71.78125 18.9375 73 
Q 24.125 74.21875 28.421875 74.21875 
Q 39.75 74.21875 46.484375 68.546875 
Q 53.21875 62.890625 53.21875 53.421875 
Q 53.21875 48.921875 51.53125 44.890625 
Q 49.859375 40.875 45.40625 35.40625 
Q 44.1875 33.984375 37.640625 27.21875 
Q 31.109375 20.453125 19.1875 8.296875 
z
" id="DejaVuSans-50"/>
      </defs>
      <g transform="translate(50.228906 322.182437)scale(0.1 -0.1)">
       <use xlink:href="#DejaVuSans-8722"/>
       <use x="83.789062" xlink:href="#DejaVuSans-50"/>
      </g>
     </g>
    </g>
    <g id="xtick_2">
     <g id="line2d_2">
      <g>
       <use style="stroke:#000000;stroke-width:0.8;" x="105.216" xlink:href="#mb80de66b55" y="307.584"/>
      </g>
     </g>
     <g id="text_2">
      <!-- −1 -->
      <defs>
       <path d="M 12.40625 8.296875 
L 28.515625 8.296875 
L 28.515625 63.921875 
L 10.984375 60.40625 
L 10.984375 69.390625 
L 28.421875 72.90625 
L 38.28125 72.90625 
L 38.28125 8.296875 
L 54.390625 8.296875 
L 54.390625 0 
L 12.40625 0 
z
" id="DejaVuSans-49"/>
      </defs>
      <g transform="translate(97.844906 322.182437)scale(0.1 -0.1)">
       <use xlink:href="#DejaVuSans-8722"/>
       <use x="83.789062" xlink:href="#DejaVuSans-49"/>
      </g>
     </g>
    </g>
    <g id="xtick_3">
     <g id="line2d_3">
      <g>
       <use style="stroke:#000000;stroke-width:0.8;" x="152.832" xlink:href="#mb80de66b55" y="307.584"/>
      </g>
     </g>
     <g id="text_3">
      <!-- 0 -->
      <defs>
       <path d="M 31.78125 66.40625 
Q 24.171875 66.40625 20.328125 58.90625 
Q 16.5 51.421875 16.5 36.375 
Q 16.5 21.390625 20.328125 13.890625 
Q 24.171875 6.390625 31.78125 6.390625 
Q 39.453125 6.390625 43.28125 13.890625 
Q 47.125 21.390625 47.125 36.375 
Q 47.125 51.421875 43.28125 58.90625 
Q 39.453125 66.40625 31.78125 66.40625 
z
M 31.78125 74.21875 
Q 44.046875 74.21875 50.515625 64.515625 
Q 56.984375 54.828125 56.984375 36.375 
Q 56.984375 17.96875 50.515625 8.265625 
Q 44.046875 -1.421875 31.78125 -1.421875 
Q 19.53125 -1.421875 13.0625 8.265625 
Q 6.59375 17.96875 6.59375 36.375 
Q 6.59375 54.828125 13.0625 64.515625 
Q 19.53125 74.21875 31.78125 74.21875 
z
" id="DejaVuSans-48"/>
      </defs>
      <g transform="translate(149.65075 322.182437)scale(0.1 -0.1)">
       <use xlink:href="#DejaVuSans-48"/>
      </g>
     </g>
    </g>
    <g id="xtick_4">
     <g id="line2d_4">
      <g>
       <use style="stroke:#000000;stroke-width:0.8;" x="200.448" xlink:href="#mb80de66b55" y="307.584"/>
      </g>
     </g>
     <g id="text_4">
      <!-- 1 -->
      <g transform="translate(197.26675 322.182437)scale(0.1 -0.1)">
       <use xlink:href="#DejaVuSans-49"/>
      </g>
     </g>
    </g>
    <g id="xtick_5">
     <g id="line2d_5">
      <g>
       <use style="stroke:#000000;stroke-width:0.8;" x="248.064" xlink:href="#mb80de66b55" y="307.584"/>
      </g>
     </g>
     <g id="text_5">
      <!-- 2 -->
      <g transform="translate(244.88275 322.182437)scale(0.1 -0.1)">
       <use xlink:href="#DejaVuSans-50"/>
      </g>
     </g>
    </g>
    <g id="xtick_6">
     <g id="line2d_6">
      <g>
       <use style="stroke:#000000;stroke-width:0.8;" x="295.68" xlink:href="#mb80de66b55" y="307.584"/>
      </g>
     </g>
     <g id="text_6">
      <!-- 3 -->
      <defs>
       <path d="M 40.578125 39.3125 
Q 47.65625 37.796875 51.625 33 
Q 55.609375 28.21875 55.609375 21.1875 
Q 55.609375 10.40625 48.1875 4.484375 
Q 40.765625 -1.421875 27.09375 -1.421875 
Q 22.515625 -1.421875 17.65625 -0.515625 
Q 12.796875 0.390625 7.625 2.203125 
L 7.625 11.71875 
Q 11.71875 9.328125 16.59375 8.109375 
Q 21.484375 6.890625 26.8125 6.890625 
Q 36.078125 6.890625 40.9375 10.546875 
Q 45.796875 14.203125 45.796875 21.1875 
Q 45.796875 27.640625 41.28125 31.265625 
Q 36.765625 34.90625 28.71875 34.90625 
L 20.21875 34.90625 
L 20.21875 43.015625 
L 29.109375 43.015625 
Q 36.375 43.015625 40.234375 45.921875 
Q 44.09375 48.828125 44.09375 54.296875 
Q 44.09375 59.90625 40.109375 62.90625 
Q 36.140625 65.921875 28.71875 65.921875 
Q 24.65625 65.921875 20.015625 65.03125 
Q 15.375 64.15625 9.8125 62.3125 
L 9.8125 71.09375 
Q 15.4375 72.65625 20.34375 73.4375 
Q 25.25 74.21875 29.59375 74.21875 
Q 40.828125 74.21875 47.359375 69.109375 
Q 53.90625 64.015625 53.90625 55.328125 
Q 53.90625 49.265625 50.4375 45.09375 
Q 46.96875 40.921875 40.578125 39.3125 
z
" id="DejaVuSans-51"/>
      </defs>
      <g transform="translate(292.49875 322.182437)scale(0.1 -0.1)">
       <use xlink:href="#DejaVuSans-51"/>
      </g>
     </g>
    </g>
    <g id="xtick_7">
     <g id="line2d_7">
      <g>
       <use style="stroke:#000000;stroke-width:0.8;" x="343.296" xlink:href="#mb80de66b55" y="307.584"/>
      </g>
     </g>
     <g id="text_7">
      <!-- 4 -->
      <defs>
       <path d="M 37.796875 64.3125 
L 12.890625 25.390625 
L 37.796875 25.390625 
z
M 35.203125 72.90625 
L 47.609375 72.90625 
L 47.609375 25.390625 
L 58.015625 25.390625 
L 58.015625 17.1875 
L 47.609375 17.1875 
L 47.609375 0 
L 37.796875 0 
L 37.796875 17.1875 
L 4.890625 17.1875 
L 4.890625 26.703125 
z
" id="DejaVuSans-52"/>
      </defs>
      <g transform="translate(340.11475 322.182437)scale(0.1 -0.1)">
       <use xlink:href="#DejaVuSans-52"/>
      </g>
     </g>
    </g>
   </g>
   <g id="matplotlib.axis_2">
    <g id="ytick_1">
     <g id="line2d_8">
      <defs>
       <path d="M 0 0 
L -3.5 0 
" id="m951148e223" style="stroke:#000000;stroke-width:0.8;"/>
      </defs>
      <g>
       <use style="stroke:#000000;stroke-width:0.8;" x="57.6" xlink:href="#m951148e223" y="307.584"/>
      </g>
     </g>
     <g id="text_8">
      <!-- −3 -->
      <g transform="translate(35.857813 311.383219)scale(0.1 -0.1)">
       <use xlink:href="#DejaVuSans-8722"/>
       <use x="83.789062" xlink:href="#DejaVuSans-51"/>
      </g>
     </g>
    </g>
    <g id="ytick_2">
     <g id="line2d_9">
      <g>
       <use style="stroke:#000000;stroke-width:0.8;" x="57.6" xlink:href="#m951148e223" y="263.232"/>
      </g>
     </g>
     <g id="text_9">
      <!-- −2 -->
      <g transform="translate(35.857813 267.031219)scale(0.1 -0.1)">
       <use xlink:href="#DejaVuSans-8722"/>
       <use x="83.789062" xlink:href="#DejaVuSans-50"/>
      </g>
     </g>
    </g>
    <g id="ytick_3">
     <g id="line2d_10">
      <g>
       <use style="stroke:#000000;stroke-width:0.8;" x="57.6" xlink:href="#m951148e223" y="218.88"/>
      </g>
     </g>
     <g id="text_10">
      <!-- −1 -->
      <g transform="translate(35.857813 222.679219)scale(0.1 -0.1)">
       <use xlink:href="#DejaVuSans-8722"/>
       <use x="83.789062" xlink:href="#DejaVuSans-49"/>
      </g>
     </g>
    </g>
    <g id="ytick_4">
     <g id="line2d_11">
      <g>
       <use style="stroke:#000000;stroke-width:0.8;" x="57.6" xlink:href="#m951148e223" y="174.528"/>
      </g>
     </g>
     <g id="text_11">
      <!-- 0 -->
      <g transform="translate(44.2375 178.327219)scale(0.1 -0.1)">
       <use xlink:href="#DejaVuSans-48"/>
      </g>
     </g>
    </g>
    <g id="ytick_5">
     <g id="line2d_12">
      <g>
       <use style="stroke:#000000;stroke-width:0.8;" x="57.6" xlink:href="#m951148e223" y="130.176"/>
      </g>
     </g>
     <g id="text_12">
      <!-- 1 -->
      <g transform="translate(44.2375 133.975219)scale(0.1 -0.1)">
       <use xlink:href="#DejaVuSans-49"/>
      </g>
     </g>
    </g>
    <g id="ytick_6">
     <g id="line2d_13">
      <g>
       <use style="stroke:#000000;stroke-width:0.8;" x="57.6" xlink:href="#m951148e223" y="85.824"/>
      </g>
     </g>
     <g id="text_13">
      <!-- 2 -->
      <g transform="translate(44.2375 89.623219)scale(0.1 -0.1)">
       <use xlink:href="#DejaVuSans-50"/>
      </g>
     </g>
    </g>
    <g id="ytick_7">
     <g id="line2d_14">
      <g>
       <use style="stroke:#000000;stroke-width:0.8;" x="57.6" xlink:href="#m951148e223" y="41.472"/>
      </g>
     </g>
     <g id="text_14">
      <!-- 3 -->
      <g transform="translate(44.2375 45.271219)scale(0.1 -0.1)">
       <use xlink:href="#DejaVuSans-51"/>
      </g>
     </g>
    </g>
   </g>
   <g id="LineCollection_1"/>
   <g id="LineCollection_2">
    <path clip-path="url(#p6b16977c08)" d="M 57.6 257.646585 
L 60.763524 253.824 
L 64.896339 248.448 
L 72.029091 238.564015 
L 76.573612 232.32 
L 80.686545 226.928358 
L 85.137295 221.568 
L 89.344 216.939159 
L 92.770706 213.504 
L 95.685657 210.816 
L 98.85201 208.128 
L 102.319886 205.44 
L 106.658909 202.412981 
L 110.478935 200.064 
L 115.427722 197.376 
L 121.35983 194.688 
L 126.859636 192.658192 
L 129.745455 191.748788 
L 135.517091 190.283799 
L 141.288727 189.231035 
L 147.060364 188.648756 
L 149.946182 188.532009 
L 152.832 188.542491 
L 155.717818 188.690969 
L 158.603636 188.990935 
L 161.489455 189.467432 
L 164.375273 190.162774 
L 167.261091 191.090063 
L 170.146909 192.307322 
L 173.032727 193.931344 
L 174.143895 194.688 
L 175.918545 196.084199 
L 177.305414 197.376 
L 179.616704 200.064 
L 181.690182 203.372174 
L 182.667084 205.44 
L 183.662615 208.128 
L 184.576 211.636778 
L 184.920694 213.504 
L 185.242734 216.192 
L 185.40214 218.88 
L 185.413393 221.568 
L 185.288054 224.256 
L 185.035401 226.944 
L 184.576 230.102014 
L 184.156866 232.32 
L 182.799125 237.696 
L 181.690182 241.14193 
L 179.889253 245.76 
L 178.687839 248.448 
L 175.860059 253.824 
L 172.444697 259.2 
L 170.146909 262.364463 
L 167.261091 265.92959 
L 163.62459 269.952 
L 160.942908 272.64 
L 158.043063 275.328 
L 152.832 279.705499 
L 147.977449 283.392 
L 144.174545 286.091638 
L 135.994953 291.456 
L 126.859636 297.154057 
L 118.202182 302.678358 
L 112.430545 306.683276 
L 111.212463 307.584 
L 111.212463 307.584 
" style="fill:none;stroke:#00e38e;stroke-width:1.5;"/>
   </g>
   <g id="LineCollection_3">
    <path clip-path="url(#p6b16977c08)" d="M 57.6 191.252069 
L 59.537126 189.312 
L 60.485818 188.378483 
L 62.300442 186.624 
L 63.371636 185.607878 
L 65.168831 183.936 
L 66.257455 182.943491 
L 68.157038 181.248 
L 69.143273 180.38591 
L 71.280174 178.56 
L 72.029091 177.933526 
L 74.553412 175.872 
L 74.914909 175.582993 
L 77.800727 173.334384 
L 77.999087 173.184 
L 80.686545 171.189258 
L 81.645657 170.496 
L 83.572364 169.13156 
L 85.49183 167.808 
L 86.458182 167.154509 
L 89.344 165.255244 
L 89.555882 165.12 
L 92.229818 163.443569 
L 93.885551 162.432 
L 95.115636 161.692697 
L 98.001455 160.003216 
L 98.457539 159.744 
L 100.887273 158.382317 
L 103.306497 157.056 
L 103.773091 156.803269 
L 106.658909 155.282882 
L 108.431725 154.368 
L 109.544727 153.798853 
L 112.430545 152.355446 
L 113.807801 151.68 
L 115.316364 150.944514 
L 118.202182 149.560338 
L 119.407107 148.992 
L 121.088 148.201079 
L 123.973818 146.857391 
L 125.176595 146.304 
L 126.859636 145.528681 
L 129.745455 144.205622 
L 131.03865 143.616 
L 132.631273 142.886189 
L 135.517091 141.562445 
L 136.897817 140.928 
L 138.402909 140.230215 
L 141.288727 138.882479 
L 142.652559 138.24 
L 144.174545 137.513765 
L 147.060364 136.115993 
L 148.208903 135.552 
L 149.946182 134.684545 
L 152.832 133.207 
L 153.491848 132.864 
L 155.717818 131.682986 
L 158.454913 130.176 
L 158.603636 130.092255 
L 161.489455 128.440044 
L 163.09054 127.488 
L 164.375273 126.704111 
L 167.261091 124.874967 
L 167.376705 124.8 
L 170.146909 122.951418 
L 171.355445 122.112 
L 173.032727 120.911817 
L 175.033494 119.424 
L 175.918545 118.745526 
L 178.445968 116.736 
L 178.804364 116.442174 
L 181.626568 114.048 
L 181.690182 113.992368 
L 184.576 111.389154 
L 184.607359 111.36 
L 187.415329 108.672 
L 187.461818 108.626243 
L 190.078348 105.984 
L 190.347636 105.704783 
L 192.619195 103.296 
L 193.233455 102.628839 
L 195.058806 100.608 
L 196.119273 99.409135 
L 197.415968 97.92 
L 199.005091 96.063057 
L 199.707648 95.232 
L 201.890909 92.614671 
L 201.94935 92.544 
L 204.172204 89.856 
L 204.776727 89.120865 
L 206.377477 87.168 
L 207.662545 85.597248 
L 208.576854 84.48 
L 210.548364 82.077308 
L 210.783358 81.792 
L 213.023869 79.104 
L 213.434182 78.617442 
L 215.306944 76.416 
L 216.32 75.240579 
L 217.639461 73.728 
L 219.205818 71.962162 
L 220.036442 71.04 
L 222.091636 68.803436 
L 222.514216 68.352 
L 224.977455 65.779739 
L 225.090708 65.664 
L 227.78896 62.976 
L 227.863273 62.903861 
L 230.626655 60.288 
L 230.749091 60.175138 
L 233.621272 57.6 
L 233.634909 57.588105 
L 236.520727 55.149253 
L 236.810684 54.912 
L 239.406545 52.848331 
L 240.219274 52.224 
L 242.292364 50.676363 
L 243.875853 49.536 
L 245.178182 48.623968 
L 247.810402 46.848 
L 248.064 46.681446 
L 250.949818 44.866614 
L 252.120554 44.16 
L 253.835636 43.150919 
L 256.721455 41.519966 
L 256.810714 41.472 
" style="fill:none;stroke:#00c79c;stroke-width:1.5;"/>
    <path clip-path="url(#p6b16977c08)" d="M 343.296 122.028859 
L 343.244504 122.112 
L 341.493524 124.8 
L 340.410182 126.397516 
L 339.651566 127.488 
L 337.703175 130.176 
L 337.524364 130.412214 
L 335.617696 132.864 
L 334.638545 134.077057 
L 333.414259 135.552 
L 331.752727 137.482983 
L 331.08245 138.24 
L 328.866909 140.657919 
L 328.612195 140.928 
L 325.993861 143.616 
L 325.981091 143.628702 
L 323.216441 146.304 
L 323.095273 146.418043 
L 320.286902 148.992 
L 320.209455 149.061219 
L 317.323636 151.57451 
L 317.199379 151.68 
L 314.437818 153.974387 
L 313.953159 154.368 
L 311.552 156.282314 
L 310.561973 157.056 
L 308.666182 158.514986 
L 307.042288 159.744 
L 305.780364 160.687612 
L 303.416911 162.432 
L 302.894545 162.814187 
L 300.008727 164.901114 
L 299.702422 165.12 
L 297.122909 166.956366 
L 295.923439 167.808 
L 294.237091 169.004979 
L 292.140508 170.496 
L 291.351273 171.059084 
L 288.465455 173.129565 
L 288.389583 173.184 
L 285.579636 175.217602 
L 284.687419 175.872 
L 282.693818 177.352191 
L 281.095093 178.56 
L 279.808 179.547773 
L 277.638441 181.248 
L 276.922182 181.820153 
L 274.336129 183.936 
L 274.036364 184.186829 
L 271.19967 186.624 
L 271.150545 186.667302 
L 268.264727 189.28279 
L 268.233428 189.312 
L 265.438635 192 
L 265.378909 192.059253 
L 262.808541 194.688 
L 262.493091 195.021828 
L 260.335677 197.376 
L 259.607273 198.200382 
L 258.009962 200.064 
L 256.721455 201.626308 
L 255.820262 202.752 
L 253.835636 205.332311 
L 253.755152 205.44 
L 251.791396 208.128 
L 250.949818 209.324667 
L 249.927711 210.816 
L 248.153909 213.504 
L 248.064 213.642528 
L 246.44611 216.192 
L 245.178182 218.265384 
L 244.809939 218.88 
L 243.223657 221.568 
L 242.292364 223.186191 
L 241.686865 224.256 
L 240.186227 226.944 
L 239.406545 228.361656 
L 238.716784 229.632 
L 237.269864 232.32 
L 236.520727 233.72192 
L 235.839592 235.008 
L 234.418429 237.696 
L 233.634909 239.179451 
L 233.001895 240.384 
L 231.581468 243.072 
L 230.749091 244.639672 
L 230.154974 245.76 
L 228.7124 248.448 
L 227.863273 250.01367 
L 227.253109 251.136 
L 225.767067 253.824 
L 224.977455 255.229153 
L 224.2523 256.512 
L 222.702669 259.2 
L 222.091636 260.236708 
L 221.109425 261.888 
L 219.477148 264.576 
L 219.205818 265.010609 
L 217.781893 267.264 
L 216.32 269.52718 
L 216.041707 269.952 
L 214.227892 272.64 
L 213.434182 273.785765 
L 212.348168 275.328 
L 210.548364 277.818642 
L 210.403167 278.016 
L 208.364128 280.704 
L 207.662545 281.60411 
L 206.241581 283.392 
L 204.776727 285.186634 
L 204.032451 286.08 
L 201.890909 288.583238 
L 201.729458 288.768 
L 199.315367 291.456 
L 199.005091 291.792717 
L 196.791851 294.144 
L 196.119273 294.84158 
L 194.158988 296.832 
L 193.233455 297.75063 
L 191.413188 299.52 
L 190.347636 300.534 
L 188.552719 302.208 
L 187.461818 303.205766 
L 185.578217 304.896 
L 184.576 305.779661 
L 182.493155 307.584 
" style="fill:none;stroke:#00c79c;stroke-width:1.5;"/>
   </g>
   <g id="LineCollection_4">
    <path clip-path="url(#p6b16977c08)" d="M 343.296 172.754269 
L 342.813687 173.184 
L 340.410182 175.293176 
L 339.740443 175.872 
L 337.524364 177.761931 
L 336.575813 178.56 
L 334.638545 180.171619 
L 333.329641 181.248 
L 331.752727 182.532915 
L 330.014685 183.936 
L 328.866909 184.856105 
L 326.646369 186.624 
L 325.981091 187.151146 
L 323.242329 189.312 
L 323.095273 189.427738 
L 320.209455 191.689582 
L 319.812926 192 
L 317.323636 193.950626 
L 316.385038 194.688 
L 314.437818 196.222845 
L 312.982543 197.376 
L 311.552 198.515959 
L 309.624609 200.064 
L 308.666182 200.839895 
L 306.328483 202.752 
L 305.780364 203.204884 
L 303.108892 205.44 
L 302.894545 205.621542 
L 300.008727 208.10056 
L 299.977217 208.128 
L 297.122909 210.652484 
L 296.941181 210.816 
L 294.237091 213.291746 
L 294.009484 213.504 
L 291.351273 216.030622 
L 291.184727 216.192 
L 288.467054 218.88 
L 288.465455 218.881612 
L 285.851873 221.568 
L 285.579636 221.854007 
L 283.337654 224.256 
L 282.693818 224.961628 
L 280.919745 226.944 
L 279.808 228.215497 
L 278.592627 229.632 
L 276.922182 231.625103 
L 276.350245 232.32 
L 274.184834 235.008 
L 274.036364 235.195194 
L 272.084958 237.696 
L 271.150545 238.919938 
L 270.049526 240.384 
L 268.264727 242.807065 
L 268.072229 243.072 
L 266.138557 245.76 
L 265.378909 246.832611 
L 264.247497 248.448 
L 262.493091 250.99298 
L 262.395424 251.136 
L 260.564797 253.824 
L 259.607273 255.245306 
L 258.75954 256.512 
L 256.972371 259.2 
L 256.721455 259.576974 
L 255.189009 261.888 
L 253.835636 263.938382 
L 253.415567 264.576 
L 251.636506 267.264 
L 250.949818 268.297703 
L 249.849845 269.952 
L 248.064 272.629748 
L 248.057144 272.64 
L 246.234596 275.328 
L 245.178182 276.874834 
L 244.394568 278.016 
L 242.527734 280.704 
L 242.292364 281.037602 
L 240.618069 283.392 
L 239.406545 285.073555 
L 238.674508 286.08 
L 236.688105 288.768 
L 236.520727 288.99018 
L 234.641597 291.456 
L 233.634909 292.754694 
L 232.544088 294.144 
L 230.749091 296.388988 
L 230.389892 296.832 
L 228.166033 299.52 
L 227.863273 299.878605 
L 225.866603 302.208 
L 224.977455 303.225533 
L 223.494439 304.896 
L 222.091636 306.445907 
L 221.044599 307.584 
" style="fill:none;stroke:#00aaaa;stroke-width:1.5;"/>
    <path clip-path="url(#p6b16977c08)" d="M 57.6 155.343264 
L 58.821848 154.368 
L 60.485818 153.061357 
L 62.27922 151.68 
L 63.371636 150.851801 
L 65.872459 148.992 
L 66.257455 148.709993 
L 69.143273 146.638576 
L 69.618888 146.304 
L 72.029091 144.632047 
L 73.520641 143.616 
L 74.914909 142.678319 
L 77.562196 140.928 
L 77.800727 140.772096 
L 80.686545 138.921857 
L 81.767058 138.24 
L 83.572364 137.111524 
L 86.100029 135.552 
L 86.458182 135.332764 
L 89.344 133.593899 
L 90.569148 132.864 
L 92.229818 131.880001 
L 95.115636 130.182386 
L 95.126642 130.176 
L 98.001455 128.512572 
L 99.777496 127.488 
L 100.887273 126.848384 
L 103.773091 125.191274 
L 104.457633 124.8 
L 106.658909 123.539399 
L 109.140011 122.112 
L 109.544727 121.878284 
L 112.430545 120.213622 
L 113.79046 119.424 
L 115.316364 118.532112 
L 118.202182 116.826972 
L 118.355727 116.736 
L 121.088 115.101855 
L 122.82227 114.048 
L 123.973818 113.340425 
L 126.859636 111.539303 
L 127.144068 111.36 
L 129.745455 109.697546 
L 131.317261 108.672 
L 132.631273 107.80164 
L 135.316121 105.984 
L 135.517091 105.845707 
L 138.402909 103.828731 
L 139.148946 103.296 
L 141.288727 101.740061 
L 142.809476 100.608 
L 144.174545 99.572463 
L 146.302806 97.92 
L 147.060364 97.320298 
L 149.639127 95.232 
L 149.946182 94.978424 
L 152.830269 92.544 
L 152.832 92.54251 
L 155.717818 90.011129 
L 155.891072 89.856 
L 158.603636 87.380005 
L 158.83151 87.168 
L 161.489455 84.649271 
L 161.665004 84.48 
L 164.375273 81.821351 
L 164.404732 81.792 
L 167.066189 79.104 
L 167.261091 78.904347 
L 169.660696 76.416 
L 170.146909 75.905453 
L 172.199732 73.728 
L 173.032727 72.835272 
L 174.694693 71.04 
L 175.918545 69.707519 
L 177.156564 68.352 
L 178.804364 66.538259 
L 179.596003 65.664 
L 181.690182 63.345347 
L 182.023444 62.976 
L 184.451744 60.288 
L 184.576 60.151024 
L 186.895878 57.6 
L 187.461818 56.980326 
L 189.359818 54.912 
L 190.347636 53.842903 
L 191.853979 52.224 
L 193.233455 50.755181 
L 194.38905 49.536 
L 196.119273 47.731529 
L 196.976074 46.848 
L 199.005091 44.78383 
L 199.626512 44.16 
L 201.890909 41.921251 
L 202.352266 41.472 
" style="fill:none;stroke:#00aaaa;stroke-width:1.5;"/>
   </g>
   <g id="LineCollection_5">
    <path clip-path="url(#p6b16977c08)" d="M 343.296 204.541237 
L 342.193907 205.44 
L 340.410182 206.891695 
L 338.889214 208.128 
L 337.524364 209.237236 
L 335.583528 210.816 
L 334.638545 211.586015 
L 332.291851 213.504 
L 331.752727 213.946211 
L 329.028662 216.192 
L 328.866909 216.326075 
L 325.981091 218.732204 
L 325.805073 218.88 
L 323.095273 221.173973 
L 322.634394 221.568 
L 320.209455 223.661733 
L 319.52901 224.256 
L 317.323636 226.204249 
L 316.496893 226.944 
L 314.437818 228.81039 
L 313.543893 229.632 
L 311.552 231.489071 
L 310.673801 232.32 
L 308.666182 234.249139 
L 307.888493 235.008 
L 305.780364 237.099218 
L 305.188142 237.696 
L 302.894545 240.047486 
L 302.571474 240.384 
L 300.035815 243.072 
L 300.008727 243.101142 
L 297.5749 245.76 
L 297.122909 246.262705 
L 295.187105 248.448 
L 294.237091 249.53976 
L 292.867743 251.136 
L 291.351273 252.934937 
L 290.611805 253.824 
L 288.465455 256.448437 
L 288.414113 256.512 
L 286.263433 259.2 
L 285.579636 260.067199 
L 284.15898 261.888 
L 282.693818 263.791815 
L 282.095875 264.576 
L 280.06635 267.264 
L 279.808 267.608174 
L 278.060974 269.952 
L 276.922182 271.493806 
L 276.080276 272.64 
L 274.118393 275.328 
L 274.036364 275.440299 
L 272.160891 278.016 
L 271.150545 279.408466 
L 270.21203 280.704 
L 268.26705 283.392 
L 268.264727 283.395189 
L 266.308136 286.08 
L 265.378909 287.352126 
L 264.342242 288.768 
L 262.493091 291.282023 
L 262.364625 291.456 
L 260.358396 294.144 
L 259.607273 295.142052 
L 258.32771 296.832 
L 256.721455 298.933275 
L 256.269596 299.52 
L 254.17303 302.208 
L 253.835636 302.634676 
L 252.030851 304.896 
L 250.949818 306.232772 
L 249.845652 307.584 
" style="fill:none;stroke:#008eb8;stroke-width:1.5;"/>
    <path clip-path="url(#p6b16977c08)" d="M 57.6 128.516477 
L 59.050669 127.488 
L 60.485818 126.48107 
L 62.91356 124.8 
L 63.371636 124.485735 
L 66.257455 122.532884 
L 66.887359 122.112 
L 69.143273 120.615851 
L 70.95759 119.424 
L 72.029091 118.724365 
L 74.914909 116.85566 
L 75.101689 116.736 
L 77.800727 115.013605 
L 79.3208 114.048 
L 80.686545 113.18247 
L 83.568939 111.36 
L 83.572364 111.357837 
L 86.458182 109.546182 
L 87.849058 108.672 
L 89.344 107.730912 
L 92.109255 105.984 
L 92.229818 105.907594 
L 95.115636 104.080194 
L 96.346183 103.296 
L 98.001455 102.23527 
L 100.51777 100.608 
L 100.887273 100.36736 
L 103.773091 98.476955 
L 104.614987 97.92 
L 106.658909 96.555272 
L 108.613708 95.232 
L 109.544727 94.595077 
L 112.430545 92.591822 
L 112.498787 92.544 
L 115.316364 90.544778 
L 116.270855 89.856 
L 118.202182 88.443481 
L 119.915894 87.168 
L 121.088 86.283108 
L 123.434118 84.48 
L 123.973818 84.058992 
L 126.82835 81.792 
L 126.859636 81.76677 
L 129.745455 79.404926 
L 130.106733 79.104 
L 132.631273 76.967626 
L 133.271974 76.416 
L 135.517091 74.45238 
L 136.331798 73.728 
L 138.402909 71.858 
L 139.294989 71.04 
L 141.288727 69.184648 
L 142.170802 68.352 
L 144.174545 66.434072 
L 144.968737 65.664 
L 147.060364 63.609801 
L 147.698364 62.976 
L 149.946182 60.717286 
L 150.369207 60.288 
L 152.832 57.763952 
L 152.990673 57.6 
L 155.573876 54.912 
L 155.717818 54.761335 
L 158.128881 52.224 
L 158.603636 51.721832 
L 160.662772 49.536 
L 161.489455 48.655794 
L 163.184405 46.848 
L 164.375273 45.576708 
L 165.702561 44.16 
L 167.261091 42.498547 
L 168.225997 41.472 
" style="fill:none;stroke:#008eb8;stroke-width:1.5;"/>
   </g>
   <g id="LineCollection_6">
    <path clip-path="url(#p6b16977c08)" d="M 343.296 230.861488 
L 341.575714 232.32 
L 340.410182 233.31432 
L 338.439799 235.008 
L 337.524364 235.800934 
L 335.35604 237.696 
L 334.638545 238.328775 
L 332.331803 240.384 
L 331.752727 240.905297 
L 329.372813 243.072 
L 328.866909 243.537914 
L 326.483144 245.76 
L 325.981091 246.233912 
L 323.665276 248.448 
L 323.095273 249.00034 
L 320.92022 251.136 
L 320.209455 251.84385 
L 318.247677 253.824 
L 317.323636 254.770511 
L 315.646221 256.512 
L 314.437818 257.785578 
L 313.113495 259.2 
L 311.552 260.893224 
L 310.646401 261.888 
L 308.666182 264.09625 
L 308.241273 264.576 
L 305.893246 267.264 
L 305.780364 267.394645 
L 303.595221 269.952 
L 302.894545 270.78323 
L 301.345389 272.64 
L 300.008727 274.262477 
L 299.138987 275.328 
L 297.122909 277.826487 
L 296.971225 278.016 
L 294.832092 280.704 
L 294.237091 281.457778 
L 292.719727 283.392 
L 291.351273 285.149752 
L 290.630583 286.08 
L 288.558985 288.768 
L 288.465455 288.889375 
L 286.493177 291.456 
L 285.579636 292.648347 
L 284.435324 294.144 
L 282.693818 296.422459 
L 282.380792 296.832 
L 280.318548 299.52 
L 279.808 300.183068 
L 278.245595 302.208 
L 276.922182 303.916607 
L 276.160966 304.896 
L 274.059668 307.584 
" style="fill:none;stroke:#0071c6;stroke-width:1.5;"/>
    <path clip-path="url(#p6b16977c08)" d="M 57.6 105.962293 
L 60.485818 104.005036 
L 61.537288 103.296 
L 63.371636 102.063305 
L 65.545589 100.608 
L 66.257455 100.132449 
L 69.143273 98.211569 
L 69.582953 97.92 
L 72.029091 96.297871 
L 73.634814 95.232 
L 74.914909 94.381081 
L 77.67042 92.544 
L 77.800727 92.456881 
L 80.686545 90.527287 
L 81.685253 89.856 
L 83.572364 88.581351 
L 85.648931 87.168 
L 86.458182 86.613785 
L 89.344 84.621286 
L 89.547459 84.48 
L 92.229818 82.602121 
L 93.373756 81.792 
L 95.115636 80.546964 
L 97.109051 79.104 
L 98.001455 78.451355 
L 100.747013 76.416 
L 100.887273 76.310855 
L 103.773091 74.123782 
L 104.288147 73.728 
L 106.658909 71.883522 
L 107.726894 71.04 
L 109.544727 69.585543 
L 111.063241 68.352 
L 112.430545 67.226432 
L 114.300196 65.664 
L 115.316364 64.803301 
L 117.442239 62.976 
L 118.202182 62.313956 
L 120.495012 60.288 
L 121.088 59.75707 
L 123.465029 57.6 
L 123.973818 57.132362 
L 126.359434 54.912 
L 126.859636 54.440775 
L 129.185793 52.224 
L 129.745455 51.684619 
L 131.95193 49.536 
L 132.631273 48.867689 
L 134.665802 46.848 
L 135.517091 45.995317 
L 137.335414 44.16 
L 138.402909 43.074363 
L 139.968758 41.472 
" style="fill:none;stroke:#0071c6;stroke-width:1.5;"/>
   </g>
   <g id="LineCollection_7">
    <path clip-path="url(#p6b16977c08)" d="M 343.296 254.595262 
L 341.21753 256.512 
L 340.410182 257.264526 
L 338.35654 259.2 
L 337.524364 259.993388 
L 335.559958 261.888 
L 334.638545 262.78761 
L 332.828428 264.576 
L 331.752727 265.652445 
L 330.161501 267.264 
L 328.866909 268.592466 
L 327.557785 269.952 
L 325.981091 271.61136 
L 325.015098 272.64 
L 323.095273 274.711713 
L 322.530615 275.328 
L 320.209455 277.894781 
L 320.101014 278.016 
L 317.720052 280.704 
L 317.323636 281.156697 
L 315.385019 283.392 
L 314.437818 284.496782 
L 313.092303 286.08 
L 311.552 287.911676 
L 310.837514 288.768 
L 308.666182 291.395113 
L 308.616199 291.456 
L 306.418649 294.144 
L 305.780364 294.930268 
L 304.244274 296.832 
L 302.894545 298.512877 
L 302.088909 299.52 
L 300.008727 302.131606 
L 299.948034 302.208 
L 297.81016 304.896 
L 297.122909 305.761306 
L 295.676198 307.584 
" style="fill:none;stroke:#0055d4;stroke-width:1.5;"/>
    <path clip-path="url(#p6b16977c08)" d="M 57.6 85.827542 
L 59.556831 84.48 
L 60.485818 83.839859 
L 63.371636 81.848533 
L 63.453652 81.792 
L 66.257455 79.854411 
L 67.338694 79.104 
L 69.143273 77.846793 
L 71.184959 76.416 
L 72.029091 75.821468 
L 74.914909 73.774557 
L 74.980277 73.728 
L 77.800727 71.705509 
L 78.72007 71.04 
L 80.686545 69.605282 
L 82.386277 68.352 
L 83.572364 67.469728 
L 85.972169 65.664 
L 86.458182 65.294758 
L 89.344 63.077007 
L 89.47414 62.976 
L 92.229818 60.813951 
L 92.89146 60.288 
L 95.115636 58.499776 
L 96.219977 57.6 
L 98.001455 56.131385 
L 99.461041 54.912 
L 100.887273 53.70615 
L 102.617427 52.224 
L 103.773091 51.222037 
L 105.693094 49.536 
L 106.658909 48.677748 
L 108.692951 46.848 
L 109.544727 46.072868 
L 111.622638 44.16 
L 112.430545 43.407994 
L 114.488342 41.472 
" style="fill:none;stroke:#0055d4;stroke-width:1.5;"/>
   </g>
   <g id="LineCollection_8">
    <path clip-path="url(#p6b16977c08)" d="M 343.296 276.831825 
L 342.117797 278.016 
L 340.410182 279.752785 
L 339.485091 280.704 
L 337.524364 282.744503 
L 336.908816 283.392 
L 334.638545 285.808951 
L 334.386575 286.08 
L 331.914553 288.768 
L 331.752727 288.945717 
L 329.488546 291.456 
L 328.866909 292.152829 
L 327.10624 294.144 
L 325.981091 295.429672 
L 324.763716 296.832 
L 323.095273 298.772268 
L 322.456905 299.52 
L 320.209455 302.174935 
L 320.181638 302.208 
L 317.929117 304.896 
L 317.323636 305.623222 
L 315.698621 307.584 
" style="fill:none;stroke:#0038e3;stroke-width:1.5;"/>
    <path clip-path="url(#p6b16977c08)" d="M 57.6 67.177623 
L 59.705078 65.664 
L 60.485818 65.100024 
L 63.371636 63.001909 
L 63.407135 62.976 
L 66.257455 60.882608 
L 67.060215 60.288 
L 69.143273 58.733926 
L 70.648802 57.6 
L 72.029091 56.551978 
L 74.166798 54.912 
L 74.914909 54.332975 
L 77.609931 52.224 
L 77.800727 52.073267 
L 80.686545 49.770698 
L 80.977542 49.536 
L 83.572364 47.421353 
L 84.267512 46.848 
L 86.458182 45.021678 
L 87.4794 44.16 
L 89.344 42.569439 
L 90.615322 41.472 
" style="fill:none;stroke:#0038e3;stroke-width:1.5;"/>
   </g>
   <g id="LineCollection_9">
    <path clip-path="url(#p6b16977c08)" d="M 343.296 298.000439 
L 341.894367 299.52 
L 340.410182 301.14583 
L 339.448825 302.208 
L 337.524364 304.355279 
L 337.043566 304.896 
L 334.674708 307.584 
" style="fill:none;stroke:#001cf1;stroke-width:1.5;"/>
    <path clip-path="url(#p6b16977c08)" d="M 57.6 49.502316 
L 60.485818 47.295839 
L 61.066333 46.848 
L 63.371636 45.055458 
L 64.511974 44.16 
L 66.257455 42.777553 
L 67.888845 41.472 
" style="fill:none;stroke:#001cf1;stroke-width:1.5;"/>
   </g>
   <g id="LineCollection_10"/>
   <g id="patch_3">
    <path d="M 57.6 307.584 
L 57.6 41.472 
" style="fill:none;stroke:#000000;stroke-linecap:square;stroke-linejoin:miter;stroke-width:0.8;"/>
   </g>
   <g id="patch_4">
    <path d="M 343.296 307.584 
L 343.296 41.472 
" style="fill:none;stroke:#000000;stroke-linecap:square;stroke-linejoin:miter;stroke-width:0.8;"/>
   </g>
   <g id="patch_5">
    <path d="M 57.6 307.584 
L 343.296 307.584 
" style="fill:none;stroke:#000000;stroke-linecap:square;stroke-linejoin:miter;stroke-width:0.8;"/>
   </g>
   <g id="patch_6">
    <path d="M 57.6 41.472 
L 343.296 41.472 
" style="fill:none;stroke:#000000;stroke-linecap:square;stroke-linejoin:miter;stroke-width:0.8;"/>
   </g>
  </g>
  <g id="axes_2">
   <g id="patch_7">
    <path clip-path="url(#pd9f53a226b)" d="M 361.152 307.584 
L 361.152 278.016 
L 361.152 71.04 
L 361.152 41.472 
L 374.4576 41.472 
L 374.4576 71.04 
L 374.4576 278.016 
L 374.4576 307.584 
z
" style="fill:#ffffff;stroke:#ffffff;stroke-linejoin:miter;stroke-width:0.01;"/>
   </g>
   <g id="matplotlib.axis_3"/>
   <g id="matplotlib.axis_4">
    <g id="ytick_8">
     <g id="line2d_15">
      <defs>
       <path d="M 0 0 
L 3.5 0 
" id="m585d2dc105" style="stroke:#000000;stroke-width:0.8;"/>
      </defs>
      <g>
       <use style="stroke:#000000;stroke-width:0.8;" x="374.4576" xlink:href="#m585d2dc105" y="307.584"/>
      </g>
     </g>
     <g id="text_15">
      <!-- −5 -->
      <defs>
       <path d="M 10.796875 72.90625 
L 49.515625 72.90625 
L 49.515625 64.59375 
L 19.828125 64.59375 
L 19.828125 46.734375 
Q 21.96875 47.46875 24.109375 47.828125 
Q 26.265625 48.1875 28.421875 48.1875 
Q 40.625 48.1875 47.75 41.5 
Q 54.890625 34.8125 54.890625 23.390625 
Q 54.890625 11.625 47.5625 5.09375 
Q 40.234375 -1.421875 26.90625 -1.421875 
Q 22.3125 -1.421875 17.546875 -0.640625 
Q 12.796875 0.140625 7.71875 1.703125 
L 7.71875 11.625 
Q 12.109375 9.234375 16.796875 8.0625 
Q 21.484375 6.890625 26.703125 6.890625 
Q 35.15625 6.890625 40.078125 11.328125 
Q 45.015625 15.765625 45.015625 23.390625 
Q 45.015625 31 40.078125 35.4375 
Q 35.15625 39.890625 26.703125 39.890625 
Q 22.75 39.890625 18.8125 39.015625 
Q 14.890625 38.140625 10.796875 36.28125 
z
" id="DejaVuSans-53"/>
      </defs>
      <g transform="translate(381.4576 311.383219)scale(0.1 -0.1)">
       <use xlink:href="#DejaVuSans-8722"/>
       <use x="83.789062" xlink:href="#DejaVuSans-53"/>
      </g>
     </g>
    </g>
    <g id="ytick_9">
     <g id="line2d_16">
      <g>
       <use style="stroke:#000000;stroke-width:0.8;" x="374.4576" xlink:href="#m585d2dc105" y="278.016"/>
      </g>
     </g>
     <g id="text_16">
      <!-- 0 -->
      <g transform="translate(381.4576 281.815219)scale(0.1 -0.1)">
       <use xlink:href="#DejaVuSans-48"/>
      </g>
     </g>
    </g>
    <g id="ytick_10">
     <g id="line2d_17">
      <g>
       <use style="stroke:#000000;stroke-width:0.8;" x="374.4576" xlink:href="#m585d2dc105" y="248.448"/>
      </g>
     </g>
     <g id="text_17">
      <!-- 5 -->
      <g transform="translate(381.4576 252.247219)scale(0.1 -0.1)">
       <use xlink:href="#DejaVuSans-53"/>
      </g>
     </g>
    </g>
    <g id="ytick_11">
     <g id="line2d_18">
      <g>
       <use style="stroke:#000000;stroke-width:0.8;" x="374.4576" xlink:href="#m585d2dc105" y="218.88"/>
      </g>
     </g>
     <g id="text_18">
      <!-- 10 -->
      <g transform="translate(381.4576 222.679219)scale(0.1 -0.1)">
       <use xlink:href="#DejaVuSans-49"/>
       <use x="63.623047" xlink:href="#DejaVuSans-48"/>
      </g>
     </g>
    </g>
    <g id="ytick_12">
     <g id="line2d_19">
      <g>
       <use style="stroke:#000000;stroke-width:0.8;" x="374.4576" xlink:href="#m585d2dc105" y="189.312"/>
      </g>
     </g>
     <g id="text_19">
      <!-- 15 -->
      <g transform="translate(381.4576 193.111219)scale(0.1 -0.1)">
       <use xlink:href="#DejaVuSans-49"/>
       <use x="63.623047" xlink:href="#DejaVuSans-53"/>
      </g>
     </g>
    </g>
    <g id="ytick_13">
     <g id="line2d_20">
      <g>
       <use style="stroke:#000000;stroke-width:0.8;" x="374.4576" xlink:href="#m585d2dc105" y="159.744"/>
      </g>
     </g>
     <g id="text_20">
      <!-- 20 -->
      <g transform="translate(381.4576 163.543219)scale(0.1 -0.1)">
       <use xlink:href="#DejaVuSans-50"/>
       <use x="63.623047" xlink:href="#DejaVuSans-48"/>
      </g>
     </g>
    </g>
    <g id="ytick_14">
     <g id="line2d_21">
      <g>
       <use style="stroke:#000000;stroke-width:0.8;" x="374.4576" xlink:href="#m585d2dc105" y="130.176"/>
      </g>
     </g>
     <g id="text_21">
      <!-- 25 -->
      <g transform="translate(381.4576 133.975219)scale(0.1 -0.1)">
       <use xlink:href="#DejaVuSans-50"/>
       <use x="63.623047" xlink:href="#DejaVuSans-53"/>
      </g>
     </g>
    </g>
    <g id="ytick_15">
     <g id="line2d_22">
      <g>
       <use style="stroke:#000000;stroke-width:0.8;" x="374.4576" xlink:href="#m585d2dc105" y="100.608"/>
      </g>
     </g>
     <g id="text_22">
      <!-- 30 -->
      <g transform="translate(381.4576 104.407219)scale(0.1 -0.1)">
       <use xlink:href="#DejaVuSans-51"/>
       <use x="63.623047" xlink:href="#DejaVuSans-48"/>
      </g>
     </g>
    </g>
    <g id="ytick_16">
     <g id="line2d_23">
      <g>
       <use style="stroke:#000000;stroke-width:0.8;" x="374.4576" xlink:href="#m585d2dc105" y="71.04"/>
      </g>
     </g>
     <g id="text_23">
      <!-- 35 -->
      <g transform="translate(381.4576 74.839219)scale(0.1 -0.1)">
       <use xlink:href="#DejaVuSans-51"/>
       <use x="63.623047" xlink:href="#DejaVuSans-53"/>
      </g>
     </g>
    </g>
    <g id="ytick_17">
     <g id="line2d_24">
      <g>
       <use style="stroke:#000000;stroke-width:0.8;" x="374.4576" xlink:href="#m585d2dc105" y="41.472"/>
      </g>
     </g>
     <g id="text_24">
      <!-- 40 -->
      <g transform="translate(381.4576 45.271219)scale(0.1 -0.1)">
       <use xlink:href="#DejaVuSans-52"/>
       <use x="63.623047" xlink:href="#DejaVuSans-48"/>
      </g>
     </g>
    </g>
   </g>
   <g id="LineCollection_11">
    <path clip-path="url(#pd9f53a226b)" d="M 361.152 307.584 
L 374.4576 307.584 
" style="fill:none;stroke:#00ff80;stroke-width:1.5;"/>
    <path clip-path="url(#pd9f53a226b)" d="M 361.152 278.016 
L 374.4576 278.016 
" style="fill:none;stroke:#00e38e;stroke-width:1.5;"/>
    <path clip-path="url(#pd9f53a226b)" d="M 361.152 248.448 
L 374.4576 248.448 
" style="fill:none;stroke:#00c79c;stroke-width:1.5;"/>
    <path clip-path="url(#pd9f53a226b)" d="M 361.152 218.88 
L 374.4576 218.88 
" style="fill:none;stroke:#00aaaa;stroke-width:1.5;"/>
    <path clip-path="url(#pd9f53a226b)" d="M 361.152 189.312 
L 374.4576 189.312 
" style="fill:none;stroke:#008eb8;stroke-width:1.5;"/>
    <path clip-path="url(#pd9f53a226b)" d="M 361.152 159.744 
L 374.4576 159.744 
" style="fill:none;stroke:#0071c6;stroke-width:1.5;"/>
    <path clip-path="url(#pd9f53a226b)" d="M 361.152 130.176 
L 374.4576 130.176 
" style="fill:none;stroke:#0055d4;stroke-width:1.5;"/>
    <path clip-path="url(#pd9f53a226b)" d="M 361.152 100.608 
L 374.4576 100.608 
" style="fill:none;stroke:#0038e3;stroke-width:1.5;"/>
    <path clip-path="url(#pd9f53a226b)" d="M 361.152 71.04 
L 374.4576 71.04 
" style="fill:none;stroke:#001cf1;stroke-width:1.5;"/>
    <path clip-path="url(#pd9f53a226b)" d="M 361.152 41.472 
L 374.4576 41.472 
" style="fill:none;stroke:#0000ff;stroke-width:1.5;"/>
   </g>
   <g id="patch_8">
    <path d="M 361.152 307.584 
L 361.152 278.016 
L 361.152 71.04 
L 361.152 41.472 
L 374.4576 41.472 
L 374.4576 71.04 
L 374.4576 278.016 
L 374.4576 307.584 
z
" style="fill:none;stroke:#000000;stroke-linejoin:miter;stroke-width:0.8;"/>
   </g>
  </g>
 </g>
 <defs>
  <clipPath id="p6b16977c08">
   <rect height="266.112" width="285.696" x="57.6" y="41.472"/>
  </clipPath>
  <clipPath id="pd9f53a226b">
   <rect height="266.112" width="13.3056" x="361.152" y="41.472"/>
  </clipPath>
 </defs>
</svg>
