<?xml version="1.0" encoding="utf-8" standalone="no"?>
<!DOCTYPE svg PUBLIC "-//W3C//DTD SVG 1.1//EN"
  "http://www.w3.org/Graphics/SVG/1.1/DTD/svg11.dtd">
<!-- Created with matplotlib (https://matplotlib.org/) -->
<svg height="345.6pt" version="1.1" viewBox="0 0 460.8 345.6" width="460.8pt" xmlns="http://www.w3.org/2000/svg" xmlns:xlink="http://www.w3.org/1999/xlink">
 <defs>
  <style type="text/css">
*{stroke-linecap:butt;stroke-linejoin:round;}
  </style>
 </defs>
 <g id="figure_1">
  <g id="patch_1">
   <path d="M 0 345.6 
L 460.8 345.6 
L 460.8 0 
L 0 0 
z
" style="fill:#ffffff;"/>
  </g>
  <g id="axes_1">
   <g id="patch_2">
    <path d="M 57.6 307.584 
L 343.296 307.584 
L 343.296 41.472 
L 57.6 41.472 
z
" style="fill:#ffffff;"/>
   </g>
   <g id="matplotlib.axis_1">
    <g id="xtick_1">
     <g id="line2d_1">
      <defs>
       <path d="M 0 0 
L 0 3.5 
" id="m801c21eb18" style="stroke:#000000;stroke-width:0.8;"/>
      </defs>
      <g>
       <use style="stroke:#000000;stroke-width:0.8;" x="57.6" xlink:href="#m801c21eb18" y="307.584"/>
      </g>
     </g>
     <g id="text_1">
      <!-- −2.0 -->
      <defs>
       <path d="M 10.59375 35.5 
L 73.1875 35.5 
L 73.1875 27.203125 
L 10.59375 27.203125 
z
" id="DejaVuSans-8722"/>
       <path d="M 19.1875 8.296875 
L 53.609375 8.296875 
L 53.609375 0 
L 7.328125 0 
L 7.328125 8.296875 
Q 12.9375 14.109375 22.625 23.890625 
Q 32.328125 33.6875 34.8125 36.53125 
Q 39.546875 41.84375 41.421875 45.53125 
Q 43.3125 49.21875 43.3125 52.78125 
Q 43.3125 58.59375 39.234375 62.25 
Q 35.15625 65.921875 28.609375 65.921875 
Q 23.96875 65.921875 18.8125 64.3125 
Q 13.671875 62.703125 7.8125 59.421875 
L 7.8125 69.390625 
Q 13.765625 71.78125 18.9375 73 
Q 24.125 74.21875 28.421875 74.21875 
Q 39.75 74.21875 46.484375 68.546875 
Q 53.21875 62.890625 53.21875 53.421875 
Q 53.21875 48.921875 51.53125 44.890625 
Q 49.859375 40.875 45.40625 35.40625 
Q 44.1875 33.984375 37.640625 27.21875 
Q 31.109375 20.453125 19.1875 8.296875 
z
" id="DejaVuSans-50"/>
       <path d="M 10.6875 12.40625 
L 21 12.40625 
L 21 0 
L 10.6875 0 
z
" id="DejaVuSans-46"/>
       <path d="M 31.78125 66.40625 
Q 24.171875 66.40625 20.328125 58.90625 
Q 16.5 51.421875 16.5 36.375 
Q 16.5 21.390625 20.328125 13.890625 
Q 24.171875 6.390625 31.78125 6.390625 
Q 39.453125 6.390625 43.28125 13.890625 
Q 47.125 21.390625 47.125 36.375 
Q 47.125 51.421875 43.28125 58.90625 
Q 39.453125 66.40625 31.78125 66.40625 
z
M 31.78125 74.21875 
Q 44.046875 74.21875 50.515625 64.515625 
Q 56.984375 54.828125 56.984375 36.375 
Q 56.984375 17.96875 50.515625 8.265625 
Q 44.046875 -1.421875 31.78125 -1.421875 
Q 19.53125 -1.421875 13.0625 8.265625 
Q 6.59375 17.96875 6.59375 36.375 
Q 6.59375 54.828125 13.0625 64.515625 
Q 19.53125 74.21875 31.78125 74.21875 
z
" id="DejaVuSans-48"/>
      </defs>
      <g transform="translate(45.458594 322.182437)scale(0.1 -0.1)">
       <use xlink:href="#DejaVuSans-8722"/>
       <use x="83.789062" xlink:href="#DejaVuSans-50"/>
       <use x="147.412109" xlink:href="#DejaVuSans-46"/>
       <use x="179.199219" xlink:href="#DejaVuSans-48"/>
      </g>
     </g>
    </g>
    <g id="xtick_2">
     <g id="line2d_2">
      <g>
       <use style="stroke:#000000;stroke-width:0.8;" x="93.312" xlink:href="#m801c21eb18" y="307.584"/>
      </g>
     </g>
     <g id="text_2">
      <!-- −1.5 -->
      <defs>
       <path d="M 12.40625 8.296875 
L 28.515625 8.296875 
L 28.515625 63.921875 
L 10.984375 60.40625 
L 10.984375 69.390625 
L 28.421875 72.90625 
L 38.28125 72.90625 
L 38.28125 8.296875 
L 54.390625 8.296875 
L 54.390625 0 
L 12.40625 0 
z
" id="DejaVuSans-49"/>
       <path d="M 10.796875 72.90625 
L 49.515625 72.90625 
L 49.515625 64.59375 
L 19.828125 64.59375 
L 19.828125 46.734375 
Q 21.96875 47.46875 24.109375 47.828125 
Q 26.265625 48.1875 28.421875 48.1875 
Q 40.625 48.1875 47.75 41.5 
Q 54.890625 34.8125 54.890625 23.390625 
Q 54.890625 11.625 47.5625 5.09375 
Q 40.234375 -1.421875 26.90625 -1.421875 
Q 22.3125 -1.421875 17.546875 -0.640625 
Q 12.796875 0.140625 7.71875 1.703125 
L 7.71875 11.625 
Q 12.109375 9.234375 16.796875 8.0625 
Q 21.484375 6.890625 26.703125 6.890625 
Q 35.15625 6.890625 40.078125 11.328125 
Q 45.015625 15.765625 45.015625 23.390625 
Q 45.015625 31 40.078125 35.4375 
Q 35.15625 39.890625 26.703125 39.890625 
Q 22.75 39.890625 18.8125 39.015625 
Q 14.890625 38.140625 10.796875 36.28125 
z
" id="DejaVuSans-53"/>
      </defs>
      <g transform="translate(81.170594 322.182437)scale(0.1 -0.1)">
       <use xlink:href="#DejaVuSans-8722"/>
       <use x="83.789062" xlink:href="#DejaVuSans-49"/>
       <use x="147.412109" xlink:href="#DejaVuSans-46"/>
       <use x="179.199219" xlink:href="#DejaVuSans-53"/>
      </g>
     </g>
    </g>
    <g id="xtick_3">
     <g id="line2d_3">
      <g>
       <use style="stroke:#000000;stroke-width:0.8;" x="129.024" xlink:href="#m801c21eb18" y="307.584"/>
      </g>
     </g>
     <g id="text_3">
      <!-- −1.0 -->
      <g transform="translate(116.882594 322.182437)scale(0.1 -0.1)">
       <use xlink:href="#DejaVuSans-8722"/>
       <use x="83.789062" xlink:href="#DejaVuSans-49"/>
       <use x="147.412109" xlink:href="#DejaVuSans-46"/>
       <use x="179.199219" xlink:href="#DejaVuSans-48"/>
      </g>
     </g>
    </g>
    <g id="xtick_4">
     <g id="line2d_4">
      <g>
       <use style="stroke:#000000;stroke-width:0.8;" x="164.736" xlink:href="#m801c21eb18" y="307.584"/>
      </g>
     </g>
     <g id="text_4">
      <!-- −0.5 -->
      <g transform="translate(152.594594 322.182437)scale(0.1 -0.1)">
       <use xlink:href="#DejaVuSans-8722"/>
       <use x="83.789062" xlink:href="#DejaVuSans-48"/>
       <use x="147.412109" xlink:href="#DejaVuSans-46"/>
       <use x="179.199219" xlink:href="#DejaVuSans-53"/>
      </g>
     </g>
    </g>
    <g id="xtick_5">
     <g id="line2d_5">
      <g>
       <use style="stroke:#000000;stroke-width:0.8;" x="200.448" xlink:href="#m801c21eb18" y="307.584"/>
      </g>
     </g>
     <g id="text_5">
      <!-- 0.0 -->
      <g transform="translate(192.496438 322.182437)scale(0.1 -0.1)">
       <use xlink:href="#DejaVuSans-48"/>
       <use x="63.623047" xlink:href="#DejaVuSans-46"/>
       <use x="95.410156" xlink:href="#DejaVuSans-48"/>
      </g>
     </g>
    </g>
    <g id="xtick_6">
     <g id="line2d_6">
      <g>
       <use style="stroke:#000000;stroke-width:0.8;" x="236.16" xlink:href="#m801c21eb18" y="307.584"/>
      </g>
     </g>
     <g id="text_6">
      <!-- 0.5 -->
      <g transform="translate(228.208438 322.182437)scale(0.1 -0.1)">
       <use xlink:href="#DejaVuSans-48"/>
       <use x="63.623047" xlink:href="#DejaVuSans-46"/>
       <use x="95.410156" xlink:href="#DejaVuSans-53"/>
      </g>
     </g>
    </g>
    <g id="xtick_7">
     <g id="line2d_7">
      <g>
       <use style="stroke:#000000;stroke-width:0.8;" x="271.872" xlink:href="#m801c21eb18" y="307.584"/>
      </g>
     </g>
     <g id="text_7">
      <!-- 1.0 -->
      <g transform="translate(263.920437 322.182437)scale(0.1 -0.1)">
       <use xlink:href="#DejaVuSans-49"/>
       <use x="63.623047" xlink:href="#DejaVuSans-46"/>
       <use x="95.410156" xlink:href="#DejaVuSans-48"/>
      </g>
     </g>
    </g>
    <g id="xtick_8">
     <g id="line2d_8">
      <g>
       <use style="stroke:#000000;stroke-width:0.8;" x="307.584" xlink:href="#m801c21eb18" y="307.584"/>
      </g>
     </g>
     <g id="text_8">
      <!-- 1.5 -->
      <g transform="translate(299.632437 322.182437)scale(0.1 -0.1)">
       <use xlink:href="#DejaVuSans-49"/>
       <use x="63.623047" xlink:href="#DejaVuSans-46"/>
       <use x="95.410156" xlink:href="#DejaVuSans-53"/>
      </g>
     </g>
    </g>
    <g id="xtick_9">
     <g id="line2d_9">
      <g>
       <use style="stroke:#000000;stroke-width:0.8;" x="343.296" xlink:href="#m801c21eb18" y="307.584"/>
      </g>
     </g>
     <g id="text_9">
      <!-- 2.0 -->
      <g transform="translate(335.344438 322.182437)scale(0.1 -0.1)">
       <use xlink:href="#DejaVuSans-50"/>
       <use x="63.623047" xlink:href="#DejaVuSans-46"/>
       <use x="95.410156" xlink:href="#DejaVuSans-48"/>
      </g>
     </g>
    </g>
   </g>
   <g id="matplotlib.axis_2">
    <g id="ytick_1">
     <g id="line2d_10">
      <defs>
       <path d="M 0 0 
L -3.5 0 
" id="m3282d8612c" style="stroke:#000000;stroke-width:0.8;"/>
      </defs>
      <g>
       <use style="stroke:#000000;stroke-width:0.8;" x="57.6" xlink:href="#m3282d8612c" y="307.584"/>
      </g>
     </g>
     <g id="text_10">
      <!-- −2.0 -->
      <g transform="translate(26.317187 311.383219)scale(0.1 -0.1)">
       <use xlink:href="#DejaVuSans-8722"/>
       <use x="83.789062" xlink:href="#DejaVuSans-50"/>
       <use x="147.412109" xlink:href="#DejaVuSans-46"/>
       <use x="179.199219" xlink:href="#DejaVuSans-48"/>
      </g>
     </g>
    </g>
    <g id="ytick_2">
     <g id="line2d_11">
      <g>
       <use style="stroke:#000000;stroke-width:0.8;" x="57.6" xlink:href="#m3282d8612c" y="274.32"/>
      </g>
     </g>
     <g id="text_11">
      <!-- −1.5 -->
      <g transform="translate(26.317187 278.119219)scale(0.1 -0.1)">
       <use xlink:href="#DejaVuSans-8722"/>
       <use x="83.789062" xlink:href="#DejaVuSans-49"/>
       <use x="147.412109" xlink:href="#DejaVuSans-46"/>
       <use x="179.199219" xlink:href="#DejaVuSans-53"/>
      </g>
     </g>
    </g>
    <g id="ytick_3">
     <g id="line2d_12">
      <g>
       <use style="stroke:#000000;stroke-width:0.8;" x="57.6" xlink:href="#m3282d8612c" y="241.056"/>
      </g>
     </g>
     <g id="text_12">
      <!-- −1.0 -->
      <g transform="translate(26.317187 244.855219)scale(0.1 -0.1)">
       <use xlink:href="#DejaVuSans-8722"/>
       <use x="83.789062" xlink:href="#DejaVuSans-49"/>
       <use x="147.412109" xlink:href="#DejaVuSans-46"/>
       <use x="179.199219" xlink:href="#DejaVuSans-48"/>
      </g>
     </g>
    </g>
    <g id="ytick_4">
     <g id="line2d_13">
      <g>
       <use style="stroke:#000000;stroke-width:0.8;" x="57.6" xlink:href="#m3282d8612c" y="207.792"/>
      </g>
     </g>
     <g id="text_13">
      <!-- −0.5 -->
      <g transform="translate(26.317187 211.591219)scale(0.1 -0.1)">
       <use xlink:href="#DejaVuSans-8722"/>
       <use x="83.789062" xlink:href="#DejaVuSans-48"/>
       <use x="147.412109" xlink:href="#DejaVuSans-46"/>
       <use x="179.199219" xlink:href="#DejaVuSans-53"/>
      </g>
     </g>
    </g>
    <g id="ytick_5">
     <g id="line2d_14">
      <g>
       <use style="stroke:#000000;stroke-width:0.8;" x="57.6" xlink:href="#m3282d8612c" y="174.528"/>
      </g>
     </g>
     <g id="text_14">
      <!-- 0.0 -->
      <g transform="translate(34.696875 178.327219)scale(0.1 -0.1)">
       <use xlink:href="#DejaVuSans-48"/>
       <use x="63.623047" xlink:href="#DejaVuSans-46"/>
       <use x="95.410156" xlink:href="#DejaVuSans-48"/>
      </g>
     </g>
    </g>
    <g id="ytick_6">
     <g id="line2d_15">
      <g>
       <use style="stroke:#000000;stroke-width:0.8;" x="57.6" xlink:href="#m3282d8612c" y="141.264"/>
      </g>
     </g>
     <g id="text_15">
      <!-- 0.5 -->
      <g transform="translate(34.696875 145.063219)scale(0.1 -0.1)">
       <use xlink:href="#DejaVuSans-48"/>
       <use x="63.623047" xlink:href="#DejaVuSans-46"/>
       <use x="95.410156" xlink:href="#DejaVuSans-53"/>
      </g>
     </g>
    </g>
    <g id="ytick_7">
     <g id="line2d_16">
      <g>
       <use style="stroke:#000000;stroke-width:0.8;" x="57.6" xlink:href="#m3282d8612c" y="108"/>
      </g>
     </g>
     <g id="text_16">
      <!-- 1.0 -->
      <g transform="translate(34.696875 111.799219)scale(0.1 -0.1)">
       <use xlink:href="#DejaVuSans-49"/>
       <use x="63.623047" xlink:href="#DejaVuSans-46"/>
       <use x="95.410156" xlink:href="#DejaVuSans-48"/>
      </g>
     </g>
    </g>
    <g id="ytick_8">
     <g id="line2d_17">
      <g>
       <use style="stroke:#000000;stroke-width:0.8;" x="57.6" xlink:href="#m3282d8612c" y="74.736"/>
      </g>
     </g>
     <g id="text_17">
      <!-- 1.5 -->
      <g transform="translate(34.696875 78.535219)scale(0.1 -0.1)">
       <use xlink:href="#DejaVuSans-49"/>
       <use x="63.623047" xlink:href="#DejaVuSans-46"/>
       <use x="95.410156" xlink:href="#DejaVuSans-53"/>
      </g>
     </g>
    </g>
    <g id="ytick_9">
     <g id="line2d_18">
      <g>
       <use style="stroke:#000000;stroke-width:0.8;" x="57.6" xlink:href="#m3282d8612c" y="41.472"/>
      </g>
     </g>
     <g id="text_18">
      <!-- 2.0 -->
      <g transform="translate(34.696875 45.271219)scale(0.1 -0.1)">
       <use xlink:href="#DejaVuSans-50"/>
       <use x="63.623047" xlink:href="#DejaVuSans-46"/>
       <use x="95.410156" xlink:href="#DejaVuSans-48"/>
      </g>
     </g>
    </g>
   </g>
   <g id="LineCollection_1"/>
   <g id="LineCollection_2">
    <path clip-path="url(#pd5e897a269)" d="M 199.005091 194.862298 
L 197.601696 194.688 
L 196.119273 194.48116 
L 193.233455 193.678008 
L 190.347636 192.47839 
L 189.478647 192 
L 187.461818 190.722505 
L 185.664936 189.312 
L 184.576 188.297709 
L 183.061691 186.624 
L 181.690182 184.745421 
L 181.176585 183.936 
L 179.888684 181.248 
L 179.026426 178.56 
L 178.804364 177.179194 
L 178.617238 175.872 
L 178.617238 173.184 
L 178.804364 171.876806 
L 179.026426 170.496 
L 179.888684 167.808 
L 181.176585 165.12 
L 181.690182 164.310579 
L 183.061691 162.432 
L 184.576 160.758291 
L 185.664936 159.744 
L 187.461818 158.333495 
L 189.478647 157.056 
L 190.347636 156.57761 
L 193.233455 155.377992 
L 196.119273 154.57484 
L 197.601696 154.368 
L 199.005091 154.193702 
L 201.890909 154.193702 
L 203.294304 154.368 
L 204.776727 154.57484 
L 207.662545 155.377992 
L 210.548364 156.57761 
L 211.417353 157.056 
L 213.434182 158.333495 
L 215.231064 159.744 
L 216.32 160.758291 
L 217.834309 162.432 
L 219.205818 164.310579 
L 219.719415 165.12 
L 221.007316 167.808 
L 221.869574 170.496 
L 222.091636 171.876806 
L 222.278762 173.184 
L 222.278762 175.872 
L 222.091636 177.179194 
L 221.869574 178.56 
L 221.007316 181.248 
L 219.719415 183.936 
L 219.205818 184.745421 
L 217.834309 186.624 
L 216.32 188.297709 
L 215.231064 189.312 
L 213.434182 190.722505 
L 211.417353 192 
L 210.548364 192.47839 
L 207.662545 193.678008 
L 204.776727 194.48116 
L 203.294304 194.688 
L 201.890909 194.862298 
L 199.005091 194.862298 
" style="fill:none;stroke:#00e38e;stroke-width:1.5;"/>
   </g>
   <g id="LineCollection_3">
    <path clip-path="url(#pd5e897a269)" d="M 193.233455 213.787553 
L 192.025906 213.504 
L 190.347636 213.096332 
L 187.461818 212.167621 
L 184.576 211.015793 
L 184.15425 210.816 
L 181.690182 209.597809 
L 179.111225 208.128 
L 178.804364 207.943839 
L 175.918545 205.994127 
L 175.176891 205.44 
L 173.032727 203.735857 
L 171.896545 202.752 
L 170.146909 201.122299 
L 169.090647 200.064 
L 167.261091 198.066815 
L 166.666184 197.376 
L 164.572987 194.688 
L 164.375273 194.402174 
L 162.797296 192 
L 161.489455 189.70484 
L 161.274958 189.312 
L 160.038364 186.624 
L 159.041305 183.936 
L 158.603636 182.372773 
L 158.299216 181.248 
L 157.811893 178.56 
L 157.567604 175.872 
L 157.567604 173.184 
L 157.811893 170.496 
L 158.299216 167.808 
L 158.603636 166.683227 
L 159.041305 165.12 
L 160.038364 162.432 
L 161.274958 159.744 
L 161.489455 159.35116 
L 162.797296 157.056 
L 164.375273 154.653826 
L 164.572987 154.368 
L 166.666184 151.68 
L 167.261091 150.989185 
L 169.090647 148.992 
L 170.146909 147.933701 
L 171.896545 146.304 
L 173.032727 145.320143 
L 175.176891 143.616 
L 175.918545 143.061873 
L 178.804364 141.112161 
L 179.111225 140.928 
L 181.690182 139.458191 
L 184.15425 138.24 
L 184.576 138.040207 
L 187.461818 136.888379 
L 190.347636 135.959668 
L 192.025906 135.552 
L 193.233455 135.268447 
L 196.119273 134.814529 
L 199.005091 134.586986 
L 201.890909 134.586986 
L 204.776727 134.814529 
L 207.662545 135.268447 
L 208.870094 135.552 
L 210.548364 135.959668 
L 213.434182 136.888379 
L 216.32 138.040207 
L 216.74175 138.24 
L 219.205818 139.458191 
L 221.784775 140.928 
L 222.091636 141.112161 
L 224.977455 143.061873 
L 225.719109 143.616 
L 227.863273 145.320143 
L 228.999455 146.304 
L 230.749091 147.933701 
L 231.805353 148.992 
L 233.634909 150.989185 
L 234.229816 151.68 
L 236.323013 154.368 
L 236.520727 154.653826 
L 238.098704 157.056 
L 239.406545 159.35116 
L 239.621042 159.744 
L 240.857636 162.432 
L 241.854695 165.12 
L 242.292364 166.683227 
L 242.596784 167.808 
L 243.084107 170.496 
L 243.328396 173.184 
L 243.328396 175.872 
L 243.084107 178.56 
L 242.596784 181.248 
L 242.292364 182.372773 
L 241.854695 183.936 
L 240.857636 186.624 
L 239.621042 189.312 
L 239.406545 189.70484 
L 238.098704 192 
L 236.520727 194.402174 
L 236.323013 194.688 
L 234.229816 197.376 
L 233.634909 198.066815 
L 231.805353 200.064 
L 230.749091 201.122299 
L 228.999455 202.752 
L 227.863273 203.735857 
L 225.719109 205.44 
L 224.977455 205.994127 
L 222.091636 207.943839 
L 221.784775 208.128 
L 219.205818 209.597809 
L 216.74175 210.816 
L 216.32 211.015793 
L 213.434182 212.167621 
L 210.548364 213.096332 
L 208.870094 213.504 
L 207.662545 213.787553 
L 204.776727 214.241471 
L 201.890909 214.469014 
L 199.005091 214.469014 
L 196.119273 214.241471 
L 193.233455 213.787553 
" style="fill:none;stroke:#00c79c;stroke-width:1.5;"/>
   </g>
   <g id="LineCollection_4">
    <path clip-path="url(#pd5e897a269)" d="M 196.119273 229.859362 
L 193.233455 229.43796 
L 190.347636 228.811233 
L 187.461818 227.98068 
L 184.560254 226.944 
L 181.690182 225.72822 
L 178.690584 224.256 
L 174.036395 221.568 
L 173.032727 220.944394 
L 169.996236 218.88 
L 166.437745 216.192 
L 163.20442 213.504 
L 160.244484 210.816 
L 157.523021 208.128 
L 155.01734 205.44 
L 152.714131 202.752 
L 149.946182 199.129132 
L 148.708078 197.376 
L 146.993213 194.688 
L 145.479799 192 
L 144.167386 189.312 
L 143.061573 186.624 
L 142.169897 183.936 
L 141.288727 180.005396 
L 141.044633 178.56 
L 140.817019 175.872 
L 140.817019 173.184 
L 141.044633 170.496 
L 141.497047 167.808 
L 142.169897 165.12 
L 143.061573 162.432 
L 144.174545 159.729334 
L 145.479799 157.056 
L 147.060364 154.26202 
L 149.946182 149.926868 
L 150.615681 148.992 
L 152.832 146.163655 
L 155.717818 142.849093 
L 158.603636 139.837408 
L 161.489455 137.08037 
L 164.375273 134.545459 
L 167.261091 132.211539 
L 170.146909 130.066211 
L 174.036395 127.488 
L 175.918545 126.334766 
L 178.804364 124.737452 
L 181.690182 123.32778 
L 184.576 122.105331 
L 187.461818 121.07532 
L 190.347636 120.244767 
L 194.567505 119.424 
L 196.119273 119.196638 
L 199.005091 118.984626 
L 201.890909 118.984626 
L 204.776727 119.196638 
L 207.662545 119.61804 
L 210.548364 120.244767 
L 213.434182 121.07532 
L 216.335746 122.112 
L 219.205818 123.32778 
L 222.205416 124.8 
L 226.859605 127.488 
L 227.863273 128.111606 
L 230.899764 130.176 
L 234.458255 132.864 
L 237.69158 135.552 
L 240.651516 138.24 
L 243.372979 140.928 
L 245.87866 143.616 
L 248.181869 146.304 
L 250.949818 149.926868 
L 252.187922 151.68 
L 253.902787 154.368 
L 255.416201 157.056 
L 256.728614 159.744 
L 257.834427 162.432 
L 258.726103 165.12 
L 259.607273 169.050604 
L 259.851367 170.496 
L 260.078981 173.184 
L 260.078981 175.872 
L 259.851367 178.56 
L 259.398953 181.248 
L 258.726103 183.936 
L 257.834427 186.624 
L 256.721455 189.326666 
L 255.416201 192 
L 253.835636 194.79398 
L 250.949818 199.129132 
L 250.280319 200.064 
L 248.064 202.892345 
L 245.178182 206.206907 
L 242.292364 209.218592 
L 239.406545 211.97563 
L 236.520727 214.510541 
L 233.634909 216.844461 
L 230.749091 218.989789 
L 226.859605 221.568 
L 224.977455 222.721234 
L 222.091636 224.318548 
L 219.205818 225.72822 
L 216.32 226.950669 
L 213.434182 227.98068 
L 210.548364 228.811233 
L 206.328495 229.632 
L 204.776727 229.859362 
L 201.890909 230.071374 
L 199.005091 230.071374 
L 196.119273 229.859362 
L 196.119273 229.859362 
" style="fill:none;stroke:#00aaaa;stroke-width:1.5;"/>
   </g>
   <g id="LineCollection_5">
    <path clip-path="url(#pd5e897a269)" d="M 193.233455 245.85104 
L 190.347636 245.131521 
L 187.461818 244.184075 
L 184.576 243.011757 
L 181.690182 241.674489 
L 178.804364 240.141183 
L 174.726036 237.696 
L 173.032727 236.634742 
L 166.913722 232.32 
L 161.489455 228.090027 
L 155.717818 223.179004 
L 149.946182 217.863221 
L 145.526739 213.504 
L 140.471898 208.128 
L 135.880601 202.752 
L 131.807731 197.376 
L 129.745455 194.250094 
L 128.359995 192 
L 126.859636 189.168261 
L 125.66572 186.624 
L 124.648549 183.936 
L 123.876078 181.248 
L 123.334905 178.56 
L 123.063617 175.872 
L 123.063617 173.184 
L 123.334905 170.496 
L 123.973818 167.482741 
L 124.648549 165.12 
L 125.66572 162.432 
L 126.924313 159.744 
L 128.359995 157.056 
L 130.006142 154.368 
L 132.631273 150.569235 
L 133.770632 148.992 
L 138.116421 143.616 
L 142.944179 138.24 
L 148.216619 132.864 
L 153.923607 127.488 
L 158.603636 123.371503 
L 164.375273 118.663163 
L 170.146909 114.386592 
L 175.918545 110.592911 
L 179.274497 108.672 
L 181.690182 107.381511 
L 184.730317 105.984 
L 187.461818 104.871925 
L 190.347636 103.924479 
L 193.233455 103.20496 
L 196.119273 102.700883 
L 199.005091 102.448192 
L 201.890909 102.448192 
L 204.776727 102.700883 
L 208.011742 103.296 
L 210.548364 103.924479 
L 213.434182 104.871925 
L 216.32 106.044243 
L 219.205818 107.381511 
L 222.091636 108.914817 
L 226.169964 111.36 
L 227.863273 112.421258 
L 233.982278 116.736 
L 239.406545 120.965973 
L 245.178182 125.876996 
L 250.949818 131.192779 
L 255.369261 135.552 
L 260.424102 140.928 
L 265.015399 146.304 
L 269.088269 151.68 
L 271.150545 154.805906 
L 272.536005 157.056 
L 274.036364 159.887739 
L 275.23028 162.432 
L 276.247451 165.12 
L 277.019922 167.808 
L 277.561095 170.496 
L 277.832383 173.184 
L 277.832383 175.872 
L 277.561095 178.56 
L 276.922182 181.573259 
L 276.247451 183.936 
L 275.23028 186.624 
L 273.971687 189.312 
L 272.536005 192 
L 270.889858 194.688 
L 268.264727 198.486765 
L 267.125368 200.064 
L 262.779579 205.44 
L 257.951821 210.816 
L 252.679381 216.192 
L 246.972393 221.568 
L 242.292364 225.684497 
L 236.520727 230.392837 
L 230.749091 234.669408 
L 224.977455 238.463089 
L 221.621503 240.384 
L 219.205818 241.674489 
L 216.165683 243.072 
L 213.434182 244.184075 
L 210.548364 245.131521 
L 207.662545 245.85104 
L 204.776727 246.355117 
L 201.890909 246.607808 
L 199.005091 246.607808 
L 196.119273 246.355117 
L 193.233455 245.85104 
L 193.233455 245.85104 
" style="fill:none;stroke:#008eb8;stroke-width:1.5;"/>
   </g>
   <g id="LineCollection_6">
    <path clip-path="url(#pd5e897a269)" d="M 169.662931 307.584 
L 170.146909 307.099228 
L 172.508275 304.896 
L 173.032727 304.363374 
L 175.339729 302.208 
L 175.918545 301.610244 
L 178.151509 299.52 
L 178.804364 298.831574 
L 180.934506 296.832 
L 181.690182 296.013383 
L 183.673533 294.144 
L 184.576 293.130025 
L 186.341258 291.456 
L 187.461818 290.128889 
L 188.88305 288.768 
L 190.347636 286.882321 
L 191.171524 286.08 
L 192.959453 283.392 
L 193.233455 282.472845 
L 194.019333 280.704 
L 193.731651 278.016 
L 193.233455 277.259769 
L 192.381362 275.328 
L 190.347636 272.811118 
L 190.243265 272.64 
L 187.867677 269.952 
L 187.461818 269.59981 
L 185.290169 267.264 
L 184.576 266.637941 
L 182.595022 264.576 
L 181.690182 263.777004 
L 179.832969 261.888 
L 178.804364 260.974525 
L 177.02952 259.2 
L 175.918545 258.208639 
L 174.198974 256.512 
L 173.032727 255.46689 
L 171.350015 253.824 
L 170.146909 252.741621 
L 168.488254 251.136 
L 167.261091 250.027839 
L 165.617502 248.448 
L 164.375273 247.322137 
L 162.740443 245.76 
L 161.489455 244.622103 
L 159.859021 243.072 
L 158.603636 241.925987 
L 156.974667 240.384 
L 155.717818 239.232497 
L 154.08844 237.696 
L 152.832 236.540678 
L 151.201114 235.008 
L 149.946182 233.849832 
L 148.313231 232.32 
L 147.060364 231.159471 
L 145.425138 229.632 
L 144.174545 228.469288 
L 142.537007 226.944 
L 141.288727 225.779134 
L 139.648845 224.256 
L 138.402909 223.089015 
L 136.760492 221.568 
L 135.517091 220.399091 
L 133.871619 218.88 
L 132.631273 217.709686 
L 130.9817 216.192 
L 129.745455 215.021306 
L 128.089988 213.504 
L 126.859636 212.33467 
L 125.195456 210.816 
L 123.973818 209.650765 
L 122.296719 208.128 
L 121.088 206.970923 
L 119.391896 205.44 
L 118.202182 204.296957 
L 116.478399 202.752 
L 115.316364 201.631366 
L 113.552568 200.064 
L 112.430545 198.977697 
L 110.609045 197.376 
L 109.544727 196.341181 
L 107.63961 194.688 
L 106.658909 193.729904 
L 104.630888 192 
L 103.773091 191.157185 
L 101.559405 189.312 
L 100.887273 188.646786 
L 98.379563 186.624 
L 98.001455 186.245962 
L 95.115636 184.033217 
L 94.931925 183.936 
L 92.229818 182.041683 
L 90.155885 181.248 
L 89.344 180.783955 
L 86.458182 180.515992 
L 84.559162 181.248 
L 83.572364 181.503219 
L 80.686545 183.168589 
L 79.825179 183.936 
L 77.800727 185.300191 
L 76.339686 186.624 
L 74.914909 187.667748 
L 73.117687 189.312 
L 72.029091 190.152604 
L 70.022135 192 
L 69.143273 192.703875 
L 66.996544 194.688 
L 66.257455 195.296103 
L 64.013383 197.376 
L 63.371636 197.915139 
L 61.057642 200.064 
L 60.485818 200.552502 
L 58.120448 202.752 
L 57.6 203.202802 
" style="fill:none;stroke:#0071c6;stroke-width:1.5;"/>
    <path clip-path="url(#pd5e897a269)" d="M 343.296 203.202802 
L 342.775552 202.752 
L 340.410182 200.552502 
L 339.838358 200.064 
L 337.524364 197.915139 
L 336.882617 197.376 
L 334.638545 195.296103 
L 333.899456 194.688 
L 331.752727 192.703875 
L 330.873865 192 
L 328.866909 190.152604 
L 327.778313 189.312 
L 325.981091 187.667748 
L 324.556314 186.624 
L 323.095273 185.300191 
L 321.070821 183.936 
L 320.209455 183.168589 
L 317.323636 181.503219 
L 316.336838 181.248 
L 314.437818 180.515992 
L 311.552 180.783955 
L 310.740115 181.248 
L 308.666182 182.041683 
L 305.964075 183.936 
L 305.780364 184.033217 
L 302.894545 186.245962 
L 302.516437 186.624 
L 300.008727 188.646786 
L 299.336595 189.312 
L 297.122909 191.157185 
L 296.265112 192 
L 294.237091 193.729904 
L 293.25639 194.688 
L 291.351273 196.341181 
L 290.286955 197.376 
L 288.465455 198.977697 
L 287.343432 200.064 
L 285.579636 201.631366 
L 284.417601 202.752 
L 282.693818 204.296957 
L 281.504104 205.44 
L 279.808 206.970923 
L 278.599281 208.128 
L 276.922182 209.650765 
L 275.700544 210.816 
L 274.036364 212.33467 
L 272.806012 213.504 
L 271.150545 215.021306 
L 269.9143 216.192 
L 268.264727 217.709686 
L 267.024381 218.88 
L 265.378909 220.399091 
L 264.135508 221.568 
L 262.493091 223.089015 
L 261.247155 224.256 
L 259.607273 225.779134 
L 258.358993 226.944 
L 256.721455 228.469288 
L 255.470862 229.632 
L 253.835636 231.159471 
L 252.582769 232.32 
L 250.949818 233.849832 
L 249.694886 235.008 
L 248.064 236.540678 
L 246.80756 237.696 
L 245.178182 239.232497 
L 243.921333 240.384 
L 242.292364 241.925987 
L 241.036979 243.072 
L 239.406545 244.622103 
L 238.155557 245.76 
L 236.520727 247.322137 
L 235.278498 248.448 
L 233.634909 250.027839 
L 232.407746 251.136 
L 230.749091 252.741621 
L 229.545985 253.824 
L 227.863273 255.46689 
L 226.697026 256.512 
L 224.977455 258.208639 
L 223.86648 259.2 
L 222.091636 260.974525 
L 221.063031 261.888 
L 219.205818 263.777004 
L 218.300978 264.576 
L 216.32 266.637941 
L 215.605831 267.264 
L 213.434182 269.59981 
L 213.028323 269.952 
L 210.652735 272.64 
L 210.548364 272.811118 
L 208.514638 275.328 
L 207.662545 277.259769 
L 207.164349 278.016 
L 206.876667 280.704 
L 207.662545 282.472845 
L 207.936547 283.392 
L 209.724476 286.08 
L 210.548364 286.882321 
L 212.01295 288.768 
L 213.434182 290.128889 
L 214.554742 291.456 
L 216.32 293.130025 
L 217.222467 294.144 
L 219.205818 296.013383 
L 219.961494 296.832 
L 222.091636 298.831574 
L 222.744491 299.52 
L 224.977455 301.610244 
L 225.556271 302.208 
L 227.863273 304.363374 
L 228.387725 304.896 
L 230.749091 307.099228 
L 231.233069 307.584 
" style="fill:none;stroke:#0071c6;stroke-width:1.5;"/>
    <path clip-path="url(#pd5e897a269)" d="M 57.6 145.853198 
L 58.120448 146.304 
L 60.485818 148.503498 
L 61.057642 148.992 
L 63.371636 151.140861 
L 64.013383 151.68 
L 66.257455 153.759897 
L 66.996544 154.368 
L 69.143273 156.352125 
L 70.022135 157.056 
L 72.029091 158.903396 
L 73.117687 159.744 
L 74.914909 161.388252 
L 76.339686 162.432 
L 77.800727 163.755809 
L 79.825179 165.12 
L 80.686545 165.887411 
L 83.572364 167.552781 
L 84.559162 167.808 
L 86.458182 168.540008 
L 89.344 168.272045 
L 90.155885 167.808 
L 92.229818 167.014317 
L 94.931925 165.12 
L 95.115636 165.022783 
L 98.001455 162.810038 
L 98.379563 162.432 
L 100.887273 160.409214 
L 101.559405 159.744 
L 103.773091 157.898815 
L 104.630888 157.056 
L 106.658909 155.326096 
L 107.63961 154.368 
L 109.544727 152.714819 
L 110.609045 151.68 
L 112.430545 150.078303 
L 113.552568 148.992 
L 115.316364 147.424634 
L 116.478399 146.304 
L 118.202182 144.759043 
L 119.391896 143.616 
L 121.088 142.085077 
L 122.296719 140.928 
L 123.973818 139.405235 
L 125.195456 138.24 
L 126.859636 136.72133 
L 128.089988 135.552 
L 129.745455 134.034694 
L 130.9817 132.864 
L 132.631273 131.346314 
L 133.871619 130.176 
L 135.517091 128.656909 
L 136.760492 127.488 
L 138.402909 125.966985 
L 139.648845 124.8 
L 141.288727 123.276866 
L 142.537007 122.112 
L 144.174545 120.586712 
L 145.425138 119.424 
L 147.060364 117.896529 
L 148.313231 116.736 
L 149.946182 115.206168 
L 151.201114 114.048 
L 152.832 112.515322 
L 154.08844 111.36 
L 155.717818 109.823503 
L 156.974667 108.672 
L 158.603636 107.130013 
L 159.859021 105.984 
L 161.489455 104.433897 
L 162.740443 103.296 
L 164.375273 101.733863 
L 165.617502 100.608 
L 167.261091 99.028161 
L 168.488254 97.92 
L 170.146909 96.314379 
L 171.350015 95.232 
L 173.032727 93.58911 
L 174.198974 92.544 
L 175.918545 90.847361 
L 177.02952 89.856 
L 178.804364 88.081475 
L 179.832969 87.168 
L 181.690182 85.278996 
L 182.595022 84.48 
L 184.576 82.418059 
L 185.290169 81.792 
L 187.461818 79.45619 
L 187.867677 79.104 
L 190.243265 76.416 
L 190.347636 76.244882 
L 192.381362 73.728 
L 193.233455 71.796231 
L 193.731651 71.04 
L 194.019333 68.352 
L 193.233455 66.583155 
L 192.959453 65.664 
L 191.171524 62.976 
L 190.347636 62.173679 
L 188.88305 60.288 
L 187.461818 58.927111 
L 186.341258 57.6 
L 184.576 55.925975 
L 183.673533 54.912 
L 181.690182 53.042617 
L 180.934506 52.224 
L 178.804364 50.224426 
L 178.151509 49.536 
L 175.918545 47.445756 
L 175.339729 46.848 
L 173.032727 44.692626 
L 172.508275 44.16 
L 170.146909 41.956772 
L 169.662931 41.472 
" style="fill:none;stroke:#0071c6;stroke-width:1.5;"/>
    <path clip-path="url(#pd5e897a269)" d="M 231.233069 41.472 
L 230.749091 41.956772 
L 228.387725 44.16 
L 227.863273 44.692626 
L 225.556271 46.848 
L 224.977455 47.445756 
L 222.744491 49.536 
L 222.091636 50.224426 
L 219.961494 52.224 
L 219.205818 53.042617 
L 217.222467 54.912 
L 216.32 55.925975 
L 214.554742 57.6 
L 213.434182 58.927111 
L 212.01295 60.288 
L 210.548364 62.173679 
L 209.724476 62.976 
L 207.936547 65.664 
L 207.662545 66.583155 
L 206.876667 68.352 
L 207.164349 71.04 
L 207.662545 71.796231 
L 208.514638 73.728 
L 210.548364 76.244882 
L 210.652735 76.416 
L 213.028323 79.104 
L 213.434182 79.45619 
L 215.605831 81.792 
L 216.32 82.418059 
L 218.300978 84.48 
L 219.205818 85.278996 
L 221.063031 87.168 
L 222.091636 88.081475 
L 223.86648 89.856 
L 224.977455 90.847361 
L 226.697026 92.544 
L 227.863273 93.58911 
L 229.545985 95.232 
L 230.749091 96.314379 
L 232.407746 97.92 
L 233.634909 99.028161 
L 235.278498 100.608 
L 236.520727 101.733863 
L 238.155557 103.296 
L 239.406545 104.433897 
L 241.036979 105.984 
L 242.292364 107.130013 
L 243.921333 108.672 
L 245.178182 109.823503 
L 246.80756 111.36 
L 248.064 112.515322 
L 249.694886 114.048 
L 250.949818 115.206168 
L 252.582769 116.736 
L 253.835636 117.896529 
L 255.470862 119.424 
L 256.721455 120.586712 
L 258.358993 122.112 
L 259.607273 123.276866 
L 261.247155 124.8 
L 262.493091 125.966985 
L 264.135508 127.488 
L 265.378909 128.656909 
L 267.024381 130.176 
L 268.264727 131.346314 
L 269.9143 132.864 
L 271.150545 134.034694 
L 272.806012 135.552 
L 274.036364 136.72133 
L 275.700544 138.24 
L 276.922182 139.405235 
L 278.599281 140.928 
L 279.808 142.085077 
L 281.504104 143.616 
L 282.693818 144.759043 
L 284.417601 146.304 
L 285.579636 147.424634 
L 287.343432 148.992 
L 288.465455 150.078303 
L 290.286955 151.68 
L 291.351273 152.714819 
L 293.25639 154.368 
L 294.237091 155.326096 
L 296.265112 157.056 
L 297.122909 157.898815 
L 299.336595 159.744 
L 300.008727 160.409214 
L 302.516437 162.432 
L 302.894545 162.810038 
L 305.780364 165.022783 
L 305.964075 165.12 
L 308.666182 167.014317 
L 310.740115 167.808 
L 311.552 168.272045 
L 314.437818 168.540008 
L 316.336838 167.808 
L 317.323636 167.552781 
L 320.209455 165.887411 
L 321.070821 165.12 
L 323.095273 163.755809 
L 324.556314 162.432 
L 325.981091 161.388252 
L 327.778313 159.744 
L 328.866909 158.903396 
L 330.873865 157.056 
L 331.752727 156.352125 
L 333.899456 154.368 
L 334.638545 153.759897 
L 336.882617 151.68 
L 337.524364 151.140861 
L 339.838358 148.992 
L 340.410182 148.503498 
L 342.775552 146.304 
L 343.296 145.853198 
" style="fill:none;stroke:#0071c6;stroke-width:1.5;"/>
   </g>
   <g id="LineCollection_7">
    <path clip-path="url(#pd5e897a269)" d="M 149.781249 307.584 
L 149.946182 307.373201 
L 151.908718 304.896 
L 152.832 303.628142 
L 153.886251 302.208 
L 155.692654 299.52 
L 155.717818 299.477868 
L 157.340038 296.832 
L 158.603636 294.456547 
L 158.775569 294.144 
L 160.018883 291.456 
L 161.017637 288.768 
L 161.489455 287.071271 
L 161.776732 286.08 
L 162.288354 283.392 
L 162.528643 280.704 
L 162.495869 278.016 
L 162.190204 275.328 
L 161.613738 272.64 
L 161.489455 272.244261 
L 160.80002 269.952 
L 159.741222 267.264 
L 158.603636 264.915034 
L 158.44516 264.576 
L 156.961266 261.888 
L 155.717818 259.921857 
L 155.273966 259.2 
L 153.4211 256.512 
L 152.832 255.735994 
L 151.411052 253.824 
L 149.946182 252.007345 
L 149.253706 251.136 
L 147.060364 248.560923 
L 146.964945 248.448 
L 144.555626 245.76 
L 144.174545 245.35525 
L 142.028237 243.072 
L 141.288727 242.316541 
L 139.387716 240.384 
L 138.402909 239.414973 
L 136.635818 237.696 
L 135.517091 236.634825 
L 133.770542 235.008 
L 132.631273 233.96596 
L 130.785795 232.32 
L 129.745455 231.4027 
L 127.670692 229.632 
L 126.859636 228.943182 
L 124.408355 226.944 
L 123.973818 226.589042 
L 121.088 224.344878 
L 120.966766 224.256 
L 118.202182 222.213008 
L 117.266711 221.568 
L 115.316364 220.203544 
L 113.26366 218.88 
L 112.430545 218.331282 
L 109.544727 216.605427 
L 108.769746 216.192 
L 106.658909 215.033788 
L 103.773091 213.651613 
L 103.409106 213.504 
L 100.887273 212.444394 
L 98.001455 211.458175 
L 95.540499 210.816 
L 95.115636 210.700236 
L 92.229818 210.163286 
L 89.344 209.878573 
L 86.458182 209.848046 
L 83.572364 210.071864 
L 80.686545 210.548415 
L 79.622324 210.816 
L 77.800727 211.255475 
L 74.914909 212.185766 
L 72.029091 213.343853 
L 71.693543 213.504 
L 69.143273 214.680981 
L 66.302687 216.192 
L 66.257455 216.215439 
L 63.371636 217.898017 
L 61.846982 218.88 
L 60.485818 219.739992 
L 57.826312 221.568 
L 57.6 221.721627 
" style="fill:none;stroke:#0055d4;stroke-width:1.5;"/>
    <path clip-path="url(#pd5e897a269)" d="M 343.296 221.721627 
L 343.069688 221.568 
L 340.410182 219.739992 
L 339.049018 218.88 
L 337.524364 217.898017 
L 334.638545 216.215439 
L 334.593313 216.192 
L 331.752727 214.680981 
L 329.202457 213.504 
L 328.866909 213.343853 
L 325.981091 212.185766 
L 323.095273 211.255475 
L 321.273676 210.816 
L 320.209455 210.548415 
L 317.323636 210.071864 
L 314.437818 209.848046 
L 311.552 209.878573 
L 308.666182 210.163286 
L 305.780364 210.700236 
L 305.355501 210.816 
L 302.894545 211.458175 
L 300.008727 212.444394 
L 297.486894 213.504 
L 297.122909 213.651613 
L 294.237091 215.033788 
L 292.126254 216.192 
L 291.351273 216.605427 
L 288.465455 218.331282 
L 287.63234 218.88 
L 285.579636 220.203544 
L 283.629289 221.568 
L 282.693818 222.213008 
L 279.929234 224.256 
L 279.808 224.344878 
L 276.922182 226.589042 
L 276.487645 226.944 
L 274.036364 228.943182 
L 273.225308 229.632 
L 271.150545 231.4027 
L 270.110205 232.32 
L 268.264727 233.96596 
L 267.125458 235.008 
L 265.378909 236.634825 
L 264.260182 237.696 
L 262.493091 239.414973 
L 261.508284 240.384 
L 259.607273 242.316541 
L 258.867763 243.072 
L 256.721455 245.35525 
L 256.340374 245.76 
L 253.931055 248.448 
L 253.835636 248.560923 
L 251.642294 251.136 
L 250.949818 252.007345 
L 249.484948 253.824 
L 248.064 255.735994 
L 247.4749 256.512 
L 245.622034 259.2 
L 245.178182 259.921857 
L 243.934734 261.888 
L 242.45084 264.576 
L 242.292364 264.915034 
L 241.154778 267.264 
L 240.09598 269.952 
L 239.406545 272.244261 
L 239.282262 272.64 
L 238.705796 275.328 
L 238.400131 278.016 
L 238.367357 280.704 
L 238.607646 283.392 
L 239.119268 286.08 
L 239.406545 287.071271 
L 239.878363 288.768 
L 240.877117 291.456 
L 242.120431 294.144 
L 242.292364 294.456547 
L 243.555962 296.832 
L 245.178182 299.477868 
L 245.203346 299.52 
L 247.009749 302.208 
L 248.064 303.628142 
L 248.987282 304.896 
L 250.949818 307.373201 
L 251.114751 307.584 
" style="fill:none;stroke:#0055d4;stroke-width:1.5;"/>
    <path clip-path="url(#pd5e897a269)" d="M 57.6 127.334373 
L 57.826312 127.488 
L 60.485818 129.316008 
L 61.846982 130.176 
L 63.371636 131.157983 
L 66.257455 132.840561 
L 66.302687 132.864 
L 69.143273 134.375019 
L 71.693543 135.552 
L 72.029091 135.712147 
L 74.914909 136.870234 
L 77.800727 137.800525 
L 79.622324 138.24 
L 80.686545 138.507585 
L 83.572364 138.984136 
L 86.458182 139.207954 
L 89.344 139.177427 
L 92.229818 138.892714 
L 95.115636 138.355764 
L 95.540499 138.24 
L 98.001455 137.597825 
L 100.887273 136.611606 
L 103.409106 135.552 
L 103.773091 135.404387 
L 106.658909 134.022212 
L 108.769746 132.864 
L 109.544727 132.450573 
L 112.430545 130.724718 
L 113.26366 130.176 
L 115.316364 128.852456 
L 117.266711 127.488 
L 118.202182 126.842992 
L 120.966766 124.8 
L 121.088 124.711122 
L 123.973818 122.466958 
L 124.408355 122.112 
L 126.859636 120.112818 
L 127.670692 119.424 
L 129.745455 117.6533 
L 130.785795 116.736 
L 132.631273 115.09004 
L 133.770542 114.048 
L 135.517091 112.421175 
L 136.635818 111.36 
L 138.402909 109.641027 
L 139.387716 108.672 
L 141.288727 106.739459 
L 142.028237 105.984 
L 144.174545 103.70075 
L 144.555626 103.296 
L 146.964945 100.608 
L 147.060364 100.495077 
L 149.253706 97.92 
L 149.946182 97.048655 
L 151.411052 95.232 
L 152.832 93.320006 
L 153.4211 92.544 
L 155.273966 89.856 
L 155.717818 89.134143 
L 156.961266 87.168 
L 158.44516 84.48 
L 158.603636 84.140966 
L 159.741222 81.792 
L 160.80002 79.104 
L 161.489455 76.811739 
L 161.613738 76.416 
L 162.190204 73.728 
L 162.495869 71.04 
L 162.528643 68.352 
L 162.288354 65.664 
L 161.776732 62.976 
L 161.489455 61.984729 
L 161.017637 60.288 
L 160.018883 57.6 
L 158.775569 54.912 
L 158.603636 54.599453 
L 157.340038 52.224 
L 155.717818 49.578132 
L 155.692654 49.536 
L 153.886251 46.848 
L 152.832 45.427858 
L 151.908718 44.16 
L 149.946182 41.682799 
L 149.781249 41.472 
" style="fill:none;stroke:#0055d4;stroke-width:1.5;"/>
    <path clip-path="url(#pd5e897a269)" d="M 251.114751 41.472 
L 250.949818 41.682799 
L 248.987282 44.16 
L 248.064 45.427858 
L 247.009749 46.848 
L 245.203346 49.536 
L 245.178182 49.578132 
L 243.555962 52.224 
L 242.292364 54.599453 
L 242.120431 54.912 
L 240.877117 57.6 
L 239.878363 60.288 
L 239.406545 61.984729 
L 239.119268 62.976 
L 238.607646 65.664 
L 238.367357 68.352 
L 238.400131 71.04 
L 238.705796 73.728 
L 239.282262 76.416 
L 239.406545 76.811739 
L 240.09598 79.104 
L 241.154778 81.792 
L 242.292364 84.140966 
L 242.45084 84.48 
L 243.934734 87.168 
L 245.178182 89.134143 
L 245.622034 89.856 
L 247.4749 92.544 
L 248.064 93.320006 
L 249.484948 95.232 
L 250.949818 97.048655 
L 251.642294 97.92 
L 253.835636 100.495077 
L 253.931055 100.608 
L 256.340374 103.296 
L 256.721455 103.70075 
L 258.867763 105.984 
L 259.607273 106.739459 
L 261.508284 108.672 
L 262.493091 109.641027 
L 264.260182 111.36 
L 265.378909 112.421175 
L 267.125458 114.048 
L 268.264727 115.09004 
L 270.110205 116.736 
L 271.150545 117.6533 
L 273.225308 119.424 
L 274.036364 120.112818 
L 276.487645 122.112 
L 276.922182 122.466958 
L 279.808 124.711122 
L 279.929234 124.8 
L 282.693818 126.842992 
L 283.629289 127.488 
L 285.579636 128.852456 
L 287.63234 130.176 
L 288.465455 130.724718 
L 291.351273 132.450573 
L 292.126254 132.864 
L 294.237091 134.022212 
L 297.122909 135.404387 
L 297.486894 135.552 
L 300.008727 136.611606 
L 302.894545 137.597825 
L 305.355501 138.24 
L 305.780364 138.355764 
L 308.666182 138.892714 
L 311.552 139.177427 
L 314.437818 139.207954 
L 317.323636 138.984136 
L 320.209455 138.507585 
L 321.273676 138.24 
L 323.095273 137.800525 
L 325.981091 136.870234 
L 328.866909 135.712147 
L 329.202457 135.552 
L 331.752727 134.375019 
L 334.593313 132.864 
L 334.638545 132.840561 
L 337.524364 131.157983 
L 339.049018 130.176 
L 340.410182 129.316008 
L 343.069688 127.488 
L 343.296 127.334373 
" style="fill:none;stroke:#0055d4;stroke-width:1.5;"/>
   </g>
   <g id="LineCollection_8">
    <path clip-path="url(#pd5e897a269)" d="M 131.655855 307.584 
L 132.631273 306.415814 
L 133.8655 304.896 
L 135.517091 302.684745 
L 135.865865 302.208 
L 137.647625 299.52 
L 138.402909 298.239063 
L 139.221017 296.832 
L 140.579189 294.144 
L 141.288727 292.477174 
L 141.720175 291.456 
L 142.635872 288.768 
L 143.325034 286.08 
L 143.783011 283.392 
L 144.006737 280.704 
L 143.99476 278.016 
L 143.747267 275.328 
L 143.266099 272.64 
L 142.554745 269.952 
L 141.618327 267.264 
L 141.288727 266.497533 
L 140.457696 264.576 
L 139.083142 261.888 
L 138.402909 260.729075 
L 137.494447 259.2 
L 135.703207 256.512 
L 135.517091 256.258671 
L 133.6945 253.824 
L 132.631273 252.515718 
L 131.48074 251.136 
L 129.745455 249.195369 
L 129.05466 248.448 
L 126.859636 246.209502 
L 126.400409 245.76 
L 123.973818 243.499748 
L 123.491236 243.072 
L 121.088 241.027442 
L 120.285629 240.384 
L 118.202182 238.767665 
L 116.720926 237.696 
L 115.316364 236.705655 
L 112.702518 235.008 
L 112.430545 234.834642 
L 109.544727 233.166189 
L 107.903122 232.32 
L 106.658909 231.686396 
L 103.773091 230.406065 
L 101.710146 229.632 
L 100.887273 229.324994 
L 98.001455 228.452766 
L 95.115636 227.790173 
L 92.229818 227.341989 
L 89.344 227.111462 
L 86.458182 227.100305 
L 83.572364 227.308695 
L 80.686545 227.735279 
L 77.800727 228.3772 
L 74.914909 229.230127 
L 73.818584 229.632 
L 72.029091 230.292901 
L 69.143273 231.557972 
L 67.632659 232.32 
L 66.257455 233.02351 
L 63.371636 234.683134 
L 62.859806 235.008 
L 60.485818 236.546377 
L 58.854157 237.696 
L 57.6 238.604555 
" style="fill:none;stroke:#0038e3;stroke-width:1.5;"/>
    <path clip-path="url(#pd5e897a269)" d="M 343.296 238.604555 
L 342.041843 237.696 
L 340.410182 236.546377 
L 338.036194 235.008 
L 337.524364 234.683134 
L 334.638545 233.02351 
L 333.263341 232.32 
L 331.752727 231.557972 
L 328.866909 230.292901 
L 327.077416 229.632 
L 325.981091 229.230127 
L 323.095273 228.3772 
L 320.209455 227.735279 
L 317.323636 227.308695 
L 314.437818 227.100305 
L 311.552 227.111462 
L 308.666182 227.341989 
L 305.780364 227.790173 
L 302.894545 228.452766 
L 300.008727 229.324994 
L 299.185854 229.632 
L 297.122909 230.406065 
L 294.237091 231.686396 
L 292.992878 232.32 
L 291.351273 233.166189 
L 288.465455 234.834642 
L 288.193482 235.008 
L 285.579636 236.705655 
L 284.175074 237.696 
L 282.693818 238.767665 
L 280.610371 240.384 
L 279.808 241.027442 
L 277.404764 243.072 
L 276.922182 243.499748 
L 274.495591 245.76 
L 274.036364 246.209502 
L 271.84134 248.448 
L 271.150545 249.195369 
L 269.41526 251.136 
L 268.264727 252.515718 
L 267.2015 253.824 
L 265.378909 256.258671 
L 265.192793 256.512 
L 263.401553 259.2 
L 262.493091 260.729075 
L 261.812858 261.888 
L 260.438304 264.576 
L 259.607273 266.497533 
L 259.277673 267.264 
L 258.341255 269.952 
L 257.629901 272.64 
L 257.148733 275.328 
L 256.90124 278.016 
L 256.889263 280.704 
L 257.112989 283.392 
L 257.570966 286.08 
L 258.260128 288.768 
L 259.175825 291.456 
L 259.607273 292.477174 
L 260.316811 294.144 
L 261.674983 296.832 
L 262.493091 298.239063 
L 263.248375 299.52 
L 265.030135 302.208 
L 265.378909 302.684745 
L 267.0305 304.896 
L 268.264727 306.415814 
L 269.240145 307.584 
" style="fill:none;stroke:#0038e3;stroke-width:1.5;"/>
    <path clip-path="url(#pd5e897a269)" d="M 57.6 110.451445 
L 58.854157 111.36 
L 60.485818 112.509623 
L 62.859806 114.048 
L 63.371636 114.372866 
L 66.257455 116.03249 
L 67.632659 116.736 
L 69.143273 117.498028 
L 72.029091 118.763099 
L 73.818584 119.424 
L 74.914909 119.825873 
L 77.800727 120.6788 
L 80.686545 121.320721 
L 83.572364 121.747305 
L 86.458182 121.955695 
L 89.344 121.944538 
L 92.229818 121.714011 
L 95.115636 121.265827 
L 98.001455 120.603234 
L 100.887273 119.731006 
L 101.710146 119.424 
L 103.773091 118.649935 
L 106.658909 117.369604 
L 107.903122 116.736 
L 109.544727 115.889811 
L 112.430545 114.221358 
L 112.702518 114.048 
L 115.316364 112.350345 
L 116.720926 111.36 
L 118.202182 110.288335 
L 120.285629 108.672 
L 121.088 108.028558 
L 123.491236 105.984 
L 123.973818 105.556252 
L 126.400409 103.296 
L 126.859636 102.846498 
L 129.05466 100.608 
L 129.745455 99.860631 
L 131.48074 97.92 
L 132.631273 96.540282 
L 133.6945 95.232 
L 135.517091 92.797329 
L 135.703207 92.544 
L 137.494447 89.856 
L 138.402909 88.326925 
L 139.083142 87.168 
L 140.457696 84.48 
L 141.288727 82.558467 
L 141.618327 81.792 
L 142.554745 79.104 
L 143.266099 76.416 
L 143.747267 73.728 
L 143.99476 71.04 
L 144.006737 68.352 
L 143.783011 65.664 
L 143.325034 62.976 
L 142.635872 60.288 
L 141.720175 57.6 
L 141.288727 56.578826 
L 140.579189 54.912 
L 139.221017 52.224 
L 138.402909 50.816937 
L 137.647625 49.536 
L 135.865865 46.848 
L 135.517091 46.371255 
L 133.8655 44.16 
L 132.631273 42.640186 
L 131.655855 41.472 
" style="fill:none;stroke:#0038e3;stroke-width:1.5;"/>
    <path clip-path="url(#pd5e897a269)" d="M 269.240145 41.472 
L 268.264727 42.640186 
L 267.0305 44.16 
L 265.378909 46.371255 
L 265.030135 46.848 
L 263.248375 49.536 
L 262.493091 50.816937 
L 261.674983 52.224 
L 260.316811 54.912 
L 259.607273 56.578826 
L 259.175825 57.6 
L 258.260128 60.288 
L 257.570966 62.976 
L 257.112989 65.664 
L 256.889263 68.352 
L 256.90124 71.04 
L 257.148733 73.728 
L 257.629901 76.416 
L 258.341255 79.104 
L 259.277673 81.792 
L 259.607273 82.558467 
L 260.438304 84.48 
L 261.812858 87.168 
L 262.493091 88.326925 
L 263.401553 89.856 
L 265.192793 92.544 
L 265.378909 92.797329 
L 267.2015 95.232 
L 268.264727 96.540282 
L 269.41526 97.92 
L 271.150545 99.860631 
L 271.84134 100.608 
L 274.036364 102.846498 
L 274.495591 103.296 
L 276.922182 105.556252 
L 277.404764 105.984 
L 279.808 108.028558 
L 280.610371 108.672 
L 282.693818 110.288335 
L 284.175074 111.36 
L 285.579636 112.350345 
L 288.193482 114.048 
L 288.465455 114.221358 
L 291.351273 115.889811 
L 292.992878 116.736 
L 294.237091 117.369604 
L 297.122909 118.649935 
L 299.185854 119.424 
L 300.008727 119.731006 
L 302.894545 120.603234 
L 305.780364 121.265827 
L 308.666182 121.714011 
L 311.552 121.944538 
L 314.437818 121.955695 
L 317.323636 121.747305 
L 320.209455 121.320721 
L 323.095273 120.6788 
L 325.981091 119.825873 
L 327.077416 119.424 
L 328.866909 118.763099 
L 331.752727 117.498028 
L 333.263341 116.736 
L 334.638545 116.03249 
L 337.524364 114.372866 
L 338.036194 114.048 
L 340.410182 112.509623 
L 342.041843 111.36 
L 343.296 110.451445 
" style="fill:none;stroke:#0038e3;stroke-width:1.5;"/>
   </g>
   <g id="LineCollection_9">
    <path clip-path="url(#pd5e897a269)" d="M 108.221776 307.584 
L 109.544727 306.689771 
L 111.899567 304.896 
L 112.430545 304.45654 
L 114.886496 302.208 
L 115.316364 301.773981 
L 117.365236 299.52 
L 118.202182 298.48602 
L 119.446679 296.832 
L 121.088 294.325173 
L 121.199481 294.144 
L 122.596026 291.456 
L 123.725186 288.768 
L 123.973818 287.98607 
L 124.548891 286.08 
L 125.093812 283.392 
L 125.369059 280.704 
L 125.373038 278.016 
L 125.106043 275.328 
L 124.570266 272.64 
L 123.973818 270.637683 
L 123.758937 269.952 
L 122.643359 267.264 
L 121.26352 264.576 
L 121.088 264.287634 
L 119.53695 261.888 
L 118.202182 260.090752 
L 117.492041 259.2 
L 115.316364 256.770171 
L 115.065098 256.512 
L 112.430545 254.058041 
L 112.153375 253.824 
L 109.544727 251.797462 
L 108.588422 251.136 
L 106.658909 249.892728 
L 104.082678 248.448 
L 103.773091 248.284512 
L 100.887273 246.999259 
L 98.001455 245.960152 
L 97.26531 245.76 
L 95.115636 245.204438 
L 92.229818 244.705388 
L 89.344 244.456694 
L 86.458182 244.4604 
L 83.572364 244.71678 
L 80.686545 245.224347 
L 78.640201 245.76 
L 77.800727 245.991589 
L 74.914909 247.043347 
L 72.029091 248.344161 
L 71.834585 248.448 
L 69.143273 249.976811 
L 67.367528 251.136 
L 66.257455 251.915574 
L 63.837596 253.824 
L 63.371636 254.224401 
L 60.95762 256.512 
L 60.485818 257.00658 
L 58.560038 259.2 
L 57.6 260.432265 
" style="fill:none;stroke:#001cf1;stroke-width:1.5;"/>
    <path clip-path="url(#pd5e897a269)" d="M 332.652047 307.584 
L 334.638545 306.204012 
L 336.317934 304.896 
L 337.524364 303.875866 
L 339.314973 302.208 
L 340.410182 301.084269 
L 341.814454 299.52 
L 343.296 297.669673 
" style="fill:none;stroke:#001cf1;stroke-width:1.5;"/>
    <path clip-path="url(#pd5e897a269)" d="M 57.6 297.669673 
L 59.081546 299.52 
L 60.485818 301.084269 
L 61.581027 302.208 
L 63.371636 303.875866 
L 64.578066 304.896 
L 66.257455 306.204012 
L 68.243953 307.584 
" style="fill:none;stroke:#001cf1;stroke-width:1.5;"/>
    <path clip-path="url(#pd5e897a269)" d="M 343.296 260.432265 
L 342.335962 259.2 
L 340.410182 257.00658 
L 339.93838 256.512 
L 337.524364 254.224401 
L 337.058404 253.824 
L 334.638545 251.915574 
L 333.528472 251.136 
L 331.752727 249.976811 
L 329.061415 248.448 
L 328.866909 248.344161 
L 325.981091 247.043347 
L 323.095273 245.991589 
L 322.255799 245.76 
L 320.209455 245.224347 
L 317.323636 244.71678 
L 314.437818 244.4604 
L 311.552 244.456694 
L 308.666182 244.705388 
L 305.780364 245.204438 
L 303.63069 245.76 
L 302.894545 245.960152 
L 300.008727 246.999259 
L 297.122909 248.284512 
L 296.813322 248.448 
L 294.237091 249.892728 
L 292.307578 251.136 
L 291.351273 251.797462 
L 288.742625 253.824 
L 288.465455 254.058041 
L 285.830902 256.512 
L 285.579636 256.770171 
L 283.403959 259.2 
L 282.693818 260.090752 
L 281.35905 261.888 
L 279.808 264.287634 
L 279.63248 264.576 
L 278.252641 267.264 
L 277.137063 269.952 
L 276.922182 270.637683 
L 276.325734 272.64 
L 275.789957 275.328 
L 275.522962 278.016 
L 275.526941 280.704 
L 275.802188 283.392 
L 276.347109 286.08 
L 276.922182 287.98607 
L 277.170814 288.768 
L 278.299974 291.456 
L 279.696519 294.144 
L 279.808 294.325173 
L 281.449321 296.832 
L 282.693818 298.48602 
L 283.530764 299.52 
L 285.579636 301.773981 
L 286.009504 302.208 
L 288.465455 304.45654 
L 288.996433 304.896 
L 291.351273 306.689771 
L 292.674224 307.584 
" style="fill:none;stroke:#001cf1;stroke-width:1.5;"/>
    <path clip-path="url(#pd5e897a269)" d="M 57.6 88.623735 
L 58.560038 89.856 
L 60.485818 92.04942 
L 60.95762 92.544 
L 63.371636 94.831599 
L 63.837596 95.232 
L 66.257455 97.140426 
L 67.367528 97.92 
L 69.143273 99.079189 
L 71.834585 100.608 
L 72.029091 100.711839 
L 74.914909 102.012653 
L 77.800727 103.064411 
L 78.640201 103.296 
L 80.686545 103.831653 
L 83.572364 104.33922 
L 86.458182 104.5956 
L 89.344 104.599306 
L 92.229818 104.350612 
L 95.115636 103.851562 
L 97.26531 103.296 
L 98.001455 103.095848 
L 100.887273 102.056741 
L 103.773091 100.771488 
L 104.082678 100.608 
L 106.658909 99.163272 
L 108.588422 97.92 
L 109.544727 97.258538 
L 112.153375 95.232 
L 112.430545 94.997959 
L 115.065098 92.544 
L 115.316364 92.285829 
L 117.492041 89.856 
L 118.202182 88.965248 
L 119.53695 87.168 
L 121.088 84.768366 
L 121.26352 84.48 
L 122.643359 81.792 
L 123.758937 79.104 
L 123.973818 78.418317 
L 124.570266 76.416 
L 125.106043 73.728 
L 125.373038 71.04 
L 125.369059 68.352 
L 125.093812 65.664 
L 124.548891 62.976 
L 123.973818 61.06993 
L 123.725186 60.288 
L 122.596026 57.6 
L 121.199481 54.912 
L 121.088 54.730827 
L 119.446679 52.224 
L 118.202182 50.56998 
L 117.365236 49.536 
L 115.316364 47.282019 
L 114.886496 46.848 
L 112.430545 44.59946 
L 111.899567 44.16 
L 109.544727 42.366229 
L 108.221776 41.472 
" style="fill:none;stroke:#001cf1;stroke-width:1.5;"/>
    <path clip-path="url(#pd5e897a269)" d="M 343.296 51.386327 
L 341.814454 49.536 
L 340.410182 47.971731 
L 339.314973 46.848 
L 337.524364 45.180134 
L 336.317934 44.16 
L 334.638545 42.851988 
L 332.652047 41.472 
" style="fill:none;stroke:#001cf1;stroke-width:1.5;"/>
    <path clip-path="url(#pd5e897a269)" d="M 68.243953 41.472 
L 66.257455 42.851988 
L 64.578066 44.16 
L 63.371636 45.180134 
L 61.581027 46.848 
L 60.485818 47.971731 
L 59.081546 49.536 
L 57.6 51.386327 
" style="fill:none;stroke:#001cf1;stroke-width:1.5;"/>
    <path clip-path="url(#pd5e897a269)" d="M 292.674224 41.472 
L 291.351273 42.366229 
L 288.996433 44.16 
L 288.465455 44.59946 
L 286.009504 46.848 
L 285.579636 47.282019 
L 283.530764 49.536 
L 282.693818 50.56998 
L 281.449321 52.224 
L 279.808 54.730827 
L 279.696519 54.912 
L 278.299974 57.6 
L 277.170814 60.288 
L 276.922182 61.06993 
L 276.347109 62.976 
L 275.802188 65.664 
L 275.526941 68.352 
L 275.522962 71.04 
L 275.789957 73.728 
L 276.325734 76.416 
L 276.922182 78.418317 
L 277.137063 79.104 
L 278.252641 81.792 
L 279.63248 84.48 
L 279.808 84.768366 
L 281.35905 87.168 
L 282.693818 88.965248 
L 283.403959 89.856 
L 285.579636 92.285829 
L 285.830902 92.544 
L 288.465455 94.997959 
L 288.742625 95.232 
L 291.351273 97.258538 
L 292.307578 97.92 
L 294.237091 99.163272 
L 296.813322 100.608 
L 297.122909 100.771488 
L 300.008727 102.056741 
L 302.894545 103.095848 
L 303.63069 103.296 
L 305.780364 103.851562 
L 308.666182 104.350612 
L 311.552 104.599306 
L 314.437818 104.5956 
L 317.323636 104.33922 
L 320.209455 103.831653 
L 322.255799 103.296 
L 323.095273 103.064411 
L 325.981091 102.012653 
L 328.866909 100.711839 
L 329.061415 100.608 
L 331.752727 99.079189 
L 333.528472 97.92 
L 334.638545 97.140426 
L 337.058404 95.232 
L 337.524364 94.831599 
L 339.93838 92.544 
L 340.410182 92.04942 
L 342.335962 89.856 
L 343.296 88.623735 
" style="fill:none;stroke:#001cf1;stroke-width:1.5;"/>
   </g>
   <g id="LineCollection_10"/>
   <g id="patch_3">
    <path d="M 57.6 307.584 
L 57.6 41.472 
" style="fill:none;stroke:#000000;stroke-linecap:square;stroke-linejoin:miter;stroke-width:0.8;"/>
   </g>
   <g id="patch_4">
    <path d="M 343.296 307.584 
L 343.296 41.472 
" style="fill:none;stroke:#000000;stroke-linecap:square;stroke-linejoin:miter;stroke-width:0.8;"/>
   </g>
   <g id="patch_5">
    <path d="M 57.6 307.584 
L 343.296 307.584 
" style="fill:none;stroke:#000000;stroke-linecap:square;stroke-linejoin:miter;stroke-width:0.8;"/>
   </g>
   <g id="patch_6">
    <path d="M 57.6 41.472 
L 343.296 41.472 
" style="fill:none;stroke:#000000;stroke-linecap:square;stroke-linejoin:miter;stroke-width:0.8;"/>
   </g>
  </g>
  <g id="axes_2">
   <g id="patch_7">
    <path clip-path="url(#pb123468bd7)" d="M 361.152 307.584 
L 361.152 278.016 
L 361.152 71.04 
L 361.152 41.472 
L 374.4576 41.472 
L 374.4576 71.04 
L 374.4576 278.016 
L 374.4576 307.584 
z
" style="fill:#ffffff;stroke:#ffffff;stroke-linejoin:miter;stroke-width:0.01;"/>
   </g>
   <g id="matplotlib.axis_3"/>
   <g id="matplotlib.axis_4">
    <g id="ytick_10">
     <g id="line2d_19">
      <defs>
       <path d="M 0 0 
L 3.5 0 
" id="m9eb827f3d8" style="stroke:#000000;stroke-width:0.8;"/>
      </defs>
      <g>
       <use style="stroke:#000000;stroke-width:0.8;" x="374.4576" xlink:href="#m9eb827f3d8" y="307.584"/>
      </g>
     </g>
     <g id="text_19">
      <!-- 0.75 -->
      <defs>
       <path d="M 8.203125 72.90625 
L 55.078125 72.90625 
L 55.078125 68.703125 
L 28.609375 0 
L 18.3125 0 
L 43.21875 64.59375 
L 8.203125 64.59375 
z
" id="DejaVuSans-55"/>
      </defs>
      <g transform="translate(381.4576 311.383219)scale(0.1 -0.1)">
       <use xlink:href="#DejaVuSans-48"/>
       <use x="63.623047" xlink:href="#DejaVuSans-46"/>
       <use x="95.410156" xlink:href="#DejaVuSans-55"/>
       <use x="159.033203" xlink:href="#DejaVuSans-53"/>
      </g>
     </g>
    </g>
    <g id="ytick_11">
     <g id="line2d_20">
      <g>
       <use style="stroke:#000000;stroke-width:0.8;" x="374.4576" xlink:href="#m9eb827f3d8" y="278.016"/>
      </g>
     </g>
     <g id="text_20">
      <!-- 1.00 -->
      <g transform="translate(381.4576 281.815219)scale(0.1 -0.1)">
       <use xlink:href="#DejaVuSans-49"/>
       <use x="63.623047" xlink:href="#DejaVuSans-46"/>
       <use x="95.410156" xlink:href="#DejaVuSans-48"/>
       <use x="159.033203" xlink:href="#DejaVuSans-48"/>
      </g>
     </g>
    </g>
    <g id="ytick_12">
     <g id="line2d_21">
      <g>
       <use style="stroke:#000000;stroke-width:0.8;" x="374.4576" xlink:href="#m9eb827f3d8" y="248.448"/>
      </g>
     </g>
     <g id="text_21">
      <!-- 1.25 -->
      <g transform="translate(381.4576 252.247219)scale(0.1 -0.1)">
       <use xlink:href="#DejaVuSans-49"/>
       <use x="63.623047" xlink:href="#DejaVuSans-46"/>
       <use x="95.410156" xlink:href="#DejaVuSans-50"/>
       <use x="159.033203" xlink:href="#DejaVuSans-53"/>
      </g>
     </g>
    </g>
    <g id="ytick_13">
     <g id="line2d_22">
      <g>
       <use style="stroke:#000000;stroke-width:0.8;" x="374.4576" xlink:href="#m9eb827f3d8" y="218.88"/>
      </g>
     </g>
     <g id="text_22">
      <!-- 1.50 -->
      <g transform="translate(381.4576 222.679219)scale(0.1 -0.1)">
       <use xlink:href="#DejaVuSans-49"/>
       <use x="63.623047" xlink:href="#DejaVuSans-46"/>
       <use x="95.410156" xlink:href="#DejaVuSans-53"/>
       <use x="159.033203" xlink:href="#DejaVuSans-48"/>
      </g>
     </g>
    </g>
    <g id="ytick_14">
     <g id="line2d_23">
      <g>
       <use style="stroke:#000000;stroke-width:0.8;" x="374.4576" xlink:href="#m9eb827f3d8" y="189.312"/>
      </g>
     </g>
     <g id="text_23">
      <!-- 1.75 -->
      <g transform="translate(381.4576 193.111219)scale(0.1 -0.1)">
       <use xlink:href="#DejaVuSans-49"/>
       <use x="63.623047" xlink:href="#DejaVuSans-46"/>
       <use x="95.410156" xlink:href="#DejaVuSans-55"/>
       <use x="159.033203" xlink:href="#DejaVuSans-53"/>
      </g>
     </g>
    </g>
    <g id="ytick_15">
     <g id="line2d_24">
      <g>
       <use style="stroke:#000000;stroke-width:0.8;" x="374.4576" xlink:href="#m9eb827f3d8" y="159.744"/>
      </g>
     </g>
     <g id="text_24">
      <!-- 2.00 -->
      <g transform="translate(381.4576 163.543219)scale(0.1 -0.1)">
       <use xlink:href="#DejaVuSans-50"/>
       <use x="63.623047" xlink:href="#DejaVuSans-46"/>
       <use x="95.410156" xlink:href="#DejaVuSans-48"/>
       <use x="159.033203" xlink:href="#DejaVuSans-48"/>
      </g>
     </g>
    </g>
    <g id="ytick_16">
     <g id="line2d_25">
      <g>
       <use style="stroke:#000000;stroke-width:0.8;" x="374.4576" xlink:href="#m9eb827f3d8" y="130.176"/>
      </g>
     </g>
     <g id="text_25">
      <!-- 2.25 -->
      <g transform="translate(381.4576 133.975219)scale(0.1 -0.1)">
       <use xlink:href="#DejaVuSans-50"/>
       <use x="63.623047" xlink:href="#DejaVuSans-46"/>
       <use x="95.410156" xlink:href="#DejaVuSans-50"/>
       <use x="159.033203" xlink:href="#DejaVuSans-53"/>
      </g>
     </g>
    </g>
    <g id="ytick_17">
     <g id="line2d_26">
      <g>
       <use style="stroke:#000000;stroke-width:0.8;" x="374.4576" xlink:href="#m9eb827f3d8" y="100.608"/>
      </g>
     </g>
     <g id="text_26">
      <!-- 2.50 -->
      <g transform="translate(381.4576 104.407219)scale(0.1 -0.1)">
       <use xlink:href="#DejaVuSans-50"/>
       <use x="63.623047" xlink:href="#DejaVuSans-46"/>
       <use x="95.410156" xlink:href="#DejaVuSans-53"/>
       <use x="159.033203" xlink:href="#DejaVuSans-48"/>
      </g>
     </g>
    </g>
    <g id="ytick_18">
     <g id="line2d_27">
      <g>
       <use style="stroke:#000000;stroke-width:0.8;" x="374.4576" xlink:href="#m9eb827f3d8" y="71.04"/>
      </g>
     </g>
     <g id="text_27">
      <!-- 2.75 -->
      <g transform="translate(381.4576 74.839219)scale(0.1 -0.1)">
       <use xlink:href="#DejaVuSans-50"/>
       <use x="63.623047" xlink:href="#DejaVuSans-46"/>
       <use x="95.410156" xlink:href="#DejaVuSans-55"/>
       <use x="159.033203" xlink:href="#DejaVuSans-53"/>
      </g>
     </g>
    </g>
    <g id="ytick_19">
     <g id="line2d_28">
      <g>
       <use style="stroke:#000000;stroke-width:0.8;" x="374.4576" xlink:href="#m9eb827f3d8" y="41.472"/>
      </g>
     </g>
     <g id="text_28">
      <!-- 3.00 -->
      <defs>
       <path d="M 40.578125 39.3125 
Q 47.65625 37.796875 51.625 33 
Q 55.609375 28.21875 55.609375 21.1875 
Q 55.609375 10.40625 48.1875 4.484375 
Q 40.765625 -1.421875 27.09375 -1.421875 
Q 22.515625 -1.421875 17.65625 -0.515625 
Q 12.796875 0.390625 7.625 2.203125 
L 7.625 11.71875 
Q 11.71875 9.328125 16.59375 8.109375 
Q 21.484375 6.890625 26.8125 6.890625 
Q 36.078125 6.890625 40.9375 10.546875 
Q 45.796875 14.203125 45.796875 21.1875 
Q 45.796875 27.640625 41.28125 31.265625 
Q 36.765625 34.90625 28.71875 34.90625 
L 20.21875 34.90625 
L 20.21875 43.015625 
L 29.109375 43.015625 
Q 36.375 43.015625 40.234375 45.921875 
Q 44.09375 48.828125 44.09375 54.296875 
Q 44.09375 59.90625 40.109375 62.90625 
Q 36.140625 65.921875 28.71875 65.921875 
Q 24.65625 65.921875 20.015625 65.03125 
Q 15.375 64.15625 9.8125 62.3125 
L 9.8125 71.09375 
Q 15.4375 72.65625 20.34375 73.4375 
Q 25.25 74.21875 29.59375 74.21875 
Q 40.828125 74.21875 47.359375 69.109375 
Q 53.90625 64.015625 53.90625 55.328125 
Q 53.90625 49.265625 50.4375 45.09375 
Q 46.96875 40.921875 40.578125 39.3125 
z
" id="DejaVuSans-51"/>
      </defs>
      <g transform="translate(381.4576 45.271219)scale(0.1 -0.1)">
       <use xlink:href="#DejaVuSans-51"/>
       <use x="63.623047" xlink:href="#DejaVuSans-46"/>
       <use x="95.410156" xlink:href="#DejaVuSans-48"/>
       <use x="159.033203" xlink:href="#DejaVuSans-48"/>
      </g>
     </g>
    </g>
   </g>
   <g id="LineCollection_11">
    <path clip-path="url(#pb123468bd7)" d="M 361.152 307.584 
L 374.4576 307.584 
" style="fill:none;stroke:#00ff80;stroke-width:1.5;"/>
    <path clip-path="url(#pb123468bd7)" d="M 361.152 278.016 
L 374.4576 278.016 
" style="fill:none;stroke:#00e38e;stroke-width:1.5;"/>
    <path clip-path="url(#pb123468bd7)" d="M 361.152 248.448 
L 374.4576 248.448 
" style="fill:none;stroke:#00c79c;stroke-width:1.5;"/>
    <path clip-path="url(#pb123468bd7)" d="M 361.152 218.88 
L 374.4576 218.88 
" style="fill:none;stroke:#00aaaa;stroke-width:1.5;"/>
    <path clip-path="url(#pb123468bd7)" d="M 361.152 189.312 
L 374.4576 189.312 
" style="fill:none;stroke:#008eb8;stroke-width:1.5;"/>
    <path clip-path="url(#pb123468bd7)" d="M 361.152 159.744 
L 374.4576 159.744 
" style="fill:none;stroke:#0071c6;stroke-width:1.5;"/>
    <path clip-path="url(#pb123468bd7)" d="M 361.152 130.176 
L 374.4576 130.176 
" style="fill:none;stroke:#0055d4;stroke-width:1.5;"/>
    <path clip-path="url(#pb123468bd7)" d="M 361.152 100.608 
L 374.4576 100.608 
" style="fill:none;stroke:#0038e3;stroke-width:1.5;"/>
    <path clip-path="url(#pb123468bd7)" d="M 361.152 71.04 
L 374.4576 71.04 
" style="fill:none;stroke:#001cf1;stroke-width:1.5;"/>
    <path clip-path="url(#pb123468bd7)" d="M 361.152 41.472 
L 374.4576 41.472 
" style="fill:none;stroke:#0000ff;stroke-width:1.5;"/>
   </g>
   <g id="patch_8">
    <path d="M 361.152 307.584 
L 361.152 278.016 
L 361.152 71.04 
L 361.152 41.472 
L 374.4576 41.472 
L 374.4576 71.04 
L 374.4576 278.016 
L 374.4576 307.584 
z
" style="fill:none;stroke:#000000;stroke-linejoin:miter;stroke-width:0.8;"/>
   </g>
  </g>
 </g>
 <defs>
  <clipPath id="pd5e897a269">
   <rect height="266.112" width="285.696" x="57.6" y="41.472"/>
  </clipPath>
  <clipPath id="pb123468bd7">
   <rect height="266.112" width="13.3056" x="361.152" y="41.472"/>
  </clipPath>
 </defs>
</svg>
