<?xml version="1.0" encoding="utf-8" standalone="no"?>
<!DOCTYPE svg PUBLIC "-//W3C//DTD SVG 1.1//EN"
  "http://www.w3.org/Graphics/SVG/1.1/DTD/svg11.dtd">
<!-- Created with matplotlib (https://matplotlib.org/) -->
<svg height="345.6pt" version="1.1" viewBox="0 0 460.8 345.6" width="460.8pt" xmlns="http://www.w3.org/2000/svg" xmlns:xlink="http://www.w3.org/1999/xlink">
 <defs>
  <style type="text/css">
*{stroke-linecap:butt;stroke-linejoin:round;}
  </style>
 </defs>
 <g id="figure_1">
  <g id="patch_1">
   <path d="M 0 345.6 
L 460.8 345.6 
L 460.8 0 
L 0 0 
z
" style="fill:#ffffff;"/>
  </g>
  <g id="axes_1">
   <g id="patch_2">
    <path d="M 57.6 307.584 
L 343.296 307.584 
L 343.296 41.472 
L 57.6 41.472 
z
" style="fill:#ffffff;"/>
   </g>
   <g id="matplotlib.axis_1">
    <g id="xtick_1">
     <g id="line2d_1">
      <defs>
       <path d="M 0 0 
L 0 3.5 
" id="m55860084a9" style="stroke:#000000;stroke-width:0.8;"/>
      </defs>
      <g>
       <use style="stroke:#000000;stroke-width:0.8;" x="57.6" xlink:href="#m55860084a9" y="307.584"/>
      </g>
     </g>
     <g id="text_1">
      <!-- −2.0 -->
      <defs>
       <path d="M 10.59375 35.5 
L 73.1875 35.5 
L 73.1875 27.203125 
L 10.59375 27.203125 
z
" id="DejaVuSans-8722"/>
       <path d="M 19.1875 8.296875 
L 53.609375 8.296875 
L 53.609375 0 
L 7.328125 0 
L 7.328125 8.296875 
Q 12.9375 14.109375 22.625 23.890625 
Q 32.328125 33.6875 34.8125 36.53125 
Q 39.546875 41.84375 41.421875 45.53125 
Q 43.3125 49.21875 43.3125 52.78125 
Q 43.3125 58.59375 39.234375 62.25 
Q 35.15625 65.921875 28.609375 65.921875 
Q 23.96875 65.921875 18.8125 64.3125 
Q 13.671875 62.703125 7.8125 59.421875 
L 7.8125 69.390625 
Q 13.765625 71.78125 18.9375 73 
Q 24.125 74.21875 28.421875 74.21875 
Q 39.75 74.21875 46.484375 68.546875 
Q 53.21875 62.890625 53.21875 53.421875 
Q 53.21875 48.921875 51.53125 44.890625 
Q 49.859375 40.875 45.40625 35.40625 
Q 44.1875 33.984375 37.640625 27.21875 
Q 31.109375 20.453125 19.1875 8.296875 
z
" id="DejaVuSans-50"/>
       <path d="M 10.6875 12.40625 
L 21 12.40625 
L 21 0 
L 10.6875 0 
z
" id="DejaVuSans-46"/>
       <path d="M 31.78125 66.40625 
Q 24.171875 66.40625 20.328125 58.90625 
Q 16.5 51.421875 16.5 36.375 
Q 16.5 21.390625 20.328125 13.890625 
Q 24.171875 6.390625 31.78125 6.390625 
Q 39.453125 6.390625 43.28125 13.890625 
Q 47.125 21.390625 47.125 36.375 
Q 47.125 51.421875 43.28125 58.90625 
Q 39.453125 66.40625 31.78125 66.40625 
z
M 31.78125 74.21875 
Q 44.046875 74.21875 50.515625 64.515625 
Q 56.984375 54.828125 56.984375 36.375 
Q 56.984375 17.96875 50.515625 8.265625 
Q 44.046875 -1.421875 31.78125 -1.421875 
Q 19.53125 -1.421875 13.0625 8.265625 
Q 6.59375 17.96875 6.59375 36.375 
Q 6.59375 54.828125 13.0625 64.515625 
Q 19.53125 74.21875 31.78125 74.21875 
z
" id="DejaVuSans-48"/>
      </defs>
      <g transform="translate(45.458594 322.182437)scale(0.1 -0.1)">
       <use xlink:href="#DejaVuSans-8722"/>
       <use x="83.789062" xlink:href="#DejaVuSans-50"/>
       <use x="147.412109" xlink:href="#DejaVuSans-46"/>
       <use x="179.199219" xlink:href="#DejaVuSans-48"/>
      </g>
     </g>
    </g>
    <g id="xtick_2">
     <g id="line2d_2">
      <g>
       <use style="stroke:#000000;stroke-width:0.8;" x="93.312" xlink:href="#m55860084a9" y="307.584"/>
      </g>
     </g>
     <g id="text_2">
      <!-- −1.5 -->
      <defs>
       <path d="M 12.40625 8.296875 
L 28.515625 8.296875 
L 28.515625 63.921875 
L 10.984375 60.40625 
L 10.984375 69.390625 
L 28.421875 72.90625 
L 38.28125 72.90625 
L 38.28125 8.296875 
L 54.390625 8.296875 
L 54.390625 0 
L 12.40625 0 
z
" id="DejaVuSans-49"/>
       <path d="M 10.796875 72.90625 
L 49.515625 72.90625 
L 49.515625 64.59375 
L 19.828125 64.59375 
L 19.828125 46.734375 
Q 21.96875 47.46875 24.109375 47.828125 
Q 26.265625 48.1875 28.421875 48.1875 
Q 40.625 48.1875 47.75 41.5 
Q 54.890625 34.8125 54.890625 23.390625 
Q 54.890625 11.625 47.5625 5.09375 
Q 40.234375 -1.421875 26.90625 -1.421875 
Q 22.3125 -1.421875 17.546875 -0.640625 
Q 12.796875 0.140625 7.71875 1.703125 
L 7.71875 11.625 
Q 12.109375 9.234375 16.796875 8.0625 
Q 21.484375 6.890625 26.703125 6.890625 
Q 35.15625 6.890625 40.078125 11.328125 
Q 45.015625 15.765625 45.015625 23.390625 
Q 45.015625 31 40.078125 35.4375 
Q 35.15625 39.890625 26.703125 39.890625 
Q 22.75 39.890625 18.8125 39.015625 
Q 14.890625 38.140625 10.796875 36.28125 
z
" id="DejaVuSans-53"/>
      </defs>
      <g transform="translate(81.170594 322.182437)scale(0.1 -0.1)">
       <use xlink:href="#DejaVuSans-8722"/>
       <use x="83.789062" xlink:href="#DejaVuSans-49"/>
       <use x="147.412109" xlink:href="#DejaVuSans-46"/>
       <use x="179.199219" xlink:href="#DejaVuSans-53"/>
      </g>
     </g>
    </g>
    <g id="xtick_3">
     <g id="line2d_3">
      <g>
       <use style="stroke:#000000;stroke-width:0.8;" x="129.024" xlink:href="#m55860084a9" y="307.584"/>
      </g>
     </g>
     <g id="text_3">
      <!-- −1.0 -->
      <g transform="translate(116.882594 322.182437)scale(0.1 -0.1)">
       <use xlink:href="#DejaVuSans-8722"/>
       <use x="83.789062" xlink:href="#DejaVuSans-49"/>
       <use x="147.412109" xlink:href="#DejaVuSans-46"/>
       <use x="179.199219" xlink:href="#DejaVuSans-48"/>
      </g>
     </g>
    </g>
    <g id="xtick_4">
     <g id="line2d_4">
      <g>
       <use style="stroke:#000000;stroke-width:0.8;" x="164.736" xlink:href="#m55860084a9" y="307.584"/>
      </g>
     </g>
     <g id="text_4">
      <!-- −0.5 -->
      <g transform="translate(152.594594 322.182437)scale(0.1 -0.1)">
       <use xlink:href="#DejaVuSans-8722"/>
       <use x="83.789062" xlink:href="#DejaVuSans-48"/>
       <use x="147.412109" xlink:href="#DejaVuSans-46"/>
       <use x="179.199219" xlink:href="#DejaVuSans-53"/>
      </g>
     </g>
    </g>
    <g id="xtick_5">
     <g id="line2d_5">
      <g>
       <use style="stroke:#000000;stroke-width:0.8;" x="200.448" xlink:href="#m55860084a9" y="307.584"/>
      </g>
     </g>
     <g id="text_5">
      <!-- 0.0 -->
      <g transform="translate(192.496438 322.182437)scale(0.1 -0.1)">
       <use xlink:href="#DejaVuSans-48"/>
       <use x="63.623047" xlink:href="#DejaVuSans-46"/>
       <use x="95.410156" xlink:href="#DejaVuSans-48"/>
      </g>
     </g>
    </g>
    <g id="xtick_6">
     <g id="line2d_6">
      <g>
       <use style="stroke:#000000;stroke-width:0.8;" x="236.16" xlink:href="#m55860084a9" y="307.584"/>
      </g>
     </g>
     <g id="text_6">
      <!-- 0.5 -->
      <g transform="translate(228.208438 322.182437)scale(0.1 -0.1)">
       <use xlink:href="#DejaVuSans-48"/>
       <use x="63.623047" xlink:href="#DejaVuSans-46"/>
       <use x="95.410156" xlink:href="#DejaVuSans-53"/>
      </g>
     </g>
    </g>
    <g id="xtick_7">
     <g id="line2d_7">
      <g>
       <use style="stroke:#000000;stroke-width:0.8;" x="271.872" xlink:href="#m55860084a9" y="307.584"/>
      </g>
     </g>
     <g id="text_7">
      <!-- 1.0 -->
      <g transform="translate(263.920437 322.182437)scale(0.1 -0.1)">
       <use xlink:href="#DejaVuSans-49"/>
       <use x="63.623047" xlink:href="#DejaVuSans-46"/>
       <use x="95.410156" xlink:href="#DejaVuSans-48"/>
      </g>
     </g>
    </g>
    <g id="xtick_8">
     <g id="line2d_8">
      <g>
       <use style="stroke:#000000;stroke-width:0.8;" x="307.584" xlink:href="#m55860084a9" y="307.584"/>
      </g>
     </g>
     <g id="text_8">
      <!-- 1.5 -->
      <g transform="translate(299.632437 322.182437)scale(0.1 -0.1)">
       <use xlink:href="#DejaVuSans-49"/>
       <use x="63.623047" xlink:href="#DejaVuSans-46"/>
       <use x="95.410156" xlink:href="#DejaVuSans-53"/>
      </g>
     </g>
    </g>
    <g id="xtick_9">
     <g id="line2d_9">
      <g>
       <use style="stroke:#000000;stroke-width:0.8;" x="343.296" xlink:href="#m55860084a9" y="307.584"/>
      </g>
     </g>
     <g id="text_9">
      <!-- 2.0 -->
      <g transform="translate(335.344438 322.182437)scale(0.1 -0.1)">
       <use xlink:href="#DejaVuSans-50"/>
       <use x="63.623047" xlink:href="#DejaVuSans-46"/>
       <use x="95.410156" xlink:href="#DejaVuSans-48"/>
      </g>
     </g>
    </g>
   </g>
   <g id="matplotlib.axis_2">
    <g id="ytick_1">
     <g id="line2d_10">
      <defs>
       <path d="M 0 0 
L -3.5 0 
" id="mcbea5b6dbf" style="stroke:#000000;stroke-width:0.8;"/>
      </defs>
      <g>
       <use style="stroke:#000000;stroke-width:0.8;" x="57.6" xlink:href="#mcbea5b6dbf" y="307.584"/>
      </g>
     </g>
     <g id="text_10">
      <!-- −2.0 -->
      <g transform="translate(26.317187 311.383219)scale(0.1 -0.1)">
       <use xlink:href="#DejaVuSans-8722"/>
       <use x="83.789062" xlink:href="#DejaVuSans-50"/>
       <use x="147.412109" xlink:href="#DejaVuSans-46"/>
       <use x="179.199219" xlink:href="#DejaVuSans-48"/>
      </g>
     </g>
    </g>
    <g id="ytick_2">
     <g id="line2d_11">
      <g>
       <use style="stroke:#000000;stroke-width:0.8;" x="57.6" xlink:href="#mcbea5b6dbf" y="274.32"/>
      </g>
     </g>
     <g id="text_11">
      <!-- −1.5 -->
      <g transform="translate(26.317187 278.119219)scale(0.1 -0.1)">
       <use xlink:href="#DejaVuSans-8722"/>
       <use x="83.789062" xlink:href="#DejaVuSans-49"/>
       <use x="147.412109" xlink:href="#DejaVuSans-46"/>
       <use x="179.199219" xlink:href="#DejaVuSans-53"/>
      </g>
     </g>
    </g>
    <g id="ytick_3">
     <g id="line2d_12">
      <g>
       <use style="stroke:#000000;stroke-width:0.8;" x="57.6" xlink:href="#mcbea5b6dbf" y="241.056"/>
      </g>
     </g>
     <g id="text_12">
      <!-- −1.0 -->
      <g transform="translate(26.317187 244.855219)scale(0.1 -0.1)">
       <use xlink:href="#DejaVuSans-8722"/>
       <use x="83.789062" xlink:href="#DejaVuSans-49"/>
       <use x="147.412109" xlink:href="#DejaVuSans-46"/>
       <use x="179.199219" xlink:href="#DejaVuSans-48"/>
      </g>
     </g>
    </g>
    <g id="ytick_4">
     <g id="line2d_13">
      <g>
       <use style="stroke:#000000;stroke-width:0.8;" x="57.6" xlink:href="#mcbea5b6dbf" y="207.792"/>
      </g>
     </g>
     <g id="text_13">
      <!-- −0.5 -->
      <g transform="translate(26.317187 211.591219)scale(0.1 -0.1)">
       <use xlink:href="#DejaVuSans-8722"/>
       <use x="83.789062" xlink:href="#DejaVuSans-48"/>
       <use x="147.412109" xlink:href="#DejaVuSans-46"/>
       <use x="179.199219" xlink:href="#DejaVuSans-53"/>
      </g>
     </g>
    </g>
    <g id="ytick_5">
     <g id="line2d_14">
      <g>
       <use style="stroke:#000000;stroke-width:0.8;" x="57.6" xlink:href="#mcbea5b6dbf" y="174.528"/>
      </g>
     </g>
     <g id="text_14">
      <!-- 0.0 -->
      <g transform="translate(34.696875 178.327219)scale(0.1 -0.1)">
       <use xlink:href="#DejaVuSans-48"/>
       <use x="63.623047" xlink:href="#DejaVuSans-46"/>
       <use x="95.410156" xlink:href="#DejaVuSans-48"/>
      </g>
     </g>
    </g>
    <g id="ytick_6">
     <g id="line2d_15">
      <g>
       <use style="stroke:#000000;stroke-width:0.8;" x="57.6" xlink:href="#mcbea5b6dbf" y="141.264"/>
      </g>
     </g>
     <g id="text_15">
      <!-- 0.5 -->
      <g transform="translate(34.696875 145.063219)scale(0.1 -0.1)">
       <use xlink:href="#DejaVuSans-48"/>
       <use x="63.623047" xlink:href="#DejaVuSans-46"/>
       <use x="95.410156" xlink:href="#DejaVuSans-53"/>
      </g>
     </g>
    </g>
    <g id="ytick_7">
     <g id="line2d_16">
      <g>
       <use style="stroke:#000000;stroke-width:0.8;" x="57.6" xlink:href="#mcbea5b6dbf" y="108"/>
      </g>
     </g>
     <g id="text_16">
      <!-- 1.0 -->
      <g transform="translate(34.696875 111.799219)scale(0.1 -0.1)">
       <use xlink:href="#DejaVuSans-49"/>
       <use x="63.623047" xlink:href="#DejaVuSans-46"/>
       <use x="95.410156" xlink:href="#DejaVuSans-48"/>
      </g>
     </g>
    </g>
    <g id="ytick_8">
     <g id="line2d_17">
      <g>
       <use style="stroke:#000000;stroke-width:0.8;" x="57.6" xlink:href="#mcbea5b6dbf" y="74.736"/>
      </g>
     </g>
     <g id="text_17">
      <!-- 1.5 -->
      <g transform="translate(34.696875 78.535219)scale(0.1 -0.1)">
       <use xlink:href="#DejaVuSans-49"/>
       <use x="63.623047" xlink:href="#DejaVuSans-46"/>
       <use x="95.410156" xlink:href="#DejaVuSans-53"/>
      </g>
     </g>
    </g>
    <g id="ytick_9">
     <g id="line2d_18">
      <g>
       <use style="stroke:#000000;stroke-width:0.8;" x="57.6" xlink:href="#mcbea5b6dbf" y="41.472"/>
      </g>
     </g>
     <g id="text_18">
      <!-- 2.0 -->
      <g transform="translate(34.696875 45.271219)scale(0.1 -0.1)">
       <use xlink:href="#DejaVuSans-50"/>
       <use x="63.623047" xlink:href="#DejaVuSans-46"/>
       <use x="95.410156" xlink:href="#DejaVuSans-48"/>
      </g>
     </g>
    </g>
   </g>
   <g id="LineCollection_1"/>
   <g id="LineCollection_2">
    <path clip-path="url(#p57cabbdf78)" d="M 233.634909 160.620117 
L 231.928934 159.744 
L 232.140231 157.056 
L 232.991593 154.368 
L 233.634909 154.163951 
L 234.498958 154.368 
L 236.520727 154.653693 
L 239.406545 154.732098 
L 240.426929 157.056 
L 239.406545 159.04842 
L 238.720547 159.744 
L 236.520727 160.541818 
L 233.634909 160.620117 
" style="fill:none;stroke:#00e38e;stroke-width:1.5;"/>
   </g>
   <g id="LineCollection_3">
    <path clip-path="url(#p57cabbdf78)" d="M 224.977455 166.019635 
L 222.760365 165.12 
L 224.723236 162.432 
L 224.977455 161.849314 
L 225.887132 159.744 
L 225.618057 157.056 
L 224.977455 156.039142 
L 223.535697 154.368 
L 222.091636 153.212668 
L 220.085199 151.68 
L 219.205818 150.573516 
L 218.434509 148.992 
L 217.993388 146.304 
L 217.500787 143.616 
L 217.474006 140.928 
L 219.205818 140.343437 
L 221.484066 140.928 
L 222.091636 141.072413 
L 224.977455 141.529905 
L 227.863273 141.767209 
L 230.749091 141.998789 
L 233.634909 143.053331 
L 234.260235 143.616 
L 236.032234 146.304 
L 236.520727 146.725256 
L 239.406545 148.029357 
L 242.292364 148.065675 
L 245.178182 147.340525 
L 248.064 146.39668 
L 248.275636 146.304 
L 250.949818 144.783776 
L 253.370602 143.616 
L 253.835636 143.315831 
L 256.721455 141.445584 
L 257.61074 140.928 
L 259.607273 139.43166 
L 261.55531 138.24 
L 262.493091 137.501036 
L 265.378909 135.692275 
L 265.632948 135.552 
L 268.264727 133.879848 
L 270.79074 132.864 
L 271.150545 132.704028 
L 274.036364 131.410539 
L 276.922182 130.546115 
L 277.669234 130.176 
L 279.808 129.319959 
L 282.145064 130.176 
L 279.808 131.89907 
L 279.219797 132.864 
L 276.922182 134.752348 
L 276.012415 135.552 
L 274.036364 137.113643 
L 272.343897 138.24 
L 271.150545 139.082397 
L 268.264727 140.744633 
L 267.986949 140.928 
L 265.378909 142.554169 
L 263.485797 143.616 
L 262.493091 144.244465 
L 259.607273 145.887074 
L 259.00048 146.304 
L 256.721455 147.836765 
L 254.896635 148.992 
L 253.835636 149.773999 
L 251.039199 151.68 
L 250.949818 151.755086 
L 248.064 154.160265 
L 247.815901 154.368 
L 245.364404 157.056 
L 245.178182 157.401174 
L 244.150244 159.744 
L 243.930585 162.432 
L 242.292364 164.849643 
L 239.406545 164.217619 
L 236.520727 163.791201 
L 233.634909 163.846155 
L 230.749091 164.339403 
L 227.863273 165.105958 
L 227.831667 165.12 
L 224.977455 166.019635 
" style="fill:none;stroke:#00c79c;stroke-width:1.5;"/>
   </g>
   <g id="LineCollection_4">
    <path clip-path="url(#p57cabbdf78)" d="M 199.005091 181.626219 
L 197.907225 181.248 
L 199.005091 180.429088 
L 199.790457 181.248 
L 199.005091 181.626219 
" style="fill:none;stroke:#00aaaa;stroke-width:1.5;"/>
    <path clip-path="url(#p57cabbdf78)" d="M 201.890909 179.621049 
L 200.640853 178.56 
L 207.662545 172.316436 
L 209.569777 170.496 
L 211.657204 167.808 
L 212.815987 165.12 
L 212.122192 162.432 
L 210.548364 161.178905 
L 207.662545 159.537688 
L 206.765345 157.056 
L 207.771006 154.368 
L 209.100814 151.68 
L 210.224284 148.992 
L 210.896891 146.304 
L 211.005599 143.616 
L 210.548364 140.824386 
L 209.566634 138.24 
L 207.662545 134.430634 
L 206.758547 132.864 
L 206.045584 130.176 
L 207.662545 129.758167 
L 210.548364 131.193201 
L 214.383233 132.864 
L 216.32 133.561121 
L 219.205818 134.290628 
L 222.091636 134.642909 
L 224.977455 134.571307 
L 227.863273 134.112672 
L 230.749091 133.341005 
L 233.634909 132.244231 
L 237.87729 130.176 
L 242.327879 127.488 
L 250.949818 121.485827 
L 253.835636 119.941392 
L 256.721455 118.792924 
L 259.607273 117.921343 
L 265.378909 116.528972 
L 271.150545 115.409169 
L 274.036364 115.093078 
L 276.922182 115.530764 
L 278.270264 116.736 
L 279.808 119.501191 
L 282.693818 120.66125 
L 285.579636 120.695658 
L 288.465455 120.205099 
L 291.651832 119.424 
L 294.237091 118.350364 
L 298.407331 116.736 
L 300.008727 115.965687 
L 302.894545 114.977092 
L 304.42563 114.048 
L 305.780364 113.378406 
L 307.849379 114.048 
L 305.780364 115.158791 
L 304.629196 116.736 
L 302.894545 118.041431 
L 300.008727 120.468016 
L 297.122909 122.741386 
L 294.237091 125.035988 
L 291.339989 127.488 
L 288.45244 130.176 
L 285.579636 133.171498 
L 279.808 139.624446 
L 276.922182 142.160902 
L 274.036364 144.0736 
L 268.264727 147.316136 
L 265.193408 148.992 
L 259.607273 152.701082 
L 256.721455 155.004109 
L 254.635403 157.056 
L 253.835636 158.087888 
L 252.719824 159.744 
L 251.699199 162.432 
L 251.573233 165.12 
L 252.216093 167.808 
L 253.255892 170.496 
L 254.609396 173.184 
L 253.835636 174.96414 
L 250.949818 173.961375 
L 248.064 172.431671 
L 243.789154 170.496 
L 242.292364 169.924559 
L 239.406545 169.119082 
L 236.520727 168.647477 
L 233.634909 168.555373 
L 230.749091 168.821626 
L 227.863273 169.381018 
L 223.781835 170.496 
L 222.091636 171.101474 
L 216.32 173.390519 
L 210.548364 176.064654 
L 207.662545 177.367651 
L 204.776727 178.921392 
L 201.890909 179.621049 
L 201.890909 179.621049 
" style="fill:none;stroke:#00aaaa;stroke-width:1.5;"/>
    <path clip-path="url(#p57cabbdf78)" d="M 311.552 111.430105 
L 311.264069 111.36 
L 311.552 111.261841 
L 311.648634 111.36 
L 311.552 111.430105 
" style="fill:none;stroke:#00aaaa;stroke-width:1.5;"/>
   </g>
   <g id="LineCollection_5">
    <path clip-path="url(#p57cabbdf78)" d="M 343.296 93.471614 
L 336.820263 97.92 
L 331.752727 101.608584 
L 328.866909 103.597872 
L 322.000992 108.672 
L 320.209455 110.117706 
L 318.4788 111.36 
L 317.323636 112.326501 
L 314.437818 114.581261 
L 311.552 116.921201 
L 308.636633 119.424 
L 305.720274 122.112 
L 302.894545 124.93715 
L 300.008727 128.182467 
L 298.372565 130.176 
L 296.433725 132.864 
L 294.237091 136.614286 
L 293.402128 138.24 
L 292.239247 140.928 
L 290.178821 146.304 
L 288.465455 149.65176 
L 286.697911 151.68 
L 285.579636 152.611027 
L 282.586285 154.368 
L 276.842658 157.056 
L 274.036364 158.59114 
L 271.150545 160.475076 
L 268.264727 163.020834 
L 266.613071 165.12 
L 265.251355 167.808 
L 264.737663 170.496 
L 264.838554 173.184 
L 265.429996 175.872 
L 266.578815 178.56 
L 268.264727 181.774451 
L 271.425174 186.624 
L 275.414453 192 
L 277.496565 194.688 
L 276.922182 196.591965 
L 273.476221 194.688 
L 265.378909 188.965792 
L 259.607273 185.228687 
L 256.721455 183.458739 
L 252.629658 181.248 
L 250.949818 180.427948 
L 246.466643 178.56 
L 245.178182 178.103146 
L 242.292364 177.29035 
L 239.406545 176.680171 
L 236.520727 176.296129 
L 233.634909 176.142008 
L 230.749091 176.209508 
L 227.863273 176.482004 
L 224.977455 176.935793 
L 219.205818 178.25089 
L 216.32 179.124605 
L 210.241462 181.248 
L 201.890909 184.83476 
L 196.119273 187.550461 
L 187.461818 191.821685 
L 187.109218 192 
L 184.576 193.431547 
L 181.690182 194.849793 
L 175.918545 198.028708 
L 172.092856 200.064 
L 170.146909 201.197755 
L 164.375273 204.235986 
L 161.489455 205.986276 
L 158.603636 207.067151 
L 157.409997 208.128 
L 155.717818 209.034826 
L 152.908805 208.128 
L 155.717818 206.37779 
L 156.673631 205.44 
L 161.489455 201.815591 
L 164.375273 199.825495 
L 167.676609 197.376 
L 173.032727 192.982722 
L 174.39833 192 
L 175.918545 190.547312 
L 177.490481 189.312 
L 178.804364 187.90047 
L 180.238121 186.624 
L 182.473477 183.936 
L 183.623472 181.248 
L 181.690182 179.061264 
L 178.804364 178.274465 
L 177.656411 175.872 
L 178.804364 174.462179 
L 179.577685 173.184 
L 187.461818 164.908594 
L 192.194162 159.744 
L 194.394993 157.056 
L 196.367579 154.368 
L 198.009299 151.68 
L 199.339544 148.992 
L 200.258893 146.304 
L 200.793657 143.616 
L 200.916089 140.928 
L 200.628941 138.24 
L 199.970973 135.552 
L 199.005091 132.817525 
L 196.204638 127.488 
L 192.524 122.112 
L 190.347636 119.15741 
L 184.094896 111.36 
L 182.600387 108.672 
L 184.576 108.274706 
L 190.347636 112.21515 
L 193.233455 114.133726 
L 199.005091 117.602656 
L 202.350593 119.424 
L 204.776727 120.508919 
L 207.662545 121.667093 
L 210.548364 122.51058 
L 213.434182 123.027836 
L 216.32 123.233234 
L 219.205818 123.094253 
L 222.091636 122.608287 
L 224.977455 121.746224 
L 227.863273 120.470182 
L 230.749091 118.832066 
L 233.717583 116.736 
L 236.99143 114.048 
L 239.406545 112.193113 
L 240.785309 111.36 
L 242.292364 110.608951 
L 245.178182 109.69861 
L 248.064 109.224085 
L 253.835636 108.838551 
L 259.607273 108.514013 
L 265.378909 107.875522 
L 271.150545 106.854996 
L 274.97271 105.984 
L 279.808 104.63164 
L 285.579636 102.803574 
L 297.122909 98.770951 
L 300.008727 97.681522 
L 302.894545 96.904071 
L 305.780364 96.277178 
L 308.666182 96.758982 
L 309.303457 97.92 
L 309.963869 100.608 
L 311.552 101.330213 
L 314.437818 101.320249 
L 317.984386 100.608 
L 325.981091 97.557002 
L 328.866909 96.138298 
L 331.752727 94.899152 
L 334.638545 93.377218 
L 337.524364 91.97745 
L 341.700603 89.856 
L 343.296 88.933614 
L 343.296 88.933614 
" style="fill:none;stroke:#008eb8;stroke-width:1.5;"/>
    <path clip-path="url(#p57cabbdf78)" d="M 147.060364 213.880935 
L 145.885058 213.504 
L 147.060364 212.784009 
L 147.756958 213.504 
L 147.060364 213.880935 
" style="fill:none;stroke:#008eb8;stroke-width:1.5;"/>
    <path clip-path="url(#p57cabbdf78)" d="M 149.946182 211.533996 
L 149.093993 210.816 
L 149.946182 210.177134 
L 152.832 210.025128 
L 152.84865 210.816 
L 152.832 210.825915 
L 149.946182 211.533996 
" style="fill:none;stroke:#008eb8;stroke-width:1.5;"/>
   </g>
   <g id="LineCollection_6">
    <path clip-path="url(#p57cabbdf78)" d="M 57.6 267.104575 
L 60.485818 265.458404 
L 61.460571 264.576 
L 66.257455 261.268042 
L 69.533005 259.2 
L 74.914909 255.40761 
L 77.800727 253.598656 
L 93.091503 243.072 
L 95.115636 241.496677 
L 96.899295 240.384 
L 98.001455 239.492832 
L 100.887273 237.604728 
L 115.316364 226.350783 
L 117.860772 224.256 
L 118.202182 223.819487 
L 120.511259 221.568 
L 121.088 220.483731 
L 122.258002 218.88 
L 121.088 217.408647 
L 115.316364 217.069466 
L 114.452887 216.192 
L 115.316364 215.418586 
L 116.60511 213.504 
L 118.202182 212.268301 
L 119.537126 210.816 
L 121.088 209.654244 
L 122.716524 208.128 
L 123.973818 207.186182 
L 126.859636 204.79174 
L 132.757772 200.064 
L 139.572645 194.688 
L 149.946182 186.286329 
L 155.933132 181.248 
L 161.978929 175.872 
L 167.610565 170.496 
L 170.238189 167.808 
L 173.032727 164.72788 
L 175.918545 161.255319 
L 177.111542 159.744 
L 179.048052 157.056 
L 181.690182 152.658941 
L 182.223363 151.68 
L 183.448642 148.992 
L 184.576 145.815391 
L 185.14808 143.616 
L 185.59199 140.928 
L 185.774875 138.24 
L 185.698197 135.552 
L 185.372093 132.864 
L 184.576 129.35843 
L 184.010734 127.488 
L 182.986988 124.8 
L 181.690182 121.863456 
L 178.804364 116.567117 
L 175.412087 111.36 
L 171.451318 105.984 
L 167.261091 100.606195 
L 157.948038 89.856 
L 152.832 84.159675 
L 140.615467 71.04 
L 135.61734 65.664 
L 138.402909 65.200426 
L 152.832 76.663552 
L 161.489455 83.209354 
L 167.261091 87.462408 
L 173.032727 91.342893 
L 178.804364 94.968462 
L 184.576 98.047139 
L 190.347636 100.450489 
L 193.233455 101.301411 
L 196.119273 101.921958 
L 199.005091 102.260103 
L 201.890909 102.243791 
L 204.776727 101.802618 
L 208.198853 100.608 
L 210.548364 99.166354 
L 212.094553 97.92 
L 214.704971 95.232 
L 216.32 93.472677 
L 217.336643 92.544 
L 219.205818 91.295516 
L 222.091636 90.408518 
L 224.977455 90.307039 
L 227.863273 90.61434 
L 233.634909 91.717612 
L 245.178182 94.18063 
L 250.949818 95.096446 
L 253.835636 95.416739 
L 259.607273 95.75637 
L 265.378909 95.693945 
L 271.203218 95.232 
L 276.922182 94.364833 
L 282.693818 93.169773 
L 285.579636 92.474304 
L 291.351273 90.80713 
L 297.122909 88.925533 
L 302.894545 86.856222 
L 311.552 83.390523 
L 317.323636 80.931664 
L 327.384265 76.416 
L 343.296 68.89247 
L 343.296 68.89247 
" style="fill:none;stroke:#0071c6;stroke-width:1.5;"/>
    <path clip-path="url(#p57cabbdf78)" d="M 343.296 99.941856 
L 342.420159 100.608 
L 332.90781 108.672 
L 325.981091 115.26591 
L 323.095273 118.277534 
L 322.018079 119.424 
L 319.693355 122.112 
L 317.323636 125.133586 
L 314.437818 129.385015 
L 313.933357 130.176 
L 312.448883 132.864 
L 311.178506 135.552 
L 310.154595 138.24 
L 309.34172 140.928 
L 308.666182 144.158365 
L 308.369044 146.304 
L 308.183604 148.992 
L 308.164872 151.68 
L 308.517823 157.056 
L 309.304165 165.12 
L 309.25085 167.808 
L 308.634022 170.496 
L 306.183371 173.184 
L 305.780364 173.441045 
L 302.894545 174.658905 
L 297.122909 176.620397 
L 294.237091 177.988996 
L 293.326754 178.56 
L 291.351273 180.188745 
L 290.415466 181.248 
L 288.941851 183.936 
L 288.363362 186.624 
L 288.465455 189.463388 
L 289.022308 192 
L 289.978534 194.688 
L 291.351273 197.746923 
L 294.237091 202.761586 
L 300.054797 210.816 
L 306.811481 218.88 
L 311.552 224.375612 
L 323.66924 237.696 
L 323.095273 240.219208 
L 317.323636 235.605152 
L 302.894545 223.897189 
L 296.505399 218.88 
L 285.579636 210.577971 
L 279.808 206.517038 
L 274.036364 202.621135 
L 268.264727 199.129818 
L 265.21484 197.376 
L 259.607273 194.536369 
L 253.613296 192 
L 248.064 190.179681 
L 244.733068 189.312 
L 242.292364 188.812164 
L 239.406545 188.35357 
L 236.520727 188.030197 
L 233.634909 187.843196 
L 230.749091 187.790422 
L 227.863273 187.867151 
L 224.977455 188.066474 
L 219.205818 188.795087 
L 216.263313 189.312 
L 210.548364 190.661433 
L 204.776727 192.289019 
L 196.119273 195.283097 
L 187.461818 198.76775 
L 184.3282 200.064 
L 167.155976 208.128 
L 164.375273 209.608043 
L 161.489455 211.002877 
L 152.832 215.578546 
L 149.946182 217.121577 
L 146.559259 218.88 
L 144.174545 220.258966 
L 141.288727 221.737116 
L 135.517091 224.987823 
L 126.859636 229.75886 
L 121.088 233.115879 
L 117.651578 235.008 
L 115.316364 236.44448 
L 112.430545 238.012407 
L 106.658909 241.418336 
L 103.600621 243.072 
L 98.001455 246.414126 
L 94.403154 248.448 
L 92.229818 249.791727 
L 86.458182 253.032833 
L 83.572364 254.856146 
L 77.800727 258.093716 
L 74.914909 259.935487 
L 72.029091 261.296559 
L 71.40817 261.888 
L 69.143273 263.1692 
L 66.257455 265.028389 
L 63.371636 266.180875 
L 62.238363 267.264 
L 60.485818 268.257998 
L 57.6 270.133671 
L 57.6 270.133671 
" style="fill:none;stroke:#0071c6;stroke-width:1.5;"/>
    <path clip-path="url(#p57cabbdf78)" d="M 325.981091 241.139725 
L 323.617075 240.384 
L 325.981091 240.200051 
L 326.151213 240.384 
L 325.981091 241.139725 
" style="fill:none;stroke:#0071c6;stroke-width:1.5;"/>
    <path clip-path="url(#p57cabbdf78)" d="M 135.517091 65.276468 
L 134.91643 62.976 
L 135.517091 62.876719 
L 135.640097 62.976 
L 135.517091 65.276468 
" style="fill:none;stroke:#0071c6;stroke-width:1.5;"/>
   </g>
   <g id="LineCollection_7">
    <path clip-path="url(#p57cabbdf78)" d="M 343.296 264.55166 
L 328.866909 253.004973 
L 320.209455 246.279652 
L 308.625628 237.696 
L 297.122909 229.813659 
L 288.267302 224.256 
L 279.808 219.471443 
L 273.340717 216.192 
L 267.378851 213.504 
L 262.493091 211.556108 
L 259.607273 210.511984 
L 253.835636 208.705836 
L 250.949818 207.928228 
L 245.178182 206.671369 
L 239.406545 205.758297 
L 233.634909 205.214376 
L 227.863273 205.025983 
L 222.091636 205.16623 
L 216.32 205.622012 
L 210.548364 206.386296 
L 204.776727 207.406404 
L 199.005091 208.670492 
L 190.891835 210.816 
L 187.461818 211.861414 
L 181.690182 213.714562 
L 173.032727 216.832012 
L 164.375273 220.255088 
L 158.603636 222.675005 
L 149.946182 226.481445 
L 143.102807 229.632 
L 126.511819 237.696 
L 95.115636 254.168438 
L 83.572364 260.546632 
L 80.686545 262.078558 
L 74.914909 265.343978 
L 66.257455 270.166181 
L 60.485818 273.495411 
L 57.6 275.095926 
L 57.6 275.095926 
" style="fill:none;stroke:#0055d4;stroke-width:1.5;"/>
    <path clip-path="url(#p57cabbdf78)" d="M 57.6 244.181012 
L 70.413148 235.008 
L 95.809891 216.192 
L 112.855006 202.752 
L 122.429097 194.688 
L 131.392868 186.624 
L 138.402909 179.755596 
L 142.118949 175.872 
L 147.060364 170.234241 
L 151.060565 165.12 
L 152.978808 162.432 
L 155.717818 158.102055 
L 156.342538 157.056 
L 158.603636 152.695717 
L 159.087866 151.68 
L 160.206374 148.992 
L 161.489455 145.218362 
L 161.948822 143.616 
L 162.551549 140.928 
L 162.984771 138.24 
L 163.246358 135.552 
L 163.336411 132.864 
L 163.257195 130.176 
L 163.013169 127.488 
L 162.611118 124.8 
L 162.060414 122.112 
L 161.366598 119.424 
L 160.506146 116.736 
L 158.436843 111.36 
L 155.717818 105.696434 
L 152.832 100.50921 
L 149.526469 95.232 
L 145.833721 89.856 
L 141.899091 84.48 
L 135.517091 76.330547 
L 126.484394 65.664 
L 121.088 59.607601 
L 109.399923 46.848 
L 104.274999 41.472 
L 104.274999 41.472 
" style="fill:none;stroke:#0055d4;stroke-width:1.5;"/>
    <path clip-path="url(#p57cabbdf78)" d="M 343.296 215.401511 
L 340.410182 215.790874 
L 338.678451 216.192 
L 337.524364 216.536447 
L 334.638545 218.264179 
L 334.064972 218.88 
L 332.848531 221.568 
L 332.695222 224.256 
L 333.1665 226.944 
L 334.008082 229.632 
L 334.638545 231.116041 
L 335.153916 232.32 
L 336.565969 235.008 
L 337.524364 236.684698 
L 338.105656 237.696 
L 339.824215 240.384 
L 340.410182 241.233052 
L 341.684489 243.072 
L 343.296 245.376357 
" style="fill:none;stroke:#0055d4;stroke-width:1.5;"/>
    <path clip-path="url(#p57cabbdf78)" d="M 343.296 119.874836 
L 341.762063 122.112 
L 340.410182 124.229289 
L 340.047325 124.8 
L 338.498937 127.488 
L 337.524364 129.347664 
L 337.095126 130.176 
L 335.862619 132.864 
L 334.775649 135.552 
L 334.638545 135.952031 
L 333.871819 138.24 
L 333.12741 140.928 
L 332.541907 143.616 
L 332.11729 146.304 
L 331.853295 148.992 
L 331.752727 151.549329 
L 331.747802 151.68 
L 331.752727 151.961598 
L 331.796044 154.368 
L 331.992599 157.056 
L 332.329649 159.744 
L 332.798097 162.432 
L 333.387691 165.12 
L 334.087611 167.808 
L 334.638545 169.648433 
L 334.896398 170.496 
L 335.815446 173.184 
L 336.813099 175.872 
L 337.524364 177.651976 
L 337.89176 178.56 
L 339.046855 181.248 
L 340.254327 183.936 
L 340.410182 184.270532 
L 341.517789 186.624 
L 342.815237 189.312 
L 343.296 190.294429 
" style="fill:none;stroke:#0055d4;stroke-width:1.5;"/>
    <path clip-path="url(#p57cabbdf78)" d="M 121.475564 41.472 
L 123.973818 43.2448 
L 125.2677 44.16 
L 126.859636 45.281782 
L 129.089874 46.848 
L 129.745455 47.306571 
L 132.631273 49.25957 
L 133.069353 49.536 
L 135.517091 51.07222 
L 137.362379 52.224 
L 138.402909 52.869795 
L 141.288727 54.588983 
L 141.888452 54.912 
L 144.174545 56.134045 
L 146.941851 57.6 
L 147.060364 57.662283 
L 149.946182 58.925286 
L 152.832 60.130139 
L 153.331067 60.288 
L 155.717818 61.033294 
L 158.603636 61.699826 
L 161.489455 62.030935 
L 164.375273 61.843567 
L 167.261091 60.853961 
L 168.116193 60.288 
L 170.146909 58.131155 
L 170.506221 57.6 
L 171.875004 54.912 
L 173.032727 52.68172 
L 173.3473 52.224 
L 175.918545 50.416877 
L 178.804364 50.237654 
L 181.690182 50.83436 
L 184.576 51.727503 
L 185.830168 52.224 
L 187.461818 52.862054 
L 190.347636 54.10288 
L 192.127255 54.912 
L 193.233455 55.409187 
L 196.119273 56.765436 
L 197.864546 57.6 
L 199.005091 58.139124 
L 201.890909 59.51933 
L 203.493453 60.288 
L 204.776727 60.896064 
L 207.662545 62.254155 
L 209.21007 62.976 
L 210.548364 63.59197 
L 213.434182 64.895561 
L 215.16941 65.664 
L 216.32 66.165964 
L 219.205818 67.387476 
L 221.550458 68.352 
L 222.091636 68.570858 
L 224.977455 69.685946 
L 227.863273 70.759017 
L 228.663407 71.04 
L 230.749091 71.757219 
L 233.634909 72.692694 
L 236.520727 73.571275 
L 237.081712 73.728 
L 239.406545 74.360674 
L 242.292364 75.078555 
L 245.178182 75.726897 
L 248.064 76.301695 
L 248.730444 76.416 
L 250.949818 76.783382 
L 253.835636 77.183864 
L 256.721455 77.506022 
L 259.607273 77.748634 
L 262.493091 77.911184 
L 265.378909 77.993846 
L 268.264727 77.997449 
L 271.150545 77.923454 
L 274.036364 77.773927 
L 276.922182 77.551521 
L 279.808 77.25947 
L 282.693818 76.901588 
L 285.579636 76.482282 
L 285.972661 76.416 
L 288.465455 75.981381 
L 291.351273 75.419386 
L 294.237091 74.80573 
L 297.122909 74.146594 
L 298.828798 73.728 
L 300.008727 73.428986 
L 302.894545 72.643651 
L 305.780364 71.825924 
L 308.465832 71.04 
L 308.666182 70.979439 
L 311.552 70.049204 
L 314.437818 69.101639 
L 316.676514 68.352 
L 317.323636 68.127955 
L 320.209455 67.082848 
L 323.095273 66.037451 
L 324.097525 65.664 
L 325.981091 64.937012 
L 328.866909 63.810065 
L 331.004703 62.976 
L 331.752727 62.673518 
L 334.638545 61.473274 
L 337.524364 60.300199 
L 337.553298 60.288 
L 340.410182 59.0362 
L 343.296 57.806795 
" style="fill:none;stroke:#0055d4;stroke-width:1.5;"/>
   </g>
   <g id="LineCollection_8">
    <path clip-path="url(#p57cabbdf78)" d="M 343.296 278.582691 
L 334.638545 272.575623 
L 323.095273 265.003289 
L 313.654402 259.2 
L 305.780364 254.664606 
L 299.255988 251.136 
L 291.351273 247.176305 
L 285.579636 244.509746 
L 279.808 242.046968 
L 274.036364 239.795569 
L 268.057588 237.696 
L 262.493091 235.977531 
L 256.721455 234.415235 
L 250.949818 233.096499 
L 245.178182 232.013871 
L 239.406545 231.18384 
L 233.634909 230.587108 
L 227.863273 230.225172 
L 222.091636 230.095624 
L 216.32 230.192671 
L 210.548364 230.507463 
L 204.776727 231.02825 
L 199.005091 231.740407 
L 193.233455 232.639174 
L 187.461818 233.725938 
L 181.467109 235.008 
L 173.032727 237.116944 
L 167.261091 238.731885 
L 158.603636 241.387744 
L 149.946182 244.305683 
L 141.288727 247.453902 
L 132.631273 250.798659 
L 123.973818 254.341976 
L 112.430545 259.301296 
L 95.009755 267.264 
L 72.029091 278.469962 
L 57.6 285.806256 
L 57.6 285.806256 
" style="fill:none;stroke:#0038e3;stroke-width:1.5;"/>
    <path clip-path="url(#p57cabbdf78)" d="M 57.6 228.390634 
L 59.388843 226.944 
L 60.485818 226.0231 
L 62.638417 224.256 
L 63.371636 223.631511 
L 65.84641 221.568 
L 66.257455 221.212576 
L 69.009853 218.88 
L 69.143273 218.762793 
L 72.029091 216.27021 
L 72.121259 216.192 
L 74.914909 213.731915 
L 75.178817 213.504 
L 77.800727 211.154988 
L 78.1861 210.816 
L 80.686545 208.53483 
L 81.140225 208.128 
L 83.572364 205.866408 
L 84.038372 205.44 
L 86.458182 203.144177 
L 86.877787 202.752 
L 89.344 200.361978 
L 89.655783 200.064 
L 92.229818 197.512919 
L 92.36975 197.376 
L 95.013319 194.688 
L 95.115636 194.57986 
L 97.580161 192 
L 98.001455 191.542606 
L 100.073618 189.312 
L 100.887273 188.402992 
L 102.491538 186.624 
L 103.773091 185.147888 
L 104.831902 183.936 
L 106.658909 181.761766 
L 107.092851 181.248 
L 109.263877 178.56 
L 109.544727 178.195049 
L 111.336206 175.872 
L 112.430545 174.390885 
L 113.323006 173.184 
L 115.220602 170.496 
L 115.316364 170.351845 
L 117.002392 167.808 
L 118.202182 165.90492 
L 118.695184 165.12 
L 120.27708 162.432 
L 121.088 160.961902 
L 121.755049 159.744 
L 123.121862 157.056 
L 123.973818 155.244415 
L 124.381589 154.368 
L 125.520326 151.68 
L 126.555118 148.992 
L 126.859636 148.102918 
L 127.465621 146.304 
L 128.259352 143.616 
L 128.941079 140.928 
L 129.508565 138.24 
L 129.745455 136.829969 
L 129.954696 135.552 
L 130.280996 132.864 
L 130.493503 130.176 
L 130.592786 127.488 
L 130.580087 124.8 
L 130.457314 122.112 
L 130.227046 119.424 
L 129.892551 116.736 
L 129.745455 115.836925 
L 129.448206 114.048 
L 128.898985 111.36 
L 128.25459 108.672 
L 127.520818 105.984 
L 126.859636 103.818328 
L 126.698315 103.296 
L 125.769581 100.608 
L 124.766838 97.92 
L 123.973818 95.941295 
L 123.686897 95.232 
L 122.51005 92.544 
L 121.279769 89.856 
L 121.088 89.465259 
L 119.952137 87.168 
L 118.575164 84.48 
L 118.202182 83.790653 
L 117.113802 81.792 
L 115.608211 79.104 
L 115.316364 78.608382 
L 114.018167 76.416 
L 112.430545 73.773703 
L 112.40294 73.728 
L 110.690912 71.04 
L 109.544727 69.262971 
L 108.954471 68.352 
L 107.160723 65.664 
L 106.658909 64.93388 
L 105.307966 62.976 
L 103.773091 60.771221 
L 103.435436 60.288 
L 101.495672 57.6 
L 100.887273 56.773039 
L 99.513709 54.912 
L 98.001455 52.876927 
L 97.514784 52.224 
L 95.467735 49.536 
L 95.115636 49.084773 
L 93.365698 46.848 
L 92.229818 45.403688 
L 91.24928 44.16 
L 89.344 41.75536 
L 89.118948 41.472 
" style="fill:none;stroke:#0038e3;stroke-width:1.5;"/>
    <path clip-path="url(#p57cabbdf78)" d="M 216.182687 41.472 
L 216.32 41.525758 
L 219.205818 42.599231 
L 222.091636 43.636229 
L 223.620916 44.16 
L 224.977455 44.617526 
L 227.863273 45.54042 
L 230.749091 46.419031 
L 232.248171 46.848 
L 233.634909 47.237682 
L 236.520727 47.995108 
L 239.406545 48.70259 
L 242.292364 49.357972 
L 243.151725 49.536 
L 245.178182 49.94645 
L 248.064 50.475983 
L 250.949818 50.950725 
L 253.835636 51.369609 
L 256.721455 51.731846 
L 259.607273 52.036902 
L 261.788465 52.224 
L 262.493091 52.282609 
L 265.378909 52.466714 
L 268.264727 52.595153 
L 271.150545 52.668294 
L 274.036364 52.686718 
L 276.922182 52.651212 
L 279.808 52.562768 
L 282.693818 52.422569 
L 285.579636 52.231995 
L 285.674983 52.224 
L 288.465455 51.984078 
L 291.351273 51.686574 
L 294.237091 51.341574 
L 297.122909 50.951056 
L 300.008727 50.517184 
L 302.894545 50.042309 
L 305.740173 49.536 
L 305.780364 49.528684 
L 308.666182 48.95557 
L 311.552 48.346354 
L 314.437818 47.703951 
L 317.323636 47.031497 
L 318.06717 46.848 
L 320.209455 46.307299 
L 323.095273 45.547307 
L 325.981091 44.763598 
L 328.13317 44.16 
L 328.866909 43.949531 
L 331.752727 43.084726 
L 334.638545 42.203207 
L 336.985063 41.472 
" style="fill:none;stroke:#0038e3;stroke-width:1.5;"/>
   </g>
   <g id="LineCollection_9">
    <path clip-path="url(#p57cabbdf78)" d="M 343.296 306.078901 
L 334.638545 301.215897 
L 325.981091 296.598641 
L 317.323636 292.26331 
L 308.666182 288.207279 
L 300.008727 284.458819 
L 294.237091 282.134732 
L 288.465455 279.954864 
L 279.808 276.971604 
L 274.036364 275.169898 
L 265.378909 272.774007 
L 259.607273 271.38511 
L 252.822648 269.952 
L 248.064 269.085572 
L 242.292364 268.183471 
L 234.876681 267.264 
L 230.749091 266.868727 
L 224.977455 266.45911 
L 219.205818 266.207709 
L 213.434182 266.112826 
L 207.662545 266.171646 
L 199.005091 266.53931 
L 190.347636 267.226472 
L 184.576 267.866898 
L 175.918545 269.068396 
L 167.261091 270.547739 
L 158.603636 272.291243 
L 149.946182 274.289668 
L 141.288727 276.514049 
L 132.631273 278.951516 
L 123.973818 281.588408 
L 112.430545 285.387157 
L 102.83017 288.768 
L 89.344 293.835419 
L 80.686545 297.263761 
L 66.257455 303.25141 
L 57.6 306.982164 
L 57.6 306.982164 
" style="fill:none;stroke:#001cf1;stroke-width:1.5;"/>
    <path clip-path="url(#p57cabbdf78)" d="M 57.6 187.119902 
L 57.967409 186.624 
L 59.88585 183.936 
L 60.485818 183.064664 
L 61.735689 181.248 
L 63.371636 178.790044 
L 63.524521 178.56 
L 65.232211 175.872 
L 66.257455 174.196328 
L 66.874967 173.184 
L 68.442825 170.496 
L 69.143273 169.238606 
L 69.936541 167.808 
L 71.356286 165.12 
L 72.029091 163.777608 
L 72.699289 162.432 
L 73.964315 159.744 
L 74.914909 157.603973 
L 75.156371 157.056 
L 76.261738 154.368 
L 77.29524 151.68 
L 77.800727 150.259176 
L 78.24671 148.992 
L 79.114907 146.304 
L 79.907196 143.616 
L 80.622221 140.928 
L 80.686545 140.655682 
L 81.248769 138.24 
L 81.796381 135.552 
L 82.265565 132.864 
L 82.655933 130.176 
L 82.96733 127.488 
L 83.199825 124.8 
L 83.353699 122.112 
L 83.429444 119.424 
L 83.427756 116.736 
L 83.349531 114.048 
L 83.195866 111.36 
L 82.968052 108.672 
L 82.667585 105.984 
L 82.29616 103.296 
L 81.85568 100.608 
L 81.348261 97.92 
L 80.776245 95.232 
L 80.686545 94.856315 
L 80.129316 92.544 
L 79.418695 89.856 
L 78.649315 87.168 
L 77.82431 84.48 
L 77.800727 84.409017 
L 76.924662 81.792 
L 75.972784 79.104 
L 74.973017 76.416 
L 74.914909 76.269349 
L 73.901356 73.728 
L 72.784951 71.04 
L 72.029091 69.295374 
L 71.617946 68.352 
L 70.391355 65.664 
L 69.143273 63.001492 
L 69.131259 62.976 
L 67.801448 60.288 
L 66.444522 57.6 
L 66.257455 57.244317 
L 65.025114 54.912 
L 63.578979 52.224 
L 63.371636 51.85261 
L 62.072857 49.536 
L 60.546083 46.848 
L 60.485818 46.745763 
L 58.955786 44.16 
L 57.6 41.89179 
" style="fill:none;stroke:#001cf1;stroke-width:1.5;"/>
   </g>
   <g id="LineCollection_10"/>
   <g id="patch_3">
    <path d="M 57.6 307.584 
L 57.6 41.472 
" style="fill:none;stroke:#000000;stroke-linecap:square;stroke-linejoin:miter;stroke-width:0.8;"/>
   </g>
   <g id="patch_4">
    <path d="M 343.296 307.584 
L 343.296 41.472 
" style="fill:none;stroke:#000000;stroke-linecap:square;stroke-linejoin:miter;stroke-width:0.8;"/>
   </g>
   <g id="patch_5">
    <path d="M 57.6 307.584 
L 343.296 307.584 
" style="fill:none;stroke:#000000;stroke-linecap:square;stroke-linejoin:miter;stroke-width:0.8;"/>
   </g>
   <g id="patch_6">
    <path d="M 57.6 41.472 
L 343.296 41.472 
" style="fill:none;stroke:#000000;stroke-linecap:square;stroke-linejoin:miter;stroke-width:0.8;"/>
   </g>
  </g>
  <g id="axes_2">
   <g id="patch_7">
    <path clip-path="url(#p0befe5b7ab)" d="M 361.152 307.584 
L 361.152 278.016 
L 361.152 71.04 
L 361.152 41.472 
L 374.4576 41.472 
L 374.4576 71.04 
L 374.4576 278.016 
L 374.4576 307.584 
z
" style="fill:#ffffff;stroke:#ffffff;stroke-linejoin:miter;stroke-width:0.01;"/>
   </g>
   <g id="matplotlib.axis_3"/>
   <g id="matplotlib.axis_4">
    <g id="ytick_10">
     <g id="line2d_19">
      <defs>
       <path d="M 0 0 
L 3.5 0 
" id="m2c8827f71a" style="stroke:#000000;stroke-width:0.8;"/>
      </defs>
      <g>
       <use style="stroke:#000000;stroke-width:0.8;" x="374.4576" xlink:href="#m2c8827f71a" y="307.584"/>
      </g>
     </g>
     <g id="text_19">
      <!-- −3.5 -->
      <defs>
       <path d="M 40.578125 39.3125 
Q 47.65625 37.796875 51.625 33 
Q 55.609375 28.21875 55.609375 21.1875 
Q 55.609375 10.40625 48.1875 4.484375 
Q 40.765625 -1.421875 27.09375 -1.421875 
Q 22.515625 -1.421875 17.65625 -0.515625 
Q 12.796875 0.390625 7.625 2.203125 
L 7.625 11.71875 
Q 11.71875 9.328125 16.59375 8.109375 
Q 21.484375 6.890625 26.8125 6.890625 
Q 36.078125 6.890625 40.9375 10.546875 
Q 45.796875 14.203125 45.796875 21.1875 
Q 45.796875 27.640625 41.28125 31.265625 
Q 36.765625 34.90625 28.71875 34.90625 
L 20.21875 34.90625 
L 20.21875 43.015625 
L 29.109375 43.015625 
Q 36.375 43.015625 40.234375 45.921875 
Q 44.09375 48.828125 44.09375 54.296875 
Q 44.09375 59.90625 40.109375 62.90625 
Q 36.140625 65.921875 28.71875 65.921875 
Q 24.65625 65.921875 20.015625 65.03125 
Q 15.375 64.15625 9.8125 62.3125 
L 9.8125 71.09375 
Q 15.4375 72.65625 20.34375 73.4375 
Q 25.25 74.21875 29.59375 74.21875 
Q 40.828125 74.21875 47.359375 69.109375 
Q 53.90625 64.015625 53.90625 55.328125 
Q 53.90625 49.265625 50.4375 45.09375 
Q 46.96875 40.921875 40.578125 39.3125 
z
" id="DejaVuSans-51"/>
      </defs>
      <g transform="translate(381.4576 311.383219)scale(0.1 -0.1)">
       <use xlink:href="#DejaVuSans-8722"/>
       <use x="83.789062" xlink:href="#DejaVuSans-51"/>
       <use x="147.412109" xlink:href="#DejaVuSans-46"/>
       <use x="179.199219" xlink:href="#DejaVuSans-53"/>
      </g>
     </g>
    </g>
    <g id="ytick_11">
     <g id="line2d_20">
      <g>
       <use style="stroke:#000000;stroke-width:0.8;" x="374.4576" xlink:href="#m2c8827f71a" y="278.016"/>
      </g>
     </g>
     <g id="text_20">
      <!-- −3.0 -->
      <g transform="translate(381.4576 281.815219)scale(0.1 -0.1)">
       <use xlink:href="#DejaVuSans-8722"/>
       <use x="83.789062" xlink:href="#DejaVuSans-51"/>
       <use x="147.412109" xlink:href="#DejaVuSans-46"/>
       <use x="179.199219" xlink:href="#DejaVuSans-48"/>
      </g>
     </g>
    </g>
    <g id="ytick_12">
     <g id="line2d_21">
      <g>
       <use style="stroke:#000000;stroke-width:0.8;" x="374.4576" xlink:href="#m2c8827f71a" y="248.448"/>
      </g>
     </g>
     <g id="text_21">
      <!-- −2.5 -->
      <g transform="translate(381.4576 252.247219)scale(0.1 -0.1)">
       <use xlink:href="#DejaVuSans-8722"/>
       <use x="83.789062" xlink:href="#DejaVuSans-50"/>
       <use x="147.412109" xlink:href="#DejaVuSans-46"/>
       <use x="179.199219" xlink:href="#DejaVuSans-53"/>
      </g>
     </g>
    </g>
    <g id="ytick_13">
     <g id="line2d_22">
      <g>
       <use style="stroke:#000000;stroke-width:0.8;" x="374.4576" xlink:href="#m2c8827f71a" y="218.88"/>
      </g>
     </g>
     <g id="text_22">
      <!-- −2.0 -->
      <g transform="translate(381.4576 222.679219)scale(0.1 -0.1)">
       <use xlink:href="#DejaVuSans-8722"/>
       <use x="83.789062" xlink:href="#DejaVuSans-50"/>
       <use x="147.412109" xlink:href="#DejaVuSans-46"/>
       <use x="179.199219" xlink:href="#DejaVuSans-48"/>
      </g>
     </g>
    </g>
    <g id="ytick_14">
     <g id="line2d_23">
      <g>
       <use style="stroke:#000000;stroke-width:0.8;" x="374.4576" xlink:href="#m2c8827f71a" y="189.312"/>
      </g>
     </g>
     <g id="text_23">
      <!-- −1.5 -->
      <g transform="translate(381.4576 193.111219)scale(0.1 -0.1)">
       <use xlink:href="#DejaVuSans-8722"/>
       <use x="83.789062" xlink:href="#DejaVuSans-49"/>
       <use x="147.412109" xlink:href="#DejaVuSans-46"/>
       <use x="179.199219" xlink:href="#DejaVuSans-53"/>
      </g>
     </g>
    </g>
    <g id="ytick_15">
     <g id="line2d_24">
      <g>
       <use style="stroke:#000000;stroke-width:0.8;" x="374.4576" xlink:href="#m2c8827f71a" y="159.744"/>
      </g>
     </g>
     <g id="text_24">
      <!-- −1.0 -->
      <g transform="translate(381.4576 163.543219)scale(0.1 -0.1)">
       <use xlink:href="#DejaVuSans-8722"/>
       <use x="83.789062" xlink:href="#DejaVuSans-49"/>
       <use x="147.412109" xlink:href="#DejaVuSans-46"/>
       <use x="179.199219" xlink:href="#DejaVuSans-48"/>
      </g>
     </g>
    </g>
    <g id="ytick_16">
     <g id="line2d_25">
      <g>
       <use style="stroke:#000000;stroke-width:0.8;" x="374.4576" xlink:href="#m2c8827f71a" y="130.176"/>
      </g>
     </g>
     <g id="text_25">
      <!-- −0.5 -->
      <g transform="translate(381.4576 133.975219)scale(0.1 -0.1)">
       <use xlink:href="#DejaVuSans-8722"/>
       <use x="83.789062" xlink:href="#DejaVuSans-48"/>
       <use x="147.412109" xlink:href="#DejaVuSans-46"/>
       <use x="179.199219" xlink:href="#DejaVuSans-53"/>
      </g>
     </g>
    </g>
    <g id="ytick_17">
     <g id="line2d_26">
      <g>
       <use style="stroke:#000000;stroke-width:0.8;" x="374.4576" xlink:href="#m2c8827f71a" y="100.608"/>
      </g>
     </g>
     <g id="text_26">
      <!-- 0.0 -->
      <g transform="translate(381.4576 104.407219)scale(0.1 -0.1)">
       <use xlink:href="#DejaVuSans-48"/>
       <use x="63.623047" xlink:href="#DejaVuSans-46"/>
       <use x="95.410156" xlink:href="#DejaVuSans-48"/>
      </g>
     </g>
    </g>
    <g id="ytick_18">
     <g id="line2d_27">
      <g>
       <use style="stroke:#000000;stroke-width:0.8;" x="374.4576" xlink:href="#m2c8827f71a" y="71.04"/>
      </g>
     </g>
     <g id="text_27">
      <!-- 0.5 -->
      <g transform="translate(381.4576 74.839219)scale(0.1 -0.1)">
       <use xlink:href="#DejaVuSans-48"/>
       <use x="63.623047" xlink:href="#DejaVuSans-46"/>
       <use x="95.410156" xlink:href="#DejaVuSans-53"/>
      </g>
     </g>
    </g>
    <g id="ytick_19">
     <g id="line2d_28">
      <g>
       <use style="stroke:#000000;stroke-width:0.8;" x="374.4576" xlink:href="#m2c8827f71a" y="41.472"/>
      </g>
     </g>
     <g id="text_28">
      <!-- 1.0 -->
      <g transform="translate(381.4576 45.271219)scale(0.1 -0.1)">
       <use xlink:href="#DejaVuSans-49"/>
       <use x="63.623047" xlink:href="#DejaVuSans-46"/>
       <use x="95.410156" xlink:href="#DejaVuSans-48"/>
      </g>
     </g>
    </g>
   </g>
   <g id="LineCollection_11">
    <path clip-path="url(#p0befe5b7ab)" d="M 361.152 307.584 
L 374.4576 307.584 
" style="fill:none;stroke:#00ff80;stroke-width:1.5;"/>
    <path clip-path="url(#p0befe5b7ab)" d="M 361.152 278.016 
L 374.4576 278.016 
" style="fill:none;stroke:#00e38e;stroke-width:1.5;"/>
    <path clip-path="url(#p0befe5b7ab)" d="M 361.152 248.448 
L 374.4576 248.448 
" style="fill:none;stroke:#00c79c;stroke-width:1.5;"/>
    <path clip-path="url(#p0befe5b7ab)" d="M 361.152 218.88 
L 374.4576 218.88 
" style="fill:none;stroke:#00aaaa;stroke-width:1.5;"/>
    <path clip-path="url(#p0befe5b7ab)" d="M 361.152 189.312 
L 374.4576 189.312 
" style="fill:none;stroke:#008eb8;stroke-width:1.5;"/>
    <path clip-path="url(#p0befe5b7ab)" d="M 361.152 159.744 
L 374.4576 159.744 
" style="fill:none;stroke:#0071c6;stroke-width:1.5;"/>
    <path clip-path="url(#p0befe5b7ab)" d="M 361.152 130.176 
L 374.4576 130.176 
" style="fill:none;stroke:#0055d4;stroke-width:1.5;"/>
    <path clip-path="url(#p0befe5b7ab)" d="M 361.152 100.608 
L 374.4576 100.608 
" style="fill:none;stroke:#0038e3;stroke-width:1.5;"/>
    <path clip-path="url(#p0befe5b7ab)" d="M 361.152 71.04 
L 374.4576 71.04 
" style="fill:none;stroke:#001cf1;stroke-width:1.5;"/>
    <path clip-path="url(#p0befe5b7ab)" d="M 361.152 41.472 
L 374.4576 41.472 
" style="fill:none;stroke:#0000ff;stroke-width:1.5;"/>
   </g>
   <g id="patch_8">
    <path d="M 361.152 307.584 
L 361.152 278.016 
L 361.152 71.04 
L 361.152 41.472 
L 374.4576 41.472 
L 374.4576 71.04 
L 374.4576 278.016 
L 374.4576 307.584 
z
" style="fill:none;stroke:#000000;stroke-linejoin:miter;stroke-width:0.8;"/>
   </g>
  </g>
 </g>
 <defs>
  <clipPath id="p57cabbdf78">
   <rect height="266.112" width="285.696" x="57.6" y="41.472"/>
  </clipPath>
  <clipPath id="p0befe5b7ab">
   <rect height="266.112" width="13.3056" x="361.152" y="41.472"/>
  </clipPath>
 </defs>
</svg>
