<?xml version="1.0" encoding="utf-8" standalone="no"?>
<!DOCTYPE svg PUBLIC "-//W3C//DTD SVG 1.1//EN"
  "http://www.w3.org/Graphics/SVG/1.1/DTD/svg11.dtd">
<!-- Created with matplotlib (https://matplotlib.org/) -->
<svg height="345.6pt" version="1.1" viewBox="0 0 460.8 345.6" width="460.8pt" xmlns="http://www.w3.org/2000/svg" xmlns:xlink="http://www.w3.org/1999/xlink">
 <defs>
  <style type="text/css">
*{stroke-linecap:butt;stroke-linejoin:round;}
  </style>
 </defs>
 <g id="figure_1">
  <g id="patch_1">
   <path d="M 0 345.6 
L 460.8 345.6 
L 460.8 0 
L 0 0 
z
" style="fill:#ffffff;"/>
  </g>
  <g id="axes_1">
   <g id="patch_2">
    <path d="M 57.6 307.584 
L 343.296 307.584 
L 343.296 41.472 
L 57.6 41.472 
z
" style="fill:#ffffff;"/>
   </g>
   <g id="matplotlib.axis_1">
    <g id="xtick_1">
     <g id="line2d_1">
      <defs>
       <path d="M 0 0 
L 0 3.5 
" id="mca1381b5ab" style="stroke:#000000;stroke-width:0.8;"/>
      </defs>
      <g>
       <use style="stroke:#000000;stroke-width:0.8;" x="57.6" xlink:href="#mca1381b5ab" y="307.584"/>
      </g>
     </g>
     <g id="text_1">
      <!-- −2.0 -->
      <defs>
       <path d="M 10.59375 35.5 
L 73.1875 35.5 
L 73.1875 27.203125 
L 10.59375 27.203125 
z
" id="DejaVuSans-8722"/>
       <path d="M 19.1875 8.296875 
L 53.609375 8.296875 
L 53.609375 0 
L 7.328125 0 
L 7.328125 8.296875 
Q 12.9375 14.109375 22.625 23.890625 
Q 32.328125 33.6875 34.8125 36.53125 
Q 39.546875 41.84375 41.421875 45.53125 
Q 43.3125 49.21875 43.3125 52.78125 
Q 43.3125 58.59375 39.234375 62.25 
Q 35.15625 65.921875 28.609375 65.921875 
Q 23.96875 65.921875 18.8125 64.3125 
Q 13.671875 62.703125 7.8125 59.421875 
L 7.8125 69.390625 
Q 13.765625 71.78125 18.9375 73 
Q 24.125 74.21875 28.421875 74.21875 
Q 39.75 74.21875 46.484375 68.546875 
Q 53.21875 62.890625 53.21875 53.421875 
Q 53.21875 48.921875 51.53125 44.890625 
Q 49.859375 40.875 45.40625 35.40625 
Q 44.1875 33.984375 37.640625 27.21875 
Q 31.109375 20.453125 19.1875 8.296875 
z
" id="DejaVuSans-50"/>
       <path d="M 10.6875 12.40625 
L 21 12.40625 
L 21 0 
L 10.6875 0 
z
" id="DejaVuSans-46"/>
       <path d="M 31.78125 66.40625 
Q 24.171875 66.40625 20.328125 58.90625 
Q 16.5 51.421875 16.5 36.375 
Q 16.5 21.390625 20.328125 13.890625 
Q 24.171875 6.390625 31.78125 6.390625 
Q 39.453125 6.390625 43.28125 13.890625 
Q 47.125 21.390625 47.125 36.375 
Q 47.125 51.421875 43.28125 58.90625 
Q 39.453125 66.40625 31.78125 66.40625 
z
M 31.78125 74.21875 
Q 44.046875 74.21875 50.515625 64.515625 
Q 56.984375 54.828125 56.984375 36.375 
Q 56.984375 17.96875 50.515625 8.265625 
Q 44.046875 -1.421875 31.78125 -1.421875 
Q 19.53125 -1.421875 13.0625 8.265625 
Q 6.59375 17.96875 6.59375 36.375 
Q 6.59375 54.828125 13.0625 64.515625 
Q 19.53125 74.21875 31.78125 74.21875 
z
" id="DejaVuSans-48"/>
      </defs>
      <g transform="translate(45.458594 322.182437)scale(0.1 -0.1)">
       <use xlink:href="#DejaVuSans-8722"/>
       <use x="83.789062" xlink:href="#DejaVuSans-50"/>
       <use x="147.412109" xlink:href="#DejaVuSans-46"/>
       <use x="179.199219" xlink:href="#DejaVuSans-48"/>
      </g>
     </g>
    </g>
    <g id="xtick_2">
     <g id="line2d_2">
      <g>
       <use style="stroke:#000000;stroke-width:0.8;" x="93.312" xlink:href="#mca1381b5ab" y="307.584"/>
      </g>
     </g>
     <g id="text_2">
      <!-- −1.5 -->
      <defs>
       <path d="M 12.40625 8.296875 
L 28.515625 8.296875 
L 28.515625 63.921875 
L 10.984375 60.40625 
L 10.984375 69.390625 
L 28.421875 72.90625 
L 38.28125 72.90625 
L 38.28125 8.296875 
L 54.390625 8.296875 
L 54.390625 0 
L 12.40625 0 
z
" id="DejaVuSans-49"/>
       <path d="M 10.796875 72.90625 
L 49.515625 72.90625 
L 49.515625 64.59375 
L 19.828125 64.59375 
L 19.828125 46.734375 
Q 21.96875 47.46875 24.109375 47.828125 
Q 26.265625 48.1875 28.421875 48.1875 
Q 40.625 48.1875 47.75 41.5 
Q 54.890625 34.8125 54.890625 23.390625 
Q 54.890625 11.625 47.5625 5.09375 
Q 40.234375 -1.421875 26.90625 -1.421875 
Q 22.3125 -1.421875 17.546875 -0.640625 
Q 12.796875 0.140625 7.71875 1.703125 
L 7.71875 11.625 
Q 12.109375 9.234375 16.796875 8.0625 
Q 21.484375 6.890625 26.703125 6.890625 
Q 35.15625 6.890625 40.078125 11.328125 
Q 45.015625 15.765625 45.015625 23.390625 
Q 45.015625 31 40.078125 35.4375 
Q 35.15625 39.890625 26.703125 39.890625 
Q 22.75 39.890625 18.8125 39.015625 
Q 14.890625 38.140625 10.796875 36.28125 
z
" id="DejaVuSans-53"/>
      </defs>
      <g transform="translate(81.170594 322.182437)scale(0.1 -0.1)">
       <use xlink:href="#DejaVuSans-8722"/>
       <use x="83.789062" xlink:href="#DejaVuSans-49"/>
       <use x="147.412109" xlink:href="#DejaVuSans-46"/>
       <use x="179.199219" xlink:href="#DejaVuSans-53"/>
      </g>
     </g>
    </g>
    <g id="xtick_3">
     <g id="line2d_3">
      <g>
       <use style="stroke:#000000;stroke-width:0.8;" x="129.024" xlink:href="#mca1381b5ab" y="307.584"/>
      </g>
     </g>
     <g id="text_3">
      <!-- −1.0 -->
      <g transform="translate(116.882594 322.182437)scale(0.1 -0.1)">
       <use xlink:href="#DejaVuSans-8722"/>
       <use x="83.789062" xlink:href="#DejaVuSans-49"/>
       <use x="147.412109" xlink:href="#DejaVuSans-46"/>
       <use x="179.199219" xlink:href="#DejaVuSans-48"/>
      </g>
     </g>
    </g>
    <g id="xtick_4">
     <g id="line2d_4">
      <g>
       <use style="stroke:#000000;stroke-width:0.8;" x="164.736" xlink:href="#mca1381b5ab" y="307.584"/>
      </g>
     </g>
     <g id="text_4">
      <!-- −0.5 -->
      <g transform="translate(152.594594 322.182437)scale(0.1 -0.1)">
       <use xlink:href="#DejaVuSans-8722"/>
       <use x="83.789062" xlink:href="#DejaVuSans-48"/>
       <use x="147.412109" xlink:href="#DejaVuSans-46"/>
       <use x="179.199219" xlink:href="#DejaVuSans-53"/>
      </g>
     </g>
    </g>
    <g id="xtick_5">
     <g id="line2d_5">
      <g>
       <use style="stroke:#000000;stroke-width:0.8;" x="200.448" xlink:href="#mca1381b5ab" y="307.584"/>
      </g>
     </g>
     <g id="text_5">
      <!-- 0.0 -->
      <g transform="translate(192.496438 322.182437)scale(0.1 -0.1)">
       <use xlink:href="#DejaVuSans-48"/>
       <use x="63.623047" xlink:href="#DejaVuSans-46"/>
       <use x="95.410156" xlink:href="#DejaVuSans-48"/>
      </g>
     </g>
    </g>
    <g id="xtick_6">
     <g id="line2d_6">
      <g>
       <use style="stroke:#000000;stroke-width:0.8;" x="236.16" xlink:href="#mca1381b5ab" y="307.584"/>
      </g>
     </g>
     <g id="text_6">
      <!-- 0.5 -->
      <g transform="translate(228.208438 322.182437)scale(0.1 -0.1)">
       <use xlink:href="#DejaVuSans-48"/>
       <use x="63.623047" xlink:href="#DejaVuSans-46"/>
       <use x="95.410156" xlink:href="#DejaVuSans-53"/>
      </g>
     </g>
    </g>
    <g id="xtick_7">
     <g id="line2d_7">
      <g>
       <use style="stroke:#000000;stroke-width:0.8;" x="271.872" xlink:href="#mca1381b5ab" y="307.584"/>
      </g>
     </g>
     <g id="text_7">
      <!-- 1.0 -->
      <g transform="translate(263.920437 322.182437)scale(0.1 -0.1)">
       <use xlink:href="#DejaVuSans-49"/>
       <use x="63.623047" xlink:href="#DejaVuSans-46"/>
       <use x="95.410156" xlink:href="#DejaVuSans-48"/>
      </g>
     </g>
    </g>
    <g id="xtick_8">
     <g id="line2d_8">
      <g>
       <use style="stroke:#000000;stroke-width:0.8;" x="307.584" xlink:href="#mca1381b5ab" y="307.584"/>
      </g>
     </g>
     <g id="text_8">
      <!-- 1.5 -->
      <g transform="translate(299.632437 322.182437)scale(0.1 -0.1)">
       <use xlink:href="#DejaVuSans-49"/>
       <use x="63.623047" xlink:href="#DejaVuSans-46"/>
       <use x="95.410156" xlink:href="#DejaVuSans-53"/>
      </g>
     </g>
    </g>
    <g id="xtick_9">
     <g id="line2d_9">
      <g>
       <use style="stroke:#000000;stroke-width:0.8;" x="343.296" xlink:href="#mca1381b5ab" y="307.584"/>
      </g>
     </g>
     <g id="text_9">
      <!-- 2.0 -->
      <g transform="translate(335.344438 322.182437)scale(0.1 -0.1)">
       <use xlink:href="#DejaVuSans-50"/>
       <use x="63.623047" xlink:href="#DejaVuSans-46"/>
       <use x="95.410156" xlink:href="#DejaVuSans-48"/>
      </g>
     </g>
    </g>
   </g>
   <g id="matplotlib.axis_2">
    <g id="ytick_1">
     <g id="line2d_10">
      <defs>
       <path d="M 0 0 
L -3.5 0 
" id="m1af08126bd" style="stroke:#000000;stroke-width:0.8;"/>
      </defs>
      <g>
       <use style="stroke:#000000;stroke-width:0.8;" x="57.6" xlink:href="#m1af08126bd" y="307.584"/>
      </g>
     </g>
     <g id="text_10">
      <!-- −2.0 -->
      <g transform="translate(26.317187 311.383219)scale(0.1 -0.1)">
       <use xlink:href="#DejaVuSans-8722"/>
       <use x="83.789062" xlink:href="#DejaVuSans-50"/>
       <use x="147.412109" xlink:href="#DejaVuSans-46"/>
       <use x="179.199219" xlink:href="#DejaVuSans-48"/>
      </g>
     </g>
    </g>
    <g id="ytick_2">
     <g id="line2d_11">
      <g>
       <use style="stroke:#000000;stroke-width:0.8;" x="57.6" xlink:href="#m1af08126bd" y="274.32"/>
      </g>
     </g>
     <g id="text_11">
      <!-- −1.5 -->
      <g transform="translate(26.317187 278.119219)scale(0.1 -0.1)">
       <use xlink:href="#DejaVuSans-8722"/>
       <use x="83.789062" xlink:href="#DejaVuSans-49"/>
       <use x="147.412109" xlink:href="#DejaVuSans-46"/>
       <use x="179.199219" xlink:href="#DejaVuSans-53"/>
      </g>
     </g>
    </g>
    <g id="ytick_3">
     <g id="line2d_12">
      <g>
       <use style="stroke:#000000;stroke-width:0.8;" x="57.6" xlink:href="#m1af08126bd" y="241.056"/>
      </g>
     </g>
     <g id="text_12">
      <!-- −1.0 -->
      <g transform="translate(26.317187 244.855219)scale(0.1 -0.1)">
       <use xlink:href="#DejaVuSans-8722"/>
       <use x="83.789062" xlink:href="#DejaVuSans-49"/>
       <use x="147.412109" xlink:href="#DejaVuSans-46"/>
       <use x="179.199219" xlink:href="#DejaVuSans-48"/>
      </g>
     </g>
    </g>
    <g id="ytick_4">
     <g id="line2d_13">
      <g>
       <use style="stroke:#000000;stroke-width:0.8;" x="57.6" xlink:href="#m1af08126bd" y="207.792"/>
      </g>
     </g>
     <g id="text_13">
      <!-- −0.5 -->
      <g transform="translate(26.317187 211.591219)scale(0.1 -0.1)">
       <use xlink:href="#DejaVuSans-8722"/>
       <use x="83.789062" xlink:href="#DejaVuSans-48"/>
       <use x="147.412109" xlink:href="#DejaVuSans-46"/>
       <use x="179.199219" xlink:href="#DejaVuSans-53"/>
      </g>
     </g>
    </g>
    <g id="ytick_5">
     <g id="line2d_14">
      <g>
       <use style="stroke:#000000;stroke-width:0.8;" x="57.6" xlink:href="#m1af08126bd" y="174.528"/>
      </g>
     </g>
     <g id="text_14">
      <!-- 0.0 -->
      <g transform="translate(34.696875 178.327219)scale(0.1 -0.1)">
       <use xlink:href="#DejaVuSans-48"/>
       <use x="63.623047" xlink:href="#DejaVuSans-46"/>
       <use x="95.410156" xlink:href="#DejaVuSans-48"/>
      </g>
     </g>
    </g>
    <g id="ytick_6">
     <g id="line2d_15">
      <g>
       <use style="stroke:#000000;stroke-width:0.8;" x="57.6" xlink:href="#m1af08126bd" y="141.264"/>
      </g>
     </g>
     <g id="text_15">
      <!-- 0.5 -->
      <g transform="translate(34.696875 145.063219)scale(0.1 -0.1)">
       <use xlink:href="#DejaVuSans-48"/>
       <use x="63.623047" xlink:href="#DejaVuSans-46"/>
       <use x="95.410156" xlink:href="#DejaVuSans-53"/>
      </g>
     </g>
    </g>
    <g id="ytick_7">
     <g id="line2d_16">
      <g>
       <use style="stroke:#000000;stroke-width:0.8;" x="57.6" xlink:href="#m1af08126bd" y="108"/>
      </g>
     </g>
     <g id="text_16">
      <!-- 1.0 -->
      <g transform="translate(34.696875 111.799219)scale(0.1 -0.1)">
       <use xlink:href="#DejaVuSans-49"/>
       <use x="63.623047" xlink:href="#DejaVuSans-46"/>
       <use x="95.410156" xlink:href="#DejaVuSans-48"/>
      </g>
     </g>
    </g>
    <g id="ytick_8">
     <g id="line2d_17">
      <g>
       <use style="stroke:#000000;stroke-width:0.8;" x="57.6" xlink:href="#m1af08126bd" y="74.736"/>
      </g>
     </g>
     <g id="text_17">
      <!-- 1.5 -->
      <g transform="translate(34.696875 78.535219)scale(0.1 -0.1)">
       <use xlink:href="#DejaVuSans-49"/>
       <use x="63.623047" xlink:href="#DejaVuSans-46"/>
       <use x="95.410156" xlink:href="#DejaVuSans-53"/>
      </g>
     </g>
    </g>
    <g id="ytick_9">
     <g id="line2d_18">
      <g>
       <use style="stroke:#000000;stroke-width:0.8;" x="57.6" xlink:href="#m1af08126bd" y="41.472"/>
      </g>
     </g>
     <g id="text_18">
      <!-- 2.0 -->
      <g transform="translate(34.696875 45.271219)scale(0.1 -0.1)">
       <use xlink:href="#DejaVuSans-50"/>
       <use x="63.623047" xlink:href="#DejaVuSans-46"/>
       <use x="95.410156" xlink:href="#DejaVuSans-48"/>
      </g>
     </g>
    </g>
   </g>
   <g id="LineCollection_1"/>
   <g id="LineCollection_2">
    <path clip-path="url(#pdd7430cc86)" d="M 175.918545 248.626633 
L 173.032727 248.092615 
L 167.261091 246.815132 
L 161.489455 245.257812 
L 154.938719 243.072 
L 149.946182 241.037019 
L 147.060364 239.706763 
L 143.147543 237.696 
L 138.402909 234.841547 
L 134.824291 232.32 
L 131.518556 229.632 
L 128.64868 226.944 
L 126.150917 224.256 
L 123.970967 221.568 
L 121.088 217.242779 
L 120.462697 216.192 
L 119.056746 213.504 
L 117.844706 210.816 
L 116.824969 208.128 
L 115.956007 205.44 
L 115.228778 202.752 
L 114.172588 197.376 
L 113.512834 192 
L 113.156236 186.624 
L 112.98571 178.56 
L 113.062471 165.12 
L 113.30247 159.744 
L 113.798986 154.368 
L 114.645299 148.992 
L 115.316364 145.970486 
L 115.956007 143.616 
L 116.824969 140.928 
L 118.202182 137.427453 
L 119.056746 135.552 
L 121.088 131.813221 
L 122.09837 130.176 
L 123.973818 127.48435 
L 126.859636 124.015696 
L 129.745455 121.058702 
L 132.631273 118.493493 
L 135.517091 116.230106 
L 138.652568 114.048 
L 143.147543 111.36 
L 147.060364 109.349237 
L 149.946182 108.018981 
L 155.717818 105.700628 
L 161.489455 103.798188 
L 164.375273 102.970859 
L 170.146909 101.57171 
L 175.918545 100.429367 
L 181.690182 99.580886 
L 187.461818 98.958666 
L 193.233455 98.562708 
L 199.005091 98.393012 
L 204.776727 98.449578 
L 210.548364 98.732405 
L 216.32 99.241493 
L 222.091636 99.976844 
L 227.863273 100.963385 
L 233.634909 102.240868 
L 239.406545 103.798188 
L 245.957281 105.984 
L 250.949818 108.018981 
L 253.835636 109.349237 
L 257.748457 111.36 
L 262.493091 114.214453 
L 266.071709 116.736 
L 269.377444 119.424 
L 272.24732 122.112 
L 274.745083 124.8 
L 276.925033 127.488 
L 279.808 131.813221 
L 280.433303 132.864 
L 281.839254 135.552 
L 283.051294 138.24 
L 284.071031 140.928 
L 284.939993 143.616 
L 285.667222 146.304 
L 286.723412 151.68 
L 287.383166 157.056 
L 287.739764 162.432 
L 287.91029 170.496 
L 287.833529 183.936 
L 287.59353 189.312 
L 287.097014 194.688 
L 286.250701 200.064 
L 285.579636 203.085514 
L 284.939993 205.44 
L 284.071031 208.128 
L 282.693818 211.628547 
L 281.839254 213.504 
L 279.808 217.242779 
L 278.79763 218.88 
L 276.922182 221.57165 
L 274.036364 225.040304 
L 271.150545 227.997298 
L 268.264727 230.562507 
L 265.378909 232.825894 
L 262.243432 235.008 
L 257.748457 237.696 
L 253.835636 239.706763 
L 250.949818 241.037019 
L 245.178182 243.355372 
L 239.406545 245.257812 
L 236.520727 246.085141 
L 230.749091 247.48429 
L 224.977455 248.626633 
L 219.205818 249.475114 
L 213.434182 250.097334 
L 207.662545 250.493292 
L 201.890909 250.662988 
L 196.119273 250.606422 
L 190.347636 250.323595 
L 184.576 249.814507 
L 178.804364 249.079156 
L 175.918545 248.626633 
L 175.918545 248.626633 
" style="fill:none;stroke:#00df90;stroke-width:1.5;"/>
   </g>
   <g id="LineCollection_3">
    <path clip-path="url(#pdd7430cc86)" d="M 187.461818 270.119784 
L 181.690182 269.731272 
L 173.032727 268.862394 
L 164.375273 267.667687 
L 158.603636 266.655952 
L 152.832 265.466668 
L 147.060364 264.096116 
L 139.197021 261.888 
L 135.517091 260.684932 
L 129.745455 258.613318 
L 123.973818 256.24268 
L 118.202182 253.512086 
L 112.430545 250.347459 
L 109.312071 248.448 
L 105.367573 245.76 
L 100.887273 242.273166 
L 98.001455 239.739243 
L 95.115636 236.902942 
L 92.229818 233.689132 
L 91.09497 232.32 
L 89.072006 229.632 
L 86.458182 225.583444 
L 85.678496 224.256 
L 83.572364 220.102589 
L 83.011477 218.88 
L 81.919075 216.192 
L 80.686545 212.628729 
L 79.431786 208.128 
L 78.327569 202.752 
L 77.57844 197.376 
L 77.118146 192 
L 76.869357 186.624 
L 76.750386 178.56 
L 76.80394 165.12 
L 76.971381 159.744 
L 77.317787 154.368 
L 77.910798 148.992 
L 78.831789 143.616 
L 80.13589 138.24 
L 80.958913 135.552 
L 81.919075 132.864 
L 83.572364 128.953411 
L 84.261457 127.488 
L 86.458182 123.472556 
L 87.277806 122.112 
L 89.344 119.054387 
L 92.229818 115.366868 
L 93.352549 114.048 
L 95.874009 111.36 
L 98.691964 108.672 
L 101.842862 105.984 
L 106.658909 102.397702 
L 109.544727 100.462069 
L 115.316364 97.073142 
L 118.81182 95.232 
L 124.580461 92.544 
L 131.274105 89.856 
L 135.517091 88.371068 
L 141.288727 86.548126 
L 148.949577 84.48 
L 152.832 83.589332 
L 158.603636 82.400048 
L 164.375273 81.388313 
L 173.032727 80.193606 
L 181.690182 79.324728 
L 187.461818 78.936216 
L 196.119273 78.628236 
L 204.776727 78.628236 
L 213.434182 78.936216 
L 219.205818 79.324728 
L 227.863273 80.193606 
L 236.520727 81.388313 
L 242.292364 82.400048 
L 248.064 83.589332 
L 253.835636 84.959884 
L 261.698979 87.168 
L 265.378909 88.371068 
L 271.150545 90.442682 
L 276.922182 92.81332 
L 282.693818 95.543914 
L 288.465455 98.708541 
L 291.583929 100.608 
L 295.528427 103.296 
L 300.008727 106.782834 
L 302.894545 109.316757 
L 305.780364 112.153058 
L 308.666182 115.366868 
L 309.80103 116.736 
L 311.823994 119.424 
L 314.437818 123.472556 
L 315.217504 124.8 
L 317.323636 128.953411 
L 317.884523 130.176 
L 318.976925 132.864 
L 320.209455 136.427271 
L 321.464214 140.928 
L 322.568431 146.304 
L 323.31756 151.68 
L 323.777854 157.056 
L 324.026643 162.432 
L 324.145614 170.496 
L 324.09206 183.936 
L 323.924619 189.312 
L 323.578213 194.688 
L 322.985202 200.064 
L 322.064211 205.44 
L 320.76011 210.816 
L 319.937087 213.504 
L 318.976925 216.192 
L 317.323636 220.102589 
L 316.634543 221.568 
L 314.437818 225.583444 
L 313.618194 226.944 
L 311.552 230.001613 
L 308.666182 233.689132 
L 307.543451 235.008 
L 305.021991 237.696 
L 302.204036 240.384 
L 299.053138 243.072 
L 294.237091 246.658298 
L 291.351273 248.593931 
L 285.579636 251.982858 
L 282.08418 253.824 
L 276.315539 256.512 
L 269.621895 259.2 
L 265.378909 260.684932 
L 259.607273 262.507874 
L 251.946423 264.576 
L 248.064 265.466668 
L 242.292364 266.655952 
L 236.520727 267.667687 
L 227.863273 268.862394 
L 219.205818 269.731272 
L 213.434182 270.119784 
L 204.776727 270.427764 
L 196.119273 270.427764 
L 187.461818 270.119784 
L 187.461818 270.119784 
" style="fill:none;stroke:#00bfa0;stroke-width:1.5;"/>
   </g>
   <g id="LineCollection_4">
    <path clip-path="url(#pdd7430cc86)" d="M 343.296 227.314835 
L 342.064974 229.632 
L 340.410182 232.445096 
L 337.524364 236.686822 
L 336.785185 237.696 
L 334.638545 240.387348 
L 331.752727 243.607527 
L 328.866909 246.501464 
L 325.981091 249.126883 
L 323.095273 251.530516 
L 320.104354 253.824 
L 314.437818 257.663681 
L 311.552 259.447243 
L 305.780364 262.647227 
L 300.008727 265.482852 
L 294.237091 268.008789 
L 288.465455 270.271101 
L 281.639924 272.64 
L 274.036364 274.932767 
L 268.264727 276.458226 
L 261.706982 278.016 
L 253.835636 279.598691 
L 245.178182 281.066909 
L 236.520727 282.231089 
L 227.863273 283.145801 
L 219.205818 283.790855 
L 210.548364 284.1866 
L 201.890909 284.344898 
L 193.233455 284.265749 
L 184.576 283.949153 
L 175.880742 283.392 
L 167.261091 282.563711 
L 158.603636 281.482688 
L 149.946182 280.123538 
L 141.288727 278.461523 
L 135.517091 277.164623 
L 126.859636 274.932767 
L 119.256076 272.64 
L 112.430545 270.271101 
L 109.544727 269.167293 
L 103.773091 266.787229 
L 98.001455 264.113296 
L 92.229818 261.092984 
L 88.921575 259.2 
L 83.572364 255.770714 
L 80.686545 253.74526 
L 77.298626 251.136 
L 74.127754 248.448 
L 71.247444 245.76 
L 68.631143 243.072 
L 66.254557 240.384 
L 63.371636 236.686822 
L 62.16759 235.008 
L 60.405406 232.32 
L 57.6 227.314835 
L 57.6 227.314835 
" style="fill:none;stroke:#009fb0;stroke-width:1.5;"/>
    <path clip-path="url(#pdd7430cc86)" d="M 57.6 121.741165 
L 58.831026 119.424 
L 60.485818 116.610904 
L 63.371636 112.369178 
L 64.110815 111.36 
L 66.257455 108.668652 
L 69.143273 105.448473 
L 72.029091 102.554536 
L 74.914909 99.929117 
L 77.800727 97.525484 
L 80.791646 95.232 
L 86.458182 91.392319 
L 89.344 89.608757 
L 95.115636 86.408773 
L 100.887273 83.573148 
L 106.658909 81.047211 
L 112.430545 78.784899 
L 119.256076 76.416 
L 126.859636 74.123233 
L 132.631273 72.597774 
L 139.189018 71.04 
L 147.060364 69.457309 
L 155.717818 67.989091 
L 164.375273 66.824911 
L 173.032727 65.910199 
L 181.690182 65.265145 
L 190.347636 64.8694 
L 199.005091 64.711102 
L 207.662545 64.790251 
L 216.32 65.106847 
L 225.015258 65.664 
L 233.634909 66.492289 
L 242.292364 67.573312 
L 250.949818 68.932462 
L 259.607273 70.594477 
L 265.378909 71.891377 
L 274.036364 74.123233 
L 281.639924 76.416 
L 288.465455 78.784899 
L 291.351273 79.888707 
L 297.122909 82.268771 
L 302.894545 84.942704 
L 308.666182 87.963016 
L 311.974425 89.856 
L 317.323636 93.285286 
L 320.209455 95.31074 
L 323.597374 97.92 
L 326.768246 100.608 
L 329.648556 103.296 
L 332.264857 105.984 
L 334.641443 108.672 
L 337.524364 112.369178 
L 338.72841 114.048 
L 340.490594 116.736 
L 343.296 121.741165 
L 343.296 121.741165 
" style="fill:none;stroke:#009fb0;stroke-width:1.5;"/>
   </g>
   <g id="LineCollection_5">
    <path clip-path="url(#pdd7430cc86)" d="M 343.296 258.32922 
L 340.410182 260.504929 
L 337.524364 262.542235 
L 334.454102 264.576 
L 328.866909 267.915453 
L 323.095273 271.004158 
L 317.323636 273.780199 
L 311.552 276.286906 
L 305.780364 278.561298 
L 299.797767 280.704 
L 291.30843 283.392 
L 281.421578 286.08 
L 274.036364 287.806125 
L 268.264727 289.025652 
L 259.607273 290.608724 
L 250.949818 291.952559 
L 242.292364 293.052148 
L 233.634909 293.945564 
L 224.977455 294.611325 
L 216.32 295.071253 
L 207.662545 295.334069 
L 199.005091 295.399773 
L 190.347636 295.268365 
L 181.690182 294.939845 
L 173.032727 294.414213 
L 164.375273 293.670667 
L 155.717818 292.708527 
L 146.502013 291.456 
L 138.402909 290.105019 
L 129.745455 288.434667 
L 121.088 286.473616 
L 115.316364 284.98922 
L 109.544727 283.379243 
L 100.887273 280.631528 
L 92.229818 277.453996 
L 86.458182 275.076015 
L 80.686545 272.441399 
L 74.914909 269.508396 
L 69.143273 266.227954 
L 66.257455 264.45627 
L 60.485818 260.504929 
L 57.6 258.32922 
L 57.6 258.32922 
" style="fill:none;stroke:#007fc0;stroke-width:1.5;"/>
    <path clip-path="url(#pdd7430cc86)" d="M 57.6 90.72678 
L 60.485818 88.551071 
L 63.371636 86.513765 
L 66.441898 84.48 
L 72.029091 81.140547 
L 77.800727 78.051842 
L 83.572364 75.275801 
L 89.344 72.769094 
L 95.115636 70.494702 
L 101.098233 68.352 
L 109.58757 65.664 
L 119.474422 62.976 
L 126.859636 61.249875 
L 132.631273 60.030348 
L 141.288727 58.447276 
L 149.946182 57.103441 
L 158.603636 56.003852 
L 167.261091 55.110436 
L 175.918545 54.444675 
L 184.576 53.984747 
L 193.233455 53.721931 
L 201.890909 53.656227 
L 210.548364 53.787635 
L 219.205818 54.116155 
L 227.863273 54.641787 
L 236.520727 55.385333 
L 245.178182 56.347473 
L 254.393987 57.6 
L 262.493091 58.950981 
L 271.150545 60.621333 
L 279.808 62.582384 
L 285.579636 64.06678 
L 291.351273 65.676757 
L 300.008727 68.424472 
L 308.666182 71.602004 
L 314.437818 73.979985 
L 320.209455 76.614601 
L 325.981091 79.547604 
L 331.752727 82.828046 
L 334.638545 84.59973 
L 340.410182 88.551071 
L 343.296 90.72678 
L 343.296 90.72678 
" style="fill:none;stroke:#007fc0;stroke-width:1.5;"/>
   </g>
   <g id="LineCollection_6">
    <path clip-path="url(#pdd7430cc86)" d="M 343.296 275.53204 
L 340.410182 277.036973 
L 338.493714 278.016 
L 337.524364 278.486125 
L 334.638545 279.856559 
L 332.815235 280.704 
L 331.752727 281.173452 
L 328.866909 282.420787 
L 326.568856 283.392 
L 325.981091 283.628435 
L 323.095273 284.762903 
L 320.209455 285.870989 
L 319.651845 286.08 
L 317.323636 286.911631 
L 314.437818 287.917298 
L 311.934087 288.768 
L 311.552 288.891855 
L 308.666182 289.803321 
L 305.780364 290.690801 
L 303.223049 291.456 
L 302.894545 291.549878 
L 300.008727 292.351661 
L 297.122909 293.130537 
L 294.237091 293.886504 
L 293.223414 294.144 
L 291.351273 294.598663 
L 288.465455 295.277604 
L 285.579636 295.934644 
L 282.693818 296.569782 
L 281.459853 296.832 
L 279.808 297.167924 
L 276.922182 297.73383 
L 274.036364 298.278776 
L 271.150545 298.802763 
L 268.264727 299.305791 
L 266.982399 299.52 
L 265.378909 299.776582 
L 262.493091 300.218278 
L 259.607273 300.639898 
L 256.721455 301.04144 
L 253.835636 301.422905 
L 250.949818 301.784293 
L 248.064 302.125603 
L 247.323786 302.208 
L 245.178182 302.43699 
L 242.292364 302.725729 
L 239.406545 302.995219 
L 236.520727 303.24546 
L 233.634909 303.476452 
L 230.749091 303.688194 
L 227.863273 303.880687 
L 224.977455 304.053931 
L 222.091636 304.207925 
L 219.205818 304.342671 
L 216.32 304.458166 
L 213.434182 304.554413 
L 210.548364 304.63141 
L 207.662545 304.689158 
L 204.776727 304.727657 
L 201.890909 304.746906 
L 199.005091 304.746906 
L 196.119273 304.727657 
L 193.233455 304.689158 
L 190.347636 304.63141 
L 187.461818 304.554413 
L 184.576 304.458166 
L 181.690182 304.342671 
L 178.804364 304.207925 
L 175.918545 304.053931 
L 173.032727 303.880687 
L 170.146909 303.688194 
L 167.261091 303.476452 
L 164.375273 303.24546 
L 161.489455 302.995219 
L 158.603636 302.725729 
L 155.717818 302.43699 
L 153.572214 302.208 
L 152.832 302.125603 
L 149.946182 301.784293 
L 147.060364 301.422905 
L 144.174545 301.04144 
L 141.288727 300.639898 
L 138.402909 300.218278 
L 135.517091 299.776582 
L 133.913601 299.52 
L 132.631273 299.305791 
L 129.745455 298.802763 
L 126.859636 298.278776 
L 123.973818 297.73383 
L 121.088 297.167924 
L 119.436147 296.832 
L 118.202182 296.569782 
L 115.316364 295.934644 
L 112.430545 295.277604 
L 109.544727 294.598663 
L 107.672586 294.144 
L 106.658909 293.886504 
L 103.773091 293.130537 
L 100.887273 292.351661 
L 98.001455 291.549878 
L 97.672951 291.456 
L 95.115636 290.690801 
L 92.229818 289.803321 
L 89.344 288.891855 
L 88.961913 288.768 
L 86.458182 287.917298 
L 83.572364 286.911631 
L 81.244155 286.08 
L 80.686545 285.870989 
L 77.800727 284.762903 
L 74.914909 283.628435 
L 74.327144 283.392 
L 72.029091 282.420787 
L 69.143273 281.173452 
L 68.080765 280.704 
L 66.257455 279.856559 
L 63.371636 278.486125 
L 62.402286 278.016 
L 60.485818 277.036973 
L 57.6 275.53204 
" style="fill:none;stroke:#005fd0;stroke-width:1.5;"/>
    <path clip-path="url(#pdd7430cc86)" d="M 57.6 73.52396 
L 60.485818 72.019027 
L 62.402286 71.04 
L 63.371636 70.569875 
L 66.257455 69.199441 
L 68.080765 68.352 
L 69.143273 67.882548 
L 72.029091 66.635213 
L 74.327144 65.664 
L 74.914909 65.427565 
L 77.800727 64.293097 
L 80.686545 63.185011 
L 81.244155 62.976 
L 83.572364 62.144369 
L 86.458182 61.138702 
L 88.961913 60.288 
L 89.344 60.164145 
L 92.229818 59.252679 
L 95.115636 58.365199 
L 97.672951 57.6 
L 98.001455 57.506122 
L 100.887273 56.704339 
L 103.773091 55.925463 
L 106.658909 55.169496 
L 107.672586 54.912 
L 109.544727 54.457337 
L 112.430545 53.778396 
L 115.316364 53.121356 
L 118.202182 52.486218 
L 119.436147 52.224 
L 121.088 51.888076 
L 123.973818 51.32217 
L 126.859636 50.777224 
L 129.745455 50.253237 
L 132.631273 49.750209 
L 133.913601 49.536 
L 135.517091 49.279418 
L 138.402909 48.837722 
L 141.288727 48.416102 
L 144.174545 48.01456 
L 147.060364 47.633095 
L 149.946182 47.271707 
L 152.832 46.930397 
L 153.572214 46.848 
L 155.717818 46.61901 
L 158.603636 46.330271 
L 161.489455 46.060781 
L 164.375273 45.81054 
L 167.261091 45.579548 
L 170.146909 45.367806 
L 173.032727 45.175313 
L 175.918545 45.002069 
L 178.804364 44.848075 
L 181.690182 44.713329 
L 184.576 44.597834 
L 187.461818 44.501587 
L 190.347636 44.42459 
L 193.233455 44.366842 
L 196.119273 44.328343 
L 199.005091 44.309094 
L 201.890909 44.309094 
L 204.776727 44.328343 
L 207.662545 44.366842 
L 210.548364 44.42459 
L 213.434182 44.501587 
L 216.32 44.597834 
L 219.205818 44.713329 
L 222.091636 44.848075 
L 224.977455 45.002069 
L 227.863273 45.175313 
L 230.749091 45.367806 
L 233.634909 45.579548 
L 236.520727 45.81054 
L 239.406545 46.060781 
L 242.292364 46.330271 
L 245.178182 46.61901 
L 247.323786 46.848 
L 248.064 46.930397 
L 250.949818 47.271707 
L 253.835636 47.633095 
L 256.721455 48.01456 
L 259.607273 48.416102 
L 262.493091 48.837722 
L 265.378909 49.279418 
L 266.982399 49.536 
L 268.264727 49.750209 
L 271.150545 50.253237 
L 274.036364 50.777224 
L 276.922182 51.32217 
L 279.808 51.888076 
L 281.459853 52.224 
L 282.693818 52.486218 
L 285.579636 53.121356 
L 288.465455 53.778396 
L 291.351273 54.457337 
L 293.223414 54.912 
L 294.237091 55.169496 
L 297.122909 55.925463 
L 300.008727 56.704339 
L 302.894545 57.506122 
L 303.223049 57.6 
L 305.780364 58.365199 
L 308.666182 59.252679 
L 311.552 60.164145 
L 311.934087 60.288 
L 314.437818 61.138702 
L 317.323636 62.144369 
L 319.651845 62.976 
L 320.209455 63.185011 
L 323.095273 64.293097 
L 325.981091 65.427565 
L 326.568856 65.664 
L 328.866909 66.635213 
L 331.752727 67.882548 
L 332.815235 68.352 
L 334.638545 69.199441 
L 337.524364 70.569875 
L 338.493714 71.04 
L 340.410182 72.019027 
L 343.296 73.52396 
" style="fill:none;stroke:#005fd0;stroke-width:1.5;"/>
   </g>
   <g id="LineCollection_7">
    <path clip-path="url(#pdd7430cc86)" d="M 129.034822 307.584 
L 126.859636 307.235925 
L 123.973818 306.755661 
L 121.088 306.256927 
L 118.202182 305.73972 
L 115.316364 305.204042 
L 113.71219 304.896 
L 112.430545 304.639531 
L 109.544727 304.042803 
L 106.658909 303.426825 
L 103.773091 302.791598 
L 101.199801 302.208 
L 100.887273 302.134073 
L 98.001455 301.431375 
L 95.115636 300.708599 
L 92.229818 299.965746 
L 90.543763 299.52 
L 89.344 299.188876 
L 86.458182 298.371456 
L 83.572364 297.533077 
L 81.218016 296.832 
L 80.686545 296.666627 
L 77.800727 295.746772 
L 74.914909 294.805015 
L 72.935402 294.144 
L 72.029091 293.827444 
L 69.143273 292.79658 
L 66.257455 291.742807 
L 65.488729 291.456 
L 63.371636 290.628962 
L 60.485818 289.477637 
L 58.7434 288.768 
L 57.6 288.279888 
" style="fill:none;stroke:#003fe0;stroke-width:1.5;"/>
    <path clip-path="url(#pdd7430cc86)" d="M 343.296 288.279888 
L 342.1526 288.768 
L 340.410182 289.477637 
L 337.524364 290.628962 
L 335.407271 291.456 
L 334.638545 291.742807 
L 331.752727 292.79658 
L 328.866909 293.827444 
L 327.960598 294.144 
L 325.981091 294.805015 
L 323.095273 295.746772 
L 320.209455 296.666627 
L 319.677984 296.832 
L 317.323636 297.533077 
L 314.437818 298.371456 
L 311.552 299.188876 
L 310.352237 299.52 
L 308.666182 299.965746 
L 305.780364 300.708599 
L 302.894545 301.431375 
L 300.008727 302.134073 
L 299.696199 302.208 
L 297.122909 302.791598 
L 294.237091 303.426825 
L 291.351273 304.042803 
L 288.465455 304.639531 
L 287.18381 304.896 
L 285.579636 305.204042 
L 282.693818 305.73972 
L 279.808 306.256927 
L 276.922182 306.755661 
L 274.036364 307.235925 
L 271.861178 307.584 
" style="fill:none;stroke:#003fe0;stroke-width:1.5;"/>
    <path clip-path="url(#pdd7430cc86)" d="M 57.6 60.776112 
L 58.7434 60.288 
L 60.485818 59.578363 
L 63.371636 58.427038 
L 65.488729 57.6 
L 66.257455 57.313193 
L 69.143273 56.25942 
L 72.029091 55.228556 
L 72.935402 54.912 
L 74.914909 54.250985 
L 77.800727 53.309228 
L 80.686545 52.389373 
L 81.218016 52.224 
L 83.572364 51.522923 
L 86.458182 50.684544 
L 89.344 49.867124 
L 90.543763 49.536 
L 92.229818 49.090254 
L 95.115636 48.347401 
L 98.001455 47.624625 
L 100.887273 46.921927 
L 101.199801 46.848 
L 103.773091 46.264402 
L 106.658909 45.629175 
L 109.544727 45.013197 
L 112.430545 44.416469 
L 113.71219 44.16 
L 115.316364 43.851958 
L 118.202182 43.31628 
L 121.088 42.799073 
L 123.973818 42.300339 
L 126.859636 41.820075 
L 129.034822 41.472 
" style="fill:none;stroke:#003fe0;stroke-width:1.5;"/>
    <path clip-path="url(#pdd7430cc86)" d="M 271.861178 41.472 
L 274.036364 41.820075 
L 276.922182 42.300339 
L 279.808 42.799073 
L 282.693818 43.31628 
L 285.579636 43.851958 
L 287.18381 44.16 
L 288.465455 44.416469 
L 291.351273 45.013197 
L 294.237091 45.629175 
L 297.122909 46.264402 
L 299.696199 46.848 
L 300.008727 46.921927 
L 302.894545 47.624625 
L 305.780364 48.347401 
L 308.666182 49.090254 
L 310.352237 49.536 
L 311.552 49.867124 
L 314.437818 50.684544 
L 317.323636 51.522923 
L 319.677984 52.224 
L 320.209455 52.389373 
L 323.095273 53.309228 
L 325.981091 54.250985 
L 327.960598 54.912 
L 328.866909 55.228556 
L 331.752727 56.25942 
L 334.638545 57.313193 
L 335.407271 57.6 
L 337.524364 58.427038 
L 340.410182 59.578363 
L 342.1526 60.288 
L 343.296 60.776112 
" style="fill:none;stroke:#003fe0;stroke-width:1.5;"/>
   </g>
   <g id="LineCollection_8">
    <path clip-path="url(#pdd7430cc86)" d="M 87.525333 307.584 
L 86.458182 307.317604 
L 83.572364 306.578738 
L 80.686545 305.821399 
L 77.800727 305.04559 
L 77.257232 304.896 
L 74.914909 304.224167 
L 72.029091 303.377198 
L 69.143273 302.510979 
L 68.155837 302.208 
L 66.257455 301.600462 
L 63.371636 300.656838 
L 60.485818 299.693137 
L 59.977939 299.52 
L 57.6 298.673731 
" style="fill:none;stroke:#001ff0;stroke-width:1.5;"/>
    <path clip-path="url(#pdd7430cc86)" d="M 343.296 298.673731 
L 340.918061 299.52 
L 340.410182 299.693137 
L 337.524364 300.656838 
L 334.638545 301.600462 
L 332.740163 302.208 
L 331.752727 302.510979 
L 328.866909 303.377198 
L 325.981091 304.224167 
L 323.638768 304.896 
L 323.095273 305.04559 
L 320.209455 305.821399 
L 317.323636 306.578738 
L 314.437818 307.317604 
L 313.370667 307.584 
" style="fill:none;stroke:#001ff0;stroke-width:1.5;"/>
    <path clip-path="url(#pdd7430cc86)" d="M 57.6 50.382269 
L 59.977939 49.536 
L 60.485818 49.362863 
L 63.371636 48.399162 
L 66.257455 47.455538 
L 68.155837 46.848 
L 69.143273 46.545021 
L 72.029091 45.678802 
L 74.914909 44.831833 
L 77.257232 44.16 
L 77.800727 44.01041 
L 80.686545 43.234601 
L 83.572364 42.477262 
L 86.458182 41.738396 
L 87.525333 41.472 
" style="fill:none;stroke:#001ff0;stroke-width:1.5;"/>
    <path clip-path="url(#pdd7430cc86)" d="M 313.370667 41.472 
L 314.437818 41.738396 
L 317.323636 42.477262 
L 320.209455 43.234601 
L 323.095273 44.01041 
L 323.638768 44.16 
L 325.981091 44.831833 
L 328.866909 45.678802 
L 331.752727 46.545021 
L 332.740163 46.848 
L 334.638545 47.455538 
L 337.524364 48.399162 
L 340.410182 49.362863 
L 340.918061 49.536 
L 343.296 50.382269 
" style="fill:none;stroke:#001ff0;stroke-width:1.5;"/>
   </g>
   <g id="LineCollection_9"/>
   <g id="patch_3">
    <path d="M 57.6 307.584 
L 57.6 41.472 
" style="fill:none;stroke:#000000;stroke-linecap:square;stroke-linejoin:miter;stroke-width:0.8;"/>
   </g>
   <g id="patch_4">
    <path d="M 343.296 307.584 
L 343.296 41.472 
" style="fill:none;stroke:#000000;stroke-linecap:square;stroke-linejoin:miter;stroke-width:0.8;"/>
   </g>
   <g id="patch_5">
    <path d="M 57.6 307.584 
L 343.296 307.584 
" style="fill:none;stroke:#000000;stroke-linecap:square;stroke-linejoin:miter;stroke-width:0.8;"/>
   </g>
   <g id="patch_6">
    <path d="M 57.6 41.472 
L 343.296 41.472 
" style="fill:none;stroke:#000000;stroke-linecap:square;stroke-linejoin:miter;stroke-width:0.8;"/>
   </g>
  </g>
  <g id="axes_2">
   <g id="patch_7">
    <path clip-path="url(#pbe09b2f5bc)" d="M 361.152 307.584 
L 361.152 274.32 
L 361.152 74.736 
L 361.152 41.472 
L 374.4576 41.472 
L 374.4576 74.736 
L 374.4576 274.32 
L 374.4576 307.584 
z
" style="fill:#ffffff;stroke:#ffffff;stroke-linejoin:miter;stroke-width:0.01;"/>
   </g>
   <g id="matplotlib.axis_3"/>
   <g id="matplotlib.axis_4">
    <g id="ytick_10">
     <g id="line2d_19">
      <defs>
       <path d="M 0 0 
L 3.5 0 
" id="mb69666ed55" style="stroke:#000000;stroke-width:0.8;"/>
      </defs>
      <g>
       <use style="stroke:#000000;stroke-width:0.8;" x="374.4576" xlink:href="#mb69666ed55" y="307.584"/>
      </g>
     </g>
     <g id="text_19">
      <!-- 0.0 -->
      <g transform="translate(381.4576 311.383219)scale(0.1 -0.1)">
       <use xlink:href="#DejaVuSans-48"/>
       <use x="63.623047" xlink:href="#DejaVuSans-46"/>
       <use x="95.410156" xlink:href="#DejaVuSans-48"/>
      </g>
     </g>
    </g>
    <g id="ytick_11">
     <g id="line2d_20">
      <g>
       <use style="stroke:#000000;stroke-width:0.8;" x="374.4576" xlink:href="#mb69666ed55" y="274.32"/>
      </g>
     </g>
     <g id="text_20">
      <!-- 1.5 -->
      <g transform="translate(381.4576 278.119219)scale(0.1 -0.1)">
       <use xlink:href="#DejaVuSans-49"/>
       <use x="63.623047" xlink:href="#DejaVuSans-46"/>
       <use x="95.410156" xlink:href="#DejaVuSans-53"/>
      </g>
     </g>
    </g>
    <g id="ytick_12">
     <g id="line2d_21">
      <g>
       <use style="stroke:#000000;stroke-width:0.8;" x="374.4576" xlink:href="#mb69666ed55" y="241.056"/>
      </g>
     </g>
     <g id="text_21">
      <!-- 3.0 -->
      <defs>
       <path d="M 40.578125 39.3125 
Q 47.65625 37.796875 51.625 33 
Q 55.609375 28.21875 55.609375 21.1875 
Q 55.609375 10.40625 48.1875 4.484375 
Q 40.765625 -1.421875 27.09375 -1.421875 
Q 22.515625 -1.421875 17.65625 -0.515625 
Q 12.796875 0.390625 7.625 2.203125 
L 7.625 11.71875 
Q 11.71875 9.328125 16.59375 8.109375 
Q 21.484375 6.890625 26.8125 6.890625 
Q 36.078125 6.890625 40.9375 10.546875 
Q 45.796875 14.203125 45.796875 21.1875 
Q 45.796875 27.640625 41.28125 31.265625 
Q 36.765625 34.90625 28.71875 34.90625 
L 20.21875 34.90625 
L 20.21875 43.015625 
L 29.109375 43.015625 
Q 36.375 43.015625 40.234375 45.921875 
Q 44.09375 48.828125 44.09375 54.296875 
Q 44.09375 59.90625 40.109375 62.90625 
Q 36.140625 65.921875 28.71875 65.921875 
Q 24.65625 65.921875 20.015625 65.03125 
Q 15.375 64.15625 9.8125 62.3125 
L 9.8125 71.09375 
Q 15.4375 72.65625 20.34375 73.4375 
Q 25.25 74.21875 29.59375 74.21875 
Q 40.828125 74.21875 47.359375 69.109375 
Q 53.90625 64.015625 53.90625 55.328125 
Q 53.90625 49.265625 50.4375 45.09375 
Q 46.96875 40.921875 40.578125 39.3125 
z
" id="DejaVuSans-51"/>
      </defs>
      <g transform="translate(381.4576 244.855219)scale(0.1 -0.1)">
       <use xlink:href="#DejaVuSans-51"/>
       <use x="63.623047" xlink:href="#DejaVuSans-46"/>
       <use x="95.410156" xlink:href="#DejaVuSans-48"/>
      </g>
     </g>
    </g>
    <g id="ytick_13">
     <g id="line2d_22">
      <g>
       <use style="stroke:#000000;stroke-width:0.8;" x="374.4576" xlink:href="#mb69666ed55" y="207.792"/>
      </g>
     </g>
     <g id="text_22">
      <!-- 4.5 -->
      <defs>
       <path d="M 37.796875 64.3125 
L 12.890625 25.390625 
L 37.796875 25.390625 
z
M 35.203125 72.90625 
L 47.609375 72.90625 
L 47.609375 25.390625 
L 58.015625 25.390625 
L 58.015625 17.1875 
L 47.609375 17.1875 
L 47.609375 0 
L 37.796875 0 
L 37.796875 17.1875 
L 4.890625 17.1875 
L 4.890625 26.703125 
z
" id="DejaVuSans-52"/>
      </defs>
      <g transform="translate(381.4576 211.591219)scale(0.1 -0.1)">
       <use xlink:href="#DejaVuSans-52"/>
       <use x="63.623047" xlink:href="#DejaVuSans-46"/>
       <use x="95.410156" xlink:href="#DejaVuSans-53"/>
      </g>
     </g>
    </g>
    <g id="ytick_14">
     <g id="line2d_23">
      <g>
       <use style="stroke:#000000;stroke-width:0.8;" x="374.4576" xlink:href="#mb69666ed55" y="174.528"/>
      </g>
     </g>
     <g id="text_23">
      <!-- 6.0 -->
      <defs>
       <path d="M 33.015625 40.375 
Q 26.375 40.375 22.484375 35.828125 
Q 18.609375 31.296875 18.609375 23.390625 
Q 18.609375 15.53125 22.484375 10.953125 
Q 26.375 6.390625 33.015625 6.390625 
Q 39.65625 6.390625 43.53125 10.953125 
Q 47.40625 15.53125 47.40625 23.390625 
Q 47.40625 31.296875 43.53125 35.828125 
Q 39.65625 40.375 33.015625 40.375 
z
M 52.59375 71.296875 
L 52.59375 62.3125 
Q 48.875 64.0625 45.09375 64.984375 
Q 41.3125 65.921875 37.59375 65.921875 
Q 27.828125 65.921875 22.671875 59.328125 
Q 17.53125 52.734375 16.796875 39.40625 
Q 19.671875 43.65625 24.015625 45.921875 
Q 28.375 48.1875 33.59375 48.1875 
Q 44.578125 48.1875 50.953125 41.515625 
Q 57.328125 34.859375 57.328125 23.390625 
Q 57.328125 12.15625 50.6875 5.359375 
Q 44.046875 -1.421875 33.015625 -1.421875 
Q 20.359375 -1.421875 13.671875 8.265625 
Q 6.984375 17.96875 6.984375 36.375 
Q 6.984375 53.65625 15.1875 63.9375 
Q 23.390625 74.21875 37.203125 74.21875 
Q 40.921875 74.21875 44.703125 73.484375 
Q 48.484375 72.75 52.59375 71.296875 
z
" id="DejaVuSans-54"/>
      </defs>
      <g transform="translate(381.4576 178.327219)scale(0.1 -0.1)">
       <use xlink:href="#DejaVuSans-54"/>
       <use x="63.623047" xlink:href="#DejaVuSans-46"/>
       <use x="95.410156" xlink:href="#DejaVuSans-48"/>
      </g>
     </g>
    </g>
    <g id="ytick_15">
     <g id="line2d_24">
      <g>
       <use style="stroke:#000000;stroke-width:0.8;" x="374.4576" xlink:href="#mb69666ed55" y="141.264"/>
      </g>
     </g>
     <g id="text_24">
      <!-- 7.5 -->
      <defs>
       <path d="M 8.203125 72.90625 
L 55.078125 72.90625 
L 55.078125 68.703125 
L 28.609375 0 
L 18.3125 0 
L 43.21875 64.59375 
L 8.203125 64.59375 
z
" id="DejaVuSans-55"/>
      </defs>
      <g transform="translate(381.4576 145.063219)scale(0.1 -0.1)">
       <use xlink:href="#DejaVuSans-55"/>
       <use x="63.623047" xlink:href="#DejaVuSans-46"/>
       <use x="95.410156" xlink:href="#DejaVuSans-53"/>
      </g>
     </g>
    </g>
    <g id="ytick_16">
     <g id="line2d_25">
      <g>
       <use style="stroke:#000000;stroke-width:0.8;" x="374.4576" xlink:href="#mb69666ed55" y="108"/>
      </g>
     </g>
     <g id="text_25">
      <!-- 9.0 -->
      <defs>
       <path d="M 10.984375 1.515625 
L 10.984375 10.5 
Q 14.703125 8.734375 18.5 7.8125 
Q 22.3125 6.890625 25.984375 6.890625 
Q 35.75 6.890625 40.890625 13.453125 
Q 46.046875 20.015625 46.78125 33.40625 
Q 43.953125 29.203125 39.59375 26.953125 
Q 35.25 24.703125 29.984375 24.703125 
Q 19.046875 24.703125 12.671875 31.3125 
Q 6.296875 37.9375 6.296875 49.421875 
Q 6.296875 60.640625 12.9375 67.421875 
Q 19.578125 74.21875 30.609375 74.21875 
Q 43.265625 74.21875 49.921875 64.515625 
Q 56.59375 54.828125 56.59375 36.375 
Q 56.59375 19.140625 48.40625 8.859375 
Q 40.234375 -1.421875 26.421875 -1.421875 
Q 22.703125 -1.421875 18.890625 -0.6875 
Q 15.09375 0.046875 10.984375 1.515625 
z
M 30.609375 32.421875 
Q 37.25 32.421875 41.125 36.953125 
Q 45.015625 41.5 45.015625 49.421875 
Q 45.015625 57.28125 41.125 61.84375 
Q 37.25 66.40625 30.609375 66.40625 
Q 23.96875 66.40625 20.09375 61.84375 
Q 16.21875 57.28125 16.21875 49.421875 
Q 16.21875 41.5 20.09375 36.953125 
Q 23.96875 32.421875 30.609375 32.421875 
z
" id="DejaVuSans-57"/>
      </defs>
      <g transform="translate(381.4576 111.799219)scale(0.1 -0.1)">
       <use xlink:href="#DejaVuSans-57"/>
       <use x="63.623047" xlink:href="#DejaVuSans-46"/>
       <use x="95.410156" xlink:href="#DejaVuSans-48"/>
      </g>
     </g>
    </g>
    <g id="ytick_17">
     <g id="line2d_26">
      <g>
       <use style="stroke:#000000;stroke-width:0.8;" x="374.4576" xlink:href="#mb69666ed55" y="74.736"/>
      </g>
     </g>
     <g id="text_26">
      <!-- 10.5 -->
      <g transform="translate(381.4576 78.535219)scale(0.1 -0.1)">
       <use xlink:href="#DejaVuSans-49"/>
       <use x="63.623047" xlink:href="#DejaVuSans-48"/>
       <use x="127.246094" xlink:href="#DejaVuSans-46"/>
       <use x="159.033203" xlink:href="#DejaVuSans-53"/>
      </g>
     </g>
    </g>
    <g id="ytick_18">
     <g id="line2d_27">
      <g>
       <use style="stroke:#000000;stroke-width:0.8;" x="374.4576" xlink:href="#mb69666ed55" y="41.472"/>
      </g>
     </g>
     <g id="text_27">
      <!-- 12.0 -->
      <g transform="translate(381.4576 45.271219)scale(0.1 -0.1)">
       <use xlink:href="#DejaVuSans-49"/>
       <use x="63.623047" xlink:href="#DejaVuSans-50"/>
       <use x="127.246094" xlink:href="#DejaVuSans-46"/>
       <use x="159.033203" xlink:href="#DejaVuSans-48"/>
      </g>
     </g>
    </g>
   </g>
   <g id="LineCollection_10">
    <path clip-path="url(#pbe09b2f5bc)" d="M 361.152 307.584 
L 374.4576 307.584 
" style="fill:none;stroke:#00ff80;stroke-width:1.5;"/>
    <path clip-path="url(#pbe09b2f5bc)" d="M 361.152 274.32 
L 374.4576 274.32 
" style="fill:none;stroke:#00df90;stroke-width:1.5;"/>
    <path clip-path="url(#pbe09b2f5bc)" d="M 361.152 241.056 
L 374.4576 241.056 
" style="fill:none;stroke:#00bfa0;stroke-width:1.5;"/>
    <path clip-path="url(#pbe09b2f5bc)" d="M 361.152 207.792 
L 374.4576 207.792 
" style="fill:none;stroke:#009fb0;stroke-width:1.5;"/>
    <path clip-path="url(#pbe09b2f5bc)" d="M 361.152 174.528 
L 374.4576 174.528 
" style="fill:none;stroke:#007fc0;stroke-width:1.5;"/>
    <path clip-path="url(#pbe09b2f5bc)" d="M 361.152 141.264 
L 374.4576 141.264 
" style="fill:none;stroke:#005fd0;stroke-width:1.5;"/>
    <path clip-path="url(#pbe09b2f5bc)" d="M 361.152 108 
L 374.4576 108 
" style="fill:none;stroke:#003fe0;stroke-width:1.5;"/>
    <path clip-path="url(#pbe09b2f5bc)" d="M 361.152 74.736 
L 374.4576 74.736 
" style="fill:none;stroke:#001ff0;stroke-width:1.5;"/>
    <path clip-path="url(#pbe09b2f5bc)" d="M 361.152 41.472 
L 374.4576 41.472 
" style="fill:none;stroke:#0000ff;stroke-width:1.5;"/>
   </g>
   <g id="patch_8">
    <path d="M 361.152 307.584 
L 361.152 274.32 
L 361.152 74.736 
L 361.152 41.472 
L 374.4576 41.472 
L 374.4576 74.736 
L 374.4576 274.32 
L 374.4576 307.584 
z
" style="fill:none;stroke:#000000;stroke-linejoin:miter;stroke-width:0.8;"/>
   </g>
  </g>
 </g>
 <defs>
  <clipPath id="pdd7430cc86">
   <rect height="266.112" width="285.696" x="57.6" y="41.472"/>
  </clipPath>
  <clipPath id="pbe09b2f5bc">
   <rect height="266.112" width="13.3056" x="361.152" y="41.472"/>
  </clipPath>
 </defs>
</svg>
