<?xml version="1.0" encoding="utf-8" standalone="no"?>
<!DOCTYPE svg PUBLIC "-//W3C//DTD SVG 1.1//EN"
  "http://www.w3.org/Graphics/SVG/1.1/DTD/svg11.dtd">
<!-- Created with matplotlib (https://matplotlib.org/) -->
<svg height="345.6pt" version="1.1" viewBox="0 0 460.8 345.6" width="460.8pt" xmlns="http://www.w3.org/2000/svg" xmlns:xlink="http://www.w3.org/1999/xlink">
 <defs>
  <style type="text/css">
*{stroke-linecap:butt;stroke-linejoin:round;}
  </style>
 </defs>
 <g id="figure_1">
  <g id="patch_1">
   <path d="M 0 345.6 
L 460.8 345.6 
L 460.8 0 
L 0 0 
z
" style="fill:#ffffff;"/>
  </g>
  <g id="axes_1">
   <g id="patch_2">
    <path d="M 57.6 307.584 
L 343.296 307.584 
L 343.296 41.472 
L 57.6 41.472 
z
" style="fill:#ffffff;"/>
   </g>
   <g id="matplotlib.axis_1">
    <g id="xtick_1">
     <g id="line2d_1">
      <defs>
       <path d="M 0 0 
L 0 3.5 
" id="mf40a0741de" style="stroke:#000000;stroke-width:0.8;"/>
      </defs>
      <g>
       <use style="stroke:#000000;stroke-width:0.8;" x="57.6" xlink:href="#mf40a0741de" y="307.584"/>
      </g>
     </g>
     <g id="text_1">
      <!-- −2.0 -->
      <defs>
       <path d="M 10.59375 35.5 
L 73.1875 35.5 
L 73.1875 27.203125 
L 10.59375 27.203125 
z
" id="DejaVuSans-8722"/>
       <path d="M 19.1875 8.296875 
L 53.609375 8.296875 
L 53.609375 0 
L 7.328125 0 
L 7.328125 8.296875 
Q 12.9375 14.109375 22.625 23.890625 
Q 32.328125 33.6875 34.8125 36.53125 
Q 39.546875 41.84375 41.421875 45.53125 
Q 43.3125 49.21875 43.3125 52.78125 
Q 43.3125 58.59375 39.234375 62.25 
Q 35.15625 65.921875 28.609375 65.921875 
Q 23.96875 65.921875 18.8125 64.3125 
Q 13.671875 62.703125 7.8125 59.421875 
L 7.8125 69.390625 
Q 13.765625 71.78125 18.9375 73 
Q 24.125 74.21875 28.421875 74.21875 
Q 39.75 74.21875 46.484375 68.546875 
Q 53.21875 62.890625 53.21875 53.421875 
Q 53.21875 48.921875 51.53125 44.890625 
Q 49.859375 40.875 45.40625 35.40625 
Q 44.1875 33.984375 37.640625 27.21875 
Q 31.109375 20.453125 19.1875 8.296875 
z
" id="DejaVuSans-50"/>
       <path d="M 10.6875 12.40625 
L 21 12.40625 
L 21 0 
L 10.6875 0 
z
" id="DejaVuSans-46"/>
       <path d="M 31.78125 66.40625 
Q 24.171875 66.40625 20.328125 58.90625 
Q 16.5 51.421875 16.5 36.375 
Q 16.5 21.390625 20.328125 13.890625 
Q 24.171875 6.390625 31.78125 6.390625 
Q 39.453125 6.390625 43.28125 13.890625 
Q 47.125 21.390625 47.125 36.375 
Q 47.125 51.421875 43.28125 58.90625 
Q 39.453125 66.40625 31.78125 66.40625 
z
M 31.78125 74.21875 
Q 44.046875 74.21875 50.515625 64.515625 
Q 56.984375 54.828125 56.984375 36.375 
Q 56.984375 17.96875 50.515625 8.265625 
Q 44.046875 -1.421875 31.78125 -1.421875 
Q 19.53125 -1.421875 13.0625 8.265625 
Q 6.59375 17.96875 6.59375 36.375 
Q 6.59375 54.828125 13.0625 64.515625 
Q 19.53125 74.21875 31.78125 74.21875 
z
" id="DejaVuSans-48"/>
      </defs>
      <g transform="translate(45.458594 322.182437)scale(0.1 -0.1)">
       <use xlink:href="#DejaVuSans-8722"/>
       <use x="83.789062" xlink:href="#DejaVuSans-50"/>
       <use x="147.412109" xlink:href="#DejaVuSans-46"/>
       <use x="179.199219" xlink:href="#DejaVuSans-48"/>
      </g>
     </g>
    </g>
    <g id="xtick_2">
     <g id="line2d_2">
      <g>
       <use style="stroke:#000000;stroke-width:0.8;" x="93.312" xlink:href="#mf40a0741de" y="307.584"/>
      </g>
     </g>
     <g id="text_2">
      <!-- −1.5 -->
      <defs>
       <path d="M 12.40625 8.296875 
L 28.515625 8.296875 
L 28.515625 63.921875 
L 10.984375 60.40625 
L 10.984375 69.390625 
L 28.421875 72.90625 
L 38.28125 72.90625 
L 38.28125 8.296875 
L 54.390625 8.296875 
L 54.390625 0 
L 12.40625 0 
z
" id="DejaVuSans-49"/>
       <path d="M 10.796875 72.90625 
L 49.515625 72.90625 
L 49.515625 64.59375 
L 19.828125 64.59375 
L 19.828125 46.734375 
Q 21.96875 47.46875 24.109375 47.828125 
Q 26.265625 48.1875 28.421875 48.1875 
Q 40.625 48.1875 47.75 41.5 
Q 54.890625 34.8125 54.890625 23.390625 
Q 54.890625 11.625 47.5625 5.09375 
Q 40.234375 -1.421875 26.90625 -1.421875 
Q 22.3125 -1.421875 17.546875 -0.640625 
Q 12.796875 0.140625 7.71875 1.703125 
L 7.71875 11.625 
Q 12.109375 9.234375 16.796875 8.0625 
Q 21.484375 6.890625 26.703125 6.890625 
Q 35.15625 6.890625 40.078125 11.328125 
Q 45.015625 15.765625 45.015625 23.390625 
Q 45.015625 31 40.078125 35.4375 
Q 35.15625 39.890625 26.703125 39.890625 
Q 22.75 39.890625 18.8125 39.015625 
Q 14.890625 38.140625 10.796875 36.28125 
z
" id="DejaVuSans-53"/>
      </defs>
      <g transform="translate(81.170594 322.182437)scale(0.1 -0.1)">
       <use xlink:href="#DejaVuSans-8722"/>
       <use x="83.789062" xlink:href="#DejaVuSans-49"/>
       <use x="147.412109" xlink:href="#DejaVuSans-46"/>
       <use x="179.199219" xlink:href="#DejaVuSans-53"/>
      </g>
     </g>
    </g>
    <g id="xtick_3">
     <g id="line2d_3">
      <g>
       <use style="stroke:#000000;stroke-width:0.8;" x="129.024" xlink:href="#mf40a0741de" y="307.584"/>
      </g>
     </g>
     <g id="text_3">
      <!-- −1.0 -->
      <g transform="translate(116.882594 322.182437)scale(0.1 -0.1)">
       <use xlink:href="#DejaVuSans-8722"/>
       <use x="83.789062" xlink:href="#DejaVuSans-49"/>
       <use x="147.412109" xlink:href="#DejaVuSans-46"/>
       <use x="179.199219" xlink:href="#DejaVuSans-48"/>
      </g>
     </g>
    </g>
    <g id="xtick_4">
     <g id="line2d_4">
      <g>
       <use style="stroke:#000000;stroke-width:0.8;" x="164.736" xlink:href="#mf40a0741de" y="307.584"/>
      </g>
     </g>
     <g id="text_4">
      <!-- −0.5 -->
      <g transform="translate(152.594594 322.182437)scale(0.1 -0.1)">
       <use xlink:href="#DejaVuSans-8722"/>
       <use x="83.789062" xlink:href="#DejaVuSans-48"/>
       <use x="147.412109" xlink:href="#DejaVuSans-46"/>
       <use x="179.199219" xlink:href="#DejaVuSans-53"/>
      </g>
     </g>
    </g>
    <g id="xtick_5">
     <g id="line2d_5">
      <g>
       <use style="stroke:#000000;stroke-width:0.8;" x="200.448" xlink:href="#mf40a0741de" y="307.584"/>
      </g>
     </g>
     <g id="text_5">
      <!-- 0.0 -->
      <g transform="translate(192.496438 322.182437)scale(0.1 -0.1)">
       <use xlink:href="#DejaVuSans-48"/>
       <use x="63.623047" xlink:href="#DejaVuSans-46"/>
       <use x="95.410156" xlink:href="#DejaVuSans-48"/>
      </g>
     </g>
    </g>
    <g id="xtick_6">
     <g id="line2d_6">
      <g>
       <use style="stroke:#000000;stroke-width:0.8;" x="236.16" xlink:href="#mf40a0741de" y="307.584"/>
      </g>
     </g>
     <g id="text_6">
      <!-- 0.5 -->
      <g transform="translate(228.208438 322.182437)scale(0.1 -0.1)">
       <use xlink:href="#DejaVuSans-48"/>
       <use x="63.623047" xlink:href="#DejaVuSans-46"/>
       <use x="95.410156" xlink:href="#DejaVuSans-53"/>
      </g>
     </g>
    </g>
    <g id="xtick_7">
     <g id="line2d_7">
      <g>
       <use style="stroke:#000000;stroke-width:0.8;" x="271.872" xlink:href="#mf40a0741de" y="307.584"/>
      </g>
     </g>
     <g id="text_7">
      <!-- 1.0 -->
      <g transform="translate(263.920437 322.182437)scale(0.1 -0.1)">
       <use xlink:href="#DejaVuSans-49"/>
       <use x="63.623047" xlink:href="#DejaVuSans-46"/>
       <use x="95.410156" xlink:href="#DejaVuSans-48"/>
      </g>
     </g>
    </g>
    <g id="xtick_8">
     <g id="line2d_8">
      <g>
       <use style="stroke:#000000;stroke-width:0.8;" x="307.584" xlink:href="#mf40a0741de" y="307.584"/>
      </g>
     </g>
     <g id="text_8">
      <!-- 1.5 -->
      <g transform="translate(299.632437 322.182437)scale(0.1 -0.1)">
       <use xlink:href="#DejaVuSans-49"/>
       <use x="63.623047" xlink:href="#DejaVuSans-46"/>
       <use x="95.410156" xlink:href="#DejaVuSans-53"/>
      </g>
     </g>
    </g>
    <g id="xtick_9">
     <g id="line2d_9">
      <g>
       <use style="stroke:#000000;stroke-width:0.8;" x="343.296" xlink:href="#mf40a0741de" y="307.584"/>
      </g>
     </g>
     <g id="text_9">
      <!-- 2.0 -->
      <g transform="translate(335.344438 322.182437)scale(0.1 -0.1)">
       <use xlink:href="#DejaVuSans-50"/>
       <use x="63.623047" xlink:href="#DejaVuSans-46"/>
       <use x="95.410156" xlink:href="#DejaVuSans-48"/>
      </g>
     </g>
    </g>
   </g>
   <g id="matplotlib.axis_2">
    <g id="ytick_1">
     <g id="line2d_10">
      <defs>
       <path d="M 0 0 
L -3.5 0 
" id="m3a3b4762c3" style="stroke:#000000;stroke-width:0.8;"/>
      </defs>
      <g>
       <use style="stroke:#000000;stroke-width:0.8;" x="57.6" xlink:href="#m3a3b4762c3" y="307.584"/>
      </g>
     </g>
     <g id="text_10">
      <!-- −2.0 -->
      <g transform="translate(26.317187 311.383219)scale(0.1 -0.1)">
       <use xlink:href="#DejaVuSans-8722"/>
       <use x="83.789062" xlink:href="#DejaVuSans-50"/>
       <use x="147.412109" xlink:href="#DejaVuSans-46"/>
       <use x="179.199219" xlink:href="#DejaVuSans-48"/>
      </g>
     </g>
    </g>
    <g id="ytick_2">
     <g id="line2d_11">
      <g>
       <use style="stroke:#000000;stroke-width:0.8;" x="57.6" xlink:href="#m3a3b4762c3" y="274.32"/>
      </g>
     </g>
     <g id="text_11">
      <!-- −1.5 -->
      <g transform="translate(26.317187 278.119219)scale(0.1 -0.1)">
       <use xlink:href="#DejaVuSans-8722"/>
       <use x="83.789062" xlink:href="#DejaVuSans-49"/>
       <use x="147.412109" xlink:href="#DejaVuSans-46"/>
       <use x="179.199219" xlink:href="#DejaVuSans-53"/>
      </g>
     </g>
    </g>
    <g id="ytick_3">
     <g id="line2d_12">
      <g>
       <use style="stroke:#000000;stroke-width:0.8;" x="57.6" xlink:href="#m3a3b4762c3" y="241.056"/>
      </g>
     </g>
     <g id="text_12">
      <!-- −1.0 -->
      <g transform="translate(26.317187 244.855219)scale(0.1 -0.1)">
       <use xlink:href="#DejaVuSans-8722"/>
       <use x="83.789062" xlink:href="#DejaVuSans-49"/>
       <use x="147.412109" xlink:href="#DejaVuSans-46"/>
       <use x="179.199219" xlink:href="#DejaVuSans-48"/>
      </g>
     </g>
    </g>
    <g id="ytick_4">
     <g id="line2d_13">
      <g>
       <use style="stroke:#000000;stroke-width:0.8;" x="57.6" xlink:href="#m3a3b4762c3" y="207.792"/>
      </g>
     </g>
     <g id="text_13">
      <!-- −0.5 -->
      <g transform="translate(26.317187 211.591219)scale(0.1 -0.1)">
       <use xlink:href="#DejaVuSans-8722"/>
       <use x="83.789062" xlink:href="#DejaVuSans-48"/>
       <use x="147.412109" xlink:href="#DejaVuSans-46"/>
       <use x="179.199219" xlink:href="#DejaVuSans-53"/>
      </g>
     </g>
    </g>
    <g id="ytick_5">
     <g id="line2d_14">
      <g>
       <use style="stroke:#000000;stroke-width:0.8;" x="57.6" xlink:href="#m3a3b4762c3" y="174.528"/>
      </g>
     </g>
     <g id="text_14">
      <!-- 0.0 -->
      <g transform="translate(34.696875 178.327219)scale(0.1 -0.1)">
       <use xlink:href="#DejaVuSans-48"/>
       <use x="63.623047" xlink:href="#DejaVuSans-46"/>
       <use x="95.410156" xlink:href="#DejaVuSans-48"/>
      </g>
     </g>
    </g>
    <g id="ytick_6">
     <g id="line2d_15">
      <g>
       <use style="stroke:#000000;stroke-width:0.8;" x="57.6" xlink:href="#m3a3b4762c3" y="141.264"/>
      </g>
     </g>
     <g id="text_15">
      <!-- 0.5 -->
      <g transform="translate(34.696875 145.063219)scale(0.1 -0.1)">
       <use xlink:href="#DejaVuSans-48"/>
       <use x="63.623047" xlink:href="#DejaVuSans-46"/>
       <use x="95.410156" xlink:href="#DejaVuSans-53"/>
      </g>
     </g>
    </g>
    <g id="ytick_7">
     <g id="line2d_16">
      <g>
       <use style="stroke:#000000;stroke-width:0.8;" x="57.6" xlink:href="#m3a3b4762c3" y="108"/>
      </g>
     </g>
     <g id="text_16">
      <!-- 1.0 -->
      <g transform="translate(34.696875 111.799219)scale(0.1 -0.1)">
       <use xlink:href="#DejaVuSans-49"/>
       <use x="63.623047" xlink:href="#DejaVuSans-46"/>
       <use x="95.410156" xlink:href="#DejaVuSans-48"/>
      </g>
     </g>
    </g>
    <g id="ytick_8">
     <g id="line2d_17">
      <g>
       <use style="stroke:#000000;stroke-width:0.8;" x="57.6" xlink:href="#m3a3b4762c3" y="74.736"/>
      </g>
     </g>
     <g id="text_17">
      <!-- 1.5 -->
      <g transform="translate(34.696875 78.535219)scale(0.1 -0.1)">
       <use xlink:href="#DejaVuSans-49"/>
       <use x="63.623047" xlink:href="#DejaVuSans-46"/>
       <use x="95.410156" xlink:href="#DejaVuSans-53"/>
      </g>
     </g>
    </g>
    <g id="ytick_9">
     <g id="line2d_18">
      <g>
       <use style="stroke:#000000;stroke-width:0.8;" x="57.6" xlink:href="#m3a3b4762c3" y="41.472"/>
      </g>
     </g>
     <g id="text_18">
      <!-- 2.0 -->
      <g transform="translate(34.696875 45.271219)scale(0.1 -0.1)">
       <use xlink:href="#DejaVuSans-50"/>
       <use x="63.623047" xlink:href="#DejaVuSans-46"/>
       <use x="95.410156" xlink:href="#DejaVuSans-48"/>
      </g>
     </g>
    </g>
   </g>
   <g id="LineCollection_1"/>
   <g id="LineCollection_2">
    <path clip-path="url(#p19599d41ec)" d="M 112.430545 291.818274 
L 109.544727 290.795725 
L 105.361707 288.768 
L 103.773091 287.740012 
L 100.887273 285.432946 
L 98.976399 283.392 
L 97.091563 280.704 
L 95.73747 278.016 
L 94.80402 275.328 
L 94.254363 272.64 
L 93.990441 269.952 
L 93.989991 267.264 
L 94.231365 264.576 
L 94.693538 261.888 
L 95.389167 259.2 
L 96.348278 256.512 
L 98.001455 252.772821 
L 98.913721 251.136 
L 100.887273 247.982088 
L 103.773091 244.362878 
L 106.658909 241.480849 
L 109.544727 239.166354 
L 112.430545 237.311273 
L 115.316364 235.861792 
L 118.202182 234.752675 
L 121.088 233.959885 
L 123.973818 233.440308 
L 126.859636 233.167229 
L 129.745455 233.114919 
L 132.631273 233.258643 
L 135.517091 233.574652 
L 138.402909 234.040188 
L 144.174545 235.339742 
L 149.946182 237.013252 
L 155.717818 238.927035 
L 175.918545 245.884809 
L 181.690182 247.557139 
L 187.461818 248.874169 
L 190.347636 249.393554 
L 193.233455 249.787666 
L 196.119273 250.052585 
L 199.005091 250.185697 
L 201.890909 250.185697 
L 204.776727 250.052585 
L 207.662545 249.787666 
L 210.548364 249.393554 
L 216.32 248.251368 
L 222.091636 246.765475 
L 230.749091 244.011427 
L 248.815359 237.696 
L 253.835636 236.141674 
L 259.607273 234.633482 
L 262.493091 234.040188 
L 265.378909 233.574652 
L 268.264727 233.258643 
L 271.150545 233.114919 
L 274.036364 233.167229 
L 276.922182 233.440308 
L 279.808 233.959885 
L 283.367508 235.008 
L 285.579636 235.861792 
L 289.077035 237.696 
L 291.351273 239.166354 
L 294.237091 241.480849 
L 297.122909 244.362878 
L 300.008727 247.982088 
L 300.321027 248.448 
L 302.894545 252.772821 
L 303.404985 253.824 
L 304.547722 256.512 
L 305.780364 260.175554 
L 306.202462 261.888 
L 306.664635 264.576 
L 306.906009 267.264 
L 306.905559 269.952 
L 306.641637 272.64 
L 305.780364 276.303939 
L 305.15853 278.016 
L 303.804437 280.704 
L 301.919601 283.392 
L 299.305947 286.08 
L 297.122909 287.740012 
L 294.237091 289.476232 
L 291.351273 290.795725 
L 288.465455 291.818274 
L 285.579636 292.559709 
L 282.693818 293.129441 
L 279.808 293.54242 
L 276.922182 293.813076 
L 274.036364 293.955328 
L 268.264727 293.907709 
L 262.493091 293.500588 
L 256.721455 292.826746 
L 247.813324 291.456 
L 233.634909 288.603077 
L 224.977455 286.785688 
L 216.32 285.240162 
L 210.548364 284.475233 
L 204.776727 284.040211 
L 199.005091 283.952345 
L 193.233455 284.215083 
L 187.461818 284.818076 
L 181.690182 285.737179 
L 149.946182 291.970717 
L 144.174545 292.826746 
L 138.402909 293.500588 
L 132.631273 293.907709 
L 126.859636 293.955328 
L 123.973818 293.813076 
L 121.088 293.54242 
L 118.202182 293.129441 
L 115.316364 292.559709 
L 112.430545 291.818274 
L 112.430545 291.818274 
" style="fill:none;stroke:#00e38e;stroke-width:1.5;"/>
    <path clip-path="url(#p19599d41ec)" d="M 118.202182 114.303325 
L 115.316364 113.194208 
L 111.818965 111.36 
L 109.544727 109.889646 
L 106.658909 107.575151 
L 103.773091 104.693122 
L 100.887273 101.073912 
L 100.574973 100.608 
L 98.001455 96.283179 
L 97.491015 95.232 
L 96.348278 92.544 
L 95.115636 88.880446 
L 94.693538 87.168 
L 94.231365 84.48 
L 93.989991 81.792 
L 93.990441 79.104 
L 94.254363 76.416 
L 95.115636 72.752061 
L 95.73747 71.04 
L 97.091563 68.352 
L 98.976399 65.664 
L 101.590053 62.976 
L 103.773091 61.315988 
L 106.658909 59.579768 
L 109.544727 58.260275 
L 112.430545 57.237726 
L 115.316364 56.496291 
L 118.202182 55.926559 
L 121.088 55.51358 
L 123.973818 55.242924 
L 126.859636 55.100672 
L 132.631273 55.148291 
L 138.402909 55.555412 
L 144.174545 56.229254 
L 153.082676 57.6 
L 167.261091 60.452923 
L 175.918545 62.270312 
L 184.576 63.815838 
L 190.347636 64.580767 
L 196.119273 65.015789 
L 201.890909 65.103655 
L 207.662545 64.840917 
L 213.434182 64.237924 
L 219.205818 63.318821 
L 250.949818 57.085283 
L 256.721455 56.229254 
L 262.493091 55.555412 
L 268.264727 55.148291 
L 274.036364 55.100672 
L 276.922182 55.242924 
L 279.808 55.51358 
L 282.693818 55.926559 
L 285.579636 56.496291 
L 289.591296 57.6 
L 291.351273 58.260275 
L 295.534293 60.288 
L 297.122909 61.315988 
L 300.008727 63.623054 
L 301.919601 65.664 
L 303.804437 68.352 
L 305.15853 71.04 
L 306.09198 73.728 
L 306.641637 76.416 
L 306.905559 79.104 
L 306.906009 81.792 
L 306.664635 84.48 
L 306.202462 87.168 
L 305.506833 89.856 
L 304.547722 92.544 
L 302.894545 96.283179 
L 301.982279 97.92 
L 300.008727 101.073912 
L 297.122909 104.693122 
L 294.237091 107.575151 
L 291.351273 109.889646 
L 288.465455 111.744727 
L 285.579636 113.194208 
L 282.693818 114.303325 
L 279.808 115.096115 
L 276.922182 115.615692 
L 274.036364 115.888771 
L 271.150545 115.941081 
L 268.264727 115.797357 
L 265.378909 115.481348 
L 262.493091 115.015812 
L 256.721455 113.716258 
L 250.949818 112.042748 
L 245.178182 110.128965 
L 224.977455 103.171191 
L 219.205818 101.498861 
L 213.434182 100.181831 
L 210.548364 99.662446 
L 207.662545 99.268334 
L 204.776727 99.003415 
L 201.890909 98.870303 
L 199.005091 98.870303 
L 196.119273 99.003415 
L 193.233455 99.268334 
L 190.347636 99.662446 
L 184.576 100.804632 
L 178.804364 102.290525 
L 170.146909 105.044573 
L 152.080641 111.36 
L 147.060364 112.914326 
L 141.288727 114.422518 
L 138.402909 115.015812 
L 135.517091 115.481348 
L 132.631273 115.797357 
L 129.745455 115.941081 
L 126.859636 115.888771 
L 123.973818 115.615692 
L 121.088 115.096115 
L 118.202182 114.303325 
L 118.202182 114.303325 
" style="fill:none;stroke:#00e38e;stroke-width:1.5;"/>
   </g>
   <g id="LineCollection_3">
    <path clip-path="url(#p19599d41ec)" d="M 118.202182 302.50126 
L 115.316364 302.151002 
L 112.430545 301.649442 
L 109.544727 301.021269 
L 106.658909 300.255674 
L 103.773091 299.318586 
L 100.887273 298.106423 
L 98.001455 296.682001 
L 94.148423 294.144 
L 91.072381 291.456 
L 88.699966 288.768 
L 86.458182 285.377626 
L 85.449103 283.392 
L 84.353065 280.704 
L 83.515663 278.016 
L 82.967248 275.328 
L 82.616031 272.64 
L 82.447391 269.952 
L 82.447103 267.264 
L 82.601335 264.576 
L 82.896652 261.888 
L 83.572364 257.940957 
L 83.890007 256.512 
L 85.415082 251.136 
L 86.458182 248.05936 
L 88.552881 243.072 
L 89.826277 240.384 
L 92.771543 235.008 
L 95.115636 231.267992 
L 98.257631 226.944 
L 100.887273 223.737681 
L 103.773091 220.656259 
L 106.658909 217.975341 
L 109.544727 215.674178 
L 112.865072 213.504 
L 115.316364 212.135935 
L 118.467054 210.816 
L 121.088 209.961013 
L 123.973818 209.344047 
L 126.859636 209.019781 
L 129.745455 208.957667 
L 132.631273 209.128331 
L 135.517091 209.503573 
L 138.402909 210.056369 
L 144.174545 211.555864 
L 150.195557 213.504 
L 161.489455 217.468599 
L 167.261091 219.427928 
L 174.323737 221.568 
L 178.804364 222.733178 
L 184.576 223.960013 
L 190.347636 224.835115 
L 196.119273 225.330765 
L 201.890909 225.430877 
L 207.662545 225.131522 
L 213.434182 224.444492 
L 219.205818 223.386819 
L 224.977455 222.006051 
L 230.749091 220.341017 
L 236.520727 218.467897 
L 256.721455 211.555864 
L 262.493091 210.056369 
L 265.378909 209.503573 
L 268.264727 209.128331 
L 271.150545 208.957667 
L 274.036364 209.019781 
L 276.922182 209.344047 
L 279.808 209.961013 
L 282.693818 210.898338 
L 285.579636 212.135935 
L 288.465455 213.736907 
L 291.984179 216.192 
L 294.237091 217.975341 
L 297.96537 221.568 
L 300.429519 224.256 
L 302.894545 227.254161 
L 306.444422 232.32 
L 308.666182 235.890669 
L 311.552 241.330672 
L 313.505201 245.76 
L 314.579216 248.448 
L 316.29408 253.824 
L 317.323636 257.940957 
L 317.575988 259.2 
L 317.999348 261.888 
L 318.294665 264.576 
L 318.448897 267.264 
L 318.448609 269.952 
L 318.279969 272.64 
L 317.928752 275.328 
L 317.323636 278.216374 
L 316.542935 280.704 
L 315.446897 283.392 
L 314.039897 286.08 
L 311.552 289.560152 
L 309.823619 291.456 
L 308.666182 292.544937 
L 305.780364 294.844536 
L 302.624155 296.832 
L 300.008727 298.106423 
L 296.55943 299.52 
L 294.237091 300.255674 
L 291.351273 301.021269 
L 288.465455 301.649442 
L 285.152855 302.208 
L 279.808 302.750727 
L 274.036364 303.000152 
L 268.264727 302.971386 
L 262.493091 302.725458 
L 253.835636 302.054155 
L 242.292364 300.764219 
L 222.091636 298.50379 
L 213.434182 297.825909 
L 207.662545 297.550813 
L 201.890909 297.430948 
L 196.119273 297.471034 
L 190.347636 297.669498 
L 181.690182 298.245219 
L 173.032727 299.104995 
L 145.460426 302.208 
L 138.402909 302.725458 
L 132.631273 302.971386 
L 126.859636 303.000152 
L 121.088 302.750727 
L 118.202182 302.50126 
L 118.202182 302.50126 
" style="fill:none;stroke:#00c79c;stroke-width:1.5;"/>
    <path clip-path="url(#p19599d41ec)" d="M 121.088 139.094987 
L 118.202182 138.157662 
L 115.316364 136.920065 
L 112.430545 135.319093 
L 108.911821 132.864 
L 106.658909 131.080659 
L 102.93063 127.488 
L 100.466481 124.8 
L 98.001455 121.801839 
L 94.451578 116.736 
L 92.229818 113.165331 
L 89.344 107.725328 
L 87.390799 103.296 
L 86.316784 100.608 
L 84.60192 95.232 
L 83.572364 91.115043 
L 83.320012 89.856 
L 82.896652 87.168 
L 82.601335 84.48 
L 82.447103 81.792 
L 82.447391 79.104 
L 82.616031 76.416 
L 82.967248 73.728 
L 83.572364 70.839626 
L 84.353065 68.352 
L 85.449103 65.664 
L 86.856103 62.976 
L 89.344 59.495848 
L 91.072381 57.6 
L 92.229818 56.511063 
L 95.115636 54.211464 
L 98.271845 52.224 
L 100.887273 50.949577 
L 104.33657 49.536 
L 106.658909 48.800326 
L 109.544727 48.034731 
L 112.430545 47.406558 
L 115.743145 46.848 
L 121.088 46.305273 
L 126.859636 46.055848 
L 132.631273 46.084614 
L 138.402909 46.330542 
L 147.060364 47.001845 
L 158.603636 48.291781 
L 178.804364 50.55221 
L 187.461818 51.230091 
L 193.233455 51.505187 
L 199.005091 51.625052 
L 204.776727 51.584966 
L 210.548364 51.386502 
L 219.205818 50.810781 
L 227.863273 49.951005 
L 255.435574 46.848 
L 262.493091 46.330542 
L 268.264727 46.084614 
L 274.036364 46.055848 
L 279.808 46.305273 
L 285.579636 46.904998 
L 288.465455 47.406558 
L 291.351273 48.034731 
L 294.237091 48.800326 
L 297.122909 49.737414 
L 300.008727 50.949577 
L 302.894545 52.373999 
L 306.747577 54.912 
L 309.823619 57.6 
L 312.196034 60.288 
L 314.437818 63.678374 
L 315.446897 65.664 
L 316.542935 68.352 
L 317.380337 71.04 
L 317.928752 73.728 
L 318.279969 76.416 
L 318.448609 79.104 
L 318.448897 81.792 
L 318.294665 84.48 
L 317.999348 87.168 
L 317.323636 91.115043 
L 317.005993 92.544 
L 315.480918 97.92 
L 314.437818 100.99664 
L 312.343119 105.984 
L 311.069723 108.672 
L 308.124457 114.048 
L 305.780364 117.788008 
L 302.638369 122.112 
L 300.008727 125.318319 
L 297.122909 128.399741 
L 294.237091 131.080659 
L 291.351273 133.381822 
L 288.030928 135.552 
L 285.579636 136.920065 
L 282.428946 138.24 
L 279.808 139.094987 
L 276.922182 139.711953 
L 274.036364 140.036219 
L 271.150545 140.098333 
L 268.264727 139.927669 
L 265.378909 139.552427 
L 262.493091 138.999631 
L 256.721455 137.500136 
L 250.700443 135.552 
L 239.406545 131.587401 
L 233.634909 129.628072 
L 226.572263 127.488 
L 222.091636 126.322822 
L 216.32 125.095987 
L 210.548364 124.220885 
L 204.776727 123.725235 
L 199.005091 123.625123 
L 193.233455 123.924478 
L 187.461818 124.611508 
L 181.690182 125.669181 
L 175.918545 127.049949 
L 170.146909 128.714983 
L 164.375273 130.588103 
L 144.174545 137.500136 
L 138.402909 138.999631 
L 135.517091 139.552427 
L 132.631273 139.927669 
L 129.745455 140.098333 
L 126.859636 140.036219 
L 123.973818 139.711953 
L 121.088 139.094987 
L 121.088 139.094987 
" style="fill:none;stroke:#00c79c;stroke-width:1.5;"/>
   </g>
   <g id="LineCollection_4">
    <path clip-path="url(#p19599d41ec)" d="M 107.165044 307.584 
L 106.658909 307.476231 
L 103.773091 306.742516 
L 100.887273 305.880316 
L 98.001455 304.878328 
L 95.115636 303.601076 
L 92.229818 302.14101 
L 88.244924 299.52 
L 85.066681 296.832 
L 82.548337 294.144 
L 80.506289 291.456 
L 78.905164 288.768 
L 77.57654 286.08 
L 76.561675 283.392 
L 75.74739 280.704 
L 74.914909 276.792072 
L 74.69019 275.328 
L 74.425966 272.64 
L 74.299097 269.952 
L 74.298881 267.264 
L 74.63708 261.888 
L 74.959452 259.2 
L 75.932273 253.824 
L 77.206306 248.448 
L 77.946007 245.76 
L 79.69212 240.384 
L 80.686545 237.512075 
L 83.853909 229.632 
L 87.555367 221.568 
L 90.206606 216.192 
L 95.115636 206.671945 
L 97.236338 202.752 
L 98.637072 200.064 
L 101.333911 194.688 
L 102.618902 192 
L 104.825985 186.624 
L 105.713065 183.936 
L 106.382227 181.248 
L 106.863406 178.56 
L 107.131501 175.872 
L 107.131501 173.184 
L 106.658909 169.468305 
L 106.382227 167.808 
L 105.713065 165.12 
L 104.825985 162.432 
L 102.618902 157.056 
L 100.022497 151.68 
L 92.976603 138.24 
L 91.576107 135.552 
L 87.555367 127.488 
L 86.257896 124.8 
L 82.742046 116.736 
L 80.621209 111.36 
L 77.946007 103.296 
L 77.206306 100.608 
L 75.932273 95.232 
L 74.914909 89.512767 
L 74.414911 84.48 
L 74.298881 81.792 
L 74.299097 79.104 
L 74.425966 76.416 
L 74.914909 72.263928 
L 75.12066 71.04 
L 75.74739 68.352 
L 76.561675 65.664 
L 77.800727 62.485589 
L 78.905164 60.288 
L 80.686545 57.34044 
L 83.572364 53.751258 
L 85.066681 52.224 
L 86.458182 50.974815 
L 89.344 48.751634 
L 92.348636 46.848 
L 95.115636 45.454924 
L 98.047283 44.16 
L 100.887273 43.175684 
L 103.773091 42.313484 
L 107.165044 41.472 
L 107.165044 41.472 
" style="fill:none;stroke:#00aaaa;stroke-width:1.5;"/>
    <path clip-path="url(#p19599d41ec)" d="M 239.100145 307.584 
L 236.520727 307.343738 
L 233.634909 307.08162 
L 230.749091 306.829544 
L 227.863273 306.59059 
L 224.977455 306.367556 
L 222.091636 306.162959 
L 219.205818 305.97904 
L 216.32 305.817757 
L 213.434182 305.680789 
L 210.548364 305.569536 
L 207.662545 305.485116 
L 204.776727 305.42837 
L 201.890909 305.399857 
L 199.005091 305.399857 
L 196.119273 305.42837 
L 193.233455 305.485116 
L 190.347636 305.569536 
L 187.461818 305.680789 
L 184.576 305.817757 
L 181.690182 305.97904 
L 178.804364 306.162959 
L 175.918545 306.367556 
L 173.032727 306.59059 
L 170.146909 306.829544 
L 167.261091 307.08162 
L 164.375273 307.343738 
L 161.795855 307.584 
" style="fill:none;stroke:#00aaaa;stroke-width:1.5;"/>
    <path clip-path="url(#p19599d41ec)" d="M 161.795855 41.472 
L 164.375273 41.712262 
L 167.261091 41.97438 
L 170.146909 42.226456 
L 173.032727 42.46541 
L 175.918545 42.688444 
L 178.804364 42.893041 
L 181.690182 43.07696 
L 184.576 43.238243 
L 187.461818 43.375211 
L 190.347636 43.486464 
L 193.233455 43.570884 
L 196.119273 43.62763 
L 199.005091 43.656143 
L 201.890909 43.656143 
L 204.776727 43.62763 
L 207.662545 43.570884 
L 210.548364 43.486464 
L 213.434182 43.375211 
L 216.32 43.238243 
L 219.205818 43.07696 
L 222.091636 42.893041 
L 224.977455 42.688444 
L 227.863273 42.46541 
L 230.749091 42.226456 
L 233.634909 41.97438 
L 236.520727 41.712262 
L 239.100145 41.472 
" style="fill:none;stroke:#00aaaa;stroke-width:1.5;"/>
    <path clip-path="url(#p19599d41ec)" d="M 293.730956 41.472 
L 294.237091 41.579769 
L 297.122909 42.313484 
L 300.008727 43.175684 
L 302.894545 44.177672 
L 305.780364 45.454924 
L 308.666182 46.91499 
L 312.651076 49.536 
L 315.829319 52.224 
L 318.347663 54.912 
L 320.389711 57.6 
L 321.990836 60.288 
L 323.31946 62.976 
L 324.334325 65.664 
L 325.14861 68.352 
L 325.981091 72.263928 
L 326.20581 73.728 
L 326.470034 76.416 
L 326.596903 79.104 
L 326.597119 81.792 
L 326.25892 87.168 
L 325.936548 89.856 
L 324.963727 95.232 
L 323.689694 100.608 
L 322.949993 103.296 
L 321.20388 108.672 
L 320.209455 111.543925 
L 317.042091 119.424 
L 313.340633 127.488 
L 310.689394 132.864 
L 305.780364 142.384055 
L 303.659662 146.304 
L 302.258928 148.992 
L 299.562089 154.368 
L 298.277098 157.056 
L 296.070015 162.432 
L 295.182935 165.12 
L 294.513773 167.808 
L 294.032594 170.496 
L 293.764499 173.184 
L 293.764499 175.872 
L 294.237091 179.587695 
L 294.513773 181.248 
L 295.182935 183.936 
L 296.070015 186.624 
L 298.277098 192 
L 300.873503 197.376 
L 307.919397 210.816 
L 309.319893 213.504 
L 313.340633 221.568 
L 314.638104 224.256 
L 318.153954 232.32 
L 320.274791 237.696 
L 322.949993 245.76 
L 323.689694 248.448 
L 324.963727 253.824 
L 325.981091 259.543233 
L 326.481089 264.576 
L 326.597119 267.264 
L 326.596903 269.952 
L 326.470034 272.64 
L 325.981091 276.792072 
L 325.77534 278.016 
L 325.14861 280.704 
L 324.334325 283.392 
L 323.095273 286.570411 
L 321.990836 288.768 
L 320.209455 291.71556 
L 317.323636 295.304742 
L 315.829319 296.832 
L 314.437818 298.081185 
L 311.552 300.304366 
L 308.547364 302.208 
L 305.780364 303.601076 
L 302.848717 304.896 
L 300.008727 305.880316 
L 297.122909 306.742516 
L 293.730956 307.584 
L 293.730956 307.584 
" style="fill:none;stroke:#00aaaa;stroke-width:1.5;"/>
    <path clip-path="url(#p19599d41ec)" d="M 190.347636 197.437893 
L 193.233455 197.910469 
L 196.119273 198.228131 
L 199.005091 198.387745 
L 201.890909 198.387745 
L 204.776727 198.228131 
L 207.662545 197.910469 
L 210.548364 197.437893 
L 210.835158 197.376 
L 213.434182 196.754231 
L 216.32 195.904282 
L 219.205818 194.903445 
L 219.750577 194.688 
L 222.091636 193.643374 
L 224.977455 192.210895 
L 225.367192 192 
L 227.863273 190.441439 
L 229.551593 189.312 
L 230.749091 188.359502 
L 232.817423 186.624 
L 233.634909 185.772961 
L 235.331839 183.936 
L 236.520727 182.229886 
L 237.18793 181.248 
L 238.410621 178.56 
L 239.023469 175.872 
L 239.023469 173.184 
L 238.410621 170.496 
L 237.18793 167.808 
L 236.520727 166.826114 
L 235.331839 165.12 
L 233.634909 163.283039 
L 232.817423 162.432 
L 230.749091 160.696498 
L 229.551593 159.744 
L 227.863273 158.614561 
L 225.367192 157.056 
L 224.977455 156.845105 
L 222.091636 155.412626 
L 219.750577 154.368 
L 219.205818 154.152555 
L 216.32 153.151718 
L 213.434182 152.301769 
L 210.835158 151.68 
L 210.548364 151.618107 
L 207.662545 151.145531 
L 204.776727 150.827869 
L 201.890909 150.668255 
L 199.005091 150.668255 
L 196.119273 150.827869 
L 193.233455 151.145531 
L 190.347636 151.618107 
L 190.060842 151.68 
L 187.461818 152.301769 
L 184.576 153.151718 
L 181.690182 154.152555 
L 181.145423 154.368 
L 178.804364 155.412626 
L 175.918545 156.845105 
L 175.528808 157.056 
L 173.032727 158.614561 
L 171.344407 159.744 
L 170.146909 160.696498 
L 168.078577 162.432 
L 167.261091 163.283039 
L 165.564161 165.12 
L 164.375273 166.826114 
L 163.70807 167.808 
L 162.485379 170.496 
L 161.872531 173.184 
L 161.872531 175.872 
L 162.485379 178.56 
L 163.70807 181.248 
L 164.375273 182.229886 
L 165.564161 183.936 
L 167.261091 185.772961 
L 168.078577 186.624 
L 170.146909 188.359502 
L 171.344407 189.312 
L 173.032727 190.441439 
L 175.528808 192 
L 175.918545 192.210895 
L 178.804364 193.643374 
L 181.145423 194.688 
L 181.690182 194.903445 
L 184.576 195.904282 
L 187.461818 196.754231 
L 190.060842 197.376 
L 190.347636 197.437893 
" style="fill:none;stroke:#00aaaa;stroke-width:1.5;"/>
   </g>
   <g id="LineCollection_5">
    <path clip-path="url(#p19599d41ec)" d="M 89.478472 307.584 
L 89.344 307.515311 
L 84.944793 304.896 
L 83.572364 303.920973 
L 80.686545 301.579958 
L 77.800727 298.672516 
L 76.277561 296.832 
L 74.37504 294.144 
L 72.824691 291.456 
L 71.539713 288.768 
L 70.511817 286.08 
L 69.662875 283.392 
L 68.994796 280.704 
L 68.512966 278.016 
L 68.165567 275.328 
L 67.943085 272.64 
L 67.836076 267.264 
L 68.120847 261.888 
L 68.730311 256.512 
L 69.641732 251.136 
L 70.809893 245.76 
L 72.148515 240.384 
L 74.914909 231.021077 
L 80.850883 213.504 
L 82.70362 208.128 
L 86.016908 197.376 
L 87.973632 189.312 
L 88.855927 183.936 
L 89.352737 178.56 
L 89.46449 175.872 
L 89.46449 173.184 
L 89.152957 167.808 
L 88.462168 162.432 
L 87.392765 157.056 
L 86.016908 151.68 
L 84.443258 146.304 
L 79.015764 130.176 
L 76.271829 122.112 
L 74.520769 116.736 
L 72.029091 108.239995 
L 70.202114 100.608 
L 69.136933 95.232 
L 68.389029 89.856 
L 67.933776 84.48 
L 67.836259 79.104 
L 67.943085 76.416 
L 68.165567 73.728 
L 68.512966 71.04 
L 69.143273 67.714472 
L 69.662875 65.664 
L 70.511817 62.976 
L 72.029091 59.208249 
L 72.824691 57.6 
L 74.914909 54.098577 
L 76.277561 52.224 
L 78.571779 49.536 
L 81.398319 46.848 
L 84.944793 44.16 
L 86.458182 43.193636 
L 89.478472 41.472 
L 89.478472 41.472 
" style="fill:none;stroke:#008eb8;stroke-width:1.5;"/>
    <path clip-path="url(#p19599d41ec)" d="M 311.417528 41.472 
L 311.552 41.540689 
L 315.951207 44.16 
L 317.323636 45.135027 
L 320.209455 47.476042 
L 323.095273 50.383484 
L 324.618439 52.224 
L 326.52096 54.912 
L 328.071309 57.6 
L 329.356287 60.288 
L 330.384183 62.976 
L 331.233125 65.664 
L 331.901204 68.352 
L 332.383034 71.04 
L 332.730433 73.728 
L 332.952915 76.416 
L 333.059924 81.792 
L 332.775153 87.168 
L 332.165689 92.544 
L 331.254268 97.92 
L 330.086107 103.296 
L 328.747485 108.672 
L 325.981091 118.034923 
L 320.045117 135.552 
L 318.19238 140.928 
L 314.879092 151.68 
L 312.922368 159.744 
L 312.040073 165.12 
L 311.543263 170.496 
L 311.43151 173.184 
L 311.43151 175.872 
L 311.743043 181.248 
L 312.433832 186.624 
L 313.503235 192 
L 314.879092 197.376 
L 316.452742 202.752 
L 321.880236 218.88 
L 324.624171 226.944 
L 326.375231 232.32 
L 328.866909 240.816005 
L 330.693886 248.448 
L 331.759067 253.824 
L 332.506971 259.2 
L 332.962224 264.576 
L 333.059741 269.952 
L 332.952915 272.64 
L 332.730433 275.328 
L 332.383034 278.016 
L 331.752727 281.341528 
L 331.233125 283.392 
L 330.384183 286.08 
L 328.866909 289.847751 
L 328.071309 291.456 
L 325.981091 294.957423 
L 324.618439 296.832 
L 322.324221 299.52 
L 319.497681 302.208 
L 315.951207 304.896 
L 314.437818 305.862364 
L 311.417528 307.584 
L 311.417528 307.584 
" style="fill:none;stroke:#008eb8;stroke-width:1.5;"/>
   </g>
   <g id="LineCollection_6">
    <path clip-path="url(#p19599d41ec)" d="M 79.464875 307.584 
L 77.800727 306.282972 
L 76.187006 304.896 
L 74.914909 303.679546 
L 73.50987 302.208 
L 72.029091 300.471236 
L 71.286042 299.52 
L 69.425211 296.832 
L 69.143273 296.368337 
L 67.900204 294.144 
L 66.594778 291.456 
L 66.257455 290.646191 
L 65.536344 288.768 
L 64.665601 286.08 
L 63.946452 283.392 
L 63.371636 280.714245 
L 63.369604 280.704 
L 62.959166 278.016 
L 62.66324 275.328 
L 62.473723 272.64 
L 62.382725 269.952 
L 62.382569 267.264 
L 62.465793 264.576 
L 62.625147 261.888 
L 62.853593 259.2 
L 63.144308 256.512 
L 63.371636 254.747838 
L 63.500448 253.824 
L 63.928542 251.136 
L 64.403248 248.448 
L 64.918105 245.76 
L 65.466885 243.072 
L 66.043588 240.384 
L 66.257455 239.424049 
L 66.675143 237.696 
L 67.342891 235.008 
L 68.02291 232.32 
L 68.709694 229.632 
L 69.143273 227.938731 
L 69.420416 226.944 
L 70.165517 224.256 
L 70.901635 221.568 
L 71.623867 218.88 
L 72.029091 217.332161 
L 72.354894 216.192 
L 73.098029 213.504 
L 73.811739 210.816 
L 74.49186 208.128 
L 74.914909 206.358576 
L 75.155447 205.44 
L 75.814398 202.752 
L 76.42484 200.064 
L 76.983518 197.376 
L 77.487501 194.688 
L 77.800727 192.803105 
L 77.947447 192 
L 78.373018 189.312 
L 78.730942 186.624 
L 79.019429 183.936 
L 79.237047 181.248 
L 79.382723 178.56 
L 79.45574 175.872 
L 79.45574 173.184 
L 79.382723 170.496 
L 79.237047 167.808 
L 79.019429 165.12 
L 78.730942 162.432 
L 78.373018 159.744 
L 77.947447 157.056 
L 77.800727 156.252895 
L 77.487501 154.368 
L 76.983518 151.68 
L 76.42484 148.992 
L 75.814398 146.304 
L 75.155447 143.616 
L 74.914909 142.697424 
L 74.49186 140.928 
L 73.811739 138.24 
L 73.098029 135.552 
L 72.354894 132.864 
L 72.029091 131.723839 
L 71.623867 130.176 
L 70.901635 127.488 
L 70.165517 124.8 
L 69.420416 122.112 
L 69.143273 121.117269 
L 68.709694 119.424 
L 68.02291 116.736 
L 67.342891 114.048 
L 66.675143 111.36 
L 66.257455 109.631951 
L 66.043588 108.672 
L 65.466885 105.984 
L 64.918105 103.296 
L 64.403248 100.608 
L 63.928542 97.92 
L 63.500448 95.232 
L 63.371636 94.308162 
L 63.144308 92.544 
L 62.853593 89.856 
L 62.625147 87.168 
L 62.465793 84.48 
L 62.382569 81.792 
L 62.382725 79.104 
L 62.473723 76.416 
L 62.66324 73.728 
L 62.959166 71.04 
L 63.369604 68.352 
L 63.371636 68.341755 
L 63.946452 65.664 
L 64.665601 62.976 
L 65.536344 60.288 
L 66.257455 58.409809 
L 66.594778 57.6 
L 67.900204 54.912 
L 69.143273 52.687663 
L 69.425211 52.224 
L 71.286042 49.536 
L 72.029091 48.584764 
L 73.50987 46.848 
L 74.914909 45.376454 
L 76.187006 44.16 
L 77.800727 42.773028 
L 79.464875 41.472 
" style="fill:none;stroke:#0071c6;stroke-width:1.5;"/>
    <path clip-path="url(#p19599d41ec)" d="M 321.431125 41.472 
L 323.095273 42.773028 
L 324.708994 44.16 
L 325.981091 45.376454 
L 327.38613 46.848 
L 328.866909 48.584764 
L 329.609958 49.536 
L 331.470789 52.224 
L 331.752727 52.687663 
L 332.995796 54.912 
L 334.301222 57.6 
L 334.638545 58.409809 
L 335.359656 60.288 
L 336.230399 62.976 
L 336.949548 65.664 
L 337.524364 68.341755 
L 337.526396 68.352 
L 337.936834 71.04 
L 338.23276 73.728 
L 338.422277 76.416 
L 338.513275 79.104 
L 338.513431 81.792 
L 338.430207 84.48 
L 338.270853 87.168 
L 338.042407 89.856 
L 337.751692 92.544 
L 337.524364 94.308162 
L 337.395552 95.232 
L 336.967458 97.92 
L 336.492752 100.608 
L 335.977895 103.296 
L 335.429115 105.984 
L 334.852412 108.672 
L 334.638545 109.631951 
L 334.220857 111.36 
L 333.553109 114.048 
L 332.87309 116.736 
L 332.186306 119.424 
L 331.752727 121.117269 
L 331.475584 122.112 
L 330.730483 124.8 
L 329.994365 127.488 
L 329.272133 130.176 
L 328.866909 131.723839 
L 328.541106 132.864 
L 327.797971 135.552 
L 327.084261 138.24 
L 326.40414 140.928 
L 325.981091 142.697424 
L 325.740553 143.616 
L 325.081602 146.304 
L 324.47116 148.992 
L 323.912482 151.68 
L 323.408499 154.368 
L 323.095273 156.252895 
L 322.948553 157.056 
L 322.522982 159.744 
L 322.165058 162.432 
L 321.876571 165.12 
L 321.658953 167.808 
L 321.513277 170.496 
L 321.44026 173.184 
L 321.44026 175.872 
L 321.513277 178.56 
L 321.658953 181.248 
L 321.876571 183.936 
L 322.165058 186.624 
L 322.522982 189.312 
L 322.948553 192 
L 323.095273 192.803105 
L 323.408499 194.688 
L 323.912482 197.376 
L 324.47116 200.064 
L 325.081602 202.752 
L 325.740553 205.44 
L 325.981091 206.358576 
L 326.40414 208.128 
L 327.084261 210.816 
L 327.797971 213.504 
L 328.541106 216.192 
L 328.866909 217.332161 
L 329.272133 218.88 
L 329.994365 221.568 
L 330.730483 224.256 
L 331.475584 226.944 
L 331.752727 227.938731 
L 332.186306 229.632 
L 332.87309 232.32 
L 333.553109 235.008 
L 334.220857 237.696 
L 334.638545 239.424049 
L 334.852412 240.384 
L 335.429115 243.072 
L 335.977895 245.76 
L 336.492752 248.448 
L 336.967458 251.136 
L 337.395552 253.824 
L 337.524364 254.747838 
L 337.751692 256.512 
L 338.042407 259.2 
L 338.270853 261.888 
L 338.430207 264.576 
L 338.513431 267.264 
L 338.513275 269.952 
L 338.422277 272.64 
L 338.23276 275.328 
L 337.936834 278.016 
L 337.526396 280.704 
L 337.524364 280.714245 
L 336.949548 283.392 
L 336.230399 286.08 
L 335.359656 288.768 
L 334.638545 290.646191 
L 334.301222 291.456 
L 332.995796 294.144 
L 331.752727 296.368337 
L 331.470789 296.832 
L 329.609958 299.52 
L 328.866909 300.471236 
L 327.38613 302.208 
L 325.981091 303.679546 
L 324.708994 304.896 
L 323.095273 306.282972 
L 321.431125 307.584 
" style="fill:none;stroke:#0071c6;stroke-width:1.5;"/>
   </g>
   <g id="LineCollection_7">
    <path clip-path="url(#p19599d41ec)" d="M 71.965594 307.584 
L 69.349461 304.896 
L 69.143273 304.660294 
L 67.171713 302.208 
L 66.257455 300.934507 
L 65.321456 299.52 
L 63.745124 296.832 
L 63.371636 296.106922 
L 62.437196 294.144 
L 61.325192 291.456 
L 60.485818 289.090423 
L 60.379826 288.768 
L 59.634275 286.08 
L 59.018522 283.392 
L 58.524468 280.704 
L 58.144211 278.016 
L 57.870044 275.328 
L 57.694463 272.64 
L 57.610156 269.952 
L 57.610012 267.264 
L 57.687116 264.576 
L 57.834752 261.888 
L 58.0464 259.2 
L 58.315738 256.512 
L 58.636643 253.824 
L 59.003187 251.136 
L 59.409642 248.448 
L 59.850475 245.76 
L 60.320353 243.072 
L 60.485818 242.171266 
L 60.840197 240.384 
L 61.393649 237.696 
L 61.962459 235.008 
L 62.541721 232.32 
L 63.126745 229.632 
L 63.371636 228.509265 
L 63.741063 226.944 
L 64.372246 224.256 
L 64.995821 221.568 
L 65.607633 218.88 
L 66.20376 216.192 
L 66.257455 215.94175 
L 66.824934 213.504 
L 67.425893 210.816 
L 67.998569 208.128 
L 68.53971 205.44 
L 69.046311 202.752 
L 69.143273 202.196643 
L 69.548411 200.064 
L 70.01575 197.376 
L 70.437335 194.688 
L 70.810989 192 
L 71.134805 189.312 
L 71.407148 186.624 
L 71.626657 183.936 
L 71.792241 181.248 
L 71.903085 178.56 
L 71.958643 175.872 
L 71.958643 173.184 
L 71.903085 170.496 
L 71.792241 167.808 
L 71.626657 165.12 
L 71.407148 162.432 
L 71.134805 159.744 
L 70.810989 157.056 
L 70.437335 154.368 
L 70.01575 151.68 
L 69.548411 148.992 
L 69.143273 146.859357 
L 69.046311 146.304 
L 68.53971 143.616 
L 67.998569 140.928 
L 67.425893 138.24 
L 66.824934 135.552 
L 66.257455 133.11425 
L 66.20376 132.864 
L 65.607633 130.176 
L 64.995821 127.488 
L 64.372246 124.8 
L 63.741063 122.112 
L 63.371636 120.546735 
L 63.126745 119.424 
L 62.541721 116.736 
L 61.962459 114.048 
L 61.393649 111.36 
L 60.840197 108.672 
L 60.485818 106.884734 
L 60.320353 105.984 
L 59.850475 103.296 
L 59.409642 100.608 
L 59.003187 97.92 
L 58.636643 95.232 
L 58.315738 92.544 
L 58.0464 89.856 
L 57.834752 87.168 
L 57.687116 84.48 
L 57.610012 81.792 
L 57.610156 79.104 
L 57.694463 76.416 
L 57.870044 73.728 
L 58.144211 71.04 
L 58.524468 68.352 
L 59.018522 65.664 
L 59.634275 62.976 
L 60.379826 60.288 
L 60.485818 59.965577 
L 61.325192 57.6 
L 62.437196 54.912 
L 63.371636 52.949078 
L 63.745124 52.224 
L 65.321456 49.536 
L 66.257455 48.121493 
L 67.171713 46.848 
L 69.143273 44.395706 
L 69.349461 44.16 
L 71.965594 41.472 
" style="fill:none;stroke:#0055d4;stroke-width:1.5;"/>
    <path clip-path="url(#p19599d41ec)" d="M 328.930406 41.472 
L 331.546539 44.16 
L 331.752727 44.395706 
L 333.724287 46.848 
L 334.638545 48.121493 
L 335.574544 49.536 
L 337.150876 52.224 
L 337.524364 52.949078 
L 338.458804 54.912 
L 339.570808 57.6 
L 340.410182 59.965577 
L 340.516174 60.288 
L 341.261725 62.976 
L 341.877478 65.664 
L 342.371532 68.352 
L 342.751789 71.04 
L 343.025956 73.728 
L 343.201537 76.416 
L 343.285844 79.104 
L 343.285988 81.792 
L 343.208884 84.48 
L 343.061248 87.168 
L 342.8496 89.856 
L 342.580262 92.544 
L 342.259357 95.232 
L 341.892813 97.92 
L 341.486358 100.608 
L 341.045525 103.296 
L 340.575647 105.984 
L 340.410182 106.884734 
L 340.055803 108.672 
L 339.502351 111.36 
L 338.933541 114.048 
L 338.354279 116.736 
L 337.769255 119.424 
L 337.524364 120.546735 
L 337.154937 122.112 
L 336.523754 124.8 
L 335.900179 127.488 
L 335.288367 130.176 
L 334.69224 132.864 
L 334.638545 133.11425 
L 334.071066 135.552 
L 333.470107 138.24 
L 332.897431 140.928 
L 332.35629 143.616 
L 331.849689 146.304 
L 331.752727 146.859357 
L 331.347589 148.992 
L 330.88025 151.68 
L 330.458665 154.368 
L 330.085011 157.056 
L 329.761195 159.744 
L 329.488852 162.432 
L 329.269343 165.12 
L 329.103759 167.808 
L 328.992915 170.496 
L 328.937357 173.184 
L 328.937357 175.872 
L 328.992915 178.56 
L 329.103759 181.248 
L 329.269343 183.936 
L 329.488852 186.624 
L 329.761195 189.312 
L 330.085011 192 
L 330.458665 194.688 
L 330.88025 197.376 
L 331.347589 200.064 
L 331.752727 202.196643 
L 331.849689 202.752 
L 332.35629 205.44 
L 332.897431 208.128 
L 333.470107 210.816 
L 334.071066 213.504 
L 334.638545 215.94175 
L 334.69224 216.192 
L 335.288367 218.88 
L 335.900179 221.568 
L 336.523754 224.256 
L 337.154937 226.944 
L 337.524364 228.509265 
L 337.769255 229.632 
L 338.354279 232.32 
L 338.933541 235.008 
L 339.502351 237.696 
L 340.055803 240.384 
L 340.410182 242.171266 
L 340.575647 243.072 
L 341.045525 245.76 
L 341.486358 248.448 
L 341.892813 251.136 
L 342.259357 253.824 
L 342.580262 256.512 
L 342.8496 259.2 
L 343.061248 261.888 
L 343.208884 264.576 
L 343.285988 267.264 
L 343.285844 269.952 
L 343.201537 272.64 
L 343.025956 275.328 
L 342.751789 278.016 
L 342.371532 280.704 
L 341.877478 283.392 
L 341.261725 286.08 
L 340.516174 288.768 
L 340.410182 289.090423 
L 339.570808 291.456 
L 338.458804 294.144 
L 337.524364 296.106922 
L 337.150876 296.832 
L 335.574544 299.52 
L 334.638545 300.934507 
L 333.724287 302.208 
L 331.752727 304.660294 
L 331.546539 304.896 
L 328.930406 307.584 
" style="fill:none;stroke:#0055d4;stroke-width:1.5;"/>
   </g>
   <g id="LineCollection_8">
    <path clip-path="url(#p19599d41ec)" d="M 65.897114 307.584 
L 63.680956 304.896 
L 63.371636 304.478581 
L 61.816644 302.208 
L 60.485818 300.031821 
L 60.195833 299.52 
L 58.846141 296.832 
L 57.660621 294.144 
L 57.6 293.985833 
" style="fill:none;stroke:#0038e3;stroke-width:1.5;"/>
    <path clip-path="url(#p19599d41ec)" d="M 343.296 293.985833 
L 343.235379 294.144 
L 342.049859 296.832 
L 340.700167 299.52 
L 340.410182 300.031821 
L 339.079356 302.208 
L 337.524364 304.478581 
L 337.215044 304.896 
L 334.998886 307.584 
" style="fill:none;stroke:#0038e3;stroke-width:1.5;"/>
    <path clip-path="url(#p19599d41ec)" d="M 57.6 233.108669 
L 57.75746 232.32 
L 58.299467 229.632 
L 58.842663 226.944 
L 59.383097 224.256 
L 59.917016 221.568 
L 60.440864 218.88 
L 60.485818 218.643261 
L 60.988225 216.192 
L 61.521246 213.504 
L 62.033162 210.816 
L 62.520986 208.128 
L 62.981947 205.44 
L 63.371636 203.012678 
L 63.41692 202.752 
L 63.849489 200.064 
L 64.245377 197.376 
L 64.602507 194.688 
L 64.919034 192 
L 65.193342 189.312 
L 65.424047 186.624 
L 65.609995 183.936 
L 65.750264 181.248 
L 65.844161 178.56 
L 65.891225 175.872 
L 65.891225 173.184 
L 65.844161 170.496 
L 65.750264 167.808 
L 65.609995 165.12 
L 65.424047 162.432 
L 65.193342 159.744 
L 64.919034 157.056 
L 64.602507 154.368 
L 64.245377 151.68 
L 63.849489 148.992 
L 63.41692 146.304 
L 63.371636 146.043322 
L 62.981947 143.616 
L 62.520986 140.928 
L 62.033162 138.24 
L 61.521246 135.552 
L 60.988225 132.864 
L 60.485818 130.412739 
L 60.440864 130.176 
L 59.917016 127.488 
L 59.383097 124.8 
L 58.842663 122.112 
L 58.299467 119.424 
L 57.75746 116.736 
L 57.6 115.947331 
" style="fill:none;stroke:#0038e3;stroke-width:1.5;"/>
    <path clip-path="url(#p19599d41ec)" d="M 343.296 115.947331 
L 343.13854 116.736 
L 342.596533 119.424 
L 342.053337 122.112 
L 341.512903 124.8 
L 340.978984 127.488 
L 340.455136 130.176 
L 340.410182 130.412739 
L 339.907775 132.864 
L 339.374754 135.552 
L 338.862838 138.24 
L 338.375014 140.928 
L 337.914053 143.616 
L 337.524364 146.043322 
L 337.47908 146.304 
L 337.046511 148.992 
L 336.650623 151.68 
L 336.293493 154.368 
L 335.976966 157.056 
L 335.702658 159.744 
L 335.471953 162.432 
L 335.286005 165.12 
L 335.145736 167.808 
L 335.051839 170.496 
L 335.004775 173.184 
L 335.004775 175.872 
L 335.051839 178.56 
L 335.145736 181.248 
L 335.286005 183.936 
L 335.471953 186.624 
L 335.702658 189.312 
L 335.976966 192 
L 336.293493 194.688 
L 336.650623 197.376 
L 337.046511 200.064 
L 337.47908 202.752 
L 337.524364 203.012678 
L 337.914053 205.44 
L 338.375014 208.128 
L 338.862838 210.816 
L 339.374754 213.504 
L 339.907775 216.192 
L 340.410182 218.643261 
L 340.455136 218.88 
L 340.978984 221.568 
L 341.512903 224.256 
L 342.053337 226.944 
L 342.596533 229.632 
L 343.13854 232.32 
L 343.296 233.108669 
" style="fill:none;stroke:#0038e3;stroke-width:1.5;"/>
    <path clip-path="url(#p19599d41ec)" d="M 57.6 55.070167 
L 57.660621 54.912 
L 58.846141 52.224 
L 60.195833 49.536 
L 60.485818 49.024179 
L 61.816644 46.848 
L 63.371636 44.577419 
L 63.680956 44.16 
L 65.897114 41.472 
" style="fill:none;stroke:#0038e3;stroke-width:1.5;"/>
    <path clip-path="url(#p19599d41ec)" d="M 334.998886 41.472 
L 337.215044 44.16 
L 337.524364 44.577419 
L 339.079356 46.848 
L 340.410182 49.024179 
L 340.700167 49.536 
L 342.049859 52.224 
L 343.235379 54.912 
L 343.296 55.070167 
" style="fill:none;stroke:#0038e3;stroke-width:1.5;"/>
   </g>
   <g id="LineCollection_9">
    <path clip-path="url(#p19599d41ec)" d="M 60.704829 307.584 
L 60.485818 307.296566 
L 58.791198 304.896 
L 57.6 303.018579 
" style="fill:none;stroke:#001cf1;stroke-width:1.5;"/>
    <path clip-path="url(#p19599d41ec)" d="M 343.296 303.018579 
L 342.104802 304.896 
L 340.410182 307.296566 
L 340.191171 307.584 
" style="fill:none;stroke:#001cf1;stroke-width:1.5;"/>
    <path clip-path="url(#p19599d41ec)" d="M 57.6 208.950246 
L 57.73825 208.128 
L 58.165317 205.44 
L 58.565124 202.752 
L 58.9355 200.064 
L 59.274469 197.376 
L 59.580252 194.688 
L 59.85127 192 
L 60.086139 189.312 
L 60.283674 186.624 
L 60.442887 183.936 
L 60.485818 182.975163 
L 60.569114 181.248 
L 60.655892 178.56 
L 60.699387 175.872 
L 60.699387 173.184 
L 60.655892 170.496 
L 60.569114 167.808 
L 60.485818 166.080837 
L 60.442887 165.12 
L 60.283674 162.432 
L 60.086139 159.744 
L 59.85127 157.056 
L 59.580252 154.368 
L 59.274469 151.68 
L 58.9355 148.992 
L 58.565124 146.304 
L 58.165317 143.616 
L 57.73825 140.928 
L 57.6 140.105754 
" style="fill:none;stroke:#001cf1;stroke-width:1.5;"/>
    <path clip-path="url(#p19599d41ec)" d="M 343.296 140.105754 
L 343.15775 140.928 
L 342.730683 143.616 
L 342.330876 146.304 
L 341.9605 148.992 
L 341.621531 151.68 
L 341.315748 154.368 
L 341.04473 157.056 
L 340.809861 159.744 
L 340.612326 162.432 
L 340.453113 165.12 
L 340.410182 166.080837 
L 340.326886 167.808 
L 340.240108 170.496 
L 340.196613 173.184 
L 340.196613 175.872 
L 340.240108 178.56 
L 340.326886 181.248 
L 340.410182 182.975163 
L 340.453113 183.936 
L 340.612326 186.624 
L 340.809861 189.312 
L 341.04473 192 
L 341.315748 194.688 
L 341.621531 197.376 
L 341.9605 200.064 
L 342.330876 202.752 
L 342.730683 205.44 
L 343.15775 208.128 
L 343.296 208.950246 
" style="fill:none;stroke:#001cf1;stroke-width:1.5;"/>
    <path clip-path="url(#p19599d41ec)" d="M 57.6 46.037421 
L 58.791198 44.16 
L 60.485818 41.759434 
L 60.704829 41.472 
" style="fill:none;stroke:#001cf1;stroke-width:1.5;"/>
    <path clip-path="url(#p19599d41ec)" d="M 340.191171 41.472 
L 340.410182 41.759434 
L 342.104802 44.16 
L 343.296 46.037421 
" style="fill:none;stroke:#001cf1;stroke-width:1.5;"/>
   </g>
   <g id="LineCollection_10"/>
   <g id="patch_3">
    <path d="M 57.6 307.584 
L 57.6 41.472 
" style="fill:none;stroke:#000000;stroke-linecap:square;stroke-linejoin:miter;stroke-width:0.8;"/>
   </g>
   <g id="patch_4">
    <path d="M 343.296 307.584 
L 343.296 41.472 
" style="fill:none;stroke:#000000;stroke-linecap:square;stroke-linejoin:miter;stroke-width:0.8;"/>
   </g>
   <g id="patch_5">
    <path d="M 57.6 307.584 
L 343.296 307.584 
" style="fill:none;stroke:#000000;stroke-linecap:square;stroke-linejoin:miter;stroke-width:0.8;"/>
   </g>
   <g id="patch_6">
    <path d="M 57.6 41.472 
L 343.296 41.472 
" style="fill:none;stroke:#000000;stroke-linecap:square;stroke-linejoin:miter;stroke-width:0.8;"/>
   </g>
  </g>
  <g id="axes_2">
   <g id="patch_7">
    <path clip-path="url(#p61dcfebef4)" d="M 361.152 307.584 
L 361.152 278.016 
L 361.152 71.04 
L 361.152 41.472 
L 374.4576 41.472 
L 374.4576 71.04 
L 374.4576 278.016 
L 374.4576 307.584 
z
" style="fill:#ffffff;stroke:#ffffff;stroke-linejoin:miter;stroke-width:0.01;"/>
   </g>
   <g id="matplotlib.axis_3"/>
   <g id="matplotlib.axis_4">
    <g id="ytick_10">
     <g id="line2d_19">
      <defs>
       <path d="M 0 0 
L 3.5 0 
" id="mcb826c6a59" style="stroke:#000000;stroke-width:0.8;"/>
      </defs>
      <g>
       <use style="stroke:#000000;stroke-width:0.8;" x="374.4576" xlink:href="#mcb826c6a59" y="307.584"/>
      </g>
     </g>
     <g id="text_19">
      <!-- 0.0 -->
      <g transform="translate(381.4576 311.383219)scale(0.1 -0.1)">
       <use xlink:href="#DejaVuSans-48"/>
       <use x="63.623047" xlink:href="#DejaVuSans-46"/>
       <use x="95.410156" xlink:href="#DejaVuSans-48"/>
      </g>
     </g>
    </g>
    <g id="ytick_11">
     <g id="line2d_20">
      <g>
       <use style="stroke:#000000;stroke-width:0.8;" x="374.4576" xlink:href="#mcb826c6a59" y="278.016"/>
      </g>
     </g>
     <g id="text_20">
      <!-- 1.5 -->
      <g transform="translate(381.4576 281.815219)scale(0.1 -0.1)">
       <use xlink:href="#DejaVuSans-49"/>
       <use x="63.623047" xlink:href="#DejaVuSans-46"/>
       <use x="95.410156" xlink:href="#DejaVuSans-53"/>
      </g>
     </g>
    </g>
    <g id="ytick_12">
     <g id="line2d_21">
      <g>
       <use style="stroke:#000000;stroke-width:0.8;" x="374.4576" xlink:href="#mcb826c6a59" y="248.448"/>
      </g>
     </g>
     <g id="text_21">
      <!-- 3.0 -->
      <defs>
       <path d="M 40.578125 39.3125 
Q 47.65625 37.796875 51.625 33 
Q 55.609375 28.21875 55.609375 21.1875 
Q 55.609375 10.40625 48.1875 4.484375 
Q 40.765625 -1.421875 27.09375 -1.421875 
Q 22.515625 -1.421875 17.65625 -0.515625 
Q 12.796875 0.390625 7.625 2.203125 
L 7.625 11.71875 
Q 11.71875 9.328125 16.59375 8.109375 
Q 21.484375 6.890625 26.8125 6.890625 
Q 36.078125 6.890625 40.9375 10.546875 
Q 45.796875 14.203125 45.796875 21.1875 
Q 45.796875 27.640625 41.28125 31.265625 
Q 36.765625 34.90625 28.71875 34.90625 
L 20.21875 34.90625 
L 20.21875 43.015625 
L 29.109375 43.015625 
Q 36.375 43.015625 40.234375 45.921875 
Q 44.09375 48.828125 44.09375 54.296875 
Q 44.09375 59.90625 40.109375 62.90625 
Q 36.140625 65.921875 28.71875 65.921875 
Q 24.65625 65.921875 20.015625 65.03125 
Q 15.375 64.15625 9.8125 62.3125 
L 9.8125 71.09375 
Q 15.4375 72.65625 20.34375 73.4375 
Q 25.25 74.21875 29.59375 74.21875 
Q 40.828125 74.21875 47.359375 69.109375 
Q 53.90625 64.015625 53.90625 55.328125 
Q 53.90625 49.265625 50.4375 45.09375 
Q 46.96875 40.921875 40.578125 39.3125 
z
" id="DejaVuSans-51"/>
      </defs>
      <g transform="translate(381.4576 252.247219)scale(0.1 -0.1)">
       <use xlink:href="#DejaVuSans-51"/>
       <use x="63.623047" xlink:href="#DejaVuSans-46"/>
       <use x="95.410156" xlink:href="#DejaVuSans-48"/>
      </g>
     </g>
    </g>
    <g id="ytick_13">
     <g id="line2d_22">
      <g>
       <use style="stroke:#000000;stroke-width:0.8;" x="374.4576" xlink:href="#mcb826c6a59" y="218.88"/>
      </g>
     </g>
     <g id="text_22">
      <!-- 4.5 -->
      <defs>
       <path d="M 37.796875 64.3125 
L 12.890625 25.390625 
L 37.796875 25.390625 
z
M 35.203125 72.90625 
L 47.609375 72.90625 
L 47.609375 25.390625 
L 58.015625 25.390625 
L 58.015625 17.1875 
L 47.609375 17.1875 
L 47.609375 0 
L 37.796875 0 
L 37.796875 17.1875 
L 4.890625 17.1875 
L 4.890625 26.703125 
z
" id="DejaVuSans-52"/>
      </defs>
      <g transform="translate(381.4576 222.679219)scale(0.1 -0.1)">
       <use xlink:href="#DejaVuSans-52"/>
       <use x="63.623047" xlink:href="#DejaVuSans-46"/>
       <use x="95.410156" xlink:href="#DejaVuSans-53"/>
      </g>
     </g>
    </g>
    <g id="ytick_14">
     <g id="line2d_23">
      <g>
       <use style="stroke:#000000;stroke-width:0.8;" x="374.4576" xlink:href="#mcb826c6a59" y="189.312"/>
      </g>
     </g>
     <g id="text_23">
      <!-- 6.0 -->
      <defs>
       <path d="M 33.015625 40.375 
Q 26.375 40.375 22.484375 35.828125 
Q 18.609375 31.296875 18.609375 23.390625 
Q 18.609375 15.53125 22.484375 10.953125 
Q 26.375 6.390625 33.015625 6.390625 
Q 39.65625 6.390625 43.53125 10.953125 
Q 47.40625 15.53125 47.40625 23.390625 
Q 47.40625 31.296875 43.53125 35.828125 
Q 39.65625 40.375 33.015625 40.375 
z
M 52.59375 71.296875 
L 52.59375 62.3125 
Q 48.875 64.0625 45.09375 64.984375 
Q 41.3125 65.921875 37.59375 65.921875 
Q 27.828125 65.921875 22.671875 59.328125 
Q 17.53125 52.734375 16.796875 39.40625 
Q 19.671875 43.65625 24.015625 45.921875 
Q 28.375 48.1875 33.59375 48.1875 
Q 44.578125 48.1875 50.953125 41.515625 
Q 57.328125 34.859375 57.328125 23.390625 
Q 57.328125 12.15625 50.6875 5.359375 
Q 44.046875 -1.421875 33.015625 -1.421875 
Q 20.359375 -1.421875 13.671875 8.265625 
Q 6.984375 17.96875 6.984375 36.375 
Q 6.984375 53.65625 15.1875 63.9375 
Q 23.390625 74.21875 37.203125 74.21875 
Q 40.921875 74.21875 44.703125 73.484375 
Q 48.484375 72.75 52.59375 71.296875 
z
" id="DejaVuSans-54"/>
      </defs>
      <g transform="translate(381.4576 193.111219)scale(0.1 -0.1)">
       <use xlink:href="#DejaVuSans-54"/>
       <use x="63.623047" xlink:href="#DejaVuSans-46"/>
       <use x="95.410156" xlink:href="#DejaVuSans-48"/>
      </g>
     </g>
    </g>
    <g id="ytick_15">
     <g id="line2d_24">
      <g>
       <use style="stroke:#000000;stroke-width:0.8;" x="374.4576" xlink:href="#mcb826c6a59" y="159.744"/>
      </g>
     </g>
     <g id="text_24">
      <!-- 7.5 -->
      <defs>
       <path d="M 8.203125 72.90625 
L 55.078125 72.90625 
L 55.078125 68.703125 
L 28.609375 0 
L 18.3125 0 
L 43.21875 64.59375 
L 8.203125 64.59375 
z
" id="DejaVuSans-55"/>
      </defs>
      <g transform="translate(381.4576 163.543219)scale(0.1 -0.1)">
       <use xlink:href="#DejaVuSans-55"/>
       <use x="63.623047" xlink:href="#DejaVuSans-46"/>
       <use x="95.410156" xlink:href="#DejaVuSans-53"/>
      </g>
     </g>
    </g>
    <g id="ytick_16">
     <g id="line2d_25">
      <g>
       <use style="stroke:#000000;stroke-width:0.8;" x="374.4576" xlink:href="#mcb826c6a59" y="130.176"/>
      </g>
     </g>
     <g id="text_25">
      <!-- 9.0 -->
      <defs>
       <path d="M 10.984375 1.515625 
L 10.984375 10.5 
Q 14.703125 8.734375 18.5 7.8125 
Q 22.3125 6.890625 25.984375 6.890625 
Q 35.75 6.890625 40.890625 13.453125 
Q 46.046875 20.015625 46.78125 33.40625 
Q 43.953125 29.203125 39.59375 26.953125 
Q 35.25 24.703125 29.984375 24.703125 
Q 19.046875 24.703125 12.671875 31.3125 
Q 6.296875 37.9375 6.296875 49.421875 
Q 6.296875 60.640625 12.9375 67.421875 
Q 19.578125 74.21875 30.609375 74.21875 
Q 43.265625 74.21875 49.921875 64.515625 
Q 56.59375 54.828125 56.59375 36.375 
Q 56.59375 19.140625 48.40625 8.859375 
Q 40.234375 -1.421875 26.421875 -1.421875 
Q 22.703125 -1.421875 18.890625 -0.6875 
Q 15.09375 0.046875 10.984375 1.515625 
z
M 30.609375 32.421875 
Q 37.25 32.421875 41.125 36.953125 
Q 45.015625 41.5 45.015625 49.421875 
Q 45.015625 57.28125 41.125 61.84375 
Q 37.25 66.40625 30.609375 66.40625 
Q 23.96875 66.40625 20.09375 61.84375 
Q 16.21875 57.28125 16.21875 49.421875 
Q 16.21875 41.5 20.09375 36.953125 
Q 23.96875 32.421875 30.609375 32.421875 
z
" id="DejaVuSans-57"/>
      </defs>
      <g transform="translate(381.4576 133.975219)scale(0.1 -0.1)">
       <use xlink:href="#DejaVuSans-57"/>
       <use x="63.623047" xlink:href="#DejaVuSans-46"/>
       <use x="95.410156" xlink:href="#DejaVuSans-48"/>
      </g>
     </g>
    </g>
    <g id="ytick_17">
     <g id="line2d_26">
      <g>
       <use style="stroke:#000000;stroke-width:0.8;" x="374.4576" xlink:href="#mcb826c6a59" y="100.608"/>
      </g>
     </g>
     <g id="text_26">
      <!-- 10.5 -->
      <g transform="translate(381.4576 104.407219)scale(0.1 -0.1)">
       <use xlink:href="#DejaVuSans-49"/>
       <use x="63.623047" xlink:href="#DejaVuSans-48"/>
       <use x="127.246094" xlink:href="#DejaVuSans-46"/>
       <use x="159.033203" xlink:href="#DejaVuSans-53"/>
      </g>
     </g>
    </g>
    <g id="ytick_18">
     <g id="line2d_27">
      <g>
       <use style="stroke:#000000;stroke-width:0.8;" x="374.4576" xlink:href="#mcb826c6a59" y="71.04"/>
      </g>
     </g>
     <g id="text_27">
      <!-- 12.0 -->
      <g transform="translate(381.4576 74.839219)scale(0.1 -0.1)">
       <use xlink:href="#DejaVuSans-49"/>
       <use x="63.623047" xlink:href="#DejaVuSans-50"/>
       <use x="127.246094" xlink:href="#DejaVuSans-46"/>
       <use x="159.033203" xlink:href="#DejaVuSans-48"/>
      </g>
     </g>
    </g>
    <g id="ytick_19">
     <g id="line2d_28">
      <g>
       <use style="stroke:#000000;stroke-width:0.8;" x="374.4576" xlink:href="#mcb826c6a59" y="41.472"/>
      </g>
     </g>
     <g id="text_28">
      <!-- 13.5 -->
      <g transform="translate(381.4576 45.271219)scale(0.1 -0.1)">
       <use xlink:href="#DejaVuSans-49"/>
       <use x="63.623047" xlink:href="#DejaVuSans-51"/>
       <use x="127.246094" xlink:href="#DejaVuSans-46"/>
       <use x="159.033203" xlink:href="#DejaVuSans-53"/>
      </g>
     </g>
    </g>
   </g>
   <g id="LineCollection_11">
    <path clip-path="url(#p61dcfebef4)" d="M 361.152 307.584 
L 374.4576 307.584 
" style="fill:none;stroke:#00ff80;stroke-width:1.5;"/>
    <path clip-path="url(#p61dcfebef4)" d="M 361.152 278.016 
L 374.4576 278.016 
" style="fill:none;stroke:#00e38e;stroke-width:1.5;"/>
    <path clip-path="url(#p61dcfebef4)" d="M 361.152 248.448 
L 374.4576 248.448 
" style="fill:none;stroke:#00c79c;stroke-width:1.5;"/>
    <path clip-path="url(#p61dcfebef4)" d="M 361.152 218.88 
L 374.4576 218.88 
" style="fill:none;stroke:#00aaaa;stroke-width:1.5;"/>
    <path clip-path="url(#p61dcfebef4)" d="M 361.152 189.312 
L 374.4576 189.312 
" style="fill:none;stroke:#008eb8;stroke-width:1.5;"/>
    <path clip-path="url(#p61dcfebef4)" d="M 361.152 159.744 
L 374.4576 159.744 
" style="fill:none;stroke:#0071c6;stroke-width:1.5;"/>
    <path clip-path="url(#p61dcfebef4)" d="M 361.152 130.176 
L 374.4576 130.176 
" style="fill:none;stroke:#0055d4;stroke-width:1.5;"/>
    <path clip-path="url(#p61dcfebef4)" d="M 361.152 100.608 
L 374.4576 100.608 
" style="fill:none;stroke:#0038e3;stroke-width:1.5;"/>
    <path clip-path="url(#p61dcfebef4)" d="M 361.152 71.04 
L 374.4576 71.04 
" style="fill:none;stroke:#001cf1;stroke-width:1.5;"/>
    <path clip-path="url(#p61dcfebef4)" d="M 361.152 41.472 
L 374.4576 41.472 
" style="fill:none;stroke:#0000ff;stroke-width:1.5;"/>
   </g>
   <g id="patch_8">
    <path d="M 361.152 307.584 
L 361.152 278.016 
L 361.152 71.04 
L 361.152 41.472 
L 374.4576 41.472 
L 374.4576 71.04 
L 374.4576 278.016 
L 374.4576 307.584 
z
" style="fill:none;stroke:#000000;stroke-linejoin:miter;stroke-width:0.8;"/>
   </g>
  </g>
 </g>
 <defs>
  <clipPath id="p19599d41ec">
   <rect height="266.112" width="285.696" x="57.6" y="41.472"/>
  </clipPath>
  <clipPath id="p61dcfebef4">
   <rect height="266.112" width="13.3056" x="361.152" y="41.472"/>
  </clipPath>
 </defs>
</svg>
