<?xml version="1.0" encoding="utf-8" standalone="no"?>
<!DOCTYPE svg PUBLIC "-//W3C//DTD SVG 1.1//EN"
  "http://www.w3.org/Graphics/SVG/1.1/DTD/svg11.dtd">
<!-- Created with matplotlib (https://matplotlib.org/) -->
<svg height="345.6pt" version="1.1" viewBox="0 0 460.8 345.6" width="460.8pt" xmlns="http://www.w3.org/2000/svg" xmlns:xlink="http://www.w3.org/1999/xlink">
 <defs>
  <style type="text/css">
*{stroke-linecap:butt;stroke-linejoin:round;}
  </style>
 </defs>
 <g id="figure_1">
  <g id="patch_1">
   <path d="M 0 345.6 
L 460.8 345.6 
L 460.8 0 
L 0 0 
z
" style="fill:#ffffff;"/>
  </g>
  <g id="axes_1">
   <g id="patch_2">
    <path d="M 57.6 307.584 
L 343.296 307.584 
L 343.296 41.472 
L 57.6 41.472 
z
" style="fill:#ffffff;"/>
   </g>
   <g id="matplotlib.axis_1">
    <g id="xtick_1">
     <g id="line2d_1">
      <defs>
       <path d="M 0 0 
L 0 3.5 
" id="m6c03313466" style="stroke:#000000;stroke-width:0.8;"/>
      </defs>
      <g>
       <use style="stroke:#000000;stroke-width:0.8;" x="57.6" xlink:href="#m6c03313466" y="307.584"/>
      </g>
     </g>
     <g id="text_1">
      <!-- −10.0 -->
      <defs>
       <path d="M 10.59375 35.5 
L 73.1875 35.5 
L 73.1875 27.203125 
L 10.59375 27.203125 
z
" id="DejaVuSans-8722"/>
       <path d="M 12.40625 8.296875 
L 28.515625 8.296875 
L 28.515625 63.921875 
L 10.984375 60.40625 
L 10.984375 69.390625 
L 28.421875 72.90625 
L 38.28125 72.90625 
L 38.28125 8.296875 
L 54.390625 8.296875 
L 54.390625 0 
L 12.40625 0 
z
" id="DejaVuSans-49"/>
       <path d="M 31.78125 66.40625 
Q 24.171875 66.40625 20.328125 58.90625 
Q 16.5 51.421875 16.5 36.375 
Q 16.5 21.390625 20.328125 13.890625 
Q 24.171875 6.390625 31.78125 6.390625 
Q 39.453125 6.390625 43.28125 13.890625 
Q 47.125 21.390625 47.125 36.375 
Q 47.125 51.421875 43.28125 58.90625 
Q 39.453125 66.40625 31.78125 66.40625 
z
M 31.78125 74.21875 
Q 44.046875 74.21875 50.515625 64.515625 
Q 56.984375 54.828125 56.984375 36.375 
Q 56.984375 17.96875 50.515625 8.265625 
Q 44.046875 -1.421875 31.78125 -1.421875 
Q 19.53125 -1.421875 13.0625 8.265625 
Q 6.59375 17.96875 6.59375 36.375 
Q 6.59375 54.828125 13.0625 64.515625 
Q 19.53125 74.21875 31.78125 74.21875 
z
" id="DejaVuSans-48"/>
       <path d="M 10.6875 12.40625 
L 21 12.40625 
L 21 0 
L 10.6875 0 
z
" id="DejaVuSans-46"/>
      </defs>
      <g transform="translate(42.277344 322.182437)scale(0.1 -0.1)">
       <use xlink:href="#DejaVuSans-8722"/>
       <use x="83.789062" xlink:href="#DejaVuSans-49"/>
       <use x="147.412109" xlink:href="#DejaVuSans-48"/>
       <use x="211.035156" xlink:href="#DejaVuSans-46"/>
       <use x="242.822266" xlink:href="#DejaVuSans-48"/>
      </g>
     </g>
    </g>
    <g id="xtick_2">
     <g id="line2d_2">
      <g>
       <use style="stroke:#000000;stroke-width:0.8;" x="93.312" xlink:href="#m6c03313466" y="307.584"/>
      </g>
     </g>
     <g id="text_2">
      <!-- −7.5 -->
      <defs>
       <path d="M 8.203125 72.90625 
L 55.078125 72.90625 
L 55.078125 68.703125 
L 28.609375 0 
L 18.3125 0 
L 43.21875 64.59375 
L 8.203125 64.59375 
z
" id="DejaVuSans-55"/>
       <path d="M 10.796875 72.90625 
L 49.515625 72.90625 
L 49.515625 64.59375 
L 19.828125 64.59375 
L 19.828125 46.734375 
Q 21.96875 47.46875 24.109375 47.828125 
Q 26.265625 48.1875 28.421875 48.1875 
Q 40.625 48.1875 47.75 41.5 
Q 54.890625 34.8125 54.890625 23.390625 
Q 54.890625 11.625 47.5625 5.09375 
Q 40.234375 -1.421875 26.90625 -1.421875 
Q 22.3125 -1.421875 17.546875 -0.640625 
Q 12.796875 0.140625 7.71875 1.703125 
L 7.71875 11.625 
Q 12.109375 9.234375 16.796875 8.0625 
Q 21.484375 6.890625 26.703125 6.890625 
Q 35.15625 6.890625 40.078125 11.328125 
Q 45.015625 15.765625 45.015625 23.390625 
Q 45.015625 31 40.078125 35.4375 
Q 35.15625 39.890625 26.703125 39.890625 
Q 22.75 39.890625 18.8125 39.015625 
Q 14.890625 38.140625 10.796875 36.28125 
z
" id="DejaVuSans-53"/>
      </defs>
      <g transform="translate(81.170594 322.182437)scale(0.1 -0.1)">
       <use xlink:href="#DejaVuSans-8722"/>
       <use x="83.789062" xlink:href="#DejaVuSans-55"/>
       <use x="147.412109" xlink:href="#DejaVuSans-46"/>
       <use x="179.199219" xlink:href="#DejaVuSans-53"/>
      </g>
     </g>
    </g>
    <g id="xtick_3">
     <g id="line2d_3">
      <g>
       <use style="stroke:#000000;stroke-width:0.8;" x="129.024" xlink:href="#m6c03313466" y="307.584"/>
      </g>
     </g>
     <g id="text_3">
      <!-- −5.0 -->
      <g transform="translate(116.882594 322.182437)scale(0.1 -0.1)">
       <use xlink:href="#DejaVuSans-8722"/>
       <use x="83.789062" xlink:href="#DejaVuSans-53"/>
       <use x="147.412109" xlink:href="#DejaVuSans-46"/>
       <use x="179.199219" xlink:href="#DejaVuSans-48"/>
      </g>
     </g>
    </g>
    <g id="xtick_4">
     <g id="line2d_4">
      <g>
       <use style="stroke:#000000;stroke-width:0.8;" x="164.736" xlink:href="#m6c03313466" y="307.584"/>
      </g>
     </g>
     <g id="text_4">
      <!-- −2.5 -->
      <defs>
       <path d="M 19.1875 8.296875 
L 53.609375 8.296875 
L 53.609375 0 
L 7.328125 0 
L 7.328125 8.296875 
Q 12.9375 14.109375 22.625 23.890625 
Q 32.328125 33.6875 34.8125 36.53125 
Q 39.546875 41.84375 41.421875 45.53125 
Q 43.3125 49.21875 43.3125 52.78125 
Q 43.3125 58.59375 39.234375 62.25 
Q 35.15625 65.921875 28.609375 65.921875 
Q 23.96875 65.921875 18.8125 64.3125 
Q 13.671875 62.703125 7.8125 59.421875 
L 7.8125 69.390625 
Q 13.765625 71.78125 18.9375 73 
Q 24.125 74.21875 28.421875 74.21875 
Q 39.75 74.21875 46.484375 68.546875 
Q 53.21875 62.890625 53.21875 53.421875 
Q 53.21875 48.921875 51.53125 44.890625 
Q 49.859375 40.875 45.40625 35.40625 
Q 44.1875 33.984375 37.640625 27.21875 
Q 31.109375 20.453125 19.1875 8.296875 
z
" id="DejaVuSans-50"/>
      </defs>
      <g transform="translate(152.594594 322.182437)scale(0.1 -0.1)">
       <use xlink:href="#DejaVuSans-8722"/>
       <use x="83.789062" xlink:href="#DejaVuSans-50"/>
       <use x="147.412109" xlink:href="#DejaVuSans-46"/>
       <use x="179.199219" xlink:href="#DejaVuSans-53"/>
      </g>
     </g>
    </g>
    <g id="xtick_5">
     <g id="line2d_5">
      <g>
       <use style="stroke:#000000;stroke-width:0.8;" x="200.448" xlink:href="#m6c03313466" y="307.584"/>
      </g>
     </g>
     <g id="text_5">
      <!-- 0.0 -->
      <g transform="translate(192.496438 322.182437)scale(0.1 -0.1)">
       <use xlink:href="#DejaVuSans-48"/>
       <use x="63.623047" xlink:href="#DejaVuSans-46"/>
       <use x="95.410156" xlink:href="#DejaVuSans-48"/>
      </g>
     </g>
    </g>
    <g id="xtick_6">
     <g id="line2d_6">
      <g>
       <use style="stroke:#000000;stroke-width:0.8;" x="236.16" xlink:href="#m6c03313466" y="307.584"/>
      </g>
     </g>
     <g id="text_6">
      <!-- 2.5 -->
      <g transform="translate(228.208438 322.182437)scale(0.1 -0.1)">
       <use xlink:href="#DejaVuSans-50"/>
       <use x="63.623047" xlink:href="#DejaVuSans-46"/>
       <use x="95.410156" xlink:href="#DejaVuSans-53"/>
      </g>
     </g>
    </g>
    <g id="xtick_7">
     <g id="line2d_7">
      <g>
       <use style="stroke:#000000;stroke-width:0.8;" x="271.872" xlink:href="#m6c03313466" y="307.584"/>
      </g>
     </g>
     <g id="text_7">
      <!-- 5.0 -->
      <g transform="translate(263.920437 322.182437)scale(0.1 -0.1)">
       <use xlink:href="#DejaVuSans-53"/>
       <use x="63.623047" xlink:href="#DejaVuSans-46"/>
       <use x="95.410156" xlink:href="#DejaVuSans-48"/>
      </g>
     </g>
    </g>
    <g id="xtick_8">
     <g id="line2d_8">
      <g>
       <use style="stroke:#000000;stroke-width:0.8;" x="307.584" xlink:href="#m6c03313466" y="307.584"/>
      </g>
     </g>
     <g id="text_8">
      <!-- 7.5 -->
      <g transform="translate(299.632438 322.182437)scale(0.1 -0.1)">
       <use xlink:href="#DejaVuSans-55"/>
       <use x="63.623047" xlink:href="#DejaVuSans-46"/>
       <use x="95.410156" xlink:href="#DejaVuSans-53"/>
      </g>
     </g>
    </g>
    <g id="xtick_9">
     <g id="line2d_9">
      <g>
       <use style="stroke:#000000;stroke-width:0.8;" x="343.296" xlink:href="#m6c03313466" y="307.584"/>
      </g>
     </g>
     <g id="text_9">
      <!-- 10.0 -->
      <g transform="translate(332.163188 322.182437)scale(0.1 -0.1)">
       <use xlink:href="#DejaVuSans-49"/>
       <use x="63.623047" xlink:href="#DejaVuSans-48"/>
       <use x="127.246094" xlink:href="#DejaVuSans-46"/>
       <use x="159.033203" xlink:href="#DejaVuSans-48"/>
      </g>
     </g>
    </g>
   </g>
   <g id="matplotlib.axis_2">
    <g id="ytick_1">
     <g id="line2d_10">
      <defs>
       <path d="M 0 0 
L -3.5 0 
" id="m3cf3fe8977" style="stroke:#000000;stroke-width:0.8;"/>
      </defs>
      <g>
       <use style="stroke:#000000;stroke-width:0.8;" x="57.6" xlink:href="#m3cf3fe8977" y="307.584"/>
      </g>
     </g>
     <g id="text_10">
      <!-- −10.0 -->
      <g transform="translate(19.954687 311.383219)scale(0.1 -0.1)">
       <use xlink:href="#DejaVuSans-8722"/>
       <use x="83.789062" xlink:href="#DejaVuSans-49"/>
       <use x="147.412109" xlink:href="#DejaVuSans-48"/>
       <use x="211.035156" xlink:href="#DejaVuSans-46"/>
       <use x="242.822266" xlink:href="#DejaVuSans-48"/>
      </g>
     </g>
    </g>
    <g id="ytick_2">
     <g id="line2d_11">
      <g>
       <use style="stroke:#000000;stroke-width:0.8;" x="57.6" xlink:href="#m3cf3fe8977" y="274.32"/>
      </g>
     </g>
     <g id="text_11">
      <!-- −7.5 -->
      <g transform="translate(26.317187 278.119219)scale(0.1 -0.1)">
       <use xlink:href="#DejaVuSans-8722"/>
       <use x="83.789062" xlink:href="#DejaVuSans-55"/>
       <use x="147.412109" xlink:href="#DejaVuSans-46"/>
       <use x="179.199219" xlink:href="#DejaVuSans-53"/>
      </g>
     </g>
    </g>
    <g id="ytick_3">
     <g id="line2d_12">
      <g>
       <use style="stroke:#000000;stroke-width:0.8;" x="57.6" xlink:href="#m3cf3fe8977" y="241.056"/>
      </g>
     </g>
     <g id="text_12">
      <!-- −5.0 -->
      <g transform="translate(26.317187 244.855219)scale(0.1 -0.1)">
       <use xlink:href="#DejaVuSans-8722"/>
       <use x="83.789062" xlink:href="#DejaVuSans-53"/>
       <use x="147.412109" xlink:href="#DejaVuSans-46"/>
       <use x="179.199219" xlink:href="#DejaVuSans-48"/>
      </g>
     </g>
    </g>
    <g id="ytick_4">
     <g id="line2d_13">
      <g>
       <use style="stroke:#000000;stroke-width:0.8;" x="57.6" xlink:href="#m3cf3fe8977" y="207.792"/>
      </g>
     </g>
     <g id="text_13">
      <!-- −2.5 -->
      <g transform="translate(26.317187 211.591219)scale(0.1 -0.1)">
       <use xlink:href="#DejaVuSans-8722"/>
       <use x="83.789062" xlink:href="#DejaVuSans-50"/>
       <use x="147.412109" xlink:href="#DejaVuSans-46"/>
       <use x="179.199219" xlink:href="#DejaVuSans-53"/>
      </g>
     </g>
    </g>
    <g id="ytick_5">
     <g id="line2d_14">
      <g>
       <use style="stroke:#000000;stroke-width:0.8;" x="57.6" xlink:href="#m3cf3fe8977" y="174.528"/>
      </g>
     </g>
     <g id="text_14">
      <!-- 0.0 -->
      <g transform="translate(34.696875 178.327219)scale(0.1 -0.1)">
       <use xlink:href="#DejaVuSans-48"/>
       <use x="63.623047" xlink:href="#DejaVuSans-46"/>
       <use x="95.410156" xlink:href="#DejaVuSans-48"/>
      </g>
     </g>
    </g>
    <g id="ytick_6">
     <g id="line2d_15">
      <g>
       <use style="stroke:#000000;stroke-width:0.8;" x="57.6" xlink:href="#m3cf3fe8977" y="141.264"/>
      </g>
     </g>
     <g id="text_15">
      <!-- 2.5 -->
      <g transform="translate(34.696875 145.063219)scale(0.1 -0.1)">
       <use xlink:href="#DejaVuSans-50"/>
       <use x="63.623047" xlink:href="#DejaVuSans-46"/>
       <use x="95.410156" xlink:href="#DejaVuSans-53"/>
      </g>
     </g>
    </g>
    <g id="ytick_7">
     <g id="line2d_16">
      <g>
       <use style="stroke:#000000;stroke-width:0.8;" x="57.6" xlink:href="#m3cf3fe8977" y="108"/>
      </g>
     </g>
     <g id="text_16">
      <!-- 5.0 -->
      <g transform="translate(34.696875 111.799219)scale(0.1 -0.1)">
       <use xlink:href="#DejaVuSans-53"/>
       <use x="63.623047" xlink:href="#DejaVuSans-46"/>
       <use x="95.410156" xlink:href="#DejaVuSans-48"/>
      </g>
     </g>
    </g>
    <g id="ytick_8">
     <g id="line2d_17">
      <g>
       <use style="stroke:#000000;stroke-width:0.8;" x="57.6" xlink:href="#m3cf3fe8977" y="74.736"/>
      </g>
     </g>
     <g id="text_17">
      <!-- 7.5 -->
      <g transform="translate(34.696875 78.535219)scale(0.1 -0.1)">
       <use xlink:href="#DejaVuSans-55"/>
       <use x="63.623047" xlink:href="#DejaVuSans-46"/>
       <use x="95.410156" xlink:href="#DejaVuSans-53"/>
      </g>
     </g>
    </g>
    <g id="ytick_9">
     <g id="line2d_18">
      <g>
       <use style="stroke:#000000;stroke-width:0.8;" x="57.6" xlink:href="#m3cf3fe8977" y="41.472"/>
      </g>
     </g>
     <g id="text_18">
      <!-- 10.0 -->
      <g transform="translate(28.334375 45.271219)scale(0.1 -0.1)">
       <use xlink:href="#DejaVuSans-49"/>
       <use x="63.623047" xlink:href="#DejaVuSans-48"/>
       <use x="127.246094" xlink:href="#DejaVuSans-46"/>
       <use x="159.033203" xlink:href="#DejaVuSans-48"/>
      </g>
     </g>
    </g>
   </g>
   <g id="LineCollection_1"/>
   <g id="LineCollection_2">
    <path clip-path="url(#pc7ba8085a1)" d="M 123.891923 307.584 
L 123.633703 304.896 
L 123.37419 302.208 
L 123.113365 299.52 
L 122.851206 296.832 
L 122.587693 294.144 
L 122.322805 291.456 
L 122.056519 288.768 
L 121.788815 286.08 
L 121.519668 283.392 
L 121.249057 280.704 
L 121.088 279.109488 
L 120.986962 278.016 
L 120.738111 275.328 
L 120.488016 272.64 
L 120.236657 269.952 
L 119.984014 267.264 
L 119.730068 264.576 
L 119.474798 261.888 
L 119.218184 259.2 
L 118.960203 256.512 
L 118.700835 253.824 
L 118.440056 251.136 
L 118.202182 248.696274 
L 118.180054 248.448 
L 117.940405 245.76 
L 117.699564 243.072 
L 117.457513 240.384 
L 117.214233 237.696 
L 116.969704 235.008 
L 116.723908 232.32 
L 116.476823 229.632 
L 116.228431 226.944 
L 115.978709 224.256 
L 115.727637 221.568 
L 115.475193 218.88 
L 115.316364 217.194704 
L 115.230067 216.192 
L 114.998324 213.504 
L 114.765427 210.816 
L 114.531358 208.128 
L 114.2961 205.44 
L 114.059633 202.752 
L 113.82194 200.064 
L 113.583 197.376 
L 113.342794 194.688 
L 113.101302 192 
L 112.858503 189.312 
L 112.614376 186.624 
L 112.430545 184.608309 
L 112.374607 183.936 
L 112.150705 181.248 
L 111.925693 178.56 
L 111.699553 175.872 
L 111.472267 173.184 
L 111.243818 170.496 
L 111.014188 167.808 
L 110.783358 165.12 
L 110.551309 162.432 
L 110.318022 159.744 
L 110.083476 157.056 
L 109.847652 154.368 
L 109.610529 151.68 
L 109.544727 150.9353 
L 109.388262 148.992 
L 109.171075 146.304 
L 108.952807 143.616 
L 108.733443 140.928 
L 108.512964 138.24 
L 108.291353 135.552 
L 108.068594 132.864 
L 107.844667 130.176 
L 107.619554 127.488 
L 107.393237 124.8 
L 107.165695 122.112 
L 106.93691 119.424 
L 106.706861 116.736 
L 106.658909 116.176427 
L 106.492903 114.048 
L 106.282443 111.36 
L 106.070938 108.672 
L 105.85837 105.984 
L 105.644725 103.296 
L 105.429985 100.608 
L 105.214133 97.92 
L 104.997151 95.232 
L 104.779022 92.544 
L 104.559728 89.856 
L 104.339248 87.168 
L 104.117566 84.48 
L 103.894661 81.792 
L 103.773091 80.330521 
L 103.680332 79.104 
L 103.476608 76.416 
L 103.271878 73.728 
L 103.066126 71.04 
L 102.859336 68.352 
L 102.651493 65.664 
L 102.442579 62.976 
L 102.232578 60.288 
L 102.021473 57.6 
L 101.809246 54.912 
L 101.59588 52.224 
L 101.381355 49.536 
L 101.165654 46.848 
L 100.948757 44.16 
L 100.887273 43.399315 
L 100.745829 41.472 
" style="fill:none;stroke:#00e38e;stroke-width:1.5;"/>
    <path clip-path="url(#pc7ba8085a1)" d="M 300.153695 41.472 
L 300.008727 43.447268 
L 299.951116 44.16 
L 299.73419 46.848 
L 299.518461 49.536 
L 299.303908 52.224 
L 299.090513 54.912 
L 298.878258 57.6 
L 298.667126 60.288 
L 298.457098 62.976 
L 298.248157 65.664 
L 298.040287 68.352 
L 297.833471 71.04 
L 297.627693 73.728 
L 297.422937 76.416 
L 297.219188 79.104 
L 297.122909 80.377021 
L 297.005203 81.792 
L 296.782268 84.48 
L 296.560556 87.168 
L 296.340048 89.856 
L 296.120725 92.544 
L 295.902568 95.232 
L 295.685558 97.92 
L 295.469678 100.608 
L 295.254911 103.296 
L 295.041239 105.984 
L 294.828646 108.672 
L 294.617114 111.36 
L 294.406628 114.048 
L 294.237091 116.221617 
L 294.19301 116.736 
L 293.962931 119.424 
L 293.734116 122.112 
L 293.506545 124.8 
L 293.280198 127.488 
L 293.055056 130.176 
L 292.831101 132.864 
L 292.608313 135.552 
L 292.386675 138.24 
L 292.166169 140.928 
L 291.946777 143.616 
L 291.728483 146.304 
L 291.511269 148.992 
L 291.351273 150.979083 
L 291.289337 151.68 
L 291.052183 154.368 
L 290.816329 157.056 
L 290.581753 159.744 
L 290.348436 162.432 
L 290.116358 165.12 
L 289.885499 167.808 
L 289.65584 170.496 
L 289.427363 173.184 
L 289.20005 175.872 
L 288.973882 178.56 
L 288.748842 181.248 
L 288.524914 183.936 
L 288.465455 184.650598 
L 288.285472 186.624 
L 288.041314 189.312 
L 287.798485 192 
L 287.556962 194.688 
L 287.316726 197.376 
L 287.077757 200.064 
L 286.840034 202.752 
L 286.603539 205.44 
L 286.368252 208.128 
L 286.134155 210.816 
L 285.90123 213.504 
L 285.669459 216.192 
L 285.579636 217.235632 
L 285.424657 218.88 
L 285.172181 221.568 
L 284.921078 224.256 
L 284.671325 226.944 
L 284.422902 229.632 
L 284.175787 232.32 
L 283.92996 235.008 
L 283.685402 237.696 
L 283.442092 240.384 
L 283.200012 243.072 
L 282.959143 245.76 
L 282.719466 248.448 
L 282.693818 248.735756 
L 282.459782 251.136 
L 282.198971 253.824 
L 281.93957 256.512 
L 281.681558 259.2 
L 281.424912 261.888 
L 281.169612 264.576 
L 280.915635 267.264 
L 280.662962 269.952 
L 280.411573 272.64 
L 280.161448 275.328 
L 279.912568 278.016 
L 279.808 279.147647 
L 279.65079 280.704 
L 279.380145 283.392 
L 279.110965 286.08 
L 278.843228 288.768 
L 278.57691 291.456 
L 278.31199 294.144 
L 278.048446 296.832 
L 277.786256 299.52 
L 277.525399 302.208 
L 277.265856 304.896 
L 277.007606 307.584 
" style="fill:none;stroke:#00e38e;stroke-width:1.5;"/>
   </g>
   <g id="LineCollection_3">
    <path clip-path="url(#pc7ba8085a1)" d="M 104.898395 307.584 
L 104.680396 304.896 
L 104.461577 302.208 
L 104.241927 299.52 
L 104.021439 296.832 
L 103.800102 294.144 
L 103.773091 293.816147 
L 103.5929 291.456 
L 103.387044 288.768 
L 103.180455 286.08 
L 102.973125 283.392 
L 102.765046 280.704 
L 102.556209 278.016 
L 102.346607 275.328 
L 102.13623 272.64 
L 101.925071 269.952 
L 101.713119 267.264 
L 101.500368 264.576 
L 101.286807 261.888 
L 101.072427 259.2 
L 100.887273 256.886161 
L 100.859541 256.512 
L 100.660233 253.824 
L 100.46022 251.136 
L 100.259495 248.448 
L 100.058049 245.76 
L 99.855876 243.072 
L 99.652966 240.384 
L 99.449312 237.696 
L 99.244905 235.008 
L 99.039737 232.32 
L 98.8338 229.632 
L 98.627085 226.944 
L 98.419583 224.256 
L 98.211284 221.568 
L 98.002182 218.88 
L 98.001455 218.870656 
L 97.808591 216.192 
L 97.614375 213.504 
L 97.419469 210.816 
L 97.223866 208.128 
L 97.027557 205.44 
L 96.830535 202.752 
L 96.632792 200.064 
L 96.434321 197.376 
L 96.235112 194.688 
L 96.035158 192 
L 95.834451 189.312 
L 95.632981 186.624 
L 95.430741 183.936 
L 95.227721 181.248 
L 95.115636 179.767204 
L 95.031124 178.56 
L 94.842659 175.872 
L 94.653528 173.184 
L 94.463724 170.496 
L 94.273239 167.808 
L 94.082066 165.12 
L 93.890197 162.432 
L 93.697626 159.744 
L 93.504343 157.056 
L 93.310341 154.368 
L 93.115612 151.68 
L 92.920147 148.992 
L 92.72394 146.304 
L 92.52698 143.616 
L 92.329259 140.928 
L 92.229818 139.578789 
L 92.138627 138.24 
L 91.955224 135.552 
L 91.771173 132.864 
L 91.586469 130.176 
L 91.401102 127.488 
L 91.215067 124.8 
L 91.028356 122.112 
L 90.840961 119.424 
L 90.652875 116.736 
L 90.46409 114.048 
L 90.274598 111.36 
L 90.084391 108.672 
L 89.893462 105.984 
L 89.701802 103.296 
L 89.509403 100.608 
L 89.344 98.304859 
L 89.318475 97.92 
L 89.140127 95.232 
L 88.961152 92.544 
L 88.781543 89.856 
L 88.601293 87.168 
L 88.420396 84.48 
L 88.238844 81.792 
L 88.056629 79.104 
L 87.873746 76.416 
L 87.690186 73.728 
L 87.505941 71.04 
L 87.321005 68.352 
L 87.135368 65.664 
L 86.949025 62.976 
L 86.761965 60.288 
L 86.574181 57.6 
L 86.458182 55.943573 
L 86.391526 54.912 
L 86.217616 52.224 
L 86.043095 49.536 
L 85.867956 46.848 
L 85.692192 44.16 
L 85.515796 41.472 
" style="fill:none;stroke:#00c79c;stroke-width:1.5;"/>
    <path clip-path="url(#pc7ba8085a1)" d="M 315.382775 41.472 
L 315.206366 44.16 
L 315.030589 46.848 
L 314.855436 49.536 
L 314.680902 52.224 
L 314.50698 54.912 
L 314.437818 55.982332 
L 314.32453 57.6 
L 314.136732 60.288 
L 313.949658 62.976 
L 313.763299 65.664 
L 313.577649 68.352 
L 313.392698 71.04 
L 313.208439 73.728 
L 313.024865 76.416 
L 312.841968 79.104 
L 312.65974 81.792 
L 312.478175 84.48 
L 312.297264 87.168 
L 312.117001 89.856 
L 311.937378 92.544 
L 311.75839 95.232 
L 311.580029 97.92 
L 311.552 98.342602 
L 311.389304 100.608 
L 311.19689 103.296 
L 311.005215 105.984 
L 310.814271 108.672 
L 310.62405 111.36 
L 310.434544 114.048 
L 310.245745 116.736 
L 310.057644 119.424 
L 309.870235 122.112 
L 309.68351 124.8 
L 309.497461 127.488 
L 309.312081 130.176 
L 309.127363 132.864 
L 308.943299 135.552 
L 308.759882 138.24 
L 308.666182 139.615601 
L 308.569451 140.928 
L 308.371716 143.616 
L 308.174741 146.304 
L 307.978518 148.992 
L 307.783039 151.68 
L 307.588295 154.368 
L 307.394279 157.056 
L 307.200982 159.744 
L 307.008396 162.432 
L 306.816513 165.12 
L 306.625326 167.808 
L 306.434827 170.496 
L 306.245009 173.184 
L 306.055865 175.872 
L 305.867386 178.56 
L 305.780364 179.803027 
L 305.670987 181.248 
L 305.467952 183.936 
L 305.265697 186.624 
L 305.064212 189.312 
L 304.86349 192 
L 304.663521 194.688 
L 304.464298 197.376 
L 304.265811 200.064 
L 304.068054 202.752 
L 303.871018 205.44 
L 303.674695 208.128 
L 303.479077 210.816 
L 303.284157 213.504 
L 303.089927 216.192 
L 302.89638 218.88 
L 302.894545 218.905473 
L 302.687416 221.568 
L 302.479102 224.256 
L 302.271584 226.944 
L 302.064854 229.632 
L 301.858901 232.32 
L 301.653718 235.008 
L 301.449297 237.696 
L 301.245628 240.384 
L 301.042703 243.072 
L 300.840515 245.76 
L 300.639055 248.448 
L 300.438316 251.136 
L 300.238288 253.824 
L 300.038966 256.512 
L 300.008727 256.919982 
L 299.826275 259.2 
L 299.611879 261.888 
L 299.398302 264.576 
L 299.185535 267.264 
L 298.973568 269.952 
L 298.762393 272.64 
L 298.552001 275.328 
L 298.342384 278.016 
L 298.133532 280.704 
L 297.925438 283.392 
L 297.718093 286.08 
L 297.511489 288.768 
L 297.305619 291.456 
L 297.122909 293.849077 
L 297.09861 294.144 
L 296.877257 296.832 
L 296.656752 299.52 
L 296.437087 302.208 
L 296.218252 304.896 
L 296.000237 307.584 
" style="fill:none;stroke:#00c79c;stroke-width:1.5;"/>
   </g>
   <g id="LineCollection_4">
    <path clip-path="url(#pc7ba8085a1)" d="M 92.537496 307.584 
L 92.340686 304.896 
L 92.229818 303.384483 
L 92.1493 302.208 
L 91.965107 299.52 
L 91.780379 296.832 
L 91.595111 294.144 
L 91.409299 291.456 
L 91.222938 288.768 
L 91.036022 286.08 
L 90.848547 283.392 
L 90.660507 280.704 
L 90.471898 278.016 
L 90.282714 275.328 
L 90.09295 272.64 
L 89.902601 269.952 
L 89.711661 267.264 
L 89.520125 264.576 
L 89.344 262.111391 
L 89.329112 261.888 
L 89.149932 259.2 
L 88.970234 256.512 
L 88.790013 253.824 
L 88.609264 251.136 
L 88.427982 248.448 
L 88.246163 245.76 
L 88.063802 243.072 
L 87.880893 240.384 
L 87.697432 237.696 
L 87.513414 235.008 
L 87.328834 232.32 
L 87.143686 229.632 
L 86.957966 226.944 
L 86.771668 224.256 
L 86.584786 221.568 
L 86.458182 219.750891 
L 86.401625 218.88 
L 86.226908 216.192 
L 86.051685 213.504 
L 85.875952 210.816 
L 85.699704 208.128 
L 85.522936 205.44 
L 85.345645 202.752 
L 85.167824 200.064 
L 84.98947 197.376 
L 84.810577 194.688 
L 84.63114 192 
L 84.451156 189.312 
L 84.270618 186.624 
L 84.089521 183.936 
L 83.907861 181.248 
L 83.725632 178.56 
L 83.572364 176.305167 
L 83.544935 175.872 
L 83.374661 173.184 
L 83.203895 170.496 
L 83.032633 167.808 
L 82.86087 165.12 
L 82.688602 162.432 
L 82.515824 159.744 
L 82.342532 157.056 
L 82.168721 154.368 
L 81.994386 151.68 
L 81.819523 148.992 
L 81.644127 146.304 
L 81.468192 143.616 
L 81.291715 140.928 
L 81.114689 138.24 
L 80.937111 135.552 
L 80.758974 132.864 
L 80.686545 131.772533 
L 80.587921 130.176 
L 80.421593 127.488 
L 80.254784 124.8 
L 80.087489 122.112 
L 79.919705 119.424 
L 79.751426 116.736 
L 79.582649 114.048 
L 79.413369 111.36 
L 79.243581 108.672 
L 79.073281 105.984 
L 78.902464 103.296 
L 78.731126 100.608 
L 78.559261 97.92 
L 78.386865 95.232 
L 78.213933 92.544 
L 78.04046 89.856 
L 77.86644 87.168 
L 77.800727 86.154212 
L 77.69977 84.48 
L 77.537393 81.792 
L 77.374547 79.104 
L 77.211228 76.416 
L 77.047432 73.728 
L 76.883153 71.04 
L 76.718388 68.352 
L 76.553133 65.664 
L 76.387382 62.976 
L 76.221132 60.288 
L 76.054378 57.6 
L 75.887115 54.912 
L 75.719339 52.224 
L 75.551045 49.536 
L 75.382228 46.848 
L 75.212884 44.16 
L 75.043007 41.472 
" style="fill:none;stroke:#00aaaa;stroke-width:1.5;"/>
    <path clip-path="url(#pc7ba8085a1)" d="M 325.855198 41.472 
L 325.685311 44.16 
L 325.515957 46.848 
L 325.34713 49.536 
L 325.178827 52.224 
L 325.011041 54.912 
L 324.843769 57.6 
L 324.677006 60.288 
L 324.510746 62.976 
L 324.344987 65.664 
L 324.179722 68.352 
L 324.014948 71.04 
L 323.85066 73.728 
L 323.686855 76.416 
L 323.523527 79.104 
L 323.360672 81.792 
L 323.198287 84.48 
L 323.095273 86.188288 
L 323.031767 87.168 
L 322.857738 89.856 
L 322.684255 92.544 
L 322.511313 95.232 
L 322.338907 97.92 
L 322.167033 100.608 
L 321.995685 103.296 
L 321.824858 105.984 
L 321.654549 108.672 
L 321.484752 111.36 
L 321.315462 114.048 
L 321.146676 116.736 
L 320.978388 119.424 
L 320.810595 122.112 
L 320.643291 124.8 
L 320.476473 127.488 
L 320.310136 130.176 
L 320.209455 131.805804 
L 320.139233 132.864 
L 319.961086 135.552 
L 319.783497 138.24 
L 319.606462 140.928 
L 319.429975 143.616 
L 319.25403 146.304 
L 319.078624 148.992 
L 318.903752 151.68 
L 318.729407 154.368 
L 318.555587 157.056 
L 318.382285 159.744 
L 318.209498 162.432 
L 318.03722 165.12 
L 317.865448 167.808 
L 317.694177 170.496 
L 317.523402 173.184 
L 317.353118 175.872 
L 317.323636 176.337594 
L 317.172569 178.56 
L 316.99033 181.248 
L 316.80866 183.936 
L 316.627553 186.624 
L 316.447005 189.312 
L 316.267011 192 
L 316.087565 194.688 
L 315.908662 197.376 
L 315.730298 200.064 
L 315.552468 202.752 
L 315.375166 205.44 
L 315.198389 208.128 
L 315.022132 210.816 
L 314.846389 213.504 
L 314.671157 216.192 
L 314.496431 218.88 
L 314.437818 219.782533 
L 314.313416 221.568 
L 314.126524 224.256 
L 313.940216 226.944 
L 313.754485 229.632 
L 313.569327 232.32 
L 313.384737 235.008 
L 313.200709 237.696 
L 313.017238 240.384 
L 312.83432 243.072 
L 312.651948 245.76 
L 312.47012 248.448 
L 312.288828 251.136 
L 312.108069 253.824 
L 311.927839 256.512 
L 311.748131 259.2 
L 311.568943 261.888 
L 311.552 262.142209 
L 311.378074 264.576 
L 311.186528 267.264 
L 310.995577 269.952 
L 310.805218 272.64 
L 310.615443 275.328 
L 310.426249 278.016 
L 310.23763 280.704 
L 310.04958 283.392 
L 309.862095 286.08 
L 309.675169 288.768 
L 309.488798 291.456 
L 309.302976 294.144 
L 309.117699 296.832 
L 308.932961 299.52 
L 308.748759 302.208 
L 308.666182 303.414533 
L 308.557515 304.896 
L 308.360695 307.584 
" style="fill:none;stroke:#00aaaa;stroke-width:1.5;"/>
   </g>
   <g id="LineCollection_5">
    <path clip-path="url(#pc7ba8085a1)" d="M 83.138785 307.584 
L 82.966968 304.896 
L 82.794714 302.208 
L 82.622019 299.52 
L 82.448879 296.832 
L 82.275291 294.144 
L 82.101252 291.456 
L 81.926758 288.768 
L 81.751806 286.08 
L 81.576391 283.392 
L 81.400511 280.704 
L 81.224161 278.016 
L 81.047338 275.328 
L 80.870037 272.64 
L 80.692256 269.952 
L 80.686545 269.865664 
L 80.525324 267.264 
L 80.358348 264.576 
L 80.19095 261.888 
L 80.023128 259.2 
L 79.854877 256.512 
L 79.686196 253.824 
L 79.51708 251.136 
L 79.347526 248.448 
L 79.17753 245.76 
L 79.007089 243.072 
L 78.836201 240.384 
L 78.66486 237.696 
L 78.493063 235.008 
L 78.320808 232.32 
L 78.148089 229.632 
L 77.974904 226.944 
L 77.801249 224.256 
L 77.800727 224.247925 
L 77.638602 221.568 
L 77.475582 218.88 
L 77.31215 216.192 
L 77.148305 213.504 
L 76.984042 210.816 
L 76.819358 208.128 
L 76.65425 205.44 
L 76.488715 202.752 
L 76.32275 200.064 
L 76.156351 197.376 
L 75.989514 194.688 
L 75.822236 192 
L 75.654514 189.312 
L 75.486344 186.624 
L 75.317723 183.936 
L 75.148647 181.248 
L 74.979112 178.56 
L 74.914909 177.543143 
L 74.816158 175.872 
L 74.657075 173.184 
L 74.497592 170.496 
L 74.337706 167.808 
L 74.177414 165.12 
L 74.016712 162.432 
L 73.855599 159.744 
L 73.694069 157.056 
L 73.532121 154.368 
L 73.36975 151.68 
L 73.206954 148.992 
L 73.043729 146.304 
L 72.880072 143.616 
L 72.715979 140.928 
L 72.551447 138.24 
L 72.386472 135.552 
L 72.221051 132.864 
L 72.055181 130.176 
L 72.029091 129.753405 
L 71.898268 127.488 
L 71.742714 124.8 
L 71.58677 122.112 
L 71.430431 119.424 
L 71.273695 116.736 
L 71.116559 114.048 
L 70.95902 111.36 
L 70.801075 108.672 
L 70.642719 105.984 
L 70.483951 103.296 
L 70.324767 100.608 
L 70.165163 97.92 
L 70.005136 95.232 
L 69.844684 92.544 
L 69.683802 89.856 
L 69.522487 87.168 
L 69.360736 84.48 
L 69.198545 81.792 
L 69.143273 80.876853 
L 69.04317 79.104 
L 68.891146 76.416 
L 68.738741 73.728 
L 68.585952 71.04 
L 68.432776 68.352 
L 68.279209 65.664 
L 68.125249 62.976 
L 67.970892 60.288 
L 67.816136 57.6 
L 67.660977 54.912 
L 67.505412 52.224 
L 67.349438 49.536 
L 67.193052 46.848 
L 67.036251 44.16 
L 66.879031 41.472 
" style="fill:none;stroke:#008eb8;stroke-width:1.5;"/>
    <path clip-path="url(#pc7ba8085a1)" d="M 334.018851 41.472 
L 333.861624 44.16 
L 333.704815 46.848 
L 333.548422 49.536 
L 333.392441 52.224 
L 333.23687 54.912 
L 333.081704 57.6 
L 332.926941 60.288 
L 332.772577 62.976 
L 332.61861 65.664 
L 332.465036 68.352 
L 332.311853 71.04 
L 332.159057 73.728 
L 332.006646 76.416 
L 331.854616 79.104 
L 331.752727 80.908447 
L 331.699362 81.792 
L 331.537164 84.48 
L 331.375406 87.168 
L 331.214083 89.856 
L 331.053194 92.544 
L 330.892734 95.232 
L 330.732701 97.92 
L 330.57309 100.608 
L 330.413898 103.296 
L 330.255123 105.984 
L 330.096761 108.672 
L 329.938808 111.36 
L 329.781262 114.048 
L 329.624119 116.736 
L 329.467376 119.424 
L 329.311031 122.112 
L 329.15508 124.8 
L 328.99952 127.488 
L 328.866909 129.78432 
L 328.842727 130.176 
L 328.676849 132.864 
L 328.511421 135.552 
L 328.346439 138.24 
L 328.181899 140.928 
L 328.017799 143.616 
L 327.854135 146.304 
L 327.690902 148.992 
L 327.528099 151.68 
L 327.365721 154.368 
L 327.203766 157.056 
L 327.042229 159.744 
L 326.881108 162.432 
L 326.7204 165.12 
L 326.560101 167.808 
L 326.400208 170.496 
L 326.240718 173.184 
L 326.081628 175.872 
L 325.981091 177.573346 
L 325.918794 178.56 
L 325.749252 181.248 
L 325.580168 183.936 
L 325.411539 186.624 
L 325.243362 189.312 
L 325.075632 192 
L 324.908347 194.688 
L 324.741503 197.376 
L 324.575096 200.064 
L 324.409123 202.752 
L 324.243581 205.44 
L 324.078467 208.128 
L 323.913776 210.816 
L 323.749506 213.504 
L 323.585653 216.192 
L 323.422215 218.88 
L 323.259187 221.568 
L 323.096568 224.256 
L 323.095273 224.277406 
L 322.922996 226.944 
L 322.749804 229.632 
L 322.577078 232.32 
L 322.404814 235.008 
L 322.23301 237.696 
L 322.061662 240.384 
L 321.890765 243.072 
L 321.720318 245.76 
L 321.550315 248.448 
L 321.380753 251.136 
L 321.21163 253.824 
L 321.042941 256.512 
L 320.874683 259.2 
L 320.706854 261.888 
L 320.539449 264.576 
L 320.372466 267.264 
L 320.209455 269.894504 
L 320.205651 269.952 
L 320.027862 272.64 
L 319.850554 275.328 
L 319.673723 278.016 
L 319.497366 280.704 
L 319.321477 283.392 
L 319.146055 286.08 
L 318.971095 288.768 
L 318.796593 291.456 
L 318.622547 294.144 
L 318.448952 296.832 
L 318.275805 299.52 
L 318.103102 302.208 
L 317.930841 304.896 
L 317.759017 307.584 
" style="fill:none;stroke:#008eb8;stroke-width:1.5;"/>
   </g>
   <g id="LineCollection_6">
    <path clip-path="url(#pc7ba8085a1)" d="M 75.441428 307.584 
L 75.272969 304.896 
L 75.104105 302.208 
L 74.934831 299.52 
L 74.914909 299.203747 
L 74.774441 296.832 
L 74.614927 294.144 
L 74.455052 291.456 
L 74.294815 288.768 
L 74.134212 286.08 
L 73.973241 283.392 
L 73.8119 280.704 
L 73.650185 278.016 
L 73.488094 275.328 
L 73.325625 272.64 
L 73.162775 269.952 
L 72.999541 267.264 
L 72.835921 264.576 
L 72.671912 261.888 
L 72.50751 259.2 
L 72.342714 256.512 
L 72.17752 253.824 
L 72.029091 251.414046 
L 72.012996 251.136 
L 71.857372 248.448 
L 71.701398 245.76 
L 71.545071 243.072 
L 71.388389 240.384 
L 71.23135 237.696 
L 71.073951 235.008 
L 70.916189 232.32 
L 70.758062 229.632 
L 70.599568 226.944 
L 70.440704 224.256 
L 70.281468 221.568 
L 70.121856 218.88 
L 69.961866 216.192 
L 69.801495 213.504 
L 69.640741 210.816 
L 69.479601 208.128 
L 69.318072 205.44 
L 69.156152 202.752 
L 69.143273 202.538247 
L 69.003235 200.064 
L 68.850785 197.376 
L 68.697991 194.688 
L 68.544851 192 
L 68.391362 189.312 
L 68.237522 186.624 
L 68.083328 183.936 
L 67.928778 181.248 
L 67.77387 178.56 
L 67.618601 175.872 
L 67.462968 173.184 
L 67.306969 170.496 
L 67.150601 167.808 
L 66.993862 165.12 
L 66.836749 162.432 
L 66.67926 159.744 
L 66.521391 157.056 
L 66.36314 154.368 
L 66.257455 152.575797 
L 66.207854 151.68 
L 66.058913 148.992 
L 65.909638 146.304 
L 65.760025 143.616 
L 65.610073 140.928 
L 65.459779 138.24 
L 65.309141 135.552 
L 65.158156 132.864 
L 65.006822 130.176 
L 64.855137 127.488 
L 64.703098 124.8 
L 64.550703 122.112 
L 64.397949 119.424 
L 64.244833 116.736 
L 64.091354 114.048 
L 63.937507 111.36 
L 63.783292 108.672 
L 63.628705 105.984 
L 63.473743 103.296 
L 63.371636 101.527682 
L 63.321797 100.608 
L 63.176024 97.92 
L 63.029923 95.232 
L 62.883493 92.544 
L 62.736731 89.856 
L 62.589634 87.168 
L 62.442201 84.48 
L 62.294429 81.792 
L 62.146316 79.104 
L 61.997859 76.416 
L 61.849056 73.728 
L 61.699905 71.04 
L 61.550403 68.352 
L 61.400547 65.664 
L 61.250336 62.976 
L 61.099766 60.288 
L 60.948835 57.6 
L 60.797541 54.912 
L 60.64588 52.224 
L 60.493851 49.536 
L 60.485818 49.394001 
L 60.350729 46.848 
L 60.207803 44.16 
L 60.064556 41.472 
" style="fill:none;stroke:#0071c6;stroke-width:1.5;"/>
    <path clip-path="url(#pc7ba8085a1)" d="M 340.833056 41.472 
L 340.689803 44.16 
L 340.546872 46.848 
L 340.410182 49.424142 
L 340.403854 49.536 
L 340.251819 52.224 
L 340.100152 54.912 
L 339.948852 57.6 
L 339.797916 60.288 
L 339.64734 62.976 
L 339.497123 65.664 
L 339.347261 68.352 
L 339.197753 71.04 
L 339.048596 73.728 
L 338.899788 76.416 
L 338.751326 79.104 
L 338.603207 81.792 
L 338.455429 84.48 
L 338.307991 87.168 
L 338.160889 89.856 
L 338.014121 92.544 
L 337.867685 95.232 
L 337.721579 97.92 
L 337.575801 100.608 
L 337.524364 101.55716 
L 337.423957 103.296 
L 337.26899 105.984 
L 337.114397 108.672 
L 336.960176 111.36 
L 336.806324 114.048 
L 336.652838 116.736 
L 336.499717 119.424 
L 336.346957 122.112 
L 336.194556 124.8 
L 336.042511 127.488 
L 335.89082 130.176 
L 335.739481 132.864 
L 335.588491 135.552 
L 335.437847 138.24 
L 335.287548 140.928 
L 335.13759 143.616 
L 334.987972 146.304 
L 334.83869 148.992 
L 334.689744 151.68 
L 334.638545 152.604654 
L 334.534561 154.368 
L 334.376304 157.056 
L 334.218429 159.744 
L 334.060933 162.432 
L 333.903814 165.12 
L 333.747069 167.808 
L 333.590696 170.496 
L 333.434691 173.184 
L 333.279052 175.872 
L 333.123777 178.56 
L 332.968863 181.248 
L 332.814308 183.936 
L 332.660108 186.624 
L 332.506263 189.312 
L 332.352768 192 
L 332.199622 194.688 
L 332.046823 197.376 
L 331.894367 200.064 
L 331.752727 202.566522 
L 331.741552 202.752 
L 331.579625 205.44 
L 331.41809 208.128 
L 331.256944 210.816 
L 331.096184 213.504 
L 330.935807 216.192 
L 330.775811 218.88 
L 330.616193 221.568 
L 330.456951 224.256 
L 330.298081 226.944 
L 330.139581 229.632 
L 329.981449 232.32 
L 329.823681 235.008 
L 329.666276 237.696 
L 329.509231 240.384 
L 329.352544 243.072 
L 329.196211 245.76 
L 329.040231 248.448 
L 328.884602 251.136 
L 328.866909 251.441646 
L 328.720178 253.824 
L 328.554978 256.512 
L 328.390176 259.2 
L 328.225768 261.888 
L 328.061752 264.576 
L 327.898126 267.264 
L 327.734886 269.952 
L 327.57203 272.64 
L 327.409555 275.328 
L 327.247458 278.016 
L 327.085738 280.704 
L 326.92439 283.392 
L 326.763414 286.08 
L 326.602805 288.768 
L 326.442562 291.456 
L 326.282682 294.144 
L 326.123162 296.832 
L 325.981091 299.230776 
L 325.962871 299.52 
L 325.793592 302.208 
L 325.62472 304.896 
L 325.456255 307.584 
" style="fill:none;stroke:#0071c6;stroke-width:1.5;"/>
   </g>
   <g id="LineCollection_7">
    <path clip-path="url(#pc7ba8085a1)" d="M 68.86279 307.584 
L 68.709808 304.896 
L 68.556509 302.208 
L 68.40289 299.52 
L 68.248951 296.832 
L 68.094688 294.144 
L 67.9401 291.456 
L 67.785184 288.768 
L 67.629939 286.08 
L 67.474362 283.392 
L 67.318451 280.704 
L 67.162205 278.016 
L 67.00562 275.328 
L 66.848695 272.64 
L 66.691428 269.952 
L 66.533816 267.264 
L 66.375857 264.576 
L 66.257455 262.564474 
L 66.219931 261.888 
L 66.070756 259.2 
L 65.921273 256.512 
L 65.771482 253.824 
L 65.62138 251.136 
L 65.470966 248.448 
L 65.320236 245.76 
L 65.16919 243.072 
L 65.017824 240.384 
L 64.866138 237.696 
L 64.714129 235.008 
L 64.561795 232.32 
L 64.409134 229.632 
L 64.256143 226.944 
L 64.102821 224.256 
L 63.949166 221.568 
L 63.795175 218.88 
L 63.640847 216.192 
L 63.486178 213.504 
L 63.371636 211.51664 
L 63.333598 210.816 
L 63.18759 208.128 
L 63.041281 205.44 
L 62.89467 202.752 
L 62.747756 200.064 
L 62.600535 197.376 
L 62.453007 194.688 
L 62.305168 192 
L 62.157018 189.312 
L 62.008554 186.624 
L 61.859775 183.936 
L 61.710677 181.248 
L 61.561259 178.56 
L 61.41152 175.872 
L 61.261457 173.184 
L 61.111067 170.496 
L 60.960349 167.808 
L 60.809301 165.12 
L 60.65792 162.432 
L 60.506205 159.744 
L 60.485818 159.382918 
L 60.362121 157.056 
L 60.218975 154.368 
L 60.075535 151.68 
L 59.931798 148.992 
L 59.787762 146.304 
L 59.643426 143.616 
L 59.498787 140.928 
L 59.353845 138.24 
L 59.208596 135.552 
L 59.063038 132.864 
L 58.917171 130.176 
L 58.770991 127.488 
L 58.624498 124.8 
L 58.477688 122.112 
L 58.33056 119.424 
L 58.183112 116.736 
L 58.035341 114.048 
L 57.887246 111.36 
L 57.738824 108.672 
L 57.6 106.163015 
" style="fill:none;stroke:#0055d4;stroke-width:1.5;"/>
    <path clip-path="url(#pc7ba8085a1)" d="M 343.296 106.191042 
L 343.158725 108.672 
L 343.010299 111.36 
L 342.862199 114.048 
L 342.714423 116.736 
L 342.56697 119.424 
L 342.419837 122.112 
L 342.273022 124.8 
L 342.126524 127.488 
L 341.980339 130.176 
L 341.834467 132.864 
L 341.688905 135.552 
L 341.543651 138.24 
L 341.398704 140.928 
L 341.254061 143.616 
L 341.10972 146.304 
L 340.96568 148.992 
L 340.821938 151.68 
L 340.678493 154.368 
L 340.535343 157.056 
L 340.410182 159.410425 
L 340.391348 159.744 
L 340.239627 162.432 
L 340.088242 165.12 
L 339.937189 167.808 
L 339.786466 170.496 
L 339.636071 173.184 
L 339.486003 175.872 
L 339.336259 178.56 
L 339.186836 181.248 
L 339.037734 183.936 
L 338.888949 186.624 
L 338.74048 189.312 
L 338.592326 192 
L 338.444482 194.688 
L 338.296949 197.376 
L 338.149724 200.064 
L 338.002805 202.752 
L 337.856189 205.44 
L 337.709876 208.128 
L 337.563863 210.816 
L 337.524364 211.543545 
L 337.411371 213.504 
L 337.256698 216.192 
L 337.102364 218.88 
L 336.948368 221.568 
L 336.794708 224.256 
L 336.641381 226.944 
L 336.488386 229.632 
L 336.335719 232.32 
L 336.18338 235.008 
L 336.031366 237.696 
L 335.879675 240.384 
L 335.728305 243.072 
L 335.577254 245.76 
L 335.426519 248.448 
L 335.2761 251.136 
L 335.125993 253.824 
L 334.976197 256.512 
L 334.826711 259.2 
L 334.677531 261.888 
L 334.638545 262.590813 
L 334.521692 264.576 
L 334.363728 267.264 
L 334.20611 269.952 
L 334.048838 272.64 
L 333.891908 275.328 
L 333.735319 278.016 
L 333.579067 280.704 
L 333.423151 283.392 
L 333.26757 286.08 
L 333.112319 288.768 
L 332.957399 291.456 
L 332.802806 294.144 
L 332.648538 296.832 
L 332.494594 299.52 
L 332.34097 302.208 
L 332.187666 304.896 
L 332.03468 307.584 
" style="fill:none;stroke:#0055d4;stroke-width:1.5;"/>
   </g>
   <g id="LineCollection_8">
    <path clip-path="url(#pc7ba8085a1)" d="M 63.095365 307.584 
L 62.948698 304.896 
L 62.801749 302.208 
L 62.654516 299.52 
L 62.506999 296.832 
L 62.359195 294.144 
L 62.211102 291.456 
L 62.06272 288.768 
L 61.914045 286.08 
L 61.765077 283.392 
L 61.615814 280.704 
L 61.466253 278.016 
L 61.316394 275.328 
L 61.166234 272.64 
L 61.015772 269.952 
L 60.865006 267.264 
L 60.713933 264.576 
L 60.562553 261.888 
L 60.485818 260.526887 
L 60.415177 259.2 
L 60.271942 256.512 
L 60.128433 253.824 
L 59.984649 251.136 
L 59.840588 248.448 
L 59.696249 245.76 
L 59.551631 243.072 
L 59.40673 240.384 
L 59.261547 237.696 
L 59.116079 235.008 
L 58.970324 232.32 
L 58.824281 229.632 
L 58.677948 226.944 
L 58.531323 224.256 
L 58.384405 221.568 
L 58.237191 218.88 
L 58.089681 216.192 
L 57.941872 213.504 
L 57.793762 210.816 
L 57.64535 208.128 
L 57.6 207.307158 
" style="fill:none;stroke:#0038e3;stroke-width:1.5;"/>
    <path clip-path="url(#pc7ba8085a1)" d="M 343.296 207.333139 
L 343.252085 208.128 
L 343.103668 210.816 
L 342.955554 213.504 
L 342.807741 216.192 
L 342.660226 218.88 
L 342.513009 221.568 
L 342.366086 224.256 
L 342.219457 226.944 
L 342.07312 229.632 
L 341.927073 232.32 
L 341.781314 235.008 
L 341.635841 237.696 
L 341.490653 240.384 
L 341.345749 243.072 
L 341.201126 245.76 
L 341.056783 248.448 
L 340.912719 251.136 
L 340.768931 253.824 
L 340.625418 256.512 
L 340.482178 259.2 
L 340.410182 260.552333 
L 340.334881 261.888 
L 340.183496 264.576 
L 340.032419 267.264 
L 339.881648 269.952 
L 339.731182 272.64 
L 339.581018 275.328 
L 339.431154 278.016 
L 339.281589 280.704 
L 339.132322 283.392 
L 338.98335 286.08 
L 338.834671 288.768 
L 338.686284 291.456 
L 338.538187 294.144 
L 338.390379 296.832 
L 338.242857 299.52 
L 338.095621 302.208 
L 337.948668 304.896 
L 337.801997 307.584 
" style="fill:none;stroke:#0038e3;stroke-width:1.5;"/>
   </g>
   <g id="LineCollection_9">
    <path clip-path="url(#pc7ba8085a1)" d="M 57.938065 307.584 
L 57.790102 304.896 
L 57.641857 302.208 
L 57.6 301.449463 
" style="fill:none;stroke:#001cf1;stroke-width:1.5;"/>
    <path clip-path="url(#pc7ba8085a1)" d="M 343.296 301.473767 
L 343.255483 302.208 
L 343.107235 304.896 
L 342.959268 307.584 
" style="fill:none;stroke:#001cf1;stroke-width:1.5;"/>
   </g>
   <g id="LineCollection_10"/>
   <g id="patch_3">
    <path d="M 57.6 307.584 
L 57.6 41.472 
" style="fill:none;stroke:#000000;stroke-linecap:square;stroke-linejoin:miter;stroke-width:0.8;"/>
   </g>
   <g id="patch_4">
    <path d="M 343.296 307.584 
L 343.296 41.472 
" style="fill:none;stroke:#000000;stroke-linecap:square;stroke-linejoin:miter;stroke-width:0.8;"/>
   </g>
   <g id="patch_5">
    <path d="M 57.6 307.584 
L 343.296 307.584 
" style="fill:none;stroke:#000000;stroke-linecap:square;stroke-linejoin:miter;stroke-width:0.8;"/>
   </g>
   <g id="patch_6">
    <path d="M 57.6 41.472 
L 343.296 41.472 
" style="fill:none;stroke:#000000;stroke-linecap:square;stroke-linejoin:miter;stroke-width:0.8;"/>
   </g>
  </g>
  <g id="axes_2">
   <g id="patch_7">
    <path clip-path="url(#p9d1b051413)" d="M 361.152 307.584 
L 361.152 278.016 
L 361.152 71.04 
L 361.152 41.472 
L 374.4576 41.472 
L 374.4576 71.04 
L 374.4576 278.016 
L 374.4576 307.584 
z
" style="fill:#ffffff;stroke:#ffffff;stroke-linejoin:miter;stroke-width:0.01;"/>
   </g>
   <g id="matplotlib.axis_3"/>
   <g id="matplotlib.axis_4">
    <g id="ytick_10">
     <g id="line2d_19">
      <defs>
       <path d="M 0 0 
L 3.5 0 
" id="mf1135c2e71" style="stroke:#000000;stroke-width:0.8;"/>
      </defs>
      <g>
       <use style="stroke:#000000;stroke-width:0.8;" x="374.4576" xlink:href="#mf1135c2e71" y="307.584"/>
      </g>
     </g>
     <g id="text_19">
      <!-- 0.00 -->
      <g transform="translate(381.4576 311.383219)scale(0.1 -0.1)">
       <use xlink:href="#DejaVuSans-48"/>
       <use x="63.623047" xlink:href="#DejaVuSans-46"/>
       <use x="95.410156" xlink:href="#DejaVuSans-48"/>
       <use x="159.033203" xlink:href="#DejaVuSans-48"/>
      </g>
     </g>
    </g>
    <g id="ytick_11">
     <g id="line2d_20">
      <g>
       <use style="stroke:#000000;stroke-width:0.8;" x="374.4576" xlink:href="#mf1135c2e71" y="278.016"/>
      </g>
     </g>
     <g id="text_20">
      <!-- 0.15 -->
      <g transform="translate(381.4576 281.815219)scale(0.1 -0.1)">
       <use xlink:href="#DejaVuSans-48"/>
       <use x="63.623047" xlink:href="#DejaVuSans-46"/>
       <use x="95.410156" xlink:href="#DejaVuSans-49"/>
       <use x="159.033203" xlink:href="#DejaVuSans-53"/>
      </g>
     </g>
    </g>
    <g id="ytick_12">
     <g id="line2d_21">
      <g>
       <use style="stroke:#000000;stroke-width:0.8;" x="374.4576" xlink:href="#mf1135c2e71" y="248.448"/>
      </g>
     </g>
     <g id="text_21">
      <!-- 0.30 -->
      <defs>
       <path d="M 40.578125 39.3125 
Q 47.65625 37.796875 51.625 33 
Q 55.609375 28.21875 55.609375 21.1875 
Q 55.609375 10.40625 48.1875 4.484375 
Q 40.765625 -1.421875 27.09375 -1.421875 
Q 22.515625 -1.421875 17.65625 -0.515625 
Q 12.796875 0.390625 7.625 2.203125 
L 7.625 11.71875 
Q 11.71875 9.328125 16.59375 8.109375 
Q 21.484375 6.890625 26.8125 6.890625 
Q 36.078125 6.890625 40.9375 10.546875 
Q 45.796875 14.203125 45.796875 21.1875 
Q 45.796875 27.640625 41.28125 31.265625 
Q 36.765625 34.90625 28.71875 34.90625 
L 20.21875 34.90625 
L 20.21875 43.015625 
L 29.109375 43.015625 
Q 36.375 43.015625 40.234375 45.921875 
Q 44.09375 48.828125 44.09375 54.296875 
Q 44.09375 59.90625 40.109375 62.90625 
Q 36.140625 65.921875 28.71875 65.921875 
Q 24.65625 65.921875 20.015625 65.03125 
Q 15.375 64.15625 9.8125 62.3125 
L 9.8125 71.09375 
Q 15.4375 72.65625 20.34375 73.4375 
Q 25.25 74.21875 29.59375 74.21875 
Q 40.828125 74.21875 47.359375 69.109375 
Q 53.90625 64.015625 53.90625 55.328125 
Q 53.90625 49.265625 50.4375 45.09375 
Q 46.96875 40.921875 40.578125 39.3125 
z
" id="DejaVuSans-51"/>
      </defs>
      <g transform="translate(381.4576 252.247219)scale(0.1 -0.1)">
       <use xlink:href="#DejaVuSans-48"/>
       <use x="63.623047" xlink:href="#DejaVuSans-46"/>
       <use x="95.410156" xlink:href="#DejaVuSans-51"/>
       <use x="159.033203" xlink:href="#DejaVuSans-48"/>
      </g>
     </g>
    </g>
    <g id="ytick_13">
     <g id="line2d_22">
      <g>
       <use style="stroke:#000000;stroke-width:0.8;" x="374.4576" xlink:href="#mf1135c2e71" y="218.88"/>
      </g>
     </g>
     <g id="text_22">
      <!-- 0.45 -->
      <defs>
       <path d="M 37.796875 64.3125 
L 12.890625 25.390625 
L 37.796875 25.390625 
z
M 35.203125 72.90625 
L 47.609375 72.90625 
L 47.609375 25.390625 
L 58.015625 25.390625 
L 58.015625 17.1875 
L 47.609375 17.1875 
L 47.609375 0 
L 37.796875 0 
L 37.796875 17.1875 
L 4.890625 17.1875 
L 4.890625 26.703125 
z
" id="DejaVuSans-52"/>
      </defs>
      <g transform="translate(381.4576 222.679219)scale(0.1 -0.1)">
       <use xlink:href="#DejaVuSans-48"/>
       <use x="63.623047" xlink:href="#DejaVuSans-46"/>
       <use x="95.410156" xlink:href="#DejaVuSans-52"/>
       <use x="159.033203" xlink:href="#DejaVuSans-53"/>
      </g>
     </g>
    </g>
    <g id="ytick_14">
     <g id="line2d_23">
      <g>
       <use style="stroke:#000000;stroke-width:0.8;" x="374.4576" xlink:href="#mf1135c2e71" y="189.312"/>
      </g>
     </g>
     <g id="text_23">
      <!-- 0.60 -->
      <defs>
       <path d="M 33.015625 40.375 
Q 26.375 40.375 22.484375 35.828125 
Q 18.609375 31.296875 18.609375 23.390625 
Q 18.609375 15.53125 22.484375 10.953125 
Q 26.375 6.390625 33.015625 6.390625 
Q 39.65625 6.390625 43.53125 10.953125 
Q 47.40625 15.53125 47.40625 23.390625 
Q 47.40625 31.296875 43.53125 35.828125 
Q 39.65625 40.375 33.015625 40.375 
z
M 52.59375 71.296875 
L 52.59375 62.3125 
Q 48.875 64.0625 45.09375 64.984375 
Q 41.3125 65.921875 37.59375 65.921875 
Q 27.828125 65.921875 22.671875 59.328125 
Q 17.53125 52.734375 16.796875 39.40625 
Q 19.671875 43.65625 24.015625 45.921875 
Q 28.375 48.1875 33.59375 48.1875 
Q 44.578125 48.1875 50.953125 41.515625 
Q 57.328125 34.859375 57.328125 23.390625 
Q 57.328125 12.15625 50.6875 5.359375 
Q 44.046875 -1.421875 33.015625 -1.421875 
Q 20.359375 -1.421875 13.671875 8.265625 
Q 6.984375 17.96875 6.984375 36.375 
Q 6.984375 53.65625 15.1875 63.9375 
Q 23.390625 74.21875 37.203125 74.21875 
Q 40.921875 74.21875 44.703125 73.484375 
Q 48.484375 72.75 52.59375 71.296875 
z
" id="DejaVuSans-54"/>
      </defs>
      <g transform="translate(381.4576 193.111219)scale(0.1 -0.1)">
       <use xlink:href="#DejaVuSans-48"/>
       <use x="63.623047" xlink:href="#DejaVuSans-46"/>
       <use x="95.410156" xlink:href="#DejaVuSans-54"/>
       <use x="159.033203" xlink:href="#DejaVuSans-48"/>
      </g>
     </g>
    </g>
    <g id="ytick_15">
     <g id="line2d_24">
      <g>
       <use style="stroke:#000000;stroke-width:0.8;" x="374.4576" xlink:href="#mf1135c2e71" y="159.744"/>
      </g>
     </g>
     <g id="text_24">
      <!-- 0.75 -->
      <g transform="translate(381.4576 163.543219)scale(0.1 -0.1)">
       <use xlink:href="#DejaVuSans-48"/>
       <use x="63.623047" xlink:href="#DejaVuSans-46"/>
       <use x="95.410156" xlink:href="#DejaVuSans-55"/>
       <use x="159.033203" xlink:href="#DejaVuSans-53"/>
      </g>
     </g>
    </g>
    <g id="ytick_16">
     <g id="line2d_25">
      <g>
       <use style="stroke:#000000;stroke-width:0.8;" x="374.4576" xlink:href="#mf1135c2e71" y="130.176"/>
      </g>
     </g>
     <g id="text_25">
      <!-- 0.90 -->
      <defs>
       <path d="M 10.984375 1.515625 
L 10.984375 10.5 
Q 14.703125 8.734375 18.5 7.8125 
Q 22.3125 6.890625 25.984375 6.890625 
Q 35.75 6.890625 40.890625 13.453125 
Q 46.046875 20.015625 46.78125 33.40625 
Q 43.953125 29.203125 39.59375 26.953125 
Q 35.25 24.703125 29.984375 24.703125 
Q 19.046875 24.703125 12.671875 31.3125 
Q 6.296875 37.9375 6.296875 49.421875 
Q 6.296875 60.640625 12.9375 67.421875 
Q 19.578125 74.21875 30.609375 74.21875 
Q 43.265625 74.21875 49.921875 64.515625 
Q 56.59375 54.828125 56.59375 36.375 
Q 56.59375 19.140625 48.40625 8.859375 
Q 40.234375 -1.421875 26.421875 -1.421875 
Q 22.703125 -1.421875 18.890625 -0.6875 
Q 15.09375 0.046875 10.984375 1.515625 
z
M 30.609375 32.421875 
Q 37.25 32.421875 41.125 36.953125 
Q 45.015625 41.5 45.015625 49.421875 
Q 45.015625 57.28125 41.125 61.84375 
Q 37.25 66.40625 30.609375 66.40625 
Q 23.96875 66.40625 20.09375 61.84375 
Q 16.21875 57.28125 16.21875 49.421875 
Q 16.21875 41.5 20.09375 36.953125 
Q 23.96875 32.421875 30.609375 32.421875 
z
" id="DejaVuSans-57"/>
      </defs>
      <g transform="translate(381.4576 133.975219)scale(0.1 -0.1)">
       <use xlink:href="#DejaVuSans-48"/>
       <use x="63.623047" xlink:href="#DejaVuSans-46"/>
       <use x="95.410156" xlink:href="#DejaVuSans-57"/>
       <use x="159.033203" xlink:href="#DejaVuSans-48"/>
      </g>
     </g>
    </g>
    <g id="ytick_17">
     <g id="line2d_26">
      <g>
       <use style="stroke:#000000;stroke-width:0.8;" x="374.4576" xlink:href="#mf1135c2e71" y="100.608"/>
      </g>
     </g>
     <g id="text_26">
      <!-- 1.05 -->
      <g transform="translate(381.4576 104.407219)scale(0.1 -0.1)">
       <use xlink:href="#DejaVuSans-49"/>
       <use x="63.623047" xlink:href="#DejaVuSans-46"/>
       <use x="95.410156" xlink:href="#DejaVuSans-48"/>
       <use x="159.033203" xlink:href="#DejaVuSans-53"/>
      </g>
     </g>
    </g>
    <g id="ytick_18">
     <g id="line2d_27">
      <g>
       <use style="stroke:#000000;stroke-width:0.8;" x="374.4576" xlink:href="#mf1135c2e71" y="71.04"/>
      </g>
     </g>
     <g id="text_27">
      <!-- 1.20 -->
      <g transform="translate(381.4576 74.839219)scale(0.1 -0.1)">
       <use xlink:href="#DejaVuSans-49"/>
       <use x="63.623047" xlink:href="#DejaVuSans-46"/>
       <use x="95.410156" xlink:href="#DejaVuSans-50"/>
       <use x="159.033203" xlink:href="#DejaVuSans-48"/>
      </g>
     </g>
    </g>
    <g id="ytick_19">
     <g id="line2d_28">
      <g>
       <use style="stroke:#000000;stroke-width:0.8;" x="374.4576" xlink:href="#mf1135c2e71" y="41.472"/>
      </g>
     </g>
     <g id="text_28">
      <!-- 1.35 -->
      <g transform="translate(381.4576 45.271219)scale(0.1 -0.1)">
       <use xlink:href="#DejaVuSans-49"/>
       <use x="63.623047" xlink:href="#DejaVuSans-46"/>
       <use x="95.410156" xlink:href="#DejaVuSans-51"/>
       <use x="159.033203" xlink:href="#DejaVuSans-53"/>
      </g>
     </g>
    </g>
    <g id="text_29">
     <!-- 1e6 -->
     <defs>
      <path d="M 56.203125 29.59375 
L 56.203125 25.203125 
L 14.890625 25.203125 
Q 15.484375 15.921875 20.484375 11.0625 
Q 25.484375 6.203125 34.421875 6.203125 
Q 39.59375 6.203125 44.453125 7.46875 
Q 49.3125 8.734375 54.109375 11.28125 
L 54.109375 2.78125 
Q 49.265625 0.734375 44.1875 -0.34375 
Q 39.109375 -1.421875 33.890625 -1.421875 
Q 20.796875 -1.421875 13.15625 6.1875 
Q 5.515625 13.8125 5.515625 26.8125 
Q 5.515625 40.234375 12.765625 48.109375 
Q 20.015625 56 32.328125 56 
Q 43.359375 56 49.78125 48.890625 
Q 56.203125 41.796875 56.203125 29.59375 
z
M 47.21875 32.234375 
Q 47.125 39.59375 43.09375 43.984375 
Q 39.0625 48.390625 32.421875 48.390625 
Q 24.90625 48.390625 20.390625 44.140625 
Q 15.875 39.890625 15.1875 32.171875 
z
" id="DejaVuSans-101"/>
     </defs>
     <g transform="translate(355.579475 38.472)scale(0.1 -0.1)">
      <use xlink:href="#DejaVuSans-49"/>
      <use x="63.623047" xlink:href="#DejaVuSans-101"/>
      <use x="125.146484" xlink:href="#DejaVuSans-54"/>
     </g>
    </g>
   </g>
   <g id="LineCollection_11">
    <path clip-path="url(#p9d1b051413)" d="M 361.152 307.584 
L 374.4576 307.584 
" style="fill:none;stroke:#00ff80;stroke-width:1.5;"/>
    <path clip-path="url(#p9d1b051413)" d="M 361.152 278.016 
L 374.4576 278.016 
" style="fill:none;stroke:#00e38e;stroke-width:1.5;"/>
    <path clip-path="url(#p9d1b051413)" d="M 361.152 248.448 
L 374.4576 248.448 
" style="fill:none;stroke:#00c79c;stroke-width:1.5;"/>
    <path clip-path="url(#p9d1b051413)" d="M 361.152 218.88 
L 374.4576 218.88 
" style="fill:none;stroke:#00aaaa;stroke-width:1.5;"/>
    <path clip-path="url(#p9d1b051413)" d="M 361.152 189.312 
L 374.4576 189.312 
" style="fill:none;stroke:#008eb8;stroke-width:1.5;"/>
    <path clip-path="url(#p9d1b051413)" d="M 361.152 159.744 
L 374.4576 159.744 
" style="fill:none;stroke:#0071c6;stroke-width:1.5;"/>
    <path clip-path="url(#p9d1b051413)" d="M 361.152 130.176 
L 374.4576 130.176 
" style="fill:none;stroke:#0055d4;stroke-width:1.5;"/>
    <path clip-path="url(#p9d1b051413)" d="M 361.152 100.608 
L 374.4576 100.608 
" style="fill:none;stroke:#0038e3;stroke-width:1.5;"/>
    <path clip-path="url(#p9d1b051413)" d="M 361.152 71.04 
L 374.4576 71.04 
" style="fill:none;stroke:#001cf1;stroke-width:1.5;"/>
    <path clip-path="url(#p9d1b051413)" d="M 361.152 41.472 
L 374.4576 41.472 
" style="fill:none;stroke:#0000ff;stroke-width:1.5;"/>
   </g>
   <g id="patch_8">
    <path d="M 361.152 307.584 
L 361.152 278.016 
L 361.152 71.04 
L 361.152 41.472 
L 374.4576 41.472 
L 374.4576 71.04 
L 374.4576 278.016 
L 374.4576 307.584 
z
" style="fill:none;stroke:#000000;stroke-linejoin:miter;stroke-width:0.8;"/>
   </g>
  </g>
 </g>
 <defs>
  <clipPath id="pc7ba8085a1">
   <rect height="266.112" width="285.696" x="57.6" y="41.472"/>
  </clipPath>
  <clipPath id="p9d1b051413">
   <rect height="266.112" width="13.3056" x="361.152" y="41.472"/>
  </clipPath>
 </defs>
</svg>
