<?xml version="1.0" encoding="utf-8" standalone="no"?>
<!DOCTYPE svg PUBLIC "-//W3C//DTD SVG 1.1//EN"
  "http://www.w3.org/Graphics/SVG/1.1/DTD/svg11.dtd">
<!-- Created with matplotlib (https://matplotlib.org/) -->
<svg height="345.6pt" version="1.1" viewBox="0 0 460.8 345.6" width="460.8pt" xmlns="http://www.w3.org/2000/svg" xmlns:xlink="http://www.w3.org/1999/xlink">
 <defs>
  <style type="text/css">
*{stroke-linecap:butt;stroke-linejoin:round;}
  </style>
 </defs>
 <g id="figure_1">
  <g id="patch_1">
   <path d="M 0 345.6 
L 460.8 345.6 
L 460.8 0 
L 0 0 
z
" style="fill:#ffffff;"/>
  </g>
  <g id="axes_1">
   <g id="patch_2">
    <path d="M 57.6 307.584 
L 343.296 307.584 
L 343.296 41.472 
L 57.6 41.472 
z
" style="fill:#ffffff;"/>
   </g>
   <g id="matplotlib.axis_1">
    <g id="xtick_1">
     <g id="line2d_1">
      <defs>
       <path d="M 0 0 
L 0 3.5 
" id="m07ffa203ce" style="stroke:#000000;stroke-width:0.8;"/>
      </defs>
      <g>
       <use style="stroke:#000000;stroke-width:0.8;" x="57.6" xlink:href="#m07ffa203ce" y="307.584"/>
      </g>
     </g>
     <g id="text_1">
      <!-- −10.0 -->
      <defs>
       <path d="M 10.59375 35.5 
L 73.1875 35.5 
L 73.1875 27.203125 
L 10.59375 27.203125 
z
" id="DejaVuSans-8722"/>
       <path d="M 12.40625 8.296875 
L 28.515625 8.296875 
L 28.515625 63.921875 
L 10.984375 60.40625 
L 10.984375 69.390625 
L 28.421875 72.90625 
L 38.28125 72.90625 
L 38.28125 8.296875 
L 54.390625 8.296875 
L 54.390625 0 
L 12.40625 0 
z
" id="DejaVuSans-49"/>
       <path d="M 31.78125 66.40625 
Q 24.171875 66.40625 20.328125 58.90625 
Q 16.5 51.421875 16.5 36.375 
Q 16.5 21.390625 20.328125 13.890625 
Q 24.171875 6.390625 31.78125 6.390625 
Q 39.453125 6.390625 43.28125 13.890625 
Q 47.125 21.390625 47.125 36.375 
Q 47.125 51.421875 43.28125 58.90625 
Q 39.453125 66.40625 31.78125 66.40625 
z
M 31.78125 74.21875 
Q 44.046875 74.21875 50.515625 64.515625 
Q 56.984375 54.828125 56.984375 36.375 
Q 56.984375 17.96875 50.515625 8.265625 
Q 44.046875 -1.421875 31.78125 -1.421875 
Q 19.53125 -1.421875 13.0625 8.265625 
Q 6.59375 17.96875 6.59375 36.375 
Q 6.59375 54.828125 13.0625 64.515625 
Q 19.53125 74.21875 31.78125 74.21875 
z
" id="DejaVuSans-48"/>
       <path d="M 10.6875 12.40625 
L 21 12.40625 
L 21 0 
L 10.6875 0 
z
" id="DejaVuSans-46"/>
      </defs>
      <g transform="translate(42.277344 322.182437)scale(0.1 -0.1)">
       <use xlink:href="#DejaVuSans-8722"/>
       <use x="83.789062" xlink:href="#DejaVuSans-49"/>
       <use x="147.412109" xlink:href="#DejaVuSans-48"/>
       <use x="211.035156" xlink:href="#DejaVuSans-46"/>
       <use x="242.822266" xlink:href="#DejaVuSans-48"/>
      </g>
     </g>
    </g>
    <g id="xtick_2">
     <g id="line2d_2">
      <g>
       <use style="stroke:#000000;stroke-width:0.8;" x="93.312" xlink:href="#m07ffa203ce" y="307.584"/>
      </g>
     </g>
     <g id="text_2">
      <!-- −7.5 -->
      <defs>
       <path d="M 8.203125 72.90625 
L 55.078125 72.90625 
L 55.078125 68.703125 
L 28.609375 0 
L 18.3125 0 
L 43.21875 64.59375 
L 8.203125 64.59375 
z
" id="DejaVuSans-55"/>
       <path d="M 10.796875 72.90625 
L 49.515625 72.90625 
L 49.515625 64.59375 
L 19.828125 64.59375 
L 19.828125 46.734375 
Q 21.96875 47.46875 24.109375 47.828125 
Q 26.265625 48.1875 28.421875 48.1875 
Q 40.625 48.1875 47.75 41.5 
Q 54.890625 34.8125 54.890625 23.390625 
Q 54.890625 11.625 47.5625 5.09375 
Q 40.234375 -1.421875 26.90625 -1.421875 
Q 22.3125 -1.421875 17.546875 -0.640625 
Q 12.796875 0.140625 7.71875 1.703125 
L 7.71875 11.625 
Q 12.109375 9.234375 16.796875 8.0625 
Q 21.484375 6.890625 26.703125 6.890625 
Q 35.15625 6.890625 40.078125 11.328125 
Q 45.015625 15.765625 45.015625 23.390625 
Q 45.015625 31 40.078125 35.4375 
Q 35.15625 39.890625 26.703125 39.890625 
Q 22.75 39.890625 18.8125 39.015625 
Q 14.890625 38.140625 10.796875 36.28125 
z
" id="DejaVuSans-53"/>
      </defs>
      <g transform="translate(81.170594 322.182437)scale(0.1 -0.1)">
       <use xlink:href="#DejaVuSans-8722"/>
       <use x="83.789062" xlink:href="#DejaVuSans-55"/>
       <use x="147.412109" xlink:href="#DejaVuSans-46"/>
       <use x="179.199219" xlink:href="#DejaVuSans-53"/>
      </g>
     </g>
    </g>
    <g id="xtick_3">
     <g id="line2d_3">
      <g>
       <use style="stroke:#000000;stroke-width:0.8;" x="129.024" xlink:href="#m07ffa203ce" y="307.584"/>
      </g>
     </g>
     <g id="text_3">
      <!-- −5.0 -->
      <g transform="translate(116.882594 322.182437)scale(0.1 -0.1)">
       <use xlink:href="#DejaVuSans-8722"/>
       <use x="83.789062" xlink:href="#DejaVuSans-53"/>
       <use x="147.412109" xlink:href="#DejaVuSans-46"/>
       <use x="179.199219" xlink:href="#DejaVuSans-48"/>
      </g>
     </g>
    </g>
    <g id="xtick_4">
     <g id="line2d_4">
      <g>
       <use style="stroke:#000000;stroke-width:0.8;" x="164.736" xlink:href="#m07ffa203ce" y="307.584"/>
      </g>
     </g>
     <g id="text_4">
      <!-- −2.5 -->
      <defs>
       <path d="M 19.1875 8.296875 
L 53.609375 8.296875 
L 53.609375 0 
L 7.328125 0 
L 7.328125 8.296875 
Q 12.9375 14.109375 22.625 23.890625 
Q 32.328125 33.6875 34.8125 36.53125 
Q 39.546875 41.84375 41.421875 45.53125 
Q 43.3125 49.21875 43.3125 52.78125 
Q 43.3125 58.59375 39.234375 62.25 
Q 35.15625 65.921875 28.609375 65.921875 
Q 23.96875 65.921875 18.8125 64.3125 
Q 13.671875 62.703125 7.8125 59.421875 
L 7.8125 69.390625 
Q 13.765625 71.78125 18.9375 73 
Q 24.125 74.21875 28.421875 74.21875 
Q 39.75 74.21875 46.484375 68.546875 
Q 53.21875 62.890625 53.21875 53.421875 
Q 53.21875 48.921875 51.53125 44.890625 
Q 49.859375 40.875 45.40625 35.40625 
Q 44.1875 33.984375 37.640625 27.21875 
Q 31.109375 20.453125 19.1875 8.296875 
z
" id="DejaVuSans-50"/>
      </defs>
      <g transform="translate(152.594594 322.182437)scale(0.1 -0.1)">
       <use xlink:href="#DejaVuSans-8722"/>
       <use x="83.789062" xlink:href="#DejaVuSans-50"/>
       <use x="147.412109" xlink:href="#DejaVuSans-46"/>
       <use x="179.199219" xlink:href="#DejaVuSans-53"/>
      </g>
     </g>
    </g>
    <g id="xtick_5">
     <g id="line2d_5">
      <g>
       <use style="stroke:#000000;stroke-width:0.8;" x="200.448" xlink:href="#m07ffa203ce" y="307.584"/>
      </g>
     </g>
     <g id="text_5">
      <!-- 0.0 -->
      <g transform="translate(192.496438 322.182437)scale(0.1 -0.1)">
       <use xlink:href="#DejaVuSans-48"/>
       <use x="63.623047" xlink:href="#DejaVuSans-46"/>
       <use x="95.410156" xlink:href="#DejaVuSans-48"/>
      </g>
     </g>
    </g>
    <g id="xtick_6">
     <g id="line2d_6">
      <g>
       <use style="stroke:#000000;stroke-width:0.8;" x="236.16" xlink:href="#m07ffa203ce" y="307.584"/>
      </g>
     </g>
     <g id="text_6">
      <!-- 2.5 -->
      <g transform="translate(228.208438 322.182437)scale(0.1 -0.1)">
       <use xlink:href="#DejaVuSans-50"/>
       <use x="63.623047" xlink:href="#DejaVuSans-46"/>
       <use x="95.410156" xlink:href="#DejaVuSans-53"/>
      </g>
     </g>
    </g>
    <g id="xtick_7">
     <g id="line2d_7">
      <g>
       <use style="stroke:#000000;stroke-width:0.8;" x="271.872" xlink:href="#m07ffa203ce" y="307.584"/>
      </g>
     </g>
     <g id="text_7">
      <!-- 5.0 -->
      <g transform="translate(263.920437 322.182437)scale(0.1 -0.1)">
       <use xlink:href="#DejaVuSans-53"/>
       <use x="63.623047" xlink:href="#DejaVuSans-46"/>
       <use x="95.410156" xlink:href="#DejaVuSans-48"/>
      </g>
     </g>
    </g>
    <g id="xtick_8">
     <g id="line2d_8">
      <g>
       <use style="stroke:#000000;stroke-width:0.8;" x="307.584" xlink:href="#m07ffa203ce" y="307.584"/>
      </g>
     </g>
     <g id="text_8">
      <!-- 7.5 -->
      <g transform="translate(299.632438 322.182437)scale(0.1 -0.1)">
       <use xlink:href="#DejaVuSans-55"/>
       <use x="63.623047" xlink:href="#DejaVuSans-46"/>
       <use x="95.410156" xlink:href="#DejaVuSans-53"/>
      </g>
     </g>
    </g>
    <g id="xtick_9">
     <g id="line2d_9">
      <g>
       <use style="stroke:#000000;stroke-width:0.8;" x="343.296" xlink:href="#m07ffa203ce" y="307.584"/>
      </g>
     </g>
     <g id="text_9">
      <!-- 10.0 -->
      <g transform="translate(332.163188 322.182437)scale(0.1 -0.1)">
       <use xlink:href="#DejaVuSans-49"/>
       <use x="63.623047" xlink:href="#DejaVuSans-48"/>
       <use x="127.246094" xlink:href="#DejaVuSans-46"/>
       <use x="159.033203" xlink:href="#DejaVuSans-48"/>
      </g>
     </g>
    </g>
   </g>
   <g id="matplotlib.axis_2">
    <g id="ytick_1">
     <g id="line2d_10">
      <defs>
       <path d="M 0 0 
L -3.5 0 
" id="m508f3baa7f" style="stroke:#000000;stroke-width:0.8;"/>
      </defs>
      <g>
       <use style="stroke:#000000;stroke-width:0.8;" x="57.6" xlink:href="#m508f3baa7f" y="307.584"/>
      </g>
     </g>
     <g id="text_10">
      <!-- −10.0 -->
      <g transform="translate(19.954687 311.383219)scale(0.1 -0.1)">
       <use xlink:href="#DejaVuSans-8722"/>
       <use x="83.789062" xlink:href="#DejaVuSans-49"/>
       <use x="147.412109" xlink:href="#DejaVuSans-48"/>
       <use x="211.035156" xlink:href="#DejaVuSans-46"/>
       <use x="242.822266" xlink:href="#DejaVuSans-48"/>
      </g>
     </g>
    </g>
    <g id="ytick_2">
     <g id="line2d_11">
      <g>
       <use style="stroke:#000000;stroke-width:0.8;" x="57.6" xlink:href="#m508f3baa7f" y="274.32"/>
      </g>
     </g>
     <g id="text_11">
      <!-- −7.5 -->
      <g transform="translate(26.317187 278.119219)scale(0.1 -0.1)">
       <use xlink:href="#DejaVuSans-8722"/>
       <use x="83.789062" xlink:href="#DejaVuSans-55"/>
       <use x="147.412109" xlink:href="#DejaVuSans-46"/>
       <use x="179.199219" xlink:href="#DejaVuSans-53"/>
      </g>
     </g>
    </g>
    <g id="ytick_3">
     <g id="line2d_12">
      <g>
       <use style="stroke:#000000;stroke-width:0.8;" x="57.6" xlink:href="#m508f3baa7f" y="241.056"/>
      </g>
     </g>
     <g id="text_12">
      <!-- −5.0 -->
      <g transform="translate(26.317187 244.855219)scale(0.1 -0.1)">
       <use xlink:href="#DejaVuSans-8722"/>
       <use x="83.789062" xlink:href="#DejaVuSans-53"/>
       <use x="147.412109" xlink:href="#DejaVuSans-46"/>
       <use x="179.199219" xlink:href="#DejaVuSans-48"/>
      </g>
     </g>
    </g>
    <g id="ytick_4">
     <g id="line2d_13">
      <g>
       <use style="stroke:#000000;stroke-width:0.8;" x="57.6" xlink:href="#m508f3baa7f" y="207.792"/>
      </g>
     </g>
     <g id="text_13">
      <!-- −2.5 -->
      <g transform="translate(26.317187 211.591219)scale(0.1 -0.1)">
       <use xlink:href="#DejaVuSans-8722"/>
       <use x="83.789062" xlink:href="#DejaVuSans-50"/>
       <use x="147.412109" xlink:href="#DejaVuSans-46"/>
       <use x="179.199219" xlink:href="#DejaVuSans-53"/>
      </g>
     </g>
    </g>
    <g id="ytick_5">
     <g id="line2d_14">
      <g>
       <use style="stroke:#000000;stroke-width:0.8;" x="57.6" xlink:href="#m508f3baa7f" y="174.528"/>
      </g>
     </g>
     <g id="text_14">
      <!-- 0.0 -->
      <g transform="translate(34.696875 178.327219)scale(0.1 -0.1)">
       <use xlink:href="#DejaVuSans-48"/>
       <use x="63.623047" xlink:href="#DejaVuSans-46"/>
       <use x="95.410156" xlink:href="#DejaVuSans-48"/>
      </g>
     </g>
    </g>
    <g id="ytick_6">
     <g id="line2d_15">
      <g>
       <use style="stroke:#000000;stroke-width:0.8;" x="57.6" xlink:href="#m508f3baa7f" y="141.264"/>
      </g>
     </g>
     <g id="text_15">
      <!-- 2.5 -->
      <g transform="translate(34.696875 145.063219)scale(0.1 -0.1)">
       <use xlink:href="#DejaVuSans-50"/>
       <use x="63.623047" xlink:href="#DejaVuSans-46"/>
       <use x="95.410156" xlink:href="#DejaVuSans-53"/>
      </g>
     </g>
    </g>
    <g id="ytick_7">
     <g id="line2d_16">
      <g>
       <use style="stroke:#000000;stroke-width:0.8;" x="57.6" xlink:href="#m508f3baa7f" y="108"/>
      </g>
     </g>
     <g id="text_16">
      <!-- 5.0 -->
      <g transform="translate(34.696875 111.799219)scale(0.1 -0.1)">
       <use xlink:href="#DejaVuSans-53"/>
       <use x="63.623047" xlink:href="#DejaVuSans-46"/>
       <use x="95.410156" xlink:href="#DejaVuSans-48"/>
      </g>
     </g>
    </g>
    <g id="ytick_8">
     <g id="line2d_17">
      <g>
       <use style="stroke:#000000;stroke-width:0.8;" x="57.6" xlink:href="#m508f3baa7f" y="74.736"/>
      </g>
     </g>
     <g id="text_17">
      <!-- 7.5 -->
      <g transform="translate(34.696875 78.535219)scale(0.1 -0.1)">
       <use xlink:href="#DejaVuSans-55"/>
       <use x="63.623047" xlink:href="#DejaVuSans-46"/>
       <use x="95.410156" xlink:href="#DejaVuSans-53"/>
      </g>
     </g>
    </g>
    <g id="ytick_9">
     <g id="line2d_18">
      <g>
       <use style="stroke:#000000;stroke-width:0.8;" x="57.6" xlink:href="#m508f3baa7f" y="41.472"/>
      </g>
     </g>
     <g id="text_18">
      <!-- 10.0 -->
      <g transform="translate(28.334375 45.271219)scale(0.1 -0.1)">
       <use xlink:href="#DejaVuSans-49"/>
       <use x="63.623047" xlink:href="#DejaVuSans-48"/>
       <use x="127.246094" xlink:href="#DejaVuSans-46"/>
       <use x="159.033203" xlink:href="#DejaVuSans-48"/>
      </g>
     </g>
    </g>
   </g>
   <g id="LineCollection_1"/>
   <g id="LineCollection_2">
    <path clip-path="url(#p66ed33f9a4)" d="M 199.005091 206.448 
L 197.922909 205.44 
L 196.119273 203.76 
L 195.037091 202.752 
L 193.233455 201.072 
L 192.151273 200.064 
L 190.347636 198.384 
L 189.265455 197.376 
L 187.461818 195.696 
L 186.379636 194.688 
L 184.576 193.008 
L 183.493818 192 
L 181.690182 190.32 
L 180.608 189.312 
L 178.804364 187.632 
L 177.722182 186.624 
L 175.918545 184.944 
L 174.836364 183.936 
L 173.032727 182.256 
L 171.950545 181.248 
L 170.146909 179.568 
L 169.064727 178.56 
L 167.261091 176.88 
L 166.178909 175.872 
L 166.178909 173.184 
L 167.261091 172.176 
L 169.064727 170.496 
L 170.146909 169.488 
L 171.950545 167.808 
L 173.032727 166.8 
L 174.836364 165.12 
L 175.918545 164.112 
L 177.722182 162.432 
L 178.804364 161.424 
L 180.608 159.744 
L 181.690182 158.736 
L 183.493818 157.056 
L 184.576 156.048 
L 186.379636 154.368 
L 187.461818 153.36 
L 189.265455 151.68 
L 190.347636 150.672 
L 192.151273 148.992 
L 193.233455 147.984 
L 195.037091 146.304 
L 196.119273 145.296 
L 197.922909 143.616 
L 199.005091 142.608 
L 201.890909 142.608 
L 202.973091 143.616 
L 204.776727 145.296 
L 205.858909 146.304 
L 207.662545 147.984 
L 208.744727 148.992 
L 210.548364 150.672 
L 211.630545 151.68 
L 213.434182 153.36 
L 214.516364 154.368 
L 216.32 156.048 
L 217.402182 157.056 
L 219.205818 158.736 
L 220.288 159.744 
L 222.091636 161.424 
L 223.173818 162.432 
L 224.977455 164.112 
L 226.059636 165.12 
L 227.863273 166.8 
L 228.945455 167.808 
L 230.749091 169.488 
L 231.831273 170.496 
L 233.634909 172.176 
L 234.717091 173.184 
L 234.717091 175.872 
L 233.634909 176.88 
L 231.831273 178.56 
L 230.749091 179.568 
L 228.945455 181.248 
L 227.863273 182.256 
L 226.059636 183.936 
L 224.977455 184.944 
L 223.173818 186.624 
L 222.091636 187.632 
L 220.288 189.312 
L 219.205818 190.32 
L 217.402182 192 
L 216.32 193.008 
L 214.516364 194.688 
L 213.434182 195.696 
L 211.630545 197.376 
L 210.548364 198.384 
L 208.744727 200.064 
L 207.662545 201.072 
L 205.858909 202.752 
L 204.776727 203.76 
L 202.973091 205.44 
L 201.890909 206.448 
L 199.005091 206.448 
" style="fill:none;stroke:#00df90;stroke-width:1.5;"/>
   </g>
   <g id="LineCollection_3">
    <path clip-path="url(#p66ed33f9a4)" d="M 199.005091 239.712 
L 130.466909 175.872 
L 130.466909 173.184 
L 199.005091 109.344 
L 201.890909 109.344 
L 270.429091 173.184 
L 270.429091 175.872 
L 201.890909 239.712 
L 199.005091 239.712 
L 199.005091 239.712 
" style="fill:none;stroke:#00bfa0;stroke-width:1.5;"/>
   </g>
   <g id="LineCollection_4">
    <path clip-path="url(#p66ed33f9a4)" d="M 199.005091 272.976 
L 94.754909 175.872 
L 94.754909 173.184 
L 199.005091 76.08 
L 201.890909 76.08 
L 306.141091 173.184 
L 306.141091 175.872 
L 201.890909 272.976 
L 199.005091 272.976 
L 199.005091 272.976 
" style="fill:none;stroke:#009fb0;stroke-width:1.5;"/>
   </g>
   <g id="LineCollection_5">
    <path clip-path="url(#p66ed33f9a4)" d="M 199.005091 306.24 
L 59.042909 175.872 
L 59.042909 173.184 
L 199.005091 42.816 
L 201.890909 42.816 
L 341.853091 173.184 
L 341.853091 175.872 
L 201.890909 306.24 
L 199.005091 306.24 
L 199.005091 306.24 
" style="fill:none;stroke:#007fc0;stroke-width:1.5;"/>
   </g>
   <g id="LineCollection_6">
    <path clip-path="url(#p66ed33f9a4)" d="M 164.736 307.584 
L 164.375273 307.248 
L 161.850182 304.896 
L 161.489455 304.56 
L 158.964364 302.208 
L 158.603636 301.872 
L 156.078545 299.52 
L 155.717818 299.184 
L 153.192727 296.832 
L 152.832 296.496 
L 150.306909 294.144 
L 149.946182 293.808 
L 147.421091 291.456 
L 147.060364 291.12 
L 144.535273 288.768 
L 144.174545 288.432 
L 141.649455 286.08 
L 141.288727 285.744 
L 138.763636 283.392 
L 138.402909 283.056 
L 135.877818 280.704 
L 135.517091 280.368 
L 132.992 278.016 
L 132.631273 277.68 
L 130.106182 275.328 
L 129.745455 274.992 
L 127.220364 272.64 
L 126.859636 272.304 
L 124.334545 269.952 
L 123.973818 269.616 
L 121.448727 267.264 
L 121.088 266.928 
L 118.562909 264.576 
L 118.202182 264.24 
L 115.677091 261.888 
L 115.316364 261.552 
L 112.791273 259.2 
L 112.430545 258.864 
L 109.905455 256.512 
L 109.544727 256.176 
L 107.019636 253.824 
L 106.658909 253.488 
L 104.133818 251.136 
L 103.773091 250.8 
L 101.248 248.448 
L 100.887273 248.112 
L 98.362182 245.76 
L 98.001455 245.424 
L 95.476364 243.072 
L 95.115636 242.736 
L 92.590545 240.384 
L 92.229818 240.048 
L 89.704727 237.696 
L 89.344 237.36 
L 86.818909 235.008 
L 86.458182 234.672 
L 83.933091 232.32 
L 83.572364 231.984 
L 81.047273 229.632 
L 80.686545 229.296 
L 78.161455 226.944 
L 77.800727 226.608 
L 75.275636 224.256 
L 74.914909 223.92 
L 72.389818 221.568 
L 72.029091 221.232 
L 69.504 218.88 
L 69.143273 218.544 
L 66.618182 216.192 
L 66.257455 215.856 
L 63.732364 213.504 
L 63.371636 213.168 
L 60.846545 210.816 
L 60.485818 210.48 
L 57.960727 208.128 
L 57.6 207.792 
" style="fill:none;stroke:#005fd0;stroke-width:1.5;"/>
    <path clip-path="url(#p66ed33f9a4)" d="M 343.296 207.792 
L 342.935273 208.128 
L 340.410182 210.48 
L 340.049455 210.816 
L 337.524364 213.168 
L 337.163636 213.504 
L 334.638545 215.856 
L 334.277818 216.192 
L 331.752727 218.544 
L 331.392 218.88 
L 328.866909 221.232 
L 328.506182 221.568 
L 325.981091 223.92 
L 325.620364 224.256 
L 323.095273 226.608 
L 322.734545 226.944 
L 320.209455 229.296 
L 319.848727 229.632 
L 317.323636 231.984 
L 316.962909 232.32 
L 314.437818 234.672 
L 314.077091 235.008 
L 311.552 237.36 
L 311.191273 237.696 
L 308.666182 240.048 
L 308.305455 240.384 
L 305.780364 242.736 
L 305.419636 243.072 
L 302.894545 245.424 
L 302.533818 245.76 
L 300.008727 248.112 
L 299.648 248.448 
L 297.122909 250.8 
L 296.762182 251.136 
L 294.237091 253.488 
L 293.876364 253.824 
L 291.351273 256.176 
L 290.990545 256.512 
L 288.465455 258.864 
L 288.104727 259.2 
L 285.579636 261.552 
L 285.218909 261.888 
L 282.693818 264.24 
L 282.333091 264.576 
L 279.808 266.928 
L 279.447273 267.264 
L 276.922182 269.616 
L 276.561455 269.952 
L 274.036364 272.304 
L 273.675636 272.64 
L 271.150545 274.992 
L 270.789818 275.328 
L 268.264727 277.68 
L 267.904 278.016 
L 265.378909 280.368 
L 265.018182 280.704 
L 262.493091 283.056 
L 262.132364 283.392 
L 259.607273 285.744 
L 259.246545 286.08 
L 256.721455 288.432 
L 256.360727 288.768 
L 253.835636 291.12 
L 253.474909 291.456 
L 250.949818 293.808 
L 250.589091 294.144 
L 248.064 296.496 
L 247.703273 296.832 
L 245.178182 299.184 
L 244.817455 299.52 
L 242.292364 301.872 
L 241.931636 302.208 
L 239.406545 304.56 
L 239.045818 304.896 
L 236.520727 307.248 
L 236.16 307.584 
" style="fill:none;stroke:#005fd0;stroke-width:1.5;"/>
    <path clip-path="url(#p66ed33f9a4)" d="M 57.6 141.264 
L 57.960727 140.928 
L 60.485818 138.576 
L 60.846545 138.24 
L 63.371636 135.888 
L 63.732364 135.552 
L 66.257455 133.2 
L 66.618182 132.864 
L 69.143273 130.512 
L 69.504 130.176 
L 72.029091 127.824 
L 72.389818 127.488 
L 74.914909 125.136 
L 75.275636 124.8 
L 77.800727 122.448 
L 78.161455 122.112 
L 80.686545 119.76 
L 81.047273 119.424 
L 83.572364 117.072 
L 83.933091 116.736 
L 86.458182 114.384 
L 86.818909 114.048 
L 89.344 111.696 
L 89.704727 111.36 
L 92.229818 109.008 
L 92.590545 108.672 
L 95.115636 106.32 
L 95.476364 105.984 
L 98.001455 103.632 
L 98.362182 103.296 
L 100.887273 100.944 
L 101.248 100.608 
L 103.773091 98.256 
L 104.133818 97.92 
L 106.658909 95.568 
L 107.019636 95.232 
L 109.544727 92.88 
L 109.905455 92.544 
L 112.430545 90.192 
L 112.791273 89.856 
L 115.316364 87.504 
L 115.677091 87.168 
L 118.202182 84.816 
L 118.562909 84.48 
L 121.088 82.128 
L 121.448727 81.792 
L 123.973818 79.44 
L 124.334545 79.104 
L 126.859636 76.752 
L 127.220364 76.416 
L 129.745455 74.064 
L 130.106182 73.728 
L 132.631273 71.376 
L 132.992 71.04 
L 135.517091 68.688 
L 135.877818 68.352 
L 138.402909 66 
L 138.763636 65.664 
L 141.288727 63.312 
L 141.649455 62.976 
L 144.174545 60.624 
L 144.535273 60.288 
L 147.060364 57.936 
L 147.421091 57.6 
L 149.946182 55.248 
L 150.306909 54.912 
L 152.832 52.56 
L 153.192727 52.224 
L 155.717818 49.872 
L 156.078545 49.536 
L 158.603636 47.184 
L 158.964364 46.848 
L 161.489455 44.496 
L 161.850182 44.16 
L 164.375273 41.808 
L 164.736 41.472 
" style="fill:none;stroke:#005fd0;stroke-width:1.5;"/>
    <path clip-path="url(#p66ed33f9a4)" d="M 236.16 41.472 
L 236.520727 41.808 
L 239.045818 44.16 
L 239.406545 44.496 
L 241.931636 46.848 
L 242.292364 47.184 
L 244.817455 49.536 
L 245.178182 49.872 
L 247.703273 52.224 
L 248.064 52.56 
L 250.589091 54.912 
L 250.949818 55.248 
L 253.474909 57.6 
L 253.835636 57.936 
L 256.360727 60.288 
L 256.721455 60.624 
L 259.246545 62.976 
L 259.607273 63.312 
L 262.132364 65.664 
L 262.493091 66 
L 265.018182 68.352 
L 265.378909 68.688 
L 267.904 71.04 
L 268.264727 71.376 
L 270.789818 73.728 
L 271.150545 74.064 
L 273.675636 76.416 
L 274.036364 76.752 
L 276.561455 79.104 
L 276.922182 79.44 
L 279.447273 81.792 
L 279.808 82.128 
L 282.333091 84.48 
L 282.693818 84.816 
L 285.218909 87.168 
L 285.579636 87.504 
L 288.104727 89.856 
L 288.465455 90.192 
L 290.990545 92.544 
L 291.351273 92.88 
L 293.876364 95.232 
L 294.237091 95.568 
L 296.762182 97.92 
L 297.122909 98.256 
L 299.648 100.608 
L 300.008727 100.944 
L 302.533818 103.296 
L 302.894545 103.632 
L 305.419636 105.984 
L 305.780364 106.32 
L 308.305455 108.672 
L 308.666182 109.008 
L 311.191273 111.36 
L 311.552 111.696 
L 314.077091 114.048 
L 314.437818 114.384 
L 316.962909 116.736 
L 317.323636 117.072 
L 319.848727 119.424 
L 320.209455 119.76 
L 322.734545 122.112 
L 323.095273 122.448 
L 325.620364 124.8 
L 325.981091 125.136 
L 328.506182 127.488 
L 328.866909 127.824 
L 331.392 130.176 
L 331.752727 130.512 
L 334.277818 132.864 
L 334.638545 133.2 
L 337.163636 135.552 
L 337.524364 135.888 
L 340.049455 138.24 
L 340.410182 138.576 
L 342.935273 140.928 
L 343.296 141.264 
" style="fill:none;stroke:#005fd0;stroke-width:1.5;"/>
   </g>
   <g id="LineCollection_7">
    <path clip-path="url(#p66ed33f9a4)" d="M 129.024 307.584 
L 126.859636 305.568 
L 126.138182 304.896 
L 123.973818 302.88 
L 123.252364 302.208 
L 121.088 300.192 
L 120.366545 299.52 
L 118.202182 297.504 
L 117.480727 296.832 
L 115.316364 294.816 
L 114.594909 294.144 
L 112.430545 292.128 
L 111.709091 291.456 
L 109.544727 289.44 
L 108.823273 288.768 
L 106.658909 286.752 
L 105.937455 286.08 
L 103.773091 284.064 
L 103.051636 283.392 
L 100.887273 281.376 
L 100.165818 280.704 
L 98.001455 278.688 
L 97.28 278.016 
L 95.115636 276 
L 94.394182 275.328 
L 92.229818 273.312 
L 91.508364 272.64 
L 89.344 270.624 
L 88.622545 269.952 
L 86.458182 267.936 
L 85.736727 267.264 
L 83.572364 265.248 
L 82.850909 264.576 
L 80.686545 262.56 
L 79.965091 261.888 
L 77.800727 259.872 
L 77.079273 259.2 
L 74.914909 257.184 
L 74.193455 256.512 
L 72.029091 254.496 
L 71.307636 253.824 
L 69.143273 251.808 
L 68.421818 251.136 
L 66.257455 249.12 
L 65.536 248.448 
L 63.371636 246.432 
L 62.650182 245.76 
L 60.485818 243.744 
L 59.764364 243.072 
L 57.6 241.056 
" style="fill:none;stroke:#003fe0;stroke-width:1.5;"/>
    <path clip-path="url(#p66ed33f9a4)" d="M 343.296 241.056 
L 341.131636 243.072 
L 340.410182 243.744 
L 338.245818 245.76 
L 337.524364 246.432 
L 335.36 248.448 
L 334.638545 249.12 
L 332.474182 251.136 
L 331.752727 251.808 
L 329.588364 253.824 
L 328.866909 254.496 
L 326.702545 256.512 
L 325.981091 257.184 
L 323.816727 259.2 
L 323.095273 259.872 
L 320.930909 261.888 
L 320.209455 262.56 
L 318.045091 264.576 
L 317.323636 265.248 
L 315.159273 267.264 
L 314.437818 267.936 
L 312.273455 269.952 
L 311.552 270.624 
L 309.387636 272.64 
L 308.666182 273.312 
L 306.501818 275.328 
L 305.780364 276 
L 303.616 278.016 
L 302.894545 278.688 
L 300.730182 280.704 
L 300.008727 281.376 
L 297.844364 283.392 
L 297.122909 284.064 
L 294.958545 286.08 
L 294.237091 286.752 
L 292.072727 288.768 
L 291.351273 289.44 
L 289.186909 291.456 
L 288.465455 292.128 
L 286.301091 294.144 
L 285.579636 294.816 
L 283.415273 296.832 
L 282.693818 297.504 
L 280.529455 299.52 
L 279.808 300.192 
L 277.643636 302.208 
L 276.922182 302.88 
L 274.757818 304.896 
L 274.036364 305.568 
L 271.872 307.584 
" style="fill:none;stroke:#003fe0;stroke-width:1.5;"/>
    <path clip-path="url(#p66ed33f9a4)" d="M 57.6 108 
L 59.764364 105.984 
L 60.485818 105.312 
L 62.650182 103.296 
L 63.371636 102.624 
L 65.536 100.608 
L 66.257455 99.936 
L 68.421818 97.92 
L 69.143273 97.248 
L 71.307636 95.232 
L 72.029091 94.56 
L 74.193455 92.544 
L 74.914909 91.872 
L 77.079273 89.856 
L 77.800727 89.184 
L 79.965091 87.168 
L 80.686545 86.496 
L 82.850909 84.48 
L 83.572364 83.808 
L 85.736727 81.792 
L 86.458182 81.12 
L 88.622545 79.104 
L 89.344 78.432 
L 91.508364 76.416 
L 92.229818 75.744 
L 94.394182 73.728 
L 95.115636 73.056 
L 97.28 71.04 
L 98.001455 70.368 
L 100.165818 68.352 
L 100.887273 67.68 
L 103.051636 65.664 
L 103.773091 64.992 
L 105.937455 62.976 
L 106.658909 62.304 
L 108.823273 60.288 
L 109.544727 59.616 
L 111.709091 57.6 
L 112.430545 56.928 
L 114.594909 54.912 
L 115.316364 54.24 
L 117.480727 52.224 
L 118.202182 51.552 
L 120.366545 49.536 
L 121.088 48.864 
L 123.252364 46.848 
L 123.973818 46.176 
L 126.138182 44.16 
L 126.859636 43.488 
L 129.024 41.472 
" style="fill:none;stroke:#003fe0;stroke-width:1.5;"/>
    <path clip-path="url(#p66ed33f9a4)" d="M 271.872 41.472 
L 274.036364 43.488 
L 274.757818 44.16 
L 276.922182 46.176 
L 277.643636 46.848 
L 279.808 48.864 
L 280.529455 49.536 
L 282.693818 51.552 
L 283.415273 52.224 
L 285.579636 54.24 
L 286.301091 54.912 
L 288.465455 56.928 
L 289.186909 57.6 
L 291.351273 59.616 
L 292.072727 60.288 
L 294.237091 62.304 
L 294.958545 62.976 
L 297.122909 64.992 
L 297.844364 65.664 
L 300.008727 67.68 
L 300.730182 68.352 
L 302.894545 70.368 
L 303.616 71.04 
L 305.780364 73.056 
L 306.501818 73.728 
L 308.666182 75.744 
L 309.387636 76.416 
L 311.552 78.432 
L 312.273455 79.104 
L 314.437818 81.12 
L 315.159273 81.792 
L 317.323636 83.808 
L 318.045091 84.48 
L 320.209455 86.496 
L 320.930909 87.168 
L 323.095273 89.184 
L 323.816727 89.856 
L 325.981091 91.872 
L 326.702545 92.544 
L 328.866909 94.56 
L 329.588364 95.232 
L 331.752727 97.248 
L 332.474182 97.92 
L 334.638545 99.936 
L 335.36 100.608 
L 337.524364 102.624 
L 338.245818 103.296 
L 340.410182 105.312 
L 341.131636 105.984 
L 343.296 108 
" style="fill:none;stroke:#003fe0;stroke-width:1.5;"/>
   </g>
   <g id="LineCollection_8">
    <path clip-path="url(#p66ed33f9a4)" d="M 93.312 307.584 
L 92.229818 306.576 
L 90.426182 304.896 
L 89.344 303.888 
L 87.540364 302.208 
L 86.458182 301.2 
L 84.654545 299.52 
L 83.572364 298.512 
L 81.768727 296.832 
L 80.686545 295.824 
L 78.882909 294.144 
L 77.800727 293.136 
L 75.997091 291.456 
L 74.914909 290.448 
L 73.111273 288.768 
L 72.029091 287.76 
L 70.225455 286.08 
L 69.143273 285.072 
L 67.339636 283.392 
L 66.257455 282.384 
L 64.453818 280.704 
L 63.371636 279.696 
L 61.568 278.016 
L 60.485818 277.008 
L 58.682182 275.328 
L 57.6 274.32 
" style="fill:none;stroke:#001ff0;stroke-width:1.5;"/>
    <path clip-path="url(#p66ed33f9a4)" d="M 343.296 274.32 
L 342.213818 275.328 
L 340.410182 277.008 
L 339.328 278.016 
L 337.524364 279.696 
L 336.442182 280.704 
L 334.638545 282.384 
L 333.556364 283.392 
L 331.752727 285.072 
L 330.670545 286.08 
L 328.866909 287.76 
L 327.784727 288.768 
L 325.981091 290.448 
L 324.898909 291.456 
L 323.095273 293.136 
L 322.013091 294.144 
L 320.209455 295.824 
L 319.127273 296.832 
L 317.323636 298.512 
L 316.241455 299.52 
L 314.437818 301.2 
L 313.355636 302.208 
L 311.552 303.888 
L 310.469818 304.896 
L 308.666182 306.576 
L 307.584 307.584 
" style="fill:none;stroke:#001ff0;stroke-width:1.5;"/>
    <path clip-path="url(#p66ed33f9a4)" d="M 57.6 74.736 
L 58.682182 73.728 
L 60.485818 72.048 
L 61.568 71.04 
L 63.371636 69.36 
L 64.453818 68.352 
L 66.257455 66.672 
L 67.339636 65.664 
L 69.143273 63.984 
L 70.225455 62.976 
L 72.029091 61.296 
L 73.111273 60.288 
L 74.914909 58.608 
L 75.997091 57.6 
L 77.800727 55.92 
L 78.882909 54.912 
L 80.686545 53.232 
L 81.768727 52.224 
L 83.572364 50.544 
L 84.654545 49.536 
L 86.458182 47.856 
L 87.540364 46.848 
L 89.344 45.168 
L 90.426182 44.16 
L 92.229818 42.48 
L 93.312 41.472 
" style="fill:none;stroke:#001ff0;stroke-width:1.5;"/>
    <path clip-path="url(#p66ed33f9a4)" d="M 307.584 41.472 
L 308.666182 42.48 
L 310.469818 44.16 
L 311.552 45.168 
L 313.355636 46.848 
L 314.437818 47.856 
L 316.241455 49.536 
L 317.323636 50.544 
L 319.127273 52.224 
L 320.209455 53.232 
L 322.013091 54.912 
L 323.095273 55.92 
L 324.898909 57.6 
L 325.981091 58.608 
L 327.784727 60.288 
L 328.866909 61.296 
L 330.670545 62.976 
L 331.752727 63.984 
L 333.556364 65.664 
L 334.638545 66.672 
L 336.442182 68.352 
L 337.524364 69.36 
L 339.328 71.04 
L 340.410182 72.048 
L 342.213818 73.728 
L 343.296 74.736 
" style="fill:none;stroke:#001ff0;stroke-width:1.5;"/>
   </g>
   <g id="LineCollection_9"/>
   <g id="patch_3">
    <path d="M 57.6 307.584 
L 57.6 41.472 
" style="fill:none;stroke:#000000;stroke-linecap:square;stroke-linejoin:miter;stroke-width:0.8;"/>
   </g>
   <g id="patch_4">
    <path d="M 343.296 307.584 
L 343.296 41.472 
" style="fill:none;stroke:#000000;stroke-linecap:square;stroke-linejoin:miter;stroke-width:0.8;"/>
   </g>
   <g id="patch_5">
    <path d="M 57.6 307.584 
L 343.296 307.584 
" style="fill:none;stroke:#000000;stroke-linecap:square;stroke-linejoin:miter;stroke-width:0.8;"/>
   </g>
   <g id="patch_6">
    <path d="M 57.6 41.472 
L 343.296 41.472 
" style="fill:none;stroke:#000000;stroke-linecap:square;stroke-linejoin:miter;stroke-width:0.8;"/>
   </g>
  </g>
  <g id="axes_2">
   <g id="patch_7">
    <path clip-path="url(#p662a077521)" d="M 361.152 307.584 
L 361.152 274.32 
L 361.152 74.736 
L 361.152 41.472 
L 374.4576 41.472 
L 374.4576 74.736 
L 374.4576 274.32 
L 374.4576 307.584 
z
" style="fill:#ffffff;stroke:#ffffff;stroke-linejoin:miter;stroke-width:0.01;"/>
   </g>
   <g id="matplotlib.axis_3"/>
   <g id="matplotlib.axis_4">
    <g id="ytick_10">
     <g id="line2d_19">
      <defs>
       <path d="M 0 0 
L 3.5 0 
" id="m0bf5d3c6d4" style="stroke:#000000;stroke-width:0.8;"/>
      </defs>
      <g>
       <use style="stroke:#000000;stroke-width:0.8;" x="374.4576" xlink:href="#m0bf5d3c6d4" y="307.584"/>
      </g>
     </g>
     <g id="text_19">
      <!-- 0.0 -->
      <g transform="translate(381.4576 311.383219)scale(0.1 -0.1)">
       <use xlink:href="#DejaVuSans-48"/>
       <use x="63.623047" xlink:href="#DejaVuSans-46"/>
       <use x="95.410156" xlink:href="#DejaVuSans-48"/>
      </g>
     </g>
    </g>
    <g id="ytick_11">
     <g id="line2d_20">
      <g>
       <use style="stroke:#000000;stroke-width:0.8;" x="374.4576" xlink:href="#m0bf5d3c6d4" y="274.32"/>
      </g>
     </g>
     <g id="text_20">
      <!-- 2.5 -->
      <g transform="translate(381.4576 278.119219)scale(0.1 -0.1)">
       <use xlink:href="#DejaVuSans-50"/>
       <use x="63.623047" xlink:href="#DejaVuSans-46"/>
       <use x="95.410156" xlink:href="#DejaVuSans-53"/>
      </g>
     </g>
    </g>
    <g id="ytick_12">
     <g id="line2d_21">
      <g>
       <use style="stroke:#000000;stroke-width:0.8;" x="374.4576" xlink:href="#m0bf5d3c6d4" y="241.056"/>
      </g>
     </g>
     <g id="text_21">
      <!-- 5.0 -->
      <g transform="translate(381.4576 244.855219)scale(0.1 -0.1)">
       <use xlink:href="#DejaVuSans-53"/>
       <use x="63.623047" xlink:href="#DejaVuSans-46"/>
       <use x="95.410156" xlink:href="#DejaVuSans-48"/>
      </g>
     </g>
    </g>
    <g id="ytick_13">
     <g id="line2d_22">
      <g>
       <use style="stroke:#000000;stroke-width:0.8;" x="374.4576" xlink:href="#m0bf5d3c6d4" y="207.792"/>
      </g>
     </g>
     <g id="text_22">
      <!-- 7.5 -->
      <g transform="translate(381.4576 211.591219)scale(0.1 -0.1)">
       <use xlink:href="#DejaVuSans-55"/>
       <use x="63.623047" xlink:href="#DejaVuSans-46"/>
       <use x="95.410156" xlink:href="#DejaVuSans-53"/>
      </g>
     </g>
    </g>
    <g id="ytick_14">
     <g id="line2d_23">
      <g>
       <use style="stroke:#000000;stroke-width:0.8;" x="374.4576" xlink:href="#m0bf5d3c6d4" y="174.528"/>
      </g>
     </g>
     <g id="text_23">
      <!-- 10.0 -->
      <g transform="translate(381.4576 178.327219)scale(0.1 -0.1)">
       <use xlink:href="#DejaVuSans-49"/>
       <use x="63.623047" xlink:href="#DejaVuSans-48"/>
       <use x="127.246094" xlink:href="#DejaVuSans-46"/>
       <use x="159.033203" xlink:href="#DejaVuSans-48"/>
      </g>
     </g>
    </g>
    <g id="ytick_15">
     <g id="line2d_24">
      <g>
       <use style="stroke:#000000;stroke-width:0.8;" x="374.4576" xlink:href="#m0bf5d3c6d4" y="141.264"/>
      </g>
     </g>
     <g id="text_24">
      <!-- 12.5 -->
      <g transform="translate(381.4576 145.063219)scale(0.1 -0.1)">
       <use xlink:href="#DejaVuSans-49"/>
       <use x="63.623047" xlink:href="#DejaVuSans-50"/>
       <use x="127.246094" xlink:href="#DejaVuSans-46"/>
       <use x="159.033203" xlink:href="#DejaVuSans-53"/>
      </g>
     </g>
    </g>
    <g id="ytick_16">
     <g id="line2d_25">
      <g>
       <use style="stroke:#000000;stroke-width:0.8;" x="374.4576" xlink:href="#m0bf5d3c6d4" y="108"/>
      </g>
     </g>
     <g id="text_25">
      <!-- 15.0 -->
      <g transform="translate(381.4576 111.799219)scale(0.1 -0.1)">
       <use xlink:href="#DejaVuSans-49"/>
       <use x="63.623047" xlink:href="#DejaVuSans-53"/>
       <use x="127.246094" xlink:href="#DejaVuSans-46"/>
       <use x="159.033203" xlink:href="#DejaVuSans-48"/>
      </g>
     </g>
    </g>
    <g id="ytick_17">
     <g id="line2d_26">
      <g>
       <use style="stroke:#000000;stroke-width:0.8;" x="374.4576" xlink:href="#m0bf5d3c6d4" y="74.736"/>
      </g>
     </g>
     <g id="text_26">
      <!-- 17.5 -->
      <g transform="translate(381.4576 78.535219)scale(0.1 -0.1)">
       <use xlink:href="#DejaVuSans-49"/>
       <use x="63.623047" xlink:href="#DejaVuSans-55"/>
       <use x="127.246094" xlink:href="#DejaVuSans-46"/>
       <use x="159.033203" xlink:href="#DejaVuSans-53"/>
      </g>
     </g>
    </g>
    <g id="ytick_18">
     <g id="line2d_27">
      <g>
       <use style="stroke:#000000;stroke-width:0.8;" x="374.4576" xlink:href="#m0bf5d3c6d4" y="41.472"/>
      </g>
     </g>
     <g id="text_27">
      <!-- 20.0 -->
      <g transform="translate(381.4576 45.271219)scale(0.1 -0.1)">
       <use xlink:href="#DejaVuSans-50"/>
       <use x="63.623047" xlink:href="#DejaVuSans-48"/>
       <use x="127.246094" xlink:href="#DejaVuSans-46"/>
       <use x="159.033203" xlink:href="#DejaVuSans-48"/>
      </g>
     </g>
    </g>
   </g>
   <g id="LineCollection_10">
    <path clip-path="url(#p662a077521)" d="M 361.152 307.584 
L 374.4576 307.584 
" style="fill:none;stroke:#00ff80;stroke-width:1.5;"/>
    <path clip-path="url(#p662a077521)" d="M 361.152 274.32 
L 374.4576 274.32 
" style="fill:none;stroke:#00df90;stroke-width:1.5;"/>
    <path clip-path="url(#p662a077521)" d="M 361.152 241.056 
L 374.4576 241.056 
" style="fill:none;stroke:#00bfa0;stroke-width:1.5;"/>
    <path clip-path="url(#p662a077521)" d="M 361.152 207.792 
L 374.4576 207.792 
" style="fill:none;stroke:#009fb0;stroke-width:1.5;"/>
    <path clip-path="url(#p662a077521)" d="M 361.152 174.528 
L 374.4576 174.528 
" style="fill:none;stroke:#007fc0;stroke-width:1.5;"/>
    <path clip-path="url(#p662a077521)" d="M 361.152 141.264 
L 374.4576 141.264 
" style="fill:none;stroke:#005fd0;stroke-width:1.5;"/>
    <path clip-path="url(#p662a077521)" d="M 361.152 108 
L 374.4576 108 
" style="fill:none;stroke:#003fe0;stroke-width:1.5;"/>
    <path clip-path="url(#p662a077521)" d="M 361.152 74.736 
L 374.4576 74.736 
" style="fill:none;stroke:#001ff0;stroke-width:1.5;"/>
    <path clip-path="url(#p662a077521)" d="M 361.152 41.472 
L 374.4576 41.472 
" style="fill:none;stroke:#0000ff;stroke-width:1.5;"/>
   </g>
   <g id="patch_8">
    <path d="M 361.152 307.584 
L 361.152 274.32 
L 361.152 74.736 
L 361.152 41.472 
L 374.4576 41.472 
L 374.4576 74.736 
L 374.4576 274.32 
L 374.4576 307.584 
z
" style="fill:none;stroke:#000000;stroke-linejoin:miter;stroke-width:0.8;"/>
   </g>
  </g>
 </g>
 <defs>
  <clipPath id="p66ed33f9a4">
   <rect height="266.112" width="285.696" x="57.6" y="41.472"/>
  </clipPath>
  <clipPath id="p662a077521">
   <rect height="266.112" width="13.3056" x="361.152" y="41.472"/>
  </clipPath>
 </defs>
</svg>
