<?xml version="1.0" encoding="utf-8" standalone="no"?>
<!DOCTYPE svg PUBLIC "-//W3C//DTD SVG 1.1//EN"
  "http://www.w3.org/Graphics/SVG/1.1/DTD/svg11.dtd">
<!-- Created with matplotlib (https://matplotlib.org/) -->
<svg height="345.6pt" version="1.1" viewBox="0 0 460.8 345.6" width="460.8pt" xmlns="http://www.w3.org/2000/svg" xmlns:xlink="http://www.w3.org/1999/xlink">
 <defs>
  <style type="text/css">
*{stroke-linecap:butt;stroke-linejoin:round;}
  </style>
 </defs>
 <g id="figure_1">
  <g id="patch_1">
   <path d="M 0 345.6 
L 460.8 345.6 
L 460.8 0 
L 0 0 
z
" style="fill:#ffffff;"/>
  </g>
  <g id="axes_1">
   <g id="patch_2">
    <path d="M 57.6 307.584 
L 343.296 307.584 
L 343.296 41.472 
L 57.6 41.472 
z
" style="fill:#ffffff;"/>
   </g>
   <g id="matplotlib.axis_1">
    <g id="xtick_1">
     <g id="line2d_1">
      <defs>
       <path d="M 0 0 
L 0 3.5 
" id="m6289c79f3f" style="stroke:#000000;stroke-width:0.8;"/>
      </defs>
      <g>
       <use style="stroke:#000000;stroke-width:0.8;" x="57.6" xlink:href="#m6289c79f3f" y="307.584"/>
      </g>
     </g>
     <g id="text_1">
      <!-- −10.0 -->
      <defs>
       <path d="M 10.59375 35.5 
L 73.1875 35.5 
L 73.1875 27.203125 
L 10.59375 27.203125 
z
" id="DejaVuSans-8722"/>
       <path d="M 12.40625 8.296875 
L 28.515625 8.296875 
L 28.515625 63.921875 
L 10.984375 60.40625 
L 10.984375 69.390625 
L 28.421875 72.90625 
L 38.28125 72.90625 
L 38.28125 8.296875 
L 54.390625 8.296875 
L 54.390625 0 
L 12.40625 0 
z
" id="DejaVuSans-49"/>
       <path d="M 31.78125 66.40625 
Q 24.171875 66.40625 20.328125 58.90625 
Q 16.5 51.421875 16.5 36.375 
Q 16.5 21.390625 20.328125 13.890625 
Q 24.171875 6.390625 31.78125 6.390625 
Q 39.453125 6.390625 43.28125 13.890625 
Q 47.125 21.390625 47.125 36.375 
Q 47.125 51.421875 43.28125 58.90625 
Q 39.453125 66.40625 31.78125 66.40625 
z
M 31.78125 74.21875 
Q 44.046875 74.21875 50.515625 64.515625 
Q 56.984375 54.828125 56.984375 36.375 
Q 56.984375 17.96875 50.515625 8.265625 
Q 44.046875 -1.421875 31.78125 -1.421875 
Q 19.53125 -1.421875 13.0625 8.265625 
Q 6.59375 17.96875 6.59375 36.375 
Q 6.59375 54.828125 13.0625 64.515625 
Q 19.53125 74.21875 31.78125 74.21875 
z
" id="DejaVuSans-48"/>
       <path d="M 10.6875 12.40625 
L 21 12.40625 
L 21 0 
L 10.6875 0 
z
" id="DejaVuSans-46"/>
      </defs>
      <g transform="translate(42.277344 322.182437)scale(0.1 -0.1)">
       <use xlink:href="#DejaVuSans-8722"/>
       <use x="83.789062" xlink:href="#DejaVuSans-49"/>
       <use x="147.412109" xlink:href="#DejaVuSans-48"/>
       <use x="211.035156" xlink:href="#DejaVuSans-46"/>
       <use x="242.822266" xlink:href="#DejaVuSans-48"/>
      </g>
     </g>
    </g>
    <g id="xtick_2">
     <g id="line2d_2">
      <g>
       <use style="stroke:#000000;stroke-width:0.8;" x="93.312" xlink:href="#m6289c79f3f" y="307.584"/>
      </g>
     </g>
     <g id="text_2">
      <!-- −7.5 -->
      <defs>
       <path d="M 8.203125 72.90625 
L 55.078125 72.90625 
L 55.078125 68.703125 
L 28.609375 0 
L 18.3125 0 
L 43.21875 64.59375 
L 8.203125 64.59375 
z
" id="DejaVuSans-55"/>
       <path d="M 10.796875 72.90625 
L 49.515625 72.90625 
L 49.515625 64.59375 
L 19.828125 64.59375 
L 19.828125 46.734375 
Q 21.96875 47.46875 24.109375 47.828125 
Q 26.265625 48.1875 28.421875 48.1875 
Q 40.625 48.1875 47.75 41.5 
Q 54.890625 34.8125 54.890625 23.390625 
Q 54.890625 11.625 47.5625 5.09375 
Q 40.234375 -1.421875 26.90625 -1.421875 
Q 22.3125 -1.421875 17.546875 -0.640625 
Q 12.796875 0.140625 7.71875 1.703125 
L 7.71875 11.625 
Q 12.109375 9.234375 16.796875 8.0625 
Q 21.484375 6.890625 26.703125 6.890625 
Q 35.15625 6.890625 40.078125 11.328125 
Q 45.015625 15.765625 45.015625 23.390625 
Q 45.015625 31 40.078125 35.4375 
Q 35.15625 39.890625 26.703125 39.890625 
Q 22.75 39.890625 18.8125 39.015625 
Q 14.890625 38.140625 10.796875 36.28125 
z
" id="DejaVuSans-53"/>
      </defs>
      <g transform="translate(81.170594 322.182437)scale(0.1 -0.1)">
       <use xlink:href="#DejaVuSans-8722"/>
       <use x="83.789062" xlink:href="#DejaVuSans-55"/>
       <use x="147.412109" xlink:href="#DejaVuSans-46"/>
       <use x="179.199219" xlink:href="#DejaVuSans-53"/>
      </g>
     </g>
    </g>
    <g id="xtick_3">
     <g id="line2d_3">
      <g>
       <use style="stroke:#000000;stroke-width:0.8;" x="129.024" xlink:href="#m6289c79f3f" y="307.584"/>
      </g>
     </g>
     <g id="text_3">
      <!-- −5.0 -->
      <g transform="translate(116.882594 322.182437)scale(0.1 -0.1)">
       <use xlink:href="#DejaVuSans-8722"/>
       <use x="83.789062" xlink:href="#DejaVuSans-53"/>
       <use x="147.412109" xlink:href="#DejaVuSans-46"/>
       <use x="179.199219" xlink:href="#DejaVuSans-48"/>
      </g>
     </g>
    </g>
    <g id="xtick_4">
     <g id="line2d_4">
      <g>
       <use style="stroke:#000000;stroke-width:0.8;" x="164.736" xlink:href="#m6289c79f3f" y="307.584"/>
      </g>
     </g>
     <g id="text_4">
      <!-- −2.5 -->
      <defs>
       <path d="M 19.1875 8.296875 
L 53.609375 8.296875 
L 53.609375 0 
L 7.328125 0 
L 7.328125 8.296875 
Q 12.9375 14.109375 22.625 23.890625 
Q 32.328125 33.6875 34.8125 36.53125 
Q 39.546875 41.84375 41.421875 45.53125 
Q 43.3125 49.21875 43.3125 52.78125 
Q 43.3125 58.59375 39.234375 62.25 
Q 35.15625 65.921875 28.609375 65.921875 
Q 23.96875 65.921875 18.8125 64.3125 
Q 13.671875 62.703125 7.8125 59.421875 
L 7.8125 69.390625 
Q 13.765625 71.78125 18.9375 73 
Q 24.125 74.21875 28.421875 74.21875 
Q 39.75 74.21875 46.484375 68.546875 
Q 53.21875 62.890625 53.21875 53.421875 
Q 53.21875 48.921875 51.53125 44.890625 
Q 49.859375 40.875 45.40625 35.40625 
Q 44.1875 33.984375 37.640625 27.21875 
Q 31.109375 20.453125 19.1875 8.296875 
z
" id="DejaVuSans-50"/>
      </defs>
      <g transform="translate(152.594594 322.182437)scale(0.1 -0.1)">
       <use xlink:href="#DejaVuSans-8722"/>
       <use x="83.789062" xlink:href="#DejaVuSans-50"/>
       <use x="147.412109" xlink:href="#DejaVuSans-46"/>
       <use x="179.199219" xlink:href="#DejaVuSans-53"/>
      </g>
     </g>
    </g>
    <g id="xtick_5">
     <g id="line2d_5">
      <g>
       <use style="stroke:#000000;stroke-width:0.8;" x="200.448" xlink:href="#m6289c79f3f" y="307.584"/>
      </g>
     </g>
     <g id="text_5">
      <!-- 0.0 -->
      <g transform="translate(192.496438 322.182437)scale(0.1 -0.1)">
       <use xlink:href="#DejaVuSans-48"/>
       <use x="63.623047" xlink:href="#DejaVuSans-46"/>
       <use x="95.410156" xlink:href="#DejaVuSans-48"/>
      </g>
     </g>
    </g>
    <g id="xtick_6">
     <g id="line2d_6">
      <g>
       <use style="stroke:#000000;stroke-width:0.8;" x="236.16" xlink:href="#m6289c79f3f" y="307.584"/>
      </g>
     </g>
     <g id="text_6">
      <!-- 2.5 -->
      <g transform="translate(228.208438 322.182437)scale(0.1 -0.1)">
       <use xlink:href="#DejaVuSans-50"/>
       <use x="63.623047" xlink:href="#DejaVuSans-46"/>
       <use x="95.410156" xlink:href="#DejaVuSans-53"/>
      </g>
     </g>
    </g>
    <g id="xtick_7">
     <g id="line2d_7">
      <g>
       <use style="stroke:#000000;stroke-width:0.8;" x="271.872" xlink:href="#m6289c79f3f" y="307.584"/>
      </g>
     </g>
     <g id="text_7">
      <!-- 5.0 -->
      <g transform="translate(263.920437 322.182437)scale(0.1 -0.1)">
       <use xlink:href="#DejaVuSans-53"/>
       <use x="63.623047" xlink:href="#DejaVuSans-46"/>
       <use x="95.410156" xlink:href="#DejaVuSans-48"/>
      </g>
     </g>
    </g>
    <g id="xtick_8">
     <g id="line2d_8">
      <g>
       <use style="stroke:#000000;stroke-width:0.8;" x="307.584" xlink:href="#m6289c79f3f" y="307.584"/>
      </g>
     </g>
     <g id="text_8">
      <!-- 7.5 -->
      <g transform="translate(299.632438 322.182437)scale(0.1 -0.1)">
       <use xlink:href="#DejaVuSans-55"/>
       <use x="63.623047" xlink:href="#DejaVuSans-46"/>
       <use x="95.410156" xlink:href="#DejaVuSans-53"/>
      </g>
     </g>
    </g>
    <g id="xtick_9">
     <g id="line2d_9">
      <g>
       <use style="stroke:#000000;stroke-width:0.8;" x="343.296" xlink:href="#m6289c79f3f" y="307.584"/>
      </g>
     </g>
     <g id="text_9">
      <!-- 10.0 -->
      <g transform="translate(332.163188 322.182437)scale(0.1 -0.1)">
       <use xlink:href="#DejaVuSans-49"/>
       <use x="63.623047" xlink:href="#DejaVuSans-48"/>
       <use x="127.246094" xlink:href="#DejaVuSans-46"/>
       <use x="159.033203" xlink:href="#DejaVuSans-48"/>
      </g>
     </g>
    </g>
   </g>
   <g id="matplotlib.axis_2">
    <g id="ytick_1">
     <g id="line2d_10">
      <defs>
       <path d="M 0 0 
L -3.5 0 
" id="me8979c7661" style="stroke:#000000;stroke-width:0.8;"/>
      </defs>
      <g>
       <use style="stroke:#000000;stroke-width:0.8;" x="57.6" xlink:href="#me8979c7661" y="307.584"/>
      </g>
     </g>
     <g id="text_10">
      <!-- −10.0 -->
      <g transform="translate(19.954687 311.383219)scale(0.1 -0.1)">
       <use xlink:href="#DejaVuSans-8722"/>
       <use x="83.789062" xlink:href="#DejaVuSans-49"/>
       <use x="147.412109" xlink:href="#DejaVuSans-48"/>
       <use x="211.035156" xlink:href="#DejaVuSans-46"/>
       <use x="242.822266" xlink:href="#DejaVuSans-48"/>
      </g>
     </g>
    </g>
    <g id="ytick_2">
     <g id="line2d_11">
      <g>
       <use style="stroke:#000000;stroke-width:0.8;" x="57.6" xlink:href="#me8979c7661" y="274.32"/>
      </g>
     </g>
     <g id="text_11">
      <!-- −7.5 -->
      <g transform="translate(26.317187 278.119219)scale(0.1 -0.1)">
       <use xlink:href="#DejaVuSans-8722"/>
       <use x="83.789062" xlink:href="#DejaVuSans-55"/>
       <use x="147.412109" xlink:href="#DejaVuSans-46"/>
       <use x="179.199219" xlink:href="#DejaVuSans-53"/>
      </g>
     </g>
    </g>
    <g id="ytick_3">
     <g id="line2d_12">
      <g>
       <use style="stroke:#000000;stroke-width:0.8;" x="57.6" xlink:href="#me8979c7661" y="241.056"/>
      </g>
     </g>
     <g id="text_12">
      <!-- −5.0 -->
      <g transform="translate(26.317187 244.855219)scale(0.1 -0.1)">
       <use xlink:href="#DejaVuSans-8722"/>
       <use x="83.789062" xlink:href="#DejaVuSans-53"/>
       <use x="147.412109" xlink:href="#DejaVuSans-46"/>
       <use x="179.199219" xlink:href="#DejaVuSans-48"/>
      </g>
     </g>
    </g>
    <g id="ytick_4">
     <g id="line2d_13">
      <g>
       <use style="stroke:#000000;stroke-width:0.8;" x="57.6" xlink:href="#me8979c7661" y="207.792"/>
      </g>
     </g>
     <g id="text_13">
      <!-- −2.5 -->
      <g transform="translate(26.317187 211.591219)scale(0.1 -0.1)">
       <use xlink:href="#DejaVuSans-8722"/>
       <use x="83.789062" xlink:href="#DejaVuSans-50"/>
       <use x="147.412109" xlink:href="#DejaVuSans-46"/>
       <use x="179.199219" xlink:href="#DejaVuSans-53"/>
      </g>
     </g>
    </g>
    <g id="ytick_5">
     <g id="line2d_14">
      <g>
       <use style="stroke:#000000;stroke-width:0.8;" x="57.6" xlink:href="#me8979c7661" y="174.528"/>
      </g>
     </g>
     <g id="text_14">
      <!-- 0.0 -->
      <g transform="translate(34.696875 178.327219)scale(0.1 -0.1)">
       <use xlink:href="#DejaVuSans-48"/>
       <use x="63.623047" xlink:href="#DejaVuSans-46"/>
       <use x="95.410156" xlink:href="#DejaVuSans-48"/>
      </g>
     </g>
    </g>
    <g id="ytick_6">
     <g id="line2d_15">
      <g>
       <use style="stroke:#000000;stroke-width:0.8;" x="57.6" xlink:href="#me8979c7661" y="141.264"/>
      </g>
     </g>
     <g id="text_15">
      <!-- 2.5 -->
      <g transform="translate(34.696875 145.063219)scale(0.1 -0.1)">
       <use xlink:href="#DejaVuSans-50"/>
       <use x="63.623047" xlink:href="#DejaVuSans-46"/>
       <use x="95.410156" xlink:href="#DejaVuSans-53"/>
      </g>
     </g>
    </g>
    <g id="ytick_7">
     <g id="line2d_16">
      <g>
       <use style="stroke:#000000;stroke-width:0.8;" x="57.6" xlink:href="#me8979c7661" y="108"/>
      </g>
     </g>
     <g id="text_16">
      <!-- 5.0 -->
      <g transform="translate(34.696875 111.799219)scale(0.1 -0.1)">
       <use xlink:href="#DejaVuSans-53"/>
       <use x="63.623047" xlink:href="#DejaVuSans-46"/>
       <use x="95.410156" xlink:href="#DejaVuSans-48"/>
      </g>
     </g>
    </g>
    <g id="ytick_8">
     <g id="line2d_17">
      <g>
       <use style="stroke:#000000;stroke-width:0.8;" x="57.6" xlink:href="#me8979c7661" y="74.736"/>
      </g>
     </g>
     <g id="text_17">
      <!-- 7.5 -->
      <g transform="translate(34.696875 78.535219)scale(0.1 -0.1)">
       <use xlink:href="#DejaVuSans-55"/>
       <use x="63.623047" xlink:href="#DejaVuSans-46"/>
       <use x="95.410156" xlink:href="#DejaVuSans-53"/>
      </g>
     </g>
    </g>
    <g id="ytick_9">
     <g id="line2d_18">
      <g>
       <use style="stroke:#000000;stroke-width:0.8;" x="57.6" xlink:href="#me8979c7661" y="41.472"/>
      </g>
     </g>
     <g id="text_18">
      <!-- 10.0 -->
      <g transform="translate(28.334375 45.271219)scale(0.1 -0.1)">
       <use xlink:href="#DejaVuSans-49"/>
       <use x="63.623047" xlink:href="#DejaVuSans-48"/>
       <use x="127.246094" xlink:href="#DejaVuSans-46"/>
       <use x="159.033203" xlink:href="#DejaVuSans-48"/>
      </g>
     </g>
    </g>
   </g>
   <g id="LineCollection_1"/>
   <g id="LineCollection_2">
    <path clip-path="url(#p2096aa50c7)" d="M 193.954909 307.584 
L 193.566174 304.896 
L 193.233455 302.672537 
L 193.162616 302.208 
L 192.74337 299.52 
L 192.307504 296.832 
L 191.85401 294.144 
L 191.381796 291.456 
L 190.889678 288.768 
L 190.37637 286.08 
L 190.347636 285.932876 
L 189.840475 283.392 
L 189.280468 280.704 
L 188.694684 278.016 
L 188.0813 275.328 
L 187.461818 272.736 
L 187.438321 272.64 
L 186.76355 269.952 
L 186.05457 267.264 
L 185.308713 264.576 
L 184.576 262.064842 
L 184.523023 261.888 
L 183.694222 259.2 
L 182.818663 256.512 
L 181.892273 253.824 
L 181.690182 253.257642 
L 180.910493 251.136 
L 179.868203 248.448 
L 178.804364 245.865253 
L 178.759631 245.76 
L 177.578246 243.072 
L 176.316632 240.384 
L 175.918545 239.572104 
L 174.966327 237.696 
L 173.517639 235.008 
L 173.032727 234.149979 
L 171.95941 232.32 
L 170.278727 229.632 
L 170.146909 229.429748 
L 168.460564 226.944 
L 167.261091 225.283404 
L 166.487335 224.256 
L 164.375273 221.612287 
L 164.338316 221.568 
L 161.988923 218.88 
L 161.489455 218.339122 
L 159.40976 216.192 
L 158.603636 215.40253 
L 156.565388 213.504 
L 155.717818 212.753134 
L 153.412683 210.816 
L 152.832 210.350769 
L 149.946182 208.162423 
L 149.898636 208.128 
L 147.060364 206.160716 
L 145.95735 205.44 
L 144.174545 204.322748 
L 141.505864 202.752 
L 141.288727 202.629218 
L 138.402909 201.063743 
L 136.438256 200.064 
L 135.517091 199.612328 
L 132.631273 198.262946 
L 130.6171 197.376 
L 129.745455 197.005202 
L 126.859636 195.830069 
L 123.973818 194.729666 
L 123.860819 194.688 
L 121.088 193.697085 
L 118.202182 192.726242 
L 115.924402 192 
L 115.316364 191.811762 
L 112.430545 190.948874 
L 109.544727 190.133333 
L 106.658909 189.361346 
L 106.469053 189.312 
L 103.773091 188.629514 
L 100.887273 187.934783 
L 98.001455 187.274403 
L 95.115636 186.645887 
L 95.012571 186.624 
L 92.229818 186.046982 
L 89.344 185.475646 
L 86.458182 184.930016 
L 83.572364 184.408396 
L 80.844497 183.936 
L 80.686545 183.909236 
L 77.800727 183.431115 
L 74.914909 182.972731 
L 72.029091 182.532886 
L 69.143273 182.110478 
L 66.257455 181.70449 
L 63.371636 181.313983 
L 62.872913 181.248 
L 60.485818 180.938088 
L 57.6 180.576 
" style="fill:none;stroke:#00df90;stroke-width:1.5;"/>
    <path clip-path="url(#p2096aa50c7)" d="M 343.296 180.576 
L 340.410182 180.938088 
L 338.023087 181.248 
L 337.524364 181.313983 
L 334.638545 181.70449 
L 331.752727 182.110478 
L 328.866909 182.532886 
L 325.981091 182.972731 
L 323.095273 183.431115 
L 320.209455 183.909236 
L 320.051503 183.936 
L 317.323636 184.408396 
L 314.437818 184.930016 
L 311.552 185.475646 
L 308.666182 186.046982 
L 305.883429 186.624 
L 305.780364 186.645887 
L 302.894545 187.274403 
L 300.008727 187.934783 
L 297.122909 188.629514 
L 294.426947 189.312 
L 294.237091 189.361346 
L 291.351273 190.133333 
L 288.465455 190.948874 
L 285.579636 191.811762 
L 284.971598 192 
L 282.693818 192.726242 
L 279.808 193.697085 
L 277.035181 194.688 
L 276.922182 194.729666 
L 274.036364 195.830069 
L 271.150545 197.005202 
L 270.2789 197.376 
L 268.264727 198.262946 
L 265.378909 199.612328 
L 264.457744 200.064 
L 262.493091 201.063743 
L 259.607273 202.629218 
L 259.390136 202.752 
L 256.721455 204.322748 
L 254.93865 205.44 
L 253.835636 206.160716 
L 250.997364 208.128 
L 250.949818 208.162423 
L 248.064 210.350769 
L 247.483317 210.816 
L 245.178182 212.753134 
L 244.330612 213.504 
L 242.292364 215.40253 
L 241.48624 216.192 
L 239.406545 218.339122 
L 238.907077 218.88 
L 236.557684 221.568 
L 236.520727 221.612287 
L 234.408665 224.256 
L 233.634909 225.283404 
L 232.435436 226.944 
L 230.749091 229.429748 
L 230.617273 229.632 
L 228.93659 232.32 
L 227.863273 234.149979 
L 227.378361 235.008 
L 225.929673 237.696 
L 224.977455 239.572104 
L 224.579368 240.384 
L 223.317754 243.072 
L 222.136369 245.76 
L 222.091636 245.865253 
L 221.027797 248.448 
L 219.985507 251.136 
L 219.205818 253.257642 
L 219.003727 253.824 
L 218.077337 256.512 
L 217.201778 259.2 
L 216.372977 261.888 
L 216.32 262.064842 
L 215.587287 264.576 
L 214.84143 267.264 
L 214.13245 269.952 
L 213.457679 272.64 
L 213.434182 272.736 
L 212.8147 275.328 
L 212.201316 278.016 
L 211.615532 280.704 
L 211.055525 283.392 
L 210.548364 285.932876 
L 210.51963 286.08 
L 210.006322 288.768 
L 209.514204 291.456 
L 209.04199 294.144 
L 208.588496 296.832 
L 208.15263 299.52 
L 207.733384 302.208 
L 207.662545 302.672537 
L 207.329826 304.896 
L 206.941091 307.584 
" style="fill:none;stroke:#00df90;stroke-width:1.5;"/>
    <path clip-path="url(#p2096aa50c7)" d="M 57.6 168.48 
L 60.485818 168.117912 
L 62.872913 167.808 
L 63.371636 167.742017 
L 66.257455 167.35151 
L 69.143273 166.945522 
L 72.029091 166.523114 
L 74.914909 166.083269 
L 77.800727 165.624885 
L 80.686545 165.146764 
L 80.844497 165.12 
L 83.572364 164.647604 
L 86.458182 164.125984 
L 89.344 163.580354 
L 92.229818 163.009018 
L 95.012571 162.432 
L 95.115636 162.410113 
L 98.001455 161.781597 
L 100.887273 161.121217 
L 103.773091 160.426486 
L 106.469053 159.744 
L 106.658909 159.694654 
L 109.544727 158.922667 
L 112.430545 158.107126 
L 115.316364 157.244238 
L 115.924402 157.056 
L 118.202182 156.329758 
L 121.088 155.358915 
L 123.860819 154.368 
L 123.973818 154.326334 
L 126.859636 153.225931 
L 129.745455 152.050798 
L 130.6171 151.68 
L 132.631273 150.793054 
L 135.517091 149.443672 
L 136.438256 148.992 
L 138.402909 147.992257 
L 141.288727 146.426782 
L 141.505864 146.304 
L 144.174545 144.733252 
L 145.95735 143.616 
L 147.060364 142.895284 
L 149.898636 140.928 
L 149.946182 140.893577 
L 152.832 138.705231 
L 153.412683 138.24 
L 155.717818 136.302866 
L 156.565388 135.552 
L 158.603636 133.65347 
L 159.40976 132.864 
L 161.489455 130.716878 
L 161.988923 130.176 
L 164.338316 127.488 
L 164.375273 127.443713 
L 166.487335 124.8 
L 167.261091 123.772596 
L 168.460564 122.112 
L 170.146909 119.626252 
L 170.278727 119.424 
L 171.95941 116.736 
L 173.032727 114.906021 
L 173.517639 114.048 
L 174.966327 111.36 
L 175.918545 109.483896 
L 176.316632 108.672 
L 177.578246 105.984 
L 178.759631 103.296 
L 178.804364 103.190747 
L 179.868203 100.608 
L 180.910493 97.92 
L 181.690182 95.798358 
L 181.892273 95.232 
L 182.818663 92.544 
L 183.694222 89.856 
L 184.523023 87.168 
L 184.576 86.991158 
L 185.308713 84.48 
L 186.05457 81.792 
L 186.76355 79.104 
L 187.438321 76.416 
L 187.461818 76.32 
L 188.0813 73.728 
L 188.694684 71.04 
L 189.280468 68.352 
L 189.840475 65.664 
L 190.347636 63.123124 
L 190.37637 62.976 
L 190.889678 60.288 
L 191.381796 57.6 
L 191.85401 54.912 
L 192.307504 52.224 
L 192.74337 49.536 
L 193.162616 46.848 
L 193.233455 46.383463 
L 193.566174 44.16 
L 193.954909 41.472 
" style="fill:none;stroke:#00df90;stroke-width:1.5;"/>
    <path clip-path="url(#p2096aa50c7)" d="M 206.941091 41.472 
L 207.329826 44.16 
L 207.662545 46.383463 
L 207.733384 46.848 
L 208.15263 49.536 
L 208.588496 52.224 
L 209.04199 54.912 
L 209.514204 57.6 
L 210.006322 60.288 
L 210.51963 62.976 
L 210.548364 63.123124 
L 211.055525 65.664 
L 211.615532 68.352 
L 212.201316 71.04 
L 212.8147 73.728 
L 213.434182 76.32 
L 213.457679 76.416 
L 214.13245 79.104 
L 214.84143 81.792 
L 215.587287 84.48 
L 216.32 86.991158 
L 216.372977 87.168 
L 217.201778 89.856 
L 218.077337 92.544 
L 219.003727 95.232 
L 219.205818 95.798358 
L 219.985507 97.92 
L 221.027797 100.608 
L 222.091636 103.190747 
L 222.136369 103.296 
L 223.317754 105.984 
L 224.579368 108.672 
L 224.977455 109.483896 
L 225.929673 111.36 
L 227.378361 114.048 
L 227.863273 114.906021 
L 228.93659 116.736 
L 230.617273 119.424 
L 230.749091 119.626252 
L 232.435436 122.112 
L 233.634909 123.772596 
L 234.408665 124.8 
L 236.520727 127.443713 
L 236.557684 127.488 
L 238.907077 130.176 
L 239.406545 130.716878 
L 241.48624 132.864 
L 242.292364 133.65347 
L 244.330612 135.552 
L 245.178182 136.302866 
L 247.483317 138.24 
L 248.064 138.705231 
L 250.949818 140.893577 
L 250.997364 140.928 
L 253.835636 142.895284 
L 254.93865 143.616 
L 256.721455 144.733252 
L 259.390136 146.304 
L 259.607273 146.426782 
L 262.493091 147.992257 
L 264.457744 148.992 
L 265.378909 149.443672 
L 268.264727 150.793054 
L 270.2789 151.68 
L 271.150545 152.050798 
L 274.036364 153.225931 
L 276.922182 154.326334 
L 277.035181 154.368 
L 279.808 155.358915 
L 282.693818 156.329758 
L 284.971598 157.056 
L 285.579636 157.244238 
L 288.465455 158.107126 
L 291.351273 158.922667 
L 294.237091 159.694654 
L 294.426947 159.744 
L 297.122909 160.426486 
L 300.008727 161.121217 
L 302.894545 161.781597 
L 305.780364 162.410113 
L 305.883429 162.432 
L 308.666182 163.009018 
L 311.552 163.580354 
L 314.437818 164.125984 
L 317.323636 164.647604 
L 320.051503 165.12 
L 320.209455 165.146764 
L 323.095273 165.624885 
L 325.981091 166.083269 
L 328.866909 166.523114 
L 331.752727 166.945522 
L 334.638545 167.35151 
L 337.524364 167.742017 
L 338.023087 167.808 
L 340.410182 168.117912 
L 343.296 168.48 
" style="fill:none;stroke:#00df90;stroke-width:1.5;"/>
   </g>
   <g id="LineCollection_3">
    <path clip-path="url(#p2096aa50c7)" d="M 174.475636 307.584 
L 173.722462 304.896 
L 173.032727 302.519585 
L 172.940568 302.208 
L 172.12828 299.52 
L 171.28379 296.832 
L 170.405145 294.144 
L 170.146909 293.374136 
L 169.490229 291.456 
L 168.53675 288.768 
L 167.542217 286.08 
L 167.261091 285.340596 
L 166.503921 283.392 
L 165.418907 280.704 
L 164.375273 278.227805 
L 164.283949 278.016 
L 163.095519 275.328 
L 161.849747 272.64 
L 161.489455 271.886049 
L 160.542378 269.952 
L 159.16873 267.264 
L 158.603636 266.196401 
L 157.723631 264.576 
L 156.201356 261.888 
L 155.717818 261.063198 
L 154.595556 259.2 
L 152.899159 256.512 
L 152.832 256.408615 
L 151.104279 253.824 
L 149.946182 252.168695 
L 149.202081 251.136 
L 147.182644 248.448 
L 147.060364 248.290388 
L 145.034785 245.76 
L 144.174545 244.729325 
L 142.745852 243.072 
L 141.288727 241.44811 
L 140.301474 240.384 
L 138.402909 238.415002 
L 137.685258 237.696 
L 135.517091 235.602885 
L 134.878426 235.008 
L 132.631273 232.988457 
L 131.859357 232.32 
L 129.745455 230.551579 
L 128.603033 229.632 
L 126.859636 228.274759 
L 125.080344 226.944 
L 123.973818 226.142728 
L 121.257211 224.256 
L 121.088 224.142102 
L 118.202182 222.261094 
L 117.093488 221.568 
L 115.316364 220.489289 
L 112.541538 218.88 
L 112.430545 218.817444 
L 109.544727 217.237333 
L 107.544411 216.192 
L 106.658909 215.741607 
L 103.773091 214.323683 
L 102.03344 213.504 
L 100.887273 212.977643 
L 98.001455 211.698156 
L 95.925073 210.816 
L 95.115636 210.480405 
L 92.229818 209.320028 
L 89.344 208.213063 
L 89.116607 208.128 
L 86.458182 207.155906 
L 83.572364 206.145267 
L 81.480365 205.44 
L 80.686545 205.178144 
L 77.800727 204.251785 
L 74.914909 203.363666 
L 72.855612 202.752 
L 72.029091 202.511466 
L 69.143273 201.693051 
L 66.257455 200.906449 
L 63.371636 200.149842 
L 63.037121 200.064 
L 60.485818 199.421545 
L 57.6 198.72 
" style="fill:none;stroke:#00bfa0;stroke-width:1.5;"/>
    <path clip-path="url(#p2096aa50c7)" d="M 343.296 198.72 
L 340.410182 199.421545 
L 337.858879 200.064 
L 337.524364 200.149842 
L 334.638545 200.906449 
L 331.752727 201.693051 
L 328.866909 202.511466 
L 328.040388 202.752 
L 325.981091 203.363666 
L 323.095273 204.251785 
L 320.209455 205.178144 
L 319.415635 205.44 
L 317.323636 206.145267 
L 314.437818 207.155906 
L 311.779393 208.128 
L 311.552 208.213063 
L 308.666182 209.320028 
L 305.780364 210.480405 
L 304.970927 210.816 
L 302.894545 211.698156 
L 300.008727 212.977643 
L 298.86256 213.504 
L 297.122909 214.323683 
L 294.237091 215.741607 
L 293.351589 216.192 
L 291.351273 217.237333 
L 288.465455 218.817444 
L 288.354462 218.88 
L 285.579636 220.489289 
L 283.802512 221.568 
L 282.693818 222.261094 
L 279.808 224.142102 
L 279.638789 224.256 
L 276.922182 226.142728 
L 275.815656 226.944 
L 274.036364 228.274759 
L 272.292967 229.632 
L 271.150545 230.551579 
L 269.036643 232.32 
L 268.264727 232.988457 
L 266.017574 235.008 
L 265.378909 235.602885 
L 263.210742 237.696 
L 262.493091 238.415002 
L 260.594526 240.384 
L 259.607273 241.44811 
L 258.150148 243.072 
L 256.721455 244.729325 
L 255.861215 245.76 
L 253.835636 248.290388 
L 253.713356 248.448 
L 251.693919 251.136 
L 250.949818 252.168695 
L 249.791721 253.824 
L 248.064 256.408615 
L 247.996841 256.512 
L 246.300444 259.2 
L 245.178182 261.063198 
L 244.694644 261.888 
L 243.172369 264.576 
L 242.292364 266.196401 
L 241.72727 267.264 
L 240.353622 269.952 
L 239.406545 271.886049 
L 239.046253 272.64 
L 237.800481 275.328 
L 236.612051 278.016 
L 236.520727 278.227805 
L 235.477093 280.704 
L 234.392079 283.392 
L 233.634909 285.340596 
L 233.353783 286.08 
L 232.35925 288.768 
L 231.405771 291.456 
L 230.749091 293.374136 
L 230.490855 294.144 
L 229.61221 296.832 
L 228.76772 299.52 
L 227.955432 302.208 
L 227.863273 302.519585 
L 227.173538 304.896 
L 226.420364 307.584 
" style="fill:none;stroke:#00bfa0;stroke-width:1.5;"/>
    <path clip-path="url(#p2096aa50c7)" d="M 57.6 150.336 
L 60.485818 149.634455 
L 63.037121 148.992 
L 63.371636 148.906158 
L 66.257455 148.149551 
L 69.143273 147.362949 
L 72.029091 146.544534 
L 72.855612 146.304 
L 74.914909 145.692334 
L 77.800727 144.804215 
L 80.686545 143.877856 
L 81.480365 143.616 
L 83.572364 142.910733 
L 86.458182 141.900094 
L 89.116607 140.928 
L 89.344 140.842937 
L 92.229818 139.735972 
L 95.115636 138.575595 
L 95.925073 138.24 
L 98.001455 137.357844 
L 100.887273 136.078357 
L 102.03344 135.552 
L 103.773091 134.732317 
L 106.658909 133.314393 
L 107.544411 132.864 
L 109.544727 131.818667 
L 112.430545 130.238556 
L 112.541538 130.176 
L 115.316364 128.566711 
L 117.093488 127.488 
L 118.202182 126.794906 
L 121.088 124.913898 
L 121.257211 124.8 
L 123.973818 122.913272 
L 125.080344 122.112 
L 126.859636 120.781241 
L 128.603033 119.424 
L 129.745455 118.504421 
L 131.859357 116.736 
L 132.631273 116.067543 
L 134.878426 114.048 
L 135.517091 113.453115 
L 137.685258 111.36 
L 138.402909 110.640998 
L 140.301474 108.672 
L 141.288727 107.60789 
L 142.745852 105.984 
L 144.174545 104.326675 
L 145.034785 103.296 
L 147.060364 100.765612 
L 147.182644 100.608 
L 149.202081 97.92 
L 149.946182 96.887305 
L 151.104279 95.232 
L 152.832 92.647385 
L 152.899159 92.544 
L 154.595556 89.856 
L 155.717818 87.992802 
L 156.201356 87.168 
L 157.723631 84.48 
L 158.603636 82.859599 
L 159.16873 81.792 
L 160.542378 79.104 
L 161.489455 77.169951 
L 161.849747 76.416 
L 163.095519 73.728 
L 164.283949 71.04 
L 164.375273 70.828195 
L 165.418907 68.352 
L 166.503921 65.664 
L 167.261091 63.715404 
L 167.542217 62.976 
L 168.53675 60.288 
L 169.490229 57.6 
L 170.146909 55.681864 
L 170.405145 54.912 
L 171.28379 52.224 
L 172.12828 49.536 
L 172.940568 46.848 
L 173.032727 46.536415 
L 173.722462 44.16 
L 174.475636 41.472 
" style="fill:none;stroke:#00bfa0;stroke-width:1.5;"/>
    <path clip-path="url(#p2096aa50c7)" d="M 226.420364 41.472 
L 227.173538 44.16 
L 227.863273 46.536415 
L 227.955432 46.848 
L 228.76772 49.536 
L 229.61221 52.224 
L 230.490855 54.912 
L 230.749091 55.681864 
L 231.405771 57.6 
L 232.35925 60.288 
L 233.353783 62.976 
L 233.634909 63.715404 
L 234.392079 65.664 
L 235.477093 68.352 
L 236.520727 70.828195 
L 236.612051 71.04 
L 237.800481 73.728 
L 239.046253 76.416 
L 239.406545 77.169951 
L 240.353622 79.104 
L 241.72727 81.792 
L 242.292364 82.859599 
L 243.172369 84.48 
L 244.694644 87.168 
L 245.178182 87.992802 
L 246.300444 89.856 
L 247.996841 92.544 
L 248.064 92.647385 
L 249.791721 95.232 
L 250.949818 96.887305 
L 251.693919 97.92 
L 253.713356 100.608 
L 253.835636 100.765612 
L 255.861215 103.296 
L 256.721455 104.326675 
L 258.150148 105.984 
L 259.607273 107.60789 
L 260.594526 108.672 
L 262.493091 110.640998 
L 263.210742 111.36 
L 265.378909 113.453115 
L 266.017574 114.048 
L 268.264727 116.067543 
L 269.036643 116.736 
L 271.150545 118.504421 
L 272.292967 119.424 
L 274.036364 120.781241 
L 275.815656 122.112 
L 276.922182 122.913272 
L 279.638789 124.8 
L 279.808 124.913898 
L 282.693818 126.794906 
L 283.802512 127.488 
L 285.579636 128.566711 
L 288.354462 130.176 
L 288.465455 130.238556 
L 291.351273 131.818667 
L 293.351589 132.864 
L 294.237091 133.314393 
L 297.122909 134.732317 
L 298.86256 135.552 
L 300.008727 136.078357 
L 302.894545 137.357844 
L 304.970927 138.24 
L 305.780364 138.575595 
L 308.666182 139.735972 
L 311.552 140.842937 
L 311.779393 140.928 
L 314.437818 141.900094 
L 317.323636 142.910733 
L 319.415635 143.616 
L 320.209455 143.877856 
L 323.095273 144.804215 
L 325.981091 145.692334 
L 328.040388 146.304 
L 328.866909 146.544534 
L 331.752727 147.362949 
L 334.638545 148.149551 
L 337.524364 148.906158 
L 337.858879 148.992 
L 340.410182 149.634455 
L 343.296 150.336 
" style="fill:none;stroke:#00bfa0;stroke-width:1.5;"/>
   </g>
   <g id="LineCollection_4">
    <path clip-path="url(#p2096aa50c7)" d="M 154.996364 307.584 
L 153.87875 304.896 
L 152.832 302.466462 
L 152.71852 302.208 
L 151.51319 299.52 
L 150.260075 296.832 
L 149.946182 296.174967 
L 148.956279 294.144 
L 147.598663 291.456 
L 147.060364 290.42006 
L 146.183823 288.768 
L 144.708065 286.08 
L 144.174545 285.135902 
L 143.167366 283.392 
L 141.557345 280.704 
L 141.288727 280.267002 
L 139.873215 278.016 
L 138.402909 275.766261 
L 138.109739 275.328 
L 136.261172 272.64 
L 135.517091 271.593443 
L 134.321206 269.952 
L 132.631273 267.713968 
L 132.28289 267.264 
L 130.138549 264.576 
L 129.745455 264.097956 
L 127.87969 261.888 
L 126.859636 260.719448 
L 125.496889 259.2 
L 123.973818 257.55579 
L 122.979656 256.512 
L 121.088 254.587119 
L 120.316284 253.824 
L 118.202182 251.795946 
L 117.493668 251.136 
L 115.316364 249.166816 
L 114.497085 248.448 
L 112.430545 246.686014 
L 111.30994 245.76 
L 109.544727 244.341333 
L 107.913458 243.072 
L 106.658909 242.121869 
L 104.286316 240.384 
L 103.773091 240.017852 
L 100.887273 238.020502 
L 100.40419 237.696 
L 98.001455 236.121909 
L 96.239213 235.008 
L 95.115636 234.314924 
L 92.229818 232.593074 
L 91.759304 232.32 
L 89.344 230.950481 
L 86.92734 229.632 
L 86.458182 229.381795 
L 83.572364 227.882139 
L 81.700123 226.944 
L 80.686545 226.447053 
L 77.800727 225.072455 
L 76.027087 224.256 
L 74.914909 223.754601 
L 72.029091 222.490047 
L 69.848659 221.568 
L 69.143273 221.275623 
L 66.257455 220.108408 
L 63.371636 218.985701 
L 63.094154 218.88 
L 60.485818 217.905003 
L 57.6 216.864 
" style="fill:none;stroke:#009fb0;stroke-width:1.5;"/>
    <path clip-path="url(#p2096aa50c7)" d="M 343.296 216.864 
L 340.410182 217.905003 
L 337.801846 218.88 
L 337.524364 218.985701 
L 334.638545 220.108408 
L 331.752727 221.275623 
L 331.047341 221.568 
L 328.866909 222.490047 
L 325.981091 223.754601 
L 324.868913 224.256 
L 323.095273 225.072455 
L 320.209455 226.447053 
L 319.195877 226.944 
L 317.323636 227.882139 
L 314.437818 229.381795 
L 313.96866 229.632 
L 311.552 230.950481 
L 309.136696 232.32 
L 308.666182 232.593074 
L 305.780364 234.314924 
L 304.656787 235.008 
L 302.894545 236.121909 
L 300.49181 237.696 
L 300.008727 238.020502 
L 297.122909 240.017852 
L 296.609684 240.384 
L 294.237091 242.121869 
L 292.982542 243.072 
L 291.351273 244.341333 
L 289.58606 245.76 
L 288.465455 246.686014 
L 286.398915 248.448 
L 285.579636 249.166816 
L 283.402332 251.136 
L 282.693818 251.795946 
L 280.579716 253.824 
L 279.808 254.587119 
L 277.916344 256.512 
L 276.922182 257.55579 
L 275.399111 259.2 
L 274.036364 260.719448 
L 273.01631 261.888 
L 271.150545 264.097956 
L 270.757451 264.576 
L 268.61311 267.264 
L 268.264727 267.713968 
L 266.574794 269.952 
L 265.378909 271.593443 
L 264.634828 272.64 
L 262.786261 275.328 
L 262.493091 275.766261 
L 261.022785 278.016 
L 259.607273 280.267002 
L 259.338655 280.704 
L 257.728634 283.392 
L 256.721455 285.135902 
L 256.187935 286.08 
L 254.712177 288.768 
L 253.835636 290.42006 
L 253.297337 291.456 
L 251.939721 294.144 
L 250.949818 296.174967 
L 250.635925 296.832 
L 249.38281 299.52 
L 248.17748 302.208 
L 248.064 302.466462 
L 247.01725 304.896 
L 245.899636 307.584 
" style="fill:none;stroke:#009fb0;stroke-width:1.5;"/>
    <path clip-path="url(#p2096aa50c7)" d="M 57.6 132.192 
L 60.485818 131.150997 
L 63.094154 130.176 
L 63.371636 130.070299 
L 66.257455 128.947592 
L 69.143273 127.780377 
L 69.848659 127.488 
L 72.029091 126.565953 
L 74.914909 125.301399 
L 76.027087 124.8 
L 77.800727 123.983545 
L 80.686545 122.608947 
L 81.700123 122.112 
L 83.572364 121.173861 
L 86.458182 119.674205 
L 86.92734 119.424 
L 89.344 118.105519 
L 91.759304 116.736 
L 92.229818 116.462926 
L 95.115636 114.741076 
L 96.239213 114.048 
L 98.001455 112.934091 
L 100.40419 111.36 
L 100.887273 111.035498 
L 103.773091 109.038148 
L 104.286316 108.672 
L 106.658909 106.934131 
L 107.913458 105.984 
L 109.544727 104.714667 
L 111.30994 103.296 
L 112.430545 102.369986 
L 114.497085 100.608 
L 115.316364 99.889184 
L 117.493668 97.92 
L 118.202182 97.260054 
L 120.316284 95.232 
L 121.088 94.468881 
L 122.979656 92.544 
L 123.973818 91.50021 
L 125.496889 89.856 
L 126.859636 88.336552 
L 127.87969 87.168 
L 129.745455 84.958044 
L 130.138549 84.48 
L 132.28289 81.792 
L 132.631273 81.342032 
L 134.321206 79.104 
L 135.517091 77.462557 
L 136.261172 76.416 
L 138.109739 73.728 
L 138.402909 73.289739 
L 139.873215 71.04 
L 141.288727 68.788998 
L 141.557345 68.352 
L 143.167366 65.664 
L 144.174545 63.920098 
L 144.708065 62.976 
L 146.183823 60.288 
L 147.060364 58.63594 
L 147.598663 57.6 
L 148.956279 54.912 
L 149.946182 52.881033 
L 150.260075 52.224 
L 151.51319 49.536 
L 152.71852 46.848 
L 152.832 46.589538 
L 153.87875 44.16 
L 154.996364 41.472 
" style="fill:none;stroke:#009fb0;stroke-width:1.5;"/>
    <path clip-path="url(#p2096aa50c7)" d="M 245.899636 41.472 
L 247.01725 44.16 
L 248.064 46.589538 
L 248.17748 46.848 
L 249.38281 49.536 
L 250.635925 52.224 
L 250.949818 52.881033 
L 251.939721 54.912 
L 253.297337 57.6 
L 253.835636 58.63594 
L 254.712177 60.288 
L 256.187935 62.976 
L 256.721455 63.920098 
L 257.728634 65.664 
L 259.338655 68.352 
L 259.607273 68.788998 
L 261.022785 71.04 
L 262.493091 73.289739 
L 262.786261 73.728 
L 264.634828 76.416 
L 265.378909 77.462557 
L 266.574794 79.104 
L 268.264727 81.342032 
L 268.61311 81.792 
L 270.757451 84.48 
L 271.150545 84.958044 
L 273.01631 87.168 
L 274.036364 88.336552 
L 275.399111 89.856 
L 276.922182 91.50021 
L 277.916344 92.544 
L 279.808 94.468881 
L 280.579716 95.232 
L 282.693818 97.260054 
L 283.402332 97.92 
L 285.579636 99.889184 
L 286.398915 100.608 
L 288.465455 102.369986 
L 289.58606 103.296 
L 291.351273 104.714667 
L 292.982542 105.984 
L 294.237091 106.934131 
L 296.609684 108.672 
L 297.122909 109.038148 
L 300.008727 111.035498 
L 300.49181 111.36 
L 302.894545 112.934091 
L 304.656787 114.048 
L 305.780364 114.741076 
L 308.666182 116.462926 
L 309.136696 116.736 
L 311.552 118.105519 
L 313.96866 119.424 
L 314.437818 119.674205 
L 317.323636 121.173861 
L 319.195877 122.112 
L 320.209455 122.608947 
L 323.095273 123.983545 
L 324.868913 124.8 
L 325.981091 125.301399 
L 328.866909 126.565953 
L 331.047341 127.488 
L 331.752727 127.780377 
L 334.638545 128.947592 
L 337.524364 130.070299 
L 337.801846 130.176 
L 340.410182 131.150997 
L 343.296 132.192 
" style="fill:none;stroke:#009fb0;stroke-width:1.5;"/>
   </g>
   <g id="LineCollection_5">
    <path clip-path="url(#p2096aa50c7)" d="M 135.517091 307.584 
L 135.517091 307.584 
L 134.035038 304.896 
L 132.631273 302.43948 
L 132.496473 302.208 
L 130.898099 299.52 
L 129.745455 297.644333 
L 129.236361 296.832 
L 127.507414 294.144 
L 126.859636 293.164138 
L 125.707096 291.456 
L 123.973818 288.968852 
L 123.830896 288.768 
L 121.873912 286.08 
L 121.088 285.032136 
L 119.830812 283.392 
L 118.202182 281.330798 
L 117.695784 280.704 
L 115.462481 278.016 
L 115.316364 277.844343 
L 113.123958 275.328 
L 112.430545 274.554584 
L 110.672598 272.64 
L 109.544727 271.445333 
L 108.100035 269.952 
L 106.658909 268.502131 
L 105.397049 267.264 
L 103.773091 265.712021 
L 102.553467 264.576 
L 100.887273 263.063361 
L 99.558024 261.888 
L 98.001455 260.545661 
L 96.398222 259.2 
L 95.115636 258.149443 
L 93.060152 256.512 
L 92.229818 255.86612 
L 89.52829 253.824 
L 89.344 253.687899 
L 86.458182 251.607685 
L 85.785256 251.136 
L 83.572364 249.61901 
L 81.811525 248.448 
L 80.686545 247.715961 
L 77.800727 245.893125 
L 77.585094 245.76 
L 74.914909 244.145536 
L 73.081064 243.072 
L 72.029091 242.468627 
L 69.143273 240.858196 
L 68.271158 240.384 
L 66.257455 239.310367 
L 63.371636 237.82156 
L 63.123121 237.696 
L 60.485818 236.38846 
L 57.6 235.008 
L 57.6 235.008 
" style="fill:none;stroke:#007fc0;stroke-width:1.5;"/>
    <path clip-path="url(#p2096aa50c7)" d="M 343.296 235.008 
L 343.296 235.008 
L 340.410182 236.38846 
L 337.772879 237.696 
L 337.524364 237.82156 
L 334.638545 239.310367 
L 332.624842 240.384 
L 331.752727 240.858196 
L 328.866909 242.468627 
L 327.814936 243.072 
L 325.981091 244.145536 
L 323.310906 245.76 
L 323.095273 245.893125 
L 320.209455 247.715961 
L 319.084475 248.448 
L 317.323636 249.61901 
L 315.110744 251.136 
L 314.437818 251.607685 
L 311.552 253.687899 
L 311.36771 253.824 
L 308.666182 255.86612 
L 307.835848 256.512 
L 305.780364 258.149443 
L 304.497778 259.2 
L 302.894545 260.545661 
L 301.337976 261.888 
L 300.008727 263.063361 
L 298.342533 264.576 
L 297.122909 265.712021 
L 295.498951 267.264 
L 294.237091 268.502131 
L 292.795965 269.952 
L 291.351273 271.445333 
L 290.223402 272.64 
L 288.465455 274.554584 
L 287.772042 275.328 
L 285.579636 277.844343 
L 285.433519 278.016 
L 283.200216 280.704 
L 282.693818 281.330798 
L 281.065188 283.392 
L 279.808 285.032136 
L 279.022088 286.08 
L 277.065104 288.768 
L 276.922182 288.968852 
L 275.188904 291.456 
L 274.036364 293.164138 
L 273.388586 294.144 
L 271.659639 296.832 
L 271.150545 297.644333 
L 269.997901 299.52 
L 268.399527 302.208 
L 268.264727 302.43948 
L 266.860962 304.896 
L 265.378909 307.584 
" style="fill:none;stroke:#007fc0;stroke-width:1.5;"/>
    <path clip-path="url(#p2096aa50c7)" d="M 57.6 114.048 
L 60.485818 112.66754 
L 63.123121 111.36 
L 63.371636 111.23444 
L 66.257455 109.745633 
L 68.271158 108.672 
L 69.143273 108.197804 
L 72.029091 106.587373 
L 73.081064 105.984 
L 74.914909 104.910464 
L 77.585094 103.296 
L 77.800727 103.162875 
L 80.686545 101.340039 
L 81.811525 100.608 
L 83.572364 99.43699 
L 85.785256 97.92 
L 86.458182 97.448315 
L 89.344 95.368101 
L 89.52829 95.232 
L 92.229818 93.18988 
L 93.060152 92.544 
L 95.115636 90.906557 
L 96.398222 89.856 
L 98.001455 88.510339 
L 99.558024 87.168 
L 100.887273 85.992639 
L 102.553467 84.48 
L 103.773091 83.343979 
L 105.397049 81.792 
L 106.658909 80.553869 
L 108.100035 79.104 
L 109.544727 77.610667 
L 110.672598 76.416 
L 112.430545 74.501416 
L 113.123958 73.728 
L 115.316364 71.211657 
L 115.462481 71.04 
L 117.695784 68.352 
L 118.202182 67.725202 
L 119.830812 65.664 
L 121.088 64.023864 
L 121.873912 62.976 
L 123.830896 60.288 
L 123.973818 60.087148 
L 125.707096 57.6 
L 126.859636 55.891862 
L 127.507414 54.912 
L 129.236361 52.224 
L 129.745455 51.411667 
L 130.898099 49.536 
L 132.496473 46.848 
L 132.631273 46.61652 
L 134.035038 44.16 
L 135.517091 41.472 
L 135.517091 41.472 
" style="fill:none;stroke:#007fc0;stroke-width:1.5;"/>
    <path clip-path="url(#p2096aa50c7)" d="M 265.378909 41.472 
L 266.860962 44.16 
L 268.264727 46.61652 
L 268.399527 46.848 
L 269.997901 49.536 
L 271.150545 51.411667 
L 271.659639 52.224 
L 273.388586 54.912 
L 274.036364 55.891862 
L 275.188904 57.6 
L 276.922182 60.087148 
L 277.065104 60.288 
L 279.022088 62.976 
L 279.808 64.023864 
L 281.065188 65.664 
L 282.693818 67.725202 
L 283.200216 68.352 
L 285.433519 71.04 
L 285.579636 71.211657 
L 287.772042 73.728 
L 288.465455 74.501416 
L 290.223402 76.416 
L 291.351273 77.610667 
L 292.795965 79.104 
L 294.237091 80.553869 
L 295.498951 81.792 
L 297.122909 83.343979 
L 298.342533 84.48 
L 300.008727 85.992639 
L 301.337976 87.168 
L 302.894545 88.510339 
L 304.497778 89.856 
L 305.780364 90.906557 
L 307.835848 92.544 
L 308.666182 93.18988 
L 311.36771 95.232 
L 311.552 95.368101 
L 314.437818 97.448315 
L 315.110744 97.92 
L 317.323636 99.43699 
L 319.084475 100.608 
L 320.209455 101.340039 
L 323.095273 103.162875 
L 323.310906 103.296 
L 325.981091 104.910464 
L 327.814936 105.984 
L 328.866909 106.587373 
L 331.752727 108.197804 
L 332.624842 108.672 
L 334.638545 109.745633 
L 337.524364 111.23444 
L 337.772879 111.36 
L 340.410182 112.66754 
L 343.296 114.048 
" style="fill:none;stroke:#007fc0;stroke-width:1.5;"/>
   </g>
   <g id="LineCollection_6">
    <path clip-path="url(#p2096aa50c7)" d="M 116.037818 307.584 
L 115.316364 306.521869 
L 114.191326 304.896 
L 112.430545 302.423154 
L 112.274425 302.208 
L 110.283009 299.52 
L 109.544727 298.549333 
L 108.212646 296.832 
L 106.658909 294.882393 
L 106.058548 294.144 
L 103.815529 291.456 
L 103.773091 291.40619 
L 101.477968 288.768 
L 100.887273 288.106221 
L 99.039759 286.08 
L 98.001455 284.969414 
L 96.494257 283.392 
L 95.115636 281.983961 
L 93.834223 280.704 
L 92.229818 279.139166 
L 91.051747 278.016 
L 89.344 276.425316 
L 88.138177 275.328 
L 86.458182 273.833575 
L 85.084024 272.64 
L 83.572364 271.355881 
L 81.878863 269.952 
L 80.686545 268.98487 
L 78.511209 267.264 
L 77.800727 266.713796 
L 74.968385 264.576 
L 74.914909 264.536471 
L 72.029091 262.447207 
L 71.236358 261.888 
L 69.143273 260.440769 
L 67.299556 259.2 
L 66.257455 258.512327 
L 63.371636 256.657418 
L 63.140649 256.512 
L 60.485818 254.871918 
L 58.740296 253.824 
L 57.6 253.152 
" style="fill:none;stroke:#005fd0;stroke-width:1.5;"/>
    <path clip-path="url(#p2096aa50c7)" d="M 343.296 253.152 
L 342.155704 253.824 
L 340.410182 254.871918 
L 337.755351 256.512 
L 337.524364 256.657418 
L 334.638545 258.512327 
L 333.596444 259.2 
L 331.752727 260.440769 
L 329.659642 261.888 
L 328.866909 262.447207 
L 325.981091 264.536471 
L 325.927615 264.576 
L 323.095273 266.713796 
L 322.384791 267.264 
L 320.209455 268.98487 
L 319.017137 269.952 
L 317.323636 271.355881 
L 315.811976 272.64 
L 314.437818 273.833575 
L 312.757823 275.328 
L 311.552 276.425316 
L 309.844253 278.016 
L 308.666182 279.139166 
L 307.061777 280.704 
L 305.780364 281.983961 
L 304.401743 283.392 
L 302.894545 284.969414 
L 301.856241 286.08 
L 300.008727 288.106221 
L 299.418032 288.768 
L 297.122909 291.40619 
L 297.080471 291.456 
L 294.837452 294.144 
L 294.237091 294.882393 
L 292.683354 296.832 
L 291.351273 298.549333 
L 290.612991 299.52 
L 288.621575 302.208 
L 288.465455 302.423154 
L 286.704674 304.896 
L 285.579636 306.521869 
L 284.858182 307.584 
" style="fill:none;stroke:#005fd0;stroke-width:1.5;"/>
    <path clip-path="url(#p2096aa50c7)" d="M 57.6 95.904 
L 58.740296 95.232 
L 60.485818 94.184082 
L 63.140649 92.544 
L 63.371636 92.398582 
L 66.257455 90.543673 
L 67.299556 89.856 
L 69.143273 88.615231 
L 71.236358 87.168 
L 72.029091 86.608793 
L 74.914909 84.519529 
L 74.968385 84.48 
L 77.800727 82.342204 
L 78.511209 81.792 
L 80.686545 80.07113 
L 81.878863 79.104 
L 83.572364 77.700119 
L 85.084024 76.416 
L 86.458182 75.222425 
L 88.138177 73.728 
L 89.344 72.630684 
L 91.051747 71.04 
L 92.229818 69.916834 
L 93.834223 68.352 
L 95.115636 67.072039 
L 96.494257 65.664 
L 98.001455 64.086586 
L 99.039759 62.976 
L 100.887273 60.949779 
L 101.477968 60.288 
L 103.773091 57.64981 
L 103.815529 57.6 
L 106.058548 54.912 
L 106.658909 54.173607 
L 108.212646 52.224 
L 109.544727 50.506667 
L 110.283009 49.536 
L 112.274425 46.848 
L 112.430545 46.632846 
L 114.191326 44.16 
L 115.316364 42.534131 
L 116.037818 41.472 
" style="fill:none;stroke:#005fd0;stroke-width:1.5;"/>
    <path clip-path="url(#p2096aa50c7)" d="M 284.858182 41.472 
L 285.579636 42.534131 
L 286.704674 44.16 
L 288.465455 46.632846 
L 288.621575 46.848 
L 290.612991 49.536 
L 291.351273 50.506667 
L 292.683354 52.224 
L 294.237091 54.173607 
L 294.837452 54.912 
L 297.080471 57.6 
L 297.122909 57.64981 
L 299.418032 60.288 
L 300.008727 60.949779 
L 301.856241 62.976 
L 302.894545 64.086586 
L 304.401743 65.664 
L 305.780364 67.072039 
L 307.061777 68.352 
L 308.666182 69.916834 
L 309.844253 71.04 
L 311.552 72.630684 
L 312.757823 73.728 
L 314.437818 75.222425 
L 315.811976 76.416 
L 317.323636 77.700119 
L 319.017137 79.104 
L 320.209455 80.07113 
L 322.384791 81.792 
L 323.095273 82.342204 
L 325.927615 84.48 
L 325.981091 84.519529 
L 328.866909 86.608793 
L 329.659642 87.168 
L 331.752727 88.615231 
L 333.596444 89.856 
L 334.638545 90.543673 
L 337.524364 92.398582 
L 337.755351 92.544 
L 340.410182 94.184082 
L 342.155704 95.232 
L 343.296 95.904 
" style="fill:none;stroke:#005fd0;stroke-width:1.5;"/>
   </g>
   <g id="LineCollection_7">
    <path clip-path="url(#p2096aa50c7)" d="M 96.558545 307.584 
L 95.115636 305.81848 
L 94.347615 304.896 
L 92.229818 302.412212 
L 92.052378 302.208 
L 89.667918 299.52 
L 89.344 299.162734 
L 87.188932 296.832 
L 86.458182 296.059465 
L 84.609683 294.144 
L 83.572364 293.092752 
L 81.923963 291.456 
L 80.686545 290.253778 
L 79.125041 288.768 
L 77.800727 287.534466 
L 76.205606 286.08 
L 74.914909 284.927406 
L 73.157703 283.392 
L 72.029091 282.425788 
L 69.972661 280.704 
L 69.143273 280.023342 
L 66.641013 278.016 
L 66.257455 277.714286 
L 63.371636 275.493277 
L 63.152396 275.328 
L 60.485818 273.355375 
L 59.49545 272.64 
L 57.6 271.296 
" style="fill:none;stroke:#003fe0;stroke-width:1.5;"/>
    <path clip-path="url(#p2096aa50c7)" d="M 343.296 271.296 
L 341.40055 272.64 
L 340.410182 273.355375 
L 337.743604 275.328 
L 337.524364 275.493277 
L 334.638545 277.714286 
L 334.254987 278.016 
L 331.752727 280.023342 
L 330.923339 280.704 
L 328.866909 282.425788 
L 327.738297 283.392 
L 325.981091 284.927406 
L 324.690394 286.08 
L 323.095273 287.534466 
L 321.770959 288.768 
L 320.209455 290.253778 
L 318.972037 291.456 
L 317.323636 293.092752 
L 316.286317 294.144 
L 314.437818 296.059465 
L 313.707068 296.832 
L 311.552 299.162734 
L 311.228082 299.52 
L 308.843622 302.208 
L 308.666182 302.412212 
L 306.548385 304.896 
L 305.780364 305.81848 
L 304.337455 307.584 
" style="fill:none;stroke:#003fe0;stroke-width:1.5;"/>
    <path clip-path="url(#p2096aa50c7)" d="M 57.6 77.76 
L 59.49545 76.416 
L 60.485818 75.700625 
L 63.152396 73.728 
L 63.371636 73.562723 
L 66.257455 71.341714 
L 66.641013 71.04 
L 69.143273 69.032658 
L 69.972661 68.352 
L 72.029091 66.630212 
L 73.157703 65.664 
L 74.914909 64.128594 
L 76.205606 62.976 
L 77.800727 61.521534 
L 79.125041 60.288 
L 80.686545 58.802222 
L 81.923963 57.6 
L 83.572364 55.963248 
L 84.609683 54.912 
L 86.458182 52.996535 
L 87.188932 52.224 
L 89.344 49.893266 
L 89.667918 49.536 
L 92.052378 46.848 
L 92.229818 46.643788 
L 94.347615 44.16 
L 95.115636 43.23752 
L 96.558545 41.472 
" style="fill:none;stroke:#003fe0;stroke-width:1.5;"/>
    <path clip-path="url(#p2096aa50c7)" d="M 304.337455 41.472 
L 305.780364 43.23752 
L 306.548385 44.16 
L 308.666182 46.643788 
L 308.843622 46.848 
L 311.228082 49.536 
L 311.552 49.893266 
L 313.707068 52.224 
L 314.437818 52.996535 
L 316.286317 54.912 
L 317.323636 55.963248 
L 318.972037 57.6 
L 320.209455 58.802222 
L 321.770959 60.288 
L 323.095273 61.521534 
L 324.690394 62.976 
L 325.981091 64.128594 
L 327.738297 65.664 
L 328.866909 66.630212 
L 330.923339 68.352 
L 331.752727 69.032658 
L 334.254987 71.04 
L 334.638545 71.341714 
L 337.524364 73.562723 
L 337.743604 73.728 
L 340.410182 75.700625 
L 341.40055 76.416 
L 343.296 77.76 
" style="fill:none;stroke:#003fe0;stroke-width:1.5;"/>
   </g>
   <g id="LineCollection_8">
    <path clip-path="url(#p2096aa50c7)" d="M 77.079273 307.584 
L 74.914909 305.318341 
L 74.503903 304.896 
L 72.029091 302.404368 
L 71.83033 302.208 
L 69.143273 299.605915 
L 69.052828 299.52 
L 66.257455 296.916245 
L 66.165217 296.832 
L 63.371636 294.329136 
L 63.160817 294.144 
L 60.485818 291.838833 
L 60.032396 291.456 
L 57.6 289.44 
" style="fill:none;stroke:#001ff0;stroke-width:1.5;"/>
    <path clip-path="url(#p2096aa50c7)" d="M 343.296 289.44 
L 340.863604 291.456 
L 340.410182 291.838833 
L 337.735183 294.144 
L 337.524364 294.329136 
L 334.730783 296.832 
L 334.638545 296.916245 
L 331.843172 299.52 
L 331.752727 299.605915 
L 329.06567 302.208 
L 328.866909 302.404368 
L 326.392097 304.896 
L 325.981091 305.318341 
L 323.816727 307.584 
" style="fill:none;stroke:#001ff0;stroke-width:1.5;"/>
    <path clip-path="url(#p2096aa50c7)" d="M 57.6 59.616 
L 60.032396 57.6 
L 60.485818 57.217167 
L 63.160817 54.912 
L 63.371636 54.726864 
L 66.165217 52.224 
L 66.257455 52.139755 
L 69.052828 49.536 
L 69.143273 49.450085 
L 71.83033 46.848 
L 72.029091 46.651632 
L 74.503903 44.16 
L 74.914909 43.737659 
L 77.079273 41.472 
" style="fill:none;stroke:#001ff0;stroke-width:1.5;"/>
    <path clip-path="url(#p2096aa50c7)" d="M 323.816727 41.472 
L 325.981091 43.737659 
L 326.392097 44.16 
L 328.866909 46.651632 
L 329.06567 46.848 
L 331.752727 49.450085 
L 331.843172 49.536 
L 334.638545 52.139755 
L 334.730783 52.224 
L 337.524364 54.726864 
L 337.735183 54.912 
L 340.410182 57.217167 
L 340.863604 57.6 
L 343.296 59.616 
" style="fill:none;stroke:#001ff0;stroke-width:1.5;"/>
   </g>
   <g id="LineCollection_9"/>
   <g id="patch_3">
    <path d="M 57.6 307.584 
L 57.6 41.472 
" style="fill:none;stroke:#000000;stroke-linecap:square;stroke-linejoin:miter;stroke-width:0.8;"/>
   </g>
   <g id="patch_4">
    <path d="M 343.296 307.584 
L 343.296 41.472 
" style="fill:none;stroke:#000000;stroke-linecap:square;stroke-linejoin:miter;stroke-width:0.8;"/>
   </g>
   <g id="patch_5">
    <path d="M 57.6 307.584 
L 343.296 307.584 
" style="fill:none;stroke:#000000;stroke-linecap:square;stroke-linejoin:miter;stroke-width:0.8;"/>
   </g>
   <g id="patch_6">
    <path d="M 57.6 41.472 
L 343.296 41.472 
" style="fill:none;stroke:#000000;stroke-linecap:square;stroke-linejoin:miter;stroke-width:0.8;"/>
   </g>
  </g>
  <g id="axes_2">
   <g id="patch_7">
    <path clip-path="url(#p51d64fa2ba)" d="M 361.152 307.584 
L 361.152 274.32 
L 361.152 74.736 
L 361.152 41.472 
L 374.4576 41.472 
L 374.4576 74.736 
L 374.4576 274.32 
L 374.4576 307.584 
z
" style="fill:#ffffff;stroke:#ffffff;stroke-linejoin:miter;stroke-width:0.01;"/>
   </g>
   <g id="matplotlib.axis_3"/>
   <g id="matplotlib.axis_4">
    <g id="ytick_10">
     <g id="line2d_19">
      <defs>
       <path d="M 0 0 
L 3.5 0 
" id="m991af5184e" style="stroke:#000000;stroke-width:0.8;"/>
      </defs>
      <g>
       <use style="stroke:#000000;stroke-width:0.8;" x="374.4576" xlink:href="#m991af5184e" y="307.584"/>
      </g>
     </g>
     <g id="text_19">
      <!-- 0 -->
      <g transform="translate(381.4576 311.383219)scale(0.1 -0.1)">
       <use xlink:href="#DejaVuSans-48"/>
      </g>
     </g>
    </g>
    <g id="ytick_11">
     <g id="line2d_20">
      <g>
       <use style="stroke:#000000;stroke-width:0.8;" x="374.4576" xlink:href="#m991af5184e" y="274.32"/>
      </g>
     </g>
     <g id="text_20">
      <!-- 15 -->
      <g transform="translate(381.4576 278.119219)scale(0.1 -0.1)">
       <use xlink:href="#DejaVuSans-49"/>
       <use x="63.623047" xlink:href="#DejaVuSans-53"/>
      </g>
     </g>
    </g>
    <g id="ytick_12">
     <g id="line2d_21">
      <g>
       <use style="stroke:#000000;stroke-width:0.8;" x="374.4576" xlink:href="#m991af5184e" y="241.056"/>
      </g>
     </g>
     <g id="text_21">
      <!-- 30 -->
      <defs>
       <path d="M 40.578125 39.3125 
Q 47.65625 37.796875 51.625 33 
Q 55.609375 28.21875 55.609375 21.1875 
Q 55.609375 10.40625 48.1875 4.484375 
Q 40.765625 -1.421875 27.09375 -1.421875 
Q 22.515625 -1.421875 17.65625 -0.515625 
Q 12.796875 0.390625 7.625 2.203125 
L 7.625 11.71875 
Q 11.71875 9.328125 16.59375 8.109375 
Q 21.484375 6.890625 26.8125 6.890625 
Q 36.078125 6.890625 40.9375 10.546875 
Q 45.796875 14.203125 45.796875 21.1875 
Q 45.796875 27.640625 41.28125 31.265625 
Q 36.765625 34.90625 28.71875 34.90625 
L 20.21875 34.90625 
L 20.21875 43.015625 
L 29.109375 43.015625 
Q 36.375 43.015625 40.234375 45.921875 
Q 44.09375 48.828125 44.09375 54.296875 
Q 44.09375 59.90625 40.109375 62.90625 
Q 36.140625 65.921875 28.71875 65.921875 
Q 24.65625 65.921875 20.015625 65.03125 
Q 15.375 64.15625 9.8125 62.3125 
L 9.8125 71.09375 
Q 15.4375 72.65625 20.34375 73.4375 
Q 25.25 74.21875 29.59375 74.21875 
Q 40.828125 74.21875 47.359375 69.109375 
Q 53.90625 64.015625 53.90625 55.328125 
Q 53.90625 49.265625 50.4375 45.09375 
Q 46.96875 40.921875 40.578125 39.3125 
z
" id="DejaVuSans-51"/>
      </defs>
      <g transform="translate(381.4576 244.855219)scale(0.1 -0.1)">
       <use xlink:href="#DejaVuSans-51"/>
       <use x="63.623047" xlink:href="#DejaVuSans-48"/>
      </g>
     </g>
    </g>
    <g id="ytick_13">
     <g id="line2d_22">
      <g>
       <use style="stroke:#000000;stroke-width:0.8;" x="374.4576" xlink:href="#m991af5184e" y="207.792"/>
      </g>
     </g>
     <g id="text_22">
      <!-- 45 -->
      <defs>
       <path d="M 37.796875 64.3125 
L 12.890625 25.390625 
L 37.796875 25.390625 
z
M 35.203125 72.90625 
L 47.609375 72.90625 
L 47.609375 25.390625 
L 58.015625 25.390625 
L 58.015625 17.1875 
L 47.609375 17.1875 
L 47.609375 0 
L 37.796875 0 
L 37.796875 17.1875 
L 4.890625 17.1875 
L 4.890625 26.703125 
z
" id="DejaVuSans-52"/>
      </defs>
      <g transform="translate(381.4576 211.591219)scale(0.1 -0.1)">
       <use xlink:href="#DejaVuSans-52"/>
       <use x="63.623047" xlink:href="#DejaVuSans-53"/>
      </g>
     </g>
    </g>
    <g id="ytick_14">
     <g id="line2d_23">
      <g>
       <use style="stroke:#000000;stroke-width:0.8;" x="374.4576" xlink:href="#m991af5184e" y="174.528"/>
      </g>
     </g>
     <g id="text_23">
      <!-- 60 -->
      <defs>
       <path d="M 33.015625 40.375 
Q 26.375 40.375 22.484375 35.828125 
Q 18.609375 31.296875 18.609375 23.390625 
Q 18.609375 15.53125 22.484375 10.953125 
Q 26.375 6.390625 33.015625 6.390625 
Q 39.65625 6.390625 43.53125 10.953125 
Q 47.40625 15.53125 47.40625 23.390625 
Q 47.40625 31.296875 43.53125 35.828125 
Q 39.65625 40.375 33.015625 40.375 
z
M 52.59375 71.296875 
L 52.59375 62.3125 
Q 48.875 64.0625 45.09375 64.984375 
Q 41.3125 65.921875 37.59375 65.921875 
Q 27.828125 65.921875 22.671875 59.328125 
Q 17.53125 52.734375 16.796875 39.40625 
Q 19.671875 43.65625 24.015625 45.921875 
Q 28.375 48.1875 33.59375 48.1875 
Q 44.578125 48.1875 50.953125 41.515625 
Q 57.328125 34.859375 57.328125 23.390625 
Q 57.328125 12.15625 50.6875 5.359375 
Q 44.046875 -1.421875 33.015625 -1.421875 
Q 20.359375 -1.421875 13.671875 8.265625 
Q 6.984375 17.96875 6.984375 36.375 
Q 6.984375 53.65625 15.1875 63.9375 
Q 23.390625 74.21875 37.203125 74.21875 
Q 40.921875 74.21875 44.703125 73.484375 
Q 48.484375 72.75 52.59375 71.296875 
z
" id="DejaVuSans-54"/>
      </defs>
      <g transform="translate(381.4576 178.327219)scale(0.1 -0.1)">
       <use xlink:href="#DejaVuSans-54"/>
       <use x="63.623047" xlink:href="#DejaVuSans-48"/>
      </g>
     </g>
    </g>
    <g id="ytick_15">
     <g id="line2d_24">
      <g>
       <use style="stroke:#000000;stroke-width:0.8;" x="374.4576" xlink:href="#m991af5184e" y="141.264"/>
      </g>
     </g>
     <g id="text_24">
      <!-- 75 -->
      <g transform="translate(381.4576 145.063219)scale(0.1 -0.1)">
       <use xlink:href="#DejaVuSans-55"/>
       <use x="63.623047" xlink:href="#DejaVuSans-53"/>
      </g>
     </g>
    </g>
    <g id="ytick_16">
     <g id="line2d_25">
      <g>
       <use style="stroke:#000000;stroke-width:0.8;" x="374.4576" xlink:href="#m991af5184e" y="108"/>
      </g>
     </g>
     <g id="text_25">
      <!-- 90 -->
      <defs>
       <path d="M 10.984375 1.515625 
L 10.984375 10.5 
Q 14.703125 8.734375 18.5 7.8125 
Q 22.3125 6.890625 25.984375 6.890625 
Q 35.75 6.890625 40.890625 13.453125 
Q 46.046875 20.015625 46.78125 33.40625 
Q 43.953125 29.203125 39.59375 26.953125 
Q 35.25 24.703125 29.984375 24.703125 
Q 19.046875 24.703125 12.671875 31.3125 
Q 6.296875 37.9375 6.296875 49.421875 
Q 6.296875 60.640625 12.9375 67.421875 
Q 19.578125 74.21875 30.609375 74.21875 
Q 43.265625 74.21875 49.921875 64.515625 
Q 56.59375 54.828125 56.59375 36.375 
Q 56.59375 19.140625 48.40625 8.859375 
Q 40.234375 -1.421875 26.421875 -1.421875 
Q 22.703125 -1.421875 18.890625 -0.6875 
Q 15.09375 0.046875 10.984375 1.515625 
z
M 30.609375 32.421875 
Q 37.25 32.421875 41.125 36.953125 
Q 45.015625 41.5 45.015625 49.421875 
Q 45.015625 57.28125 41.125 61.84375 
Q 37.25 66.40625 30.609375 66.40625 
Q 23.96875 66.40625 20.09375 61.84375 
Q 16.21875 57.28125 16.21875 49.421875 
Q 16.21875 41.5 20.09375 36.953125 
Q 23.96875 32.421875 30.609375 32.421875 
z
" id="DejaVuSans-57"/>
      </defs>
      <g transform="translate(381.4576 111.799219)scale(0.1 -0.1)">
       <use xlink:href="#DejaVuSans-57"/>
       <use x="63.623047" xlink:href="#DejaVuSans-48"/>
      </g>
     </g>
    </g>
    <g id="ytick_17">
     <g id="line2d_26">
      <g>
       <use style="stroke:#000000;stroke-width:0.8;" x="374.4576" xlink:href="#m991af5184e" y="74.736"/>
      </g>
     </g>
     <g id="text_26">
      <!-- 105 -->
      <g transform="translate(381.4576 78.535219)scale(0.1 -0.1)">
       <use xlink:href="#DejaVuSans-49"/>
       <use x="63.623047" xlink:href="#DejaVuSans-48"/>
       <use x="127.246094" xlink:href="#DejaVuSans-53"/>
      </g>
     </g>
    </g>
    <g id="ytick_18">
     <g id="line2d_27">
      <g>
       <use style="stroke:#000000;stroke-width:0.8;" x="374.4576" xlink:href="#m991af5184e" y="41.472"/>
      </g>
     </g>
     <g id="text_27">
      <!-- 120 -->
      <g transform="translate(381.4576 45.271219)scale(0.1 -0.1)">
       <use xlink:href="#DejaVuSans-49"/>
       <use x="63.623047" xlink:href="#DejaVuSans-50"/>
       <use x="127.246094" xlink:href="#DejaVuSans-48"/>
      </g>
     </g>
    </g>
   </g>
   <g id="LineCollection_10">
    <path clip-path="url(#p51d64fa2ba)" d="M 361.152 307.584 
L 374.4576 307.584 
" style="fill:none;stroke:#00ff80;stroke-width:1.5;"/>
    <path clip-path="url(#p51d64fa2ba)" d="M 361.152 274.32 
L 374.4576 274.32 
" style="fill:none;stroke:#00df90;stroke-width:1.5;"/>
    <path clip-path="url(#p51d64fa2ba)" d="M 361.152 241.056 
L 374.4576 241.056 
" style="fill:none;stroke:#00bfa0;stroke-width:1.5;"/>
    <path clip-path="url(#p51d64fa2ba)" d="M 361.152 207.792 
L 374.4576 207.792 
" style="fill:none;stroke:#009fb0;stroke-width:1.5;"/>
    <path clip-path="url(#p51d64fa2ba)" d="M 361.152 174.528 
L 374.4576 174.528 
" style="fill:none;stroke:#007fc0;stroke-width:1.5;"/>
    <path clip-path="url(#p51d64fa2ba)" d="M 361.152 141.264 
L 374.4576 141.264 
" style="fill:none;stroke:#005fd0;stroke-width:1.5;"/>
    <path clip-path="url(#p51d64fa2ba)" d="M 361.152 108 
L 374.4576 108 
" style="fill:none;stroke:#003fe0;stroke-width:1.5;"/>
    <path clip-path="url(#p51d64fa2ba)" d="M 361.152 74.736 
L 374.4576 74.736 
" style="fill:none;stroke:#001ff0;stroke-width:1.5;"/>
    <path clip-path="url(#p51d64fa2ba)" d="M 361.152 41.472 
L 374.4576 41.472 
" style="fill:none;stroke:#0000ff;stroke-width:1.5;"/>
   </g>
   <g id="patch_8">
    <path d="M 361.152 307.584 
L 361.152 274.32 
L 361.152 74.736 
L 361.152 41.472 
L 374.4576 41.472 
L 374.4576 74.736 
L 374.4576 274.32 
L 374.4576 307.584 
z
" style="fill:none;stroke:#000000;stroke-linejoin:miter;stroke-width:0.8;"/>
   </g>
  </g>
 </g>
 <defs>
  <clipPath id="p2096aa50c7">
   <rect height="266.112" width="285.696" x="57.6" y="41.472"/>
  </clipPath>
  <clipPath id="p51d64fa2ba">
   <rect height="266.112" width="13.3056" x="361.152" y="41.472"/>
  </clipPath>
 </defs>
</svg>
