<?xml version="1.0" encoding="utf-8" standalone="no"?>
<!DOCTYPE svg PUBLIC "-//W3C//DTD SVG 1.1//EN"
  "http://www.w3.org/Graphics/SVG/1.1/DTD/svg11.dtd">
<!-- Created with matplotlib (https://matplotlib.org/) -->
<svg height="345.6pt" version="1.1" viewBox="0 0 460.8 345.6" width="460.8pt" xmlns="http://www.w3.org/2000/svg" xmlns:xlink="http://www.w3.org/1999/xlink">
 <defs>
  <style type="text/css">
*{stroke-linecap:butt;stroke-linejoin:round;}
  </style>
 </defs>
 <g id="figure_1">
  <g id="patch_1">
   <path d="M 0 345.6 
L 460.8 345.6 
L 460.8 0 
L 0 0 
z
" style="fill:#ffffff;"/>
  </g>
  <g id="axes_1">
   <g id="patch_2">
    <path d="M 57.6 307.584 
L 343.296 307.584 
L 343.296 41.472 
L 57.6 41.472 
z
" style="fill:#ffffff;"/>
   </g>
   <g id="matplotlib.axis_1">
    <g id="xtick_1">
     <g id="line2d_1">
      <defs>
       <path d="M 0 0 
L 0 3.5 
" id="mba4b3f69cc" style="stroke:#000000;stroke-width:0.8;"/>
      </defs>
      <g>
       <use style="stroke:#000000;stroke-width:0.8;" x="57.6" xlink:href="#mba4b3f69cc" y="307.584"/>
      </g>
     </g>
     <g id="text_1">
      <!-- −10.0 -->
      <defs>
       <path d="M 10.59375 35.5 
L 73.1875 35.5 
L 73.1875 27.203125 
L 10.59375 27.203125 
z
" id="DejaVuSans-8722"/>
       <path d="M 12.40625 8.296875 
L 28.515625 8.296875 
L 28.515625 63.921875 
L 10.984375 60.40625 
L 10.984375 69.390625 
L 28.421875 72.90625 
L 38.28125 72.90625 
L 38.28125 8.296875 
L 54.390625 8.296875 
L 54.390625 0 
L 12.40625 0 
z
" id="DejaVuSans-49"/>
       <path d="M 31.78125 66.40625 
Q 24.171875 66.40625 20.328125 58.90625 
Q 16.5 51.421875 16.5 36.375 
Q 16.5 21.390625 20.328125 13.890625 
Q 24.171875 6.390625 31.78125 6.390625 
Q 39.453125 6.390625 43.28125 13.890625 
Q 47.125 21.390625 47.125 36.375 
Q 47.125 51.421875 43.28125 58.90625 
Q 39.453125 66.40625 31.78125 66.40625 
z
M 31.78125 74.21875 
Q 44.046875 74.21875 50.515625 64.515625 
Q 56.984375 54.828125 56.984375 36.375 
Q 56.984375 17.96875 50.515625 8.265625 
Q 44.046875 -1.421875 31.78125 -1.421875 
Q 19.53125 -1.421875 13.0625 8.265625 
Q 6.59375 17.96875 6.59375 36.375 
Q 6.59375 54.828125 13.0625 64.515625 
Q 19.53125 74.21875 31.78125 74.21875 
z
" id="DejaVuSans-48"/>
       <path d="M 10.6875 12.40625 
L 21 12.40625 
L 21 0 
L 10.6875 0 
z
" id="DejaVuSans-46"/>
      </defs>
      <g transform="translate(42.277344 322.182437)scale(0.1 -0.1)">
       <use xlink:href="#DejaVuSans-8722"/>
       <use x="83.789062" xlink:href="#DejaVuSans-49"/>
       <use x="147.412109" xlink:href="#DejaVuSans-48"/>
       <use x="211.035156" xlink:href="#DejaVuSans-46"/>
       <use x="242.822266" xlink:href="#DejaVuSans-48"/>
      </g>
     </g>
    </g>
    <g id="xtick_2">
     <g id="line2d_2">
      <g>
       <use style="stroke:#000000;stroke-width:0.8;" x="93.312" xlink:href="#mba4b3f69cc" y="307.584"/>
      </g>
     </g>
     <g id="text_2">
      <!-- −7.5 -->
      <defs>
       <path d="M 8.203125 72.90625 
L 55.078125 72.90625 
L 55.078125 68.703125 
L 28.609375 0 
L 18.3125 0 
L 43.21875 64.59375 
L 8.203125 64.59375 
z
" id="DejaVuSans-55"/>
       <path d="M 10.796875 72.90625 
L 49.515625 72.90625 
L 49.515625 64.59375 
L 19.828125 64.59375 
L 19.828125 46.734375 
Q 21.96875 47.46875 24.109375 47.828125 
Q 26.265625 48.1875 28.421875 48.1875 
Q 40.625 48.1875 47.75 41.5 
Q 54.890625 34.8125 54.890625 23.390625 
Q 54.890625 11.625 47.5625 5.09375 
Q 40.234375 -1.421875 26.90625 -1.421875 
Q 22.3125 -1.421875 17.546875 -0.640625 
Q 12.796875 0.140625 7.71875 1.703125 
L 7.71875 11.625 
Q 12.109375 9.234375 16.796875 8.0625 
Q 21.484375 6.890625 26.703125 6.890625 
Q 35.15625 6.890625 40.078125 11.328125 
Q 45.015625 15.765625 45.015625 23.390625 
Q 45.015625 31 40.078125 35.4375 
Q 35.15625 39.890625 26.703125 39.890625 
Q 22.75 39.890625 18.8125 39.015625 
Q 14.890625 38.140625 10.796875 36.28125 
z
" id="DejaVuSans-53"/>
      </defs>
      <g transform="translate(81.170594 322.182437)scale(0.1 -0.1)">
       <use xlink:href="#DejaVuSans-8722"/>
       <use x="83.789062" xlink:href="#DejaVuSans-55"/>
       <use x="147.412109" xlink:href="#DejaVuSans-46"/>
       <use x="179.199219" xlink:href="#DejaVuSans-53"/>
      </g>
     </g>
    </g>
    <g id="xtick_3">
     <g id="line2d_3">
      <g>
       <use style="stroke:#000000;stroke-width:0.8;" x="129.024" xlink:href="#mba4b3f69cc" y="307.584"/>
      </g>
     </g>
     <g id="text_3">
      <!-- −5.0 -->
      <g transform="translate(116.882594 322.182437)scale(0.1 -0.1)">
       <use xlink:href="#DejaVuSans-8722"/>
       <use x="83.789062" xlink:href="#DejaVuSans-53"/>
       <use x="147.412109" xlink:href="#DejaVuSans-46"/>
       <use x="179.199219" xlink:href="#DejaVuSans-48"/>
      </g>
     </g>
    </g>
    <g id="xtick_4">
     <g id="line2d_4">
      <g>
       <use style="stroke:#000000;stroke-width:0.8;" x="164.736" xlink:href="#mba4b3f69cc" y="307.584"/>
      </g>
     </g>
     <g id="text_4">
      <!-- −2.5 -->
      <defs>
       <path d="M 19.1875 8.296875 
L 53.609375 8.296875 
L 53.609375 0 
L 7.328125 0 
L 7.328125 8.296875 
Q 12.9375 14.109375 22.625 23.890625 
Q 32.328125 33.6875 34.8125 36.53125 
Q 39.546875 41.84375 41.421875 45.53125 
Q 43.3125 49.21875 43.3125 52.78125 
Q 43.3125 58.59375 39.234375 62.25 
Q 35.15625 65.921875 28.609375 65.921875 
Q 23.96875 65.921875 18.8125 64.3125 
Q 13.671875 62.703125 7.8125 59.421875 
L 7.8125 69.390625 
Q 13.765625 71.78125 18.9375 73 
Q 24.125 74.21875 28.421875 74.21875 
Q 39.75 74.21875 46.484375 68.546875 
Q 53.21875 62.890625 53.21875 53.421875 
Q 53.21875 48.921875 51.53125 44.890625 
Q 49.859375 40.875 45.40625 35.40625 
Q 44.1875 33.984375 37.640625 27.21875 
Q 31.109375 20.453125 19.1875 8.296875 
z
" id="DejaVuSans-50"/>
      </defs>
      <g transform="translate(152.594594 322.182437)scale(0.1 -0.1)">
       <use xlink:href="#DejaVuSans-8722"/>
       <use x="83.789062" xlink:href="#DejaVuSans-50"/>
       <use x="147.412109" xlink:href="#DejaVuSans-46"/>
       <use x="179.199219" xlink:href="#DejaVuSans-53"/>
      </g>
     </g>
    </g>
    <g id="xtick_5">
     <g id="line2d_5">
      <g>
       <use style="stroke:#000000;stroke-width:0.8;" x="200.448" xlink:href="#mba4b3f69cc" y="307.584"/>
      </g>
     </g>
     <g id="text_5">
      <!-- 0.0 -->
      <g transform="translate(192.496438 322.182437)scale(0.1 -0.1)">
       <use xlink:href="#DejaVuSans-48"/>
       <use x="63.623047" xlink:href="#DejaVuSans-46"/>
       <use x="95.410156" xlink:href="#DejaVuSans-48"/>
      </g>
     </g>
    </g>
    <g id="xtick_6">
     <g id="line2d_6">
      <g>
       <use style="stroke:#000000;stroke-width:0.8;" x="236.16" xlink:href="#mba4b3f69cc" y="307.584"/>
      </g>
     </g>
     <g id="text_6">
      <!-- 2.5 -->
      <g transform="translate(228.208438 322.182437)scale(0.1 -0.1)">
       <use xlink:href="#DejaVuSans-50"/>
       <use x="63.623047" xlink:href="#DejaVuSans-46"/>
       <use x="95.410156" xlink:href="#DejaVuSans-53"/>
      </g>
     </g>
    </g>
    <g id="xtick_7">
     <g id="line2d_7">
      <g>
       <use style="stroke:#000000;stroke-width:0.8;" x="271.872" xlink:href="#mba4b3f69cc" y="307.584"/>
      </g>
     </g>
     <g id="text_7">
      <!-- 5.0 -->
      <g transform="translate(263.920437 322.182437)scale(0.1 -0.1)">
       <use xlink:href="#DejaVuSans-53"/>
       <use x="63.623047" xlink:href="#DejaVuSans-46"/>
       <use x="95.410156" xlink:href="#DejaVuSans-48"/>
      </g>
     </g>
    </g>
    <g id="xtick_8">
     <g id="line2d_8">
      <g>
       <use style="stroke:#000000;stroke-width:0.8;" x="307.584" xlink:href="#mba4b3f69cc" y="307.584"/>
      </g>
     </g>
     <g id="text_8">
      <!-- 7.5 -->
      <g transform="translate(299.632438 322.182437)scale(0.1 -0.1)">
       <use xlink:href="#DejaVuSans-55"/>
       <use x="63.623047" xlink:href="#DejaVuSans-46"/>
       <use x="95.410156" xlink:href="#DejaVuSans-53"/>
      </g>
     </g>
    </g>
    <g id="xtick_9">
     <g id="line2d_9">
      <g>
       <use style="stroke:#000000;stroke-width:0.8;" x="343.296" xlink:href="#mba4b3f69cc" y="307.584"/>
      </g>
     </g>
     <g id="text_9">
      <!-- 10.0 -->
      <g transform="translate(332.163188 322.182437)scale(0.1 -0.1)">
       <use xlink:href="#DejaVuSans-49"/>
       <use x="63.623047" xlink:href="#DejaVuSans-48"/>
       <use x="127.246094" xlink:href="#DejaVuSans-46"/>
       <use x="159.033203" xlink:href="#DejaVuSans-48"/>
      </g>
     </g>
    </g>
   </g>
   <g id="matplotlib.axis_2">
    <g id="ytick_1">
     <g id="line2d_10">
      <defs>
       <path d="M 0 0 
L -3.5 0 
" id="mad2252a611" style="stroke:#000000;stroke-width:0.8;"/>
      </defs>
      <g>
       <use style="stroke:#000000;stroke-width:0.8;" x="57.6" xlink:href="#mad2252a611" y="307.584"/>
      </g>
     </g>
     <g id="text_10">
      <!-- −10.0 -->
      <g transform="translate(19.954687 311.383219)scale(0.1 -0.1)">
       <use xlink:href="#DejaVuSans-8722"/>
       <use x="83.789062" xlink:href="#DejaVuSans-49"/>
       <use x="147.412109" xlink:href="#DejaVuSans-48"/>
       <use x="211.035156" xlink:href="#DejaVuSans-46"/>
       <use x="242.822266" xlink:href="#DejaVuSans-48"/>
      </g>
     </g>
    </g>
    <g id="ytick_2">
     <g id="line2d_11">
      <g>
       <use style="stroke:#000000;stroke-width:0.8;" x="57.6" xlink:href="#mad2252a611" y="274.32"/>
      </g>
     </g>
     <g id="text_11">
      <!-- −7.5 -->
      <g transform="translate(26.317187 278.119219)scale(0.1 -0.1)">
       <use xlink:href="#DejaVuSans-8722"/>
       <use x="83.789062" xlink:href="#DejaVuSans-55"/>
       <use x="147.412109" xlink:href="#DejaVuSans-46"/>
       <use x="179.199219" xlink:href="#DejaVuSans-53"/>
      </g>
     </g>
    </g>
    <g id="ytick_3">
     <g id="line2d_12">
      <g>
       <use style="stroke:#000000;stroke-width:0.8;" x="57.6" xlink:href="#mad2252a611" y="241.056"/>
      </g>
     </g>
     <g id="text_12">
      <!-- −5.0 -->
      <g transform="translate(26.317187 244.855219)scale(0.1 -0.1)">
       <use xlink:href="#DejaVuSans-8722"/>
       <use x="83.789062" xlink:href="#DejaVuSans-53"/>
       <use x="147.412109" xlink:href="#DejaVuSans-46"/>
       <use x="179.199219" xlink:href="#DejaVuSans-48"/>
      </g>
     </g>
    </g>
    <g id="ytick_4">
     <g id="line2d_13">
      <g>
       <use style="stroke:#000000;stroke-width:0.8;" x="57.6" xlink:href="#mad2252a611" y="207.792"/>
      </g>
     </g>
     <g id="text_13">
      <!-- −2.5 -->
      <g transform="translate(26.317187 211.591219)scale(0.1 -0.1)">
       <use xlink:href="#DejaVuSans-8722"/>
       <use x="83.789062" xlink:href="#DejaVuSans-50"/>
       <use x="147.412109" xlink:href="#DejaVuSans-46"/>
       <use x="179.199219" xlink:href="#DejaVuSans-53"/>
      </g>
     </g>
    </g>
    <g id="ytick_5">
     <g id="line2d_14">
      <g>
       <use style="stroke:#000000;stroke-width:0.8;" x="57.6" xlink:href="#mad2252a611" y="174.528"/>
      </g>
     </g>
     <g id="text_14">
      <!-- 0.0 -->
      <g transform="translate(34.696875 178.327219)scale(0.1 -0.1)">
       <use xlink:href="#DejaVuSans-48"/>
       <use x="63.623047" xlink:href="#DejaVuSans-46"/>
       <use x="95.410156" xlink:href="#DejaVuSans-48"/>
      </g>
     </g>
    </g>
    <g id="ytick_6">
     <g id="line2d_15">
      <g>
       <use style="stroke:#000000;stroke-width:0.8;" x="57.6" xlink:href="#mad2252a611" y="141.264"/>
      </g>
     </g>
     <g id="text_15">
      <!-- 2.5 -->
      <g transform="translate(34.696875 145.063219)scale(0.1 -0.1)">
       <use xlink:href="#DejaVuSans-50"/>
       <use x="63.623047" xlink:href="#DejaVuSans-46"/>
       <use x="95.410156" xlink:href="#DejaVuSans-53"/>
      </g>
     </g>
    </g>
    <g id="ytick_7">
     <g id="line2d_16">
      <g>
       <use style="stroke:#000000;stroke-width:0.8;" x="57.6" xlink:href="#mad2252a611" y="108"/>
      </g>
     </g>
     <g id="text_16">
      <!-- 5.0 -->
      <g transform="translate(34.696875 111.799219)scale(0.1 -0.1)">
       <use xlink:href="#DejaVuSans-53"/>
       <use x="63.623047" xlink:href="#DejaVuSans-46"/>
       <use x="95.410156" xlink:href="#DejaVuSans-48"/>
      </g>
     </g>
    </g>
    <g id="ytick_8">
     <g id="line2d_17">
      <g>
       <use style="stroke:#000000;stroke-width:0.8;" x="57.6" xlink:href="#mad2252a611" y="74.736"/>
      </g>
     </g>
     <g id="text_17">
      <!-- 7.5 -->
      <g transform="translate(34.696875 78.535219)scale(0.1 -0.1)">
       <use xlink:href="#DejaVuSans-55"/>
       <use x="63.623047" xlink:href="#DejaVuSans-46"/>
       <use x="95.410156" xlink:href="#DejaVuSans-53"/>
      </g>
     </g>
    </g>
    <g id="ytick_9">
     <g id="line2d_18">
      <g>
       <use style="stroke:#000000;stroke-width:0.8;" x="57.6" xlink:href="#mad2252a611" y="41.472"/>
      </g>
     </g>
     <g id="text_18">
      <!-- 10.0 -->
      <g transform="translate(28.334375 45.271219)scale(0.1 -0.1)">
       <use xlink:href="#DejaVuSans-49"/>
       <use x="63.623047" xlink:href="#DejaVuSans-48"/>
       <use x="127.246094" xlink:href="#DejaVuSans-46"/>
       <use x="159.033203" xlink:href="#DejaVuSans-48"/>
      </g>
     </g>
    </g>
   </g>
   <g id="LineCollection_1"/>
   <g id="LineCollection_2">
    <path clip-path="url(#p5f934a43cd)" d="M 100.887273 289.016165 
L 98.001455 288.553334 
L 95.115636 287.881635 
L 92.229818 287.022198 
L 89.344 285.893374 
L 86.458182 284.179269 
L 85.40273 283.392 
L 83.572364 281.687102 
L 82.727157 280.704 
L 80.686545 277.646302 
L 79.675008 275.328 
L 78.752323 272.64 
L 77.800727 268.845196 
L 77.185332 264.576 
L 76.716254 259.2 
L 76.367544 251.136 
L 76.209539 240.384 
L 76.165106 213.504 
L 76.262776 103.296 
L 76.451004 95.232 
L 76.716254 89.856 
L 77.185332 84.48 
L 77.800727 80.210804 
L 78.031192 79.104 
L 78.752323 76.416 
L 79.675008 73.728 
L 80.886906 71.04 
L 82.727157 68.352 
L 83.572364 67.368898 
L 85.40273 65.664 
L 86.458182 64.876731 
L 89.740906 62.976 
L 92.229818 62.033802 
L 95.115636 61.174365 
L 99.189712 60.288 
L 103.773091 59.714789 
L 109.544727 59.277866 
L 118.202182 58.953059 
L 129.745455 58.805885 
L 158.603636 58.764497 
L 276.922182 58.855472 
L 285.579636 59.030798 
L 291.351273 59.277866 
L 297.122909 59.714789 
L 301.706288 60.288 
L 302.894545 60.502666 
L 305.780364 61.174365 
L 308.666182 62.033802 
L 311.552 63.162626 
L 314.437818 64.876731 
L 315.49327 65.664 
L 317.323636 67.368898 
L 318.168843 68.352 
L 320.209455 71.409698 
L 321.220992 73.728 
L 322.143677 76.416 
L 323.095273 80.210804 
L 323.710668 84.48 
L 324.179746 89.856 
L 324.528456 97.92 
L 324.686461 108.672 
L 324.730894 135.552 
L 324.633224 245.76 
L 324.444996 253.824 
L 324.179746 259.2 
L 323.710668 264.576 
L 323.095273 268.845196 
L 322.864808 269.952 
L 322.143677 272.64 
L 321.220992 275.328 
L 320.009094 278.016 
L 318.168843 280.704 
L 317.323636 281.687102 
L 315.49327 283.392 
L 314.437818 284.179269 
L 311.155094 286.08 
L 308.666182 287.022198 
L 305.780364 287.881635 
L 301.706288 288.768 
L 297.122909 289.341211 
L 291.351273 289.778134 
L 282.693818 290.102941 
L 271.150545 290.250115 
L 242.292364 290.291503 
L 123.973818 290.200528 
L 115.316364 290.025202 
L 109.544727 289.778134 
L 103.773091 289.341211 
L 100.887273 289.016165 
L 100.887273 289.016165 
" style="fill:none;stroke:#00df90;stroke-width:1.5;"/>
   </g>
   <g id="LineCollection_3">
    <path clip-path="url(#p5f934a43cd)" d="M 92.229818 297.015662 
L 89.344 296.468565 
L 86.458182 295.726723 
L 83.572364 294.795128 
L 80.686545 293.517025 
L 77.414831 291.456 
L 74.601115 288.768 
L 72.702207 286.08 
L 72.029091 284.896502 
L 71.330044 283.392 
L 70.32989 280.704 
L 69.143273 276.352477 
L 68.539089 272.64 
L 67.974099 267.264 
L 67.638443 261.888 
L 67.383584 253.824 
L 67.251959 240.384 
L 67.22761 197.376 
L 67.338089 97.92 
L 67.528174 89.856 
L 67.783873 84.48 
L 68.220992 79.104 
L 68.946094 73.728 
L 69.533454 71.04 
L 70.32989 68.352 
L 71.330044 65.664 
L 72.029091 64.159498 
L 72.702207 62.976 
L 74.914909 59.928556 
L 77.800727 57.307716 
L 80.686545 55.538975 
L 81.957141 54.912 
L 83.572364 54.260872 
L 86.458182 53.329277 
L 91.129947 52.224 
L 95.115636 51.661232 
L 100.887273 51.134971 
L 106.658909 50.822324 
L 115.316364 50.584935 
L 129.745455 50.462333 
L 178.804364 50.439652 
L 282.693818 50.542558 
L 294.237091 50.822324 
L 300.008727 51.134971 
L 305.780364 51.661232 
L 309.766053 52.224 
L 311.552 52.587435 
L 314.437818 53.329277 
L 317.323636 54.260872 
L 320.209455 55.538975 
L 323.481169 57.6 
L 326.294885 60.288 
L 328.193793 62.976 
L 328.866909 64.159498 
L 329.565956 65.664 
L 330.56611 68.352 
L 331.752727 72.703523 
L 332.356911 76.416 
L 332.921901 81.792 
L 333.257557 87.168 
L 333.512416 95.232 
L 333.644041 108.672 
L 333.66839 151.68 
L 333.557911 251.136 
L 333.367826 259.2 
L 333.112127 264.576 
L 332.675008 269.952 
L 331.949906 275.328 
L 331.362546 278.016 
L 330.56611 280.704 
L 329.565956 283.392 
L 328.866909 284.896502 
L 328.193793 286.08 
L 325.981091 289.127444 
L 323.095273 291.748284 
L 320.209455 293.517025 
L 318.938859 294.144 
L 317.323636 294.795128 
L 314.437818 295.726723 
L 309.766053 296.832 
L 305.780364 297.394768 
L 300.008727 297.921029 
L 294.237091 298.233676 
L 285.579636 298.471065 
L 271.150545 298.593667 
L 222.091636 298.616348 
L 118.202182 298.513442 
L 106.658909 298.233676 
L 100.887273 297.921029 
L 95.115636 297.394768 
L 92.229818 297.015662 
L 92.229818 297.015662 
" style="fill:none;stroke:#00bfa0;stroke-width:1.5;"/>
   </g>
   <g id="LineCollection_4">
    <path clip-path="url(#p5f934a43cd)" d="M 89.344 302.329772 
L 86.458182 301.853523 
L 83.572364 301.223563 
L 80.686545 300.436901 
L 77.800727 299.446945 
L 74.914909 297.981688 
L 73.073676 296.832 
L 72.029091 296.037132 
L 69.996637 294.144 
L 69.143273 293.17102 
L 67.908976 291.456 
L 66.257455 288.602382 
L 65.273076 286.08 
L 64.428521 283.392 
L 63.371636 278.80458 
L 62.888137 275.328 
L 62.393714 269.952 
L 61.996493 261.888 
L 61.791692 251.136 
L 61.719152 229.632 
L 61.769065 100.608 
L 61.921305 89.856 
L 62.225366 81.792 
L 62.610614 76.416 
L 63.240903 71.04 
L 63.752201 68.352 
L 64.428521 65.664 
L 65.273076 62.976 
L 66.335886 60.288 
L 67.908976 57.6 
L 69.143273 55.88498 
L 69.996637 54.912 
L 72.029091 53.018868 
L 73.073676 52.224 
L 74.914909 51.074312 
L 77.978533 49.536 
L 80.686545 48.619099 
L 83.572364 47.832437 
L 88.497386 46.848 
L 92.229818 46.397644 
L 98.001455 45.937113 
L 106.658909 45.567121 
L 118.202182 45.376358 
L 141.288727 45.308791 
L 279.808 45.355282 
L 294.237091 45.567121 
L 302.894545 45.937113 
L 308.666182 46.397644 
L 312.398614 46.848 
L 314.437818 47.202477 
L 317.323636 47.832437 
L 320.209455 48.619099 
L 323.095273 49.609055 
L 325.981091 51.074312 
L 327.822324 52.224 
L 328.866909 53.018868 
L 330.899363 54.912 
L 331.752727 55.88498 
L 332.987024 57.6 
L 334.638545 60.453618 
L 335.622924 62.976 
L 336.467479 65.664 
L 337.524364 70.25142 
L 338.007863 73.728 
L 338.502286 79.104 
L 338.899507 87.168 
L 339.104308 97.92 
L 339.176848 119.424 
L 339.126935 248.448 
L 338.974695 259.2 
L 338.670634 267.264 
L 338.285386 272.64 
L 337.655097 278.016 
L 337.143799 280.704 
L 336.467479 283.392 
L 335.622924 286.08 
L 334.560114 288.768 
L 332.987024 291.456 
L 331.752727 293.17102 
L 330.899363 294.144 
L 328.866909 296.037132 
L 327.822324 296.832 
L 325.981091 297.981688 
L 322.917467 299.52 
L 320.209455 300.436901 
L 317.323636 301.223563 
L 312.398614 302.208 
L 308.666182 302.658356 
L 302.894545 303.118887 
L 294.237091 303.488879 
L 282.693818 303.679642 
L 259.607273 303.747209 
L 121.088 303.700718 
L 106.658909 303.488879 
L 98.001455 303.118887 
L 92.229818 302.658356 
L 89.344 302.329772 
L 89.344 302.329772 
" style="fill:none;stroke:#009fb0;stroke-width:1.5;"/>
   </g>
   <g id="LineCollection_5">
    <path clip-path="url(#p5f934a43cd)" d="M 199.005091 307.584 
L 196.119273 307.584 
L 193.233455 307.584 
L 190.347636 307.584 
L 187.461818 307.584 
L 184.576 307.584 
L 181.690182 307.584 
L 178.804364 307.584 
L 175.918545 307.584 
L 173.032727 307.583999 
L 170.146909 307.583997 
L 167.261091 307.583993 
L 164.375273 307.583985 
L 161.489455 307.583967 
L 158.603636 307.583932 
L 155.717818 307.583868 
L 152.832 307.583753 
L 149.946182 307.583556 
L 147.060364 307.583226 
L 144.174545 307.582689 
L 141.288727 307.581839 
L 138.402909 307.580521 
L 135.517091 307.578518 
L 132.631273 307.575532 
L 129.745455 307.571154 
L 126.859636 307.564834 
L 123.973818 307.555843 
L 121.088 307.54322 
L 118.202182 307.525713 
L 115.316364 307.501711 
L 112.430545 307.469153 
L 109.544727 307.425428 
L 106.658909 307.367252 
L 103.773091 307.290526 
L 100.887273 307.190166 
L 98.001455 307.05991 
L 95.115636 306.892088 
L 92.229818 306.67736 
L 89.344 306.404415 
L 86.458182 306.059621 
L 83.572364 305.626633 
L 80.686545 305.085939 
L 79.870379 304.896 
L 77.800727 304.316167 
L 74.914909 303.317057 
L 72.310056 302.208 
L 72.029091 302.063426 
L 69.143273 300.245758 
L 68.197764 299.52 
L 66.257455 297.712696 
L 65.478286 296.832 
L 63.52685 294.144 
L 63.371636 293.882294 
L 62.180961 291.456 
L 61.108323 288.768 
L 60.485818 286.840219 
L 60.281901 286.08 
L 59.701416 283.392 
L 59.236563 280.704 
L 58.866395 278.016 
L 58.573362 275.328 
L 58.342832 272.64 
L 58.162659 269.952 
L 58.022817 267.264 
L 57.915072 264.576 
L 57.832699 261.888 
L 57.770242 259.2 
L 57.723299 256.512 
L 57.688345 253.824 
L 57.662576 251.136 
L 57.643781 248.448 
L 57.630229 245.76 
L 57.620576 243.072 
L 57.613792 240.384 
L 57.609092 237.696 
L 57.605886 235.008 
L 57.603735 232.32 
L 57.60232 229.632 
L 57.601407 226.944 
L 57.600831 224.256 
L 57.600477 221.568 
L 57.600265 218.88 
L 57.600142 216.192 
L 57.600073 213.504 
L 57.600036 210.816 
L 57.600016 208.128 
L 57.600007 205.44 
L 57.600003 202.752 
L 57.600001 200.064 
L 57.6 197.376 
L 57.6 194.688 
L 57.6 192 
L 57.6 189.312 
L 57.6 186.624 
L 57.6 183.936 
L 57.6 181.248 
L 57.6 178.56 
L 57.6 175.872 
" style="fill:none;stroke:#007fc0;stroke-width:1.5;"/>
    <path clip-path="url(#p5f934a43cd)" d="M 343.296 175.872 
L 343.296 178.56 
L 343.296 181.248 
L 343.296 183.936 
L 343.296 186.624 
L 343.296 189.312 
L 343.296 192 
L 343.296 194.688 
L 343.296 197.376 
L 343.295999 200.064 
L 343.295997 202.752 
L 343.295993 205.44 
L 343.295984 208.128 
L 343.295964 210.816 
L 343.295927 213.504 
L 343.295858 216.192 
L 343.295735 218.88 
L 343.295523 221.568 
L 343.295169 224.256 
L 343.294593 226.944 
L 343.29368 229.632 
L 343.292265 232.32 
L 343.290114 235.008 
L 343.286908 237.696 
L 343.282208 240.384 
L 343.275424 243.072 
L 343.265771 245.76 
L 343.252219 248.448 
L 343.233424 251.136 
L 343.207655 253.824 
L 343.172701 256.512 
L 343.125758 259.2 
L 343.063301 261.888 
L 342.980928 264.576 
L 342.873183 267.264 
L 342.733341 269.952 
L 342.553168 272.64 
L 342.322638 275.328 
L 342.029605 278.016 
L 341.659437 280.704 
L 341.194584 283.392 
L 340.614099 286.08 
L 340.410182 286.840219 
L 339.787677 288.768 
L 338.715039 291.456 
L 337.524364 293.882294 
L 337.36915 294.144 
L 335.417714 296.832 
L 334.638545 297.712696 
L 332.698236 299.52 
L 331.752727 300.245758 
L 328.866909 302.063426 
L 328.585944 302.208 
L 325.981091 303.317057 
L 323.095273 304.316167 
L 321.025621 304.896 
L 320.209455 305.085939 
L 317.323636 305.626633 
L 314.437818 306.059621 
L 311.552 306.404415 
L 308.666182 306.67736 
L 305.780364 306.892088 
L 302.894545 307.05991 
L 300.008727 307.190166 
L 297.122909 307.290526 
L 294.237091 307.367252 
L 291.351273 307.425428 
L 288.465455 307.469153 
L 285.579636 307.501711 
L 282.693818 307.525713 
L 279.808 307.54322 
L 276.922182 307.555843 
L 274.036364 307.564834 
L 271.150545 307.571154 
L 268.264727 307.575532 
L 265.378909 307.578518 
L 262.493091 307.580521 
L 259.607273 307.581839 
L 256.721455 307.582689 
L 253.835636 307.583226 
L 250.949818 307.583556 
L 248.064 307.583753 
L 245.178182 307.583868 
L 242.292364 307.583932 
L 239.406545 307.583967 
L 236.520727 307.583985 
L 233.634909 307.583993 
L 230.749091 307.583997 
L 227.863273 307.583999 
L 224.977455 307.584 
L 222.091636 307.584 
L 219.205818 307.584 
L 216.32 307.584 
L 213.434182 307.584 
L 210.548364 307.584 
L 207.662545 307.584 
L 204.776727 307.584 
L 201.890909 307.584 
" style="fill:none;stroke:#007fc0;stroke-width:1.5;"/>
    <path clip-path="url(#p5f934a43cd)" d="M 57.6 173.184 
L 57.6 170.496 
L 57.6 167.808 
L 57.6 165.12 
L 57.6 162.432 
L 57.6 159.744 
L 57.6 157.056 
L 57.6 154.368 
L 57.6 151.68 
L 57.600001 148.992 
L 57.600003 146.304 
L 57.600007 143.616 
L 57.600016 140.928 
L 57.600036 138.24 
L 57.600073 135.552 
L 57.600142 132.864 
L 57.600265 130.176 
L 57.600477 127.488 
L 57.600831 124.8 
L 57.601407 122.112 
L 57.60232 119.424 
L 57.603735 116.736 
L 57.605886 114.048 
L 57.609092 111.36 
L 57.613792 108.672 
L 57.620576 105.984 
L 57.630229 103.296 
L 57.643781 100.608 
L 57.662576 97.92 
L 57.688345 95.232 
L 57.723299 92.544 
L 57.770242 89.856 
L 57.832699 87.168 
L 57.915072 84.48 
L 58.022817 81.792 
L 58.162659 79.104 
L 58.342832 76.416 
L 58.573362 73.728 
L 58.866395 71.04 
L 59.236563 68.352 
L 59.701416 65.664 
L 60.281901 62.976 
L 60.485818 62.215781 
L 61.108323 60.288 
L 62.180961 57.6 
L 63.371636 55.173706 
L 63.52685 54.912 
L 65.478286 52.224 
L 66.257455 51.343304 
L 68.197764 49.536 
L 69.143273 48.810242 
L 72.029091 46.992574 
L 72.310056 46.848 
L 74.914909 45.738943 
L 77.800727 44.739833 
L 79.870379 44.16 
L 80.686545 43.970061 
L 83.572364 43.429367 
L 86.458182 42.996379 
L 89.344 42.651585 
L 92.229818 42.37864 
L 95.115636 42.163912 
L 98.001455 41.99609 
L 100.887273 41.865834 
L 103.773091 41.765474 
L 106.658909 41.688748 
L 109.544727 41.630572 
L 112.430545 41.586847 
L 115.316364 41.554289 
L 118.202182 41.530287 
L 121.088 41.51278 
L 123.973818 41.500157 
L 126.859636 41.491166 
L 129.745455 41.484846 
L 132.631273 41.480468 
L 135.517091 41.477482 
L 138.402909 41.475479 
L 141.288727 41.474161 
L 144.174545 41.473311 
L 147.060364 41.472774 
L 149.946182 41.472444 
L 152.832 41.472247 
L 155.717818 41.472132 
L 158.603636 41.472068 
L 161.489455 41.472033 
L 164.375273 41.472015 
L 167.261091 41.472007 
L 170.146909 41.472003 
L 173.032727 41.472001 
L 175.918545 41.472 
L 178.804364 41.472 
L 181.690182 41.472 
L 184.576 41.472 
L 187.461818 41.472 
L 190.347636 41.472 
L 193.233455 41.472 
L 196.119273 41.472 
L 199.005091 41.472 
" style="fill:none;stroke:#007fc0;stroke-width:1.5;"/>
    <path clip-path="url(#p5f934a43cd)" d="M 201.890909 41.472 
L 204.776727 41.472 
L 207.662545 41.472 
L 210.548364 41.472 
L 213.434182 41.472 
L 216.32 41.472 
L 219.205818 41.472 
L 222.091636 41.472 
L 224.977455 41.472 
L 227.863273 41.472001 
L 230.749091 41.472003 
L 233.634909 41.472007 
L 236.520727 41.472015 
L 239.406545 41.472033 
L 242.292364 41.472068 
L 245.178182 41.472132 
L 248.064 41.472247 
L 250.949818 41.472444 
L 253.835636 41.472774 
L 256.721455 41.473311 
L 259.607273 41.474161 
L 262.493091 41.475479 
L 265.378909 41.477482 
L 268.264727 41.480468 
L 271.150545 41.484846 
L 274.036364 41.491166 
L 276.922182 41.500157 
L 279.808 41.51278 
L 282.693818 41.530287 
L 285.579636 41.554289 
L 288.465455 41.586847 
L 291.351273 41.630572 
L 294.237091 41.688748 
L 297.122909 41.765474 
L 300.008727 41.865834 
L 302.894545 41.99609 
L 305.780364 42.163912 
L 308.666182 42.37864 
L 311.552 42.651585 
L 314.437818 42.996379 
L 317.323636 43.429367 
L 320.209455 43.970061 
L 321.025621 44.16 
L 323.095273 44.739833 
L 325.981091 45.738943 
L 328.585944 46.848 
L 328.866909 46.992574 
L 331.752727 48.810242 
L 332.698236 49.536 
L 334.638545 51.343304 
L 335.417714 52.224 
L 337.36915 54.912 
L 337.524364 55.173706 
L 338.715039 57.6 
L 339.787677 60.288 
L 340.410182 62.215781 
L 340.614099 62.976 
L 341.194584 65.664 
L 341.659437 68.352 
L 342.029605 71.04 
L 342.322638 73.728 
L 342.553168 76.416 
L 342.733341 79.104 
L 342.873183 81.792 
L 342.980928 84.48 
L 343.063301 87.168 
L 343.125758 89.856 
L 343.172701 92.544 
L 343.207655 95.232 
L 343.233424 97.92 
L 343.252219 100.608 
L 343.265771 103.296 
L 343.275424 105.984 
L 343.282208 108.672 
L 343.286908 111.36 
L 343.290114 114.048 
L 343.292265 116.736 
L 343.29368 119.424 
L 343.294593 122.112 
L 343.295169 124.8 
L 343.295523 127.488 
L 343.295735 130.176 
L 343.295858 132.864 
L 343.295927 135.552 
L 343.295964 138.24 
L 343.295984 140.928 
L 343.295993 143.616 
L 343.295997 146.304 
L 343.295999 148.992 
L 343.296 151.68 
L 343.296 154.368 
L 343.296 157.056 
L 343.296 159.744 
L 343.296 162.432 
L 343.296 165.12 
L 343.296 167.808 
L 343.296 170.496 
L 343.296 173.184 
" style="fill:none;stroke:#007fc0;stroke-width:1.5;"/>
   </g>
   <g id="LineCollection_6">
    <path clip-path="url(#p5f934a43cd)" d="M 76.16487 307.584 
L 74.914909 307.224524 
L 72.029091 306.203893 
L 69.143273 304.954561 
L 69.032274 304.896 
L 66.257455 303.13364 
L 65.056441 302.208 
L 63.371636 300.638686 
L 62.377875 299.52 
L 60.485818 296.93539 
L 60.422948 296.832 
L 59.081674 294.144 
L 57.985931 291.456 
L 57.6 290.291722 
" style="fill:none;stroke:#005fd0;stroke-width:1.5;"/>
    <path clip-path="url(#p5f934a43cd)" d="M 343.296 290.291722 
L 342.910069 291.456 
L 341.814326 294.144 
L 340.473052 296.832 
L 340.410182 296.93539 
L 338.518125 299.52 
L 337.524364 300.638686 
L 335.839559 302.208 
L 334.638545 303.13364 
L 331.863726 304.896 
L 331.752727 304.954561 
L 328.866909 306.203893 
L 325.981091 307.224524 
L 324.73113 307.584 
" style="fill:none;stroke:#005fd0;stroke-width:1.5;"/>
    <path clip-path="url(#p5f934a43cd)" d="M 57.6 58.764278 
L 57.985931 57.6 
L 59.081674 54.912 
L 60.422948 52.224 
L 60.485818 52.12061 
L 62.377875 49.536 
L 63.371636 48.417314 
L 65.056441 46.848 
L 66.257455 45.92236 
L 69.032274 44.16 
L 69.143273 44.101439 
L 72.029091 42.852107 
L 74.914909 41.831476 
L 76.16487 41.472 
" style="fill:none;stroke:#005fd0;stroke-width:1.5;"/>
    <path clip-path="url(#p5f934a43cd)" d="M 324.73113 41.472 
L 325.981091 41.831476 
L 328.866909 42.852107 
L 331.752727 44.101439 
L 331.863726 44.16 
L 334.638545 45.92236 
L 335.839559 46.848 
L 337.524364 48.417314 
L 338.518125 49.536 
L 340.410182 52.12061 
L 340.473052 52.224 
L 341.814326 54.912 
L 342.910069 57.6 
L 343.296 58.764278 
" style="fill:none;stroke:#005fd0;stroke-width:1.5;"/>
   </g>
   <g id="LineCollection_7">
    <path clip-path="url(#p5f934a43cd)" d="M 67.227609 307.584 
L 66.257455 307.072165 
L 63.371636 305.224631 
L 62.9469 304.896 
L 60.485818 302.603621 
L 60.133002 302.208 
L 58.149503 299.52 
L 57.6 298.616348 
" style="fill:none;stroke:#003fe0;stroke-width:1.5;"/>
    <path clip-path="url(#p5f934a43cd)" d="M 343.296 298.616348 
L 342.746497 299.52 
L 340.762998 302.208 
L 340.410182 302.603621 
L 337.9491 304.896 
L 337.524364 305.224631 
L 334.638545 307.072165 
L 333.668391 307.584 
" style="fill:none;stroke:#003fe0;stroke-width:1.5;"/>
    <path clip-path="url(#p5f934a43cd)" d="M 57.6 50.439652 
L 58.149503 49.536 
L 60.133002 46.848 
L 60.485818 46.452379 
L 62.9469 44.16 
L 63.371636 43.831369 
L 66.257455 41.983835 
L 67.227609 41.472 
" style="fill:none;stroke:#003fe0;stroke-width:1.5;"/>
    <path clip-path="url(#p5f934a43cd)" d="M 333.668391 41.472 
L 334.638545 41.983835 
L 337.524364 43.831369 
L 337.9491 44.16 
L 340.410182 46.452379 
L 340.762998 46.848 
L 342.746497 49.536 
L 343.296 50.439652 
" style="fill:none;stroke:#003fe0;stroke-width:1.5;"/>
   </g>
   <g id="LineCollection_8">
    <path clip-path="url(#p5f934a43cd)" d="M 61.716359 307.584 
L 60.485818 306.631893 
L 58.622175 304.896 
L 57.6 303.749811 
" style="fill:none;stroke:#001ff0;stroke-width:1.5;"/>
    <path clip-path="url(#p5f934a43cd)" d="M 343.296 303.749811 
L 342.273825 304.896 
L 340.410182 306.631893 
L 339.179641 307.584 
" style="fill:none;stroke:#001ff0;stroke-width:1.5;"/>
    <path clip-path="url(#p5f934a43cd)" d="M 57.6 45.306189 
L 58.622175 44.16 
L 60.485818 42.424107 
L 61.716359 41.472 
" style="fill:none;stroke:#001ff0;stroke-width:1.5;"/>
    <path clip-path="url(#p5f934a43cd)" d="M 339.179641 41.472 
L 340.410182 42.424107 
L 342.273825 44.16 
L 343.296 45.306189 
" style="fill:none;stroke:#001ff0;stroke-width:1.5;"/>
   </g>
   <g id="LineCollection_9"/>
   <g id="patch_3">
    <path d="M 57.6 307.584 
L 57.6 41.472 
" style="fill:none;stroke:#000000;stroke-linecap:square;stroke-linejoin:miter;stroke-width:0.8;"/>
   </g>
   <g id="patch_4">
    <path d="M 343.296 307.584 
L 343.296 41.472 
" style="fill:none;stroke:#000000;stroke-linecap:square;stroke-linejoin:miter;stroke-width:0.8;"/>
   </g>
   <g id="patch_5">
    <path d="M 57.6 307.584 
L 343.296 307.584 
" style="fill:none;stroke:#000000;stroke-linecap:square;stroke-linejoin:miter;stroke-width:0.8;"/>
   </g>
   <g id="patch_6">
    <path d="M 57.6 41.472 
L 343.296 41.472 
" style="fill:none;stroke:#000000;stroke-linecap:square;stroke-linejoin:miter;stroke-width:0.8;"/>
   </g>
  </g>
  <g id="axes_2">
   <g id="patch_7">
    <path clip-path="url(#p5ee14e99e7)" d="M 361.152 307.584 
L 361.152 274.32 
L 361.152 74.736 
L 361.152 41.472 
L 374.4576 41.472 
L 374.4576 74.736 
L 374.4576 274.32 
L 374.4576 307.584 
z
" style="fill:#ffffff;stroke:#ffffff;stroke-linejoin:miter;stroke-width:0.01;"/>
   </g>
   <g id="matplotlib.axis_3"/>
   <g id="matplotlib.axis_4">
    <g id="ytick_10">
     <g id="line2d_19">
      <defs>
       <path d="M 0 0 
L 3.5 0 
" id="mf0bf3c0b1f" style="stroke:#000000;stroke-width:0.8;"/>
      </defs>
      <g>
       <use style="stroke:#000000;stroke-width:0.8;" x="374.4576" xlink:href="#mf0bf3c0b1f" y="307.584"/>
      </g>
     </g>
     <g id="text_19">
      <!-- 0.00 -->
      <g transform="translate(381.4576 311.383219)scale(0.1 -0.1)">
       <use xlink:href="#DejaVuSans-48"/>
       <use x="63.623047" xlink:href="#DejaVuSans-46"/>
       <use x="95.410156" xlink:href="#DejaVuSans-48"/>
       <use x="159.033203" xlink:href="#DejaVuSans-48"/>
      </g>
     </g>
    </g>
    <g id="ytick_11">
     <g id="line2d_20">
      <g>
       <use style="stroke:#000000;stroke-width:0.8;" x="374.4576" xlink:href="#mf0bf3c0b1f" y="274.32"/>
      </g>
     </g>
     <g id="text_20">
      <!-- 0.25 -->
      <g transform="translate(381.4576 278.119219)scale(0.1 -0.1)">
       <use xlink:href="#DejaVuSans-48"/>
       <use x="63.623047" xlink:href="#DejaVuSans-46"/>
       <use x="95.410156" xlink:href="#DejaVuSans-50"/>
       <use x="159.033203" xlink:href="#DejaVuSans-53"/>
      </g>
     </g>
    </g>
    <g id="ytick_12">
     <g id="line2d_21">
      <g>
       <use style="stroke:#000000;stroke-width:0.8;" x="374.4576" xlink:href="#mf0bf3c0b1f" y="241.056"/>
      </g>
     </g>
     <g id="text_21">
      <!-- 0.50 -->
      <g transform="translate(381.4576 244.855219)scale(0.1 -0.1)">
       <use xlink:href="#DejaVuSans-48"/>
       <use x="63.623047" xlink:href="#DejaVuSans-46"/>
       <use x="95.410156" xlink:href="#DejaVuSans-53"/>
       <use x="159.033203" xlink:href="#DejaVuSans-48"/>
      </g>
     </g>
    </g>
    <g id="ytick_13">
     <g id="line2d_22">
      <g>
       <use style="stroke:#000000;stroke-width:0.8;" x="374.4576" xlink:href="#mf0bf3c0b1f" y="207.792"/>
      </g>
     </g>
     <g id="text_22">
      <!-- 0.75 -->
      <g transform="translate(381.4576 211.591219)scale(0.1 -0.1)">
       <use xlink:href="#DejaVuSans-48"/>
       <use x="63.623047" xlink:href="#DejaVuSans-46"/>
       <use x="95.410156" xlink:href="#DejaVuSans-55"/>
       <use x="159.033203" xlink:href="#DejaVuSans-53"/>
      </g>
     </g>
    </g>
    <g id="ytick_14">
     <g id="line2d_23">
      <g>
       <use style="stroke:#000000;stroke-width:0.8;" x="374.4576" xlink:href="#mf0bf3c0b1f" y="174.528"/>
      </g>
     </g>
     <g id="text_23">
      <!-- 1.00 -->
      <g transform="translate(381.4576 178.327219)scale(0.1 -0.1)">
       <use xlink:href="#DejaVuSans-49"/>
       <use x="63.623047" xlink:href="#DejaVuSans-46"/>
       <use x="95.410156" xlink:href="#DejaVuSans-48"/>
       <use x="159.033203" xlink:href="#DejaVuSans-48"/>
      </g>
     </g>
    </g>
    <g id="ytick_15">
     <g id="line2d_24">
      <g>
       <use style="stroke:#000000;stroke-width:0.8;" x="374.4576" xlink:href="#mf0bf3c0b1f" y="141.264"/>
      </g>
     </g>
     <g id="text_24">
      <!-- 1.25 -->
      <g transform="translate(381.4576 145.063219)scale(0.1 -0.1)">
       <use xlink:href="#DejaVuSans-49"/>
       <use x="63.623047" xlink:href="#DejaVuSans-46"/>
       <use x="95.410156" xlink:href="#DejaVuSans-50"/>
       <use x="159.033203" xlink:href="#DejaVuSans-53"/>
      </g>
     </g>
    </g>
    <g id="ytick_16">
     <g id="line2d_25">
      <g>
       <use style="stroke:#000000;stroke-width:0.8;" x="374.4576" xlink:href="#mf0bf3c0b1f" y="108"/>
      </g>
     </g>
     <g id="text_25">
      <!-- 1.50 -->
      <g transform="translate(381.4576 111.799219)scale(0.1 -0.1)">
       <use xlink:href="#DejaVuSans-49"/>
       <use x="63.623047" xlink:href="#DejaVuSans-46"/>
       <use x="95.410156" xlink:href="#DejaVuSans-53"/>
       <use x="159.033203" xlink:href="#DejaVuSans-48"/>
      </g>
     </g>
    </g>
    <g id="ytick_17">
     <g id="line2d_26">
      <g>
       <use style="stroke:#000000;stroke-width:0.8;" x="374.4576" xlink:href="#mf0bf3c0b1f" y="74.736"/>
      </g>
     </g>
     <g id="text_26">
      <!-- 1.75 -->
      <g transform="translate(381.4576 78.535219)scale(0.1 -0.1)">
       <use xlink:href="#DejaVuSans-49"/>
       <use x="63.623047" xlink:href="#DejaVuSans-46"/>
       <use x="95.410156" xlink:href="#DejaVuSans-55"/>
       <use x="159.033203" xlink:href="#DejaVuSans-53"/>
      </g>
     </g>
    </g>
    <g id="ytick_18">
     <g id="line2d_27">
      <g>
       <use style="stroke:#000000;stroke-width:0.8;" x="374.4576" xlink:href="#mf0bf3c0b1f" y="41.472"/>
      </g>
     </g>
     <g id="text_27">
      <!-- 2.00 -->
      <g transform="translate(381.4576 45.271219)scale(0.1 -0.1)">
       <use xlink:href="#DejaVuSans-50"/>
       <use x="63.623047" xlink:href="#DejaVuSans-46"/>
       <use x="95.410156" xlink:href="#DejaVuSans-48"/>
       <use x="159.033203" xlink:href="#DejaVuSans-48"/>
      </g>
     </g>
    </g>
    <g id="text_28">
     <!-- 1e10 -->
     <defs>
      <path d="M 56.203125 29.59375 
L 56.203125 25.203125 
L 14.890625 25.203125 
Q 15.484375 15.921875 20.484375 11.0625 
Q 25.484375 6.203125 34.421875 6.203125 
Q 39.59375 6.203125 44.453125 7.46875 
Q 49.3125 8.734375 54.109375 11.28125 
L 54.109375 2.78125 
Q 49.265625 0.734375 44.1875 -0.34375 
Q 39.109375 -1.421875 33.890625 -1.421875 
Q 20.796875 -1.421875 13.15625 6.1875 
Q 5.515625 13.8125 5.515625 26.8125 
Q 5.515625 40.234375 12.765625 48.109375 
Q 20.015625 56 32.328125 56 
Q 43.359375 56 49.78125 48.890625 
Q 56.203125 41.796875 56.203125 29.59375 
z
M 47.21875 32.234375 
Q 47.125 39.59375 43.09375 43.984375 
Q 39.0625 48.390625 32.421875 48.390625 
Q 24.90625 48.390625 20.390625 44.140625 
Q 15.875 39.890625 15.1875 32.171875 
z
" id="DejaVuSans-101"/>
     </defs>
     <g transform="translate(349.216975 38.472)scale(0.1 -0.1)">
      <use xlink:href="#DejaVuSans-49"/>
      <use x="63.623047" xlink:href="#DejaVuSans-101"/>
      <use x="125.146484" xlink:href="#DejaVuSans-49"/>
      <use x="188.769531" xlink:href="#DejaVuSans-48"/>
     </g>
    </g>
   </g>
   <g id="LineCollection_10">
    <path clip-path="url(#p5ee14e99e7)" d="M 361.152 307.584 
L 374.4576 307.584 
" style="fill:none;stroke:#00ff80;stroke-width:1.5;"/>
    <path clip-path="url(#p5ee14e99e7)" d="M 361.152 274.32 
L 374.4576 274.32 
" style="fill:none;stroke:#00df90;stroke-width:1.5;"/>
    <path clip-path="url(#p5ee14e99e7)" d="M 361.152 241.056 
L 374.4576 241.056 
" style="fill:none;stroke:#00bfa0;stroke-width:1.5;"/>
    <path clip-path="url(#p5ee14e99e7)" d="M 361.152 207.792 
L 374.4576 207.792 
" style="fill:none;stroke:#009fb0;stroke-width:1.5;"/>
    <path clip-path="url(#p5ee14e99e7)" d="M 361.152 174.528 
L 374.4576 174.528 
" style="fill:none;stroke:#007fc0;stroke-width:1.5;"/>
    <path clip-path="url(#p5ee14e99e7)" d="M 361.152 141.264 
L 374.4576 141.264 
" style="fill:none;stroke:#005fd0;stroke-width:1.5;"/>
    <path clip-path="url(#p5ee14e99e7)" d="M 361.152 108 
L 374.4576 108 
" style="fill:none;stroke:#003fe0;stroke-width:1.5;"/>
    <path clip-path="url(#p5ee14e99e7)" d="M 361.152 74.736 
L 374.4576 74.736 
" style="fill:none;stroke:#001ff0;stroke-width:1.5;"/>
    <path clip-path="url(#p5ee14e99e7)" d="M 361.152 41.472 
L 374.4576 41.472 
" style="fill:none;stroke:#0000ff;stroke-width:1.5;"/>
   </g>
   <g id="patch_8">
    <path d="M 361.152 307.584 
L 361.152 274.32 
L 361.152 74.736 
L 361.152 41.472 
L 374.4576 41.472 
L 374.4576 74.736 
L 374.4576 274.32 
L 374.4576 307.584 
z
" style="fill:none;stroke:#000000;stroke-linejoin:miter;stroke-width:0.8;"/>
   </g>
  </g>
 </g>
 <defs>
  <clipPath id="p5f934a43cd">
   <rect height="266.112" width="285.696" x="57.6" y="41.472"/>
  </clipPath>
  <clipPath id="p5ee14e99e7">
   <rect height="266.112" width="13.3056" x="361.152" y="41.472"/>
  </clipPath>
 </defs>
</svg>
