<?xml version="1.0" encoding="utf-8" standalone="no"?>
<!DOCTYPE svg PUBLIC "-//W3C//DTD SVG 1.1//EN"
  "http://www.w3.org/Graphics/SVG/1.1/DTD/svg11.dtd">
<!-- Created with matplotlib (https://matplotlib.org/) -->
<svg height="345.6pt" version="1.1" viewBox="0 0 460.8 345.6" width="460.8pt" xmlns="http://www.w3.org/2000/svg" xmlns:xlink="http://www.w3.org/1999/xlink">
 <defs>
  <style type="text/css">
*{stroke-linecap:butt;stroke-linejoin:round;}
  </style>
 </defs>
 <g id="figure_1">
  <g id="patch_1">
   <path d="M 0 345.6 
L 460.8 345.6 
L 460.8 0 
L 0 0 
z
" style="fill:#ffffff;"/>
  </g>
  <g id="axes_1">
   <g id="patch_2">
    <path d="M 57.6 307.584 
L 343.296 307.584 
L 343.296 41.472 
L 57.6 41.472 
z
" style="fill:#ffffff;"/>
   </g>
   <g id="matplotlib.axis_1">
    <g id="xtick_1">
     <g id="line2d_1">
      <defs>
       <path d="M 0 0 
L 0 3.5 
" id="m6b434703f5" style="stroke:#000000;stroke-width:0.8;"/>
      </defs>
      <g>
       <use style="stroke:#000000;stroke-width:0.8;" x="86.1696" xlink:href="#m6b434703f5" y="307.584"/>
      </g>
     </g>
     <g id="text_1">
      <!-- −4 -->
      <defs>
       <path d="M 10.59375 35.5 
L 73.1875 35.5 
L 73.1875 27.203125 
L 10.59375 27.203125 
z
" id="DejaVuSans-8722"/>
       <path d="M 37.796875 64.3125 
L 12.890625 25.390625 
L 37.796875 25.390625 
z
M 35.203125 72.90625 
L 47.609375 72.90625 
L 47.609375 25.390625 
L 58.015625 25.390625 
L 58.015625 17.1875 
L 47.609375 17.1875 
L 47.609375 0 
L 37.796875 0 
L 37.796875 17.1875 
L 4.890625 17.1875 
L 4.890625 26.703125 
z
" id="DejaVuSans-52"/>
      </defs>
      <g transform="translate(78.798506 322.182437)scale(0.1 -0.1)">
       <use xlink:href="#DejaVuSans-8722"/>
       <use x="83.789062" xlink:href="#DejaVuSans-52"/>
      </g>
     </g>
    </g>
    <g id="xtick_2">
     <g id="line2d_2">
      <g>
       <use style="stroke:#000000;stroke-width:0.8;" x="143.3088" xlink:href="#m6b434703f5" y="307.584"/>
      </g>
     </g>
     <g id="text_2">
      <!-- −2 -->
      <defs>
       <path d="M 19.1875 8.296875 
L 53.609375 8.296875 
L 53.609375 0 
L 7.328125 0 
L 7.328125 8.296875 
Q 12.9375 14.109375 22.625 23.890625 
Q 32.328125 33.6875 34.8125 36.53125 
Q 39.546875 41.84375 41.421875 45.53125 
Q 43.3125 49.21875 43.3125 52.78125 
Q 43.3125 58.59375 39.234375 62.25 
Q 35.15625 65.921875 28.609375 65.921875 
Q 23.96875 65.921875 18.8125 64.3125 
Q 13.671875 62.703125 7.8125 59.421875 
L 7.8125 69.390625 
Q 13.765625 71.78125 18.9375 73 
Q 24.125 74.21875 28.421875 74.21875 
Q 39.75 74.21875 46.484375 68.546875 
Q 53.21875 62.890625 53.21875 53.421875 
Q 53.21875 48.921875 51.53125 44.890625 
Q 49.859375 40.875 45.40625 35.40625 
Q 44.1875 33.984375 37.640625 27.21875 
Q 31.109375 20.453125 19.1875 8.296875 
z
" id="DejaVuSans-50"/>
      </defs>
      <g transform="translate(135.937706 322.182437)scale(0.1 -0.1)">
       <use xlink:href="#DejaVuSans-8722"/>
       <use x="83.789062" xlink:href="#DejaVuSans-50"/>
      </g>
     </g>
    </g>
    <g id="xtick_3">
     <g id="line2d_3">
      <g>
       <use style="stroke:#000000;stroke-width:0.8;" x="200.448" xlink:href="#m6b434703f5" y="307.584"/>
      </g>
     </g>
     <g id="text_3">
      <!-- 0 -->
      <defs>
       <path d="M 31.78125 66.40625 
Q 24.171875 66.40625 20.328125 58.90625 
Q 16.5 51.421875 16.5 36.375 
Q 16.5 21.390625 20.328125 13.890625 
Q 24.171875 6.390625 31.78125 6.390625 
Q 39.453125 6.390625 43.28125 13.890625 
Q 47.125 21.390625 47.125 36.375 
Q 47.125 51.421875 43.28125 58.90625 
Q 39.453125 66.40625 31.78125 66.40625 
z
M 31.78125 74.21875 
Q 44.046875 74.21875 50.515625 64.515625 
Q 56.984375 54.828125 56.984375 36.375 
Q 56.984375 17.96875 50.515625 8.265625 
Q 44.046875 -1.421875 31.78125 -1.421875 
Q 19.53125 -1.421875 13.0625 8.265625 
Q 6.59375 17.96875 6.59375 36.375 
Q 6.59375 54.828125 13.0625 64.515625 
Q 19.53125 74.21875 31.78125 74.21875 
z
" id="DejaVuSans-48"/>
      </defs>
      <g transform="translate(197.26675 322.182437)scale(0.1 -0.1)">
       <use xlink:href="#DejaVuSans-48"/>
      </g>
     </g>
    </g>
    <g id="xtick_4">
     <g id="line2d_4">
      <g>
       <use style="stroke:#000000;stroke-width:0.8;" x="257.5872" xlink:href="#m6b434703f5" y="307.584"/>
      </g>
     </g>
     <g id="text_4">
      <!-- 2 -->
      <g transform="translate(254.40595 322.182437)scale(0.1 -0.1)">
       <use xlink:href="#DejaVuSans-50"/>
      </g>
     </g>
    </g>
    <g id="xtick_5">
     <g id="line2d_5">
      <g>
       <use style="stroke:#000000;stroke-width:0.8;" x="314.7264" xlink:href="#m6b434703f5" y="307.584"/>
      </g>
     </g>
     <g id="text_5">
      <!-- 4 -->
      <g transform="translate(311.54515 322.182437)scale(0.1 -0.1)">
       <use xlink:href="#DejaVuSans-52"/>
      </g>
     </g>
    </g>
   </g>
   <g id="matplotlib.axis_2">
    <g id="ytick_1">
     <g id="line2d_6">
      <defs>
       <path d="M 0 0 
L -3.5 0 
" id="m4e88a2551d" style="stroke:#000000;stroke-width:0.8;"/>
      </defs>
      <g>
       <use style="stroke:#000000;stroke-width:0.8;" x="57.6" xlink:href="#m4e88a2551d" y="280.9728"/>
      </g>
     </g>
     <g id="text_6">
      <!-- −4 -->
      <g transform="translate(35.857813 284.772019)scale(0.1 -0.1)">
       <use xlink:href="#DejaVuSans-8722"/>
       <use x="83.789062" xlink:href="#DejaVuSans-52"/>
      </g>
     </g>
    </g>
    <g id="ytick_2">
     <g id="line2d_7">
      <g>
       <use style="stroke:#000000;stroke-width:0.8;" x="57.6" xlink:href="#m4e88a2551d" y="227.7504"/>
      </g>
     </g>
     <g id="text_7">
      <!-- −2 -->
      <g transform="translate(35.857813 231.549619)scale(0.1 -0.1)">
       <use xlink:href="#DejaVuSans-8722"/>
       <use x="83.789062" xlink:href="#DejaVuSans-50"/>
      </g>
     </g>
    </g>
    <g id="ytick_3">
     <g id="line2d_8">
      <g>
       <use style="stroke:#000000;stroke-width:0.8;" x="57.6" xlink:href="#m4e88a2551d" y="174.528"/>
      </g>
     </g>
     <g id="text_8">
      <!-- 0 -->
      <g transform="translate(44.2375 178.327219)scale(0.1 -0.1)">
       <use xlink:href="#DejaVuSans-48"/>
      </g>
     </g>
    </g>
    <g id="ytick_4">
     <g id="line2d_9">
      <g>
       <use style="stroke:#000000;stroke-width:0.8;" x="57.6" xlink:href="#m4e88a2551d" y="121.3056"/>
      </g>
     </g>
     <g id="text_9">
      <!-- 2 -->
      <g transform="translate(44.2375 125.104819)scale(0.1 -0.1)">
       <use xlink:href="#DejaVuSans-50"/>
      </g>
     </g>
    </g>
    <g id="ytick_5">
     <g id="line2d_10">
      <g>
       <use style="stroke:#000000;stroke-width:0.8;" x="57.6" xlink:href="#m4e88a2551d" y="68.0832"/>
      </g>
     </g>
     <g id="text_10">
      <!-- 4 -->
      <g transform="translate(44.2375 71.882419)scale(0.1 -0.1)">
       <use xlink:href="#DejaVuSans-52"/>
      </g>
     </g>
    </g>
   </g>
   <g id="LineCollection_1"/>
   <g id="LineCollection_2">
    <path clip-path="url(#p126637d7ec)" d="M 184.576 238.00736 
L 181.690182 237.31968 
L 178.804364 236.501593 
L 174.385855 235.008 
L 173.032727 234.492393 
L 168.105849 232.32 
L 167.261091 231.90784 
L 163.092194 229.632 
L 158.855115 226.944 
L 158.603636 226.771402 
L 155.216407 224.256 
L 152.020576 221.568 
L 149.179837 218.88 
L 146.638123 216.192 
L 144.174545 213.26976 
L 141.288727 209.323126 
L 140.49444 208.128 
L 138.402909 204.653149 
L 137.382379 202.752 
L 135.517091 198.803627 
L 134.917343 197.376 
L 133.91358 194.688 
L 132.631273 190.55744 
L 132.296999 189.312 
L 131.695787 186.624 
L 131.214817 183.936 
L 130.85409 181.248 
L 130.613605 178.56 
L 130.493362 175.872 
L 130.493362 173.184 
L 130.613605 170.496 
L 130.85409 167.808 
L 131.214817 165.12 
L 131.695787 162.432 
L 132.631273 158.49856 
L 133.035287 157.056 
L 133.91358 154.368 
L 135.517091 150.252373 
L 136.070643 148.992 
L 138.402909 144.402851 
L 138.845401 143.616 
L 141.288727 139.732874 
L 144.174545 135.78624 
L 144.359845 135.552 
L 147.060364 132.39696 
L 149.946182 129.420198 
L 152.832 126.774187 
L 155.717818 124.406703 
L 158.855115 122.112 
L 163.092194 119.424 
L 167.261091 117.14816 
L 170.146909 115.785425 
L 174.385855 114.048 
L 178.804364 112.554407 
L 183.238904 111.36 
L 187.461818 110.48864 
L 193.233455 109.70464 
L 196.119273 109.48064 
L 199.005091 109.36864 
L 201.890909 109.36864 
L 204.776727 109.48064 
L 207.662545 109.70464 
L 210.548364 110.04064 
L 216.32 111.04864 
L 219.205818 111.73632 
L 222.091636 112.554407 
L 226.510145 114.048 
L 227.863273 114.563607 
L 232.790151 116.736 
L 233.634909 117.14816 
L 237.803806 119.424 
L 242.040885 122.112 
L 242.292364 122.284598 
L 245.679593 124.8 
L 248.875424 127.488 
L 251.716163 130.176 
L 254.257877 132.864 
L 256.721455 135.78624 
L 259.607273 139.732874 
L 260.40156 140.928 
L 262.493091 144.402851 
L 263.513621 146.304 
L 265.378909 150.252373 
L 265.978657 151.68 
L 266.98242 154.368 
L 268.264727 158.49856 
L 268.599001 159.744 
L 269.200213 162.432 
L 269.681183 165.12 
L 270.04191 167.808 
L 270.282395 170.496 
L 270.402638 173.184 
L 270.402638 175.872 
L 270.282395 178.56 
L 270.04191 181.248 
L 269.681183 183.936 
L 269.200213 186.624 
L 268.264727 190.55744 
L 267.860713 192 
L 266.98242 194.688 
L 265.378909 198.803627 
L 264.825357 200.064 
L 262.493091 204.653149 
L 262.050599 205.44 
L 259.607273 209.323126 
L 256.721455 213.26976 
L 256.536155 213.504 
L 253.835636 216.65904 
L 250.949818 219.635802 
L 248.064 222.281813 
L 245.178182 224.649297 
L 242.040885 226.944 
L 237.803806 229.632 
L 233.634909 231.90784 
L 230.749091 233.270575 
L 226.510145 235.008 
L 222.091636 236.501593 
L 217.657096 237.696 
L 213.434182 238.56736 
L 207.662545 239.35136 
L 204.776727 239.57536 
L 201.890909 239.68736 
L 199.005091 239.68736 
L 196.119273 239.57536 
L 193.233455 239.35136 
L 190.347636 239.01536 
L 184.576 238.00736 
L 184.576 238.00736 
" style="fill:none;stroke:#00e38e;stroke-width:1.5;"/>
   </g>
   <g id="LineCollection_3">
    <path clip-path="url(#p126637d7ec)" d="M 181.690182 265.035332 
L 175.918545 263.827433 
L 170.146909 262.279796 
L 167.261091 261.36804 
L 161.322489 259.2 
L 155.210996 256.512 
L 149.946182 253.806389 
L 144.174545 250.34976 
L 141.288727 248.429084 
L 137.640791 245.76 
L 134.286227 243.072 
L 131.21121 240.384 
L 128.382194 237.696 
L 125.770795 235.008 
L 123.352833 232.32 
L 121.088 229.606464 
L 118.202182 225.785331 
L 115.316364 221.537958 
L 112.16896 216.192 
L 109.47168 210.816 
L 107.217135 205.44 
L 106.238279 202.752 
L 104.576748 197.376 
L 103.279956 192 
L 102.346308 186.624 
L 101.752169 181.248 
L 101.497538 175.872 
L 101.582415 170.496 
L 102.0068 165.12 
L 102.770693 159.744 
L 103.877155 154.368 
L 105.363789 148.992 
L 107.217135 143.616 
L 109.544727 138.08448 
L 112.16896 132.864 
L 113.699344 130.176 
L 115.335271 127.488 
L 119.046284 122.112 
L 121.108308 119.424 
L 123.973818 116.026124 
L 126.859636 112.90151 
L 129.745455 110.03728 
L 132.631273 107.402189 
L 135.517091 104.969797 
L 138.402909 102.717582 
L 141.316143 100.608 
L 147.060364 96.918025 
L 149.978435 95.232 
L 155.717818 92.300346 
L 161.489455 89.78796 
L 167.261091 87.68796 
L 170.146909 86.776204 
L 175.918545 85.228567 
L 181.690182 84.020668 
L 187.461818 83.151021 
L 193.233455 82.597609 
L 199.005091 82.360433 
L 204.776727 82.439492 
L 210.548364 82.834786 
L 216.32 83.546315 
L 222.091636 84.576931 
L 227.863273 85.961658 
L 233.634909 87.68796 
L 239.573511 89.856 
L 245.685004 92.544 
L 250.949818 95.249611 
L 256.721455 98.70624 
L 259.607273 100.626916 
L 263.255209 103.296 
L 266.609773 105.984 
L 269.68479 108.672 
L 272.513806 111.36 
L 275.125205 114.048 
L 277.543167 116.736 
L 279.808 119.449536 
L 282.693818 123.270669 
L 285.579636 127.518042 
L 288.72704 132.864 
L 291.42432 138.24 
L 293.678865 143.616 
L 294.657721 146.304 
L 296.319252 151.68 
L 297.616044 157.056 
L 298.549692 162.432 
L 299.143831 167.808 
L 299.398462 173.184 
L 299.313585 178.56 
L 298.8892 183.936 
L 298.125307 189.312 
L 297.018845 194.688 
L 295.532211 200.064 
L 293.678865 205.44 
L 291.351273 210.97152 
L 288.72704 216.192 
L 287.196656 218.88 
L 285.560729 221.568 
L 281.849716 226.944 
L 279.787692 229.632 
L 276.922182 233.029876 
L 274.036364 236.15449 
L 271.150545 239.01872 
L 268.264727 241.653811 
L 265.378909 244.086203 
L 262.493091 246.338418 
L 259.579857 248.448 
L 253.835636 252.137975 
L 250.917565 253.824 
L 245.178182 256.755654 
L 239.406545 259.26804 
L 233.634909 261.36804 
L 230.749091 262.279796 
L 224.977455 263.827433 
L 219.205818 265.035332 
L 213.434182 265.904979 
L 207.662545 266.458391 
L 201.890909 266.695567 
L 196.119273 266.616508 
L 190.347636 266.221214 
L 184.576 265.509685 
L 181.690182 265.035332 
L 181.690182 265.035332 
" style="fill:none;stroke:#00c79c;stroke-width:1.5;"/>
   </g>
   <g id="LineCollection_4">
    <path clip-path="url(#p126637d7ec)" d="M 184.576 286.45376 
L 178.804364 285.610583 
L 173.032727 284.496047 
L 167.261091 283.112448 
L 161.489455 281.432448 
L 155.717818 279.452357 
L 149.946182 277.15584 
L 144.174545 274.517241 
L 138.402909 271.508053 
L 132.631273 268.096512 
L 129.745455 266.223586 
L 126.859636 264.237149 
L 123.670273 261.888 
L 118.202182 257.451933 
L 114.177427 253.824 
L 111.42144 251.136 
L 108.837702 248.448 
L 106.410554 245.76 
L 102.004254 240.384 
L 99.993494 237.696 
L 96.330886 232.32 
L 94.660145 229.632 
L 91.634428 224.256 
L 88.985863 218.88 
L 86.458182 212.89728 
L 84.738234 208.128 
L 83.090925 202.752 
L 81.753594 197.376 
L 80.686545 191.92832 
L 79.94173 186.624 
L 79.46076 181.248 
L 79.25463 175.872 
L 79.32334 170.496 
L 79.66689 165.12 
L 80.285279 159.744 
L 81.190508 154.368 
L 82.387067 148.992 
L 83.872489 143.616 
L 85.676125 138.24 
L 87.801937 132.864 
L 90.267462 127.488 
L 93.100243 122.112 
L 96.330886 116.736 
L 98.097099 114.048 
L 102.004254 108.672 
L 104.136879 105.984 
L 106.658909 103.013262 
L 111.42144 97.92 
L 115.316364 94.171136 
L 118.202182 91.604067 
L 121.088 89.19744 
L 123.973818 86.936669 
L 129.745455 82.832414 
L 132.631273 80.959488 
L 138.402909 77.547947 
L 141.288727 75.991732 
L 147.060364 73.173423 
L 152.832 70.706412 
L 159.255007 68.352 
L 164.375273 66.749952 
L 170.146909 65.215563 
L 175.918545 63.969904 
L 181.767137 62.976 
L 187.461818 62.28224 
L 193.233455 61.83424 
L 199.005091 61.64224 
L 204.776727 61.70624 
L 210.548364 62.02624 
L 216.32 62.60224 
L 222.091636 63.445417 
L 227.863273 64.559953 
L 233.634909 65.943552 
L 239.406545 67.623552 
L 245.178182 69.603643 
L 250.949818 71.90016 
L 256.721455 74.538759 
L 262.493091 77.547947 
L 268.264727 80.959488 
L 271.150545 82.832414 
L 274.036364 84.818851 
L 277.225727 87.168 
L 282.693818 91.604067 
L 286.718573 95.232 
L 289.47456 97.92 
L 292.058298 100.608 
L 294.485446 103.296 
L 298.891746 108.672 
L 300.902506 111.36 
L 304.565114 116.736 
L 306.235855 119.424 
L 309.261572 124.8 
L 311.910137 130.176 
L 314.437818 136.15872 
L 316.157766 140.928 
L 317.805075 146.304 
L 319.142406 151.68 
L 320.209455 157.12768 
L 320.95427 162.432 
L 321.43524 167.808 
L 321.64137 173.184 
L 321.57266 178.56 
L 321.22911 183.936 
L 320.610721 189.312 
L 319.705492 194.688 
L 318.508933 200.064 
L 317.023511 205.44 
L 315.219875 210.816 
L 313.094063 216.192 
L 310.628538 221.568 
L 307.795757 226.944 
L 304.565114 232.32 
L 302.798901 235.008 
L 298.891746 240.384 
L 296.759121 243.072 
L 294.237091 246.042738 
L 289.47456 251.136 
L 285.579636 254.884864 
L 282.693818 257.451933 
L 279.808 259.85856 
L 276.922182 262.119331 
L 271.150545 266.223586 
L 268.264727 268.096512 
L 262.493091 271.508053 
L 259.607273 273.064268 
L 253.835636 275.882577 
L 248.064 278.349588 
L 241.640993 280.704 
L 236.520727 282.306048 
L 230.749091 283.840437 
L 224.977455 285.086096 
L 219.128863 286.08 
L 213.434182 286.77376 
L 207.662545 287.22176 
L 201.890909 287.41376 
L 196.119273 287.34976 
L 190.347636 287.02976 
L 184.576 286.45376 
L 184.576 286.45376 
" style="fill:none;stroke:#00aaaa;stroke-width:1.5;"/>
   </g>
   <g id="LineCollection_5">
    <path clip-path="url(#p126637d7ec)" d="M 173.032727 302.36872 
L 167.261091 301.171118 
L 160.691732 299.52 
L 155.717818 298.051534 
L 149.946182 296.107435 
L 144.174545 293.891695 
L 138.402909 291.385362 
L 132.631273 288.56768 
L 126.859636 285.415867 
L 121.088 281.904864 
L 118.202182 280.005809 
L 112.430545 275.884699 
L 108.293905 272.64 
L 103.773091 268.790016 
L 99.248953 264.576 
L 95.115636 260.36508 
L 91.63215 256.512 
L 87.207755 251.136 
L 83.572364 246.244836 
L 80.686545 241.982822 
L 77.800727 237.330198 
L 74.914909 232.17536 
L 72.029091 226.359714 
L 69.921161 221.568 
L 67.83399 216.192 
L 66.019835 210.816 
L 64.484825 205.44 
L 63.199088 200.064 
L 62.177028 194.688 
L 61.395452 189.312 
L 60.854361 183.936 
L 60.553755 178.56 
L 60.493634 173.184 
L 60.673998 167.808 
L 61.094846 162.432 
L 61.756179 157.056 
L 62.657998 151.68 
L 63.809421 146.304 
L 65.22163 140.928 
L 66.892962 135.552 
L 69.143273 129.405967 
L 71.075488 124.8 
L 73.6117 119.424 
L 76.467211 114.048 
L 79.664828 108.672 
L 83.229585 103.296 
L 86.458182 98.89248 
L 89.353873 95.232 
L 94.033845 89.856 
L 98.001455 85.712407 
L 102.086585 81.792 
L 106.658909 77.769707 
L 111.69792 73.728 
L 115.3293 71.04 
L 121.088 67.151136 
L 126.859636 63.640133 
L 132.631273 60.48832 
L 135.517091 59.045894 
L 141.288727 56.386124 
L 147.060364 54.023765 
L 152.832 51.939423 
L 158.603636 50.127944 
L 164.375273 48.57118 
L 170.146909 47.255775 
L 175.918545 46.18328 
L 181.690182 45.34328 
L 187.461818 44.72728 
L 193.233455 44.33528 
L 199.005091 44.16728 
L 204.776727 44.22328 
L 210.548364 44.50328 
L 216.32 45.00728 
L 222.091636 45.73528 
L 228.691503 46.848 
L 233.634909 47.884882 
L 240.204268 49.536 
L 245.178182 51.004466 
L 250.949818 52.948565 
L 256.721455 55.164305 
L 262.493091 57.670638 
L 268.264727 60.48832 
L 274.036364 63.640133 
L 279.808 67.151136 
L 282.693818 69.050191 
L 288.465455 73.171301 
L 292.602095 76.416 
L 297.122909 80.265984 
L 301.647047 84.48 
L 305.780364 88.69092 
L 309.26385 92.544 
L 313.688245 97.92 
L 317.323636 102.811164 
L 320.209455 107.073178 
L 323.095273 111.725802 
L 325.981091 116.88064 
L 328.866909 122.696286 
L 330.974839 127.488 
L 333.06201 132.864 
L 334.876165 138.24 
L 336.411175 143.616 
L 337.696912 148.992 
L 338.718972 154.368 
L 339.500548 159.744 
L 340.041639 165.12 
L 340.342245 170.496 
L 340.402366 175.872 
L 340.222002 181.248 
L 339.801154 186.624 
L 339.139821 192 
L 338.238002 197.376 
L 337.086579 202.752 
L 335.67437 208.128 
L 334.003038 213.504 
L 331.752727 219.650033 
L 329.820512 224.256 
L 327.2843 229.632 
L 324.428789 235.008 
L 321.231172 240.384 
L 317.666415 245.76 
L 314.437818 250.16352 
L 311.542127 253.824 
L 306.862155 259.2 
L 302.894545 263.343593 
L 298.809415 267.264 
L 294.237091 271.286293 
L 289.19808 275.328 
L 285.5667 278.016 
L 279.808 281.904864 
L 274.036364 285.415867 
L 268.264727 288.56768 
L 265.378909 290.010106 
L 259.607273 292.669876 
L 253.835636 295.032235 
L 248.064 297.116577 
L 242.292364 298.928056 
L 236.520727 300.48482 
L 230.749091 301.800225 
L 224.977455 302.87272 
L 219.205818 303.71272 
L 213.434182 304.32872 
L 207.662545 304.72072 
L 201.890909 304.88872 
L 196.119273 304.83272 
L 190.347636 304.55272 
L 184.576 304.04872 
L 178.804364 303.32072 
L 173.032727 302.36872 
L 173.032727 302.36872 
" style="fill:none;stroke:#008eb8;stroke-width:1.5;"/>
   </g>
   <g id="LineCollection_6">
    <path clip-path="url(#p126637d7ec)" d="M 136.579597 307.584 
L 135.517091 307.139657 
L 132.631273 305.877943 
L 130.478933 304.896 
L 129.745455 304.5544 
L 126.859636 303.1544 
L 124.983855 302.208 
L 123.973818 301.687557 
L 121.088 300.143387 
L 119.964592 299.52 
L 118.202182 298.520765 
L 115.326315 296.832 
L 115.316364 296.826027 
L 112.430545 295.034027 
L 111.043491 294.144 
L 109.544727 293.160436 
L 107.028655 291.456 
L 106.658909 291.199702 
L 103.773091 289.136819 
L 103.272317 288.768 
L 100.887273 286.9696 
L 99.741191 286.08 
L 98.001455 284.696663 
L 96.406238 283.392 
L 95.115636 282.31008 
L 93.251554 280.704 
L 92.229818 279.801108 
L 90.262905 278.016 
L 89.344 277.160084 
L 87.427521 275.328 
L 86.458182 274.376303 
L 84.733905 272.64 
L 83.572364 271.437867 
L 82.171686 269.952 
L 80.686545 268.33152 
L 79.731477 267.264 
L 77.800727 265.042447 
L 77.404766 264.576 
L 75.190068 261.888 
L 74.914909 261.5436 
L 73.085038 259.2 
L 72.029091 257.803974 
L 71.073564 256.512 
L 69.149686 253.824 
L 69.143273 253.814731 
L 67.330226 251.136 
L 66.257455 249.4944 
L 65.58819 248.448 
L 63.93038 245.76 
L 63.371636 244.8192 
L 62.355588 243.072 
L 60.852558 240.384 
L 60.485818 239.7008 
L 59.431611 237.696 
L 58.077043 235.008 
L 57.6 234.018327 
" style="fill:none;stroke:#0071c6;stroke-width:1.5;"/>
    <path clip-path="url(#p126637d7ec)" d="M 343.296 234.018327 
L 342.818957 235.008 
L 341.464389 237.696 
L 340.410182 239.7008 
L 340.043442 240.384 
L 338.540412 243.072 
L 337.524364 244.8192 
L 336.96562 245.76 
L 335.30781 248.448 
L 334.638545 249.4944 
L 333.565774 251.136 
L 331.752727 253.814731 
L 331.746314 253.824 
L 329.822436 256.512 
L 328.866909 257.803974 
L 327.810962 259.2 
L 325.981091 261.5436 
L 325.705932 261.888 
L 323.491234 264.576 
L 323.095273 265.042447 
L 321.164523 267.264 
L 320.209455 268.33152 
L 318.724314 269.952 
L 317.323636 271.437867 
L 316.162095 272.64 
L 314.437818 274.376303 
L 313.468479 275.328 
L 311.552 277.160084 
L 310.633095 278.016 
L 308.666182 279.801108 
L 307.644446 280.704 
L 305.780364 282.31008 
L 304.489762 283.392 
L 302.894545 284.696663 
L 301.154809 286.08 
L 300.008727 286.9696 
L 297.623683 288.768 
L 297.122909 289.136819 
L 294.237091 291.199702 
L 293.867345 291.456 
L 291.351273 293.160436 
L 289.852509 294.144 
L 288.465455 295.034027 
L 285.579636 296.826027 
L 285.569685 296.832 
L 282.693818 298.520765 
L 280.931408 299.52 
L 279.808 300.143387 
L 276.922182 301.687557 
L 275.912145 302.208 
L 274.036364 303.1544 
L 271.150545 304.5544 
L 270.417067 304.896 
L 268.264727 305.877943 
L 265.378909 307.139657 
L 264.316403 307.584 
" style="fill:none;stroke:#0071c6;stroke-width:1.5;"/>
    <path clip-path="url(#p126637d7ec)" d="M 57.6 115.037673 
L 58.077043 114.048 
L 59.431611 111.36 
L 60.485818 109.3552 
L 60.852558 108.672 
L 62.355588 105.984 
L 63.371636 104.2368 
L 63.93038 103.296 
L 65.58819 100.608 
L 66.257455 99.5616 
L 67.330226 97.92 
L 69.143273 95.241269 
L 69.149686 95.232 
L 71.073564 92.544 
L 72.029091 91.252026 
L 73.085038 89.856 
L 74.914909 87.5124 
L 75.190068 87.168 
L 77.404766 84.48 
L 77.800727 84.013553 
L 79.731477 81.792 
L 80.686545 80.72448 
L 82.171686 79.104 
L 83.572364 77.618133 
L 84.733905 76.416 
L 86.458182 74.679697 
L 87.427521 73.728 
L 89.344 71.895916 
L 90.262905 71.04 
L 92.229818 69.254892 
L 93.251554 68.352 
L 95.115636 66.74592 
L 96.406238 65.664 
L 98.001455 64.359337 
L 99.741191 62.976 
L 100.887273 62.0864 
L 103.272317 60.288 
L 103.773091 59.919181 
L 106.658909 57.856298 
L 107.028655 57.6 
L 109.544727 55.895564 
L 111.043491 54.912 
L 112.430545 54.021973 
L 115.316364 52.229973 
L 115.326315 52.224 
L 118.202182 50.535235 
L 119.964592 49.536 
L 121.088 48.912613 
L 123.973818 47.368443 
L 124.983855 46.848 
L 126.859636 45.9016 
L 129.745455 44.5016 
L 130.478933 44.16 
L 132.631273 43.178057 
L 135.517091 41.916343 
L 136.579597 41.472 
" style="fill:none;stroke:#0071c6;stroke-width:1.5;"/>
    <path clip-path="url(#p126637d7ec)" d="M 264.316403 41.472 
L 265.378909 41.916343 
L 268.264727 43.178057 
L 270.417067 44.16 
L 271.150545 44.5016 
L 274.036364 45.9016 
L 275.912145 46.848 
L 276.922182 47.368443 
L 279.808 48.912613 
L 280.931408 49.536 
L 282.693818 50.535235 
L 285.569685 52.224 
L 285.579636 52.229973 
L 288.465455 54.021973 
L 289.852509 54.912 
L 291.351273 55.895564 
L 293.867345 57.6 
L 294.237091 57.856298 
L 297.122909 59.919181 
L 297.623683 60.288 
L 300.008727 62.0864 
L 301.154809 62.976 
L 302.894545 64.359337 
L 304.489762 65.664 
L 305.780364 66.74592 
L 307.644446 68.352 
L 308.666182 69.254892 
L 310.633095 71.04 
L 311.552 71.895916 
L 313.468479 73.728 
L 314.437818 74.679697 
L 316.162095 76.416 
L 317.323636 77.618133 
L 318.724314 79.104 
L 320.209455 80.72448 
L 321.164523 81.792 
L 323.095273 84.013553 
L 323.491234 84.48 
L 325.705932 87.168 
L 325.981091 87.5124 
L 327.810962 89.856 
L 328.866909 91.252026 
L 329.822436 92.544 
L 331.746314 95.232 
L 331.752727 95.241269 
L 333.565774 97.92 
L 334.638545 99.5616 
L 335.30781 100.608 
L 336.96562 103.296 
L 337.524364 104.2368 
L 338.540412 105.984 
L 340.043442 108.672 
L 340.410182 109.3552 
L 341.464389 111.36 
L 342.818957 114.048 
L 343.296 115.037673 
" style="fill:none;stroke:#0071c6;stroke-width:1.5;"/>
   </g>
   <g id="LineCollection_7">
    <path clip-path="url(#p126637d7ec)" d="M 105.703091 307.584 
L 103.773091 306.373303 
L 101.487353 304.896 
L 100.887273 304.50008 
L 98.001455 302.54008 
L 97.526096 302.208 
L 95.115636 300.488252 
L 93.79518 299.52 
L 92.229818 298.347214 
L 90.260627 296.832 
L 89.344 296.111019 
L 86.907334 294.144 
L 86.458182 293.773178 
L 83.721705 291.456 
L 83.572364 291.326601 
L 80.691472 288.768 
L 80.686545 288.76352 
L 77.805537 286.08 
L 77.800727 286.075411 
L 75.053831 283.392 
L 74.914909 283.252896 
L 72.427203 280.704 
L 72.029091 280.285637 
L 69.917313 278.016 
L 69.143273 277.162206 
L 67.51655 275.328 
L 66.257455 273.869942 
L 65.217946 272.64 
L 63.371636 270.394773 
L 63.015118 269.952 
L 60.910875 267.264 
L 60.485818 266.705054 
L 58.899796 264.576 
L 57.6 262.778298 
" style="fill:none;stroke:#0055d4;stroke-width:1.5;"/>
    <path clip-path="url(#p126637d7ec)" d="M 343.296 262.778298 
L 341.996204 264.576 
L 340.410182 266.705054 
L 339.985125 267.264 
L 337.880882 269.952 
L 337.524364 270.394773 
L 335.678054 272.64 
L 334.638545 273.869942 
L 333.37945 275.328 
L 331.752727 277.162206 
L 330.978687 278.016 
L 328.866909 280.285637 
L 328.468797 280.704 
L 325.981091 283.252896 
L 325.842169 283.392 
L 323.095273 286.075411 
L 323.090463 286.08 
L 320.209455 288.76352 
L 320.204528 288.768 
L 317.323636 291.326601 
L 317.174295 291.456 
L 314.437818 293.773178 
L 313.988666 294.144 
L 311.552 296.111019 
L 310.635373 296.832 
L 308.666182 298.347214 
L 307.10082 299.52 
L 305.780364 300.488252 
L 303.369904 302.208 
L 302.894545 302.54008 
L 300.008727 304.50008 
L 299.408647 304.896 
L 297.122909 306.373303 
L 295.192909 307.584 
" style="fill:none;stroke:#0055d4;stroke-width:1.5;"/>
    <path clip-path="url(#p126637d7ec)" d="M 57.6 86.277702 
L 58.899796 84.48 
L 60.485818 82.350946 
L 60.910875 81.792 
L 63.015118 79.104 
L 63.371636 78.661227 
L 65.217946 76.416 
L 66.257455 75.186058 
L 67.51655 73.728 
L 69.143273 71.893794 
L 69.917313 71.04 
L 72.029091 68.770363 
L 72.427203 68.352 
L 74.914909 65.803104 
L 75.053831 65.664 
L 77.800727 62.980589 
L 77.805537 62.976 
L 80.686545 60.29248 
L 80.691472 60.288 
L 83.572364 57.729399 
L 83.721705 57.6 
L 86.458182 55.282822 
L 86.907334 54.912 
L 89.344 52.944981 
L 90.260627 52.224 
L 92.229818 50.708786 
L 93.79518 49.536 
L 95.115636 48.567748 
L 97.526096 46.848 
L 98.001455 46.51592 
L 100.887273 44.55592 
L 101.487353 44.16 
L 103.773091 42.682697 
L 105.703091 41.472 
" style="fill:none;stroke:#0055d4;stroke-width:1.5;"/>
    <path clip-path="url(#p126637d7ec)" d="M 295.192909 41.472 
L 297.122909 42.682697 
L 299.408647 44.16 
L 300.008727 44.55592 
L 302.894545 46.51592 
L 303.369904 46.848 
L 305.780364 48.567748 
L 307.10082 49.536 
L 308.666182 50.708786 
L 310.635373 52.224 
L 311.552 52.944981 
L 313.988666 54.912 
L 314.437818 55.282822 
L 317.174295 57.6 
L 317.323636 57.729399 
L 320.204528 60.288 
L 320.209455 60.29248 
L 323.090463 62.976 
L 323.095273 62.980589 
L 325.842169 65.664 
L 325.981091 65.803104 
L 328.468797 68.352 
L 328.866909 68.770363 
L 330.978687 71.04 
L 331.752727 71.893794 
L 333.37945 73.728 
L 334.638545 75.186058 
L 335.678054 76.416 
L 337.524364 78.661227 
L 337.880882 79.104 
L 339.985125 81.792 
L 340.410182 82.350946 
L 341.996204 84.48 
L 343.296 86.277702 
" style="fill:none;stroke:#0055d4;stroke-width:1.5;"/>
   </g>
   <g id="LineCollection_8">
    <path clip-path="url(#p126637d7ec)" d="M 82.660164 307.584 
L 80.686545 306.045806 
L 79.246385 304.896 
L 77.800727 303.71776 
L 75.991386 302.208 
L 74.914909 301.290649 
L 72.884342 299.52 
L 72.029091 298.75801 
L 69.915389 296.832 
L 69.143273 296.112811 
L 67.075521 294.144 
L 66.257455 293.347375 
L 64.356499 291.456 
L 63.371636 290.453313 
L 61.750768 288.768 
L 60.485818 287.42144 
L 59.251395 286.08 
L 57.6 284.24167 
" style="fill:none;stroke:#0038e3;stroke-width:1.5;"/>
    <path clip-path="url(#p126637d7ec)" d="M 343.296 284.24167 
L 341.644605 286.08 
L 340.410182 287.42144 
L 339.145232 288.768 
L 337.524364 290.453313 
L 336.539501 291.456 
L 334.638545 293.347375 
L 333.820479 294.144 
L 331.752727 296.112811 
L 330.980611 296.832 
L 328.866909 298.75801 
L 328.011658 299.52 
L 325.981091 301.290649 
L 324.904614 302.208 
L 323.095273 303.71776 
L 321.649615 304.896 
L 320.209455 306.045806 
L 318.235836 307.584 
" style="fill:none;stroke:#0038e3;stroke-width:1.5;"/>
    <path clip-path="url(#p126637d7ec)" d="M 57.6 64.81433 
L 59.251395 62.976 
L 60.485818 61.63456 
L 61.750768 60.288 
L 63.371636 58.602687 
L 64.356499 57.6 
L 66.257455 55.708625 
L 67.075521 54.912 
L 69.143273 52.943189 
L 69.915389 52.224 
L 72.029091 50.29799 
L 72.884342 49.536 
L 74.914909 47.765351 
L 75.991386 46.848 
L 77.800727 45.33824 
L 79.246385 44.16 
L 80.686545 43.010194 
L 82.660164 41.472 
" style="fill:none;stroke:#0038e3;stroke-width:1.5;"/>
    <path clip-path="url(#p126637d7ec)" d="M 318.235836 41.472 
L 320.209455 43.010194 
L 321.649615 44.16 
L 323.095273 45.33824 
L 324.904614 46.848 
L 325.981091 47.765351 
L 328.011658 49.536 
L 328.866909 50.29799 
L 330.980611 52.224 
L 331.752727 52.943189 
L 333.820479 54.912 
L 334.638545 55.708625 
L 336.539501 57.6 
L 337.524364 58.602687 
L 339.145232 60.288 
L 340.410182 61.63456 
L 341.644605 62.976 
L 343.296 64.81433 
" style="fill:none;stroke:#0038e3;stroke-width:1.5;"/>
   </g>
   <g id="LineCollection_9">
    <path clip-path="url(#p126637d7ec)" d="M 63.433651 307.584 
L 63.371636 307.528594 
L 60.486419 304.896 
L 60.485818 304.89544 
L 57.659483 302.208 
L 57.6 302.150237 
" style="fill:none;stroke:#001cf1;stroke-width:1.5;"/>
    <path clip-path="url(#p126637d7ec)" d="M 343.296 302.150237 
L 343.236517 302.208 
L 340.410182 304.89544 
L 340.409581 304.896 
L 337.524364 307.528594 
L 337.462349 307.584 
" style="fill:none;stroke:#001cf1;stroke-width:1.5;"/>
    <path clip-path="url(#p126637d7ec)" d="M 57.6 46.905763 
L 57.659483 46.848 
L 60.485818 44.16056 
L 60.486419 44.16 
L 63.371636 41.527406 
L 63.433651 41.472 
" style="fill:none;stroke:#001cf1;stroke-width:1.5;"/>
    <path clip-path="url(#p126637d7ec)" d="M 337.462349 41.472 
L 337.524364 41.527406 
L 340.409581 44.16 
L 340.410182 44.16056 
L 343.236517 46.848 
L 343.296 46.905763 
" style="fill:none;stroke:#001cf1;stroke-width:1.5;"/>
   </g>
   <g id="LineCollection_10"/>
   <g id="patch_3">
    <path d="M 57.6 307.584 
L 57.6 41.472 
" style="fill:none;stroke:#000000;stroke-linecap:square;stroke-linejoin:miter;stroke-width:0.8;"/>
   </g>
   <g id="patch_4">
    <path d="M 343.296 307.584 
L 343.296 41.472 
" style="fill:none;stroke:#000000;stroke-linecap:square;stroke-linejoin:miter;stroke-width:0.8;"/>
   </g>
   <g id="patch_5">
    <path d="M 57.6 307.584 
L 343.296 307.584 
" style="fill:none;stroke:#000000;stroke-linecap:square;stroke-linejoin:miter;stroke-width:0.8;"/>
   </g>
   <g id="patch_6">
    <path d="M 57.6 41.472 
L 343.296 41.472 
" style="fill:none;stroke:#000000;stroke-linecap:square;stroke-linejoin:miter;stroke-width:0.8;"/>
   </g>
  </g>
  <g id="axes_2">
   <g id="patch_7">
    <path clip-path="url(#p6c91a2e92c)" d="M 361.152 307.584 
L 361.152 278.016 
L 361.152 71.04 
L 361.152 41.472 
L 374.4576 41.472 
L 374.4576 71.04 
L 374.4576 278.016 
L 374.4576 307.584 
z
" style="fill:#ffffff;stroke:#ffffff;stroke-linejoin:miter;stroke-width:0.01;"/>
   </g>
   <g id="matplotlib.axis_3"/>
   <g id="matplotlib.axis_4">
    <g id="ytick_6">
     <g id="line2d_11">
      <defs>
       <path d="M 0 0 
L 3.5 0 
" id="m4ec03ab46e" style="stroke:#000000;stroke-width:0.8;"/>
      </defs>
      <g>
       <use style="stroke:#000000;stroke-width:0.8;" x="374.4576" xlink:href="#m4ec03ab46e" y="307.584"/>
      </g>
     </g>
     <g id="text_11">
      <!-- 0 -->
      <g transform="translate(381.4576 311.383219)scale(0.1 -0.1)">
       <use xlink:href="#DejaVuSans-48"/>
      </g>
     </g>
    </g>
    <g id="ytick_7">
     <g id="line2d_12">
      <g>
       <use style="stroke:#000000;stroke-width:0.8;" x="374.4576" xlink:href="#m4ec03ab46e" y="278.016"/>
      </g>
     </g>
     <g id="text_12">
      <!-- 6 -->
      <defs>
       <path d="M 33.015625 40.375 
Q 26.375 40.375 22.484375 35.828125 
Q 18.609375 31.296875 18.609375 23.390625 
Q 18.609375 15.53125 22.484375 10.953125 
Q 26.375 6.390625 33.015625 6.390625 
Q 39.65625 6.390625 43.53125 10.953125 
Q 47.40625 15.53125 47.40625 23.390625 
Q 47.40625 31.296875 43.53125 35.828125 
Q 39.65625 40.375 33.015625 40.375 
z
M 52.59375 71.296875 
L 52.59375 62.3125 
Q 48.875 64.0625 45.09375 64.984375 
Q 41.3125 65.921875 37.59375 65.921875 
Q 27.828125 65.921875 22.671875 59.328125 
Q 17.53125 52.734375 16.796875 39.40625 
Q 19.671875 43.65625 24.015625 45.921875 
Q 28.375 48.1875 33.59375 48.1875 
Q 44.578125 48.1875 50.953125 41.515625 
Q 57.328125 34.859375 57.328125 23.390625 
Q 57.328125 12.15625 50.6875 5.359375 
Q 44.046875 -1.421875 33.015625 -1.421875 
Q 20.359375 -1.421875 13.671875 8.265625 
Q 6.984375 17.96875 6.984375 36.375 
Q 6.984375 53.65625 15.1875 63.9375 
Q 23.390625 74.21875 37.203125 74.21875 
Q 40.921875 74.21875 44.703125 73.484375 
Q 48.484375 72.75 52.59375 71.296875 
z
" id="DejaVuSans-54"/>
      </defs>
      <g transform="translate(381.4576 281.815219)scale(0.1 -0.1)">
       <use xlink:href="#DejaVuSans-54"/>
      </g>
     </g>
    </g>
    <g id="ytick_8">
     <g id="line2d_13">
      <g>
       <use style="stroke:#000000;stroke-width:0.8;" x="374.4576" xlink:href="#m4ec03ab46e" y="248.448"/>
      </g>
     </g>
     <g id="text_13">
      <!-- 12 -->
      <defs>
       <path d="M 12.40625 8.296875 
L 28.515625 8.296875 
L 28.515625 63.921875 
L 10.984375 60.40625 
L 10.984375 69.390625 
L 28.421875 72.90625 
L 38.28125 72.90625 
L 38.28125 8.296875 
L 54.390625 8.296875 
L 54.390625 0 
L 12.40625 0 
z
" id="DejaVuSans-49"/>
      </defs>
      <g transform="translate(381.4576 252.247219)scale(0.1 -0.1)">
       <use xlink:href="#DejaVuSans-49"/>
       <use x="63.623047" xlink:href="#DejaVuSans-50"/>
      </g>
     </g>
    </g>
    <g id="ytick_9">
     <g id="line2d_14">
      <g>
       <use style="stroke:#000000;stroke-width:0.8;" x="374.4576" xlink:href="#m4ec03ab46e" y="218.88"/>
      </g>
     </g>
     <g id="text_14">
      <!-- 18 -->
      <defs>
       <path d="M 31.78125 34.625 
Q 24.75 34.625 20.71875 30.859375 
Q 16.703125 27.09375 16.703125 20.515625 
Q 16.703125 13.921875 20.71875 10.15625 
Q 24.75 6.390625 31.78125 6.390625 
Q 38.8125 6.390625 42.859375 10.171875 
Q 46.921875 13.96875 46.921875 20.515625 
Q 46.921875 27.09375 42.890625 30.859375 
Q 38.875 34.625 31.78125 34.625 
z
M 21.921875 38.8125 
Q 15.578125 40.375 12.03125 44.71875 
Q 8.5 49.078125 8.5 55.328125 
Q 8.5 64.0625 14.71875 69.140625 
Q 20.953125 74.21875 31.78125 74.21875 
Q 42.671875 74.21875 48.875 69.140625 
Q 55.078125 64.0625 55.078125 55.328125 
Q 55.078125 49.078125 51.53125 44.71875 
Q 48 40.375 41.703125 38.8125 
Q 48.828125 37.15625 52.796875 32.3125 
Q 56.78125 27.484375 56.78125 20.515625 
Q 56.78125 9.90625 50.3125 4.234375 
Q 43.84375 -1.421875 31.78125 -1.421875 
Q 19.734375 -1.421875 13.25 4.234375 
Q 6.78125 9.90625 6.78125 20.515625 
Q 6.78125 27.484375 10.78125 32.3125 
Q 14.796875 37.15625 21.921875 38.8125 
z
M 18.3125 54.390625 
Q 18.3125 48.734375 21.84375 45.5625 
Q 25.390625 42.390625 31.78125 42.390625 
Q 38.140625 42.390625 41.71875 45.5625 
Q 45.3125 48.734375 45.3125 54.390625 
Q 45.3125 60.0625 41.71875 63.234375 
Q 38.140625 66.40625 31.78125 66.40625 
Q 25.390625 66.40625 21.84375 63.234375 
Q 18.3125 60.0625 18.3125 54.390625 
z
" id="DejaVuSans-56"/>
      </defs>
      <g transform="translate(381.4576 222.679219)scale(0.1 -0.1)">
       <use xlink:href="#DejaVuSans-49"/>
       <use x="63.623047" xlink:href="#DejaVuSans-56"/>
      </g>
     </g>
    </g>
    <g id="ytick_10">
     <g id="line2d_15">
      <g>
       <use style="stroke:#000000;stroke-width:0.8;" x="374.4576" xlink:href="#m4ec03ab46e" y="189.312"/>
      </g>
     </g>
     <g id="text_15">
      <!-- 24 -->
      <g transform="translate(381.4576 193.111219)scale(0.1 -0.1)">
       <use xlink:href="#DejaVuSans-50"/>
       <use x="63.623047" xlink:href="#DejaVuSans-52"/>
      </g>
     </g>
    </g>
    <g id="ytick_11">
     <g id="line2d_16">
      <g>
       <use style="stroke:#000000;stroke-width:0.8;" x="374.4576" xlink:href="#m4ec03ab46e" y="159.744"/>
      </g>
     </g>
     <g id="text_16">
      <!-- 30 -->
      <defs>
       <path d="M 40.578125 39.3125 
Q 47.65625 37.796875 51.625 33 
Q 55.609375 28.21875 55.609375 21.1875 
Q 55.609375 10.40625 48.1875 4.484375 
Q 40.765625 -1.421875 27.09375 -1.421875 
Q 22.515625 -1.421875 17.65625 -0.515625 
Q 12.796875 0.390625 7.625 2.203125 
L 7.625 11.71875 
Q 11.71875 9.328125 16.59375 8.109375 
Q 21.484375 6.890625 26.8125 6.890625 
Q 36.078125 6.890625 40.9375 10.546875 
Q 45.796875 14.203125 45.796875 21.1875 
Q 45.796875 27.640625 41.28125 31.265625 
Q 36.765625 34.90625 28.71875 34.90625 
L 20.21875 34.90625 
L 20.21875 43.015625 
L 29.109375 43.015625 
Q 36.375 43.015625 40.234375 45.921875 
Q 44.09375 48.828125 44.09375 54.296875 
Q 44.09375 59.90625 40.109375 62.90625 
Q 36.140625 65.921875 28.71875 65.921875 
Q 24.65625 65.921875 20.015625 65.03125 
Q 15.375 64.15625 9.8125 62.3125 
L 9.8125 71.09375 
Q 15.4375 72.65625 20.34375 73.4375 
Q 25.25 74.21875 29.59375 74.21875 
Q 40.828125 74.21875 47.359375 69.109375 
Q 53.90625 64.015625 53.90625 55.328125 
Q 53.90625 49.265625 50.4375 45.09375 
Q 46.96875 40.921875 40.578125 39.3125 
z
" id="DejaVuSans-51"/>
      </defs>
      <g transform="translate(381.4576 163.543219)scale(0.1 -0.1)">
       <use xlink:href="#DejaVuSans-51"/>
       <use x="63.623047" xlink:href="#DejaVuSans-48"/>
      </g>
     </g>
    </g>
    <g id="ytick_12">
     <g id="line2d_17">
      <g>
       <use style="stroke:#000000;stroke-width:0.8;" x="374.4576" xlink:href="#m4ec03ab46e" y="130.176"/>
      </g>
     </g>
     <g id="text_17">
      <!-- 36 -->
      <g transform="translate(381.4576 133.975219)scale(0.1 -0.1)">
       <use xlink:href="#DejaVuSans-51"/>
       <use x="63.623047" xlink:href="#DejaVuSans-54"/>
      </g>
     </g>
    </g>
    <g id="ytick_13">
     <g id="line2d_18">
      <g>
       <use style="stroke:#000000;stroke-width:0.8;" x="374.4576" xlink:href="#m4ec03ab46e" y="100.608"/>
      </g>
     </g>
     <g id="text_18">
      <!-- 42 -->
      <g transform="translate(381.4576 104.407219)scale(0.1 -0.1)">
       <use xlink:href="#DejaVuSans-52"/>
       <use x="63.623047" xlink:href="#DejaVuSans-50"/>
      </g>
     </g>
    </g>
    <g id="ytick_14">
     <g id="line2d_19">
      <g>
       <use style="stroke:#000000;stroke-width:0.8;" x="374.4576" xlink:href="#m4ec03ab46e" y="71.04"/>
      </g>
     </g>
     <g id="text_19">
      <!-- 48 -->
      <g transform="translate(381.4576 74.839219)scale(0.1 -0.1)">
       <use xlink:href="#DejaVuSans-52"/>
       <use x="63.623047" xlink:href="#DejaVuSans-56"/>
      </g>
     </g>
    </g>
    <g id="ytick_15">
     <g id="line2d_20">
      <g>
       <use style="stroke:#000000;stroke-width:0.8;" x="374.4576" xlink:href="#m4ec03ab46e" y="41.472"/>
      </g>
     </g>
     <g id="text_20">
      <!-- 54 -->
      <defs>
       <path d="M 10.796875 72.90625 
L 49.515625 72.90625 
L 49.515625 64.59375 
L 19.828125 64.59375 
L 19.828125 46.734375 
Q 21.96875 47.46875 24.109375 47.828125 
Q 26.265625 48.1875 28.421875 48.1875 
Q 40.625 48.1875 47.75 41.5 
Q 54.890625 34.8125 54.890625 23.390625 
Q 54.890625 11.625 47.5625 5.09375 
Q 40.234375 -1.421875 26.90625 -1.421875 
Q 22.3125 -1.421875 17.546875 -0.640625 
Q 12.796875 0.140625 7.71875 1.703125 
L 7.71875 11.625 
Q 12.109375 9.234375 16.796875 8.0625 
Q 21.484375 6.890625 26.703125 6.890625 
Q 35.15625 6.890625 40.078125 11.328125 
Q 45.015625 15.765625 45.015625 23.390625 
Q 45.015625 31 40.078125 35.4375 
Q 35.15625 39.890625 26.703125 39.890625 
Q 22.75 39.890625 18.8125 39.015625 
Q 14.890625 38.140625 10.796875 36.28125 
z
" id="DejaVuSans-53"/>
      </defs>
      <g transform="translate(381.4576 45.271219)scale(0.1 -0.1)">
       <use xlink:href="#DejaVuSans-53"/>
       <use x="63.623047" xlink:href="#DejaVuSans-52"/>
      </g>
     </g>
    </g>
   </g>
   <g id="LineCollection_11">
    <path clip-path="url(#p6c91a2e92c)" d="M 361.152 307.584 
L 374.4576 307.584 
" style="fill:none;stroke:#00ff80;stroke-width:1.5;"/>
    <path clip-path="url(#p6c91a2e92c)" d="M 361.152 278.016 
L 374.4576 278.016 
" style="fill:none;stroke:#00e38e;stroke-width:1.5;"/>
    <path clip-path="url(#p6c91a2e92c)" d="M 361.152 248.448 
L 374.4576 248.448 
" style="fill:none;stroke:#00c79c;stroke-width:1.5;"/>
    <path clip-path="url(#p6c91a2e92c)" d="M 361.152 218.88 
L 374.4576 218.88 
" style="fill:none;stroke:#00aaaa;stroke-width:1.5;"/>
    <path clip-path="url(#p6c91a2e92c)" d="M 361.152 189.312 
L 374.4576 189.312 
" style="fill:none;stroke:#008eb8;stroke-width:1.5;"/>
    <path clip-path="url(#p6c91a2e92c)" d="M 361.152 159.744 
L 374.4576 159.744 
" style="fill:none;stroke:#0071c6;stroke-width:1.5;"/>
    <path clip-path="url(#p6c91a2e92c)" d="M 361.152 130.176 
L 374.4576 130.176 
" style="fill:none;stroke:#0055d4;stroke-width:1.5;"/>
    <path clip-path="url(#p6c91a2e92c)" d="M 361.152 100.608 
L 374.4576 100.608 
" style="fill:none;stroke:#0038e3;stroke-width:1.5;"/>
    <path clip-path="url(#p6c91a2e92c)" d="M 361.152 71.04 
L 374.4576 71.04 
" style="fill:none;stroke:#001cf1;stroke-width:1.5;"/>
    <path clip-path="url(#p6c91a2e92c)" d="M 361.152 41.472 
L 374.4576 41.472 
" style="fill:none;stroke:#0000ff;stroke-width:1.5;"/>
   </g>
   <g id="patch_8">
    <path d="M 361.152 307.584 
L 361.152 278.016 
L 361.152 71.04 
L 361.152 41.472 
L 374.4576 41.472 
L 374.4576 71.04 
L 374.4576 278.016 
L 374.4576 307.584 
z
" style="fill:none;stroke:#000000;stroke-linejoin:miter;stroke-width:0.8;"/>
   </g>
  </g>
 </g>
 <defs>
  <clipPath id="p126637d7ec">
   <rect height="266.112" width="285.696" x="57.6" y="41.472"/>
  </clipPath>
  <clipPath id="p6c91a2e92c">
   <rect height="266.112" width="13.3056" x="361.152" y="41.472"/>
  </clipPath>
 </defs>
</svg>
