<?xml version="1.0" encoding="utf-8" standalone="no"?>
<!DOCTYPE svg PUBLIC "-//W3C//DTD SVG 1.1//EN"
  "http://www.w3.org/Graphics/SVG/1.1/DTD/svg11.dtd">
<!-- Created with matplotlib (https://matplotlib.org/) -->
<svg height="345.6pt" version="1.1" viewBox="0 0 460.8 345.6" width="460.8pt" xmlns="http://www.w3.org/2000/svg" xmlns:xlink="http://www.w3.org/1999/xlink">
 <defs>
  <style type="text/css">
*{stroke-linecap:butt;stroke-linejoin:round;}
  </style>
 </defs>
 <g id="figure_1">
  <g id="patch_1">
   <path d="M 0 345.6 
L 460.8 345.6 
L 460.8 0 
L 0 0 
z
" style="fill:#ffffff;"/>
  </g>
  <g id="axes_1">
   <g id="patch_2">
    <path d="M 57.6 307.584 
L 343.296 307.584 
L 343.296 41.472 
L 57.6 41.472 
z
" style="fill:#ffffff;"/>
   </g>
   <g id="matplotlib.axis_1">
    <g id="xtick_1">
     <g id="line2d_1">
      <defs>
       <path d="M 0 0 
L 0 3.5 
" id="m7d36447fdb" style="stroke:#000000;stroke-width:0.8;"/>
      </defs>
      <g>
       <use style="stroke:#000000;stroke-width:0.8;" x="86.1696" xlink:href="#m7d36447fdb" y="307.584"/>
      </g>
     </g>
     <g id="text_1">
      <!-- −4 -->
      <defs>
       <path d="M 10.59375 35.5 
L 73.1875 35.5 
L 73.1875 27.203125 
L 10.59375 27.203125 
z
" id="DejaVuSans-8722"/>
       <path d="M 37.796875 64.3125 
L 12.890625 25.390625 
L 37.796875 25.390625 
z
M 35.203125 72.90625 
L 47.609375 72.90625 
L 47.609375 25.390625 
L 58.015625 25.390625 
L 58.015625 17.1875 
L 47.609375 17.1875 
L 47.609375 0 
L 37.796875 0 
L 37.796875 17.1875 
L 4.890625 17.1875 
L 4.890625 26.703125 
z
" id="DejaVuSans-52"/>
      </defs>
      <g transform="translate(78.798506 322.182437)scale(0.1 -0.1)">
       <use xlink:href="#DejaVuSans-8722"/>
       <use x="83.789062" xlink:href="#DejaVuSans-52"/>
      </g>
     </g>
    </g>
    <g id="xtick_2">
     <g id="line2d_2">
      <g>
       <use style="stroke:#000000;stroke-width:0.8;" x="143.3088" xlink:href="#m7d36447fdb" y="307.584"/>
      </g>
     </g>
     <g id="text_2">
      <!-- −2 -->
      <defs>
       <path d="M 19.1875 8.296875 
L 53.609375 8.296875 
L 53.609375 0 
L 7.328125 0 
L 7.328125 8.296875 
Q 12.9375 14.109375 22.625 23.890625 
Q 32.328125 33.6875 34.8125 36.53125 
Q 39.546875 41.84375 41.421875 45.53125 
Q 43.3125 49.21875 43.3125 52.78125 
Q 43.3125 58.59375 39.234375 62.25 
Q 35.15625 65.921875 28.609375 65.921875 
Q 23.96875 65.921875 18.8125 64.3125 
Q 13.671875 62.703125 7.8125 59.421875 
L 7.8125 69.390625 
Q 13.765625 71.78125 18.9375 73 
Q 24.125 74.21875 28.421875 74.21875 
Q 39.75 74.21875 46.484375 68.546875 
Q 53.21875 62.890625 53.21875 53.421875 
Q 53.21875 48.921875 51.53125 44.890625 
Q 49.859375 40.875 45.40625 35.40625 
Q 44.1875 33.984375 37.640625 27.21875 
Q 31.109375 20.453125 19.1875 8.296875 
z
" id="DejaVuSans-50"/>
      </defs>
      <g transform="translate(135.937706 322.182437)scale(0.1 -0.1)">
       <use xlink:href="#DejaVuSans-8722"/>
       <use x="83.789062" xlink:href="#DejaVuSans-50"/>
      </g>
     </g>
    </g>
    <g id="xtick_3">
     <g id="line2d_3">
      <g>
       <use style="stroke:#000000;stroke-width:0.8;" x="200.448" xlink:href="#m7d36447fdb" y="307.584"/>
      </g>
     </g>
     <g id="text_3">
      <!-- 0 -->
      <defs>
       <path d="M 31.78125 66.40625 
Q 24.171875 66.40625 20.328125 58.90625 
Q 16.5 51.421875 16.5 36.375 
Q 16.5 21.390625 20.328125 13.890625 
Q 24.171875 6.390625 31.78125 6.390625 
Q 39.453125 6.390625 43.28125 13.890625 
Q 47.125 21.390625 47.125 36.375 
Q 47.125 51.421875 43.28125 58.90625 
Q 39.453125 66.40625 31.78125 66.40625 
z
M 31.78125 74.21875 
Q 44.046875 74.21875 50.515625 64.515625 
Q 56.984375 54.828125 56.984375 36.375 
Q 56.984375 17.96875 50.515625 8.265625 
Q 44.046875 -1.421875 31.78125 -1.421875 
Q 19.53125 -1.421875 13.0625 8.265625 
Q 6.59375 17.96875 6.59375 36.375 
Q 6.59375 54.828125 13.0625 64.515625 
Q 19.53125 74.21875 31.78125 74.21875 
z
" id="DejaVuSans-48"/>
      </defs>
      <g transform="translate(197.26675 322.182437)scale(0.1 -0.1)">
       <use xlink:href="#DejaVuSans-48"/>
      </g>
     </g>
    </g>
    <g id="xtick_4">
     <g id="line2d_4">
      <g>
       <use style="stroke:#000000;stroke-width:0.8;" x="257.5872" xlink:href="#m7d36447fdb" y="307.584"/>
      </g>
     </g>
     <g id="text_4">
      <!-- 2 -->
      <g transform="translate(254.40595 322.182437)scale(0.1 -0.1)">
       <use xlink:href="#DejaVuSans-50"/>
      </g>
     </g>
    </g>
    <g id="xtick_5">
     <g id="line2d_5">
      <g>
       <use style="stroke:#000000;stroke-width:0.8;" x="314.7264" xlink:href="#m7d36447fdb" y="307.584"/>
      </g>
     </g>
     <g id="text_5">
      <!-- 4 -->
      <g transform="translate(311.54515 322.182437)scale(0.1 -0.1)">
       <use xlink:href="#DejaVuSans-52"/>
      </g>
     </g>
    </g>
   </g>
   <g id="matplotlib.axis_2">
    <g id="ytick_1">
     <g id="line2d_6">
      <defs>
       <path d="M 0 0 
L -3.5 0 
" id="m8257a0c03a" style="stroke:#000000;stroke-width:0.8;"/>
      </defs>
      <g>
       <use style="stroke:#000000;stroke-width:0.8;" x="57.6" xlink:href="#m8257a0c03a" y="280.9728"/>
      </g>
     </g>
     <g id="text_6">
      <!-- −4 -->
      <g transform="translate(35.857813 284.772019)scale(0.1 -0.1)">
       <use xlink:href="#DejaVuSans-8722"/>
       <use x="83.789062" xlink:href="#DejaVuSans-52"/>
      </g>
     </g>
    </g>
    <g id="ytick_2">
     <g id="line2d_7">
      <g>
       <use style="stroke:#000000;stroke-width:0.8;" x="57.6" xlink:href="#m8257a0c03a" y="227.7504"/>
      </g>
     </g>
     <g id="text_7">
      <!-- −2 -->
      <g transform="translate(35.857813 231.549619)scale(0.1 -0.1)">
       <use xlink:href="#DejaVuSans-8722"/>
       <use x="83.789062" xlink:href="#DejaVuSans-50"/>
      </g>
     </g>
    </g>
    <g id="ytick_3">
     <g id="line2d_8">
      <g>
       <use style="stroke:#000000;stroke-width:0.8;" x="57.6" xlink:href="#m8257a0c03a" y="174.528"/>
      </g>
     </g>
     <g id="text_8">
      <!-- 0 -->
      <g transform="translate(44.2375 178.327219)scale(0.1 -0.1)">
       <use xlink:href="#DejaVuSans-48"/>
      </g>
     </g>
    </g>
    <g id="ytick_4">
     <g id="line2d_9">
      <g>
       <use style="stroke:#000000;stroke-width:0.8;" x="57.6" xlink:href="#m8257a0c03a" y="121.3056"/>
      </g>
     </g>
     <g id="text_9">
      <!-- 2 -->
      <g transform="translate(44.2375 125.104819)scale(0.1 -0.1)">
       <use xlink:href="#DejaVuSans-50"/>
      </g>
     </g>
    </g>
    <g id="ytick_5">
     <g id="line2d_10">
      <g>
       <use style="stroke:#000000;stroke-width:0.8;" x="57.6" xlink:href="#m8257a0c03a" y="68.0832"/>
      </g>
     </g>
     <g id="text_10">
      <!-- 4 -->
      <g transform="translate(44.2375 71.882419)scale(0.1 -0.1)">
       <use xlink:href="#DejaVuSans-52"/>
      </g>
     </g>
    </g>
   </g>
   <g id="LineCollection_1"/>
   <g id="LineCollection_2">
    <path clip-path="url(#p194ef8fb82)" d="M 106.658909 283.54581 
L 103.773091 282.808604 
L 100.887273 281.830262 
L 98.001455 280.600784 
L 95.115636 278.919342 
L 93.808993 278.016 
L 92.229818 276.756727 
L 90.695947 275.328 
L 88.374179 272.64 
L 86.458182 269.752237 
L 85.249035 267.264 
L 84.198693 264.576 
L 83.407234 261.888 
L 82.882127 259.2 
L 82.534947 256.512 
L 82.350606 253.824 
L 82.314499 251.136 
L 82.412511 248.448 
L 82.95686 243.072 
L 83.572364 239.342238 
L 84.570438 235.008 
L 86.458182 228.319395 
L 88.898423 221.568 
L 89.993513 218.88 
L 92.336158 213.504 
L 96.431402 205.44 
L 98.001455 202.462363 
L 103.773091 193.00692 
L 104.548878 192 
L 106.658909 188.895043 
L 108.545024 186.624 
L 109.544727 185.217179 
L 110.921735 183.936 
L 112.430545 182.235808 
L 114.081521 181.248 
L 115.316364 180.305358 
L 118.202182 179.873871 
L 121.312186 181.248 
L 123.973818 183.135603 
L 124.73062 183.936 
L 126.859636 185.795144 
L 127.595089 186.624 
L 130.278075 189.312 
L 135.517091 194.716444 
L 143.322821 202.752 
L 157.220099 216.192 
L 164.375273 222.691167 
L 175.918545 232.633712 
L 185.235608 240.384 
L 191.206937 245.76 
L 193.451233 248.448 
L 194.70871 251.136 
L 194.245468 253.824 
L 193.233455 254.974197 
L 192.17295 256.512 
L 190.347636 257.917384 
L 188.972171 259.2 
L 187.461818 260.131175 
L 184.576 262.123694 
L 178.804364 265.510025 
L 175.729467 267.264 
L 164.375273 272.776399 
L 155.717818 276.323569 
L 149.946182 278.431033 
L 142.697931 280.704 
L 138.402909 281.794562 
L 132.631273 283.067256 
L 129.745455 283.573601 
L 123.973818 284.268823 
L 121.088 284.472346 
L 118.202182 284.56364 
L 115.316364 284.530008 
L 112.430545 284.358303 
L 109.544727 284.034922 
L 106.658909 283.54581 
L 106.658909 283.54581 
" style="fill:none;stroke:#00e38e;stroke-width:1.5;"/>
    <path clip-path="url(#p194ef8fb82)" d="M 271.150545 278.205671 
L 269.66519 278.016 
L 268.264727 277.80973 
L 265.378909 277.286373 
L 262.493091 276.680241 
L 259.607273 276.006196 
L 256.918031 275.328 
L 256.721455 275.270094 
L 253.835636 274.37303 
L 250.949818 273.443984 
L 248.499355 272.64 
L 248.064 272.470517 
L 245.178182 271.3419 
L 242.292364 270.223088 
L 241.577901 269.952 
L 239.406545 268.954574 
L 236.520727 267.673697 
L 235.55273 267.264 
L 233.634909 266.254556 
L 230.749091 264.826491 
L 230.202154 264.576 
L 227.863273 263.19243 
L 225.436989 261.888 
L 224.977455 261.549902 
L 222.091636 259.662085 
L 221.274787 259.2 
L 219.205818 257.429778 
L 217.917963 256.512 
L 216.32 254.367292 
L 215.80656 253.824 
L 215.308995 251.136 
L 216.32 249.123943 
L 216.587772 248.448 
L 218.961649 245.76 
L 219.205818 245.574604 
L 221.951047 243.072 
L 222.091636 242.972694 
L 224.977455 240.615459 
L 225.2294 240.384 
L 227.863273 238.361217 
L 228.65049 237.696 
L 230.749091 236.141529 
L 232.165394 235.008 
L 233.634909 233.942605 
L 235.73908 232.32 
L 236.520727 231.760461 
L 239.356008 229.632 
L 239.406545 229.596098 
L 242.292364 227.474373 
L 242.998362 226.944 
L 245.178182 225.36969 
L 246.706822 224.256 
L 248.064 223.292566 
L 250.504567 221.568 
L 250.949818 221.257793 
L 253.835636 219.284988 
L 254.449173 218.88 
L 256.721455 217.385246 
L 258.635626 216.192 
L 259.607273 215.582334 
L 262.493091 213.905281 
L 263.26097 213.504 
L 265.378909 212.379285 
L 268.264727 211.056074 
L 268.909416 210.816 
L 271.150545 209.959959 
L 274.036364 209.154675 
L 276.922182 208.690198 
L 279.808 208.612079 
L 282.693818 208.967621 
L 285.579636 209.805879 
L 287.704629 210.816 
L 288.465455 211.168589 
L 291.351273 213.077346 
L 291.837338 213.504 
L 294.237091 215.576884 
L 294.798673 216.192 
L 297.122909 218.721238 
L 297.241625 218.88 
L 299.244701 221.568 
L 300.008727 222.607879 
L 301.016987 224.256 
L 302.61927 226.944 
L 302.894545 227.424359 
L 303.966706 229.632 
L 305.202082 232.32 
L 305.780364 233.675443 
L 306.268986 235.008 
L 307.161832 237.696 
L 307.94447 240.384 
L 308.598725 243.072 
L 308.666182 243.429685 
L 309.04826 245.76 
L 309.343793 248.448 
L 309.476359 251.136 
L 309.427523 253.824 
L 309.178193 256.512 
L 308.708616 259.2 
L 308.666182 259.360599 
L 307.898051 261.888 
L 306.780065 264.576 
L 305.780364 266.436911 
L 305.263391 267.264 
L 303.173947 269.952 
L 302.894545 270.248899 
L 300.239395 272.64 
L 300.008727 272.815071 
L 297.122909 274.638772 
L 295.782595 275.328 
L 294.237091 276.008387 
L 291.351273 277.010275 
L 288.465455 277.765228 
L 287.097329 278.016 
L 285.579636 278.25718 
L 282.693818 278.537414 
L 279.808 278.656273 
L 276.922182 278.630158 
L 274.036364 278.474881 
L 271.150545 278.205671 
" style="fill:none;stroke:#00e38e;stroke-width:1.5;"/>
    <path clip-path="url(#p194ef8fb82)" d="M 115.316364 160.222245 
L 114.733089 159.744 
L 112.430545 158.255575 
L 111.445225 157.056 
L 109.544727 155.128856 
L 109.048636 154.368 
L 107.021889 151.68 
L 106.658909 151.251966 
L 105.258482 148.992 
L 103.773091 146.813445 
L 103.504165 146.304 
L 101.971005 143.616 
L 100.887273 141.829642 
L 100.447425 140.928 
L 99.072285 138.24 
L 98.001455 136.217487 
L 97.710417 135.552 
L 96.509267 132.864 
L 95.297592 130.176 
L 95.115636 129.770488 
L 94.252484 127.488 
L 93.255068 124.8 
L 92.291986 122.112 
L 92.229818 121.928899 
L 91.501711 119.424 
L 90.778062 116.736 
L 90.127322 114.048 
L 89.56545 111.36 
L 89.344 110.055537 
L 89.140371 108.672 
L 88.851349 105.984 
L 88.684645 103.296 
L 88.656607 100.608 
L 88.784214 97.92 
L 89.08507 95.232 
L 89.344 93.818343 
L 89.613227 92.544 
L 90.423739 89.856 
L 91.499359 87.168 
L 92.229818 85.728438 
L 92.969769 84.48 
L 94.927682 81.792 
L 95.115636 81.577144 
L 97.682706 79.104 
L 98.001455 78.843751 
L 100.887273 76.897535 
L 101.77523 76.416 
L 103.773091 75.484826 
L 106.658909 74.443476 
L 109.372309 73.728 
L 109.544727 73.688475 
L 112.430545 73.251087 
L 115.316364 73.018847 
L 118.202182 72.973359 
L 121.088 73.096838 
L 123.973818 73.372113 
L 126.475629 73.728 
L 126.859636 73.790833 
L 129.745455 74.40024 
L 132.631273 75.129229 
L 135.517091 75.960872 
L 136.947715 76.416 
L 138.402909 76.954641 
L 141.288727 78.105335 
L 143.658835 79.104 
L 144.174545 79.360406 
L 147.060364 80.852855 
L 148.829775 81.792 
L 149.946182 82.503654 
L 152.832 84.369422 
L 153.002446 84.48 
L 155.717818 86.644914 
L 156.378203 87.168 
L 158.603636 89.403254 
L 159.061689 89.856 
L 161.110917 92.544 
L 161.489455 93.252672 
L 162.573913 95.232 
L 163.473861 97.92 
L 163.855568 100.608 
L 163.7717 103.296 
L 163.273041 105.984 
L 162.408494 108.672 
L 161.489455 110.759504 
L 161.231712 111.36 
L 159.811123 114.048 
L 158.603636 116.020758 
L 158.172824 116.736 
L 156.372351 119.424 
L 155.717818 120.329042 
L 154.436758 122.112 
L 152.832 124.22852 
L 152.397207 124.8 
L 150.279218 127.488 
L 149.946182 127.90273 
L 148.0947 130.176 
L 147.060364 131.440145 
L 145.864714 132.864 
L 144.174545 134.894397 
L 143.605141 135.552 
L 141.327272 138.24 
L 141.288727 138.287073 
L 139.003626 140.928 
L 138.402909 141.656066 
L 136.660892 143.616 
L 135.517091 144.984783 
L 134.300142 146.304 
L 132.631273 148.258745 
L 131.917101 148.992 
L 129.745455 151.445325 
L 129.496962 151.68 
L 126.96625 154.368 
L 126.859636 154.498952 
L 124.172858 157.056 
L 123.973818 157.283431 
L 121.088 159.494583 
L 120.362312 159.744 
L 118.202182 160.685702 
L 115.316364 160.222245 
" style="fill:none;stroke:#00e38e;stroke-width:1.5;"/>
    <path clip-path="url(#p194ef8fb82)" d="M 274.036364 128.070445 
L 272.40404 127.488 
L 271.150545 127.03217 
L 268.264727 125.5957 
L 266.96648 124.8 
L 265.378909 123.792283 
L 263.093267 122.112 
L 262.493091 121.646401 
L 259.916959 119.424 
L 259.607273 119.135542 
L 257.221318 116.736 
L 256.721455 116.176965 
L 254.917514 114.048 
L 253.835636 112.569254 
L 252.981379 111.36 
L 251.439194 108.672 
L 250.949818 107.504431 
L 250.324509 105.984 
L 249.686874 103.296 
L 249.579631 100.608 
L 250.067721 97.92 
L 250.949818 95.859561 
L 251.223625 95.232 
L 253.142845 92.544 
L 253.835636 91.864156 
L 255.954992 89.856 
L 256.721455 89.308751 
L 259.607273 87.35619 
L 259.907581 87.168 
L 262.493091 85.890266 
L 265.378909 84.607813 
L 265.712006 84.48 
L 268.264727 83.682963 
L 271.150545 82.951185 
L 274.036364 82.41658 
L 276.922182 82.108228 
L 279.808 82.056367 
L 282.693818 82.292401 
L 285.579636 82.848895 
L 288.465455 83.75958 
L 290.064971 84.48 
L 291.351273 85.19198 
L 294.041361 87.168 
L 294.237091 87.350313 
L 296.358532 89.856 
L 297.122909 91.054128 
L 297.896347 92.544 
L 298.874052 95.232 
L 299.471501 97.92 
L 299.724905 100.608 
L 299.669227 103.296 
L 299.338182 105.984 
L 298.764235 108.672 
L 297.978602 111.36 
L 297.122909 113.737736 
L 296.98569 114.048 
L 295.608857 116.736 
L 294.237091 119.144277 
L 294.035051 119.424 
L 291.938796 122.112 
L 291.351273 122.825923 
L 289.195331 124.8 
L 288.465455 125.445302 
L 285.579636 127.232962 
L 284.905891 127.488 
L 282.693818 128.309631 
L 279.808 128.764263 
L 276.922182 128.664372 
L 274.036364 128.070445 
" style="fill:none;stroke:#00e38e;stroke-width:1.5;"/>
   </g>
   <g id="LineCollection_3">
    <path clip-path="url(#p194ef8fb82)" d="M 100.887273 294.3535 
L 98.001455 293.602435 
L 95.115636 292.666723 
L 92.00626 291.456 
L 89.344 290.128311 
L 86.458182 288.433535 
L 83.284451 286.08 
L 80.430218 283.392 
L 77.800727 280.21871 
L 76.340307 278.016 
L 74.80705 275.328 
L 73.615085 272.64 
L 72.610511 269.952 
L 71.804173 267.264 
L 71.199918 264.576 
L 70.732094 261.888 
L 70.390243 259.2 
L 70.044217 253.824 
L 70.084518 248.448 
L 70.438895 243.072 
L 71.040167 237.696 
L 72.029091 231.09265 
L 73.353379 224.256 
L 75.665206 213.504 
L 78.020774 202.752 
L 79.146775 197.376 
L 80.109444 192 
L 81.254531 183.936 
L 81.766441 178.56 
L 82.026747 173.184 
L 82.033502 167.808 
L 81.792546 162.432 
L 81.317509 157.056 
L 80.266761 148.992 
L 78.954467 140.928 
L 76.086405 124.8 
L 74.846668 116.736 
L 74.261626 111.36 
L 73.880627 105.984 
L 73.772255 100.608 
L 74.010692 95.232 
L 74.284677 92.544 
L 74.914909 88.61707 
L 75.225369 87.168 
L 75.955633 84.48 
L 76.85308 81.792 
L 77.946014 79.104 
L 79.365367 76.416 
L 81.057496 73.728 
L 83.572364 70.61841 
L 86.458182 67.862123 
L 89.362389 65.664 
L 92.229818 63.98588 
L 95.115636 62.585103 
L 98.001455 61.492572 
L 102.088844 60.288 
L 103.773091 59.906242 
L 106.658909 59.399818 
L 109.544727 59.029762 
L 112.430545 58.785096 
L 118.202182 58.629741 
L 123.973818 58.852795 
L 129.745455 59.378792 
L 136.48825 60.288 
L 144.174545 61.714004 
L 152.832 63.574791 
L 178.804364 69.649716 
L 184.576 70.731333 
L 193.233455 71.999522 
L 199.005091 72.486874 
L 204.776727 72.654793 
L 210.548364 72.505733 
L 216.32 72.051958 
L 222.091636 71.315546 
L 233.634909 69.365423 
L 253.835636 65.397232 
L 262.493091 64.033936 
L 268.264727 63.324273 
L 274.036364 62.873895 
L 279.808 62.756034 
L 285.579636 63.019886 
L 288.465455 63.352234 
L 291.351273 63.826574 
L 294.237091 64.456065 
L 298.328203 65.664 
L 300.008727 66.305053 
L 304.23543 68.352 
L 305.780364 69.295793 
L 308.666182 71.389745 
L 311.552 74.130291 
L 313.424569 76.416 
L 315.216021 79.104 
L 316.635406 81.792 
L 317.763499 84.48 
L 318.620467 87.168 
L 319.296284 89.856 
L 319.805532 92.544 
L 320.209455 95.812864 
L 320.362695 97.92 
L 320.427391 103.296 
L 320.122262 108.672 
L 319.482524 114.048 
L 318.61899 119.424 
L 317.04297 127.488 
L 312.222582 148.992 
L 310.824835 157.056 
L 310.182326 162.432 
L 309.856422 167.808 
L 309.865558 173.184 
L 310.217634 178.56 
L 310.910017 183.936 
L 312.43236 192 
L 313.716056 197.376 
L 320.934685 224.256 
L 322.742469 232.32 
L 323.25658 235.008 
L 324.071392 240.384 
L 324.636098 245.76 
L 324.875568 251.136 
L 324.84825 253.824 
L 324.70878 256.512 
L 324.446108 259.2 
L 324.048819 261.888 
L 323.095273 266.144795 
L 322.770897 267.264 
L 321.802052 269.952 
L 320.209455 273.450543 
L 319.125255 275.328 
L 317.310671 278.016 
L 314.437818 281.231681 
L 311.552 283.747117 
L 308.089073 286.08 
L 305.780364 287.310614 
L 302.545987 288.768 
L 300.008727 289.650688 
L 297.122909 290.486616 
L 292.681379 291.456 
L 291.351273 291.678793 
L 285.579636 292.298235 
L 279.808 292.520327 
L 274.036364 292.419384 
L 268.264727 292.064501 
L 261.929034 291.456 
L 253.835636 290.364808 
L 239.406545 288.149479 
L 230.749091 286.84947 
L 222.091636 285.789337 
L 216.32 285.244873 
L 210.548364 284.909377 
L 204.776727 284.79917 
L 199.005091 284.92332 
L 193.233455 285.283642 
L 187.461818 285.874693 
L 178.804364 287.0452 
L 170.146909 288.563037 
L 155.120919 291.456 
L 139.720583 294.144 
L 132.631273 295.065135 
L 126.859636 295.625191 
L 121.088 295.955276 
L 115.316364 295.992814 
L 109.544727 295.670508 
L 106.658909 295.35209 
L 103.773091 294.916334 
L 100.887273 294.3535 
L 100.887273 294.3535 
" style="fill:none;stroke:#00c79c;stroke-width:1.5;"/>
    <path clip-path="url(#p194ef8fb82)" d="M 204.776727 176.187247 
L 206.724441 175.872 
L 207.662545 175.622162 
L 210.518577 173.184 
L 210.548364 173.112283 
L 211.198324 170.496 
L 210.65983 167.808 
L 210.548364 167.63442 
L 207.8489 165.12 
L 207.662545 165.016174 
L 204.776727 164.514593 
L 201.967904 165.12 
L 201.890909 165.147745 
L 199.273315 167.808 
L 199.005091 168.681799 
L 198.666644 170.496 
L 199.005091 171.958967 
L 199.471411 173.184 
L 201.890909 175.437645 
L 203.206096 175.872 
L 204.776727 176.187247 
" style="fill:none;stroke:#00c79c;stroke-width:1.5;"/>
   </g>
   <g id="LineCollection_4">
    <path clip-path="url(#p194ef8fb82)" d="M 98.001455 302.270666 
L 95.115636 301.572379 
L 92.229818 300.737069 
L 88.725088 299.52 
L 86.458182 298.55201 
L 83.004306 296.832 
L 80.686545 295.426544 
L 77.800727 293.389813 
L 74.914909 290.914027 
L 72.029091 287.833954 
L 70.65216 286.08 
L 68.806874 283.392 
L 67.296682 280.704 
L 65.998327 278.016 
L 64.950818 275.328 
L 64.054034 272.64 
L 63.304358 269.952 
L 62.272016 264.576 
L 61.65547 259.2 
L 61.39198 253.824 
L 61.422668 248.448 
L 61.692517 243.072 
L 62.15037 237.696 
L 63.087253 229.632 
L 63.857138 224.256 
L 67.953176 197.376 
L 68.867348 189.312 
L 69.517487 181.248 
L 69.769323 175.872 
L 69.856094 170.496 
L 69.779068 165.12 
L 69.544583 159.744 
L 68.943775 151.68 
L 68.135864 143.616 
L 66.817971 132.864 
L 65.526909 122.112 
L 64.744415 114.048 
L 64.374825 108.672 
L 64.184021 103.296 
L 64.225708 97.92 
L 64.557806 92.544 
L 65.242445 87.168 
L 66.257455 82.183035 
L 66.35437 81.792 
L 67.154475 79.104 
L 68.098575 76.416 
L 69.202388 73.728 
L 70.591396 71.04 
L 72.188965 68.352 
L 74.914909 64.752721 
L 77.800727 61.740828 
L 80.686545 59.313289 
L 83.572364 57.309787 
L 88.016548 54.912 
L 89.344 54.315352 
L 92.229818 53.190817 
L 95.130186 52.224 
L 98.001455 51.486825 
L 100.887273 50.874833 
L 106.658909 50.001727 
L 112.526572 49.536 
L 118.202182 49.431876 
L 123.973818 49.590185 
L 129.745455 49.985908 
L 138.402909 50.89279 
L 148.398564 52.224 
L 175.918545 56.389628 
L 184.576 57.374968 
L 193.233455 58.084997 
L 199.005091 58.357611 
L 204.776727 58.451542 
L 210.548364 58.36816 
L 216.32 58.114328 
L 224.977455 57.457346 
L 233.634909 56.586539 
L 248.064 54.802414 
L 259.607273 53.504804 
L 268.264727 52.750289 
L 274.036364 52.442564 
L 279.808 52.355033 
L 285.579636 52.547614 
L 291.351273 53.084744 
L 294.237091 53.503888 
L 297.122909 54.035382 
L 300.830731 54.912 
L 302.894545 55.528748 
L 305.780364 56.546347 
L 308.666182 57.7439 
L 311.552 59.247512 
L 314.437818 61.034117 
L 317.323636 63.205435 
L 320.209455 65.921468 
L 323.095273 69.407335 
L 324.212334 71.04 
L 325.981091 74.023898 
L 327.112286 76.416 
L 328.866909 81.026344 
L 329.1068 81.792 
L 329.80804 84.48 
L 330.378649 87.168 
L 331.16772 92.544 
L 331.550475 97.92 
L 331.598521 103.296 
L 331.378612 108.672 
L 330.952646 114.048 
L 330.050793 122.112 
L 328.594166 132.864 
L 327.069136 143.616 
L 326.134243 151.68 
L 325.428912 159.744 
L 325.156399 165.12 
L 325.066882 170.496 
L 325.167725 175.872 
L 325.460402 181.248 
L 326.222683 189.312 
L 327.280538 197.376 
L 328.620005 205.44 
L 331.752727 223.009531 
L 333.181905 232.32 
L 334.155528 240.384 
L 334.638545 247.017253 
L 334.750332 251.136 
L 334.635054 256.512 
L 334.138545 261.888 
L 333.729508 264.576 
L 333.201184 267.264 
L 332.544153 269.952 
L 331.748336 272.64 
L 330.71476 275.328 
L 328.866909 279.252458 
L 328.040215 280.704 
L 325.981091 283.815504 
L 323.095273 287.226966 
L 320.209455 289.941969 
L 317.323636 292.155755 
L 314.173788 294.144 
L 311.552 295.483143 
L 308.524911 296.832 
L 305.780364 297.805085 
L 302.894545 298.684468 
L 299.588914 299.52 
L 294.237091 300.465433 
L 288.465455 301.10314 
L 282.693818 301.412473 
L 276.922182 301.451303 
L 271.150545 301.273578 
L 262.493091 300.709306 
L 250.949818 299.632994 
L 224.977455 297.017822 
L 216.32 296.458199 
L 207.662545 296.185102 
L 201.890909 296.189197 
L 196.119273 296.347043 
L 187.461818 296.864946 
L 178.804364 297.628542 
L 170.146909 298.63815 
L 138.402909 302.78802 
L 129.745455 303.577837 
L 123.973818 303.922477 
L 118.202182 304.068626 
L 112.430545 303.966835 
L 106.658909 303.56406 
L 100.887273 302.803659 
L 98.001455 302.270666 
L 98.001455 302.270666 
" style="fill:none;stroke:#00aaaa;stroke-width:1.5;"/>
   </g>
   <g id="LineCollection_5">
    <path clip-path="url(#p194ef8fb82)" d="M 91.462883 307.584 
L 89.344 306.980146 
L 86.458182 306.031533 
L 83.572364 304.948667 
L 83.448332 304.896 
L 80.686545 303.620755 
L 77.962608 302.208 
L 77.800727 302.116401 
L 74.914909 300.294048 
L 73.810364 299.52 
L 72.029091 298.153191 
L 70.469783 296.832 
L 69.143273 295.59642 
L 67.724851 294.144 
L 66.257455 292.484831 
L 65.426442 291.456 
L 63.469976 288.768 
L 63.371636 288.617216 
L 61.854913 286.08 
L 60.485818 283.50753 
L 60.429275 283.392 
L 59.266718 280.704 
L 58.248293 278.016 
L 57.6 276.042363 
" style="fill:none;stroke:#008eb8;stroke-width:1.5;"/>
    <path clip-path="url(#p194ef8fb82)" d="M 259.762116 307.584 
L 259.607273 307.572934 
L 256.721455 307.350266 
L 253.835636 307.115293 
L 250.949818 306.871943 
L 248.064 306.623937 
L 245.178182 306.374788 
L 242.292364 306.127803 
L 239.406545 305.886084 
L 236.520727 305.652522 
L 233.634909 305.429807 
L 230.749091 305.220417 
L 227.863273 305.026627 
L 225.722926 304.896 
L 224.977455 304.846526 
L 222.091636 304.676238 
L 219.205818 304.528983 
L 216.32 304.406333 
L 213.434182 304.309637 
L 210.548364 304.240018 
L 207.662545 304.198376 
L 204.776727 304.185385 
L 201.890909 304.201495 
L 199.005091 304.24693 
L 196.119273 304.32169 
L 193.233455 304.425551 
L 190.347636 304.558063 
L 187.461818 304.718552 
L 184.731676 304.896 
L 184.576 304.905305 
L 181.690182 305.101659 
L 178.804364 305.32064 
L 175.918545 305.560802 
L 173.032727 305.82049 
L 170.146909 306.097844 
L 167.261091 306.390799 
L 164.375273 306.697079 
L 161.489455 307.014204 
L 158.603636 307.339489 
L 156.468959 307.584 
" style="fill:none;stroke:#008eb8;stroke-width:1.5;"/>
    <path clip-path="url(#p194ef8fb82)" d="M 57.6 215.492349 
L 57.862506 213.504 
L 58.211729 210.816 
L 58.552193 208.128 
L 58.881013 205.44 
L 59.195526 202.752 
L 59.493292 200.064 
L 59.772092 197.376 
L 60.029927 194.688 
L 60.265024 192 
L 60.475829 189.312 
L 60.485818 189.166995 
L 60.676325 186.624 
L 60.848625 183.936 
L 60.990889 181.248 
L 61.102393 178.56 
L 61.182655 175.872 
L 61.231434 173.184 
L 61.248729 170.496 
L 61.234782 167.808 
L 61.190076 165.12 
L 61.115334 162.432 
L 61.011521 159.744 
L 60.879845 157.056 
L 60.721753 154.368 
L 60.538933 151.68 
L 60.485818 150.98563 
L 60.345578 148.992 
L 60.137526 146.304 
L 59.912727 143.616 
L 59.673621 140.928 
L 59.422871 138.24 
L 59.163363 135.552 
L 58.898202 132.864 
L 58.630717 130.176 
L 58.364459 127.488 
L 58.103201 124.8 
L 57.850936 122.112 
L 57.61188 119.424 
L 57.6 119.279771 
" style="fill:none;stroke:#008eb8;stroke-width:1.5;"/>
    <path clip-path="url(#p194ef8fb82)" d="M 57.6 87.259157 
L 58.028471 84.48 
L 59.157246 79.104 
L 60.485818 74.503031 
L 60.750949 73.728 
L 61.808643 71.04 
L 63.371636 67.645379 
L 64.466756 65.664 
L 66.257455 62.797479 
L 69.143273 59.115864 
L 72.029091 56.143528 
L 74.914909 53.701415 
L 77.800727 51.655182 
L 81.442183 49.536 
L 83.572364 48.501058 
L 87.559088 46.848 
L 89.344 46.230841 
L 92.229818 45.365766 
L 97.266312 44.16 
L 100.887273 43.538031 
L 106.658909 42.859847 
L 112.430545 42.50062 
L 118.202182 42.409835 
L 123.973818 42.540182 
L 129.745455 42.847559 
L 138.402909 43.551979 
L 147.060364 44.462561 
L 175.918545 47.800665 
L 184.576 48.550672 
L 193.233455 49.056322 
L 201.890909 49.292073 
L 210.548364 49.251539 
L 219.205818 48.947492 
L 227.863273 48.411857 
L 239.406545 47.428483 
L 256.721455 45.841525 
L 265.378909 45.19531 
L 274.036364 44.790154 
L 279.808 44.72282 
L 285.579636 44.870967 
L 291.351273 45.284166 
L 297.122909 46.015468 
L 301.58713 46.848 
L 302.894545 47.145392 
L 305.780364 47.919954 
L 310.656209 49.536 
L 311.552 49.887142 
L 316.514551 52.224 
L 317.323636 52.671161 
L 320.861493 54.912 
L 324.267882 57.6 
L 327.043164 60.288 
L 329.351149 62.976 
L 331.752727 66.417624 
L 332.877939 68.352 
L 334.638545 71.874386 
L 335.405988 73.728 
L 336.373522 76.416 
L 337.524364 80.321794 
L 338.418165 84.48 
L 339.203284 89.856 
L 339.646893 95.232 
L 339.805943 100.608 
L 339.733653 105.984 
L 339.479506 111.36 
L 338.856362 119.424 
L 337.501478 132.864 
L 336.083466 146.304 
L 335.436708 154.368 
L 335.022584 162.432 
L 334.882226 170.496 
L 335.0362 178.56 
L 335.484506 186.624 
L 336.206579 194.688 
L 337.161285 202.752 
L 341.062949 232.32 
L 341.819209 240.384 
L 342.149207 245.76 
L 342.289147 251.136 
L 342.19168 256.512 
L 341.806017 261.888 
L 341.077924 267.264 
L 340.410182 270.63675 
L 339.910783 272.64 
L 339.11568 275.328 
L 337.524364 279.678559 
L 337.079829 280.704 
L 335.749652 283.392 
L 334.208434 286.08 
L 331.752727 289.565206 
L 328.866909 292.8521 
L 325.981091 295.527664 
L 323.095273 297.749446 
L 320.209455 299.635033 
L 315.196441 302.208 
L 314.437818 302.541438 
L 311.552 303.663853 
L 307.834114 304.896 
L 302.894545 306.133501 
L 297.122909 307.1849 
L 294.139226 307.584 
L 294.139226 307.584 
" style="fill:none;stroke:#008eb8;stroke-width:1.5;"/>
   </g>
   <g id="LineCollection_6">
    <path clip-path="url(#p194ef8fb82)" d="M 75.205838 307.584 
L 74.914909 307.429144 
L 72.029091 305.72452 
L 70.758849 304.896 
L 69.143273 303.750111 
L 67.165513 302.208 
L 66.257455 301.435531 
L 64.200953 299.52 
L 63.371636 298.674188 
L 61.716037 296.832 
L 60.485818 295.327169 
L 59.596325 294.144 
L 57.766252 291.456 
L 57.6 291.185013 
" style="fill:none;stroke:#0071c6;stroke-width:1.5;"/>
    <path clip-path="url(#p194ef8fb82)" d="M 343.296 283.011048 
L 343.136206 283.392 
L 341.860304 286.08 
L 340.427181 288.768 
L 340.410182 288.79657 
L 338.693984 291.456 
L 337.524364 293.089223 
L 336.702698 294.144 
L 334.638545 296.543669 
L 334.367893 296.832 
L 331.752727 299.366272 
L 331.579006 299.52 
L 328.866909 301.711849 
L 328.192001 302.208 
L 325.981091 303.697754 
L 324.017725 304.896 
L 323.095273 305.413713 
L 320.209455 306.873661 
L 318.643386 307.584 
" style="fill:none;stroke:#0071c6;stroke-width:1.5;"/>
    <path clip-path="url(#p194ef8fb82)" d="M 343.296 147.944664 
L 343.21738 148.992 
L 343.033996 151.68 
L 342.870944 154.368 
L 342.729944 157.056 
L 342.612505 159.744 
L 342.519917 162.432 
L 342.453257 165.12 
L 342.413384 167.808 
L 342.400945 170.496 
L 342.41637 173.184 
L 342.459875 175.872 
L 342.531459 178.56 
L 342.630907 181.248 
L 342.757789 183.936 
L 342.911459 186.624 
L 343.091057 189.312 
L 343.295505 192 
L 343.296 192.005834 
" style="fill:none;stroke:#0071c6;stroke-width:1.5;"/>
    <path clip-path="url(#p194ef8fb82)" d="M 57.6 64.434717 
L 58.362615 62.976 
L 59.930005 60.288 
L 60.485818 59.428781 
L 61.772246 57.6 
L 63.371636 55.540644 
L 63.904301 54.912 
L 66.257455 52.385813 
L 66.422496 52.224 
L 69.143273 49.788099 
L 69.452823 49.536 
L 72.029091 47.613342 
L 73.161492 46.848 
L 74.914909 45.758556 
L 77.770055 44.16 
L 77.800727 44.144166 
L 80.686545 42.809282 
L 83.572364 41.62084 
L 83.981351 41.472 
" style="fill:none;stroke:#0071c6;stroke-width:1.5;"/>
    <path clip-path="url(#p194ef8fb82)" d="M 181.683918 41.472 
L 181.690182 41.472461 
L 184.576 41.662895 
L 187.461818 41.830181 
L 190.347636 41.973317 
L 193.233455 42.091502 
L 196.119273 42.184133 
L 199.005091 42.25081 
L 201.890909 42.291333 
L 204.776727 42.3057 
L 207.662545 42.294114 
L 210.548364 42.256975 
L 213.434182 42.194883 
L 216.32 42.108642 
L 219.205818 41.999253 
L 222.091636 41.86792 
L 224.977455 41.716044 
L 227.863273 41.545231 
L 228.987685 41.472 
" style="fill:none;stroke:#0071c6;stroke-width:1.5;"/>
    <path clip-path="url(#p194ef8fb82)" d="M 307.078869 41.472 
L 308.666182 41.892174 
L 311.552 42.770843 
L 314.437818 43.7719 
L 315.427851 44.16 
L 317.323636 44.966008 
L 320.209455 46.342849 
L 321.158731 46.848 
L 323.095273 47.968961 
L 325.535552 49.536 
L 325.981091 49.848216 
L 328.866909 52.080951 
L 329.035091 52.224 
L 331.752727 54.755347 
L 331.906303 54.912 
L 334.303353 57.6 
L 334.638545 58.014998 
L 336.320908 60.288 
L 337.524364 62.091795 
L 338.06669 62.976 
L 339.544857 65.664 
L 340.410182 67.429832 
L 340.826844 68.352 
L 341.901571 71.04 
L 342.844904 73.728 
L 343.296 75.206505 
" style="fill:none;stroke:#0071c6;stroke-width:1.5;"/>
   </g>
   <g id="LineCollection_7">
    <path clip-path="url(#p194ef8fb82)" d="M 65.229204 307.584 
L 63.371636 306.125587 
L 61.936153 304.896 
L 60.485818 303.545083 
L 59.165742 302.208 
L 57.6 300.477766 
" style="fill:none;stroke:#0055d4;stroke-width:1.5;"/>
    <path clip-path="url(#p194ef8fb82)" d="M 343.296 295.032799 
L 341.984164 296.832 
L 340.410182 298.795691 
L 339.780522 299.52 
L 337.524364 301.89025 
L 337.195364 302.208 
L 334.638545 304.471415 
L 334.115152 304.896 
L 331.752727 306.658359 
L 330.393909 307.584 
" style="fill:none;stroke:#0055d4;stroke-width:1.5;"/>
    <path clip-path="url(#p194ef8fb82)" d="M 57.6 53.489673 
L 58.593761 52.224 
L 60.485818 50.023516 
L 60.941649 49.536 
L 63.371636 47.154448 
L 63.712771 46.848 
L 66.257455 44.746498 
L 67.035067 44.16 
L 69.143273 42.693912 
L 71.074883 41.472 
" style="fill:none;stroke:#0055d4;stroke-width:1.5;"/>
    <path clip-path="url(#p194ef8fb82)" d="M 323.650438 41.472 
L 325.981091 42.740607 
L 328.342949 44.16 
L 328.866909 44.50151 
L 331.752727 46.569318 
L 332.107878 46.848 
L 334.638545 49.008064 
L 335.205334 49.536 
L 337.524364 51.893194 
L 337.823555 52.224 
L 340.043539 54.912 
L 340.410182 55.400044 
L 341.934032 57.6 
L 343.296 59.77089 
" style="fill:none;stroke:#0055d4;stroke-width:1.5;"/>
   </g>
   <g id="LineCollection_8">
    <path clip-path="url(#p194ef8fb82)" d="M 343.296 303.320928 
L 341.787847 304.896 
L 340.410182 306.219122 
L 338.868858 307.584 
" style="fill:none;stroke:#0038e3;stroke-width:1.5;"/>
    <path clip-path="url(#p194ef8fb82)" d="M 57.6 45.595668 
L 59.065324 44.16 
L 60.485818 42.876771 
L 62.176805 41.472 
" style="fill:none;stroke:#0038e3;stroke-width:1.5;"/>
    <path clip-path="url(#p194ef8fb82)" d="M 333.838831 41.472 
L 334.638545 42.050596 
L 337.31026 44.16 
L 337.524364 44.343337 
L 340.213353 46.848 
L 340.410182 47.047427 
L 342.674823 49.536 
L 343.296 50.280895 
" style="fill:none;stroke:#0038e3;stroke-width:1.5;"/>
   </g>
   <g id="LineCollection_9">
    <path clip-path="url(#p194ef8fb82)" d="M 341.573215 41.472 
L 343.296 43.076691 
" style="fill:none;stroke:#001cf1;stroke-width:1.5;"/>
   </g>
   <g id="LineCollection_10"/>
   <g id="patch_3">
    <path d="M 57.6 307.584 
L 57.6 41.472 
" style="fill:none;stroke:#000000;stroke-linecap:square;stroke-linejoin:miter;stroke-width:0.8;"/>
   </g>
   <g id="patch_4">
    <path d="M 343.296 307.584 
L 343.296 41.472 
" style="fill:none;stroke:#000000;stroke-linecap:square;stroke-linejoin:miter;stroke-width:0.8;"/>
   </g>
   <g id="patch_5">
    <path d="M 57.6 307.584 
L 343.296 307.584 
" style="fill:none;stroke:#000000;stroke-linecap:square;stroke-linejoin:miter;stroke-width:0.8;"/>
   </g>
   <g id="patch_6">
    <path d="M 57.6 41.472 
L 343.296 41.472 
" style="fill:none;stroke:#000000;stroke-linecap:square;stroke-linejoin:miter;stroke-width:0.8;"/>
   </g>
  </g>
  <g id="axes_2">
   <g id="patch_7">
    <path clip-path="url(#p3a03a1b93e)" d="M 361.152 307.584 
L 361.152 278.016 
L 361.152 71.04 
L 361.152 41.472 
L 374.4576 41.472 
L 374.4576 71.04 
L 374.4576 278.016 
L 374.4576 307.584 
z
" style="fill:#ffffff;stroke:#ffffff;stroke-linejoin:miter;stroke-width:0.01;"/>
   </g>
   <g id="matplotlib.axis_3"/>
   <g id="matplotlib.axis_4">
    <g id="ytick_6">
     <g id="line2d_11">
      <defs>
       <path d="M 0 0 
L 3.5 0 
" id="m9363990660" style="stroke:#000000;stroke-width:0.8;"/>
      </defs>
      <g>
       <use style="stroke:#000000;stroke-width:0.8;" x="374.4576" xlink:href="#m9363990660" y="307.584"/>
      </g>
     </g>
     <g id="text_11">
      <!-- −80 -->
      <defs>
       <path d="M 31.78125 34.625 
Q 24.75 34.625 20.71875 30.859375 
Q 16.703125 27.09375 16.703125 20.515625 
Q 16.703125 13.921875 20.71875 10.15625 
Q 24.75 6.390625 31.78125 6.390625 
Q 38.8125 6.390625 42.859375 10.171875 
Q 46.921875 13.96875 46.921875 20.515625 
Q 46.921875 27.09375 42.890625 30.859375 
Q 38.875 34.625 31.78125 34.625 
z
M 21.921875 38.8125 
Q 15.578125 40.375 12.03125 44.71875 
Q 8.5 49.078125 8.5 55.328125 
Q 8.5 64.0625 14.71875 69.140625 
Q 20.953125 74.21875 31.78125 74.21875 
Q 42.671875 74.21875 48.875 69.140625 
Q 55.078125 64.0625 55.078125 55.328125 
Q 55.078125 49.078125 51.53125 44.71875 
Q 48 40.375 41.703125 38.8125 
Q 48.828125 37.15625 52.796875 32.3125 
Q 56.78125 27.484375 56.78125 20.515625 
Q 56.78125 9.90625 50.3125 4.234375 
Q 43.84375 -1.421875 31.78125 -1.421875 
Q 19.734375 -1.421875 13.25 4.234375 
Q 6.78125 9.90625 6.78125 20.515625 
Q 6.78125 27.484375 10.78125 32.3125 
Q 14.796875 37.15625 21.921875 38.8125 
z
M 18.3125 54.390625 
Q 18.3125 48.734375 21.84375 45.5625 
Q 25.390625 42.390625 31.78125 42.390625 
Q 38.140625 42.390625 41.71875 45.5625 
Q 45.3125 48.734375 45.3125 54.390625 
Q 45.3125 60.0625 41.71875 63.234375 
Q 38.140625 66.40625 31.78125 66.40625 
Q 25.390625 66.40625 21.84375 63.234375 
Q 18.3125 60.0625 18.3125 54.390625 
z
" id="DejaVuSans-56"/>
      </defs>
      <g transform="translate(381.4576 311.383219)scale(0.1 -0.1)">
       <use xlink:href="#DejaVuSans-8722"/>
       <use x="83.789062" xlink:href="#DejaVuSans-56"/>
       <use x="147.412109" xlink:href="#DejaVuSans-48"/>
      </g>
     </g>
    </g>
    <g id="ytick_7">
     <g id="line2d_12">
      <g>
       <use style="stroke:#000000;stroke-width:0.8;" x="374.4576" xlink:href="#m9363990660" y="278.016"/>
      </g>
     </g>
     <g id="text_12">
      <!-- −40 -->
      <g transform="translate(381.4576 281.815219)scale(0.1 -0.1)">
       <use xlink:href="#DejaVuSans-8722"/>
       <use x="83.789062" xlink:href="#DejaVuSans-52"/>
       <use x="147.412109" xlink:href="#DejaVuSans-48"/>
      </g>
     </g>
    </g>
    <g id="ytick_8">
     <g id="line2d_13">
      <g>
       <use style="stroke:#000000;stroke-width:0.8;" x="374.4576" xlink:href="#m9363990660" y="248.448"/>
      </g>
     </g>
     <g id="text_13">
      <!-- 0 -->
      <g transform="translate(381.4576 252.247219)scale(0.1 -0.1)">
       <use xlink:href="#DejaVuSans-48"/>
      </g>
     </g>
    </g>
    <g id="ytick_9">
     <g id="line2d_14">
      <g>
       <use style="stroke:#000000;stroke-width:0.8;" x="374.4576" xlink:href="#m9363990660" y="218.88"/>
      </g>
     </g>
     <g id="text_14">
      <!-- 40 -->
      <g transform="translate(381.4576 222.679219)scale(0.1 -0.1)">
       <use xlink:href="#DejaVuSans-52"/>
       <use x="63.623047" xlink:href="#DejaVuSans-48"/>
      </g>
     </g>
    </g>
    <g id="ytick_10">
     <g id="line2d_15">
      <g>
       <use style="stroke:#000000;stroke-width:0.8;" x="374.4576" xlink:href="#m9363990660" y="189.312"/>
      </g>
     </g>
     <g id="text_15">
      <!-- 80 -->
      <g transform="translate(381.4576 193.111219)scale(0.1 -0.1)">
       <use xlink:href="#DejaVuSans-56"/>
       <use x="63.623047" xlink:href="#DejaVuSans-48"/>
      </g>
     </g>
    </g>
    <g id="ytick_11">
     <g id="line2d_16">
      <g>
       <use style="stroke:#000000;stroke-width:0.8;" x="374.4576" xlink:href="#m9363990660" y="159.744"/>
      </g>
     </g>
     <g id="text_16">
      <!-- 120 -->
      <defs>
       <path d="M 12.40625 8.296875 
L 28.515625 8.296875 
L 28.515625 63.921875 
L 10.984375 60.40625 
L 10.984375 69.390625 
L 28.421875 72.90625 
L 38.28125 72.90625 
L 38.28125 8.296875 
L 54.390625 8.296875 
L 54.390625 0 
L 12.40625 0 
z
" id="DejaVuSans-49"/>
      </defs>
      <g transform="translate(381.4576 163.543219)scale(0.1 -0.1)">
       <use xlink:href="#DejaVuSans-49"/>
       <use x="63.623047" xlink:href="#DejaVuSans-50"/>
       <use x="127.246094" xlink:href="#DejaVuSans-48"/>
      </g>
     </g>
    </g>
    <g id="ytick_12">
     <g id="line2d_17">
      <g>
       <use style="stroke:#000000;stroke-width:0.8;" x="374.4576" xlink:href="#m9363990660" y="130.176"/>
      </g>
     </g>
     <g id="text_17">
      <!-- 160 -->
      <defs>
       <path d="M 33.015625 40.375 
Q 26.375 40.375 22.484375 35.828125 
Q 18.609375 31.296875 18.609375 23.390625 
Q 18.609375 15.53125 22.484375 10.953125 
Q 26.375 6.390625 33.015625 6.390625 
Q 39.65625 6.390625 43.53125 10.953125 
Q 47.40625 15.53125 47.40625 23.390625 
Q 47.40625 31.296875 43.53125 35.828125 
Q 39.65625 40.375 33.015625 40.375 
z
M 52.59375 71.296875 
L 52.59375 62.3125 
Q 48.875 64.0625 45.09375 64.984375 
Q 41.3125 65.921875 37.59375 65.921875 
Q 27.828125 65.921875 22.671875 59.328125 
Q 17.53125 52.734375 16.796875 39.40625 
Q 19.671875 43.65625 24.015625 45.921875 
Q 28.375 48.1875 33.59375 48.1875 
Q 44.578125 48.1875 50.953125 41.515625 
Q 57.328125 34.859375 57.328125 23.390625 
Q 57.328125 12.15625 50.6875 5.359375 
Q 44.046875 -1.421875 33.015625 -1.421875 
Q 20.359375 -1.421875 13.671875 8.265625 
Q 6.984375 17.96875 6.984375 36.375 
Q 6.984375 53.65625 15.1875 63.9375 
Q 23.390625 74.21875 37.203125 74.21875 
Q 40.921875 74.21875 44.703125 73.484375 
Q 48.484375 72.75 52.59375 71.296875 
z
" id="DejaVuSans-54"/>
      </defs>
      <g transform="translate(381.4576 133.975219)scale(0.1 -0.1)">
       <use xlink:href="#DejaVuSans-49"/>
       <use x="63.623047" xlink:href="#DejaVuSans-54"/>
       <use x="127.246094" xlink:href="#DejaVuSans-48"/>
      </g>
     </g>
    </g>
    <g id="ytick_13">
     <g id="line2d_18">
      <g>
       <use style="stroke:#000000;stroke-width:0.8;" x="374.4576" xlink:href="#m9363990660" y="100.608"/>
      </g>
     </g>
     <g id="text_18">
      <!-- 200 -->
      <g transform="translate(381.4576 104.407219)scale(0.1 -0.1)">
       <use xlink:href="#DejaVuSans-50"/>
       <use x="63.623047" xlink:href="#DejaVuSans-48"/>
       <use x="127.246094" xlink:href="#DejaVuSans-48"/>
      </g>
     </g>
    </g>
    <g id="ytick_14">
     <g id="line2d_19">
      <g>
       <use style="stroke:#000000;stroke-width:0.8;" x="374.4576" xlink:href="#m9363990660" y="71.04"/>
      </g>
     </g>
     <g id="text_19">
      <!-- 240 -->
      <g transform="translate(381.4576 74.839219)scale(0.1 -0.1)">
       <use xlink:href="#DejaVuSans-50"/>
       <use x="63.623047" xlink:href="#DejaVuSans-52"/>
       <use x="127.246094" xlink:href="#DejaVuSans-48"/>
      </g>
     </g>
    </g>
    <g id="ytick_15">
     <g id="line2d_20">
      <g>
       <use style="stroke:#000000;stroke-width:0.8;" x="374.4576" xlink:href="#m9363990660" y="41.472"/>
      </g>
     </g>
     <g id="text_20">
      <!-- 280 -->
      <g transform="translate(381.4576 45.271219)scale(0.1 -0.1)">
       <use xlink:href="#DejaVuSans-50"/>
       <use x="63.623047" xlink:href="#DejaVuSans-56"/>
       <use x="127.246094" xlink:href="#DejaVuSans-48"/>
      </g>
     </g>
    </g>
   </g>
   <g id="LineCollection_11">
    <path clip-path="url(#p3a03a1b93e)" d="M 361.152 307.584 
L 374.4576 307.584 
" style="fill:none;stroke:#00ff80;stroke-width:1.5;"/>
    <path clip-path="url(#p3a03a1b93e)" d="M 361.152 278.016 
L 374.4576 278.016 
" style="fill:none;stroke:#00e38e;stroke-width:1.5;"/>
    <path clip-path="url(#p3a03a1b93e)" d="M 361.152 248.448 
L 374.4576 248.448 
" style="fill:none;stroke:#00c79c;stroke-width:1.5;"/>
    <path clip-path="url(#p3a03a1b93e)" d="M 361.152 218.88 
L 374.4576 218.88 
" style="fill:none;stroke:#00aaaa;stroke-width:1.5;"/>
    <path clip-path="url(#p3a03a1b93e)" d="M 361.152 189.312 
L 374.4576 189.312 
" style="fill:none;stroke:#008eb8;stroke-width:1.5;"/>
    <path clip-path="url(#p3a03a1b93e)" d="M 361.152 159.744 
L 374.4576 159.744 
" style="fill:none;stroke:#0071c6;stroke-width:1.5;"/>
    <path clip-path="url(#p3a03a1b93e)" d="M 361.152 130.176 
L 374.4576 130.176 
" style="fill:none;stroke:#0055d4;stroke-width:1.5;"/>
    <path clip-path="url(#p3a03a1b93e)" d="M 361.152 100.608 
L 374.4576 100.608 
" style="fill:none;stroke:#0038e3;stroke-width:1.5;"/>
    <path clip-path="url(#p3a03a1b93e)" d="M 361.152 71.04 
L 374.4576 71.04 
" style="fill:none;stroke:#001cf1;stroke-width:1.5;"/>
    <path clip-path="url(#p3a03a1b93e)" d="M 361.152 41.472 
L 374.4576 41.472 
" style="fill:none;stroke:#0000ff;stroke-width:1.5;"/>
   </g>
   <g id="patch_8">
    <path d="M 361.152 307.584 
L 361.152 278.016 
L 361.152 71.04 
L 361.152 41.472 
L 374.4576 41.472 
L 374.4576 71.04 
L 374.4576 278.016 
L 374.4576 307.584 
z
" style="fill:none;stroke:#000000;stroke-linejoin:miter;stroke-width:0.8;"/>
   </g>
  </g>
 </g>
 <defs>
  <clipPath id="p194ef8fb82">
   <rect height="266.112" width="285.696" x="57.6" y="41.472"/>
  </clipPath>
  <clipPath id="p3a03a1b93e">
   <rect height="266.112" width="13.3056" x="361.152" y="41.472"/>
  </clipPath>
 </defs>
</svg>
