<?xml version="1.0" encoding="utf-8" standalone="no"?>
<!DOCTYPE svg PUBLIC "-//W3C//DTD SVG 1.1//EN"
  "http://www.w3.org/Graphics/SVG/1.1/DTD/svg11.dtd">
<!-- Created with matplotlib (https://matplotlib.org/) -->
<svg height="345.6pt" version="1.1" viewBox="0 0 460.8 345.6" width="460.8pt" xmlns="http://www.w3.org/2000/svg" xmlns:xlink="http://www.w3.org/1999/xlink">
 <defs>
  <style type="text/css">
*{stroke-linecap:butt;stroke-linejoin:round;}
  </style>
 </defs>
 <g id="figure_1">
  <g id="patch_1">
   <path d="M 0 345.6 
L 460.8 345.6 
L 460.8 0 
L 0 0 
z
" style="fill:#ffffff;"/>
  </g>
  <g id="axes_1">
   <g id="patch_2">
    <path d="M 57.6 307.584 
L 343.296 307.584 
L 343.296 41.472 
L 57.6 41.472 
z
" style="fill:#ffffff;"/>
   </g>
   <g id="matplotlib.axis_1">
    <g id="xtick_1">
     <g id="line2d_1">
      <defs>
       <path d="M 0 0 
L 0 3.5 
" id="md907656d37" style="stroke:#000000;stroke-width:0.8;"/>
      </defs>
      <g>
       <use style="stroke:#000000;stroke-width:0.8;" x="57.6" xlink:href="#md907656d37" y="307.584"/>
      </g>
     </g>
     <g id="text_1">
      <!-- −10.0 -->
      <defs>
       <path d="M 10.59375 35.5 
L 73.1875 35.5 
L 73.1875 27.203125 
L 10.59375 27.203125 
z
" id="DejaVuSans-8722"/>
       <path d="M 12.40625 8.296875 
L 28.515625 8.296875 
L 28.515625 63.921875 
L 10.984375 60.40625 
L 10.984375 69.390625 
L 28.421875 72.90625 
L 38.28125 72.90625 
L 38.28125 8.296875 
L 54.390625 8.296875 
L 54.390625 0 
L 12.40625 0 
z
" id="DejaVuSans-49"/>
       <path d="M 31.78125 66.40625 
Q 24.171875 66.40625 20.328125 58.90625 
Q 16.5 51.421875 16.5 36.375 
Q 16.5 21.390625 20.328125 13.890625 
Q 24.171875 6.390625 31.78125 6.390625 
Q 39.453125 6.390625 43.28125 13.890625 
Q 47.125 21.390625 47.125 36.375 
Q 47.125 51.421875 43.28125 58.90625 
Q 39.453125 66.40625 31.78125 66.40625 
z
M 31.78125 74.21875 
Q 44.046875 74.21875 50.515625 64.515625 
Q 56.984375 54.828125 56.984375 36.375 
Q 56.984375 17.96875 50.515625 8.265625 
Q 44.046875 -1.421875 31.78125 -1.421875 
Q 19.53125 -1.421875 13.0625 8.265625 
Q 6.59375 17.96875 6.59375 36.375 
Q 6.59375 54.828125 13.0625 64.515625 
Q 19.53125 74.21875 31.78125 74.21875 
z
" id="DejaVuSans-48"/>
       <path d="M 10.6875 12.40625 
L 21 12.40625 
L 21 0 
L 10.6875 0 
z
" id="DejaVuSans-46"/>
      </defs>
      <g transform="translate(42.277344 322.182437)scale(0.1 -0.1)">
       <use xlink:href="#DejaVuSans-8722"/>
       <use x="83.789062" xlink:href="#DejaVuSans-49"/>
       <use x="147.412109" xlink:href="#DejaVuSans-48"/>
       <use x="211.035156" xlink:href="#DejaVuSans-46"/>
       <use x="242.822266" xlink:href="#DejaVuSans-48"/>
      </g>
     </g>
    </g>
    <g id="xtick_2">
     <g id="line2d_2">
      <g>
       <use style="stroke:#000000;stroke-width:0.8;" x="93.312" xlink:href="#md907656d37" y="307.584"/>
      </g>
     </g>
     <g id="text_2">
      <!-- −7.5 -->
      <defs>
       <path d="M 8.203125 72.90625 
L 55.078125 72.90625 
L 55.078125 68.703125 
L 28.609375 0 
L 18.3125 0 
L 43.21875 64.59375 
L 8.203125 64.59375 
z
" id="DejaVuSans-55"/>
       <path d="M 10.796875 72.90625 
L 49.515625 72.90625 
L 49.515625 64.59375 
L 19.828125 64.59375 
L 19.828125 46.734375 
Q 21.96875 47.46875 24.109375 47.828125 
Q 26.265625 48.1875 28.421875 48.1875 
Q 40.625 48.1875 47.75 41.5 
Q 54.890625 34.8125 54.890625 23.390625 
Q 54.890625 11.625 47.5625 5.09375 
Q 40.234375 -1.421875 26.90625 -1.421875 
Q 22.3125 -1.421875 17.546875 -0.640625 
Q 12.796875 0.140625 7.71875 1.703125 
L 7.71875 11.625 
Q 12.109375 9.234375 16.796875 8.0625 
Q 21.484375 6.890625 26.703125 6.890625 
Q 35.15625 6.890625 40.078125 11.328125 
Q 45.015625 15.765625 45.015625 23.390625 
Q 45.015625 31 40.078125 35.4375 
Q 35.15625 39.890625 26.703125 39.890625 
Q 22.75 39.890625 18.8125 39.015625 
Q 14.890625 38.140625 10.796875 36.28125 
z
" id="DejaVuSans-53"/>
      </defs>
      <g transform="translate(81.170594 322.182437)scale(0.1 -0.1)">
       <use xlink:href="#DejaVuSans-8722"/>
       <use x="83.789062" xlink:href="#DejaVuSans-55"/>
       <use x="147.412109" xlink:href="#DejaVuSans-46"/>
       <use x="179.199219" xlink:href="#DejaVuSans-53"/>
      </g>
     </g>
    </g>
    <g id="xtick_3">
     <g id="line2d_3">
      <g>
       <use style="stroke:#000000;stroke-width:0.8;" x="129.024" xlink:href="#md907656d37" y="307.584"/>
      </g>
     </g>
     <g id="text_3">
      <!-- −5.0 -->
      <g transform="translate(116.882594 322.182437)scale(0.1 -0.1)">
       <use xlink:href="#DejaVuSans-8722"/>
       <use x="83.789062" xlink:href="#DejaVuSans-53"/>
       <use x="147.412109" xlink:href="#DejaVuSans-46"/>
       <use x="179.199219" xlink:href="#DejaVuSans-48"/>
      </g>
     </g>
    </g>
    <g id="xtick_4">
     <g id="line2d_4">
      <g>
       <use style="stroke:#000000;stroke-width:0.8;" x="164.736" xlink:href="#md907656d37" y="307.584"/>
      </g>
     </g>
     <g id="text_4">
      <!-- −2.5 -->
      <defs>
       <path d="M 19.1875 8.296875 
L 53.609375 8.296875 
L 53.609375 0 
L 7.328125 0 
L 7.328125 8.296875 
Q 12.9375 14.109375 22.625 23.890625 
Q 32.328125 33.6875 34.8125 36.53125 
Q 39.546875 41.84375 41.421875 45.53125 
Q 43.3125 49.21875 43.3125 52.78125 
Q 43.3125 58.59375 39.234375 62.25 
Q 35.15625 65.921875 28.609375 65.921875 
Q 23.96875 65.921875 18.8125 64.3125 
Q 13.671875 62.703125 7.8125 59.421875 
L 7.8125 69.390625 
Q 13.765625 71.78125 18.9375 73 
Q 24.125 74.21875 28.421875 74.21875 
Q 39.75 74.21875 46.484375 68.546875 
Q 53.21875 62.890625 53.21875 53.421875 
Q 53.21875 48.921875 51.53125 44.890625 
Q 49.859375 40.875 45.40625 35.40625 
Q 44.1875 33.984375 37.640625 27.21875 
Q 31.109375 20.453125 19.1875 8.296875 
z
" id="DejaVuSans-50"/>
      </defs>
      <g transform="translate(152.594594 322.182437)scale(0.1 -0.1)">
       <use xlink:href="#DejaVuSans-8722"/>
       <use x="83.789062" xlink:href="#DejaVuSans-50"/>
       <use x="147.412109" xlink:href="#DejaVuSans-46"/>
       <use x="179.199219" xlink:href="#DejaVuSans-53"/>
      </g>
     </g>
    </g>
    <g id="xtick_5">
     <g id="line2d_5">
      <g>
       <use style="stroke:#000000;stroke-width:0.8;" x="200.448" xlink:href="#md907656d37" y="307.584"/>
      </g>
     </g>
     <g id="text_5">
      <!-- 0.0 -->
      <g transform="translate(192.496438 322.182437)scale(0.1 -0.1)">
       <use xlink:href="#DejaVuSans-48"/>
       <use x="63.623047" xlink:href="#DejaVuSans-46"/>
       <use x="95.410156" xlink:href="#DejaVuSans-48"/>
      </g>
     </g>
    </g>
    <g id="xtick_6">
     <g id="line2d_6">
      <g>
       <use style="stroke:#000000;stroke-width:0.8;" x="236.16" xlink:href="#md907656d37" y="307.584"/>
      </g>
     </g>
     <g id="text_6">
      <!-- 2.5 -->
      <g transform="translate(228.208438 322.182437)scale(0.1 -0.1)">
       <use xlink:href="#DejaVuSans-50"/>
       <use x="63.623047" xlink:href="#DejaVuSans-46"/>
       <use x="95.410156" xlink:href="#DejaVuSans-53"/>
      </g>
     </g>
    </g>
    <g id="xtick_7">
     <g id="line2d_7">
      <g>
       <use style="stroke:#000000;stroke-width:0.8;" x="271.872" xlink:href="#md907656d37" y="307.584"/>
      </g>
     </g>
     <g id="text_7">
      <!-- 5.0 -->
      <g transform="translate(263.920437 322.182437)scale(0.1 -0.1)">
       <use xlink:href="#DejaVuSans-53"/>
       <use x="63.623047" xlink:href="#DejaVuSans-46"/>
       <use x="95.410156" xlink:href="#DejaVuSans-48"/>
      </g>
     </g>
    </g>
    <g id="xtick_8">
     <g id="line2d_8">
      <g>
       <use style="stroke:#000000;stroke-width:0.8;" x="307.584" xlink:href="#md907656d37" y="307.584"/>
      </g>
     </g>
     <g id="text_8">
      <!-- 7.5 -->
      <g transform="translate(299.632438 322.182437)scale(0.1 -0.1)">
       <use xlink:href="#DejaVuSans-55"/>
       <use x="63.623047" xlink:href="#DejaVuSans-46"/>
       <use x="95.410156" xlink:href="#DejaVuSans-53"/>
      </g>
     </g>
    </g>
    <g id="xtick_9">
     <g id="line2d_9">
      <g>
       <use style="stroke:#000000;stroke-width:0.8;" x="343.296" xlink:href="#md907656d37" y="307.584"/>
      </g>
     </g>
     <g id="text_9">
      <!-- 10.0 -->
      <g transform="translate(332.163188 322.182437)scale(0.1 -0.1)">
       <use xlink:href="#DejaVuSans-49"/>
       <use x="63.623047" xlink:href="#DejaVuSans-48"/>
       <use x="127.246094" xlink:href="#DejaVuSans-46"/>
       <use x="159.033203" xlink:href="#DejaVuSans-48"/>
      </g>
     </g>
    </g>
   </g>
   <g id="matplotlib.axis_2">
    <g id="ytick_1">
     <g id="line2d_10">
      <defs>
       <path d="M 0 0 
L -3.5 0 
" id="m1a1c2e39c2" style="stroke:#000000;stroke-width:0.8;"/>
      </defs>
      <g>
       <use style="stroke:#000000;stroke-width:0.8;" x="57.6" xlink:href="#m1a1c2e39c2" y="307.584"/>
      </g>
     </g>
     <g id="text_10">
      <!-- −10.0 -->
      <g transform="translate(19.954687 311.383219)scale(0.1 -0.1)">
       <use xlink:href="#DejaVuSans-8722"/>
       <use x="83.789062" xlink:href="#DejaVuSans-49"/>
       <use x="147.412109" xlink:href="#DejaVuSans-48"/>
       <use x="211.035156" xlink:href="#DejaVuSans-46"/>
       <use x="242.822266" xlink:href="#DejaVuSans-48"/>
      </g>
     </g>
    </g>
    <g id="ytick_2">
     <g id="line2d_11">
      <g>
       <use style="stroke:#000000;stroke-width:0.8;" x="57.6" xlink:href="#m1a1c2e39c2" y="274.32"/>
      </g>
     </g>
     <g id="text_11">
      <!-- −7.5 -->
      <g transform="translate(26.317187 278.119219)scale(0.1 -0.1)">
       <use xlink:href="#DejaVuSans-8722"/>
       <use x="83.789062" xlink:href="#DejaVuSans-55"/>
       <use x="147.412109" xlink:href="#DejaVuSans-46"/>
       <use x="179.199219" xlink:href="#DejaVuSans-53"/>
      </g>
     </g>
    </g>
    <g id="ytick_3">
     <g id="line2d_12">
      <g>
       <use style="stroke:#000000;stroke-width:0.8;" x="57.6" xlink:href="#m1a1c2e39c2" y="241.056"/>
      </g>
     </g>
     <g id="text_12">
      <!-- −5.0 -->
      <g transform="translate(26.317187 244.855219)scale(0.1 -0.1)">
       <use xlink:href="#DejaVuSans-8722"/>
       <use x="83.789062" xlink:href="#DejaVuSans-53"/>
       <use x="147.412109" xlink:href="#DejaVuSans-46"/>
       <use x="179.199219" xlink:href="#DejaVuSans-48"/>
      </g>
     </g>
    </g>
    <g id="ytick_4">
     <g id="line2d_13">
      <g>
       <use style="stroke:#000000;stroke-width:0.8;" x="57.6" xlink:href="#m1a1c2e39c2" y="207.792"/>
      </g>
     </g>
     <g id="text_13">
      <!-- −2.5 -->
      <g transform="translate(26.317187 211.591219)scale(0.1 -0.1)">
       <use xlink:href="#DejaVuSans-8722"/>
       <use x="83.789062" xlink:href="#DejaVuSans-50"/>
       <use x="147.412109" xlink:href="#DejaVuSans-46"/>
       <use x="179.199219" xlink:href="#DejaVuSans-53"/>
      </g>
     </g>
    </g>
    <g id="ytick_5">
     <g id="line2d_14">
      <g>
       <use style="stroke:#000000;stroke-width:0.8;" x="57.6" xlink:href="#m1a1c2e39c2" y="174.528"/>
      </g>
     </g>
     <g id="text_14">
      <!-- 0.0 -->
      <g transform="translate(34.696875 178.327219)scale(0.1 -0.1)">
       <use xlink:href="#DejaVuSans-48"/>
       <use x="63.623047" xlink:href="#DejaVuSans-46"/>
       <use x="95.410156" xlink:href="#DejaVuSans-48"/>
      </g>
     </g>
    </g>
    <g id="ytick_6">
     <g id="line2d_15">
      <g>
       <use style="stroke:#000000;stroke-width:0.8;" x="57.6" xlink:href="#m1a1c2e39c2" y="141.264"/>
      </g>
     </g>
     <g id="text_15">
      <!-- 2.5 -->
      <g transform="translate(34.696875 145.063219)scale(0.1 -0.1)">
       <use xlink:href="#DejaVuSans-50"/>
       <use x="63.623047" xlink:href="#DejaVuSans-46"/>
       <use x="95.410156" xlink:href="#DejaVuSans-53"/>
      </g>
     </g>
    </g>
    <g id="ytick_7">
     <g id="line2d_16">
      <g>
       <use style="stroke:#000000;stroke-width:0.8;" x="57.6" xlink:href="#m1a1c2e39c2" y="108"/>
      </g>
     </g>
     <g id="text_16">
      <!-- 5.0 -->
      <g transform="translate(34.696875 111.799219)scale(0.1 -0.1)">
       <use xlink:href="#DejaVuSans-53"/>
       <use x="63.623047" xlink:href="#DejaVuSans-46"/>
       <use x="95.410156" xlink:href="#DejaVuSans-48"/>
      </g>
     </g>
    </g>
    <g id="ytick_8">
     <g id="line2d_17">
      <g>
       <use style="stroke:#000000;stroke-width:0.8;" x="57.6" xlink:href="#m1a1c2e39c2" y="74.736"/>
      </g>
     </g>
     <g id="text_17">
      <!-- 7.5 -->
      <g transform="translate(34.696875 78.535219)scale(0.1 -0.1)">
       <use xlink:href="#DejaVuSans-55"/>
       <use x="63.623047" xlink:href="#DejaVuSans-46"/>
       <use x="95.410156" xlink:href="#DejaVuSans-53"/>
      </g>
     </g>
    </g>
    <g id="ytick_9">
     <g id="line2d_18">
      <g>
       <use style="stroke:#000000;stroke-width:0.8;" x="57.6" xlink:href="#m1a1c2e39c2" y="41.472"/>
      </g>
     </g>
     <g id="text_18">
      <!-- 10.0 -->
      <g transform="translate(28.334375 45.271219)scale(0.1 -0.1)">
       <use xlink:href="#DejaVuSans-49"/>
       <use x="63.623047" xlink:href="#DejaVuSans-48"/>
       <use x="127.246094" xlink:href="#DejaVuSans-46"/>
       <use x="159.033203" xlink:href="#DejaVuSans-48"/>
      </g>
     </g>
    </g>
   </g>
   <g id="LineCollection_1"/>
   <g id="LineCollection_2">
    <path clip-path="url(#p82ef81614e)" d="M 181.690182 232.727782 
L 175.918545 231.7872 
L 170.146909 230.5712 
L 164.375273 229.07256 
L 157.704223 226.944 
L 152.832 225.081853 
L 149.946182 223.8584 
L 144.174545 221.067953 
L 140.234029 218.88 
L 135.517091 215.89408 
L 132.189382 213.504 
L 128.859508 210.816 
L 125.896772 208.128 
L 123.26038 205.44 
L 120.915366 202.752 
L 118.202182 199.119467 
L 117.040391 197.376 
L 115.316364 194.4336 
L 114.097105 192 
L 112.430545 187.88064 
L 111.995345 186.624 
L 111.250618 183.936 
L 110.692073 181.248 
L 110.319709 178.56 
L 110.133527 175.872 
L 110.133527 173.184 
L 110.319709 170.496 
L 110.692073 167.808 
L 111.250618 165.12 
L 112.430545 161.17536 
L 112.942778 159.744 
L 114.097105 157.056 
L 115.448216 154.368 
L 118.202182 149.936533 
L 118.854068 148.992 
L 121.088 146.099345 
L 123.973818 142.8684 
L 126.859636 140.031138 
L 129.745455 137.5032 
L 132.631273 135.22272 
L 135.953243 132.864 
L 141.288727 129.569224 
L 145.135219 127.488 
L 150.850122 124.8 
L 155.717818 122.842358 
L 158.603636 121.79784 
L 164.375273 119.98344 
L 170.146909 118.4848 
L 175.918545 117.2688 
L 181.690182 116.328218 
L 187.461818 115.656218 
L 193.233455 115.228582 
L 199.005091 115.045309 
L 204.776727 115.1064 
L 210.548364 115.411855 
L 216.32 115.961673 
L 222.091636 116.7568 
L 227.863273 117.8448 
L 234.518691 119.424 
L 239.406545 120.85704 
L 245.178182 122.842358 
L 250.949818 125.1976 
L 256.721455 127.988047 
L 260.661971 130.176 
L 265.378909 133.16192 
L 268.706618 135.552 
L 272.036492 138.24 
L 274.999228 140.928 
L 277.63562 143.616 
L 279.980634 146.304 
L 282.693818 149.936533 
L 283.855609 151.68 
L 285.579636 154.6224 
L 286.798895 157.056 
L 288.465455 161.17536 
L 288.900655 162.432 
L 289.645382 165.12 
L 290.203927 167.808 
L 290.576291 170.496 
L 290.762473 173.184 
L 290.762473 175.872 
L 290.576291 178.56 
L 290.203927 181.248 
L 289.645382 183.936 
L 288.465455 187.88064 
L 287.953222 189.312 
L 286.798895 192 
L 285.447784 194.688 
L 282.693818 199.119467 
L 282.041932 200.064 
L 279.808 202.956655 
L 276.922182 206.1876 
L 274.036364 209.024862 
L 271.150545 211.5528 
L 268.264727 213.83328 
L 264.942757 216.192 
L 259.607273 219.486776 
L 255.760781 221.568 
L 250.045878 224.256 
L 245.178182 226.213642 
L 242.292364 227.25816 
L 236.520727 229.07256 
L 230.749091 230.5712 
L 224.977455 231.7872 
L 219.205818 232.727782 
L 213.434182 233.399782 
L 207.662545 233.827418 
L 201.890909 234.010691 
L 196.119273 233.9496 
L 190.347636 233.644145 
L 184.576 233.094327 
L 181.690182 232.727782 
L 181.690182 232.727782 
" style="fill:none;stroke:#00df90;stroke-width:1.5;"/>
   </g>
   <g id="LineCollection_3">
    <path clip-path="url(#p82ef81614e)" d="M 173.032727 256.716852 
L 167.261091 255.78288 
L 161.489455 254.66288 
L 155.717818 253.347807 
L 149.946182 251.818428 
L 144.174545 250.0668 
L 138.402909 248.085867 
L 132.423855 245.76 
L 126.335194 243.072 
L 120.910213 240.384 
L 115.316364 237.270887 
L 109.544727 233.6472 
L 106.658909 231.6624 
L 103.773091 229.54632 
L 100.497687 226.944 
L 97.382206 224.256 
L 94.513124 221.568 
L 91.870989 218.88 
L 89.344 216.07776 
L 86.458182 212.5176 
L 83.572364 208.513108 
L 83.310176 208.128 
L 80.686545 203.818036 
L 80.087051 202.752 
L 77.800727 198.0816 
L 77.483623 197.376 
L 76.40983 194.688 
L 74.914909 190.1464 
L 74.670598 189.312 
L 74.014731 186.624 
L 73.490036 183.936 
L 73.096516 181.248 
L 72.834169 178.56 
L 72.702995 175.872 
L 72.702995 173.184 
L 72.834169 170.496 
L 73.096516 167.808 
L 73.490036 165.12 
L 74.014731 162.432 
L 74.914909 158.9096 
L 75.470261 157.056 
L 76.40983 154.368 
L 77.800727 150.9744 
L 78.712852 148.992 
L 80.686545 145.237964 
L 81.620917 143.616 
L 83.572364 140.542892 
L 86.458182 136.5384 
L 87.218484 135.552 
L 89.440827 132.864 
L 92.229818 129.802447 
L 95.115636 126.9112 
L 98.001455 124.253558 
L 100.887273 121.79448 
L 103.884588 119.424 
L 109.544727 115.4088 
L 112.430545 113.538157 
L 118.202182 110.1434 
L 123.973818 107.127744 
L 129.745455 104.447446 
L 135.517091 102.065244 
L 141.288727 99.9492 
L 147.585422 97.92 
L 152.832 96.44971 
L 158.603636 95.02032 
L 164.375273 93.81072 
L 171.669178 92.544 
L 175.918545 91.948955 
L 181.690182 91.298632 
L 187.461818 90.821729 
L 193.233455 90.518245 
L 199.005091 90.388181 
L 204.776727 90.431535 
L 210.548364 90.64831 
L 216.32 91.038503 
L 222.091636 91.602116 
L 229.226822 92.544 
L 233.634909 93.27312 
L 239.406545 94.39312 
L 245.178182 95.708193 
L 250.949818 97.237572 
L 256.721455 98.9892 
L 262.493091 100.970133 
L 268.472145 103.296 
L 274.560806 105.984 
L 279.985787 108.672 
L 285.579636 111.785113 
L 291.351273 115.4088 
L 294.237091 117.3936 
L 297.122909 119.50968 
L 300.398313 122.112 
L 303.513794 124.8 
L 306.382876 127.488 
L 309.025011 130.176 
L 311.552 132.97824 
L 314.437818 136.5384 
L 317.323636 140.542892 
L 317.585824 140.928 
L 320.209455 145.237964 
L 320.808949 146.304 
L 323.095273 150.9744 
L 323.412377 151.68 
L 324.48617 154.368 
L 325.981091 158.9096 
L 326.225402 159.744 
L 326.881269 162.432 
L 327.405964 165.12 
L 327.799484 167.808 
L 328.061831 170.496 
L 328.193005 173.184 
L 328.193005 175.872 
L 328.061831 178.56 
L 327.799484 181.248 
L 327.405964 183.936 
L 326.881269 186.624 
L 325.981091 190.1464 
L 325.425739 192 
L 324.48617 194.688 
L 323.095273 198.0816 
L 322.183148 200.064 
L 320.209455 203.818036 
L 319.275083 205.44 
L 317.323636 208.513108 
L 314.437818 212.5176 
L 313.677516 213.504 
L 311.455173 216.192 
L 308.666182 219.253553 
L 305.780364 222.1448 
L 302.894545 224.802442 
L 300.008727 227.26152 
L 297.011412 229.632 
L 291.351273 233.6472 
L 288.465455 235.517843 
L 282.693818 238.9126 
L 276.922182 241.928256 
L 271.150545 244.608554 
L 265.378909 246.990756 
L 259.607273 249.1068 
L 253.310578 251.136 
L 248.064 252.60629 
L 242.292364 254.03568 
L 236.520727 255.24528 
L 229.226822 256.512 
L 224.977455 257.107045 
L 219.205818 257.757368 
L 213.434182 258.234271 
L 207.662545 258.537755 
L 201.890909 258.667819 
L 196.119273 258.624465 
L 190.347636 258.40769 
L 184.576 258.017497 
L 178.804364 257.453884 
L 173.032727 256.716852 
L 173.032727 256.716852 
" style="fill:none;stroke:#00bfa0;stroke-width:1.5;"/>
   </g>
   <g id="LineCollection_4">
    <path clip-path="url(#p82ef81614e)" d="M 343.296 216.5931 
L 339.6752 221.568 
L 337.510549 224.256 
L 334.638545 227.53368 
L 331.752727 230.5776 
L 328.866909 233.405891 
L 325.981091 236.046678 
L 323.095273 238.5234 
L 320.209455 240.855744 
L 314.437818 245.128062 
L 311.552 247.0928 
L 308.666182 248.9652 
L 302.894545 252.423228 
L 297.122909 255.56112 
L 291.351273 258.409858 
L 285.579636 260.99655 
L 279.808 263.345018 
L 274.036364 265.476282 
L 268.264727 267.40896 
L 259.607273 269.94336 
L 253.835636 271.3996 
L 248.064 272.704476 
L 239.406545 274.33907 
L 233.051187 275.328 
L 224.977455 276.310358 
L 216.32 277.053095 
L 207.662545 277.477516 
L 199.005091 277.583621 
L 190.347636 277.371411 
L 181.690182 276.840884 
L 173.032727 275.992042 
L 167.261091 275.247178 
L 158.603636 273.83053 
L 152.530687 272.64 
L 144.174545 270.690267 
L 138.402909 269.13696 
L 132.177358 267.264 
L 124.331771 264.576 
L 121.088 263.345018 
L 115.316364 260.99655 
L 109.544727 258.409858 
L 103.773091 255.56112 
L 98.001455 252.423228 
L 92.229818 248.9652 
L 87.362775 245.76 
L 83.572364 243.059904 
L 77.800727 238.5234 
L 73.749104 235.008 
L 69.143273 230.5776 
L 65.718666 226.944 
L 63.371636 224.2392 
L 60.485818 220.601506 
L 57.6 216.5931 
L 57.6 216.5931 
" style="fill:none;stroke:#009fb0;stroke-width:1.5;"/>
    <path clip-path="url(#p82ef81614e)" d="M 57.6 132.4629 
L 61.2208 127.488 
L 63.385451 124.8 
L 66.257455 121.52232 
L 69.143273 118.4784 
L 72.029091 115.650109 
L 74.914909 113.009322 
L 77.800727 110.5326 
L 80.686545 108.200256 
L 86.458182 103.927938 
L 89.344 101.9632 
L 92.229818 100.0908 
L 98.001455 96.632772 
L 103.773091 93.49488 
L 109.544727 90.646142 
L 115.316364 88.05945 
L 121.088 85.710982 
L 126.859636 83.579718 
L 132.631273 81.64704 
L 141.288727 79.11264 
L 147.060364 77.6564 
L 152.832 76.351524 
L 161.489455 74.71693 
L 167.844813 73.728 
L 175.918545 72.745642 
L 184.576 72.002905 
L 193.233455 71.578484 
L 201.890909 71.472379 
L 210.548364 71.684589 
L 219.205818 72.215116 
L 227.863273 73.063958 
L 233.634909 73.808822 
L 242.292364 75.22547 
L 248.365313 76.416 
L 256.721455 78.365733 
L 262.493091 79.91904 
L 268.718642 81.792 
L 276.564229 84.48 
L 279.808 85.710982 
L 285.579636 88.05945 
L 291.351273 90.646142 
L 297.122909 93.49488 
L 302.894545 96.632772 
L 308.666182 100.0908 
L 313.533225 103.296 
L 317.323636 105.996096 
L 323.095273 110.5326 
L 327.146896 114.048 
L 331.752727 118.4784 
L 335.177334 122.112 
L 337.524364 124.8168 
L 340.410182 128.454494 
L 343.296 132.4629 
L 343.296 132.4629 
" style="fill:none;stroke:#009fb0;stroke-width:1.5;"/>
   </g>
   <g id="LineCollection_5">
    <path clip-path="url(#p82ef81614e)" d="M 343.296 247.393956 
L 338.716267 251.136 
L 334.638545 254.21936 
L 328.866909 258.238606 
L 323.095273 261.9216 
L 317.323636 265.280612 
L 311.552 268.37088 
L 305.780364 271.2148 
L 300.008727 273.832346 
L 294.237091 276.241389 
L 288.465455 278.457969 
L 282.057392 280.704 
L 274.036364 283.21812 
L 268.264727 284.828605 
L 262.493091 286.2984 
L 253.835636 288.2184 
L 248.064 289.325135 
L 239.406545 290.731647 
L 230.749091 291.847745 
L 222.091636 292.672473 
L 213.434182 293.222291 
L 204.776727 293.4972 
L 196.119273 293.4972 
L 187.461818 293.222291 
L 178.804364 292.672473 
L 170.146909 291.847745 
L 161.489455 290.731647 
L 152.832 289.325135 
L 147.060364 288.2184 
L 138.402909 286.2984 
L 132.631273 284.828605 
L 126.859636 283.21812 
L 118.202182 280.4912 
L 111.236655 278.016 
L 103.773091 275.067373 
L 98.001455 272.5588 
L 92.229818 269.83008 
L 86.458182 266.861788 
L 80.686545 263.632145 
L 74.914909 260.11665 
L 69.475142 256.512 
L 65.715596 253.824 
L 60.485818 249.7836 
L 57.6 247.393956 
L 57.6 247.393956 
" style="fill:none;stroke:#007fc0;stroke-width:1.5;"/>
    <path clip-path="url(#p82ef81614e)" d="M 57.6 101.662044 
L 62.179733 97.92 
L 66.257455 94.83664 
L 72.029091 90.817394 
L 77.800727 87.1344 
L 83.572364 83.775388 
L 89.344 80.68512 
L 95.115636 77.8412 
L 100.887273 75.223654 
L 106.658909 72.814611 
L 112.430545 70.598031 
L 118.838608 68.352 
L 126.859636 65.83788 
L 132.631273 64.227395 
L 138.402909 62.7576 
L 147.060364 60.8376 
L 152.832 59.730865 
L 161.489455 58.324353 
L 170.146909 57.208255 
L 178.804364 56.383527 
L 187.461818 55.833709 
L 196.119273 55.5588 
L 204.776727 55.5588 
L 213.434182 55.833709 
L 222.091636 56.383527 
L 230.749091 57.208255 
L 239.406545 58.324353 
L 248.064 59.730865 
L 253.835636 60.8376 
L 262.493091 62.7576 
L 268.264727 64.227395 
L 274.036364 65.83788 
L 282.693818 68.5648 
L 289.659345 71.04 
L 297.122909 73.988627 
L 302.894545 76.4972 
L 308.666182 79.22592 
L 314.437818 82.194212 
L 320.209455 85.423855 
L 325.981091 88.93935 
L 331.420858 92.544 
L 335.180404 95.232 
L 340.410182 99.2724 
L 343.296 101.662044 
L 343.296 101.662044 
" style="fill:none;stroke:#007fc0;stroke-width:1.5;"/>
   </g>
   <g id="LineCollection_6">
    <path clip-path="url(#p82ef81614e)" d="M 343.296 268.6032 
L 336.902685 272.64 
L 331.752727 275.641895 
L 325.981091 278.769846 
L 320.209455 281.6742 
L 314.437818 284.371317 
L 308.666182 286.876 
L 302.894545 289.201674 
L 294.237091 292.368545 
L 285.579636 295.1856 
L 276.922182 297.675652 
L 268.264727 299.859574 
L 259.607273 301.746894 
L 250.949818 303.3525 
L 242.292364 304.6965 
L 233.634909 305.770286 
L 224.977455 306.593143 
L 216.32 307.169143 
L 207.662545 307.498286 
L 199.005091 307.580571 
L 190.347636 307.416 
L 181.690182 307.004571 
L 173.032727 306.346286 
L 164.375273 305.441143 
L 155.717818 304.2765 
L 147.060364 302.8485 
L 138.402909 301.146383 
L 129.745455 299.165739 
L 120.894753 296.832 
L 111.976727 294.144 
L 103.773091 291.358326 
L 95.115636 288.06 
L 89.344 285.649756 
L 83.572364 283.0518 
L 77.800727 280.251692 
L 72.029091 277.233474 
L 66.257455 273.979459 
L 60.485818 270.47 
L 57.6 268.6032 
L 57.6 268.6032 
" style="fill:none;stroke:#005fd0;stroke-width:1.5;"/>
    <path clip-path="url(#p82ef81614e)" d="M 57.6 80.4528 
L 63.993315 76.416 
L 69.143273 73.414105 
L 74.914909 70.286154 
L 80.686545 67.3818 
L 86.458182 64.684683 
L 92.229818 62.18 
L 98.001455 59.854326 
L 106.658909 56.687455 
L 115.316364 53.8704 
L 123.973818 51.380348 
L 132.631273 49.196426 
L 141.288727 47.309106 
L 149.946182 45.7035 
L 158.603636 44.3595 
L 167.261091 43.285714 
L 175.918545 42.462857 
L 184.576 41.886857 
L 193.233455 41.557714 
L 201.890909 41.475429 
L 210.548364 41.64 
L 219.205818 42.051429 
L 227.863273 42.709714 
L 236.520727 43.614857 
L 245.178182 44.7795 
L 253.835636 46.2075 
L 262.493091 47.909617 
L 271.150545 49.890261 
L 280.001247 52.224 
L 288.919273 54.912 
L 297.122909 57.697674 
L 305.780364 60.996 
L 311.552 63.406244 
L 317.323636 66.0042 
L 323.095273 68.804308 
L 328.866909 71.822526 
L 334.638545 75.076541 
L 340.410182 78.586 
L 343.296 80.4528 
L 343.296 80.4528 
" style="fill:none;stroke:#005fd0;stroke-width:1.5;"/>
   </g>
   <g id="LineCollection_7">
    <path clip-path="url(#p82ef81614e)" d="M 110.110255 307.584 
L 109.544727 307.417371 
L 106.658909 306.539657 
L 103.773091 305.634514 
L 101.487778 304.896 
L 100.887273 304.6979 
L 98.001455 303.7179 
L 95.115636 302.7099 
L 93.717574 302.208 
L 92.229818 301.662536 
L 89.344 300.575898 
L 86.611722 299.52 
L 86.458182 299.459374 
L 83.572364 298.290678 
L 80.686545 297.092765 
L 80.073309 296.832 
L 77.800727 295.84416 
L 74.914909 294.559893 
L 74.001613 294.144 
L 72.029091 293.225345 
L 69.143273 291.8508 
L 68.332421 291.456 
L 66.257455 290.422214 
L 63.371636 288.953191 
L 63.015418 288.768 
L 60.485818 287.4216 
L 58.016677 286.08 
L 57.6 285.848078 
" style="fill:none;stroke:#003fe0;stroke-width:1.5;"/>
    <path clip-path="url(#p82ef81614e)" d="M 343.296 285.848078 
L 342.879323 286.08 
L 340.410182 287.4216 
L 337.880582 288.768 
L 337.524364 288.953191 
L 334.638545 290.422214 
L 332.563579 291.456 
L 331.752727 291.8508 
L 328.866909 293.225345 
L 326.894387 294.144 
L 325.981091 294.559893 
L 323.095273 295.84416 
L 320.822691 296.832 
L 320.209455 297.092765 
L 317.323636 298.290678 
L 314.437818 299.459374 
L 314.284278 299.52 
L 311.552 300.575898 
L 308.666182 301.662536 
L 307.178426 302.208 
L 305.780364 302.7099 
L 302.894545 303.7179 
L 300.008727 304.6979 
L 299.408222 304.896 
L 297.122909 305.634514 
L 294.237091 306.539657 
L 291.351273 307.417371 
L 290.785745 307.584 
" style="fill:none;stroke:#003fe0;stroke-width:1.5;"/>
    <path clip-path="url(#p82ef81614e)" d="M 57.6 63.207922 
L 58.016677 62.976 
L 60.485818 61.6344 
L 63.015418 60.288 
L 63.371636 60.102809 
L 66.257455 58.633786 
L 68.332421 57.6 
L 69.143273 57.2052 
L 72.029091 55.830655 
L 74.001613 54.912 
L 74.914909 54.496107 
L 77.800727 53.21184 
L 80.073309 52.224 
L 80.686545 51.963235 
L 83.572364 50.765322 
L 86.458182 49.596626 
L 86.611722 49.536 
L 89.344 48.480102 
L 92.229818 47.393464 
L 93.717574 46.848 
L 95.115636 46.3461 
L 98.001455 45.3381 
L 100.887273 44.3581 
L 101.487778 44.16 
L 103.773091 43.421486 
L 106.658909 42.516343 
L 109.544727 41.638629 
L 110.110255 41.472 
" style="fill:none;stroke:#003fe0;stroke-width:1.5;"/>
    <path clip-path="url(#p82ef81614e)" d="M 290.785745 41.472 
L 291.351273 41.638629 
L 294.237091 42.516343 
L 297.122909 43.421486 
L 299.408222 44.16 
L 300.008727 44.3581 
L 302.894545 45.3381 
L 305.780364 46.3461 
L 307.178426 46.848 
L 308.666182 47.393464 
L 311.552 48.480102 
L 314.284278 49.536 
L 314.437818 49.596626 
L 317.323636 50.765322 
L 320.209455 51.963235 
L 320.822691 52.224 
L 323.095273 53.21184 
L 325.981091 54.496107 
L 326.894387 54.912 
L 328.866909 55.830655 
L 331.752727 57.2052 
L 332.563579 57.6 
L 334.638545 58.633786 
L 337.524364 60.102809 
L 337.880582 60.288 
L 340.410182 61.6344 
L 342.879323 62.976 
L 343.296 63.207922 
" style="fill:none;stroke:#003fe0;stroke-width:1.5;"/>
   </g>
   <g id="LineCollection_8">
    <path clip-path="url(#p82ef81614e)" d="M 72.686598 307.584 
L 72.029091 307.309029 
L 69.143273 306.074743 
L 66.447228 304.896 
L 66.257455 304.8113 
L 63.371636 303.4953 
L 60.607564 302.208 
L 60.485818 302.150094 
L 57.6 300.748902 
" style="fill:none;stroke:#001ff0;stroke-width:1.5;"/>
    <path clip-path="url(#p82ef81614e)" d="M 343.296 300.748902 
L 340.410182 302.150094 
L 340.288436 302.208 
L 337.524364 303.4953 
L 334.638545 304.8113 
L 334.448772 304.896 
L 331.752727 306.074743 
L 328.866909 307.309029 
L 328.209402 307.584 
" style="fill:none;stroke:#001ff0;stroke-width:1.5;"/>
    <path clip-path="url(#p82ef81614e)" d="M 57.6 48.307098 
L 60.485818 46.905906 
L 60.607564 46.848 
L 63.371636 45.5607 
L 66.257455 44.2447 
L 66.447228 44.16 
L 69.143273 42.981257 
L 72.029091 41.746971 
L 72.686598 41.472 
" style="fill:none;stroke:#001ff0;stroke-width:1.5;"/>
    <path clip-path="url(#p82ef81614e)" d="M 328.209402 41.472 
L 328.866909 41.746971 
L 331.752727 42.981257 
L 334.448772 44.16 
L 334.638545 44.2447 
L 337.524364 45.5607 
L 340.288436 46.848 
L 340.410182 46.905906 
L 343.296 48.307098 
" style="fill:none;stroke:#001ff0;stroke-width:1.5;"/>
   </g>
   <g id="LineCollection_9"/>
   <g id="patch_3">
    <path d="M 57.6 307.584 
L 57.6 41.472 
" style="fill:none;stroke:#000000;stroke-linecap:square;stroke-linejoin:miter;stroke-width:0.8;"/>
   </g>
   <g id="patch_4">
    <path d="M 343.296 307.584 
L 343.296 41.472 
" style="fill:none;stroke:#000000;stroke-linecap:square;stroke-linejoin:miter;stroke-width:0.8;"/>
   </g>
   <g id="patch_5">
    <path d="M 57.6 307.584 
L 343.296 307.584 
" style="fill:none;stroke:#000000;stroke-linecap:square;stroke-linejoin:miter;stroke-width:0.8;"/>
   </g>
   <g id="patch_6">
    <path d="M 57.6 41.472 
L 343.296 41.472 
" style="fill:none;stroke:#000000;stroke-linecap:square;stroke-linejoin:miter;stroke-width:0.8;"/>
   </g>
  </g>
  <g id="axes_2">
   <g id="patch_7">
    <path clip-path="url(#p2f14458935)" d="M 361.152 307.584 
L 361.152 274.32 
L 361.152 74.736 
L 361.152 41.472 
L 374.4576 41.472 
L 374.4576 74.736 
L 374.4576 274.32 
L 374.4576 307.584 
z
" style="fill:#ffffff;stroke:#ffffff;stroke-linejoin:miter;stroke-width:0.01;"/>
   </g>
   <g id="matplotlib.axis_3"/>
   <g id="matplotlib.axis_4">
    <g id="ytick_10">
     <g id="line2d_19">
      <defs>
       <path d="M 0 0 
L 3.5 0 
" id="me9e5d30e96" style="stroke:#000000;stroke-width:0.8;"/>
      </defs>
      <g>
       <use style="stroke:#000000;stroke-width:0.8;" x="374.4576" xlink:href="#me9e5d30e96" y="307.584"/>
      </g>
     </g>
     <g id="text_19">
      <!-- 0 -->
      <g transform="translate(381.4576 311.383219)scale(0.1 -0.1)">
       <use xlink:href="#DejaVuSans-48"/>
      </g>
     </g>
    </g>
    <g id="ytick_11">
     <g id="line2d_20">
      <g>
       <use style="stroke:#000000;stroke-width:0.8;" x="374.4576" xlink:href="#me9e5d30e96" y="274.32"/>
      </g>
     </g>
     <g id="text_20">
      <!-- 40 -->
      <defs>
       <path d="M 37.796875 64.3125 
L 12.890625 25.390625 
L 37.796875 25.390625 
z
M 35.203125 72.90625 
L 47.609375 72.90625 
L 47.609375 25.390625 
L 58.015625 25.390625 
L 58.015625 17.1875 
L 47.609375 17.1875 
L 47.609375 0 
L 37.796875 0 
L 37.796875 17.1875 
L 4.890625 17.1875 
L 4.890625 26.703125 
z
" id="DejaVuSans-52"/>
      </defs>
      <g transform="translate(381.4576 278.119219)scale(0.1 -0.1)">
       <use xlink:href="#DejaVuSans-52"/>
       <use x="63.623047" xlink:href="#DejaVuSans-48"/>
      </g>
     </g>
    </g>
    <g id="ytick_12">
     <g id="line2d_21">
      <g>
       <use style="stroke:#000000;stroke-width:0.8;" x="374.4576" xlink:href="#me9e5d30e96" y="241.056"/>
      </g>
     </g>
     <g id="text_21">
      <!-- 80 -->
      <defs>
       <path d="M 31.78125 34.625 
Q 24.75 34.625 20.71875 30.859375 
Q 16.703125 27.09375 16.703125 20.515625 
Q 16.703125 13.921875 20.71875 10.15625 
Q 24.75 6.390625 31.78125 6.390625 
Q 38.8125 6.390625 42.859375 10.171875 
Q 46.921875 13.96875 46.921875 20.515625 
Q 46.921875 27.09375 42.890625 30.859375 
Q 38.875 34.625 31.78125 34.625 
z
M 21.921875 38.8125 
Q 15.578125 40.375 12.03125 44.71875 
Q 8.5 49.078125 8.5 55.328125 
Q 8.5 64.0625 14.71875 69.140625 
Q 20.953125 74.21875 31.78125 74.21875 
Q 42.671875 74.21875 48.875 69.140625 
Q 55.078125 64.0625 55.078125 55.328125 
Q 55.078125 49.078125 51.53125 44.71875 
Q 48 40.375 41.703125 38.8125 
Q 48.828125 37.15625 52.796875 32.3125 
Q 56.78125 27.484375 56.78125 20.515625 
Q 56.78125 9.90625 50.3125 4.234375 
Q 43.84375 -1.421875 31.78125 -1.421875 
Q 19.734375 -1.421875 13.25 4.234375 
Q 6.78125 9.90625 6.78125 20.515625 
Q 6.78125 27.484375 10.78125 32.3125 
Q 14.796875 37.15625 21.921875 38.8125 
z
M 18.3125 54.390625 
Q 18.3125 48.734375 21.84375 45.5625 
Q 25.390625 42.390625 31.78125 42.390625 
Q 38.140625 42.390625 41.71875 45.5625 
Q 45.3125 48.734375 45.3125 54.390625 
Q 45.3125 60.0625 41.71875 63.234375 
Q 38.140625 66.40625 31.78125 66.40625 
Q 25.390625 66.40625 21.84375 63.234375 
Q 18.3125 60.0625 18.3125 54.390625 
z
" id="DejaVuSans-56"/>
      </defs>
      <g transform="translate(381.4576 244.855219)scale(0.1 -0.1)">
       <use xlink:href="#DejaVuSans-56"/>
       <use x="63.623047" xlink:href="#DejaVuSans-48"/>
      </g>
     </g>
    </g>
    <g id="ytick_13">
     <g id="line2d_22">
      <g>
       <use style="stroke:#000000;stroke-width:0.8;" x="374.4576" xlink:href="#me9e5d30e96" y="207.792"/>
      </g>
     </g>
     <g id="text_22">
      <!-- 120 -->
      <g transform="translate(381.4576 211.591219)scale(0.1 -0.1)">
       <use xlink:href="#DejaVuSans-49"/>
       <use x="63.623047" xlink:href="#DejaVuSans-50"/>
       <use x="127.246094" xlink:href="#DejaVuSans-48"/>
      </g>
     </g>
    </g>
    <g id="ytick_14">
     <g id="line2d_23">
      <g>
       <use style="stroke:#000000;stroke-width:0.8;" x="374.4576" xlink:href="#me9e5d30e96" y="174.528"/>
      </g>
     </g>
     <g id="text_23">
      <!-- 160 -->
      <defs>
       <path d="M 33.015625 40.375 
Q 26.375 40.375 22.484375 35.828125 
Q 18.609375 31.296875 18.609375 23.390625 
Q 18.609375 15.53125 22.484375 10.953125 
Q 26.375 6.390625 33.015625 6.390625 
Q 39.65625 6.390625 43.53125 10.953125 
Q 47.40625 15.53125 47.40625 23.390625 
Q 47.40625 31.296875 43.53125 35.828125 
Q 39.65625 40.375 33.015625 40.375 
z
M 52.59375 71.296875 
L 52.59375 62.3125 
Q 48.875 64.0625 45.09375 64.984375 
Q 41.3125 65.921875 37.59375 65.921875 
Q 27.828125 65.921875 22.671875 59.328125 
Q 17.53125 52.734375 16.796875 39.40625 
Q 19.671875 43.65625 24.015625 45.921875 
Q 28.375 48.1875 33.59375 48.1875 
Q 44.578125 48.1875 50.953125 41.515625 
Q 57.328125 34.859375 57.328125 23.390625 
Q 57.328125 12.15625 50.6875 5.359375 
Q 44.046875 -1.421875 33.015625 -1.421875 
Q 20.359375 -1.421875 13.671875 8.265625 
Q 6.984375 17.96875 6.984375 36.375 
Q 6.984375 53.65625 15.1875 63.9375 
Q 23.390625 74.21875 37.203125 74.21875 
Q 40.921875 74.21875 44.703125 73.484375 
Q 48.484375 72.75 52.59375 71.296875 
z
" id="DejaVuSans-54"/>
      </defs>
      <g transform="translate(381.4576 178.327219)scale(0.1 -0.1)">
       <use xlink:href="#DejaVuSans-49"/>
       <use x="63.623047" xlink:href="#DejaVuSans-54"/>
       <use x="127.246094" xlink:href="#DejaVuSans-48"/>
      </g>
     </g>
    </g>
    <g id="ytick_15">
     <g id="line2d_24">
      <g>
       <use style="stroke:#000000;stroke-width:0.8;" x="374.4576" xlink:href="#me9e5d30e96" y="141.264"/>
      </g>
     </g>
     <g id="text_24">
      <!-- 200 -->
      <g transform="translate(381.4576 145.063219)scale(0.1 -0.1)">
       <use xlink:href="#DejaVuSans-50"/>
       <use x="63.623047" xlink:href="#DejaVuSans-48"/>
       <use x="127.246094" xlink:href="#DejaVuSans-48"/>
      </g>
     </g>
    </g>
    <g id="ytick_16">
     <g id="line2d_25">
      <g>
       <use style="stroke:#000000;stroke-width:0.8;" x="374.4576" xlink:href="#me9e5d30e96" y="108"/>
      </g>
     </g>
     <g id="text_25">
      <!-- 240 -->
      <g transform="translate(381.4576 111.799219)scale(0.1 -0.1)">
       <use xlink:href="#DejaVuSans-50"/>
       <use x="63.623047" xlink:href="#DejaVuSans-52"/>
       <use x="127.246094" xlink:href="#DejaVuSans-48"/>
      </g>
     </g>
    </g>
    <g id="ytick_17">
     <g id="line2d_26">
      <g>
       <use style="stroke:#000000;stroke-width:0.8;" x="374.4576" xlink:href="#me9e5d30e96" y="74.736"/>
      </g>
     </g>
     <g id="text_26">
      <!-- 280 -->
      <g transform="translate(381.4576 78.535219)scale(0.1 -0.1)">
       <use xlink:href="#DejaVuSans-50"/>
       <use x="63.623047" xlink:href="#DejaVuSans-56"/>
       <use x="127.246094" xlink:href="#DejaVuSans-48"/>
      </g>
     </g>
    </g>
    <g id="ytick_18">
     <g id="line2d_27">
      <g>
       <use style="stroke:#000000;stroke-width:0.8;" x="374.4576" xlink:href="#me9e5d30e96" y="41.472"/>
      </g>
     </g>
     <g id="text_27">
      <!-- 320 -->
      <defs>
       <path d="M 40.578125 39.3125 
Q 47.65625 37.796875 51.625 33 
Q 55.609375 28.21875 55.609375 21.1875 
Q 55.609375 10.40625 48.1875 4.484375 
Q 40.765625 -1.421875 27.09375 -1.421875 
Q 22.515625 -1.421875 17.65625 -0.515625 
Q 12.796875 0.390625 7.625 2.203125 
L 7.625 11.71875 
Q 11.71875 9.328125 16.59375 8.109375 
Q 21.484375 6.890625 26.8125 6.890625 
Q 36.078125 6.890625 40.9375 10.546875 
Q 45.796875 14.203125 45.796875 21.1875 
Q 45.796875 27.640625 41.28125 31.265625 
Q 36.765625 34.90625 28.71875 34.90625 
L 20.21875 34.90625 
L 20.21875 43.015625 
L 29.109375 43.015625 
Q 36.375 43.015625 40.234375 45.921875 
Q 44.09375 48.828125 44.09375 54.296875 
Q 44.09375 59.90625 40.109375 62.90625 
Q 36.140625 65.921875 28.71875 65.921875 
Q 24.65625 65.921875 20.015625 65.03125 
Q 15.375 64.15625 9.8125 62.3125 
L 9.8125 71.09375 
Q 15.4375 72.65625 20.34375 73.4375 
Q 25.25 74.21875 29.59375 74.21875 
Q 40.828125 74.21875 47.359375 69.109375 
Q 53.90625 64.015625 53.90625 55.328125 
Q 53.90625 49.265625 50.4375 45.09375 
Q 46.96875 40.921875 40.578125 39.3125 
z
" id="DejaVuSans-51"/>
      </defs>
      <g transform="translate(381.4576 45.271219)scale(0.1 -0.1)">
       <use xlink:href="#DejaVuSans-51"/>
       <use x="63.623047" xlink:href="#DejaVuSans-50"/>
       <use x="127.246094" xlink:href="#DejaVuSans-48"/>
      </g>
     </g>
    </g>
   </g>
   <g id="LineCollection_10">
    <path clip-path="url(#p2f14458935)" d="M 361.152 307.584 
L 374.4576 307.584 
" style="fill:none;stroke:#00ff80;stroke-width:1.5;"/>
    <path clip-path="url(#p2f14458935)" d="M 361.152 274.32 
L 374.4576 274.32 
" style="fill:none;stroke:#00df90;stroke-width:1.5;"/>
    <path clip-path="url(#p2f14458935)" d="M 361.152 241.056 
L 374.4576 241.056 
" style="fill:none;stroke:#00bfa0;stroke-width:1.5;"/>
    <path clip-path="url(#p2f14458935)" d="M 361.152 207.792 
L 374.4576 207.792 
" style="fill:none;stroke:#009fb0;stroke-width:1.5;"/>
    <path clip-path="url(#p2f14458935)" d="M 361.152 174.528 
L 374.4576 174.528 
" style="fill:none;stroke:#007fc0;stroke-width:1.5;"/>
    <path clip-path="url(#p2f14458935)" d="M 361.152 141.264 
L 374.4576 141.264 
" style="fill:none;stroke:#005fd0;stroke-width:1.5;"/>
    <path clip-path="url(#p2f14458935)" d="M 361.152 108 
L 374.4576 108 
" style="fill:none;stroke:#003fe0;stroke-width:1.5;"/>
    <path clip-path="url(#p2f14458935)" d="M 361.152 74.736 
L 374.4576 74.736 
" style="fill:none;stroke:#001ff0;stroke-width:1.5;"/>
    <path clip-path="url(#p2f14458935)" d="M 361.152 41.472 
L 374.4576 41.472 
" style="fill:none;stroke:#0000ff;stroke-width:1.5;"/>
   </g>
   <g id="patch_8">
    <path d="M 361.152 307.584 
L 361.152 274.32 
L 361.152 74.736 
L 361.152 41.472 
L 374.4576 41.472 
L 374.4576 74.736 
L 374.4576 274.32 
L 374.4576 307.584 
z
" style="fill:none;stroke:#000000;stroke-linejoin:miter;stroke-width:0.8;"/>
   </g>
  </g>
 </g>
 <defs>
  <clipPath id="p82ef81614e">
   <rect height="266.112" width="285.696" x="57.6" y="41.472"/>
  </clipPath>
  <clipPath id="p2f14458935">
   <rect height="266.112" width="13.3056" x="361.152" y="41.472"/>
  </clipPath>
 </defs>
</svg>
