<?xml version="1.0" encoding="utf-8" standalone="no"?>
<!DOCTYPE svg PUBLIC "-//W3C//DTD SVG 1.1//EN"
  "http://www.w3.org/Graphics/SVG/1.1/DTD/svg11.dtd">
<!-- Created with matplotlib (https://matplotlib.org/) -->
<svg height="345.6pt" version="1.1" viewBox="0 0 460.8 345.6" width="460.8pt" xmlns="http://www.w3.org/2000/svg" xmlns:xlink="http://www.w3.org/1999/xlink">
 <defs>
  <style type="text/css">
*{stroke-linecap:butt;stroke-linejoin:round;}
  </style>
 </defs>
 <g id="figure_1">
  <g id="patch_1">
   <path d="M 0 345.6 
L 460.8 345.6 
L 460.8 0 
L 0 0 
z
" style="fill:#ffffff;"/>
  </g>
  <g id="axes_1">
   <g id="patch_2">
    <path d="M 57.6 307.584 
L 343.296 307.584 
L 343.296 41.472 
L 57.6 41.472 
z
" style="fill:#ffffff;"/>
   </g>
   <g id="matplotlib.axis_1">
    <g id="xtick_1">
     <g id="line2d_1">
      <defs>
       <path d="M 0 0 
L 0 3.5 
" id="m281d7be98a" style="stroke:#000000;stroke-width:0.8;"/>
      </defs>
      <g>
       <use style="stroke:#000000;stroke-width:0.8;" x="57.6" xlink:href="#m281d7be98a" y="307.584"/>
      </g>
     </g>
     <g id="text_1">
      <!-- −2.0 -->
      <defs>
       <path d="M 10.59375 35.5 
L 73.1875 35.5 
L 73.1875 27.203125 
L 10.59375 27.203125 
z
" id="DejaVuSans-8722"/>
       <path d="M 19.1875 8.296875 
L 53.609375 8.296875 
L 53.609375 0 
L 7.328125 0 
L 7.328125 8.296875 
Q 12.9375 14.109375 22.625 23.890625 
Q 32.328125 33.6875 34.8125 36.53125 
Q 39.546875 41.84375 41.421875 45.53125 
Q 43.3125 49.21875 43.3125 52.78125 
Q 43.3125 58.59375 39.234375 62.25 
Q 35.15625 65.921875 28.609375 65.921875 
Q 23.96875 65.921875 18.8125 64.3125 
Q 13.671875 62.703125 7.8125 59.421875 
L 7.8125 69.390625 
Q 13.765625 71.78125 18.9375 73 
Q 24.125 74.21875 28.421875 74.21875 
Q 39.75 74.21875 46.484375 68.546875 
Q 53.21875 62.890625 53.21875 53.421875 
Q 53.21875 48.921875 51.53125 44.890625 
Q 49.859375 40.875 45.40625 35.40625 
Q 44.1875 33.984375 37.640625 27.21875 
Q 31.109375 20.453125 19.1875 8.296875 
z
" id="DejaVuSans-50"/>
       <path d="M 10.6875 12.40625 
L 21 12.40625 
L 21 0 
L 10.6875 0 
z
" id="DejaVuSans-46"/>
       <path d="M 31.78125 66.40625 
Q 24.171875 66.40625 20.328125 58.90625 
Q 16.5 51.421875 16.5 36.375 
Q 16.5 21.390625 20.328125 13.890625 
Q 24.171875 6.390625 31.78125 6.390625 
Q 39.453125 6.390625 43.28125 13.890625 
Q 47.125 21.390625 47.125 36.375 
Q 47.125 51.421875 43.28125 58.90625 
Q 39.453125 66.40625 31.78125 66.40625 
z
M 31.78125 74.21875 
Q 44.046875 74.21875 50.515625 64.515625 
Q 56.984375 54.828125 56.984375 36.375 
Q 56.984375 17.96875 50.515625 8.265625 
Q 44.046875 -1.421875 31.78125 -1.421875 
Q 19.53125 -1.421875 13.0625 8.265625 
Q 6.59375 17.96875 6.59375 36.375 
Q 6.59375 54.828125 13.0625 64.515625 
Q 19.53125 74.21875 31.78125 74.21875 
z
" id="DejaVuSans-48"/>
      </defs>
      <g transform="translate(45.458594 322.182437)scale(0.1 -0.1)">
       <use xlink:href="#DejaVuSans-8722"/>
       <use x="83.789062" xlink:href="#DejaVuSans-50"/>
       <use x="147.412109" xlink:href="#DejaVuSans-46"/>
       <use x="179.199219" xlink:href="#DejaVuSans-48"/>
      </g>
     </g>
    </g>
    <g id="xtick_2">
     <g id="line2d_2">
      <g>
       <use style="stroke:#000000;stroke-width:0.8;" x="93.312" xlink:href="#m281d7be98a" y="307.584"/>
      </g>
     </g>
     <g id="text_2">
      <!-- −1.5 -->
      <defs>
       <path d="M 12.40625 8.296875 
L 28.515625 8.296875 
L 28.515625 63.921875 
L 10.984375 60.40625 
L 10.984375 69.390625 
L 28.421875 72.90625 
L 38.28125 72.90625 
L 38.28125 8.296875 
L 54.390625 8.296875 
L 54.390625 0 
L 12.40625 0 
z
" id="DejaVuSans-49"/>
       <path d="M 10.796875 72.90625 
L 49.515625 72.90625 
L 49.515625 64.59375 
L 19.828125 64.59375 
L 19.828125 46.734375 
Q 21.96875 47.46875 24.109375 47.828125 
Q 26.265625 48.1875 28.421875 48.1875 
Q 40.625 48.1875 47.75 41.5 
Q 54.890625 34.8125 54.890625 23.390625 
Q 54.890625 11.625 47.5625 5.09375 
Q 40.234375 -1.421875 26.90625 -1.421875 
Q 22.3125 -1.421875 17.546875 -0.640625 
Q 12.796875 0.140625 7.71875 1.703125 
L 7.71875 11.625 
Q 12.109375 9.234375 16.796875 8.0625 
Q 21.484375 6.890625 26.703125 6.890625 
Q 35.15625 6.890625 40.078125 11.328125 
Q 45.015625 15.765625 45.015625 23.390625 
Q 45.015625 31 40.078125 35.4375 
Q 35.15625 39.890625 26.703125 39.890625 
Q 22.75 39.890625 18.8125 39.015625 
Q 14.890625 38.140625 10.796875 36.28125 
z
" id="DejaVuSans-53"/>
      </defs>
      <g transform="translate(81.170594 322.182437)scale(0.1 -0.1)">
       <use xlink:href="#DejaVuSans-8722"/>
       <use x="83.789062" xlink:href="#DejaVuSans-49"/>
       <use x="147.412109" xlink:href="#DejaVuSans-46"/>
       <use x="179.199219" xlink:href="#DejaVuSans-53"/>
      </g>
     </g>
    </g>
    <g id="xtick_3">
     <g id="line2d_3">
      <g>
       <use style="stroke:#000000;stroke-width:0.8;" x="129.024" xlink:href="#m281d7be98a" y="307.584"/>
      </g>
     </g>
     <g id="text_3">
      <!-- −1.0 -->
      <g transform="translate(116.882594 322.182437)scale(0.1 -0.1)">
       <use xlink:href="#DejaVuSans-8722"/>
       <use x="83.789062" xlink:href="#DejaVuSans-49"/>
       <use x="147.412109" xlink:href="#DejaVuSans-46"/>
       <use x="179.199219" xlink:href="#DejaVuSans-48"/>
      </g>
     </g>
    </g>
    <g id="xtick_4">
     <g id="line2d_4">
      <g>
       <use style="stroke:#000000;stroke-width:0.8;" x="164.736" xlink:href="#m281d7be98a" y="307.584"/>
      </g>
     </g>
     <g id="text_4">
      <!-- −0.5 -->
      <g transform="translate(152.594594 322.182437)scale(0.1 -0.1)">
       <use xlink:href="#DejaVuSans-8722"/>
       <use x="83.789062" xlink:href="#DejaVuSans-48"/>
       <use x="147.412109" xlink:href="#DejaVuSans-46"/>
       <use x="179.199219" xlink:href="#DejaVuSans-53"/>
      </g>
     </g>
    </g>
    <g id="xtick_5">
     <g id="line2d_5">
      <g>
       <use style="stroke:#000000;stroke-width:0.8;" x="200.448" xlink:href="#m281d7be98a" y="307.584"/>
      </g>
     </g>
     <g id="text_5">
      <!-- 0.0 -->
      <g transform="translate(192.496438 322.182437)scale(0.1 -0.1)">
       <use xlink:href="#DejaVuSans-48"/>
       <use x="63.623047" xlink:href="#DejaVuSans-46"/>
       <use x="95.410156" xlink:href="#DejaVuSans-48"/>
      </g>
     </g>
    </g>
    <g id="xtick_6">
     <g id="line2d_6">
      <g>
       <use style="stroke:#000000;stroke-width:0.8;" x="236.16" xlink:href="#m281d7be98a" y="307.584"/>
      </g>
     </g>
     <g id="text_6">
      <!-- 0.5 -->
      <g transform="translate(228.208438 322.182437)scale(0.1 -0.1)">
       <use xlink:href="#DejaVuSans-48"/>
       <use x="63.623047" xlink:href="#DejaVuSans-46"/>
       <use x="95.410156" xlink:href="#DejaVuSans-53"/>
      </g>
     </g>
    </g>
    <g id="xtick_7">
     <g id="line2d_7">
      <g>
       <use style="stroke:#000000;stroke-width:0.8;" x="271.872" xlink:href="#m281d7be98a" y="307.584"/>
      </g>
     </g>
     <g id="text_7">
      <!-- 1.0 -->
      <g transform="translate(263.920437 322.182437)scale(0.1 -0.1)">
       <use xlink:href="#DejaVuSans-49"/>
       <use x="63.623047" xlink:href="#DejaVuSans-46"/>
       <use x="95.410156" xlink:href="#DejaVuSans-48"/>
      </g>
     </g>
    </g>
    <g id="xtick_8">
     <g id="line2d_8">
      <g>
       <use style="stroke:#000000;stroke-width:0.8;" x="307.584" xlink:href="#m281d7be98a" y="307.584"/>
      </g>
     </g>
     <g id="text_8">
      <!-- 1.5 -->
      <g transform="translate(299.632437 322.182437)scale(0.1 -0.1)">
       <use xlink:href="#DejaVuSans-49"/>
       <use x="63.623047" xlink:href="#DejaVuSans-46"/>
       <use x="95.410156" xlink:href="#DejaVuSans-53"/>
      </g>
     </g>
    </g>
    <g id="xtick_9">
     <g id="line2d_9">
      <g>
       <use style="stroke:#000000;stroke-width:0.8;" x="343.296" xlink:href="#m281d7be98a" y="307.584"/>
      </g>
     </g>
     <g id="text_9">
      <!-- 2.0 -->
      <g transform="translate(335.344438 322.182437)scale(0.1 -0.1)">
       <use xlink:href="#DejaVuSans-50"/>
       <use x="63.623047" xlink:href="#DejaVuSans-46"/>
       <use x="95.410156" xlink:href="#DejaVuSans-48"/>
      </g>
     </g>
    </g>
   </g>
   <g id="matplotlib.axis_2">
    <g id="ytick_1">
     <g id="line2d_10">
      <defs>
       <path d="M 0 0 
L -3.5 0 
" id="m4a3693a358" style="stroke:#000000;stroke-width:0.8;"/>
      </defs>
      <g>
       <use style="stroke:#000000;stroke-width:0.8;" x="57.6" xlink:href="#m4a3693a358" y="307.584"/>
      </g>
     </g>
     <g id="text_10">
      <!-- −2.0 -->
      <g transform="translate(26.317187 311.383219)scale(0.1 -0.1)">
       <use xlink:href="#DejaVuSans-8722"/>
       <use x="83.789062" xlink:href="#DejaVuSans-50"/>
       <use x="147.412109" xlink:href="#DejaVuSans-46"/>
       <use x="179.199219" xlink:href="#DejaVuSans-48"/>
      </g>
     </g>
    </g>
    <g id="ytick_2">
     <g id="line2d_11">
      <g>
       <use style="stroke:#000000;stroke-width:0.8;" x="57.6" xlink:href="#m4a3693a358" y="274.32"/>
      </g>
     </g>
     <g id="text_11">
      <!-- −1.5 -->
      <g transform="translate(26.317187 278.119219)scale(0.1 -0.1)">
       <use xlink:href="#DejaVuSans-8722"/>
       <use x="83.789062" xlink:href="#DejaVuSans-49"/>
       <use x="147.412109" xlink:href="#DejaVuSans-46"/>
       <use x="179.199219" xlink:href="#DejaVuSans-53"/>
      </g>
     </g>
    </g>
    <g id="ytick_3">
     <g id="line2d_12">
      <g>
       <use style="stroke:#000000;stroke-width:0.8;" x="57.6" xlink:href="#m4a3693a358" y="241.056"/>
      </g>
     </g>
     <g id="text_12">
      <!-- −1.0 -->
      <g transform="translate(26.317187 244.855219)scale(0.1 -0.1)">
       <use xlink:href="#DejaVuSans-8722"/>
       <use x="83.789062" xlink:href="#DejaVuSans-49"/>
       <use x="147.412109" xlink:href="#DejaVuSans-46"/>
       <use x="179.199219" xlink:href="#DejaVuSans-48"/>
      </g>
     </g>
    </g>
    <g id="ytick_4">
     <g id="line2d_13">
      <g>
       <use style="stroke:#000000;stroke-width:0.8;" x="57.6" xlink:href="#m4a3693a358" y="207.792"/>
      </g>
     </g>
     <g id="text_13">
      <!-- −0.5 -->
      <g transform="translate(26.317187 211.591219)scale(0.1 -0.1)">
       <use xlink:href="#DejaVuSans-8722"/>
       <use x="83.789062" xlink:href="#DejaVuSans-48"/>
       <use x="147.412109" xlink:href="#DejaVuSans-46"/>
       <use x="179.199219" xlink:href="#DejaVuSans-53"/>
      </g>
     </g>
    </g>
    <g id="ytick_5">
     <g id="line2d_14">
      <g>
       <use style="stroke:#000000;stroke-width:0.8;" x="57.6" xlink:href="#m4a3693a358" y="174.528"/>
      </g>
     </g>
     <g id="text_14">
      <!-- 0.0 -->
      <g transform="translate(34.696875 178.327219)scale(0.1 -0.1)">
       <use xlink:href="#DejaVuSans-48"/>
       <use x="63.623047" xlink:href="#DejaVuSans-46"/>
       <use x="95.410156" xlink:href="#DejaVuSans-48"/>
      </g>
     </g>
    </g>
    <g id="ytick_6">
     <g id="line2d_15">
      <g>
       <use style="stroke:#000000;stroke-width:0.8;" x="57.6" xlink:href="#m4a3693a358" y="141.264"/>
      </g>
     </g>
     <g id="text_15">
      <!-- 0.5 -->
      <g transform="translate(34.696875 145.063219)scale(0.1 -0.1)">
       <use xlink:href="#DejaVuSans-48"/>
       <use x="63.623047" xlink:href="#DejaVuSans-46"/>
       <use x="95.410156" xlink:href="#DejaVuSans-53"/>
      </g>
     </g>
    </g>
    <g id="ytick_7">
     <g id="line2d_16">
      <g>
       <use style="stroke:#000000;stroke-width:0.8;" x="57.6" xlink:href="#m4a3693a358" y="108"/>
      </g>
     </g>
     <g id="text_16">
      <!-- 1.0 -->
      <g transform="translate(34.696875 111.799219)scale(0.1 -0.1)">
       <use xlink:href="#DejaVuSans-49"/>
       <use x="63.623047" xlink:href="#DejaVuSans-46"/>
       <use x="95.410156" xlink:href="#DejaVuSans-48"/>
      </g>
     </g>
    </g>
    <g id="ytick_8">
     <g id="line2d_17">
      <g>
       <use style="stroke:#000000;stroke-width:0.8;" x="57.6" xlink:href="#m4a3693a358" y="74.736"/>
      </g>
     </g>
     <g id="text_17">
      <!-- 1.5 -->
      <g transform="translate(34.696875 78.535219)scale(0.1 -0.1)">
       <use xlink:href="#DejaVuSans-49"/>
       <use x="63.623047" xlink:href="#DejaVuSans-46"/>
       <use x="95.410156" xlink:href="#DejaVuSans-53"/>
      </g>
     </g>
    </g>
    <g id="ytick_9">
     <g id="line2d_18">
      <g>
       <use style="stroke:#000000;stroke-width:0.8;" x="57.6" xlink:href="#m4a3693a358" y="41.472"/>
      </g>
     </g>
     <g id="text_18">
      <!-- 2.0 -->
      <g transform="translate(34.696875 45.271219)scale(0.1 -0.1)">
       <use xlink:href="#DejaVuSans-50"/>
       <use x="63.623047" xlink:href="#DejaVuSans-46"/>
       <use x="95.410156" xlink:href="#DejaVuSans-48"/>
      </g>
     </g>
    </g>
   </g>
   <g id="LineCollection_1"/>
   <g id="LineCollection_2">
    <path clip-path="url(#p34776a00cb)" d="M 343.296 293.996945 
L 342.026124 296.832 
L 340.410182 300.153146 
L 337.524364 303.907733 
L 334.638545 306.000913 
L 331.752727 306.85807 
L 328.866909 306.751133 
L 325.981091 305.881508 
L 323.095273 304.405045 
L 319.926172 302.208 
L 316.721429 299.52 
L 313.863752 296.832 
L 308.666182 291.448782 
L 294.237091 275.809877 
L 288.465455 270.380588 
L 284.533161 267.264 
L 282.693818 265.917037 
L 279.808 264.1264 
L 276.922182 262.625839 
L 274.036364 261.433633 
L 271.150545 260.518656 
L 268.264727 259.88389 
L 265.378909 259.492917 
L 262.493091 259.309757 
L 259.607273 259.299277 
L 253.835636 259.661966 
L 248.064 260.327873 
L 239.406545 261.413704 
L 233.634909 261.927273 
L 227.863273 262.101079 
L 222.686837 261.888 
L 222.091636 261.849381 
L 219.205818 261.531316 
L 216.32 261.079301 
L 213.434182 260.48947 
L 208.70161 259.2 
L 207.662545 258.879726 
L 204.776727 257.838336 
L 201.574523 256.512 
L 199.005091 255.305459 
L 196.119273 253.817333 
L 191.593288 251.136 
L 187.461818 248.404025 
L 181.690182 244.053926 
L 177.29858 240.384 
L 173.032727 236.55681 
L 167.261091 231.003446 
L 160.651056 224.256 
L 144.174545 207.0013 
L 138.402909 201.504209 
L 133.44898 197.376 
L 132.631273 196.716191 
L 129.745455 194.679452 
L 126.859636 192.884123 
L 123.973818 191.395549 
L 121.088 190.20077 
L 118.135574 189.312 
L 115.316364 188.717328 
L 112.430545 188.390578 
L 109.544727 188.312401 
L 106.658909 188.445404 
L 103.773091 188.748366 
L 98.001455 189.663574 
L 92.229818 190.635353 
L 89.344 191.008746 
L 86.458182 191.221315 
L 83.572364 191.202434 
L 80.686545 190.87629 
L 77.800727 190.161723 
L 74.914909 188.959368 
L 72.029091 187.138085 
L 69.143273 184.555078 
L 66.257455 181.017486 
L 63.202011 175.872 
L 60.485818 169.784273 
L 58.062872 162.432 
L 57.6 160.927656 
L 57.6 160.927656 
" style="fill:none;stroke:#00db92;stroke-width:1.5;"/>
    <path clip-path="url(#p34776a00cb)" d="M 57.6 55.059055 
L 58.869876 52.224 
L 60.485818 48.902854 
L 63.371636 45.148267 
L 66.257455 43.055087 
L 69.143273 42.19793 
L 72.029091 42.304867 
L 74.914909 43.174492 
L 77.800727 44.650955 
L 80.969828 46.848 
L 84.174571 49.536 
L 87.032248 52.224 
L 92.229818 57.607218 
L 106.658909 73.246123 
L 112.430545 78.675412 
L 116.362839 81.792 
L 118.202182 83.138963 
L 121.088 84.9296 
L 123.973818 86.430161 
L 126.859636 87.622367 
L 129.745455 88.537344 
L 132.631273 89.17211 
L 135.517091 89.563083 
L 138.402909 89.746243 
L 141.288727 89.756723 
L 147.060364 89.394034 
L 152.832 88.728127 
L 161.489455 87.642296 
L 167.261091 87.128727 
L 173.032727 86.954921 
L 178.209163 87.168 
L 178.804364 87.206619 
L 181.690182 87.524684 
L 184.576 87.976699 
L 187.461818 88.56653 
L 192.19439 89.856 
L 193.233455 90.176274 
L 196.119273 91.217664 
L 199.321477 92.544 
L 201.890909 93.750541 
L 204.776727 95.238667 
L 209.302712 97.92 
L 213.434182 100.651975 
L 219.205818 105.002074 
L 223.59742 108.672 
L 227.863273 112.49919 
L 233.634909 118.052554 
L 240.244944 124.8 
L 256.721455 142.0547 
L 262.493091 147.551791 
L 267.44702 151.68 
L 268.264727 152.339809 
L 271.150545 154.376548 
L 274.036364 156.171877 
L 276.922182 157.660451 
L 279.808 158.85523 
L 282.760426 159.744 
L 285.579636 160.338672 
L 288.465455 160.665422 
L 291.351273 160.743599 
L 294.237091 160.610596 
L 297.122909 160.307634 
L 302.894545 159.392426 
L 308.666182 158.420647 
L 311.552 158.047254 
L 314.437818 157.834685 
L 317.323636 157.853566 
L 320.209455 158.17971 
L 323.095273 158.894277 
L 325.981091 160.096632 
L 328.866909 161.917915 
L 331.752727 164.500922 
L 334.638545 168.038514 
L 337.693989 173.184 
L 340.410182 179.271727 
L 342.833128 186.624 
L 343.296 188.128344 
L 343.296 188.128344 
" style="fill:none;stroke:#00db92;stroke-width:1.5;"/>
   </g>
   <g id="LineCollection_3">
    <path clip-path="url(#p34776a00cb)" d="M 277.965252 307.584 
L 276.922182 307.06468 
L 274.036364 305.798274 
L 271.664931 304.896 
L 271.150545 304.697551 
L 268.264727 303.733594 
L 265.378909 302.916246 
L 262.493091 302.228895 
L 262.389473 302.208 
L 259.607273 301.639327 
L 256.721455 301.147605 
L 253.835636 300.736311 
L 250.949818 300.387698 
L 248.064 300.084464 
L 245.178182 299.809917 
L 242.292364 299.548122 
L 241.988491 299.52 
L 239.406545 299.278013 
L 236.520727 298.990567 
L 233.634909 298.673197 
L 230.749091 298.313777 
L 227.863273 297.901418 
L 224.977455 297.426507 
L 222.091636 296.880734 
L 221.868555 296.832 
L 219.205818 296.243338 
L 216.32 295.519611 
L 213.434182 294.706333 
L 211.650741 294.144 
L 210.548364 293.792298 
L 207.662545 292.768698 
L 204.776727 291.648547 
L 204.324141 291.456 
L 201.890909 290.408705 
L 199.005091 289.069044 
L 198.403761 288.768 
L 196.119273 287.610939 
L 193.276977 286.08 
L 193.233455 286.05628 
L 190.347636 284.380552 
L 188.728908 283.392 
L 187.461818 282.609035 
L 184.576 280.743101 
L 184.518138 280.704 
L 181.690182 278.770351 
L 180.623934 278.016 
L 178.804364 276.71327 
L 176.92464 275.328 
L 175.918545 274.577567 
L 173.381587 272.64 
L 173.032727 272.370294 
L 170.146909 270.096253 
L 169.966416 269.952 
L 167.261091 267.763342 
L 166.648296 267.264 
L 164.375273 265.388796 
L 163.391563 264.576 
L 161.489455 262.984604 
L 160.173081 261.888 
L 158.603636 260.563919 
L 156.970054 259.2 
L 155.717818 258.140987 
L 153.758964 256.512 
L 152.832 255.731058 
L 150.514355 253.824 
L 149.946182 253.35029 
L 147.207295 251.136 
L 147.060364 251.015617 
L 144.174545 248.736749 
L 143.791862 248.448 
L 141.288727 246.53394 
L 140.21908 245.76 
L 138.402909 244.428036 
L 136.429147 243.072 
L 135.517091 242.436746 
L 132.631273 240.572266 
L 132.314695 240.384 
L 129.745455 238.835019 
L 127.653789 237.696 
L 126.859636 237.257494 
L 123.973818 235.830574 
L 122.078568 235.008 
L 121.088 234.572062 
L 118.202182 233.471213 
L 115.316364 232.543272 
L 114.483132 232.32 
L 112.430545 231.762406 
L 109.544727 231.128172 
L 106.658909 230.629338 
L 103.773091 230.245165 
L 100.887273 229.951507 
L 98.001455 229.720668 
L 96.727454 229.632 
L 95.115636 229.518354 
L 92.229818 229.309909 
L 89.344 229.057448 
L 86.458182 228.71655 
L 83.572364 228.238457 
L 80.686545 227.569933 
L 78.723973 226.944 
L 77.800727 226.645887 
L 74.914909 225.3881 
L 72.936087 224.256 
L 72.029091 223.730654 
L 69.143273 221.573456 
L 69.137531 221.568 
L 66.344816 218.88 
L 66.257455 218.794841 
L 64.127763 216.192 
L 63.371636 215.255962 
L 62.22791 213.504 
L 60.495835 210.816 
L 60.485818 210.800163 
L 59.105364 208.128 
L 57.736249 205.44 
L 57.6 205.166971 
" style="fill:none;stroke:#00b6a4;stroke-width:1.5;"/>
    <path clip-path="url(#p34776a00cb)" d="M 122.930748 41.472 
L 123.973818 41.99132 
L 126.859636 43.257726 
L 129.231069 44.16 
L 129.745455 44.358449 
L 132.631273 45.322406 
L 135.517091 46.139754 
L 138.402909 46.827105 
L 138.506527 46.848 
L 141.288727 47.416673 
L 144.174545 47.908395 
L 147.060364 48.319689 
L 149.946182 48.668302 
L 152.832 48.971536 
L 155.717818 49.246083 
L 158.603636 49.507878 
L 158.907509 49.536 
L 161.489455 49.777987 
L 164.375273 50.065433 
L 167.261091 50.382803 
L 170.146909 50.742223 
L 173.032727 51.154582 
L 175.918545 51.629493 
L 178.804364 52.175266 
L 179.027445 52.224 
L 181.690182 52.812662 
L 184.576 53.536389 
L 187.461818 54.349667 
L 189.245259 54.912 
L 190.347636 55.263702 
L 193.233455 56.287302 
L 196.119273 57.407453 
L 196.571859 57.6 
L 199.005091 58.647295 
L 201.890909 59.986956 
L 202.492239 60.288 
L 204.776727 61.445061 
L 207.619023 62.976 
L 207.662545 62.99972 
L 210.548364 64.675448 
L 212.167092 65.664 
L 213.434182 66.446965 
L 216.32 68.312899 
L 216.377862 68.352 
L 219.205818 70.285649 
L 220.272066 71.04 
L 222.091636 72.34273 
L 223.97136 73.728 
L 224.977455 74.478433 
L 227.514413 76.416 
L 227.863273 76.685706 
L 230.749091 78.959747 
L 230.929584 79.104 
L 233.634909 81.292658 
L 234.247704 81.792 
L 236.520727 83.667204 
L 237.504437 84.48 
L 239.406545 86.071396 
L 240.722919 87.168 
L 242.292364 88.492081 
L 243.925946 89.856 
L 245.178182 90.915013 
L 247.137036 92.544 
L 248.064 93.324942 
L 250.381645 95.232 
L 250.949818 95.70571 
L 253.688705 97.92 
L 253.835636 98.040383 
L 256.721455 100.319251 
L 257.104138 100.608 
L 259.607273 102.52206 
L 260.67692 103.296 
L 262.493091 104.627964 
L 264.466853 105.984 
L 265.378909 106.619254 
L 268.264727 108.483734 
L 268.581305 108.672 
L 271.150545 110.220981 
L 273.242211 111.36 
L 274.036364 111.798506 
L 276.922182 113.225426 
L 278.817432 114.048 
L 279.808 114.483938 
L 282.693818 115.584787 
L 285.579636 116.512728 
L 286.412868 116.736 
L 288.465455 117.293594 
L 291.351273 117.927828 
L 294.237091 118.426662 
L 297.122909 118.810835 
L 300.008727 119.104493 
L 302.894545 119.335332 
L 304.168546 119.424 
L 305.780364 119.537646 
L 308.666182 119.746091 
L 311.552 119.998552 
L 314.437818 120.33945 
L 317.323636 120.817543 
L 320.209455 121.486067 
L 322.172027 122.112 
L 323.095273 122.410113 
L 325.981091 123.6679 
L 327.959913 124.8 
L 328.866909 125.325346 
L 331.752727 127.482544 
L 331.758469 127.488 
L 334.551184 130.176 
L 334.638545 130.261159 
L 336.768237 132.864 
L 337.524364 133.800038 
L 338.66809 135.552 
L 340.400165 138.24 
L 340.410182 138.255837 
L 341.790636 140.928 
L 343.159751 143.616 
L 343.296 143.889029 
" style="fill:none;stroke:#00b6a4;stroke-width:1.5;"/>
   </g>
   <g id="LineCollection_4">
    <path clip-path="url(#p34776a00cb)" d="M 185.623347 307.584 
L 184.576 306.936996 
L 181.690182 305.090399 
L 181.396178 304.896 
L 178.804364 303.165701 
L 177.405327 302.208 
L 175.918545 301.180305 
L 173.565465 299.52 
L 173.032727 299.140404 
L 170.146909 297.048906 
L 169.851454 296.832 
L 167.261091 294.91157 
L 166.232266 294.144 
L 164.375273 292.744777 
L 162.667171 291.456 
L 161.489455 290.558473 
L 159.131136 288.768 
L 158.603636 288.363448 
L 155.717818 286.169432 
L 155.598688 286.08 
L 152.832 283.981949 
L 152.038077 283.392 
L 149.946182 281.821609 
L 148.417572 280.704 
L 147.060364 279.701424 
L 144.702424 278.016 
L 144.174545 277.634728 
L 141.288727 275.628669 
L 140.836437 275.328 
L 138.402909 273.693326 
L 136.746866 272.64 
L 135.517091 271.849524 
L 132.631273 270.106571 
L 132.357687 269.952 
L 129.745455 268.460518 
L 127.471573 267.264 
L 126.859636 266.938555 
L 123.973818 265.529742 
L 121.813099 264.576 
L 121.088 264.252518 
L 118.202182 263.093873 
L 115.316364 262.069513 
L 114.737408 261.888 
L 112.430545 261.157105 
L 109.544727 260.361179 
L 106.658909 259.673136 
L 104.37045 259.2 
L 103.773091 259.075203 
L 100.887273 258.543651 
L 98.001455 258.06691 
L 95.115636 257.620204 
L 92.229818 257.175417 
L 89.344 256.700952 
L 88.339513 256.512 
L 86.458182 256.15455 
L 83.572364 255.498585 
L 80.686545 254.693217 
L 78.187784 253.824 
L 77.800727 253.688019 
L 74.914909 252.411647 
L 72.600374 251.136 
L 72.029091 250.818006 
L 69.143273 248.819002 
L 68.709275 248.448 
L 66.257455 246.331214 
L 65.716828 245.76 
L 63.371636 243.257217 
L 63.228732 243.072 
L 61.180659 240.384 
L 60.485818 239.462136 
L 59.382388 237.696 
L 57.721137 235.008 
L 57.6 234.809095 
" style="fill:none;stroke:#0092b6;stroke-width:1.5;"/>
    <path clip-path="url(#p34776a00cb)" d="M 215.272653 41.472 
L 216.32 42.119004 
L 219.205818 43.965601 
L 219.499822 44.16 
L 222.091636 45.890299 
L 223.490673 46.848 
L 224.977455 47.875695 
L 227.330535 49.536 
L 227.863273 49.915596 
L 230.749091 52.007094 
L 231.044546 52.224 
L 233.634909 54.14443 
L 234.663734 54.912 
L 236.520727 56.311223 
L 238.228829 57.6 
L 239.406545 58.497527 
L 241.764864 60.288 
L 242.292364 60.692552 
L 245.178182 62.886568 
L 245.297312 62.976 
L 248.064 65.074051 
L 248.857923 65.664 
L 250.949818 67.234391 
L 252.478428 68.352 
L 253.835636 69.354576 
L 256.193576 71.04 
L 256.721455 71.421272 
L 259.607273 73.427331 
L 260.059563 73.728 
L 262.493091 75.362674 
L 264.149134 76.416 
L 265.378909 77.206476 
L 268.264727 78.949429 
L 268.538313 79.104 
L 271.150545 80.595482 
L 273.424427 81.792 
L 274.036364 82.117445 
L 276.922182 83.526258 
L 279.082901 84.48 
L 279.808 84.803482 
L 282.693818 85.962127 
L 285.579636 86.986487 
L 286.158592 87.168 
L 288.465455 87.898895 
L 291.351273 88.694821 
L 294.237091 89.382864 
L 296.52555 89.856 
L 297.122909 89.980797 
L 300.008727 90.512349 
L 302.894545 90.98909 
L 305.780364 91.435796 
L 308.666182 91.880583 
L 311.552 92.355048 
L 312.556487 92.544 
L 314.437818 92.90145 
L 317.323636 93.557415 
L 320.209455 94.362783 
L 322.708216 95.232 
L 323.095273 95.367981 
L 325.981091 96.644353 
L 328.295626 97.92 
L 328.866909 98.237994 
L 331.752727 100.236998 
L 332.186725 100.608 
L 334.638545 102.724786 
L 335.179172 103.296 
L 337.524364 105.798783 
L 337.667268 105.984 
L 339.715341 108.672 
L 340.410182 109.593864 
L 341.513612 111.36 
L 343.174863 114.048 
L 343.296 114.246905 
" style="fill:none;stroke:#0092b6;stroke-width:1.5;"/>
   </g>
   <g id="LineCollection_5">
    <path clip-path="url(#p34776a00cb)" d="M 153.422237 307.584 
L 152.832 307.160541 
L 149.946182 305.125982 
L 149.612762 304.896 
L 147.060364 303.120065 
L 145.710422 302.208 
L 144.174545 301.161168 
L 141.679773 299.52 
L 141.288727 299.260467 
L 138.402909 297.418543 
L 137.439844 296.832 
L 135.517091 295.65056 
L 132.925722 294.144 
L 132.631273 293.971279 
L 129.745455 292.373715 
L 127.968744 291.456 
L 126.859636 290.877981 
L 123.973818 289.481783 
L 122.370864 288.768 
L 121.088 288.191627 
L 118.202182 287.005573 
L 115.714927 286.08 
L 115.316364 285.930354 
L 112.430545 284.948608 
L 109.544727 284.069292 
L 107.064039 283.392 
L 106.658909 283.280406 
L 103.773091 282.560968 
L 100.887273 281.907863 
L 98.001455 281.303132 
L 95.115636 280.725992 
L 95.005839 280.704 
L 92.229818 280.143151 
L 89.344 279.536701 
L 86.458182 278.87644 
L 83.572364 278.128369 
L 83.203803 278.016 
L 80.686545 277.241987 
L 77.800727 276.184522 
L 75.863422 275.328 
L 74.914909 274.905074 
L 72.029091 273.342157 
L 70.960582 272.64 
L 69.143273 271.435614 
L 67.293057 269.952 
L 66.257455 269.114464 
L 64.360383 267.264 
L 63.371636 266.291195 
L 61.919384 264.576 
L 60.485818 262.868089 
L 59.796673 261.888 
L 57.924984 259.2 
L 57.6 258.728093 
" style="fill:none;stroke:#006dc8;stroke-width:1.5;"/>
    <path clip-path="url(#p34776a00cb)" d="M 247.473763 41.472 
L 248.064 41.895459 
L 250.949818 43.930018 
L 251.283238 44.16 
L 253.835636 45.935935 
L 255.185578 46.848 
L 256.721455 47.894832 
L 259.216227 49.536 
L 259.607273 49.795533 
L 262.493091 51.637457 
L 263.456156 52.224 
L 265.378909 53.40544 
L 267.970278 54.912 
L 268.264727 55.084721 
L 271.150545 56.682285 
L 272.927256 57.6 
L 274.036364 58.178019 
L 276.922182 59.574217 
L 278.525136 60.288 
L 279.808 60.864373 
L 282.693818 62.050427 
L 285.181073 62.976 
L 285.579636 63.125646 
L 288.465455 64.107392 
L 291.351273 64.986708 
L 293.831961 65.664 
L 294.237091 65.775594 
L 297.122909 66.495032 
L 300.008727 67.148137 
L 302.894545 67.752868 
L 305.780364 68.330008 
L 305.890161 68.352 
L 308.666182 68.912849 
L 311.552 69.519299 
L 314.437818 70.17956 
L 317.323636 70.927631 
L 317.692197 71.04 
L 320.209455 71.814013 
L 323.095273 72.871478 
L 325.032578 73.728 
L 325.981091 74.150926 
L 328.866909 75.713843 
L 329.935418 76.416 
L 331.752727 77.620386 
L 333.602943 79.104 
L 334.638545 79.941536 
L 336.535617 81.792 
L 337.524364 82.764805 
L 338.976616 84.48 
L 340.410182 86.187911 
L 341.099327 87.168 
L 342.971016 89.856 
L 343.296 90.327907 
" style="fill:none;stroke:#006dc8;stroke-width:1.5;"/>
   </g>
   <g id="LineCollection_6">
    <path clip-path="url(#p34776a00cb)" d="M 118.115983 307.584 
L 115.316364 306.501133 
L 112.430545 305.481544 
L 110.617299 304.896 
L 109.544727 304.546923 
L 106.658909 303.686363 
L 103.773091 302.898239 
L 101.041353 302.208 
L 100.887273 302.168765 
L 98.001455 301.472956 
L 95.115636 300.803173 
L 92.229818 300.138235 
L 89.623847 299.52 
L 89.344 299.453101 
L 86.458182 298.711678 
L 83.572364 297.892949 
L 80.686545 296.963068 
L 80.338065 296.832 
L 77.800727 295.870475 
L 74.914909 294.584076 
L 74.085626 294.144 
L 72.029091 293.04442 
L 69.535155 291.456 
L 69.143273 291.204507 
L 66.257455 288.992053 
L 66.012288 288.768 
L 63.371636 286.336403 
L 63.137269 286.08 
L 60.700352 283.392 
L 60.485818 283.153371 
L 58.627384 280.704 
L 57.6 279.339313 
" style="fill:none;stroke:#0049db;stroke-width:1.5;"/>
    <path clip-path="url(#p34776a00cb)" d="M 282.780017 41.472 
L 285.579636 42.554867 
L 288.465455 43.574456 
L 290.278701 44.16 
L 291.351273 44.509077 
L 294.237091 45.369637 
L 297.122909 46.157761 
L 299.854647 46.848 
L 300.008727 46.887235 
L 302.894545 47.583044 
L 305.780364 48.252827 
L 308.666182 48.917765 
L 311.272153 49.536 
L 311.552 49.602899 
L 314.437818 50.344322 
L 317.323636 51.163051 
L 320.209455 52.092932 
L 320.557935 52.224 
L 323.095273 53.185525 
L 325.981091 54.471924 
L 326.810374 54.912 
L 328.866909 56.01158 
L 331.360845 57.6 
L 331.752727 57.851493 
L 334.638545 60.063947 
L 334.883712 60.288 
L 337.524364 62.719597 
L 337.758731 62.976 
L 340.195648 65.664 
L 340.410182 65.902629 
L 342.268616 68.352 
L 343.296 69.716687 
" style="fill:none;stroke:#0049db;stroke-width:1.5;"/>
   </g>
   <g id="LineCollection_7">
    <path clip-path="url(#p34776a00cb)" d="M 67.250165 307.584 
L 66.257455 306.847135 
L 64.031821 304.896 
L 63.371636 304.313206 
L 61.350279 302.208 
L 60.485818 301.301362 
L 59.042538 299.52 
L 57.6 297.726971 
" style="fill:none;stroke:#0024ed;stroke-width:1.5;"/>
    <path clip-path="url(#p34776a00cb)" d="M 333.645835 41.472 
L 334.638545 42.208865 
L 336.864179 44.16 
L 337.524364 44.742794 
L 339.545721 46.848 
L 340.410182 47.754638 
L 341.853462 49.536 
L 343.296 51.329029 
" style="fill:none;stroke:#0024ed;stroke-width:1.5;"/>
   </g>
   <g id="LineCollection_8"/>
   <g id="patch_3">
    <path d="M 57.6 307.584 
L 57.6 41.472 
" style="fill:none;stroke:#000000;stroke-linecap:square;stroke-linejoin:miter;stroke-width:0.8;"/>
   </g>
   <g id="patch_4">
    <path d="M 343.296 307.584 
L 343.296 41.472 
" style="fill:none;stroke:#000000;stroke-linecap:square;stroke-linejoin:miter;stroke-width:0.8;"/>
   </g>
   <g id="patch_5">
    <path d="M 57.6 307.584 
L 343.296 307.584 
" style="fill:none;stroke:#000000;stroke-linecap:square;stroke-linejoin:miter;stroke-width:0.8;"/>
   </g>
   <g id="patch_6">
    <path d="M 57.6 41.472 
L 343.296 41.472 
" style="fill:none;stroke:#000000;stroke-linecap:square;stroke-linejoin:miter;stroke-width:0.8;"/>
   </g>
  </g>
  <g id="axes_2">
   <g id="patch_7">
    <path clip-path="url(#p51550d7537)" d="M 361.152 307.584 
L 361.152 269.568 
L 361.152 79.488 
L 361.152 41.472 
L 374.4576 41.472 
L 374.4576 79.488 
L 374.4576 269.568 
L 374.4576 307.584 
z
" style="fill:#ffffff;stroke:#ffffff;stroke-linejoin:miter;stroke-width:0.01;"/>
   </g>
   <g id="matplotlib.axis_3"/>
   <g id="matplotlib.axis_4">
    <g id="ytick_10">
     <g id="line2d_19">
      <defs>
       <path d="M 0 0 
L 3.5 0 
" id="m1253108dcc" style="stroke:#000000;stroke-width:0.8;"/>
      </defs>
      <g>
       <use style="stroke:#000000;stroke-width:0.8;" x="374.4576" xlink:href="#m1253108dcc" y="307.584"/>
      </g>
     </g>
     <g id="text_19">
      <!-- 0.0 -->
      <g transform="translate(381.4576 311.383219)scale(0.1 -0.1)">
       <use xlink:href="#DejaVuSans-48"/>
       <use x="63.623047" xlink:href="#DejaVuSans-46"/>
       <use x="95.410156" xlink:href="#DejaVuSans-48"/>
      </g>
     </g>
    </g>
    <g id="ytick_11">
     <g id="line2d_20">
      <g>
       <use style="stroke:#000000;stroke-width:0.8;" x="374.4576" xlink:href="#m1253108dcc" y="269.568"/>
      </g>
     </g>
     <g id="text_20">
      <!-- 1.5 -->
      <g transform="translate(381.4576 273.367219)scale(0.1 -0.1)">
       <use xlink:href="#DejaVuSans-49"/>
       <use x="63.623047" xlink:href="#DejaVuSans-46"/>
       <use x="95.410156" xlink:href="#DejaVuSans-53"/>
      </g>
     </g>
    </g>
    <g id="ytick_12">
     <g id="line2d_21">
      <g>
       <use style="stroke:#000000;stroke-width:0.8;" x="374.4576" xlink:href="#m1253108dcc" y="231.552"/>
      </g>
     </g>
     <g id="text_21">
      <!-- 3.0 -->
      <defs>
       <path d="M 40.578125 39.3125 
Q 47.65625 37.796875 51.625 33 
Q 55.609375 28.21875 55.609375 21.1875 
Q 55.609375 10.40625 48.1875 4.484375 
Q 40.765625 -1.421875 27.09375 -1.421875 
Q 22.515625 -1.421875 17.65625 -0.515625 
Q 12.796875 0.390625 7.625 2.203125 
L 7.625 11.71875 
Q 11.71875 9.328125 16.59375 8.109375 
Q 21.484375 6.890625 26.8125 6.890625 
Q 36.078125 6.890625 40.9375 10.546875 
Q 45.796875 14.203125 45.796875 21.1875 
Q 45.796875 27.640625 41.28125 31.265625 
Q 36.765625 34.90625 28.71875 34.90625 
L 20.21875 34.90625 
L 20.21875 43.015625 
L 29.109375 43.015625 
Q 36.375 43.015625 40.234375 45.921875 
Q 44.09375 48.828125 44.09375 54.296875 
Q 44.09375 59.90625 40.109375 62.90625 
Q 36.140625 65.921875 28.71875 65.921875 
Q 24.65625 65.921875 20.015625 65.03125 
Q 15.375 64.15625 9.8125 62.3125 
L 9.8125 71.09375 
Q 15.4375 72.65625 20.34375 73.4375 
Q 25.25 74.21875 29.59375 74.21875 
Q 40.828125 74.21875 47.359375 69.109375 
Q 53.90625 64.015625 53.90625 55.328125 
Q 53.90625 49.265625 50.4375 45.09375 
Q 46.96875 40.921875 40.578125 39.3125 
z
" id="DejaVuSans-51"/>
      </defs>
      <g transform="translate(381.4576 235.351219)scale(0.1 -0.1)">
       <use xlink:href="#DejaVuSans-51"/>
       <use x="63.623047" xlink:href="#DejaVuSans-46"/>
       <use x="95.410156" xlink:href="#DejaVuSans-48"/>
      </g>
     </g>
    </g>
    <g id="ytick_13">
     <g id="line2d_22">
      <g>
       <use style="stroke:#000000;stroke-width:0.8;" x="374.4576" xlink:href="#m1253108dcc" y="193.536"/>
      </g>
     </g>
     <g id="text_22">
      <!-- 4.5 -->
      <defs>
       <path d="M 37.796875 64.3125 
L 12.890625 25.390625 
L 37.796875 25.390625 
z
M 35.203125 72.90625 
L 47.609375 72.90625 
L 47.609375 25.390625 
L 58.015625 25.390625 
L 58.015625 17.1875 
L 47.609375 17.1875 
L 47.609375 0 
L 37.796875 0 
L 37.796875 17.1875 
L 4.890625 17.1875 
L 4.890625 26.703125 
z
" id="DejaVuSans-52"/>
      </defs>
      <g transform="translate(381.4576 197.335219)scale(0.1 -0.1)">
       <use xlink:href="#DejaVuSans-52"/>
       <use x="63.623047" xlink:href="#DejaVuSans-46"/>
       <use x="95.410156" xlink:href="#DejaVuSans-53"/>
      </g>
     </g>
    </g>
    <g id="ytick_14">
     <g id="line2d_23">
      <g>
       <use style="stroke:#000000;stroke-width:0.8;" x="374.4576" xlink:href="#m1253108dcc" y="155.52"/>
      </g>
     </g>
     <g id="text_23">
      <!-- 6.0 -->
      <defs>
       <path d="M 33.015625 40.375 
Q 26.375 40.375 22.484375 35.828125 
Q 18.609375 31.296875 18.609375 23.390625 
Q 18.609375 15.53125 22.484375 10.953125 
Q 26.375 6.390625 33.015625 6.390625 
Q 39.65625 6.390625 43.53125 10.953125 
Q 47.40625 15.53125 47.40625 23.390625 
Q 47.40625 31.296875 43.53125 35.828125 
Q 39.65625 40.375 33.015625 40.375 
z
M 52.59375 71.296875 
L 52.59375 62.3125 
Q 48.875 64.0625 45.09375 64.984375 
Q 41.3125 65.921875 37.59375 65.921875 
Q 27.828125 65.921875 22.671875 59.328125 
Q 17.53125 52.734375 16.796875 39.40625 
Q 19.671875 43.65625 24.015625 45.921875 
Q 28.375 48.1875 33.59375 48.1875 
Q 44.578125 48.1875 50.953125 41.515625 
Q 57.328125 34.859375 57.328125 23.390625 
Q 57.328125 12.15625 50.6875 5.359375 
Q 44.046875 -1.421875 33.015625 -1.421875 
Q 20.359375 -1.421875 13.671875 8.265625 
Q 6.984375 17.96875 6.984375 36.375 
Q 6.984375 53.65625 15.1875 63.9375 
Q 23.390625 74.21875 37.203125 74.21875 
Q 40.921875 74.21875 44.703125 73.484375 
Q 48.484375 72.75 52.59375 71.296875 
z
" id="DejaVuSans-54"/>
      </defs>
      <g transform="translate(381.4576 159.319219)scale(0.1 -0.1)">
       <use xlink:href="#DejaVuSans-54"/>
       <use x="63.623047" xlink:href="#DejaVuSans-46"/>
       <use x="95.410156" xlink:href="#DejaVuSans-48"/>
      </g>
     </g>
    </g>
    <g id="ytick_15">
     <g id="line2d_24">
      <g>
       <use style="stroke:#000000;stroke-width:0.8;" x="374.4576" xlink:href="#m1253108dcc" y="117.504"/>
      </g>
     </g>
     <g id="text_24">
      <!-- 7.5 -->
      <defs>
       <path d="M 8.203125 72.90625 
L 55.078125 72.90625 
L 55.078125 68.703125 
L 28.609375 0 
L 18.3125 0 
L 43.21875 64.59375 
L 8.203125 64.59375 
z
" id="DejaVuSans-55"/>
      </defs>
      <g transform="translate(381.4576 121.303219)scale(0.1 -0.1)">
       <use xlink:href="#DejaVuSans-55"/>
       <use x="63.623047" xlink:href="#DejaVuSans-46"/>
       <use x="95.410156" xlink:href="#DejaVuSans-53"/>
      </g>
     </g>
    </g>
    <g id="ytick_16">
     <g id="line2d_25">
      <g>
       <use style="stroke:#000000;stroke-width:0.8;" x="374.4576" xlink:href="#m1253108dcc" y="79.488"/>
      </g>
     </g>
     <g id="text_25">
      <!-- 9.0 -->
      <defs>
       <path d="M 10.984375 1.515625 
L 10.984375 10.5 
Q 14.703125 8.734375 18.5 7.8125 
Q 22.3125 6.890625 25.984375 6.890625 
Q 35.75 6.890625 40.890625 13.453125 
Q 46.046875 20.015625 46.78125 33.40625 
Q 43.953125 29.203125 39.59375 26.953125 
Q 35.25 24.703125 29.984375 24.703125 
Q 19.046875 24.703125 12.671875 31.3125 
Q 6.296875 37.9375 6.296875 49.421875 
Q 6.296875 60.640625 12.9375 67.421875 
Q 19.578125 74.21875 30.609375 74.21875 
Q 43.265625 74.21875 49.921875 64.515625 
Q 56.59375 54.828125 56.59375 36.375 
Q 56.59375 19.140625 48.40625 8.859375 
Q 40.234375 -1.421875 26.421875 -1.421875 
Q 22.703125 -1.421875 18.890625 -0.6875 
Q 15.09375 0.046875 10.984375 1.515625 
z
M 30.609375 32.421875 
Q 37.25 32.421875 41.125 36.953125 
Q 45.015625 41.5 45.015625 49.421875 
Q 45.015625 57.28125 41.125 61.84375 
Q 37.25 66.40625 30.609375 66.40625 
Q 23.96875 66.40625 20.09375 61.84375 
Q 16.21875 57.28125 16.21875 49.421875 
Q 16.21875 41.5 20.09375 36.953125 
Q 23.96875 32.421875 30.609375 32.421875 
z
" id="DejaVuSans-57"/>
      </defs>
      <g transform="translate(381.4576 83.287219)scale(0.1 -0.1)">
       <use xlink:href="#DejaVuSans-57"/>
       <use x="63.623047" xlink:href="#DejaVuSans-46"/>
       <use x="95.410156" xlink:href="#DejaVuSans-48"/>
      </g>
     </g>
    </g>
    <g id="ytick_17">
     <g id="line2d_26">
      <g>
       <use style="stroke:#000000;stroke-width:0.8;" x="374.4576" xlink:href="#m1253108dcc" y="41.472"/>
      </g>
     </g>
     <g id="text_26">
      <!-- 10.5 -->
      <g transform="translate(381.4576 45.271219)scale(0.1 -0.1)">
       <use xlink:href="#DejaVuSans-49"/>
       <use x="63.623047" xlink:href="#DejaVuSans-48"/>
       <use x="127.246094" xlink:href="#DejaVuSans-46"/>
       <use x="159.033203" xlink:href="#DejaVuSans-53"/>
      </g>
     </g>
    </g>
   </g>
   <g id="LineCollection_9">
    <path clip-path="url(#p51550d7537)" d="M 361.152 307.584 
L 374.4576 307.584 
" style="fill:none;stroke:#00ff80;stroke-width:1.5;"/>
    <path clip-path="url(#p51550d7537)" d="M 361.152 269.568 
L 374.4576 269.568 
" style="fill:none;stroke:#00db92;stroke-width:1.5;"/>
    <path clip-path="url(#p51550d7537)" d="M 361.152 231.552 
L 374.4576 231.552 
" style="fill:none;stroke:#00b6a4;stroke-width:1.5;"/>
    <path clip-path="url(#p51550d7537)" d="M 361.152 193.536 
L 374.4576 193.536 
" style="fill:none;stroke:#0092b6;stroke-width:1.5;"/>
    <path clip-path="url(#p51550d7537)" d="M 361.152 155.52 
L 374.4576 155.52 
" style="fill:none;stroke:#006dc8;stroke-width:1.5;"/>
    <path clip-path="url(#p51550d7537)" d="M 361.152 117.504 
L 374.4576 117.504 
" style="fill:none;stroke:#0049db;stroke-width:1.5;"/>
    <path clip-path="url(#p51550d7537)" d="M 361.152 79.488 
L 374.4576 79.488 
" style="fill:none;stroke:#0024ed;stroke-width:1.5;"/>
    <path clip-path="url(#p51550d7537)" d="M 361.152 41.472 
L 374.4576 41.472 
" style="fill:none;stroke:#0000ff;stroke-width:1.5;"/>
   </g>
   <g id="patch_8">
    <path d="M 361.152 307.584 
L 361.152 269.568 
L 361.152 79.488 
L 361.152 41.472 
L 374.4576 41.472 
L 374.4576 79.488 
L 374.4576 269.568 
L 374.4576 307.584 
z
" style="fill:none;stroke:#000000;stroke-linejoin:miter;stroke-width:0.8;"/>
   </g>
  </g>
 </g>
 <defs>
  <clipPath id="p34776a00cb">
   <rect height="266.112" width="285.696" x="57.6" y="41.472"/>
  </clipPath>
  <clipPath id="p51550d7537">
   <rect height="266.112" width="13.3056" x="361.152" y="41.472"/>
  </clipPath>
 </defs>
</svg>
