<?xml version="1.0" encoding="utf-8" standalone="no"?>
<!DOCTYPE svg PUBLIC "-//W3C//DTD SVG 1.1//EN"
  "http://www.w3.org/Graphics/SVG/1.1/DTD/svg11.dtd">
<!-- Created with matplotlib (https://matplotlib.org/) -->
<svg height="345.6pt" version="1.1" viewBox="0 0 460.8 345.6" width="460.8pt" xmlns="http://www.w3.org/2000/svg" xmlns:xlink="http://www.w3.org/1999/xlink">
 <defs>
  <style type="text/css">
*{stroke-linecap:butt;stroke-linejoin:round;}
  </style>
 </defs>
 <g id="figure_1">
  <g id="patch_1">
   <path d="M 0 345.6 
L 460.8 345.6 
L 460.8 0 
L 0 0 
z
" style="fill:#ffffff;"/>
  </g>
  <g id="axes_1">
   <g id="patch_2">
    <path d="M 57.6 307.584 
L 343.296 307.584 
L 343.296 41.472 
L 57.6 41.472 
z
" style="fill:#ffffff;"/>
   </g>
   <g id="matplotlib.axis_1">
    <g id="xtick_1">
     <g id="line2d_1">
      <defs>
       <path d="M 0 0 
L 0 3.5 
" id="ma43251684b" style="stroke:#000000;stroke-width:0.8;"/>
      </defs>
      <g>
       <use style="stroke:#000000;stroke-width:0.8;" x="57.6" xlink:href="#ma43251684b" y="307.584"/>
      </g>
     </g>
     <g id="text_1">
      <!-- −10.0 -->
      <defs>
       <path d="M 10.59375 35.5 
L 73.1875 35.5 
L 73.1875 27.203125 
L 10.59375 27.203125 
z
" id="DejaVuSans-8722"/>
       <path d="M 12.40625 8.296875 
L 28.515625 8.296875 
L 28.515625 63.921875 
L 10.984375 60.40625 
L 10.984375 69.390625 
L 28.421875 72.90625 
L 38.28125 72.90625 
L 38.28125 8.296875 
L 54.390625 8.296875 
L 54.390625 0 
L 12.40625 0 
z
" id="DejaVuSans-49"/>
       <path d="M 31.78125 66.40625 
Q 24.171875 66.40625 20.328125 58.90625 
Q 16.5 51.421875 16.5 36.375 
Q 16.5 21.390625 20.328125 13.890625 
Q 24.171875 6.390625 31.78125 6.390625 
Q 39.453125 6.390625 43.28125 13.890625 
Q 47.125 21.390625 47.125 36.375 
Q 47.125 51.421875 43.28125 58.90625 
Q 39.453125 66.40625 31.78125 66.40625 
z
M 31.78125 74.21875 
Q 44.046875 74.21875 50.515625 64.515625 
Q 56.984375 54.828125 56.984375 36.375 
Q 56.984375 17.96875 50.515625 8.265625 
Q 44.046875 -1.421875 31.78125 -1.421875 
Q 19.53125 -1.421875 13.0625 8.265625 
Q 6.59375 17.96875 6.59375 36.375 
Q 6.59375 54.828125 13.0625 64.515625 
Q 19.53125 74.21875 31.78125 74.21875 
z
" id="DejaVuSans-48"/>
       <path d="M 10.6875 12.40625 
L 21 12.40625 
L 21 0 
L 10.6875 0 
z
" id="DejaVuSans-46"/>
      </defs>
      <g transform="translate(42.277344 322.182437)scale(0.1 -0.1)">
       <use xlink:href="#DejaVuSans-8722"/>
       <use x="83.789062" xlink:href="#DejaVuSans-49"/>
       <use x="147.412109" xlink:href="#DejaVuSans-48"/>
       <use x="211.035156" xlink:href="#DejaVuSans-46"/>
       <use x="242.822266" xlink:href="#DejaVuSans-48"/>
      </g>
     </g>
    </g>
    <g id="xtick_2">
     <g id="line2d_2">
      <g>
       <use style="stroke:#000000;stroke-width:0.8;" x="93.312" xlink:href="#ma43251684b" y="307.584"/>
      </g>
     </g>
     <g id="text_2">
      <!-- −7.5 -->
      <defs>
       <path d="M 8.203125 72.90625 
L 55.078125 72.90625 
L 55.078125 68.703125 
L 28.609375 0 
L 18.3125 0 
L 43.21875 64.59375 
L 8.203125 64.59375 
z
" id="DejaVuSans-55"/>
       <path d="M 10.796875 72.90625 
L 49.515625 72.90625 
L 49.515625 64.59375 
L 19.828125 64.59375 
L 19.828125 46.734375 
Q 21.96875 47.46875 24.109375 47.828125 
Q 26.265625 48.1875 28.421875 48.1875 
Q 40.625 48.1875 47.75 41.5 
Q 54.890625 34.8125 54.890625 23.390625 
Q 54.890625 11.625 47.5625 5.09375 
Q 40.234375 -1.421875 26.90625 -1.421875 
Q 22.3125 -1.421875 17.546875 -0.640625 
Q 12.796875 0.140625 7.71875 1.703125 
L 7.71875 11.625 
Q 12.109375 9.234375 16.796875 8.0625 
Q 21.484375 6.890625 26.703125 6.890625 
Q 35.15625 6.890625 40.078125 11.328125 
Q 45.015625 15.765625 45.015625 23.390625 
Q 45.015625 31 40.078125 35.4375 
Q 35.15625 39.890625 26.703125 39.890625 
Q 22.75 39.890625 18.8125 39.015625 
Q 14.890625 38.140625 10.796875 36.28125 
z
" id="DejaVuSans-53"/>
      </defs>
      <g transform="translate(81.170594 322.182437)scale(0.1 -0.1)">
       <use xlink:href="#DejaVuSans-8722"/>
       <use x="83.789062" xlink:href="#DejaVuSans-55"/>
       <use x="147.412109" xlink:href="#DejaVuSans-46"/>
       <use x="179.199219" xlink:href="#DejaVuSans-53"/>
      </g>
     </g>
    </g>
    <g id="xtick_3">
     <g id="line2d_3">
      <g>
       <use style="stroke:#000000;stroke-width:0.8;" x="129.024" xlink:href="#ma43251684b" y="307.584"/>
      </g>
     </g>
     <g id="text_3">
      <!-- −5.0 -->
      <g transform="translate(116.882594 322.182437)scale(0.1 -0.1)">
       <use xlink:href="#DejaVuSans-8722"/>
       <use x="83.789062" xlink:href="#DejaVuSans-53"/>
       <use x="147.412109" xlink:href="#DejaVuSans-46"/>
       <use x="179.199219" xlink:href="#DejaVuSans-48"/>
      </g>
     </g>
    </g>
    <g id="xtick_4">
     <g id="line2d_4">
      <g>
       <use style="stroke:#000000;stroke-width:0.8;" x="164.736" xlink:href="#ma43251684b" y="307.584"/>
      </g>
     </g>
     <g id="text_4">
      <!-- −2.5 -->
      <defs>
       <path d="M 19.1875 8.296875 
L 53.609375 8.296875 
L 53.609375 0 
L 7.328125 0 
L 7.328125 8.296875 
Q 12.9375 14.109375 22.625 23.890625 
Q 32.328125 33.6875 34.8125 36.53125 
Q 39.546875 41.84375 41.421875 45.53125 
Q 43.3125 49.21875 43.3125 52.78125 
Q 43.3125 58.59375 39.234375 62.25 
Q 35.15625 65.921875 28.609375 65.921875 
Q 23.96875 65.921875 18.8125 64.3125 
Q 13.671875 62.703125 7.8125 59.421875 
L 7.8125 69.390625 
Q 13.765625 71.78125 18.9375 73 
Q 24.125 74.21875 28.421875 74.21875 
Q 39.75 74.21875 46.484375 68.546875 
Q 53.21875 62.890625 53.21875 53.421875 
Q 53.21875 48.921875 51.53125 44.890625 
Q 49.859375 40.875 45.40625 35.40625 
Q 44.1875 33.984375 37.640625 27.21875 
Q 31.109375 20.453125 19.1875 8.296875 
z
" id="DejaVuSans-50"/>
      </defs>
      <g transform="translate(152.594594 322.182437)scale(0.1 -0.1)">
       <use xlink:href="#DejaVuSans-8722"/>
       <use x="83.789062" xlink:href="#DejaVuSans-50"/>
       <use x="147.412109" xlink:href="#DejaVuSans-46"/>
       <use x="179.199219" xlink:href="#DejaVuSans-53"/>
      </g>
     </g>
    </g>
    <g id="xtick_5">
     <g id="line2d_5">
      <g>
       <use style="stroke:#000000;stroke-width:0.8;" x="200.448" xlink:href="#ma43251684b" y="307.584"/>
      </g>
     </g>
     <g id="text_5">
      <!-- 0.0 -->
      <g transform="translate(192.496438 322.182437)scale(0.1 -0.1)">
       <use xlink:href="#DejaVuSans-48"/>
       <use x="63.623047" xlink:href="#DejaVuSans-46"/>
       <use x="95.410156" xlink:href="#DejaVuSans-48"/>
      </g>
     </g>
    </g>
    <g id="xtick_6">
     <g id="line2d_6">
      <g>
       <use style="stroke:#000000;stroke-width:0.8;" x="236.16" xlink:href="#ma43251684b" y="307.584"/>
      </g>
     </g>
     <g id="text_6">
      <!-- 2.5 -->
      <g transform="translate(228.208438 322.182437)scale(0.1 -0.1)">
       <use xlink:href="#DejaVuSans-50"/>
       <use x="63.623047" xlink:href="#DejaVuSans-46"/>
       <use x="95.410156" xlink:href="#DejaVuSans-53"/>
      </g>
     </g>
    </g>
    <g id="xtick_7">
     <g id="line2d_7">
      <g>
       <use style="stroke:#000000;stroke-width:0.8;" x="271.872" xlink:href="#ma43251684b" y="307.584"/>
      </g>
     </g>
     <g id="text_7">
      <!-- 5.0 -->
      <g transform="translate(263.920437 322.182437)scale(0.1 -0.1)">
       <use xlink:href="#DejaVuSans-53"/>
       <use x="63.623047" xlink:href="#DejaVuSans-46"/>
       <use x="95.410156" xlink:href="#DejaVuSans-48"/>
      </g>
     </g>
    </g>
    <g id="xtick_8">
     <g id="line2d_8">
      <g>
       <use style="stroke:#000000;stroke-width:0.8;" x="307.584" xlink:href="#ma43251684b" y="307.584"/>
      </g>
     </g>
     <g id="text_8">
      <!-- 7.5 -->
      <g transform="translate(299.632438 322.182437)scale(0.1 -0.1)">
       <use xlink:href="#DejaVuSans-55"/>
       <use x="63.623047" xlink:href="#DejaVuSans-46"/>
       <use x="95.410156" xlink:href="#DejaVuSans-53"/>
      </g>
     </g>
    </g>
    <g id="xtick_9">
     <g id="line2d_9">
      <g>
       <use style="stroke:#000000;stroke-width:0.8;" x="343.296" xlink:href="#ma43251684b" y="307.584"/>
      </g>
     </g>
     <g id="text_9">
      <!-- 10.0 -->
      <g transform="translate(332.163188 322.182437)scale(0.1 -0.1)">
       <use xlink:href="#DejaVuSans-49"/>
       <use x="63.623047" xlink:href="#DejaVuSans-48"/>
       <use x="127.246094" xlink:href="#DejaVuSans-46"/>
       <use x="159.033203" xlink:href="#DejaVuSans-48"/>
      </g>
     </g>
    </g>
   </g>
   <g id="matplotlib.axis_2">
    <g id="ytick_1">
     <g id="line2d_10">
      <defs>
       <path d="M 0 0 
L -3.5 0 
" id="m97f6af6e38" style="stroke:#000000;stroke-width:0.8;"/>
      </defs>
      <g>
       <use style="stroke:#000000;stroke-width:0.8;" x="57.6" xlink:href="#m97f6af6e38" y="307.584"/>
      </g>
     </g>
     <g id="text_10">
      <!-- −10.0 -->
      <g transform="translate(19.954687 311.383219)scale(0.1 -0.1)">
       <use xlink:href="#DejaVuSans-8722"/>
       <use x="83.789062" xlink:href="#DejaVuSans-49"/>
       <use x="147.412109" xlink:href="#DejaVuSans-48"/>
       <use x="211.035156" xlink:href="#DejaVuSans-46"/>
       <use x="242.822266" xlink:href="#DejaVuSans-48"/>
      </g>
     </g>
    </g>
    <g id="ytick_2">
     <g id="line2d_11">
      <g>
       <use style="stroke:#000000;stroke-width:0.8;" x="57.6" xlink:href="#m97f6af6e38" y="274.32"/>
      </g>
     </g>
     <g id="text_11">
      <!-- −7.5 -->
      <g transform="translate(26.317187 278.119219)scale(0.1 -0.1)">
       <use xlink:href="#DejaVuSans-8722"/>
       <use x="83.789062" xlink:href="#DejaVuSans-55"/>
       <use x="147.412109" xlink:href="#DejaVuSans-46"/>
       <use x="179.199219" xlink:href="#DejaVuSans-53"/>
      </g>
     </g>
    </g>
    <g id="ytick_3">
     <g id="line2d_12">
      <g>
       <use style="stroke:#000000;stroke-width:0.8;" x="57.6" xlink:href="#m97f6af6e38" y="241.056"/>
      </g>
     </g>
     <g id="text_12">
      <!-- −5.0 -->
      <g transform="translate(26.317187 244.855219)scale(0.1 -0.1)">
       <use xlink:href="#DejaVuSans-8722"/>
       <use x="83.789062" xlink:href="#DejaVuSans-53"/>
       <use x="147.412109" xlink:href="#DejaVuSans-46"/>
       <use x="179.199219" xlink:href="#DejaVuSans-48"/>
      </g>
     </g>
    </g>
    <g id="ytick_4">
     <g id="line2d_13">
      <g>
       <use style="stroke:#000000;stroke-width:0.8;" x="57.6" xlink:href="#m97f6af6e38" y="207.792"/>
      </g>
     </g>
     <g id="text_13">
      <!-- −2.5 -->
      <g transform="translate(26.317187 211.591219)scale(0.1 -0.1)">
       <use xlink:href="#DejaVuSans-8722"/>
       <use x="83.789062" xlink:href="#DejaVuSans-50"/>
       <use x="147.412109" xlink:href="#DejaVuSans-46"/>
       <use x="179.199219" xlink:href="#DejaVuSans-53"/>
      </g>
     </g>
    </g>
    <g id="ytick_5">
     <g id="line2d_14">
      <g>
       <use style="stroke:#000000;stroke-width:0.8;" x="57.6" xlink:href="#m97f6af6e38" y="174.528"/>
      </g>
     </g>
     <g id="text_14">
      <!-- 0.0 -->
      <g transform="translate(34.696875 178.327219)scale(0.1 -0.1)">
       <use xlink:href="#DejaVuSans-48"/>
       <use x="63.623047" xlink:href="#DejaVuSans-46"/>
       <use x="95.410156" xlink:href="#DejaVuSans-48"/>
      </g>
     </g>
    </g>
    <g id="ytick_6">
     <g id="line2d_15">
      <g>
       <use style="stroke:#000000;stroke-width:0.8;" x="57.6" xlink:href="#m97f6af6e38" y="141.264"/>
      </g>
     </g>
     <g id="text_15">
      <!-- 2.5 -->
      <g transform="translate(34.696875 145.063219)scale(0.1 -0.1)">
       <use xlink:href="#DejaVuSans-50"/>
       <use x="63.623047" xlink:href="#DejaVuSans-46"/>
       <use x="95.410156" xlink:href="#DejaVuSans-53"/>
      </g>
     </g>
    </g>
    <g id="ytick_7">
     <g id="line2d_16">
      <g>
       <use style="stroke:#000000;stroke-width:0.8;" x="57.6" xlink:href="#m97f6af6e38" y="108"/>
      </g>
     </g>
     <g id="text_16">
      <!-- 5.0 -->
      <g transform="translate(34.696875 111.799219)scale(0.1 -0.1)">
       <use xlink:href="#DejaVuSans-53"/>
       <use x="63.623047" xlink:href="#DejaVuSans-46"/>
       <use x="95.410156" xlink:href="#DejaVuSans-48"/>
      </g>
     </g>
    </g>
    <g id="ytick_8">
     <g id="line2d_17">
      <g>
       <use style="stroke:#000000;stroke-width:0.8;" x="57.6" xlink:href="#m97f6af6e38" y="74.736"/>
      </g>
     </g>
     <g id="text_17">
      <!-- 7.5 -->
      <g transform="translate(34.696875 78.535219)scale(0.1 -0.1)">
       <use xlink:href="#DejaVuSans-55"/>
       <use x="63.623047" xlink:href="#DejaVuSans-46"/>
       <use x="95.410156" xlink:href="#DejaVuSans-53"/>
      </g>
     </g>
    </g>
    <g id="ytick_9">
     <g id="line2d_18">
      <g>
       <use style="stroke:#000000;stroke-width:0.8;" x="57.6" xlink:href="#m97f6af6e38" y="41.472"/>
      </g>
     </g>
     <g id="text_18">
      <!-- 10.0 -->
      <g transform="translate(28.334375 45.271219)scale(0.1 -0.1)">
       <use xlink:href="#DejaVuSans-49"/>
       <use x="63.623047" xlink:href="#DejaVuSans-48"/>
       <use x="127.246094" xlink:href="#DejaVuSans-46"/>
       <use x="159.033203" xlink:href="#DejaVuSans-48"/>
      </g>
     </g>
    </g>
   </g>
   <g id="LineCollection_1"/>
   <g id="LineCollection_2">
    <path clip-path="url(#pa3292fa544)" d="M 236.637804 307.584 
L 236.520727 307.529162 
L 233.634909 306.178637 
L 230.802271 304.896 
L 230.749091 304.871071 
L 227.863273 303.518529 
L 224.977455 302.210719 
L 224.971459 302.208 
L 222.091636 300.856422 
L 219.205818 299.546779 
L 219.146816 299.52 
L 216.32 298.192314 
L 213.434182 296.880905 
L 213.326509 296.832 
L 210.548364 295.526206 
L 207.662545 294.213097 
L 207.510529 294.144 
L 204.776727 292.858095 
L 201.890909 291.543353 
L 201.698868 291.456 
L 199.005091 290.187982 
L 196.119273 288.871673 
L 195.891521 288.768 
L 193.233455 287.515865 
L 190.347636 286.198057 
L 190.088477 286.08 
L 187.461818 284.841743 
L 184.576 283.522502 
L 184.289731 283.392 
L 181.690182 282.165616 
L 178.804364 280.845009 
L 178.495274 280.704 
L 175.918545 279.487482 
L 173.032727 278.165577 
L 172.705098 278.016 
L 170.146909 276.807341 
L 167.261091 275.484204 
L 166.919197 275.328 
L 164.375273 274.125192 
L 161.489455 272.80089 
L 161.137563 272.64 
L 158.603636 271.441034 
L 155.717818 270.115634 
L 155.360187 269.952 
L 152.832 268.754866 
L 149.946182 267.428435 
L 149.587063 267.264 
L 147.060364 266.066687 
L 144.174545 264.739292 
L 143.818184 264.576 
L 141.288727 263.376496 
L 138.402909 262.048205 
L 138.05354 261.888 
L 135.517091 260.684292 
L 132.631273 259.355173 
L 132.293126 259.2 
L 129.745455 257.990075 
L 126.859636 256.660194 
L 126.536934 256.512 
L 123.973818 255.293843 
L 121.088 253.963268 
L 120.784956 253.824 
L 118.202182 252.595595 
L 115.316364 251.264394 
L 115.037184 251.136 
L 112.430545 249.895332 
L 109.544727 248.563572 
L 109.293612 248.448 
L 106.658909 247.193051 
L 103.773091 245.8608 
L 103.554233 245.76 
L 100.887273 244.488752 
L 98.001455 243.156078 
L 97.819037 243.072 
L 95.115636 241.782434 
L 92.229818 240.449404 
L 92.08802 240.384 
L 89.344 239.074095 
L 86.458182 237.740778 
L 86.361172 237.696 
L 83.572364 236.363736 
L 80.686545 235.030199 
L 80.638487 235.008 
L 77.800727 233.651356 
L 74.920134 232.32 
L 74.914909 232.3175 
L 72.029091 230.936952 
L 69.207754 229.632 
L 69.143273 229.60112 
L 66.257455 228.220525 
L 63.499657 226.944 
L 63.371636 226.882645 
L 60.485818 225.502073 
L 57.795835 224.256 
L 57.6 224.162073 
" style="fill:none;stroke:#00e38e;stroke-width:1.5;"/>
    <path clip-path="url(#pa3292fa544)" d="M 164.258196 41.472 
L 164.375273 41.526838 
L 167.261091 42.877363 
L 170.093729 44.16 
L 170.146909 44.184929 
L 173.032727 45.537471 
L 175.918545 46.845281 
L 175.924541 46.848 
L 178.804364 48.199578 
L 181.690182 49.509221 
L 181.749184 49.536 
L 184.576 50.863686 
L 187.461818 52.175095 
L 187.569491 52.224 
L 190.347636 53.529794 
L 193.233455 54.842903 
L 193.385471 54.912 
L 196.119273 56.197905 
L 199.005091 57.512647 
L 199.197132 57.6 
L 201.890909 58.868018 
L 204.776727 60.184327 
L 205.004479 60.288 
L 207.662545 61.540135 
L 210.548364 62.857943 
L 210.807523 62.976 
L 213.434182 64.214257 
L 216.32 65.533498 
L 216.606269 65.664 
L 219.205818 66.890384 
L 222.091636 68.210991 
L 222.400726 68.352 
L 224.977455 69.568518 
L 227.863273 70.890423 
L 228.190902 71.04 
L 230.749091 72.248659 
L 233.634909 73.571796 
L 233.976803 73.728 
L 236.520727 74.930808 
L 239.406545 76.25511 
L 239.758437 76.416 
L 242.292364 77.614966 
L 245.178182 78.940366 
L 245.535813 79.104 
L 248.064 80.301134 
L 250.949818 81.627565 
L 251.308937 81.792 
L 253.835636 82.989313 
L 256.721455 84.316708 
L 257.077816 84.48 
L 259.607273 85.679504 
L 262.493091 87.007795 
L 262.84246 87.168 
L 265.378909 88.371708 
L 268.264727 89.700827 
L 268.602874 89.856 
L 271.150545 91.065925 
L 274.036364 92.395806 
L 274.359066 92.544 
L 276.922182 93.762157 
L 279.808 95.092732 
L 280.111044 95.232 
L 282.693818 96.460405 
L 285.579636 97.791606 
L 285.858816 97.92 
L 288.465455 99.160668 
L 291.351273 100.492428 
L 291.602388 100.608 
L 294.237091 101.862949 
L 297.122909 103.1952 
L 297.341767 103.296 
L 300.008727 104.567248 
L 302.894545 105.899922 
L 303.076963 105.984 
L 305.780364 107.273566 
L 308.666182 108.606596 
L 308.80798 108.672 
L 311.552 109.981905 
L 314.437818 111.315222 
L 314.534828 111.36 
L 317.323636 112.692264 
L 320.209455 114.025801 
L 320.257513 114.048 
L 323.095273 115.404644 
L 325.975866 116.736 
L 325.981091 116.7385 
L 328.866909 118.119048 
L 331.688246 119.424 
L 331.752727 119.45488 
L 334.638545 120.835475 
L 337.396343 122.112 
L 337.524364 122.173355 
L 340.410182 123.553927 
L 343.100165 124.8 
L 343.296 124.893927 
" style="fill:none;stroke:#00e38e;stroke-width:1.5;"/>
   </g>
   <g id="LineCollection_3">
    <path clip-path="url(#pa3292fa544)" d="M 188.446376 307.584 
L 187.461818 307.120502 
L 184.576 305.774967 
L 182.654829 304.896 
L 181.690182 304.441672 
L 178.804364 303.095287 
L 176.865868 302.208 
L 175.918545 301.761632 
L 173.032727 300.414431 
L 171.079492 299.52 
L 170.146909 299.080381 
L 167.261091 297.732399 
L 165.295697 296.832 
L 164.375273 296.397919 
L 161.489455 295.049189 
L 159.514481 294.144 
L 158.603636 293.714245 
L 155.717818 292.364803 
L 153.735841 291.456 
L 152.832 291.029359 
L 149.946182 289.679239 
L 147.959774 288.768 
L 147.060364 288.343261 
L 144.174545 286.992497 
L 142.186277 286.08 
L 141.288727 285.65595 
L 138.402909 284.304577 
L 136.415348 283.392 
L 135.517091 282.967427 
L 132.631273 281.615478 
L 130.646983 280.704 
L 129.745455 280.27769 
L 126.859636 278.925201 
L 124.881181 278.016 
L 123.973818 277.58674 
L 121.088 276.233745 
L 119.117939 275.328 
L 118.202182 274.894576 
L 115.316364 273.541109 
L 113.357253 272.64 
L 112.430545 272.201198 
L 109.544727 270.847294 
L 107.599121 269.952 
L 106.658909 269.506605 
L 103.773091 268.152299 
L 101.843541 267.264 
L 100.887273 266.810797 
L 98.001455 265.456124 
L 96.090509 264.576 
L 95.115636 264.113774 
L 92.229818 262.758768 
L 90.340023 261.888 
L 89.344 261.415536 
L 86.458182 260.060231 
L 84.59208 259.2 
L 83.572364 258.716082 
L 80.686545 257.360513 
L 78.846677 256.512 
L 77.800727 256.015411 
L 74.914909 254.659614 
L 73.103812 253.824 
L 72.029091 253.313524 
L 69.143273 251.957532 
L 67.363483 251.136 
L 66.257455 250.61042 
L 63.371636 249.254269 
L 61.625685 248.448 
L 60.485818 247.906099 
L 57.6 246.549823 
" style="fill:none;stroke:#00c79c;stroke-width:1.5;"/>
    <path clip-path="url(#pa3292fa544)" d="M 212.449624 41.472 
L 213.434182 41.935498 
L 216.32 43.281033 
L 218.241171 44.16 
L 219.205818 44.614328 
L 222.091636 45.960713 
L 224.030132 46.848 
L 224.977455 47.294368 
L 227.863273 48.641569 
L 229.816508 49.536 
L 230.749091 49.975619 
L 233.634909 51.323601 
L 235.600303 52.224 
L 236.520727 52.658081 
L 239.406545 54.006811 
L 241.381519 54.912 
L 242.292364 55.341755 
L 245.178182 56.691197 
L 247.160159 57.6 
L 248.064 58.026641 
L 250.949818 59.376761 
L 252.936226 60.288 
L 253.835636 60.712739 
L 256.721455 62.063503 
L 258.709723 62.976 
L 259.607273 63.40005 
L 262.493091 64.751423 
L 264.480652 65.664 
L 265.378909 66.088573 
L 268.264727 67.440522 
L 270.249017 68.352 
L 271.150545 68.77831 
L 274.036364 70.130799 
L 276.014819 71.04 
L 276.922182 71.46926 
L 279.808 72.822255 
L 281.778061 73.728 
L 282.693818 74.161424 
L 285.579636 75.514891 
L 287.538747 76.416 
L 288.465455 76.854802 
L 291.351273 78.208706 
L 293.296879 79.104 
L 294.237091 79.549395 
L 297.122909 80.903701 
L 299.052459 81.792 
L 300.008727 82.245203 
L 302.894545 83.599876 
L 304.805491 84.48 
L 305.780364 84.942226 
L 308.666182 86.297232 
L 310.555977 87.168 
L 311.552 87.640464 
L 314.437818 88.995769 
L 316.30392 89.856 
L 317.323636 90.339918 
L 320.209455 91.695487 
L 322.049323 92.544 
L 323.095273 93.040589 
L 325.981091 94.396386 
L 327.792188 95.232 
L 328.866909 95.742476 
L 331.752727 97.098468 
L 333.532517 97.92 
L 334.638545 98.44558 
L 337.524364 99.801731 
L 339.270315 100.608 
L 340.410182 101.149901 
L 343.296 102.506177 
" style="fill:none;stroke:#00c79c;stroke-width:1.5;"/>
   </g>
   <g id="LineCollection_4">
    <path clip-path="url(#pa3292fa544)" d="M 156.352604 307.584 
L 155.717818 307.284854 
L 152.832 305.932554 
L 150.574728 304.896 
L 149.946182 304.599696 
L 147.060364 303.246887 
L 144.798753 302.208 
L 144.174545 301.913645 
L 141.288727 300.560349 
L 139.024676 299.52 
L 138.402909 299.226699 
L 135.517091 297.872939 
L 133.252497 296.832 
L 132.631273 296.538858 
L 129.745455 295.184658 
L 127.482214 294.144 
L 126.859636 293.850123 
L 123.973818 292.495505 
L 121.713826 291.456 
L 121.088 291.160492 
L 118.202182 289.80548 
L 115.94733 288.768 
L 115.316364 288.469967 
L 112.430545 287.114584 
L 110.182726 286.08 
L 109.544727 285.778546 
L 106.658909 284.422815 
L 104.420011 283.392 
L 103.773091 283.08623 
L 100.887273 281.730173 
L 98.659185 280.704 
L 98.001455 280.393018 
L 95.115636 279.036659 
L 92.900246 278.016 
L 92.229818 277.69891 
L 89.344 276.342272 
L 87.143193 275.328 
L 86.458182 275.003906 
L 83.572364 273.647013 
L 81.388023 272.64 
L 80.686545 272.308006 
L 77.800727 270.95088 
L 75.634737 269.952 
L 74.914909 269.61121 
L 72.029091 268.253874 
L 69.883331 267.264 
L 69.143273 266.913517 
L 66.257455 265.555995 
L 64.133804 264.576 
L 63.371636 264.214927 
L 60.485818 262.857242 
L 58.386156 261.888 
L 57.6 261.515441 
" style="fill:none;stroke:#00aaaa;stroke-width:1.5;"/>
    <path clip-path="url(#pa3292fa544)" d="M 244.543396 41.472 
L 245.178182 41.771146 
L 248.064 43.123446 
L 250.321272 44.16 
L 250.949818 44.456304 
L 253.835636 45.809113 
L 256.097247 46.848 
L 256.721455 47.142355 
L 259.607273 48.495651 
L 261.871324 49.536 
L 262.493091 49.829301 
L 265.378909 51.183061 
L 267.643503 52.224 
L 268.264727 52.517142 
L 271.150545 53.871342 
L 273.413786 54.912 
L 274.036364 55.205877 
L 276.922182 56.560495 
L 279.182174 57.6 
L 279.808 57.895508 
L 282.693818 59.25052 
L 284.94867 60.288 
L 285.579636 60.586033 
L 288.465455 61.941416 
L 290.713274 62.976 
L 291.351273 63.277454 
L 294.237091 64.633185 
L 296.475989 65.664 
L 297.122909 65.96977 
L 300.008727 67.325827 
L 302.236815 68.352 
L 302.894545 68.662982 
L 305.780364 70.019341 
L 307.995754 71.04 
L 308.666182 71.35709 
L 311.552 72.713728 
L 313.752807 73.728 
L 314.437818 74.052094 
L 317.323636 75.408987 
L 319.507977 76.416 
L 320.209455 76.747994 
L 323.095273 78.10512 
L 325.261263 79.104 
L 325.981091 79.44479 
L 328.866909 80.802126 
L 331.012669 81.792 
L 331.752727 82.142483 
L 334.638545 83.500005 
L 336.762196 84.48 
L 337.524364 84.841073 
L 340.410182 86.198758 
L 342.509844 87.168 
L 343.296 87.540559 
" style="fill:none;stroke:#00aaaa;stroke-width:1.5;"/>
   </g>
   <g id="LineCollection_5">
    <path clip-path="url(#pa3292fa544)" d="M 131.587562 307.584 
L 129.745455 306.715674 
L 126.859636 305.376182 
L 125.816144 304.896 
L 123.973818 304.027343 
L 121.088 302.687511 
L 120.046237 302.208 
L 118.202182 301.338299 
L 115.316364 299.998145 
L 114.277839 299.52 
L 112.430545 298.648543 
L 109.544727 297.308084 
L 108.51095 296.832 
L 106.658909 295.958075 
L 103.773091 294.617327 
L 102.745568 294.144 
L 100.887273 293.266893 
L 98.001455 291.925874 
L 96.981694 291.456 
L 95.115636 290.574999 
L 92.229818 289.233726 
L 91.219324 288.768 
L 89.344 287.882392 
L 86.458182 286.540881 
L 85.45846 286.08 
L 83.572364 285.189071 
L 80.686545 283.847341 
L 79.699099 283.392 
L 77.800727 282.495037 
L 74.914909 281.153104 
L 73.941242 280.704 
L 72.029091 279.80029 
L 69.143273 278.458171 
L 68.184886 278.016 
L 66.257455 277.10483 
L 63.371636 275.762542 
L 62.430031 275.328 
L 60.485818 274.408655 
L 57.6 273.066216 
" style="fill:none;stroke:#008eb8;stroke-width:1.5;"/>
    <path clip-path="url(#pa3292fa544)" d="M 269.308438 41.472 
L 271.150545 42.340326 
L 274.036364 43.679818 
L 275.079856 44.16 
L 276.922182 45.028657 
L 279.808 46.368489 
L 280.849763 46.848 
L 282.693818 47.717701 
L 285.579636 49.057855 
L 286.618161 49.536 
L 288.465455 50.407457 
L 291.351273 51.747916 
L 292.38505 52.224 
L 294.237091 53.097925 
L 297.122909 54.438673 
L 298.150432 54.912 
L 300.008727 55.789107 
L 302.894545 57.130126 
L 303.914306 57.6 
L 305.780364 58.481001 
L 308.666182 59.822274 
L 309.676676 60.288 
L 311.552 61.173608 
L 314.437818 62.515119 
L 315.43754 62.976 
L 317.323636 63.866929 
L 320.209455 65.208659 
L 321.196901 65.664 
L 323.095273 66.560963 
L 325.981091 67.902896 
L 326.954758 68.352 
L 328.866909 69.25571 
L 331.752727 70.597829 
L 332.711114 71.04 
L 334.638545 71.95117 
L 337.524364 73.293458 
L 338.465969 73.728 
L 340.410182 74.647345 
L 343.296 75.989784 
" style="fill:none;stroke:#008eb8;stroke-width:1.5;"/>
   </g>
   <g id="LineCollection_6">
    <path clip-path="url(#pa3292fa544)" d="M 111.134699 307.584 
L 109.544727 306.834536 
L 106.658909 305.491294 
L 105.366876 304.896 
L 103.773091 304.144571 
L 100.887273 302.801079 
L 99.600332 302.208 
L 98.001455 301.454003 
L 95.115636 300.110274 
L 93.835065 299.52 
L 92.229818 298.762831 
L 89.344 297.418879 
L 88.071075 296.832 
L 86.458182 296.071055 
L 83.572364 294.726894 
L 82.308362 294.144 
L 80.686545 293.378675 
L 77.800727 292.034319 
L 76.546924 291.456 
L 74.914909 290.685692 
L 72.029091 289.341154 
L 70.78676 288.768 
L 69.143273 287.992104 
L 66.257455 286.647398 
L 65.027871 286.08 
L 63.371636 285.297912 
L 60.485818 283.953052 
L 59.270256 283.392 
L 57.6 282.603116 
" style="fill:none;stroke:#0071c6;stroke-width:1.5;"/>
    <path clip-path="url(#pa3292fa544)" d="M 289.761301 41.472 
L 291.351273 42.221464 
L 294.237091 43.564706 
L 295.529124 44.16 
L 297.122909 44.911429 
L 300.008727 46.254921 
L 301.295668 46.848 
L 302.894545 47.601997 
L 305.780364 48.945726 
L 307.060935 49.536 
L 308.666182 50.293169 
L 311.552 51.637121 
L 312.824925 52.224 
L 314.437818 52.984945 
L 317.323636 54.329106 
L 318.587638 54.912 
L 320.209455 55.677325 
L 323.095273 57.021681 
L 324.349076 57.6 
L 325.981091 58.370308 
L 328.866909 59.714846 
L 330.10924 60.288 
L 331.752727 61.063896 
L 334.638545 62.408602 
L 335.868129 62.976 
L 337.524364 63.758088 
L 340.410182 65.102948 
L 341.625744 65.664 
L 343.296 66.452884 
" style="fill:none;stroke:#0071c6;stroke-width:1.5;"/>
   </g>
   <g id="LineCollection_7">
    <path clip-path="url(#pa3292fa544)" d="M 93.565884 307.584 
L 92.229818 306.954287 
L 89.344 305.607868 
L 87.800302 304.896 
L 86.458182 304.263311 
L 83.572364 302.916699 
L 82.035835 302.208 
L 80.686545 301.571807 
L 77.800727 300.225014 
L 76.272484 299.52 
L 74.914909 298.879776 
L 72.029091 297.532813 
L 70.510248 296.832 
L 69.143273 296.187218 
L 66.257455 294.840096 
L 64.749127 294.144 
L 63.371636 293.494132 
L 60.485818 292.146862 
L 58.989119 291.456 
L 57.6 290.800519 
" style="fill:none;stroke:#0055d4;stroke-width:1.5;"/>
    <path clip-path="url(#pa3292fa544)" d="M 307.330116 41.472 
L 308.666182 42.101713 
L 311.552 43.448132 
L 313.095698 44.16 
L 314.437818 44.792689 
L 317.323636 46.139301 
L 318.860165 46.848 
L 320.209455 47.484193 
L 323.095273 48.830986 
L 324.623516 49.536 
L 325.981091 50.176224 
L 328.866909 51.523187 
L 330.385752 52.224 
L 331.752727 52.868782 
L 334.638545 54.215904 
L 336.146873 54.912 
L 337.524364 55.561868 
L 340.410182 56.909138 
L 341.906881 57.6 
L 343.296 58.255481 
" style="fill:none;stroke:#0055d4;stroke-width:1.5;"/>
   </g>
   <g id="LineCollection_8">
    <path clip-path="url(#pa3292fa544)" d="M 78.074951 307.584 
L 77.800727 307.454771 
L 74.914909 306.097569 
L 72.310903 304.896 
L 72.029091 304.763172 
L 69.143273 303.405814 
L 66.547855 302.208 
L 66.257455 302.0711 
L 63.371636 300.713595 
L 60.785808 299.52 
L 60.485818 299.378554 
L 57.6 298.020913 
" style="fill:none;stroke:#0038e3;stroke-width:1.5;"/>
    <path clip-path="url(#pa3292fa544)" d="M 322.821049 41.472 
L 323.095273 41.601229 
L 325.981091 42.958431 
L 328.585097 44.16 
L 328.866909 44.292828 
L 331.752727 45.650186 
L 334.348145 46.848 
L 334.638545 46.9849 
L 337.524364 48.342405 
L 340.110192 49.536 
L 340.410182 49.677446 
L 343.296 51.035087 
" style="fill:none;stroke:#0038e3;stroke-width:1.5;"/>
   </g>
   <g id="LineCollection_9">
    <path clip-path="url(#pa3292fa544)" d="M 64.176616 307.584 
L 63.371636 307.204713 
L 60.485818 305.852723 
L 58.413557 304.896 
L 57.6 304.512611 
" style="fill:none;stroke:#001cf1;stroke-width:1.5;"/>
    <path clip-path="url(#pa3292fa544)" d="M 336.719384 41.472 
L 337.524364 41.851287 
L 340.410182 43.203277 
L 342.482443 44.16 
L 343.296 44.543389 
" style="fill:none;stroke:#001cf1;stroke-width:1.5;"/>
   </g>
   <g id="LineCollection_10"/>
   <g id="patch_3">
    <path d="M 57.6 307.584 
L 57.6 41.472 
" style="fill:none;stroke:#000000;stroke-linecap:square;stroke-linejoin:miter;stroke-width:0.8;"/>
   </g>
   <g id="patch_4">
    <path d="M 343.296 307.584 
L 343.296 41.472 
" style="fill:none;stroke:#000000;stroke-linecap:square;stroke-linejoin:miter;stroke-width:0.8;"/>
   </g>
   <g id="patch_5">
    <path d="M 57.6 307.584 
L 343.296 307.584 
" style="fill:none;stroke:#000000;stroke-linecap:square;stroke-linejoin:miter;stroke-width:0.8;"/>
   </g>
   <g id="patch_6">
    <path d="M 57.6 41.472 
L 343.296 41.472 
" style="fill:none;stroke:#000000;stroke-linecap:square;stroke-linejoin:miter;stroke-width:0.8;"/>
   </g>
  </g>
  <g id="axes_2">
   <g id="patch_7">
    <path clip-path="url(#p7262462d85)" d="M 361.152 307.584 
L 361.152 278.016 
L 361.152 71.04 
L 361.152 41.472 
L 374.4576 41.472 
L 374.4576 71.04 
L 374.4576 278.016 
L 374.4576 307.584 
z
" style="fill:#ffffff;stroke:#ffffff;stroke-linejoin:miter;stroke-width:0.01;"/>
   </g>
   <g id="matplotlib.axis_3"/>
   <g id="matplotlib.axis_4">
    <g id="ytick_10">
     <g id="line2d_19">
      <defs>
       <path d="M 0 0 
L 3.5 0 
" id="mfe8c8c2070" style="stroke:#000000;stroke-width:0.8;"/>
      </defs>
      <g>
       <use style="stroke:#000000;stroke-width:0.8;" x="374.4576" xlink:href="#mfe8c8c2070" y="307.584"/>
      </g>
     </g>
     <g id="text_19">
      <!-- 0 -->
      <g transform="translate(381.4576 311.383219)scale(0.1 -0.1)">
       <use xlink:href="#DejaVuSans-48"/>
      </g>
     </g>
    </g>
    <g id="ytick_11">
     <g id="line2d_20">
      <g>
       <use style="stroke:#000000;stroke-width:0.8;" x="374.4576" xlink:href="#mfe8c8c2070" y="278.016"/>
      </g>
     </g>
     <g id="text_20">
      <!-- 6000 -->
      <defs>
       <path d="M 33.015625 40.375 
Q 26.375 40.375 22.484375 35.828125 
Q 18.609375 31.296875 18.609375 23.390625 
Q 18.609375 15.53125 22.484375 10.953125 
Q 26.375 6.390625 33.015625 6.390625 
Q 39.65625 6.390625 43.53125 10.953125 
Q 47.40625 15.53125 47.40625 23.390625 
Q 47.40625 31.296875 43.53125 35.828125 
Q 39.65625 40.375 33.015625 40.375 
z
M 52.59375 71.296875 
L 52.59375 62.3125 
Q 48.875 64.0625 45.09375 64.984375 
Q 41.3125 65.921875 37.59375 65.921875 
Q 27.828125 65.921875 22.671875 59.328125 
Q 17.53125 52.734375 16.796875 39.40625 
Q 19.671875 43.65625 24.015625 45.921875 
Q 28.375 48.1875 33.59375 48.1875 
Q 44.578125 48.1875 50.953125 41.515625 
Q 57.328125 34.859375 57.328125 23.390625 
Q 57.328125 12.15625 50.6875 5.359375 
Q 44.046875 -1.421875 33.015625 -1.421875 
Q 20.359375 -1.421875 13.671875 8.265625 
Q 6.984375 17.96875 6.984375 36.375 
Q 6.984375 53.65625 15.1875 63.9375 
Q 23.390625 74.21875 37.203125 74.21875 
Q 40.921875 74.21875 44.703125 73.484375 
Q 48.484375 72.75 52.59375 71.296875 
z
" id="DejaVuSans-54"/>
      </defs>
      <g transform="translate(381.4576 281.815219)scale(0.1 -0.1)">
       <use xlink:href="#DejaVuSans-54"/>
       <use x="63.623047" xlink:href="#DejaVuSans-48"/>
       <use x="127.246094" xlink:href="#DejaVuSans-48"/>
       <use x="190.869141" xlink:href="#DejaVuSans-48"/>
      </g>
     </g>
    </g>
    <g id="ytick_12">
     <g id="line2d_21">
      <g>
       <use style="stroke:#000000;stroke-width:0.8;" x="374.4576" xlink:href="#mfe8c8c2070" y="248.448"/>
      </g>
     </g>
     <g id="text_21">
      <!-- 12000 -->
      <g transform="translate(381.4576 252.247219)scale(0.1 -0.1)">
       <use xlink:href="#DejaVuSans-49"/>
       <use x="63.623047" xlink:href="#DejaVuSans-50"/>
       <use x="127.246094" xlink:href="#DejaVuSans-48"/>
       <use x="190.869141" xlink:href="#DejaVuSans-48"/>
       <use x="254.492188" xlink:href="#DejaVuSans-48"/>
      </g>
     </g>
    </g>
    <g id="ytick_13">
     <g id="line2d_22">
      <g>
       <use style="stroke:#000000;stroke-width:0.8;" x="374.4576" xlink:href="#mfe8c8c2070" y="218.88"/>
      </g>
     </g>
     <g id="text_22">
      <!-- 18000 -->
      <defs>
       <path d="M 31.78125 34.625 
Q 24.75 34.625 20.71875 30.859375 
Q 16.703125 27.09375 16.703125 20.515625 
Q 16.703125 13.921875 20.71875 10.15625 
Q 24.75 6.390625 31.78125 6.390625 
Q 38.8125 6.390625 42.859375 10.171875 
Q 46.921875 13.96875 46.921875 20.515625 
Q 46.921875 27.09375 42.890625 30.859375 
Q 38.875 34.625 31.78125 34.625 
z
M 21.921875 38.8125 
Q 15.578125 40.375 12.03125 44.71875 
Q 8.5 49.078125 8.5 55.328125 
Q 8.5 64.0625 14.71875 69.140625 
Q 20.953125 74.21875 31.78125 74.21875 
Q 42.671875 74.21875 48.875 69.140625 
Q 55.078125 64.0625 55.078125 55.328125 
Q 55.078125 49.078125 51.53125 44.71875 
Q 48 40.375 41.703125 38.8125 
Q 48.828125 37.15625 52.796875 32.3125 
Q 56.78125 27.484375 56.78125 20.515625 
Q 56.78125 9.90625 50.3125 4.234375 
Q 43.84375 -1.421875 31.78125 -1.421875 
Q 19.734375 -1.421875 13.25 4.234375 
Q 6.78125 9.90625 6.78125 20.515625 
Q 6.78125 27.484375 10.78125 32.3125 
Q 14.796875 37.15625 21.921875 38.8125 
z
M 18.3125 54.390625 
Q 18.3125 48.734375 21.84375 45.5625 
Q 25.390625 42.390625 31.78125 42.390625 
Q 38.140625 42.390625 41.71875 45.5625 
Q 45.3125 48.734375 45.3125 54.390625 
Q 45.3125 60.0625 41.71875 63.234375 
Q 38.140625 66.40625 31.78125 66.40625 
Q 25.390625 66.40625 21.84375 63.234375 
Q 18.3125 60.0625 18.3125 54.390625 
z
" id="DejaVuSans-56"/>
      </defs>
      <g transform="translate(381.4576 222.679219)scale(0.1 -0.1)">
       <use xlink:href="#DejaVuSans-49"/>
       <use x="63.623047" xlink:href="#DejaVuSans-56"/>
       <use x="127.246094" xlink:href="#DejaVuSans-48"/>
       <use x="190.869141" xlink:href="#DejaVuSans-48"/>
       <use x="254.492188" xlink:href="#DejaVuSans-48"/>
      </g>
     </g>
    </g>
    <g id="ytick_14">
     <g id="line2d_23">
      <g>
       <use style="stroke:#000000;stroke-width:0.8;" x="374.4576" xlink:href="#mfe8c8c2070" y="189.312"/>
      </g>
     </g>
     <g id="text_23">
      <!-- 24000 -->
      <defs>
       <path d="M 37.796875 64.3125 
L 12.890625 25.390625 
L 37.796875 25.390625 
z
M 35.203125 72.90625 
L 47.609375 72.90625 
L 47.609375 25.390625 
L 58.015625 25.390625 
L 58.015625 17.1875 
L 47.609375 17.1875 
L 47.609375 0 
L 37.796875 0 
L 37.796875 17.1875 
L 4.890625 17.1875 
L 4.890625 26.703125 
z
" id="DejaVuSans-52"/>
      </defs>
      <g transform="translate(381.4576 193.111219)scale(0.1 -0.1)">
       <use xlink:href="#DejaVuSans-50"/>
       <use x="63.623047" xlink:href="#DejaVuSans-52"/>
       <use x="127.246094" xlink:href="#DejaVuSans-48"/>
       <use x="190.869141" xlink:href="#DejaVuSans-48"/>
       <use x="254.492188" xlink:href="#DejaVuSans-48"/>
      </g>
     </g>
    </g>
    <g id="ytick_15">
     <g id="line2d_24">
      <g>
       <use style="stroke:#000000;stroke-width:0.8;" x="374.4576" xlink:href="#mfe8c8c2070" y="159.744"/>
      </g>
     </g>
     <g id="text_24">
      <!-- 30000 -->
      <defs>
       <path d="M 40.578125 39.3125 
Q 47.65625 37.796875 51.625 33 
Q 55.609375 28.21875 55.609375 21.1875 
Q 55.609375 10.40625 48.1875 4.484375 
Q 40.765625 -1.421875 27.09375 -1.421875 
Q 22.515625 -1.421875 17.65625 -0.515625 
Q 12.796875 0.390625 7.625 2.203125 
L 7.625 11.71875 
Q 11.71875 9.328125 16.59375 8.109375 
Q 21.484375 6.890625 26.8125 6.890625 
Q 36.078125 6.890625 40.9375 10.546875 
Q 45.796875 14.203125 45.796875 21.1875 
Q 45.796875 27.640625 41.28125 31.265625 
Q 36.765625 34.90625 28.71875 34.90625 
L 20.21875 34.90625 
L 20.21875 43.015625 
L 29.109375 43.015625 
Q 36.375 43.015625 40.234375 45.921875 
Q 44.09375 48.828125 44.09375 54.296875 
Q 44.09375 59.90625 40.109375 62.90625 
Q 36.140625 65.921875 28.71875 65.921875 
Q 24.65625 65.921875 20.015625 65.03125 
Q 15.375 64.15625 9.8125 62.3125 
L 9.8125 71.09375 
Q 15.4375 72.65625 20.34375 73.4375 
Q 25.25 74.21875 29.59375 74.21875 
Q 40.828125 74.21875 47.359375 69.109375 
Q 53.90625 64.015625 53.90625 55.328125 
Q 53.90625 49.265625 50.4375 45.09375 
Q 46.96875 40.921875 40.578125 39.3125 
z
" id="DejaVuSans-51"/>
      </defs>
      <g transform="translate(381.4576 163.543219)scale(0.1 -0.1)">
       <use xlink:href="#DejaVuSans-51"/>
       <use x="63.623047" xlink:href="#DejaVuSans-48"/>
       <use x="127.246094" xlink:href="#DejaVuSans-48"/>
       <use x="190.869141" xlink:href="#DejaVuSans-48"/>
       <use x="254.492188" xlink:href="#DejaVuSans-48"/>
      </g>
     </g>
    </g>
    <g id="ytick_16">
     <g id="line2d_25">
      <g>
       <use style="stroke:#000000;stroke-width:0.8;" x="374.4576" xlink:href="#mfe8c8c2070" y="130.176"/>
      </g>
     </g>
     <g id="text_25">
      <!-- 36000 -->
      <g transform="translate(381.4576 133.975219)scale(0.1 -0.1)">
       <use xlink:href="#DejaVuSans-51"/>
       <use x="63.623047" xlink:href="#DejaVuSans-54"/>
       <use x="127.246094" xlink:href="#DejaVuSans-48"/>
       <use x="190.869141" xlink:href="#DejaVuSans-48"/>
       <use x="254.492188" xlink:href="#DejaVuSans-48"/>
      </g>
     </g>
    </g>
    <g id="ytick_17">
     <g id="line2d_26">
      <g>
       <use style="stroke:#000000;stroke-width:0.8;" x="374.4576" xlink:href="#mfe8c8c2070" y="100.608"/>
      </g>
     </g>
     <g id="text_26">
      <!-- 42000 -->
      <g transform="translate(381.4576 104.407219)scale(0.1 -0.1)">
       <use xlink:href="#DejaVuSans-52"/>
       <use x="63.623047" xlink:href="#DejaVuSans-50"/>
       <use x="127.246094" xlink:href="#DejaVuSans-48"/>
       <use x="190.869141" xlink:href="#DejaVuSans-48"/>
       <use x="254.492188" xlink:href="#DejaVuSans-48"/>
      </g>
     </g>
    </g>
    <g id="ytick_18">
     <g id="line2d_27">
      <g>
       <use style="stroke:#000000;stroke-width:0.8;" x="374.4576" xlink:href="#mfe8c8c2070" y="71.04"/>
      </g>
     </g>
     <g id="text_27">
      <!-- 48000 -->
      <g transform="translate(381.4576 74.839219)scale(0.1 -0.1)">
       <use xlink:href="#DejaVuSans-52"/>
       <use x="63.623047" xlink:href="#DejaVuSans-56"/>
       <use x="127.246094" xlink:href="#DejaVuSans-48"/>
       <use x="190.869141" xlink:href="#DejaVuSans-48"/>
       <use x="254.492188" xlink:href="#DejaVuSans-48"/>
      </g>
     </g>
    </g>
    <g id="ytick_19">
     <g id="line2d_28">
      <g>
       <use style="stroke:#000000;stroke-width:0.8;" x="374.4576" xlink:href="#mfe8c8c2070" y="41.472"/>
      </g>
     </g>
     <g id="text_28">
      <!-- 54000 -->
      <g transform="translate(381.4576 45.271219)scale(0.1 -0.1)">
       <use xlink:href="#DejaVuSans-53"/>
       <use x="63.623047" xlink:href="#DejaVuSans-52"/>
       <use x="127.246094" xlink:href="#DejaVuSans-48"/>
       <use x="190.869141" xlink:href="#DejaVuSans-48"/>
       <use x="254.492188" xlink:href="#DejaVuSans-48"/>
      </g>
     </g>
    </g>
   </g>
   <g id="LineCollection_11">
    <path clip-path="url(#p7262462d85)" d="M 361.152 307.584 
L 374.4576 307.584 
" style="fill:none;stroke:#00ff80;stroke-width:1.5;"/>
    <path clip-path="url(#p7262462d85)" d="M 361.152 278.016 
L 374.4576 278.016 
" style="fill:none;stroke:#00e38e;stroke-width:1.5;"/>
    <path clip-path="url(#p7262462d85)" d="M 361.152 248.448 
L 374.4576 248.448 
" style="fill:none;stroke:#00c79c;stroke-width:1.5;"/>
    <path clip-path="url(#p7262462d85)" d="M 361.152 218.88 
L 374.4576 218.88 
" style="fill:none;stroke:#00aaaa;stroke-width:1.5;"/>
    <path clip-path="url(#p7262462d85)" d="M 361.152 189.312 
L 374.4576 189.312 
" style="fill:none;stroke:#008eb8;stroke-width:1.5;"/>
    <path clip-path="url(#p7262462d85)" d="M 361.152 159.744 
L 374.4576 159.744 
" style="fill:none;stroke:#0071c6;stroke-width:1.5;"/>
    <path clip-path="url(#p7262462d85)" d="M 361.152 130.176 
L 374.4576 130.176 
" style="fill:none;stroke:#0055d4;stroke-width:1.5;"/>
    <path clip-path="url(#p7262462d85)" d="M 361.152 100.608 
L 374.4576 100.608 
" style="fill:none;stroke:#0038e3;stroke-width:1.5;"/>
    <path clip-path="url(#p7262462d85)" d="M 361.152 71.04 
L 374.4576 71.04 
" style="fill:none;stroke:#001cf1;stroke-width:1.5;"/>
    <path clip-path="url(#p7262462d85)" d="M 361.152 41.472 
L 374.4576 41.472 
" style="fill:none;stroke:#0000ff;stroke-width:1.5;"/>
   </g>
   <g id="patch_8">
    <path d="M 361.152 307.584 
L 361.152 278.016 
L 361.152 71.04 
L 361.152 41.472 
L 374.4576 41.472 
L 374.4576 71.04 
L 374.4576 278.016 
L 374.4576 307.584 
z
" style="fill:none;stroke:#000000;stroke-linejoin:miter;stroke-width:0.8;"/>
   </g>
  </g>
 </g>
 <defs>
  <clipPath id="pa3292fa544">
   <rect height="266.112" width="285.696" x="57.6" y="41.472"/>
  </clipPath>
  <clipPath id="p7262462d85">
   <rect height="266.112" width="13.3056" x="361.152" y="41.472"/>
  </clipPath>
 </defs>
</svg>
