<?xml version="1.0" encoding="utf-8" standalone="no"?>
<!DOCTYPE svg PUBLIC "-//W3C//DTD SVG 1.1//EN"
  "http://www.w3.org/Graphics/SVG/1.1/DTD/svg11.dtd">
<!-- Created with matplotlib (https://matplotlib.org/) -->
<svg height="345.6pt" version="1.1" viewBox="0 0 460.8 345.6" width="460.8pt" xmlns="http://www.w3.org/2000/svg" xmlns:xlink="http://www.w3.org/1999/xlink">
 <defs>
  <style type="text/css">
*{stroke-linecap:butt;stroke-linejoin:round;}
  </style>
 </defs>
 <g id="figure_1">
  <g id="patch_1">
   <path d="M 0 345.6 
L 460.8 345.6 
L 460.8 0 
L 0 0 
z
" style="fill:#ffffff;"/>
  </g>
  <g id="axes_1">
   <g id="patch_2">
    <path d="M 57.6 307.584 
L 343.296 307.584 
L 343.296 41.472 
L 57.6 41.472 
z
" style="fill:#ffffff;"/>
   </g>
   <g id="matplotlib.axis_1">
    <g id="xtick_1">
     <g id="line2d_1">
      <defs>
       <path d="M 0 0 
L 0 3.5 
" id="m6c171e1f60" style="stroke:#000000;stroke-width:0.8;"/>
      </defs>
      <g>
       <use style="stroke:#000000;stroke-width:0.8;" x="57.6" xlink:href="#m6c171e1f60" y="307.584"/>
      </g>
     </g>
     <g id="text_1">
      <!-- 0 -->
      <defs>
       <path d="M 31.78125 66.40625 
Q 24.171875 66.40625 20.328125 58.90625 
Q 16.5 51.421875 16.5 36.375 
Q 16.5 21.390625 20.328125 13.890625 
Q 24.171875 6.390625 31.78125 6.390625 
Q 39.453125 6.390625 43.28125 13.890625 
Q 47.125 21.390625 47.125 36.375 
Q 47.125 51.421875 43.28125 58.90625 
Q 39.453125 66.40625 31.78125 66.40625 
z
M 31.78125 74.21875 
Q 44.046875 74.21875 50.515625 64.515625 
Q 56.984375 54.828125 56.984375 36.375 
Q 56.984375 17.96875 50.515625 8.265625 
Q 44.046875 -1.421875 31.78125 -1.421875 
Q 19.53125 -1.421875 13.0625 8.265625 
Q 6.59375 17.96875 6.59375 36.375 
Q 6.59375 54.828125 13.0625 64.515625 
Q 19.53125 74.21875 31.78125 74.21875 
z
" id="DejaVuSans-48"/>
      </defs>
      <g transform="translate(54.41875 322.182437)scale(0.1 -0.1)">
       <use xlink:href="#DejaVuSans-48"/>
      </g>
     </g>
    </g>
    <g id="xtick_2">
     <g id="line2d_2">
      <g>
       <use style="stroke:#000000;stroke-width:0.8;" x="114.7392" xlink:href="#m6c171e1f60" y="307.584"/>
      </g>
     </g>
     <g id="text_2">
      <!-- 2 -->
      <defs>
       <path d="M 19.1875 8.296875 
L 53.609375 8.296875 
L 53.609375 0 
L 7.328125 0 
L 7.328125 8.296875 
Q 12.9375 14.109375 22.625 23.890625 
Q 32.328125 33.6875 34.8125 36.53125 
Q 39.546875 41.84375 41.421875 45.53125 
Q 43.3125 49.21875 43.3125 52.78125 
Q 43.3125 58.59375 39.234375 62.25 
Q 35.15625 65.921875 28.609375 65.921875 
Q 23.96875 65.921875 18.8125 64.3125 
Q 13.671875 62.703125 7.8125 59.421875 
L 7.8125 69.390625 
Q 13.765625 71.78125 18.9375 73 
Q 24.125 74.21875 28.421875 74.21875 
Q 39.75 74.21875 46.484375 68.546875 
Q 53.21875 62.890625 53.21875 53.421875 
Q 53.21875 48.921875 51.53125 44.890625 
Q 49.859375 40.875 45.40625 35.40625 
Q 44.1875 33.984375 37.640625 27.21875 
Q 31.109375 20.453125 19.1875 8.296875 
z
" id="DejaVuSans-50"/>
      </defs>
      <g transform="translate(111.55795 322.182437)scale(0.1 -0.1)">
       <use xlink:href="#DejaVuSans-50"/>
      </g>
     </g>
    </g>
    <g id="xtick_3">
     <g id="line2d_3">
      <g>
       <use style="stroke:#000000;stroke-width:0.8;" x="171.8784" xlink:href="#m6c171e1f60" y="307.584"/>
      </g>
     </g>
     <g id="text_3">
      <!-- 4 -->
      <defs>
       <path d="M 37.796875 64.3125 
L 12.890625 25.390625 
L 37.796875 25.390625 
z
M 35.203125 72.90625 
L 47.609375 72.90625 
L 47.609375 25.390625 
L 58.015625 25.390625 
L 58.015625 17.1875 
L 47.609375 17.1875 
L 47.609375 0 
L 37.796875 0 
L 37.796875 17.1875 
L 4.890625 17.1875 
L 4.890625 26.703125 
z
" id="DejaVuSans-52"/>
      </defs>
      <g transform="translate(168.69715 322.182437)scale(0.1 -0.1)">
       <use xlink:href="#DejaVuSans-52"/>
      </g>
     </g>
    </g>
    <g id="xtick_4">
     <g id="line2d_4">
      <g>
       <use style="stroke:#000000;stroke-width:0.8;" x="229.0176" xlink:href="#m6c171e1f60" y="307.584"/>
      </g>
     </g>
     <g id="text_4">
      <!-- 6 -->
      <defs>
       <path d="M 33.015625 40.375 
Q 26.375 40.375 22.484375 35.828125 
Q 18.609375 31.296875 18.609375 23.390625 
Q 18.609375 15.53125 22.484375 10.953125 
Q 26.375 6.390625 33.015625 6.390625 
Q 39.65625 6.390625 43.53125 10.953125 
Q 47.40625 15.53125 47.40625 23.390625 
Q 47.40625 31.296875 43.53125 35.828125 
Q 39.65625 40.375 33.015625 40.375 
z
M 52.59375 71.296875 
L 52.59375 62.3125 
Q 48.875 64.0625 45.09375 64.984375 
Q 41.3125 65.921875 37.59375 65.921875 
Q 27.828125 65.921875 22.671875 59.328125 
Q 17.53125 52.734375 16.796875 39.40625 
Q 19.671875 43.65625 24.015625 45.921875 
Q 28.375 48.1875 33.59375 48.1875 
Q 44.578125 48.1875 50.953125 41.515625 
Q 57.328125 34.859375 57.328125 23.390625 
Q 57.328125 12.15625 50.6875 5.359375 
Q 44.046875 -1.421875 33.015625 -1.421875 
Q 20.359375 -1.421875 13.671875 8.265625 
Q 6.984375 17.96875 6.984375 36.375 
Q 6.984375 53.65625 15.1875 63.9375 
Q 23.390625 74.21875 37.203125 74.21875 
Q 40.921875 74.21875 44.703125 73.484375 
Q 48.484375 72.75 52.59375 71.296875 
z
" id="DejaVuSans-54"/>
      </defs>
      <g transform="translate(225.83635 322.182437)scale(0.1 -0.1)">
       <use xlink:href="#DejaVuSans-54"/>
      </g>
     </g>
    </g>
    <g id="xtick_5">
     <g id="line2d_5">
      <g>
       <use style="stroke:#000000;stroke-width:0.8;" x="286.1568" xlink:href="#m6c171e1f60" y="307.584"/>
      </g>
     </g>
     <g id="text_5">
      <!-- 8 -->
      <defs>
       <path d="M 31.78125 34.625 
Q 24.75 34.625 20.71875 30.859375 
Q 16.703125 27.09375 16.703125 20.515625 
Q 16.703125 13.921875 20.71875 10.15625 
Q 24.75 6.390625 31.78125 6.390625 
Q 38.8125 6.390625 42.859375 10.171875 
Q 46.921875 13.96875 46.921875 20.515625 
Q 46.921875 27.09375 42.890625 30.859375 
Q 38.875 34.625 31.78125 34.625 
z
M 21.921875 38.8125 
Q 15.578125 40.375 12.03125 44.71875 
Q 8.5 49.078125 8.5 55.328125 
Q 8.5 64.0625 14.71875 69.140625 
Q 20.953125 74.21875 31.78125 74.21875 
Q 42.671875 74.21875 48.875 69.140625 
Q 55.078125 64.0625 55.078125 55.328125 
Q 55.078125 49.078125 51.53125 44.71875 
Q 48 40.375 41.703125 38.8125 
Q 48.828125 37.15625 52.796875 32.3125 
Q 56.78125 27.484375 56.78125 20.515625 
Q 56.78125 9.90625 50.3125 4.234375 
Q 43.84375 -1.421875 31.78125 -1.421875 
Q 19.734375 -1.421875 13.25 4.234375 
Q 6.78125 9.90625 6.78125 20.515625 
Q 6.78125 27.484375 10.78125 32.3125 
Q 14.796875 37.15625 21.921875 38.8125 
z
M 18.3125 54.390625 
Q 18.3125 48.734375 21.84375 45.5625 
Q 25.390625 42.390625 31.78125 42.390625 
Q 38.140625 42.390625 41.71875 45.5625 
Q 45.3125 48.734375 45.3125 54.390625 
Q 45.3125 60.0625 41.71875 63.234375 
Q 38.140625 66.40625 31.78125 66.40625 
Q 25.390625 66.40625 21.84375 63.234375 
Q 18.3125 60.0625 18.3125 54.390625 
z
" id="DejaVuSans-56"/>
      </defs>
      <g transform="translate(282.97555 322.182437)scale(0.1 -0.1)">
       <use xlink:href="#DejaVuSans-56"/>
      </g>
     </g>
    </g>
    <g id="xtick_6">
     <g id="line2d_6">
      <g>
       <use style="stroke:#000000;stroke-width:0.8;" x="343.296" xlink:href="#m6c171e1f60" y="307.584"/>
      </g>
     </g>
     <g id="text_6">
      <!-- 10 -->
      <defs>
       <path d="M 12.40625 8.296875 
L 28.515625 8.296875 
L 28.515625 63.921875 
L 10.984375 60.40625 
L 10.984375 69.390625 
L 28.421875 72.90625 
L 38.28125 72.90625 
L 38.28125 8.296875 
L 54.390625 8.296875 
L 54.390625 0 
L 12.40625 0 
z
" id="DejaVuSans-49"/>
      </defs>
      <g transform="translate(336.9335 322.182437)scale(0.1 -0.1)">
       <use xlink:href="#DejaVuSans-49"/>
       <use x="63.623047" xlink:href="#DejaVuSans-48"/>
      </g>
     </g>
    </g>
   </g>
   <g id="matplotlib.axis_2">
    <g id="ytick_1">
     <g id="line2d_7">
      <defs>
       <path d="M 0 0 
L -3.5 0 
" id="mdcb43cdf04" style="stroke:#000000;stroke-width:0.8;"/>
      </defs>
      <g>
       <use style="stroke:#000000;stroke-width:0.8;" x="57.6" xlink:href="#mdcb43cdf04" y="307.584"/>
      </g>
     </g>
     <g id="text_7">
      <!-- 0 -->
      <g transform="translate(44.2375 311.383219)scale(0.1 -0.1)">
       <use xlink:href="#DejaVuSans-48"/>
      </g>
     </g>
    </g>
    <g id="ytick_2">
     <g id="line2d_8">
      <g>
       <use style="stroke:#000000;stroke-width:0.8;" x="57.6" xlink:href="#mdcb43cdf04" y="254.3616"/>
      </g>
     </g>
     <g id="text_8">
      <!-- 2 -->
      <g transform="translate(44.2375 258.160819)scale(0.1 -0.1)">
       <use xlink:href="#DejaVuSans-50"/>
      </g>
     </g>
    </g>
    <g id="ytick_3">
     <g id="line2d_9">
      <g>
       <use style="stroke:#000000;stroke-width:0.8;" x="57.6" xlink:href="#mdcb43cdf04" y="201.1392"/>
      </g>
     </g>
     <g id="text_9">
      <!-- 4 -->
      <g transform="translate(44.2375 204.938419)scale(0.1 -0.1)">
       <use xlink:href="#DejaVuSans-52"/>
      </g>
     </g>
    </g>
    <g id="ytick_4">
     <g id="line2d_10">
      <g>
       <use style="stroke:#000000;stroke-width:0.8;" x="57.6" xlink:href="#mdcb43cdf04" y="147.9168"/>
      </g>
     </g>
     <g id="text_10">
      <!-- 6 -->
      <g transform="translate(44.2375 151.716019)scale(0.1 -0.1)">
       <use xlink:href="#DejaVuSans-54"/>
      </g>
     </g>
    </g>
    <g id="ytick_5">
     <g id="line2d_11">
      <g>
       <use style="stroke:#000000;stroke-width:0.8;" x="57.6" xlink:href="#mdcb43cdf04" y="94.6944"/>
      </g>
     </g>
     <g id="text_11">
      <!-- 8 -->
      <g transform="translate(44.2375 98.493619)scale(0.1 -0.1)">
       <use xlink:href="#DejaVuSans-56"/>
      </g>
     </g>
    </g>
    <g id="ytick_6">
     <g id="line2d_12">
      <g>
       <use style="stroke:#000000;stroke-width:0.8;" x="57.6" xlink:href="#mdcb43cdf04" y="41.472"/>
      </g>
     </g>
     <g id="text_12">
      <!-- 10 -->
      <g transform="translate(37.875 45.271219)scale(0.1 -0.1)">
       <use xlink:href="#DejaVuSans-49"/>
       <use x="63.623047" xlink:href="#DejaVuSans-48"/>
      </g>
     </g>
    </g>
   </g>
   <g id="LineCollection_1"/>
   <g id="LineCollection_2">
    <path clip-path="url(#p84ad6489e8)" d="M 276.922182 114.874714 
L 274.589232 114.048 
L 274.036364 113.818628 
L 271.150545 112.158362 
L 270.088967 111.36 
L 268.264727 109.660809 
L 267.407612 108.672 
L 265.625161 105.984 
L 265.378909 105.46903 
L 264.491354 103.296 
L 263.795355 100.608 
L 263.475503 97.92 
L 263.519811 95.232 
L 263.935217 92.544 
L 264.748775 89.856 
L 265.378909 88.49188 
L 266.097757 87.168 
L 268.137401 84.48 
L 268.264727 84.350131 
L 271.150545 81.980332 
L 271.44946 81.792 
L 274.036364 80.464938 
L 276.922182 79.418394 
L 278.283728 79.104 
L 279.808 78.801939 
L 282.693818 78.536699 
L 285.579636 78.573442 
L 288.465455 78.917921 
L 289.274482 79.104 
L 291.351273 79.662349 
L 294.237091 80.85916 
L 295.852483 81.792 
L 297.122909 82.69783 
L 299.036234 84.48 
L 300.008727 85.663341 
L 301.010218 87.168 
L 302.295106 89.856 
L 302.894545 91.79043 
L 303.094318 92.544 
L 303.464149 95.232 
L 303.503596 97.92 
L 303.218836 100.608 
L 302.894545 102.027786 
L 302.557015 103.296 
L 301.433451 105.984 
L 300.008727 108.393575 
L 299.806535 108.672 
L 297.262335 111.36 
L 297.122909 111.478599 
L 294.237091 113.378428 
L 292.815783 114.048 
L 291.351273 114.63494 
L 288.465455 115.392729 
L 285.579636 115.77966 
L 282.693818 115.820931 
L 279.808 115.523004 
L 276.922182 114.874714 
" style="fill:none;stroke:#00df90;stroke-width:1.5;"/>
   </g>
   <g id="LineCollection_3">
    <path clip-path="url(#p84ad6489e8)" d="M 196.119273 194.75001 
L 193.687143 194.688 
L 193.233455 194.674605 
L 190.347636 194.105233 
L 187.461818 193.031505 
L 185.607994 192 
L 184.576 191.284131 
L 182.458734 189.312 
L 181.690182 188.350747 
L 180.582766 186.624 
L 179.430018 183.936 
L 178.818744 181.248 
L 178.804364 180.825412 
L 178.73779 178.56 
L 178.804364 178.080215 
L 179.161635 175.872 
L 180.155553 173.184 
L 181.690182 170.636113 
L 181.795173 170.496 
L 184.576 167.868729 
L 184.662256 167.808 
L 187.461818 166.287439 
L 190.347636 165.250919 
L 191.028581 165.12 
L 193.233455 164.769602 
L 196.119273 164.700883 
L 199.005091 165.027611 
L 199.367827 165.12 
L 201.890909 165.903301 
L 204.776727 167.36151 
L 205.404716 167.808 
L 207.662545 169.911059 
L 208.141894 170.496 
L 209.707418 173.184 
L 210.548364 175.534129 
L 210.647552 175.872 
L 210.998325 178.56 
L 210.924549 181.248 
L 210.548364 183.301733 
L 210.40781 183.936 
L 209.295009 186.624 
L 207.662545 189.231657 
L 207.597347 189.312 
L 204.776727 191.902206 
L 204.626303 192 
L 201.890909 193.429433 
L 199.005091 194.355219 
L 196.634366 194.688 
L 196.119273 194.75001 
" style="fill:none;stroke:#00bfa0;stroke-width:1.5;"/>
    <path clip-path="url(#p84ad6489e8)" d="M 279.808 124.912006 
L 278.786126 124.8 
L 276.922182 124.580951 
L 274.036364 124.046521 
L 271.150545 123.287244 
L 268.264727 122.260479 
L 267.930293 122.112 
L 265.378909 120.820399 
L 263.222701 119.424 
L 262.493091 118.867838 
L 260.204364 116.736 
L 259.607273 116.056404 
L 258.108108 114.048 
L 256.721455 111.67151 
L 256.562049 111.36 
L 255.459721 108.672 
L 254.644566 105.984 
L 254.070806 103.296 
L 253.835636 101.559827 
L 253.715388 100.608 
L 253.557352 97.92 
L 253.579244 95.232 
L 253.784493 92.544 
L 253.835636 92.195205 
L 254.204552 89.856 
L 254.860694 87.168 
L 255.79347 84.48 
L 256.721455 82.49421 
L 257.093418 81.792 
L 258.933716 79.104 
L 259.607273 78.32706 
L 261.584284 76.416 
L 262.493091 75.702351 
L 265.378909 73.871334 
L 265.659069 73.728 
L 268.264727 72.588163 
L 271.150545 71.627905 
L 273.522611 71.04 
L 274.036364 70.926534 
L 276.922182 70.462414 
L 279.808 70.169898 
L 282.693818 70.03547 
L 285.579636 70.054092 
L 288.465455 70.228679 
L 291.351273 70.570603 
L 293.913369 71.04 
L 294.237091 71.106082 
L 297.122909 71.91864 
L 300.008727 73.030658 
L 301.403086 73.728 
L 302.894545 74.609019 
L 305.274483 76.416 
L 305.780364 76.887203 
L 307.720326 79.104 
L 308.666182 80.493223 
L 309.414844 81.792 
L 310.608699 84.48 
L 311.481055 87.168 
L 311.552 87.469531 
L 312.055941 89.856 
L 312.423028 92.544 
L 312.610464 95.232 
L 312.630457 97.92 
L 312.486136 100.608 
L 312.172092 103.296 
L 311.673816 105.984 
L 311.552 106.462535 
L 310.920829 108.672 
L 309.889903 111.36 
L 308.666182 113.787045 
L 308.512299 114.048 
L 306.546532 116.736 
L 305.780364 117.58251 
L 303.728663 119.424 
L 302.894545 120.051386 
L 300.008727 121.765534 
L 299.254839 122.112 
L 297.122909 122.976373 
L 294.237091 123.845208 
L 291.351273 124.456373 
L 288.839918 124.8 
L 288.465455 124.847638 
L 285.579636 125.038817 
L 282.693818 125.059209 
L 279.808 124.912006 
" style="fill:none;stroke:#00bfa0;stroke-width:1.5;"/>
   </g>
   <g id="LineCollection_4">
    <path clip-path="url(#p84ad6489e8)" d="M 343.296 206.916865 
L 341.976772 205.44 
L 340.410182 203.223726 
L 340.126885 202.752 
L 338.795628 200.064 
L 337.786197 197.376 
L 337.524364 196.505402 
L 337.029207 194.688 
L 336.457971 192 
L 336.029932 189.312 
L 335.721685 186.624 
L 335.518051 183.936 
L 335.410068 181.248 
L 335.393935 178.56 
L 335.47064 175.872 
L 335.646217 173.184 
L 335.932697 170.496 
L 336.350032 167.808 
L 336.929592 165.12 
L 337.524364 163.061866 
L 337.72618 162.432 
L 338.838412 159.744 
L 340.383879 157.056 
L 340.410182 157.019166 
L 342.694601 154.368 
L 343.296 153.830327 
" style="fill:none;stroke:#009fb0;stroke-width:1.5;"/>
    <path clip-path="url(#p84ad6489e8)" d="M 343.296 46.65421 
L 340.410182 44.56602 
L 339.974282 44.16 
L 337.732415 41.472 
" style="fill:none;stroke:#009fb0;stroke-width:1.5;"/>
    <path clip-path="url(#p84ad6489e8)" d="M 222.668879 41.472 
L 222.091636 42.032174 
L 219.245363 44.16 
L 219.205818 44.1845 
L 216.32 45.624027 
L 213.434182 46.660018 
L 212.757962 46.848 
L 210.548364 47.402001 
L 207.662545 47.941833 
L 204.776727 48.330561 
L 201.890909 48.597402 
L 199.005091 48.760944 
L 196.119273 48.832391 
L 193.233455 48.817364 
L 190.347636 48.716783 
L 187.461818 48.527108 
L 184.576 48.239991 
L 181.690182 47.841293 
L 178.804364 47.309214 
L 176.853214 46.848 
L 175.918545 46.604114 
L 173.032727 45.663878 
L 170.146909 44.423877 
L 169.640468 44.16 
L 167.261091 42.700797 
L 165.675539 41.472 
" style="fill:none;stroke:#009fb0;stroke-width:1.5;"/>
    <path clip-path="url(#p84ad6489e8)" d="M 276.922182 283.888582 
L 274.472294 283.392 
L 274.036364 283.297802 
L 271.150545 282.434125 
L 268.264727 281.266182 
L 267.170458 280.704 
L 265.378909 279.663713 
L 263.128474 278.016 
L 262.493091 277.468911 
L 260.436215 275.328 
L 259.607273 274.264716 
L 258.521635 272.64 
L 257.122796 269.952 
L 256.721455 268.93465 
L 256.131196 267.264 
L 255.458071 264.576 
L 255.046514 261.888 
L 254.880771 259.2 
L 254.959555 256.512 
L 255.296677 253.824 
L 255.924042 251.136 
L 256.721455 248.917324 
L 256.909948 248.448 
L 258.418924 245.76 
L 259.607273 244.213966 
L 260.643037 243.072 
L 262.493091 241.501368 
L 264.117624 240.384 
L 265.378909 239.683787 
L 268.264727 238.40891 
L 270.370448 237.696 
L 271.150545 237.471581 
L 274.036364 236.833216 
L 276.922182 236.383893 
L 279.808 236.100702 
L 282.693818 235.97056 
L 285.579636 235.988588 
L 288.465455 236.15761 
L 291.351273 236.488633 
L 294.237091 237.002471 
L 296.983256 237.696 
L 297.122909 237.737231 
L 300.008727 238.852829 
L 302.894545 240.3599 
L 302.931924 240.384 
L 305.780364 242.690851 
L 306.158856 243.072 
L 308.214146 245.76 
L 308.666182 246.563319 
L 309.575632 248.448 
L 310.486584 251.136 
L 311.073312 253.824 
L 311.388598 256.512 
L 311.462279 259.2 
L 311.307271 261.888 
L 310.922372 264.576 
L 310.292848 267.264 
L 309.389097 269.952 
L 308.666182 271.574823 
L 308.115619 272.64 
L 306.341634 275.328 
L 305.780364 276.020964 
L 303.812552 278.016 
L 302.894545 278.796638 
L 300.049561 280.704 
L 300.008727 280.727984 
L 297.122909 282.08051 
L 294.237091 283.068808 
L 292.919914 283.392 
L 291.351273 283.7516 
L 288.465455 284.184521 
L 285.579636 284.405572 
L 282.693818 284.42915 
L 279.808 284.258946 
L 276.922182 283.888582 
" style="fill:none;stroke:#009fb0;stroke-width:1.5;"/>
    <path clip-path="url(#p84ad6489e8)" d="M 181.690182 208.966446 
L 178.997165 208.128 
L 178.804364 208.061922 
L 175.918545 206.831056 
L 173.398095 205.44 
L 173.032727 205.208361 
L 170.146909 202.96677 
L 169.916334 202.752 
L 167.509777 200.064 
L 167.261091 199.723678 
L 165.767663 197.376 
L 164.446214 194.688 
L 164.375273 194.508415 
L 163.475122 192 
L 162.749507 189.312 
L 162.226963 186.624 
L 161.881761 183.936 
L 161.698708 181.248 
L 161.671359 178.56 
L 161.80139 175.872 
L 162.09903 173.184 
L 162.584672 170.496 
L 163.292143 167.808 
L 164.274619 165.12 
L 164.375273 164.903855 
L 165.664858 162.432 
L 167.261091 160.146794 
L 167.587119 159.744 
L 170.146909 157.258167 
L 170.398014 157.056 
L 173.032727 155.318881 
L 174.861038 154.368 
L 175.918545 153.901895 
L 178.804364 152.875314 
L 181.690182 152.092957 
L 183.695831 151.68 
L 184.576 151.517761 
L 187.461818 151.122489 
L 190.347636 150.861364 
L 193.233455 150.722896 
L 196.119273 150.702208 
L 199.005091 150.800569 
L 201.890909 151.025715 
L 204.776727 151.393074 
L 206.355615 151.68 
L 207.662545 151.945125 
L 210.548364 152.738883 
L 213.434182 153.82203 
L 214.56227 154.368 
L 216.32 155.380599 
L 218.549805 157.056 
L 219.205818 157.667045 
L 221.004517 159.744 
L 222.091636 161.38124 
L 222.677786 162.432 
L 223.840646 165.12 
L 224.692818 167.808 
L 224.977455 169.025342 
L 225.285496 170.496 
L 225.67989 173.184 
L 225.921605 175.872 
L 226.027205 178.56 
L 226.004995 181.248 
L 225.856336 183.936 
L 225.575994 186.624 
L 225.151633 189.312 
L 224.977455 190.131834 
L 224.534107 192 
L 223.694174 194.688 
L 222.592044 197.376 
L 222.091636 198.361017 
L 221.070777 200.064 
L 219.205818 202.518108 
L 218.988773 202.752 
L 216.32 205.136321 
L 215.887563 205.44 
L 213.434182 206.926814 
L 210.780416 208.128 
L 210.548364 208.221754 
L 207.662545 209.136883 
L 204.776727 209.795858 
L 201.890909 210.24821 
L 199.005091 210.525447 
L 196.119273 210.646565 
L 193.233455 210.621091 
L 190.347636 210.450586 
L 187.461818 210.129046 
L 184.576 209.642322 
L 181.690182 208.966446 
" style="fill:none;stroke:#009fb0;stroke-width:1.5;"/>
    <path clip-path="url(#p84ad6489e8)" d="M 282.693818 132.879367 
L 282.039122 132.864 
L 279.808 132.810421 
L 276.922182 132.65993 
L 274.036364 132.421153 
L 271.150545 132.081916 
L 268.264727 131.62317 
L 265.378909 131.016073 
L 262.493091 130.21692 
L 262.370562 130.176 
L 259.607273 129.132119 
L 256.721455 127.668113 
L 256.43001 127.488 
L 253.835636 125.565448 
L 253.013856 124.8 
L 250.949818 122.383466 
L 250.75645 122.112 
L 249.184703 119.424 
L 248.064 116.85013 
L 248.020068 116.736 
L 247.162103 114.048 
L 246.510329 111.36 
L 246.017822 108.672 
L 245.65362 105.984 
L 245.39727 103.296 
L 245.235704 100.608 
L 245.178182 98.529818 
L 245.161684 97.92 
L 245.171829 95.232 
L 245.178182 95.05047 
L 245.268171 92.544 
L 245.457027 89.856 
L 245.750184 87.168 
L 246.166937 84.48 
L 246.73728 81.792 
L 247.507762 79.104 
L 248.064 77.60947 
L 248.564738 76.416 
L 250.042644 73.728 
L 250.949818 72.473142 
L 252.195047 71.04 
L 253.835636 69.573163 
L 255.56651 68.352 
L 256.721455 67.687759 
L 259.607273 66.380896 
L 261.685843 65.664 
L 262.493091 65.423239 
L 265.378909 64.725445 
L 268.264727 64.195347 
L 271.150545 63.794784 
L 274.036364 63.498574 
L 276.922182 63.290081 
L 279.808 63.158677 
L 282.693818 63.098289 
L 285.579636 63.106655 
L 288.465455 63.185083 
L 291.351273 63.338682 
L 294.237091 63.577111 
L 297.122909 63.916062 
L 300.008727 64.37993 
L 302.894545 65.006574 
L 305.174326 65.664 
L 305.780364 65.865412 
L 308.666182 67.094249 
L 310.820957 68.352 
L 311.552 68.87667 
L 313.874536 71.04 
L 314.437818 71.720931 
L 315.788131 73.728 
L 317.107402 76.416 
L 317.323636 76.980495 
L 318.029445 79.104 
L 318.702205 81.792 
L 319.200211 84.48 
L 319.564106 87.168 
L 319.820081 89.856 
L 319.984984 92.544 
L 320.069185 95.232 
L 320.078166 97.92 
L 320.013334 100.608 
L 319.872259 103.296 
L 319.648423 105.984 
L 319.330413 108.672 
L 318.900372 111.36 
L 318.331263 114.048 
L 317.582115 116.736 
L 317.323636 117.487912 
L 316.553982 119.424 
L 315.150943 122.112 
L 314.437818 123.187775 
L 313.126786 124.8 
L 311.552 126.328129 
L 310.013389 127.488 
L 308.666182 128.332989 
L 305.780364 129.709587 
L 304.499062 130.176 
L 302.894545 130.694109 
L 300.008727 131.411775 
L 297.122909 131.943023 
L 294.237091 132.331208 
L 291.351273 132.604269 
L 288.465455 132.780179 
L 285.774526 132.864 
L 285.579636 132.869918 
L 282.693818 132.879367 
" style="fill:none;stroke:#009fb0;stroke-width:1.5;"/>
    <path clip-path="url(#p84ad6489e8)" d="M 100.887273 122.661797 
L 99.093675 122.112 
L 98.001455 121.73817 
L 95.115636 120.435219 
L 93.371353 119.424 
L 92.229818 118.65188 
L 89.931351 116.736 
L 89.344 116.144172 
L 87.575026 114.048 
L 86.458182 112.379259 
L 85.854627 111.36 
L 84.600732 108.672 
L 83.673494 105.984 
L 83.572364 105.577952 
L 83.039237 103.296 
L 82.641616 100.608 
L 82.458886 97.92 
L 82.4842 95.232 
L 82.721519 92.544 
L 83.1863 89.856 
L 83.572364 88.394886 
L 83.91934 87.168 
L 84.980371 84.48 
L 86.432433 81.792 
L 86.458182 81.753966 
L 88.505913 79.104 
L 89.344 78.248921 
L 91.485857 76.416 
L 92.229818 75.893203 
L 95.115636 74.240822 
L 96.259204 73.728 
L 98.001455 73.054639 
L 100.887273 72.212839 
L 103.773091 71.626468 
L 106.658909 71.267953 
L 109.544727 71.123571 
L 112.430545 71.192201 
L 115.316364 71.485874 
L 118.202182 72.032384 
L 121.088 72.880892 
L 123.111381 73.728 
L 123.973818 74.149049 
L 126.859636 76.063452 
L 127.268836 76.416 
L 129.745455 79.069184 
L 129.771329 79.104 
L 131.389309 81.792 
L 132.587007 84.48 
L 132.631273 84.61008 
L 133.37584 87.168 
L 133.927494 89.856 
L 134.282878 92.544 
L 134.464338 95.232 
L 134.483693 97.92 
L 134.343973 100.608 
L 134.039942 103.296 
L 133.557551 105.984 
L 132.872207 108.672 
L 132.631273 109.398623 
L 131.865898 111.36 
L 130.497198 114.048 
L 129.745455 115.222826 
L 128.545856 116.736 
L 126.859636 118.459235 
L 125.63363 119.424 
L 123.973818 120.53089 
L 121.088 121.936427 
L 120.584137 122.112 
L 118.202182 122.854751 
L 115.316364 123.439111 
L 112.430545 123.753124 
L 109.544727 123.826508 
L 106.658909 123.672126 
L 103.773091 123.288781 
L 100.887273 122.661797 
" style="fill:none;stroke:#009fb0;stroke-width:1.5;"/>
   </g>
   <g id="LineCollection_5">
    <path clip-path="url(#p84ad6489e8)" d="M 343.296 223.985997 
L 340.410182 223.985997 
L 337.524364 223.985997 
L 334.638545 223.985997 
L 331.752727 223.985997 
L 328.866909 223.985997 
L 326.859271 224.256 
L 326.859271 226.944 
L 326.859271 229.632 
L 326.859271 232.32 
L 326.859271 235.008 
L 326.859271 237.696 
L 326.859271 240.384 
L 326.859271 243.072 
L 326.859271 245.76 
L 326.859271 248.448 
L 326.859271 251.136 
L 326.859271 253.824 
L 326.859271 256.512 
L 326.859271 259.2 
L 326.859271 261.888 
L 326.859271 264.576 
L 326.859271 267.264 
L 326.859271 269.952 
L 326.859271 272.64 
L 326.859271 275.328 
L 326.859271 278.016 
L 326.859271 280.704 
L 326.859271 283.392 
L 326.859271 286.08 
L 326.859271 288.768 
L 326.859271 291.456 
L 326.859271 294.144 
L 326.859271 296.832 
L 326.859271 299.52 
L 326.859271 302.208 
L 326.859271 304.896 
L 328.866909 307.584 
L 331.752727 307.584 
L 334.638545 307.584 
L 337.524364 307.584 
L 340.410182 307.584 
L 343.296 307.584 
" style="fill:none;stroke:#007fc0;stroke-width:1.5;"/>
    <path clip-path="url(#p84ad6489e8)" d="M 343.296 56.782017 
L 328.866909 56.782017 
L 326.859271 57.6 
L 326.859271 138.24 
L 325.981091 140.383939 
L 239.406545 140.383939 
L 237.104827 140.928 
L 237.104827 221.568 
L 236.520727 223.985997 
L 149.946182 223.985997 
L 147.350237 224.256 
L 147.350237 304.896 
L 149.946182 307.584 
L 236.520727 307.584 
L 237.104827 304.896 
L 237.104827 224.256 
L 239.406545 223.985997 
L 325.981091 223.985997 
L 326.859271 221.568 
L 326.859271 140.928 
L 328.866909 140.383939 
L 343.296 140.383939 
L 343.296 140.383939 
" style="fill:none;stroke:#007fc0;stroke-width:1.5;"/>
    <path clip-path="url(#p84ad6489e8)" d="M 57.6 41.472 
L 57.6 44.16 
L 57.6 46.848 
L 57.6 49.536 
L 57.6 52.224 
L 57.6 54.912 
L 60.485818 56.782017 
L 63.371636 56.782017 
L 66.257455 56.782017 
L 69.143273 56.782017 
L 72.029091 56.782017 
L 74.914909 56.782017 
L 77.800727 56.782017 
L 80.686545 56.782017 
L 83.572364 56.782017 
L 86.458182 56.782017 
L 89.344 56.782017 
L 92.229818 56.782017 
L 95.115636 56.782017 
L 98.001455 56.782017 
L 100.887273 56.782017 
L 103.773091 56.782017 
L 106.658909 56.782017 
L 109.544727 56.782017 
L 112.430545 56.782017 
L 115.316364 56.782017 
L 118.202182 56.782017 
L 121.088 56.782017 
L 123.973818 56.782017 
L 126.859636 56.782017 
L 129.745455 56.782017 
L 132.631273 56.782017 
L 135.517091 56.782017 
L 138.402909 56.782017 
L 141.288727 56.782017 
L 144.174545 56.782017 
L 147.060364 56.782017 
L 147.350237 54.912 
L 147.350237 52.224 
L 147.350237 49.536 
L 147.350237 46.848 
L 147.350237 44.16 
L 147.350237 41.472 
" style="fill:none;stroke:#007fc0;stroke-width:1.5;"/>
    <path clip-path="url(#p84ad6489e8)" d="M 237.104827 41.472 
L 237.104827 54.912 
L 236.520727 56.782017 
L 149.946182 56.782017 
L 147.350237 57.6 
L 147.350237 138.24 
L 147.060364 140.383939 
L 60.485818 140.383939 
L 57.6 140.928 
L 57.6 221.568 
L 60.485818 223.985997 
L 147.060364 223.985997 
L 147.350237 221.568 
L 147.350237 140.928 
L 149.946182 140.383939 
L 236.520727 140.383939 
L 237.104827 138.24 
L 237.104827 57.6 
L 239.406545 56.782017 
L 325.981091 56.782017 
L 326.859271 54.912 
L 326.859271 41.472 
L 326.859271 41.472 
" style="fill:none;stroke:#007fc0;stroke-width:1.5;"/>
   </g>
   <g id="LineCollection_6">
    <path clip-path="url(#p84ad6489e8)" d="M 343.296 247.602088 
L 342.958073 248.448 
L 342.185249 251.136 
L 341.687486 253.824 
L 341.420008 256.512 
L 341.357499 259.2 
L 341.489003 261.888 
L 341.815539 264.576 
L 342.349609 267.264 
L 343.116323 269.952 
L 343.296 270.439213 
" style="fill:none;stroke:#005fd0;stroke-width:1.5;"/>
    <path clip-path="url(#p84ad6489e8)" d="M 343.296 67.368826 
L 341.901577 68.352 
L 340.410182 69.688883 
L 339.209451 71.04 
L 337.524364 73.610574 
L 337.459782 73.728 
L 336.266082 76.416 
L 335.400942 79.104 
L 334.762802 81.792 
L 334.638545 82.468085 
L 334.296506 84.48 
L 333.957366 87.168 
L 333.718806 89.856 
L 333.565121 92.544 
L 333.486649 95.232 
L 333.478279 97.92 
L 333.5387 100.608 
L 333.670178 103.296 
L 333.878786 105.984 
L 334.175161 108.672 
L 334.575946 111.36 
L 334.638545 111.696261 
L 335.114655 114.048 
L 335.825251 116.736 
L 336.766826 119.424 
L 337.524364 121.103812 
L 338.051283 122.112 
L 339.865312 124.8 
L 340.410182 125.438731 
L 342.586693 127.488 
L 343.296 128.025395 
" style="fill:none;stroke:#005fd0;stroke-width:1.5;"/>
    <path clip-path="url(#p84ad6489e8)" d="M 97.478386 41.472 
L 98.001455 41.63936 
L 100.887273 42.353518 
L 103.773091 42.850978 
L 106.658909 43.15513 
L 109.544727 43.27762 
L 112.430545 43.219396 
L 115.316364 42.970253 
L 118.202182 42.506611 
L 121.088 41.786763 
L 121.996165 41.472 
" style="fill:none;stroke:#005fd0;stroke-width:1.5;"/>
    <path clip-path="url(#p84ad6489e8)" d="M 250.372874 41.472 
L 250.949818 42.132685 
L 253.149899 44.16 
L 253.835636 44.66752 
L 256.721455 46.3572 
L 257.803839 46.848 
L 259.607273 47.55361 
L 262.493091 48.430641 
L 265.378909 49.092527 
L 267.90372 49.536 
L 268.264727 49.594308 
L 271.150545 49.96762 
L 274.036364 50.243679 
L 276.922182 50.437988 
L 279.808 50.560452 
L 282.693818 50.616732 
L 285.579636 50.608936 
L 288.465455 50.535843 
L 291.351273 50.392693 
L 294.237091 50.170485 
L 297.122909 49.854593 
L 299.282887 49.536 
L 300.008727 49.420261 
L 302.894545 48.825865 
L 305.780364 48.020029 
L 308.666182 46.908155 
L 308.79225 46.848 
L 311.552 45.278423 
L 313.002549 44.16 
L 314.437818 42.770838 
L 315.493347 41.472 
" style="fill:none;stroke:#005fd0;stroke-width:1.5;"/>
    <path clip-path="url(#p84ad6489e8)" d="M 190.347636 278.44195 
L 193.233455 278.768996 
L 196.119273 278.817858 
L 199.005091 278.585541 
L 201.890909 278.053772 
L 202.020377 278.016 
L 204.776727 277.115997 
L 207.662545 275.745222 
L 208.324295 275.328 
L 210.548364 273.667458 
L 211.619733 272.64 
L 213.434182 270.465006 
L 213.783664 269.952 
L 215.199213 267.264 
L 216.18524 264.576 
L 216.32 263.984698 
L 216.735775 261.888 
L 216.951421 259.2 
L 216.848917 256.512 
L 216.410293 253.824 
L 216.32 253.518405 
L 215.502662 251.136 
L 214.075834 248.448 
L 213.434182 247.578495 
L 211.782605 245.76 
L 210.548364 244.731018 
L 207.963234 243.072 
L 207.662545 242.917372 
L 204.776727 241.791286 
L 201.890909 241.018286 
L 199.005091 240.544531 
L 196.771223 240.384 
L 196.119273 240.343352 
L 193.233455 240.381453 
L 193.204282 240.384 
L 190.347636 240.672457 
L 187.461818 241.221918 
L 184.576 242.053654 
L 182.018282 243.072 
L 181.690182 243.232842 
L 178.804364 245.04746 
L 177.897824 245.76 
L 175.918545 247.805597 
L 175.397998 248.448 
L 173.822972 251.136 
L 173.032727 253.215537 
L 172.827849 253.824 
L 172.329705 256.512 
L 172.213291 259.2 
L 172.4582 261.888 
L 173.032727 264.430334 
L 173.0695 264.576 
L 174.15794 267.264 
L 175.720514 269.952 
L 175.918545 270.216732 
L 178.072261 272.64 
L 178.804364 273.30193 
L 181.588325 275.328 
L 181.690182 275.390686 
L 184.576 276.796618 
L 187.461818 277.809083 
L 188.340571 278.016 
L 190.347636 278.44195 
" style="fill:none;stroke:#005fd0;stroke-width:1.5;"/>
    <path clip-path="url(#p84ad6489e8)" d="M 279.808 213.535141 
L 282.693818 213.628496 
L 285.579636 213.615563 
L 288.237522 213.504 
L 288.465455 213.494188 
L 291.351273 213.253515 
L 294.237091 212.879925 
L 297.122909 212.348825 
L 300.008727 211.621995 
L 302.409114 210.816 
L 302.894545 210.635502 
L 305.780364 209.269441 
L 307.607888 208.128 
L 308.666182 207.354863 
L 310.732322 205.44 
L 311.552 204.511559 
L 312.828566 202.752 
L 314.346337 200.064 
L 314.437818 199.866423 
L 315.435595 197.376 
L 316.264 194.688 
L 316.895327 192 
L 317.323636 189.57682 
L 317.36633 189.312 
L 317.6913 186.624 
L 317.905982 183.936 
L 318.019823 181.248 
L 318.036831 178.56 
L 317.955964 175.872 
L 317.770862 173.184 
L 317.468841 170.496 
L 317.323636 169.582436 
L 317.01462 167.808 
L 316.374093 165.12 
L 315.500043 162.432 
L 314.437818 160.017481 
L 314.297559 159.744 
L 312.535566 157.056 
L 311.552 155.915847 
L 309.886195 154.368 
L 308.666182 153.465023 
L 305.780364 151.830148 
L 305.443871 151.68 
L 302.894545 150.711193 
L 300.008727 149.892893 
L 297.122909 149.287152 
L 295.228593 148.992 
L 294.237091 148.852087 
L 291.351273 148.556685 
L 288.465455 148.366382 
L 285.579636 148.269212 
L 282.693818 148.258848 
L 279.808 148.333666 
L 276.922182 148.49647 
L 274.036364 148.754784 
L 272.14402 148.992 
L 271.150545 149.128782 
L 268.264727 149.651856 
L 265.378909 150.344081 
L 262.493091 151.255294 
L 261.412524 151.68 
L 259.607273 152.51596 
L 256.721455 154.254643 
L 256.566014 154.368 
L 253.835636 156.86197 
L 253.66126 157.056 
L 251.731824 159.744 
L 250.949818 161.195672 
L 250.365374 162.432 
L 249.386223 165.12 
L 248.668676 167.808 
L 248.151978 170.496 
L 248.064 171.147077 
L 247.803905 173.184 
L 247.591916 175.872 
L 247.499303 178.56 
L 247.518781 181.248 
L 247.649158 183.936 
L 247.895024 186.624 
L 248.064 187.866823 
L 248.272364 189.312 
L 248.802314 192 
L 249.509555 194.688 
L 250.43757 197.376 
L 250.949818 198.56586 
L 251.678411 200.064 
L 253.340416 202.752 
L 253.835636 203.40721 
L 255.661284 205.44 
L 256.721455 206.408112 
L 259.050929 208.128 
L 259.607273 208.478763 
L 262.493091 209.965515 
L 264.63672 210.816 
L 265.378909 211.080612 
L 268.264727 211.911216 
L 271.150545 212.538854 
L 274.036364 213.002983 
L 276.922182 213.329668 
L 279.358286 213.504 
L 279.808 213.535141 
" style="fill:none;stroke:#005fd0;stroke-width:1.5;"/>
    <path clip-path="url(#p84ad6489e8)" d="M 106.658909 200.599145 
L 109.544727 200.827265 
L 112.430545 200.718831 
L 115.316364 200.254834 
L 115.969606 200.064 
L 118.202182 199.327925 
L 121.088 197.860865 
L 121.77768 197.376 
L 123.973818 195.532397 
L 124.738797 194.688 
L 126.686957 192 
L 126.859636 191.69439 
L 127.952926 189.312 
L 128.845871 186.624 
L 129.435769 183.936 
L 129.745455 181.275173 
L 129.748189 181.248 
L 129.789094 178.56 
L 129.745455 177.952739 
L 129.57311 175.872 
L 129.06449 173.184 
L 128.234602 170.496 
L 127.025644 167.808 
L 126.859636 167.527924 
L 125.078526 165.12 
L 123.973818 163.970364 
L 122.021495 162.432 
L 121.088 161.834332 
L 118.202182 160.50531 
L 115.644448 159.744 
L 115.316364 159.659897 
L 112.430545 159.251339 
L 109.544727 159.155861 
L 106.658909 159.356726 
L 104.407909 159.744 
L 103.773091 159.869523 
L 100.887273 160.787959 
L 98.001455 162.106474 
L 97.450695 162.432 
L 95.115636 164.122072 
L 94.012565 165.12 
L 92.229818 167.191612 
L 91.781892 167.808 
L 90.310237 170.496 
L 89.344 173.063407 
L 89.303448 173.184 
L 88.732544 175.872 
L 88.48313 178.56 
L 88.535588 181.248 
L 88.886703 183.936 
L 89.344 185.805485 
L 89.566145 186.624 
L 90.65312 189.312 
L 92.162518 192 
L 92.229818 192.094875 
L 94.404993 194.688 
L 95.115636 195.369918 
L 97.71724 197.376 
L 98.001455 197.560457 
L 100.887273 199.015919 
L 103.773091 200.029748 
L 103.929477 200.064 
L 106.658909 200.599145 
" style="fill:none;stroke:#005fd0;stroke-width:1.5;"/>
    <path clip-path="url(#p84ad6489e8)" d="M 187.461818 130.333393 
L 190.347636 130.562405 
L 193.233455 130.683845 
L 196.119273 130.701988 
L 199.005091 130.615724 
L 201.890909 130.418266 
L 204.077735 130.176 
L 204.776727 130.094053 
L 207.662545 129.612774 
L 210.548364 128.944414 
L 213.434182 128.032382 
L 214.761495 127.488 
L 216.32 126.759599 
L 219.205818 124.962423 
L 219.414127 124.8 
L 222.091636 122.256785 
L 222.213336 122.112 
L 224.079974 119.424 
L 224.977455 117.742496 
L 225.433416 116.736 
L 226.411688 114.048 
L 227.154856 111.36 
L 227.716424 108.672 
L 227.863273 107.746626 
L 228.117946 105.984 
L 228.39527 103.296 
L 228.570055 100.608 
L 228.65038 97.92 
L 228.639252 95.232 
L 228.534932 92.544 
L 228.330624 89.856 
L 228.013482 87.168 
L 227.863273 86.244463 
L 227.5464 84.48 
L 226.896081 81.792 
L 226.017559 79.104 
L 224.977455 76.729427 
L 224.816257 76.416 
L 223.061067 73.728 
L 222.091636 72.591617 
L 220.429878 71.04 
L 219.205818 70.123856 
L 216.32 68.482645 
L 216.026393 68.352 
L 213.434182 67.362589 
L 210.548364 66.548453 
L 207.662545 65.951834 
L 205.757523 65.664 
L 204.776727 65.528749 
L 201.890909 65.247431 
L 199.005091 65.075017 
L 196.119273 64.999693 
L 193.233455 65.015536 
L 190.347636 65.121573 
L 187.461818 65.321539 
L 184.576 65.624233 
L 184.291691 65.664 
L 181.690182 66.06295 
L 178.804364 66.651 
L 175.918545 67.422619 
L 173.244845 68.352 
L 173.032727 68.43721 
L 170.146909 69.850941 
L 168.257858 71.04 
L 167.261091 71.803491 
L 165.205307 73.728 
L 164.375273 74.71375 
L 163.14983 76.416 
L 161.683236 79.104 
L 161.489455 79.556156 
L 160.624144 81.792 
L 159.843824 84.48 
L 159.273639 87.168 
L 158.872555 89.856 
L 158.61417 92.544 
L 158.603636 92.756308 
L 158.483863 95.232 
L 158.469979 97.92 
L 158.570203 100.608 
L 158.603636 101.026886 
L 158.790799 103.296 
L 159.141525 105.984 
L 159.639811 108.672 
L 160.313639 111.36 
L 161.205369 114.048 
L 161.489455 114.739313 
L 162.40253 116.736 
L 163.998696 119.424 
L 164.375273 119.942207 
L 166.221732 122.112 
L 167.261091 123.099497 
L 169.44348 124.8 
L 170.146909 125.261273 
L 173.032727 126.809351 
L 174.641121 127.488 
L 175.918545 127.965134 
L 178.804364 128.829536 
L 181.690182 129.488296 
L 184.576 129.981919 
L 186.127532 130.176 
L 187.461818 130.333393 
" style="fill:none;stroke:#005fd0;stroke-width:1.5;"/>
   </g>
   <g id="LineCollection_7">
    <path clip-path="url(#p84ad6489e8)" d="M 343.296 81.369712 
L 343.094481 81.792 
L 342.081651 84.48 
L 341.34157 87.168 
L 340.820975 89.856 
L 340.4856 92.544 
L 340.410182 93.720074 
L 340.318185 95.232 
L 340.300649 97.92 
L 340.410182 100.248715 
L 340.427944 100.608 
L 340.714858 103.296 
L 341.17009 105.984 
L 341.816848 108.672 
L 342.691455 111.36 
L 343.296 112.808329 
" style="fill:none;stroke:#003fe0;stroke-width:1.5;"/>
    <path clip-path="url(#p84ad6489e8)" d="M 266.709811 41.472 
L 268.264727 42.035105 
L 271.150545 42.849758 
L 274.036364 43.452183 
L 276.922182 43.876209 
L 279.808 44.143455 
L 280.193726 44.16 
L 282.693818 44.262025 
L 285.579636 44.245691 
L 287.20283 44.16 
L 288.465455 44.089751 
L 291.351273 43.777366 
L 294.237091 43.292457 
L 297.122909 42.603108 
L 300.008727 41.659705 
L 300.462093 41.472 
" style="fill:none;stroke:#003fe0;stroke-width:1.5;"/>
    <path clip-path="url(#p84ad6489e8)" d="M 274.036364 201.152365 
L 276.922182 201.942057 
L 279.808 202.439768 
L 282.693818 202.668496 
L 285.579636 202.63681 
L 288.465455 202.339753 
L 291.351273 201.757976 
L 294.237091 200.854897 
L 296.046461 200.064 
L 297.122909 199.524587 
L 300.008727 197.601921 
L 300.27774 197.376 
L 302.894545 194.718046 
L 302.918679 194.688 
L 304.682112 192 
L 305.780364 189.783051 
L 305.98031 189.312 
L 306.833033 186.624 
L 307.39636 183.936 
L 307.695079 181.248 
L 307.739709 178.56 
L 307.527514 175.872 
L 307.041804 173.184 
L 306.249298 170.496 
L 305.780364 169.375432 
L 305.015325 167.808 
L 303.226195 165.12 
L 302.894545 164.730727 
L 300.483466 162.432 
L 300.008727 162.068912 
L 297.122909 160.327153 
L 295.833879 159.744 
L 294.237091 159.131531 
L 291.351273 158.336355 
L 288.465455 157.82409 
L 285.579636 157.562525 
L 282.693818 157.534626 
L 279.808 157.736024 
L 276.922182 158.174267 
L 274.036364 158.869605 
L 271.470172 159.744 
L 271.150545 159.871774 
L 268.264727 161.37583 
L 266.685946 162.432 
L 265.378909 163.511281 
L 263.787089 165.12 
L 262.493091 166.814601 
L 261.847071 167.808 
L 260.540698 170.496 
L 259.64394 173.184 
L 259.607273 173.360046 
L 259.134716 175.872 
L 258.91351 178.56 
L 258.960035 181.248 
L 259.27144 183.936 
L 259.607273 185.488182 
L 259.880174 186.624 
L 260.845071 189.312 
L 262.184949 192 
L 262.493091 192.485419 
L 264.132501 194.688 
L 265.378909 196.024076 
L 266.915665 197.376 
L 268.264727 198.366989 
L 271.150545 200.027264 
L 271.233509 200.064 
L 274.036364 201.152365 
" style="fill:none;stroke:#003fe0;stroke-width:1.5;"/>
    <path clip-path="url(#p84ad6489e8)" d="M 190.347636 119.736812 
L 193.233455 120.02687 
L 196.119273 120.070206 
L 199.005091 119.864163 
L 201.701907 119.424 
L 201.890909 119.389846 
L 204.776727 118.55456 
L 207.662545 117.337736 
L 208.729052 116.736 
L 210.548364 115.530703 
L 212.275473 114.048 
L 213.434182 112.830559 
L 214.568079 111.36 
L 216.182823 108.672 
L 216.32 108.374284 
L 217.258744 105.984 
L 218.005254 103.296 
L 218.475749 100.608 
L 218.691969 97.92 
L 218.662016 95.232 
L 218.381202 92.544 
L 217.831238 89.856 
L 216.977543 87.168 
L 216.32 85.68067 
L 215.693931 84.48 
L 213.823991 81.792 
L 213.434182 81.349804 
L 210.966284 79.104 
L 210.548364 78.795085 
L 207.662545 77.128597 
L 205.979761 76.416 
L 204.776727 75.97921 
L 201.890909 75.241029 
L 199.005091 74.788614 
L 196.119273 74.590965 
L 193.233455 74.632536 
L 190.347636 74.910778 
L 187.461818 75.435489 
L 184.576 76.22976 
L 184.070282 76.416 
L 181.690182 77.438969 
L 178.804364 79.08152 
L 178.772106 79.104 
L 175.918545 81.541427 
L 175.675998 81.792 
L 173.611838 84.48 
L 173.032727 85.482659 
L 172.183625 87.168 
L 171.214087 89.856 
L 170.589495 92.544 
L 170.270576 95.232 
L 170.236559 97.92 
L 170.482119 100.608 
L 171.016458 103.296 
L 171.864266 105.984 
L 173.032727 108.594723 
L 173.072167 108.672 
L 174.854626 111.36 
L 175.918545 112.616586 
L 177.369961 114.048 
L 178.804364 115.208969 
L 181.169039 116.736 
L 181.690182 117.023019 
L 184.576 118.271051 
L 187.461818 119.169805 
L 188.681225 119.424 
L 190.347636 119.736812 
" style="fill:none;stroke:#003fe0;stroke-width:1.5;"/>
   </g>
   <g id="LineCollection_8">
    <path clip-path="url(#p84ad6489e8)" d="M 282.693818 184.636887 
L 285.579636 184.48768 
L 286.725837 183.936 
L 288.465455 182.393538 
L 289.139795 181.248 
L 289.377884 178.56 
L 288.465455 176.389709 
L 288.049925 175.872 
L 285.579636 174.504548 
L 282.693818 174.333866 
L 279.808 175.565969 
L 279.472889 175.872 
L 278.164185 178.56 
L 278.439439 181.248 
L 279.808 183.251054 
L 280.810009 183.936 
L 282.693818 184.636887 
" style="fill:none;stroke:#001ff0;stroke-width:1.5;"/>
    <path clip-path="url(#p84ad6489e8)" d="M 193.233455 101.882748 
L 196.119273 102.139134 
L 199.005091 100.920139 
L 199.333643 100.608 
L 200.656421 97.92 
L 200.473178 95.232 
L 199.005091 92.931045 
L 198.449282 92.544 
L 196.119273 91.694116 
L 193.233455 91.915885 
L 192.003613 92.544 
L 190.347636 94.164369 
L 189.755357 95.232 
L 189.595169 97.92 
L 190.347636 99.674677 
L 191.082989 100.608 
L 193.233455 101.882748 
" style="fill:none;stroke:#001ff0;stroke-width:1.5;"/>
   </g>
   <g id="LineCollection_9"/>
   <g id="patch_3">
    <path d="M 57.6 307.584 
L 57.6 41.472 
" style="fill:none;stroke:#000000;stroke-linecap:square;stroke-linejoin:miter;stroke-width:0.8;"/>
   </g>
   <g id="patch_4">
    <path d="M 343.296 307.584 
L 343.296 41.472 
" style="fill:none;stroke:#000000;stroke-linecap:square;stroke-linejoin:miter;stroke-width:0.8;"/>
   </g>
   <g id="patch_5">
    <path d="M 57.6 307.584 
L 343.296 307.584 
" style="fill:none;stroke:#000000;stroke-linecap:square;stroke-linejoin:miter;stroke-width:0.8;"/>
   </g>
   <g id="patch_6">
    <path d="M 57.6 41.472 
L 343.296 41.472 
" style="fill:none;stroke:#000000;stroke-linecap:square;stroke-linejoin:miter;stroke-width:0.8;"/>
   </g>
  </g>
  <g id="axes_2">
   <g id="patch_7">
    <path clip-path="url(#p3e2bb437d3)" d="M 361.152 307.584 
L 361.152 274.32 
L 361.152 74.736 
L 361.152 41.472 
L 374.4576 41.472 
L 374.4576 74.736 
L 374.4576 274.32 
L 374.4576 307.584 
z
" style="fill:#ffffff;stroke:#ffffff;stroke-linejoin:miter;stroke-width:0.01;"/>
   </g>
   <g id="matplotlib.axis_3"/>
   <g id="matplotlib.axis_4">
    <g id="ytick_7">
     <g id="line2d_13">
      <defs>
       <path d="M 0 0 
L 3.5 0 
" id="m9702b68d72" style="stroke:#000000;stroke-width:0.8;"/>
      </defs>
      <g>
       <use style="stroke:#000000;stroke-width:0.8;" x="374.4576" xlink:href="#m9702b68d72" y="307.584"/>
      </g>
     </g>
     <g id="text_13">
      <!-- −8 -->
      <defs>
       <path d="M 10.59375 35.5 
L 73.1875 35.5 
L 73.1875 27.203125 
L 10.59375 27.203125 
z
" id="DejaVuSans-8722"/>
      </defs>
      <g transform="translate(381.4576 311.383219)scale(0.1 -0.1)">
       <use xlink:href="#DejaVuSans-8722"/>
       <use x="83.789062" xlink:href="#DejaVuSans-56"/>
      </g>
     </g>
    </g>
    <g id="ytick_8">
     <g id="line2d_14">
      <g>
       <use style="stroke:#000000;stroke-width:0.8;" x="374.4576" xlink:href="#m9702b68d72" y="274.32"/>
      </g>
     </g>
     <g id="text_14">
      <!-- −6 -->
      <g transform="translate(381.4576 278.119219)scale(0.1 -0.1)">
       <use xlink:href="#DejaVuSans-8722"/>
       <use x="83.789062" xlink:href="#DejaVuSans-54"/>
      </g>
     </g>
    </g>
    <g id="ytick_9">
     <g id="line2d_15">
      <g>
       <use style="stroke:#000000;stroke-width:0.8;" x="374.4576" xlink:href="#m9702b68d72" y="241.056"/>
      </g>
     </g>
     <g id="text_15">
      <!-- −4 -->
      <g transform="translate(381.4576 244.855219)scale(0.1 -0.1)">
       <use xlink:href="#DejaVuSans-8722"/>
       <use x="83.789062" xlink:href="#DejaVuSans-52"/>
      </g>
     </g>
    </g>
    <g id="ytick_10">
     <g id="line2d_16">
      <g>
       <use style="stroke:#000000;stroke-width:0.8;" x="374.4576" xlink:href="#m9702b68d72" y="207.792"/>
      </g>
     </g>
     <g id="text_16">
      <!-- −2 -->
      <g transform="translate(381.4576 211.591219)scale(0.1 -0.1)">
       <use xlink:href="#DejaVuSans-8722"/>
       <use x="83.789062" xlink:href="#DejaVuSans-50"/>
      </g>
     </g>
    </g>
    <g id="ytick_11">
     <g id="line2d_17">
      <g>
       <use style="stroke:#000000;stroke-width:0.8;" x="374.4576" xlink:href="#m9702b68d72" y="174.528"/>
      </g>
     </g>
     <g id="text_17">
      <!-- 0 -->
      <g transform="translate(381.4576 178.327219)scale(0.1 -0.1)">
       <use xlink:href="#DejaVuSans-48"/>
      </g>
     </g>
    </g>
    <g id="ytick_12">
     <g id="line2d_18">
      <g>
       <use style="stroke:#000000;stroke-width:0.8;" x="374.4576" xlink:href="#m9702b68d72" y="141.264"/>
      </g>
     </g>
     <g id="text_18">
      <!-- 2 -->
      <g transform="translate(381.4576 145.063219)scale(0.1 -0.1)">
       <use xlink:href="#DejaVuSans-50"/>
      </g>
     </g>
    </g>
    <g id="ytick_13">
     <g id="line2d_19">
      <g>
       <use style="stroke:#000000;stroke-width:0.8;" x="374.4576" xlink:href="#m9702b68d72" y="108"/>
      </g>
     </g>
     <g id="text_19">
      <!-- 4 -->
      <g transform="translate(381.4576 111.799219)scale(0.1 -0.1)">
       <use xlink:href="#DejaVuSans-52"/>
      </g>
     </g>
    </g>
    <g id="ytick_14">
     <g id="line2d_20">
      <g>
       <use style="stroke:#000000;stroke-width:0.8;" x="374.4576" xlink:href="#m9702b68d72" y="74.736"/>
      </g>
     </g>
     <g id="text_20">
      <!-- 6 -->
      <g transform="translate(381.4576 78.535219)scale(0.1 -0.1)">
       <use xlink:href="#DejaVuSans-54"/>
      </g>
     </g>
    </g>
    <g id="ytick_15">
     <g id="line2d_21">
      <g>
       <use style="stroke:#000000;stroke-width:0.8;" x="374.4576" xlink:href="#m9702b68d72" y="41.472"/>
      </g>
     </g>
     <g id="text_21">
      <!-- 8 -->
      <g transform="translate(381.4576 45.271219)scale(0.1 -0.1)">
       <use xlink:href="#DejaVuSans-56"/>
      </g>
     </g>
    </g>
   </g>
   <g id="LineCollection_10">
    <path clip-path="url(#p3e2bb437d3)" d="M 361.152 307.584 
L 374.4576 307.584 
" style="fill:none;stroke:#00ff80;stroke-width:1.5;"/>
    <path clip-path="url(#p3e2bb437d3)" d="M 361.152 274.32 
L 374.4576 274.32 
" style="fill:none;stroke:#00df90;stroke-width:1.5;"/>
    <path clip-path="url(#p3e2bb437d3)" d="M 361.152 241.056 
L 374.4576 241.056 
" style="fill:none;stroke:#00bfa0;stroke-width:1.5;"/>
    <path clip-path="url(#p3e2bb437d3)" d="M 361.152 207.792 
L 374.4576 207.792 
" style="fill:none;stroke:#009fb0;stroke-width:1.5;"/>
    <path clip-path="url(#p3e2bb437d3)" d="M 361.152 174.528 
L 374.4576 174.528 
" style="fill:none;stroke:#007fc0;stroke-width:1.5;"/>
    <path clip-path="url(#p3e2bb437d3)" d="M 361.152 141.264 
L 374.4576 141.264 
" style="fill:none;stroke:#005fd0;stroke-width:1.5;"/>
    <path clip-path="url(#p3e2bb437d3)" d="M 361.152 108 
L 374.4576 108 
" style="fill:none;stroke:#003fe0;stroke-width:1.5;"/>
    <path clip-path="url(#p3e2bb437d3)" d="M 361.152 74.736 
L 374.4576 74.736 
" style="fill:none;stroke:#001ff0;stroke-width:1.5;"/>
    <path clip-path="url(#p3e2bb437d3)" d="M 361.152 41.472 
L 374.4576 41.472 
" style="fill:none;stroke:#0000ff;stroke-width:1.5;"/>
   </g>
   <g id="patch_8">
    <path d="M 361.152 307.584 
L 361.152 274.32 
L 361.152 74.736 
L 361.152 41.472 
L 374.4576 41.472 
L 374.4576 74.736 
L 374.4576 274.32 
L 374.4576 307.584 
z
" style="fill:none;stroke:#000000;stroke-linejoin:miter;stroke-width:0.8;"/>
   </g>
  </g>
 </g>
 <defs>
  <clipPath id="p84ad6489e8">
   <rect height="266.112" width="285.696" x="57.6" y="41.472"/>
  </clipPath>
  <clipPath id="p3e2bb437d3">
   <rect height="266.112" width="13.3056" x="361.152" y="41.472"/>
  </clipPath>
 </defs>
</svg>
