<?xml version="1.0" encoding="utf-8" standalone="no"?>
<!DOCTYPE svg PUBLIC "-//W3C//DTD SVG 1.1//EN"
  "http://www.w3.org/Graphics/SVG/1.1/DTD/svg11.dtd">
<!-- Created with matplotlib (https://matplotlib.org/) -->
<svg height="345.6pt" version="1.1" viewBox="0 0 460.8 345.6" width="460.8pt" xmlns="http://www.w3.org/2000/svg" xmlns:xlink="http://www.w3.org/1999/xlink">
 <defs>
  <style type="text/css">
*{stroke-linecap:butt;stroke-linejoin:round;}
  </style>
 </defs>
 <g id="figure_1">
  <g id="patch_1">
   <path d="M 0 345.6 
L 460.8 345.6 
L 460.8 0 
L 0 0 
z
" style="fill:#ffffff;"/>
  </g>
  <g id="axes_1">
   <g id="patch_2">
    <path d="M 57.6 307.584 
L 343.296 307.584 
L 343.296 41.472 
L 57.6 41.472 
z
" style="fill:#ffffff;"/>
   </g>
   <g id="matplotlib.axis_1">
    <g id="xtick_1">
     <g id="line2d_1">
      <defs>
       <path d="M 0 0 
L 0 3.5 
" id="m9d2387d20d" style="stroke:#000000;stroke-width:0.8;"/>
      </defs>
      <g>
       <use style="stroke:#000000;stroke-width:0.8;" x="57.6" xlink:href="#m9d2387d20d" y="307.584"/>
      </g>
     </g>
     <g id="text_1">
      <!-- −4 -->
      <defs>
       <path d="M 10.59375 35.5 
L 73.1875 35.5 
L 73.1875 27.203125 
L 10.59375 27.203125 
z
" id="DejaVuSans-8722"/>
       <path d="M 37.796875 64.3125 
L 12.890625 25.390625 
L 37.796875 25.390625 
z
M 35.203125 72.90625 
L 47.609375 72.90625 
L 47.609375 25.390625 
L 58.015625 25.390625 
L 58.015625 17.1875 
L 47.609375 17.1875 
L 47.609375 0 
L 37.796875 0 
L 37.796875 17.1875 
L 4.890625 17.1875 
L 4.890625 26.703125 
z
" id="DejaVuSans-52"/>
      </defs>
      <g transform="translate(50.228906 322.182437)scale(0.1 -0.1)">
       <use xlink:href="#DejaVuSans-8722"/>
       <use x="83.789062" xlink:href="#DejaVuSans-52"/>
      </g>
     </g>
    </g>
    <g id="xtick_2">
     <g id="line2d_2">
      <g>
       <use style="stroke:#000000;stroke-width:0.8;" x="93.312" xlink:href="#m9d2387d20d" y="307.584"/>
      </g>
     </g>
     <g id="text_2">
      <!-- −3 -->
      <defs>
       <path d="M 40.578125 39.3125 
Q 47.65625 37.796875 51.625 33 
Q 55.609375 28.21875 55.609375 21.1875 
Q 55.609375 10.40625 48.1875 4.484375 
Q 40.765625 -1.421875 27.09375 -1.421875 
Q 22.515625 -1.421875 17.65625 -0.515625 
Q 12.796875 0.390625 7.625 2.203125 
L 7.625 11.71875 
Q 11.71875 9.328125 16.59375 8.109375 
Q 21.484375 6.890625 26.8125 6.890625 
Q 36.078125 6.890625 40.9375 10.546875 
Q 45.796875 14.203125 45.796875 21.1875 
Q 45.796875 27.640625 41.28125 31.265625 
Q 36.765625 34.90625 28.71875 34.90625 
L 20.21875 34.90625 
L 20.21875 43.015625 
L 29.109375 43.015625 
Q 36.375 43.015625 40.234375 45.921875 
Q 44.09375 48.828125 44.09375 54.296875 
Q 44.09375 59.90625 40.109375 62.90625 
Q 36.140625 65.921875 28.71875 65.921875 
Q 24.65625 65.921875 20.015625 65.03125 
Q 15.375 64.15625 9.8125 62.3125 
L 9.8125 71.09375 
Q 15.4375 72.65625 20.34375 73.4375 
Q 25.25 74.21875 29.59375 74.21875 
Q 40.828125 74.21875 47.359375 69.109375 
Q 53.90625 64.015625 53.90625 55.328125 
Q 53.90625 49.265625 50.4375 45.09375 
Q 46.96875 40.921875 40.578125 39.3125 
z
" id="DejaVuSans-51"/>
      </defs>
      <g transform="translate(85.940906 322.182437)scale(0.1 -0.1)">
       <use xlink:href="#DejaVuSans-8722"/>
       <use x="83.789062" xlink:href="#DejaVuSans-51"/>
      </g>
     </g>
    </g>
    <g id="xtick_3">
     <g id="line2d_3">
      <g>
       <use style="stroke:#000000;stroke-width:0.8;" x="129.024" xlink:href="#m9d2387d20d" y="307.584"/>
      </g>
     </g>
     <g id="text_3">
      <!-- −2 -->
      <defs>
       <path d="M 19.1875 8.296875 
L 53.609375 8.296875 
L 53.609375 0 
L 7.328125 0 
L 7.328125 8.296875 
Q 12.9375 14.109375 22.625 23.890625 
Q 32.328125 33.6875 34.8125 36.53125 
Q 39.546875 41.84375 41.421875 45.53125 
Q 43.3125 49.21875 43.3125 52.78125 
Q 43.3125 58.59375 39.234375 62.25 
Q 35.15625 65.921875 28.609375 65.921875 
Q 23.96875 65.921875 18.8125 64.3125 
Q 13.671875 62.703125 7.8125 59.421875 
L 7.8125 69.390625 
Q 13.765625 71.78125 18.9375 73 
Q 24.125 74.21875 28.421875 74.21875 
Q 39.75 74.21875 46.484375 68.546875 
Q 53.21875 62.890625 53.21875 53.421875 
Q 53.21875 48.921875 51.53125 44.890625 
Q 49.859375 40.875 45.40625 35.40625 
Q 44.1875 33.984375 37.640625 27.21875 
Q 31.109375 20.453125 19.1875 8.296875 
z
" id="DejaVuSans-50"/>
      </defs>
      <g transform="translate(121.652906 322.182437)scale(0.1 -0.1)">
       <use xlink:href="#DejaVuSans-8722"/>
       <use x="83.789062" xlink:href="#DejaVuSans-50"/>
      </g>
     </g>
    </g>
    <g id="xtick_4">
     <g id="line2d_4">
      <g>
       <use style="stroke:#000000;stroke-width:0.8;" x="164.736" xlink:href="#m9d2387d20d" y="307.584"/>
      </g>
     </g>
     <g id="text_4">
      <!-- −1 -->
      <defs>
       <path d="M 12.40625 8.296875 
L 28.515625 8.296875 
L 28.515625 63.921875 
L 10.984375 60.40625 
L 10.984375 69.390625 
L 28.421875 72.90625 
L 38.28125 72.90625 
L 38.28125 8.296875 
L 54.390625 8.296875 
L 54.390625 0 
L 12.40625 0 
z
" id="DejaVuSans-49"/>
      </defs>
      <g transform="translate(157.364906 322.182437)scale(0.1 -0.1)">
       <use xlink:href="#DejaVuSans-8722"/>
       <use x="83.789062" xlink:href="#DejaVuSans-49"/>
      </g>
     </g>
    </g>
    <g id="xtick_5">
     <g id="line2d_5">
      <g>
       <use style="stroke:#000000;stroke-width:0.8;" x="200.448" xlink:href="#m9d2387d20d" y="307.584"/>
      </g>
     </g>
     <g id="text_5">
      <!-- 0 -->
      <defs>
       <path d="M 31.78125 66.40625 
Q 24.171875 66.40625 20.328125 58.90625 
Q 16.5 51.421875 16.5 36.375 
Q 16.5 21.390625 20.328125 13.890625 
Q 24.171875 6.390625 31.78125 6.390625 
Q 39.453125 6.390625 43.28125 13.890625 
Q 47.125 21.390625 47.125 36.375 
Q 47.125 51.421875 43.28125 58.90625 
Q 39.453125 66.40625 31.78125 66.40625 
z
M 31.78125 74.21875 
Q 44.046875 74.21875 50.515625 64.515625 
Q 56.984375 54.828125 56.984375 36.375 
Q 56.984375 17.96875 50.515625 8.265625 
Q 44.046875 -1.421875 31.78125 -1.421875 
Q 19.53125 -1.421875 13.0625 8.265625 
Q 6.59375 17.96875 6.59375 36.375 
Q 6.59375 54.828125 13.0625 64.515625 
Q 19.53125 74.21875 31.78125 74.21875 
z
" id="DejaVuSans-48"/>
      </defs>
      <g transform="translate(197.26675 322.182437)scale(0.1 -0.1)">
       <use xlink:href="#DejaVuSans-48"/>
      </g>
     </g>
    </g>
    <g id="xtick_6">
     <g id="line2d_6">
      <g>
       <use style="stroke:#000000;stroke-width:0.8;" x="236.16" xlink:href="#m9d2387d20d" y="307.584"/>
      </g>
     </g>
     <g id="text_6">
      <!-- 1 -->
      <g transform="translate(232.97875 322.182437)scale(0.1 -0.1)">
       <use xlink:href="#DejaVuSans-49"/>
      </g>
     </g>
    </g>
    <g id="xtick_7">
     <g id="line2d_7">
      <g>
       <use style="stroke:#000000;stroke-width:0.8;" x="271.872" xlink:href="#m9d2387d20d" y="307.584"/>
      </g>
     </g>
     <g id="text_7">
      <!-- 2 -->
      <g transform="translate(268.69075 322.182437)scale(0.1 -0.1)">
       <use xlink:href="#DejaVuSans-50"/>
      </g>
     </g>
    </g>
    <g id="xtick_8">
     <g id="line2d_8">
      <g>
       <use style="stroke:#000000;stroke-width:0.8;" x="307.584" xlink:href="#m9d2387d20d" y="307.584"/>
      </g>
     </g>
     <g id="text_8">
      <!-- 3 -->
      <g transform="translate(304.40275 322.182437)scale(0.1 -0.1)">
       <use xlink:href="#DejaVuSans-51"/>
      </g>
     </g>
    </g>
    <g id="xtick_9">
     <g id="line2d_9">
      <g>
       <use style="stroke:#000000;stroke-width:0.8;" x="343.296" xlink:href="#m9d2387d20d" y="307.584"/>
      </g>
     </g>
     <g id="text_9">
      <!-- 4 -->
      <g transform="translate(340.11475 322.182437)scale(0.1 -0.1)">
       <use xlink:href="#DejaVuSans-52"/>
      </g>
     </g>
    </g>
   </g>
   <g id="matplotlib.axis_2">
    <g id="ytick_1">
     <g id="line2d_10">
      <defs>
       <path d="M 0 0 
L -3.5 0 
" id="m77328c258f" style="stroke:#000000;stroke-width:0.8;"/>
      </defs>
      <g>
       <use style="stroke:#000000;stroke-width:0.8;" x="57.6" xlink:href="#m77328c258f" y="307.584"/>
      </g>
     </g>
     <g id="text_10">
      <!-- −4 -->
      <g transform="translate(35.857813 311.383219)scale(0.1 -0.1)">
       <use xlink:href="#DejaVuSans-8722"/>
       <use x="83.789062" xlink:href="#DejaVuSans-52"/>
      </g>
     </g>
    </g>
    <g id="ytick_2">
     <g id="line2d_11">
      <g>
       <use style="stroke:#000000;stroke-width:0.8;" x="57.6" xlink:href="#m77328c258f" y="274.32"/>
      </g>
     </g>
     <g id="text_11">
      <!-- −3 -->
      <g transform="translate(35.857813 278.119219)scale(0.1 -0.1)">
       <use xlink:href="#DejaVuSans-8722"/>
       <use x="83.789062" xlink:href="#DejaVuSans-51"/>
      </g>
     </g>
    </g>
    <g id="ytick_3">
     <g id="line2d_12">
      <g>
       <use style="stroke:#000000;stroke-width:0.8;" x="57.6" xlink:href="#m77328c258f" y="241.056"/>
      </g>
     </g>
     <g id="text_12">
      <!-- −2 -->
      <g transform="translate(35.857813 244.855219)scale(0.1 -0.1)">
       <use xlink:href="#DejaVuSans-8722"/>
       <use x="83.789062" xlink:href="#DejaVuSans-50"/>
      </g>
     </g>
    </g>
    <g id="ytick_4">
     <g id="line2d_13">
      <g>
       <use style="stroke:#000000;stroke-width:0.8;" x="57.6" xlink:href="#m77328c258f" y="207.792"/>
      </g>
     </g>
     <g id="text_13">
      <!-- −1 -->
      <g transform="translate(35.857813 211.591219)scale(0.1 -0.1)">
       <use xlink:href="#DejaVuSans-8722"/>
       <use x="83.789062" xlink:href="#DejaVuSans-49"/>
      </g>
     </g>
    </g>
    <g id="ytick_5">
     <g id="line2d_14">
      <g>
       <use style="stroke:#000000;stroke-width:0.8;" x="57.6" xlink:href="#m77328c258f" y="174.528"/>
      </g>
     </g>
     <g id="text_14">
      <!-- 0 -->
      <g transform="translate(44.2375 178.327219)scale(0.1 -0.1)">
       <use xlink:href="#DejaVuSans-48"/>
      </g>
     </g>
    </g>
    <g id="ytick_6">
     <g id="line2d_15">
      <g>
       <use style="stroke:#000000;stroke-width:0.8;" x="57.6" xlink:href="#m77328c258f" y="141.264"/>
      </g>
     </g>
     <g id="text_15">
      <!-- 1 -->
      <g transform="translate(44.2375 145.063219)scale(0.1 -0.1)">
       <use xlink:href="#DejaVuSans-49"/>
      </g>
     </g>
    </g>
    <g id="ytick_7">
     <g id="line2d_16">
      <g>
       <use style="stroke:#000000;stroke-width:0.8;" x="57.6" xlink:href="#m77328c258f" y="108"/>
      </g>
     </g>
     <g id="text_16">
      <!-- 2 -->
      <g transform="translate(44.2375 111.799219)scale(0.1 -0.1)">
       <use xlink:href="#DejaVuSans-50"/>
      </g>
     </g>
    </g>
    <g id="ytick_8">
     <g id="line2d_17">
      <g>
       <use style="stroke:#000000;stroke-width:0.8;" x="57.6" xlink:href="#m77328c258f" y="74.736"/>
      </g>
     </g>
     <g id="text_17">
      <!-- 3 -->
      <g transform="translate(44.2375 78.535219)scale(0.1 -0.1)">
       <use xlink:href="#DejaVuSans-51"/>
      </g>
     </g>
    </g>
    <g id="ytick_9">
     <g id="line2d_18">
      <g>
       <use style="stroke:#000000;stroke-width:0.8;" x="57.6" xlink:href="#m77328c258f" y="41.472"/>
      </g>
     </g>
     <g id="text_18">
      <!-- 4 -->
      <g transform="translate(44.2375 45.271219)scale(0.1 -0.1)">
       <use xlink:href="#DejaVuSans-52"/>
      </g>
     </g>
    </g>
   </g>
   <g id="LineCollection_1"/>
   <g id="LineCollection_2">
    <path clip-path="url(#pf47b65f5f3)" d="M 216.32 253.974701 
L 210.548364 253.21384 
L 204.776727 252.213403 
L 201.890909 251.623235 
L 199.005091 250.465433 
L 191.24644 245.76 
L 184.576 241.466849 
L 175.918545 235.594702 
L 167.56063 229.632 
L 163.920395 226.944 
L 161.489455 224.049893 
L 155.717818 216.548558 
L 152.832 212.595575 
L 147.81203 205.44 
L 141.288727 195.627257 
L 135.517091 186.572268 
L 126.859636 172.409746 
L 121.009478 162.432 
L 115.316364 152.119742 
L 112.331948 146.304 
L 109.544727 140.377706 
L 107.501425 135.552 
L 105.527129 130.176 
L 103.929568 124.8 
L 103.433322 122.112 
L 104.985519 119.424 
L 106.818516 116.736 
L 109.544727 113.47566 
L 112.430545 110.637874 
L 115.316364 108.252497 
L 118.564771 105.984 
L 123.267105 103.296 
L 123.973818 102.939128 
L 129.285073 100.608 
L 132.631273 99.40721 
L 138.402909 97.701128 
L 144.174545 96.411628 
L 149.946182 95.444937 
L 155.717818 94.777181 
L 161.489455 94.370375 
L 167.261091 94.203967 
L 173.032727 94.269065 
L 178.804364 94.561645 
L 185.82327 95.232 
L 190.347636 95.84216 
L 196.119273 96.842597 
L 199.005091 97.432765 
L 201.890909 98.590567 
L 209.64956 103.296 
L 216.32 107.589151 
L 224.977455 113.461298 
L 233.33537 119.424 
L 236.975605 122.112 
L 239.406545 125.006107 
L 245.178182 132.507442 
L 248.064 136.460425 
L 253.08397 143.616 
L 259.607273 153.428743 
L 265.378909 162.483732 
L 274.036364 176.646254 
L 279.886522 186.624 
L 285.579636 196.936258 
L 288.564052 202.752 
L 291.351273 208.678294 
L 293.394575 213.504 
L 295.368871 218.88 
L 296.966432 224.256 
L 297.462678 226.944 
L 295.910481 229.632 
L 294.077484 232.32 
L 291.351273 235.58034 
L 288.465455 238.418126 
L 285.579636 240.803503 
L 282.331229 243.072 
L 277.628895 245.76 
L 276.922182 246.116872 
L 271.610927 248.448 
L 268.264727 249.64879 
L 262.493091 251.354872 
L 256.721455 252.644372 
L 250.949818 253.611063 
L 245.178182 254.278819 
L 239.406545 254.685625 
L 233.634909 254.852033 
L 227.863273 254.786935 
L 222.091636 254.494355 
L 216.32 253.974701 
L 216.32 253.974701 
" style="fill:none;stroke:#00e38e;stroke-width:1.5;"/>
   </g>
   <g id="LineCollection_3">
    <path clip-path="url(#pf47b65f5f3)" d="M 262.493091 296.861012 
L 253.835636 296.115564 
L 245.178182 295.079557 
L 236.520727 293.768267 
L 227.863273 292.169185 
L 222.091636 290.936993 
L 213.263822 288.768 
L 207.662545 287.193993 
L 201.890909 285.404098 
L 199.005091 284.024839 
L 189.721685 278.016 
L 178.804364 270.612333 
L 164.375273 260.463259 
L 147.732109 248.448 
L 133.216924 237.696 
L 122.691914 229.632 
L 119.27828 226.944 
L 114.647878 221.568 
L 109.544727 215.278423 
L 103.773091 207.817267 
L 98.001455 199.973324 
L 92.229818 191.750021 
L 88.866827 186.624 
L 86.010568 181.248 
L 80.686545 169.897417 
L 76.157969 159.744 
L 72.029091 149.962418 
L 69.143273 142.657708 
L 66.257455 134.733945 
L 63.897776 127.488 
L 62.414917 122.112 
L 62.793296 116.736 
L 63.450857 111.36 
L 64.399474 105.984 
L 65.629373 100.608 
L 67.15948 95.232 
L 69.143273 89.468091 
L 71.18051 84.48 
L 72.404585 81.792 
L 75.163541 76.416 
L 78.39448 71.04 
L 80.686545 67.684932 
L 83.572364 63.917833 
L 86.458182 60.573042 
L 89.344 58.175836 
L 92.229818 56.959319 
L 95.115636 55.917477 
L 98.409496 54.912 
L 100.887273 54.273432 
L 106.658909 53.122783 
L 112.430545 52.36037 
L 118.202182 51.924683 
L 123.973818 51.751455 
L 129.745455 51.794927 
L 135.517091 52.021404 
L 141.288727 52.408561 
L 149.946182 53.255065 
L 158.603636 54.382012 
L 167.261091 55.789958 
L 175.918545 57.482815 
L 184.576 59.498039 
L 190.347636 61.031953 
L 196.884731 62.976 
L 199.005091 63.651902 
L 201.890909 65.031161 
L 211.174315 71.04 
L 222.091636 78.443667 
L 236.520727 88.592741 
L 253.163891 100.608 
L 267.679076 111.36 
L 278.204086 119.424 
L 281.61772 122.112 
L 286.248122 127.488 
L 291.351273 133.777577 
L 297.122909 141.238733 
L 302.894545 149.082676 
L 308.666182 157.305979 
L 312.029173 162.432 
L 314.885432 167.808 
L 320.209455 179.158583 
L 324.738031 189.312 
L 328.866909 199.093582 
L 331.752727 206.398292 
L 334.638545 214.322055 
L 336.998224 221.568 
L 338.481083 226.944 
L 338.102704 232.32 
L 337.445143 237.696 
L 336.496526 243.072 
L 335.266627 248.448 
L 333.73652 253.824 
L 331.752727 259.587909 
L 329.71549 264.576 
L 328.491415 267.264 
L 325.732459 272.64 
L 322.50152 278.016 
L 320.209455 281.371068 
L 317.323636 285.138167 
L 314.437818 288.482958 
L 311.552 290.880164 
L 308.666182 292.096681 
L 305.780364 293.138523 
L 302.486504 294.144 
L 300.008727 294.782568 
L 294.237091 295.933217 
L 288.465455 296.69563 
L 282.693818 297.131317 
L 276.922182 297.304545 
L 271.150545 297.261073 
L 265.378909 297.034596 
L 262.493091 296.861012 
L 262.493091 296.861012 
" style="fill:none;stroke:#00c79c;stroke-width:1.5;"/>
   </g>
   <g id="LineCollection_4">
    <path clip-path="url(#pf47b65f5f3)" d="M 191.290434 307.584 
L 190.347636 306.942881 
L 187.461818 304.958833 
L 187.371581 304.896 
L 184.576 302.943381 
L 183.531673 302.208 
L 181.690182 300.908026 
L 179.737786 299.52 
L 178.804364 298.855079 
L 175.981479 296.832 
L 175.918545 296.786829 
L 173.032727 294.698896 
L 172.269172 294.144 
L 170.146909 292.600016 
L 168.579784 291.456 
L 167.261091 290.492627 
L 164.906773 288.768 
L 164.375273 288.378477 
L 161.489455 286.257215 
L 161.2492 286.08 
L 158.603636 284.128124 
L 157.606951 283.392 
L 155.717818 281.996604 
L 153.969035 280.704 
L 152.832 279.863551 
L 150.333422 278.016 
L 149.946182 277.729656 
L 147.060364 275.592573 
L 146.703613 275.328 
L 144.174545 273.45226 
L 143.07938 272.64 
L 141.288727 271.311649 
L 139.455986 269.952 
L 138.402909 269.17045 
L 135.834604 267.264 
L 135.517091 267.028156 
L 132.631273 264.880541 
L 132.222804 264.576 
L 129.745455 262.727176 
L 128.622202 261.888 
L 126.859636 260.569408 
L 125.031941 259.2 
L 123.973818 258.405767 
L 121.456014 256.512 
L 121.088 256.234559 
L 118.202182 254.050836 
L 117.903783 253.824 
L 115.316364 251.851508 
L 114.381506 251.136 
L 112.430545 249.637642 
L 110.888835 248.448 
L 109.544727 247.406563 
L 107.431287 245.76 
L 106.658909 245.155338 
L 104.01449 243.072 
L 103.773091 242.880755 
L 100.887273 240.57603 
L 100.648933 240.384 
L 98.001455 238.237408 
L 97.33956 237.696 
L 95.115636 235.863837 
L 94.086776 235.008 
L 92.229818 233.450864 
L 90.895288 232.32 
L 89.344 230.993636 
L 88.008323 229.632 
L 86.458182 228.036001 
L 85.495104 226.944 
L 83.750672 224.256 
L 83.572364 223.969359 
L 82.090195 221.568 
L 80.686545 219.263563 
L 80.454555 218.88 
L 78.857793 216.192 
L 77.800727 214.390105 
L 77.284198 213.504 
L 75.740399 210.816 
L 74.914909 209.36114 
L 74.219198 208.128 
L 72.720964 205.44 
L 72.029091 204.184673 
L 71.243453 202.752 
L 69.783969 200.064 
L 69.143273 198.872192 
L 68.342501 197.376 
L 66.915717 194.688 
L 66.257455 193.437365 
L 65.503807 192 
L 64.104604 189.312 
L 63.371636 187.894303 
L 62.717021 186.624 
L 61.341372 183.936 
L 60.485818 182.255596 
L 59.974222 181.248 
L 58.619327 178.56 
L 57.6 176.530324 
" style="fill:none;stroke:#00aaaa;stroke-width:1.5;"/>
    <path clip-path="url(#pf47b65f5f3)" d="M 209.605566 41.472 
L 210.548364 42.113119 
L 213.434182 44.097167 
L 213.524419 44.16 
L 216.32 46.112619 
L 217.364327 46.848 
L 219.205818 48.147974 
L 221.158214 49.536 
L 222.091636 50.200921 
L 224.914521 52.224 
L 224.977455 52.269171 
L 227.863273 54.357104 
L 228.626828 54.912 
L 230.749091 56.455984 
L 232.316216 57.6 
L 233.634909 58.563373 
L 235.989227 60.288 
L 236.520727 60.677523 
L 239.406545 62.798785 
L 239.6468 62.976 
L 242.292364 64.927876 
L 243.289049 65.664 
L 245.178182 67.059396 
L 246.926965 68.352 
L 248.064 69.192449 
L 250.562578 71.04 
L 250.949818 71.326344 
L 253.835636 73.463427 
L 254.192387 73.728 
L 256.721455 75.60374 
L 257.81662 76.416 
L 259.607273 77.744351 
L 261.440014 79.104 
L 262.493091 79.88555 
L 265.061396 81.792 
L 265.378909 82.027844 
L 268.264727 84.175459 
L 268.673196 84.48 
L 271.150545 86.328824 
L 272.273798 87.168 
L 274.036364 88.486592 
L 275.864059 89.856 
L 276.922182 90.650233 
L 279.439986 92.544 
L 279.808 92.821441 
L 282.693818 95.005164 
L 282.992217 95.232 
L 285.579636 97.204492 
L 286.514494 97.92 
L 288.465455 99.418358 
L 290.007165 100.608 
L 291.351273 101.649437 
L 293.464713 103.296 
L 294.237091 103.900662 
L 296.88151 105.984 
L 297.122909 106.175245 
L 300.008727 108.47997 
L 300.247067 108.672 
L 302.894545 110.818592 
L 303.55644 111.36 
L 305.780364 113.192163 
L 306.809224 114.048 
L 308.666182 115.605136 
L 310.000712 116.736 
L 311.552 118.062364 
L 312.887677 119.424 
L 314.437818 121.019999 
L 315.400896 122.112 
L 317.145328 124.8 
L 317.323636 125.086641 
L 318.805805 127.488 
L 320.209455 129.792437 
L 320.441445 130.176 
L 322.038207 132.864 
L 323.095273 134.665895 
L 323.611802 135.552 
L 325.155601 138.24 
L 325.981091 139.69486 
L 326.676802 140.928 
L 328.175036 143.616 
L 328.866909 144.871327 
L 329.652547 146.304 
L 331.112031 148.992 
L 331.752727 150.183808 
L 332.553499 151.68 
L 333.980283 154.368 
L 334.638545 155.618635 
L 335.392193 157.056 
L 336.791396 159.744 
L 337.524364 161.161697 
L 338.178979 162.432 
L 339.554628 165.12 
L 340.410182 166.800404 
L 340.921778 167.808 
L 342.276673 170.496 
L 343.296 172.525676 
" style="fill:none;stroke:#00aaaa;stroke-width:1.5;"/>
   </g>
   <g id="LineCollection_5">
    <path clip-path="url(#pf47b65f5f3)" d="M 156.678943 307.584 
L 155.717818 306.865529 
L 153.084698 304.896 
L 152.832 304.706464 
L 149.946182 302.538053 
L 149.507363 302.208 
L 147.060364 300.363419 
L 145.94154 299.52 
L 144.174545 298.185619 
L 142.382087 296.832 
L 141.288727 296.005216 
L 138.827534 294.144 
L 138.402909 293.822575 
L 135.517091 291.636027 
L 135.279906 291.456 
L 132.631273 289.44432 
L 131.741369 288.768 
L 129.745455 287.250501 
L 128.207418 286.08 
L 126.859636 285.054067 
L 124.679147 283.392 
L 123.973818 282.85432 
L 121.158214 280.704 
L 121.088 280.650376 
L 118.202182 278.437163 
L 117.654755 278.016 
L 115.316364 276.216942 
L 114.165031 275.328 
L 112.430545 273.988721 
L 110.691206 272.64 
L 109.544727 271.750837 
L 107.236761 269.952 
L 106.658909 269.501462 
L 103.805457 267.264 
L 103.773091 267.238606 
L 100.887273 264.956203 
L 100.410028 264.576 
L 98.001455 262.655505 
L 97.0465 261.888 
L 95.115636 260.334258 
L 93.718302 259.2 
L 92.229818 257.989798 
L 90.429367 256.512 
L 89.344 255.619292 
L 87.484652 253.824 
L 86.458182 252.830338 
L 84.856883 251.136 
L 83.572364 249.772594 
L 82.333326 248.448 
L 80.686545 246.680941 
L 79.833824 245.76 
L 77.800727 243.554645 
L 77.358352 243.072 
L 74.914909 240.392636 
L 74.907074 240.384 
L 72.486065 237.696 
L 72.029091 237.185257 
L 70.089908 235.008 
L 69.143273 233.937246 
L 67.719152 232.32 
L 66.257455 230.646339 
L 65.37459 229.632 
L 63.371636 227.309699 
L 63.057133 226.944 
L 61.312363 224.256 
L 60.485818 222.937605 
L 59.629238 221.568 
L 57.970746 218.88 
L 57.6 218.269949 
" style="fill:none;stroke:#008eb8;stroke-width:1.5;"/>
    <path clip-path="url(#pf47b65f5f3)" d="M 244.217057 41.472 
L 245.178182 42.190471 
L 247.811302 44.16 
L 248.064 44.349536 
L 250.949818 46.517947 
L 251.388637 46.848 
L 253.835636 48.692581 
L 254.95446 49.536 
L 256.721455 50.870381 
L 258.513913 52.224 
L 259.607273 53.050784 
L 262.068466 54.912 
L 262.493091 55.233425 
L 265.378909 57.419973 
L 265.616094 57.6 
L 268.264727 59.61168 
L 269.154631 60.288 
L 271.150545 61.805499 
L 272.688582 62.976 
L 274.036364 64.001933 
L 276.216853 65.664 
L 276.922182 66.20168 
L 279.737786 68.352 
L 279.808 68.405624 
L 282.693818 70.618837 
L 283.241245 71.04 
L 285.579636 72.839058 
L 286.730969 73.728 
L 288.465455 75.067279 
L 290.204794 76.416 
L 291.351273 77.305163 
L 293.659239 79.104 
L 294.237091 79.554538 
L 297.090543 81.792 
L 297.122909 81.817394 
L 300.008727 84.099797 
L 300.485972 84.48 
L 302.894545 86.400495 
L 303.8495 87.168 
L 305.780364 88.721742 
L 307.177698 89.856 
L 308.666182 91.066202 
L 310.466633 92.544 
L 311.552 93.436708 
L 313.411348 95.232 
L 314.437818 96.225662 
L 316.039117 97.92 
L 317.323636 99.283406 
L 318.562674 100.608 
L 320.209455 102.375059 
L 321.062176 103.296 
L 323.095273 105.501355 
L 323.537648 105.984 
L 325.981091 108.663364 
L 325.988926 108.672 
L 328.409935 111.36 
L 328.866909 111.870743 
L 330.806092 114.048 
L 331.752727 115.118754 
L 333.176848 116.736 
L 334.638545 118.409661 
L 335.52141 119.424 
L 337.524364 121.746301 
L 337.838867 122.112 
L 339.583637 124.8 
L 340.410182 126.118395 
L 341.266762 127.488 
L 342.925254 130.176 
L 343.296 130.786051 
" style="fill:none;stroke:#008eb8;stroke-width:1.5;"/>
   </g>
   <g id="LineCollection_6">
    <path clip-path="url(#pf47b65f5f3)" d="M 126.97508 307.584 
L 126.859636 307.495582 
L 123.973818 305.279224 
L 123.475842 304.896 
L 121.088 303.053811 
L 119.994015 302.208 
L 118.202182 300.819836 
L 116.528854 299.52 
L 115.316364 298.576629 
L 113.081337 296.832 
L 112.430545 296.32338 
L 109.652777 294.144 
L 109.544727 294.059151 
L 106.658909 291.779854 
L 106.251121 291.456 
L 103.773091 289.486832 
L 102.873791 288.768 
L 100.887273 287.179536 
L 99.521218 286.08 
L 98.001455 284.856501 
L 96.195561 283.392 
L 95.115636 282.516159 
L 92.899073 280.704 
L 92.229818 280.15684 
L 89.634052 278.016 
L 89.344 277.77678 
L 86.785099 275.328 
L 86.458182 275.015134 
L 84.174514 272.64 
L 83.572364 272.01363 
L 81.603736 269.952 
L 80.686545 268.991166 
L 79.04781 267.264 
L 77.800727 265.94891 
L 76.505876 264.576 
L 74.914909 262.887754 
L 73.977302 261.888 
L 72.029091 259.808302 
L 71.461664 259.2 
L 69.143273 256.710857 
L 68.95874 256.512 
L 66.470774 253.824 
L 66.257455 253.592842 
L 63.997445 251.136 
L 63.371636 250.45369 
L 61.537008 248.448 
L 60.485818 247.294777 
L 59.089977 245.76 
L 57.6 244.114996 
" style="fill:none;stroke:#0071c6;stroke-width:1.5;"/>
    <path clip-path="url(#pf47b65f5f3)" d="M 273.92092 41.472 
L 274.036364 41.560418 
L 276.922182 43.776776 
L 277.420158 44.16 
L 279.808 46.002189 
L 280.901985 46.848 
L 282.693818 48.236164 
L 284.367146 49.536 
L 285.579636 50.479371 
L 287.814663 52.224 
L 288.465455 52.73262 
L 291.243223 54.912 
L 291.351273 54.996849 
L 294.237091 57.276146 
L 294.644879 57.6 
L 297.122909 59.569168 
L 298.022209 60.288 
L 300.008727 61.876464 
L 301.374782 62.976 
L 302.894545 64.199499 
L 304.700439 65.664 
L 305.780364 66.539841 
L 307.996927 68.352 
L 308.666182 68.89916 
L 311.261948 71.04 
L 311.552 71.27922 
L 314.110901 73.728 
L 314.437818 74.040866 
L 316.721486 76.416 
L 317.323636 77.04237 
L 319.292264 79.104 
L 320.209455 80.064834 
L 321.84819 81.792 
L 323.095273 83.10709 
L 324.390124 84.48 
L 325.981091 86.168246 
L 326.918698 87.168 
L 328.866909 89.247698 
L 329.434336 89.856 
L 331.752727 92.345143 
L 331.93726 92.544 
L 334.425226 95.232 
L 334.638545 95.463158 
L 336.898555 97.92 
L 337.524364 98.60231 
L 339.358992 100.608 
L 340.410182 101.761223 
L 341.806023 103.296 
L 343.296 104.941004 
" style="fill:none;stroke:#0071c6;stroke-width:1.5;"/>
   </g>
   <g id="LineCollection_7">
    <path clip-path="url(#pf47b65f5f3)" d="M 100.574728 307.584 
L 98.001455 305.509488 
L 97.245595 304.896 
L 95.115636 303.163226 
L 93.950149 302.208 
L 92.229818 300.795371 
L 90.689177 299.52 
L 89.344 298.40478 
L 87.692447 296.832 
L 86.458182 295.655272 
L 84.992166 294.144 
L 83.572364 292.67916 
L 82.394295 291.456 
L 80.686545 289.681886 
L 79.811862 288.768 
L 77.800727 286.665995 
L 77.242931 286.08 
L 74.914909 283.633833 
L 74.685802 283.392 
L 72.140233 280.704 
L 72.029091 280.586561 
L 69.606149 278.016 
L 69.143273 277.524918 
L 67.079792 275.328 
L 66.257455 274.452437 
L 64.560323 272.64 
L 63.371636 271.370356 
L 62.047105 269.952 
L 60.485818 268.279604 
L 59.539697 267.264 
L 57.6 265.180787 
" style="fill:none;stroke:#0055d4;stroke-width:1.5;"/>
    <path clip-path="url(#pf47b65f5f3)" d="M 300.321272 41.472 
L 302.894545 43.546512 
L 303.650405 44.16 
L 305.780364 45.892774 
L 306.945851 46.848 
L 308.666182 48.260629 
L 310.206823 49.536 
L 311.552 50.65122 
L 313.203553 52.224 
L 314.437818 53.400728 
L 315.903834 54.912 
L 317.323636 56.37684 
L 318.501705 57.6 
L 320.209455 59.374114 
L 321.084138 60.288 
L 323.095273 62.390005 
L 323.653069 62.976 
L 325.981091 65.422167 
L 326.210198 65.664 
L 328.755767 68.352 
L 328.866909 68.469439 
L 331.289851 71.04 
L 331.752727 71.531082 
L 333.816208 73.728 
L 334.638545 74.603563 
L 336.335677 76.416 
L 337.524364 77.685644 
L 338.848895 79.104 
L 340.410182 80.776396 
L 341.356303 81.792 
L 343.296 83.875213 
" style="fill:none;stroke:#0055d4;stroke-width:1.5;"/>
   </g>
   <g id="LineCollection_8">
    <path clip-path="url(#pf47b65f5f3)" d="M 79.241606 307.584 
L 77.800727 306.098888 
L 76.639347 304.896 
L 74.914909 303.106013 
L 74.053525 302.208 
L 72.029091 300.093718 
L 71.481846 299.52 
L 69.143273 297.064844 
L 68.92222 296.832 
L 66.373873 294.144 
L 66.257455 294.021033 
L 63.836 291.456 
L 63.371636 290.963839 
L 61.304853 288.768 
L 60.485818 287.897533 
L 58.779129 286.08 
L 57.6 284.824067 
" style="fill:none;stroke:#0038e3;stroke-width:1.5;"/>
    <path clip-path="url(#pf47b65f5f3)" d="M 321.654394 41.472 
L 323.095273 42.957112 
L 324.256653 44.16 
L 325.981091 45.949987 
L 326.842475 46.848 
L 328.866909 48.962282 
L 329.414154 49.536 
L 331.752727 51.991156 
L 331.97378 52.224 
L 334.522127 54.912 
L 334.638545 55.034967 
L 337.06 57.6 
L 337.524364 58.092161 
L 339.591147 60.288 
L 340.410182 61.158467 
L 342.116871 62.976 
L 343.296 64.231933 
" style="fill:none;stroke:#0038e3;stroke-width:1.5;"/>
   </g>
   <g id="LineCollection_9">
    <path clip-path="url(#pf47b65f5f3)" d="M 61.606085 307.584 
L 60.485818 306.41006 
L 59.043767 304.896 
L 57.6 303.376958 
" style="fill:none;stroke:#001cf1;stroke-width:1.5;"/>
    <path clip-path="url(#pf47b65f5f3)" d="M 339.289915 41.472 
L 340.410182 42.64594 
L 341.852233 44.16 
L 343.296 45.679042 
" style="fill:none;stroke:#001cf1;stroke-width:1.5;"/>
   </g>
   <g id="LineCollection_10"/>
   <g id="patch_3">
    <path d="M 57.6 307.584 
L 57.6 41.472 
" style="fill:none;stroke:#000000;stroke-linecap:square;stroke-linejoin:miter;stroke-width:0.8;"/>
   </g>
   <g id="patch_4">
    <path d="M 343.296 307.584 
L 343.296 41.472 
" style="fill:none;stroke:#000000;stroke-linecap:square;stroke-linejoin:miter;stroke-width:0.8;"/>
   </g>
   <g id="patch_5">
    <path d="M 57.6 307.584 
L 343.296 307.584 
" style="fill:none;stroke:#000000;stroke-linecap:square;stroke-linejoin:miter;stroke-width:0.8;"/>
   </g>
   <g id="patch_6">
    <path d="M 57.6 41.472 
L 343.296 41.472 
" style="fill:none;stroke:#000000;stroke-linecap:square;stroke-linejoin:miter;stroke-width:0.8;"/>
   </g>
  </g>
  <g id="axes_2">
   <g id="patch_7">
    <path clip-path="url(#p596710b3c5)" d="M 361.152 307.584 
L 361.152 278.016 
L 361.152 71.04 
L 361.152 41.472 
L 374.4576 41.472 
L 374.4576 71.04 
L 374.4576 278.016 
L 374.4576 307.584 
z
" style="fill:#ffffff;stroke:#ffffff;stroke-linejoin:miter;stroke-width:0.01;"/>
   </g>
   <g id="matplotlib.axis_3"/>
   <g id="matplotlib.axis_4">
    <g id="ytick_10">
     <g id="line2d_19">
      <defs>
       <path d="M 0 0 
L 3.5 0 
" id="m0b77c1a1aa" style="stroke:#000000;stroke-width:0.8;"/>
      </defs>
      <g>
       <use style="stroke:#000000;stroke-width:0.8;" x="374.4576" xlink:href="#m0b77c1a1aa" y="307.584"/>
      </g>
     </g>
     <g id="text_19">
      <!-- 0 -->
      <g transform="translate(381.4576 311.383219)scale(0.1 -0.1)">
       <use xlink:href="#DejaVuSans-48"/>
      </g>
     </g>
    </g>
    <g id="ytick_11">
     <g id="line2d_20">
      <g>
       <use style="stroke:#000000;stroke-width:0.8;" x="374.4576" xlink:href="#m0b77c1a1aa" y="278.016"/>
      </g>
     </g>
     <g id="text_20">
      <!-- 6 -->
      <defs>
       <path d="M 33.015625 40.375 
Q 26.375 40.375 22.484375 35.828125 
Q 18.609375 31.296875 18.609375 23.390625 
Q 18.609375 15.53125 22.484375 10.953125 
Q 26.375 6.390625 33.015625 6.390625 
Q 39.65625 6.390625 43.53125 10.953125 
Q 47.40625 15.53125 47.40625 23.390625 
Q 47.40625 31.296875 43.53125 35.828125 
Q 39.65625 40.375 33.015625 40.375 
z
M 52.59375 71.296875 
L 52.59375 62.3125 
Q 48.875 64.0625 45.09375 64.984375 
Q 41.3125 65.921875 37.59375 65.921875 
Q 27.828125 65.921875 22.671875 59.328125 
Q 17.53125 52.734375 16.796875 39.40625 
Q 19.671875 43.65625 24.015625 45.921875 
Q 28.375 48.1875 33.59375 48.1875 
Q 44.578125 48.1875 50.953125 41.515625 
Q 57.328125 34.859375 57.328125 23.390625 
Q 57.328125 12.15625 50.6875 5.359375 
Q 44.046875 -1.421875 33.015625 -1.421875 
Q 20.359375 -1.421875 13.671875 8.265625 
Q 6.984375 17.96875 6.984375 36.375 
Q 6.984375 53.65625 15.1875 63.9375 
Q 23.390625 74.21875 37.203125 74.21875 
Q 40.921875 74.21875 44.703125 73.484375 
Q 48.484375 72.75 52.59375 71.296875 
z
" id="DejaVuSans-54"/>
      </defs>
      <g transform="translate(381.4576 281.815219)scale(0.1 -0.1)">
       <use xlink:href="#DejaVuSans-54"/>
      </g>
     </g>
    </g>
    <g id="ytick_12">
     <g id="line2d_21">
      <g>
       <use style="stroke:#000000;stroke-width:0.8;" x="374.4576" xlink:href="#m0b77c1a1aa" y="248.448"/>
      </g>
     </g>
     <g id="text_21">
      <!-- 12 -->
      <g transform="translate(381.4576 252.247219)scale(0.1 -0.1)">
       <use xlink:href="#DejaVuSans-49"/>
       <use x="63.623047" xlink:href="#DejaVuSans-50"/>
      </g>
     </g>
    </g>
    <g id="ytick_13">
     <g id="line2d_22">
      <g>
       <use style="stroke:#000000;stroke-width:0.8;" x="374.4576" xlink:href="#m0b77c1a1aa" y="218.88"/>
      </g>
     </g>
     <g id="text_22">
      <!-- 18 -->
      <defs>
       <path d="M 31.78125 34.625 
Q 24.75 34.625 20.71875 30.859375 
Q 16.703125 27.09375 16.703125 20.515625 
Q 16.703125 13.921875 20.71875 10.15625 
Q 24.75 6.390625 31.78125 6.390625 
Q 38.8125 6.390625 42.859375 10.171875 
Q 46.921875 13.96875 46.921875 20.515625 
Q 46.921875 27.09375 42.890625 30.859375 
Q 38.875 34.625 31.78125 34.625 
z
M 21.921875 38.8125 
Q 15.578125 40.375 12.03125 44.71875 
Q 8.5 49.078125 8.5 55.328125 
Q 8.5 64.0625 14.71875 69.140625 
Q 20.953125 74.21875 31.78125 74.21875 
Q 42.671875 74.21875 48.875 69.140625 
Q 55.078125 64.0625 55.078125 55.328125 
Q 55.078125 49.078125 51.53125 44.71875 
Q 48 40.375 41.703125 38.8125 
Q 48.828125 37.15625 52.796875 32.3125 
Q 56.78125 27.484375 56.78125 20.515625 
Q 56.78125 9.90625 50.3125 4.234375 
Q 43.84375 -1.421875 31.78125 -1.421875 
Q 19.734375 -1.421875 13.25 4.234375 
Q 6.78125 9.90625 6.78125 20.515625 
Q 6.78125 27.484375 10.78125 32.3125 
Q 14.796875 37.15625 21.921875 38.8125 
z
M 18.3125 54.390625 
Q 18.3125 48.734375 21.84375 45.5625 
Q 25.390625 42.390625 31.78125 42.390625 
Q 38.140625 42.390625 41.71875 45.5625 
Q 45.3125 48.734375 45.3125 54.390625 
Q 45.3125 60.0625 41.71875 63.234375 
Q 38.140625 66.40625 31.78125 66.40625 
Q 25.390625 66.40625 21.84375 63.234375 
Q 18.3125 60.0625 18.3125 54.390625 
z
" id="DejaVuSans-56"/>
      </defs>
      <g transform="translate(381.4576 222.679219)scale(0.1 -0.1)">
       <use xlink:href="#DejaVuSans-49"/>
       <use x="63.623047" xlink:href="#DejaVuSans-56"/>
      </g>
     </g>
    </g>
    <g id="ytick_14">
     <g id="line2d_23">
      <g>
       <use style="stroke:#000000;stroke-width:0.8;" x="374.4576" xlink:href="#m0b77c1a1aa" y="189.312"/>
      </g>
     </g>
     <g id="text_23">
      <!-- 24 -->
      <g transform="translate(381.4576 193.111219)scale(0.1 -0.1)">
       <use xlink:href="#DejaVuSans-50"/>
       <use x="63.623047" xlink:href="#DejaVuSans-52"/>
      </g>
     </g>
    </g>
    <g id="ytick_15">
     <g id="line2d_24">
      <g>
       <use style="stroke:#000000;stroke-width:0.8;" x="374.4576" xlink:href="#m0b77c1a1aa" y="159.744"/>
      </g>
     </g>
     <g id="text_24">
      <!-- 30 -->
      <g transform="translate(381.4576 163.543219)scale(0.1 -0.1)">
       <use xlink:href="#DejaVuSans-51"/>
       <use x="63.623047" xlink:href="#DejaVuSans-48"/>
      </g>
     </g>
    </g>
    <g id="ytick_16">
     <g id="line2d_25">
      <g>
       <use style="stroke:#000000;stroke-width:0.8;" x="374.4576" xlink:href="#m0b77c1a1aa" y="130.176"/>
      </g>
     </g>
     <g id="text_25">
      <!-- 36 -->
      <g transform="translate(381.4576 133.975219)scale(0.1 -0.1)">
       <use xlink:href="#DejaVuSans-51"/>
       <use x="63.623047" xlink:href="#DejaVuSans-54"/>
      </g>
     </g>
    </g>
    <g id="ytick_17">
     <g id="line2d_26">
      <g>
       <use style="stroke:#000000;stroke-width:0.8;" x="374.4576" xlink:href="#m0b77c1a1aa" y="100.608"/>
      </g>
     </g>
     <g id="text_26">
      <!-- 42 -->
      <g transform="translate(381.4576 104.407219)scale(0.1 -0.1)">
       <use xlink:href="#DejaVuSans-52"/>
       <use x="63.623047" xlink:href="#DejaVuSans-50"/>
      </g>
     </g>
    </g>
    <g id="ytick_18">
     <g id="line2d_27">
      <g>
       <use style="stroke:#000000;stroke-width:0.8;" x="374.4576" xlink:href="#m0b77c1a1aa" y="71.04"/>
      </g>
     </g>
     <g id="text_27">
      <!-- 48 -->
      <g transform="translate(381.4576 74.839219)scale(0.1 -0.1)">
       <use xlink:href="#DejaVuSans-52"/>
       <use x="63.623047" xlink:href="#DejaVuSans-56"/>
      </g>
     </g>
    </g>
    <g id="ytick_19">
     <g id="line2d_28">
      <g>
       <use style="stroke:#000000;stroke-width:0.8;" x="374.4576" xlink:href="#m0b77c1a1aa" y="41.472"/>
      </g>
     </g>
     <g id="text_28">
      <!-- 54 -->
      <defs>
       <path d="M 10.796875 72.90625 
L 49.515625 72.90625 
L 49.515625 64.59375 
L 19.828125 64.59375 
L 19.828125 46.734375 
Q 21.96875 47.46875 24.109375 47.828125 
Q 26.265625 48.1875 28.421875 48.1875 
Q 40.625 48.1875 47.75 41.5 
Q 54.890625 34.8125 54.890625 23.390625 
Q 54.890625 11.625 47.5625 5.09375 
Q 40.234375 -1.421875 26.90625 -1.421875 
Q 22.3125 -1.421875 17.546875 -0.640625 
Q 12.796875 0.140625 7.71875 1.703125 
L 7.71875 11.625 
Q 12.109375 9.234375 16.796875 8.0625 
Q 21.484375 6.890625 26.703125 6.890625 
Q 35.15625 6.890625 40.078125 11.328125 
Q 45.015625 15.765625 45.015625 23.390625 
Q 45.015625 31 40.078125 35.4375 
Q 35.15625 39.890625 26.703125 39.890625 
Q 22.75 39.890625 18.8125 39.015625 
Q 14.890625 38.140625 10.796875 36.28125 
z
" id="DejaVuSans-53"/>
      </defs>
      <g transform="translate(381.4576 45.271219)scale(0.1 -0.1)">
       <use xlink:href="#DejaVuSans-53"/>
       <use x="63.623047" xlink:href="#DejaVuSans-52"/>
      </g>
     </g>
    </g>
   </g>
   <g id="LineCollection_11">
    <path clip-path="url(#p596710b3c5)" d="M 361.152 307.584 
L 374.4576 307.584 
" style="fill:none;stroke:#00ff80;stroke-width:1.5;"/>
    <path clip-path="url(#p596710b3c5)" d="M 361.152 278.016 
L 374.4576 278.016 
" style="fill:none;stroke:#00e38e;stroke-width:1.5;"/>
    <path clip-path="url(#p596710b3c5)" d="M 361.152 248.448 
L 374.4576 248.448 
" style="fill:none;stroke:#00c79c;stroke-width:1.5;"/>
    <path clip-path="url(#p596710b3c5)" d="M 361.152 218.88 
L 374.4576 218.88 
" style="fill:none;stroke:#00aaaa;stroke-width:1.5;"/>
    <path clip-path="url(#p596710b3c5)" d="M 361.152 189.312 
L 374.4576 189.312 
" style="fill:none;stroke:#008eb8;stroke-width:1.5;"/>
    <path clip-path="url(#p596710b3c5)" d="M 361.152 159.744 
L 374.4576 159.744 
" style="fill:none;stroke:#0071c6;stroke-width:1.5;"/>
    <path clip-path="url(#p596710b3c5)" d="M 361.152 130.176 
L 374.4576 130.176 
" style="fill:none;stroke:#0055d4;stroke-width:1.5;"/>
    <path clip-path="url(#p596710b3c5)" d="M 361.152 100.608 
L 374.4576 100.608 
" style="fill:none;stroke:#0038e3;stroke-width:1.5;"/>
    <path clip-path="url(#p596710b3c5)" d="M 361.152 71.04 
L 374.4576 71.04 
" style="fill:none;stroke:#001cf1;stroke-width:1.5;"/>
    <path clip-path="url(#p596710b3c5)" d="M 361.152 41.472 
L 374.4576 41.472 
" style="fill:none;stroke:#0000ff;stroke-width:1.5;"/>
   </g>
   <g id="patch_8">
    <path d="M 361.152 307.584 
L 361.152 278.016 
L 361.152 71.04 
L 361.152 41.472 
L 374.4576 41.472 
L 374.4576 71.04 
L 374.4576 278.016 
L 374.4576 307.584 
z
" style="fill:none;stroke:#000000;stroke-linejoin:miter;stroke-width:0.8;"/>
   </g>
  </g>
 </g>
 <defs>
  <clipPath id="pf47b65f5f3">
   <rect height="266.112" width="285.696" x="57.6" y="41.472"/>
  </clipPath>
  <clipPath id="p596710b3c5">
   <rect height="266.112" width="13.3056" x="361.152" y="41.472"/>
  </clipPath>
 </defs>
</svg>
