<?xml version="1.0" encoding="utf-8" standalone="no"?>
<!DOCTYPE svg PUBLIC "-//W3C//DTD SVG 1.1//EN"
  "http://www.w3.org/Graphics/SVG/1.1/DTD/svg11.dtd">
<!-- Created with matplotlib (https://matplotlib.org/) -->
<svg height="345.6pt" version="1.1" viewBox="0 0 460.8 345.6" width="460.8pt" xmlns="http://www.w3.org/2000/svg" xmlns:xlink="http://www.w3.org/1999/xlink">
 <defs>
  <style type="text/css">
*{stroke-linecap:butt;stroke-linejoin:round;}
  </style>
 </defs>
 <g id="figure_1">
  <g id="patch_1">
   <path d="M 0 345.6 
L 460.8 345.6 
L 460.8 0 
L 0 0 
z
" style="fill:#ffffff;"/>
  </g>
  <g id="axes_1">
   <g id="patch_2">
    <path d="M 57.6 307.584 
L 343.296 307.584 
L 343.296 41.472 
L 57.6 41.472 
z
" style="fill:#ffffff;"/>
   </g>
   <g id="matplotlib.axis_1">
    <g id="xtick_1">
     <g id="line2d_1">
      <defs>
       <path d="M 0 0 
L 0 3.5 
" id="m892bb3e377" style="stroke:#000000;stroke-width:0.8;"/>
      </defs>
      <g>
       <use style="stroke:#000000;stroke-width:0.8;" x="86.1696" xlink:href="#m892bb3e377" y="307.584"/>
      </g>
     </g>
     <g id="text_1">
      <!-- −4 -->
      <defs>
       <path d="M 10.59375 35.5 
L 73.1875 35.5 
L 73.1875 27.203125 
L 10.59375 27.203125 
z
" id="DejaVuSans-8722"/>
       <path d="M 37.796875 64.3125 
L 12.890625 25.390625 
L 37.796875 25.390625 
z
M 35.203125 72.90625 
L 47.609375 72.90625 
L 47.609375 25.390625 
L 58.015625 25.390625 
L 58.015625 17.1875 
L 47.609375 17.1875 
L 47.609375 0 
L 37.796875 0 
L 37.796875 17.1875 
L 4.890625 17.1875 
L 4.890625 26.703125 
z
" id="DejaVuSans-52"/>
      </defs>
      <g transform="translate(78.798506 322.182437)scale(0.1 -0.1)">
       <use xlink:href="#DejaVuSans-8722"/>
       <use x="83.789062" xlink:href="#DejaVuSans-52"/>
      </g>
     </g>
    </g>
    <g id="xtick_2">
     <g id="line2d_2">
      <g>
       <use style="stroke:#000000;stroke-width:0.8;" x="143.3088" xlink:href="#m892bb3e377" y="307.584"/>
      </g>
     </g>
     <g id="text_2">
      <!-- −2 -->
      <defs>
       <path d="M 19.1875 8.296875 
L 53.609375 8.296875 
L 53.609375 0 
L 7.328125 0 
L 7.328125 8.296875 
Q 12.9375 14.109375 22.625 23.890625 
Q 32.328125 33.6875 34.8125 36.53125 
Q 39.546875 41.84375 41.421875 45.53125 
Q 43.3125 49.21875 43.3125 52.78125 
Q 43.3125 58.59375 39.234375 62.25 
Q 35.15625 65.921875 28.609375 65.921875 
Q 23.96875 65.921875 18.8125 64.3125 
Q 13.671875 62.703125 7.8125 59.421875 
L 7.8125 69.390625 
Q 13.765625 71.78125 18.9375 73 
Q 24.125 74.21875 28.421875 74.21875 
Q 39.75 74.21875 46.484375 68.546875 
Q 53.21875 62.890625 53.21875 53.421875 
Q 53.21875 48.921875 51.53125 44.890625 
Q 49.859375 40.875 45.40625 35.40625 
Q 44.1875 33.984375 37.640625 27.21875 
Q 31.109375 20.453125 19.1875 8.296875 
z
" id="DejaVuSans-50"/>
      </defs>
      <g transform="translate(135.937706 322.182437)scale(0.1 -0.1)">
       <use xlink:href="#DejaVuSans-8722"/>
       <use x="83.789062" xlink:href="#DejaVuSans-50"/>
      </g>
     </g>
    </g>
    <g id="xtick_3">
     <g id="line2d_3">
      <g>
       <use style="stroke:#000000;stroke-width:0.8;" x="200.448" xlink:href="#m892bb3e377" y="307.584"/>
      </g>
     </g>
     <g id="text_3">
      <!-- 0 -->
      <defs>
       <path d="M 31.78125 66.40625 
Q 24.171875 66.40625 20.328125 58.90625 
Q 16.5 51.421875 16.5 36.375 
Q 16.5 21.390625 20.328125 13.890625 
Q 24.171875 6.390625 31.78125 6.390625 
Q 39.453125 6.390625 43.28125 13.890625 
Q 47.125 21.390625 47.125 36.375 
Q 47.125 51.421875 43.28125 58.90625 
Q 39.453125 66.40625 31.78125 66.40625 
z
M 31.78125 74.21875 
Q 44.046875 74.21875 50.515625 64.515625 
Q 56.984375 54.828125 56.984375 36.375 
Q 56.984375 17.96875 50.515625 8.265625 
Q 44.046875 -1.421875 31.78125 -1.421875 
Q 19.53125 -1.421875 13.0625 8.265625 
Q 6.59375 17.96875 6.59375 36.375 
Q 6.59375 54.828125 13.0625 64.515625 
Q 19.53125 74.21875 31.78125 74.21875 
z
" id="DejaVuSans-48"/>
      </defs>
      <g transform="translate(197.26675 322.182437)scale(0.1 -0.1)">
       <use xlink:href="#DejaVuSans-48"/>
      </g>
     </g>
    </g>
    <g id="xtick_4">
     <g id="line2d_4">
      <g>
       <use style="stroke:#000000;stroke-width:0.8;" x="257.5872" xlink:href="#m892bb3e377" y="307.584"/>
      </g>
     </g>
     <g id="text_4">
      <!-- 2 -->
      <g transform="translate(254.40595 322.182437)scale(0.1 -0.1)">
       <use xlink:href="#DejaVuSans-50"/>
      </g>
     </g>
    </g>
    <g id="xtick_5">
     <g id="line2d_5">
      <g>
       <use style="stroke:#000000;stroke-width:0.8;" x="314.7264" xlink:href="#m892bb3e377" y="307.584"/>
      </g>
     </g>
     <g id="text_5">
      <!-- 4 -->
      <g transform="translate(311.54515 322.182437)scale(0.1 -0.1)">
       <use xlink:href="#DejaVuSans-52"/>
      </g>
     </g>
    </g>
   </g>
   <g id="matplotlib.axis_2">
    <g id="ytick_1">
     <g id="line2d_6">
      <defs>
       <path d="M 0 0 
L -3.5 0 
" id="m14fbd04981" style="stroke:#000000;stroke-width:0.8;"/>
      </defs>
      <g>
       <use style="stroke:#000000;stroke-width:0.8;" x="57.6" xlink:href="#m14fbd04981" y="280.9728"/>
      </g>
     </g>
     <g id="text_6">
      <!-- −4 -->
      <g transform="translate(35.857813 284.772019)scale(0.1 -0.1)">
       <use xlink:href="#DejaVuSans-8722"/>
       <use x="83.789062" xlink:href="#DejaVuSans-52"/>
      </g>
     </g>
    </g>
    <g id="ytick_2">
     <g id="line2d_7">
      <g>
       <use style="stroke:#000000;stroke-width:0.8;" x="57.6" xlink:href="#m14fbd04981" y="227.7504"/>
      </g>
     </g>
     <g id="text_7">
      <!-- −2 -->
      <g transform="translate(35.857813 231.549619)scale(0.1 -0.1)">
       <use xlink:href="#DejaVuSans-8722"/>
       <use x="83.789062" xlink:href="#DejaVuSans-50"/>
      </g>
     </g>
    </g>
    <g id="ytick_3">
     <g id="line2d_8">
      <g>
       <use style="stroke:#000000;stroke-width:0.8;" x="57.6" xlink:href="#m14fbd04981" y="174.528"/>
      </g>
     </g>
     <g id="text_8">
      <!-- 0 -->
      <g transform="translate(44.2375 178.327219)scale(0.1 -0.1)">
       <use xlink:href="#DejaVuSans-48"/>
      </g>
     </g>
    </g>
    <g id="ytick_4">
     <g id="line2d_9">
      <g>
       <use style="stroke:#000000;stroke-width:0.8;" x="57.6" xlink:href="#m14fbd04981" y="121.3056"/>
      </g>
     </g>
     <g id="text_9">
      <!-- 2 -->
      <g transform="translate(44.2375 125.104819)scale(0.1 -0.1)">
       <use xlink:href="#DejaVuSans-50"/>
      </g>
     </g>
    </g>
    <g id="ytick_5">
     <g id="line2d_10">
      <g>
       <use style="stroke:#000000;stroke-width:0.8;" x="57.6" xlink:href="#m14fbd04981" y="68.0832"/>
      </g>
     </g>
     <g id="text_10">
      <!-- 4 -->
      <g transform="translate(44.2375 71.882419)scale(0.1 -0.1)">
       <use xlink:href="#DejaVuSans-52"/>
      </g>
     </g>
    </g>
   </g>
   <g id="LineCollection_1"/>
   <g id="LineCollection_2">
    <path clip-path="url(#pae7487f795)" d="M 151.216984 307.584 
L 149.946182 306.42203 
L 148.169046 304.896 
L 147.060364 303.953126 
L 144.86346 302.208 
L 144.174545 301.661735 
L 141.288727 299.534009 
L 141.268715 299.52 
L 138.402909 297.493051 
L 137.389714 296.832 
L 135.517091 295.589459 
L 133.144397 294.144 
L 132.631273 293.824098 
L 129.745455 292.122299 
L 128.525224 291.456 
L 126.859636 290.516534 
L 123.973818 289.018249 
L 123.465814 288.768 
L 121.088 287.547819 
L 118.202182 286.201683 
L 117.929856 286.08 
L 115.316364 284.854099 
L 112.430545 283.622769 
L 111.863786 283.392 
L 109.544727 282.393614 
L 106.658909 281.249042 
L 105.195692 280.704 
L 103.773091 280.139908 
L 100.887273 279.060351 
L 98.001455 278.070435 
L 97.837575 278.016 
L 95.115636 277.045786 
L 92.229818 276.095011 
L 89.725502 275.328 
L 89.344 275.201853 
L 86.458182 274.277738 
L 83.572364 273.420998 
L 80.742669 272.64 
L 80.686545 272.623157 
L 77.800727 271.777995 
L 74.914909 270.990251 
L 72.029091 270.254843 
L 70.789461 269.952 
L 69.143273 269.51128 
L 66.257455 268.773771 
L 63.371636 268.082194 
L 60.485818 267.432816 
L 59.711121 267.264 
L 57.6 266.756181 
" style="fill:none;stroke:#00e38e;stroke-width:1.5;"/>
    <path clip-path="url(#pae7487f795)" d="M 343.296 267.389172 
L 340.410182 268.023387 
L 337.524364 268.698217 
L 334.638545 269.417207 
L 332.600249 269.952 
L 331.752727 270.154502 
L 328.866909 270.868942 
L 325.981091 271.633392 
L 323.095273 272.452635 
L 322.456946 272.64 
L 320.209455 273.245382 
L 317.323636 274.072553 
L 314.437818 274.96357 
L 313.308932 275.328 
L 311.552 275.852151 
L 308.666182 276.764825 
L 305.780364 277.753816 
L 305.045759 278.016 
L 302.894545 278.730862 
L 300.008727 279.7603 
L 297.561946 280.704 
L 297.122909 280.862662 
L 294.237091 281.948115 
L 291.351273 283.138963 
L 290.764258 283.392 
L 288.465455 284.328513 
L 285.579636 285.609615 
L 284.578059 286.08 
L 282.693818 286.922425 
L 279.808 288.323135 
L 278.942116 288.768 
L 276.922182 289.76367 
L 274.036364 291.323092 
L 273.801007 291.456 
L 271.150545 292.904261 
L 269.081573 294.144 
L 268.264727 294.620357 
L 265.378909 296.423253 
L 264.763568 296.832 
L 262.493091 298.314499 
L 260.790479 299.52 
L 259.607273 300.34893 
L 257.14815 302.208 
L 256.721455 302.529407 
L 253.835636 304.859701 
L 253.792996 304.896 
L 250.949818 307.339705 
L 250.682889 307.584 
" style="fill:none;stroke:#00e38e;stroke-width:1.5;"/>
    <path clip-path="url(#pae7487f795)" d="M 57.6 80.077878 
L 60.485818 79.40896 
L 61.75192 79.104 
L 63.371636 78.750748 
L 66.257455 78.092239 
L 69.143273 77.389646 
L 72.029091 76.638938 
L 72.856717 76.416 
L 74.914909 75.910112 
L 77.800727 75.15968 
L 80.686545 74.354107 
L 82.80042 73.728 
L 83.572364 73.517898 
L 86.458182 72.701495 
L 89.344 71.820373 
L 91.729679 71.04 
L 92.229818 70.888555 
L 95.115636 69.982 
L 98.001455 68.997421 
L 99.778733 68.352 
L 100.887273 67.976407 
L 103.773091 66.946133 
L 106.658909 65.81887 
L 107.040625 65.664 
L 109.544727 64.708 
L 112.430545 63.505435 
L 113.628219 62.976 
L 115.316364 62.268734 
L 118.202182 60.965713 
L 119.604238 60.288 
L 121.088 59.603048 
L 123.973818 58.166658 
L 125.041406 57.6 
L 126.859636 56.670693 
L 129.745455 55.056415 
L 129.992001 54.912 
L 132.631273 53.409848 
L 134.534125 52.224 
L 135.517091 51.62512 
L 138.402909 49.725912 
L 138.676561 49.536 
L 141.288727 47.74466 
L 142.49735 46.848 
L 144.174545 45.609745 
L 145.999174 44.16 
L 147.060364 43.314635 
L 149.221268 41.472 
" style="fill:none;stroke:#00e38e;stroke-width:1.5;"/>
    <path clip-path="url(#pae7487f795)" d="M 250.296341 41.472 
L 250.949818 42.060758 
L 253.435655 44.16 
L 253.835636 44.494846 
L 256.721455 46.756731 
L 256.844911 46.848 
L 259.607273 48.8993 
L 260.534396 49.536 
L 262.493091 50.89658 
L 264.569785 52.224 
L 265.378909 52.750606 
L 268.264727 54.506966 
L 268.975247 54.912 
L 271.150545 56.187248 
L 273.799772 57.6 
L 274.036364 57.73051 
L 276.922182 59.253841 
L 279.075758 60.288 
L 279.808 60.654852 
L 282.693818 62.02566 
L 284.88002 62.976 
L 285.579636 63.295796 
L 288.465455 64.551865 
L 291.279275 65.664 
L 291.351273 65.694143 
L 294.237091 66.863928 
L 297.122909 67.930952 
L 298.326729 68.352 
L 300.008727 68.980647 
L 302.894545 69.994571 
L 305.780364 70.926636 
L 306.143897 71.04 
L 308.666182 71.887235 
L 311.552 72.788568 
L 314.437818 73.622588 
L 314.814652 73.728 
L 317.323636 74.489645 
L 320.209455 75.308801 
L 323.095273 76.071051 
L 324.463079 76.416 
L 325.981091 76.834396 
L 328.866909 77.593644 
L 331.752727 78.303593 
L 334.638545 78.968415 
L 335.245637 79.104 
L 337.524364 79.664533 
L 340.410182 80.337191 
L 343.296 80.969666 
" style="fill:none;stroke:#00e38e;stroke-width:1.5;"/>
   </g>
   <g id="LineCollection_3">
    <path clip-path="url(#pae7487f795)" d="M 130.599639 307.584 
L 129.745455 307.021393 
L 126.859636 305.236791 
L 126.276378 304.896 
L 123.973818 303.51737 
L 121.594223 302.208 
L 121.088 301.921164 
L 118.202182 300.36204 
L 116.518905 299.52 
L 115.316364 298.896052 
L 112.430545 297.487082 
L 110.996811 296.832 
L 109.544727 296.139241 
L 106.658909 294.84599 
L 104.983531 294.144 
L 103.773091 293.611127 
L 100.887273 292.407307 
L 98.420032 291.456 
L 98.001455 291.285433 
L 95.115636 290.15043 
L 92.229818 289.104793 
L 91.257173 288.768 
L 89.344 288.062947 
L 86.458182 287.061141 
L 83.572364 286.132448 
L 83.404726 286.08 
L 80.686545 285.169023 
L 77.800727 284.266558 
L 74.914909 283.425469 
L 74.797122 283.392 
L 72.029091 282.544354 
L 69.143273 281.716558 
L 66.257455 280.941466 
L 65.341255 280.704 
L 63.371636 280.150645 
L 60.485818 279.378928 
L 57.6 278.653396 
" style="fill:none;stroke:#00c79c;stroke-width:1.5;"/>
    <path clip-path="url(#pae7487f795)" d="M 343.296 279.133972 
L 340.410182 279.879977 
L 337.524364 280.673717 
L 337.416679 280.704 
L 334.638545 281.424257 
L 331.752727 282.221183 
L 328.866909 283.072577 
L 327.824813 283.392 
L 325.981091 283.916046 
L 323.095273 284.780861 
L 320.209455 285.709108 
L 319.103826 286.08 
L 317.323636 286.637151 
L 314.437818 287.592163 
L 311.552 288.622753 
L 311.158237 288.768 
L 308.666182 289.631232 
L 305.780364 290.706754 
L 303.892361 291.456 
L 302.894545 291.829894 
L 300.008727 292.965116 
L 297.254576 294.144 
L 297.122909 294.19752 
L 294.237091 295.410562 
L 291.351273 296.741268 
L 291.161257 296.832 
L 288.465455 298.064284 
L 285.579636 299.51419 
L 285.568448 299.52 
L 282.693818 300.958686 
L 280.412158 302.208 
L 279.808 302.528292 
L 276.922182 304.141741 
L 275.663438 304.896 
L 274.036364 305.847169 
L 271.296127 307.584 
" style="fill:none;stroke:#00c79c;stroke-width:1.5;"/>
    <path clip-path="url(#pae7487f795)" d="M 57.6 68.626035 
L 58.647825 68.352 
L 60.485818 67.910736 
L 63.371636 67.184318 
L 66.257455 66.410386 
L 68.876874 65.664 
L 69.143273 65.593911 
L 72.029091 64.814213 
L 74.914909 63.979963 
L 77.800727 63.085946 
L 78.145625 62.976 
L 80.686545 62.222759 
L 83.572364 61.308069 
L 86.458182 60.322811 
L 86.557487 60.288 
L 89.344 59.373689 
L 92.229818 58.351573 
L 94.221966 57.6 
L 95.115636 57.282681 
L 98.001455 56.210537 
L 100.887273 55.043524 
L 101.201505 54.912 
L 103.773091 53.891477 
L 106.658909 52.646421 
L 107.59056 52.224 
L 109.544727 51.378727 
L 112.430545 50.032294 
L 113.437742 49.536 
L 115.316364 48.64711 
L 118.202182 47.169157 
L 118.799691 46.848 
L 121.088 45.658599 
L 123.727122 44.16 
L 123.973818 44.023878 
L 126.859636 42.356986 
L 128.279049 41.472 
" style="fill:none;stroke:#00c79c;stroke-width:1.5;"/>
    <path clip-path="url(#pae7487f795)" d="M 271.250113 41.472 
L 274.036364 43.210208 
L 275.689814 44.16 
L 276.922182 44.886096 
L 279.808 46.474058 
L 280.526649 46.848 
L 282.693818 48.013472 
L 285.579636 49.436368 
L 285.789964 49.536 
L 288.465455 50.855023 
L 291.351273 52.151233 
L 291.519303 52.224 
L 294.237091 53.456885 
L 297.122909 54.655313 
L 297.768932 54.912 
L 300.008727 55.849927 
L 302.894545 56.972952 
L 304.609293 57.6 
L 305.780364 58.053947 
L 308.666182 59.119373 
L 311.552 60.103095 
L 312.114784 60.288 
L 314.437818 61.102686 
L 317.323636 62.050503 
L 320.209455 62.930824 
L 320.36164 62.976 
L 323.095273 63.847769 
L 325.981091 64.707717 
L 328.866909 65.510507 
L 329.436552 65.664 
L 331.752727 66.338573 
L 334.638545 67.132601 
L 337.524364 67.877153 
L 339.458215 68.352 
L 340.410182 68.606134 
L 343.296 69.351 
" style="fill:none;stroke:#00c79c;stroke-width:1.5;"/>
   </g>
   <g id="LineCollection_4">
    <path clip-path="url(#pae7487f795)" d="M 114.781165 307.584 
L 112.430545 306.335176 
L 109.544727 304.927697 
L 109.477471 304.896 
L 106.658909 303.515015 
L 103.773091 302.223619 
L 103.737072 302.208 
L 100.887273 300.91596 
L 98.001455 299.71547 
L 97.513098 299.52 
L 95.115636 298.511234 
L 92.229818 297.381849 
L 90.745825 296.832 
L 89.344 296.283176 
L 86.458182 295.208943 
L 83.572364 294.213142 
L 83.366124 294.144 
L 80.686545 293.188919 
L 77.800727 292.228523 
L 75.326051 291.456 
L 74.914909 291.318906 
L 72.029091 290.384083 
L 69.143273 289.510093 
L 66.537023 288.768 
L 66.257455 288.682498 
L 63.371636 287.821845 
L 60.485818 287.01377 
L 57.6 286.254078 
" style="fill:none;stroke:#00aaaa;stroke-width:1.5;"/>
    <path clip-path="url(#pae7487f795)" d="M 343.296 286.667891 
L 340.410182 287.445114 
L 337.524364 288.272044 
L 335.869529 288.768 
L 334.638545 289.110982 
L 331.752727 289.948195 
L 328.866909 290.842603 
L 326.987013 291.456 
L 325.981091 291.762809 
L 323.095273 292.6786 
L 320.209455 293.66153 
L 318.856862 294.144 
L 317.323636 294.658174 
L 314.437818 295.677202 
L 311.552 296.776837 
L 311.411206 296.832 
L 308.666182 297.849424 
L 305.780364 299.005427 
L 304.558305 299.52 
L 302.894545 300.186167 
L 300.008727 301.414922 
L 298.260708 302.208 
L 297.122909 302.701549 
L 294.237091 304.02339 
L 292.457343 304.896 
L 291.351273 305.417481 
L 288.465455 306.858268 
L 287.100356 307.584 
" style="fill:none;stroke:#00aaaa;stroke-width:1.5;"/>
    <path clip-path="url(#pae7487f795)" d="M 57.6 61.297347 
L 60.485818 60.496314 
L 61.213692 60.288 
L 63.371636 59.715427 
L 66.257455 58.908103 
L 69.143273 58.046831 
L 70.57684 57.6 
L 72.029091 57.178033 
L 74.914909 56.300343 
L 77.800727 55.359814 
L 79.114992 54.912 
L 80.686545 54.409938 
L 83.572364 53.439783 
L 86.458182 52.394826 
L 86.914792 52.224 
L 89.344 51.366663 
L 92.229818 50.274154 
L 94.065819 49.536 
L 95.115636 49.135781 
L 98.001455 47.981264 
L 100.618314 46.848 
L 100.887273 46.736961 
L 103.773091 45.502736 
L 106.643911 44.16 
L 106.658909 44.153275 
L 109.544727 42.817118 
L 112.199419 41.472 
" style="fill:none;stroke:#00aaaa;stroke-width:1.5;"/>
    <path clip-path="url(#pae7487f795)" d="M 287.309208 41.472 
L 288.465455 42.077009 
L 291.351273 43.502178 
L 292.771198 44.16 
L 294.237091 44.86668 
L 297.122909 46.175559 
L 298.702339 46.848 
L 300.008727 47.430134 
L 302.894545 48.648138 
L 305.15662 49.536 
L 305.780364 49.793645 
L 308.666182 50.940797 
L 311.552 51.999932 
L 312.186241 52.224 
L 314.437818 53.066661 
L 317.323636 54.079402 
L 319.863626 54.912 
L 320.209455 55.032682 
L 323.095273 56.010721 
L 325.981091 56.922246 
L 328.258203 57.6 
L 328.866909 57.794008 
L 331.752727 58.685383 
L 334.638545 59.520007 
L 337.468259 60.288 
L 337.524364 60.304396 
L 340.410182 61.129893 
L 343.296 61.905988 
" style="fill:none;stroke:#00aaaa;stroke-width:1.5;"/>
   </g>
   <g id="LineCollection_5">
    <path clip-path="url(#pae7487f795)" d="M 101.449228 307.584 
L 100.887273 307.319545 
L 98.001455 306.013834 
L 95.323802 304.896 
L 95.115636 304.805026 
L 92.229818 303.581792 
L 89.344 302.452468 
L 88.69485 302.208 
L 86.458182 301.320623 
L 83.572364 300.246782 
L 81.497351 299.52 
L 80.686545 299.219433 
L 77.800727 298.188462 
L 74.914909 297.227649 
L 73.674022 296.832 
L 72.029091 296.273818 
L 69.143273 295.340043 
L 66.257455 294.465757 
L 65.153812 294.144 
L 63.371636 293.588141 
L 60.485818 292.729046 
L 57.6 291.9214 
" style="fill:none;stroke:#008eb8;stroke-width:1.5;"/>
    <path clip-path="url(#pae7487f795)" d="M 343.296 292.304394 
L 340.410182 293.128334 
L 337.524364 294.004956 
L 337.078869 294.144 
L 334.638545 294.855636 
L 331.752727 295.747591 
L 328.866909 296.700466 
L 328.479545 296.832 
L 325.981091 297.628831 
L 323.095273 298.609155 
L 320.581345 299.52 
L 320.209455 299.647116 
L 317.323636 300.664546 
L 314.437818 301.760368 
L 313.310265 302.208 
L 311.552 302.870351 
L 308.666182 304.022729 
L 306.615268 304.896 
L 305.780364 305.234972 
L 302.894545 306.459504 
L 300.438299 307.584 
" style="fill:none;stroke:#008eb8;stroke-width:1.5;"/>
    <path clip-path="url(#pae7487f795)" d="M 57.6 55.756864 
L 60.482987 54.912 
L 60.485818 54.911227 
L 63.371636 54.106887 
L 66.257455 53.249987 
L 69.143273 52.335843 
L 69.48704 52.224 
L 72.029091 51.449101 
L 74.914909 50.512808 
L 77.727893 49.536 
L 77.800727 49.512198 
L 80.686545 48.544957 
L 83.572364 47.505033 
L 85.300118 46.848 
L 86.458182 46.431153 
L 89.344 45.343072 
L 92.229818 44.166595 
L 92.245577 44.16 
L 95.115636 43.015947 
L 98.001455 41.767185 
L 98.656788 41.472 
" style="fill:none;stroke:#008eb8;stroke-width:1.5;"/>
    <path clip-path="url(#pae7487f795)" d="M 300.858428 41.472 
L 302.894545 42.389454 
L 305.780364 43.605209 
L 307.171019 44.16 
L 308.666182 44.78596 
L 311.552 45.931159 
L 314.031743 46.848 
L 314.437818 47.006332 
L 317.323636 48.0964 
L 320.209455 49.10878 
L 321.484515 49.536 
L 323.095273 50.108511 
L 325.981091 51.084971 
L 328.866909 51.996476 
L 329.612632 52.224 
L 331.752727 52.920471 
L 334.638545 53.810111 
L 337.524364 54.644269 
L 338.48408 54.912 
L 340.410182 55.488123 
L 343.296 56.311078 
" style="fill:none;stroke:#008eb8;stroke-width:1.5;"/>
   </g>
   <g id="LineCollection_6">
    <path clip-path="url(#pae7487f795)" d="M 89.701779 307.584 
L 89.344 307.432888 
L 86.458182 306.252026 
L 83.572364 305.157415 
L 82.856768 304.896 
L 80.686545 304.060405 
L 77.800727 303.013885 
L 75.435677 302.208 
L 74.914909 302.020163 
L 72.029091 301.01072 
L 69.143273 300.066995 
L 67.386446 299.52 
L 66.257455 299.145982 
L 63.371636 298.225408 
L 60.485818 297.3611 
L 58.633511 296.832 
L 57.6 296.516348 
" style="fill:none;stroke:#0071c6;stroke-width:1.5;"/>
    <path clip-path="url(#pae7487f795)" d="M 343.296 296.894823 
L 340.410182 297.721953 
L 337.524364 298.601956 
L 334.695936 299.52 
L 334.638545 299.537485 
L 331.752727 300.436991 
L 328.866909 301.397918 
L 326.571309 302.208 
L 325.981091 302.404489 
L 323.095273 303.397451 
L 320.209455 304.463177 
L 319.08596 304.896 
L 317.323636 305.539964 
L 314.437818 306.654591 
L 312.182165 307.584 
" style="fill:none;stroke:#0071c6;stroke-width:1.5;"/>
    <path clip-path="url(#pae7487f795)" d="M 57.6 51.272436 
L 60.485818 50.426248 
L 63.340723 49.536 
L 63.371636 49.526972 
L 66.257455 48.665451 
L 69.143273 47.746396 
L 71.793674 46.848 
L 72.029091 46.772885 
L 74.914909 45.827199 
L 77.800727 44.813847 
L 79.568464 44.16 
L 80.686545 43.768634 
L 83.572364 42.713639 
L 86.458182 41.57735 
L 86.718036 41.472 
" style="fill:none;stroke:#0071c6;stroke-width:1.5;"/>
    <path clip-path="url(#pae7487f795)" d="M 312.792498 41.472 
L 314.437818 42.139236 
L 317.323636 43.248548 
L 319.862153 44.16 
L 320.209455 44.291554 
L 323.095273 45.353147 
L 325.981091 46.342504 
L 327.528183 46.848 
L 328.866909 47.311987 
L 331.752727 48.270324 
L 334.638545 49.167611 
L 335.872115 49.536 
L 337.524364 50.062088 
L 340.410182 50.940793 
L 343.296 51.766879 
" style="fill:none;stroke:#0071c6;stroke-width:1.5;"/>
   </g>
   <g id="LineCollection_7">
    <path clip-path="url(#pae7487f795)" d="M 79.087949 307.584 
L 77.800727 307.090877 
L 74.914909 306.032826 
L 72.029091 305.0452 
L 71.579849 304.896 
L 69.143273 304.039391 
L 66.257455 303.082794 
L 63.445777 302.208 
L 63.371636 302.183485 
L 60.485818 301.249758 
L 57.6 300.371965 
" style="fill:none;stroke:#0055d4;stroke-width:1.5;"/>
    <path clip-path="url(#pae7487f795)" d="M 343.296 300.714506 
L 340.410182 301.606941 
L 338.555505 302.208 
L 337.524364 302.522063 
L 334.638545 303.433809 
L 331.752727 304.40642 
L 330.360881 304.896 
L 328.866909 305.392284 
L 325.981091 306.396347 
L 323.095273 307.472226 
L 322.803657 307.584 
" style="fill:none;stroke:#0055d4;stroke-width:1.5;"/>
    <path clip-path="url(#pae7487f795)" d="M 57.6 47.469397 
L 59.592556 46.848 
L 60.485818 46.586725 
L 63.371636 45.713539 
L 66.257455 44.783315 
L 68.099333 44.16 
L 69.143273 43.82705 
L 72.029091 42.87058 
L 74.914909 41.847273 
L 75.933068 41.472 
" style="fill:none;stroke:#0055d4;stroke-width:1.5;"/>
    <path clip-path="url(#pae7487f795)" d="M 323.586405 41.472 
L 325.981091 42.354854 
L 328.866909 43.356002 
L 331.330077 44.16 
L 331.752727 44.306174 
L 334.638545 45.276803 
L 337.524364 46.186878 
L 339.735991 46.848 
L 340.410182 47.062593 
L 343.296 47.954209 
" style="fill:none;stroke:#0055d4;stroke-width:1.5;"/>
   </g>
   <g id="LineCollection_8">
    <path clip-path="url(#pae7487f795)" d="M 69.31687 307.584 
L 69.143273 307.521832 
L 66.257455 306.512988 
L 63.371636 305.567103 
L 61.213222 304.896 
L 60.485818 304.655922 
L 57.6 303.73209 
" style="fill:none;stroke:#0038e3;stroke-width:1.5;"/>
    <path clip-path="url(#pae7487f795)" d="M 343.296 304.066902 
L 340.733963 304.896 
L 340.410182 304.994595 
L 337.524364 305.896255 
L 334.638545 306.856792 
L 332.564788 307.584 
" style="fill:none;stroke:#0038e3;stroke-width:1.5;"/>
    <path clip-path="url(#pae7487f795)" d="M 57.6 44.14432 
L 60.485818 43.280771 
L 63.371636 42.362022 
L 66.005794 41.472 
" style="fill:none;stroke:#0038e3;stroke-width:1.5;"/>
    <path clip-path="url(#pae7487f795)" d="M 333.505804 41.472 
L 334.638545 41.862956 
L 337.524364 42.821974 
L 340.410182 43.722375 
L 341.872803 44.16 
L 343.296 44.61284 
" style="fill:none;stroke:#0038e3;stroke-width:1.5;"/>
   </g>
   <g id="LineCollection_9">
    <path clip-path="url(#pae7487f795)" d="M 60.228994 307.584 
L 57.6 306.717799 
" style="fill:none;stroke:#001cf1;stroke-width:1.5;"/>
    <path clip-path="url(#pae7487f795)" d="M 343.296 307.042223 
L 341.652417 307.584 
" style="fill:none;stroke:#001cf1;stroke-width:1.5;"/>
    <path clip-path="url(#pae7487f795)" d="M 342.743954 41.472 
L 343.296 41.651102 
" style="fill:none;stroke:#001cf1;stroke-width:1.5;"/>
   </g>
   <g id="LineCollection_10"/>
   <g id="patch_3">
    <path d="M 57.6 307.584 
L 57.6 41.472 
" style="fill:none;stroke:#000000;stroke-linecap:square;stroke-linejoin:miter;stroke-width:0.8;"/>
   </g>
   <g id="patch_4">
    <path d="M 343.296 307.584 
L 343.296 41.472 
" style="fill:none;stroke:#000000;stroke-linecap:square;stroke-linejoin:miter;stroke-width:0.8;"/>
   </g>
   <g id="patch_5">
    <path d="M 57.6 307.584 
L 343.296 307.584 
" style="fill:none;stroke:#000000;stroke-linecap:square;stroke-linejoin:miter;stroke-width:0.8;"/>
   </g>
   <g id="patch_6">
    <path d="M 57.6 41.472 
L 343.296 41.472 
" style="fill:none;stroke:#000000;stroke-linecap:square;stroke-linejoin:miter;stroke-width:0.8;"/>
   </g>
  </g>
  <g id="axes_2">
   <g id="patch_7">
    <path clip-path="url(#pc09c48f6c8)" d="M 361.152 307.584 
L 361.152 278.016 
L 361.152 71.04 
L 361.152 41.472 
L 374.4576 41.472 
L 374.4576 71.04 
L 374.4576 278.016 
L 374.4576 307.584 
z
" style="fill:#ffffff;stroke:#ffffff;stroke-linejoin:miter;stroke-width:0.01;"/>
   </g>
   <g id="matplotlib.axis_3"/>
   <g id="matplotlib.axis_4">
    <g id="ytick_6">
     <g id="line2d_11">
      <defs>
       <path d="M 0 0 
L 3.5 0 
" id="ma875a441a7" style="stroke:#000000;stroke-width:0.8;"/>
      </defs>
      <g>
       <use style="stroke:#000000;stroke-width:0.8;" x="374.4576" xlink:href="#ma875a441a7" y="307.584"/>
      </g>
     </g>
     <g id="text_11">
      <!-- 0 -->
      <g transform="translate(381.4576 311.383219)scale(0.1 -0.1)">
       <use xlink:href="#DejaVuSans-48"/>
      </g>
     </g>
    </g>
    <g id="ytick_7">
     <g id="line2d_12">
      <g>
       <use style="stroke:#000000;stroke-width:0.8;" x="374.4576" xlink:href="#ma875a441a7" y="278.016"/>
      </g>
     </g>
     <g id="text_12">
      <!-- 50000 -->
      <defs>
       <path d="M 10.796875 72.90625 
L 49.515625 72.90625 
L 49.515625 64.59375 
L 19.828125 64.59375 
L 19.828125 46.734375 
Q 21.96875 47.46875 24.109375 47.828125 
Q 26.265625 48.1875 28.421875 48.1875 
Q 40.625 48.1875 47.75 41.5 
Q 54.890625 34.8125 54.890625 23.390625 
Q 54.890625 11.625 47.5625 5.09375 
Q 40.234375 -1.421875 26.90625 -1.421875 
Q 22.3125 -1.421875 17.546875 -0.640625 
Q 12.796875 0.140625 7.71875 1.703125 
L 7.71875 11.625 
Q 12.109375 9.234375 16.796875 8.0625 
Q 21.484375 6.890625 26.703125 6.890625 
Q 35.15625 6.890625 40.078125 11.328125 
Q 45.015625 15.765625 45.015625 23.390625 
Q 45.015625 31 40.078125 35.4375 
Q 35.15625 39.890625 26.703125 39.890625 
Q 22.75 39.890625 18.8125 39.015625 
Q 14.890625 38.140625 10.796875 36.28125 
z
" id="DejaVuSans-53"/>
      </defs>
      <g transform="translate(381.4576 281.815219)scale(0.1 -0.1)">
       <use xlink:href="#DejaVuSans-53"/>
       <use x="63.623047" xlink:href="#DejaVuSans-48"/>
       <use x="127.246094" xlink:href="#DejaVuSans-48"/>
       <use x="190.869141" xlink:href="#DejaVuSans-48"/>
       <use x="254.492188" xlink:href="#DejaVuSans-48"/>
      </g>
     </g>
    </g>
    <g id="ytick_8">
     <g id="line2d_13">
      <g>
       <use style="stroke:#000000;stroke-width:0.8;" x="374.4576" xlink:href="#ma875a441a7" y="248.448"/>
      </g>
     </g>
     <g id="text_13">
      <!-- 100000 -->
      <defs>
       <path d="M 12.40625 8.296875 
L 28.515625 8.296875 
L 28.515625 63.921875 
L 10.984375 60.40625 
L 10.984375 69.390625 
L 28.421875 72.90625 
L 38.28125 72.90625 
L 38.28125 8.296875 
L 54.390625 8.296875 
L 54.390625 0 
L 12.40625 0 
z
" id="DejaVuSans-49"/>
      </defs>
      <g transform="translate(381.4576 252.247219)scale(0.1 -0.1)">
       <use xlink:href="#DejaVuSans-49"/>
       <use x="63.623047" xlink:href="#DejaVuSans-48"/>
       <use x="127.246094" xlink:href="#DejaVuSans-48"/>
       <use x="190.869141" xlink:href="#DejaVuSans-48"/>
       <use x="254.492188" xlink:href="#DejaVuSans-48"/>
       <use x="318.115234" xlink:href="#DejaVuSans-48"/>
      </g>
     </g>
    </g>
    <g id="ytick_9">
     <g id="line2d_14">
      <g>
       <use style="stroke:#000000;stroke-width:0.8;" x="374.4576" xlink:href="#ma875a441a7" y="218.88"/>
      </g>
     </g>
     <g id="text_14">
      <!-- 150000 -->
      <g transform="translate(381.4576 222.679219)scale(0.1 -0.1)">
       <use xlink:href="#DejaVuSans-49"/>
       <use x="63.623047" xlink:href="#DejaVuSans-53"/>
       <use x="127.246094" xlink:href="#DejaVuSans-48"/>
       <use x="190.869141" xlink:href="#DejaVuSans-48"/>
       <use x="254.492188" xlink:href="#DejaVuSans-48"/>
       <use x="318.115234" xlink:href="#DejaVuSans-48"/>
      </g>
     </g>
    </g>
    <g id="ytick_10">
     <g id="line2d_15">
      <g>
       <use style="stroke:#000000;stroke-width:0.8;" x="374.4576" xlink:href="#ma875a441a7" y="189.312"/>
      </g>
     </g>
     <g id="text_15">
      <!-- 200000 -->
      <g transform="translate(381.4576 193.111219)scale(0.1 -0.1)">
       <use xlink:href="#DejaVuSans-50"/>
       <use x="63.623047" xlink:href="#DejaVuSans-48"/>
       <use x="127.246094" xlink:href="#DejaVuSans-48"/>
       <use x="190.869141" xlink:href="#DejaVuSans-48"/>
       <use x="254.492188" xlink:href="#DejaVuSans-48"/>
       <use x="318.115234" xlink:href="#DejaVuSans-48"/>
      </g>
     </g>
    </g>
    <g id="ytick_11">
     <g id="line2d_16">
      <g>
       <use style="stroke:#000000;stroke-width:0.8;" x="374.4576" xlink:href="#ma875a441a7" y="159.744"/>
      </g>
     </g>
     <g id="text_16">
      <!-- 250000 -->
      <g transform="translate(381.4576 163.543219)scale(0.1 -0.1)">
       <use xlink:href="#DejaVuSans-50"/>
       <use x="63.623047" xlink:href="#DejaVuSans-53"/>
       <use x="127.246094" xlink:href="#DejaVuSans-48"/>
       <use x="190.869141" xlink:href="#DejaVuSans-48"/>
       <use x="254.492188" xlink:href="#DejaVuSans-48"/>
       <use x="318.115234" xlink:href="#DejaVuSans-48"/>
      </g>
     </g>
    </g>
    <g id="ytick_12">
     <g id="line2d_17">
      <g>
       <use style="stroke:#000000;stroke-width:0.8;" x="374.4576" xlink:href="#ma875a441a7" y="130.176"/>
      </g>
     </g>
     <g id="text_17">
      <!-- 300000 -->
      <defs>
       <path d="M 40.578125 39.3125 
Q 47.65625 37.796875 51.625 33 
Q 55.609375 28.21875 55.609375 21.1875 
Q 55.609375 10.40625 48.1875 4.484375 
Q 40.765625 -1.421875 27.09375 -1.421875 
Q 22.515625 -1.421875 17.65625 -0.515625 
Q 12.796875 0.390625 7.625 2.203125 
L 7.625 11.71875 
Q 11.71875 9.328125 16.59375 8.109375 
Q 21.484375 6.890625 26.8125 6.890625 
Q 36.078125 6.890625 40.9375 10.546875 
Q 45.796875 14.203125 45.796875 21.1875 
Q 45.796875 27.640625 41.28125 31.265625 
Q 36.765625 34.90625 28.71875 34.90625 
L 20.21875 34.90625 
L 20.21875 43.015625 
L 29.109375 43.015625 
Q 36.375 43.015625 40.234375 45.921875 
Q 44.09375 48.828125 44.09375 54.296875 
Q 44.09375 59.90625 40.109375 62.90625 
Q 36.140625 65.921875 28.71875 65.921875 
Q 24.65625 65.921875 20.015625 65.03125 
Q 15.375 64.15625 9.8125 62.3125 
L 9.8125 71.09375 
Q 15.4375 72.65625 20.34375 73.4375 
Q 25.25 74.21875 29.59375 74.21875 
Q 40.828125 74.21875 47.359375 69.109375 
Q 53.90625 64.015625 53.90625 55.328125 
Q 53.90625 49.265625 50.4375 45.09375 
Q 46.96875 40.921875 40.578125 39.3125 
z
" id="DejaVuSans-51"/>
      </defs>
      <g transform="translate(381.4576 133.975219)scale(0.1 -0.1)">
       <use xlink:href="#DejaVuSans-51"/>
       <use x="63.623047" xlink:href="#DejaVuSans-48"/>
       <use x="127.246094" xlink:href="#DejaVuSans-48"/>
       <use x="190.869141" xlink:href="#DejaVuSans-48"/>
       <use x="254.492188" xlink:href="#DejaVuSans-48"/>
       <use x="318.115234" xlink:href="#DejaVuSans-48"/>
      </g>
     </g>
    </g>
    <g id="ytick_13">
     <g id="line2d_18">
      <g>
       <use style="stroke:#000000;stroke-width:0.8;" x="374.4576" xlink:href="#ma875a441a7" y="100.608"/>
      </g>
     </g>
     <g id="text_18">
      <!-- 350000 -->
      <g transform="translate(381.4576 104.407219)scale(0.1 -0.1)">
       <use xlink:href="#DejaVuSans-51"/>
       <use x="63.623047" xlink:href="#DejaVuSans-53"/>
       <use x="127.246094" xlink:href="#DejaVuSans-48"/>
       <use x="190.869141" xlink:href="#DejaVuSans-48"/>
       <use x="254.492188" xlink:href="#DejaVuSans-48"/>
       <use x="318.115234" xlink:href="#DejaVuSans-48"/>
      </g>
     </g>
    </g>
    <g id="ytick_14">
     <g id="line2d_19">
      <g>
       <use style="stroke:#000000;stroke-width:0.8;" x="374.4576" xlink:href="#ma875a441a7" y="71.04"/>
      </g>
     </g>
     <g id="text_19">
      <!-- 400000 -->
      <g transform="translate(381.4576 74.839219)scale(0.1 -0.1)">
       <use xlink:href="#DejaVuSans-52"/>
       <use x="63.623047" xlink:href="#DejaVuSans-48"/>
       <use x="127.246094" xlink:href="#DejaVuSans-48"/>
       <use x="190.869141" xlink:href="#DejaVuSans-48"/>
       <use x="254.492188" xlink:href="#DejaVuSans-48"/>
       <use x="318.115234" xlink:href="#DejaVuSans-48"/>
      </g>
     </g>
    </g>
    <g id="ytick_15">
     <g id="line2d_20">
      <g>
       <use style="stroke:#000000;stroke-width:0.8;" x="374.4576" xlink:href="#ma875a441a7" y="41.472"/>
      </g>
     </g>
     <g id="text_20">
      <!-- 450000 -->
      <g transform="translate(381.4576 45.271219)scale(0.1 -0.1)">
       <use xlink:href="#DejaVuSans-52"/>
       <use x="63.623047" xlink:href="#DejaVuSans-53"/>
       <use x="127.246094" xlink:href="#DejaVuSans-48"/>
       <use x="190.869141" xlink:href="#DejaVuSans-48"/>
       <use x="254.492188" xlink:href="#DejaVuSans-48"/>
       <use x="318.115234" xlink:href="#DejaVuSans-48"/>
      </g>
     </g>
    </g>
   </g>
   <g id="LineCollection_11">
    <path clip-path="url(#pc09c48f6c8)" d="M 361.152 307.584 
L 374.4576 307.584 
" style="fill:none;stroke:#00ff80;stroke-width:1.5;"/>
    <path clip-path="url(#pc09c48f6c8)" d="M 361.152 278.016 
L 374.4576 278.016 
" style="fill:none;stroke:#00e38e;stroke-width:1.5;"/>
    <path clip-path="url(#pc09c48f6c8)" d="M 361.152 248.448 
L 374.4576 248.448 
" style="fill:none;stroke:#00c79c;stroke-width:1.5;"/>
    <path clip-path="url(#pc09c48f6c8)" d="M 361.152 218.88 
L 374.4576 218.88 
" style="fill:none;stroke:#00aaaa;stroke-width:1.5;"/>
    <path clip-path="url(#pc09c48f6c8)" d="M 361.152 189.312 
L 374.4576 189.312 
" style="fill:none;stroke:#008eb8;stroke-width:1.5;"/>
    <path clip-path="url(#pc09c48f6c8)" d="M 361.152 159.744 
L 374.4576 159.744 
" style="fill:none;stroke:#0071c6;stroke-width:1.5;"/>
    <path clip-path="url(#pc09c48f6c8)" d="M 361.152 130.176 
L 374.4576 130.176 
" style="fill:none;stroke:#0055d4;stroke-width:1.5;"/>
    <path clip-path="url(#pc09c48f6c8)" d="M 361.152 100.608 
L 374.4576 100.608 
" style="fill:none;stroke:#0038e3;stroke-width:1.5;"/>
    <path clip-path="url(#pc09c48f6c8)" d="M 361.152 71.04 
L 374.4576 71.04 
" style="fill:none;stroke:#001cf1;stroke-width:1.5;"/>
    <path clip-path="url(#pc09c48f6c8)" d="M 361.152 41.472 
L 374.4576 41.472 
" style="fill:none;stroke:#0000ff;stroke-width:1.5;"/>
   </g>
   <g id="patch_8">
    <path d="M 361.152 307.584 
L 361.152 278.016 
L 361.152 71.04 
L 361.152 41.472 
L 374.4576 41.472 
L 374.4576 71.04 
L 374.4576 278.016 
L 374.4576 307.584 
z
" style="fill:none;stroke:#000000;stroke-linejoin:miter;stroke-width:0.8;"/>
   </g>
  </g>
 </g>
 <defs>
  <clipPath id="pae7487f795">
   <rect height="266.112" width="285.696" x="57.6" y="41.472"/>
  </clipPath>
  <clipPath id="pc09c48f6c8">
   <rect height="266.112" width="13.3056" x="361.152" y="41.472"/>
  </clipPath>
 </defs>
</svg>
