<?xml version="1.0" encoding="utf-8" standalone="no"?>
<!DOCTYPE svg PUBLIC "-//W3C//DTD SVG 1.1//EN"
  "http://www.w3.org/Graphics/SVG/1.1/DTD/svg11.dtd">
<!-- Created with matplotlib (https://matplotlib.org/) -->
<svg height="345.6pt" version="1.1" viewBox="0 0 460.8 345.6" width="460.8pt" xmlns="http://www.w3.org/2000/svg" xmlns:xlink="http://www.w3.org/1999/xlink">
 <defs>
  <style type="text/css">
*{stroke-linecap:butt;stroke-linejoin:round;}
  </style>
 </defs>
 <g id="figure_1">
  <g id="patch_1">
   <path d="M 0 345.6 
L 460.8 345.6 
L 460.8 0 
L 0 0 
z
" style="fill:#ffffff;"/>
  </g>
  <g id="axes_1">
   <g id="patch_2">
    <path d="M 57.6 307.584 
L 343.296 307.584 
L 343.296 41.472 
L 57.6 41.472 
z
" style="fill:#ffffff;"/>
   </g>
   <g id="matplotlib.axis_1">
    <g id="xtick_1">
     <g id="line2d_1">
      <defs>
       <path d="M 0 0 
L 0 3.5 
" id="ma07342c907" style="stroke:#000000;stroke-width:0.8;"/>
      </defs>
      <g>
       <use style="stroke:#000000;stroke-width:0.8;" x="57.6" xlink:href="#ma07342c907" y="307.584"/>
      </g>
     </g>
     <g id="text_1">
      <!-- −10.0 -->
      <defs>
       <path d="M 10.59375 35.5 
L 73.1875 35.5 
L 73.1875 27.203125 
L 10.59375 27.203125 
z
" id="DejaVuSans-8722"/>
       <path d="M 12.40625 8.296875 
L 28.515625 8.296875 
L 28.515625 63.921875 
L 10.984375 60.40625 
L 10.984375 69.390625 
L 28.421875 72.90625 
L 38.28125 72.90625 
L 38.28125 8.296875 
L 54.390625 8.296875 
L 54.390625 0 
L 12.40625 0 
z
" id="DejaVuSans-49"/>
       <path d="M 31.78125 66.40625 
Q 24.171875 66.40625 20.328125 58.90625 
Q 16.5 51.421875 16.5 36.375 
Q 16.5 21.390625 20.328125 13.890625 
Q 24.171875 6.390625 31.78125 6.390625 
Q 39.453125 6.390625 43.28125 13.890625 
Q 47.125 21.390625 47.125 36.375 
Q 47.125 51.421875 43.28125 58.90625 
Q 39.453125 66.40625 31.78125 66.40625 
z
M 31.78125 74.21875 
Q 44.046875 74.21875 50.515625 64.515625 
Q 56.984375 54.828125 56.984375 36.375 
Q 56.984375 17.96875 50.515625 8.265625 
Q 44.046875 -1.421875 31.78125 -1.421875 
Q 19.53125 -1.421875 13.0625 8.265625 
Q 6.59375 17.96875 6.59375 36.375 
Q 6.59375 54.828125 13.0625 64.515625 
Q 19.53125 74.21875 31.78125 74.21875 
z
" id="DejaVuSans-48"/>
       <path d="M 10.6875 12.40625 
L 21 12.40625 
L 21 0 
L 10.6875 0 
z
" id="DejaVuSans-46"/>
      </defs>
      <g transform="translate(42.277344 322.182437)scale(0.1 -0.1)">
       <use xlink:href="#DejaVuSans-8722"/>
       <use x="83.789062" xlink:href="#DejaVuSans-49"/>
       <use x="147.412109" xlink:href="#DejaVuSans-48"/>
       <use x="211.035156" xlink:href="#DejaVuSans-46"/>
       <use x="242.822266" xlink:href="#DejaVuSans-48"/>
      </g>
     </g>
    </g>
    <g id="xtick_2">
     <g id="line2d_2">
      <g>
       <use style="stroke:#000000;stroke-width:0.8;" x="93.312" xlink:href="#ma07342c907" y="307.584"/>
      </g>
     </g>
     <g id="text_2">
      <!-- −7.5 -->
      <defs>
       <path d="M 8.203125 72.90625 
L 55.078125 72.90625 
L 55.078125 68.703125 
L 28.609375 0 
L 18.3125 0 
L 43.21875 64.59375 
L 8.203125 64.59375 
z
" id="DejaVuSans-55"/>
       <path d="M 10.796875 72.90625 
L 49.515625 72.90625 
L 49.515625 64.59375 
L 19.828125 64.59375 
L 19.828125 46.734375 
Q 21.96875 47.46875 24.109375 47.828125 
Q 26.265625 48.1875 28.421875 48.1875 
Q 40.625 48.1875 47.75 41.5 
Q 54.890625 34.8125 54.890625 23.390625 
Q 54.890625 11.625 47.5625 5.09375 
Q 40.234375 -1.421875 26.90625 -1.421875 
Q 22.3125 -1.421875 17.546875 -0.640625 
Q 12.796875 0.140625 7.71875 1.703125 
L 7.71875 11.625 
Q 12.109375 9.234375 16.796875 8.0625 
Q 21.484375 6.890625 26.703125 6.890625 
Q 35.15625 6.890625 40.078125 11.328125 
Q 45.015625 15.765625 45.015625 23.390625 
Q 45.015625 31 40.078125 35.4375 
Q 35.15625 39.890625 26.703125 39.890625 
Q 22.75 39.890625 18.8125 39.015625 
Q 14.890625 38.140625 10.796875 36.28125 
z
" id="DejaVuSans-53"/>
      </defs>
      <g transform="translate(81.170594 322.182437)scale(0.1 -0.1)">
       <use xlink:href="#DejaVuSans-8722"/>
       <use x="83.789062" xlink:href="#DejaVuSans-55"/>
       <use x="147.412109" xlink:href="#DejaVuSans-46"/>
       <use x="179.199219" xlink:href="#DejaVuSans-53"/>
      </g>
     </g>
    </g>
    <g id="xtick_3">
     <g id="line2d_3">
      <g>
       <use style="stroke:#000000;stroke-width:0.8;" x="129.024" xlink:href="#ma07342c907" y="307.584"/>
      </g>
     </g>
     <g id="text_3">
      <!-- −5.0 -->
      <g transform="translate(116.882594 322.182437)scale(0.1 -0.1)">
       <use xlink:href="#DejaVuSans-8722"/>
       <use x="83.789062" xlink:href="#DejaVuSans-53"/>
       <use x="147.412109" xlink:href="#DejaVuSans-46"/>
       <use x="179.199219" xlink:href="#DejaVuSans-48"/>
      </g>
     </g>
    </g>
    <g id="xtick_4">
     <g id="line2d_4">
      <g>
       <use style="stroke:#000000;stroke-width:0.8;" x="164.736" xlink:href="#ma07342c907" y="307.584"/>
      </g>
     </g>
     <g id="text_4">
      <!-- −2.5 -->
      <defs>
       <path d="M 19.1875 8.296875 
L 53.609375 8.296875 
L 53.609375 0 
L 7.328125 0 
L 7.328125 8.296875 
Q 12.9375 14.109375 22.625 23.890625 
Q 32.328125 33.6875 34.8125 36.53125 
Q 39.546875 41.84375 41.421875 45.53125 
Q 43.3125 49.21875 43.3125 52.78125 
Q 43.3125 58.59375 39.234375 62.25 
Q 35.15625 65.921875 28.609375 65.921875 
Q 23.96875 65.921875 18.8125 64.3125 
Q 13.671875 62.703125 7.8125 59.421875 
L 7.8125 69.390625 
Q 13.765625 71.78125 18.9375 73 
Q 24.125 74.21875 28.421875 74.21875 
Q 39.75 74.21875 46.484375 68.546875 
Q 53.21875 62.890625 53.21875 53.421875 
Q 53.21875 48.921875 51.53125 44.890625 
Q 49.859375 40.875 45.40625 35.40625 
Q 44.1875 33.984375 37.640625 27.21875 
Q 31.109375 20.453125 19.1875 8.296875 
z
" id="DejaVuSans-50"/>
      </defs>
      <g transform="translate(152.594594 322.182437)scale(0.1 -0.1)">
       <use xlink:href="#DejaVuSans-8722"/>
       <use x="83.789062" xlink:href="#DejaVuSans-50"/>
       <use x="147.412109" xlink:href="#DejaVuSans-46"/>
       <use x="179.199219" xlink:href="#DejaVuSans-53"/>
      </g>
     </g>
    </g>
    <g id="xtick_5">
     <g id="line2d_5">
      <g>
       <use style="stroke:#000000;stroke-width:0.8;" x="200.448" xlink:href="#ma07342c907" y="307.584"/>
      </g>
     </g>
     <g id="text_5">
      <!-- 0.0 -->
      <g transform="translate(192.496438 322.182437)scale(0.1 -0.1)">
       <use xlink:href="#DejaVuSans-48"/>
       <use x="63.623047" xlink:href="#DejaVuSans-46"/>
       <use x="95.410156" xlink:href="#DejaVuSans-48"/>
      </g>
     </g>
    </g>
    <g id="xtick_6">
     <g id="line2d_6">
      <g>
       <use style="stroke:#000000;stroke-width:0.8;" x="236.16" xlink:href="#ma07342c907" y="307.584"/>
      </g>
     </g>
     <g id="text_6">
      <!-- 2.5 -->
      <g transform="translate(228.208438 322.182437)scale(0.1 -0.1)">
       <use xlink:href="#DejaVuSans-50"/>
       <use x="63.623047" xlink:href="#DejaVuSans-46"/>
       <use x="95.410156" xlink:href="#DejaVuSans-53"/>
      </g>
     </g>
    </g>
    <g id="xtick_7">
     <g id="line2d_7">
      <g>
       <use style="stroke:#000000;stroke-width:0.8;" x="271.872" xlink:href="#ma07342c907" y="307.584"/>
      </g>
     </g>
     <g id="text_7">
      <!-- 5.0 -->
      <g transform="translate(263.920437 322.182437)scale(0.1 -0.1)">
       <use xlink:href="#DejaVuSans-53"/>
       <use x="63.623047" xlink:href="#DejaVuSans-46"/>
       <use x="95.410156" xlink:href="#DejaVuSans-48"/>
      </g>
     </g>
    </g>
    <g id="xtick_8">
     <g id="line2d_8">
      <g>
       <use style="stroke:#000000;stroke-width:0.8;" x="307.584" xlink:href="#ma07342c907" y="307.584"/>
      </g>
     </g>
     <g id="text_8">
      <!-- 7.5 -->
      <g transform="translate(299.632438 322.182437)scale(0.1 -0.1)">
       <use xlink:href="#DejaVuSans-55"/>
       <use x="63.623047" xlink:href="#DejaVuSans-46"/>
       <use x="95.410156" xlink:href="#DejaVuSans-53"/>
      </g>
     </g>
    </g>
    <g id="xtick_9">
     <g id="line2d_9">
      <g>
       <use style="stroke:#000000;stroke-width:0.8;" x="343.296" xlink:href="#ma07342c907" y="307.584"/>
      </g>
     </g>
     <g id="text_9">
      <!-- 10.0 -->
      <g transform="translate(332.163188 322.182437)scale(0.1 -0.1)">
       <use xlink:href="#DejaVuSans-49"/>
       <use x="63.623047" xlink:href="#DejaVuSans-48"/>
       <use x="127.246094" xlink:href="#DejaVuSans-46"/>
       <use x="159.033203" xlink:href="#DejaVuSans-48"/>
      </g>
     </g>
    </g>
   </g>
   <g id="matplotlib.axis_2">
    <g id="ytick_1">
     <g id="line2d_10">
      <defs>
       <path d="M 0 0 
L -3.5 0 
" id="mcaf048be05" style="stroke:#000000;stroke-width:0.8;"/>
      </defs>
      <g>
       <use style="stroke:#000000;stroke-width:0.8;" x="57.6" xlink:href="#mcaf048be05" y="307.584"/>
      </g>
     </g>
     <g id="text_10">
      <!-- −10.0 -->
      <g transform="translate(19.954687 311.383219)scale(0.1 -0.1)">
       <use xlink:href="#DejaVuSans-8722"/>
       <use x="83.789062" xlink:href="#DejaVuSans-49"/>
       <use x="147.412109" xlink:href="#DejaVuSans-48"/>
       <use x="211.035156" xlink:href="#DejaVuSans-46"/>
       <use x="242.822266" xlink:href="#DejaVuSans-48"/>
      </g>
     </g>
    </g>
    <g id="ytick_2">
     <g id="line2d_11">
      <g>
       <use style="stroke:#000000;stroke-width:0.8;" x="57.6" xlink:href="#mcaf048be05" y="274.32"/>
      </g>
     </g>
     <g id="text_11">
      <!-- −7.5 -->
      <g transform="translate(26.317187 278.119219)scale(0.1 -0.1)">
       <use xlink:href="#DejaVuSans-8722"/>
       <use x="83.789062" xlink:href="#DejaVuSans-55"/>
       <use x="147.412109" xlink:href="#DejaVuSans-46"/>
       <use x="179.199219" xlink:href="#DejaVuSans-53"/>
      </g>
     </g>
    </g>
    <g id="ytick_3">
     <g id="line2d_12">
      <g>
       <use style="stroke:#000000;stroke-width:0.8;" x="57.6" xlink:href="#mcaf048be05" y="241.056"/>
      </g>
     </g>
     <g id="text_12">
      <!-- −5.0 -->
      <g transform="translate(26.317187 244.855219)scale(0.1 -0.1)">
       <use xlink:href="#DejaVuSans-8722"/>
       <use x="83.789062" xlink:href="#DejaVuSans-53"/>
       <use x="147.412109" xlink:href="#DejaVuSans-46"/>
       <use x="179.199219" xlink:href="#DejaVuSans-48"/>
      </g>
     </g>
    </g>
    <g id="ytick_4">
     <g id="line2d_13">
      <g>
       <use style="stroke:#000000;stroke-width:0.8;" x="57.6" xlink:href="#mcaf048be05" y="207.792"/>
      </g>
     </g>
     <g id="text_13">
      <!-- −2.5 -->
      <g transform="translate(26.317187 211.591219)scale(0.1 -0.1)">
       <use xlink:href="#DejaVuSans-8722"/>
       <use x="83.789062" xlink:href="#DejaVuSans-50"/>
       <use x="147.412109" xlink:href="#DejaVuSans-46"/>
       <use x="179.199219" xlink:href="#DejaVuSans-53"/>
      </g>
     </g>
    </g>
    <g id="ytick_5">
     <g id="line2d_14">
      <g>
       <use style="stroke:#000000;stroke-width:0.8;" x="57.6" xlink:href="#mcaf048be05" y="174.528"/>
      </g>
     </g>
     <g id="text_14">
      <!-- 0.0 -->
      <g transform="translate(34.696875 178.327219)scale(0.1 -0.1)">
       <use xlink:href="#DejaVuSans-48"/>
       <use x="63.623047" xlink:href="#DejaVuSans-46"/>
       <use x="95.410156" xlink:href="#DejaVuSans-48"/>
      </g>
     </g>
    </g>
    <g id="ytick_6">
     <g id="line2d_15">
      <g>
       <use style="stroke:#000000;stroke-width:0.8;" x="57.6" xlink:href="#mcaf048be05" y="141.264"/>
      </g>
     </g>
     <g id="text_15">
      <!-- 2.5 -->
      <g transform="translate(34.696875 145.063219)scale(0.1 -0.1)">
       <use xlink:href="#DejaVuSans-50"/>
       <use x="63.623047" xlink:href="#DejaVuSans-46"/>
       <use x="95.410156" xlink:href="#DejaVuSans-53"/>
      </g>
     </g>
    </g>
    <g id="ytick_7">
     <g id="line2d_16">
      <g>
       <use style="stroke:#000000;stroke-width:0.8;" x="57.6" xlink:href="#mcaf048be05" y="108"/>
      </g>
     </g>
     <g id="text_16">
      <!-- 5.0 -->
      <g transform="translate(34.696875 111.799219)scale(0.1 -0.1)">
       <use xlink:href="#DejaVuSans-53"/>
       <use x="63.623047" xlink:href="#DejaVuSans-46"/>
       <use x="95.410156" xlink:href="#DejaVuSans-48"/>
      </g>
     </g>
    </g>
    <g id="ytick_8">
     <g id="line2d_17">
      <g>
       <use style="stroke:#000000;stroke-width:0.8;" x="57.6" xlink:href="#mcaf048be05" y="74.736"/>
      </g>
     </g>
     <g id="text_17">
      <!-- 7.5 -->
      <g transform="translate(34.696875 78.535219)scale(0.1 -0.1)">
       <use xlink:href="#DejaVuSans-55"/>
       <use x="63.623047" xlink:href="#DejaVuSans-46"/>
       <use x="95.410156" xlink:href="#DejaVuSans-53"/>
      </g>
     </g>
    </g>
    <g id="ytick_9">
     <g id="line2d_18">
      <g>
       <use style="stroke:#000000;stroke-width:0.8;" x="57.6" xlink:href="#mcaf048be05" y="41.472"/>
      </g>
     </g>
     <g id="text_18">
      <!-- 10.0 -->
      <g transform="translate(28.334375 45.271219)scale(0.1 -0.1)">
       <use xlink:href="#DejaVuSans-49"/>
       <use x="63.623047" xlink:href="#DejaVuSans-48"/>
       <use x="127.246094" xlink:href="#DejaVuSans-46"/>
       <use x="159.033203" xlink:href="#DejaVuSans-48"/>
      </g>
     </g>
    </g>
   </g>
   <g id="LineCollection_1"/>
   <g id="LineCollection_2">
    <path clip-path="url(#p467beebb3e)" d="M 83.163866 307.584 
L 80.686545 305.634209 
L 79.934077 304.896 
L 78.158859 302.208 
L 77.800727 300.273212 
L 77.655443 299.52 
L 77.800727 299.01732 
L 78.416717 296.832 
L 80.380403 294.144 
L 80.686545 293.838261 
L 83.572364 291.503113 
L 83.673453 291.456 
L 86.458182 290.225818 
L 89.344 290.1341 
L 92.229818 291.257864 
L 92.503259 291.456 
L 95.115636 293.565519 
L 95.663394 294.144 
L 97.477206 296.832 
L 98.001455 298.986693 
L 98.130592 299.52 
L 98.001455 300.113556 
L 97.558207 302.208 
L 95.781312 304.896 
L 95.115636 305.575916 
L 92.62022 307.584 
" style="fill:none;stroke:#00e38e;stroke-width:1.5;"/>
    <path clip-path="url(#p467beebb3e)" d="M 175.918545 225.33265 
L 173.417835 224.256 
L 173.032727 224.074186 
L 170.146909 221.762001 
L 169.946736 221.568 
L 168.02748 218.88 
L 167.404649 216.192 
L 168.031822 213.504 
L 169.882861 210.816 
L 170.146909 210.543927 
L 172.97947 208.128 
L 173.032727 208.087825 
L 175.918545 206.701254 
L 178.804364 206.490136 
L 181.690182 207.477958 
L 182.613704 208.128 
L 184.576 209.679889 
L 185.649596 210.816 
L 187.348629 213.504 
L 187.461818 214.060677 
L 187.892099 216.192 
L 187.461818 217.817793 
L 187.183392 218.88 
L 185.284074 221.568 
L 184.576 222.265796 
L 181.936936 224.256 
L 181.690182 224.422881 
L 178.804364 225.455855 
L 175.918545 225.33265 
" style="fill:none;stroke:#00e38e;stroke-width:1.5;"/>
    <path clip-path="url(#p467beebb3e)" d="M 86.458182 223.17512 
L 84.177282 221.568 
L 83.572364 220.937739 
L 82.302228 218.88 
L 81.969847 216.192 
L 83.105724 213.504 
L 83.572364 212.979803 
L 86.458182 210.861486 
L 86.698586 210.816 
L 89.344 210.406073 
L 90.807835 210.816 
L 92.229818 211.329988 
L 94.881363 213.504 
L 95.115636 213.940393 
L 96.117011 216.192 
L 95.713464 218.88 
L 95.115636 219.780859 
L 93.609656 221.568 
L 92.229818 222.643154 
L 89.344 223.654889 
L 86.458182 223.17512 
" style="fill:none;stroke:#00e38e;stroke-width:1.5;"/>
    <path clip-path="url(#p467beebb3e)" d="M 265.378909 141.652748 
L 263.790768 140.928 
L 262.493091 140.283842 
L 259.983027 138.24 
L 259.607273 137.805739 
L 257.911434 135.552 
L 257.156063 132.864 
L 257.659466 130.176 
L 259.39805 127.488 
L 259.607273 127.265313 
L 262.3429 124.8 
L 262.493091 124.682514 
L 265.378909 123.189949 
L 268.264727 122.861226 
L 271.150545 123.717881 
L 272.738028 124.8 
L 274.036364 125.803976 
L 275.623453 127.488 
L 276.922182 129.641057 
L 277.221204 130.176 
L 277.637188 132.864 
L 276.922182 135.156245 
L 276.797593 135.552 
L 274.77313 138.24 
L 274.036364 138.940926 
L 271.219879 140.928 
L 271.150545 140.97267 
L 268.264727 141.894426 
L 265.378909 141.652748 
" style="fill:none;stroke:#00e38e;stroke-width:1.5;"/>
    <path clip-path="url(#p467beebb3e)" d="M 175.918545 139.443117 
L 174.284108 138.24 
L 173.032727 136.926997 
L 172.156858 135.552 
L 171.686023 132.864 
L 172.656884 130.176 
L 173.032727 129.723645 
L 175.752468 127.488 
L 175.918545 127.386068 
L 178.804364 126.800771 
L 181.592331 127.488 
L 181.690182 127.519968 
L 184.576 129.87026 
L 184.858086 130.176 
L 185.896458 132.864 
L 185.334041 135.552 
L 184.576 136.608012 
L 183.031548 138.24 
L 181.690182 139.21799 
L 178.804364 140.074012 
L 175.918545 139.443117 
" style="fill:none;stroke:#00e38e;stroke-width:1.5;"/>
    <path clip-path="url(#p467beebb3e)" d="M 265.378909 55.698252 
L 264.352599 54.912 
L 262.493091 52.946488 
L 262.020166 52.224 
L 261.414478 49.536 
L 262.226955 46.848 
L 262.493091 46.504065 
L 265.039228 44.16 
L 265.378909 43.935357 
L 268.264727 43.208395 
L 271.150545 43.798194 
L 271.784354 44.16 
L 274.036364 46.005584 
L 274.786067 46.848 
L 275.659696 49.536 
L 274.937178 52.224 
L 274.036364 53.389762 
L 272.421236 54.912 
L 271.150545 55.776522 
L 268.264727 56.480562 
L 265.378909 55.698252 
" style="fill:none;stroke:#00e38e;stroke-width:1.5;"/>
   </g>
   <g id="LineCollection_3">
    <path clip-path="url(#p467beebb3e)" d="M 64.934606 307.584 
L 65.047221 304.896 
L 65.125212 302.208 
L 65.149185 299.52 
L 65.119118 296.832 
L 65.047141 294.144 
L 64.978458 291.456 
L 65.041739 288.768 
L 65.507353 286.08 
L 66.257455 284.272608 
L 66.745833 283.392 
L 69.143273 280.819568 
L 69.29613 280.704 
L 72.029091 279.160708 
L 74.914909 278.452643 
L 77.800727 278.264837 
L 80.686545 278.290541 
L 83.572364 278.361599 
L 86.458182 278.408836 
L 89.344 278.410679 
L 92.229818 278.362708 
L 95.115636 278.272448 
L 98.001455 278.181026 
L 100.887273 278.230369 
L 103.773091 278.862859 
L 106.008043 280.704 
L 106.658909 281.683071 
L 107.412962 283.392 
L 108.217238 286.08 
L 108.739439 288.768 
L 109.085367 291.456 
L 109.282924 294.144 
L 109.333038 296.832 
L 109.214457 299.52 
L 108.866548 302.208 
L 108.163099 304.896 
L 106.891152 307.584 
" style="fill:none;stroke:#00c79c;stroke-width:1.5;"/>
    <path clip-path="url(#p467beebb3e)" d="M 173.756366 307.584 
L 173.032727 307.37142 
L 170.146909 305.77277 
L 168.885591 304.896 
L 167.261091 303.250217 
L 166.269186 302.208 
L 165.158139 299.52 
L 165.389635 296.832 
L 166.881193 294.144 
L 167.261091 293.701177 
L 169.380125 291.456 
L 170.146909 290.778484 
L 173.032727 288.866856 
L 173.340213 288.768 
L 175.918545 287.938055 
L 178.804364 288.251181 
L 179.712481 288.768 
L 181.690182 289.859484 
L 183.260772 291.456 
L 184.576 292.970524 
L 185.371097 294.144 
L 186.597507 296.832 
L 186.850982 299.52 
L 185.979185 302.208 
L 184.576 304.104411 
L 183.866073 304.896 
L 181.690182 306.654602 
L 179.671636 307.584 
" style="fill:none;stroke:#00c79c;stroke-width:1.5;"/>
    <path clip-path="url(#p467beebb3e)" d="M 343.296 67.834624 
L 340.410182 67.178618 
L 337.524364 66.038462 
L 336.862068 65.664 
L 334.671182 62.976 
L 334.638545 62.861928 
L 334.171668 60.288 
L 334.177693 57.6 
L 334.289066 54.912 
L 334.381188 52.224 
L 334.422062 49.536 
L 334.407962 46.848 
L 334.346416 44.16 
L 334.268702 41.472 
" style="fill:none;stroke:#00c79c;stroke-width:1.5;"/>
    <path clip-path="url(#p467beebb3e)" d="M 284.669462 41.472 
L 285.579636 42.457124 
L 286.840604 44.16 
L 287.910501 46.848 
L 288.384073 49.536 
L 288.465455 51.246269 
L 288.519888 52.224 
L 288.465455 53.492429 
L 288.392604 54.912 
L 287.997306 57.6 
L 287.212005 60.288 
L 285.664481 62.976 
L 285.579636 63.096682 
L 282.852447 65.664 
L 282.693818 65.762602 
L 279.808 67.219767 
L 276.922182 67.959275 
L 274.036364 68.333416 
L 273.676075 68.352 
L 271.150545 68.460726 
L 268.678249 68.352 
L 268.264727 68.336511 
L 265.378909 67.904255 
L 262.493091 66.925151 
L 260.530628 65.664 
L 259.607273 64.926423 
L 257.842411 62.976 
L 256.721455 61.501775 
L 255.905349 60.288 
L 254.26007 57.6 
L 253.835636 56.785375 
L 252.937421 54.912 
L 252.1761 52.224 
L 252.099554 49.536 
L 252.788706 46.848 
L 253.835636 45.008995 
L 254.326795 44.16 
L 256.662051 41.472 
" style="fill:none;stroke:#00c79c;stroke-width:1.5;"/>
    <path clip-path="url(#p467beebb3e)" d="M 86.458182 235.225281 
L 85.642036 235.008 
L 83.572364 234.386273 
L 80.686545 232.622201 
L 80.346166 232.32 
L 77.946293 229.632 
L 77.800727 229.45051 
L 76.029847 226.944 
L 74.914909 225.095388 
L 74.451011 224.256 
L 73.218652 221.568 
L 72.603766 218.88 
L 72.673034 216.192 
L 73.518316 213.504 
L 74.914909 211.313921 
L 75.239572 210.816 
L 77.696949 208.128 
L 77.800727 208.027599 
L 80.686545 205.454377 
L 80.706102 205.44 
L 83.572364 203.417662 
L 85.11641 202.752 
L 86.458182 202.178287 
L 89.344 201.69733 
L 92.229818 201.921497 
L 95.011877 202.752 
L 95.115636 202.785087 
L 98.001455 204.051088 
L 100.478482 205.44 
L 100.887273 205.690809 
L 103.773091 207.560815 
L 104.517087 208.128 
L 106.658909 210.380201 
L 106.978979 210.816 
L 108.25083 213.504 
L 108.823601 216.192 
L 109.018162 218.88 
L 108.947196 221.568 
L 108.611093 224.256 
L 107.906058 226.944 
L 106.658909 229.460791 
L 106.543645 229.632 
L 104.121706 232.32 
L 103.773091 232.577971 
L 100.887273 234.198819 
L 98.063912 235.008 
L 98.001455 235.020631 
L 95.115636 235.494824 
L 92.229818 235.669896 
L 89.344 235.598153 
L 86.458182 235.225281 
" style="fill:none;stroke:#00c79c;stroke-width:1.5;"/>
    <path clip-path="url(#p467beebb3e)" d="M 164.375273 235.123857 
L 163.676682 235.008 
L 161.489455 234.528603 
L 158.603636 233.550117 
L 156.607583 232.32 
L 155.717818 231.228866 
L 154.960323 229.632 
L 154.631202 226.944 
L 154.67953 224.256 
L 154.79295 221.568 
L 154.876002 218.88 
L 154.905671 216.192 
L 154.880818 213.504 
L 154.811866 210.816 
L 154.73894 208.128 
L 154.78001 205.44 
L 155.191315 202.752 
L 155.717818 201.305392 
L 156.323092 200.064 
L 158.603636 197.45768 
L 158.703203 197.376 
L 161.489455 195.677377 
L 164.375273 194.901601 
L 167.080601 194.688 
L 167.261091 194.677608 
L 169.362914 194.688 
L 170.146909 194.6905 
L 173.032727 194.759646 
L 175.918545 194.80985 
L 178.804364 194.816562 
L 181.690182 194.774289 
L 184.576 194.689052 
L 184.623778 194.688 
L 187.461818 194.589097 
L 190.347636 194.61519 
L 190.929439 194.688 
L 193.233455 195.150742 
L 195.949022 197.376 
L 196.119273 197.620061 
L 197.274844 200.064 
L 198.032223 202.752 
L 198.528406 205.44 
L 198.857172 208.128 
L 199.005091 210.161125 
L 199.042844 210.816 
L 199.079975 213.504 
L 199.005091 214.85118 
L 198.939403 216.192 
L 198.564053 218.88 
L 197.817982 221.568 
L 196.483766 224.256 
L 196.119273 224.822038 
L 194.48992 226.944 
L 193.233455 228.294157 
L 191.844472 229.632 
L 190.347636 230.934596 
L 188.517648 232.32 
L 187.461818 233.005837 
L 184.576 234.440268 
L 182.735756 235.008 
L 181.690182 235.287278 
L 178.804364 235.747077 
L 175.918545 235.944393 
L 173.032727 235.962626 
L 170.146909 235.833562 
L 167.261091 235.559661 
L 164.375273 235.123857 
" style="fill:none;stroke:#00c79c;stroke-width:1.5;"/>
    <path clip-path="url(#p467beebb3e)" d="M 265.378909 224.520055 
L 264.462805 224.256 
L 262.493091 223.637764 
L 259.607273 221.982091 
L 258.999625 221.568 
L 256.721455 219.368401 
L 256.23504 218.88 
L 254.953989 216.192 
L 255.057925 213.504 
L 256.441173 210.816 
L 256.721455 210.476154 
L 258.832617 208.128 
L 259.607273 207.425965 
L 262.469419 205.44 
L 262.493091 205.424697 
L 265.378909 204.369027 
L 268.264727 204.548921 
L 269.960296 205.44 
L 271.150545 206.041654 
L 273.275224 208.128 
L 274.036364 208.982461 
L 275.283846 210.816 
L 276.423247 213.504 
L 276.568412 216.192 
L 275.57474 218.88 
L 274.036364 220.84203 
L 273.326907 221.568 
L 271.150545 223.237809 
L 268.688422 224.256 
L 268.264727 224.424092 
L 265.378909 224.520055 
" style="fill:none;stroke:#00c79c;stroke-width:1.5;"/>
    <path clip-path="url(#p467beebb3e)" d="M 178.804364 151.969315 
L 176.762127 151.68 
L 175.918545 151.562244 
L 173.032727 150.663045 
L 170.431909 148.992 
L 170.146909 148.768481 
L 167.887259 146.304 
L 167.261091 145.50252 
L 165.959547 143.616 
L 164.380843 140.928 
L 164.375273 140.917401 
L 163.071962 138.24 
L 162.384716 135.552 
L 162.381341 132.864 
L 163.14862 130.176 
L 164.375273 128.144121 
L 164.779066 127.488 
L 167.176606 124.8 
L 167.261091 124.717067 
L 170.123812 122.112 
L 170.146909 122.092303 
L 173.032727 119.990322 
L 174.255476 119.424 
L 175.918545 118.662907 
L 178.804364 118.108937 
L 181.690182 118.263338 
L 184.576 119.058091 
L 185.477928 119.424 
L 187.461818 120.305828 
L 190.347636 121.918976 
L 190.68999 122.112 
L 193.233455 123.733527 
L 194.613724 124.8 
L 196.119273 126.404428 
L 196.919327 127.488 
L 198.085312 130.176 
L 198.606759 132.864 
L 198.769907 135.552 
L 198.67266 138.24 
L 198.307517 140.928 
L 197.563092 143.616 
L 196.119273 146.277667 
L 196.100035 146.304 
L 193.506285 148.992 
L 193.233455 149.177351 
L 190.347636 150.713614 
L 187.461818 151.492863 
L 186.384188 151.68 
L 184.576 151.915325 
L 181.690182 152.067242 
L 178.804364 151.969315 
" style="fill:none;stroke:#00c79c;stroke-width:1.5;"/>
    <path clip-path="url(#p467beebb3e)" d="M 256.721455 151.913197 
L 254.985885 151.68 
L 253.835636 151.476768 
L 250.949818 150.858734 
L 248.064 149.801631 
L 246.695597 148.992 
L 245.178182 147.113521 
L 244.807837 146.304 
L 244.397915 143.616 
L 244.427116 140.928 
L 244.540168 138.24 
L 244.627945 135.552 
L 244.663256 132.864 
L 244.64374 130.176 
L 244.578297 127.488 
L 244.502412 124.8 
L 244.523776 122.112 
L 244.88422 119.424 
L 245.178182 118.484059 
L 245.912799 116.736 
L 248.064 114.112171 
L 248.136245 114.048 
L 250.949818 112.204553 
L 253.827237 111.36 
L 253.835636 111.358173 
L 256.721455 111.075349 
L 259.607273 111.074692 
L 262.493091 111.147312 
L 265.378909 111.203852 
L 268.264727 111.215937 
L 271.150545 111.176805 
L 274.036364 111.090211 
L 276.922182 110.98696 
L 279.808 110.986317 
L 282.268403 111.36 
L 282.693818 111.462211 
L 285.579636 113.577418 
L 285.883253 114.048 
L 287.126267 116.736 
L 287.839349 119.424 
L 288.311565 122.112 
L 288.465455 123.206656 
L 288.636836 124.8 
L 288.814858 127.488 
L 288.834106 130.176 
L 288.669709 132.864 
L 288.465455 134.205801 
L 288.256585 135.552 
L 287.46623 138.24 
L 286.068656 140.928 
L 285.579636 141.649743 
L 284.001694 143.616 
L 282.693818 144.986906 
L 281.297382 146.304 
L 279.808 147.5719 
L 277.863878 148.992 
L 276.922182 149.577819 
L 274.036364 150.95183 
L 271.41113 151.68 
L 271.150545 151.742937 
L 268.264727 152.17245 
L 265.378909 152.349462 
L 262.493091 152.351388 
L 259.607273 152.20601 
L 256.721455 151.913197 
" style="fill:none;stroke:#00c79c;stroke-width:1.5;"/>
   </g>
   <g id="LineCollection_4">
    <path clip-path="url(#p467beebb3e)" d="M 57.6 222.352455 
L 58.360214 221.568 
L 60.204294 218.88 
L 61.083859 216.192 
L 61.361859 213.504 
L 61.259381 210.816 
L 61.0035 208.128 
L 60.943892 205.44 
L 61.49867 202.752 
L 62.910384 200.064 
L 63.371636 199.449349 
L 65.106657 197.376 
L 66.257455 196.230864 
L 69.143273 193.808547 
L 72.198295 192 
L 74.914909 191.091177 
L 77.800727 190.856247 
L 83.572364 191.255126 
L 86.458182 191.219631 
L 89.344 190.741004 
L 92.712446 189.312 
L 95.115636 187.353243 
L 95.826254 186.624 
L 98.001455 183.33385 
L 99.160244 181.248 
L 100.264397 178.56 
L 101.19774 175.872 
L 102.153247 173.184 
L 103.773091 167.70027 
L 105.902771 162.432 
L 106.658909 160.791076 
L 107.315949 159.744 
L 109.544727 156.629105 
L 112.430545 153.756448 
L 115.316364 151.591566 
L 118.202182 150.02469 
L 121.088 148.757312 
L 128.90954 146.304 
L 132.631273 145.40386 
L 135.517091 144.559411 
L 141.288727 142.48949 
L 144.289494 140.928 
L 147.060364 139.017384 
L 147.852996 138.24 
L 149.946182 135.259244 
L 150.775659 132.864 
L 151.105131 130.176 
L 151.032116 127.488 
L 150.777165 124.8 
L 150.678242 122.112 
L 151.157233 119.424 
L 152.832 116.252345 
L 154.604716 114.048 
L 155.717818 112.913173 
L 158.603636 110.424066 
L 161.489455 108.608327 
L 164.375273 107.550426 
L 167.261091 107.252377 
L 175.918545 107.63627 
L 178.804364 107.214324 
L 182.008059 105.984 
L 184.576 104.046329 
L 185.340042 103.296 
L 187.461818 100.260113 
L 188.788424 97.92 
L 189.894792 95.232 
L 190.347636 93.816626 
L 190.884794 92.544 
L 191.823717 89.856 
L 193.429478 84.48 
L 195.52094 79.104 
L 196.119273 77.734756 
L 196.912572 76.416 
L 199.005091 73.376404 
L 201.890909 70.409293 
L 204.776727 68.186938 
L 209.476345 65.664 
L 213.434182 64.328438 
L 219.205818 62.623507 
L 222.091636 61.891839 
L 224.977455 61.034426 
L 230.749091 59.016968 
L 233.634909 57.560666 
L 236.520727 55.667604 
L 237.329551 54.912 
L 239.440478 52.224 
L 240.462116 49.536 
L 240.845812 46.848 
L 240.804732 44.16 
L 240.55406 41.472 
L 240.55406 41.472 
" style="fill:none;stroke:#00aaaa;stroke-width:1.5;"/>
    <path clip-path="url(#p467beebb3e)" d="M 343.296 149.671839 
L 340.410182 150.164932 
L 337.524364 151.1383 
L 336.382318 151.68 
L 334.638545 152.664813 
L 332.184822 154.368 
L 331.752727 154.69278 
L 328.866909 157.035662 
L 328.843282 157.056 
L 325.981091 159.510097 
L 325.716932 159.744 
L 323.095273 162.039133 
L 322.65353 162.432 
L 320.209455 164.58504 
L 319.608589 165.12 
L 317.323636 167.146062 
L 316.58526 167.808 
L 314.437818 169.738249 
L 313.605473 170.496 
L 311.552 172.381939 
L 310.689708 173.184 
L 308.666182 175.089808 
L 307.843447 175.872 
L 305.780364 177.858842 
L 305.054828 178.56 
L 302.894545 180.671182 
L 302.302374 181.248 
L 300.008727 183.505635 
L 299.567549 183.936 
L 297.122909 186.355952 
L 296.849001 186.624 
L 294.237091 189.255929 
L 294.181127 189.312 
L 291.640921 192 
L 291.351273 192.327882 
L 289.409657 194.688 
L 288.465455 196.064924 
L 287.699666 197.376 
L 286.580138 200.064 
L 285.985765 202.752 
L 285.82074 205.44 
L 285.920026 208.128 
L 286.059743 210.816 
L 286.027827 213.504 
L 285.647827 216.192 
L 285.579636 216.401579 
L 284.783375 218.88 
L 283.228104 221.568 
L 282.693818 222.247451 
L 280.99595 224.256 
L 279.808 225.450157 
L 278.233274 226.944 
L 276.922182 228.111168 
L 274.978409 229.632 
L 274.036364 230.321494 
L 271.150545 231.910643 
L 269.906033 232.32 
L 268.264727 232.858613 
L 265.378909 233.303451 
L 262.493091 233.392804 
L 259.607273 233.286546 
L 256.721455 233.171221 
L 253.835636 233.252598 
L 250.949818 233.697515 
L 248.064 234.614083 
L 247.181739 235.008 
L 245.178182 236.086067 
L 242.798861 237.696 
L 242.292364 238.069905 
L 239.415209 240.384 
L 239.406545 240.391198 
L 236.520727 242.856251 
L 236.276759 243.072 
L 233.634909 245.382268 
L 233.210154 245.76 
L 230.749091 247.926971 
L 230.163709 248.448 
L 227.863273 250.485906 
L 227.137318 251.136 
L 224.977455 253.073963 
L 224.152 253.824 
L 222.091636 255.711619 
L 221.229157 256.512 
L 219.205818 258.412801 
L 218.37611 259.2 
L 216.32 261.176236 
L 215.582537 261.888 
L 213.434182 263.985213 
L 212.827408 264.576 
L 210.548364 266.818117 
L 210.091263 267.264 
L 207.662545 269.666215 
L 207.370274 269.952 
L 204.776727 272.557562 
L 204.694095 272.64 
L 202.135155 275.328 
L 201.890909 275.600517 
L 199.861747 278.016 
L 199.005091 279.21804 
L 198.092896 280.704 
L 196.911049 283.392 
L 196.260776 286.08 
L 196.119273 287.796008 
L 196.062037 288.768 
L 196.119273 290.643677 
L 196.140461 291.456 
L 196.289066 294.144 
L 196.284324 296.832 
L 196.119273 298.094679 
L 195.955204 299.52 
L 195.14869 302.208 
L 193.66205 304.896 
L 193.233455 305.460834 
L 191.49761 307.584 
" style="fill:none;stroke:#00aaaa;stroke-width:1.5;"/>
    <path clip-path="url(#p467beebb3e)" d="M 181.957761 41.472 
L 184.576 42.40438 
L 187.461818 43.982755 
L 187.764776 44.16 
L 190.347636 46.310684 
L 190.976559 46.848 
L 192.564049 49.536 
L 192.806769 52.224 
L 191.937907 54.912 
L 190.347636 57.058929 
L 189.905003 57.6 
L 187.461818 59.911792 
L 186.965904 60.288 
L 184.576 61.922943 
L 181.690182 62.843876 
L 178.804364 62.75324 
L 175.918545 61.478223 
L 174.676671 60.288 
L 173.032727 58.690621 
L 172.269699 57.6 
L 170.618749 54.912 
L 170.146909 53.724839 
L 169.619242 52.224 
L 169.533754 49.536 
L 170.146909 47.875481 
L 170.546091 46.848 
L 172.743163 44.16 
L 173.032727 43.89643 
L 175.918545 42.003805 
L 177.788988 41.472 
" style="fill:none;stroke:#00aaaa;stroke-width:1.5;"/>
    <path clip-path="url(#p467beebb3e)" d="M 129.745455 305.737822 
L 132.631273 306.55754 
L 135.517091 307.018251 
L 138.402909 307.170992 
L 141.288727 306.978151 
L 144.174545 306.244727 
L 146.349255 304.896 
L 147.060364 303.995754 
L 147.900725 302.208 
L 147.578887 299.52 
L 147.060364 298.823834 
L 145.02913 296.832 
L 144.174545 296.388223 
L 141.288727 295.453784 
L 138.402909 295.008312 
L 135.517091 294.932565 
L 132.631273 295.191613 
L 129.745455 295.81264 
L 127.012986 296.832 
L 126.859636 296.939766 
L 124.382769 299.52 
L 124.68123 302.208 
L 126.859636 304.265752 
L 127.868807 304.896 
L 129.745455 305.737822 
" style="fill:none;stroke:#00aaaa;stroke-width:1.5;"/>
    <path clip-path="url(#p467beebb3e)" d="M 175.918545 270.590983 
L 178.804364 271.895185 
L 181.690182 271.521915 
L 183.770853 269.952 
L 184.576 268.719583 
L 185.250476 267.264 
L 185.764001 264.576 
L 185.7995 261.888 
L 185.482278 259.2 
L 184.809419 256.512 
L 184.576 255.934983 
L 183.6507 253.824 
L 181.762128 251.136 
L 181.690182 251.064142 
L 178.804364 249.841802 
L 175.918545 250.939085 
L 175.744812 251.136 
L 174.079862 253.824 
L 173.077778 256.512 
L 173.032727 256.74779 
L 172.664093 259.2 
L 172.596925 261.888 
L 172.875629 264.576 
L 173.032727 265.225759 
L 173.710579 267.264 
L 175.333272 269.952 
L 175.918545 270.590983 
" style="fill:none;stroke:#00aaaa;stroke-width:1.5;"/>
    <path clip-path="url(#p467beebb3e)" d="M 219.205818 222.034848 
L 222.091636 222.899937 
L 224.977455 223.394939 
L 227.863273 223.57989 
L 230.749091 223.427379 
L 233.634909 222.765376 
L 235.772398 221.568 
L 236.520727 220.798993 
L 237.588522 218.88 
L 237.428792 216.192 
L 236.520727 214.9016 
L 235.192121 213.504 
L 233.634909 212.687829 
L 230.749091 211.789954 
L 227.863273 211.374734 
L 224.977455 211.332248 
L 222.091636 211.634034 
L 219.205818 212.314587 
L 216.32 213.483001 
L 216.284002 213.504 
L 214.065656 216.192 
L 214.625002 218.88 
L 216.32 220.433037 
L 218.190357 221.568 
L 219.205818 222.034848 
" style="fill:none;stroke:#00aaaa;stroke-width:1.5;"/>
    <path clip-path="url(#p467beebb3e)" d="M 265.378909 186.76205 
L 268.264727 188.235398 
L 271.150545 188.033115 
L 273.272331 186.624 
L 274.036364 185.645208 
L 274.916593 183.936 
L 275.485296 181.248 
L 275.559766 178.56 
L 275.281341 175.872 
L 274.657007 173.184 
L 274.036364 171.580396 
L 273.562659 170.496 
L 271.709016 167.808 
L 271.150545 167.255939 
L 268.264727 166.241383 
L 265.378909 167.620054 
L 265.227285 167.808 
L 263.71218 170.496 
L 262.808272 173.184 
L 262.493091 175.091788 
L 262.386713 175.872 
L 262.353514 178.56 
L 262.493091 179.790065 
L 262.704695 181.248 
L 263.600742 183.936 
L 265.254799 186.624 
L 265.378909 186.76205 
" style="fill:none;stroke:#00aaaa;stroke-width:1.5;"/>
    <path clip-path="url(#p467beebb3e)" d="M 89.344 146.406672 
L 89.107865 146.304 
L 86.458182 145.274735 
L 84.635215 143.616 
L 83.572364 142.643785 
L 82.335119 140.928 
L 80.717742 138.24 
L 80.686545 138.158755 
L 79.811324 135.552 
L 79.830105 132.864 
L 80.686545 130.78266 
L 80.955029 130.176 
L 83.29591 127.488 
L 83.572364 127.245832 
L 86.458182 125.475333 
L 89.23115 124.8 
L 89.344 124.772676 
L 89.629905 124.8 
L 92.229818 125.063324 
L 95.115636 126.141461 
L 97.578271 127.488 
L 98.001455 127.803768 
L 100.887273 130.132746 
L 100.940208 130.176 
L 102.724591 132.864 
L 103.093034 135.552 
L 102.32627 138.24 
L 100.887273 140.299393 
L 100.403181 140.928 
L 98.001455 143.261314 
L 97.557193 143.616 
L 95.115636 145.365154 
L 92.490529 146.304 
L 92.229818 146.388821 
L 89.344 146.406672 
" style="fill:none;stroke:#00aaaa;stroke-width:1.5;"/>
    <path clip-path="url(#p467beebb3e)" d="M 308.666182 138.320029 
L 311.552 139.236082 
L 314.437818 139.768271 
L 317.323636 139.986205 
L 320.209455 139.872132 
L 323.095273 139.273816 
L 325.138552 138.24 
L 325.981091 137.527298 
L 327.260771 135.552 
L 327.267898 132.864 
L 325.981091 130.904519 
L 325.343238 130.176 
L 323.095273 128.984074 
L 320.209455 128.117795 
L 317.323636 127.731395 
L 314.437818 127.723561 
L 311.552 128.072344 
L 308.666182 128.82019 
L 305.780364 130.089148 
L 305.642947 130.176 
L 303.772308 132.864 
L 304.578894 135.552 
L 305.780364 136.627533 
L 308.49665 138.24 
L 308.666182 138.320029 
" style="fill:none;stroke:#00aaaa;stroke-width:1.5;"/>
   </g>
   <g id="LineCollection_5">
    <path clip-path="url(#p467beebb3e)" d="M 343.296 181.874372 
L 342.399985 183.936 
L 341.177367 186.624 
L 340.410182 188.161009 
L 339.65314 189.312 
L 337.698211 192 
L 337.524364 192.216816 
L 335.192381 194.688 
L 334.638545 195.211885 
L 332.071757 197.376 
L 331.752727 197.606662 
L 328.866909 199.492935 
L 327.907779 200.064 
L 325.981091 200.945079 
L 323.095273 202.132596 
L 321.533774 202.752 
L 320.209455 203.127309 
L 317.323636 203.963786 
L 314.437818 204.853186 
L 312.760625 205.44 
L 311.552 205.764544 
L 308.666182 206.695777 
L 305.780364 207.883578 
L 305.302154 208.128 
L 302.894545 209.307528 
L 300.658912 210.816 
L 300.008727 211.361078 
L 298.046612 213.504 
L 297.122909 215.273105 
L 296.708736 216.192 
L 296.215394 218.88 
L 296.219965 221.568 
L 296.41289 224.256 
L 296.373983 226.944 
L 295.677944 229.632 
L 294.237091 232.182582 
L 294.15019 232.32 
L 291.928417 235.008 
L 291.351273 235.603803 
L 289.155502 237.696 
L 288.465455 238.299204 
L 285.733166 240.384 
L 285.579636 240.492515 
L 282.693818 242.076301 
L 279.808 242.888741 
L 276.922182 243.02865 
L 274.036364 242.860283 
L 271.150545 242.788355 
L 268.682873 243.072 
L 268.264727 243.120244 
L 265.378909 244.175356 
L 263.087041 245.76 
L 262.493091 246.283139 
L 260.651431 248.448 
L 259.607273 250.129606 
L 258.98696 251.136 
L 257.690937 253.824 
L 256.721455 256.420204 
L 256.679131 256.512 
L 255.624886 259.2 
L 254.709473 261.888 
L 253.859192 264.576 
L 253.835636 264.655382 
L 252.74892 267.264 
L 251.567989 269.952 
L 250.949818 271.249528 
L 250.06845 272.64 
L 248.171596 275.328 
L 248.064 275.466747 
L 245.718059 278.016 
L 245.178182 278.539942 
L 242.671532 280.704 
L 242.292364 280.986675 
L 239.406545 282.92707 
L 238.651368 283.392 
L 236.520727 284.409825 
L 233.634909 285.63918 
L 232.568723 286.08 
L 230.749091 286.619057 
L 227.863273 287.477845 
L 224.977455 288.385916 
L 223.902378 288.768 
L 222.091636 289.257208 
L 219.205818 290.190102 
L 216.32 291.372835 
L 216.154458 291.456 
L 213.434182 292.738807 
L 211.272455 294.144 
L 210.548364 294.711033 
L 208.488262 296.832 
L 207.662545 298.269211 
L 207.05057 299.52 
L 206.487565 302.208 
L 206.45368 304.896 
L 206.645476 307.584 
" style="fill:none;stroke:#008eb8;stroke-width:1.5;"/>
    <path clip-path="url(#p467beebb3e)" d="M 57.6 162.682869 
L 57.85901 162.432 
L 60.485818 159.852851 
L 60.596644 159.744 
L 63.25542 157.056 
L 63.371636 156.935017 
L 65.722676 154.368 
L 66.257455 153.731488 
L 67.808499 151.68 
L 69.143273 149.444711 
L 69.365084 148.992 
L 70.314692 146.304 
L 70.765831 143.616 
L 70.866374 140.928 
L 70.849359 138.24 
L 70.971213 135.552 
L 71.460383 132.864 
L 72.029091 131.412588 
L 72.500889 130.176 
L 74.240172 127.488 
L 74.914909 126.704892 
L 76.636524 124.8 
L 77.800727 123.673035 
L 79.52652 122.112 
L 80.686545 121.117271 
L 83.06056 119.424 
L 83.572364 119.076751 
L 86.458182 117.661523 
L 89.344 116.893886 
L 90.888706 116.736 
L 92.229818 116.577485 
L 95.115636 116.533306 
L 98.001455 116.54361 
L 100.887273 116.360771 
L 103.773091 115.784765 
L 106.658909 114.71325 
L 107.964174 114.048 
L 109.544727 113.09832 
L 111.988912 111.36 
L 112.430545 111.018819 
L 115.284471 108.672 
L 115.316364 108.64482 
L 118.202182 106.137328 
L 118.374581 105.984 
L 121.088 103.57539 
L 121.399439 103.296 
L 123.973818 100.995699 
L 124.405078 100.608 
L 126.859636 98.405742 
L 127.397719 97.92 
L 129.745455 95.796749 
L 130.364979 95.232 
L 132.631273 93.15389 
L 133.290349 92.544 
L 135.517091 90.465631 
L 136.164923 89.856 
L 138.402909 87.73092 
L 138.992759 87.168 
L 141.288727 84.960353 
L 141.78785 84.48 
L 144.174545 82.169518 
L 144.565551 81.792 
L 147.060364 79.367317 
L 147.332378 79.104 
L 149.946182 76.541775 
L 150.074552 76.416 
L 152.744837 73.728 
L 152.832 73.637962 
L 155.239601 71.04 
L 155.717818 70.482106 
L 157.373324 68.352 
L 158.603636 66.394804 
L 158.98458 65.664 
L 159.996042 62.976 
L 160.497025 60.288 
L 160.624337 57.6 
L 160.606444 54.912 
L 160.703105 52.224 
L 161.147008 49.536 
L 161.489455 48.605268 
L 162.11514 46.848 
L 163.786333 44.16 
L 164.375273 43.457147 
L 166.121209 41.472 
" style="fill:none;stroke:#008eb8;stroke-width:1.5;"/>
    <path clip-path="url(#p467beebb3e)" d="M 265.378909 305.304408 
L 263.590333 304.896 
L 262.493091 304.564951 
L 259.607273 302.880216 
L 258.634549 302.208 
L 256.721455 299.593455 
L 256.663338 299.52 
L 256.376058 296.832 
L 256.721455 296.040789 
L 257.591868 294.144 
L 259.607273 291.967644 
L 260.236829 291.456 
L 262.493091 289.923894 
L 265.378909 289.237815 
L 268.264727 289.969214 
L 270.003532 291.456 
L 271.150545 292.483284 
L 272.235416 294.144 
L 273.359824 296.832 
L 273.397321 299.52 
L 272.091433 302.208 
L 271.150545 303.19145 
L 268.446387 304.896 
L 268.264727 304.985774 
L 265.378909 305.304408 
" style="fill:none;stroke:#008eb8;stroke-width:1.5;"/>
   </g>
   <g id="LineCollection_6">
    <path clip-path="url(#p467beebb3e)" d="M 343.296 227.658952 
L 340.410182 227.615268 
L 337.524364 227.890696 
L 334.638545 228.60008 
L 332.477887 229.632 
L 331.752727 230.041406 
L 328.897652 232.32 
L 328.866909 232.345001 
L 326.042969 235.008 
L 325.981091 235.063962 
L 323.265034 237.696 
L 323.095273 237.852993 
L 320.448788 240.384 
L 320.209455 240.604927 
L 317.583222 243.072 
L 317.323636 243.310274 
L 314.683693 245.76 
L 314.437818 245.985164 
L 311.771426 248.448 
L 311.552 248.649565 
L 308.865174 251.136 
L 308.666182 251.320233 
L 305.976167 253.824 
L 305.780364 254.007092 
L 303.105665 256.512 
L 302.894545 256.711116 
L 300.245026 259.2 
L 300.008727 259.423824 
L 297.377633 261.888 
L 297.122909 262.128992 
L 294.482374 264.576 
L 294.237091 264.80684 
L 291.539894 267.264 
L 291.351273 267.440848 
L 288.55029 269.952 
L 288.465455 270.032643 
L 285.593504 272.64 
L 285.579636 272.654255 
L 282.972498 275.328 
L 282.693818 275.70693 
L 281.199904 278.016 
L 280.294161 280.704 
L 279.893421 283.392 
L 279.861078 286.08 
L 280.140887 288.768 
L 280.631313 291.456 
L 281.121447 294.144 
L 281.329242 296.832 
L 280.98547 299.52 
L 279.870805 302.208 
L 279.808 302.298196 
L 277.989957 304.896 
L 276.922182 306.027448 
L 275.336838 307.584 
" style="fill:none;stroke:#0071c6;stroke-width:1.5;"/>
    <path clip-path="url(#p467beebb3e)" d="M 57.6 138.746418 
L 58.108925 138.24 
L 60.230454 135.552 
L 60.485818 135.051587 
L 61.473452 132.864 
L 62.236191 130.176 
L 62.839477 127.488 
L 63.371636 125.530551 
L 63.601996 124.8 
L 64.8248 122.112 
L 66.257455 120.001148 
L 66.704247 119.424 
L 69.143273 116.771545 
L 69.179122 116.736 
L 72.029091 114.153596 
L 72.158274 114.048 
L 74.914909 112.014934 
L 76.035581 111.36 
L 77.800727 110.467143 
L 80.686545 109.490629 
L 83.572364 108.876154 
L 84.551919 108.672 
L 86.458182 108.298011 
L 89.344 107.463074 
L 92.229818 106.091759 
L 92.396937 105.984 
L 95.115636 103.76369 
L 95.59223 103.296 
L 97.7226 100.608 
L 98.001455 100.1588 
L 99.498236 97.92 
L 100.887273 95.32198 
L 100.945687 95.232 
L 102.506289 92.544 
L 103.773091 90.114356 
L 103.945889 89.856 
L 105.663033 87.168 
L 106.658909 85.5838 
L 107.517285 84.48 
L 109.544727 81.888123 
L 109.631261 81.792 
L 112.076634 79.104 
L 112.430545 78.724321 
L 114.751976 76.416 
L 115.316364 75.871601 
L 117.635787 73.728 
L 118.202182 73.229212 
L 120.759611 71.04 
L 121.088 70.782263 
L 123.973818 68.568646 
L 124.259009 68.352 
L 126.859636 66.66251 
L 128.401205 65.664 
L 129.745455 64.970586 
L 132.631273 63.443892 
L 133.4678 62.976 
L 135.517091 62.083739 
L 138.402909 60.66955 
L 139.0846 60.288 
L 141.288727 59.252382 
L 144.055858 57.6 
L 144.174545 57.531554 
L 147.060364 55.411438 
L 147.582174 54.912 
L 149.819216 52.224 
L 149.946182 51.992994 
L 151.126421 49.536 
L 151.926733 46.848 
L 152.534746 44.16 
L 152.832 42.962328 
L 153.25905 41.472 
" style="fill:none;stroke:#0071c6;stroke-width:1.5;"/>
    <path clip-path="url(#p467beebb3e)" d="M 227.863273 302.222223 
L 230.749091 302.348254 
L 231.090003 302.208 
L 230.749091 301.976601 
L 227.863273 302.172711 
L 227.829882 302.208 
L 227.863273 302.222223 
" style="fill:none;stroke:#0071c6;stroke-width:1.5;"/>
    <path clip-path="url(#p467beebb3e)" d="M 320.209455 218.938259 
L 320.403658 218.88 
L 320.209455 218.711456 
L 319.604917 218.88 
L 320.209455 218.938259 
" style="fill:none;stroke:#0071c6;stroke-width:1.5;"/>
   </g>
   <g id="LineCollection_7">
    <path clip-path="url(#p467beebb3e)" d="M 343.296 245.23927 
L 342.765143 245.76 
L 340.410182 248.39188 
L 340.355056 248.448 
L 337.889586 251.136 
L 337.524364 251.56095 
L 335.350518 253.824 
L 334.638545 254.590336 
L 332.706648 256.512 
L 331.752727 257.477004 
L 329.96304 259.2 
L 328.866909 260.265114 
L 327.148755 261.888 
L 325.981091 262.996596 
L 324.293323 264.576 
L 323.095273 265.698553 
L 321.415238 267.264 
L 320.209455 268.383019 
L 318.519242 269.952 
L 317.323636 271.048507 
L 315.595789 272.64 
L 314.437818 273.680603 
L 312.619561 275.328 
L 311.552 276.253572 
L 309.548701 278.016 
L 308.666182 278.738686 
L 306.333687 280.704 
L 305.780364 281.124007 
L 302.957962 283.392 
L 302.894545 283.436838 
L 300.008727 285.67632 
L 299.545179 286.08 
L 297.122909 288.058113 
L 296.396088 288.768 
L 294.237091 290.959409 
L 293.847116 291.456 
L 292.020831 294.144 
L 291.351273 295.426711 
L 290.741967 296.832 
L 289.736398 299.52 
L 288.691923 302.208 
L 288.465455 302.694194 
L 287.356818 304.896 
L 285.579636 307.439157 
L 285.467904 307.584 
" style="fill:none;stroke:#0055d4;stroke-width:1.5;"/>
    <path clip-path="url(#p467beebb3e)" d="M 57.6 102.074724 
L 59.207795 100.608 
L 60.485818 99.448663 
L 62.232901 97.92 
L 63.371636 96.924103 
L 65.454012 95.232 
L 66.257455 94.575676 
L 69.143273 92.550369 
L 69.156133 92.544 
L 72.029091 91.081719 
L 74.914909 90.579699 
L 77.800727 91.449228 
L 79.204478 92.544 
L 80.686545 93.511694 
L 83.06964 95.232 
L 83.572364 95.513738 
L 86.458182 96.164144 
L 88.641113 95.232 
L 89.344 94.856582 
L 90.921088 92.544 
L 92.229818 89.8916 
L 92.242684 89.856 
L 92.922317 87.168 
L 93.35378 84.48 
L 93.558482 81.792 
L 93.528729 79.104 
L 93.215547 76.416 
L 92.487073 73.728 
L 92.229818 73.145884 
L 90.956056 71.04 
L 89.344 69.291141 
L 88.459697 68.352 
L 86.458182 66.341266 
L 85.998427 65.664 
L 84.30947 62.976 
L 83.572364 61.792508 
L 82.911636 60.288 
L 81.711393 57.6 
L 80.686545 54.93472 
L 80.678994 54.912 
L 80.119577 52.224 
L 80.326984 49.536 
L 80.686545 48.72224 
L 81.565825 46.848 
L 83.572364 44.533824 
L 84.015321 44.16 
L 86.458182 42.546628 
L 89.344 41.628707 
L 92.229818 41.619132 
L 95.115636 42.267022 
L 98.001455 43.26241 
L 100.381892 44.16 
L 100.887273 44.416713 
L 103.773091 45.77614 
L 105.86049 46.848 
L 106.658909 47.497138 
L 109.220291 49.536 
L 109.544727 49.865057 
L 112.430545 52.056339 
L 112.735508 52.224 
L 115.316364 53.246377 
L 118.202182 53.827524 
L 121.088 54.057812 
L 123.973818 54.032982 
L 126.859636 53.786929 
L 129.745455 53.319569 
L 132.631273 52.604275 
L 133.7176 52.224 
L 135.517091 51.267208 
L 137.907056 49.536 
L 138.402909 48.143317 
L 138.783138 46.848 
L 138.402909 45.793302 
L 137.641956 44.16 
L 135.517091 41.578792 
L 135.405858 41.472 
" style="fill:none;stroke:#0055d4;stroke-width:1.5;"/>
   </g>
   <g id="LineCollection_8">
    <path clip-path="url(#p467beebb3e)" d="M 343.296 269.401481 
L 342.965568 269.952 
L 341.279858 272.64 
L 340.410182 273.899997 
L 339.2312 275.328 
L 337.524364 277.244737 
L 336.762105 278.016 
L 334.638545 280.027808 
L 333.874372 280.704 
L 331.752727 282.415627 
L 330.453709 283.392 
L 328.866909 284.408359 
L 325.981091 286.077872 
L 325.977284 286.08 
L 323.095273 287.332554 
L 320.209455 288.496192 
L 319.551757 288.768 
L 317.323636 289.479616 
L 314.437818 290.456064 
L 311.79622 291.456 
L 311.552 291.536557 
L 308.666182 292.661231 
L 305.780364 294.064127 
L 305.644246 294.144 
L 302.894545 295.975885 
L 301.876258 296.832 
L 300.008727 299.206222 
L 299.797226 299.52 
L 298.901911 302.208 
L 298.661749 304.896 
L 298.63643 307.584 
" style="fill:none;stroke:#0038e3;stroke-width:1.5;"/>
    <path clip-path="url(#p467beebb3e)" d="M 57.6 77.64463 
L 58.877951 76.416 
L 60.485818 74.859765 
L 61.642622 73.728 
L 63.371636 72.002817 
L 64.309115 71.04 
L 66.257455 68.93293 
L 66.759681 68.352 
L 68.83206 65.664 
L 69.143273 65.188235 
L 70.358425 62.976 
L 71.334181 60.288 
L 71.846199 57.6 
L 72.029091 55.788018 
L 72.098685 54.912 
L 72.38612 52.224 
L 73.008536 49.536 
L 74.217101 46.848 
L 74.914909 45.850957 
L 76.107972 44.16 
L 77.800727 42.340604 
L 78.646575 41.472 
" style="fill:none;stroke:#0038e3;stroke-width:1.5;"/>
   </g>
   <g id="LineCollection_9">
    <path clip-path="url(#p467beebb3e)" d="M 343.296 305.033451 
L 342.656987 304.896 
L 340.410182 304.25456 
L 337.524364 303.407077 
L 334.638545 302.320633 
L 334.370569 302.208 
L 331.752727 301.002002 
L 328.866909 299.724098 
L 328.26859 299.52 
L 325.981091 299.057594 
L 323.095273 298.863918 
L 320.209455 299.052962 
L 317.891537 299.52 
L 317.323636 299.832283 
L 315.024602 302.208 
L 316.363022 304.896 
L 317.323636 306.039955 
L 318.733087 307.584 
" style="fill:none;stroke:#001cf1;stroke-width:1.5;"/>
    <path clip-path="url(#p467beebb3e)" d="M 57.6 58.890166 
L 59.014716 57.6 
L 60.485818 56.15764 
L 61.511729 54.912 
L 63.27391 52.224 
L 63.371636 52.03526 
L 64.542318 49.536 
L 65.675681 46.848 
L 66.257455 45.590666 
L 66.971562 44.16 
L 68.70679 41.472 
" style="fill:none;stroke:#001cf1;stroke-width:1.5;"/>
   </g>
   <g id="LineCollection_10"/>
   <g id="patch_3">
    <path d="M 57.6 307.584 
L 57.6 41.472 
" style="fill:none;stroke:#000000;stroke-linecap:square;stroke-linejoin:miter;stroke-width:0.8;"/>
   </g>
   <g id="patch_4">
    <path d="M 343.296 307.584 
L 343.296 41.472 
" style="fill:none;stroke:#000000;stroke-linecap:square;stroke-linejoin:miter;stroke-width:0.8;"/>
   </g>
   <g id="patch_5">
    <path d="M 57.6 307.584 
L 343.296 307.584 
" style="fill:none;stroke:#000000;stroke-linecap:square;stroke-linejoin:miter;stroke-width:0.8;"/>
   </g>
   <g id="patch_6">
    <path d="M 57.6 41.472 
L 343.296 41.472 
" style="fill:none;stroke:#000000;stroke-linecap:square;stroke-linejoin:miter;stroke-width:0.8;"/>
   </g>
  </g>
  <g id="axes_2">
   <g id="patch_7">
    <path clip-path="url(#pbdefeb305a)" d="M 361.152 307.584 
L 361.152 278.016 
L 361.152 71.04 
L 361.152 41.472 
L 374.4576 41.472 
L 374.4576 71.04 
L 374.4576 278.016 
L 374.4576 307.584 
z
" style="fill:#ffffff;stroke:#ffffff;stroke-linejoin:miter;stroke-width:0.01;"/>
   </g>
   <g id="matplotlib.axis_3"/>
   <g id="matplotlib.axis_4">
    <g id="ytick_10">
     <g id="line2d_19">
      <defs>
       <path d="M 0 0 
L 3.5 0 
" id="ma70964361c" style="stroke:#000000;stroke-width:0.8;"/>
      </defs>
      <g>
       <use style="stroke:#000000;stroke-width:0.8;" x="374.4576" xlink:href="#ma70964361c" y="307.584"/>
      </g>
     </g>
     <g id="text_19">
      <!-- −120 -->
      <g transform="translate(381.4576 311.383219)scale(0.1 -0.1)">
       <use xlink:href="#DejaVuSans-8722"/>
       <use x="83.789062" xlink:href="#DejaVuSans-49"/>
       <use x="147.412109" xlink:href="#DejaVuSans-50"/>
       <use x="211.035156" xlink:href="#DejaVuSans-48"/>
      </g>
     </g>
    </g>
    <g id="ytick_11">
     <g id="line2d_20">
      <g>
       <use style="stroke:#000000;stroke-width:0.8;" x="374.4576" xlink:href="#ma70964361c" y="278.016"/>
      </g>
     </g>
     <g id="text_20">
      <!-- −60 -->
      <defs>
       <path d="M 33.015625 40.375 
Q 26.375 40.375 22.484375 35.828125 
Q 18.609375 31.296875 18.609375 23.390625 
Q 18.609375 15.53125 22.484375 10.953125 
Q 26.375 6.390625 33.015625 6.390625 
Q 39.65625 6.390625 43.53125 10.953125 
Q 47.40625 15.53125 47.40625 23.390625 
Q 47.40625 31.296875 43.53125 35.828125 
Q 39.65625 40.375 33.015625 40.375 
z
M 52.59375 71.296875 
L 52.59375 62.3125 
Q 48.875 64.0625 45.09375 64.984375 
Q 41.3125 65.921875 37.59375 65.921875 
Q 27.828125 65.921875 22.671875 59.328125 
Q 17.53125 52.734375 16.796875 39.40625 
Q 19.671875 43.65625 24.015625 45.921875 
Q 28.375 48.1875 33.59375 48.1875 
Q 44.578125 48.1875 50.953125 41.515625 
Q 57.328125 34.859375 57.328125 23.390625 
Q 57.328125 12.15625 50.6875 5.359375 
Q 44.046875 -1.421875 33.015625 -1.421875 
Q 20.359375 -1.421875 13.671875 8.265625 
Q 6.984375 17.96875 6.984375 36.375 
Q 6.984375 53.65625 15.1875 63.9375 
Q 23.390625 74.21875 37.203125 74.21875 
Q 40.921875 74.21875 44.703125 73.484375 
Q 48.484375 72.75 52.59375 71.296875 
z
" id="DejaVuSans-54"/>
      </defs>
      <g transform="translate(381.4576 281.815219)scale(0.1 -0.1)">
       <use xlink:href="#DejaVuSans-8722"/>
       <use x="83.789062" xlink:href="#DejaVuSans-54"/>
       <use x="147.412109" xlink:href="#DejaVuSans-48"/>
      </g>
     </g>
    </g>
    <g id="ytick_12">
     <g id="line2d_21">
      <g>
       <use style="stroke:#000000;stroke-width:0.8;" x="374.4576" xlink:href="#ma70964361c" y="248.448"/>
      </g>
     </g>
     <g id="text_21">
      <!-- 0 -->
      <g transform="translate(381.4576 252.247219)scale(0.1 -0.1)">
       <use xlink:href="#DejaVuSans-48"/>
      </g>
     </g>
    </g>
    <g id="ytick_13">
     <g id="line2d_22">
      <g>
       <use style="stroke:#000000;stroke-width:0.8;" x="374.4576" xlink:href="#ma70964361c" y="218.88"/>
      </g>
     </g>
     <g id="text_22">
      <!-- 60 -->
      <g transform="translate(381.4576 222.679219)scale(0.1 -0.1)">
       <use xlink:href="#DejaVuSans-54"/>
       <use x="63.623047" xlink:href="#DejaVuSans-48"/>
      </g>
     </g>
    </g>
    <g id="ytick_14">
     <g id="line2d_23">
      <g>
       <use style="stroke:#000000;stroke-width:0.8;" x="374.4576" xlink:href="#ma70964361c" y="189.312"/>
      </g>
     </g>
     <g id="text_23">
      <!-- 120 -->
      <g transform="translate(381.4576 193.111219)scale(0.1 -0.1)">
       <use xlink:href="#DejaVuSans-49"/>
       <use x="63.623047" xlink:href="#DejaVuSans-50"/>
       <use x="127.246094" xlink:href="#DejaVuSans-48"/>
      </g>
     </g>
    </g>
    <g id="ytick_15">
     <g id="line2d_24">
      <g>
       <use style="stroke:#000000;stroke-width:0.8;" x="374.4576" xlink:href="#ma70964361c" y="159.744"/>
      </g>
     </g>
     <g id="text_24">
      <!-- 180 -->
      <defs>
       <path d="M 31.78125 34.625 
Q 24.75 34.625 20.71875 30.859375 
Q 16.703125 27.09375 16.703125 20.515625 
Q 16.703125 13.921875 20.71875 10.15625 
Q 24.75 6.390625 31.78125 6.390625 
Q 38.8125 6.390625 42.859375 10.171875 
Q 46.921875 13.96875 46.921875 20.515625 
Q 46.921875 27.09375 42.890625 30.859375 
Q 38.875 34.625 31.78125 34.625 
z
M 21.921875 38.8125 
Q 15.578125 40.375 12.03125 44.71875 
Q 8.5 49.078125 8.5 55.328125 
Q 8.5 64.0625 14.71875 69.140625 
Q 20.953125 74.21875 31.78125 74.21875 
Q 42.671875 74.21875 48.875 69.140625 
Q 55.078125 64.0625 55.078125 55.328125 
Q 55.078125 49.078125 51.53125 44.71875 
Q 48 40.375 41.703125 38.8125 
Q 48.828125 37.15625 52.796875 32.3125 
Q 56.78125 27.484375 56.78125 20.515625 
Q 56.78125 9.90625 50.3125 4.234375 
Q 43.84375 -1.421875 31.78125 -1.421875 
Q 19.734375 -1.421875 13.25 4.234375 
Q 6.78125 9.90625 6.78125 20.515625 
Q 6.78125 27.484375 10.78125 32.3125 
Q 14.796875 37.15625 21.921875 38.8125 
z
M 18.3125 54.390625 
Q 18.3125 48.734375 21.84375 45.5625 
Q 25.390625 42.390625 31.78125 42.390625 
Q 38.140625 42.390625 41.71875 45.5625 
Q 45.3125 48.734375 45.3125 54.390625 
Q 45.3125 60.0625 41.71875 63.234375 
Q 38.140625 66.40625 31.78125 66.40625 
Q 25.390625 66.40625 21.84375 63.234375 
Q 18.3125 60.0625 18.3125 54.390625 
z
" id="DejaVuSans-56"/>
      </defs>
      <g transform="translate(381.4576 163.543219)scale(0.1 -0.1)">
       <use xlink:href="#DejaVuSans-49"/>
       <use x="63.623047" xlink:href="#DejaVuSans-56"/>
       <use x="127.246094" xlink:href="#DejaVuSans-48"/>
      </g>
     </g>
    </g>
    <g id="ytick_16">
     <g id="line2d_25">
      <g>
       <use style="stroke:#000000;stroke-width:0.8;" x="374.4576" xlink:href="#ma70964361c" y="130.176"/>
      </g>
     </g>
     <g id="text_25">
      <!-- 240 -->
      <defs>
       <path d="M 37.796875 64.3125 
L 12.890625 25.390625 
L 37.796875 25.390625 
z
M 35.203125 72.90625 
L 47.609375 72.90625 
L 47.609375 25.390625 
L 58.015625 25.390625 
L 58.015625 17.1875 
L 47.609375 17.1875 
L 47.609375 0 
L 37.796875 0 
L 37.796875 17.1875 
L 4.890625 17.1875 
L 4.890625 26.703125 
z
" id="DejaVuSans-52"/>
      </defs>
      <g transform="translate(381.4576 133.975219)scale(0.1 -0.1)">
       <use xlink:href="#DejaVuSans-50"/>
       <use x="63.623047" xlink:href="#DejaVuSans-52"/>
       <use x="127.246094" xlink:href="#DejaVuSans-48"/>
      </g>
     </g>
    </g>
    <g id="ytick_17">
     <g id="line2d_26">
      <g>
       <use style="stroke:#000000;stroke-width:0.8;" x="374.4576" xlink:href="#ma70964361c" y="100.608"/>
      </g>
     </g>
     <g id="text_26">
      <!-- 300 -->
      <defs>
       <path d="M 40.578125 39.3125 
Q 47.65625 37.796875 51.625 33 
Q 55.609375 28.21875 55.609375 21.1875 
Q 55.609375 10.40625 48.1875 4.484375 
Q 40.765625 -1.421875 27.09375 -1.421875 
Q 22.515625 -1.421875 17.65625 -0.515625 
Q 12.796875 0.390625 7.625 2.203125 
L 7.625 11.71875 
Q 11.71875 9.328125 16.59375 8.109375 
Q 21.484375 6.890625 26.8125 6.890625 
Q 36.078125 6.890625 40.9375 10.546875 
Q 45.796875 14.203125 45.796875 21.1875 
Q 45.796875 27.640625 41.28125 31.265625 
Q 36.765625 34.90625 28.71875 34.90625 
L 20.21875 34.90625 
L 20.21875 43.015625 
L 29.109375 43.015625 
Q 36.375 43.015625 40.234375 45.921875 
Q 44.09375 48.828125 44.09375 54.296875 
Q 44.09375 59.90625 40.109375 62.90625 
Q 36.140625 65.921875 28.71875 65.921875 
Q 24.65625 65.921875 20.015625 65.03125 
Q 15.375 64.15625 9.8125 62.3125 
L 9.8125 71.09375 
Q 15.4375 72.65625 20.34375 73.4375 
Q 25.25 74.21875 29.59375 74.21875 
Q 40.828125 74.21875 47.359375 69.109375 
Q 53.90625 64.015625 53.90625 55.328125 
Q 53.90625 49.265625 50.4375 45.09375 
Q 46.96875 40.921875 40.578125 39.3125 
z
" id="DejaVuSans-51"/>
      </defs>
      <g transform="translate(381.4576 104.407219)scale(0.1 -0.1)">
       <use xlink:href="#DejaVuSans-51"/>
       <use x="63.623047" xlink:href="#DejaVuSans-48"/>
       <use x="127.246094" xlink:href="#DejaVuSans-48"/>
      </g>
     </g>
    </g>
    <g id="ytick_18">
     <g id="line2d_27">
      <g>
       <use style="stroke:#000000;stroke-width:0.8;" x="374.4576" xlink:href="#ma70964361c" y="71.04"/>
      </g>
     </g>
     <g id="text_27">
      <!-- 360 -->
      <g transform="translate(381.4576 74.839219)scale(0.1 -0.1)">
       <use xlink:href="#DejaVuSans-51"/>
       <use x="63.623047" xlink:href="#DejaVuSans-54"/>
       <use x="127.246094" xlink:href="#DejaVuSans-48"/>
      </g>
     </g>
    </g>
    <g id="ytick_19">
     <g id="line2d_28">
      <g>
       <use style="stroke:#000000;stroke-width:0.8;" x="374.4576" xlink:href="#ma70964361c" y="41.472"/>
      </g>
     </g>
     <g id="text_28">
      <!-- 420 -->
      <g transform="translate(381.4576 45.271219)scale(0.1 -0.1)">
       <use xlink:href="#DejaVuSans-52"/>
       <use x="63.623047" xlink:href="#DejaVuSans-50"/>
       <use x="127.246094" xlink:href="#DejaVuSans-48"/>
      </g>
     </g>
    </g>
   </g>
   <g id="LineCollection_11">
    <path clip-path="url(#pbdefeb305a)" d="M 361.152 307.584 
L 374.4576 307.584 
" style="fill:none;stroke:#00ff80;stroke-width:1.5;"/>
    <path clip-path="url(#pbdefeb305a)" d="M 361.152 278.016 
L 374.4576 278.016 
" style="fill:none;stroke:#00e38e;stroke-width:1.5;"/>
    <path clip-path="url(#pbdefeb305a)" d="M 361.152 248.448 
L 374.4576 248.448 
" style="fill:none;stroke:#00c79c;stroke-width:1.5;"/>
    <path clip-path="url(#pbdefeb305a)" d="M 361.152 218.88 
L 374.4576 218.88 
" style="fill:none;stroke:#00aaaa;stroke-width:1.5;"/>
    <path clip-path="url(#pbdefeb305a)" d="M 361.152 189.312 
L 374.4576 189.312 
" style="fill:none;stroke:#008eb8;stroke-width:1.5;"/>
    <path clip-path="url(#pbdefeb305a)" d="M 361.152 159.744 
L 374.4576 159.744 
" style="fill:none;stroke:#0071c6;stroke-width:1.5;"/>
    <path clip-path="url(#pbdefeb305a)" d="M 361.152 130.176 
L 374.4576 130.176 
" style="fill:none;stroke:#0055d4;stroke-width:1.5;"/>
    <path clip-path="url(#pbdefeb305a)" d="M 361.152 100.608 
L 374.4576 100.608 
" style="fill:none;stroke:#0038e3;stroke-width:1.5;"/>
    <path clip-path="url(#pbdefeb305a)" d="M 361.152 71.04 
L 374.4576 71.04 
" style="fill:none;stroke:#001cf1;stroke-width:1.5;"/>
    <path clip-path="url(#pbdefeb305a)" d="M 361.152 41.472 
L 374.4576 41.472 
" style="fill:none;stroke:#0000ff;stroke-width:1.5;"/>
   </g>
   <g id="patch_8">
    <path d="M 361.152 307.584 
L 361.152 278.016 
L 361.152 71.04 
L 361.152 41.472 
L 374.4576 41.472 
L 374.4576 71.04 
L 374.4576 278.016 
L 374.4576 307.584 
z
" style="fill:none;stroke:#000000;stroke-linejoin:miter;stroke-width:0.8;"/>
   </g>
  </g>
 </g>
 <defs>
  <clipPath id="p467beebb3e">
   <rect height="266.112" width="285.696" x="57.6" y="41.472"/>
  </clipPath>
  <clipPath id="pbdefeb305a">
   <rect height="266.112" width="13.3056" x="361.152" y="41.472"/>
  </clipPath>
 </defs>
</svg>
