<?xml version="1.0" encoding="UTF-8"?>
<svg xmlns="http://www.w3.org/2000/svg" xmlns:xlink="http://www.w3.org/1999/xlink" width="300pt" height="300pt" viewBox="0 0 300 300" version="1.1">
<g id="surface1">
<rect x="0" y="0" width="300" height="300" style="fill:rgb(100%,100%,100%);fill-opacity:1;stroke:none;"/>
<path style="fill:none;stroke-width:1;stroke-linecap:butt;stroke-linejoin:miter;stroke:rgb(26.666667%,26.666667%,26.666667%);stroke-opacity:1;stroke-miterlimit:10;" d="M 201.441406 245.367188 L 181.621094 126.929688 "/>
<path style="fill:none;stroke-width:1;stroke-linecap:butt;stroke-linejoin:miter;stroke:rgb(26.666667%,26.666667%,26.666667%);stroke-opacity:1;stroke-miterlimit:10;" d="M 201.441406 245.367188 L 110.136719 215.746094 "/>
<path style="fill:none;stroke-width:1;stroke-linecap:butt;stroke-linejoin:miter;stroke:rgb(26.666667%,26.666667%,26.666667%);stroke-opacity:1;stroke-miterlimit:10;" d="M 201.441406 245.367188 L 178.089844 163.796875 "/>
<path style="fill:none;stroke-width:1;stroke-linecap:butt;stroke-linejoin:miter;stroke:rgb(26.666667%,26.666667%,26.666667%);stroke-opacity:1;stroke-miterlimit:10;" d="M 201.441406 245.367188 L 116.753906 265.257813 "/>
<path style="fill:none;stroke-width:1;stroke-linecap:butt;stroke-linejoin:miter;stroke:rgb(26.666667%,26.666667%,26.666667%);stroke-opacity:1;stroke-miterlimit:10;" d="M 201.441406 245.367188 L 134.917969 145.847656 "/>
<path style="fill:none;stroke-width:1;stroke-linecap:butt;stroke-linejoin:miter;stroke:rgb(26.666667%,26.666667%,26.666667%);stroke-opacity:1;stroke-miterlimit:10;" d="M 201.441406 245.367188 L 280 280 "/>
<path style="fill:none;stroke-width:1;stroke-linecap:butt;stroke-linejoin:miter;stroke:rgb(26.666667%,26.666667%,26.666667%);stroke-opacity:1;stroke-miterlimit:10;" d="M 181.621094 126.929688 L 110.136719 215.746094 "/>
<path style="fill:none;stroke-width:1;stroke-linecap:butt;stroke-linejoin:miter;stroke:rgb(26.666667%,26.666667%,26.666667%);stroke-opacity:1;stroke-miterlimit:10;" d="M 181.621094 126.929688 L 180.675781 268.175781 "/>
<path style="fill:none;stroke-width:1;stroke-linecap:butt;stroke-linejoin:miter;stroke:rgb(26.666667%,26.666667%,26.666667%);stroke-opacity:1;stroke-miterlimit:10;" d="M 181.621094 126.929688 L 116.753906 265.257813 "/>
<path style="fill:none;stroke-width:1;stroke-linecap:butt;stroke-linejoin:miter;stroke:rgb(26.666667%,26.666667%,26.666667%);stroke-opacity:1;stroke-miterlimit:10;" d="M 181.621094 126.929688 L 124.375 20 "/>
<path style="fill:none;stroke-width:1;stroke-linecap:butt;stroke-linejoin:miter;stroke:rgb(26.666667%,26.666667%,26.666667%);stroke-opacity:1;stroke-miterlimit:10;" d="M 181.621094 126.929688 L 272.371094 187.265625 "/>
<path style="fill:none;stroke-width:1;stroke-linecap:butt;stroke-linejoin:miter;stroke:rgb(26.666667%,26.666667%,26.666667%);stroke-opacity:1;stroke-miterlimit:10;" d="M 181.621094 126.929688 L 73.03125 92.300781 "/>
<path style="fill:none;stroke-width:1;stroke-linecap:butt;stroke-linejoin:miter;stroke:rgb(26.666667%,26.666667%,26.666667%);stroke-opacity:1;stroke-miterlimit:10;" d="M 181.621094 126.929688 L 270.199219 113.214844 "/>
<path style="fill:none;stroke-width:1;stroke-linecap:butt;stroke-linejoin:miter;stroke:rgb(26.666667%,26.666667%,26.666667%);stroke-opacity:1;stroke-miterlimit:10;" d="M 110.136719 215.746094 L 178.089844 163.796875 "/>
<path style="fill:none;stroke-width:1;stroke-linecap:butt;stroke-linejoin:miter;stroke:rgb(26.666667%,26.666667%,26.666667%);stroke-opacity:1;stroke-miterlimit:10;" d="M 110.136719 215.746094 L 52.214844 257.007813 "/>
<path style="fill:none;stroke-width:1;stroke-linecap:butt;stroke-linejoin:miter;stroke:rgb(26.666667%,26.666667%,26.666667%);stroke-opacity:1;stroke-miterlimit:10;" d="M 110.136719 215.746094 L 42.917969 166.328125 "/>
<path style="fill:none;stroke-width:1;stroke-linecap:butt;stroke-linejoin:miter;stroke:rgb(26.666667%,26.666667%,26.666667%);stroke-opacity:1;stroke-miterlimit:10;" d="M 110.136719 215.746094 L 134.917969 145.847656 "/>
<path style="fill:none;stroke-width:1;stroke-linecap:butt;stroke-linejoin:miter;stroke:rgb(26.666667%,26.666667%,26.666667%);stroke-opacity:1;stroke-miterlimit:10;" d="M 180.675781 268.175781 L 178.089844 163.796875 "/>
<path style="fill:none;stroke-width:1;stroke-linecap:butt;stroke-linejoin:miter;stroke:rgb(26.666667%,26.666667%,26.666667%);stroke-opacity:1;stroke-miterlimit:10;" d="M 180.675781 268.175781 L 116.753906 265.257813 "/>
<path style="fill:none;stroke-width:1;stroke-linecap:butt;stroke-linejoin:miter;stroke:rgb(26.666667%,26.666667%,26.666667%);stroke-opacity:1;stroke-miterlimit:10;" d="M 180.675781 268.175781 L 52.214844 257.007813 "/>
<path style="fill:none;stroke-width:1;stroke-linecap:butt;stroke-linejoin:miter;stroke:rgb(26.666667%,26.666667%,26.666667%);stroke-opacity:1;stroke-miterlimit:10;" d="M 180.675781 268.175781 L 272.371094 187.265625 "/>
<path style="fill:none;stroke-width:1;stroke-linecap:butt;stroke-linejoin:miter;stroke:rgb(26.666667%,26.666667%,26.666667%);stroke-opacity:1;stroke-miterlimit:10;" d="M 180.675781 268.175781 L 134.917969 145.847656 "/>
<path style="fill:none;stroke-width:1;stroke-linecap:butt;stroke-linejoin:miter;stroke:rgb(26.666667%,26.666667%,26.666667%);stroke-opacity:1;stroke-miterlimit:10;" d="M 180.675781 268.175781 L 280 280 "/>
<path style="fill:none;stroke-width:1;stroke-linecap:butt;stroke-linejoin:miter;stroke:rgb(26.666667%,26.666667%,26.666667%);stroke-opacity:1;stroke-miterlimit:10;" d="M 178.089844 163.796875 L 42.917969 166.328125 "/>
<path style="fill:none;stroke-width:1;stroke-linecap:butt;stroke-linejoin:miter;stroke:rgb(26.666667%,26.666667%,26.666667%);stroke-opacity:1;stroke-miterlimit:10;" d="M 178.089844 163.796875 L 270.199219 113.214844 "/>
<path style="fill:none;stroke-width:1;stroke-linecap:butt;stroke-linejoin:miter;stroke:rgb(26.666667%,26.666667%,26.666667%);stroke-opacity:1;stroke-miterlimit:10;" d="M 116.753906 265.257813 L 42.917969 166.328125 "/>
<path style="fill:none;stroke-width:1;stroke-linecap:butt;stroke-linejoin:miter;stroke:rgb(26.666667%,26.666667%,26.666667%);stroke-opacity:1;stroke-miterlimit:10;" d="M 116.753906 265.257813 L 134.917969 145.847656 "/>
<path style="fill:none;stroke-width:1;stroke-linecap:butt;stroke-linejoin:miter;stroke:rgb(26.666667%,26.666667%,26.666667%);stroke-opacity:1;stroke-miterlimit:10;" d="M 124.375 20 L 134.917969 145.847656 "/>
<path style="fill:none;stroke-width:1;stroke-linecap:butt;stroke-linejoin:miter;stroke:rgb(26.666667%,26.666667%,26.666667%);stroke-opacity:1;stroke-miterlimit:10;" d="M 124.375 20 L 73.03125 92.300781 "/>
<path style="fill:none;stroke-width:1;stroke-linecap:butt;stroke-linejoin:miter;stroke:rgb(26.666667%,26.666667%,26.666667%);stroke-opacity:1;stroke-miterlimit:10;" d="M 124.375 20 L 20 32.429688 "/>
<path style="fill:none;stroke-width:1;stroke-linecap:butt;stroke-linejoin:miter;stroke:rgb(26.666667%,26.666667%,26.666667%);stroke-opacity:1;stroke-miterlimit:10;" d="M 52.214844 257.007813 L 42.917969 166.328125 "/>
<path style="fill:none;stroke-width:1;stroke-linecap:butt;stroke-linejoin:miter;stroke:rgb(26.666667%,26.666667%,26.666667%);stroke-opacity:1;stroke-miterlimit:10;" d="M 52.214844 257.007813 L 73.03125 92.300781 "/>
<path style="fill:none;stroke-width:1;stroke-linecap:butt;stroke-linejoin:miter;stroke:rgb(26.666667%,26.666667%,26.666667%);stroke-opacity:1;stroke-miterlimit:10;" d="M 272.371094 187.265625 L 270.199219 113.214844 "/>
<path style="fill:none;stroke-width:1;stroke-linecap:butt;stroke-linejoin:miter;stroke:rgb(26.666667%,26.666667%,26.666667%);stroke-opacity:1;stroke-miterlimit:10;" d="M 42.917969 166.328125 L 73.03125 92.300781 "/>
<path style="fill:none;stroke-width:1;stroke-linecap:butt;stroke-linejoin:miter;stroke:rgb(26.666667%,26.666667%,26.666667%);stroke-opacity:1;stroke-miterlimit:10;" d="M 42.917969 166.328125 L 20 32.429688 "/>
<path style="fill:none;stroke-width:1;stroke-linecap:butt;stroke-linejoin:miter;stroke:rgb(26.666667%,26.666667%,26.666667%);stroke-opacity:1;stroke-miterlimit:10;" d="M 73.03125 92.300781 L 20 32.429688 "/>
<path style="fill:none;stroke-width:1;stroke-linecap:butt;stroke-linejoin:miter;stroke:rgb(26.666667%,26.666667%,26.666667%);stroke-opacity:1;stroke-miterlimit:10;" d="M 270.199219 113.214844 L 280 280 "/>
<path style="fill-rule:nonzero;fill:rgb(100%,0%,0%);fill-opacity:1;stroke-width:1;stroke-linecap:butt;stroke-linejoin:miter;stroke:rgb(0%,0%,0%);stroke-opacity:1;stroke-miterlimit:10;" d="M 211.441406 245.367188 C 211.441406 250.890625 206.960938 255.367188 201.441406 255.367188 C 195.917969 255.367188 191.441406 250.890625 191.441406 245.367188 C 191.441406 239.84375 195.917969 235.367188 201.441406 235.367188 C 206.960938 235.367188 211.441406 239.84375 211.441406 245.367188 "/>
<path style="fill-rule:nonzero;fill:rgb(0%,0%,100%);fill-opacity:1;stroke-width:1;stroke-linecap:butt;stroke-linejoin:miter;stroke:rgb(0%,0%,0%);stroke-opacity:1;stroke-miterlimit:10;" d="M 191.621094 126.929688 C 191.621094 132.453125 187.144531 136.929688 181.621094 136.929688 C 176.097656 136.929688 171.621094 132.453125 171.621094 126.929688 C 171.621094 121.40625 176.097656 116.929688 181.621094 116.929688 C 187.144531 116.929688 191.621094 121.40625 191.621094 126.929688 "/>
<path style="fill-rule:nonzero;fill:rgb(0%,100%,0%);fill-opacity:1;stroke-width:1;stroke-linecap:butt;stroke-linejoin:miter;stroke:rgb(0%,0%,0%);stroke-opacity:1;stroke-miterlimit:10;" d="M 120.136719 215.746094 C 120.136719 221.269531 115.660156 225.746094 110.136719 225.746094 C 104.613281 225.746094 100.136719 221.269531 100.136719 215.746094 C 100.136719 210.222656 104.613281 205.746094 110.136719 205.746094 C 115.660156 205.746094 120.136719 210.222656 120.136719 215.746094 "/>
<path style="fill-rule:nonzero;fill:rgb(100%,0%,0%);fill-opacity:1;stroke-width:1;stroke-linecap:butt;stroke-linejoin:miter;stroke:rgb(0%,0%,0%);stroke-opacity:1;stroke-miterlimit:10;" d="M 190.675781 268.175781 C 190.675781 273.699219 186.199219 278.175781 180.675781 278.175781 C 175.152344 278.175781 170.675781 273.699219 170.675781 268.175781 C 170.675781 262.652344 175.152344 258.175781 180.675781 258.175781 C 186.199219 258.175781 190.675781 262.652344 190.675781 268.175781 "/>
<path style="fill-rule:nonzero;fill:rgb(0%,0%,100%);fill-opacity:1;stroke-width:1;stroke-linecap:butt;stroke-linejoin:miter;stroke:rgb(0%,0%,0%);stroke-opacity:1;stroke-miterlimit:10;" d="M 188.089844 163.796875 C 188.089844 169.316406 183.613281 173.796875 178.089844 173.796875 C 172.566406 173.796875 168.089844 169.316406 168.089844 163.796875 C 168.089844 158.273438 172.566406 153.796875 178.089844 153.796875 C 183.613281 153.796875 188.089844 158.273438 188.089844 163.796875 "/>
<path style="fill-rule:nonzero;fill:rgb(0%,100%,0%);fill-opacity:1;stroke-width:1;stroke-linecap:butt;stroke-linejoin:miter;stroke:rgb(0%,0%,0%);stroke-opacity:1;stroke-miterlimit:10;" d="M 126.753906 265.257813 C 126.753906 270.777344 122.277344 275.257813 116.753906 275.257813 C 111.230469 275.257813 106.753906 270.777344 106.753906 265.257813 C 106.753906 259.734375 111.230469 255.257813 116.753906 255.257813 C 122.277344 255.257813 126.753906 259.734375 126.753906 265.257813 "/>
<path style="fill-rule:nonzero;fill:rgb(100%,0%,0%);fill-opacity:1;stroke-width:1;stroke-linecap:butt;stroke-linejoin:miter;stroke:rgb(0%,0%,0%);stroke-opacity:1;stroke-miterlimit:10;" d="M 134.375 20 C 134.375 25.523438 129.898438 30 124.375 30 C 118.855469 30 114.375 25.523438 114.375 20 C 114.375 14.476563 118.855469 10 124.375 10 C 129.898438 10 134.375 14.476563 134.375 20 "/>
<path style="fill-rule:nonzero;fill:rgb(0%,0%,100%);fill-opacity:1;stroke-width:1;stroke-linecap:butt;stroke-linejoin:miter;stroke:rgb(0%,0%,0%);stroke-opacity:1;stroke-miterlimit:10;" d="M 62.214844 257.007813 C 62.214844 262.53125 57.738281 267.007813 52.214844 267.007813 C 46.691406 267.007813 42.214844 262.53125 42.214844 257.007813 C 42.214844 251.484375 46.691406 247.007813 52.214844 247.007813 C 57.738281 247.007813 62.214844 251.484375 62.214844 257.007813 "/>
<path style="fill-rule:nonzero;fill:rgb(0%,100%,0%);fill-opacity:1;stroke-width:1;stroke-linecap:butt;stroke-linejoin:miter;stroke:rgb(0%,0%,0%);stroke-opacity:1;stroke-miterlimit:10;" d="M 282.371094 187.265625 C 282.371094 192.789063 277.894531 197.265625 272.371094 197.265625 C 266.847656 197.265625 262.371094 192.789063 262.371094 187.265625 C 262.371094 181.742188 266.847656 177.265625 272.371094 177.265625 C 277.894531 177.265625 282.371094 181.742188 282.371094 187.265625 "/>
<path style="fill-rule:nonzero;fill:rgb(100%,0%,0%);fill-opacity:1;stroke-width:1;stroke-linecap:butt;stroke-linejoin:miter;stroke:rgb(0%,0%,0%);stroke-opacity:1;stroke-miterlimit:10;" d="M 52.917969 166.328125 C 52.917969 171.851563 48.441406 176.328125 42.917969 176.328125 C 37.394531 176.328125 32.917969 171.851563 32.917969 166.328125 C 32.917969 160.804688 37.394531 156.328125 42.917969 156.328125 C 48.441406 156.328125 52.917969 160.804688 52.917969 166.328125 "/>
<path style="fill-rule:nonzero;fill:rgb(0%,0%,100%);fill-opacity:1;stroke-width:1;stroke-linecap:butt;stroke-linejoin:miter;stroke:rgb(0%,0%,0%);stroke-opacity:1;stroke-miterlimit:10;" d="M 144.917969 145.847656 C 144.917969 151.371094 140.441406 155.847656 134.917969 155.847656 C 129.398438 155.847656 124.917969 151.371094 124.917969 145.847656 C 124.917969 140.324219 129.398438 135.847656 134.917969 135.847656 C 140.441406 135.847656 144.917969 140.324219 144.917969 145.847656 "/>
<path style="fill-rule:nonzero;fill:rgb(0%,100%,0%);fill-opacity:1;stroke-width:1;stroke-linecap:butt;stroke-linejoin:miter;stroke:rgb(0%,0%,0%);stroke-opacity:1;stroke-miterlimit:10;" d="M 83.03125 92.300781 C 83.03125 97.824219 78.554688 102.300781 73.03125 102.300781 C 67.507813 102.300781 63.03125 97.824219 63.03125 92.300781 C 63.03125 86.777344 67.507813 82.300781 73.03125 82.300781 C 78.554688 82.300781 83.03125 86.777344 83.03125 92.300781 "/>
<path style="fill-rule:nonzero;fill:rgb(100%,0%,0%);fill-opacity:1;stroke-width:1;stroke-linecap:butt;stroke-linejoin:miter;stroke:rgb(0%,0%,0%);stroke-opacity:1;stroke-miterlimit:10;" d="M 280.199219 113.214844 C 280.199219 118.734375 275.722656 123.214844 270.199219 123.214844 C 264.675781 123.214844 260.199219 118.734375 260.199219 113.214844 C 260.199219 107.691406 264.675781 103.214844 270.199219 103.214844 C 275.722656 103.214844 280.199219 107.691406 280.199219 113.214844 "/>
<path style="fill-rule:nonzero;fill:rgb(0%,0%,100%);fill-opacity:1;stroke-width:1;stroke-linecap:butt;stroke-linejoin:miter;stroke:rgb(0%,0%,0%);stroke-opacity:1;stroke-miterlimit:10;" d="M 30 32.429688 C 30 37.953125 25.523438 42.429688 20 42.429688 C 14.476563 42.429688 10 37.953125 10 32.429688 C 10 26.90625 14.476563 22.429688 20 22.429688 C 25.523438 22.429688 30 26.90625 30 32.429688 "/>
<path style="fill-rule:nonzero;fill:rgb(0%,0%,100%);fill-opacity:1;stroke-width:1;stroke-linecap:butt;stroke-linejoin:miter;stroke:rgb(0%,0%,0%);stroke-opacity:1;stroke-miterlimit:10;" d="M 290 280 C 290 285.523438 285.523438 290 280 290 C 274.476563 290 270 285.523438 270 280 C 270 274.476563 274.476563 270 280 270 C 285.523438 270 290 274.476563 290 280 "/>
</g>
</svg>
