<?xml version="1.0" encoding="UTF-8"?>
<svg xmlns="http://www.w3.org/2000/svg" xmlns:xlink="http://www.w3.org/1999/xlink" width="300pt" height="300pt" viewBox="0 0 300 300" version="1.1">
<g id="surface1">
<rect x="0" y="0" width="300" height="300" style="fill:rgb(100%,100%,100%);fill-opacity:1;stroke:none;"/>
<path style="fill:none;stroke-width:1;stroke-linecap:butt;stroke-linejoin:miter;stroke:rgb(26.666667%,26.666667%,26.666667%);stroke-opacity:1;stroke-miterlimit:10;" d="M 280 116.03125 L 146.355469 190.019531 "/>
<path style="fill:none;stroke-width:1;stroke-linecap:butt;stroke-linejoin:miter;stroke:rgb(26.666667%,26.666667%,26.666667%);stroke-opacity:1;stroke-miterlimit:10;" d="M 280 116.03125 L 155.660156 20 "/>
<path style="fill:none;stroke-width:1;stroke-linecap:butt;stroke-linejoin:miter;stroke:rgb(26.666667%,26.666667%,26.666667%);stroke-opacity:1;stroke-miterlimit:10;" d="M 20 280 L 146.355469 190.019531 "/>
<path style="fill:none;stroke-width:1;stroke-linecap:butt;stroke-linejoin:miter;stroke:rgb(26.666667%,26.666667%,26.666667%);stroke-opacity:1;stroke-miterlimit:10;" d="M 20 280 L 20.847656 105.019531 "/>
<path style="fill:none;stroke-width:1;stroke-linecap:butt;stroke-linejoin:miter;stroke:rgb(26.666667%,26.666667%,26.666667%);stroke-opacity:1;stroke-miterlimit:10;" d="M 146.355469 190.019531 L 20.847656 105.019531 "/>
<path style="fill:none;stroke-width:1;stroke-linecap:butt;stroke-linejoin:miter;stroke:rgb(26.666667%,26.666667%,26.666667%);stroke-opacity:1;stroke-miterlimit:10;" d="M 146.355469 190.019531 L 155.660156 20 "/>
<path style="fill:none;stroke-width:1;stroke-linecap:butt;stroke-linejoin:miter;stroke:rgb(26.666667%,26.666667%,26.666667%);stroke-opacity:1;stroke-miterlimit:10;" d="M 20.847656 105.019531 L 155.660156 20 "/>
<path style="fill-rule:nonzero;fill:rgb(100%,0%,0%);fill-opacity:1;stroke-width:1;stroke-linecap:butt;stroke-linejoin:miter;stroke:rgb(0%,0%,0%);stroke-opacity:1;stroke-miterlimit:10;" d="M 290 116.03125 C 290 121.554688 285.523438 126.03125 280 126.03125 C 274.476563 126.03125 270 121.554688 270 116.03125 C 270 110.507813 274.476563 106.03125 280 106.03125 C 285.523438 106.03125 290 110.507813 290 116.03125 "/>
<path style="fill-rule:nonzero;fill:rgb(0%,100%,0%);fill-opacity:1;stroke-width:1;stroke-linecap:butt;stroke-linejoin:miter;stroke:rgb(0%,0%,0%);stroke-opacity:1;stroke-miterlimit:10;" d="M 30 280 C 30 285.523438 25.523438 290 20 290 C 14.476563 290 10 285.523438 10 280 C 10 274.476563 14.476563 270 20 270 C 25.523438 270 30 274.476563 30 280 "/>
<path style="fill-rule:nonzero;fill:rgb(0%,0%,100%);fill-opacity:1;stroke-width:1;stroke-linecap:butt;stroke-linejoin:miter;stroke:rgb(0%,0%,0%);stroke-opacity:1;stroke-miterlimit:10;" d="M 156.355469 190.019531 C 156.355469 195.542969 151.878906 200.019531 146.355469 200.019531 C 140.832031 200.019531 136.355469 195.542969 136.355469 190.019531 C 136.355469 184.496094 140.832031 180.019531 146.355469 180.019531 C 151.878906 180.019531 156.355469 184.496094 156.355469 190.019531 "/>
<path style="fill-rule:nonzero;fill:rgb(100%,0%,0%);fill-opacity:1;stroke-width:1;stroke-linecap:butt;stroke-linejoin:miter;stroke:rgb(0%,0%,0%);stroke-opacity:1;stroke-miterlimit:10;" d="M 30.847656 105.019531 C 30.847656 110.539063 26.371094 115.019531 20.847656 115.019531 C 15.324219 115.019531 10.847656 110.539063 10.847656 105.019531 C 10.847656 99.496094 15.324219 95.019531 20.847656 95.019531 C 26.371094 95.019531 30.847656 99.496094 30.847656 105.019531 "/>
<path style="fill-rule:nonzero;fill:rgb(0%,100%,0%);fill-opacity:1;stroke-width:1;stroke-linecap:butt;stroke-linejoin:miter;stroke:rgb(0%,0%,0%);stroke-opacity:1;stroke-miterlimit:10;" d="M 165.660156 20 C 165.660156 25.523438 161.183594 30 155.660156 30 C 150.136719 30 145.660156 25.523438 145.660156 20 C 145.660156 14.476563 150.136719 10 155.660156 10 C 161.183594 10 165.660156 14.476563 165.660156 20 "/>
</g>
</svg>
