<?xml version="1.0" encoding="utf-8" standalone="no"?>
<!DOCTYPE svg PUBLIC "-//W3C//DTD SVG 1.1//EN"
  "http://www.w3.org/Graphics/SVG/1.1/DTD/svg11.dtd">
<!-- Created with matplotlib (https://matplotlib.org/) -->
<svg height="288pt" version="1.1" viewBox="0 0 432 288" width="432pt" xmlns="http://www.w3.org/2000/svg" xmlns:xlink="http://www.w3.org/1999/xlink">
 <defs>
  <style type="text/css">
*{stroke-linecap:butt;stroke-linejoin:round;}
  </style>
 </defs>
 <g id="figure_1">
  <g id="patch_1">
   <path d="M 0 288 
L 432 288 
L 432 0 
L 0 0 
z
" style="fill:#ffffff;"/>
  </g>
  <g id="axes_1">
   <g id="patch_2">
    <path d="M 54 107.04 
L 388.8 107.04 
L 388.8 34.56 
L 54 34.56 
z
" style="fill:#ffffff;"/>
   </g>
   <g id="line2d_1">
    <path clip-path="url(#p83c18d167d)" d="M 69.218182 37.87112 
L 71.264358 38.045917 
L 72.287447 38.064297 
L 72.798991 38.217951 
L 76.891344 38.327125 
L 77.402888 38.517961 
L 79.449064 38.603364 
L 80.983697 38.841996 
L 83.029873 38.964104 
L 83.541417 39.198009 
L 84.564505 39.285404 
L 85.07605 39.445219 
L 87.122226 39.480719 
L 87.63377 39.669067 
L 90.191491 39.95159 
L 91.214579 40.114371 
L 92.237667 40.18574 
L 93.260755 40.275788 
L 93.7723 40.681653 
L 95.818476 40.681653 
L 96.33002 40.926167 
L 97.353108 40.926167 
L 98.376197 41.230631 
L 99.399285 41.237489 
L 99.910829 41.370115 
L 101.957006 41.428327 
L 104.514726 41.727003 
L 105.02627 41.909682 
L 107.072447 41.937001 
L 107.583991 42.029841 
L 108.095535 42.304339 
L 110.141711 42.319055 
L 110.653256 42.529363 
L 112.187888 42.541158 
L 112.699432 42.927389 
L 115.257153 42.928625 
L 115.768697 43.068109 
L 116.791785 43.177468 
L 117.303329 43.372877 
L 117.814873 43.372877 
L 118.326417 43.830946 
L 119.86105 43.848682 
L 120.372594 44.194789 
L 121.395682 44.242815 
L 122.41877 44.932177 
L 122.930314 44.94569 
L 123.441859 45.254874 
L 124.976491 45.411111 
L 125.488035 45.791319 
L 127.022667 45.843054 
L 127.534212 45.979609 
L 128.045756 46.233618 
L 128.5573 47.07492 
L 130.603476 47.07492 
L 131.11502 47.332603 
L 132.138109 47.355881 
L 132.649653 48.069376 
L 133.161197 48.069376 
L 133.672741 48.579234 
L 135.207373 48.619344 
L 136.230462 48.619344 
L 137.765094 48.879774 
L 138.276638 49.41753 
L 139.299726 49.41753 
L 139.81127 49.582718 
L 140.834359 49.614193 
L 141.345903 49.714533 
L 141.857447 49.953022 
L 142.880535 50.156428 
L 143.392079 50.693254 
L 143.903623 50.693254 
L 144.926712 51.172831 
L 146.461344 51.172831 
L 146.972888 51.809525 
L 150.042153 51.852516 
L 150.553697 52.258857 
L 151.576785 52.320795 
L 153.111418 52.763342 
L 153.622962 53.20183 
L 154.134506 53.465756 
L 156.692226 53.465756 
L 157.203771 53.862821 
L 158.226859 53.885364 
L 159.249947 54.450413 
L 163.853844 55.255181 
L 164.365388 55.778389 
L 165.900021 55.778389 
L 166.923109 55.982883 
L 167.434653 55.982883 
L 169.992374 56.639502 
L 170.503918 56.966172 
L 171.015462 57.047253 
L 171.527006 57.263773 
L 172.03855 57.263773 
L 172.550094 57.377882 
L 174.084727 57.395894 
L 174.596271 58.047719 
L 177.153991 58.047719 
L 178.17708 58.469966 
L 178.688624 58.469966 
L 179.711712 59.011348 
L 180.7348 59.011348 
L 181.246344 59.554719 
L 183.804065 59.620778 
L 184.315609 60.32782 
L 186.87333 60.402958 
L 187.384874 60.61271 
L 188.407962 60.755465 
L 188.919506 60.950858 
L 189.43105 60.950858 
L 190.454138 61.295809 
L 191.988771 61.295809 
L 192.500315 61.518682 
L 193.011859 61.524548 
L 193.523403 61.870467 
L 195.058036 61.870467 
L 195.56958 62.398908 
L 196.081124 62.607788 
L 197.104212 62.607788 
L 197.615756 62.756664 
L 198.1273 62.756664 
L 200.173477 63.422531 
L 201.196565 63.523651 
L 201.708109 63.749219 
L 203.754286 63.778545 
L 204.26583 64.234185 
L 205.800462 64.561105 
L 207.335094 64.663708 
L 207.846639 64.734522 
L 208.358183 65.188228 
L 209.381271 65.241019 
L 211.427447 65.664262 
L 212.450536 66.16237 
L 213.473624 66.16237 
L 214.496712 66.624625 
L 215.008256 66.790417 
L 216.031344 66.827565 
L 216.542889 67.176259 
L 217.054433 67.176259 
L 219.100609 67.775548 
L 219.612153 68.368483 
L 221.146786 68.368483 
L 221.65833 68.615058 
L 222.681418 68.615058 
L 223.192962 68.787423 
L 224.727595 68.846552 
L 225.239139 69.095433 
L 225.750683 69.099982 
L 226.262227 69.355216 
L 227.285315 69.376028 
L 227.796859 69.679587 
L 229.331492 69.911384 
L 229.843036 69.911384 
L 230.35458 70.513575 
L 231.889212 70.567617 
L 234.446933 71.020694 
L 234.958477 71.312334 
L 235.981565 71.312334 
L 236.493109 71.641477 
L 237.516198 71.641477 
L 238.539286 72.360546 
L 241.097006 72.408227 
L 241.60855 73.025605 
L 242.120095 73.025605 
L 242.631639 73.433097 
L 244.166271 73.433097 
L 245.189359 73.815297 
L 245.700903 73.815297 
L 246.212448 74.102073 
L 247.235536 74.102073 
L 248.770168 74.475493 
L 249.793256 74.493224 
L 250.304801 74.790625 
L 250.816345 74.814489 
L 252.350977 75.239489 
L 253.374065 75.331784 
L 254.397154 75.73793 
L 254.908698 76.241465 
L 256.954874 76.347844 
L 257.977962 76.821295 
L 259.512595 77.112641 
L 260.024139 77.404379 
L 261.558771 77.498638 
L 262.070315 77.575053 
L 263.604948 78.237215 
L 264.116492 78.237215 
L 264.628036 78.587564 
L 265.13958 78.587564 
L 266.162668 79.023083 
L 267.185757 79.078552 
L 268.208845 79.56508 
L 268.720389 79.588015 
L 269.231933 79.873594 
L 270.766565 79.909453 
L 271.278109 80.227916 
L 272.301198 80.267791 
L 272.812742 80.729366 
L 274.347374 80.729366 
L 276.393551 81.225142 
L 276.905095 81.322318 
L 277.416639 81.53943 
L 278.439727 81.631481 
L 278.951271 81.902358 
L 279.462815 81.957224 
L 279.97436 82.217214 
L 282.020536 82.36098 
L 282.53208 82.75717 
L 284.066713 82.886219 
L 284.578257 83.143022 
L 285.089801 83.166356 
L 285.601345 83.310307 
L 286.112889 83.855016 
L 289.182154 83.938477 
L 289.693698 84.339845 
L 290.716786 84.339845 
L 291.22833 84.77943 
L 292.762963 84.88815 
L 293.786051 85.103853 
L 294.297595 85.103853 
L 294.809139 85.304888 
L 295.320683 85.304888 
L 295.832227 85.634048 
L 296.855316 85.738341 
L 297.36686 86.067657 
L 298.389948 86.079395 
L 299.413036 86.583464 
L 299.92458 86.583464 
L 300.436124 86.976925 
L 301.459213 86.976925 
L 301.970757 87.279144 
L 302.993845 87.279144 
L 303.505389 87.510867 
L 304.016933 87.543257 
L 306.06311 88.221553 
L 306.574654 88.221553 
L 307.086198 88.586434 
L 308.62083 88.586434 
L 309.132374 88.787386 
L 311.178551 88.817969 
L 311.690095 89.100758 
L 313.224727 89.279874 
L 313.736272 89.607475 
L 314.247816 89.64958 
L 315.270904 90.280149 
L 316.293992 90.280149 
L 316.805536 90.581537 
L 318.340169 90.654901 
L 319.363257 90.915406 
L 319.874801 90.980668 
L 320.897889 91.464702 
L 321.920977 91.476729 
L 322.432522 91.67529 
L 322.944066 91.67529 
L 323.45561 91.962364 
L 324.478698 91.993178 
L 324.990242 92.39649 
L 326.524875 92.752153 
L 327.036419 92.922961 
L 327.547963 92.922961 
L 328.059507 93.117376 
L 328.571051 93.125538 
L 329.082595 93.359178 
L 332.663404 93.950831 
L 334.70958 94.87851 
L 335.221125 94.914525 
L 335.732669 95.139748 
L 336.244213 95.139748 
L 336.755757 95.261127 
L 338.290389 95.32441 
L 339.313478 95.774506 
L 340.336566 96.098026 
L 340.84811 96.098026 
L 341.359654 96.375622 
L 342.382742 96.375622 
L 342.894286 96.543829 
L 343.405831 96.871688 
L 345.452007 97.370464 
L 346.475095 97.403601 
L 348.521272 97.869235 
L 349.032816 98.152658 
L 350.567448 98.353331 
L 351.590536 98.654097 
L 353.636713 99.082516 
L 354.659801 99.55297 
L 355.682889 99.609055 
L 356.705978 99.819007 
L 357.217522 99.819007 
L 357.729066 100.287633 
L 359.263698 100.307989 
L 360.286786 100.763702 
L 361.821419 100.918939 
L 362.332963 101.267738 
L 362.844507 101.267738 
L 363.356051 101.42853 
L 364.379139 101.498563 
L 364.890684 101.978173 
L 365.402228 102.094194 
L 366.93686 102.141677 
L 367.448404 102.476712 
L 367.959948 102.476712 
L 368.471492 102.619471 
L 368.983037 102.619471 
L 369.494581 103.035508 
L 370.517669 103.035508 
L 371.029213 103.150491 
L 371.540757 103.150491 
L 372.052301 103.303451 
L 372.563845 103.303451 
L 373.581818 103.706855 
L 373.581818 103.706855 
" style="fill:none;stroke:#1ac938;stroke-linecap:round;stroke-width:1.2;"/>
   </g>
   <g id="line2d_2">
    <path clip-path="url(#p83c18d167d)" d="M 69.218182 37.854545 
L 71.775902 38.0283 
L 73.822079 38.262009 
L 74.333623 38.262009 
L 74.845167 38.451928 
L 76.891344 38.485254 
L 77.914432 38.728175 
L 80.472152 38.767093 
L 80.983697 39.010903 
L 81.495241 39.131583 
L 82.518329 39.131583 
L 83.029873 39.29931 
L 83.541417 39.29931 
L 84.052961 39.593006 
L 88.145314 40.047566 
L 88.656858 40.289695 
L 89.168403 40.289695 
L 89.679947 40.407453 
L 90.703035 40.505173 
L 91.726123 40.611931 
L 93.7723 40.817562 
L 95.306932 40.925203 
L 95.818476 41.136414 
L 98.376197 41.246524 
L 99.399285 41.483322 
L 100.933917 41.555275 
L 102.980094 41.711789 
L 104.514726 41.825307 
L 106.560903 41.993629 
L 107.583991 42.209345 
L 109.118623 42.551678 
L 109.630167 42.551678 
L 110.653256 43.139378 
L 111.1648 43.139378 
L 113.210976 43.657063 
L 113.72252 44.101125 
L 114.234064 44.167733 
L 114.745609 44.351417 
L 115.257153 44.913408 
L 115.768697 45.061364 
L 116.280241 45.346045 
L 116.791785 45.346045 
L 117.303329 45.906458 
L 117.814873 45.997699 
L 118.837962 47.537089 
L 119.86105 47.537089 
L 120.372594 47.665401 
L 122.41877 47.745606 
L 122.930314 47.857821 
L 123.441859 48.315886 
L 124.976491 48.366521 
L 125.488035 48.50868 
L 125.999579 49.058608 
L 127.022667 49.435595 
L 128.045756 49.435595 
L 130.603476 49.966963 
L 131.11502 50.348215 
L 133.161197 50.502895 
L 133.672741 50.861591 
L 134.695829 50.869141 
L 135.718918 51.652122 
L 137.765094 51.652122 
L 138.788182 51.977283 
L 139.299726 52.171932 
L 140.834359 52.268395 
L 141.345903 52.630077 
L 141.857447 52.630077 
L 144.926712 53.634989 
L 145.438256 53.987732 
L 146.461344 53.987732 
L 150.042153 54.884327 
L 150.553697 55.18532 
L 151.576785 55.269348 
L 152.599873 55.386484 
L 153.111418 55.805458 
L 154.134506 55.805458 
L 155.669138 56.071946 
L 156.692226 56.071946 
L 157.203771 56.416759 
L 157.715315 56.452448 
L 159.249947 56.9859 
L 159.761491 57.100377 
L 160.784579 57.173645 
L 161.296124 57.365503 
L 162.830756 57.474765 
L 164.876932 58.062175 
L 165.388477 58.062175 
L 165.900021 58.196955 
L 166.923109 58.209079 
L 167.434653 58.313326 
L 168.457741 59.077841 
L 169.480829 59.103007 
L 171.527006 59.791707 
L 172.03855 60.090521 
L 172.550094 60.141608 
L 173.061638 60.624888 
L 175.107815 60.674996 
L 175.619359 60.861783 
L 176.130903 61.372614 
L 177.153991 61.438228 
L 178.17708 61.745241 
L 178.688624 62.106988 
L 179.200168 62.168145 
L 179.711712 62.353715 
L 180.223256 62.353715 
L 180.7348 62.492325 
L 181.246344 62.886673 
L 181.757888 62.886673 
L 182.269432 63.009874 
L 182.780977 63.009874 
L 183.292521 63.246644 
L 184.315609 63.312638 
L 184.827153 63.539181 
L 185.850241 63.638692 
L 186.361785 63.864339 
L 186.87333 63.911659 
L 187.384874 64.198514 
L 187.896418 64.295484 
L 188.407962 64.523369 
L 188.919506 64.523369 
L 189.43105 64.762289 
L 189.942594 65.152468 
L 190.454138 65.152468 
L 191.477227 65.264961 
L 192.500315 65.342177 
L 193.011859 65.365543 
L 194.034947 65.75218 
L 194.546491 65.827423 
L 195.56958 66.159388 
L 196.081124 66.237658 
L 196.592668 66.488837 
L 197.104212 66.488837 
L 197.615756 67.073512 
L 198.1273 67.252604 
L 198.638844 67.252604 
L 200.173477 67.712874 
L 200.685021 67.98543 
L 201.708109 68.053145 
L 202.219653 68.220924 
L 202.731197 68.220924 
L 203.242741 68.583633 
L 204.777374 68.589317 
L 207.335094 69.402134 
L 208.869727 69.654166 
L 209.381271 69.989043 
L 210.404359 69.989043 
L 210.915903 70.306009 
L 211.427447 70.470313 
L 212.96208 70.514203 
L 213.473624 70.756499 
L 213.985168 70.846191 
L 215.008256 71.279489 
L 215.5198 71.451332 
L 218.077521 71.536101 
L 218.589065 71.747632 
L 219.100609 71.747632 
L 219.612153 71.898673 
L 220.123697 71.898673 
L 220.635242 72.039157 
L 221.146786 72.514752 
L 223.192962 72.514752 
L 223.704506 72.729242 
L 225.239139 72.976532 
L 225.750683 73.262702 
L 227.285315 73.351496 
L 227.796859 73.43452 
L 228.819947 73.863147 
L 229.843036 74.018214 
L 230.866124 74.144329 
L 231.377668 74.380448 
L 232.9123 74.702787 
L 233.423845 75.192906 
L 234.446933 75.27466 
L 235.470021 75.634796 
L 237.516198 76.154861 
L 238.027742 76.154861 
L 239.562374 76.527013 
L 240.585462 76.658004 
L 241.097006 77.004393 
L 242.120095 77.005837 
L 242.631639 77.36542 
L 243.654727 77.36542 
L 244.166271 77.603427 
L 245.189359 77.603427 
L 245.700903 77.760997 
L 246.212448 78.26123 
L 246.723992 78.313341 
L 247.235536 78.788298 
L 248.770168 78.788298 
L 249.281712 78.950366 
L 250.304801 78.969837 
L 252.350977 79.512352 
L 254.397154 79.997201 
L 254.908698 80.420022 
L 255.420242 80.560004 
L 256.954874 80.592864 
L 257.466418 81.062963 
L 258.489506 81.083196 
L 261.047227 81.505794 
L 261.558771 81.820187 
L 262.581859 82.042863 
L 263.093404 82.042863 
L 264.116492 82.551278 
L 264.628036 82.551278 
L 266.162668 83.065208 
L 267.185757 83.201176 
L 268.208845 83.363624 
L 268.720389 83.577098 
L 269.743477 83.704013 
L 270.255021 84.118351 
L 272.301198 84.337877 
L 273.324286 84.521311 
L 274.347374 84.756779 
L 275.882007 85.061317 
L 276.393551 85.080617 
L 277.928183 85.400712 
L 279.462815 85.652005 
L 281.508992 86.41353 
L 282.020536 86.473589 
L 282.53208 86.696683 
L 283.043624 86.734949 
L 283.555168 86.886839 
L 284.066713 87.172132 
L 284.578257 87.197395 
L 285.601345 87.462 
L 286.112889 87.462 
L 287.135977 87.700782 
L 287.647521 87.745593 
L 288.159065 87.944607 
L 289.182154 88.140645 
L 289.693698 88.398245 
L 290.716786 88.398245 
L 291.22833 88.636289 
L 292.762963 88.768899 
L 293.786051 89.149432 
L 295.832227 89.781915 
L 296.855316 89.851694 
L 297.36686 90.047412 
L 297.878404 90.383043 
L 298.901492 90.563276 
L 299.92458 90.932699 
L 300.436124 91.023783 
L 300.947668 91.303081 
L 302.482301 91.571665 
L 302.993845 91.77881 
L 304.016933 91.857361 
L 304.528477 92.094859 
L 305.040021 92.094859 
L 305.551566 92.308837 
L 306.06311 92.384479 
L 306.574654 92.780816 
L 307.597742 92.797081 
L 308.109286 92.989432 
L 309.132374 93.145769 
L 309.643919 93.301299 
L 310.155463 93.581236 
L 311.178551 93.581236 
L 312.201639 93.904457 
L 312.713183 93.904457 
L 317.31708 95.279993 
L 317.828624 95.279993 
L 319.363257 95.934907 
L 320.897889 96.041113 
L 323.45561 96.708573 
L 324.478698 96.891812 
L 324.990242 97.261017 
L 325.501786 97.463058 
L 326.01333 97.463058 
L 326.524875 97.717902 
L 327.547963 97.830639 
L 328.059507 97.988828 
L 328.571051 98.372423 
L 329.594139 98.372423 
L 330.105683 98.552335 
L 330.617227 98.552335 
L 332.15186 99.122921 
L 332.663404 99.122921 
L 333.174948 99.27891 
L 333.686492 99.628463 
L 334.198036 100.185672 
L 336.244213 100.185672 
L 336.755757 100.342884 
L 337.267301 100.342884 
L 337.778845 100.606237 
L 338.801933 100.66673 
L 339.313478 101.030501 
L 340.336566 101.113562 
L 340.84811 101.12044 
L 341.871198 101.523347 
L 342.894286 102.05482 
L 343.917375 102.05482 
L 344.428919 102.259327 
L 344.940463 102.259327 
L 345.452007 102.463802 
L 345.963551 102.807345 
L 347.498183 102.807345 
L 348.521272 103.103757 
L 349.032816 103.468139 
L 349.54436 103.468139 
L 349.841056 103.745455 
L 349.841056 103.745455 
" style="fill:none;stroke:#e8000b;stroke-linecap:round;stroke-width:1.2;"/>
   </g>
   <g id="matplotlib.axis_1">
    <g id="xtick_1">
     <g id="line2d_3">
      <defs>
       <path d="M 0 0 
L 0 -3 
" id="mb4735a693f" style="stroke:#000000;"/>
      </defs>
      <g>
       <use style="stroke:#000000;" x="68.195094" xlink:href="#mb4735a693f" y="107.04"/>
      </g>
     </g>
     <g id="line2d_4">
      <defs>
       <path d="M 0 0 
L 0 3 
" id="m3f42cd044b" style="stroke:#000000;"/>
      </defs>
      <g>
       <use style="stroke:#000000;" x="68.195094" xlink:href="#m3f42cd044b" y="34.56"/>
      </g>
     </g>
    </g>
    <g id="xtick_2">
     <g id="line2d_5">
      <g>
       <use style="stroke:#000000;" x="119.349506" xlink:href="#mb4735a693f" y="107.04"/>
      </g>
     </g>
     <g id="line2d_6">
      <g>
       <use style="stroke:#000000;" x="119.349506" xlink:href="#m3f42cd044b" y="34.56"/>
      </g>
     </g>
    </g>
    <g id="xtick_3">
     <g id="line2d_7">
      <g>
       <use style="stroke:#000000;" x="170.503918" xlink:href="#mb4735a693f" y="107.04"/>
      </g>
     </g>
     <g id="line2d_8">
      <g>
       <use style="stroke:#000000;" x="170.503918" xlink:href="#m3f42cd044b" y="34.56"/>
      </g>
     </g>
    </g>
    <g id="xtick_4">
     <g id="line2d_9">
      <g>
       <use style="stroke:#000000;" x="221.65833" xlink:href="#mb4735a693f" y="107.04"/>
      </g>
     </g>
     <g id="line2d_10">
      <g>
       <use style="stroke:#000000;" x="221.65833" xlink:href="#m3f42cd044b" y="34.56"/>
      </g>
     </g>
    </g>
    <g id="xtick_5">
     <g id="line2d_11">
      <g>
       <use style="stroke:#000000;" x="272.812742" xlink:href="#mb4735a693f" y="107.04"/>
      </g>
     </g>
     <g id="line2d_12">
      <g>
       <use style="stroke:#000000;" x="272.812742" xlink:href="#m3f42cd044b" y="34.56"/>
      </g>
     </g>
    </g>
    <g id="xtick_6">
     <g id="line2d_13">
      <g>
       <use style="stroke:#000000;" x="323.967154" xlink:href="#mb4735a693f" y="107.04"/>
      </g>
     </g>
     <g id="line2d_14">
      <g>
       <use style="stroke:#000000;" x="323.967154" xlink:href="#m3f42cd044b" y="34.56"/>
      </g>
     </g>
    </g>
    <g id="xtick_7">
     <g id="line2d_15">
      <g>
       <use style="stroke:#000000;" x="375.121566" xlink:href="#mb4735a693f" y="107.04"/>
      </g>
     </g>
     <g id="line2d_16">
      <g>
       <use style="stroke:#000000;" x="375.121566" xlink:href="#m3f42cd044b" y="34.56"/>
      </g>
     </g>
    </g>
   </g>
   <g id="matplotlib.axis_2">
    <g id="ytick_1">
     <g id="line2d_17">
      <defs>
       <path d="M 0 0 
L 3 0 
" id="meeb22d9a5d" style="stroke:#000000;"/>
      </defs>
      <g>
       <use style="stroke:#000000;" x="54" xlink:href="#meeb22d9a5d" y="88.857853"/>
      </g>
     </g>
     <g id="line2d_18">
      <defs>
       <path d="M 0 0 
L -3 0 
" id="mdc0a9dbee9" style="stroke:#000000;"/>
      </defs>
      <g>
       <use style="stroke:#000000;" x="388.8" xlink:href="#mdc0a9dbee9" y="88.857853"/>
      </g>
     </g>
     <g id="text_1">
      <!-- $\mathdefault{10^{-9}}$ -->
      <defs>
       <path d="M 37.25 0 
L 28.46875 0 
L 28.46875 56 
Q 25.296875 52.984375 20.140625 49.953125 
Q 14.984375 46.921875 10.890625 45.40625 
L 10.890625 53.90625 
Q 18.265625 57.375 23.78125 62.296875 
Q 29.296875 67.234375 31.59375 71.875 
L 37.25 71.875 
z
" id="ArialMT-49"/>
       <path d="M 4.15625 35.296875 
Q 4.15625 48 6.765625 55.734375 
Q 9.375 63.484375 14.515625 67.671875 
Q 19.671875 71.875 27.484375 71.875 
Q 33.25 71.875 37.59375 69.546875 
Q 41.9375 67.234375 44.765625 62.859375 
Q 47.609375 58.5 49.21875 52.21875 
Q 50.828125 45.953125 50.828125 35.296875 
Q 50.828125 22.703125 48.234375 14.96875 
Q 45.65625 7.234375 40.5 3 
Q 35.359375 -1.21875 27.484375 -1.21875 
Q 17.140625 -1.21875 11.234375 6.203125 
Q 4.15625 15.140625 4.15625 35.296875 
z
M 13.1875 35.296875 
Q 13.1875 17.671875 17.3125 11.828125 
Q 21.4375 6 27.484375 6 
Q 33.546875 6 37.671875 11.859375 
Q 41.796875 17.71875 41.796875 35.296875 
Q 41.796875 52.984375 37.671875 58.78125 
Q 33.546875 64.59375 27.390625 64.59375 
Q 21.34375 64.59375 17.71875 59.46875 
Q 13.1875 52.9375 13.1875 35.296875 
z
" id="ArialMT-48"/>
       <path d="M 52.828125 31.203125 
L 5.5625 31.203125 
L 5.5625 39.40625 
L 52.828125 39.40625 
z
" id="ArialMT-8722"/>
       <path d="M 5.46875 16.546875 
L 13.921875 17.328125 
Q 14.984375 11.375 18.015625 8.6875 
Q 21.046875 6 25.78125 6 
Q 29.828125 6 32.875 7.859375 
Q 35.9375 9.71875 37.890625 12.8125 
Q 39.84375 15.921875 41.15625 21.1875 
Q 42.484375 26.46875 42.484375 31.9375 
Q 42.484375 32.515625 42.4375 33.6875 
Q 39.796875 29.5 35.234375 26.875 
Q 30.671875 24.265625 25.34375 24.265625 
Q 16.453125 24.265625 10.296875 30.703125 
Q 4.15625 37.15625 4.15625 47.703125 
Q 4.15625 58.59375 10.578125 65.234375 
Q 17 71.875 26.65625 71.875 
Q 33.640625 71.875 39.421875 68.109375 
Q 45.21875 64.359375 48.21875 57.390625 
Q 51.21875 50.4375 51.21875 37.25 
Q 51.21875 23.53125 48.234375 15.40625 
Q 45.265625 7.28125 39.375 3.03125 
Q 33.5 -1.21875 25.59375 -1.21875 
Q 17.1875 -1.21875 11.859375 3.4375 
Q 6.546875 8.109375 5.46875 16.546875 
z
M 41.453125 48.140625 
Q 41.453125 55.71875 37.421875 60.15625 
Q 33.40625 64.59375 27.734375 64.59375 
Q 21.875 64.59375 17.53125 59.8125 
Q 13.1875 55.03125 13.1875 47.40625 
Q 13.1875 40.578125 17.3125 36.296875 
Q 21.4375 32.03125 27.484375 32.03125 
Q 33.59375 32.03125 37.515625 36.296875 
Q 41.453125 40.578125 41.453125 48.140625 
z
" id="ArialMT-57"/>
      </defs>
      <g transform="translate(33.076 93.395353)scale(0.088 -0.088)">
       <use transform="translate(0 0.99375)" xlink:href="#ArialMT-49"/>
       <use transform="translate(55.615234 0.99375)" xlink:href="#ArialMT-48"/>
       <use transform="translate(112.972813 70.6875)scale(0.7)" xlink:href="#ArialMT-8722"/>
       <use transform="translate(153.851719 70.6875)scale(0.7)" xlink:href="#ArialMT-57"/>
      </g>
     </g>
    </g>
    <g id="ytick_2">
     <g id="line2d_19">
      <g>
       <use style="stroke:#000000;" x="54" xlink:href="#meeb22d9a5d" y="69.065297"/>
      </g>
     </g>
     <g id="line2d_20">
      <g>
       <use style="stroke:#000000;" x="388.8" xlink:href="#mdc0a9dbee9" y="69.065297"/>
      </g>
     </g>
     <g id="text_2">
      <!-- $\mathdefault{10^{-5}}$ -->
      <defs>
       <path d="M 4.15625 18.75 
L 13.375 19.53125 
Q 14.40625 12.796875 18.140625 9.390625 
Q 21.875 6 27.15625 6 
Q 33.5 6 37.890625 10.78125 
Q 42.28125 15.578125 42.28125 23.484375 
Q 42.28125 31 38.0625 35.34375 
Q 33.84375 39.703125 27 39.703125 
Q 22.75 39.703125 19.328125 37.765625 
Q 15.921875 35.84375 13.96875 32.765625 
L 5.71875 33.84375 
L 12.640625 70.609375 
L 48.25 70.609375 
L 48.25 62.203125 
L 19.671875 62.203125 
L 15.828125 42.96875 
Q 22.265625 47.46875 29.34375 47.46875 
Q 38.71875 47.46875 45.15625 40.96875 
Q 51.609375 34.46875 51.609375 24.265625 
Q 51.609375 14.546875 45.953125 7.46875 
Q 39.0625 -1.21875 27.15625 -1.21875 
Q 17.390625 -1.21875 11.203125 4.25 
Q 5.03125 9.71875 4.15625 18.75 
z
" id="ArialMT-53"/>
      </defs>
      <g transform="translate(33.076 73.558797)scale(0.088 -0.088)">
       <use transform="translate(0 0.879688)" xlink:href="#ArialMT-49"/>
       <use transform="translate(55.615234 0.879688)" xlink:href="#ArialMT-48"/>
       <use transform="translate(112.972813 70.573438)scale(0.7)" xlink:href="#ArialMT-8722"/>
       <use transform="translate(153.851719 70.573438)scale(0.7)" xlink:href="#ArialMT-53"/>
      </g>
     </g>
    </g>
    <g id="ytick_3">
     <g id="line2d_21">
      <g>
       <use style="stroke:#000000;" x="54" xlink:href="#meeb22d9a5d" y="49.272741"/>
      </g>
     </g>
     <g id="line2d_22">
      <g>
       <use style="stroke:#000000;" x="388.8" xlink:href="#mdc0a9dbee9" y="49.272741"/>
      </g>
     </g>
     <g id="text_3">
      <!-- $\mathdefault{10^{-1}}$ -->
      <g transform="translate(33.076 53.810241)scale(0.088 -0.088)">
       <use transform="translate(0 0.99375)" xlink:href="#ArialMT-49"/>
       <use transform="translate(55.615234 0.99375)" xlink:href="#ArialMT-48"/>
       <use transform="translate(112.972813 70.6875)scale(0.7)" xlink:href="#ArialMT-8722"/>
       <use transform="translate(153.851719 70.6875)scale(0.7)" xlink:href="#ArialMT-49"/>
      </g>
     </g>
    </g>
    <g id="text_4">
     <!-- fitness -->
     <defs>
      <path d="M 8.6875 0 
L 8.6875 45.015625 
L 0.921875 45.015625 
L 0.921875 51.859375 
L 8.6875 51.859375 
L 8.6875 57.375 
Q 8.6875 62.59375 9.625 65.140625 
Q 10.890625 68.5625 14.078125 70.671875 
Q 17.28125 72.796875 23.046875 72.796875 
Q 26.765625 72.796875 31.25 71.921875 
L 29.9375 64.265625 
Q 27.203125 64.75 24.75 64.75 
Q 20.75 64.75 19.09375 63.03125 
Q 17.4375 61.328125 17.4375 56.640625 
L 17.4375 51.859375 
L 27.546875 51.859375 
L 27.546875 45.015625 
L 17.4375 45.015625 
L 17.4375 0 
z
" id="ArialMT-102"/>
      <path d="M 6.640625 61.46875 
L 6.640625 71.578125 
L 15.4375 71.578125 
L 15.4375 61.46875 
z
M 6.640625 0 
L 6.640625 51.859375 
L 15.4375 51.859375 
L 15.4375 0 
z
" id="ArialMT-105"/>
      <path d="M 25.78125 7.859375 
L 27.046875 0.09375 
Q 23.34375 -0.6875 20.40625 -0.6875 
Q 15.625 -0.6875 12.984375 0.828125 
Q 10.359375 2.34375 9.28125 4.8125 
Q 8.203125 7.28125 8.203125 15.1875 
L 8.203125 45.015625 
L 1.765625 45.015625 
L 1.765625 51.859375 
L 8.203125 51.859375 
L 8.203125 64.703125 
L 16.9375 69.96875 
L 16.9375 51.859375 
L 25.78125 51.859375 
L 25.78125 45.015625 
L 16.9375 45.015625 
L 16.9375 14.703125 
Q 16.9375 10.9375 17.40625 9.859375 
Q 17.875 8.796875 18.921875 8.15625 
Q 19.96875 7.515625 21.921875 7.515625 
Q 23.390625 7.515625 25.78125 7.859375 
z
" id="ArialMT-116"/>
      <path d="M 6.59375 0 
L 6.59375 51.859375 
L 14.5 51.859375 
L 14.5 44.484375 
Q 20.21875 53.03125 31 53.03125 
Q 35.6875 53.03125 39.625 51.34375 
Q 43.5625 49.65625 45.515625 46.921875 
Q 47.46875 44.1875 48.25 40.4375 
Q 48.734375 37.984375 48.734375 31.890625 
L 48.734375 0 
L 39.9375 0 
L 39.9375 31.546875 
Q 39.9375 36.921875 38.90625 39.578125 
Q 37.890625 42.234375 35.28125 43.8125 
Q 32.671875 45.40625 29.15625 45.40625 
Q 23.53125 45.40625 19.453125 41.84375 
Q 15.375 38.28125 15.375 28.328125 
L 15.375 0 
z
" id="ArialMT-110"/>
      <path d="M 42.09375 16.703125 
L 51.171875 15.578125 
Q 49.03125 7.625 43.21875 3.21875 
Q 37.40625 -1.171875 28.375 -1.171875 
Q 17 -1.171875 10.328125 5.828125 
Q 3.65625 12.84375 3.65625 25.484375 
Q 3.65625 38.578125 10.390625 45.796875 
Q 17.140625 53.03125 27.875 53.03125 
Q 38.28125 53.03125 44.875 45.953125 
Q 51.46875 38.875 51.46875 26.03125 
Q 51.46875 25.25 51.421875 23.6875 
L 12.75 23.6875 
Q 13.234375 15.140625 17.578125 10.59375 
Q 21.921875 6.0625 28.421875 6.0625 
Q 33.25 6.0625 36.671875 8.59375 
Q 40.09375 11.140625 42.09375 16.703125 
z
M 13.234375 30.90625 
L 42.1875 30.90625 
Q 41.609375 37.453125 38.875 40.71875 
Q 34.671875 45.796875 27.984375 45.796875 
Q 21.921875 45.796875 17.796875 41.75 
Q 13.671875 37.703125 13.234375 30.90625 
z
" id="ArialMT-101"/>
      <path d="M 3.078125 15.484375 
L 11.765625 16.84375 
Q 12.5 11.625 15.84375 8.84375 
Q 19.1875 6.0625 25.203125 6.0625 
Q 31.25 6.0625 34.171875 8.515625 
Q 37.109375 10.984375 37.109375 14.3125 
Q 37.109375 17.28125 34.515625 19 
Q 32.71875 20.171875 25.53125 21.96875 
Q 15.875 24.421875 12.140625 26.203125 
Q 8.40625 27.984375 6.46875 31.125 
Q 4.546875 34.28125 4.546875 38.09375 
Q 4.546875 41.546875 6.125 44.5 
Q 7.71875 47.46875 10.453125 49.421875 
Q 12.5 50.921875 16.03125 51.96875 
Q 19.578125 53.03125 23.640625 53.03125 
Q 29.734375 53.03125 34.34375 51.265625 
Q 38.96875 49.515625 41.15625 46.5 
Q 43.359375 43.5 44.1875 38.484375 
L 35.59375 37.3125 
Q 35.015625 41.3125 32.203125 43.546875 
Q 29.390625 45.796875 24.265625 45.796875 
Q 18.21875 45.796875 15.625 43.796875 
Q 13.03125 41.796875 13.03125 39.109375 
Q 13.03125 37.40625 14.109375 36.03125 
Q 15.1875 34.625 17.484375 33.6875 
Q 18.796875 33.203125 25.25 31.453125 
Q 34.578125 28.953125 38.25 27.359375 
Q 41.9375 25.78125 44.03125 22.75 
Q 46.140625 19.734375 46.140625 15.234375 
Q 46.140625 10.84375 43.578125 6.953125 
Q 41.015625 3.078125 36.171875 0.953125 
Q 31.34375 -1.171875 25.25 -1.171875 
Q 15.140625 -1.171875 9.84375 3.03125 
Q 4.546875 7.234375 3.078125 15.484375 
z
" id="ArialMT-115"/>
     </defs>
     <g transform="translate(27.168 84.672)rotate(-90)scale(0.096 -0.096)">
      <use xlink:href="#ArialMT-102"/>
      <use x="27.783203" xlink:href="#ArialMT-105"/>
      <use x="50" xlink:href="#ArialMT-116"/>
      <use x="77.783203" xlink:href="#ArialMT-110"/>
      <use x="133.398438" xlink:href="#ArialMT-101"/>
      <use x="189.013672" xlink:href="#ArialMT-115"/>
      <use x="239.013672" xlink:href="#ArialMT-115"/>
     </g>
    </g>
   </g>
   <g id="patch_3">
    <path d="M 54 107.04 
L 54 34.56 
" style="fill:none;stroke:#000000;stroke-linecap:square;stroke-linejoin:miter;"/>
   </g>
   <g id="patch_4">
    <path d="M 388.8 107.04 
L 388.8 34.56 
" style="fill:none;stroke:#000000;stroke-linecap:square;stroke-linejoin:miter;"/>
   </g>
   <g id="patch_5">
    <path d="M 54 107.04 
L 388.8 107.04 
" style="fill:none;stroke:#000000;stroke-linecap:square;stroke-linejoin:miter;"/>
   </g>
   <g id="patch_6">
    <path d="M 54 34.56 
L 388.8 34.56 
" style="fill:none;stroke:#000000;stroke-linecap:square;stroke-linejoin:miter;"/>
   </g>
   <g id="legend_1">
    <g id="patch_7">
     <path d="M 343.075125 68.49575 
L 384.64 68.49575 
Q 386.4 68.49575 386.4 66.73575 
L 386.4 42.72 
Q 386.4 40.96 384.64 40.96 
L 343.075125 40.96 
Q 341.315125 40.96 341.315125 42.72 
L 341.315125 66.73575 
Q 341.315125 68.49575 343.075125 68.49575 
z
" style="fill:#4c4c4c;opacity:0.5;stroke:#4c4c4c;stroke-linejoin:miter;stroke-width:0.8;"/>
    </g>
    <g id="patch_8">
     <path d="M 341.075125 66.49575 
L 382.64 66.49575 
Q 384.4 66.49575 384.4 64.73575 
L 384.4 40.72 
Q 384.4 38.96 382.64 38.96 
L 341.075125 38.96 
Q 339.315125 38.96 339.315125 40.72 
L 339.315125 64.73575 
Q 339.315125 66.49575 341.075125 66.49575 
z
" style="fill:#ffffff;stroke:#000000;stroke-linejoin:miter;stroke-width:0.8;"/>
    </g>
    <g id="line2d_23">
     <path d="M 342.835125 45.698875 
L 349.875125 45.698875 
" style="fill:none;stroke:#e8000b;stroke-linecap:round;stroke-width:1.2;"/>
    </g>
    <g id="line2d_24"/>
    <g id="text_5">
     <!-- PEDE -->
     <defs>
      <path d="M 7.71875 0 
L 7.71875 71.578125 
L 34.71875 71.578125 
Q 41.84375 71.578125 45.609375 70.90625 
Q 50.875 70.015625 54.4375 67.546875 
Q 58.015625 65.09375 60.1875 60.640625 
Q 62.359375 56.203125 62.359375 50.875 
Q 62.359375 41.75 56.546875 35.421875 
Q 50.734375 29.109375 35.546875 29.109375 
L 17.1875 29.109375 
L 17.1875 0 
z
M 17.1875 37.546875 
L 35.6875 37.546875 
Q 44.875 37.546875 48.734375 40.96875 
Q 52.59375 44.390625 52.59375 50.59375 
Q 52.59375 55.078125 50.3125 58.265625 
Q 48.046875 61.46875 44.34375 62.5 
Q 41.9375 63.140625 35.5 63.140625 
L 17.1875 63.140625 
z
" id="ArialMT-80"/>
      <path d="M 7.90625 0 
L 7.90625 71.578125 
L 59.671875 71.578125 
L 59.671875 63.140625 
L 17.390625 63.140625 
L 17.390625 41.21875 
L 56.984375 41.21875 
L 56.984375 32.8125 
L 17.390625 32.8125 
L 17.390625 8.453125 
L 61.328125 8.453125 
L 61.328125 0 
z
" id="ArialMT-69"/>
      <path d="M 7.71875 0 
L 7.71875 71.578125 
L 32.375 71.578125 
Q 40.71875 71.578125 45.125 70.5625 
Q 51.265625 69.140625 55.609375 65.4375 
Q 61.28125 60.640625 64.078125 53.1875 
Q 66.890625 45.75 66.890625 36.1875 
Q 66.890625 28.03125 64.984375 21.734375 
Q 63.09375 15.4375 60.109375 11.296875 
Q 57.125 7.171875 53.578125 4.796875 
Q 50.046875 2.4375 45.046875 1.21875 
Q 40.046875 0 33.546875 0 
z
M 17.1875 8.453125 
L 32.46875 8.453125 
Q 39.546875 8.453125 43.578125 9.765625 
Q 47.609375 11.078125 50 13.484375 
Q 53.375 16.84375 55.25 22.53125 
Q 57.125 28.21875 57.125 36.328125 
Q 57.125 47.5625 53.4375 53.59375 
Q 49.75 59.625 44.484375 61.671875 
Q 40.671875 63.140625 32.234375 63.140625 
L 17.1875 63.140625 
z
" id="ArialMT-68"/>
     </defs>
     <g transform="translate(356.915125 48.778875)scale(0.088 -0.088)">
      <use xlink:href="#ArialMT-80"/>
      <use x="66.699219" xlink:href="#ArialMT-69"/>
      <use x="133.398438" xlink:href="#ArialMT-68"/>
      <use x="205.615234" xlink:href="#ArialMT-69"/>
     </g>
    </g>
    <g id="line2d_25">
     <path d="M 342.835125 58.14675 
L 349.875125 58.14675 
" style="fill:none;stroke:#1ac938;stroke-linecap:round;stroke-width:1.2;"/>
    </g>
    <g id="line2d_26"/>
    <g id="text_6">
     <!-- JADE -->
     <defs>
      <path d="M 2.875 20.3125 
L 11.421875 21.484375 
Q 11.765625 13.28125 14.5 10.25 
Q 17.234375 7.234375 22.078125 7.234375 
Q 25.640625 7.234375 28.21875 8.859375 
Q 30.8125 10.5 31.78125 13.296875 
Q 32.765625 16.109375 32.765625 22.265625 
L 32.765625 71.578125 
L 42.234375 71.578125 
L 42.234375 22.796875 
Q 42.234375 13.8125 40.0625 8.875 
Q 37.890625 3.953125 33.171875 1.359375 
Q 28.46875 -1.21875 22.125 -1.21875 
Q 12.703125 -1.21875 7.6875 4.203125 
Q 2.6875 9.625 2.875 20.3125 
z
" id="ArialMT-74"/>
      <path d="M -0.140625 0 
L 27.34375 71.578125 
L 37.546875 71.578125 
L 66.84375 0 
L 56.0625 0 
L 47.703125 21.6875 
L 17.78125 21.6875 
L 9.90625 0 
z
M 20.515625 29.390625 
L 44.78125 29.390625 
L 37.3125 49.21875 
Q 33.890625 58.25 32.234375 64.0625 
Q 30.859375 57.171875 28.375 50.390625 
z
" id="ArialMT-65"/>
     </defs>
     <g transform="translate(356.915125 61.22675)scale(0.088 -0.088)">
      <use xlink:href="#ArialMT-74"/>
      <use x="50" xlink:href="#ArialMT-65"/>
      <use x="116.699219" xlink:href="#ArialMT-68"/>
      <use x="188.916016" xlink:href="#ArialMT-69"/>
     </g>
    </g>
   </g>
  </g>
  <g id="axes_2">
   <g id="patch_9">
    <path d="M 54 179.52 
L 388.8 179.52 
L 388.8 107.04 
L 54 107.04 
z
" style="fill:#ffffff;"/>
   </g>
   <g id="line2d_27">
    <path clip-path="url(#p2ca82a8534)" d="M 69.218182 136.611574 
L 69.729726 130.242345 
L 70.24127 150.656403 
L 70.752814 132.594074 
L 71.264358 138.037107 
L 71.775902 153.210459 
L 72.287447 135.678907 
L 72.798991 144.108365 
L 73.310535 137.695422 
L 73.822079 138.014274 
L 74.333623 137.932688 
L 74.845167 140.432749 
L 75.356711 125.79038 
L 75.868255 146.059194 
L 76.3798 126.428369 
L 76.891344 133.507157 
L 77.402888 128.228181 
L 77.914432 146.11548 
L 78.425976 132.886501 
L 78.93752 143.997205 
L 79.449064 142.407255 
L 79.960608 138.411717 
L 80.472152 127.350857 
L 81.495241 143.13216 
L 82.006785 130.789978 
L 82.518329 147.255063 
L 83.029873 125.507043 
L 83.541417 137.795337 
L 84.052961 137.467751 
L 84.564505 134.973187 
L 85.07605 130.715189 
L 85.587594 145.508215 
L 86.099138 137.230971 
L 86.610682 148.66843 
L 87.122226 137.388284 
L 87.63377 148.029697 
L 88.145314 153.888807 
L 88.656858 138.642653 
L 89.168403 134.156943 
L 89.679947 136.723846 
L 90.191491 115.405315 
L 90.703035 130.777596 
L 91.214579 134.978283 
L 91.726123 130.214466 
L 92.237667 128.136085 
L 92.749211 133.270457 
L 93.260755 134.338437 
L 93.7723 131.982303 
L 94.283844 127.230267 
L 94.795388 139.981237 
L 95.306932 120.339725 
L 95.818476 123.634203 
L 96.33002 115.010927 
L 96.841564 141.345528 
L 97.353108 130.662073 
L 97.864653 129.036977 
L 98.376197 134.741875 
L 98.887741 134.202207 
L 99.399285 138.197632 
L 99.910829 127.445766 
L 100.422373 122.305733 
L 100.933917 128.307887 
L 101.445461 121.327286 
L 101.957006 121.250012 
L 102.46855 135.667769 
L 102.980094 119.667794 
L 103.491638 121.952092 
L 104.003182 127.529616 
L 104.514726 120.569663 
L 105.02627 131.992956 
L 105.537814 118.795012 
L 106.049359 123.7574 
L 106.560903 137.738292 
L 107.072447 127.410613 
L 107.583991 138.318498 
L 108.095535 134.480236 
L 108.607079 127.115097 
L 109.118623 123.688886 
L 109.630167 126.022362 
L 110.141711 126.601417 
L 110.653256 125.47903 
L 111.1648 131.594269 
L 111.676344 123.199969 
L 112.187888 128.858227 
L 112.699432 130.290727 
L 113.210976 127.680911 
L 113.72252 118.634906 
L 114.234064 128.583586 
L 114.745609 130.547318 
L 115.257153 127.992889 
L 115.768697 130.18499 
L 116.280241 124.498624 
L 116.791785 127.952066 
L 117.303329 132.709466 
L 117.814873 128.869522 
L 118.326417 136.004784 
L 119.349506 125.911716 
L 119.86105 126.157926 
L 120.372594 124.500546 
L 120.884138 116.580419 
L 121.395682 137.149161 
L 121.907226 125.983367 
L 122.41877 122.310381 
L 122.930314 123.962949 
L 123.441859 131.275247 
L 123.953403 127.258024 
L 124.464947 119.551889 
L 124.976491 122.332068 
L 125.488035 118.73557 
L 125.999579 123.620539 
L 126.511123 123.213279 
L 127.022667 137.215733 
L 127.534212 139.077694 
L 128.045756 133.614314 
L 128.5573 124.868616 
L 129.068844 123.893418 
L 129.580388 135.217034 
L 130.091932 130.938414 
L 130.603476 115.91394 
L 131.11502 125.708692 
L 131.626565 138.283816 
L 132.138109 122.580802 
L 132.649653 128.952326 
L 133.161197 125.158701 
L 133.672741 135.712782 
L 134.184285 128.62457 
L 134.695829 130.901046 
L 135.207373 144.128956 
L 135.718918 127.433662 
L 136.230462 126.673334 
L 136.742006 139.411735 
L 137.25355 136.872137 
L 137.765094 124.871223 
L 138.276638 138.07955 
L 138.788182 131.198572 
L 139.299726 119.61984 
L 139.81127 138.595962 
L 140.322815 126.542764 
L 140.834359 125.306768 
L 141.345903 127.411792 
L 141.857447 122.987229 
L 142.368991 127.901273 
L 142.880535 127.040275 
L 143.392079 120.314027 
L 143.903623 133.122036 
L 144.415168 129.660211 
L 144.926712 135.332204 
L 145.438256 139.190393 
L 145.9498 132.931963 
L 146.461344 131.898749 
L 146.972888 126.486201 
L 147.484432 133.774125 
L 147.995976 120.98772 
L 148.507521 137.21913 
L 149.019065 128.980449 
L 149.530609 135.662094 
L 150.042153 136.242716 
L 151.065241 124.5672 
L 151.576785 131.785644 
L 152.088329 136.811732 
L 152.599873 139.8797 
L 153.111418 121.863171 
L 153.622962 139.449867 
L 154.134506 140.629072 
L 154.64605 131.230058 
L 155.157594 131.400478 
L 155.669138 133.352316 
L 156.180682 132.123402 
L 156.692226 138.710649 
L 157.203771 126.72 
L 157.715315 144.141698 
L 158.738403 134.160463 
L 159.249947 123.392358 
L 159.761491 148.327218 
L 160.273035 128.59421 
L 160.784579 128.005338 
L 161.296124 145.873148 
L 161.807668 122.166888 
L 162.319212 133.149356 
L 162.830756 114.197667 
L 163.3423 133.597432 
L 163.853844 130.328473 
L 164.365388 120.974888 
L 164.876932 120.131096 
L 165.900021 127.762375 
L 166.411565 129.977393 
L 166.923109 120.423827 
L 167.434653 140.743893 
L 167.946197 131.88223 
L 168.457741 119.953828 
L 168.969285 138.123034 
L 169.480829 128.685031 
L 169.992374 132.267751 
L 170.503918 129.596353 
L 171.015462 135.681505 
L 171.527006 135.122668 
L 172.03855 128.309699 
L 172.550094 123.647213 
L 173.061638 124.058853 
L 173.573182 131.822128 
L 174.084727 136.057304 
L 174.596271 135.789724 
L 175.107815 132.419239 
L 175.619359 132.881724 
L 176.130903 144.148989 
L 176.642447 130.092864 
L 177.153991 131.558429 
L 177.665535 125.797741 
L 178.17708 132.989628 
L 178.688624 129.581072 
L 179.200168 124.262483 
L 179.711712 128.924594 
L 180.223256 125.070117 
L 180.7348 130.946821 
L 181.246344 140.257063 
L 181.757888 125.748086 
L 182.269432 142.328421 
L 182.780977 140.873278 
L 183.292521 128.264044 
L 184.315609 128.779383 
L 184.827153 128.615893 
L 185.338697 132.585384 
L 185.850241 142.249654 
L 186.361785 125.520958 
L 186.87333 119.896908 
L 187.384874 122.32079 
L 187.896418 128.739607 
L 188.407962 119.374493 
L 188.919506 126.686778 
L 189.43105 126.485886 
L 189.942594 130.898902 
L 190.454138 128.761549 
L 190.965683 127.382956 
L 191.477227 121.437814 
L 191.988771 126.741348 
L 192.500315 138.560474 
L 193.011859 146.791922 
L 193.523403 132.488979 
L 194.034947 130.631613 
L 194.546491 133.03724 
L 195.058036 133.877754 
L 195.56958 130.832492 
L 196.081124 129.616022 
L 196.592668 128.047997 
L 197.104212 137.922108 
L 197.615756 138.675338 
L 198.1273 133.76746 
L 198.638844 139.854795 
L 199.150388 136.692509 
L 199.661933 132.27909 
L 200.173477 136.328208 
L 200.685021 131.800055 
L 201.196565 130.361558 
L 201.708109 133.205416 
L 202.731197 122.362812 
L 203.242741 145.617 
L 203.754286 134.179109 
L 204.26583 134.778074 
L 204.777374 140.853953 
L 205.288918 133.464842 
L 205.800462 138.675897 
L 206.312006 129.592323 
L 206.82355 131.219701 
L 207.335094 144.836305 
L 207.846639 136.388116 
L 208.358183 135.910036 
L 208.869727 136.606656 
L 209.381271 137.65773 
L 209.892815 130.420962 
L 210.915903 134.775946 
L 211.938991 128.955093 
L 212.450536 130.429544 
L 213.473624 118.006402 
L 213.985168 132.20421 
L 214.496712 139.892696 
L 215.008256 131.690553 
L 215.5198 130.791732 
L 216.031344 117.065702 
L 216.542889 134.315805 
L 217.054433 125.934991 
L 217.565977 133.540876 
L 218.077521 124.770298 
L 218.589065 124.702018 
L 219.100609 138.086296 
L 219.612153 131.281637 
L 220.123697 139.832407 
L 220.635242 138.49911 
L 221.146786 135.815219 
L 221.65833 121.918061 
L 222.169874 132.320794 
L 222.681418 128.773367 
L 223.192962 129.302623 
L 223.704506 128.412347 
L 224.21605 129.391614 
L 224.727595 122.624065 
L 225.750683 137.781137 
L 226.262227 113.396424 
L 226.773771 138.603171 
L 227.285315 128.097266 
L 227.796859 126.288591 
L 228.308403 143.412718 
L 228.819947 140.041701 
L 229.331492 128.947315 
L 229.843036 128.363487 
L 230.35458 136.013453 
L 230.866124 147.753338 
L 231.377668 130.168529 
L 231.889212 141.79778 
L 232.400756 130.661106 
L 232.9123 127.196964 
L 233.423845 125.23268 
L 233.935389 135.49694 
L 234.446933 133.806953 
L 234.958477 134.505495 
L 235.470021 130.91168 
L 235.981565 138.215728 
L 236.493109 139.48793 
L 237.004653 125.369087 
L 237.516198 127.536113 
L 238.027742 139.814907 
L 238.539286 135.323041 
L 239.05083 122.258602 
L 240.073918 146.596213 
L 240.585462 128.439888 
L 241.097006 131.366229 
L 241.60855 122.084322 
L 242.120095 133.061312 
L 242.631639 125.428263 
L 243.143183 123.115637 
L 243.654727 141.410179 
L 244.166271 118.289755 
L 244.677815 142.366177 
L 245.189359 130.252748 
L 245.700903 159.637082 
L 246.212448 133.635965 
L 246.723992 127.57057 
L 247.235536 135.7682 
L 247.74708 130.968146 
L 248.258624 119.948992 
L 248.770168 140.798644 
L 249.281712 137.532063 
L 249.793256 157.275342 
L 250.304801 130.004036 
L 250.816345 134.853647 
L 251.327889 145.284737 
L 251.839433 149.78658 
L 252.350977 134.48739 
L 253.374065 130.106196 
L 253.885609 124.778275 
L 254.397154 140.578199 
L 254.908698 144.764461 
L 255.420242 130.961996 
L 255.931786 129.601204 
L 256.44333 144.538775 
L 256.954874 138.670269 
L 257.466418 137.669159 
L 257.977962 142.601581 
L 258.489506 125.867235 
L 259.001051 144.580601 
L 259.512595 148.712731 
L 260.024139 130.175614 
L 260.535683 134.087836 
L 261.047227 133.05361 
L 261.558771 133.453345 
L 262.070315 124.065934 
L 262.581859 147.42406 
L 263.093404 134.902232 
L 263.604948 136.93598 
L 264.116492 151.841584 
L 264.628036 125.224345 
L 265.13958 138.457067 
L 265.651124 131.295419 
L 266.162668 134.382461 
L 266.674212 139.409197 
L 267.185757 129.664356 
L 267.697301 140.279589 
L 268.208845 131.872705 
L 268.720389 128.237891 
L 269.231933 129.07306 
L 269.743477 131.383906 
L 270.255021 143.893618 
L 271.278109 124.176321 
L 271.789654 127.871641 
L 272.301198 139.698336 
L 272.812742 139.978682 
L 273.324286 132.474314 
L 273.83583 140.460706 
L 274.347374 133.70633 
L 274.858918 122.098501 
L 275.370462 134.529748 
L 275.882007 125.159511 
L 276.393551 118.900999 
L 276.905095 121.128566 
L 277.416639 122.494525 
L 277.928183 140.668342 
L 278.439727 136.228477 
L 278.951271 151.412116 
L 279.462815 110.334545 
L 279.97436 132.589545 
L 280.485904 138.887126 
L 280.997448 124.998344 
L 281.508992 132.666923 
L 282.020536 131.690109 
L 282.53208 124.403874 
L 283.043624 120.625733 
L 283.555168 139.417352 
L 284.066713 130.628482 
L 284.578257 124.517445 
L 285.089801 133.113803 
L 285.601345 124.214307 
L 286.112889 139.424936 
L 286.624433 127.237859 
L 287.135977 130.182075 
L 287.647521 131.737419 
L 288.159065 122.629655 
L 288.67061 132.220434 
L 289.182154 125.730346 
L 289.693698 127.436992 
L 290.205242 112.721464 
L 290.716786 120.46563 
L 291.22833 139.84315 
L 291.739874 112.099037 
L 292.251418 134.633101 
L 292.762963 128.384739 
L 293.274507 125.19465 
L 293.786051 124.644006 
L 294.297595 122.284351 
L 294.809139 132.312699 
L 295.320683 128.401093 
L 295.832227 123.362772 
L 296.343771 125.374675 
L 296.855316 125.611123 
L 297.36686 128.204688 
L 297.878404 132.134259 
L 298.389948 135.031499 
L 298.901492 129.526909 
L 299.413036 127.844056 
L 299.92458 123.023631 
L 300.436124 131.245532 
L 300.947668 134.570261 
L 301.459213 132.770979 
L 301.970757 125.934312 
L 302.482301 116.815893 
L 302.993845 126.003178 
L 303.505389 141.371412 
L 304.016933 128.298093 
L 304.528477 133.638805 
L 305.040021 135.498917 
L 305.551566 132.266194 
L 306.06311 132.383831 
L 306.574654 127.721615 
L 307.597742 140.453031 
L 308.109286 151.88088 
L 308.62083 148.950759 
L 309.132374 140.920463 
L 310.155463 129.536806 
L 310.667007 130.813069 
L 311.178551 146.802583 
L 312.201639 129.921682 
L 312.713183 131.626154 
L 313.224727 130.757007 
L 313.736272 136.299673 
L 314.247816 129.726583 
L 314.75936 134.317908 
L 315.270904 136.266154 
L 315.782448 135.174211 
L 316.293992 143.198758 
L 316.805536 130.107005 
L 317.31708 122.883978 
L 317.828624 127.321164 
L 318.340169 151.145971 
L 318.851713 134.396648 
L 319.363257 126.610966 
L 319.874801 143.811434 
L 320.386345 133.208923 
L 320.897889 142.977649 
L 321.409433 130.7662 
L 321.920977 138.774045 
L 322.432522 136.480271 
L 322.944066 126.957758 
L 323.45561 142.316534 
L 323.967154 129.470413 
L 324.478698 136.081652 
L 324.990242 126.496004 
L 325.501786 137.303839 
L 326.01333 141.471147 
L 326.524875 134.547544 
L 327.036419 143.202494 
L 327.547963 134.918162 
L 328.059507 151.88291 
L 328.571051 143.085999 
L 329.082595 131.501415 
L 329.594139 142.592283 
L 330.105683 143.30799 
L 330.617227 149.509435 
L 331.128772 128.328782 
L 331.640316 145.360399 
L 332.15186 147.37757 
L 332.663404 139.583939 
L 333.174948 133.989856 
L 333.686492 138.089248 
L 334.198036 148.435985 
L 334.70958 134.969122 
L 335.221125 132.850467 
L 335.732669 123.283828 
L 336.244213 121.681425 
L 336.755757 139.20816 
L 337.267301 139.767717 
L 337.778845 139.345509 
L 338.290389 132.995726 
L 338.801933 133.083804 
L 339.313478 146.903267 
L 339.825022 133.201588 
L 340.336566 148.266454 
L 340.84811 131.744566 
L 341.359654 141.798231 
L 341.871198 132.064928 
L 342.382742 145.161717 
L 342.894286 141.826997 
L 343.405831 125.553378 
L 343.917375 134.758473 
L 344.428919 133.230228 
L 344.940463 136.47742 
L 345.452007 136.647634 
L 345.963551 133.423087 
L 346.475095 135.502704 
L 346.986639 127.448599 
L 347.498183 127.243234 
L 348.009728 139.212664 
L 348.521272 154.146911 
L 349.032816 150.11833 
L 349.54436 128.695882 
L 350.055904 145.353989 
L 350.567448 140.503342 
L 351.078992 134.39052 
L 351.590536 149.589978 
L 352.102081 148.43011 
L 352.613625 145.492527 
L 353.125169 145.341496 
L 353.636713 147.226884 
L 354.148257 136.555673 
L 354.659801 134.449704 
L 355.171345 129.720202 
L 355.682889 134.738882 
L 356.194434 144.888091 
L 356.705978 136.893607 
L 357.217522 139.327278 
L 357.729066 124.237049 
L 358.24061 149.633949 
L 358.752154 143.879867 
L 359.263698 132.980865 
L 359.775242 142.954158 
L 360.286786 137.585473 
L 360.798331 140.281213 
L 361.309875 128.522068 
L 361.821419 154.257461 
L 362.332963 140.73178 
L 362.844507 142.26675 
L 363.356051 140.218666 
L 363.867595 143.550076 
L 364.379139 140.735429 
L 364.890684 147.118907 
L 365.402228 142.231857 
L 365.913772 143.9531 
L 366.425316 132.546993 
L 366.93686 127.691582 
L 367.448404 149.474841 
L 367.959948 147.405393 
L 368.471492 127.70037 
L 368.983037 146.327003 
L 369.494581 135.80852 
L 370.006125 136.873462 
L 370.517669 143.435649 
L 371.029213 147.687229 
L 371.540757 135.817413 
L 372.052301 131.110503 
L 372.563845 127.538547 
L 373.07539 157.335389 
L 373.581818 136.657588 
L 373.581818 136.657588 
" style="fill:none;stroke:#1ac938;stroke-linecap:round;stroke-width:1.2;"/>
   </g>
   <g id="line2d_28">
    <path clip-path="url(#p2ca82a8534)" d="M 69.218182 127.948514 
L 71.264358 127.948514 
L 71.775902 132.653219 
L 73.822079 132.653219 
L 74.333623 140.879326 
L 76.3798 140.879326 
L 76.891344 147.604715 
L 78.93752 147.604715 
L 79.449064 150.392432 
L 81.495241 150.392432 
L 82.006785 141.246295 
L 84.052961 141.246295 
L 84.564505 152.749868 
L 86.610682 152.749868 
L 87.122226 150.31682 
L 89.168403 150.31682 
L 89.679947 146.891979 
L 91.726123 146.891979 
L 92.237667 148.411366 
L 94.283844 148.411366 
L 94.795388 146.262014 
L 96.841564 146.262014 
L 97.353108 145.272851 
L 99.399285 145.272851 
L 99.910829 142.597328 
L 101.957006 142.597328 
L 102.46855 151.513399 
L 104.514726 151.513399 
L 105.02627 159.417781 
L 107.072447 159.417781 
L 107.583991 156.482784 
L 109.630167 156.482784 
L 110.141711 162.559367 
L 112.187888 162.559367 
L 112.699432 165.062108 
L 114.745609 165.062108 
L 115.257153 164.939038 
L 117.303329 164.939038 
L 117.814873 163.790762 
L 119.86105 163.790762 
L 120.372594 161.875459 
L 122.41877 161.875459 
L 122.930314 162.106142 
L 124.976491 162.106142 
L 125.488035 171.8256 
L 127.534212 171.8256 
L 128.045756 172.869807 
L 130.091932 172.869807 
L 130.603476 170.164458 
L 132.649653 170.164458 
L 133.161197 168.720581 
L 135.207373 168.720581 
L 135.718918 164.744716 
L 137.765094 164.744716 
L 138.276638 166.829796 
L 140.322815 166.829796 
L 140.834359 167.96111 
L 142.880535 167.96111 
L 143.392079 161.382592 
L 145.438256 161.382592 
L 145.9498 156.148401 
L 147.995976 156.148401 
L 148.507521 162.054941 
L 150.553697 162.054941 
L 151.065241 157.531528 
L 153.111418 157.531528 
L 153.622962 162.312737 
L 155.669138 162.312737 
L 156.180682 172.647028 
L 158.226859 172.647028 
L 158.738403 163.583915 
L 160.784579 163.583915 
L 161.296124 152.290985 
L 163.3423 152.290985 
L 163.853844 157.282804 
L 165.900021 157.282804 
L 166.411565 153.4822 
L 168.457741 153.4822 
L 168.969285 146.942497 
L 171.015462 146.942497 
L 171.527006 153.060921 
L 173.573182 153.060921 
L 174.084727 161.775432 
L 176.130903 161.775432 
L 176.642447 166.873934 
L 178.688624 166.873934 
L 179.200168 166.154404 
L 181.246344 166.154404 
L 181.757888 161.178861 
L 183.804065 161.178861 
L 184.315609 164.37986 
L 186.361785 164.37986 
L 186.87333 174.779293 
L 188.919506 174.779293 
L 189.43105 171.778574 
L 191.477227 171.778574 
L 191.988771 176.225455 
L 194.034947 176.225455 
L 194.546491 169.624017 
L 196.592668 169.624017 
L 197.104212 165.324234 
L 199.150388 165.324234 
L 199.661933 154.800962 
L 201.708109 154.800962 
L 202.219653 150.105398 
L 204.26583 150.105398 
L 204.777374 151.584545 
L 206.82355 151.584545 
L 207.335094 149.101744 
L 209.381271 149.101744 
L 209.892815 147.625112 
L 211.938991 147.625112 
L 212.450536 142.218236 
L 214.496712 142.218236 
L 215.008256 139.654352 
L 217.054433 139.654352 
L 217.565977 141.915636 
L 219.612153 141.915636 
L 220.123697 145.668468 
L 222.169874 145.668468 
L 222.681418 139.865191 
L 224.727595 139.865191 
L 225.239139 140.483578 
L 227.285315 140.483578 
L 227.796859 146.957808 
L 229.843036 146.957808 
L 230.35458 142.175518 
L 232.400756 142.175518 
L 232.9123 147.695069 
L 234.958477 147.695069 
L 235.470021 142.381113 
L 237.516198 142.381113 
L 238.027742 134.320652 
L 240.073918 134.320652 
L 240.585462 138.319719 
L 242.631639 138.319719 
L 243.143183 136.065902 
L 245.189359 136.065902 
L 245.700903 142.273806 
L 247.74708 142.273806 
L 248.258624 140.873038 
L 250.304801 140.873038 
L 250.816345 143.485402 
L 252.862521 143.485402 
L 253.374065 150.177096 
L 255.420242 150.177096 
L 255.931786 146.931603 
L 257.977962 146.931603 
L 258.489506 143.870657 
L 260.535683 143.870657 
L 261.047227 156.792372 
L 263.093404 156.792372 
L 263.604948 152.04372 
L 265.651124 152.04372 
L 266.162668 156.018292 
L 268.208845 156.018292 
L 268.720389 151.698153 
L 270.766565 151.698153 
L 271.278109 153.422674 
L 273.324286 153.422674 
L 273.83583 162.491684 
L 275.882007 162.491684 
L 276.393551 161.425527 
L 278.439727 161.425527 
L 278.951271 158.613919 
L 280.997448 158.613919 
L 281.508992 158.766823 
L 283.555168 158.766823 
L 284.066713 163.164795 
L 286.112889 163.164795 
L 286.624433 155.121523 
L 288.67061 155.121523 
L 289.182154 163.967599 
L 291.22833 163.967599 
L 291.739874 150.573059 
L 293.786051 150.573059 
L 294.297595 152.071747 
L 296.343771 152.071747 
L 296.855316 147.821447 
L 298.901492 147.821447 
L 299.413036 143.783009 
L 301.459213 143.783009 
L 301.970757 136.150424 
L 304.016933 136.150424 
L 304.528477 144.861499 
L 306.574654 144.861499 
L 307.086198 153.487534 
L 309.132374 153.487534 
L 309.643919 153.218534 
L 311.690095 153.218534 
L 312.201639 149.534209 
L 314.247816 149.534209 
L 314.75936 151.468715 
L 316.805536 151.468715 
L 317.31708 142.479042 
L 319.363257 142.479042 
L 319.874801 140.880319 
L 321.920977 140.880319 
L 322.432522 140.166956 
L 324.478698 140.166956 
L 324.990242 141.934158 
L 327.036419 141.934158 
L 327.547963 141.520059 
L 329.594139 141.520059 
L 330.105683 137.426468 
L 332.15186 137.426468 
L 332.663404 133.477465 
L 334.70958 133.477465 
L 335.221125 136.216155 
L 337.267301 136.216155 
L 337.778845 136.598639 
L 339.825022 136.598639 
L 340.336566 139.784107 
L 342.382742 139.784107 
L 342.894286 141.160939 
L 344.940463 141.160939 
L 345.452007 142.611875 
L 347.498183 142.611875 
L 348.009728 140.045179 
L 349.841056 140.045179 
L 349.841056 140.045179 
" style="fill:none;stroke:#e8000b;stroke-linecap:round;stroke-width:1.2;"/>
   </g>
   <g id="matplotlib.axis_3">
    <g id="xtick_8">
     <g id="line2d_29">
      <g>
       <use style="stroke:#000000;" x="68.195094" xlink:href="#mb4735a693f" y="179.52"/>
      </g>
     </g>
     <g id="line2d_30">
      <g>
       <use style="stroke:#000000;" x="68.195094" xlink:href="#m3f42cd044b" y="107.04"/>
      </g>
     </g>
    </g>
    <g id="xtick_9">
     <g id="line2d_31">
      <g>
       <use style="stroke:#000000;" x="119.349506" xlink:href="#mb4735a693f" y="179.52"/>
      </g>
     </g>
     <g id="line2d_32">
      <g>
       <use style="stroke:#000000;" x="119.349506" xlink:href="#m3f42cd044b" y="107.04"/>
      </g>
     </g>
    </g>
    <g id="xtick_10">
     <g id="line2d_33">
      <g>
       <use style="stroke:#000000;" x="170.503918" xlink:href="#mb4735a693f" y="179.52"/>
      </g>
     </g>
     <g id="line2d_34">
      <g>
       <use style="stroke:#000000;" x="170.503918" xlink:href="#m3f42cd044b" y="107.04"/>
      </g>
     </g>
    </g>
    <g id="xtick_11">
     <g id="line2d_35">
      <g>
       <use style="stroke:#000000;" x="221.65833" xlink:href="#mb4735a693f" y="179.52"/>
      </g>
     </g>
     <g id="line2d_36">
      <g>
       <use style="stroke:#000000;" x="221.65833" xlink:href="#m3f42cd044b" y="107.04"/>
      </g>
     </g>
    </g>
    <g id="xtick_12">
     <g id="line2d_37">
      <g>
       <use style="stroke:#000000;" x="272.812742" xlink:href="#mb4735a693f" y="179.52"/>
      </g>
     </g>
     <g id="line2d_38">
      <g>
       <use style="stroke:#000000;" x="272.812742" xlink:href="#m3f42cd044b" y="107.04"/>
      </g>
     </g>
    </g>
    <g id="xtick_13">
     <g id="line2d_39">
      <g>
       <use style="stroke:#000000;" x="323.967154" xlink:href="#mb4735a693f" y="179.52"/>
      </g>
     </g>
     <g id="line2d_40">
      <g>
       <use style="stroke:#000000;" x="323.967154" xlink:href="#m3f42cd044b" y="107.04"/>
      </g>
     </g>
    </g>
    <g id="xtick_14">
     <g id="line2d_41">
      <g>
       <use style="stroke:#000000;" x="375.121566" xlink:href="#mb4735a693f" y="179.52"/>
      </g>
     </g>
     <g id="line2d_42">
      <g>
       <use style="stroke:#000000;" x="375.121566" xlink:href="#m3f42cd044b" y="107.04"/>
      </g>
     </g>
    </g>
   </g>
   <g id="matplotlib.axis_4">
    <g id="ytick_4">
     <g id="line2d_43">
      <g>
       <use style="stroke:#000000;" x="54" xlink:href="#meeb22d9a5d" y="179.029777"/>
      </g>
     </g>
     <g id="line2d_44">
      <g>
       <use style="stroke:#000000;" x="388.8" xlink:href="#mdc0a9dbee9" y="179.029777"/>
      </g>
     </g>
     <g id="text_7">
      <!-- 0.4 -->
      <defs>
       <path d="M 9.078125 0 
L 9.078125 10.015625 
L 19.09375 10.015625 
L 19.09375 0 
z
" id="ArialMT-46"/>
       <path d="M 32.328125 0 
L 32.328125 17.140625 
L 1.265625 17.140625 
L 1.265625 25.203125 
L 33.9375 71.578125 
L 41.109375 71.578125 
L 41.109375 25.203125 
L 50.78125 25.203125 
L 50.78125 17.140625 
L 41.109375 17.140625 
L 41.109375 0 
z
M 32.328125 25.203125 
L 32.328125 57.46875 
L 9.90625 25.203125 
z
" id="ArialMT-52"/>
      </defs>
      <g transform="translate(38.268 182.179215)scale(0.088 -0.088)">
       <use xlink:href="#ArialMT-48"/>
       <use x="55.615234" xlink:href="#ArialMT-46"/>
       <use x="83.398438" xlink:href="#ArialMT-52"/>
      </g>
     </g>
    </g>
    <g id="ytick_5">
     <g id="line2d_45">
      <g>
       <use style="stroke:#000000;" x="54" xlink:href="#meeb22d9a5d" y="147.374144"/>
      </g>
     </g>
     <g id="line2d_46">
      <g>
       <use style="stroke:#000000;" x="388.8" xlink:href="#mdc0a9dbee9" y="147.374144"/>
      </g>
     </g>
     <g id="text_8">
      <!-- 0.5 -->
      <g transform="translate(38.268 150.523582)scale(0.088 -0.088)">
       <use xlink:href="#ArialMT-48"/>
       <use x="55.615234" xlink:href="#ArialMT-46"/>
       <use x="83.398438" xlink:href="#ArialMT-53"/>
      </g>
     </g>
    </g>
    <g id="ytick_6">
     <g id="line2d_47">
      <g>
       <use style="stroke:#000000;" x="54" xlink:href="#meeb22d9a5d" y="115.718511"/>
      </g>
     </g>
     <g id="line2d_48">
      <g>
       <use style="stroke:#000000;" x="388.8" xlink:href="#mdc0a9dbee9" y="115.718511"/>
      </g>
     </g>
     <g id="text_9">
      <!-- 0.6 -->
      <defs>
       <path d="M 49.75 54.046875 
L 41.015625 53.375 
Q 39.84375 58.546875 37.703125 60.890625 
Q 34.125 64.65625 28.90625 64.65625 
Q 24.703125 64.65625 21.53125 62.3125 
Q 17.390625 59.28125 14.984375 53.46875 
Q 12.59375 47.65625 12.5 36.921875 
Q 15.671875 41.75 20.265625 44.09375 
Q 24.859375 46.4375 29.890625 46.4375 
Q 38.671875 46.4375 44.84375 39.96875 
Q 51.03125 33.5 51.03125 23.25 
Q 51.03125 16.5 48.125 10.71875 
Q 45.21875 4.9375 40.140625 1.859375 
Q 35.0625 -1.21875 28.609375 -1.21875 
Q 17.625 -1.21875 10.6875 6.859375 
Q 3.765625 14.9375 3.765625 33.5 
Q 3.765625 54.25 11.421875 63.671875 
Q 18.109375 71.875 29.4375 71.875 
Q 37.890625 71.875 43.28125 67.140625 
Q 48.6875 62.40625 49.75 54.046875 
z
M 13.875 23.1875 
Q 13.875 18.65625 15.796875 14.5 
Q 17.71875 10.359375 21.1875 8.171875 
Q 24.65625 6 28.46875 6 
Q 34.03125 6 38.03125 10.484375 
Q 42.046875 14.984375 42.046875 22.703125 
Q 42.046875 30.125 38.078125 34.390625 
Q 34.125 38.671875 28.125 38.671875 
Q 22.171875 38.671875 18.015625 34.390625 
Q 13.875 30.125 13.875 23.1875 
z
" id="ArialMT-54"/>
      </defs>
      <g transform="translate(38.268 118.867949)scale(0.088 -0.088)">
       <use xlink:href="#ArialMT-48"/>
       <use x="55.615234" xlink:href="#ArialMT-46"/>
       <use x="83.398438" xlink:href="#ArialMT-54"/>
      </g>
     </g>
    </g>
    <g id="text_10">
     <!-- $F$ -->
     <defs>
      <path d="M 16.890625 72.90625 
L 58.6875 72.90625 
L 57.078125 64.59375 
L 25.09375 64.59375 
L 20.90625 43.109375 
L 49.8125 43.109375 
L 48.1875 34.8125 
L 19.28125 34.8125 
L 12.5 0 
L 2.6875 0 
z
" id="DejaVuSans-Oblique-70"/>
     </defs>
     <g transform="translate(32.36 146.064)rotate(-90)scale(0.096 -0.096)">
      <use transform="translate(0 0.09375)" xlink:href="#DejaVuSans-Oblique-70"/>
     </g>
    </g>
   </g>
   <g id="patch_10">
    <path d="M 54 179.52 
L 54 107.04 
" style="fill:none;stroke:#000000;stroke-linecap:square;stroke-linejoin:miter;"/>
   </g>
   <g id="patch_11">
    <path d="M 388.8 179.52 
L 388.8 107.04 
" style="fill:none;stroke:#000000;stroke-linecap:square;stroke-linejoin:miter;"/>
   </g>
   <g id="patch_12">
    <path d="M 54 179.52 
L 388.8 179.52 
" style="fill:none;stroke:#000000;stroke-linecap:square;stroke-linejoin:miter;"/>
   </g>
   <g id="patch_13">
    <path d="M 54 107.04 
L 388.8 107.04 
" style="fill:none;stroke:#000000;stroke-linecap:square;stroke-linejoin:miter;"/>
   </g>
  </g>
  <g id="axes_3">
   <g id="patch_14">
    <path d="M 54 252 
L 388.8 252 
L 388.8 179.52 
L 54 179.52 
z
" style="fill:#ffffff;"/>
   </g>
   <g id="line2d_49">
    <path clip-path="url(#p58ec19fec2)" d="M 69.218182 248.340334 
L 69.729726 246.094747 
L 70.24127 248.705455 
L 70.752814 246.202302 
L 71.264358 240.091295 
L 71.775902 246.904105 
L 72.287447 244.609549 
L 72.798991 247.473946 
L 73.310535 245.30841 
L 73.822079 246.771667 
L 74.333623 242.808041 
L 74.845167 243.494412 
L 75.356711 241.907761 
L 75.868255 242.86276 
L 76.3798 240.134724 
L 76.891344 244.492978 
L 77.402888 242.504241 
L 77.914432 244.333232 
L 78.425976 242.005265 
L 78.93752 245.191424 
L 79.449064 243.507273 
L 79.960608 242.212707 
L 80.472152 244.597661 
L 80.983697 245.033444 
L 81.495241 241.808283 
L 82.006785 245.342845 
L 82.518329 242.914057 
L 83.029873 241.868731 
L 83.541417 242.520042 
L 84.052961 242.029417 
L 84.564505 245.381282 
L 85.07605 245.405844 
L 85.587594 241.339213 
L 86.099138 244.646679 
L 86.610682 246.801059 
L 87.122226 242.27131 
L 87.63377 241.233983 
L 88.145314 246.167767 
L 88.656858 243.895493 
L 89.168403 240.892191 
L 89.679947 244.553602 
L 90.191491 245.157953 
L 90.703035 247.476998 
L 91.214579 245.901753 
L 91.726123 245.251291 
L 92.237667 238.645689 
L 92.749211 235.246128 
L 93.260755 241.844735 
L 93.7723 244.026748 
L 94.283844 239.677864 
L 94.795388 240.859829 
L 95.306932 241.3719 
L 95.818476 241.313646 
L 96.33002 245.70273 
L 96.841564 238.521809 
L 97.353108 241.495251 
L 97.864653 239.590305 
L 98.376197 239.611683 
L 98.887741 239.399549 
L 99.399285 235.370183 
L 99.910829 237.091123 
L 100.422373 236.533529 
L 100.933917 239.327516 
L 101.445461 238.505928 
L 101.957006 236.784524 
L 102.46855 239.583918 
L 102.980094 235.51305 
L 103.491638 238.845137 
L 104.003182 238.24636 
L 104.514726 239.705116 
L 105.02627 237.558646 
L 105.537814 239.487562 
L 106.049359 237.353289 
L 106.560903 244.652131 
L 107.072447 238.776426 
L 107.583991 237.272652 
L 108.095535 240.258945 
L 108.607079 238.957599 
L 109.118623 238.82711 
L 109.630167 237.788696 
L 110.141711 242.531637 
L 110.653256 236.764948 
L 111.1648 237.612176 
L 111.676344 239.316407 
L 112.187888 241.503114 
L 112.699432 239.794392 
L 113.210976 237.022131 
L 113.72252 240.761348 
L 114.234064 238.300684 
L 114.745609 239.558851 
L 115.257153 234.513149 
L 115.768697 238.624457 
L 116.280241 237.481048 
L 116.791785 241.395009 
L 117.303329 239.327102 
L 117.814873 243.427542 
L 118.326417 238.802992 
L 118.837962 236.961208 
L 119.349506 237.226733 
L 119.86105 235.29362 
L 120.372594 234.374961 
L 120.884138 236.26945 
L 121.395682 237.01882 
L 121.907226 243.66097 
L 122.930314 242.641174 
L 123.953403 233.515468 
L 124.464947 238.910296 
L 124.976491 237.428824 
L 125.488035 237.927774 
L 125.999579 236.956937 
L 127.022667 241.107314 
L 127.534212 236.417402 
L 128.045756 241.501818 
L 128.5573 233.186679 
L 129.068844 235.136071 
L 129.580388 236.605999 
L 130.091932 238.794144 
L 130.603476 239.940674 
L 131.626565 236.902411 
L 132.138109 234.808104 
L 132.649653 237.20029 
L 133.161197 238.118292 
L 133.672741 240.826501 
L 134.184285 234.672586 
L 134.695829 241.517857 
L 135.207373 235.058724 
L 135.718918 233.74516 
L 136.230462 236.553036 
L 136.742006 236.370989 
L 137.25355 233.529221 
L 137.765094 236.90994 
L 138.276638 239.340229 
L 138.788182 238.252338 
L 139.299726 235.380172 
L 139.81127 234.940674 
L 140.322815 236.901474 
L 140.834359 238.364103 
L 141.857447 233.003645 
L 142.368991 234.596254 
L 142.880535 237.016203 
L 143.392079 233.962932 
L 143.903623 237.671174 
L 144.415168 233.257164 
L 144.926712 237.401234 
L 145.438256 233.855836 
L 145.9498 231.994665 
L 146.461344 235.586507 
L 146.972888 230.418628 
L 147.484432 236.032462 
L 147.995976 233.881653 
L 148.507521 234.879116 
L 149.019065 229.872808 
L 149.530609 238.965341 
L 150.042153 235.626269 
L 150.553697 229.777499 
L 151.576785 233.36252 
L 152.088329 230.04101 
L 152.599873 235.317701 
L 153.111418 232.038593 
L 153.622962 232.892546 
L 154.134506 229.237093 
L 154.64605 233.983865 
L 155.669138 228.864096 
L 156.180682 230.522938 
L 156.692226 226.922209 
L 157.203771 228.539542 
L 157.715315 225.04338 
L 158.226859 230.127399 
L 158.738403 226.797781 
L 159.249947 225.936157 
L 159.761491 230.592902 
L 160.273035 223.448492 
L 160.784579 230.903576 
L 161.296124 230.387343 
L 161.807668 227.111867 
L 162.319212 228.675861 
L 163.3423 230.045925 
L 163.853844 228.548252 
L 164.365388 223.844922 
L 164.876932 232.249595 
L 165.388477 227.098416 
L 165.900021 227.58127 
L 166.411565 231.935649 
L 166.923109 225.445358 
L 167.434653 233.024918 
L 167.946197 227.565537 
L 168.457741 227.235753 
L 168.969285 227.915021 
L 169.992374 232.83301 
L 170.503918 226.566721 
L 171.015462 224.817565 
L 171.527006 229.914909 
L 172.550094 227.361133 
L 173.061638 226.764184 
L 173.573182 228.813609 
L 174.084727 228.870762 
L 174.596271 226.394218 
L 175.107815 227.204452 
L 175.619359 230.379209 
L 176.130903 227.207992 
L 177.665535 228.894577 
L 178.17708 232.909195 
L 179.200168 225.414071 
L 179.711712 229.297313 
L 180.223256 229.326883 
L 180.7348 230.756771 
L 181.246344 229.306009 
L 181.757888 231.566313 
L 182.269432 229.796472 
L 182.780977 226.64395 
L 183.292521 228.372879 
L 183.804065 223.266195 
L 184.315609 232.1672 
L 184.827153 228.892908 
L 185.338697 222.318694 
L 185.850241 223.96804 
L 186.361785 228.14985 
L 186.87333 230.631308 
L 187.384874 226.166619 
L 187.896418 230.083229 
L 188.407962 222.986075 
L 188.919506 228.975602 
L 189.43105 229.067662 
L 189.942594 226.35789 
L 190.454138 226.076578 
L 190.965683 225.374959 
L 191.477227 225.126862 
L 191.988771 227.588818 
L 192.500315 230.992926 
L 193.011859 224.724869 
L 193.523403 228.537914 
L 194.034947 225.943208 
L 194.546491 224.579882 
L 195.56958 225.63203 
L 196.081124 227.103236 
L 196.592668 220.501451 
L 197.104212 228.976559 
L 197.615756 224.518618 
L 198.1273 226.143053 
L 198.638844 220.600091 
L 199.150388 224.513191 
L 199.661933 226.061276 
L 200.173477 232.753121 
L 200.685021 227.10077 
L 201.196565 229.880527 
L 201.708109 229.793889 
L 202.219653 223.33861 
L 202.731197 232.079559 
L 203.242741 227.882965 
L 203.754286 231.012697 
L 204.26583 229.398906 
L 204.777374 228.358438 
L 205.288918 228.807319 
L 205.800462 225.82916 
L 206.312006 229.785449 
L 206.82355 228.064508 
L 207.335094 222.989016 
L 207.846639 232.76918 
L 208.358183 223.158201 
L 208.869727 225.472652 
L 209.381271 224.245842 
L 209.892815 231.19303 
L 210.404359 224.692332 
L 210.915903 231.106352 
L 211.427447 232.857004 
L 211.938991 225.026444 
L 212.450536 226.229433 
L 212.96208 229.331418 
L 213.473624 226.078149 
L 213.985168 228.027417 
L 214.496712 226.913657 
L 215.5198 229.179612 
L 216.031344 224.74456 
L 216.542889 225.636837 
L 217.054433 231.392655 
L 217.565977 226.374316 
L 218.077521 226.448012 
L 218.589065 228.980062 
L 219.100609 224.617379 
L 219.612153 226.051173 
L 220.123697 226.267408 
L 220.635242 226.836076 
L 221.146786 229.265749 
L 221.65833 225.847978 
L 222.169874 223.918053 
L 222.681418 225.073925 
L 223.192962 225.768244 
L 223.704506 221.388108 
L 224.21605 228.178552 
L 224.727595 226.126824 
L 225.239139 227.525548 
L 225.750683 227.67142 
L 226.773771 218.168921 
L 227.285315 224.0232 
L 227.796859 224.19933 
L 228.308403 220.896602 
L 228.819947 225.970162 
L 229.331492 225.724514 
L 229.843036 226.102181 
L 230.35458 224.476223 
L 230.866124 225.558971 
L 231.377668 230.081717 
L 231.889212 228.737762 
L 232.400756 228.814884 
L 232.9123 223.175546 
L 233.423845 223.756212 
L 233.935389 222.481711 
L 234.446933 224.823983 
L 234.958477 222.668516 
L 235.470021 222.985305 
L 235.981565 222.957886 
L 236.493109 227.375722 
L 237.004653 223.261594 
L 238.027742 224.876644 
L 238.539286 223.2608 
L 239.05083 224.544241 
L 239.562374 222.281702 
L 240.073918 225.161503 
L 240.585462 220.850944 
L 241.097006 224.92763 
L 241.60855 221.060242 
L 242.120095 223.106922 
L 242.631639 220.551261 
L 243.143183 223.436289 
L 243.654727 219.437192 
L 244.166271 222.007383 
L 244.677815 220.540116 
L 245.189359 222.899825 
L 245.700903 219.304063 
L 246.212448 224.237631 
L 246.723992 223.998156 
L 247.235536 221.957165 
L 247.74708 223.748633 
L 248.258624 224.146542 
L 248.770168 217.362983 
L 249.281712 218.522033 
L 249.793256 220.189395 
L 250.304801 227.356823 
L 250.816345 220.658501 
L 251.327889 224.863432 
L 251.839433 221.080895 
L 252.350977 219.117413 
L 252.862521 221.080677 
L 253.374065 221.112147 
L 253.885609 218.414987 
L 254.397154 221.012372 
L 254.908698 219.941224 
L 255.420242 220.02808 
L 255.931786 217.39441 
L 256.44333 221.24378 
L 256.954874 217.131651 
L 257.466418 221.069711 
L 257.977962 223.180998 
L 258.489506 220.307624 
L 259.001051 219.052028 
L 259.512595 225.017598 
L 260.535683 216.987217 
L 261.047227 220.647113 
L 261.558771 219.822994 
L 262.070315 222.664314 
L 262.581859 229.179407 
L 263.093404 219.233183 
L 263.604948 222.20714 
L 264.116492 218.245605 
L 264.628036 222.4967 
L 265.13958 224.317532 
L 265.651124 222.454557 
L 266.162668 223.144335 
L 267.185757 221.128579 
L 267.697301 220.608952 
L 268.208845 217.850778 
L 268.720389 217.467075 
L 269.231933 221.73211 
L 269.743477 223.317363 
L 270.255021 220.150617 
L 270.766565 225.361513 
L 271.278109 219.191782 
L 271.789654 222.166904 
L 272.301198 220.139855 
L 272.812742 220.949536 
L 273.324286 222.241953 
L 273.83583 221.27938 
L 274.347374 224.943938 
L 274.858918 217.550025 
L 275.370462 222.88851 
L 275.882007 220.24628 
L 276.393551 221.5739 
L 276.905095 222.423862 
L 277.416639 222.20751 
L 277.928183 213.292317 
L 278.439727 220.519061 
L 278.951271 219.379824 
L 279.462815 221.4509 
L 279.97436 219.129874 
L 280.485904 220.930286 
L 280.997448 219.536733 
L 281.508992 213.61679 
L 282.020536 220.053159 
L 282.53208 223.472421 
L 283.043624 217.078471 
L 283.555168 218.615303 
L 284.066713 225.004239 
L 284.578257 216.197077 
L 285.089801 218.02562 
L 285.601345 222.031648 
L 286.112889 219.090307 
L 286.624433 225.267248 
L 287.135977 222.474826 
L 287.647521 224.869368 
L 288.159065 222.323018 
L 288.67061 223.885333 
L 289.182154 219.224842 
L 289.693698 219.55214 
L 290.205242 219.622109 
L 290.716786 222.581178 
L 291.22833 217.506736 
L 291.739874 217.680268 
L 292.251418 215.917235 
L 292.762963 220.29084 
L 293.274507 221.033102 
L 293.786051 221.565231 
L 294.297595 222.803609 
L 294.809139 219.964512 
L 295.320683 222.953913 
L 296.343771 221.269563 
L 296.855316 219.808803 
L 297.36686 223.683464 
L 297.878404 223.774021 
L 298.389948 224.930349 
L 299.413036 223.956035 
L 299.92458 220.766559 
L 300.436124 224.555214 
L 300.947668 222.016289 
L 301.459213 221.955691 
L 301.970757 226.811753 
L 302.993845 218.324761 
L 303.505389 219.080479 
L 304.016933 220.261985 
L 304.528477 224.388028 
L 305.040021 217.935676 
L 305.551566 223.729157 
L 306.06311 222.220822 
L 306.574654 221.320018 
L 307.086198 221.488428 
L 307.597742 218.379349 
L 308.109286 224.858424 
L 308.62083 222.240354 
L 309.132374 223.720912 
L 309.643919 221.516902 
L 310.155463 222.725977 
L 310.667007 221.65677 
L 311.178551 222.342094 
L 311.690095 218.384105 
L 312.201639 228.231627 
L 312.713183 221.677708 
L 313.224727 224.630961 
L 313.736272 222.242594 
L 314.247816 218.874877 
L 314.75936 220.358663 
L 315.270904 223.508938 
L 315.782448 223.189967 
L 316.293992 219.492048 
L 316.805536 225.863031 
L 317.31708 221.493167 
L 317.828624 221.48251 
L 318.340169 223.489109 
L 318.851713 218.634887 
L 319.363257 220.174101 
L 319.874801 221.198564 
L 320.386345 221.968329 
L 320.897889 221.486775 
L 321.409433 224.862181 
L 321.920977 225.295413 
L 322.432522 217.030558 
L 322.944066 217.40421 
L 323.45561 220.668186 
L 323.967154 222.414072 
L 324.478698 220.078294 
L 324.990242 223.568769 
L 325.501786 219.147741 
L 326.01333 217.319407 
L 326.524875 222.489256 
L 327.036419 219.809901 
L 327.547963 225.305366 
L 328.059507 219.762489 
L 328.571051 222.613534 
L 329.082595 223.532695 
L 329.594139 222.803414 
L 330.105683 222.698801 
L 330.617227 218.682251 
L 331.128772 222.797741 
L 331.640316 222.923961 
L 332.15186 223.900466 
L 332.663404 226.447061 
L 333.174948 227.474432 
L 333.686492 224.261269 
L 334.198036 231.328037 
L 335.221125 219.305262 
L 335.732669 226.702751 
L 336.244213 224.560954 
L 336.755757 224.234316 
L 337.267301 224.201793 
L 337.778845 222.760119 
L 338.290389 225.39257 
L 338.801933 222.14856 
L 339.313478 220.326376 
L 339.825022 221.311792 
L 340.336566 223.332604 
L 340.84811 226.812309 
L 341.359654 225.826262 
L 341.871198 227.210233 
L 342.382742 221.370394 
L 342.894286 226.261989 
L 343.405831 227.677747 
L 343.917375 224.335465 
L 344.428919 225.085297 
L 344.940463 223.015223 
L 345.452007 224.197749 
L 345.963551 227.634299 
L 346.475095 223.321128 
L 346.986639 227.080326 
L 347.498183 223.516265 
L 348.009728 224.026182 
L 348.521272 226.49574 
L 349.032816 219.14415 
L 349.54436 222.228056 
L 350.055904 226.401394 
L 350.567448 223.79117 
L 351.078992 219.40944 
L 351.590536 222.902724 
L 352.102081 224.312077 
L 352.613625 220.301377 
L 353.125169 225.483091 
L 353.636713 223.523516 
L 354.148257 222.957374 
L 354.659801 224.263866 
L 355.171345 225.240237 
L 355.682889 227.850871 
L 356.705978 220.05371 
L 357.217522 223.084182 
L 357.729066 220.0179 
L 358.24061 223.916754 
L 358.752154 223.750342 
L 359.263698 226.866217 
L 360.286786 219.580235 
L 360.798331 224.038043 
L 361.309875 218.9184 
L 361.821419 225.615771 
L 362.332963 222.388994 
L 362.844507 223.048587 
L 363.867595 225.454019 
L 364.379139 222.808892 
L 364.890684 226.116681 
L 365.402228 225.378738 
L 365.913772 227.72476 
L 366.425316 224.569102 
L 366.93686 223.619487 
L 367.448404 220.882256 
L 367.959948 227.240425 
L 368.471492 225.893753 
L 368.983037 226.118267 
L 369.494581 225.82715 
L 370.006125 224.829787 
L 370.517669 219.703634 
L 371.029213 222.635236 
L 371.540757 221.448979 
L 372.052301 225.888341 
L 372.563845 220.151761 
L 373.07539 222.785576 
L 373.581818 222.042091 
L 373.581818 222.042091 
" style="fill:none;stroke:#1ac938;stroke-linecap:round;stroke-width:1.2;"/>
   </g>
   <g id="line2d_50">
    <path clip-path="url(#p58ec19fec2)" d="M 69.218182 233.332363 
L 71.264358 233.332363 
L 71.775902 229.720711 
L 73.822079 229.720711 
L 74.333623 215.645495 
L 78.93752 215.734505 
L 79.449064 209.240678 
L 81.495241 209.240678 
L 82.006785 210.981523 
L 84.052961 210.981523 
L 84.564505 211.386481 
L 86.610682 211.386481 
L 87.122226 206.435165 
L 89.168403 206.435165 
L 89.679947 207.001825 
L 91.726123 207.001825 
L 92.237667 201.323023 
L 94.283844 201.323023 
L 94.795388 205.162101 
L 96.841564 205.162101 
L 97.353108 206.549081 
L 99.399285 206.549081 
L 99.910829 211.599496 
L 101.957006 211.599496 
L 102.46855 212.969735 
L 104.514726 212.969735 
L 105.02627 208.493371 
L 107.072447 208.493371 
L 107.583991 204.888614 
L 109.630167 204.888614 
L 110.141711 200.337083 
L 112.187888 200.337083 
L 112.699432 204.218605 
L 114.745609 204.218605 
L 115.257153 206.126161 
L 117.303329 206.126161 
L 117.814873 203.778118 
L 119.86105 203.778118 
L 120.372594 204.306917 
L 122.41877 204.306917 
L 122.930314 204.500077 
L 124.976491 204.500077 
L 125.488035 208.884573 
L 127.534212 208.884573 
L 128.045756 215.255506 
L 130.091932 215.255506 
L 130.603476 212.626958 
L 132.649653 212.626958 
L 133.161197 215.742524 
L 135.207373 215.742524 
L 135.718918 223.046156 
L 137.765094 223.046156 
L 138.276638 219.317332 
L 140.322815 219.317332 
L 140.834359 220.592811 
L 142.880535 220.592811 
L 143.392079 221.047082 
L 145.438256 221.047082 
L 145.9498 223.884962 
L 147.995976 223.884962 
L 148.507521 220.441392 
L 150.553697 220.441392 
L 151.065241 227.201516 
L 153.111418 227.201516 
L 153.622962 223.168753 
L 155.669138 223.168753 
L 156.180682 214.333995 
L 158.226859 214.333995 
L 158.738403 219.093727 
L 160.784579 219.093727 
L 161.296124 218.792623 
L 163.3423 218.792623 
L 163.853844 220.49961 
L 165.900021 220.49961 
L 166.411565 220.956239 
L 168.457741 220.956239 
L 168.969285 214.475593 
L 171.015462 214.475593 
L 171.527006 216.811637 
L 173.573182 216.811637 
L 174.084727 211.253368 
L 176.130903 211.253368 
L 176.642447 211.112867 
L 178.688624 211.112867 
L 179.200168 209.462862 
L 181.246344 209.462862 
L 181.757888 208.899725 
L 183.804065 208.899725 
L 184.315609 207.676348 
L 186.361785 207.676348 
L 186.87333 204.68445 
L 188.919506 204.68445 
L 189.43105 210.677345 
L 194.034947 210.604495 
L 194.546491 217.988771 
L 196.592668 217.988771 
L 197.104212 217.118363 
L 199.150388 217.118363 
L 199.661933 206.395702 
L 201.708109 206.395702 
L 202.219653 210.691555 
L 204.26583 210.691555 
L 204.777374 213.912972 
L 206.82355 213.912972 
L 207.335094 217.152255 
L 209.381271 217.152255 
L 209.892815 210.30443 
L 211.938991 210.30443 
L 212.450536 203.912779 
L 214.496712 203.912779 
L 215.008256 205.37745 
L 217.054433 205.37745 
L 217.565977 213.856917 
L 219.612153 213.856917 
L 220.123697 212.62678 
L 224.727595 212.733264 
L 225.239139 209.424892 
L 227.285315 209.424892 
L 227.796859 200.372262 
L 229.843036 200.372262 
L 230.35458 202.388692 
L 232.400756 202.388692 
L 232.9123 198.286025 
L 234.958477 198.286025 
L 235.470021 199.3039 
L 237.516198 199.3039 
L 238.027742 184.420294 
L 240.073918 184.420294 
L 240.585462 183.627483 
L 242.631639 183.627483 
L 243.143183 189.713017 
L 245.189359 189.713017 
L 245.700903 188.205172 
L 247.74708 188.205172 
L 248.258624 182.814545 
L 250.304801 182.814545 
L 250.816345 192.407555 
L 252.862521 192.407555 
L 253.374065 188.227959 
L 255.420242 188.227959 
L 255.931786 187.167266 
L 257.977962 187.167266 
L 258.489506 189.867076 
L 260.535683 189.867076 
L 261.047227 194.269495 
L 263.093404 194.269495 
L 263.604948 201.748808 
L 265.651124 201.748808 
L 266.162668 199.602011 
L 268.208845 199.602011 
L 268.720389 200.247847 
L 270.766565 200.247847 
L 271.278109 210.741733 
L 273.324286 210.741733 
L 273.83583 202.352662 
L 275.882007 202.352662 
L 276.393551 196.204241 
L 278.439727 196.204241 
L 278.951271 213.078011 
L 280.997448 213.078011 
L 281.508992 215.543876 
L 283.555168 215.543876 
L 284.066713 212.068362 
L 286.112889 212.068362 
L 286.624433 210.653114 
L 288.67061 210.653114 
L 289.182154 203.221448 
L 291.22833 203.221448 
L 291.739874 208.51155 
L 293.786051 208.51155 
L 294.297595 216.119804 
L 296.343771 216.119804 
L 296.855316 210.171473 
L 298.901492 210.171473 
L 299.413036 205.375956 
L 301.459213 205.375956 
L 301.970757 198.607698 
L 304.016933 198.607698 
L 304.528477 199.844853 
L 306.574654 199.844853 
L 307.086198 199.5765 
L 309.132374 199.5765 
L 309.643919 198.360973 
L 311.690095 198.360973 
L 312.201639 200.20043 
L 314.247816 200.20043 
L 314.75936 205.385884 
L 316.805536 205.385884 
L 317.31708 202.568693 
L 319.363257 202.568693 
L 319.874801 205.431812 
L 321.920977 205.431812 
L 322.432522 210.641858 
L 324.478698 210.641858 
L 324.990242 206.621317 
L 327.036419 206.621317 
L 327.547963 211.535226 
L 329.594139 211.535226 
L 330.105683 207.793182 
L 332.15186 207.793182 
L 332.663404 210.403108 
L 334.70958 210.403108 
L 335.221125 212.676978 
L 337.267301 212.676978 
L 337.778845 216.512317 
L 339.825022 216.512317 
L 340.336566 214.405058 
L 342.382742 214.405058 
L 342.894286 212.219404 
L 344.940463 212.219404 
L 345.452007 220.730982 
L 347.498183 220.730982 
L 348.009728 221.164855 
L 349.841056 221.164855 
L 349.841056 221.164855 
" style="fill:none;stroke:#e8000b;stroke-linecap:round;stroke-width:1.2;"/>
   </g>
   <g id="matplotlib.axis_5">
    <g id="xtick_15">
     <g id="line2d_51">
      <g>
       <use style="stroke:#000000;" x="68.195094" xlink:href="#mb4735a693f" y="252"/>
      </g>
     </g>
     <g id="line2d_52">
      <g>
       <use style="stroke:#000000;" x="68.195094" xlink:href="#m3f42cd044b" y="179.52"/>
      </g>
     </g>
     <g id="text_11">
      <!-- $\mathdefault{0}$ -->
      <g transform="translate(65.731094 261.798875)scale(0.088 -0.088)">
       <use transform="translate(0 0.125)" xlink:href="#ArialMT-48"/>
      </g>
     </g>
    </g>
    <g id="xtick_16">
     <g id="line2d_53">
      <g>
       <use style="stroke:#000000;" x="119.349506" xlink:href="#mb4735a693f" y="252"/>
      </g>
     </g>
     <g id="line2d_54">
      <g>
       <use style="stroke:#000000;" x="119.349506" xlink:href="#m3f42cd044b" y="179.52"/>
      </g>
     </g>
     <g id="text_12">
      <!-- $\mathdefault{1}$ -->
      <g transform="translate(116.885506 261.798875)scale(0.088 -0.088)">
       <use transform="translate(0 0.125)" xlink:href="#ArialMT-49"/>
      </g>
     </g>
    </g>
    <g id="xtick_17">
     <g id="line2d_55">
      <g>
       <use style="stroke:#000000;" x="170.503918" xlink:href="#mb4735a693f" y="252"/>
      </g>
     </g>
     <g id="line2d_56">
      <g>
       <use style="stroke:#000000;" x="170.503918" xlink:href="#m3f42cd044b" y="179.52"/>
      </g>
     </g>
     <g id="text_13">
      <!-- $\mathdefault{2}$ -->
      <defs>
       <path d="M 50.34375 8.453125 
L 50.34375 0 
L 3.03125 0 
Q 2.9375 3.171875 4.046875 6.109375 
Q 5.859375 10.9375 9.828125 15.625 
Q 13.8125 20.3125 21.34375 26.46875 
Q 33.015625 36.03125 37.109375 41.625 
Q 41.21875 47.21875 41.21875 52.203125 
Q 41.21875 57.421875 37.46875 61 
Q 33.734375 64.59375 27.734375 64.59375 
Q 21.390625 64.59375 17.578125 60.78125 
Q 13.765625 56.984375 13.71875 50.25 
L 4.6875 51.171875 
Q 5.609375 61.28125 11.65625 66.578125 
Q 17.71875 71.875 27.9375 71.875 
Q 38.234375 71.875 44.234375 66.15625 
Q 50.25 60.453125 50.25 52 
Q 50.25 47.703125 48.484375 43.546875 
Q 46.734375 39.40625 42.65625 34.8125 
Q 38.578125 30.21875 29.109375 22.21875 
Q 21.1875 15.578125 18.9375 13.203125 
Q 16.703125 10.84375 15.234375 8.453125 
z
" id="ArialMT-50"/>
      </defs>
      <g transform="translate(168.039918 261.798875)scale(0.088 -0.088)">
       <use transform="translate(0 0.125)" xlink:href="#ArialMT-50"/>
      </g>
     </g>
    </g>
    <g id="xtick_18">
     <g id="line2d_57">
      <g>
       <use style="stroke:#000000;" x="221.65833" xlink:href="#mb4735a693f" y="252"/>
      </g>
     </g>
     <g id="line2d_58">
      <g>
       <use style="stroke:#000000;" x="221.65833" xlink:href="#m3f42cd044b" y="179.52"/>
      </g>
     </g>
     <g id="text_14">
      <!-- $\mathdefault{3}$ -->
      <defs>
       <path d="M 4.203125 18.890625 
L 12.984375 20.0625 
Q 14.5 12.59375 18.140625 9.296875 
Q 21.78125 6 27 6 
Q 33.203125 6 37.46875 10.296875 
Q 41.75 14.59375 41.75 20.953125 
Q 41.75 27 37.796875 30.921875 
Q 33.84375 34.859375 27.734375 34.859375 
Q 25.25 34.859375 21.53125 33.890625 
L 22.515625 41.609375 
Q 23.390625 41.5 23.921875 41.5 
Q 29.546875 41.5 34.03125 44.421875 
Q 38.53125 47.359375 38.53125 53.46875 
Q 38.53125 58.296875 35.25 61.46875 
Q 31.984375 64.65625 26.8125 64.65625 
Q 21.6875 64.65625 18.265625 61.421875 
Q 14.84375 58.203125 13.875 51.765625 
L 5.078125 53.328125 
Q 6.6875 62.15625 12.390625 67.015625 
Q 18.109375 71.875 26.609375 71.875 
Q 32.46875 71.875 37.390625 69.359375 
Q 42.328125 66.84375 44.9375 62.5 
Q 47.5625 58.15625 47.5625 53.265625 
Q 47.5625 48.640625 45.0625 44.828125 
Q 42.578125 41.015625 37.703125 38.765625 
Q 44.046875 37.3125 47.5625 32.6875 
Q 51.078125 28.078125 51.078125 21.140625 
Q 51.078125 11.765625 44.234375 5.25 
Q 37.40625 -1.265625 26.953125 -1.265625 
Q 17.53125 -1.265625 11.296875 4.34375 
Q 5.078125 9.96875 4.203125 18.890625 
z
" id="ArialMT-51"/>
      </defs>
      <g transform="translate(219.19433 261.798875)scale(0.088 -0.088)">
       <use transform="translate(0 0.125)" xlink:href="#ArialMT-51"/>
      </g>
     </g>
    </g>
    <g id="xtick_19">
     <g id="line2d_59">
      <g>
       <use style="stroke:#000000;" x="272.812742" xlink:href="#mb4735a693f" y="252"/>
      </g>
     </g>
     <g id="line2d_60">
      <g>
       <use style="stroke:#000000;" x="272.812742" xlink:href="#m3f42cd044b" y="179.52"/>
      </g>
     </g>
     <g id="text_15">
      <!-- $\mathdefault{4}$ -->
      <g transform="translate(270.348742 261.798875)scale(0.088 -0.088)">
       <use transform="translate(0 0.421875)" xlink:href="#ArialMT-52"/>
      </g>
     </g>
    </g>
    <g id="xtick_20">
     <g id="line2d_61">
      <g>
       <use style="stroke:#000000;" x="323.967154" xlink:href="#mb4735a693f" y="252"/>
      </g>
     </g>
     <g id="line2d_62">
      <g>
       <use style="stroke:#000000;" x="323.967154" xlink:href="#m3f42cd044b" y="179.52"/>
      </g>
     </g>
     <g id="text_16">
      <!-- $\mathdefault{5}$ -->
      <g transform="translate(321.503154 261.798875)scale(0.088 -0.088)">
       <use transform="translate(0 0.390625)" xlink:href="#ArialMT-53"/>
      </g>
     </g>
    </g>
    <g id="xtick_21">
     <g id="line2d_63">
      <g>
       <use style="stroke:#000000;" x="375.121566" xlink:href="#mb4735a693f" y="252"/>
      </g>
     </g>
     <g id="line2d_64">
      <g>
       <use style="stroke:#000000;" x="375.121566" xlink:href="#m3f42cd044b" y="179.52"/>
      </g>
     </g>
     <g id="text_17">
      <!-- $\mathdefault{6}$ -->
      <g transform="translate(372.657566 261.798875)scale(0.088 -0.088)">
       <use transform="translate(0 0.125)" xlink:href="#ArialMT-54"/>
      </g>
     </g>
    </g>
    <g id="text_18">
     <!-- evaluations -->
     <defs>
      <path d="M 21 0 
L 1.265625 51.859375 
L 10.546875 51.859375 
L 21.6875 20.796875 
Q 23.484375 15.765625 25 10.359375 
Q 26.171875 14.453125 28.265625 20.21875 
L 39.796875 51.859375 
L 48.828125 51.859375 
L 29.203125 0 
z
" id="ArialMT-118"/>
      <path d="M 40.4375 6.390625 
Q 35.546875 2.25 31.03125 0.53125 
Q 26.515625 -1.171875 21.34375 -1.171875 
Q 12.796875 -1.171875 8.203125 3 
Q 3.609375 7.171875 3.609375 13.671875 
Q 3.609375 17.484375 5.34375 20.625 
Q 7.078125 23.78125 9.890625 25.6875 
Q 12.703125 27.59375 16.21875 28.5625 
Q 18.796875 29.25 24.03125 29.890625 
Q 34.671875 31.15625 39.703125 32.90625 
Q 39.75 34.71875 39.75 35.203125 
Q 39.75 40.578125 37.25 42.78125 
Q 33.890625 45.75 27.25 45.75 
Q 21.046875 45.75 18.09375 43.578125 
Q 15.140625 41.40625 13.71875 35.890625 
L 5.125 37.0625 
Q 6.296875 42.578125 8.984375 45.96875 
Q 11.671875 49.359375 16.75 51.1875 
Q 21.828125 53.03125 28.515625 53.03125 
Q 35.15625 53.03125 39.296875 51.46875 
Q 43.453125 49.90625 45.40625 47.53125 
Q 47.359375 45.171875 48.140625 41.546875 
Q 48.578125 39.3125 48.578125 33.453125 
L 48.578125 21.734375 
Q 48.578125 9.46875 49.140625 6.21875 
Q 49.703125 2.984375 51.375 0 
L 42.1875 0 
Q 40.828125 2.734375 40.4375 6.390625 
z
M 39.703125 26.03125 
Q 34.90625 24.078125 25.34375 22.703125 
Q 19.921875 21.921875 17.671875 20.9375 
Q 15.4375 19.96875 14.203125 18.09375 
Q 12.984375 16.21875 12.984375 13.921875 
Q 12.984375 10.40625 15.640625 8.0625 
Q 18.3125 5.71875 23.4375 5.71875 
Q 28.515625 5.71875 32.46875 7.9375 
Q 36.421875 10.15625 38.28125 14.015625 
Q 39.703125 17 39.703125 22.796875 
z
" id="ArialMT-97"/>
      <path d="M 6.390625 0 
L 6.390625 71.578125 
L 15.1875 71.578125 
L 15.1875 0 
z
" id="ArialMT-108"/>
      <path d="M 40.578125 0 
L 40.578125 7.625 
Q 34.515625 -1.171875 24.125 -1.171875 
Q 19.53125 -1.171875 15.546875 0.578125 
Q 11.578125 2.34375 9.640625 5 
Q 7.71875 7.671875 6.9375 11.53125 
Q 6.390625 14.109375 6.390625 19.734375 
L 6.390625 51.859375 
L 15.1875 51.859375 
L 15.1875 23.09375 
Q 15.1875 16.21875 15.71875 13.8125 
Q 16.546875 10.359375 19.234375 8.375 
Q 21.921875 6.390625 25.875 6.390625 
Q 29.828125 6.390625 33.296875 8.421875 
Q 36.765625 10.453125 38.203125 13.9375 
Q 39.65625 17.4375 39.65625 24.078125 
L 39.65625 51.859375 
L 48.4375 51.859375 
L 48.4375 0 
z
" id="ArialMT-117"/>
      <path d="M 3.328125 25.921875 
Q 3.328125 40.328125 11.328125 47.265625 
Q 18.015625 53.03125 27.640625 53.03125 
Q 38.328125 53.03125 45.109375 46.015625 
Q 51.90625 39.015625 51.90625 26.65625 
Q 51.90625 16.65625 48.90625 10.90625 
Q 45.90625 5.171875 40.15625 2 
Q 34.421875 -1.171875 27.640625 -1.171875 
Q 16.75 -1.171875 10.03125 5.8125 
Q 3.328125 12.796875 3.328125 25.921875 
z
M 12.359375 25.921875 
Q 12.359375 15.96875 16.703125 11.015625 
Q 21.046875 6.0625 27.640625 6.0625 
Q 34.1875 6.0625 38.53125 11.03125 
Q 42.875 16.015625 42.875 26.21875 
Q 42.875 35.84375 38.5 40.796875 
Q 34.125 45.75 27.640625 45.75 
Q 21.046875 45.75 16.703125 40.8125 
Q 12.359375 35.890625 12.359375 25.921875 
z
" id="ArialMT-111"/>
     </defs>
     <g transform="translate(197.118 274.419375)scale(0.096 -0.096)">
      <use xlink:href="#ArialMT-101"/>
      <use x="55.615234" xlink:href="#ArialMT-118"/>
      <use x="105.615234" xlink:href="#ArialMT-97"/>
      <use x="161.230469" xlink:href="#ArialMT-108"/>
      <use x="183.447266" xlink:href="#ArialMT-117"/>
      <use x="239.0625" xlink:href="#ArialMT-97"/>
      <use x="294.677734" xlink:href="#ArialMT-116"/>
      <use x="322.460938" xlink:href="#ArialMT-105"/>
      <use x="344.677734" xlink:href="#ArialMT-111"/>
      <use x="400.292969" xlink:href="#ArialMT-110"/>
      <use x="455.908203" xlink:href="#ArialMT-115"/>
     </g>
    </g>
    <g id="text_19">
     <!-- $\times\mathdefault{10^{4}}\mathdefault{}$ -->
     <defs>
      <path d="M 70.125 53.71875 
L 47.796875 31.296875 
L 70.125 8.984375 
L 64.3125 3.078125 
L 41.890625 25.484375 
L 19.484375 3.078125 
L 13.71875 8.984375 
L 35.984375 31.296875 
L 13.71875 53.71875 
L 19.484375 59.625 
L 41.890625 37.203125 
L 64.3125 59.625 
z
" id="DejaVuSans-215"/>
     </defs>
     <g transform="translate(367.592 275.534875)scale(0.088 -0.088)">
      <use transform="translate(0 0.201563)" xlink:href="#DejaVuSans-215"/>
      <use transform="translate(83.789062 0.201563)" xlink:href="#ArialMT-49"/>
      <use transform="translate(139.404297 0.201563)" xlink:href="#ArialMT-48"/>
      <use transform="translate(196.761875 69.895313)scale(0.7)" xlink:href="#ArialMT-52"/>
     </g>
    </g>
   </g>
   <g id="matplotlib.axis_6">
    <g id="ytick_7">
     <g id="line2d_65">
      <g>
       <use style="stroke:#000000;" x="54" xlink:href="#meeb22d9a5d" y="247.145867"/>
      </g>
     </g>
     <g id="line2d_66">
      <g>
       <use style="stroke:#000000;" x="388.8" xlink:href="#mdc0a9dbee9" y="247.145867"/>
      </g>
     </g>
     <g id="text_20">
      <!-- 0.5 -->
      <g transform="translate(38.268 250.295305)scale(0.088 -0.088)">
       <use xlink:href="#ArialMT-48"/>
       <use x="55.615234" xlink:href="#ArialMT-46"/>
       <use x="83.398438" xlink:href="#ArialMT-53"/>
      </g>
     </g>
    </g>
    <g id="ytick_8">
     <g id="line2d_67">
      <g>
       <use style="stroke:#000000;" x="54" xlink:href="#meeb22d9a5d" y="221.078354"/>
      </g>
     </g>
     <g id="line2d_68">
      <g>
       <use style="stroke:#000000;" x="388.8" xlink:href="#mdc0a9dbee9" y="221.078354"/>
      </g>
     </g>
     <g id="text_21">
      <!-- 0.6 -->
      <g transform="translate(38.268 224.227792)scale(0.088 -0.088)">
       <use xlink:href="#ArialMT-48"/>
       <use x="55.615234" xlink:href="#ArialMT-46"/>
       <use x="83.398438" xlink:href="#ArialMT-54"/>
      </g>
     </g>
    </g>
    <g id="ytick_9">
     <g id="line2d_69">
      <g>
       <use style="stroke:#000000;" x="54" xlink:href="#meeb22d9a5d" y="195.010841"/>
      </g>
     </g>
     <g id="line2d_70">
      <g>
       <use style="stroke:#000000;" x="388.8" xlink:href="#mdc0a9dbee9" y="195.010841"/>
      </g>
     </g>
     <g id="text_22">
      <!-- 0.7 -->
      <defs>
       <path d="M 4.734375 62.203125 
L 4.734375 70.65625 
L 51.078125 70.65625 
L 51.078125 63.8125 
Q 44.234375 56.546875 37.515625 44.484375 
Q 30.8125 32.421875 27.15625 19.671875 
Q 24.515625 10.6875 23.78125 0 
L 14.75 0 
Q 14.890625 8.453125 18.0625 20.40625 
Q 21.234375 32.375 27.171875 43.484375 
Q 33.109375 54.59375 39.796875 62.203125 
z
" id="ArialMT-55"/>
      </defs>
      <g transform="translate(38.268 198.160278)scale(0.088 -0.088)">
       <use xlink:href="#ArialMT-48"/>
       <use x="55.615234" xlink:href="#ArialMT-46"/>
       <use x="83.398438" xlink:href="#ArialMT-55"/>
      </g>
     </g>
    </g>
    <g id="text_23">
     <!-- $CR$ -->
     <defs>
      <path d="M 69.484375 67.28125 
L 67.484375 56.890625 
Q 62.796875 61.625 57.546875 63.921875 
Q 52.296875 66.21875 46.1875 66.21875 
Q 37.84375 66.21875 31.515625 62.203125 
Q 25.203125 58.203125 20.609375 50 
Q 17.671875 44.734375 16.125 38.84375 
Q 14.59375 32.953125 14.59375 27 
Q 14.59375 17.046875 19.75 11.8125 
Q 24.90625 6.59375 34.71875 6.59375 
Q 41.5 6.59375 47.75 8.765625 
Q 54 10.9375 59.90625 15.28125 
L 57.625 3.609375 
Q 51.8125 1.125 45.875 -0.140625 
Q 39.9375 -1.421875 33.984375 -1.421875 
Q 19.96875 -1.421875 12.078125 6.1875 
Q 4.203125 13.8125 4.203125 27.390625 
Q 4.203125 36.078125 7.203125 44.46875 
Q 10.203125 52.875 15.828125 59.8125 
Q 21.78125 67.1875 29.421875 70.703125 
Q 37.0625 74.21875 47.21875 74.21875 
Q 53.46875 74.21875 59.0625 72.484375 
Q 64.65625 70.75 69.484375 67.28125 
z
" id="DejaVuSans-Oblique-67"/>
      <path d="M 25.203125 64.796875 
L 20.21875 38.921875 
L 32.90625 38.921875 
Q 40.375 38.921875 44.984375 43.046875 
Q 49.609375 47.171875 49.609375 53.8125 
Q 49.609375 59.125 46.5 61.953125 
Q 43.40625 64.796875 37.59375 64.796875 
z
M 43.3125 35.015625 
Q 46.4375 34.28125 48.515625 31.390625 
Q 50.59375 28.515625 53.328125 19.921875 
L 59.515625 0 
L 49.125 0 
L 43.40625 18.703125 
Q 41.21875 25.921875 38.328125 28.359375 
Q 35.453125 30.8125 29.5 30.8125 
L 18.609375 30.8125 
L 12.59375 0 
L 2.6875 0 
L 16.890625 72.90625 
L 39.109375 72.90625 
Q 49.21875 72.90625 54.609375 68.328125 
Q 60.015625 63.765625 60.015625 55.171875 
Q 60.015625 47.5625 55.421875 41.984375 
Q 50.828125 36.421875 43.3125 35.015625 
z
" id="DejaVuSans-Oblique-82"/>
     </defs>
     <g transform="translate(32.36 222.48)rotate(-90)scale(0.096 -0.096)">
      <use transform="translate(0 0.78125)" xlink:href="#DejaVuSans-Oblique-67"/>
      <use transform="translate(69.824219 0.78125)" xlink:href="#DejaVuSans-Oblique-82"/>
     </g>
    </g>
   </g>
   <g id="patch_15">
    <path d="M 54 252 
L 54 179.52 
" style="fill:none;stroke:#000000;stroke-linecap:square;stroke-linejoin:miter;"/>
   </g>
   <g id="patch_16">
    <path d="M 388.8 252 
L 388.8 179.52 
" style="fill:none;stroke:#000000;stroke-linecap:square;stroke-linejoin:miter;"/>
   </g>
   <g id="patch_17">
    <path d="M 54 252 
L 388.8 252 
" style="fill:none;stroke:#000000;stroke-linecap:square;stroke-linejoin:miter;"/>
   </g>
   <g id="patch_18">
    <path d="M 54 179.52 
L 388.8 179.52 
" style="fill:none;stroke:#000000;stroke-linecap:square;stroke-linejoin:miter;"/>
   </g>
  </g>
 </g>
 <defs>
  <clipPath id="p83c18d167d">
   <rect height="72.48" width="334.8" x="54" y="34.56"/>
  </clipPath>
  <clipPath id="p2ca82a8534">
   <rect height="72.48" width="334.8" x="54" y="107.04"/>
  </clipPath>
  <clipPath id="p58ec19fec2">
   <rect height="72.48" width="334.8" x="54" y="179.52"/>
  </clipPath>
 </defs>
</svg>
