<?xml version="1.0" encoding="utf-8" standalone="no"?>
<!DOCTYPE svg PUBLIC "-//W3C//DTD SVG 1.1//EN"
  "http://www.w3.org/Graphics/SVG/1.1/DTD/svg11.dtd">
<!-- Created with matplotlib (https://matplotlib.org/) -->
<svg height="288pt" version="1.1" viewBox="0 0 432 288" width="432pt" xmlns="http://www.w3.org/2000/svg" xmlns:xlink="http://www.w3.org/1999/xlink">
 <defs>
  <style type="text/css">
*{stroke-linecap:butt;stroke-linejoin:round;}
  </style>
 </defs>
 <g id="figure_1">
  <g id="patch_1">
   <path d="M 0 288 
L 432 288 
L 432 0 
L 0 0 
z
" style="fill:#ffffff;"/>
  </g>
  <g id="axes_1">
   <g id="patch_2">
    <path d="M 54 107.04 
L 388.8 107.04 
L 388.8 34.56 
L 54 34.56 
z
" style="fill:#ffffff;"/>
   </g>
   <g id="line2d_1">
    <path clip-path="url(#p84af000ed2)" d="M 69.218182 37.854545 
L 70.077553 37.854545 
L 71.796297 38.475628 
L 76.952526 38.563423 
L 79.530641 39.104597 
L 80.390013 39.261386 
L 81.249384 39.261386 
L 82.108756 39.487038 
L 84.68687 39.54348 
L 85.546242 39.718547 
L 89.8431 39.801451 
L 90.702472 40.451622 
L 94.99933 40.524536 
L 95.858701 40.709589 
L 96.718073 41.0133 
L 105.311789 41.243129 
L 107.030532 41.554729 
L 109.608647 41.554729 
L 110.468018 41.823453 
L 111.32739 41.823453 
L 112.186761 42.065373 
L 113.046133 42.13093 
L 113.905505 42.425624 
L 114.764876 42.944065 
L 116.483619 42.944065 
L 117.342991 43.973636 
L 119.061734 43.973636 
L 119.921106 45.363025 
L 127.65545 45.363025 
L 128.514822 45.672409 
L 129.374193 48.690846 
L 135.389794 48.690846 
L 136.249166 49.088506 
L 138.827281 49.088506 
L 139.686652 49.481624 
L 142.264767 49.481624 
L 143.124139 49.660688 
L 143.98351 49.688749 
L 144.842882 50.360964 
L 146.561625 50.360964 
L 147.420997 50.503533 
L 148.280368 50.834663 
L 149.13974 50.868477 
L 149.999111 51.319537 
L 150.858483 51.319537 
L 152.577226 52.108664 
L 154.295969 52.108664 
L 155.155341 52.325255 
L 156.014713 53.044437 
L 157.733456 53.044437 
L 159.452199 53.463717 
L 160.31157 53.969255 
L 161.170942 54.32981 
L 162.889685 54.32981 
L 163.749057 54.604834 
L 164.608428 55.591462 
L 166.327172 55.591462 
L 167.186543 55.95967 
L 168.905286 55.95967 
L 169.764658 56.213408 
L 170.62403 56.223726 
L 171.483401 57.051625 
L 173.202144 57.051625 
L 174.061516 57.699498 
L 175.780259 57.761243 
L 176.639631 58.887261 
L 177.499002 59.511347 
L 180.936489 59.511347 
L 181.79586 59.731738 
L 184.373975 59.731738 
L 185.233347 60.189852 
L 186.95209 60.189852 
L 187.811461 60.480739 
L 189.530205 60.528637 
L 190.389576 60.78244 
L 191.248948 60.796729 
L 192.108319 60.977847 
L 192.967691 61.368982 
L 193.827063 62.079429 
L 195.545806 62.079429 
L 197.264549 62.377671 
L 198.12392 62.682837 
L 198.983292 63.328628 
L 199.842664 63.328628 
L 200.702035 63.810911 
L 202.420778 63.810911 
L 206.717636 64.703545 
L 208.43638 64.703545 
L 209.295751 65.116227 
L 210.155123 65.116227 
L 211.014494 65.435474 
L 211.873866 65.435474 
L 212.733238 66.017101 
L 215.311352 66.204942 
L 216.170724 66.204942 
L 217.889467 66.960767 
L 218.748839 67.327213 
L 220.467582 67.377133 
L 221.326953 67.465386 
L 222.186325 68.215348 
L 225.623811 68.215348 
L 226.483183 68.812224 
L 229.061298 69.254738 
L 229.920669 69.254738 
L 230.780041 69.533647 
L 232.498784 69.59276 
L 233.358156 70.33853 
L 236.795642 70.970155 
L 238.514385 71.914526 
L 239.373757 72.085649 
L 242.811243 72.189212 
L 243.670615 72.48075 
L 244.529986 72.512133 
L 246.24873 73.422682 
L 247.967473 73.453497 
L 248.826844 73.692243 
L 251.404959 73.692243 
L 252.264331 74.683474 
L 253.123702 74.989927 
L 254.842445 74.989927 
L 255.701817 75.831462 
L 260.858047 75.902518 
L 261.717418 76.689159 
L 262.57679 77.046446 
L 263.436161 77.101752 
L 264.295533 77.400458 
L 266.873648 77.508228 
L 267.733019 77.561717 
L 268.592391 78.616239 
L 272.029877 78.66311 
L 272.889249 79.095655 
L 273.74862 79.31029 
L 276.326735 79.31299 
L 278.90485 80.199455 
L 281.482965 80.214035 
L 282.342336 80.391674 
L 283.201708 81.09692 
L 285.779823 81.295738 
L 286.639194 81.592001 
L 287.498566 81.592001 
L 288.357938 82.324221 
L 289.217309 82.324221 
L 290.076681 82.784384 
L 291.795424 82.860547 
L 292.654795 83.498571 
L 293.514167 83.859767 
L 294.373539 84.597568 
L 295.23291 84.597568 
L 296.092282 84.716891 
L 299.529768 84.767799 
L 300.38914 85.41618 
L 301.248511 85.68811 
L 302.107883 85.68811 
L 302.967255 86.366877 
L 305.545369 86.366877 
L 306.404741 86.673977 
L 307.264113 86.673977 
L 308.123484 86.807841 
L 308.982856 87.487934 
L 309.842227 87.656913 
L 310.701599 87.656913 
L 311.56097 88.537743 
L 312.420342 88.537743 
L 313.279714 88.876653 
L 315.857828 88.878828 
L 316.7172 89.464864 
L 318.435943 89.872182 
L 319.295315 90.606581 
L 321.014058 90.606581 
L 321.87343 91.212857 
L 324.451544 91.212857 
L 325.310916 91.510978 
L 326.170288 91.510978 
L 327.029659 91.653207 
L 327.889031 92.227734 
L 330.467145 92.227734 
L 331.326517 92.940396 
L 333.04526 93.037006 
L 334.764003 93.085324 
L 335.623375 93.715228 
L 336.482747 93.933814 
L 337.342118 94.403285 
L 339.060861 94.403285 
L 339.920233 94.836046 
L 340.779605 94.838239 
L 341.638976 95.268784 
L 342.498348 95.294976 
L 343.357719 95.629561 
L 345.076463 95.722459 
L 345.935834 95.741018 
L 348.513949 96.334412 
L 349.37332 96.932853 
L 350.232692 96.932853 
L 351.092064 97.108319 
L 351.951435 97.571242 
L 353.670178 97.571242 
L 354.52955 97.727801 
L 357.107665 97.802745 
L 357.967036 99.102338 
L 359.68578 99.102338 
L 360.545151 99.711604 
L 361.404523 99.711604 
L 363.123266 99.96476 
L 364.842009 100.028378 
L 365.701381 100.853463 
L 367.420124 100.904828 
L 369.138867 101.524625 
L 369.998239 101.524625 
L 370.85761 102.081317 
L 371.716982 102.086596 
L 372.576353 102.277791 
L 373.435725 102.277791 
L 373.581818 103.745455 
L 373.581818 103.745455 
" style="fill:none;stroke:#1ac938;stroke-linecap:round;stroke-width:1.2;"/>
   </g>
   <g id="line2d_2">
    <path clip-path="url(#p84af000ed2)" d="M 69.218182 37.962902 
L 70.077553 38.125981 
L 70.936925 38.164745 
L 71.796297 38.244929 
L 72.655668 38.400778 
L 73.51504 38.978704 
L 74.374411 38.978704 
L 75.233783 39.62706 
L 76.093155 39.62706 
L 76.952526 39.62706 
L 77.811898 39.816612 
L 78.671269 39.816612 
L 79.530641 40.513325 
L 80.390013 40.513325 
L 81.249384 41.000946 
L 82.108756 41.000946 
L 82.968127 41.732391 
L 83.827499 41.732391 
L 84.68687 41.776512 
L 85.546242 41.776512 
L 86.405614 42.254985 
L 87.264985 42.254985 
L 88.124357 42.557253 
L 88.983728 42.903008 
L 89.8431 43.033642 
L 90.702472 43.747752 
L 91.561843 44.141208 
L 92.421215 44.600441 
L 93.280586 44.693137 
L 94.139958 44.693137 
L 94.163797 289 
" style="fill:none;stroke:#e8000b;stroke-linecap:round;stroke-width:1.2;"/>
   </g>
   <g id="matplotlib.axis_1">
    <g id="xtick_1">
     <g id="line2d_3">
      <defs>
       <path d="M 0 0 
L 0 -3 
" id="m7de0928ce7" style="stroke:#000000;"/>
      </defs>
      <g>
       <use style="stroke:#000000;" x="67.499439" xlink:href="#m7de0928ce7" y="107.04"/>
      </g>
     </g>
     <g id="line2d_4">
      <defs>
       <path d="M 0 0 
L 0 3 
" id="m04b75c7160" style="stroke:#000000;"/>
      </defs>
      <g>
       <use style="stroke:#000000;" x="67.499439" xlink:href="#m04b75c7160" y="34.56"/>
      </g>
     </g>
    </g>
    <g id="xtick_2">
     <g id="line2d_5">
      <g>
       <use style="stroke:#000000;" x="110.468018" xlink:href="#m7de0928ce7" y="107.04"/>
      </g>
     </g>
     <g id="line2d_6">
      <g>
       <use style="stroke:#000000;" x="110.468018" xlink:href="#m04b75c7160" y="34.56"/>
      </g>
     </g>
    </g>
    <g id="xtick_3">
     <g id="line2d_7">
      <g>
       <use style="stroke:#000000;" x="153.436598" xlink:href="#m7de0928ce7" y="107.04"/>
      </g>
     </g>
     <g id="line2d_8">
      <g>
       <use style="stroke:#000000;" x="153.436598" xlink:href="#m04b75c7160" y="34.56"/>
      </g>
     </g>
    </g>
    <g id="xtick_4">
     <g id="line2d_9">
      <g>
       <use style="stroke:#000000;" x="196.405177" xlink:href="#m7de0928ce7" y="107.04"/>
      </g>
     </g>
     <g id="line2d_10">
      <g>
       <use style="stroke:#000000;" x="196.405177" xlink:href="#m04b75c7160" y="34.56"/>
      </g>
     </g>
    </g>
    <g id="xtick_5">
     <g id="line2d_11">
      <g>
       <use style="stroke:#000000;" x="239.373757" xlink:href="#m7de0928ce7" y="107.04"/>
      </g>
     </g>
     <g id="line2d_12">
      <g>
       <use style="stroke:#000000;" x="239.373757" xlink:href="#m04b75c7160" y="34.56"/>
      </g>
     </g>
    </g>
    <g id="xtick_6">
     <g id="line2d_13">
      <g>
       <use style="stroke:#000000;" x="282.342336" xlink:href="#m7de0928ce7" y="107.04"/>
      </g>
     </g>
     <g id="line2d_14">
      <g>
       <use style="stroke:#000000;" x="282.342336" xlink:href="#m04b75c7160" y="34.56"/>
      </g>
     </g>
    </g>
    <g id="xtick_7">
     <g id="line2d_15">
      <g>
       <use style="stroke:#000000;" x="325.310916" xlink:href="#m7de0928ce7" y="107.04"/>
      </g>
     </g>
     <g id="line2d_16">
      <g>
       <use style="stroke:#000000;" x="325.310916" xlink:href="#m04b75c7160" y="34.56"/>
      </g>
     </g>
    </g>
    <g id="xtick_8">
     <g id="line2d_17">
      <g>
       <use style="stroke:#000000;" x="368.279495" xlink:href="#m7de0928ce7" y="107.04"/>
      </g>
     </g>
     <g id="line2d_18">
      <g>
       <use style="stroke:#000000;" x="368.279495" xlink:href="#m04b75c7160" y="34.56"/>
      </g>
     </g>
    </g>
   </g>
   <g id="matplotlib.axis_2">
    <g id="ytick_1">
     <g id="line2d_19">
      <defs>
       <path d="M 0 0 
L 3 0 
" id="mfd19c4c502" style="stroke:#000000;"/>
      </defs>
      <g>
       <use style="stroke:#000000;" x="54" xlink:href="#mfd19c4c502" y="89.037008"/>
      </g>
     </g>
     <g id="line2d_20">
      <defs>
       <path d="M 0 0 
L -3 0 
" id="m90905acc5c" style="stroke:#000000;"/>
      </defs>
      <g>
       <use style="stroke:#000000;" x="388.8" xlink:href="#m90905acc5c" y="89.037008"/>
      </g>
     </g>
     <g id="text_1">
      <!-- $\mathdefault{10^{-9}}$ -->
      <defs>
       <path d="M 37.25 0 
L 28.46875 0 
L 28.46875 56 
Q 25.296875 52.984375 20.140625 49.953125 
Q 14.984375 46.921875 10.890625 45.40625 
L 10.890625 53.90625 
Q 18.265625 57.375 23.78125 62.296875 
Q 29.296875 67.234375 31.59375 71.875 
L 37.25 71.875 
z
" id="ArialMT-49"/>
       <path d="M 4.15625 35.296875 
Q 4.15625 48 6.765625 55.734375 
Q 9.375 63.484375 14.515625 67.671875 
Q 19.671875 71.875 27.484375 71.875 
Q 33.25 71.875 37.59375 69.546875 
Q 41.9375 67.234375 44.765625 62.859375 
Q 47.609375 58.5 49.21875 52.21875 
Q 50.828125 45.953125 50.828125 35.296875 
Q 50.828125 22.703125 48.234375 14.96875 
Q 45.65625 7.234375 40.5 3 
Q 35.359375 -1.21875 27.484375 -1.21875 
Q 17.140625 -1.21875 11.234375 6.203125 
Q 4.15625 15.140625 4.15625 35.296875 
z
M 13.1875 35.296875 
Q 13.1875 17.671875 17.3125 11.828125 
Q 21.4375 6 27.484375 6 
Q 33.546875 6 37.671875 11.859375 
Q 41.796875 17.71875 41.796875 35.296875 
Q 41.796875 52.984375 37.671875 58.78125 
Q 33.546875 64.59375 27.390625 64.59375 
Q 21.34375 64.59375 17.71875 59.46875 
Q 13.1875 52.9375 13.1875 35.296875 
z
" id="ArialMT-48"/>
       <path d="M 52.828125 31.203125 
L 5.5625 31.203125 
L 5.5625 39.40625 
L 52.828125 39.40625 
z
" id="ArialMT-8722"/>
       <path d="M 5.46875 16.546875 
L 13.921875 17.328125 
Q 14.984375 11.375 18.015625 8.6875 
Q 21.046875 6 25.78125 6 
Q 29.828125 6 32.875 7.859375 
Q 35.9375 9.71875 37.890625 12.8125 
Q 39.84375 15.921875 41.15625 21.1875 
Q 42.484375 26.46875 42.484375 31.9375 
Q 42.484375 32.515625 42.4375 33.6875 
Q 39.796875 29.5 35.234375 26.875 
Q 30.671875 24.265625 25.34375 24.265625 
Q 16.453125 24.265625 10.296875 30.703125 
Q 4.15625 37.15625 4.15625 47.703125 
Q 4.15625 58.59375 10.578125 65.234375 
Q 17 71.875 26.65625 71.875 
Q 33.640625 71.875 39.421875 68.109375 
Q 45.21875 64.359375 48.21875 57.390625 
Q 51.21875 50.4375 51.21875 37.25 
Q 51.21875 23.53125 48.234375 15.40625 
Q 45.265625 7.28125 39.375 3.03125 
Q 33.5 -1.21875 25.59375 -1.21875 
Q 17.1875 -1.21875 11.859375 3.4375 
Q 6.546875 8.109375 5.46875 16.546875 
z
M 41.453125 48.140625 
Q 41.453125 55.71875 37.421875 60.15625 
Q 33.40625 64.59375 27.734375 64.59375 
Q 21.875 64.59375 17.53125 59.8125 
Q 13.1875 55.03125 13.1875 47.40625 
Q 13.1875 40.578125 17.3125 36.296875 
Q 21.4375 32.03125 27.484375 32.03125 
Q 33.59375 32.03125 37.515625 36.296875 
Q 41.453125 40.578125 41.453125 48.140625 
z
" id="ArialMT-57"/>
      </defs>
      <g transform="translate(33.076 93.574508)scale(0.088 -0.088)">
       <use transform="translate(0 0.99375)" xlink:href="#ArialMT-49"/>
       <use transform="translate(55.615234 0.99375)" xlink:href="#ArialMT-48"/>
       <use transform="translate(112.972813 70.6875)scale(0.7)" xlink:href="#ArialMT-8722"/>
       <use transform="translate(153.851719 70.6875)scale(0.7)" xlink:href="#ArialMT-57"/>
      </g>
     </g>
    </g>
    <g id="ytick_2">
     <g id="line2d_21">
      <g>
       <use style="stroke:#000000;" x="54" xlink:href="#mfd19c4c502" y="70.020351"/>
      </g>
     </g>
     <g id="line2d_22">
      <g>
       <use style="stroke:#000000;" x="388.8" xlink:href="#m90905acc5c" y="70.020351"/>
      </g>
     </g>
     <g id="text_2">
      <!-- $\mathdefault{10^{-5}}$ -->
      <defs>
       <path d="M 4.15625 18.75 
L 13.375 19.53125 
Q 14.40625 12.796875 18.140625 9.390625 
Q 21.875 6 27.15625 6 
Q 33.5 6 37.890625 10.78125 
Q 42.28125 15.578125 42.28125 23.484375 
Q 42.28125 31 38.0625 35.34375 
Q 33.84375 39.703125 27 39.703125 
Q 22.75 39.703125 19.328125 37.765625 
Q 15.921875 35.84375 13.96875 32.765625 
L 5.71875 33.84375 
L 12.640625 70.609375 
L 48.25 70.609375 
L 48.25 62.203125 
L 19.671875 62.203125 
L 15.828125 42.96875 
Q 22.265625 47.46875 29.34375 47.46875 
Q 38.71875 47.46875 45.15625 40.96875 
Q 51.609375 34.46875 51.609375 24.265625 
Q 51.609375 14.546875 45.953125 7.46875 
Q 39.0625 -1.21875 27.15625 -1.21875 
Q 17.390625 -1.21875 11.203125 4.25 
Q 5.03125 9.71875 4.15625 18.75 
z
" id="ArialMT-53"/>
      </defs>
      <g transform="translate(33.076 74.513851)scale(0.088 -0.088)">
       <use transform="translate(0 0.879688)" xlink:href="#ArialMT-49"/>
       <use transform="translate(55.615234 0.879688)" xlink:href="#ArialMT-48"/>
       <use transform="translate(112.972813 70.573438)scale(0.7)" xlink:href="#ArialMT-8722"/>
       <use transform="translate(153.851719 70.573438)scale(0.7)" xlink:href="#ArialMT-53"/>
      </g>
     </g>
    </g>
    <g id="ytick_3">
     <g id="line2d_23">
      <g>
       <use style="stroke:#000000;" x="54" xlink:href="#mfd19c4c502" y="51.003694"/>
      </g>
     </g>
     <g id="line2d_24">
      <g>
       <use style="stroke:#000000;" x="388.8" xlink:href="#m90905acc5c" y="51.003694"/>
      </g>
     </g>
     <g id="text_3">
      <!-- $\mathdefault{10^{-1}}$ -->
      <g transform="translate(33.076 55.541194)scale(0.088 -0.088)">
       <use transform="translate(0 0.99375)" xlink:href="#ArialMT-49"/>
       <use transform="translate(55.615234 0.99375)" xlink:href="#ArialMT-48"/>
       <use transform="translate(112.972813 70.6875)scale(0.7)" xlink:href="#ArialMT-8722"/>
       <use transform="translate(153.851719 70.6875)scale(0.7)" xlink:href="#ArialMT-49"/>
      </g>
     </g>
    </g>
    <g id="text_4">
     <!-- fitness -->
     <defs>
      <path d="M 8.6875 0 
L 8.6875 45.015625 
L 0.921875 45.015625 
L 0.921875 51.859375 
L 8.6875 51.859375 
L 8.6875 57.375 
Q 8.6875 62.59375 9.625 65.140625 
Q 10.890625 68.5625 14.078125 70.671875 
Q 17.28125 72.796875 23.046875 72.796875 
Q 26.765625 72.796875 31.25 71.921875 
L 29.9375 64.265625 
Q 27.203125 64.75 24.75 64.75 
Q 20.75 64.75 19.09375 63.03125 
Q 17.4375 61.328125 17.4375 56.640625 
L 17.4375 51.859375 
L 27.546875 51.859375 
L 27.546875 45.015625 
L 17.4375 45.015625 
L 17.4375 0 
z
" id="ArialMT-102"/>
      <path d="M 6.640625 61.46875 
L 6.640625 71.578125 
L 15.4375 71.578125 
L 15.4375 61.46875 
z
M 6.640625 0 
L 6.640625 51.859375 
L 15.4375 51.859375 
L 15.4375 0 
z
" id="ArialMT-105"/>
      <path d="M 25.78125 7.859375 
L 27.046875 0.09375 
Q 23.34375 -0.6875 20.40625 -0.6875 
Q 15.625 -0.6875 12.984375 0.828125 
Q 10.359375 2.34375 9.28125 4.8125 
Q 8.203125 7.28125 8.203125 15.1875 
L 8.203125 45.015625 
L 1.765625 45.015625 
L 1.765625 51.859375 
L 8.203125 51.859375 
L 8.203125 64.703125 
L 16.9375 69.96875 
L 16.9375 51.859375 
L 25.78125 51.859375 
L 25.78125 45.015625 
L 16.9375 45.015625 
L 16.9375 14.703125 
Q 16.9375 10.9375 17.40625 9.859375 
Q 17.875 8.796875 18.921875 8.15625 
Q 19.96875 7.515625 21.921875 7.515625 
Q 23.390625 7.515625 25.78125 7.859375 
z
" id="ArialMT-116"/>
      <path d="M 6.59375 0 
L 6.59375 51.859375 
L 14.5 51.859375 
L 14.5 44.484375 
Q 20.21875 53.03125 31 53.03125 
Q 35.6875 53.03125 39.625 51.34375 
Q 43.5625 49.65625 45.515625 46.921875 
Q 47.46875 44.1875 48.25 40.4375 
Q 48.734375 37.984375 48.734375 31.890625 
L 48.734375 0 
L 39.9375 0 
L 39.9375 31.546875 
Q 39.9375 36.921875 38.90625 39.578125 
Q 37.890625 42.234375 35.28125 43.8125 
Q 32.671875 45.40625 29.15625 45.40625 
Q 23.53125 45.40625 19.453125 41.84375 
Q 15.375 38.28125 15.375 28.328125 
L 15.375 0 
z
" id="ArialMT-110"/>
      <path d="M 42.09375 16.703125 
L 51.171875 15.578125 
Q 49.03125 7.625 43.21875 3.21875 
Q 37.40625 -1.171875 28.375 -1.171875 
Q 17 -1.171875 10.328125 5.828125 
Q 3.65625 12.84375 3.65625 25.484375 
Q 3.65625 38.578125 10.390625 45.796875 
Q 17.140625 53.03125 27.875 53.03125 
Q 38.28125 53.03125 44.875 45.953125 
Q 51.46875 38.875 51.46875 26.03125 
Q 51.46875 25.25 51.421875 23.6875 
L 12.75 23.6875 
Q 13.234375 15.140625 17.578125 10.59375 
Q 21.921875 6.0625 28.421875 6.0625 
Q 33.25 6.0625 36.671875 8.59375 
Q 40.09375 11.140625 42.09375 16.703125 
z
M 13.234375 30.90625 
L 42.1875 30.90625 
Q 41.609375 37.453125 38.875 40.71875 
Q 34.671875 45.796875 27.984375 45.796875 
Q 21.921875 45.796875 17.796875 41.75 
Q 13.671875 37.703125 13.234375 30.90625 
z
" id="ArialMT-101"/>
      <path d="M 3.078125 15.484375 
L 11.765625 16.84375 
Q 12.5 11.625 15.84375 8.84375 
Q 19.1875 6.0625 25.203125 6.0625 
Q 31.25 6.0625 34.171875 8.515625 
Q 37.109375 10.984375 37.109375 14.3125 
Q 37.109375 17.28125 34.515625 19 
Q 32.71875 20.171875 25.53125 21.96875 
Q 15.875 24.421875 12.140625 26.203125 
Q 8.40625 27.984375 6.46875 31.125 
Q 4.546875 34.28125 4.546875 38.09375 
Q 4.546875 41.546875 6.125 44.5 
Q 7.71875 47.46875 10.453125 49.421875 
Q 12.5 50.921875 16.03125 51.96875 
Q 19.578125 53.03125 23.640625 53.03125 
Q 29.734375 53.03125 34.34375 51.265625 
Q 38.96875 49.515625 41.15625 46.5 
Q 43.359375 43.5 44.1875 38.484375 
L 35.59375 37.3125 
Q 35.015625 41.3125 32.203125 43.546875 
Q 29.390625 45.796875 24.265625 45.796875 
Q 18.21875 45.796875 15.625 43.796875 
Q 13.03125 41.796875 13.03125 39.109375 
Q 13.03125 37.40625 14.109375 36.03125 
Q 15.1875 34.625 17.484375 33.6875 
Q 18.796875 33.203125 25.25 31.453125 
Q 34.578125 28.953125 38.25 27.359375 
Q 41.9375 25.78125 44.03125 22.75 
Q 46.140625 19.734375 46.140625 15.234375 
Q 46.140625 10.84375 43.578125 6.953125 
Q 41.015625 3.078125 36.171875 0.953125 
Q 31.34375 -1.171875 25.25 -1.171875 
Q 15.140625 -1.171875 9.84375 3.03125 
Q 4.546875 7.234375 3.078125 15.484375 
z
" id="ArialMT-115"/>
     </defs>
     <g transform="translate(27.168 84.672)rotate(-90)scale(0.096 -0.096)">
      <use xlink:href="#ArialMT-102"/>
      <use x="27.783203" xlink:href="#ArialMT-105"/>
      <use x="50" xlink:href="#ArialMT-116"/>
      <use x="77.783203" xlink:href="#ArialMT-110"/>
      <use x="133.398438" xlink:href="#ArialMT-101"/>
      <use x="189.013672" xlink:href="#ArialMT-115"/>
      <use x="239.013672" xlink:href="#ArialMT-115"/>
     </g>
    </g>
   </g>
   <g id="patch_3">
    <path d="M 54 107.04 
L 54 34.56 
" style="fill:none;stroke:#000000;stroke-linecap:square;stroke-linejoin:miter;"/>
   </g>
   <g id="patch_4">
    <path d="M 388.8 107.04 
L 388.8 34.56 
" style="fill:none;stroke:#000000;stroke-linecap:square;stroke-linejoin:miter;"/>
   </g>
   <g id="patch_5">
    <path d="M 54 107.04 
L 388.8 107.04 
" style="fill:none;stroke:#000000;stroke-linecap:square;stroke-linejoin:miter;"/>
   </g>
   <g id="patch_6">
    <path d="M 54 34.56 
L 388.8 34.56 
" style="fill:none;stroke:#000000;stroke-linecap:square;stroke-linejoin:miter;"/>
   </g>
   <g id="legend_1">
    <g id="patch_7">
     <path d="M 343.075125 68.49575 
L 384.64 68.49575 
Q 386.4 68.49575 386.4 66.73575 
L 386.4 42.72 
Q 386.4 40.96 384.64 40.96 
L 343.075125 40.96 
Q 341.315125 40.96 341.315125 42.72 
L 341.315125 66.73575 
Q 341.315125 68.49575 343.075125 68.49575 
z
" style="fill:#4c4c4c;opacity:0.5;stroke:#4c4c4c;stroke-linejoin:miter;stroke-width:0.8;"/>
    </g>
    <g id="patch_8">
     <path d="M 341.075125 66.49575 
L 382.64 66.49575 
Q 384.4 66.49575 384.4 64.73575 
L 384.4 40.72 
Q 384.4 38.96 382.64 38.96 
L 341.075125 38.96 
Q 339.315125 38.96 339.315125 40.72 
L 339.315125 64.73575 
Q 339.315125 66.49575 341.075125 66.49575 
z
" style="fill:#ffffff;stroke:#000000;stroke-linejoin:miter;stroke-width:0.8;"/>
    </g>
    <g id="line2d_25">
     <path d="M 342.835125 45.698875 
L 349.875125 45.698875 
" style="fill:none;stroke:#e8000b;stroke-linecap:round;stroke-width:1.2;"/>
    </g>
    <g id="line2d_26"/>
    <g id="text_5">
     <!-- PEDE -->
     <defs>
      <path d="M 7.71875 0 
L 7.71875 71.578125 
L 34.71875 71.578125 
Q 41.84375 71.578125 45.609375 70.90625 
Q 50.875 70.015625 54.4375 67.546875 
Q 58.015625 65.09375 60.1875 60.640625 
Q 62.359375 56.203125 62.359375 50.875 
Q 62.359375 41.75 56.546875 35.421875 
Q 50.734375 29.109375 35.546875 29.109375 
L 17.1875 29.109375 
L 17.1875 0 
z
M 17.1875 37.546875 
L 35.6875 37.546875 
Q 44.875 37.546875 48.734375 40.96875 
Q 52.59375 44.390625 52.59375 50.59375 
Q 52.59375 55.078125 50.3125 58.265625 
Q 48.046875 61.46875 44.34375 62.5 
Q 41.9375 63.140625 35.5 63.140625 
L 17.1875 63.140625 
z
" id="ArialMT-80"/>
      <path d="M 7.90625 0 
L 7.90625 71.578125 
L 59.671875 71.578125 
L 59.671875 63.140625 
L 17.390625 63.140625 
L 17.390625 41.21875 
L 56.984375 41.21875 
L 56.984375 32.8125 
L 17.390625 32.8125 
L 17.390625 8.453125 
L 61.328125 8.453125 
L 61.328125 0 
z
" id="ArialMT-69"/>
      <path d="M 7.71875 0 
L 7.71875 71.578125 
L 32.375 71.578125 
Q 40.71875 71.578125 45.125 70.5625 
Q 51.265625 69.140625 55.609375 65.4375 
Q 61.28125 60.640625 64.078125 53.1875 
Q 66.890625 45.75 66.890625 36.1875 
Q 66.890625 28.03125 64.984375 21.734375 
Q 63.09375 15.4375 60.109375 11.296875 
Q 57.125 7.171875 53.578125 4.796875 
Q 50.046875 2.4375 45.046875 1.21875 
Q 40.046875 0 33.546875 0 
z
M 17.1875 8.453125 
L 32.46875 8.453125 
Q 39.546875 8.453125 43.578125 9.765625 
Q 47.609375 11.078125 50 13.484375 
Q 53.375 16.84375 55.25 22.53125 
Q 57.125 28.21875 57.125 36.328125 
Q 57.125 47.5625 53.4375 53.59375 
Q 49.75 59.625 44.484375 61.671875 
Q 40.671875 63.140625 32.234375 63.140625 
L 17.1875 63.140625 
z
" id="ArialMT-68"/>
     </defs>
     <g transform="translate(356.915125 48.778875)scale(0.088 -0.088)">
      <use xlink:href="#ArialMT-80"/>
      <use x="66.699219" xlink:href="#ArialMT-69"/>
      <use x="133.398438" xlink:href="#ArialMT-68"/>
      <use x="205.615234" xlink:href="#ArialMT-69"/>
     </g>
    </g>
    <g id="line2d_27">
     <path d="M 342.835125 58.14675 
L 349.875125 58.14675 
" style="fill:none;stroke:#1ac938;stroke-linecap:round;stroke-width:1.2;"/>
    </g>
    <g id="line2d_28"/>
    <g id="text_6">
     <!-- JADE -->
     <defs>
      <path d="M 2.875 20.3125 
L 11.421875 21.484375 
Q 11.765625 13.28125 14.5 10.25 
Q 17.234375 7.234375 22.078125 7.234375 
Q 25.640625 7.234375 28.21875 8.859375 
Q 30.8125 10.5 31.78125 13.296875 
Q 32.765625 16.109375 32.765625 22.265625 
L 32.765625 71.578125 
L 42.234375 71.578125 
L 42.234375 22.796875 
Q 42.234375 13.8125 40.0625 8.875 
Q 37.890625 3.953125 33.171875 1.359375 
Q 28.46875 -1.21875 22.125 -1.21875 
Q 12.703125 -1.21875 7.6875 4.203125 
Q 2.6875 9.625 2.875 20.3125 
z
" id="ArialMT-74"/>
      <path d="M -0.140625 0 
L 27.34375 71.578125 
L 37.546875 71.578125 
L 66.84375 0 
L 56.0625 0 
L 47.703125 21.6875 
L 17.78125 21.6875 
L 9.90625 0 
z
M 20.515625 29.390625 
L 44.78125 29.390625 
L 37.3125 49.21875 
Q 33.890625 58.25 32.234375 64.0625 
Q 30.859375 57.171875 28.375 50.390625 
z
" id="ArialMT-65"/>
     </defs>
     <g transform="translate(356.915125 61.22675)scale(0.088 -0.088)">
      <use xlink:href="#ArialMT-74"/>
      <use x="50" xlink:href="#ArialMT-65"/>
      <use x="116.699219" xlink:href="#ArialMT-68"/>
      <use x="188.916016" xlink:href="#ArialMT-69"/>
     </g>
    </g>
   </g>
  </g>
  <g id="axes_2">
   <g id="patch_9">
    <path d="M 54 179.52 
L 388.8 179.52 
L 388.8 107.04 
L 54 107.04 
z
" style="fill:#ffffff;"/>
   </g>
   <g id="line2d_29">
    <path clip-path="url(#p57e2f75205)" d="M 69.218182 174.566407 
L 70.077553 174.170153 
L 70.936925 171.466691 
L 72.655668 163.990314 
L 73.51504 165.027973 
L 74.374411 167.748258 
L 75.233783 157.740539 
L 76.093155 156.320343 
L 76.952526 158.172359 
L 77.811898 158.8492 
L 78.671269 152.563572 
L 79.530641 147.252442 
L 80.390013 153.069782 
L 81.249384 152.874431 
L 82.108756 149.750582 
L 82.968127 149.286498 
L 83.827499 146.961223 
L 84.68687 153.351664 
L 85.546242 151.026484 
L 86.405614 148.373616 
L 87.264985 148.12219 
L 88.124357 142.46363 
L 88.983728 149.499756 
L 89.8431 146.200949 
L 90.702472 143.511175 
L 91.561843 136.229234 
L 92.421215 145.8565 
L 93.280586 141.920229 
L 94.139958 143.515414 
L 94.99933 131.381836 
L 95.858701 140.744603 
L 96.718073 135.352624 
L 97.577444 137.966317 
L 99.296188 134.200026 
L 100.155559 132.993837 
L 101.014931 141.290863 
L 101.874302 133.719227 
L 102.733674 123.996822 
L 103.593045 132.344548 
L 104.452417 132.532263 
L 105.311789 129.661602 
L 106.17116 128.727084 
L 107.030532 122.873881 
L 107.889903 123.172485 
L 108.749275 127.255244 
L 109.608647 130.216177 
L 111.32739 125.558857 
L 112.186761 127.279255 
L 113.046133 124.233812 
L 113.905505 122.310991 
L 114.764876 121.968324 
L 115.624248 126.982353 
L 116.483619 121.311052 
L 117.342991 126.448507 
L 118.202363 127.732668 
L 119.061734 123.047799 
L 119.921106 118.98836 
L 120.780477 123.089681 
L 121.639849 121.071599 
L 122.49922 127.363569 
L 123.358592 123.678763 
L 124.217964 128.61128 
L 125.077335 116.985578 
L 125.936707 117.582471 
L 126.796078 117.850141 
L 127.65545 117.298604 
L 128.514822 125.828605 
L 129.374193 119.171736 
L 130.233565 119.597365 
L 131.092936 118.093565 
L 131.952308 126.12719 
L 132.81168 123.701537 
L 133.671051 124.121148 
L 134.530423 120.574473 
L 135.389794 125.332239 
L 136.249166 121.170298 
L 137.108538 119.831096 
L 137.967909 121.675901 
L 138.827281 120.720535 
L 139.686652 123.246892 
L 140.546024 121.746541 
L 141.405395 119.899152 
L 142.264767 118.842069 
L 143.124139 118.159945 
L 143.98351 124.920686 
L 144.842882 110.334545 
L 145.702253 122.561524 
L 146.561625 123.825618 
L 147.420997 116.811546 
L 148.280368 116.065322 
L 149.13974 118.767832 
L 149.999111 119.304898 
L 150.858483 113.450235 
L 151.717855 119.315742 
L 152.577226 116.874763 
L 153.436598 114.781809 
L 154.295969 120.029325 
L 155.155341 113.995181 
L 156.014713 116.02298 
L 156.874084 115.351551 
L 157.733456 110.55438 
L 158.592827 113.827133 
L 159.452199 118.887378 
L 160.31157 116.286158 
L 161.170942 121.128592 
L 162.889685 120.142887 
L 163.749057 122.019548 
L 164.608428 124.575654 
L 165.4678 128.305688 
L 166.327172 118.231332 
L 167.186543 120.831844 
L 168.045915 123.90559 
L 168.905286 117.941243 
L 169.764658 123.097941 
L 170.62403 118.284594 
L 171.483401 121.737082 
L 172.342773 122.45173 
L 173.202144 113.50659 
L 174.061516 124.941968 
L 174.920888 125.965407 
L 175.780259 119.583004 
L 176.639631 124.422736 
L 177.499002 123.456346 
L 178.358374 119.730065 
L 179.217745 129.53951 
L 180.077117 122.890285 
L 180.936489 125.81075 
L 181.79586 123.37593 
L 182.655232 126.51236 
L 183.514603 119.708353 
L 184.373975 117.286927 
L 185.233347 123.438779 
L 186.092718 122.296198 
L 186.95209 122.809577 
L 187.811461 120.68419 
L 188.670833 127.470965 
L 189.530205 121.374164 
L 190.389576 114.257407 
L 191.248948 126.703716 
L 192.108319 122.040871 
L 192.967691 123.729996 
L 193.827063 122.089469 
L 194.686434 117.676674 
L 195.545806 126.791196 
L 196.405177 124.483625 
L 197.264549 118.969003 
L 198.12392 120.382093 
L 198.983292 120.923161 
L 199.842664 119.617916 
L 200.702035 123.164556 
L 201.561407 121.173294 
L 202.420778 120.29925 
L 203.28015 117.310337 
L 204.139522 119.640247 
L 204.998893 123.288523 
L 205.858265 122.066799 
L 206.717636 118.482344 
L 207.577008 120.311135 
L 208.43638 116.215636 
L 209.295751 124.080775 
L 210.155123 119.528255 
L 211.014494 118.866731 
L 211.873866 121.670521 
L 212.733238 121.211659 
L 213.592609 121.0335 
L 214.451981 126.650644 
L 215.311352 122.44866 
L 216.170724 123.618141 
L 217.030095 112.480982 
L 217.889467 126.975524 
L 218.748839 122.09338 
L 219.60821 125.701287 
L 220.467582 115.642307 
L 221.326953 119.592498 
L 222.186325 116.788963 
L 223.045697 120.113576 
L 223.905068 124.729475 
L 224.76444 116.570517 
L 225.623811 124.736929 
L 226.483183 119.641098 
L 227.342555 122.949804 
L 228.201926 116.700204 
L 229.061298 118.009652 
L 229.920669 122.440519 
L 230.780041 119.714479 
L 231.639413 122.912636 
L 232.498784 122.471894 
L 233.358156 119.013207 
L 234.217527 119.310739 
L 235.076899 116.156528 
L 235.93627 128.033239 
L 236.795642 119.033476 
L 237.655014 121.462869 
L 238.514385 128.587039 
L 239.373757 122.341233 
L 240.233128 120.472505 
L 241.0925 124.554649 
L 241.951872 121.495989 
L 242.811243 124.931496 
L 243.670615 124.859991 
L 244.529986 116.810626 
L 245.389358 122.991435 
L 246.24873 122.829374 
L 247.108101 118.451228 
L 247.967473 122.391167 
L 248.826844 118.461447 
L 250.545588 134.34603 
L 251.404959 129.204551 
L 252.264331 121.85227 
L 253.123702 119.885615 
L 253.983074 122.360729 
L 254.842445 120.250081 
L 255.701817 123.572452 
L 256.561189 122.852247 
L 257.42056 123.233369 
L 258.279932 126.534424 
L 259.139303 115.939209 
L 259.998675 130.15689 
L 260.858047 126.709122 
L 261.717418 118.986651 
L 262.57679 121.250279 
L 263.436161 123.836246 
L 264.295533 118.538222 
L 265.154905 116.466414 
L 266.014276 127.643669 
L 266.873648 119.218093 
L 267.733019 118.325712 
L 268.592391 123.818169 
L 269.451763 122.898882 
L 270.311134 126.204403 
L 271.170506 122.137872 
L 272.029877 120.122181 
L 272.889249 121.810659 
L 273.74862 126.802146 
L 274.607992 127.959383 
L 275.467364 128.074159 
L 276.326735 127.479787 
L 277.186107 119.452982 
L 278.045478 125.818965 
L 278.90485 117.962462 
L 279.764222 126.262154 
L 280.623593 123.567291 
L 281.482965 120.461873 
L 282.342336 120.368911 
L 283.201708 119.315334 
L 284.06108 123.525496 
L 284.920451 118.638101 
L 285.779823 122.659041 
L 286.639194 122.383871 
L 287.498566 121.434454 
L 288.357938 123.205494 
L 289.217309 119.596313 
L 290.076681 113.080598 
L 290.936052 120.111338 
L 291.795424 121.693181 
L 292.654795 126.477502 
L 293.514167 125.306672 
L 294.373539 116.895166 
L 295.23291 125.425969 
L 296.092282 125.228073 
L 296.951653 123.012788 
L 297.811025 128.49186 
L 298.670397 120.239924 
L 299.529768 122.821815 
L 300.38914 122.735946 
L 301.248511 119.741087 
L 302.967255 125.555833 
L 303.826626 121.452654 
L 304.685998 122.206482 
L 305.545369 125.182914 
L 306.404741 125.677296 
L 307.264113 120.798646 
L 308.123484 117.284472 
L 308.982856 125.365682 
L 309.842227 121.08207 
L 310.701599 125.883214 
L 311.56097 122.614401 
L 312.420342 123.922041 
L 314.139085 116.674448 
L 314.998457 116.515659 
L 315.857828 114.528152 
L 316.7172 122.315283 
L 317.576572 118.813381 
L 318.435943 124.44385 
L 319.295315 119.018599 
L 320.154686 117.295122 
L 321.014058 118.75486 
L 321.87343 117.117862 
L 322.732801 116.856353 
L 323.592173 118.313763 
L 324.451544 118.705026 
L 325.310916 126.86281 
L 326.170288 116.84617 
L 327.029659 117.496614 
L 327.889031 118.970539 
L 328.748402 124.131117 
L 329.607774 120.930762 
L 330.467145 121.767364 
L 331.326517 118.697849 
L 332.185889 121.619748 
L 333.04526 117.64299 
L 333.904632 122.53419 
L 334.764003 120.586659 
L 335.623375 116.614237 
L 336.482747 119.730605 
L 337.342118 121.349831 
L 339.060861 125.998276 
L 339.920233 125.584292 
L 340.779605 115.498269 
L 341.638976 116.278322 
L 342.498348 121.433653 
L 344.217091 123.695908 
L 345.076463 121.343319 
L 345.935834 121.750566 
L 346.795206 123.194815 
L 347.654577 114.725263 
L 348.513949 120.240327 
L 349.37332 117.993768 
L 350.232692 125.695241 
L 351.092064 125.152276 
L 351.951435 121.371684 
L 352.810807 119.935317 
L 353.670178 122.858458 
L 355.388922 113.133705 
L 356.248293 121.238179 
L 357.107665 120.177522 
L 357.967036 118.015366 
L 358.826408 124.088012 
L 359.68578 120.090817 
L 360.545151 120.284245 
L 361.404523 119.759535 
L 362.263894 120.012326 
L 363.123266 119.600513 
L 363.982638 125.152944 
L 364.842009 121.339925 
L 365.701381 112.358056 
L 366.560752 125.400162 
L 367.420124 120.05645 
L 368.279495 129.478189 
L 369.138867 114.910448 
L 369.998239 129.800688 
L 370.85761 126.9882 
L 371.716982 117.261308 
L 372.576353 123.903569 
L 373.435725 120.923196 
L 373.581818 126.11025 
L 373.581818 126.11025 
" style="fill:none;stroke:#1ac938;stroke-linecap:round;stroke-width:1.2;"/>
   </g>
   <g id="line2d_30">
    <path clip-path="url(#p57e2f75205)" d="M 69.218182 176.225455 
L 70.077553 176.225455 
L 70.936925 176.225455 
L 71.796297 176.225455 
L 72.655668 176.225455 
L 73.51504 168.646315 
L 74.374411 168.646315 
L 75.233783 168.646315 
L 76.093155 168.646315 
L 76.952526 168.646315 
L 77.811898 162.082787 
L 78.671269 162.082787 
L 79.530641 162.082787 
L 80.390013 162.082787 
L 81.249384 162.082787 
L 82.108756 164.516116 
L 82.968127 164.516116 
L 83.827499 164.516116 
L 84.68687 164.516116 
L 85.546242 164.516116 
L 86.405614 159.318753 
L 87.264985 159.318753 
L 88.124357 159.318753 
L 88.983728 159.318753 
L 89.8431 159.318753 
L 90.702472 155.121652 
L 91.561843 155.121652 
L 92.421215 155.121652 
L 93.280586 155.121652 
L 94.139958 155.121652 
L 94.604019 150.838364 
" style="fill:none;stroke:#e8000b;stroke-linecap:round;stroke-width:1.2;"/>
   </g>
   <g id="matplotlib.axis_3">
    <g id="xtick_9">
     <g id="line2d_31">
      <g>
       <use style="stroke:#000000;" x="67.499439" xlink:href="#m7de0928ce7" y="179.52"/>
      </g>
     </g>
     <g id="line2d_32">
      <g>
       <use style="stroke:#000000;" x="67.499439" xlink:href="#m04b75c7160" y="107.04"/>
      </g>
     </g>
    </g>
    <g id="xtick_10">
     <g id="line2d_33">
      <g>
       <use style="stroke:#000000;" x="110.468018" xlink:href="#m7de0928ce7" y="179.52"/>
      </g>
     </g>
     <g id="line2d_34">
      <g>
       <use style="stroke:#000000;" x="110.468018" xlink:href="#m04b75c7160" y="107.04"/>
      </g>
     </g>
    </g>
    <g id="xtick_11">
     <g id="line2d_35">
      <g>
       <use style="stroke:#000000;" x="153.436598" xlink:href="#m7de0928ce7" y="179.52"/>
      </g>
     </g>
     <g id="line2d_36">
      <g>
       <use style="stroke:#000000;" x="153.436598" xlink:href="#m04b75c7160" y="107.04"/>
      </g>
     </g>
    </g>
    <g id="xtick_12">
     <g id="line2d_37">
      <g>
       <use style="stroke:#000000;" x="196.405177" xlink:href="#m7de0928ce7" y="179.52"/>
      </g>
     </g>
     <g id="line2d_38">
      <g>
       <use style="stroke:#000000;" x="196.405177" xlink:href="#m04b75c7160" y="107.04"/>
      </g>
     </g>
    </g>
    <g id="xtick_13">
     <g id="line2d_39">
      <g>
       <use style="stroke:#000000;" x="239.373757" xlink:href="#m7de0928ce7" y="179.52"/>
      </g>
     </g>
     <g id="line2d_40">
      <g>
       <use style="stroke:#000000;" x="239.373757" xlink:href="#m04b75c7160" y="107.04"/>
      </g>
     </g>
    </g>
    <g id="xtick_14">
     <g id="line2d_41">
      <g>
       <use style="stroke:#000000;" x="282.342336" xlink:href="#m7de0928ce7" y="179.52"/>
      </g>
     </g>
     <g id="line2d_42">
      <g>
       <use style="stroke:#000000;" x="282.342336" xlink:href="#m04b75c7160" y="107.04"/>
      </g>
     </g>
    </g>
    <g id="xtick_15">
     <g id="line2d_43">
      <g>
       <use style="stroke:#000000;" x="325.310916" xlink:href="#m7de0928ce7" y="179.52"/>
      </g>
     </g>
     <g id="line2d_44">
      <g>
       <use style="stroke:#000000;" x="325.310916" xlink:href="#m04b75c7160" y="107.04"/>
      </g>
     </g>
    </g>
    <g id="xtick_16">
     <g id="line2d_45">
      <g>
       <use style="stroke:#000000;" x="368.279495" xlink:href="#m7de0928ce7" y="179.52"/>
      </g>
     </g>
     <g id="line2d_46">
      <g>
       <use style="stroke:#000000;" x="368.279495" xlink:href="#m04b75c7160" y="107.04"/>
      </g>
     </g>
    </g>
   </g>
   <g id="matplotlib.axis_4">
    <g id="ytick_4">
     <g id="line2d_47">
      <g>
       <use style="stroke:#000000;" x="54" xlink:href="#mfd19c4c502" y="156.23706"/>
      </g>
     </g>
     <g id="line2d_48">
      <g>
       <use style="stroke:#000000;" x="388.8" xlink:href="#m90905acc5c" y="156.23706"/>
      </g>
     </g>
     <g id="text_7">
      <!-- 0.6 -->
      <defs>
       <path d="M 9.078125 0 
L 9.078125 10.015625 
L 19.09375 10.015625 
L 19.09375 0 
z
" id="ArialMT-46"/>
       <path d="M 49.75 54.046875 
L 41.015625 53.375 
Q 39.84375 58.546875 37.703125 60.890625 
Q 34.125 64.65625 28.90625 64.65625 
Q 24.703125 64.65625 21.53125 62.3125 
Q 17.390625 59.28125 14.984375 53.46875 
Q 12.59375 47.65625 12.5 36.921875 
Q 15.671875 41.75 20.265625 44.09375 
Q 24.859375 46.4375 29.890625 46.4375 
Q 38.671875 46.4375 44.84375 39.96875 
Q 51.03125 33.5 51.03125 23.25 
Q 51.03125 16.5 48.125 10.71875 
Q 45.21875 4.9375 40.140625 1.859375 
Q 35.0625 -1.21875 28.609375 -1.21875 
Q 17.625 -1.21875 10.6875 6.859375 
Q 3.765625 14.9375 3.765625 33.5 
Q 3.765625 54.25 11.421875 63.671875 
Q 18.109375 71.875 29.4375 71.875 
Q 37.890625 71.875 43.28125 67.140625 
Q 48.6875 62.40625 49.75 54.046875 
z
M 13.875 23.1875 
Q 13.875 18.65625 15.796875 14.5 
Q 17.71875 10.359375 21.1875 8.171875 
Q 24.65625 6 28.46875 6 
Q 34.03125 6 38.03125 10.484375 
Q 42.046875 14.984375 42.046875 22.703125 
Q 42.046875 30.125 38.078125 34.390625 
Q 34.125 38.671875 28.125 38.671875 
Q 22.171875 38.671875 18.015625 34.390625 
Q 13.875 30.125 13.875 23.1875 
z
" id="ArialMT-54"/>
      </defs>
      <g transform="translate(38.268 159.386497)scale(0.088 -0.088)">
       <use xlink:href="#ArialMT-48"/>
       <use x="55.615234" xlink:href="#ArialMT-46"/>
       <use x="83.398438" xlink:href="#ArialMT-54"/>
      </g>
     </g>
    </g>
    <g id="ytick_5">
     <g id="line2d_49">
      <g>
       <use style="stroke:#000000;" x="54" xlink:href="#mfd19c4c502" y="123.612118"/>
      </g>
     </g>
     <g id="line2d_50">
      <g>
       <use style="stroke:#000000;" x="388.8" xlink:href="#m90905acc5c" y="123.612118"/>
      </g>
     </g>
     <g id="text_8">
      <!-- 0.8 -->
      <defs>
       <path d="M 17.671875 38.8125 
Q 12.203125 40.828125 9.5625 44.53125 
Q 6.9375 48.25 6.9375 53.421875 
Q 6.9375 61.234375 12.546875 66.546875 
Q 18.171875 71.875 27.484375 71.875 
Q 36.859375 71.875 42.578125 66.421875 
Q 48.296875 60.984375 48.296875 53.171875 
Q 48.296875 48.1875 45.671875 44.5 
Q 43.0625 40.828125 37.75 38.8125 
Q 44.34375 36.671875 47.78125 31.875 
Q 51.21875 27.09375 51.21875 20.453125 
Q 51.21875 11.28125 44.71875 5.03125 
Q 38.234375 -1.21875 27.640625 -1.21875 
Q 17.046875 -1.21875 10.546875 5.046875 
Q 4.046875 11.328125 4.046875 20.703125 
Q 4.046875 27.6875 7.59375 32.390625 
Q 11.140625 37.109375 17.671875 38.8125 
z
M 15.921875 53.71875 
Q 15.921875 48.640625 19.1875 45.40625 
Q 22.46875 42.1875 27.6875 42.1875 
Q 32.765625 42.1875 36.015625 45.375 
Q 39.265625 48.578125 39.265625 53.21875 
Q 39.265625 58.0625 35.90625 61.359375 
Q 32.5625 64.65625 27.59375 64.65625 
Q 22.5625 64.65625 19.234375 61.421875 
Q 15.921875 58.203125 15.921875 53.71875 
z
M 13.09375 20.65625 
Q 13.09375 16.890625 14.875 13.375 
Q 16.65625 9.859375 20.171875 7.921875 
Q 23.6875 6 27.734375 6 
Q 34.03125 6 38.125 10.046875 
Q 42.234375 14.109375 42.234375 20.359375 
Q 42.234375 26.703125 38.015625 30.859375 
Q 33.796875 35.015625 27.4375 35.015625 
Q 21.234375 35.015625 17.15625 30.90625 
Q 13.09375 26.8125 13.09375 20.65625 
z
" id="ArialMT-56"/>
      </defs>
      <g transform="translate(38.268 126.761556)scale(0.088 -0.088)">
       <use xlink:href="#ArialMT-48"/>
       <use x="55.615234" xlink:href="#ArialMT-46"/>
       <use x="83.398438" xlink:href="#ArialMT-56"/>
      </g>
     </g>
    </g>
    <g id="text_9">
     <!-- $F$ -->
     <defs>
      <path d="M 16.890625 72.90625 
L 58.6875 72.90625 
L 57.078125 64.59375 
L 25.09375 64.59375 
L 20.90625 43.109375 
L 49.8125 43.109375 
L 48.1875 34.8125 
L 19.28125 34.8125 
L 12.5 0 
L 2.6875 0 
z
" id="DejaVuSans-Oblique-70"/>
     </defs>
     <g transform="translate(32.36 146.064)rotate(-90)scale(0.096 -0.096)">
      <use transform="translate(0 0.09375)" xlink:href="#DejaVuSans-Oblique-70"/>
     </g>
    </g>
   </g>
   <g id="patch_10">
    <path d="M 54 179.52 
L 54 107.04 
" style="fill:none;stroke:#000000;stroke-linecap:square;stroke-linejoin:miter;"/>
   </g>
   <g id="patch_11">
    <path d="M 388.8 179.52 
L 388.8 107.04 
" style="fill:none;stroke:#000000;stroke-linecap:square;stroke-linejoin:miter;"/>
   </g>
   <g id="patch_12">
    <path d="M 54 179.52 
L 388.8 179.52 
" style="fill:none;stroke:#000000;stroke-linecap:square;stroke-linejoin:miter;"/>
   </g>
   <g id="patch_13">
    <path d="M 54 107.04 
L 388.8 107.04 
" style="fill:none;stroke:#000000;stroke-linecap:square;stroke-linejoin:miter;"/>
   </g>
  </g>
  <g id="axes_3">
   <g id="patch_14">
    <path d="M 54 252 
L 388.8 252 
L 388.8 179.52 
L 54 179.52 
z
" style="fill:#ffffff;"/>
   </g>
   <g id="line2d_51">
    <path clip-path="url(#pe3ef9fc81e)" d="M 69.218182 220.656343 
L 70.077553 230.594225 
L 70.936925 222.878247 
L 71.796297 225.508292 
L 72.655668 224.162709 
L 73.51504 225.124154 
L 74.374411 220.199256 
L 75.233783 225.418055 
L 76.093155 221.499062 
L 76.952526 222.507022 
L 77.811898 222.866184 
L 78.671269 225.08598 
L 79.530641 222.8603 
L 80.390013 224.341715 
L 81.249384 230.334985 
L 82.108756 227.194866 
L 82.968127 227.166831 
L 83.827499 224.365937 
L 84.68687 224.409313 
L 85.546242 227.455837 
L 86.405614 227.58878 
L 87.264985 227.467083 
L 88.124357 224.770392 
L 88.983728 230.137552 
L 89.8431 228.513459 
L 90.702472 229.09986 
L 91.561843 230.561735 
L 92.421215 226.865717 
L 93.280586 230.33483 
L 94.139958 229.228275 
L 95.858701 225.23638 
L 96.718073 225.708432 
L 97.577444 232.670047 
L 98.436816 229.80992 
L 99.296188 226.150025 
L 100.155559 225.714509 
L 101.014931 233.1503 
L 101.874302 230.570788 
L 102.733674 231.946656 
L 103.593045 230.988907 
L 104.452417 233.213072 
L 105.311789 230.810992 
L 106.17116 230.483049 
L 107.030532 234.876017 
L 107.889903 232.976662 
L 108.749275 235.262028 
L 109.608647 226.834783 
L 110.468018 238.443985 
L 111.32739 229.009503 
L 112.186761 240.418529 
L 113.046133 237.404062 
L 113.905505 236.255192 
L 114.764876 238.415537 
L 115.624248 235.449873 
L 116.483619 234.96742 
L 117.342991 235.80986 
L 118.202363 236.38301 
L 119.061734 239.938385 
L 119.921106 233.149073 
L 120.780477 242.632553 
L 121.639849 238.228035 
L 122.49922 239.092038 
L 123.358592 242.909212 
L 124.217964 239.480007 
L 125.077335 237.863943 
L 125.936707 243.209655 
L 126.796078 243.309899 
L 127.65545 236.328765 
L 128.514822 244.825557 
L 129.374193 241.836066 
L 130.233565 244.380096 
L 131.092936 242.604585 
L 131.952308 248.295104 
L 132.81168 240.536975 
L 133.671051 241.033145 
L 134.530423 243.866315 
L 136.249166 243.669786 
L 137.108538 240.701387 
L 137.967909 243.968193 
L 138.827281 245.380839 
L 140.546024 240.432822 
L 141.405395 241.68819 
L 142.264767 241.891372 
L 143.124139 241.859039 
L 143.98351 241.343219 
L 144.842882 244.149977 
L 145.702253 248.705455 
L 146.561625 246.620181 
L 147.420997 241.204774 
L 148.280368 237.996373 
L 149.13974 242.437731 
L 149.999111 240.569215 
L 150.858483 247.566879 
L 151.717855 243.156449 
L 153.436598 244.722829 
L 154.295969 241.458655 
L 155.155341 243.078963 
L 156.014713 246.344137 
L 157.733456 243.224109 
L 158.592827 244.369389 
L 159.452199 246.510367 
L 160.31157 246.656031 
L 161.170942 245.644824 
L 162.889685 238.310306 
L 163.749057 238.259946 
L 164.608428 244.201812 
L 165.4678 240.631345 
L 166.327172 245.556084 
L 167.186543 236.632543 
L 168.045915 244.89625 
L 168.905286 241.094829 
L 169.764658 245.872819 
L 170.62403 244.435269 
L 171.483401 243.489906 
L 172.342773 240.808698 
L 173.202144 239.468694 
L 174.061516 242.983927 
L 174.920888 240.749189 
L 175.780259 244.510899 
L 176.639631 239.847153 
L 177.499002 247.051269 
L 178.358374 238.539266 
L 179.217745 244.743513 
L 180.077117 245.097091 
L 180.936489 241.173732 
L 181.79586 244.329122 
L 182.655232 243.050483 
L 183.514603 247.08181 
L 184.373975 235.901371 
L 185.233347 239.659426 
L 186.092718 239.004193 
L 186.95209 242.303617 
L 187.811461 241.14566 
L 188.670833 241.76558 
L 189.530205 238.38558 
L 190.389576 245.366176 
L 191.248948 242.592156 
L 192.108319 244.109281 
L 192.967691 242.329672 
L 193.827063 245.673507 
L 194.686434 240.783666 
L 195.545806 242.536201 
L 196.405177 246.341721 
L 197.264549 245.348145 
L 198.983292 240.604795 
L 199.842664 241.433052 
L 200.702035 241.855672 
L 201.561407 240.9923 
L 202.420778 240.299012 
L 203.28015 243.193396 
L 204.139522 245.623298 
L 204.998893 241.341865 
L 205.858265 240.482528 
L 206.717636 245.358703 
L 207.577008 242.010865 
L 208.43638 236.796354 
L 209.295751 242.073807 
L 210.155123 236.881092 
L 211.014494 245.377585 
L 211.873866 238.514969 
L 212.733238 243.963308 
L 213.592609 243.70936 
L 214.451981 242.682544 
L 215.311352 243.712739 
L 216.170724 239.61616 
L 217.030095 242.318845 
L 217.889467 240.154287 
L 218.748839 242.302617 
L 219.60821 246.457144 
L 221.326953 236.654121 
L 222.186325 244.809967 
L 223.045697 241.009422 
L 223.905068 247.752671 
L 224.76444 241.324225 
L 225.623811 243.072927 
L 226.483183 242.780892 
L 227.342555 242.929465 
L 228.201926 247.076142 
L 229.061298 240.362282 
L 229.920669 241.572335 
L 230.780041 241.849428 
L 231.639413 243.958423 
L 232.498784 241.141084 
L 233.358156 240.787011 
L 234.217527 241.373056 
L 235.076899 240.714784 
L 235.93627 240.632467 
L 236.795642 235.453124 
L 237.655014 241.511321 
L 238.514385 242.121761 
L 239.373757 244.350748 
L 240.233128 241.685007 
L 241.0925 241.460973 
L 241.951872 241.052124 
L 242.811243 235.623451 
L 243.670615 241.0897 
L 244.529986 237.82923 
L 245.389358 242.66605 
L 246.24873 241.815857 
L 247.108101 234.481162 
L 247.967473 237.853319 
L 248.826844 234.200054 
L 249.686216 235.050824 
L 250.545588 238.925613 
L 251.404959 240.396821 
L 252.264331 240.223476 
L 253.123702 239.892069 
L 253.983074 239.399466 
L 254.842445 244.648182 
L 255.701817 245.565579 
L 256.561189 241.360221 
L 257.42056 243.606707 
L 258.279932 240.344511 
L 259.139303 240.249966 
L 259.998675 238.637847 
L 260.858047 243.662743 
L 261.717418 238.830251 
L 262.57679 245.550623 
L 263.436161 242.242344 
L 265.154905 241.211559 
L 266.014276 238.265882 
L 267.733019 241.139364 
L 268.592391 239.719808 
L 269.451763 241.48903 
L 270.311134 234.440795 
L 271.170506 239.772384 
L 272.029877 246.859969 
L 272.889249 244.423344 
L 273.74862 243.105423 
L 274.607992 241.099561 
L 275.467364 240.341594 
L 276.326735 238.891969 
L 277.186107 241.627078 
L 278.045478 240.981178 
L 278.90485 236.469903 
L 279.764222 240.10674 
L 280.623593 240.034993 
L 281.482965 239.424094 
L 282.342336 247.009768 
L 283.201708 237.347209 
L 284.06108 242.707184 
L 284.920451 246.201306 
L 285.779823 240.184339 
L 286.639194 241.9786 
L 287.498566 238.131117 
L 288.357938 239.044819 
L 289.217309 238.094874 
L 290.076681 242.884262 
L 290.936052 239.686353 
L 291.795424 240.995535 
L 292.654795 242.916856 
L 293.514167 241.846151 
L 294.373539 241.079517 
L 295.23291 241.087922 
L 296.092282 237.836842 
L 296.951653 239.33853 
L 297.811025 240.17941 
L 298.670397 242.946635 
L 299.529768 243.085132 
L 300.38914 247.463613 
L 301.248511 242.031017 
L 302.107883 243.468383 
L 302.967255 245.455815 
L 303.826626 233.652099 
L 304.685998 240.69499 
L 305.545369 239.455212 
L 306.404741 242.341812 
L 307.264113 237.046448 
L 308.123484 235.44399 
L 308.982856 242.111254 
L 309.842227 243.352466 
L 310.701599 242.347306 
L 311.56097 241.904003 
L 312.420342 231.031016 
L 313.279714 243.490108 
L 314.139085 236.25119 
L 314.998457 246.755352 
L 315.857828 242.727185 
L 316.7172 236.400121 
L 317.576572 239.353161 
L 318.435943 239.929188 
L 319.295315 237.089515 
L 320.154686 238.413828 
L 321.014058 235.174952 
L 321.87343 237.239237 
L 322.732801 239.965005 
L 323.592173 238.904637 
L 324.451544 237.49001 
L 325.310916 240.428563 
L 326.170288 238.467523 
L 327.029659 245.638355 
L 327.889031 239.203285 
L 328.748402 239.952418 
L 329.607774 243.011663 
L 330.467145 240.743644 
L 331.326517 240.188597 
L 332.185889 244.329448 
L 333.04526 241.080996 
L 333.904632 247.319097 
L 334.764003 240.164645 
L 335.623375 238.366295 
L 336.482747 247.084967 
L 337.342118 246.492075 
L 338.20149 240.436398 
L 339.060861 237.734781 
L 339.920233 243.547339 
L 340.779605 239.545917 
L 341.638976 240.435079 
L 342.498348 244.738922 
L 343.357719 243.103439 
L 344.217091 243.773766 
L 345.076463 246.177915 
L 345.935834 245.030433 
L 346.795206 243.5322 
L 348.513949 243.239733 
L 349.37332 243.549149 
L 350.232692 241.000655 
L 351.092064 244.027052 
L 351.951435 240.522772 
L 352.810807 239.54257 
L 353.670178 242.65305 
L 354.52955 240.073251 
L 355.388922 240.02218 
L 356.248293 237.820631 
L 357.107665 243.844812 
L 357.967036 239.471841 
L 358.826408 240.536223 
L 359.68578 242.202151 
L 360.545151 241.680413 
L 361.404523 239.91125 
L 362.263894 243.155361 
L 363.123266 238.729032 
L 363.982638 237.877084 
L 364.842009 241.785033 
L 365.701381 238.846075 
L 366.560752 244.042842 
L 367.420124 243.927096 
L 368.279495 237.811708 
L 369.138867 239.213815 
L 369.998239 238.212868 
L 370.85761 243.453445 
L 371.716982 239.32685 
L 372.576353 240.001782 
L 373.435725 241.214822 
L 373.581818 244.575376 
L 373.581818 244.575376 
" style="fill:none;stroke:#1ac938;stroke-linecap:round;stroke-width:1.2;"/>
   </g>
   <g id="line2d_52">
    <path clip-path="url(#pe3ef9fc81e)" d="M 69.218182 218.452335 
L 70.077553 218.452335 
L 70.936925 218.452335 
L 71.796297 218.452335 
L 72.655668 218.452335 
L 73.51504 207.034664 
L 74.374411 207.034664 
L 75.233783 207.034664 
L 76.093155 207.034664 
L 76.952526 207.034664 
L 77.811898 208.511733 
L 78.671269 208.511733 
L 79.530641 208.511733 
L 80.390013 208.511733 
L 81.249384 208.511733 
L 82.108756 200.619412 
L 82.968127 200.619412 
L 83.827499 200.619412 
L 84.68687 200.619412 
L 85.546242 200.619412 
L 86.405614 187.554528 
L 87.264985 187.554528 
L 88.124357 187.554528 
L 88.983728 187.554528 
L 89.8431 187.554528 
L 90.702472 190.549379 
L 91.561843 190.549379 
L 92.421215 190.549379 
L 93.280586 190.549379 
L 94.139958 190.549379 
L 94.604019 182.814545 
" style="fill:none;stroke:#e8000b;stroke-linecap:round;stroke-width:1.2;"/>
   </g>
   <g id="matplotlib.axis_5">
    <g id="xtick_17">
     <g id="line2d_53">
      <g>
       <use style="stroke:#000000;" x="67.499439" xlink:href="#m7de0928ce7" y="252"/>
      </g>
     </g>
     <g id="line2d_54">
      <g>
       <use style="stroke:#000000;" x="67.499439" xlink:href="#m04b75c7160" y="179.52"/>
      </g>
     </g>
     <g id="text_10">
      <!-- $\mathdefault{0.0}$ -->
      <g transform="translate(61.339439 261.798875)scale(0.088 -0.088)">
       <use transform="translate(0 0.125)" xlink:href="#ArialMT-48"/>
       <use transform="translate(55.615234 0.125)" xlink:href="#ArialMT-46"/>
       <use transform="translate(83.398438 0.125)" xlink:href="#ArialMT-48"/>
      </g>
     </g>
    </g>
    <g id="xtick_18">
     <g id="line2d_55">
      <g>
       <use style="stroke:#000000;" x="110.468018" xlink:href="#m7de0928ce7" y="252"/>
      </g>
     </g>
     <g id="line2d_56">
      <g>
       <use style="stroke:#000000;" x="110.468018" xlink:href="#m04b75c7160" y="179.52"/>
      </g>
     </g>
     <g id="text_11">
      <!-- $\mathdefault{0.5}$ -->
      <g transform="translate(104.308018 261.798875)scale(0.088 -0.088)">
       <use transform="translate(0 0.125)" xlink:href="#ArialMT-48"/>
       <use transform="translate(55.615234 0.125)" xlink:href="#ArialMT-46"/>
       <use transform="translate(83.398438 0.125)" xlink:href="#ArialMT-53"/>
      </g>
     </g>
    </g>
    <g id="xtick_19">
     <g id="line2d_57">
      <g>
       <use style="stroke:#000000;" x="153.436598" xlink:href="#m7de0928ce7" y="252"/>
      </g>
     </g>
     <g id="line2d_58">
      <g>
       <use style="stroke:#000000;" x="153.436598" xlink:href="#m04b75c7160" y="179.52"/>
      </g>
     </g>
     <g id="text_12">
      <!-- $\mathdefault{1.0}$ -->
      <g transform="translate(147.276598 261.798875)scale(0.088 -0.088)">
       <use transform="translate(0 0.125)" xlink:href="#ArialMT-49"/>
       <use transform="translate(55.615234 0.125)" xlink:href="#ArialMT-46"/>
       <use transform="translate(83.398438 0.125)" xlink:href="#ArialMT-48"/>
      </g>
     </g>
    </g>
    <g id="xtick_20">
     <g id="line2d_59">
      <g>
       <use style="stroke:#000000;" x="196.405177" xlink:href="#m7de0928ce7" y="252"/>
      </g>
     </g>
     <g id="line2d_60">
      <g>
       <use style="stroke:#000000;" x="196.405177" xlink:href="#m04b75c7160" y="179.52"/>
      </g>
     </g>
     <g id="text_13">
      <!-- $\mathdefault{1.5}$ -->
      <g transform="translate(190.245177 261.798875)scale(0.088 -0.088)">
       <use transform="translate(0 0.125)" xlink:href="#ArialMT-49"/>
       <use transform="translate(55.615234 0.125)" xlink:href="#ArialMT-46"/>
       <use transform="translate(83.398438 0.125)" xlink:href="#ArialMT-53"/>
      </g>
     </g>
    </g>
    <g id="xtick_21">
     <g id="line2d_61">
      <g>
       <use style="stroke:#000000;" x="239.373757" xlink:href="#m7de0928ce7" y="252"/>
      </g>
     </g>
     <g id="line2d_62">
      <g>
       <use style="stroke:#000000;" x="239.373757" xlink:href="#m04b75c7160" y="179.52"/>
      </g>
     </g>
     <g id="text_14">
      <!-- $\mathdefault{2.0}$ -->
      <defs>
       <path d="M 50.34375 8.453125 
L 50.34375 0 
L 3.03125 0 
Q 2.9375 3.171875 4.046875 6.109375 
Q 5.859375 10.9375 9.828125 15.625 
Q 13.8125 20.3125 21.34375 26.46875 
Q 33.015625 36.03125 37.109375 41.625 
Q 41.21875 47.21875 41.21875 52.203125 
Q 41.21875 57.421875 37.46875 61 
Q 33.734375 64.59375 27.734375 64.59375 
Q 21.390625 64.59375 17.578125 60.78125 
Q 13.765625 56.984375 13.71875 50.25 
L 4.6875 51.171875 
Q 5.609375 61.28125 11.65625 66.578125 
Q 17.71875 71.875 27.9375 71.875 
Q 38.234375 71.875 44.234375 66.15625 
Q 50.25 60.453125 50.25 52 
Q 50.25 47.703125 48.484375 43.546875 
Q 46.734375 39.40625 42.65625 34.8125 
Q 38.578125 30.21875 29.109375 22.21875 
Q 21.1875 15.578125 18.9375 13.203125 
Q 16.703125 10.84375 15.234375 8.453125 
z
" id="ArialMT-50"/>
      </defs>
      <g transform="translate(233.213757 261.798875)scale(0.088 -0.088)">
       <use transform="translate(0 0.125)" xlink:href="#ArialMT-50"/>
       <use transform="translate(55.615234 0.125)" xlink:href="#ArialMT-46"/>
       <use transform="translate(83.398438 0.125)" xlink:href="#ArialMT-48"/>
      </g>
     </g>
    </g>
    <g id="xtick_22">
     <g id="line2d_63">
      <g>
       <use style="stroke:#000000;" x="282.342336" xlink:href="#m7de0928ce7" y="252"/>
      </g>
     </g>
     <g id="line2d_64">
      <g>
       <use style="stroke:#000000;" x="282.342336" xlink:href="#m04b75c7160" y="179.52"/>
      </g>
     </g>
     <g id="text_15">
      <!-- $\mathdefault{2.5}$ -->
      <g transform="translate(276.182336 261.798875)scale(0.088 -0.088)">
       <use transform="translate(0 0.125)" xlink:href="#ArialMT-50"/>
       <use transform="translate(55.615234 0.125)" xlink:href="#ArialMT-46"/>
       <use transform="translate(83.398438 0.125)" xlink:href="#ArialMT-53"/>
      </g>
     </g>
    </g>
    <g id="xtick_23">
     <g id="line2d_65">
      <g>
       <use style="stroke:#000000;" x="325.310916" xlink:href="#m7de0928ce7" y="252"/>
      </g>
     </g>
     <g id="line2d_66">
      <g>
       <use style="stroke:#000000;" x="325.310916" xlink:href="#m04b75c7160" y="179.52"/>
      </g>
     </g>
     <g id="text_16">
      <!-- $\mathdefault{3.0}$ -->
      <defs>
       <path d="M 4.203125 18.890625 
L 12.984375 20.0625 
Q 14.5 12.59375 18.140625 9.296875 
Q 21.78125 6 27 6 
Q 33.203125 6 37.46875 10.296875 
Q 41.75 14.59375 41.75 20.953125 
Q 41.75 27 37.796875 30.921875 
Q 33.84375 34.859375 27.734375 34.859375 
Q 25.25 34.859375 21.53125 33.890625 
L 22.515625 41.609375 
Q 23.390625 41.5 23.921875 41.5 
Q 29.546875 41.5 34.03125 44.421875 
Q 38.53125 47.359375 38.53125 53.46875 
Q 38.53125 58.296875 35.25 61.46875 
Q 31.984375 64.65625 26.8125 64.65625 
Q 21.6875 64.65625 18.265625 61.421875 
Q 14.84375 58.203125 13.875 51.765625 
L 5.078125 53.328125 
Q 6.6875 62.15625 12.390625 67.015625 
Q 18.109375 71.875 26.609375 71.875 
Q 32.46875 71.875 37.390625 69.359375 
Q 42.328125 66.84375 44.9375 62.5 
Q 47.5625 58.15625 47.5625 53.265625 
Q 47.5625 48.640625 45.0625 44.828125 
Q 42.578125 41.015625 37.703125 38.765625 
Q 44.046875 37.3125 47.5625 32.6875 
Q 51.078125 28.078125 51.078125 21.140625 
Q 51.078125 11.765625 44.234375 5.25 
Q 37.40625 -1.265625 26.953125 -1.265625 
Q 17.53125 -1.265625 11.296875 4.34375 
Q 5.078125 9.96875 4.203125 18.890625 
z
" id="ArialMT-51"/>
      </defs>
      <g transform="translate(319.150916 261.798875)scale(0.088 -0.088)">
       <use transform="translate(0 0.125)" xlink:href="#ArialMT-51"/>
       <use transform="translate(55.615234 0.125)" xlink:href="#ArialMT-46"/>
       <use transform="translate(83.398438 0.125)" xlink:href="#ArialMT-48"/>
      </g>
     </g>
    </g>
    <g id="xtick_24">
     <g id="line2d_67">
      <g>
       <use style="stroke:#000000;" x="368.279495" xlink:href="#m7de0928ce7" y="252"/>
      </g>
     </g>
     <g id="line2d_68">
      <g>
       <use style="stroke:#000000;" x="368.279495" xlink:href="#m04b75c7160" y="179.52"/>
      </g>
     </g>
     <g id="text_17">
      <!-- $\mathdefault{3.5}$ -->
      <g transform="translate(362.119495 261.798875)scale(0.088 -0.088)">
       <use transform="translate(0 0.125)" xlink:href="#ArialMT-51"/>
       <use transform="translate(55.615234 0.125)" xlink:href="#ArialMT-46"/>
       <use transform="translate(83.398438 0.125)" xlink:href="#ArialMT-53"/>
      </g>
     </g>
    </g>
    <g id="text_18">
     <!-- evaluations -->
     <defs>
      <path d="M 21 0 
L 1.265625 51.859375 
L 10.546875 51.859375 
L 21.6875 20.796875 
Q 23.484375 15.765625 25 10.359375 
Q 26.171875 14.453125 28.265625 20.21875 
L 39.796875 51.859375 
L 48.828125 51.859375 
L 29.203125 0 
z
" id="ArialMT-118"/>
      <path d="M 40.4375 6.390625 
Q 35.546875 2.25 31.03125 0.53125 
Q 26.515625 -1.171875 21.34375 -1.171875 
Q 12.796875 -1.171875 8.203125 3 
Q 3.609375 7.171875 3.609375 13.671875 
Q 3.609375 17.484375 5.34375 20.625 
Q 7.078125 23.78125 9.890625 25.6875 
Q 12.703125 27.59375 16.21875 28.5625 
Q 18.796875 29.25 24.03125 29.890625 
Q 34.671875 31.15625 39.703125 32.90625 
Q 39.75 34.71875 39.75 35.203125 
Q 39.75 40.578125 37.25 42.78125 
Q 33.890625 45.75 27.25 45.75 
Q 21.046875 45.75 18.09375 43.578125 
Q 15.140625 41.40625 13.71875 35.890625 
L 5.125 37.0625 
Q 6.296875 42.578125 8.984375 45.96875 
Q 11.671875 49.359375 16.75 51.1875 
Q 21.828125 53.03125 28.515625 53.03125 
Q 35.15625 53.03125 39.296875 51.46875 
Q 43.453125 49.90625 45.40625 47.53125 
Q 47.359375 45.171875 48.140625 41.546875 
Q 48.578125 39.3125 48.578125 33.453125 
L 48.578125 21.734375 
Q 48.578125 9.46875 49.140625 6.21875 
Q 49.703125 2.984375 51.375 0 
L 42.1875 0 
Q 40.828125 2.734375 40.4375 6.390625 
z
M 39.703125 26.03125 
Q 34.90625 24.078125 25.34375 22.703125 
Q 19.921875 21.921875 17.671875 20.9375 
Q 15.4375 19.96875 14.203125 18.09375 
Q 12.984375 16.21875 12.984375 13.921875 
Q 12.984375 10.40625 15.640625 8.0625 
Q 18.3125 5.71875 23.4375 5.71875 
Q 28.515625 5.71875 32.46875 7.9375 
Q 36.421875 10.15625 38.28125 14.015625 
Q 39.703125 17 39.703125 22.796875 
z
" id="ArialMT-97"/>
      <path d="M 6.390625 0 
L 6.390625 71.578125 
L 15.1875 71.578125 
L 15.1875 0 
z
" id="ArialMT-108"/>
      <path d="M 40.578125 0 
L 40.578125 7.625 
Q 34.515625 -1.171875 24.125 -1.171875 
Q 19.53125 -1.171875 15.546875 0.578125 
Q 11.578125 2.34375 9.640625 5 
Q 7.71875 7.671875 6.9375 11.53125 
Q 6.390625 14.109375 6.390625 19.734375 
L 6.390625 51.859375 
L 15.1875 51.859375 
L 15.1875 23.09375 
Q 15.1875 16.21875 15.71875 13.8125 
Q 16.546875 10.359375 19.234375 8.375 
Q 21.921875 6.390625 25.875 6.390625 
Q 29.828125 6.390625 33.296875 8.421875 
Q 36.765625 10.453125 38.203125 13.9375 
Q 39.65625 17.4375 39.65625 24.078125 
L 39.65625 51.859375 
L 48.4375 51.859375 
L 48.4375 0 
z
" id="ArialMT-117"/>
      <path d="M 3.328125 25.921875 
Q 3.328125 40.328125 11.328125 47.265625 
Q 18.015625 53.03125 27.640625 53.03125 
Q 38.328125 53.03125 45.109375 46.015625 
Q 51.90625 39.015625 51.90625 26.65625 
Q 51.90625 16.65625 48.90625 10.90625 
Q 45.90625 5.171875 40.15625 2 
Q 34.421875 -1.171875 27.640625 -1.171875 
Q 16.75 -1.171875 10.03125 5.8125 
Q 3.328125 12.796875 3.328125 25.921875 
z
M 12.359375 25.921875 
Q 12.359375 15.96875 16.703125 11.015625 
Q 21.046875 6.0625 27.640625 6.0625 
Q 34.1875 6.0625 38.53125 11.03125 
Q 42.875 16.015625 42.875 26.21875 
Q 42.875 35.84375 38.5 40.796875 
Q 34.125 45.75 27.640625 45.75 
Q 21.046875 45.75 16.703125 40.8125 
Q 12.359375 35.890625 12.359375 25.921875 
z
" id="ArialMT-111"/>
     </defs>
     <g transform="translate(197.118 274.419375)scale(0.096 -0.096)">
      <use xlink:href="#ArialMT-101"/>
      <use x="55.615234" xlink:href="#ArialMT-118"/>
      <use x="105.615234" xlink:href="#ArialMT-97"/>
      <use x="161.230469" xlink:href="#ArialMT-108"/>
      <use x="183.447266" xlink:href="#ArialMT-117"/>
      <use x="239.0625" xlink:href="#ArialMT-97"/>
      <use x="294.677734" xlink:href="#ArialMT-116"/>
      <use x="322.460938" xlink:href="#ArialMT-105"/>
      <use x="344.677734" xlink:href="#ArialMT-111"/>
      <use x="400.292969" xlink:href="#ArialMT-110"/>
      <use x="455.908203" xlink:href="#ArialMT-115"/>
     </g>
    </g>
    <g id="text_19">
     <!-- $\times\mathdefault{10^{4}}\mathdefault{}$ -->
     <defs>
      <path d="M 70.125 53.71875 
L 47.796875 31.296875 
L 70.125 8.984375 
L 64.3125 3.078125 
L 41.890625 25.484375 
L 19.484375 3.078125 
L 13.71875 8.984375 
L 35.984375 31.296875 
L 13.71875 53.71875 
L 19.484375 59.625 
L 41.890625 37.203125 
L 64.3125 59.625 
z
" id="DejaVuSans-215"/>
      <path d="M 32.328125 0 
L 32.328125 17.140625 
L 1.265625 17.140625 
L 1.265625 25.203125 
L 33.9375 71.578125 
L 41.109375 71.578125 
L 41.109375 25.203125 
L 50.78125 25.203125 
L 50.78125 17.140625 
L 41.109375 17.140625 
L 41.109375 0 
z
M 32.328125 25.203125 
L 32.328125 57.46875 
L 9.90625 25.203125 
z
" id="ArialMT-52"/>
     </defs>
     <g transform="translate(367.592 275.534875)scale(0.088 -0.088)">
      <use transform="translate(0 0.201563)" xlink:href="#DejaVuSans-215"/>
      <use transform="translate(83.789062 0.201563)" xlink:href="#ArialMT-49"/>
      <use transform="translate(139.404297 0.201563)" xlink:href="#ArialMT-48"/>
      <use transform="translate(196.761875 69.895313)scale(0.7)" xlink:href="#ArialMT-52"/>
     </g>
    </g>
   </g>
   <g id="matplotlib.axis_6">
    <g id="ytick_6">
     <g id="line2d_69">
      <g>
       <use style="stroke:#000000;" x="54" xlink:href="#mfd19c4c502" y="223.01999"/>
      </g>
     </g>
     <g id="line2d_70">
      <g>
       <use style="stroke:#000000;" x="388.8" xlink:href="#m90905acc5c" y="223.01999"/>
      </g>
     </g>
     <g id="text_20">
      <!-- 0.5 -->
      <g transform="translate(38.268 226.169428)scale(0.088 -0.088)">
       <use xlink:href="#ArialMT-48"/>
       <use x="55.615234" xlink:href="#ArialMT-46"/>
       <use x="83.398438" xlink:href="#ArialMT-53"/>
      </g>
     </g>
    </g>
    <g id="ytick_7">
     <g id="line2d_71">
      <g>
       <use style="stroke:#000000;" x="54" xlink:href="#mfd19c4c502" y="193.318498"/>
      </g>
     </g>
     <g id="line2d_72">
      <g>
       <use style="stroke:#000000;" x="388.8" xlink:href="#m90905acc5c" y="193.318498"/>
      </g>
     </g>
     <g id="text_21">
      <!-- 0.6 -->
      <g transform="translate(38.268 196.467935)scale(0.088 -0.088)">
       <use xlink:href="#ArialMT-48"/>
       <use x="55.615234" xlink:href="#ArialMT-46"/>
       <use x="83.398438" xlink:href="#ArialMT-54"/>
      </g>
     </g>
    </g>
    <g id="text_22">
     <!-- $CR$ -->
     <defs>
      <path d="M 69.484375 67.28125 
L 67.484375 56.890625 
Q 62.796875 61.625 57.546875 63.921875 
Q 52.296875 66.21875 46.1875 66.21875 
Q 37.84375 66.21875 31.515625 62.203125 
Q 25.203125 58.203125 20.609375 50 
Q 17.671875 44.734375 16.125 38.84375 
Q 14.59375 32.953125 14.59375 27 
Q 14.59375 17.046875 19.75 11.8125 
Q 24.90625 6.59375 34.71875 6.59375 
Q 41.5 6.59375 47.75 8.765625 
Q 54 10.9375 59.90625 15.28125 
L 57.625 3.609375 
Q 51.8125 1.125 45.875 -0.140625 
Q 39.9375 -1.421875 33.984375 -1.421875 
Q 19.96875 -1.421875 12.078125 6.1875 
Q 4.203125 13.8125 4.203125 27.390625 
Q 4.203125 36.078125 7.203125 44.46875 
Q 10.203125 52.875 15.828125 59.8125 
Q 21.78125 67.1875 29.421875 70.703125 
Q 37.0625 74.21875 47.21875 74.21875 
Q 53.46875 74.21875 59.0625 72.484375 
Q 64.65625 70.75 69.484375 67.28125 
z
" id="DejaVuSans-Oblique-67"/>
      <path d="M 25.203125 64.796875 
L 20.21875 38.921875 
L 32.90625 38.921875 
Q 40.375 38.921875 44.984375 43.046875 
Q 49.609375 47.171875 49.609375 53.8125 
Q 49.609375 59.125 46.5 61.953125 
Q 43.40625 64.796875 37.59375 64.796875 
z
M 43.3125 35.015625 
Q 46.4375 34.28125 48.515625 31.390625 
Q 50.59375 28.515625 53.328125 19.921875 
L 59.515625 0 
L 49.125 0 
L 43.40625 18.703125 
Q 41.21875 25.921875 38.328125 28.359375 
Q 35.453125 30.8125 29.5 30.8125 
L 18.609375 30.8125 
L 12.59375 0 
L 2.6875 0 
L 16.890625 72.90625 
L 39.109375 72.90625 
Q 49.21875 72.90625 54.609375 68.328125 
Q 60.015625 63.765625 60.015625 55.171875 
Q 60.015625 47.5625 55.421875 41.984375 
Q 50.828125 36.421875 43.3125 35.015625 
z
" id="DejaVuSans-Oblique-82"/>
     </defs>
     <g transform="translate(32.36 222.48)rotate(-90)scale(0.096 -0.096)">
      <use transform="translate(0 0.78125)" xlink:href="#DejaVuSans-Oblique-67"/>
      <use transform="translate(69.824219 0.78125)" xlink:href="#DejaVuSans-Oblique-82"/>
     </g>
    </g>
   </g>
   <g id="patch_15">
    <path d="M 54 252 
L 54 179.52 
" style="fill:none;stroke:#000000;stroke-linecap:square;stroke-linejoin:miter;"/>
   </g>
   <g id="patch_16">
    <path d="M 388.8 252 
L 388.8 179.52 
" style="fill:none;stroke:#000000;stroke-linecap:square;stroke-linejoin:miter;"/>
   </g>
   <g id="patch_17">
    <path d="M 54 252 
L 388.8 252 
" style="fill:none;stroke:#000000;stroke-linecap:square;stroke-linejoin:miter;"/>
   </g>
   <g id="patch_18">
    <path d="M 54 179.52 
L 388.8 179.52 
" style="fill:none;stroke:#000000;stroke-linecap:square;stroke-linejoin:miter;"/>
   </g>
  </g>
 </g>
 <defs>
  <clipPath id="p84af000ed2">
   <rect height="72.48" width="334.8" x="54" y="34.56"/>
  </clipPath>
  <clipPath id="p57e2f75205">
   <rect height="72.48" width="334.8" x="54" y="107.04"/>
  </clipPath>
  <clipPath id="pe3ef9fc81e">
   <rect height="72.48" width="334.8" x="54" y="179.52"/>
  </clipPath>
 </defs>
</svg>
