<?xml version="1.0" encoding="utf-8" standalone="no"?>
<!DOCTYPE svg PUBLIC "-//W3C//DTD SVG 1.1//EN"
  "http://www.w3.org/Graphics/SVG/1.1/DTD/svg11.dtd">
<!-- Created with matplotlib (https://matplotlib.org/) -->
<svg height="288pt" version="1.1" viewBox="0 0 432 288" width="432pt" xmlns="http://www.w3.org/2000/svg" xmlns:xlink="http://www.w3.org/1999/xlink">
 <defs>
  <style type="text/css">
*{stroke-linecap:butt;stroke-linejoin:round;}
  </style>
 </defs>
 <g id="figure_1">
  <g id="patch_1">
   <path d="M 0 288 
L 432 288 
L 432 0 
L 0 0 
z
" style="fill:#ffffff;"/>
  </g>
  <g id="axes_1">
   <g id="patch_2">
    <path d="M 54 107.04 
L 388.8 107.04 
L 388.8 34.56 
L 54 34.56 
z
" style="fill:#ffffff;"/>
   </g>
   <g id="line2d_1">
    <path clip-path="url(#pe3ff170f33)" d="M 69.218182 37.854545 
L 70.523287 38.182162 
L 71.17584 39.140096 
L 71.828393 39.258473 
L 73.133498 39.337424 
L 73.786051 39.683314 
L 75.091156 39.767339 
L 75.743709 39.938733 
L 76.396262 40.400438 
L 77.701367 40.400438 
L 78.35392 40.698747 
L 79.006473 40.698747 
L 79.659025 40.863141 
L 80.964131 40.881018 
L 81.616683 41.016199 
L 83.574342 41.810915 
L 84.226894 41.810915 
L 84.879447 42.004044 
L 86.184552 42.150094 
L 86.837105 42.657261 
L 88.794763 42.762249 
L 89.447316 42.912993 
L 90.752421 43.358887 
L 91.404974 43.358887 
L 92.057527 43.945867 
L 94.667738 44.05363 
L 95.32029 44.745962 
L 96.625396 44.746867 
L 97.277948 44.924358 
L 98.583054 45.004357 
L 99.888159 45.470791 
L 100.540712 45.470791 
L 101.193265 45.69447 
L 102.49837 45.69447 
L 103.803476 46.027786 
L 104.456028 46.027786 
L 105.108581 46.358579 
L 107.718792 46.469159 
L 111.634108 46.72778 
L 112.939214 46.830446 
L 114.896872 46.908516 
L 117.507083 47.084787 
L 120.769846 47.178625 
L 125.337715 47.294388 
L 134.473453 47.402955 
L 136.431111 47.507758 
L 139.041322 47.567451 
L 140.346428 47.9307 
L 142.956638 47.9307 
L 143.609191 48.209414 
L 144.261744 48.209414 
L 144.914297 48.475744 
L 146.871955 48.490402 
L 147.524507 49.035584 
L 150.787271 49.06485 
L 151.439824 49.151584 
L 152.092376 49.51617 
L 152.744929 49.685871 
L 153.397482 49.685871 
L 154.702587 50.063197 
L 155.35514 50.350072 
L 156.660245 50.350072 
L 157.312798 50.719265 
L 157.965351 50.877246 
L 158.617903 50.877246 
L 159.923009 51.114909 
L 161.880667 51.176241 
L 162.53322 51.602478 
L 164.490878 51.602478 
L 165.143431 51.798826 
L 165.795983 51.798826 
L 166.448536 52.078324 
L 167.101089 53.148461 
L 170.363852 53.148461 
L 171.016405 53.510418 
L 173.626616 53.540941 
L 174.279169 53.659297 
L 174.931721 54.016969 
L 175.584274 54.10853 
L 176.889379 54.577059 
L 178.194485 54.577059 
L 178.847038 55.123758 
L 183.414907 55.54656 
L 184.067459 56.08635 
L 184.720012 56.249036 
L 186.025117 56.271142 
L 186.67767 56.592733 
L 188.635328 56.592733 
L 189.287881 56.927075 
L 189.940434 57.608887 
L 193.203197 57.683182 
L 193.85575 58.12636 
L 195.160855 58.192795 
L 199.728724 59.160704 
L 200.381277 59.160704 
L 201.03383 59.661034 
L 201.686383 59.661034 
L 202.338935 60.125063 
L 204.296593 60.22424 
L 204.949146 60.62547 
L 205.601699 60.62547 
L 207.559357 61.126676 
L 208.864462 61.452403 
L 209.517015 61.452403 
L 210.169568 62.054338 
L 212.127226 62.109083 
L 212.779779 62.470103 
L 213.432331 62.631799 
L 214.084884 63.148416 
L 216.042542 63.215647 
L 216.695095 63.320323 
L 217.347648 63.576279 
L 218.652753 63.576279 
L 220.610411 64.009244 
L 221.915517 64.602663 
L 222.568069 64.602663 
L 223.220622 64.984545 
L 224.525727 65.093045 
L 225.830833 65.320377 
L 226.483386 65.863914 
L 227.135938 66.149678 
L 229.746149 66.254752 
L 230.398702 66.83887 
L 231.051255 66.83887 
L 231.703807 67.027715 
L 233.008913 67.027715 
L 233.661465 67.481217 
L 234.314018 67.481217 
L 234.966571 67.891376 
L 235.619124 68.009281 
L 237.576782 68.009281 
L 238.229334 68.146545 
L 238.881887 68.855286 
L 239.53444 68.855286 
L 240.186993 68.989348 
L 240.839545 68.989348 
L 242.797203 69.291481 
L 243.449756 69.665063 
L 244.102309 69.809142 
L 244.754862 69.809142 
L 247.365072 70.618492 
L 248.017625 70.958951 
L 249.322731 70.986562 
L 249.975283 71.351925 
L 250.627836 71.564068 
L 251.932941 71.564068 
L 252.585494 71.856872 
L 253.8906 71.910225 
L 254.543152 72.232955 
L 255.195705 72.303922 
L 255.848258 72.852321 
L 256.50081 72.852321 
L 257.153363 73.100647 
L 258.458469 73.210651 
L 259.763574 73.693351 
L 260.416127 74.101695 
L 261.068679 74.101695 
L 261.721232 74.545986 
L 263.67889 74.545986 
L 264.331443 74.679701 
L 264.983996 75.197518 
L 266.289101 75.197518 
L 266.941654 75.512719 
L 268.899312 75.5912 
L 270.204417 76.108362 
L 270.85697 76.108362 
L 271.509523 76.285659 
L 272.162076 76.626575 
L 272.814628 76.776709 
L 273.467181 77.411975 
L 274.772286 77.546607 
L 276.077392 77.546607 
L 276.729945 77.754287 
L 278.03505 77.763917 
L 278.687603 78.038498 
L 279.992708 78.1327 
L 280.645261 78.537925 
L 281.297814 78.537925 
L 282.602919 79.167287 
L 283.908024 79.261671 
L 284.560577 79.431211 
L 285.865683 79.508501 
L 286.518235 79.85975 
L 287.170788 80.573547 
L 289.780999 80.58559 
L 291.086104 81.569402 
L 291.738657 81.569402 
L 292.39121 81.763446 
L 295.00142 81.810424 
L 295.653973 81.973096 
L 296.306526 82.008343 
L 296.959079 82.404891 
L 298.264184 82.584611 
L 298.916737 83.003927 
L 299.569289 83.003927 
L 300.874395 83.529325 
L 303.484606 83.761647 
L 304.137158 84.062324 
L 304.789711 84.708924 
L 306.094817 84.708924 
L 306.747369 85.082008 
L 307.399922 85.24966 
L 308.052475 85.24966 
L 308.705027 85.506801 
L 309.35758 85.506801 
L 310.010133 85.844043 
L 310.662686 85.844043 
L 311.315238 86.023441 
L 311.967791 86.736425 
L 315.230555 86.736425 
L 317.188213 87.442145 
L 317.840765 87.707246 
L 319.798424 87.707246 
L 320.450976 88.205146 
L 321.103529 88.408285 
L 321.756082 88.408285 
L 322.408634 88.555796 
L 323.061187 88.958651 
L 323.71374 89.074394 
L 324.366293 89.376564 
L 325.018845 89.477629 
L 325.671398 90.083468 
L 326.976503 90.083468 
L 327.629056 90.706817 
L 330.89182 90.746158 
L 332.196925 91.485174 
L 332.849478 91.539711 
L 333.502031 91.850525 
L 334.154583 91.850525 
L 334.807136 92.094684 
L 335.459689 92.106336 
L 336.112241 92.446226 
L 338.0699 92.529194 
L 338.722452 92.686998 
L 340.027558 93.420122 
L 341.332663 93.436731 
L 341.985216 93.871402 
L 343.942874 93.91893 
L 344.595427 94.026799 
L 345.247979 94.326882 
L 345.900532 94.326882 
L 346.553085 94.730153 
L 348.510743 95.018578 
L 349.815848 95.837535 
L 351.120954 95.938347 
L 351.773507 95.938347 
L 352.426059 96.311868 
L 353.731165 96.323999 
L 354.383717 96.633289 
L 355.03627 98.24641 
L 356.993928 98.24641 
L 357.646481 98.52619 
L 358.951586 98.632062 
L 360.909244 98.868612 
L 361.561797 98.868612 
L 362.21435 99.310071 
L 362.866903 99.490813 
L 364.172008 99.490813 
L 366.129666 100.373731 
L 366.782219 100.373731 
L 367.434772 101.275712 
L 368.739877 101.275712 
L 369.39243 101.618134 
L 370.044982 102.681794 
L 373.307746 102.681794 
L 373.322428 289 
L 373.322428 289 
" style="fill:none;stroke:#1ac938;stroke-linecap:round;stroke-width:1.2;"/>
   </g>
   <g id="line2d_2">
    <path clip-path="url(#pe3ff170f33)" d="M 69.218182 37.941755 
L 69.870735 38.295493 
L 71.17584 38.63377 
L 71.828393 38.63377 
L 72.480945 39.053319 
L 73.133498 39.111414 
L 73.786051 39.403145 
L 74.438604 39.544474 
L 75.091156 40.192336 
L 75.743709 40.192336 
L 76.396262 40.46152 
L 77.048814 40.863645 
L 78.35392 40.864836 
L 79.006473 41.009909 
L 80.311578 41.009909 
L 81.616683 41.402438 
L 82.269236 41.749754 
L 83.574342 41.749754 
L 84.879447 42.346393 
L 86.837105 42.346393 
L 87.489658 42.980998 
L 88.14221 43.147832 
L 89.447316 43.198425 
L 90.099869 43.455904 
L 90.752421 43.455904 
L 91.404974 44.021418 
L 93.362632 44.446888 
L 94.015185 44.446888 
L 95.972843 44.838478 
L 97.277948 44.838478 
L 97.930501 45.046748 
L 98.583054 45.046748 
L 99.888159 45.288552 
L 100.540712 45.638373 
L 102.49837 45.638373 
L 103.150923 45.768019 
L 103.803476 45.768019 
L 104.456028 46.094475 
L 108.371345 46.354399 
L 112.939214 46.785305 
L 115.549424 46.916257 
L 118.159635 47.019025 
L 129.253031 47.332341 
L 135.126006 47.43254 
L 137.083664 47.662278 
L 137.736217 47.673491 
L 138.388769 48.548213 
L 140.99898 48.641565 
L 142.304086 48.688204 
L 142.956638 48.960235 
L 144.914297 48.997052 
L 146.871955 49.551947 
L 147.524507 49.551947 
L 148.17706 49.718386 
L 149.482166 49.764892 
L 150.134718 49.964215 
L 150.787271 49.964215 
L 152.744929 50.783713 
L 154.050034 50.829656 
L 154.702587 51.09018 
L 155.35514 51.484417 
L 157.312798 51.592775 
L 157.965351 51.856413 
L 158.617903 51.962947 
L 160.575562 52.749689 
L 161.228114 53.206275 
L 163.185772 53.219634 
L 163.838325 53.475122 
L 164.490878 53.475122 
L 165.143431 54.055389 
L 167.101089 54.093514 
L 168.406194 54.371331 
L 169.058747 54.64094 
L 170.363852 54.744989 
L 171.668958 55.381954 
L 172.32151 56.026632 
L 173.626616 56.077725 
L 174.279169 56.606426 
L 174.931721 56.606426 
L 175.584274 56.743931 
L 176.236827 56.743931 
L 176.889379 57.25574 
L 178.194485 57.466289 
L 178.847038 57.477142 
L 179.49959 57.865366 
L 180.152143 58.094005 
L 180.804696 58.094005 
L 181.457248 58.416186 
L 182.762354 58.584517 
L 183.414907 58.62323 
L 184.067459 58.882633 
L 184.720012 59.547219 
L 186.67767 59.547219 
L 187.982776 59.898322 
L 188.635328 60.752554 
L 190.592986 60.752554 
L 191.245539 60.918705 
L 192.550645 61.042983 
L 194.508303 61.450936 
L 195.160855 61.511474 
L 196.465961 62.047419 
L 197.771066 62.226411 
L 198.423619 62.658829 
L 199.728724 62.667219 
L 200.381277 63.161007 
L 201.03383 63.161007 
L 201.686383 63.290688 
L 202.991488 63.342423 
L 208.864462 65.067574 
L 209.517015 65.228142 
L 210.169568 65.534377 
L 210.822121 65.67119 
L 211.474673 65.966985 
L 213.432331 66.368705 
L 214.084884 67.007601 
L 215.38999 67.433372 
L 216.042542 67.820759 
L 217.347648 67.86362 
L 218.652753 68.081504 
L 219.305306 68.880862 
L 221.262964 68.880862 
L 222.568069 69.203712 
L 224.525727 69.730397 
L 225.17828 69.730397 
L 225.830833 70.044305 
L 226.483386 70.086109 
L 227.135938 70.586351 
L 228.441044 70.683519 
L 229.746149 70.725024 
L 230.398702 71.14949 
L 231.703807 71.14949 
L 232.35636 71.300239 
L 233.008913 71.709934 
L 234.314018 71.924846 
L 234.966571 72.338802 
L 236.924229 72.338802 
L 237.576782 72.520493 
L 238.881887 72.55036 
L 239.53444 72.664014 
L 240.186993 73.183323 
L 240.839545 73.183323 
L 241.492098 73.518711 
L 244.754862 73.585121 
L 245.407414 73.656181 
L 246.059967 73.973336 
L 247.365072 74.059465 
L 250.627836 74.543739 
L 251.280389 74.813023 
L 251.932941 75.900394 
L 256.50081 75.914805 
L 257.153363 76.256071 
L 258.458469 76.263752 
L 259.111021 76.598358 
L 260.416127 76.598358 
L 261.068679 76.89868 
L 261.721232 76.89868 
L 263.026338 77.372296 
L 263.67889 77.436788 
L 264.983996 77.979626 
L 265.636548 77.979626 
L 266.289101 78.525457 
L 268.246759 78.63265 
L 268.899312 78.999064 
L 269.551865 78.999064 
L 270.85697 79.568814 
L 271.509523 79.568814 
L 272.162076 79.833751 
L 273.467181 79.936354 
L 274.119734 80.236098 
L 274.772286 80.236098 
L 275.424839 80.501722 
L 276.729945 80.550257 
L 278.03505 80.914132 
L 278.687603 80.92904 
L 279.340155 81.065059 
L 279.992708 81.591459 
L 281.297814 81.604899 
L 281.950366 81.928211 
L 283.908024 82.036969 
L 284.560577 82.771975 
L 285.865683 82.771975 
L 286.518235 83.248173 
L 287.823341 83.308475 
L 288.475893 83.639591 
L 289.780999 83.824305 
L 290.433552 84.12785 
L 291.738657 84.12785 
L 292.39121 84.434994 
L 295.00142 84.840015 
L 296.306526 84.989771 
L 296.959079 85.328139 
L 298.264184 85.380705 
L 298.916737 85.977744 
L 299.569289 85.977744 
L 300.221842 86.23182 
L 301.526948 86.23182 
L 302.1795 86.495942 
L 303.484606 86.495942 
L 304.137158 86.767869 
L 304.789711 86.767869 
L 305.442264 87.227642 
L 306.094817 87.400871 
L 306.747369 87.867763 
L 308.705027 87.867763 
L 311.315238 88.54435 
L 311.967791 88.902929 
L 313.272896 88.902929 
L 313.925449 89.18953 
L 314.578002 89.838297 
L 316.53566 89.838297 
L 317.840765 90.244359 
L 319.145871 90.244359 
L 319.798424 90.417618 
L 320.450976 91.093409 
L 321.103529 91.095425 
L 321.756082 91.48882 
L 323.061187 91.911793 
L 325.671398 91.996518 
L 326.976503 92.329172 
L 328.281609 92.413493 
L 328.934162 92.746183 
L 329.586714 93.222342 
L 330.89182 93.238564 
L 333.502031 93.746112 
L 334.154583 94.303855 
L 334.807136 94.303855 
L 336.764794 95.115189 
L 337.417347 95.230189 
L 338.722452 95.297317 
L 339.375005 95.685644 
L 340.68011 95.72635 
L 341.985216 96.151397 
L 342.637769 96.151397 
L 343.290321 96.546405 
L 344.595427 96.560549 
L 345.247979 96.840328 
L 345.900532 96.840328 
L 348.510743 97.437164 
L 349.815848 97.462529 
L 351.120954 98.00986 
L 351.773507 98.00986 
L 352.426059 98.28964 
L 354.383717 98.578213 
L 355.688823 99.227103 
L 356.993928 99.490813 
L 357.646481 99.58985 
L 358.299034 100.554474 
L 358.951586 100.554474 
L 359.604139 100.759382 
L 360.256692 100.759382 
L 360.909244 101.275712 
L 361.561797 101.618134 
L 362.21435 101.618134 
L 362.866903 102.059593 
L 363.519455 102.059593 
L 364.172008 102.681794 
L 364.824561 103.745455 
L 364.838468 289 
L 364.838468 289 
" style="fill:none;stroke:#e8000b;stroke-linecap:round;stroke-width:1.2;"/>
   </g>
   <g id="matplotlib.axis_1">
    <g id="xtick_1">
     <g id="line2d_3">
      <defs>
       <path d="M 0 0 
L 0 -3 
" id="m7b12416b7e" style="stroke:#000000;"/>
      </defs>
      <g>
       <use style="stroke:#000000;" x="67.913076" xlink:href="#m7b12416b7e" y="107.04"/>
      </g>
     </g>
     <g id="line2d_4">
      <defs>
       <path d="M 0 0 
L 0 3 
" id="mc64fc49079" style="stroke:#000000;"/>
      </defs>
      <g>
       <use style="stroke:#000000;" x="67.913076" xlink:href="#mc64fc49079" y="34.56"/>
      </g>
     </g>
    </g>
    <g id="xtick_2">
     <g id="line2d_5">
      <g>
       <use style="stroke:#000000;" x="133.168348" xlink:href="#m7b12416b7e" y="107.04"/>
      </g>
     </g>
     <g id="line2d_6">
      <g>
       <use style="stroke:#000000;" x="133.168348" xlink:href="#mc64fc49079" y="34.56"/>
      </g>
     </g>
    </g>
    <g id="xtick_3">
     <g id="line2d_7">
      <g>
       <use style="stroke:#000000;" x="198.423619" xlink:href="#m7b12416b7e" y="107.04"/>
      </g>
     </g>
     <g id="line2d_8">
      <g>
       <use style="stroke:#000000;" x="198.423619" xlink:href="#mc64fc49079" y="34.56"/>
      </g>
     </g>
    </g>
    <g id="xtick_4">
     <g id="line2d_9">
      <g>
       <use style="stroke:#000000;" x="263.67889" xlink:href="#m7b12416b7e" y="107.04"/>
      </g>
     </g>
     <g id="line2d_10">
      <g>
       <use style="stroke:#000000;" x="263.67889" xlink:href="#mc64fc49079" y="34.56"/>
      </g>
     </g>
    </g>
    <g id="xtick_5">
     <g id="line2d_11">
      <g>
       <use style="stroke:#000000;" x="328.934162" xlink:href="#m7b12416b7e" y="107.04"/>
      </g>
     </g>
     <g id="line2d_12">
      <g>
       <use style="stroke:#000000;" x="328.934162" xlink:href="#mc64fc49079" y="34.56"/>
      </g>
     </g>
    </g>
   </g>
   <g id="matplotlib.axis_2">
    <g id="ytick_1">
     <g id="line2d_13">
      <defs>
       <path d="M 0 0 
L 3 0 
" id="m6a6b6f4729" style="stroke:#000000;"/>
      </defs>
      <g>
       <use style="stroke:#000000;" x="54" xlink:href="#m6a6b6f4729" y="86.238891"/>
      </g>
     </g>
     <g id="line2d_14">
      <defs>
       <path d="M 0 0 
L -3 0 
" id="m1825d0ae84" style="stroke:#000000;"/>
      </defs>
      <g>
       <use style="stroke:#000000;" x="388.8" xlink:href="#m1825d0ae84" y="86.238891"/>
      </g>
     </g>
     <g id="text_1">
      <!-- $\mathdefault{10^{-11}}$ -->
      <defs>
       <path d="M 37.25 0 
L 28.46875 0 
L 28.46875 56 
Q 25.296875 52.984375 20.140625 49.953125 
Q 14.984375 46.921875 10.890625 45.40625 
L 10.890625 53.90625 
Q 18.265625 57.375 23.78125 62.296875 
Q 29.296875 67.234375 31.59375 71.875 
L 37.25 71.875 
z
" id="ArialMT-49"/>
       <path d="M 4.15625 35.296875 
Q 4.15625 48 6.765625 55.734375 
Q 9.375 63.484375 14.515625 67.671875 
Q 19.671875 71.875 27.484375 71.875 
Q 33.25 71.875 37.59375 69.546875 
Q 41.9375 67.234375 44.765625 62.859375 
Q 47.609375 58.5 49.21875 52.21875 
Q 50.828125 45.953125 50.828125 35.296875 
Q 50.828125 22.703125 48.234375 14.96875 
Q 45.65625 7.234375 40.5 3 
Q 35.359375 -1.21875 27.484375 -1.21875 
Q 17.140625 -1.21875 11.234375 6.203125 
Q 4.15625 15.140625 4.15625 35.296875 
z
M 13.1875 35.296875 
Q 13.1875 17.671875 17.3125 11.828125 
Q 21.4375 6 27.484375 6 
Q 33.546875 6 37.671875 11.859375 
Q 41.796875 17.71875 41.796875 35.296875 
Q 41.796875 52.984375 37.671875 58.78125 
Q 33.546875 64.59375 27.390625 64.59375 
Q 21.34375 64.59375 17.71875 59.46875 
Q 13.1875 52.9375 13.1875 35.296875 
z
" id="ArialMT-48"/>
       <path d="M 52.828125 31.203125 
L 5.5625 31.203125 
L 5.5625 39.40625 
L 52.828125 39.40625 
z
" id="ArialMT-8722"/>
      </defs>
      <g transform="translate(29.644 90.776391)scale(0.088 -0.088)">
       <use transform="translate(0 0.99375)" xlink:href="#ArialMT-49"/>
       <use transform="translate(55.615234 0.99375)" xlink:href="#ArialMT-48"/>
       <use transform="translate(112.972813 70.6875)scale(0.7)" xlink:href="#ArialMT-8722"/>
       <use transform="translate(153.851719 70.6875)scale(0.7)" xlink:href="#ArialMT-49"/>
       <use transform="translate(192.782383 70.6875)scale(0.7)" xlink:href="#ArialMT-49"/>
      </g>
     </g>
    </g>
    <g id="ytick_2">
     <g id="line2d_15">
      <g>
       <use style="stroke:#000000;" x="54" xlink:href="#m6a6b6f4729" y="65.038472"/>
      </g>
     </g>
     <g id="line2d_16">
      <g>
       <use style="stroke:#000000;" x="388.8" xlink:href="#m1825d0ae84" y="65.038472"/>
      </g>
     </g>
     <g id="text_2">
      <!-- $\mathdefault{10^{-5}}$ -->
      <defs>
       <path d="M 4.15625 18.75 
L 13.375 19.53125 
Q 14.40625 12.796875 18.140625 9.390625 
Q 21.875 6 27.15625 6 
Q 33.5 6 37.890625 10.78125 
Q 42.28125 15.578125 42.28125 23.484375 
Q 42.28125 31 38.0625 35.34375 
Q 33.84375 39.703125 27 39.703125 
Q 22.75 39.703125 19.328125 37.765625 
Q 15.921875 35.84375 13.96875 32.765625 
L 5.71875 33.84375 
L 12.640625 70.609375 
L 48.25 70.609375 
L 48.25 62.203125 
L 19.671875 62.203125 
L 15.828125 42.96875 
Q 22.265625 47.46875 29.34375 47.46875 
Q 38.71875 47.46875 45.15625 40.96875 
Q 51.609375 34.46875 51.609375 24.265625 
Q 51.609375 14.546875 45.953125 7.46875 
Q 39.0625 -1.21875 27.15625 -1.21875 
Q 17.390625 -1.21875 11.203125 4.25 
Q 5.03125 9.71875 4.15625 18.75 
z
" id="ArialMT-53"/>
      </defs>
      <g transform="translate(33.076 69.531972)scale(0.088 -0.088)">
       <use transform="translate(0 0.879688)" xlink:href="#ArialMT-49"/>
       <use transform="translate(55.615234 0.879688)" xlink:href="#ArialMT-48"/>
       <use transform="translate(112.972813 70.573438)scale(0.7)" xlink:href="#ArialMT-8722"/>
       <use transform="translate(153.851719 70.573438)scale(0.7)" xlink:href="#ArialMT-53"/>
      </g>
     </g>
    </g>
    <g id="ytick_3">
     <g id="line2d_17">
      <g>
       <use style="stroke:#000000;" x="54" xlink:href="#m6a6b6f4729" y="43.838053"/>
      </g>
     </g>
     <g id="line2d_18">
      <g>
       <use style="stroke:#000000;" x="388.8" xlink:href="#m1825d0ae84" y="43.838053"/>
      </g>
     </g>
     <g id="text_3">
      <!-- $\mathdefault{10^{1}}$ -->
      <g transform="translate(36.684 48.375553)scale(0.088 -0.088)">
       <use transform="translate(0 0.99375)" xlink:href="#ArialMT-49"/>
       <use transform="translate(55.615234 0.99375)" xlink:href="#ArialMT-48"/>
       <use transform="translate(112.972813 70.6875)scale(0.7)" xlink:href="#ArialMT-49"/>
      </g>
     </g>
    </g>
    <g id="text_4">
     <!-- fitness -->
     <defs>
      <path d="M 8.6875 0 
L 8.6875 45.015625 
L 0.921875 45.015625 
L 0.921875 51.859375 
L 8.6875 51.859375 
L 8.6875 57.375 
Q 8.6875 62.59375 9.625 65.140625 
Q 10.890625 68.5625 14.078125 70.671875 
Q 17.28125 72.796875 23.046875 72.796875 
Q 26.765625 72.796875 31.25 71.921875 
L 29.9375 64.265625 
Q 27.203125 64.75 24.75 64.75 
Q 20.75 64.75 19.09375 63.03125 
Q 17.4375 61.328125 17.4375 56.640625 
L 17.4375 51.859375 
L 27.546875 51.859375 
L 27.546875 45.015625 
L 17.4375 45.015625 
L 17.4375 0 
z
" id="ArialMT-102"/>
      <path d="M 6.640625 61.46875 
L 6.640625 71.578125 
L 15.4375 71.578125 
L 15.4375 61.46875 
z
M 6.640625 0 
L 6.640625 51.859375 
L 15.4375 51.859375 
L 15.4375 0 
z
" id="ArialMT-105"/>
      <path d="M 25.78125 7.859375 
L 27.046875 0.09375 
Q 23.34375 -0.6875 20.40625 -0.6875 
Q 15.625 -0.6875 12.984375 0.828125 
Q 10.359375 2.34375 9.28125 4.8125 
Q 8.203125 7.28125 8.203125 15.1875 
L 8.203125 45.015625 
L 1.765625 45.015625 
L 1.765625 51.859375 
L 8.203125 51.859375 
L 8.203125 64.703125 
L 16.9375 69.96875 
L 16.9375 51.859375 
L 25.78125 51.859375 
L 25.78125 45.015625 
L 16.9375 45.015625 
L 16.9375 14.703125 
Q 16.9375 10.9375 17.40625 9.859375 
Q 17.875 8.796875 18.921875 8.15625 
Q 19.96875 7.515625 21.921875 7.515625 
Q 23.390625 7.515625 25.78125 7.859375 
z
" id="ArialMT-116"/>
      <path d="M 6.59375 0 
L 6.59375 51.859375 
L 14.5 51.859375 
L 14.5 44.484375 
Q 20.21875 53.03125 31 53.03125 
Q 35.6875 53.03125 39.625 51.34375 
Q 43.5625 49.65625 45.515625 46.921875 
Q 47.46875 44.1875 48.25 40.4375 
Q 48.734375 37.984375 48.734375 31.890625 
L 48.734375 0 
L 39.9375 0 
L 39.9375 31.546875 
Q 39.9375 36.921875 38.90625 39.578125 
Q 37.890625 42.234375 35.28125 43.8125 
Q 32.671875 45.40625 29.15625 45.40625 
Q 23.53125 45.40625 19.453125 41.84375 
Q 15.375 38.28125 15.375 28.328125 
L 15.375 0 
z
" id="ArialMT-110"/>
      <path d="M 42.09375 16.703125 
L 51.171875 15.578125 
Q 49.03125 7.625 43.21875 3.21875 
Q 37.40625 -1.171875 28.375 -1.171875 
Q 17 -1.171875 10.328125 5.828125 
Q 3.65625 12.84375 3.65625 25.484375 
Q 3.65625 38.578125 10.390625 45.796875 
Q 17.140625 53.03125 27.875 53.03125 
Q 38.28125 53.03125 44.875 45.953125 
Q 51.46875 38.875 51.46875 26.03125 
Q 51.46875 25.25 51.421875 23.6875 
L 12.75 23.6875 
Q 13.234375 15.140625 17.578125 10.59375 
Q 21.921875 6.0625 28.421875 6.0625 
Q 33.25 6.0625 36.671875 8.59375 
Q 40.09375 11.140625 42.09375 16.703125 
z
M 13.234375 30.90625 
L 42.1875 30.90625 
Q 41.609375 37.453125 38.875 40.71875 
Q 34.671875 45.796875 27.984375 45.796875 
Q 21.921875 45.796875 17.796875 41.75 
Q 13.671875 37.703125 13.234375 30.90625 
z
" id="ArialMT-101"/>
      <path d="M 3.078125 15.484375 
L 11.765625 16.84375 
Q 12.5 11.625 15.84375 8.84375 
Q 19.1875 6.0625 25.203125 6.0625 
Q 31.25 6.0625 34.171875 8.515625 
Q 37.109375 10.984375 37.109375 14.3125 
Q 37.109375 17.28125 34.515625 19 
Q 32.71875 20.171875 25.53125 21.96875 
Q 15.875 24.421875 12.140625 26.203125 
Q 8.40625 27.984375 6.46875 31.125 
Q 4.546875 34.28125 4.546875 38.09375 
Q 4.546875 41.546875 6.125 44.5 
Q 7.71875 47.46875 10.453125 49.421875 
Q 12.5 50.921875 16.03125 51.96875 
Q 19.578125 53.03125 23.640625 53.03125 
Q 29.734375 53.03125 34.34375 51.265625 
Q 38.96875 49.515625 41.15625 46.5 
Q 43.359375 43.5 44.1875 38.484375 
L 35.59375 37.3125 
Q 35.015625 41.3125 32.203125 43.546875 
Q 29.390625 45.796875 24.265625 45.796875 
Q 18.21875 45.796875 15.625 43.796875 
Q 13.03125 41.796875 13.03125 39.109375 
Q 13.03125 37.40625 14.109375 36.03125 
Q 15.1875 34.625 17.484375 33.6875 
Q 18.796875 33.203125 25.25 31.453125 
Q 34.578125 28.953125 38.25 27.359375 
Q 41.9375 25.78125 44.03125 22.75 
Q 46.140625 19.734375 46.140625 15.234375 
Q 46.140625 10.84375 43.578125 6.953125 
Q 41.015625 3.078125 36.171875 0.953125 
Q 31.34375 -1.171875 25.25 -1.171875 
Q 15.140625 -1.171875 9.84375 3.03125 
Q 4.546875 7.234375 3.078125 15.484375 
z
" id="ArialMT-115"/>
     </defs>
     <g transform="translate(23.736 84.672)rotate(-90)scale(0.096 -0.096)">
      <use xlink:href="#ArialMT-102"/>
      <use x="27.783203" xlink:href="#ArialMT-105"/>
      <use x="50" xlink:href="#ArialMT-116"/>
      <use x="77.783203" xlink:href="#ArialMT-110"/>
      <use x="133.398438" xlink:href="#ArialMT-101"/>
      <use x="189.013672" xlink:href="#ArialMT-115"/>
      <use x="239.013672" xlink:href="#ArialMT-115"/>
     </g>
    </g>
   </g>
   <g id="patch_3">
    <path d="M 54 107.04 
L 54 34.56 
" style="fill:none;stroke:#000000;stroke-linecap:square;stroke-linejoin:miter;"/>
   </g>
   <g id="patch_4">
    <path d="M 388.8 107.04 
L 388.8 34.56 
" style="fill:none;stroke:#000000;stroke-linecap:square;stroke-linejoin:miter;"/>
   </g>
   <g id="patch_5">
    <path d="M 54 107.04 
L 388.8 107.04 
" style="fill:none;stroke:#000000;stroke-linecap:square;stroke-linejoin:miter;"/>
   </g>
   <g id="patch_6">
    <path d="M 54 34.56 
L 388.8 34.56 
" style="fill:none;stroke:#000000;stroke-linecap:square;stroke-linejoin:miter;"/>
   </g>
   <g id="legend_1">
    <g id="patch_7">
     <path d="M 343.075125 68.49575 
L 384.64 68.49575 
Q 386.4 68.49575 386.4 66.73575 
L 386.4 42.72 
Q 386.4 40.96 384.64 40.96 
L 343.075125 40.96 
Q 341.315125 40.96 341.315125 42.72 
L 341.315125 66.73575 
Q 341.315125 68.49575 343.075125 68.49575 
z
" style="fill:#4c4c4c;opacity:0.5;stroke:#4c4c4c;stroke-linejoin:miter;stroke-width:0.8;"/>
    </g>
    <g id="patch_8">
     <path d="M 341.075125 66.49575 
L 382.64 66.49575 
Q 384.4 66.49575 384.4 64.73575 
L 384.4 40.72 
Q 384.4 38.96 382.64 38.96 
L 341.075125 38.96 
Q 339.315125 38.96 339.315125 40.72 
L 339.315125 64.73575 
Q 339.315125 66.49575 341.075125 66.49575 
z
" style="fill:#ffffff;stroke:#000000;stroke-linejoin:miter;stroke-width:0.8;"/>
    </g>
    <g id="line2d_19">
     <path d="M 342.835125 45.698875 
L 349.875125 45.698875 
" style="fill:none;stroke:#e8000b;stroke-linecap:round;stroke-width:1.2;"/>
    </g>
    <g id="line2d_20"/>
    <g id="text_5">
     <!-- PEDE -->
     <defs>
      <path d="M 7.71875 0 
L 7.71875 71.578125 
L 34.71875 71.578125 
Q 41.84375 71.578125 45.609375 70.90625 
Q 50.875 70.015625 54.4375 67.546875 
Q 58.015625 65.09375 60.1875 60.640625 
Q 62.359375 56.203125 62.359375 50.875 
Q 62.359375 41.75 56.546875 35.421875 
Q 50.734375 29.109375 35.546875 29.109375 
L 17.1875 29.109375 
L 17.1875 0 
z
M 17.1875 37.546875 
L 35.6875 37.546875 
Q 44.875 37.546875 48.734375 40.96875 
Q 52.59375 44.390625 52.59375 50.59375 
Q 52.59375 55.078125 50.3125 58.265625 
Q 48.046875 61.46875 44.34375 62.5 
Q 41.9375 63.140625 35.5 63.140625 
L 17.1875 63.140625 
z
" id="ArialMT-80"/>
      <path d="M 7.90625 0 
L 7.90625 71.578125 
L 59.671875 71.578125 
L 59.671875 63.140625 
L 17.390625 63.140625 
L 17.390625 41.21875 
L 56.984375 41.21875 
L 56.984375 32.8125 
L 17.390625 32.8125 
L 17.390625 8.453125 
L 61.328125 8.453125 
L 61.328125 0 
z
" id="ArialMT-69"/>
      <path d="M 7.71875 0 
L 7.71875 71.578125 
L 32.375 71.578125 
Q 40.71875 71.578125 45.125 70.5625 
Q 51.265625 69.140625 55.609375 65.4375 
Q 61.28125 60.640625 64.078125 53.1875 
Q 66.890625 45.75 66.890625 36.1875 
Q 66.890625 28.03125 64.984375 21.734375 
Q 63.09375 15.4375 60.109375 11.296875 
Q 57.125 7.171875 53.578125 4.796875 
Q 50.046875 2.4375 45.046875 1.21875 
Q 40.046875 0 33.546875 0 
z
M 17.1875 8.453125 
L 32.46875 8.453125 
Q 39.546875 8.453125 43.578125 9.765625 
Q 47.609375 11.078125 50 13.484375 
Q 53.375 16.84375 55.25 22.53125 
Q 57.125 28.21875 57.125 36.328125 
Q 57.125 47.5625 53.4375 53.59375 
Q 49.75 59.625 44.484375 61.671875 
Q 40.671875 63.140625 32.234375 63.140625 
L 17.1875 63.140625 
z
" id="ArialMT-68"/>
     </defs>
     <g transform="translate(356.915125 48.778875)scale(0.088 -0.088)">
      <use xlink:href="#ArialMT-80"/>
      <use x="66.699219" xlink:href="#ArialMT-69"/>
      <use x="133.398438" xlink:href="#ArialMT-68"/>
      <use x="205.615234" xlink:href="#ArialMT-69"/>
     </g>
    </g>
    <g id="line2d_21">
     <path d="M 342.835125 58.14675 
L 349.875125 58.14675 
" style="fill:none;stroke:#1ac938;stroke-linecap:round;stroke-width:1.2;"/>
    </g>
    <g id="line2d_22"/>
    <g id="text_6">
     <!-- JADE -->
     <defs>
      <path d="M 2.875 20.3125 
L 11.421875 21.484375 
Q 11.765625 13.28125 14.5 10.25 
Q 17.234375 7.234375 22.078125 7.234375 
Q 25.640625 7.234375 28.21875 8.859375 
Q 30.8125 10.5 31.78125 13.296875 
Q 32.765625 16.109375 32.765625 22.265625 
L 32.765625 71.578125 
L 42.234375 71.578125 
L 42.234375 22.796875 
Q 42.234375 13.8125 40.0625 8.875 
Q 37.890625 3.953125 33.171875 1.359375 
Q 28.46875 -1.21875 22.125 -1.21875 
Q 12.703125 -1.21875 7.6875 4.203125 
Q 2.6875 9.625 2.875 20.3125 
z
" id="ArialMT-74"/>
      <path d="M -0.140625 0 
L 27.34375 71.578125 
L 37.546875 71.578125 
L 66.84375 0 
L 56.0625 0 
L 47.703125 21.6875 
L 17.78125 21.6875 
L 9.90625 0 
z
M 20.515625 29.390625 
L 44.78125 29.390625 
L 37.3125 49.21875 
Q 33.890625 58.25 32.234375 64.0625 
Q 30.859375 57.171875 28.375 50.390625 
z
" id="ArialMT-65"/>
     </defs>
     <g transform="translate(356.915125 61.22675)scale(0.088 -0.088)">
      <use xlink:href="#ArialMT-74"/>
      <use x="50" xlink:href="#ArialMT-65"/>
      <use x="116.699219" xlink:href="#ArialMT-68"/>
      <use x="188.916016" xlink:href="#ArialMT-69"/>
     </g>
    </g>
   </g>
  </g>
  <g id="axes_2">
   <g id="patch_9">
    <path d="M 54 179.52 
L 388.8 179.52 
L 388.8 107.04 
L 54 107.04 
z
" style="fill:#ffffff;"/>
   </g>
   <g id="line2d_23">
    <path clip-path="url(#p53bfbb9472)" d="M 69.218182 140.49526 
L 69.870735 151.437856 
L 70.523287 147.333655 
L 71.17584 144.161024 
L 71.828393 142.471072 
L 72.480945 146.008812 
L 73.133498 146.128142 
L 73.786051 143.458016 
L 74.438604 145.531737 
L 75.091156 150.265321 
L 75.743709 144.297536 
L 76.396262 151.380635 
L 77.048814 150.663703 
L 77.701367 149.213478 
L 78.35392 151.368886 
L 79.006473 141.196314 
L 79.659025 145.26716 
L 80.311578 143.015046 
L 80.964131 141.253764 
L 81.616683 141.65805 
L 82.269236 146.810544 
L 82.921789 147.942682 
L 83.574342 141.981285 
L 84.226894 145.733116 
L 84.879447 138.799197 
L 85.532 147.162256 
L 86.184552 138.529167 
L 86.837105 140.584719 
L 87.489658 139.427673 
L 88.14221 142.750081 
L 88.794763 140.044357 
L 89.447316 140.664878 
L 90.099869 135.655664 
L 90.752421 144.205328 
L 91.404974 142.219549 
L 92.057527 138.626297 
L 92.710079 146.858361 
L 93.362632 147.238511 
L 94.015185 148.012059 
L 94.667738 147.953202 
L 95.32029 145.340637 
L 95.972843 148.373968 
L 96.625396 139.085868 
L 97.277948 134.879993 
L 97.930501 142.543213 
L 98.583054 144.340661 
L 99.235607 135.280213 
L 99.888159 140.605868 
L 100.540712 140.901343 
L 101.193265 142.414149 
L 101.845817 145.349369 
L 102.49837 142.298182 
L 103.150923 136.729897 
L 103.803476 144.155211 
L 104.456028 135.433797 
L 105.108581 140.200387 
L 105.761134 140.419831 
L 106.413686 139.283394 
L 107.066239 130.70611 
L 107.718792 147.49489 
L 108.371345 138.216432 
L 109.023897 138.381585 
L 109.67645 135.993612 
L 110.329003 143.306633 
L 110.981555 128.963337 
L 111.634108 143.608995 
L 112.286661 148.38349 
L 112.939214 143.901174 
L 113.591766 133.773479 
L 114.244319 140.770393 
L 114.896872 138.102599 
L 115.549424 132.056543 
L 116.201977 143.318743 
L 116.85453 132.361965 
L 117.507083 136.237664 
L 118.159635 134.82729 
L 118.812188 134.507517 
L 119.464741 135.918771 
L 120.117293 139.717049 
L 120.769846 144.646019 
L 121.422399 136.341043 
L 122.074952 133.807765 
L 122.727504 141.611595 
L 123.380057 144.809718 
L 124.03261 144.581234 
L 124.685162 144.872043 
L 125.337715 136.182597 
L 125.990268 134.659568 
L 126.642821 131.105219 
L 127.295373 134.204802 
L 128.600479 149.814961 
L 129.905584 145.699952 
L 130.558137 137.137851 
L 131.21069 137.937003 
L 131.863242 140.779102 
L 132.515795 138.299637 
L 133.168348 139.910626 
L 133.8209 140.26863 
L 134.473453 143.212804 
L 135.126006 141.205911 
L 135.778559 125.999535 
L 136.431111 134.562792 
L 137.083664 140.401223 
L 137.736217 140.547828 
L 138.388769 139.319417 
L 139.041322 140.701646 
L 139.693875 146.434198 
L 140.346428 134.851392 
L 140.99898 140.033844 
L 141.651533 135.384223 
L 142.304086 149.969358 
L 142.956638 133.707578 
L 143.609191 135.724112 
L 144.261744 134.687447 
L 144.914297 138.499954 
L 145.566849 140.137739 
L 146.219402 137.909922 
L 146.871955 129.812451 
L 147.524507 149.361766 
L 148.17706 131.032199 
L 148.829613 141.446412 
L 149.482166 133.491101 
L 150.134718 133.165891 
L 150.787271 138.65801 
L 152.092376 131.12562 
L 152.744929 134.857599 
L 153.397482 140.154753 
L 154.050034 128.575037 
L 154.702587 132.841082 
L 155.35514 138.853306 
L 156.007693 138.532781 
L 156.660245 122.582033 
L 157.312798 136.940025 
L 157.965351 135.477907 
L 158.617903 141.269112 
L 159.270456 141.792991 
L 159.923009 134.405451 
L 160.575562 139.097719 
L 161.228114 139.645491 
L 161.880667 139.621068 
L 162.53322 125.81098 
L 163.185772 139.087223 
L 163.838325 128.615379 
L 164.490878 137.214475 
L 165.143431 136.448395 
L 165.795983 134.25354 
L 166.448536 136.157551 
L 167.101089 134.989775 
L 167.753641 130.562098 
L 168.406194 129.066632 
L 169.058747 132.436859 
L 169.7113 132.499777 
L 170.363852 142.165871 
L 171.016405 124.998898 
L 171.668958 140.36327 
L 172.32151 136.677168 
L 172.974063 135.369372 
L 173.626616 131.00431 
L 174.279169 135.72868 
L 174.931721 136.949505 
L 175.584274 126.174369 
L 176.236827 126.996446 
L 176.889379 146.293955 
L 177.541932 134.697783 
L 178.194485 139.816245 
L 178.847038 143.462834 
L 179.49959 138.731449 
L 180.152143 131.710056 
L 180.804696 140.87164 
L 181.457248 142.344011 
L 182.109801 140.699752 
L 182.762354 131.707044 
L 183.414907 149.717231 
L 184.067459 142.857497 
L 184.720012 140.108396 
L 185.372565 133.10593 
L 186.025117 139.737962 
L 186.67767 136.130325 
L 187.330223 148.771934 
L 187.982776 132.283108 
L 188.635328 134.845998 
L 189.287881 138.95875 
L 190.592986 142.184658 
L 191.245539 130.099995 
L 191.898092 137.663551 
L 192.550645 137.309193 
L 193.203197 134.392542 
L 193.85575 137.55999 
L 194.508303 148.715574 
L 195.160855 141.476217 
L 195.813408 144.461336 
L 196.465961 133.636723 
L 197.118514 139.731256 
L 197.771066 136.530854 
L 198.423619 141.850824 
L 199.076172 135.820866 
L 199.728724 125.541634 
L 200.381277 133.677261 
L 201.03383 133.232322 
L 201.686383 138.337086 
L 202.338935 138.456059 
L 202.991488 141.861857 
L 203.644041 132.588956 
L 204.296593 149.882333 
L 205.601699 137.139217 
L 206.254252 135.919103 
L 206.906804 149.516669 
L 207.559357 137.513448 
L 208.21191 139.114173 
L 208.864462 134.08377 
L 209.517015 131.213228 
L 210.169568 129.846458 
L 210.822121 132.295832 
L 211.474673 139.882794 
L 212.127226 140.016498 
L 212.779779 142.223389 
L 213.432331 139.917483 
L 214.084884 134.53426 
L 214.737437 136.191991 
L 215.38999 129.761961 
L 216.042542 132.02615 
L 216.695095 138.574021 
L 217.347648 143.49246 
L 218.0002 132.573089 
L 218.652753 139.209068 
L 219.305306 135.649535 
L 219.957859 135.014458 
L 220.610411 143.607577 
L 221.262964 133.166357 
L 221.915517 141.412368 
L 222.568069 136.745195 
L 223.220622 135.026565 
L 223.873175 132.312208 
L 224.525727 141.658629 
L 225.17828 138.430001 
L 225.830833 146.260405 
L 226.483386 142.142315 
L 227.135938 145.098375 
L 227.788491 143.570726 
L 228.441044 142.811348 
L 229.093596 136.406448 
L 229.746149 142.137592 
L 230.398702 135.854635 
L 231.051255 137.234563 
L 231.703807 131.94046 
L 232.35636 128.452177 
L 233.008913 136.843339 
L 233.661465 130.447499 
L 234.314018 145.685336 
L 234.966571 128.769679 
L 235.619124 139.734933 
L 236.271676 139.930051 
L 236.924229 136.47671 
L 237.576782 141.551463 
L 238.229334 134.26402 
L 238.881887 135.775287 
L 239.53444 139.605882 
L 240.186993 133.331856 
L 240.839545 135.988683 
L 241.492098 132.132322 
L 242.144651 136.133438 
L 242.797203 135.144386 
L 243.449756 139.913378 
L 244.102309 135.68181 
L 244.754862 141.76354 
L 245.407414 126.888925 
L 246.059967 131.661614 
L 246.71252 133.361007 
L 247.365072 142.049107 
L 248.017625 141.254151 
L 248.670178 132.711328 
L 249.322731 141.351265 
L 249.975283 144.986851 
L 250.627836 143.207881 
L 251.280389 131.983477 
L 251.932941 136.760845 
L 252.585494 143.814678 
L 253.238047 126.853322 
L 253.8906 132.086296 
L 254.543152 134.987994 
L 255.195705 135.779698 
L 255.848258 139.046652 
L 256.50081 134.432538 
L 257.153363 146.596617 
L 257.805916 143.936658 
L 258.458469 132.967748 
L 259.111021 138.369068 
L 260.416127 146.57301 
L 261.068679 144.734432 
L 261.721232 145.305201 
L 262.373785 135.557076 
L 263.026338 141.804239 
L 263.67889 142.893036 
L 264.331443 135.307438 
L 264.983996 143.362091 
L 265.636548 142.382548 
L 266.289101 138.904322 
L 266.941654 128.08416 
L 267.594207 136.529245 
L 268.246759 132.214952 
L 268.899312 131.811528 
L 269.551865 133.529809 
L 270.204417 132.910614 
L 270.85697 136.637411 
L 271.509523 137.070114 
L 272.162076 140.239381 
L 272.814628 136.411869 
L 273.467181 145.232698 
L 274.119734 137.248057 
L 274.772286 137.074618 
L 275.424839 137.18331 
L 276.077392 131.436022 
L 276.729945 147.072828 
L 277.382497 142.609119 
L 278.03505 130.246493 
L 278.687603 140.01752 
L 279.340155 128.864373 
L 279.992708 137.40191 
L 280.645261 133.173129 
L 281.297814 133.214848 
L 281.950366 139.070824 
L 282.602919 140.145516 
L 283.255472 131.065621 
L 283.908024 146.254374 
L 284.560577 148.419602 
L 285.21313 141.997326 
L 285.865683 147.215957 
L 286.518235 132.159766 
L 287.170788 134.011743 
L 287.823341 126.04195 
L 288.475893 139.283078 
L 289.128446 129.052256 
L 289.780999 134.735654 
L 290.433552 145.318019 
L 291.086104 138.258287 
L 291.738657 138.288957 
L 292.39121 135.189935 
L 293.043762 143.228286 
L 293.696315 136.686606 
L 295.00142 132.660724 
L 295.653973 134.302883 
L 296.959079 141.040569 
L 297.611631 135.148187 
L 298.264184 131.974495 
L 298.916737 136.649771 
L 299.569289 126.713105 
L 300.221842 139.749725 
L 300.874395 145.738604 
L 301.526948 134.943955 
L 302.1795 135.982148 
L 302.832053 140.535711 
L 303.484606 132.697146 
L 304.137158 143.042532 
L 304.789711 139.363962 
L 305.442264 131.245514 
L 306.094817 136.155754 
L 306.747369 132.087384 
L 307.399922 133.842425 
L 308.052475 132.321085 
L 308.705027 136.747126 
L 309.35758 133.0477 
L 310.010133 145.890665 
L 310.662686 132.247508 
L 311.315238 137.475097 
L 311.967791 128.629503 
L 312.620344 139.021415 
L 313.272896 146.040507 
L 313.925449 155.611093 
L 314.578002 135.17868 
L 315.230555 126.627633 
L 315.883107 148.338825 
L 316.53566 141.522815 
L 317.188213 143.30565 
L 317.840765 136.530306 
L 318.493318 145.85814 
L 319.145871 144.28701 
L 319.798424 133.740556 
L 320.450976 144.352994 
L 321.103529 133.336202 
L 321.756082 143.512695 
L 322.408634 137.282221 
L 323.061187 142.534145 
L 323.71374 143.848546 
L 324.366293 129.197787 
L 325.018845 134.257318 
L 326.323951 138.990712 
L 326.976503 144.493734 
L 327.629056 140.200457 
L 328.281609 132.763005 
L 328.934162 143.574713 
L 329.586714 143.928328 
L 330.239267 147.006547 
L 330.89182 139.158172 
L 331.544372 139.622483 
L 332.196925 135.230217 
L 332.849478 142.31455 
L 333.502031 138.814715 
L 334.154583 139.782818 
L 334.807136 133.569134 
L 335.459689 146.237331 
L 336.112241 138.872063 
L 336.764794 137.426699 
L 337.417347 135.57359 
L 338.0699 129.71366 
L 338.722452 135.083751 
L 339.375005 136.1363 
L 340.027558 133.097492 
L 340.68011 132.665696 
L 341.332663 146.898253 
L 341.985216 137.764508 
L 342.637769 143.105418 
L 343.290321 138.725396 
L 343.942874 149.487056 
L 344.595427 133.83976 
L 345.247979 133.846881 
L 345.900532 142.660249 
L 346.553085 141.740292 
L 347.205638 137.162555 
L 347.85819 141.34848 
L 348.510743 133.618624 
L 349.163296 142.05172 
L 349.815848 141.024745 
L 350.468401 136.605462 
L 351.120954 139.133786 
L 352.426059 139.531115 
L 353.078612 137.209708 
L 353.731165 148.563446 
L 354.383717 148.229334 
L 355.688823 136.471601 
L 356.341376 139.778421 
L 356.993928 139.699395 
L 357.646481 152.921011 
L 358.299034 143.871107 
L 358.951586 144.814537 
L 359.604139 145.314706 
L 360.256692 135.888592 
L 360.909244 152.672008 
L 361.561797 139.583955 
L 362.21435 142.942981 
L 362.866903 141.954909 
L 363.519455 132.110808 
L 364.172008 144.022396 
L 364.824561 143.754528 
L 365.477113 145.699972 
L 366.129666 144.59167 
L 366.782219 136.348329 
L 367.434772 143.092065 
L 368.087324 148.083687 
L 368.739877 136.273068 
L 369.39243 138.497785 
L 370.044982 144.741736 
L 370.697535 136.63874 
L 371.350088 146.424175 
L 372.002641 143.081719 
L 373.307746 139.292471 
L 373.581818 141.132788 
L 373.581818 141.132788 
" style="fill:none;stroke:#1ac938;stroke-linecap:round;stroke-width:1.2;"/>
   </g>
   <g id="line2d_24">
    <path clip-path="url(#p53bfbb9472)" d="M 69.218182 135.586265 
L 71.828393 135.586265 
L 72.480945 141.048049 
L 75.091156 141.048049 
L 75.743709 135.285062 
L 78.35392 135.285062 
L 79.006473 138.268785 
L 81.616683 138.268785 
L 82.269236 145.052465 
L 84.879447 145.052465 
L 85.532 137.397135 
L 88.14221 137.397135 
L 88.794763 145.421716 
L 91.404974 145.421716 
L 92.057527 140.188476 
L 94.667738 140.188476 
L 95.32029 139.351732 
L 97.930501 139.351732 
L 98.583054 138.547993 
L 101.193265 138.547993 
L 101.845817 136.615299 
L 104.456028 136.615299 
L 105.108581 137.559223 
L 107.718792 137.559223 
L 108.371345 141.506096 
L 110.981555 141.506096 
L 111.634108 147.158456 
L 114.244319 147.158456 
L 114.896872 151.511807 
L 117.507083 151.511807 
L 118.159635 154.160955 
L 120.769846 154.160955 
L 121.422399 157.48724 
L 124.03261 157.48724 
L 124.685162 154.88667 
L 127.295373 154.88667 
L 127.947926 157.399267 
L 133.8209 157.368842 
L 134.473453 152.652479 
L 137.083664 152.652479 
L 137.736217 158.012733 
L 140.346428 158.012733 
L 140.99898 162.979655 
L 143.609191 162.979655 
L 144.261744 167.289736 
L 146.871955 167.289736 
L 147.524507 161.119313 
L 150.134718 161.119313 
L 150.787271 160.627728 
L 153.397482 160.627728 
L 154.050034 155.278472 
L 156.660245 155.278472 
L 157.312798 157.597897 
L 159.923009 157.597897 
L 160.575562 156.167476 
L 163.185772 156.167476 
L 163.838325 159.75735 
L 166.448536 159.75735 
L 167.101089 154.012258 
L 169.7113 154.012258 
L 170.363852 159.649954 
L 172.974063 159.649954 
L 173.626616 158.072056 
L 176.236827 158.072056 
L 176.889379 165.983456 
L 179.49959 165.983456 
L 180.152143 168.004354 
L 182.762354 168.004354 
L 183.414907 167.764333 
L 186.025117 167.764333 
L 186.67767 165.281446 
L 189.287881 165.281446 
L 189.940434 161.501361 
L 192.550645 161.501361 
L 193.203197 158.045356 
L 195.813408 158.045356 
L 196.465961 154.406926 
L 199.076172 154.406926 
L 199.728724 155.180789 
L 202.338935 155.180789 
L 202.991488 158.992033 
L 205.601699 158.992033 
L 206.254252 159.579078 
L 208.864462 159.579078 
L 209.517015 161.5332 
L 212.127226 161.5332 
L 212.779779 155.711455 
L 215.38999 155.711455 
L 216.042542 156.483483 
L 218.652753 156.483483 
L 219.305306 161.987134 
L 221.915517 161.987134 
L 222.568069 158.971241 
L 225.17828 158.971241 
L 225.830833 158.613886 
L 228.441044 158.613886 
L 229.093596 129.332143 
L 231.703807 129.332143 
L 232.35636 113.583966 
L 234.966571 113.583966 
L 235.619124 111.435725 
L 238.229334 111.435725 
L 238.881887 110.334545 
L 241.492098 110.334545 
L 242.144651 119.080772 
L 244.754862 119.080772 
L 245.407414 121.497665 
L 248.017625 121.497665 
L 248.670178 129.077438 
L 251.280389 129.077438 
L 251.932941 128.652741 
L 254.543152 128.652741 
L 255.195705 133.78854 
L 257.805916 133.78854 
L 258.458469 135.049806 
L 261.068679 135.049806 
L 261.721232 144.074438 
L 267.594207 144.038163 
L 268.246759 143.10835 
L 270.85697 143.10835 
L 271.509523 141.928088 
L 274.119734 141.928088 
L 274.772286 138.104877 
L 277.382497 138.104877 
L 278.03505 140.509547 
L 280.645261 140.509547 
L 281.297814 136.663283 
L 283.908024 136.663283 
L 284.560577 138.000946 
L 287.170788 138.000946 
L 287.823341 139.35682 
L 290.433552 139.35682 
L 291.086104 140.202964 
L 293.696315 140.202964 
L 294.348868 138.795673 
L 296.959079 138.795673 
L 297.611631 138.217549 
L 300.221842 138.217549 
L 300.874395 136.311906 
L 303.484606 136.311906 
L 304.137158 141.802782 
L 306.747369 141.802782 
L 307.399922 143.882945 
L 310.010133 143.882945 
L 310.662686 142.163658 
L 313.272896 142.163658 
L 313.925449 146.910295 
L 316.53566 146.910295 
L 317.188213 145.673348 
L 319.798424 145.673348 
L 320.450976 145.965069 
L 323.061187 145.965069 
L 323.71374 149.126876 
L 326.323951 149.126876 
L 326.976503 155.024798 
L 329.586714 155.024798 
L 330.239267 156.714517 
L 332.849478 156.714517 
L 333.502031 164.704975 
L 336.112241 164.704975 
L 336.764794 162.92681 
L 339.375005 162.92681 
L 340.027558 164.44722 
L 342.637769 164.44722 
L 343.290321 168.94232 
L 345.900532 168.94232 
L 346.553085 171.958857 
L 349.163296 171.958857 
L 349.815848 176.225455 
L 352.426059 176.225455 
L 353.078612 168.215423 
L 355.688823 168.215423 
L 356.341376 165.241775 
L 358.951586 165.241775 
L 359.604139 160.55808 
L 362.21435 160.55808 
L 362.866903 160.206091 
L 365.085582 160.206091 
L 365.085582 160.206091 
" style="fill:none;stroke:#e8000b;stroke-linecap:round;stroke-width:1.2;"/>
   </g>
   <g id="matplotlib.axis_3">
    <g id="xtick_6">
     <g id="line2d_25">
      <g>
       <use style="stroke:#000000;" x="67.913076" xlink:href="#m7b12416b7e" y="179.52"/>
      </g>
     </g>
     <g id="line2d_26">
      <g>
       <use style="stroke:#000000;" x="67.913076" xlink:href="#mc64fc49079" y="107.04"/>
      </g>
     </g>
    </g>
    <g id="xtick_7">
     <g id="line2d_27">
      <g>
       <use style="stroke:#000000;" x="133.168348" xlink:href="#m7b12416b7e" y="179.52"/>
      </g>
     </g>
     <g id="line2d_28">
      <g>
       <use style="stroke:#000000;" x="133.168348" xlink:href="#mc64fc49079" y="107.04"/>
      </g>
     </g>
    </g>
    <g id="xtick_8">
     <g id="line2d_29">
      <g>
       <use style="stroke:#000000;" x="198.423619" xlink:href="#m7b12416b7e" y="179.52"/>
      </g>
     </g>
     <g id="line2d_30">
      <g>
       <use style="stroke:#000000;" x="198.423619" xlink:href="#mc64fc49079" y="107.04"/>
      </g>
     </g>
    </g>
    <g id="xtick_9">
     <g id="line2d_31">
      <g>
       <use style="stroke:#000000;" x="263.67889" xlink:href="#m7b12416b7e" y="179.52"/>
      </g>
     </g>
     <g id="line2d_32">
      <g>
       <use style="stroke:#000000;" x="263.67889" xlink:href="#mc64fc49079" y="107.04"/>
      </g>
     </g>
    </g>
    <g id="xtick_10">
     <g id="line2d_33">
      <g>
       <use style="stroke:#000000;" x="328.934162" xlink:href="#m7b12416b7e" y="179.52"/>
      </g>
     </g>
     <g id="line2d_34">
      <g>
       <use style="stroke:#000000;" x="328.934162" xlink:href="#mc64fc49079" y="107.04"/>
      </g>
     </g>
    </g>
   </g>
   <g id="matplotlib.axis_4">
    <g id="ytick_4">
     <g id="line2d_35">
      <g>
       <use style="stroke:#000000;" x="54" xlink:href="#m6a6b6f4729" y="170.028157"/>
      </g>
     </g>
     <g id="line2d_36">
      <g>
       <use style="stroke:#000000;" x="388.8" xlink:href="#m1825d0ae84" y="170.028157"/>
      </g>
     </g>
     <g id="text_7">
      <!-- 0.4 -->
      <defs>
       <path d="M 9.078125 0 
L 9.078125 10.015625 
L 19.09375 10.015625 
L 19.09375 0 
z
" id="ArialMT-46"/>
       <path d="M 32.328125 0 
L 32.328125 17.140625 
L 1.265625 17.140625 
L 1.265625 25.203125 
L 33.9375 71.578125 
L 41.109375 71.578125 
L 41.109375 25.203125 
L 50.78125 25.203125 
L 50.78125 17.140625 
L 41.109375 17.140625 
L 41.109375 0 
z
M 32.328125 25.203125 
L 32.328125 57.46875 
L 9.90625 25.203125 
z
" id="ArialMT-52"/>
      </defs>
      <g transform="translate(38.268 173.177594)scale(0.088 -0.088)">
       <use xlink:href="#ArialMT-48"/>
       <use x="55.615234" xlink:href="#ArialMT-46"/>
       <use x="83.398438" xlink:href="#ArialMT-52"/>
      </g>
     </g>
    </g>
    <g id="ytick_5">
     <g id="line2d_37">
      <g>
       <use style="stroke:#000000;" x="54" xlink:href="#m6a6b6f4729" y="148.684129"/>
      </g>
     </g>
     <g id="line2d_38">
      <g>
       <use style="stroke:#000000;" x="388.8" xlink:href="#m1825d0ae84" y="148.684129"/>
      </g>
     </g>
     <g id="text_8">
      <!-- 0.5 -->
      <g transform="translate(38.268 151.833567)scale(0.088 -0.088)">
       <use xlink:href="#ArialMT-48"/>
       <use x="55.615234" xlink:href="#ArialMT-46"/>
       <use x="83.398438" xlink:href="#ArialMT-53"/>
      </g>
     </g>
    </g>
    <g id="ytick_6">
     <g id="line2d_39">
      <g>
       <use style="stroke:#000000;" x="54" xlink:href="#m6a6b6f4729" y="127.340102"/>
      </g>
     </g>
     <g id="line2d_40">
      <g>
       <use style="stroke:#000000;" x="388.8" xlink:href="#m1825d0ae84" y="127.340102"/>
      </g>
     </g>
     <g id="text_9">
      <!-- 0.6 -->
      <defs>
       <path d="M 49.75 54.046875 
L 41.015625 53.375 
Q 39.84375 58.546875 37.703125 60.890625 
Q 34.125 64.65625 28.90625 64.65625 
Q 24.703125 64.65625 21.53125 62.3125 
Q 17.390625 59.28125 14.984375 53.46875 
Q 12.59375 47.65625 12.5 36.921875 
Q 15.671875 41.75 20.265625 44.09375 
Q 24.859375 46.4375 29.890625 46.4375 
Q 38.671875 46.4375 44.84375 39.96875 
Q 51.03125 33.5 51.03125 23.25 
Q 51.03125 16.5 48.125 10.71875 
Q 45.21875 4.9375 40.140625 1.859375 
Q 35.0625 -1.21875 28.609375 -1.21875 
Q 17.625 -1.21875 10.6875 6.859375 
Q 3.765625 14.9375 3.765625 33.5 
Q 3.765625 54.25 11.421875 63.671875 
Q 18.109375 71.875 29.4375 71.875 
Q 37.890625 71.875 43.28125 67.140625 
Q 48.6875 62.40625 49.75 54.046875 
z
M 13.875 23.1875 
Q 13.875 18.65625 15.796875 14.5 
Q 17.71875 10.359375 21.1875 8.171875 
Q 24.65625 6 28.46875 6 
Q 34.03125 6 38.03125 10.484375 
Q 42.046875 14.984375 42.046875 22.703125 
Q 42.046875 30.125 38.078125 34.390625 
Q 34.125 38.671875 28.125 38.671875 
Q 22.171875 38.671875 18.015625 34.390625 
Q 13.875 30.125 13.875 23.1875 
z
" id="ArialMT-54"/>
      </defs>
      <g transform="translate(38.268 130.489539)scale(0.088 -0.088)">
       <use xlink:href="#ArialMT-48"/>
       <use x="55.615234" xlink:href="#ArialMT-46"/>
       <use x="83.398438" xlink:href="#ArialMT-54"/>
      </g>
     </g>
    </g>
    <g id="text_10">
     <!-- $F$ -->
     <defs>
      <path d="M 16.890625 72.90625 
L 58.6875 72.90625 
L 57.078125 64.59375 
L 25.09375 64.59375 
L 20.90625 43.109375 
L 49.8125 43.109375 
L 48.1875 34.8125 
L 19.28125 34.8125 
L 12.5 0 
L 2.6875 0 
z
" id="DejaVuSans-Oblique-70"/>
     </defs>
     <g transform="translate(32.36 146.064)rotate(-90)scale(0.096 -0.096)">
      <use transform="translate(0 0.09375)" xlink:href="#DejaVuSans-Oblique-70"/>
     </g>
    </g>
   </g>
   <g id="patch_10">
    <path d="M 54 179.52 
L 54 107.04 
" style="fill:none;stroke:#000000;stroke-linecap:square;stroke-linejoin:miter;"/>
   </g>
   <g id="patch_11">
    <path d="M 388.8 179.52 
L 388.8 107.04 
" style="fill:none;stroke:#000000;stroke-linecap:square;stroke-linejoin:miter;"/>
   </g>
   <g id="patch_12">
    <path d="M 54 179.52 
L 388.8 179.52 
" style="fill:none;stroke:#000000;stroke-linecap:square;stroke-linejoin:miter;"/>
   </g>
   <g id="patch_13">
    <path d="M 54 107.04 
L 388.8 107.04 
" style="fill:none;stroke:#000000;stroke-linecap:square;stroke-linejoin:miter;"/>
   </g>
  </g>
  <g id="axes_3">
   <g id="patch_14">
    <path d="M 54 252 
L 388.8 252 
L 388.8 179.52 
L 54 179.52 
z
" style="fill:#ffffff;"/>
   </g>
   <g id="line2d_41">
    <path clip-path="url(#pcd57842acc)" d="M 69.218182 244.328443 
L 69.870735 240.617553 
L 70.523287 244.146335 
L 71.17584 241.866822 
L 71.828393 240.122036 
L 72.480945 239.287856 
L 73.133498 237.077815 
L 73.786051 240.55624 
L 74.438604 240.247666 
L 75.091156 236.541621 
L 75.743709 236.383154 
L 76.396262 240.29874 
L 77.048814 234.925919 
L 77.701367 240.190055 
L 78.35392 240.592574 
L 79.006473 243.891874 
L 79.659025 239.977048 
L 80.311578 240.44386 
L 80.964131 240.326263 
L 81.616683 242.869372 
L 82.269236 238.714223 
L 82.921789 239.862221 
L 83.574342 234.856763 
L 84.226894 243.42942 
L 84.879447 239.085318 
L 85.532 245.198497 
L 86.184552 240.785985 
L 86.837105 238.441976 
L 87.489658 242.815377 
L 88.14221 240.495071 
L 88.794763 236.253038 
L 89.447316 236.461728 
L 90.099869 235.117401 
L 90.752421 242.268498 
L 91.404974 238.210554 
L 92.057527 239.449696 
L 92.710079 239.502434 
L 93.362632 247.199638 
L 94.015185 241.144259 
L 94.667738 238.417607 
L 95.32029 241.918038 
L 95.972843 240.339176 
L 96.625396 241.888453 
L 97.277948 240.133095 
L 97.930501 237.523366 
L 98.583054 236.010647 
L 99.235607 239.746321 
L 99.888159 241.142143 
L 100.540712 239.711012 
L 101.193265 235.404636 
L 101.845817 244.203003 
L 102.49837 235.92053 
L 103.150923 240.608046 
L 103.803476 236.500171 
L 104.456028 237.231271 
L 105.108581 243.760861 
L 105.761134 231.235881 
L 106.413686 234.363041 
L 107.066239 239.948501 
L 107.718792 238.578879 
L 108.371345 243.529729 
L 109.023897 238.004308 
L 109.67645 234.220705 
L 110.329003 243.87705 
L 110.981555 234.339114 
L 111.634108 239.596117 
L 112.286661 240.490762 
L 112.939214 234.612581 
L 113.591766 237.178603 
L 114.244319 240.657122 
L 114.896872 230.129723 
L 115.549424 240.81332 
L 116.201977 236.621086 
L 116.85453 237.676476 
L 117.507083 239.866041 
L 118.159635 237.813674 
L 118.812188 242.321749 
L 119.464741 239.034277 
L 120.117293 239.839507 
L 120.769846 235.990965 
L 121.422399 235.326647 
L 122.074952 238.433276 
L 122.727504 240.194529 
L 123.380057 240.208417 
L 124.03261 239.796654 
L 124.685162 246.268452 
L 125.337715 237.923854 
L 125.990268 237.045439 
L 127.295373 241.431324 
L 127.947926 237.044348 
L 128.600479 244.177 
L 129.253031 238.315521 
L 129.905584 239.652646 
L 130.558137 245.284476 
L 131.21069 243.124199 
L 131.863242 239.430485 
L 132.515795 241.092665 
L 133.168348 233.118921 
L 133.8209 242.984281 
L 134.473453 234.222523 
L 135.126006 236.130546 
L 135.778559 235.794579 
L 136.431111 238.18174 
L 137.083664 235.080618 
L 137.736217 239.052138 
L 138.388769 239.146624 
L 139.041322 239.981167 
L 139.693875 234.833654 
L 140.346428 235.324809 
L 140.99898 237.160042 
L 141.651533 239.49643 
L 142.956638 236.175343 
L 143.609191 233.840172 
L 144.261744 232.774446 
L 144.914297 241.931062 
L 145.566849 235.986138 
L 146.219402 242.238697 
L 146.871955 238.832509 
L 147.524507 238.929728 
L 148.17706 235.285271 
L 148.829613 238.514539 
L 149.482166 248.705455 
L 150.134718 238.094298 
L 150.787271 237.750807 
L 151.439824 238.182299 
L 152.092376 239.596796 
L 152.744929 239.665669 
L 153.397482 245.751984 
L 154.050034 239.244946 
L 154.702587 238.39477 
L 155.35514 237.17086 
L 156.007693 237.235194 
L 156.660245 241.503777 
L 157.312798 239.217225 
L 157.965351 240.272725 
L 158.617903 238.279882 
L 159.270456 234.080205 
L 159.923009 237.205442 
L 160.575562 245.217305 
L 161.228114 237.92571 
L 161.880667 236.405172 
L 162.53322 236.85433 
L 163.185772 240.217051 
L 163.838325 238.457543 
L 164.490878 237.838115 
L 165.795983 240.894938 
L 166.448536 240.409962 
L 167.101089 242.457388 
L 167.753641 239.638288 
L 168.406194 244.15907 
L 169.058747 239.69051 
L 169.7113 243.435685 
L 170.363852 239.272126 
L 171.016405 245.727602 
L 171.668958 232.515847 
L 172.32151 246.237257 
L 172.974063 239.675806 
L 173.626616 240.767632 
L 174.279169 240.11105 
L 174.931721 245.038885 
L 175.584274 242.526169 
L 176.236827 242.139074 
L 176.889379 240.702616 
L 177.541932 242.917547 
L 178.194485 238.464907 
L 178.847038 238.535384 
L 179.49959 240.70247 
L 180.152143 245.05456 
L 181.457248 234.685758 
L 182.109801 243.968493 
L 182.762354 237.976333 
L 183.414907 239.430028 
L 184.067459 242.61412 
L 184.720012 238.78878 
L 185.372565 239.197698 
L 186.025117 237.555042 
L 186.67767 244.566383 
L 187.330223 237.418951 
L 187.982776 240.349988 
L 188.635328 235.739669 
L 189.287881 242.987601 
L 189.940434 240.065504 
L 190.592986 243.212618 
L 191.245539 238.978303 
L 191.898092 240.844118 
L 192.550645 240.422883 
L 193.203197 239.31686 
L 193.85575 240.037103 
L 194.508303 237.017988 
L 195.160855 236.567004 
L 195.813408 237.709619 
L 196.465961 239.327993 
L 197.118514 236.542587 
L 197.771066 239.335508 
L 198.423619 236.940621 
L 199.076172 233.840736 
L 199.728724 234.948192 
L 200.381277 238.690086 
L 201.03383 237.548393 
L 201.686383 235.332851 
L 202.338935 241.281391 
L 202.991488 232.984743 
L 203.644041 233.881677 
L 204.296593 236.745617 
L 204.949146 236.467641 
L 205.601699 237.18029 
L 206.254252 239.271085 
L 206.906804 234.925969 
L 207.559357 239.084378 
L 208.864462 238.165033 
L 209.517015 234.071923 
L 210.169568 235.329368 
L 210.822121 239.69695 
L 211.474673 232.133562 
L 212.127226 237.776619 
L 212.779779 236.457798 
L 213.432331 234.266853 
L 214.084884 233.090498 
L 214.737437 238.233303 
L 215.38999 234.242168 
L 216.042542 236.731397 
L 216.695095 231.167425 
L 217.347648 236.036903 
L 218.0002 236.017131 
L 218.652753 233.123666 
L 219.305306 235.797234 
L 219.957859 233.530153 
L 220.610411 235.155872 
L 221.262964 228.851702 
L 221.915517 233.573968 
L 222.568069 227.04765 
L 223.220622 235.393328 
L 223.873175 234.671515 
L 224.525727 231.073903 
L 225.17828 237.322548 
L 225.830833 233.400047 
L 226.483386 234.30834 
L 227.135938 234.624237 
L 227.788491 231.693987 
L 228.441044 232.001652 
L 229.093596 228.944493 
L 229.746149 235.094895 
L 230.398702 231.674784 
L 231.051255 233.446936 
L 231.703807 227.94778 
L 232.35636 236.85838 
L 233.008913 230.947352 
L 233.661465 229.030494 
L 234.314018 236.667886 
L 234.966571 233.451414 
L 235.619124 228.930843 
L 236.271676 233.163318 
L 236.924229 233.844412 
L 237.576782 230.932501 
L 238.881887 236.420342 
L 239.53444 227.383844 
L 240.186993 232.461031 
L 240.839545 226.30274 
L 241.492098 234.620788 
L 242.144651 232.353602 
L 242.797203 229.51452 
L 243.449756 229.995914 
L 244.102309 226.684898 
L 244.754862 231.088612 
L 245.407414 232.086927 
L 246.059967 233.347336 
L 246.71252 228.032334 
L 247.365072 234.435869 
L 248.017625 229.482133 
L 248.670178 229.747293 
L 249.322731 229.022311 
L 249.975283 224.033498 
L 251.280389 236.752017 
L 252.585494 226.629295 
L 253.238047 231.154722 
L 253.8906 229.840793 
L 254.543152 233.134553 
L 255.195705 230.344705 
L 255.848258 229.252393 
L 256.50081 229.443736 
L 257.805916 231.171413 
L 258.458469 234.874546 
L 259.111021 227.331262 
L 260.416127 233.115098 
L 261.068679 231.397182 
L 261.721232 232.779254 
L 262.373785 228.330853 
L 263.026338 226.229797 
L 263.67889 229.879353 
L 264.331443 227.856355 
L 264.983996 235.454183 
L 265.636548 232.763738 
L 266.289101 236.71818 
L 266.941654 224.716866 
L 267.594207 231.452216 
L 268.246759 232.212584 
L 268.899312 227.937725 
L 269.551865 232.811919 
L 270.204417 223.748732 
L 270.85697 231.199892 
L 271.509523 232.314129 
L 272.162076 229.458683 
L 272.814628 230.197249 
L 273.467181 228.994498 
L 274.119734 236.104176 
L 275.424839 228.486369 
L 276.077392 228.235711 
L 276.729945 227.127506 
L 277.382497 229.39546 
L 278.03505 225.631197 
L 278.687603 225.971019 
L 279.340155 232.934867 
L 279.992708 229.781318 
L 280.645261 229.635317 
L 281.297814 232.185938 
L 281.950366 224.726465 
L 282.602919 230.335512 
L 283.255472 228.881262 
L 283.908024 224.351636 
L 285.21313 227.951476 
L 286.518235 223.23619 
L 287.170788 229.602772 
L 287.823341 232.482551 
L 288.475893 224.491427 
L 289.128446 228.794869 
L 289.780999 225.79371 
L 290.433552 225.165032 
L 291.086104 228.721013 
L 291.738657 229.541709 
L 292.39121 227.538058 
L 294.348868 228.302609 
L 295.00142 225.473457 
L 295.653973 225.945179 
L 296.306526 235.610686 
L 296.959079 223.454521 
L 297.611631 228.987285 
L 298.264184 230.710531 
L 298.916737 228.225159 
L 299.569289 229.006211 
L 300.221842 227.42865 
L 300.874395 227.332349 
L 301.526948 226.136293 
L 302.1795 226.301147 
L 302.832053 227.013467 
L 303.484606 226.178894 
L 304.137158 222.814031 
L 304.789711 226.516082 
L 305.442264 233.126083 
L 306.094817 226.641242 
L 306.747369 223.925695 
L 307.399922 225.912674 
L 308.052475 228.865425 
L 308.705027 228.370722 
L 309.35758 224.162178 
L 310.010133 226.299586 
L 310.662686 227.94708 
L 311.315238 225.521389 
L 311.967791 228.696438 
L 312.620344 224.081391 
L 313.272896 231.865492 
L 313.925449 227.557462 
L 314.578002 230.682595 
L 315.230555 226.560011 
L 315.883107 224.041235 
L 316.53566 227.677525 
L 317.188213 228.626588 
L 317.840765 231.837804 
L 318.493318 227.760325 
L 319.145871 228.864385 
L 319.798424 223.784523 
L 320.450976 222.133213 
L 321.103529 225.37614 
L 321.756082 223.850246 
L 322.408634 221.524015 
L 323.061187 230.320504 
L 323.71374 228.896523 
L 324.366293 228.04515 
L 325.018845 228.534505 
L 325.671398 229.474017 
L 326.323951 228.754265 
L 326.976503 224.508709 
L 327.629056 230.022109 
L 328.281609 227.21507 
L 328.934162 221.63769 
L 329.586714 223.25823 
L 330.239267 228.61906 
L 330.89182 229.463902 
L 331.544372 232.479185 
L 332.196925 226.259937 
L 332.849478 227.041966 
L 333.502031 226.95765 
L 334.154583 231.288683 
L 334.807136 221.384249 
L 335.459689 228.254703 
L 336.112241 222.691068 
L 337.417347 229.166621 
L 338.0699 227.588185 
L 338.722452 224.957231 
L 340.027558 229.575438 
L 340.68011 228.124138 
L 341.332663 230.781181 
L 341.985216 227.616733 
L 342.637769 227.911471 
L 343.290321 225.314587 
L 343.942874 229.112664 
L 344.595427 230.678252 
L 345.247979 229.454267 
L 345.900532 227.427959 
L 346.553085 232.371674 
L 347.205638 228.225194 
L 347.85819 223.159255 
L 348.510743 220.218924 
L 349.163296 229.350193 
L 349.815848 229.247911 
L 350.468401 227.212087 
L 351.120954 226.102418 
L 351.773507 234.360879 
L 352.426059 231.525085 
L 353.078612 224.683043 
L 353.731165 226.938803 
L 354.383717 225.846032 
L 355.03627 222.059489 
L 356.341376 223.890391 
L 356.993928 225.328066 
L 357.646481 224.466784 
L 358.299034 223.01371 
L 358.951586 224.588141 
L 359.604139 224.951709 
L 360.256692 222.338453 
L 360.909244 223.661517 
L 361.561797 223.559568 
L 362.21435 227.385126 
L 362.866903 223.5888 
L 363.519455 223.770068 
L 364.172008 226.382013 
L 364.824561 225.709424 
L 365.477113 226.989566 
L 366.129666 227.279939 
L 366.782219 224.713851 
L 367.434772 223.628246 
L 368.087324 231.274464 
L 368.739877 229.89933 
L 369.39243 221.521824 
L 370.044982 221.267446 
L 370.697535 221.956331 
L 371.350088 224.764825 
L 372.002641 222.042562 
L 372.655193 228.963712 
L 373.307746 230.08485 
L 373.581818 223.607976 
L 373.581818 223.607976 
" style="fill:none;stroke:#1ac938;stroke-linecap:round;stroke-width:1.2;"/>
   </g>
   <g id="line2d_42">
    <path clip-path="url(#pcd57842acc)" d="M 69.218182 227.768284 
L 71.828393 227.768284 
L 72.480945 215.520276 
L 75.091156 215.520276 
L 75.743709 213.669042 
L 81.616683 213.603127 
L 82.269236 205.250996 
L 84.879447 205.250996 
L 85.532 211.017982 
L 88.14221 211.017982 
L 88.794763 210.021161 
L 91.404974 210.021161 
L 92.057527 213.142652 
L 94.667738 213.142652 
L 95.32029 212.352215 
L 97.930501 212.352215 
L 98.583054 212.224395 
L 101.193265 212.224395 
L 101.845817 217.168975 
L 104.456028 217.168975 
L 105.108581 217.340561 
L 107.718792 217.340561 
L 108.371345 221.140861 
L 110.981555 221.140861 
L 111.634108 221.460634 
L 114.244319 221.460634 
L 114.896872 217.965908 
L 117.507083 217.965908 
L 118.159635 210.60375 
L 120.769846 210.60375 
L 121.422399 207.232569 
L 124.03261 207.232569 
L 124.685162 207.871791 
L 127.295373 207.871791 
L 127.947926 210.559698 
L 130.558137 210.559698 
L 131.21069 212.278135 
L 133.8209 212.278135 
L 134.473453 211.391548 
L 137.083664 211.391548 
L 137.736217 204.193948 
L 140.346428 204.193948 
L 140.99898 197.07617 
L 143.609191 197.07617 
L 144.261744 199.877596 
L 146.871955 199.877596 
L 147.524507 193.011191 
L 150.134718 193.011191 
L 150.787271 182.814545 
L 153.397482 182.814545 
L 154.050034 191.826338 
L 156.660245 191.826338 
L 157.312798 192.295619 
L 159.923009 192.295619 
L 160.575562 197.450936 
L 163.185772 197.450936 
L 163.838325 199.511578 
L 166.448536 199.511578 
L 167.101089 207.171683 
L 169.7113 207.171683 
L 170.363852 210.097397 
L 172.974063 210.097397 
L 173.626616 216.570996 
L 176.236827 216.570996 
L 176.889379 217.787249 
L 179.49959 217.787249 
L 180.152143 210.833299 
L 182.762354 210.833299 
L 183.414907 214.828771 
L 186.025117 214.828771 
L 186.67767 204.593086 
L 189.287881 204.593086 
L 189.940434 211.236102 
L 192.550645 211.236102 
L 193.203197 215.607595 
L 195.813408 215.607595 
L 196.465961 216.207727 
L 199.076172 216.207727 
L 199.728724 209.23179 
L 202.338935 209.23179 
L 202.991488 203.507726 
L 205.601699 203.507726 
L 206.254252 205.237025 
L 208.864462 205.237025 
L 209.517015 206.266038 
L 212.127226 206.266038 
L 212.779779 203.311055 
L 215.38999 203.311055 
L 216.042542 200.589087 
L 218.652753 200.589087 
L 219.305306 196.261431 
L 221.915517 196.261431 
L 222.568069 207.762533 
L 228.441044 207.858557 
L 229.093596 228.053855 
L 231.703807 228.053855 
L 232.35636 231.753604 
L 234.966571 231.753604 
L 235.619124 227.111346 
L 238.229334 227.111346 
L 238.881887 228.917109 
L 241.492098 228.917109 
L 242.144651 233.124542 
L 244.754862 233.124542 
L 245.407414 233.597219 
L 248.017625 233.597219 
L 248.670178 226.041407 
L 251.280389 226.041407 
L 251.932941 217.146455 
L 254.543152 217.146455 
L 255.195705 222.500046 
L 257.805916 222.500046 
L 258.458469 225.644933 
L 261.068679 225.644933 
L 261.721232 220.959574 
L 264.331443 220.959574 
L 264.983996 216.269354 
L 267.594207 216.269354 
L 268.246759 211.524787 
L 270.85697 211.524787 
L 271.509523 211.19055 
L 274.119734 211.19055 
L 274.772286 213.595762 
L 277.382497 213.595762 
L 278.03505 205.768332 
L 280.645261 205.768332 
L 281.297814 208.033018 
L 283.908024 208.033018 
L 284.560577 198.583388 
L 287.170788 198.583388 
L 287.823341 198.956687 
L 290.433552 198.956687 
L 291.086104 207.237963 
L 293.696315 207.237963 
L 294.348868 208.46611 
L 296.959079 208.46611 
L 297.611631 195.683406 
L 300.221842 195.683406 
L 300.874395 210.609248 
L 303.484606 210.609248 
L 304.137158 200.712082 
L 306.747369 200.712082 
L 307.399922 194.4133 
L 310.010133 194.4133 
L 310.662686 198.931412 
L 313.272896 198.931412 
L 313.925449 209.025579 
L 316.53566 209.025579 
L 317.188213 214.724055 
L 319.798424 214.724055 
L 320.450976 206.023662 
L 323.061187 206.023662 
L 323.71374 209.300772 
L 326.323951 209.300772 
L 326.976503 216.577616 
L 329.586714 216.577616 
L 330.239267 211.594783 
L 332.849478 211.594783 
L 333.502031 209.43071 
L 336.112241 209.43071 
L 336.764794 225.963956 
L 339.375005 225.963956 
L 340.027558 232.260393 
L 342.637769 232.260393 
L 343.290321 230.028982 
L 345.900532 230.028982 
L 346.553085 229.140747 
L 349.163296 229.140747 
L 349.815848 219.260182 
L 352.426059 219.260182 
L 353.078612 219.551568 
L 355.688823 219.551568 
L 356.341376 216.625428 
L 358.951586 216.625428 
L 359.604139 209.491956 
L 362.21435 209.491956 
L 362.866903 202.717298 
L 365.085582 202.717298 
L 365.085582 202.717298 
" style="fill:none;stroke:#e8000b;stroke-linecap:round;stroke-width:1.2;"/>
   </g>
   <g id="matplotlib.axis_5">
    <g id="xtick_11">
     <g id="line2d_43">
      <g>
       <use style="stroke:#000000;" x="67.913076" xlink:href="#m7b12416b7e" y="252"/>
      </g>
     </g>
     <g id="line2d_44">
      <g>
       <use style="stroke:#000000;" x="67.913076" xlink:href="#mc64fc49079" y="179.52"/>
      </g>
     </g>
     <g id="text_11">
      <!-- $\mathdefault{0}$ -->
      <g transform="translate(65.449076 261.798875)scale(0.088 -0.088)">
       <use transform="translate(0 0.125)" xlink:href="#ArialMT-48"/>
      </g>
     </g>
    </g>
    <g id="xtick_12">
     <g id="line2d_45">
      <g>
       <use style="stroke:#000000;" x="133.168348" xlink:href="#m7b12416b7e" y="252"/>
      </g>
     </g>
     <g id="line2d_46">
      <g>
       <use style="stroke:#000000;" x="133.168348" xlink:href="#mc64fc49079" y="179.52"/>
      </g>
     </g>
     <g id="text_12">
      <!-- $\mathdefault{1}$ -->
      <g transform="translate(130.704348 261.798875)scale(0.088 -0.088)">
       <use transform="translate(0 0.125)" xlink:href="#ArialMT-49"/>
      </g>
     </g>
    </g>
    <g id="xtick_13">
     <g id="line2d_47">
      <g>
       <use style="stroke:#000000;" x="198.423619" xlink:href="#m7b12416b7e" y="252"/>
      </g>
     </g>
     <g id="line2d_48">
      <g>
       <use style="stroke:#000000;" x="198.423619" xlink:href="#mc64fc49079" y="179.52"/>
      </g>
     </g>
     <g id="text_13">
      <!-- $\mathdefault{2}$ -->
      <defs>
       <path d="M 50.34375 8.453125 
L 50.34375 0 
L 3.03125 0 
Q 2.9375 3.171875 4.046875 6.109375 
Q 5.859375 10.9375 9.828125 15.625 
Q 13.8125 20.3125 21.34375 26.46875 
Q 33.015625 36.03125 37.109375 41.625 
Q 41.21875 47.21875 41.21875 52.203125 
Q 41.21875 57.421875 37.46875 61 
Q 33.734375 64.59375 27.734375 64.59375 
Q 21.390625 64.59375 17.578125 60.78125 
Q 13.765625 56.984375 13.71875 50.25 
L 4.6875 51.171875 
Q 5.609375 61.28125 11.65625 66.578125 
Q 17.71875 71.875 27.9375 71.875 
Q 38.234375 71.875 44.234375 66.15625 
Q 50.25 60.453125 50.25 52 
Q 50.25 47.703125 48.484375 43.546875 
Q 46.734375 39.40625 42.65625 34.8125 
Q 38.578125 30.21875 29.109375 22.21875 
Q 21.1875 15.578125 18.9375 13.203125 
Q 16.703125 10.84375 15.234375 8.453125 
z
" id="ArialMT-50"/>
      </defs>
      <g transform="translate(195.959619 261.798875)scale(0.088 -0.088)">
       <use transform="translate(0 0.125)" xlink:href="#ArialMT-50"/>
      </g>
     </g>
    </g>
    <g id="xtick_14">
     <g id="line2d_49">
      <g>
       <use style="stroke:#000000;" x="263.67889" xlink:href="#m7b12416b7e" y="252"/>
      </g>
     </g>
     <g id="line2d_50">
      <g>
       <use style="stroke:#000000;" x="263.67889" xlink:href="#mc64fc49079" y="179.52"/>
      </g>
     </g>
     <g id="text_14">
      <!-- $\mathdefault{3}$ -->
      <defs>
       <path d="M 4.203125 18.890625 
L 12.984375 20.0625 
Q 14.5 12.59375 18.140625 9.296875 
Q 21.78125 6 27 6 
Q 33.203125 6 37.46875 10.296875 
Q 41.75 14.59375 41.75 20.953125 
Q 41.75 27 37.796875 30.921875 
Q 33.84375 34.859375 27.734375 34.859375 
Q 25.25 34.859375 21.53125 33.890625 
L 22.515625 41.609375 
Q 23.390625 41.5 23.921875 41.5 
Q 29.546875 41.5 34.03125 44.421875 
Q 38.53125 47.359375 38.53125 53.46875 
Q 38.53125 58.296875 35.25 61.46875 
Q 31.984375 64.65625 26.8125 64.65625 
Q 21.6875 64.65625 18.265625 61.421875 
Q 14.84375 58.203125 13.875 51.765625 
L 5.078125 53.328125 
Q 6.6875 62.15625 12.390625 67.015625 
Q 18.109375 71.875 26.609375 71.875 
Q 32.46875 71.875 37.390625 69.359375 
Q 42.328125 66.84375 44.9375 62.5 
Q 47.5625 58.15625 47.5625 53.265625 
Q 47.5625 48.640625 45.0625 44.828125 
Q 42.578125 41.015625 37.703125 38.765625 
Q 44.046875 37.3125 47.5625 32.6875 
Q 51.078125 28.078125 51.078125 21.140625 
Q 51.078125 11.765625 44.234375 5.25 
Q 37.40625 -1.265625 26.953125 -1.265625 
Q 17.53125 -1.265625 11.296875 4.34375 
Q 5.078125 9.96875 4.203125 18.890625 
z
" id="ArialMT-51"/>
      </defs>
      <g transform="translate(261.21489 261.798875)scale(0.088 -0.088)">
       <use transform="translate(0 0.125)" xlink:href="#ArialMT-51"/>
      </g>
     </g>
    </g>
    <g id="xtick_15">
     <g id="line2d_51">
      <g>
       <use style="stroke:#000000;" x="328.934162" xlink:href="#m7b12416b7e" y="252"/>
      </g>
     </g>
     <g id="line2d_52">
      <g>
       <use style="stroke:#000000;" x="328.934162" xlink:href="#mc64fc49079" y="179.52"/>
      </g>
     </g>
     <g id="text_15">
      <!-- $\mathdefault{4}$ -->
      <g transform="translate(326.470162 261.798875)scale(0.088 -0.088)">
       <use transform="translate(0 0.421875)" xlink:href="#ArialMT-52"/>
      </g>
     </g>
    </g>
    <g id="text_16">
     <!-- evaluations -->
     <defs>
      <path d="M 21 0 
L 1.265625 51.859375 
L 10.546875 51.859375 
L 21.6875 20.796875 
Q 23.484375 15.765625 25 10.359375 
Q 26.171875 14.453125 28.265625 20.21875 
L 39.796875 51.859375 
L 48.828125 51.859375 
L 29.203125 0 
z
" id="ArialMT-118"/>
      <path d="M 40.4375 6.390625 
Q 35.546875 2.25 31.03125 0.53125 
Q 26.515625 -1.171875 21.34375 -1.171875 
Q 12.796875 -1.171875 8.203125 3 
Q 3.609375 7.171875 3.609375 13.671875 
Q 3.609375 17.484375 5.34375 20.625 
Q 7.078125 23.78125 9.890625 25.6875 
Q 12.703125 27.59375 16.21875 28.5625 
Q 18.796875 29.25 24.03125 29.890625 
Q 34.671875 31.15625 39.703125 32.90625 
Q 39.75 34.71875 39.75 35.203125 
Q 39.75 40.578125 37.25 42.78125 
Q 33.890625 45.75 27.25 45.75 
Q 21.046875 45.75 18.09375 43.578125 
Q 15.140625 41.40625 13.71875 35.890625 
L 5.125 37.0625 
Q 6.296875 42.578125 8.984375 45.96875 
Q 11.671875 49.359375 16.75 51.1875 
Q 21.828125 53.03125 28.515625 53.03125 
Q 35.15625 53.03125 39.296875 51.46875 
Q 43.453125 49.90625 45.40625 47.53125 
Q 47.359375 45.171875 48.140625 41.546875 
Q 48.578125 39.3125 48.578125 33.453125 
L 48.578125 21.734375 
Q 48.578125 9.46875 49.140625 6.21875 
Q 49.703125 2.984375 51.375 0 
L 42.1875 0 
Q 40.828125 2.734375 40.4375 6.390625 
z
M 39.703125 26.03125 
Q 34.90625 24.078125 25.34375 22.703125 
Q 19.921875 21.921875 17.671875 20.9375 
Q 15.4375 19.96875 14.203125 18.09375 
Q 12.984375 16.21875 12.984375 13.921875 
Q 12.984375 10.40625 15.640625 8.0625 
Q 18.3125 5.71875 23.4375 5.71875 
Q 28.515625 5.71875 32.46875 7.9375 
Q 36.421875 10.15625 38.28125 14.015625 
Q 39.703125 17 39.703125 22.796875 
z
" id="ArialMT-97"/>
      <path d="M 6.390625 0 
L 6.390625 71.578125 
L 15.1875 71.578125 
L 15.1875 0 
z
" id="ArialMT-108"/>
      <path d="M 40.578125 0 
L 40.578125 7.625 
Q 34.515625 -1.171875 24.125 -1.171875 
Q 19.53125 -1.171875 15.546875 0.578125 
Q 11.578125 2.34375 9.640625 5 
Q 7.71875 7.671875 6.9375 11.53125 
Q 6.390625 14.109375 6.390625 19.734375 
L 6.390625 51.859375 
L 15.1875 51.859375 
L 15.1875 23.09375 
Q 15.1875 16.21875 15.71875 13.8125 
Q 16.546875 10.359375 19.234375 8.375 
Q 21.921875 6.390625 25.875 6.390625 
Q 29.828125 6.390625 33.296875 8.421875 
Q 36.765625 10.453125 38.203125 13.9375 
Q 39.65625 17.4375 39.65625 24.078125 
L 39.65625 51.859375 
L 48.4375 51.859375 
L 48.4375 0 
z
" id="ArialMT-117"/>
      <path d="M 3.328125 25.921875 
Q 3.328125 40.328125 11.328125 47.265625 
Q 18.015625 53.03125 27.640625 53.03125 
Q 38.328125 53.03125 45.109375 46.015625 
Q 51.90625 39.015625 51.90625 26.65625 
Q 51.90625 16.65625 48.90625 10.90625 
Q 45.90625 5.171875 40.15625 2 
Q 34.421875 -1.171875 27.640625 -1.171875 
Q 16.75 -1.171875 10.03125 5.8125 
Q 3.328125 12.796875 3.328125 25.921875 
z
M 12.359375 25.921875 
Q 12.359375 15.96875 16.703125 11.015625 
Q 21.046875 6.0625 27.640625 6.0625 
Q 34.1875 6.0625 38.53125 11.03125 
Q 42.875 16.015625 42.875 26.21875 
Q 42.875 35.84375 38.5 40.796875 
Q 34.125 45.75 27.640625 45.75 
Q 21.046875 45.75 16.703125 40.8125 
Q 12.359375 35.890625 12.359375 25.921875 
z
" id="ArialMT-111"/>
     </defs>
     <g transform="translate(197.118 274.419375)scale(0.096 -0.096)">
      <use xlink:href="#ArialMT-101"/>
      <use x="55.615234" xlink:href="#ArialMT-118"/>
      <use x="105.615234" xlink:href="#ArialMT-97"/>
      <use x="161.230469" xlink:href="#ArialMT-108"/>
      <use x="183.447266" xlink:href="#ArialMT-117"/>
      <use x="239.0625" xlink:href="#ArialMT-97"/>
      <use x="294.677734" xlink:href="#ArialMT-116"/>
      <use x="322.460938" xlink:href="#ArialMT-105"/>
      <use x="344.677734" xlink:href="#ArialMT-111"/>
      <use x="400.292969" xlink:href="#ArialMT-110"/>
      <use x="455.908203" xlink:href="#ArialMT-115"/>
     </g>
    </g>
    <g id="text_17">
     <!-- $\times\mathdefault{10^{4}}\mathdefault{}$ -->
     <defs>
      <path d="M 70.125 53.71875 
L 47.796875 31.296875 
L 70.125 8.984375 
L 64.3125 3.078125 
L 41.890625 25.484375 
L 19.484375 3.078125 
L 13.71875 8.984375 
L 35.984375 31.296875 
L 13.71875 53.71875 
L 19.484375 59.625 
L 41.890625 37.203125 
L 64.3125 59.625 
z
" id="DejaVuSans-215"/>
     </defs>
     <g transform="translate(367.592 275.534875)scale(0.088 -0.088)">
      <use transform="translate(0 0.201563)" xlink:href="#DejaVuSans-215"/>
      <use transform="translate(83.789062 0.201563)" xlink:href="#ArialMT-49"/>
      <use transform="translate(139.404297 0.201563)" xlink:href="#ArialMT-48"/>
      <use transform="translate(196.761875 69.895313)scale(0.7)" xlink:href="#ArialMT-52"/>
     </g>
    </g>
   </g>
   <g id="matplotlib.axis_6">
    <g id="ytick_7">
     <g id="line2d_53">
      <g>
       <use style="stroke:#000000;" x="54" xlink:href="#m6a6b6f4729" y="243.398162"/>
      </g>
     </g>
     <g id="line2d_54">
      <g>
       <use style="stroke:#000000;" x="388.8" xlink:href="#m1825d0ae84" y="243.398162"/>
      </g>
     </g>
     <g id="text_18">
      <!-- 0.5 -->
      <g transform="translate(38.268 246.547599)scale(0.088 -0.088)">
       <use xlink:href="#ArialMT-48"/>
       <use x="55.615234" xlink:href="#ArialMT-46"/>
       <use x="83.398438" xlink:href="#ArialMT-53"/>
      </g>
     </g>
    </g>
    <g id="ytick_8">
     <g id="line2d_55">
      <g>
       <use style="stroke:#000000;" x="54" xlink:href="#m6a6b6f4729" y="213.902963"/>
      </g>
     </g>
     <g id="line2d_56">
      <g>
       <use style="stroke:#000000;" x="388.8" xlink:href="#m1825d0ae84" y="213.902963"/>
      </g>
     </g>
     <g id="text_19">
      <!-- 0.6 -->
      <g transform="translate(38.268 217.052401)scale(0.088 -0.088)">
       <use xlink:href="#ArialMT-48"/>
       <use x="55.615234" xlink:href="#ArialMT-46"/>
       <use x="83.398438" xlink:href="#ArialMT-54"/>
      </g>
     </g>
    </g>
    <g id="ytick_9">
     <g id="line2d_57">
      <g>
       <use style="stroke:#000000;" x="54" xlink:href="#m6a6b6f4729" y="184.407765"/>
      </g>
     </g>
     <g id="line2d_58">
      <g>
       <use style="stroke:#000000;" x="388.8" xlink:href="#m1825d0ae84" y="184.407765"/>
      </g>
     </g>
     <g id="text_20">
      <!-- 0.7 -->
      <defs>
       <path d="M 4.734375 62.203125 
L 4.734375 70.65625 
L 51.078125 70.65625 
L 51.078125 63.8125 
Q 44.234375 56.546875 37.515625 44.484375 
Q 30.8125 32.421875 27.15625 19.671875 
Q 24.515625 10.6875 23.78125 0 
L 14.75 0 
Q 14.890625 8.453125 18.0625 20.40625 
Q 21.234375 32.375 27.171875 43.484375 
Q 33.109375 54.59375 39.796875 62.203125 
z
" id="ArialMT-55"/>
      </defs>
      <g transform="translate(38.268 187.557202)scale(0.088 -0.088)">
       <use xlink:href="#ArialMT-48"/>
       <use x="55.615234" xlink:href="#ArialMT-46"/>
       <use x="83.398438" xlink:href="#ArialMT-55"/>
      </g>
     </g>
    </g>
    <g id="text_21">
     <!-- $CR$ -->
     <defs>
      <path d="M 69.484375 67.28125 
L 67.484375 56.890625 
Q 62.796875 61.625 57.546875 63.921875 
Q 52.296875 66.21875 46.1875 66.21875 
Q 37.84375 66.21875 31.515625 62.203125 
Q 25.203125 58.203125 20.609375 50 
Q 17.671875 44.734375 16.125 38.84375 
Q 14.59375 32.953125 14.59375 27 
Q 14.59375 17.046875 19.75 11.8125 
Q 24.90625 6.59375 34.71875 6.59375 
Q 41.5 6.59375 47.75 8.765625 
Q 54 10.9375 59.90625 15.28125 
L 57.625 3.609375 
Q 51.8125 1.125 45.875 -0.140625 
Q 39.9375 -1.421875 33.984375 -1.421875 
Q 19.96875 -1.421875 12.078125 6.1875 
Q 4.203125 13.8125 4.203125 27.390625 
Q 4.203125 36.078125 7.203125 44.46875 
Q 10.203125 52.875 15.828125 59.8125 
Q 21.78125 67.1875 29.421875 70.703125 
Q 37.0625 74.21875 47.21875 74.21875 
Q 53.46875 74.21875 59.0625 72.484375 
Q 64.65625 70.75 69.484375 67.28125 
z
" id="DejaVuSans-Oblique-67"/>
      <path d="M 25.203125 64.796875 
L 20.21875 38.921875 
L 32.90625 38.921875 
Q 40.375 38.921875 44.984375 43.046875 
Q 49.609375 47.171875 49.609375 53.8125 
Q 49.609375 59.125 46.5 61.953125 
Q 43.40625 64.796875 37.59375 64.796875 
z
M 43.3125 35.015625 
Q 46.4375 34.28125 48.515625 31.390625 
Q 50.59375 28.515625 53.328125 19.921875 
L 59.515625 0 
L 49.125 0 
L 43.40625 18.703125 
Q 41.21875 25.921875 38.328125 28.359375 
Q 35.453125 30.8125 29.5 30.8125 
L 18.609375 30.8125 
L 12.59375 0 
L 2.6875 0 
L 16.890625 72.90625 
L 39.109375 72.90625 
Q 49.21875 72.90625 54.609375 68.328125 
Q 60.015625 63.765625 60.015625 55.171875 
Q 60.015625 47.5625 55.421875 41.984375 
Q 50.828125 36.421875 43.3125 35.015625 
z
" id="DejaVuSans-Oblique-82"/>
     </defs>
     <g transform="translate(32.36 222.48)rotate(-90)scale(0.096 -0.096)">
      <use transform="translate(0 0.78125)" xlink:href="#DejaVuSans-Oblique-67"/>
      <use transform="translate(69.824219 0.78125)" xlink:href="#DejaVuSans-Oblique-82"/>
     </g>
    </g>
   </g>
   <g id="patch_15">
    <path d="M 54 252 
L 54 179.52 
" style="fill:none;stroke:#000000;stroke-linecap:square;stroke-linejoin:miter;"/>
   </g>
   <g id="patch_16">
    <path d="M 388.8 252 
L 388.8 179.52 
" style="fill:none;stroke:#000000;stroke-linecap:square;stroke-linejoin:miter;"/>
   </g>
   <g id="patch_17">
    <path d="M 54 252 
L 388.8 252 
" style="fill:none;stroke:#000000;stroke-linecap:square;stroke-linejoin:miter;"/>
   </g>
   <g id="patch_18">
    <path d="M 54 179.52 
L 388.8 179.52 
" style="fill:none;stroke:#000000;stroke-linecap:square;stroke-linejoin:miter;"/>
   </g>
  </g>
 </g>
 <defs>
  <clipPath id="pe3ff170f33">
   <rect height="72.48" width="334.8" x="54" y="34.56"/>
  </clipPath>
  <clipPath id="p53bfbb9472">
   <rect height="72.48" width="334.8" x="54" y="107.04"/>
  </clipPath>
  <clipPath id="pcd57842acc">
   <rect height="72.48" width="334.8" x="54" y="179.52"/>
  </clipPath>
 </defs>
</svg>
