<?xml version="1.0" encoding="utf-8" standalone="no"?>
<!DOCTYPE svg PUBLIC "-//W3C//DTD SVG 1.1//EN"
  "http://www.w3.org/Graphics/SVG/1.1/DTD/svg11.dtd">
<!-- Created with matplotlib (https://matplotlib.org/) -->
<svg height="288pt" version="1.1" viewBox="0 0 432 288" width="432pt" xmlns="http://www.w3.org/2000/svg" xmlns:xlink="http://www.w3.org/1999/xlink">
 <defs>
  <style type="text/css">
*{stroke-linecap:butt;stroke-linejoin:round;}
  </style>
 </defs>
 <g id="figure_1">
  <g id="patch_1">
   <path d="M 0 288 
L 432 288 
L 432 0 
L 0 0 
z
" style="fill:#ffffff;"/>
  </g>
  <g id="axes_1">
   <g id="patch_2">
    <path d="M 54 107.04 
L 388.8 107.04 
L 388.8 34.56 
L 54 34.56 
z
" style="fill:#ffffff;"/>
   </g>
   <g id="line2d_1">
    <path clip-path="url(#p935870acb1)" d="M 69.218182 37.869036 
L 70.195555 38.771924 
L 72.1503 38.771924 
L 73.127673 39.011594 
L 74.105045 39.011594 
L 75.082418 39.377627 
L 76.059791 39.377627 
L 78.991909 40.102747 
L 80.946654 40.102747 
L 81.924027 40.820256 
L 84.856145 40.893506 
L 86.810891 41.292915 
L 87.788263 41.292915 
L 88.765636 42.017446 
L 89.743009 42.017446 
L 90.720381 42.286017 
L 92.675127 42.322147 
L 93.6525 43.158516 
L 96.584618 43.237023 
L 97.56199 43.83798 
L 99.516736 43.946804 
L 100.494109 44.014868 
L 101.471481 44.693774 
L 102.448854 45.096832 
L 103.426227 45.096832 
L 104.403599 45.387105 
L 105.380972 45.387105 
L 106.358345 45.859857 
L 107.335718 46.174313 
L 108.31309 46.174313 
L 109.290463 46.938795 
L 110.267836 46.938795 
L 112.222581 47.323027 
L 113.199954 47.323027 
L 114.177327 48.119978 
L 116.132072 48.119978 
L 117.109445 48.79396 
L 118.086817 48.79396 
L 119.06419 49.025004 
L 120.041563 49.025004 
L 121.996308 50.065991 
L 127.860545 50.161142 
L 128.837917 50.769977 
L 129.81529 50.873901 
L 130.792663 51.19572 
L 131.770035 51.64853 
L 133.724781 51.738679 
L 134.702154 52.9562 
L 139.589017 53.039559 
L 140.56639 53.68905 
L 141.543763 53.68905 
L 142.521135 53.978908 
L 143.498508 54.496255 
L 144.475881 54.496255 
L 145.453253 54.675483 
L 147.407999 54.675483 
L 148.385372 55.210281 
L 150.340117 55.210281 
L 151.31749 55.395471 
L 152.294862 55.43146 
L 153.272235 55.657548 
L 154.249608 56.454362 
L 156.204353 56.558362 
L 157.181726 57.050248 
L 158.159099 57.050248 
L 159.136471 57.170882 
L 160.113844 57.170882 
L 161.091217 57.295838 
L 162.068589 57.295838 
L 163.045962 58.340458 
L 164.023335 58.340458 
L 165.000708 58.494599 
L 166.955453 58.494599 
L 169.887571 59.377834 
L 170.864944 59.377834 
L 171.842317 59.783561 
L 172.819689 60.676748 
L 174.774435 60.676748 
L 175.751807 61.195687 
L 179.661298 61.195687 
L 180.638671 62.207569 
L 181.616044 62.207569 
L 182.593416 62.5355 
L 185.525535 62.5752 
L 186.502907 63.583274 
L 188.457653 63.583274 
L 189.435025 63.915556 
L 190.412398 63.915556 
L 191.389771 64.274471 
L 192.367144 64.274471 
L 193.344516 64.955987 
L 195.299262 64.955987 
L 196.276634 65.286736 
L 197.254007 65.490294 
L 198.23138 65.941849 
L 199.208753 66.077337 
L 201.163498 66.136961 
L 202.140871 66.380828 
L 203.118243 66.922143 
L 204.095616 66.922143 
L 205.072989 67.208367 
L 207.027734 67.24932 
L 208.005107 67.504591 
L 208.98248 67.564489 
L 209.959852 68.155919 
L 210.937225 68.155919 
L 211.914598 68.470226 
L 212.891971 69.106094 
L 213.869343 69.106094 
L 214.846716 69.940355 
L 219.73358 69.985557 
L 220.710952 70.188194 
L 221.688325 70.868184 
L 223.64307 70.946373 
L 224.620443 71.371767 
L 225.597816 71.371767 
L 226.575189 71.851001 
L 227.552561 72.556092 
L 229.507307 72.556092 
L 230.484679 72.885651 
L 233.416797 72.886924 
L 234.39417 73.164464 
L 235.371543 73.164464 
L 236.348916 73.876097 
L 237.326288 74.11797 
L 238.303661 74.11797 
L 239.281034 74.465208 
L 240.258406 74.642954 
L 241.235779 75.249223 
L 243.190525 75.270153 
L 244.167897 75.899 
L 247.100015 75.899 
L 248.077388 76.842056 
L 249.054761 76.85656 
L 250.032134 77.12574 
L 251.009506 77.262181 
L 251.986879 77.262181 
L 254.918997 77.640487 
L 255.89637 77.855045 
L 257.851115 77.91727 
L 259.805861 78.305788 
L 260.783233 79.231747 
L 264.692724 79.301568 
L 265.670097 79.698445 
L 266.64747 79.698445 
L 267.624842 79.857188 
L 268.602215 80.181115 
L 270.556961 80.368794 
L 271.534333 81.368046 
L 273.489079 81.368046 
L 274.466451 81.795198 
L 276.421197 81.827979 
L 277.39857 82.448771 
L 278.375942 82.448771 
L 281.30806 82.852273 
L 282.285433 83.713108 
L 283.262806 83.980897 
L 287.172297 84.003867 
L 290.104415 84.680838 
L 291.081788 85.227216 
L 292.05916 85.455559 
L 294.013906 85.54631 
L 294.991278 85.982248 
L 296.946024 85.991389 
L 297.923397 86.143788 
L 298.900769 86.143788 
L 300.855515 86.618141 
L 301.832887 86.876851 
L 302.81026 86.876851 
L 303.787633 87.288791 
L 306.719751 88.039878 
L 307.697124 88.591296 
L 308.674496 88.591296 
L 309.651869 89.041606 
L 310.629242 89.041606 
L 311.606614 89.336159 
L 313.56136 89.336159 
L 314.538733 89.632815 
L 315.516105 90.181404 
L 318.448223 90.2324 
L 319.425596 90.887853 
L 322.357714 90.891657 
L 323.335087 91.557365 
L 325.289832 91.557365 
L 326.267205 92.120971 
L 328.221951 92.121042 
L 329.199323 93.489037 
L 330.176696 93.617571 
L 333.108814 93.617571 
L 334.086187 93.742107 
L 335.06356 94.029464 
L 336.040932 94.162298 
L 337.018305 94.162298 
L 337.995678 94.60007 
L 338.97305 94.910054 
L 341.905169 95.003214 
L 343.859914 95.681194 
L 345.814659 96.877674 
L 348.746778 96.877674 
L 349.72415 96.993059 
L 350.701523 97.31128 
L 351.678896 97.31128 
L 352.656268 97.904423 
L 353.633641 99.065015 
L 358.520505 99.104242 
L 359.497877 99.514826 
L 360.47525 100.275826 
L 363.407368 100.281936 
L 364.384741 100.901318 
L 366.339486 100.901318 
L 367.316859 101.469258 
L 371.22635 101.566051 
L 372.203723 101.841348 
L 373.181095 101.913715 
L 373.581818 103.745455 
L 373.581818 103.745455 
" style="fill:none;stroke:#1ac938;stroke-linecap:round;stroke-width:1.2;"/>
   </g>
   <g id="line2d_2">
    <path clip-path="url(#p935870acb1)" d="M 69.218182 37.854545 
L 71.172927 38.193744 
L 72.1503 39.287029 
L 74.105045 39.287029 
L 75.082418 39.41009 
L 76.059791 40.312304 
L 77.037164 40.506301 
L 78.014536 42.264382 
L 84.856145 42.264382 
L 85.833518 42.563923 
L 86.810891 42.563923 
L 87.788263 42.928188 
L 89.743009 42.928188 
L 90.720381 43.072507 
L 91.697754 44.45423 
L 95.607245 44.537047 
L 96.584618 44.658302 
L 97.56199 45.142999 
L 98.539363 45.142999 
L 100.494109 45.923889 
L 101.471481 45.923889 
L 102.448854 46.157669 
L 105.380972 46.157669 
L 106.358345 46.517735 
L 107.335718 46.646182 
L 108.31309 46.947399 
L 109.290463 46.953506 
L 110.267836 47.429343 
L 111.245208 47.429343 
L 113.199954 48.216441 
L 114.177327 48.390999 
L 116.132072 48.390999 
L 117.109445 48.602844 
L 118.086817 48.602844 
L 121.018936 49.10198 
L 121.996308 49.951426 
L 124.928426 50.051724 
L 125.905799 50.424663 
L 126.883172 50.424663 
L 127.860545 50.552037 
L 130.792663 51.315407 
L 131.770035 51.792153 
L 132.747408 51.792153 
L 133.724781 52.518519 
L 135.679526 52.518519 
L 136.656899 53.30975 
L 138.611644 53.30975 
L 139.589017 53.473145 
L 140.56639 53.473145 
L 141.543763 53.869555 
L 142.521135 53.93284 
L 143.498508 54.211137 
L 145.453253 54.302728 
L 147.407999 55.526797 
L 149.362744 55.620659 
L 150.340117 55.862114 
L 152.294862 55.862114 
L 154.249608 56.487278 
L 157.181726 56.495077 
L 158.159099 56.65166 
L 159.136471 57.186738 
L 160.113844 57.186738 
L 161.091217 57.342071 
L 162.068589 57.7414 
L 163.045962 57.7414 
L 164.023335 57.866007 
L 165.000708 58.190001 
L 166.955453 58.291061 
L 167.932826 58.898434 
L 168.910198 58.898434 
L 169.887571 59.491941 
L 170.864944 59.491941 
L 171.842317 59.625004 
L 172.819689 59.625004 
L 173.797062 59.856292 
L 174.774435 59.925824 
L 175.751807 60.764137 
L 176.72918 61.040665 
L 178.683926 61.813949 
L 179.661298 61.813949 
L 180.638671 62.392421 
L 181.616044 62.75996 
L 184.548162 62.855152 
L 185.525535 63.306585 
L 187.48028 63.306585 
L 188.457653 63.579875 
L 189.435025 64.041375 
L 190.412398 64.041375 
L 192.367144 64.53696 
L 193.344516 64.53696 
L 196.276634 65.074078 
L 197.254007 65.417756 
L 198.23138 65.636176 
L 201.163498 65.806565 
L 202.140871 66.460574 
L 203.118243 66.647851 
L 204.095616 66.699626 
L 205.072989 67.372628 
L 206.050362 67.420761 
L 207.027734 67.778483 
L 209.959852 67.898955 
L 211.914598 68.674998 
L 212.891971 68.674998 
L 213.869343 69.998359 
L 216.801461 69.998359 
L 218.756207 70.957363 
L 219.73358 70.957363 
L 220.710952 71.545367 
L 221.688325 71.545367 
L 222.665698 72.272463 
L 223.64307 72.272463 
L 224.620443 72.898271 
L 228.529934 72.898271 
L 229.507307 73.307964 
L 230.484679 73.506926 
L 231.462052 73.506926 
L 232.439425 73.983452 
L 233.416797 74.253444 
L 235.371543 74.253444 
L 236.348916 75.374741 
L 238.303661 75.42904 
L 239.281034 76.039456 
L 240.258406 76.238419 
L 242.213152 76.975617 
L 243.190525 77.612723 
L 247.100015 77.612723 
L 248.077388 78.271599 
L 249.054761 78.271599 
L 251.009506 79.198622 
L 251.986879 79.198622 
L 252.964252 79.52402 
L 253.941624 80.279214 
L 254.918997 80.358631 
L 255.89637 80.895364 
L 256.873743 80.895364 
L 260.783233 81.628968 
L 261.760606 81.698076 
L 262.737979 82.388532 
L 264.692724 82.388532 
L 270.556961 83.375718 
L 272.511706 83.920857 
L 273.489079 84.420037 
L 275.443824 84.420037 
L 276.421197 84.99853 
L 278.375942 85.472273 
L 279.353315 85.922565 
L 281.30806 85.974154 
L 283.262806 86.407601 
L 284.240179 86.962669 
L 285.217551 86.962669 
L 287.172297 87.495974 
L 288.149669 87.495974 
L 290.104415 87.958175 
L 291.081788 88.555169 
L 293.036533 88.634525 
L 294.013906 88.739657 
L 294.991278 89.01491 
L 295.968651 89.01491 
L 297.923397 89.908664 
L 301.832887 89.908664 
L 302.81026 90.278435 
L 304.765006 90.278435 
L 305.742378 90.539917 
L 307.697124 90.645268 
L 308.674496 91.30862 
L 311.606614 91.30862 
L 314.538733 91.825778 
L 315.516105 92.239418 
L 316.493478 93.075164 
L 317.470851 93.075164 
L 318.448223 93.276576 
L 320.402969 93.276576 
L 321.380342 93.567333 
L 323.335087 93.567333 
L 324.31246 93.900743 
L 325.289832 94.113115 
L 326.267205 94.951201 
L 328.221951 94.951201 
L 329.199323 95.796285 
L 332.131441 95.796285 
L 333.108814 96.032412 
L 335.06356 96.100387 
L 336.040932 96.641005 
L 337.995678 96.641005 
L 338.97305 96.869066 
L 340.927796 96.963077 
L 342.882541 97.815077 
L 343.859914 98.178252 
L 345.814659 98.458874 
L 346.792032 99.554642 
L 347.769405 99.554642 
L 350.701523 99.900595 
L 352.656268 99.977931 
L 355.588387 100.685089 
L 356.565759 100.685089 
L 357.543132 100.957197 
L 358.520505 101.502405 
L 360.47525 101.574723 
L 361.452623 101.871431 
L 362.429996 101.871431 
L 364.071982 102.924382 
L 364.071982 102.924382 
" style="fill:none;stroke:#e8000b;stroke-linecap:round;stroke-width:1.2;"/>
   </g>
   <g id="matplotlib.axis_1">
    <g id="xtick_1">
     <g id="line2d_3">
      <defs>
       <path d="M 0 0 
L 0 -3 
" id="ma8f551e815" style="stroke:#000000;"/>
      </defs>
      <g>
       <use style="stroke:#000000;" x="67.263436" xlink:href="#ma8f551e815" y="107.04"/>
      </g>
     </g>
     <g id="line2d_4">
      <defs>
       <path d="M 0 0 
L 0 3 
" id="m1a9f706067" style="stroke:#000000;"/>
      </defs>
      <g>
       <use style="stroke:#000000;" x="67.263436" xlink:href="#m1a9f706067" y="34.56"/>
      </g>
     </g>
    </g>
    <g id="xtick_2">
     <g id="line2d_5">
      <g>
       <use style="stroke:#000000;" x="116.132072" xlink:href="#ma8f551e815" y="107.04"/>
      </g>
     </g>
     <g id="line2d_6">
      <g>
       <use style="stroke:#000000;" x="116.132072" xlink:href="#m1a9f706067" y="34.56"/>
      </g>
     </g>
    </g>
    <g id="xtick_3">
     <g id="line2d_7">
      <g>
       <use style="stroke:#000000;" x="165.000708" xlink:href="#ma8f551e815" y="107.04"/>
      </g>
     </g>
     <g id="line2d_8">
      <g>
       <use style="stroke:#000000;" x="165.000708" xlink:href="#m1a9f706067" y="34.56"/>
      </g>
     </g>
    </g>
    <g id="xtick_4">
     <g id="line2d_9">
      <g>
       <use style="stroke:#000000;" x="213.869343" xlink:href="#ma8f551e815" y="107.04"/>
      </g>
     </g>
     <g id="line2d_10">
      <g>
       <use style="stroke:#000000;" x="213.869343" xlink:href="#m1a9f706067" y="34.56"/>
      </g>
     </g>
    </g>
    <g id="xtick_5">
     <g id="line2d_11">
      <g>
       <use style="stroke:#000000;" x="262.737979" xlink:href="#ma8f551e815" y="107.04"/>
      </g>
     </g>
     <g id="line2d_12">
      <g>
       <use style="stroke:#000000;" x="262.737979" xlink:href="#m1a9f706067" y="34.56"/>
      </g>
     </g>
    </g>
    <g id="xtick_6">
     <g id="line2d_13">
      <g>
       <use style="stroke:#000000;" x="311.606614" xlink:href="#ma8f551e815" y="107.04"/>
      </g>
     </g>
     <g id="line2d_14">
      <g>
       <use style="stroke:#000000;" x="311.606614" xlink:href="#m1a9f706067" y="34.56"/>
      </g>
     </g>
    </g>
    <g id="xtick_7">
     <g id="line2d_15">
      <g>
       <use style="stroke:#000000;" x="360.47525" xlink:href="#ma8f551e815" y="107.04"/>
      </g>
     </g>
     <g id="line2d_16">
      <g>
       <use style="stroke:#000000;" x="360.47525" xlink:href="#m1a9f706067" y="34.56"/>
      </g>
     </g>
    </g>
   </g>
   <g id="matplotlib.axis_2">
    <g id="ytick_1">
     <g id="line2d_17">
      <defs>
       <path d="M 0 0 
L 3 0 
" id="m064d78c83c" style="stroke:#000000;"/>
      </defs>
      <g>
       <use style="stroke:#000000;" x="54" xlink:href="#m064d78c83c" y="88.944245"/>
      </g>
     </g>
     <g id="line2d_18">
      <defs>
       <path d="M 0 0 
L -3 0 
" id="m27b5973fe0" style="stroke:#000000;"/>
      </defs>
      <g>
       <use style="stroke:#000000;" x="388.8" xlink:href="#m27b5973fe0" y="88.944245"/>
      </g>
     </g>
     <g id="text_1">
      <!-- $\mathdefault{10^{-9}}$ -->
      <defs>
       <path d="M 37.25 0 
L 28.46875 0 
L 28.46875 56 
Q 25.296875 52.984375 20.140625 49.953125 
Q 14.984375 46.921875 10.890625 45.40625 
L 10.890625 53.90625 
Q 18.265625 57.375 23.78125 62.296875 
Q 29.296875 67.234375 31.59375 71.875 
L 37.25 71.875 
z
" id="ArialMT-49"/>
       <path d="M 4.15625 35.296875 
Q 4.15625 48 6.765625 55.734375 
Q 9.375 63.484375 14.515625 67.671875 
Q 19.671875 71.875 27.484375 71.875 
Q 33.25 71.875 37.59375 69.546875 
Q 41.9375 67.234375 44.765625 62.859375 
Q 47.609375 58.5 49.21875 52.21875 
Q 50.828125 45.953125 50.828125 35.296875 
Q 50.828125 22.703125 48.234375 14.96875 
Q 45.65625 7.234375 40.5 3 
Q 35.359375 -1.21875 27.484375 -1.21875 
Q 17.140625 -1.21875 11.234375 6.203125 
Q 4.15625 15.140625 4.15625 35.296875 
z
M 13.1875 35.296875 
Q 13.1875 17.671875 17.3125 11.828125 
Q 21.4375 6 27.484375 6 
Q 33.546875 6 37.671875 11.859375 
Q 41.796875 17.71875 41.796875 35.296875 
Q 41.796875 52.984375 37.671875 58.78125 
Q 33.546875 64.59375 27.390625 64.59375 
Q 21.34375 64.59375 17.71875 59.46875 
Q 13.1875 52.9375 13.1875 35.296875 
z
" id="ArialMT-48"/>
       <path d="M 52.828125 31.203125 
L 5.5625 31.203125 
L 5.5625 39.40625 
L 52.828125 39.40625 
z
" id="ArialMT-8722"/>
       <path d="M 5.46875 16.546875 
L 13.921875 17.328125 
Q 14.984375 11.375 18.015625 8.6875 
Q 21.046875 6 25.78125 6 
Q 29.828125 6 32.875 7.859375 
Q 35.9375 9.71875 37.890625 12.8125 
Q 39.84375 15.921875 41.15625 21.1875 
Q 42.484375 26.46875 42.484375 31.9375 
Q 42.484375 32.515625 42.4375 33.6875 
Q 39.796875 29.5 35.234375 26.875 
Q 30.671875 24.265625 25.34375 24.265625 
Q 16.453125 24.265625 10.296875 30.703125 
Q 4.15625 37.15625 4.15625 47.703125 
Q 4.15625 58.59375 10.578125 65.234375 
Q 17 71.875 26.65625 71.875 
Q 33.640625 71.875 39.421875 68.109375 
Q 45.21875 64.359375 48.21875 57.390625 
Q 51.21875 50.4375 51.21875 37.25 
Q 51.21875 23.53125 48.234375 15.40625 
Q 45.265625 7.28125 39.375 3.03125 
Q 33.5 -1.21875 25.59375 -1.21875 
Q 17.1875 -1.21875 11.859375 3.4375 
Q 6.546875 8.109375 5.46875 16.546875 
z
M 41.453125 48.140625 
Q 41.453125 55.71875 37.421875 60.15625 
Q 33.40625 64.59375 27.734375 64.59375 
Q 21.875 64.59375 17.53125 59.8125 
Q 13.1875 55.03125 13.1875 47.40625 
Q 13.1875 40.578125 17.3125 36.296875 
Q 21.4375 32.03125 27.484375 32.03125 
Q 33.59375 32.03125 37.515625 36.296875 
Q 41.453125 40.578125 41.453125 48.140625 
z
" id="ArialMT-57"/>
      </defs>
      <g transform="translate(33.076 93.481745)scale(0.088 -0.088)">
       <use transform="translate(0 0.99375)" xlink:href="#ArialMT-49"/>
       <use transform="translate(55.615234 0.99375)" xlink:href="#ArialMT-48"/>
       <use transform="translate(112.972813 70.6875)scale(0.7)" xlink:href="#ArialMT-8722"/>
       <use transform="translate(153.851719 70.6875)scale(0.7)" xlink:href="#ArialMT-57"/>
      </g>
     </g>
    </g>
    <g id="ytick_2">
     <g id="line2d_19">
      <g>
       <use style="stroke:#000000;" x="54" xlink:href="#m064d78c83c" y="70.499142"/>
      </g>
     </g>
     <g id="line2d_20">
      <g>
       <use style="stroke:#000000;" x="388.8" xlink:href="#m27b5973fe0" y="70.499142"/>
      </g>
     </g>
     <g id="text_2">
      <!-- $\mathdefault{10^{-5}}$ -->
      <defs>
       <path d="M 4.15625 18.75 
L 13.375 19.53125 
Q 14.40625 12.796875 18.140625 9.390625 
Q 21.875 6 27.15625 6 
Q 33.5 6 37.890625 10.78125 
Q 42.28125 15.578125 42.28125 23.484375 
Q 42.28125 31 38.0625 35.34375 
Q 33.84375 39.703125 27 39.703125 
Q 22.75 39.703125 19.328125 37.765625 
Q 15.921875 35.84375 13.96875 32.765625 
L 5.71875 33.84375 
L 12.640625 70.609375 
L 48.25 70.609375 
L 48.25 62.203125 
L 19.671875 62.203125 
L 15.828125 42.96875 
Q 22.265625 47.46875 29.34375 47.46875 
Q 38.71875 47.46875 45.15625 40.96875 
Q 51.609375 34.46875 51.609375 24.265625 
Q 51.609375 14.546875 45.953125 7.46875 
Q 39.0625 -1.21875 27.15625 -1.21875 
Q 17.390625 -1.21875 11.203125 4.25 
Q 5.03125 9.71875 4.15625 18.75 
z
" id="ArialMT-53"/>
      </defs>
      <g transform="translate(33.076 74.992642)scale(0.088 -0.088)">
       <use transform="translate(0 0.879688)" xlink:href="#ArialMT-49"/>
       <use transform="translate(55.615234 0.879688)" xlink:href="#ArialMT-48"/>
       <use transform="translate(112.972813 70.573438)scale(0.7)" xlink:href="#ArialMT-8722"/>
       <use transform="translate(153.851719 70.573438)scale(0.7)" xlink:href="#ArialMT-53"/>
      </g>
     </g>
    </g>
    <g id="ytick_3">
     <g id="line2d_21">
      <g>
       <use style="stroke:#000000;" x="54" xlink:href="#m064d78c83c" y="52.05404"/>
      </g>
     </g>
     <g id="line2d_22">
      <g>
       <use style="stroke:#000000;" x="388.8" xlink:href="#m27b5973fe0" y="52.05404"/>
      </g>
     </g>
     <g id="text_3">
      <!-- $\mathdefault{10^{-1}}$ -->
      <g transform="translate(33.076 56.59154)scale(0.088 -0.088)">
       <use transform="translate(0 0.99375)" xlink:href="#ArialMT-49"/>
       <use transform="translate(55.615234 0.99375)" xlink:href="#ArialMT-48"/>
       <use transform="translate(112.972813 70.6875)scale(0.7)" xlink:href="#ArialMT-8722"/>
       <use transform="translate(153.851719 70.6875)scale(0.7)" xlink:href="#ArialMT-49"/>
      </g>
     </g>
    </g>
    <g id="text_4">
     <!-- fitness -->
     <defs>
      <path d="M 8.6875 0 
L 8.6875 45.015625 
L 0.921875 45.015625 
L 0.921875 51.859375 
L 8.6875 51.859375 
L 8.6875 57.375 
Q 8.6875 62.59375 9.625 65.140625 
Q 10.890625 68.5625 14.078125 70.671875 
Q 17.28125 72.796875 23.046875 72.796875 
Q 26.765625 72.796875 31.25 71.921875 
L 29.9375 64.265625 
Q 27.203125 64.75 24.75 64.75 
Q 20.75 64.75 19.09375 63.03125 
Q 17.4375 61.328125 17.4375 56.640625 
L 17.4375 51.859375 
L 27.546875 51.859375 
L 27.546875 45.015625 
L 17.4375 45.015625 
L 17.4375 0 
z
" id="ArialMT-102"/>
      <path d="M 6.640625 61.46875 
L 6.640625 71.578125 
L 15.4375 71.578125 
L 15.4375 61.46875 
z
M 6.640625 0 
L 6.640625 51.859375 
L 15.4375 51.859375 
L 15.4375 0 
z
" id="ArialMT-105"/>
      <path d="M 25.78125 7.859375 
L 27.046875 0.09375 
Q 23.34375 -0.6875 20.40625 -0.6875 
Q 15.625 -0.6875 12.984375 0.828125 
Q 10.359375 2.34375 9.28125 4.8125 
Q 8.203125 7.28125 8.203125 15.1875 
L 8.203125 45.015625 
L 1.765625 45.015625 
L 1.765625 51.859375 
L 8.203125 51.859375 
L 8.203125 64.703125 
L 16.9375 69.96875 
L 16.9375 51.859375 
L 25.78125 51.859375 
L 25.78125 45.015625 
L 16.9375 45.015625 
L 16.9375 14.703125 
Q 16.9375 10.9375 17.40625 9.859375 
Q 17.875 8.796875 18.921875 8.15625 
Q 19.96875 7.515625 21.921875 7.515625 
Q 23.390625 7.515625 25.78125 7.859375 
z
" id="ArialMT-116"/>
      <path d="M 6.59375 0 
L 6.59375 51.859375 
L 14.5 51.859375 
L 14.5 44.484375 
Q 20.21875 53.03125 31 53.03125 
Q 35.6875 53.03125 39.625 51.34375 
Q 43.5625 49.65625 45.515625 46.921875 
Q 47.46875 44.1875 48.25 40.4375 
Q 48.734375 37.984375 48.734375 31.890625 
L 48.734375 0 
L 39.9375 0 
L 39.9375 31.546875 
Q 39.9375 36.921875 38.90625 39.578125 
Q 37.890625 42.234375 35.28125 43.8125 
Q 32.671875 45.40625 29.15625 45.40625 
Q 23.53125 45.40625 19.453125 41.84375 
Q 15.375 38.28125 15.375 28.328125 
L 15.375 0 
z
" id="ArialMT-110"/>
      <path d="M 42.09375 16.703125 
L 51.171875 15.578125 
Q 49.03125 7.625 43.21875 3.21875 
Q 37.40625 -1.171875 28.375 -1.171875 
Q 17 -1.171875 10.328125 5.828125 
Q 3.65625 12.84375 3.65625 25.484375 
Q 3.65625 38.578125 10.390625 45.796875 
Q 17.140625 53.03125 27.875 53.03125 
Q 38.28125 53.03125 44.875 45.953125 
Q 51.46875 38.875 51.46875 26.03125 
Q 51.46875 25.25 51.421875 23.6875 
L 12.75 23.6875 
Q 13.234375 15.140625 17.578125 10.59375 
Q 21.921875 6.0625 28.421875 6.0625 
Q 33.25 6.0625 36.671875 8.59375 
Q 40.09375 11.140625 42.09375 16.703125 
z
M 13.234375 30.90625 
L 42.1875 30.90625 
Q 41.609375 37.453125 38.875 40.71875 
Q 34.671875 45.796875 27.984375 45.796875 
Q 21.921875 45.796875 17.796875 41.75 
Q 13.671875 37.703125 13.234375 30.90625 
z
" id="ArialMT-101"/>
      <path d="M 3.078125 15.484375 
L 11.765625 16.84375 
Q 12.5 11.625 15.84375 8.84375 
Q 19.1875 6.0625 25.203125 6.0625 
Q 31.25 6.0625 34.171875 8.515625 
Q 37.109375 10.984375 37.109375 14.3125 
Q 37.109375 17.28125 34.515625 19 
Q 32.71875 20.171875 25.53125 21.96875 
Q 15.875 24.421875 12.140625 26.203125 
Q 8.40625 27.984375 6.46875 31.125 
Q 4.546875 34.28125 4.546875 38.09375 
Q 4.546875 41.546875 6.125 44.5 
Q 7.71875 47.46875 10.453125 49.421875 
Q 12.5 50.921875 16.03125 51.96875 
Q 19.578125 53.03125 23.640625 53.03125 
Q 29.734375 53.03125 34.34375 51.265625 
Q 38.96875 49.515625 41.15625 46.5 
Q 43.359375 43.5 44.1875 38.484375 
L 35.59375 37.3125 
Q 35.015625 41.3125 32.203125 43.546875 
Q 29.390625 45.796875 24.265625 45.796875 
Q 18.21875 45.796875 15.625 43.796875 
Q 13.03125 41.796875 13.03125 39.109375 
Q 13.03125 37.40625 14.109375 36.03125 
Q 15.1875 34.625 17.484375 33.6875 
Q 18.796875 33.203125 25.25 31.453125 
Q 34.578125 28.953125 38.25 27.359375 
Q 41.9375 25.78125 44.03125 22.75 
Q 46.140625 19.734375 46.140625 15.234375 
Q 46.140625 10.84375 43.578125 6.953125 
Q 41.015625 3.078125 36.171875 0.953125 
Q 31.34375 -1.171875 25.25 -1.171875 
Q 15.140625 -1.171875 9.84375 3.03125 
Q 4.546875 7.234375 3.078125 15.484375 
z
" id="ArialMT-115"/>
     </defs>
     <g transform="translate(27.168 84.672)rotate(-90)scale(0.096 -0.096)">
      <use xlink:href="#ArialMT-102"/>
      <use x="27.783203" xlink:href="#ArialMT-105"/>
      <use x="50" xlink:href="#ArialMT-116"/>
      <use x="77.783203" xlink:href="#ArialMT-110"/>
      <use x="133.398438" xlink:href="#ArialMT-101"/>
      <use x="189.013672" xlink:href="#ArialMT-115"/>
      <use x="239.013672" xlink:href="#ArialMT-115"/>
     </g>
    </g>
   </g>
   <g id="patch_3">
    <path d="M 54 107.04 
L 54 34.56 
" style="fill:none;stroke:#000000;stroke-linecap:square;stroke-linejoin:miter;"/>
   </g>
   <g id="patch_4">
    <path d="M 388.8 107.04 
L 388.8 34.56 
" style="fill:none;stroke:#000000;stroke-linecap:square;stroke-linejoin:miter;"/>
   </g>
   <g id="patch_5">
    <path d="M 54 107.04 
L 388.8 107.04 
" style="fill:none;stroke:#000000;stroke-linecap:square;stroke-linejoin:miter;"/>
   </g>
   <g id="patch_6">
    <path d="M 54 34.56 
L 388.8 34.56 
" style="fill:none;stroke:#000000;stroke-linecap:square;stroke-linejoin:miter;"/>
   </g>
   <g id="text_5">
    <!-- Sphere -->
    <defs>
     <path d="M 4.5 23 
L 13.421875 23.78125 
Q 14.0625 18.40625 16.375 14.96875 
Q 18.703125 11.53125 23.578125 9.40625 
Q 28.46875 7.28125 34.578125 7.28125 
Q 39.984375 7.28125 44.140625 8.890625 
Q 48.296875 10.5 50.3125 13.296875 
Q 52.34375 16.109375 52.34375 19.4375 
Q 52.34375 22.796875 50.390625 25.3125 
Q 48.4375 27.828125 43.953125 29.546875 
Q 41.0625 30.671875 31.203125 33.03125 
Q 21.34375 35.40625 17.390625 37.5 
Q 12.25 40.1875 9.734375 44.15625 
Q 7.234375 48.140625 7.234375 53.078125 
Q 7.234375 58.5 10.296875 63.203125 
Q 13.375 67.921875 19.28125 70.359375 
Q 25.203125 72.796875 32.421875 72.796875 
Q 40.375 72.796875 46.453125 70.234375 
Q 52.546875 67.671875 55.8125 62.6875 
Q 59.078125 57.71875 59.328125 51.421875 
L 50.25 50.734375 
Q 49.515625 57.515625 45.28125 60.984375 
Q 41.0625 64.453125 32.8125 64.453125 
Q 24.21875 64.453125 20.28125 61.296875 
Q 16.359375 58.15625 16.359375 53.71875 
Q 16.359375 49.859375 19.140625 47.359375 
Q 21.875 44.875 33.421875 42.265625 
Q 44.96875 39.65625 49.265625 37.703125 
Q 55.515625 34.8125 58.484375 30.390625 
Q 61.46875 25.984375 61.46875 20.21875 
Q 61.46875 14.5 58.203125 9.4375 
Q 54.9375 4.390625 48.796875 1.578125 
Q 42.671875 -1.21875 35.015625 -1.21875 
Q 25.296875 -1.21875 18.71875 1.609375 
Q 12.15625 4.4375 8.421875 10.125 
Q 4.6875 15.828125 4.5 23 
z
" id="ArialMT-83"/>
     <path d="M 6.59375 -19.875 
L 6.59375 51.859375 
L 14.59375 51.859375 
L 14.59375 45.125 
Q 17.4375 49.078125 21 51.046875 
Q 24.5625 53.03125 29.640625 53.03125 
Q 36.28125 53.03125 41.359375 49.609375 
Q 46.4375 46.1875 49.015625 39.953125 
Q 51.609375 33.734375 51.609375 26.3125 
Q 51.609375 18.359375 48.75 11.984375 
Q 45.90625 5.609375 40.453125 2.21875 
Q 35.015625 -1.171875 29 -1.171875 
Q 24.609375 -1.171875 21.109375 0.6875 
Q 17.625 2.546875 15.375 5.375 
L 15.375 -19.875 
z
M 14.546875 25.640625 
Q 14.546875 15.625 18.59375 10.84375 
Q 22.65625 6.0625 28.421875 6.0625 
Q 34.28125 6.0625 38.453125 11.015625 
Q 42.625 15.96875 42.625 26.375 
Q 42.625 36.28125 38.546875 41.203125 
Q 34.46875 46.140625 28.8125 46.140625 
Q 23.1875 46.140625 18.859375 40.890625 
Q 14.546875 35.640625 14.546875 25.640625 
z
" id="ArialMT-112"/>
     <path d="M 6.59375 0 
L 6.59375 71.578125 
L 15.375 71.578125 
L 15.375 45.90625 
Q 21.53125 53.03125 30.90625 53.03125 
Q 36.671875 53.03125 40.921875 50.75 
Q 45.171875 48.484375 47 44.484375 
Q 48.828125 40.484375 48.828125 32.859375 
L 48.828125 0 
L 40.046875 0 
L 40.046875 32.859375 
Q 40.046875 39.453125 37.1875 42.453125 
Q 34.328125 45.453125 29.109375 45.453125 
Q 25.203125 45.453125 21.75 43.421875 
Q 18.3125 41.40625 16.84375 37.9375 
Q 15.375 34.46875 15.375 28.375 
L 15.375 0 
z
" id="ArialMT-104"/>
     <path d="M 6.5 0 
L 6.5 51.859375 
L 14.40625 51.859375 
L 14.40625 44 
Q 17.4375 49.515625 20 51.265625 
Q 22.5625 53.03125 25.640625 53.03125 
Q 30.078125 53.03125 34.671875 50.203125 
L 31.640625 42.046875 
Q 28.421875 43.953125 25.203125 43.953125 
Q 22.3125 43.953125 20.015625 42.21875 
Q 17.71875 40.484375 16.75 37.40625 
Q 15.28125 32.71875 15.28125 27.15625 
L 15.28125 0 
z
" id="ArialMT-114"/>
    </defs>
    <g transform="translate(205.923 28.56)scale(0.096 -0.096)">
     <use xlink:href="#ArialMT-83"/>
     <use x="66.699219" xlink:href="#ArialMT-112"/>
     <use x="122.314453" xlink:href="#ArialMT-104"/>
     <use x="177.929688" xlink:href="#ArialMT-101"/>
     <use x="233.544922" xlink:href="#ArialMT-114"/>
     <use x="266.845703" xlink:href="#ArialMT-101"/>
    </g>
   </g>
   <g id="legend_1">
    <g id="patch_7">
     <path d="M 343.075125 68.49575 
L 384.64 68.49575 
Q 386.4 68.49575 386.4 66.73575 
L 386.4 42.72 
Q 386.4 40.96 384.64 40.96 
L 343.075125 40.96 
Q 341.315125 40.96 341.315125 42.72 
L 341.315125 66.73575 
Q 341.315125 68.49575 343.075125 68.49575 
z
" style="fill:#4c4c4c;opacity:0.5;stroke:#4c4c4c;stroke-linejoin:miter;stroke-width:0.8;"/>
    </g>
    <g id="patch_8">
     <path d="M 341.075125 66.49575 
L 382.64 66.49575 
Q 384.4 66.49575 384.4 64.73575 
L 384.4 40.72 
Q 384.4 38.96 382.64 38.96 
L 341.075125 38.96 
Q 339.315125 38.96 339.315125 40.72 
L 339.315125 64.73575 
Q 339.315125 66.49575 341.075125 66.49575 
z
" style="fill:#ffffff;stroke:#000000;stroke-linejoin:miter;stroke-width:0.8;"/>
    </g>
    <g id="line2d_23">
     <path d="M 342.835125 45.698875 
L 349.875125 45.698875 
" style="fill:none;stroke:#e8000b;stroke-linecap:round;stroke-width:1.2;"/>
    </g>
    <g id="line2d_24"/>
    <g id="text_6">
     <!-- PEDE -->
     <defs>
      <path d="M 7.71875 0 
L 7.71875 71.578125 
L 34.71875 71.578125 
Q 41.84375 71.578125 45.609375 70.90625 
Q 50.875 70.015625 54.4375 67.546875 
Q 58.015625 65.09375 60.1875 60.640625 
Q 62.359375 56.203125 62.359375 50.875 
Q 62.359375 41.75 56.546875 35.421875 
Q 50.734375 29.109375 35.546875 29.109375 
L 17.1875 29.109375 
L 17.1875 0 
z
M 17.1875 37.546875 
L 35.6875 37.546875 
Q 44.875 37.546875 48.734375 40.96875 
Q 52.59375 44.390625 52.59375 50.59375 
Q 52.59375 55.078125 50.3125 58.265625 
Q 48.046875 61.46875 44.34375 62.5 
Q 41.9375 63.140625 35.5 63.140625 
L 17.1875 63.140625 
z
" id="ArialMT-80"/>
      <path d="M 7.90625 0 
L 7.90625 71.578125 
L 59.671875 71.578125 
L 59.671875 63.140625 
L 17.390625 63.140625 
L 17.390625 41.21875 
L 56.984375 41.21875 
L 56.984375 32.8125 
L 17.390625 32.8125 
L 17.390625 8.453125 
L 61.328125 8.453125 
L 61.328125 0 
z
" id="ArialMT-69"/>
      <path d="M 7.71875 0 
L 7.71875 71.578125 
L 32.375 71.578125 
Q 40.71875 71.578125 45.125 70.5625 
Q 51.265625 69.140625 55.609375 65.4375 
Q 61.28125 60.640625 64.078125 53.1875 
Q 66.890625 45.75 66.890625 36.1875 
Q 66.890625 28.03125 64.984375 21.734375 
Q 63.09375 15.4375 60.109375 11.296875 
Q 57.125 7.171875 53.578125 4.796875 
Q 50.046875 2.4375 45.046875 1.21875 
Q 40.046875 0 33.546875 0 
z
M 17.1875 8.453125 
L 32.46875 8.453125 
Q 39.546875 8.453125 43.578125 9.765625 
Q 47.609375 11.078125 50 13.484375 
Q 53.375 16.84375 55.25 22.53125 
Q 57.125 28.21875 57.125 36.328125 
Q 57.125 47.5625 53.4375 53.59375 
Q 49.75 59.625 44.484375 61.671875 
Q 40.671875 63.140625 32.234375 63.140625 
L 17.1875 63.140625 
z
" id="ArialMT-68"/>
     </defs>
     <g transform="translate(356.915125 48.778875)scale(0.088 -0.088)">
      <use xlink:href="#ArialMT-80"/>
      <use x="66.699219" xlink:href="#ArialMT-69"/>
      <use x="133.398438" xlink:href="#ArialMT-68"/>
      <use x="205.615234" xlink:href="#ArialMT-69"/>
     </g>
    </g>
    <g id="line2d_25">
     <path d="M 342.835125 58.14675 
L 349.875125 58.14675 
" style="fill:none;stroke:#1ac938;stroke-linecap:round;stroke-width:1.2;"/>
    </g>
    <g id="line2d_26"/>
    <g id="text_7">
     <!-- JADE -->
     <defs>
      <path d="M 2.875 20.3125 
L 11.421875 21.484375 
Q 11.765625 13.28125 14.5 10.25 
Q 17.234375 7.234375 22.078125 7.234375 
Q 25.640625 7.234375 28.21875 8.859375 
Q 30.8125 10.5 31.78125 13.296875 
Q 32.765625 16.109375 32.765625 22.265625 
L 32.765625 71.578125 
L 42.234375 71.578125 
L 42.234375 22.796875 
Q 42.234375 13.8125 40.0625 8.875 
Q 37.890625 3.953125 33.171875 1.359375 
Q 28.46875 -1.21875 22.125 -1.21875 
Q 12.703125 -1.21875 7.6875 4.203125 
Q 2.6875 9.625 2.875 20.3125 
z
" id="ArialMT-74"/>
      <path d="M -0.140625 0 
L 27.34375 71.578125 
L 37.546875 71.578125 
L 66.84375 0 
L 56.0625 0 
L 47.703125 21.6875 
L 17.78125 21.6875 
L 9.90625 0 
z
M 20.515625 29.390625 
L 44.78125 29.390625 
L 37.3125 49.21875 
Q 33.890625 58.25 32.234375 64.0625 
Q 30.859375 57.171875 28.375 50.390625 
z
" id="ArialMT-65"/>
     </defs>
     <g transform="translate(356.915125 61.22675)scale(0.088 -0.088)">
      <use xlink:href="#ArialMT-74"/>
      <use x="50" xlink:href="#ArialMT-65"/>
      <use x="116.699219" xlink:href="#ArialMT-68"/>
      <use x="188.916016" xlink:href="#ArialMT-69"/>
     </g>
    </g>
   </g>
  </g>
  <g id="axes_2">
   <g id="patch_9">
    <path d="M 54 179.52 
L 388.8 179.52 
L 388.8 107.04 
L 54 107.04 
z
" style="fill:#ffffff;"/>
   </g>
   <g id="line2d_27">
    <path clip-path="url(#pa446e0209e)" d="M 69.218182 158.518975 
L 70.195555 160.453091 
L 71.172927 163.248637 
L 72.1503 159.8858 
L 73.127673 150.78405 
L 74.105045 167.060668 
L 75.082418 148.868467 
L 76.059791 153.230325 
L 77.037164 154.188399 
L 78.014536 159.34994 
L 78.991909 163.737889 
L 79.969282 148.725461 
L 80.946654 137.888824 
L 81.924027 152.858622 
L 82.9014 139.361215 
L 83.878773 143.006724 
L 84.856145 142.815721 
L 85.833518 157.822542 
L 86.810891 153.749758 
L 87.788263 144.993225 
L 88.765636 145.759961 
L 89.743009 152.651066 
L 90.720381 147.133725 
L 91.697754 159.657465 
L 92.675127 152.511308 
L 93.6525 152.411751 
L 94.629872 148.016117 
L 95.607245 168.257697 
L 96.584618 148.184915 
L 97.56199 150.74532 
L 98.539363 150.444602 
L 99.516736 147.624813 
L 100.494109 147.854247 
L 101.471481 157.798064 
L 102.448854 151.218532 
L 103.426227 152.286372 
L 104.403599 148.222894 
L 105.380972 146.309668 
L 106.358345 149.719962 
L 107.335718 158.140055 
L 108.31309 154.959399 
L 109.290463 135.338139 
L 110.267836 134.620906 
L 111.245208 148.928073 
L 112.222581 140.669341 
L 113.199954 144.255661 
L 114.177327 151.896714 
L 115.154699 144.006451 
L 116.132072 143.607236 
L 117.109445 157.061396 
L 118.086817 150.493663 
L 119.06419 152.699699 
L 120.041563 142.726038 
L 121.996308 143.819984 
L 122.973681 147.325834 
L 123.951054 134.713814 
L 124.928426 151.639943 
L 125.905799 151.2209 
L 126.883172 144.894153 
L 127.860545 135.515215 
L 128.837917 149.355922 
L 129.81529 155.499543 
L 130.792663 155.670127 
L 131.770035 147.573464 
L 132.747408 142.083106 
L 133.724781 152.59568 
L 134.702154 153.840841 
L 135.679526 145.857191 
L 136.656899 131.498054 
L 137.634272 151.357604 
L 138.611644 143.628191 
L 139.589017 140.319384 
L 140.56639 143.258447 
L 141.543763 138.486734 
L 142.521135 144.87321 
L 143.498508 147.215557 
L 144.475881 150.061693 
L 145.453253 159.464604 
L 146.430626 141.770884 
L 147.407999 142.428232 
L 148.385372 148.100657 
L 149.362744 141.000901 
L 150.340117 148.58402 
L 151.31749 143.497178 
L 152.294862 142.71354 
L 153.272235 144.353726 
L 154.249608 145.471133 
L 155.226981 145.568757 
L 156.204353 148.236807 
L 157.181726 157.228865 
L 158.159099 151.875777 
L 159.136471 145.876682 
L 160.113844 141.583433 
L 161.091217 141.601108 
L 162.068589 142.81571 
L 163.045962 146.415411 
L 164.023335 137.744889 
L 165.000708 150.856681 
L 165.97808 146.338888 
L 166.955453 142.42526 
L 167.932826 148.008991 
L 168.910198 141.028914 
L 169.887571 144.29467 
L 170.864944 149.507778 
L 171.842317 147.343068 
L 172.819689 144.814489 
L 173.797062 150.269406 
L 174.774435 136.575234 
L 175.751807 133.732846 
L 176.72918 138.931892 
L 177.706553 146.675967 
L 178.683926 151.40031 
L 179.661298 143.582585 
L 180.638671 147.166263 
L 181.616044 139.93321 
L 182.593416 145.690881 
L 183.570789 143.512264 
L 184.548162 137.593824 
L 185.525535 133.193338 
L 186.502907 141.750835 
L 187.48028 141.334394 
L 188.457653 136.08825 
L 189.435025 140.385072 
L 190.412398 131.511863 
L 191.389771 144.190586 
L 192.367144 139.463442 
L 193.344516 147.250598 
L 194.321889 145.690854 
L 195.299262 138.086588 
L 196.276634 127.910461 
L 197.254007 146.048589 
L 198.23138 135.447893 
L 199.208753 149.431322 
L 200.186125 134.28016 
L 201.163498 141.221686 
L 202.140871 141.836137 
L 203.118243 146.331159 
L 204.095616 142.237223 
L 205.072989 148.101663 
L 206.050362 146.055776 
L 207.027734 134.349171 
L 208.005107 151.471448 
L 208.98248 140.337748 
L 209.959852 136.891952 
L 210.937225 135.014143 
L 211.914598 155.016623 
L 212.891971 153.153268 
L 213.869343 146.641874 
L 214.846716 134.763204 
L 215.824089 148.552702 
L 216.801461 137.221846 
L 217.778834 148.951742 
L 218.756207 150.435933 
L 219.73358 147.913333 
L 220.710952 132.189564 
L 221.688325 138.639985 
L 222.665698 150.440889 
L 223.64307 135.979834 
L 224.620443 145.153703 
L 225.597816 147.683293 
L 226.575189 137.283253 
L 227.552561 142.52124 
L 228.529934 148.656508 
L 229.507307 146.738872 
L 230.484679 142.850208 
L 231.462052 135.463972 
L 232.439425 139.415039 
L 233.416797 152.006669 
L 234.39417 130.947962 
L 235.371543 129.121773 
L 236.348916 140.936798 
L 237.326288 141.246306 
L 238.303661 132.827445 
L 239.281034 129.019568 
L 240.258406 122.469703 
L 241.235779 132.014308 
L 242.213152 137.659609 
L 243.190525 138.472358 
L 244.167897 141.904825 
L 245.14527 131.13529 
L 246.122643 132.907567 
L 247.100015 132.889735 
L 248.077388 131.68139 
L 249.054761 144.640619 
L 250.032134 140.018413 
L 251.009506 144.416387 
L 251.986879 131.228892 
L 252.964252 127.705425 
L 253.941624 133.180533 
L 254.918997 130.172253 
L 255.89637 134.049588 
L 256.873743 124.054876 
L 257.851115 142.036005 
L 258.828488 144.368024 
L 260.783233 134.718335 
L 261.760606 140.598168 
L 262.737979 137.055804 
L 263.715352 123.608929 
L 264.692724 129.729505 
L 265.670097 146.753418 
L 266.64747 126.223013 
L 267.624842 140.255321 
L 268.602215 140.445414 
L 269.579588 140.455366 
L 270.556961 120.871513 
L 271.534333 141.888682 
L 272.511706 123.443065 
L 273.489079 135.822077 
L 274.466451 137.214428 
L 275.443824 130.908829 
L 276.421197 135.835674 
L 277.39857 138.450001 
L 278.375942 133.123399 
L 279.353315 143.286973 
L 280.330688 126.539465 
L 283.262806 154.6966 
L 284.240179 129.881594 
L 285.217551 138.272867 
L 286.194924 130.889763 
L 287.172297 130.68719 
L 288.149669 129.510991 
L 289.127042 128.880918 
L 290.104415 145.639261 
L 291.081788 146.48926 
L 292.05916 133.37532 
L 293.036533 151.515757 
L 294.013906 140.733295 
L 294.991278 126.47186 
L 295.968651 134.909955 
L 296.946024 125.787512 
L 299.878142 148.416823 
L 300.855515 150.230844 
L 301.832887 124.690812 
L 302.81026 119.921962 
L 303.787633 118.262478 
L 304.765006 134.744811 
L 305.742378 144.262901 
L 306.719751 145.680305 
L 307.697124 121.975135 
L 308.674496 134.797632 
L 309.651869 127.917005 
L 310.629242 130.126392 
L 311.606614 133.084447 
L 312.583987 136.876401 
L 313.56136 159.460915 
L 314.538733 131.243714 
L 315.516105 129.799352 
L 316.493478 137.823991 
L 317.470851 133.038502 
L 318.448223 129.427315 
L 319.425596 133.139557 
L 320.402969 131.982427 
L 321.380342 145.007313 
L 322.357714 147.128296 
L 323.335087 129.53281 
L 324.31246 137.754683 
L 325.289832 128.421038 
L 326.267205 140.32318 
L 327.244578 137.135667 
L 328.221951 152.491337 
L 329.199323 138.314847 
L 330.176696 132.953745 
L 331.154069 133.003703 
L 332.131441 137.363265 
L 333.108814 136.577563 
L 334.086187 150.737587 
L 335.06356 143.260531 
L 336.040932 125.516216 
L 337.018305 147.73594 
L 337.995678 127.681028 
L 338.97305 135.910635 
L 340.927796 140.572664 
L 341.905169 138.506712 
L 343.859914 126.580964 
L 344.837287 138.639122 
L 345.814659 143.940173 
L 346.792032 145.141926 
L 347.769405 135.736874 
L 348.746778 133.382611 
L 349.72415 133.91069 
L 350.701523 129.539962 
L 351.678896 140.728489 
L 352.656268 148.625931 
L 353.633641 146.742193 
L 354.611014 138.728039 
L 355.588387 139.149584 
L 356.565759 141.215739 
L 357.543132 139.194192 
L 358.520505 132.112986 
L 359.497877 137.966747 
L 360.47525 137.840737 
L 361.452623 138.689209 
L 362.429996 121.366919 
L 363.407368 148.790644 
L 364.384741 138.627164 
L 365.362114 151.819695 
L 366.339486 129.504166 
L 367.316859 126.537043 
L 368.294232 127.462546 
L 370.248977 124.786465 
L 371.22635 126.435941 
L 372.203723 131.116311 
L 373.181095 145.509225 
L 373.581818 140.392242 
L 373.581818 140.392242 
" style="fill:none;stroke:#1ac938;stroke-linecap:round;stroke-width:1.2;"/>
   </g>
   <g id="line2d_28">
    <path clip-path="url(#pa446e0209e)" d="M 69.218182 159.227913 
L 73.127673 159.227913 
L 74.105045 161.749016 
L 78.014536 161.749016 
L 78.991909 162.264626 
L 82.9014 162.264626 
L 83.878773 151.042724 
L 87.788263 151.042724 
L 88.765636 155.598246 
L 97.56199 155.622101 
L 98.539363 148.082396 
L 102.448854 148.082396 
L 103.426227 154.655519 
L 107.335718 154.655519 
L 108.31309 132.728727 
L 112.222581 132.728727 
L 113.199954 125.357077 
L 117.109445 125.357077 
L 118.086817 128.373071 
L 121.996308 128.373071 
L 122.973681 139.33243 
L 126.883172 139.33243 
L 127.860545 145.499848 
L 131.770035 145.499848 
L 132.747408 144.174277 
L 136.656899 144.174277 
L 137.634272 142.764984 
L 141.543763 142.764984 
L 142.521135 154.314452 
L 146.430626 154.314452 
L 147.407999 154.122397 
L 151.31749 154.122397 
L 152.294862 159.556646 
L 156.204353 159.556646 
L 157.181726 161.022765 
L 161.091217 161.022765 
L 162.068589 158.803659 
L 165.97808 158.803659 
L 166.955453 153.697305 
L 170.864944 153.697305 
L 171.842317 166.39423 
L 175.751807 166.39423 
L 176.72918 161.279752 
L 180.638671 161.279752 
L 181.616044 162.422868 
L 185.525535 162.422868 
L 186.502907 162.808258 
L 190.412398 162.808258 
L 191.389771 161.799366 
L 195.299262 161.799366 
L 196.276634 160.704896 
L 200.186125 160.704896 
L 201.163498 167.232326 
L 205.072989 167.232326 
L 206.050362 151.35826 
L 209.959852 151.35826 
L 210.937225 146.079133 
L 214.846716 146.079133 
L 215.824089 150.05263 
L 219.73358 150.05263 
L 220.710952 154.090776 
L 224.620443 154.090776 
L 225.597816 154.648014 
L 229.507307 154.648014 
L 230.484679 151.217561 
L 234.39417 151.217561 
L 235.371543 152.969776 
L 239.281034 152.969776 
L 240.258406 166.804895 
L 244.167897 166.804895 
L 245.14527 166.047375 
L 249.054761 166.047375 
L 250.032134 174.923352 
L 253.941624 174.923352 
L 254.918997 176.225455 
L 258.828488 176.225455 
L 259.805861 171.905868 
L 263.715352 171.905868 
L 264.692724 149.481763 
L 268.602215 149.481763 
L 269.579588 151.202912 
L 273.489079 151.202912 
L 274.466451 136.607405 
L 278.375942 136.607405 
L 279.353315 133.191639 
L 283.262806 133.191639 
L 284.240179 129.365896 
L 288.149669 129.365896 
L 289.127042 130.364771 
L 293.036533 130.364771 
L 294.013906 117.808509 
L 297.923397 117.808509 
L 298.900769 114.936451 
L 302.81026 114.936451 
L 303.787633 110.334545 
L 307.697124 110.334545 
L 308.674496 122.822347 
L 312.583987 122.822347 
L 313.56136 128.147335 
L 317.470851 128.147335 
L 318.448223 149.339668 
L 322.357714 149.339668 
L 323.335087 157.079482 
L 327.244578 157.079482 
L 328.221951 147.446615 
L 332.131441 147.446615 
L 333.108814 140.065505 
L 337.018305 140.065505 
L 337.995678 142.343694 
L 341.905169 142.343694 
L 342.882541 143.519384 
L 346.792032 143.519384 
L 347.769405 139.58767 
L 351.678896 139.58767 
L 352.656268 135.135515 
L 356.565759 135.135515 
L 357.543132 134.042789 
L 361.452623 134.042789 
L 362.429996 131.364881 
L 364.071982 131.364881 
L 364.071982 131.364881 
" style="fill:none;stroke:#e8000b;stroke-linecap:round;stroke-width:1.2;"/>
   </g>
   <g id="matplotlib.axis_3">
    <g id="xtick_8">
     <g id="line2d_29">
      <g>
       <use style="stroke:#000000;" x="67.263436" xlink:href="#ma8f551e815" y="179.52"/>
      </g>
     </g>
     <g id="line2d_30">
      <g>
       <use style="stroke:#000000;" x="67.263436" xlink:href="#m1a9f706067" y="107.04"/>
      </g>
     </g>
    </g>
    <g id="xtick_9">
     <g id="line2d_31">
      <g>
       <use style="stroke:#000000;" x="116.132072" xlink:href="#ma8f551e815" y="179.52"/>
      </g>
     </g>
     <g id="line2d_32">
      <g>
       <use style="stroke:#000000;" x="116.132072" xlink:href="#m1a9f706067" y="107.04"/>
      </g>
     </g>
    </g>
    <g id="xtick_10">
     <g id="line2d_33">
      <g>
       <use style="stroke:#000000;" x="165.000708" xlink:href="#ma8f551e815" y="179.52"/>
      </g>
     </g>
     <g id="line2d_34">
      <g>
       <use style="stroke:#000000;" x="165.000708" xlink:href="#m1a9f706067" y="107.04"/>
      </g>
     </g>
    </g>
    <g id="xtick_11">
     <g id="line2d_35">
      <g>
       <use style="stroke:#000000;" x="213.869343" xlink:href="#ma8f551e815" y="179.52"/>
      </g>
     </g>
     <g id="line2d_36">
      <g>
       <use style="stroke:#000000;" x="213.869343" xlink:href="#m1a9f706067" y="107.04"/>
      </g>
     </g>
    </g>
    <g id="xtick_12">
     <g id="line2d_37">
      <g>
       <use style="stroke:#000000;" x="262.737979" xlink:href="#ma8f551e815" y="179.52"/>
      </g>
     </g>
     <g id="line2d_38">
      <g>
       <use style="stroke:#000000;" x="262.737979" xlink:href="#m1a9f706067" y="107.04"/>
      </g>
     </g>
    </g>
    <g id="xtick_13">
     <g id="line2d_39">
      <g>
       <use style="stroke:#000000;" x="311.606614" xlink:href="#ma8f551e815" y="179.52"/>
      </g>
     </g>
     <g id="line2d_40">
      <g>
       <use style="stroke:#000000;" x="311.606614" xlink:href="#m1a9f706067" y="107.04"/>
      </g>
     </g>
    </g>
    <g id="xtick_14">
     <g id="line2d_41">
      <g>
       <use style="stroke:#000000;" x="360.47525" xlink:href="#ma8f551e815" y="179.52"/>
      </g>
     </g>
     <g id="line2d_42">
      <g>
       <use style="stroke:#000000;" x="360.47525" xlink:href="#m1a9f706067" y="107.04"/>
      </g>
     </g>
    </g>
   </g>
   <g id="matplotlib.axis_4">
    <g id="ytick_4">
     <g id="line2d_43">
      <g>
       <use style="stroke:#000000;" x="54" xlink:href="#m064d78c83c" y="155.91073"/>
      </g>
     </g>
     <g id="line2d_44">
      <g>
       <use style="stroke:#000000;" x="388.8" xlink:href="#m27b5973fe0" y="155.91073"/>
      </g>
     </g>
     <g id="text_8">
      <!-- 0.5 -->
      <defs>
       <path d="M 9.078125 0 
L 9.078125 10.015625 
L 19.09375 10.015625 
L 19.09375 0 
z
" id="ArialMT-46"/>
      </defs>
      <g transform="translate(38.268 159.060168)scale(0.088 -0.088)">
       <use xlink:href="#ArialMT-48"/>
       <use x="55.615234" xlink:href="#ArialMT-46"/>
       <use x="83.398438" xlink:href="#ArialMT-53"/>
      </g>
     </g>
    </g>
    <g id="ytick_5">
     <g id="line2d_45">
      <g>
       <use style="stroke:#000000;" x="54" xlink:href="#m064d78c83c" y="124.084123"/>
      </g>
     </g>
     <g id="line2d_46">
      <g>
       <use style="stroke:#000000;" x="388.8" xlink:href="#m27b5973fe0" y="124.084123"/>
      </g>
     </g>
     <g id="text_9">
      <!-- 0.6 -->
      <defs>
       <path d="M 49.75 54.046875 
L 41.015625 53.375 
Q 39.84375 58.546875 37.703125 60.890625 
Q 34.125 64.65625 28.90625 64.65625 
Q 24.703125 64.65625 21.53125 62.3125 
Q 17.390625 59.28125 14.984375 53.46875 
Q 12.59375 47.65625 12.5 36.921875 
Q 15.671875 41.75 20.265625 44.09375 
Q 24.859375 46.4375 29.890625 46.4375 
Q 38.671875 46.4375 44.84375 39.96875 
Q 51.03125 33.5 51.03125 23.25 
Q 51.03125 16.5 48.125 10.71875 
Q 45.21875 4.9375 40.140625 1.859375 
Q 35.0625 -1.21875 28.609375 -1.21875 
Q 17.625 -1.21875 10.6875 6.859375 
Q 3.765625 14.9375 3.765625 33.5 
Q 3.765625 54.25 11.421875 63.671875 
Q 18.109375 71.875 29.4375 71.875 
Q 37.890625 71.875 43.28125 67.140625 
Q 48.6875 62.40625 49.75 54.046875 
z
M 13.875 23.1875 
Q 13.875 18.65625 15.796875 14.5 
Q 17.71875 10.359375 21.1875 8.171875 
Q 24.65625 6 28.46875 6 
Q 34.03125 6 38.03125 10.484375 
Q 42.046875 14.984375 42.046875 22.703125 
Q 42.046875 30.125 38.078125 34.390625 
Q 34.125 38.671875 28.125 38.671875 
Q 22.171875 38.671875 18.015625 34.390625 
Q 13.875 30.125 13.875 23.1875 
z
" id="ArialMT-54"/>
      </defs>
      <g transform="translate(38.268 127.23356)scale(0.088 -0.088)">
       <use xlink:href="#ArialMT-48"/>
       <use x="55.615234" xlink:href="#ArialMT-46"/>
       <use x="83.398438" xlink:href="#ArialMT-54"/>
      </g>
     </g>
    </g>
    <g id="text_10">
     <!-- $F$ -->
     <defs>
      <path d="M 16.890625 72.90625 
L 58.6875 72.90625 
L 57.078125 64.59375 
L 25.09375 64.59375 
L 20.90625 43.109375 
L 49.8125 43.109375 
L 48.1875 34.8125 
L 19.28125 34.8125 
L 12.5 0 
L 2.6875 0 
z
" id="DejaVuSans-Oblique-70"/>
     </defs>
     <g transform="translate(32.36 146.064)rotate(-90)scale(0.096 -0.096)">
      <use transform="translate(0 0.09375)" xlink:href="#DejaVuSans-Oblique-70"/>
     </g>
    </g>
   </g>
   <g id="patch_10">
    <path d="M 54 179.52 
L 54 107.04 
" style="fill:none;stroke:#000000;stroke-linecap:square;stroke-linejoin:miter;"/>
   </g>
   <g id="patch_11">
    <path d="M 388.8 179.52 
L 388.8 107.04 
" style="fill:none;stroke:#000000;stroke-linecap:square;stroke-linejoin:miter;"/>
   </g>
   <g id="patch_12">
    <path d="M 54 179.52 
L 388.8 179.52 
" style="fill:none;stroke:#000000;stroke-linecap:square;stroke-linejoin:miter;"/>
   </g>
   <g id="patch_13">
    <path d="M 54 107.04 
L 388.8 107.04 
" style="fill:none;stroke:#000000;stroke-linecap:square;stroke-linejoin:miter;"/>
   </g>
  </g>
  <g id="axes_3">
   <g id="patch_14">
    <path d="M 54 252 
L 388.8 252 
L 388.8 179.52 
L 54 179.52 
z
" style="fill:#ffffff;"/>
   </g>
   <g id="line2d_47">
    <path clip-path="url(#pc6aa69be69)" d="M 69.218182 240.461212 
L 70.195555 239.45408 
L 71.172927 244.710666 
L 72.1503 240.471629 
L 73.127673 246.630593 
L 74.105045 245.598271 
L 75.082418 248.705455 
L 76.059791 242.683283 
L 77.037164 239.168954 
L 78.014536 242.929245 
L 78.991909 239.513806 
L 79.969282 241.894041 
L 80.946654 240.607596 
L 81.924027 236.334276 
L 82.9014 243.173642 
L 83.878773 240.67562 
L 84.856145 241.608337 
L 85.833518 244.380767 
L 86.810891 241.914001 
L 88.765636 234.918446 
L 89.743009 242.862261 
L 90.720381 239.812083 
L 91.697754 242.266293 
L 92.675127 242.257827 
L 94.629872 239.631793 
L 95.607245 233.720497 
L 96.584618 236.644005 
L 97.56199 238.280794 
L 98.539363 241.006575 
L 99.516736 243.044016 
L 100.494109 237.133462 
L 101.471481 234.991271 
L 102.448854 242.802354 
L 103.426227 235.927755 
L 104.403599 235.460727 
L 105.380972 240.019487 
L 106.358345 238.060187 
L 107.335718 241.187919 
L 108.31309 239.230292 
L 109.290463 238.093672 
L 110.267836 237.913711 
L 111.245208 239.826491 
L 112.222581 235.752635 
L 113.199954 238.669975 
L 114.177327 235.12104 
L 115.154699 236.151865 
L 116.132072 239.0838 
L 117.109445 239.548504 
L 118.086817 239.316116 
L 119.06419 238.075683 
L 120.041563 238.005101 
L 121.018936 238.694734 
L 121.996308 240.930638 
L 122.973681 237.756872 
L 123.951054 236.050727 
L 124.928426 234.645016 
L 125.905799 236.788529 
L 126.883172 233.273206 
L 127.860545 237.155418 
L 128.837917 234.605429 
L 129.81529 235.812238 
L 130.792663 240.503107 
L 131.770035 237.931898 
L 132.747408 235.918467 
L 133.724781 240.903614 
L 134.702154 232.160189 
L 135.679526 241.334499 
L 136.656899 240.652286 
L 137.634272 233.776961 
L 138.611644 231.382867 
L 139.589017 238.650069 
L 140.56639 240.25629 
L 141.543763 230.071104 
L 142.521135 236.113961 
L 143.498508 233.012277 
L 144.475881 235.277498 
L 145.453253 233.934323 
L 146.430626 241.750423 
L 147.407999 232.825724 
L 148.385372 229.075632 
L 149.362744 231.490779 
L 150.340117 232.286375 
L 151.31749 234.66805 
L 152.294862 236.25664 
L 153.272235 233.757738 
L 154.249608 234.338217 
L 155.226981 234.327401 
L 156.204353 229.409859 
L 157.181726 237.209013 
L 158.159099 235.937352 
L 159.136471 233.631179 
L 160.113844 236.432364 
L 161.091217 233.155011 
L 162.068589 236.032933 
L 163.045962 232.575517 
L 164.023335 234.002324 
L 165.000708 231.152663 
L 165.97808 229.2049 
L 166.955453 227.99606 
L 167.932826 233.32638 
L 168.910198 234.69306 
L 169.887571 230.186202 
L 170.864944 234.427226 
L 171.842317 228.637241 
L 172.819689 227.94391 
L 173.797062 229.819265 
L 174.774435 230.109113 
L 175.751807 229.992887 
L 176.72918 234.35388 
L 177.706553 233.449352 
L 178.683926 230.615296 
L 179.661298 231.200463 
L 180.638671 230.102852 
L 181.616044 229.557196 
L 182.593416 232.962476 
L 183.570789 230.478253 
L 184.548162 228.98294 
L 185.525535 232.652618 
L 186.502907 230.030459 
L 187.48028 233.427565 
L 188.457653 231.090309 
L 189.435025 228.187613 
L 190.412398 231.40173 
L 191.389771 228.383736 
L 192.367144 229.587792 
L 193.344516 225.526875 
L 194.321889 226.695362 
L 195.299262 226.398801 
L 196.276634 225.936521 
L 197.254007 231.318907 
L 198.23138 232.509917 
L 199.208753 229.824806 
L 200.186125 229.311588 
L 201.163498 229.399598 
L 202.140871 231.119735 
L 203.118243 229.472325 
L 204.095616 233.738081 
L 205.072989 227.007012 
L 206.050362 231.838979 
L 207.027734 235.34617 
L 208.005107 228.804762 
L 208.98248 230.621477 
L 209.959852 229.328349 
L 210.937225 232.960812 
L 211.914598 232.72118 
L 212.891971 231.777288 
L 213.869343 230.171325 
L 214.846716 234.411173 
L 215.824089 231.651589 
L 216.801461 225.880628 
L 217.778834 228.71465 
L 218.756207 229.08669 
L 219.73358 227.465879 
L 220.710952 230.3226 
L 221.688325 231.569523 
L 222.665698 221.644804 
L 223.64307 224.82377 
L 224.620443 225.608856 
L 225.597816 227.814739 
L 226.575189 229.521087 
L 227.552561 227.548547 
L 228.529934 228.992544 
L 229.507307 224.026863 
L 231.462052 232.438359 
L 232.439425 226.267152 
L 233.416797 226.394791 
L 234.39417 227.702574 
L 235.371543 228.540951 
L 236.348916 234.822804 
L 237.326288 226.803822 
L 238.303661 228.207716 
L 239.281034 235.549823 
L 240.258406 228.137277 
L 241.235779 224.104873 
L 242.213152 222.576571 
L 243.190525 231.279484 
L 244.167897 228.663198 
L 245.14527 229.15102 
L 246.122643 229.400678 
L 247.100015 223.147446 
L 248.077388 228.879768 
L 249.054761 228.297492 
L 250.032134 224.659875 
L 251.009506 231.329498 
L 251.986879 227.696507 
L 252.964252 229.229263 
L 253.941624 229.437646 
L 254.918997 228.464619 
L 255.89637 225.005033 
L 256.873743 228.523729 
L 257.851115 229.044603 
L 258.828488 223.366511 
L 259.805861 223.327481 
L 260.783233 221.767716 
L 261.760606 235.214918 
L 262.737979 227.713977 
L 263.715352 228.389266 
L 264.692724 226.924707 
L 265.670097 227.303081 
L 266.64747 230.626014 
L 267.624842 225.729612 
L 268.602215 225.810268 
L 269.579588 230.723015 
L 270.556961 229.961116 
L 271.534333 228.984438 
L 272.511706 228.451061 
L 273.489079 230.068776 
L 274.466451 225.715947 
L 275.443824 224.121138 
L 276.421197 225.705921 
L 277.39857 226.355601 
L 278.375942 228.773887 
L 279.353315 224.489124 
L 280.330688 229.900077 
L 281.30806 230.534315 
L 282.285433 231.846385 
L 283.262806 229.702479 
L 284.240179 224.029227 
L 285.217551 227.105372 
L 286.194924 230.771902 
L 287.172297 228.050431 
L 288.149669 226.19853 
L 289.127042 229.178101 
L 290.104415 225.421022 
L 291.081788 229.855079 
L 292.05916 226.545063 
L 293.036533 231.758728 
L 294.013906 231.668631 
L 294.991278 224.883026 
L 295.968651 231.542294 
L 296.946024 227.407146 
L 297.923397 233.470366 
L 298.900769 225.392496 
L 299.878142 225.607444 
L 300.855515 226.895569 
L 301.832887 230.20651 
L 302.81026 225.924446 
L 303.787633 229.552055 
L 304.765006 228.888204 
L 305.742378 231.218658 
L 306.719751 228.289636 
L 307.697124 230.185675 
L 308.674496 228.507785 
L 309.651869 224.075055 
L 310.629242 229.681332 
L 311.606614 230.752279 
L 312.583987 225.569834 
L 313.56136 231.670024 
L 314.538733 221.371417 
L 315.516105 226.501194 
L 316.493478 226.550139 
L 317.470851 226.773139 
L 318.448223 230.106266 
L 319.425596 228.437049 
L 320.402969 225.733149 
L 321.380342 228.706398 
L 322.357714 230.106403 
L 324.31246 228.933377 
L 325.289832 228.527625 
L 326.267205 229.656082 
L 327.244578 223.469896 
L 329.199323 230.081168 
L 330.176696 230.458558 
L 331.154069 229.22426 
L 332.131441 229.241289 
L 333.108814 227.456495 
L 334.086187 230.860584 
L 335.06356 228.68454 
L 337.018305 226.500075 
L 337.995678 225.981419 
L 338.97305 222.20065 
L 339.950423 227.414146 
L 340.927796 229.615545 
L 341.905169 226.458355 
L 342.882541 228.180744 
L 343.859914 232.808195 
L 344.837287 223.397034 
L 345.814659 231.05705 
L 346.792032 222.374652 
L 347.769405 231.552484 
L 348.746778 228.596981 
L 349.72415 224.370554 
L 350.701523 226.623516 
L 351.678896 227.31507 
L 352.656268 223.857515 
L 353.633641 221.653043 
L 354.611014 228.847127 
L 355.588387 228.040442 
L 356.565759 228.723808 
L 357.543132 224.125154 
L 358.520505 230.49858 
L 359.497877 230.214802 
L 360.47525 226.96292 
L 361.452623 222.570185 
L 362.429996 223.606875 
L 363.407368 221.290265 
L 364.384741 226.685337 
L 365.362114 224.275969 
L 366.339486 229.81706 
L 367.316859 223.584876 
L 368.294232 225.339698 
L 369.271605 225.051962 
L 370.248977 225.00522 
L 371.22635 224.643764 
L 372.203723 230.676959 
L 373.181095 232.139383 
L 373.581818 229.345888 
L 373.581818 229.345888 
" style="fill:none;stroke:#1ac938;stroke-linecap:round;stroke-width:1.2;"/>
   </g>
   <g id="line2d_48">
    <path clip-path="url(#pc6aa69be69)" d="M 69.218182 233.160171 
L 73.127673 233.160171 
L 74.105045 220.150468 
L 78.014536 220.150468 
L 78.991909 211.813644 
L 82.9014 211.813644 
L 83.878773 220.094626 
L 87.788263 220.094626 
L 88.765636 222.249376 
L 92.675127 222.249376 
L 93.6525 226.153011 
L 97.56199 226.153011 
L 98.539363 226.5726 
L 102.448854 226.5726 
L 103.426227 228.303317 
L 107.335718 228.303317 
L 108.31309 225.100392 
L 112.222581 225.100392 
L 113.199954 225.348083 
L 117.109445 225.348083 
L 118.086817 218.65149 
L 126.883172 218.659307 
L 127.860545 218.200401 
L 131.770035 218.200401 
L 132.747408 216.434706 
L 136.656899 216.434706 
L 137.634272 215.193312 
L 141.543763 215.193312 
L 142.521135 226.320323 
L 151.31749 226.301619 
L 152.294862 217.397448 
L 156.204353 217.397448 
L 157.181726 209.319063 
L 161.091217 209.319063 
L 162.068589 204.879321 
L 165.97808 204.879321 
L 166.955453 209.184583 
L 170.864944 209.184583 
L 171.842317 209.976286 
L 175.751807 209.976286 
L 176.72918 221.951863 
L 180.638671 221.951863 
L 181.616044 219.108727 
L 185.525535 219.108727 
L 186.502907 218.389563 
L 190.412398 218.389563 
L 191.389771 206.073778 
L 195.299262 206.073778 
L 196.276634 208.899147 
L 200.186125 208.899147 
L 201.163498 210.383397 
L 205.072989 210.383397 
L 206.050362 203.652479 
L 209.959852 203.652479 
L 210.937225 199.083797 
L 214.846716 199.083797 
L 215.824089 198.407319 
L 219.73358 198.407319 
L 220.710952 201.641167 
L 224.620443 201.641167 
L 225.597816 193.649023 
L 229.507307 193.649023 
L 230.484679 191.835108 
L 234.39417 191.835108 
L 235.371543 185.897931 
L 239.281034 185.897931 
L 240.258406 182.814545 
L 244.167897 182.814545 
L 245.14527 200.90392 
L 249.054761 200.90392 
L 250.032134 211.086069 
L 253.941624 211.086069 
L 254.918997 206.078162 
L 258.828488 206.078162 
L 259.805861 208.352013 
L 263.715352 208.352013 
L 264.692724 203.078165 
L 268.602215 203.078165 
L 269.579588 214.196907 
L 273.489079 214.196907 
L 274.466451 227.043138 
L 278.375942 227.043138 
L 279.353315 231.435077 
L 283.262806 231.435077 
L 284.240179 232.548235 
L 288.149669 232.548235 
L 289.127042 236.622062 
L 293.036533 236.622062 
L 294.013906 230.127021 
L 297.923397 230.127021 
L 298.900769 228.410936 
L 302.81026 228.410936 
L 303.787633 227.663214 
L 307.697124 227.663214 
L 308.674496 222.898422 
L 312.583987 222.898422 
L 313.56136 227.288383 
L 322.357714 227.307004 
L 323.335087 224.820874 
L 327.244578 224.820874 
L 328.221951 226.746807 
L 332.131441 226.746807 
L 333.108814 222.993884 
L 337.018305 222.993884 
L 337.995678 223.69815 
L 341.905169 223.69815 
L 342.882541 223.847625 
L 346.792032 223.847625 
L 347.769405 220.316908 
L 351.678896 220.316908 
L 352.656268 222.132572 
L 356.565759 222.132572 
L 357.543132 227.66381 
L 361.452623 227.66381 
L 362.429996 236.284928 
L 364.071982 236.284928 
L 364.071982 236.284928 
" style="fill:none;stroke:#e8000b;stroke-linecap:round;stroke-width:1.2;"/>
   </g>
   <g id="matplotlib.axis_5">
    <g id="xtick_15">
     <g id="line2d_49">
      <g>
       <use style="stroke:#000000;" x="67.263436" xlink:href="#ma8f551e815" y="252"/>
      </g>
     </g>
     <g id="line2d_50">
      <g>
       <use style="stroke:#000000;" x="67.263436" xlink:href="#m1a9f706067" y="179.52"/>
      </g>
     </g>
     <g id="text_11">
      <!-- $\mathdefault{0.0}$ -->
      <g transform="translate(61.103436 261.798875)scale(0.088 -0.088)">
       <use transform="translate(0 0.125)" xlink:href="#ArialMT-48"/>
       <use transform="translate(55.615234 0.125)" xlink:href="#ArialMT-46"/>
       <use transform="translate(83.398438 0.125)" xlink:href="#ArialMT-48"/>
      </g>
     </g>
    </g>
    <g id="xtick_16">
     <g id="line2d_51">
      <g>
       <use style="stroke:#000000;" x="116.132072" xlink:href="#ma8f551e815" y="252"/>
      </g>
     </g>
     <g id="line2d_52">
      <g>
       <use style="stroke:#000000;" x="116.132072" xlink:href="#m1a9f706067" y="179.52"/>
      </g>
     </g>
     <g id="text_12">
      <!-- $\mathdefault{0.5}$ -->
      <g transform="translate(109.972072 261.798875)scale(0.088 -0.088)">
       <use transform="translate(0 0.125)" xlink:href="#ArialMT-48"/>
       <use transform="translate(55.615234 0.125)" xlink:href="#ArialMT-46"/>
       <use transform="translate(83.398438 0.125)" xlink:href="#ArialMT-53"/>
      </g>
     </g>
    </g>
    <g id="xtick_17">
     <g id="line2d_53">
      <g>
       <use style="stroke:#000000;" x="165.000708" xlink:href="#ma8f551e815" y="252"/>
      </g>
     </g>
     <g id="line2d_54">
      <g>
       <use style="stroke:#000000;" x="165.000708" xlink:href="#m1a9f706067" y="179.52"/>
      </g>
     </g>
     <g id="text_13">
      <!-- $\mathdefault{1.0}$ -->
      <g transform="translate(158.840708 261.798875)scale(0.088 -0.088)">
       <use transform="translate(0 0.125)" xlink:href="#ArialMT-49"/>
       <use transform="translate(55.615234 0.125)" xlink:href="#ArialMT-46"/>
       <use transform="translate(83.398438 0.125)" xlink:href="#ArialMT-48"/>
      </g>
     </g>
    </g>
    <g id="xtick_18">
     <g id="line2d_55">
      <g>
       <use style="stroke:#000000;" x="213.869343" xlink:href="#ma8f551e815" y="252"/>
      </g>
     </g>
     <g id="line2d_56">
      <g>
       <use style="stroke:#000000;" x="213.869343" xlink:href="#m1a9f706067" y="179.52"/>
      </g>
     </g>
     <g id="text_14">
      <!-- $\mathdefault{1.5}$ -->
      <g transform="translate(207.709343 261.798875)scale(0.088 -0.088)">
       <use transform="translate(0 0.125)" xlink:href="#ArialMT-49"/>
       <use transform="translate(55.615234 0.125)" xlink:href="#ArialMT-46"/>
       <use transform="translate(83.398438 0.125)" xlink:href="#ArialMT-53"/>
      </g>
     </g>
    </g>
    <g id="xtick_19">
     <g id="line2d_57">
      <g>
       <use style="stroke:#000000;" x="262.737979" xlink:href="#ma8f551e815" y="252"/>
      </g>
     </g>
     <g id="line2d_58">
      <g>
       <use style="stroke:#000000;" x="262.737979" xlink:href="#m1a9f706067" y="179.52"/>
      </g>
     </g>
     <g id="text_15">
      <!-- $\mathdefault{2.0}$ -->
      <defs>
       <path d="M 50.34375 8.453125 
L 50.34375 0 
L 3.03125 0 
Q 2.9375 3.171875 4.046875 6.109375 
Q 5.859375 10.9375 9.828125 15.625 
Q 13.8125 20.3125 21.34375 26.46875 
Q 33.015625 36.03125 37.109375 41.625 
Q 41.21875 47.21875 41.21875 52.203125 
Q 41.21875 57.421875 37.46875 61 
Q 33.734375 64.59375 27.734375 64.59375 
Q 21.390625 64.59375 17.578125 60.78125 
Q 13.765625 56.984375 13.71875 50.25 
L 4.6875 51.171875 
Q 5.609375 61.28125 11.65625 66.578125 
Q 17.71875 71.875 27.9375 71.875 
Q 38.234375 71.875 44.234375 66.15625 
Q 50.25 60.453125 50.25 52 
Q 50.25 47.703125 48.484375 43.546875 
Q 46.734375 39.40625 42.65625 34.8125 
Q 38.578125 30.21875 29.109375 22.21875 
Q 21.1875 15.578125 18.9375 13.203125 
Q 16.703125 10.84375 15.234375 8.453125 
z
" id="ArialMT-50"/>
      </defs>
      <g transform="translate(256.577979 261.798875)scale(0.088 -0.088)">
       <use transform="translate(0 0.125)" xlink:href="#ArialMT-50"/>
       <use transform="translate(55.615234 0.125)" xlink:href="#ArialMT-46"/>
       <use transform="translate(83.398438 0.125)" xlink:href="#ArialMT-48"/>
      </g>
     </g>
    </g>
    <g id="xtick_20">
     <g id="line2d_59">
      <g>
       <use style="stroke:#000000;" x="311.606614" xlink:href="#ma8f551e815" y="252"/>
      </g>
     </g>
     <g id="line2d_60">
      <g>
       <use style="stroke:#000000;" x="311.606614" xlink:href="#m1a9f706067" y="179.52"/>
      </g>
     </g>
     <g id="text_16">
      <!-- $\mathdefault{2.5}$ -->
      <g transform="translate(305.446614 261.798875)scale(0.088 -0.088)">
       <use transform="translate(0 0.125)" xlink:href="#ArialMT-50"/>
       <use transform="translate(55.615234 0.125)" xlink:href="#ArialMT-46"/>
       <use transform="translate(83.398438 0.125)" xlink:href="#ArialMT-53"/>
      </g>
     </g>
    </g>
    <g id="xtick_21">
     <g id="line2d_61">
      <g>
       <use style="stroke:#000000;" x="360.47525" xlink:href="#ma8f551e815" y="252"/>
      </g>
     </g>
     <g id="line2d_62">
      <g>
       <use style="stroke:#000000;" x="360.47525" xlink:href="#m1a9f706067" y="179.52"/>
      </g>
     </g>
     <g id="text_17">
      <!-- $\mathdefault{3.0}$ -->
      <defs>
       <path d="M 4.203125 18.890625 
L 12.984375 20.0625 
Q 14.5 12.59375 18.140625 9.296875 
Q 21.78125 6 27 6 
Q 33.203125 6 37.46875 10.296875 
Q 41.75 14.59375 41.75 20.953125 
Q 41.75 27 37.796875 30.921875 
Q 33.84375 34.859375 27.734375 34.859375 
Q 25.25 34.859375 21.53125 33.890625 
L 22.515625 41.609375 
Q 23.390625 41.5 23.921875 41.5 
Q 29.546875 41.5 34.03125 44.421875 
Q 38.53125 47.359375 38.53125 53.46875 
Q 38.53125 58.296875 35.25 61.46875 
Q 31.984375 64.65625 26.8125 64.65625 
Q 21.6875 64.65625 18.265625 61.421875 
Q 14.84375 58.203125 13.875 51.765625 
L 5.078125 53.328125 
Q 6.6875 62.15625 12.390625 67.015625 
Q 18.109375 71.875 26.609375 71.875 
Q 32.46875 71.875 37.390625 69.359375 
Q 42.328125 66.84375 44.9375 62.5 
Q 47.5625 58.15625 47.5625 53.265625 
Q 47.5625 48.640625 45.0625 44.828125 
Q 42.578125 41.015625 37.703125 38.765625 
Q 44.046875 37.3125 47.5625 32.6875 
Q 51.078125 28.078125 51.078125 21.140625 
Q 51.078125 11.765625 44.234375 5.25 
Q 37.40625 -1.265625 26.953125 -1.265625 
Q 17.53125 -1.265625 11.296875 4.34375 
Q 5.078125 9.96875 4.203125 18.890625 
z
" id="ArialMT-51"/>
      </defs>
      <g transform="translate(354.31525 261.798875)scale(0.088 -0.088)">
       <use transform="translate(0 0.125)" xlink:href="#ArialMT-51"/>
       <use transform="translate(55.615234 0.125)" xlink:href="#ArialMT-46"/>
       <use transform="translate(83.398438 0.125)" xlink:href="#ArialMT-48"/>
      </g>
     </g>
    </g>
    <g id="text_18">
     <!-- evaluations -->
     <defs>
      <path d="M 21 0 
L 1.265625 51.859375 
L 10.546875 51.859375 
L 21.6875 20.796875 
Q 23.484375 15.765625 25 10.359375 
Q 26.171875 14.453125 28.265625 20.21875 
L 39.796875 51.859375 
L 48.828125 51.859375 
L 29.203125 0 
z
" id="ArialMT-118"/>
      <path d="M 40.4375 6.390625 
Q 35.546875 2.25 31.03125 0.53125 
Q 26.515625 -1.171875 21.34375 -1.171875 
Q 12.796875 -1.171875 8.203125 3 
Q 3.609375 7.171875 3.609375 13.671875 
Q 3.609375 17.484375 5.34375 20.625 
Q 7.078125 23.78125 9.890625 25.6875 
Q 12.703125 27.59375 16.21875 28.5625 
Q 18.796875 29.25 24.03125 29.890625 
Q 34.671875 31.15625 39.703125 32.90625 
Q 39.75 34.71875 39.75 35.203125 
Q 39.75 40.578125 37.25 42.78125 
Q 33.890625 45.75 27.25 45.75 
Q 21.046875 45.75 18.09375 43.578125 
Q 15.140625 41.40625 13.71875 35.890625 
L 5.125 37.0625 
Q 6.296875 42.578125 8.984375 45.96875 
Q 11.671875 49.359375 16.75 51.1875 
Q 21.828125 53.03125 28.515625 53.03125 
Q 35.15625 53.03125 39.296875 51.46875 
Q 43.453125 49.90625 45.40625 47.53125 
Q 47.359375 45.171875 48.140625 41.546875 
Q 48.578125 39.3125 48.578125 33.453125 
L 48.578125 21.734375 
Q 48.578125 9.46875 49.140625 6.21875 
Q 49.703125 2.984375 51.375 0 
L 42.1875 0 
Q 40.828125 2.734375 40.4375 6.390625 
z
M 39.703125 26.03125 
Q 34.90625 24.078125 25.34375 22.703125 
Q 19.921875 21.921875 17.671875 20.9375 
Q 15.4375 19.96875 14.203125 18.09375 
Q 12.984375 16.21875 12.984375 13.921875 
Q 12.984375 10.40625 15.640625 8.0625 
Q 18.3125 5.71875 23.4375 5.71875 
Q 28.515625 5.71875 32.46875 7.9375 
Q 36.421875 10.15625 38.28125 14.015625 
Q 39.703125 17 39.703125 22.796875 
z
" id="ArialMT-97"/>
      <path d="M 6.390625 0 
L 6.390625 71.578125 
L 15.1875 71.578125 
L 15.1875 0 
z
" id="ArialMT-108"/>
      <path d="M 40.578125 0 
L 40.578125 7.625 
Q 34.515625 -1.171875 24.125 -1.171875 
Q 19.53125 -1.171875 15.546875 0.578125 
Q 11.578125 2.34375 9.640625 5 
Q 7.71875 7.671875 6.9375 11.53125 
Q 6.390625 14.109375 6.390625 19.734375 
L 6.390625 51.859375 
L 15.1875 51.859375 
L 15.1875 23.09375 
Q 15.1875 16.21875 15.71875 13.8125 
Q 16.546875 10.359375 19.234375 8.375 
Q 21.921875 6.390625 25.875 6.390625 
Q 29.828125 6.390625 33.296875 8.421875 
Q 36.765625 10.453125 38.203125 13.9375 
Q 39.65625 17.4375 39.65625 24.078125 
L 39.65625 51.859375 
L 48.4375 51.859375 
L 48.4375 0 
z
" id="ArialMT-117"/>
      <path d="M 3.328125 25.921875 
Q 3.328125 40.328125 11.328125 47.265625 
Q 18.015625 53.03125 27.640625 53.03125 
Q 38.328125 53.03125 45.109375 46.015625 
Q 51.90625 39.015625 51.90625 26.65625 
Q 51.90625 16.65625 48.90625 10.90625 
Q 45.90625 5.171875 40.15625 2 
Q 34.421875 -1.171875 27.640625 -1.171875 
Q 16.75 -1.171875 10.03125 5.8125 
Q 3.328125 12.796875 3.328125 25.921875 
z
M 12.359375 25.921875 
Q 12.359375 15.96875 16.703125 11.015625 
Q 21.046875 6.0625 27.640625 6.0625 
Q 34.1875 6.0625 38.53125 11.03125 
Q 42.875 16.015625 42.875 26.21875 
Q 42.875 35.84375 38.5 40.796875 
Q 34.125 45.75 27.640625 45.75 
Q 21.046875 45.75 16.703125 40.8125 
Q 12.359375 35.890625 12.359375 25.921875 
z
" id="ArialMT-111"/>
     </defs>
     <g transform="translate(197.118 274.419375)scale(0.096 -0.096)">
      <use xlink:href="#ArialMT-101"/>
      <use x="55.615234" xlink:href="#ArialMT-118"/>
      <use x="105.615234" xlink:href="#ArialMT-97"/>
      <use x="161.230469" xlink:href="#ArialMT-108"/>
      <use x="183.447266" xlink:href="#ArialMT-117"/>
      <use x="239.0625" xlink:href="#ArialMT-97"/>
      <use x="294.677734" xlink:href="#ArialMT-116"/>
      <use x="322.460938" xlink:href="#ArialMT-105"/>
      <use x="344.677734" xlink:href="#ArialMT-111"/>
      <use x="400.292969" xlink:href="#ArialMT-110"/>
      <use x="455.908203" xlink:href="#ArialMT-115"/>
     </g>
    </g>
    <g id="text_19">
     <!-- $\times\mathdefault{10^{4}}\mathdefault{}$ -->
     <defs>
      <path d="M 70.125 53.71875 
L 47.796875 31.296875 
L 70.125 8.984375 
L 64.3125 3.078125 
L 41.890625 25.484375 
L 19.484375 3.078125 
L 13.71875 8.984375 
L 35.984375 31.296875 
L 13.71875 53.71875 
L 19.484375 59.625 
L 41.890625 37.203125 
L 64.3125 59.625 
z
" id="DejaVuSans-215"/>
      <path d="M 32.328125 0 
L 32.328125 17.140625 
L 1.265625 17.140625 
L 1.265625 25.203125 
L 33.9375 71.578125 
L 41.109375 71.578125 
L 41.109375 25.203125 
L 50.78125 25.203125 
L 50.78125 17.140625 
L 41.109375 17.140625 
L 41.109375 0 
z
M 32.328125 25.203125 
L 32.328125 57.46875 
L 9.90625 25.203125 
z
" id="ArialMT-52"/>
     </defs>
     <g transform="translate(367.592 275.534875)scale(0.088 -0.088)">
      <use transform="translate(0 0.201563)" xlink:href="#DejaVuSans-215"/>
      <use transform="translate(83.789062 0.201563)" xlink:href="#ArialMT-49"/>
      <use transform="translate(139.404297 0.201563)" xlink:href="#ArialMT-48"/>
      <use transform="translate(196.761875 69.895313)scale(0.7)" xlink:href="#ArialMT-52"/>
     </g>
    </g>
   </g>
   <g id="matplotlib.axis_6">
    <g id="ytick_6">
     <g id="line2d_63">
      <g>
       <use style="stroke:#000000;" x="54" xlink:href="#m064d78c83c" y="242.234126"/>
      </g>
     </g>
     <g id="line2d_64">
      <g>
       <use style="stroke:#000000;" x="388.8" xlink:href="#m27b5973fe0" y="242.234126"/>
      </g>
     </g>
     <g id="text_20">
      <!-- 0.5 -->
      <g transform="translate(38.268 245.383563)scale(0.088 -0.088)">
       <use xlink:href="#ArialMT-48"/>
       <use x="55.615234" xlink:href="#ArialMT-46"/>
       <use x="83.398438" xlink:href="#ArialMT-53"/>
      </g>
     </g>
    </g>
    <g id="ytick_7">
     <g id="line2d_65">
      <g>
       <use style="stroke:#000000;" x="54" xlink:href="#m064d78c83c" y="209.583298"/>
      </g>
     </g>
     <g id="line2d_66">
      <g>
       <use style="stroke:#000000;" x="388.8" xlink:href="#m27b5973fe0" y="209.583298"/>
      </g>
     </g>
     <g id="text_21">
      <!-- 0.6 -->
      <g transform="translate(38.268 212.732735)scale(0.088 -0.088)">
       <use xlink:href="#ArialMT-48"/>
       <use x="55.615234" xlink:href="#ArialMT-46"/>
       <use x="83.398438" xlink:href="#ArialMT-54"/>
      </g>
     </g>
    </g>
    <g id="text_22">
     <!-- $CR$ -->
     <defs>
      <path d="M 69.484375 67.28125 
L 67.484375 56.890625 
Q 62.796875 61.625 57.546875 63.921875 
Q 52.296875 66.21875 46.1875 66.21875 
Q 37.84375 66.21875 31.515625 62.203125 
Q 25.203125 58.203125 20.609375 50 
Q 17.671875 44.734375 16.125 38.84375 
Q 14.59375 32.953125 14.59375 27 
Q 14.59375 17.046875 19.75 11.8125 
Q 24.90625 6.59375 34.71875 6.59375 
Q 41.5 6.59375 47.75 8.765625 
Q 54 10.9375 59.90625 15.28125 
L 57.625 3.609375 
Q 51.8125 1.125 45.875 -0.140625 
Q 39.9375 -1.421875 33.984375 -1.421875 
Q 19.96875 -1.421875 12.078125 6.1875 
Q 4.203125 13.8125 4.203125 27.390625 
Q 4.203125 36.078125 7.203125 44.46875 
Q 10.203125 52.875 15.828125 59.8125 
Q 21.78125 67.1875 29.421875 70.703125 
Q 37.0625 74.21875 47.21875 74.21875 
Q 53.46875 74.21875 59.0625 72.484375 
Q 64.65625 70.75 69.484375 67.28125 
z
" id="DejaVuSans-Oblique-67"/>
      <path d="M 25.203125 64.796875 
L 20.21875 38.921875 
L 32.90625 38.921875 
Q 40.375 38.921875 44.984375 43.046875 
Q 49.609375 47.171875 49.609375 53.8125 
Q 49.609375 59.125 46.5 61.953125 
Q 43.40625 64.796875 37.59375 64.796875 
z
M 43.3125 35.015625 
Q 46.4375 34.28125 48.515625 31.390625 
Q 50.59375 28.515625 53.328125 19.921875 
L 59.515625 0 
L 49.125 0 
L 43.40625 18.703125 
Q 41.21875 25.921875 38.328125 28.359375 
Q 35.453125 30.8125 29.5 30.8125 
L 18.609375 30.8125 
L 12.59375 0 
L 2.6875 0 
L 16.890625 72.90625 
L 39.109375 72.90625 
Q 49.21875 72.90625 54.609375 68.328125 
Q 60.015625 63.765625 60.015625 55.171875 
Q 60.015625 47.5625 55.421875 41.984375 
Q 50.828125 36.421875 43.3125 35.015625 
z
" id="DejaVuSans-Oblique-82"/>
     </defs>
     <g transform="translate(32.36 222.48)rotate(-90)scale(0.096 -0.096)">
      <use transform="translate(0 0.78125)" xlink:href="#DejaVuSans-Oblique-67"/>
      <use transform="translate(69.824219 0.78125)" xlink:href="#DejaVuSans-Oblique-82"/>
     </g>
    </g>
   </g>
   <g id="patch_15">
    <path d="M 54 252 
L 54 179.52 
" style="fill:none;stroke:#000000;stroke-linecap:square;stroke-linejoin:miter;"/>
   </g>
   <g id="patch_16">
    <path d="M 388.8 252 
L 388.8 179.52 
" style="fill:none;stroke:#000000;stroke-linecap:square;stroke-linejoin:miter;"/>
   </g>
   <g id="patch_17">
    <path d="M 54 252 
L 388.8 252 
" style="fill:none;stroke:#000000;stroke-linecap:square;stroke-linejoin:miter;"/>
   </g>
   <g id="patch_18">
    <path d="M 54 179.52 
L 388.8 179.52 
" style="fill:none;stroke:#000000;stroke-linecap:square;stroke-linejoin:miter;"/>
   </g>
  </g>
 </g>
 <defs>
  <clipPath id="p935870acb1">
   <rect height="72.48" width="334.8" x="54" y="34.56"/>
  </clipPath>
  <clipPath id="pa446e0209e">
   <rect height="72.48" width="334.8" x="54" y="107.04"/>
  </clipPath>
  <clipPath id="pc6aa69be69">
   <rect height="72.48" width="334.8" x="54" y="179.52"/>
  </clipPath>
 </defs>
</svg>
