<?xml version="1.0" encoding="utf-8" standalone="no"?>
<!DOCTYPE svg PUBLIC "-//W3C//DTD SVG 1.1//EN"
  "http://www.w3.org/Graphics/SVG/1.1/DTD/svg11.dtd">
<!-- Created with matplotlib (https://matplotlib.org/) -->
<svg height="288pt" version="1.1" viewBox="0 0 432 288" width="432pt" xmlns="http://www.w3.org/2000/svg" xmlns:xlink="http://www.w3.org/1999/xlink">
 <defs>
  <style type="text/css">
*{stroke-linecap:butt;stroke-linejoin:round;}
  </style>
 </defs>
 <g id="figure_1">
  <g id="patch_1">
   <path d="M 0 288 
L 432 288 
L 432 0 
L 0 0 
z
" style="fill:#ffffff;"/>
  </g>
  <g id="axes_1">
   <g id="patch_2">
    <path d="M 54 107.04 
L 388.8 107.04 
L 388.8 34.56 
L 54 34.56 
z
" style="fill:#ffffff;"/>
   </g>
   <g id="line2d_1">
    <path clip-path="url(#pc188758ee5)" d="M 69.218182 46.71401 
L 71.75878 46.71401 
L 72.182213 50.026772 
L 75.569677 50.026772 
L 75.99311 52.541257 
L 78.957141 52.541257 
L 79.380574 54.570615 
L 81.921172 54.570615 
L 82.344605 56.583233 
L 82.768038 57.797175 
L 84.038337 57.84553 
L 86.578935 57.933271 
L 87.002368 58.796676 
L 87.425801 61.914771 
L 88.272667 61.914771 
L 89.119533 68.537072 
L 95.047594 68.537072 
L 95.471027 72.780439 
L 96.741326 72.780439 
L 97.164759 73.776569 
L 97.588192 76.137821 
L 100.552223 76.137821 
L 100.975656 76.377706 
L 101.399089 79.978072 
L 101.822522 81.761318 
L 103.939687 81.812449 
L 104.36312 82.08935 
L 104.786553 82.08935 
L 105.209986 82.734993 
L 105.633419 82.734993 
L 106.056852 83.14233 
L 109.020883 83.164042 
L 109.444316 83.7013 
L 109.867749 85.07552 
L 110.291182 88.458011 
L 111.138048 88.458011 
L 111.561481 89.19942 
L 113.678646 89.19942 
L 114.102079 91.692128 
L 115.372378 91.692128 
L 115.795811 92.741779 
L 116.219244 92.741779 
L 116.642677 94.351534 
L 117.489543 94.367752 
L 117.912976 94.999564 
L 120.877007 94.999564 
L 121.30044 95.523488 
L 121.723873 96.267985 
L 122.147306 96.406693 
L 122.994172 96.406693 
L 123.417605 96.854038 
L 124.264471 96.887324 
L 124.687904 97.78865 
L 125.111337 97.78865 
L 125.53477 99.640289 
L 126.805069 99.640289 
L 127.228502 99.811562 
L 129.7691 99.811562 
L 130.192533 100.276324 
L 132.309698 100.276324 
L 132.733131 100.546026 
L 134.426863 101.060608 
L 134.850296 101.060608 
L 135.273729 101.435959 
L 136.544028 101.794846 
L 136.967461 101.794846 
L 137.390894 101.935601 
L 137.814327 101.935601 
L 138.23776 102.602641 
L 139.508059 102.602641 
L 139.931492 102.767602 
L 140.354925 102.767602 
L 140.778358 103.132231 
L 143.318956 103.185123 
L 143.742389 103.307018 
L 148.823585 103.400148 
L 150.093884 103.45495 
L 153.904781 103.504863 
L 154.751647 103.586341 
L 164.490606 103.692734 
L 171.265533 103.722788 
L 373.581818 103.745455 
L 373.581818 103.745455 
" style="fill:none;stroke:#1ac938;stroke-linecap:round;stroke-width:1.2;"/>
   </g>
   <g id="line2d_2">
    <path clip-path="url(#pc188758ee5)" d="M 69.218182 37.854545 
L 69.641615 37.854545 
L 70.065048 39.572678 
L 70.488481 39.572678 
L 70.911914 40.886766 
L 71.335347 41.313147 
L 71.75878 44.746588 
L 72.605646 44.746588 
L 73.029079 46.418654 
L 76.416543 46.418654 
L 76.839976 47.572534 
L 78.533708 47.572534 
L 78.957141 53.806197 
L 83.614904 53.806197 
L 84.038337 56.236276 
L 85.732069 56.236276 
L 86.155502 61.061062 
L 92.506997 61.061062 
L 92.93043 64.360385 
L 94.624161 64.360385 
L 95.047594 64.524038 
L 96.741326 64.524038 
L 97.164759 65.642174 
L 99.281924 65.642174 
L 99.705357 70.05389 
L 101.399089 70.05389 
L 101.822522 72.063421 
L 102.669388 72.063421 
L 103.092821 72.463052 
L 105.633419 72.463052 
L 106.480285 75.802292 
L 109.444316 75.802292 
L 109.867749 79.032594 
L 111.138048 79.032594 
L 111.561481 81.180846 
L 113.255213 81.180846 
L 113.678646 82.394567 
L 114.102079 83.249942 
L 116.219244 83.249942 
L 116.642677 84.099801 
L 117.06611 85.586978 
L 117.489543 87.721006 
L 117.912976 88.85666 
L 118.336409 88.85666 
L 118.759842 91.814442 
L 122.994172 91.814442 
L 123.417605 93.823129 
L 124.687904 93.823129 
L 125.111337 95.269911 
L 125.53477 95.269911 
L 125.958203 96.038511 
L 126.805069 96.038511 
L 127.228502 96.705347 
L 128.075368 97.391594 
L 128.498801 97.391594 
L 128.922234 97.744784 
L 129.345667 98.610033 
L 131.039399 98.610033 
L 131.462832 99.091903 
L 131.886265 99.136553 
L 132.309698 99.40236 
L 132.733131 99.40236 
L 133.156564 99.575361 
L 133.579997 99.575361 
L 134.00343 100.440527 
L 135.273729 100.523451 
L 135.697162 101.218057 
L 136.544028 101.218057 
L 136.967461 101.729268 
L 137.814327 101.729268 
L 138.23776 102.161562 
L 139.508059 102.161562 
L 139.931492 102.320348 
L 141.625224 102.416675 
L 142.895523 102.812862 
L 144.589255 102.812862 
L 145.012688 102.969059 
L 151.364183 103.455144 
L 152.634482 103.509252 
L 156.868812 103.610825 
L 165.337472 103.710659 
L 283.797086 103.745455 
L 283.797086 103.745455 
" style="fill:none;stroke:#e8000b;stroke-linecap:round;stroke-width:1.2;"/>
   </g>
   <g id="matplotlib.axis_1">
    <g id="xtick_1">
     <g id="line2d_3">
      <defs>
       <path d="M 0 0 
L 0 -3 
" id="m588bf6f124" style="stroke:#000000;"/>
      </defs>
      <g>
       <use style="stroke:#000000;" x="68.371316" xlink:href="#m588bf6f124" y="107.04"/>
      </g>
     </g>
     <g id="line2d_4">
      <defs>
       <path d="M 0 0 
L 0 3 
" id="mc8d58e07b8" style="stroke:#000000;"/>
      </defs>
      <g>
       <use style="stroke:#000000;" x="68.371316" xlink:href="#mc8d58e07b8" y="34.56"/>
      </g>
     </g>
    </g>
    <g id="xtick_2">
     <g id="line2d_5">
      <g>
       <use style="stroke:#000000;" x="110.714615" xlink:href="#m588bf6f124" y="107.04"/>
      </g>
     </g>
     <g id="line2d_6">
      <g>
       <use style="stroke:#000000;" x="110.714615" xlink:href="#mc8d58e07b8" y="34.56"/>
      </g>
     </g>
    </g>
    <g id="xtick_3">
     <g id="line2d_7">
      <g>
       <use style="stroke:#000000;" x="153.057915" xlink:href="#m588bf6f124" y="107.04"/>
      </g>
     </g>
     <g id="line2d_8">
      <g>
       <use style="stroke:#000000;" x="153.057915" xlink:href="#mc8d58e07b8" y="34.56"/>
      </g>
     </g>
    </g>
    <g id="xtick_4">
     <g id="line2d_9">
      <g>
       <use style="stroke:#000000;" x="195.401214" xlink:href="#m588bf6f124" y="107.04"/>
      </g>
     </g>
     <g id="line2d_10">
      <g>
       <use style="stroke:#000000;" x="195.401214" xlink:href="#mc8d58e07b8" y="34.56"/>
      </g>
     </g>
    </g>
    <g id="xtick_5">
     <g id="line2d_11">
      <g>
       <use style="stroke:#000000;" x="237.744514" xlink:href="#m588bf6f124" y="107.04"/>
      </g>
     </g>
     <g id="line2d_12">
      <g>
       <use style="stroke:#000000;" x="237.744514" xlink:href="#mc8d58e07b8" y="34.56"/>
      </g>
     </g>
    </g>
    <g id="xtick_6">
     <g id="line2d_13">
      <g>
       <use style="stroke:#000000;" x="280.087813" xlink:href="#m588bf6f124" y="107.04"/>
      </g>
     </g>
     <g id="line2d_14">
      <g>
       <use style="stroke:#000000;" x="280.087813" xlink:href="#mc8d58e07b8" y="34.56"/>
      </g>
     </g>
    </g>
    <g id="xtick_7">
     <g id="line2d_15">
      <g>
       <use style="stroke:#000000;" x="322.431112" xlink:href="#m588bf6f124" y="107.04"/>
      </g>
     </g>
     <g id="line2d_16">
      <g>
       <use style="stroke:#000000;" x="322.431112" xlink:href="#mc8d58e07b8" y="34.56"/>
      </g>
     </g>
    </g>
    <g id="xtick_8">
     <g id="line2d_17">
      <g>
       <use style="stroke:#000000;" x="364.774412" xlink:href="#m588bf6f124" y="107.04"/>
      </g>
     </g>
     <g id="line2d_18">
      <g>
       <use style="stroke:#000000;" x="364.774412" xlink:href="#mc8d58e07b8" y="34.56"/>
      </g>
     </g>
    </g>
   </g>
   <g id="matplotlib.axis_2">
    <g id="ytick_1">
     <g id="line2d_19">
      <defs>
       <path d="M 0 0 
L 3 0 
" id="m333a544417" style="stroke:#000000;"/>
      </defs>
      <g>
       <use style="stroke:#000000;" x="54" xlink:href="#m333a544417" y="106.360944"/>
      </g>
     </g>
     <g id="line2d_20">
      <defs>
       <path d="M 0 0 
L -3 0 
" id="m176fcd08b3" style="stroke:#000000;"/>
      </defs>
      <g>
       <use style="stroke:#000000;" x="388.8" xlink:href="#m176fcd08b3" y="106.360944"/>
      </g>
     </g>
     <g id="text_1">
      <!-- −1200 -->
      <defs>
       <path d="M 52.828125 31.203125 
L 5.5625 31.203125 
L 5.5625 39.40625 
L 52.828125 39.40625 
z
" id="ArialMT-8722"/>
       <path d="M 37.25 0 
L 28.46875 0 
L 28.46875 56 
Q 25.296875 52.984375 20.140625 49.953125 
Q 14.984375 46.921875 10.890625 45.40625 
L 10.890625 53.90625 
Q 18.265625 57.375 23.78125 62.296875 
Q 29.296875 67.234375 31.59375 71.875 
L 37.25 71.875 
z
" id="ArialMT-49"/>
       <path d="M 50.34375 8.453125 
L 50.34375 0 
L 3.03125 0 
Q 2.9375 3.171875 4.046875 6.109375 
Q 5.859375 10.9375 9.828125 15.625 
Q 13.8125 20.3125 21.34375 26.46875 
Q 33.015625 36.03125 37.109375 41.625 
Q 41.21875 47.21875 41.21875 52.203125 
Q 41.21875 57.421875 37.46875 61 
Q 33.734375 64.59375 27.734375 64.59375 
Q 21.390625 64.59375 17.578125 60.78125 
Q 13.765625 56.984375 13.71875 50.25 
L 4.6875 51.171875 
Q 5.609375 61.28125 11.65625 66.578125 
Q 17.71875 71.875 27.9375 71.875 
Q 38.234375 71.875 44.234375 66.15625 
Q 50.25 60.453125 50.25 52 
Q 50.25 47.703125 48.484375 43.546875 
Q 46.734375 39.40625 42.65625 34.8125 
Q 38.578125 30.21875 29.109375 22.21875 
Q 21.1875 15.578125 18.9375 13.203125 
Q 16.703125 10.84375 15.234375 8.453125 
z
" id="ArialMT-50"/>
       <path d="M 4.15625 35.296875 
Q 4.15625 48 6.765625 55.734375 
Q 9.375 63.484375 14.515625 67.671875 
Q 19.671875 71.875 27.484375 71.875 
Q 33.25 71.875 37.59375 69.546875 
Q 41.9375 67.234375 44.765625 62.859375 
Q 47.609375 58.5 49.21875 52.21875 
Q 50.828125 45.953125 50.828125 35.296875 
Q 50.828125 22.703125 48.234375 14.96875 
Q 45.65625 7.234375 40.5 3 
Q 35.359375 -1.21875 27.484375 -1.21875 
Q 17.140625 -1.21875 11.234375 6.203125 
Q 4.15625 15.140625 4.15625 35.296875 
z
M 13.1875 35.296875 
Q 13.1875 17.671875 17.3125 11.828125 
Q 21.4375 6 27.484375 6 
Q 33.546875 6 37.671875 11.859375 
Q 41.796875 17.71875 41.796875 35.296875 
Q 41.796875 52.984375 37.671875 58.78125 
Q 33.546875 64.59375 27.390625 64.59375 
Q 21.34375 64.59375 17.71875 59.46875 
Q 13.1875 52.9375 13.1875 35.296875 
z
" id="ArialMT-48"/>
      </defs>
      <g transform="translate(25.78575 109.510381)scale(0.088 -0.088)">
       <use xlink:href="#ArialMT-8722"/>
       <use x="58.398438" xlink:href="#ArialMT-49"/>
       <use x="114.013672" xlink:href="#ArialMT-50"/>
       <use x="169.628906" xlink:href="#ArialMT-48"/>
       <use x="225.244141" xlink:href="#ArialMT-48"/>
      </g>
     </g>
    </g>
    <g id="ytick_2">
     <g id="line2d_21">
      <g>
       <use style="stroke:#000000;" x="54" xlink:href="#m333a544417" y="85.449602"/>
      </g>
     </g>
     <g id="line2d_22">
      <g>
       <use style="stroke:#000000;" x="388.8" xlink:href="#m176fcd08b3" y="85.449602"/>
      </g>
     </g>
     <g id="text_2">
      <!-- −1000 -->
      <g transform="translate(25.78575 88.599039)scale(0.088 -0.088)">
       <use xlink:href="#ArialMT-8722"/>
       <use x="58.398438" xlink:href="#ArialMT-49"/>
       <use x="114.013672" xlink:href="#ArialMT-48"/>
       <use x="169.628906" xlink:href="#ArialMT-48"/>
       <use x="225.244141" xlink:href="#ArialMT-48"/>
      </g>
     </g>
    </g>
    <g id="ytick_3">
     <g id="line2d_23">
      <g>
       <use style="stroke:#000000;" x="54" xlink:href="#m333a544417" y="64.53826"/>
      </g>
     </g>
     <g id="line2d_24">
      <g>
       <use style="stroke:#000000;" x="388.8" xlink:href="#m176fcd08b3" y="64.53826"/>
      </g>
     </g>
     <g id="text_3">
      <!-- −800 -->
      <defs>
       <path d="M 17.671875 38.8125 
Q 12.203125 40.828125 9.5625 44.53125 
Q 6.9375 48.25 6.9375 53.421875 
Q 6.9375 61.234375 12.546875 66.546875 
Q 18.171875 71.875 27.484375 71.875 
Q 36.859375 71.875 42.578125 66.421875 
Q 48.296875 60.984375 48.296875 53.171875 
Q 48.296875 48.1875 45.671875 44.5 
Q 43.0625 40.828125 37.75 38.8125 
Q 44.34375 36.671875 47.78125 31.875 
Q 51.21875 27.09375 51.21875 20.453125 
Q 51.21875 11.28125 44.71875 5.03125 
Q 38.234375 -1.21875 27.640625 -1.21875 
Q 17.046875 -1.21875 10.546875 5.046875 
Q 4.046875 11.328125 4.046875 20.703125 
Q 4.046875 27.6875 7.59375 32.390625 
Q 11.140625 37.109375 17.671875 38.8125 
z
M 15.921875 53.71875 
Q 15.921875 48.640625 19.1875 45.40625 
Q 22.46875 42.1875 27.6875 42.1875 
Q 32.765625 42.1875 36.015625 45.375 
Q 39.265625 48.578125 39.265625 53.21875 
Q 39.265625 58.0625 35.90625 61.359375 
Q 32.5625 64.65625 27.59375 64.65625 
Q 22.5625 64.65625 19.234375 61.421875 
Q 15.921875 58.203125 15.921875 53.71875 
z
M 13.09375 20.65625 
Q 13.09375 16.890625 14.875 13.375 
Q 16.65625 9.859375 20.171875 7.921875 
Q 23.6875 6 27.734375 6 
Q 34.03125 6 38.125 10.046875 
Q 42.234375 14.109375 42.234375 20.359375 
Q 42.234375 26.703125 38.015625 30.859375 
Q 33.796875 35.015625 27.4375 35.015625 
Q 21.234375 35.015625 17.15625 30.90625 
Q 13.09375 26.8125 13.09375 20.65625 
z
" id="ArialMT-56"/>
      </defs>
      <g transform="translate(30.679375 67.687698)scale(0.088 -0.088)">
       <use xlink:href="#ArialMT-8722"/>
       <use x="58.398438" xlink:href="#ArialMT-56"/>
       <use x="114.013672" xlink:href="#ArialMT-48"/>
       <use x="169.628906" xlink:href="#ArialMT-48"/>
      </g>
     </g>
    </g>
    <g id="ytick_4">
     <g id="line2d_25">
      <g>
       <use style="stroke:#000000;" x="54" xlink:href="#m333a544417" y="43.626918"/>
      </g>
     </g>
     <g id="line2d_26">
      <g>
       <use style="stroke:#000000;" x="388.8" xlink:href="#m176fcd08b3" y="43.626918"/>
      </g>
     </g>
     <g id="text_4">
      <!-- −600 -->
      <defs>
       <path d="M 49.75 54.046875 
L 41.015625 53.375 
Q 39.84375 58.546875 37.703125 60.890625 
Q 34.125 64.65625 28.90625 64.65625 
Q 24.703125 64.65625 21.53125 62.3125 
Q 17.390625 59.28125 14.984375 53.46875 
Q 12.59375 47.65625 12.5 36.921875 
Q 15.671875 41.75 20.265625 44.09375 
Q 24.859375 46.4375 29.890625 46.4375 
Q 38.671875 46.4375 44.84375 39.96875 
Q 51.03125 33.5 51.03125 23.25 
Q 51.03125 16.5 48.125 10.71875 
Q 45.21875 4.9375 40.140625 1.859375 
Q 35.0625 -1.21875 28.609375 -1.21875 
Q 17.625 -1.21875 10.6875 6.859375 
Q 3.765625 14.9375 3.765625 33.5 
Q 3.765625 54.25 11.421875 63.671875 
Q 18.109375 71.875 29.4375 71.875 
Q 37.890625 71.875 43.28125 67.140625 
Q 48.6875 62.40625 49.75 54.046875 
z
M 13.875 23.1875 
Q 13.875 18.65625 15.796875 14.5 
Q 17.71875 10.359375 21.1875 8.171875 
Q 24.65625 6 28.46875 6 
Q 34.03125 6 38.03125 10.484375 
Q 42.046875 14.984375 42.046875 22.703125 
Q 42.046875 30.125 38.078125 34.390625 
Q 34.125 38.671875 28.125 38.671875 
Q 22.171875 38.671875 18.015625 34.390625 
Q 13.875 30.125 13.875 23.1875 
z
" id="ArialMT-54"/>
      </defs>
      <g transform="translate(30.679375 46.776356)scale(0.088 -0.088)">
       <use xlink:href="#ArialMT-8722"/>
       <use x="58.398438" xlink:href="#ArialMT-54"/>
       <use x="114.013672" xlink:href="#ArialMT-48"/>
       <use x="169.628906" xlink:href="#ArialMT-48"/>
      </g>
     </g>
    </g>
    <g id="text_5">
     <!-- fitness -->
     <defs>
      <path d="M 8.6875 0 
L 8.6875 45.015625 
L 0.921875 45.015625 
L 0.921875 51.859375 
L 8.6875 51.859375 
L 8.6875 57.375 
Q 8.6875 62.59375 9.625 65.140625 
Q 10.890625 68.5625 14.078125 70.671875 
Q 17.28125 72.796875 23.046875 72.796875 
Q 26.765625 72.796875 31.25 71.921875 
L 29.9375 64.265625 
Q 27.203125 64.75 24.75 64.75 
Q 20.75 64.75 19.09375 63.03125 
Q 17.4375 61.328125 17.4375 56.640625 
L 17.4375 51.859375 
L 27.546875 51.859375 
L 27.546875 45.015625 
L 17.4375 45.015625 
L 17.4375 0 
z
" id="ArialMT-102"/>
      <path d="M 6.640625 61.46875 
L 6.640625 71.578125 
L 15.4375 71.578125 
L 15.4375 61.46875 
z
M 6.640625 0 
L 6.640625 51.859375 
L 15.4375 51.859375 
L 15.4375 0 
z
" id="ArialMT-105"/>
      <path d="M 25.78125 7.859375 
L 27.046875 0.09375 
Q 23.34375 -0.6875 20.40625 -0.6875 
Q 15.625 -0.6875 12.984375 0.828125 
Q 10.359375 2.34375 9.28125 4.8125 
Q 8.203125 7.28125 8.203125 15.1875 
L 8.203125 45.015625 
L 1.765625 45.015625 
L 1.765625 51.859375 
L 8.203125 51.859375 
L 8.203125 64.703125 
L 16.9375 69.96875 
L 16.9375 51.859375 
L 25.78125 51.859375 
L 25.78125 45.015625 
L 16.9375 45.015625 
L 16.9375 14.703125 
Q 16.9375 10.9375 17.40625 9.859375 
Q 17.875 8.796875 18.921875 8.15625 
Q 19.96875 7.515625 21.921875 7.515625 
Q 23.390625 7.515625 25.78125 7.859375 
z
" id="ArialMT-116"/>
      <path d="M 6.59375 0 
L 6.59375 51.859375 
L 14.5 51.859375 
L 14.5 44.484375 
Q 20.21875 53.03125 31 53.03125 
Q 35.6875 53.03125 39.625 51.34375 
Q 43.5625 49.65625 45.515625 46.921875 
Q 47.46875 44.1875 48.25 40.4375 
Q 48.734375 37.984375 48.734375 31.890625 
L 48.734375 0 
L 39.9375 0 
L 39.9375 31.546875 
Q 39.9375 36.921875 38.90625 39.578125 
Q 37.890625 42.234375 35.28125 43.8125 
Q 32.671875 45.40625 29.15625 45.40625 
Q 23.53125 45.40625 19.453125 41.84375 
Q 15.375 38.28125 15.375 28.328125 
L 15.375 0 
z
" id="ArialMT-110"/>
      <path d="M 42.09375 16.703125 
L 51.171875 15.578125 
Q 49.03125 7.625 43.21875 3.21875 
Q 37.40625 -1.171875 28.375 -1.171875 
Q 17 -1.171875 10.328125 5.828125 
Q 3.65625 12.84375 3.65625 25.484375 
Q 3.65625 38.578125 10.390625 45.796875 
Q 17.140625 53.03125 27.875 53.03125 
Q 38.28125 53.03125 44.875 45.953125 
Q 51.46875 38.875 51.46875 26.03125 
Q 51.46875 25.25 51.421875 23.6875 
L 12.75 23.6875 
Q 13.234375 15.140625 17.578125 10.59375 
Q 21.921875 6.0625 28.421875 6.0625 
Q 33.25 6.0625 36.671875 8.59375 
Q 40.09375 11.140625 42.09375 16.703125 
z
M 13.234375 30.90625 
L 42.1875 30.90625 
Q 41.609375 37.453125 38.875 40.71875 
Q 34.671875 45.796875 27.984375 45.796875 
Q 21.921875 45.796875 17.796875 41.75 
Q 13.671875 37.703125 13.234375 30.90625 
z
" id="ArialMT-101"/>
      <path d="M 3.078125 15.484375 
L 11.765625 16.84375 
Q 12.5 11.625 15.84375 8.84375 
Q 19.1875 6.0625 25.203125 6.0625 
Q 31.25 6.0625 34.171875 8.515625 
Q 37.109375 10.984375 37.109375 14.3125 
Q 37.109375 17.28125 34.515625 19 
Q 32.71875 20.171875 25.53125 21.96875 
Q 15.875 24.421875 12.140625 26.203125 
Q 8.40625 27.984375 6.46875 31.125 
Q 4.546875 34.28125 4.546875 38.09375 
Q 4.546875 41.546875 6.125 44.5 
Q 7.71875 47.46875 10.453125 49.421875 
Q 12.5 50.921875 16.03125 51.96875 
Q 19.578125 53.03125 23.640625 53.03125 
Q 29.734375 53.03125 34.34375 51.265625 
Q 38.96875 49.515625 41.15625 46.5 
Q 43.359375 43.5 44.1875 38.484375 
L 35.59375 37.3125 
Q 35.015625 41.3125 32.203125 43.546875 
Q 29.390625 45.796875 24.265625 45.796875 
Q 18.21875 45.796875 15.625 43.796875 
Q 13.03125 41.796875 13.03125 39.109375 
Q 13.03125 37.40625 14.109375 36.03125 
Q 15.1875 34.625 17.484375 33.6875 
Q 18.796875 33.203125 25.25 31.453125 
Q 34.578125 28.953125 38.25 27.359375 
Q 41.9375 25.78125 44.03125 22.75 
Q 46.140625 19.734375 46.140625 15.234375 
Q 46.140625 10.84375 43.578125 6.953125 
Q 41.015625 3.078125 36.171875 0.953125 
Q 31.34375 -1.171875 25.25 -1.171875 
Q 15.140625 -1.171875 9.84375 3.03125 
Q 4.546875 7.234375 3.078125 15.484375 
z
" id="ArialMT-115"/>
     </defs>
     <g transform="translate(19.87775 84.672)rotate(-90)scale(0.096 -0.096)">
      <use xlink:href="#ArialMT-102"/>
      <use x="27.783203" xlink:href="#ArialMT-105"/>
      <use x="50" xlink:href="#ArialMT-116"/>
      <use x="77.783203" xlink:href="#ArialMT-110"/>
      <use x="133.398438" xlink:href="#ArialMT-101"/>
      <use x="189.013672" xlink:href="#ArialMT-115"/>
      <use x="239.013672" xlink:href="#ArialMT-115"/>
     </g>
    </g>
   </g>
   <g id="patch_3">
    <path d="M 54 107.04 
L 54 34.56 
" style="fill:none;stroke:#000000;stroke-linecap:square;stroke-linejoin:miter;"/>
   </g>
   <g id="patch_4">
    <path d="M 388.8 107.04 
L 388.8 34.56 
" style="fill:none;stroke:#000000;stroke-linecap:square;stroke-linejoin:miter;"/>
   </g>
   <g id="patch_5">
    <path d="M 54 107.04 
L 388.8 107.04 
" style="fill:none;stroke:#000000;stroke-linecap:square;stroke-linejoin:miter;"/>
   </g>
   <g id="patch_6">
    <path d="M 54 34.56 
L 388.8 34.56 
" style="fill:none;stroke:#000000;stroke-linecap:square;stroke-linejoin:miter;"/>
   </g>
   <g id="legend_1">
    <g id="patch_7">
     <path d="M 343.075125 68.49575 
L 384.64 68.49575 
Q 386.4 68.49575 386.4 66.73575 
L 386.4 42.72 
Q 386.4 40.96 384.64 40.96 
L 343.075125 40.96 
Q 341.315125 40.96 341.315125 42.72 
L 341.315125 66.73575 
Q 341.315125 68.49575 343.075125 68.49575 
z
" style="fill:#4c4c4c;opacity:0.5;stroke:#4c4c4c;stroke-linejoin:miter;stroke-width:0.8;"/>
    </g>
    <g id="patch_8">
     <path d="M 341.075125 66.49575 
L 382.64 66.49575 
Q 384.4 66.49575 384.4 64.73575 
L 384.4 40.72 
Q 384.4 38.96 382.64 38.96 
L 341.075125 38.96 
Q 339.315125 38.96 339.315125 40.72 
L 339.315125 64.73575 
Q 339.315125 66.49575 341.075125 66.49575 
z
" style="fill:#ffffff;stroke:#000000;stroke-linejoin:miter;stroke-width:0.8;"/>
    </g>
    <g id="line2d_27">
     <path d="M 342.835125 45.698875 
L 349.875125 45.698875 
" style="fill:none;stroke:#e8000b;stroke-linecap:round;stroke-width:1.2;"/>
    </g>
    <g id="line2d_28"/>
    <g id="text_6">
     <!-- PEDE -->
     <defs>
      <path d="M 7.71875 0 
L 7.71875 71.578125 
L 34.71875 71.578125 
Q 41.84375 71.578125 45.609375 70.90625 
Q 50.875 70.015625 54.4375 67.546875 
Q 58.015625 65.09375 60.1875 60.640625 
Q 62.359375 56.203125 62.359375 50.875 
Q 62.359375 41.75 56.546875 35.421875 
Q 50.734375 29.109375 35.546875 29.109375 
L 17.1875 29.109375 
L 17.1875 0 
z
M 17.1875 37.546875 
L 35.6875 37.546875 
Q 44.875 37.546875 48.734375 40.96875 
Q 52.59375 44.390625 52.59375 50.59375 
Q 52.59375 55.078125 50.3125 58.265625 
Q 48.046875 61.46875 44.34375 62.5 
Q 41.9375 63.140625 35.5 63.140625 
L 17.1875 63.140625 
z
" id="ArialMT-80"/>
      <path d="M 7.90625 0 
L 7.90625 71.578125 
L 59.671875 71.578125 
L 59.671875 63.140625 
L 17.390625 63.140625 
L 17.390625 41.21875 
L 56.984375 41.21875 
L 56.984375 32.8125 
L 17.390625 32.8125 
L 17.390625 8.453125 
L 61.328125 8.453125 
L 61.328125 0 
z
" id="ArialMT-69"/>
      <path d="M 7.71875 0 
L 7.71875 71.578125 
L 32.375 71.578125 
Q 40.71875 71.578125 45.125 70.5625 
Q 51.265625 69.140625 55.609375 65.4375 
Q 61.28125 60.640625 64.078125 53.1875 
Q 66.890625 45.75 66.890625 36.1875 
Q 66.890625 28.03125 64.984375 21.734375 
Q 63.09375 15.4375 60.109375 11.296875 
Q 57.125 7.171875 53.578125 4.796875 
Q 50.046875 2.4375 45.046875 1.21875 
Q 40.046875 0 33.546875 0 
z
M 17.1875 8.453125 
L 32.46875 8.453125 
Q 39.546875 8.453125 43.578125 9.765625 
Q 47.609375 11.078125 50 13.484375 
Q 53.375 16.84375 55.25 22.53125 
Q 57.125 28.21875 57.125 36.328125 
Q 57.125 47.5625 53.4375 53.59375 
Q 49.75 59.625 44.484375 61.671875 
Q 40.671875 63.140625 32.234375 63.140625 
L 17.1875 63.140625 
z
" id="ArialMT-68"/>
     </defs>
     <g transform="translate(356.915125 48.778875)scale(0.088 -0.088)">
      <use xlink:href="#ArialMT-80"/>
      <use x="66.699219" xlink:href="#ArialMT-69"/>
      <use x="133.398438" xlink:href="#ArialMT-68"/>
      <use x="205.615234" xlink:href="#ArialMT-69"/>
     </g>
    </g>
    <g id="line2d_29">
     <path d="M 342.835125 58.14675 
L 349.875125 58.14675 
" style="fill:none;stroke:#1ac938;stroke-linecap:round;stroke-width:1.2;"/>
    </g>
    <g id="line2d_30"/>
    <g id="text_7">
     <!-- JADE -->
     <defs>
      <path d="M 2.875 20.3125 
L 11.421875 21.484375 
Q 11.765625 13.28125 14.5 10.25 
Q 17.234375 7.234375 22.078125 7.234375 
Q 25.640625 7.234375 28.21875 8.859375 
Q 30.8125 10.5 31.78125 13.296875 
Q 32.765625 16.109375 32.765625 22.265625 
L 32.765625 71.578125 
L 42.234375 71.578125 
L 42.234375 22.796875 
Q 42.234375 13.8125 40.0625 8.875 
Q 37.890625 3.953125 33.171875 1.359375 
Q 28.46875 -1.21875 22.125 -1.21875 
Q 12.703125 -1.21875 7.6875 4.203125 
Q 2.6875 9.625 2.875 20.3125 
z
" id="ArialMT-74"/>
      <path d="M -0.140625 0 
L 27.34375 71.578125 
L 37.546875 71.578125 
L 66.84375 0 
L 56.0625 0 
L 47.703125 21.6875 
L 17.78125 21.6875 
L 9.90625 0 
z
M 20.515625 29.390625 
L 44.78125 29.390625 
L 37.3125 49.21875 
Q 33.890625 58.25 32.234375 64.0625 
Q 30.859375 57.171875 28.375 50.390625 
z
" id="ArialMT-65"/>
     </defs>
     <g transform="translate(356.915125 61.22675)scale(0.088 -0.088)">
      <use xlink:href="#ArialMT-74"/>
      <use x="50" xlink:href="#ArialMT-65"/>
      <use x="116.699219" xlink:href="#ArialMT-68"/>
      <use x="188.916016" xlink:href="#ArialMT-69"/>
     </g>
    </g>
   </g>
  </g>
  <g id="axes_2">
   <g id="patch_9">
    <path d="M 54 179.52 
L 388.8 179.52 
L 388.8 107.04 
L 54 107.04 
z
" style="fill:#ffffff;"/>
   </g>
   <g id="line2d_31">
    <path clip-path="url(#pb2b3a26e15)" d="M 69.218182 165.240145 
L 69.641615 166.665656 
L 70.065048 168.698124 
L 70.488481 166.338667 
L 70.911914 159.558458 
L 71.335347 174.117227 
L 71.75878 158.982078 
L 72.182213 161.513495 
L 72.605646 162.690231 
L 73.029079 167.046661 
L 73.452512 170.012431 
L 73.875945 158.311057 
L 74.299378 149.978803 
L 74.722811 163.292263 
L 75.146244 152.050921 
L 75.569677 154.984365 
L 75.99311 153.543447 
L 76.416543 167.152056 
L 77.263409 156.081896 
L 77.686842 155.445867 
L 78.110275 161.935896 
L 78.533708 155.090048 
L 78.957141 164.7766 
L 79.380574 159.64745 
L 79.804007 157.031142 
L 80.22744 155.240197 
L 80.650873 171.518935 
L 81.074306 154.709357 
L 81.497739 159.192199 
L 82.344605 155.316048 
L 82.768038 156.078185 
L 83.191471 164.824124 
L 83.614904 158.191898 
L 84.038337 160.650366 
L 84.46177 159.673724 
L 84.885203 157.832695 
L 85.308636 161.80096 
L 85.732069 168.945496 
L 86.155502 166.27356 
L 86.578935 148.730233 
L 87.002368 147.884124 
L 87.425801 158.184735 
L 87.849234 151.58319 
L 88.272667 156.113693 
L 88.6961 164.088543 
L 89.119533 157.661793 
L 89.542966 159.132336 
L 89.966399 169.122533 
L 90.389832 164.974778 
L 90.813265 168.58893 
L 91.236698 160.558589 
L 91.660131 160.632962 
L 92.083564 161.527144 
L 92.506997 164.320498 
L 92.93043 153.387228 
L 93.353862 169.042143 
L 93.777295 167.502109 
L 94.624161 150.322735 
L 95.047594 160.424719 
L 95.471027 164.231767 
L 95.89446 164.6336 
L 96.317893 156.511941 
L 96.741326 151.435566 
L 97.164759 159.031235 
L 97.588192 160.805082 
L 98.011625 155.292335 
L 98.435058 143.355292 
L 98.858491 158.256907 
L 99.281924 152.401607 
L 99.705357 149.94805 
L 100.12879 152.074012 
L 100.552223 148.509807 
L 100.975656 154.0998 
L 101.399089 155.129047 
L 101.822522 159.231051 
L 102.245955 168.376946 
L 102.669388 153.27898 
L 103.092821 151.969037 
L 103.516254 156.983955 
L 103.939687 150.447828 
L 104.36312 155.566853 
L 104.786553 151.150913 
L 105.209986 150.405407 
L 105.633419 149.97345 
L 106.056852 151.36628 
L 106.480285 149.64565 
L 106.903718 151.041129 
L 107.327151 160.45934 
L 107.750584 156.209044 
L 108.174017 150.079798 
L 108.59745 146.09205 
L 109.020883 146.274012 
L 109.444316 146.790656 
L 109.867749 150.576769 
L 110.291182 144.258885 
L 110.714615 152.713938 
L 111.561481 146.683179 
L 111.984914 150.170832 
L 112.408347 145.359357 
L 112.83178 147.585284 
L 113.255213 150.572006 
L 113.678646 149.409075 
L 114.102079 146.224958 
L 114.525512 151.014201 
L 114.948945 137.039251 
L 115.372378 137.158635 
L 115.795811 140.340697 
L 116.219244 147.555189 
L 116.642677 151.136713 
L 117.06611 144.948605 
L 117.489543 147.243545 
L 117.912976 142.400933 
L 118.336409 145.977902 
L 118.759842 144.761357 
L 119.606708 137.42874 
L 120.030141 144.020701 
L 120.453574 144.202639 
L 120.877007 140.729336 
L 121.30044 143.428529 
L 121.723873 136.264021 
L 122.147306 145.642133 
L 122.570739 142.539338 
L 122.994172 149.726619 
L 123.417605 148.896821 
L 123.841038 142.846327 
L 124.264471 133.181149 
L 124.687904 148.469287 
L 125.111337 137.505977 
L 125.53477 149.211389 
L 125.958203 136.268594 
L 126.381636 141.106624 
L 126.805069 140.020333 
L 127.228502 141.827558 
L 127.651935 139.104333 
L 128.075368 143.815907 
L 128.498801 142.41244 
L 128.922234 134.536541 
L 129.345667 148.295198 
L 129.7691 137.928181 
L 130.192533 134.826923 
L 130.615966 135.031751 
L 131.039399 150.627882 
L 131.462832 148.653072 
L 131.886265 143.257349 
L 132.309698 134.78117 
L 132.733131 143.668974 
L 133.156564 134.039398 
L 133.579997 142.830518 
L 134.00343 145.154123 
L 134.426863 143.695455 
L 134.850296 130.140668 
L 135.273729 135.159977 
L 135.697162 145.224054 
L 136.120595 133.209233 
L 136.544028 140.256694 
L 136.967461 142.967442 
L 137.390894 131.785876 
L 137.814327 136.263078 
L 138.23776 142.104371 
L 138.661193 139.401016 
L 139.508059 129.494143 
L 139.931492 131.945443 
L 140.354925 141.087675 
L 140.778358 122.411461 
L 141.201791 117.637517 
L 141.625224 128.370118 
L 142.048657 129.448429 
L 142.47209 122.030097 
L 143.318956 115.168967 
L 144.165822 126.698531 
L 144.589255 127.473122 
L 145.012688 129.786863 
L 145.436121 121.955042 
L 145.859554 124.346837 
L 146.282987 125.049766 
L 146.70642 123.827434 
L 147.129853 134.676791 
L 147.553286 130.970066 
L 147.976719 134.234407 
L 148.400152 122.589019 
L 148.823585 118.971189 
L 149.247018 124.699874 
L 149.670451 119.948185 
L 150.093884 123.578293 
L 150.517317 116.051692 
L 150.94075 130.881193 
L 151.364183 130.326176 
L 151.787616 127.309132 
L 152.211049 122.040684 
L 152.634482 129.09076 
L 153.057915 124.483951 
L 153.481348 115.178009 
L 153.904781 119.254487 
L 154.328214 134.498222 
L 154.751647 117.042922 
L 155.17508 128.749682 
L 155.598513 128.09886 
L 156.021946 129.771308 
L 156.445379 114.01561 
L 156.868812 130.560948 
L 157.292245 115.565053 
L 157.715678 127.624991 
L 158.139111 128.143505 
L 158.562544 122.227415 
L 158.985977 128.760554 
L 159.40941 131.216519 
L 159.832843 127.420236 
L 160.256276 134.667547 
L 160.679709 121.495785 
L 161.950008 143.141262 
L 162.373441 121.399354 
L 162.796874 128.456188 
L 163.220307 120.453066 
L 163.64374 120.12247 
L 164.067173 119.235067 
L 164.490606 121.67751 
L 164.914039 135.229782 
L 165.337472 136.129143 
L 165.760905 126.000934 
L 166.184338 139.191515 
L 166.607771 130.078136 
L 167.031204 118.547444 
L 167.454637 126.68122 
L 167.87807 117.079272 
L 169.148368 137.858605 
L 169.571801 137.802818 
L 169.995234 119.062319 
L 170.418667 113.775618 
L 170.8421 113.80421 
L 171.688966 136.173151 
L 172.112399 136.591492 
L 172.535832 111.807138 
L 172.959265 125.616365 
L 173.382698 119.406519 
L 173.806131 122.488623 
L 174.229564 124.442385 
L 174.652997 128.752284 
L 175.07643 147.630712 
L 175.499863 123.141847 
L 175.923296 123.385734 
L 176.346729 130.148078 
L 177.193595 123.409523 
L 177.617028 127.627493 
L 178.040461 124.828553 
L 178.463894 134.239964 
L 178.887327 138.944008 
L 179.31076 122.198893 
L 179.734193 128.935972 
L 180.157626 122.278336 
L 180.581059 131.517921 
L 181.004492 130.878775 
L 181.427925 142.463869 
L 181.851358 132.756314 
L 182.274791 127.079703 
L 182.698224 125.73605 
L 183.121657 129.251125 
L 183.54509 128.874731 
L 183.968523 140.894619 
L 184.391956 135.106927 
L 184.815389 120.88982 
L 185.238822 141.47135 
L 185.662255 124.32432 
L 186.085688 131.179894 
L 186.509121 130.872137 
L 186.932554 132.912991 
L 187.355987 131.902764 
L 188.202853 120.5984 
L 188.626286 130.676026 
L 189.049719 135.048359 
L 189.473152 135.057055 
L 189.896585 128.980976 
L 190.320018 127.956427 
L 190.743451 127.85455 
L 191.166884 123.623162 
L 192.01375 138.997138 
L 192.437183 136.95498 
L 192.860616 130.434664 
L 193.284049 131.370654 
L 193.707482 130.978514 
L 194.130915 129.596657 
L 194.554348 125.609865 
L 194.977781 130.338369 
L 195.401214 130.710369 
L 195.824647 133.370758 
L 196.24808 118.756549 
L 196.671513 141.800492 
L 197.094946 133.824264 
L 197.518379 145.804794 
L 197.941812 127.323963 
L 198.365245 125.369699 
L 198.788678 127.175259 
L 199.212111 126.589272 
L 199.635544 123.140002 
L 200.058977 124.857862 
L 200.48241 130.432005 
L 200.905843 142.52388 
L 201.329276 136.366402 
L 201.752709 134.465552 
L 202.176142 125.11749 
L 202.599575 139.729475 
L 203.023008 130.655934 
L 203.446441 135.282938 
L 203.869874 117.82777 
L 204.293307 129.267697 
L 204.71674 136.580592 
L 205.140173 135.792414 
L 205.563606 129.206353 
L 205.987039 120.215928 
L 206.410472 128.760992 
L 206.833905 125.100685 
L 207.257338 128.312229 
L 207.680771 120.598036 
L 208.104204 136.505786 
L 208.527637 127.936258 
L 208.95107 127.52744 
L 209.374503 124.903849 
L 209.797936 131.098727 
L 210.221369 130.407984 
L 210.644802 145.450906 
L 211.068235 123.73162 
L 211.491668 132.470309 
L 211.915101 136.40349 
L 212.338534 132.561211 
L 212.761967 145.758218 
L 213.1854 127.517989 
L 213.608833 143.544969 
L 214.032266 128.622715 
L 214.455699 136.668847 
L 214.879132 140.844242 
L 215.302565 147.496517 
L 215.725998 138.124391 
L 216.149431 132.166355 
L 216.572864 138.707286 
L 216.996297 124.460978 
L 217.41973 134.833892 
L 217.843163 132.942398 
L 218.266596 129.65715 
L 218.690029 137.105941 
L 219.113462 135.00122 
L 219.536895 131.681939 
L 219.960328 131.307915 
L 220.383761 132.034739 
L 220.807194 127.561983 
L 221.230627 125.259613 
L 222.077493 139.257975 
L 222.500926 130.440873 
L 222.924359 131.387758 
L 223.347792 124.242597 
L 223.771225 129.644269 
L 224.194658 130.00015 
L 224.618091 133.485864 
L 225.041524 129.10926 
L 225.88839 138.802958 
L 226.311823 132.908617 
L 226.735256 125.13556 
L 227.158689 130.769093 
L 227.582122 129.090299 
L 228.005555 125.528259 
L 228.852421 139.57657 
L 229.275854 136.83539 
L 229.699287 123.240081 
L 230.12272 125.252863 
L 230.546153 141.330587 
L 230.969586 130.708258 
L 231.393019 132.580502 
L 231.816452 130.682475 
L 232.239885 131.404398 
L 232.663318 131.018747 
L 233.086751 135.140782 
L 233.510184 126.657294 
L 233.933617 130.503316 
L 234.35705 137.079504 
L 235.203916 123.897334 
L 235.627349 124.054901 
L 236.050782 126.063925 
L 236.474215 140.074118 
L 237.321081 117.719945 
L 237.744514 125.141451 
L 238.167947 123.102926 
L 238.59138 126.634832 
L 239.014813 119.428622 
L 239.438246 138.101612 
L 239.861679 130.418875 
L 240.285112 125.4059 
L 240.708545 133.963119 
L 241.131978 133.959027 
L 241.555411 137.220727 
L 241.978844 132.815257 
L 242.402277 133.143544 
L 242.82571 137.00111 
L 243.249143 139.496632 
L 243.672576 128.015868 
L 244.096008 124.537299 
L 244.519441 136.373835 
L 244.942874 127.359873 
L 245.366307 144.85342 
L 245.78974 132.832045 
L 246.213173 136.35915 
L 246.636606 145.028834 
L 247.060039 142.812773 
L 247.483472 132.994887 
L 247.906905 151.771216 
L 248.330338 138.091701 
L 248.753771 138.117178 
L 249.177204 138.699586 
L 249.600637 141.217423 
L 250.02407 135.634541 
L 250.447503 139.074218 
L 250.870936 143.506588 
L 251.294369 138.612717 
L 251.717802 138.138437 
L 252.141235 138.303044 
L 252.564668 138.178713 
L 252.988101 146.190588 
L 253.411534 138.205619 
L 253.834967 145.819852 
L 254.2584 147.041997 
L 254.681833 134.922271 
L 255.105266 137.812788 
L 255.528699 142.262483 
L 255.952132 131.199773 
L 256.375565 132.870673 
L 256.798998 141.217737 
L 257.222431 131.264011 
L 257.645864 132.075579 
L 258.069297 138.516484 
L 258.49273 129.822294 
L 258.916163 134.651364 
L 259.339596 131.494242 
L 259.763029 146.165801 
L 260.186462 144.259178 
L 260.609895 137.462172 
L 261.033328 141.553744 
L 261.880194 127.28397 
L 262.303627 136.436558 
L 262.72706 140.538884 
L 263.150493 138.062838 
L 263.573926 132.351162 
L 263.997359 141.491908 
L 264.420792 132.035273 
L 264.844225 132.10782 
L 265.267658 135.334998 
L 265.691091 146.816789 
L 266.114524 131.847774 
L 266.537957 139.558914 
L 266.96139 135.815236 
L 267.384823 146.160525 
L 267.808256 139.107436 
L 268.231689 136.837543 
L 268.655122 138.704565 
L 269.078555 125.710293 
L 269.501988 128.683809 
L 269.925421 135.03251 
L 270.348854 138.047381 
L 270.772287 132.685483 
L 271.19572 130.233533 
L 271.619153 136.813362 
L 272.466019 144.057695 
L 272.889452 138.181144 
L 273.312885 137.683285 
L 273.736318 146.880184 
L 274.159751 124.244299 
L 274.583184 136.019866 
L 275.006617 132.047197 
L 275.43005 139.295976 
L 275.853483 141.159519 
L 276.276916 141.109952 
L 276.700349 138.005638 
L 277.123782 144.449486 
L 277.547215 141.049394 
L 277.970648 135.137606 
L 278.817514 145.257698 
L 279.240947 135.401803 
L 279.66438 144.80871 
L 280.087813 135.744246 
L 280.511246 142.27916 
L 280.934679 138.961715 
L 281.358112 148.924192 
L 282.204978 139.640969 
L 282.628411 141.333112 
L 283.051844 133.792436 
L 283.475277 140.524883 
L 283.89871 139.902526 
L 284.322143 135.265278 
L 285.169009 145.61161 
L 285.592442 142.208024 
L 286.015875 134.949343 
L 286.439308 140.646182 
L 286.862741 148.237843 
L 287.286174 143.780849 
L 287.709607 133.134725 
L 288.13304 132.059945 
L 288.556473 132.38593 
L 288.979906 142.710633 
L 289.403339 131.998678 
L 289.826772 136.659082 
L 290.250205 146.519558 
L 290.673638 150.233515 
L 291.097071 141.567962 
L 291.520504 139.031915 
L 291.943937 130.061007 
L 292.36737 137.985695 
L 292.790803 138.644038 
L 293.214236 143.518212 
L 293.637669 137.299931 
L 294.484535 114.80813 
L 294.907968 131.762329 
L 295.331401 130.10856 
L 295.754834 131.959176 
L 296.178267 157.338008 
L 296.6017 125.47439 
L 297.025133 142.191081 
L 297.448566 139.437976 
L 297.871999 131.563856 
L 298.295432 132.829719 
L 298.718865 129.659015 
L 299.142298 133.430611 
L 299.565731 134.604096 
L 299.989164 133.769822 
L 300.412597 130.211311 
L 300.83603 142.367853 
L 301.259463 135.211813 
L 301.682896 131.082083 
L 302.106329 138.418691 
L 302.529762 137.474245 
L 302.953195 135.99445 
L 303.376628 142.349014 
L 303.800061 127.939894 
L 304.223494 141.572371 
L 304.646927 140.227261 
L 305.07036 141.983819 
L 305.493793 127.969703 
L 305.917226 146.239175 
L 306.340659 138.34443 
L 306.764092 141.824074 
L 307.187525 152.573084 
L 307.610958 134.130216 
L 308.034391 139.726906 
L 308.457824 140.582392 
L 308.881257 146.013151 
L 309.30469 141.980141 
L 309.728123 125.990158 
L 310.151556 145.705312 
L 310.574989 140.620949 
L 310.998422 136.951214 
L 311.421855 147.365209 
L 311.845288 141.219262 
L 312.692154 133.939585 
L 313.115587 131.784838 
L 313.53902 139.851515 
L 313.962453 138.241225 
L 314.385886 138.448065 
L 314.809319 139.655127 
L 315.232752 142.091265 
L 315.656185 140.18558 
L 316.079618 145.10937 
L 316.503051 145.668094 
L 316.926484 135.190941 
L 317.349917 134.156475 
L 317.77335 132.347608 
L 318.196783 133.116875 
L 318.620216 128.247193 
L 319.043649 135.709234 
L 319.467081 130.015362 
L 319.890514 119.82692 
L 320.313947 131.427967 
L 320.73738 128.219787 
L 321.160813 137.164288 
L 321.584246 130.081117 
L 322.007679 129.095612 
L 322.431112 139.6193 
L 322.854545 117.703109 
L 323.277978 146.631042 
L 323.701411 129.838312 
L 324.124844 120.289499 
L 324.548277 138.477221 
L 324.97171 130.374013 
L 325.395143 137.436418 
L 325.818576 134.709511 
L 326.242009 151.486669 
L 326.665442 142.589318 
L 327.088875 119.960001 
L 327.512308 139.558138 
L 327.935741 125.049332 
L 328.359174 139.68233 
L 328.782607 142.010198 
L 329.20604 138.38727 
L 329.629473 131.122137 
L 330.052906 138.755161 
L 330.476339 131.624531 
L 330.899772 134.439742 
L 331.323205 154.042199 
L 331.746638 132.856838 
L 332.170071 130.570172 
L 332.593504 131.817354 
L 333.016937 135.269071 
L 333.44037 125.197465 
L 333.863803 142.422149 
L 334.287236 138.629289 
L 334.710669 128.190468 
L 335.134102 131.279513 
L 335.557535 127.9291 
L 335.980968 120.735904 
L 336.404401 138.678827 
L 336.827834 146.362415 
L 337.251267 140.21861 
L 337.6747 128.00768 
L 338.098133 135.28608 
L 338.521566 133.624581 
L 338.944999 135.589023 
L 339.368432 126.284658 
L 339.791865 123.568797 
L 340.215298 116.120803 
L 340.638731 147.576414 
L 341.062164 128.804225 
L 341.485597 125.027715 
L 341.90903 137.78403 
L 342.332463 128.160967 
L 342.755896 128.631365 
L 343.602762 124.859966 
L 344.026195 115.75724 
L 344.449628 130.992922 
L 344.873061 135.184655 
L 345.296494 131.389905 
L 346.14336 118.121443 
L 346.566793 132.245178 
L 346.990226 124.346401 
L 347.413659 135.042579 
L 347.837092 111.77502 
L 348.260525 122.399525 
L 348.683958 119.396242 
L 349.107391 122.119725 
L 349.530824 119.900279 
L 349.954257 122.320242 
L 350.37769 118.970619 
L 350.801123 127.283055 
L 351.224556 112.524161 
L 351.647989 135.547419 
L 352.071422 129.4001 
L 352.494855 120.106217 
L 352.918288 131.200468 
L 353.341721 125.478544 
L 353.765154 127.556856 
L 354.188587 124.199717 
L 354.61202 130.917989 
L 355.035453 132.692737 
L 355.458886 133.365098 
L 355.882319 125.113194 
L 356.305752 123.370569 
L 356.729185 136.661711 
L 357.152618 120.984473 
L 357.576051 128.811923 
L 357.999484 119.305261 
L 358.422917 124.608894 
L 358.84635 135.89378 
L 359.269783 130.351096 
L 359.693216 142.651307 
L 360.116649 128.263633 
L 360.540082 133.645134 
L 360.963515 129.519598 
L 361.386948 131.669703 
L 361.810381 132.303538 
L 362.233814 125.804975 
L 362.657247 129.728122 
L 363.08068 122.310082 
L 363.504113 124.911464 
L 363.927546 131.007157 
L 364.350979 126.862563 
L 364.774412 134.02625 
L 365.197845 130.460609 
L 365.621278 135.780724 
L 366.044711 131.821884 
L 366.468144 131.835417 
L 366.891577 138.001878 
L 367.31501 123.937775 
L 367.738443 140.338612 
L 368.161876 121.560643 
L 368.585309 127.413969 
L 369.008742 143.393594 
L 369.432175 140.129036 
L 369.855608 133.572453 
L 370.279041 141.414991 
L 370.702474 130.387162 
L 371.125907 143.458971 
L 371.54934 135.576464 
L 371.972773 134.763457 
L 372.396206 138.457074 
L 372.819639 139.265598 
L 373.243072 134.888696 
L 373.581818 142.679596 
L 373.581818 142.679596 
" style="fill:none;stroke:#1ac938;stroke-linecap:round;stroke-width:1.2;"/>
   </g>
   <g id="line2d_32">
    <path clip-path="url(#pb2b3a26e15)" d="M 69.218182 153.579379 
L 70.911914 153.579379 
L 71.335347 166.758285 
L 73.029079 166.758285 
L 73.452512 167.945748 
L 75.146244 167.945748 
L 75.569677 162.837258 
L 77.263409 162.837258 
L 77.686842 163.065737 
L 79.380574 163.065737 
L 79.804007 161.90021 
L 81.497739 161.90021 
L 81.921172 171.091562 
L 83.614904 171.091562 
L 84.038337 176.225455 
L 85.732069 176.225455 
L 86.155502 168.612637 
L 87.849234 168.612637 
L 88.272667 171.838926 
L 89.966399 171.838926 
L 90.389832 173.684889 
L 92.083564 173.684889 
L 92.506997 164.993416 
L 94.200728 164.993416 
L 94.624161 161.132869 
L 96.317893 161.132869 
L 96.741326 164.361817 
L 98.435058 164.361817 
L 98.858491 158.033291 
L 100.552223 158.033291 
L 100.975656 159.707532 
L 102.669388 159.707532 
L 103.092821 161.970221 
L 104.786553 161.970221 
L 105.209986 162.354876 
L 106.903718 162.354876 
L 107.327151 167.852015 
L 109.020883 167.852015 
L 109.444316 167.564711 
L 111.138048 167.564711 
L 111.561481 168.623798 
L 113.255213 168.623798 
L 113.678646 170.131718 
L 115.372378 170.131718 
L 115.795811 168.267476 
L 117.489543 168.267476 
L 117.912976 162.514216 
L 119.606708 162.514216 
L 120.030141 168.584879 
L 121.723873 168.584879 
L 122.147306 159.650908 
L 123.841038 159.650908 
L 124.264471 156.794318 
L 125.958203 156.794318 
L 126.381636 157.831667 
L 128.075368 157.831667 
L 128.498801 145.588586 
L 130.192533 145.588586 
L 130.615966 145.240666 
L 132.309698 145.240666 
L 132.733131 149.624074 
L 134.426863 149.624074 
L 134.850296 147.248236 
L 136.544028 147.248236 
L 136.967461 143.879555 
L 138.661193 143.879555 
L 139.084626 136.373762 
L 140.778358 136.373762 
L 141.201791 142.967231 
L 142.895523 142.967231 
L 143.318956 144.356021 
L 145.012688 144.356021 
L 145.436121 150.924224 
L 147.129853 150.924224 
L 147.553286 144.008787 
L 149.247018 144.008787 
L 149.670451 137.212287 
L 151.364183 137.212287 
L 151.787616 138.780664 
L 153.481348 138.780664 
L 153.904781 137.957217 
L 155.598513 137.957217 
L 156.021946 131.225855 
L 157.715678 131.225855 
L 158.139111 129.065181 
L 159.832843 129.065181 
L 160.256276 118.724864 
L 161.950008 118.724864 
L 162.373441 114.58796 
L 164.067173 114.58796 
L 164.490606 118.847098 
L 166.184338 118.847098 
L 166.607771 113.169371 
L 168.301503 113.169371 
L 168.724935 123.470695 
L 170.418667 123.470695 
L 170.8421 127.279251 
L 172.535832 127.279251 
L 172.959265 116.602045 
L 174.652997 116.602045 
L 175.07643 120.089862 
L 176.770162 120.089862 
L 177.193595 110.334545 
L 178.887327 110.334545 
L 179.31076 112.085681 
L 181.004492 112.085681 
L 181.427925 127.724222 
L 183.121657 127.724222 
L 183.54509 129.999553 
L 185.238822 129.999553 
L 185.662255 137.985327 
L 187.355987 137.985327 
L 187.77942 111.514032 
L 189.473152 111.514032 
L 189.896585 112.592726 
L 191.590317 112.592726 
L 192.01375 117.300472 
L 193.707482 117.300472 
L 194.130915 125.130503 
L 195.824647 125.130503 
L 196.24808 127.304066 
L 197.941812 127.304066 
L 198.365245 120.667962 
L 200.058977 120.667962 
L 200.48241 124.557624 
L 202.176142 124.557624 
L 202.599575 126.465486 
L 204.293307 126.465486 
L 204.71674 132.869028 
L 206.410472 132.869028 
L 206.833905 133.042633 
L 208.527637 133.042633 
L 208.95107 138.447782 
L 210.644802 138.447782 
L 211.068235 140.178453 
L 212.761967 140.178453 
L 213.1854 150.987047 
L 214.879132 150.987047 
L 215.302565 145.371167 
L 216.996297 145.371167 
L 217.41973 148.133469 
L 219.113462 148.133469 
L 219.536895 141.427466 
L 221.230627 141.427466 
L 221.65406 147.867281 
L 223.347792 147.867281 
L 223.771225 149.095356 
L 225.464957 149.095356 
L 225.88839 156.034583 
L 227.582122 156.034583 
L 228.005555 162.407693 
L 229.699287 162.407693 
L 230.12272 153.01336 
L 231.816452 153.01336 
L 232.239885 153.886841 
L 233.933617 153.886841 
L 234.35705 160.151471 
L 236.050782 160.151471 
L 236.474215 162.495708 
L 238.167947 162.495708 
L 238.59138 160.136953 
L 240.285112 160.136953 
L 240.708545 155.359295 
L 242.402277 155.359295 
L 242.82571 157.914215 
L 244.519441 157.914215 
L 244.942874 163.690795 
L 246.636606 163.690795 
L 247.060039 159.094199 
L 248.753771 159.094199 
L 249.177204 156.459294 
L 250.870936 156.459294 
L 251.294369 157.54715 
L 252.988101 157.54715 
L 253.411534 157.006927 
L 255.105266 157.006927 
L 255.528699 148.791078 
L 257.222431 148.791078 
L 257.645864 134.971108 
L 259.339596 134.971108 
L 259.763029 150.730596 
L 261.456761 150.730596 
L 261.880194 159.262875 
L 263.573926 159.262875 
L 263.997359 151.660172 
L 265.691091 151.660172 
L 266.114524 151.265488 
L 267.808256 151.265488 
L 268.231689 149.333383 
L 269.925421 149.333383 
L 270.348854 160.177567 
L 272.042586 160.177567 
L 272.466019 164.031123 
L 274.159751 164.031123 
L 274.583184 159.790356 
L 276.276916 159.790356 
L 276.700349 164.483608 
L 278.394081 164.483608 
L 278.817514 169.319104 
L 280.511246 169.319104 
L 280.934679 166.318707 
L 282.628411 166.318707 
L 283.051844 169.382982 
L 283.797086 169.382982 
L 283.797086 169.382982 
" style="fill:none;stroke:#e8000b;stroke-linecap:round;stroke-width:1.2;"/>
   </g>
   <g id="matplotlib.axis_3">
    <g id="xtick_9">
     <g id="line2d_33">
      <g>
       <use style="stroke:#000000;" x="68.371316" xlink:href="#m588bf6f124" y="179.52"/>
      </g>
     </g>
     <g id="line2d_34">
      <g>
       <use style="stroke:#000000;" x="68.371316" xlink:href="#mc8d58e07b8" y="107.04"/>
      </g>
     </g>
    </g>
    <g id="xtick_10">
     <g id="line2d_35">
      <g>
       <use style="stroke:#000000;" x="110.714615" xlink:href="#m588bf6f124" y="179.52"/>
      </g>
     </g>
     <g id="line2d_36">
      <g>
       <use style="stroke:#000000;" x="110.714615" xlink:href="#mc8d58e07b8" y="107.04"/>
      </g>
     </g>
    </g>
    <g id="xtick_11">
     <g id="line2d_37">
      <g>
       <use style="stroke:#000000;" x="153.057915" xlink:href="#m588bf6f124" y="179.52"/>
      </g>
     </g>
     <g id="line2d_38">
      <g>
       <use style="stroke:#000000;" x="153.057915" xlink:href="#mc8d58e07b8" y="107.04"/>
      </g>
     </g>
    </g>
    <g id="xtick_12">
     <g id="line2d_39">
      <g>
       <use style="stroke:#000000;" x="195.401214" xlink:href="#m588bf6f124" y="179.52"/>
      </g>
     </g>
     <g id="line2d_40">
      <g>
       <use style="stroke:#000000;" x="195.401214" xlink:href="#mc8d58e07b8" y="107.04"/>
      </g>
     </g>
    </g>
    <g id="xtick_13">
     <g id="line2d_41">
      <g>
       <use style="stroke:#000000;" x="237.744514" xlink:href="#m588bf6f124" y="179.52"/>
      </g>
     </g>
     <g id="line2d_42">
      <g>
       <use style="stroke:#000000;" x="237.744514" xlink:href="#mc8d58e07b8" y="107.04"/>
      </g>
     </g>
    </g>
    <g id="xtick_14">
     <g id="line2d_43">
      <g>
       <use style="stroke:#000000;" x="280.087813" xlink:href="#m588bf6f124" y="179.52"/>
      </g>
     </g>
     <g id="line2d_44">
      <g>
       <use style="stroke:#000000;" x="280.087813" xlink:href="#mc8d58e07b8" y="107.04"/>
      </g>
     </g>
    </g>
    <g id="xtick_15">
     <g id="line2d_45">
      <g>
       <use style="stroke:#000000;" x="322.431112" xlink:href="#m588bf6f124" y="179.52"/>
      </g>
     </g>
     <g id="line2d_46">
      <g>
       <use style="stroke:#000000;" x="322.431112" xlink:href="#mc8d58e07b8" y="107.04"/>
      </g>
     </g>
    </g>
    <g id="xtick_16">
     <g id="line2d_47">
      <g>
       <use style="stroke:#000000;" x="364.774412" xlink:href="#m588bf6f124" y="179.52"/>
      </g>
     </g>
     <g id="line2d_48">
      <g>
       <use style="stroke:#000000;" x="364.774412" xlink:href="#mc8d58e07b8" y="107.04"/>
      </g>
     </g>
    </g>
   </g>
   <g id="matplotlib.axis_4">
    <g id="ytick_5">
     <g id="line2d_49">
      <g>
       <use style="stroke:#000000;" x="54" xlink:href="#m333a544417" y="163.030027"/>
      </g>
     </g>
     <g id="line2d_50">
      <g>
       <use style="stroke:#000000;" x="388.8" xlink:href="#m176fcd08b3" y="163.030027"/>
      </g>
     </g>
     <g id="text_8">
      <!-- 0.5 -->
      <defs>
       <path d="M 9.078125 0 
L 9.078125 10.015625 
L 19.09375 10.015625 
L 19.09375 0 
z
" id="ArialMT-46"/>
       <path d="M 4.15625 18.75 
L 13.375 19.53125 
Q 14.40625 12.796875 18.140625 9.390625 
Q 21.875 6 27.15625 6 
Q 33.5 6 37.890625 10.78125 
Q 42.28125 15.578125 42.28125 23.484375 
Q 42.28125 31 38.0625 35.34375 
Q 33.84375 39.703125 27 39.703125 
Q 22.75 39.703125 19.328125 37.765625 
Q 15.921875 35.84375 13.96875 32.765625 
L 5.71875 33.84375 
L 12.640625 70.609375 
L 48.25 70.609375 
L 48.25 62.203125 
L 19.671875 62.203125 
L 15.828125 42.96875 
Q 22.265625 47.46875 29.34375 47.46875 
Q 38.71875 47.46875 45.15625 40.96875 
Q 51.609375 34.46875 51.609375 24.265625 
Q 51.609375 14.546875 45.953125 7.46875 
Q 39.0625 -1.21875 27.15625 -1.21875 
Q 17.390625 -1.21875 11.203125 4.25 
Q 5.03125 9.71875 4.15625 18.75 
z
" id="ArialMT-53"/>
      </defs>
      <g transform="translate(38.268 166.179465)scale(0.088 -0.088)">
       <use xlink:href="#ArialMT-48"/>
       <use x="55.615234" xlink:href="#ArialMT-46"/>
       <use x="83.398438" xlink:href="#ArialMT-53"/>
      </g>
     </g>
    </g>
    <g id="ytick_6">
     <g id="line2d_51">
      <g>
       <use style="stroke:#000000;" x="54" xlink:href="#m333a544417" y="136.061486"/>
      </g>
     </g>
     <g id="line2d_52">
      <g>
       <use style="stroke:#000000;" x="388.8" xlink:href="#m176fcd08b3" y="136.061486"/>
      </g>
     </g>
     <g id="text_9">
      <!-- 0.6 -->
      <g transform="translate(38.268 139.210924)scale(0.088 -0.088)">
       <use xlink:href="#ArialMT-48"/>
       <use x="55.615234" xlink:href="#ArialMT-46"/>
       <use x="83.398438" xlink:href="#ArialMT-54"/>
      </g>
     </g>
    </g>
    <g id="ytick_7">
     <g id="line2d_53">
      <g>
       <use style="stroke:#000000;" x="54" xlink:href="#m333a544417" y="109.092945"/>
      </g>
     </g>
     <g id="line2d_54">
      <g>
       <use style="stroke:#000000;" x="388.8" xlink:href="#m176fcd08b3" y="109.092945"/>
      </g>
     </g>
     <g id="text_10">
      <!-- 0.7 -->
      <defs>
       <path d="M 4.734375 62.203125 
L 4.734375 70.65625 
L 51.078125 70.65625 
L 51.078125 63.8125 
Q 44.234375 56.546875 37.515625 44.484375 
Q 30.8125 32.421875 27.15625 19.671875 
Q 24.515625 10.6875 23.78125 0 
L 14.75 0 
Q 14.890625 8.453125 18.0625 20.40625 
Q 21.234375 32.375 27.171875 43.484375 
Q 33.109375 54.59375 39.796875 62.203125 
z
" id="ArialMT-55"/>
      </defs>
      <g transform="translate(38.268 112.242383)scale(0.088 -0.088)">
       <use xlink:href="#ArialMT-48"/>
       <use x="55.615234" xlink:href="#ArialMT-46"/>
       <use x="83.398438" xlink:href="#ArialMT-55"/>
      </g>
     </g>
    </g>
    <g id="text_11">
     <!-- $F$ -->
     <defs>
      <path d="M 16.890625 72.90625 
L 58.6875 72.90625 
L 57.078125 64.59375 
L 25.09375 64.59375 
L 20.90625 43.109375 
L 49.8125 43.109375 
L 48.1875 34.8125 
L 19.28125 34.8125 
L 12.5 0 
L 2.6875 0 
z
" id="DejaVuSans-Oblique-70"/>
     </defs>
     <g transform="translate(32.36 146.064)rotate(-90)scale(0.096 -0.096)">
      <use transform="translate(0 0.09375)" xlink:href="#DejaVuSans-Oblique-70"/>
     </g>
    </g>
   </g>
   <g id="patch_10">
    <path d="M 54 179.52 
L 54 107.04 
" style="fill:none;stroke:#000000;stroke-linecap:square;stroke-linejoin:miter;"/>
   </g>
   <g id="patch_11">
    <path d="M 388.8 179.52 
L 388.8 107.04 
" style="fill:none;stroke:#000000;stroke-linecap:square;stroke-linejoin:miter;"/>
   </g>
   <g id="patch_12">
    <path d="M 54 179.52 
L 388.8 179.52 
" style="fill:none;stroke:#000000;stroke-linecap:square;stroke-linejoin:miter;"/>
   </g>
   <g id="patch_13">
    <path d="M 54 107.04 
L 388.8 107.04 
" style="fill:none;stroke:#000000;stroke-linecap:square;stroke-linejoin:miter;"/>
   </g>
  </g>
  <g id="axes_3">
   <g id="patch_14">
    <path d="M 54 252 
L 388.8 252 
L 388.8 179.52 
L 54 179.52 
z
" style="fill:#ffffff;"/>
   </g>
   <g id="line2d_55">
    <path clip-path="url(#pe53fc7c01f)" d="M 69.218182 211.394743 
L 69.641615 211.030819 
L 70.065048 213.292773 
L 70.488481 211.606334 
L 70.911914 214.441116 
L 71.335347 214.294351 
L 71.75878 215.943566 
L 72.182213 213.526573 
L 72.605646 211.822606 
L 73.029079 213.669551 
L 73.452512 212.319278 
L 73.875945 213.071969 
L 74.299378 212.314374 
L 74.722811 210.518223 
L 75.146244 213.908985 
L 75.569677 212.943371 
L 75.99311 213.432637 
L 76.416543 215.125389 
L 76.839976 214.351627 
L 77.686842 211.199937 
L 78.110275 215.419791 
L 78.533708 214.241114 
L 78.957141 215.768182 
L 79.380574 216.133556 
L 79.804007 215.063864 
L 80.22744 214.705088 
L 80.650873 212.567148 
L 81.074306 213.66971 
L 81.497739 214.011456 
L 81.921172 216.282908 
L 82.344605 217.586163 
L 82.768038 215.597124 
L 83.191471 214.768487 
L 83.614904 218.519036 
L 84.038337 215.654148 
L 84.46177 215.797905 
L 84.885203 217.843174 
L 85.308636 216.6209 
L 85.732069 218.073211 
L 86.155502 216.443881 
L 87.002368 217.484585 
L 87.425801 219.05917 
L 87.849234 216.923362 
L 88.272667 218.104349 
L 88.6961 217.848906 
L 89.966399 220.142278 
L 90.389832 219.869269 
L 90.813265 219.142946 
L 91.660131 219.823626 
L 92.083564 220.714105 
L 92.506997 218.95399 
L 93.353862 218.194138 
L 93.777295 219.524456 
L 94.200728 218.44907 
L 94.624161 220.7748 
L 95.047594 219.902866 
L 95.471027 220.969036 
L 95.89446 223.613775 
L 96.741326 221.983078 
L 97.164759 224.442758 
L 97.588192 220.469311 
L 98.011625 224.859811 
L 98.435058 225.200796 
L 98.858491 222.055627 
L 99.281924 221.200948 
L 99.705357 224.542135 
L 100.12879 225.04905 
L 100.552223 220.884571 
L 100.975656 223.989387 
L 101.399089 222.494707 
L 101.822522 223.298856 
L 102.245955 223.158042 
L 102.669388 226.64785 
L 103.092821 223.508986 
L 103.516254 221.851424 
L 103.939687 222.909874 
L 104.36312 223.067472 
L 104.786553 224.23592 
L 105.209986 224.881596 
L 105.633419 224.328396 
L 106.056852 225.135511 
L 106.480285 224.901706 
L 106.903718 223.254352 
L 107.327151 226.459826 
L 107.750584 226.285612 
L 108.174017 225.74564 
L 108.59745 227.043732 
L 109.020883 225.737697 
L 109.444316 227.030783 
L 109.867749 226.385816 
L 110.291182 226.787256 
L 110.714615 225.95328 
L 111.138048 225.585153 
L 111.561481 224.919966 
L 111.984914 227.569647 
L 112.408347 228.055226 
L 112.83178 226.475797 
L 113.255213 228.411506 
L 113.678646 225.814362 
L 114.102079 225.338582 
L 114.525512 226.711506 
L 114.948945 227.200843 
L 115.372378 227.20187 
L 115.795811 229.362856 
L 116.219244 229.293038 
L 116.642677 227.948083 
L 117.06611 228.484056 
L 117.912976 228.378007 
L 118.336409 230.027545 
L 118.759842 229.197239 
L 119.183275 228.770565 
L 119.606708 230.755494 
L 120.030141 230.075697 
L 120.453574 231.743201 
L 121.30044 230.83694 
L 121.723873 232.485388 
L 122.147306 231.01727 
L 122.570739 231.47974 
L 122.994172 229.623196 
L 123.417605 230.192866 
L 123.841038 230.476578 
L 124.264471 230.054348 
L 124.687904 232.392667 
L 125.111337 232.575994 
L 125.53477 231.540833 
L 125.958203 231.259482 
L 126.381636 231.721656 
L 126.805069 232.582114 
L 127.228502 231.498903 
L 127.651935 233.296253 
L 128.075368 230.236979 
L 128.498801 232.79469 
L 128.922234 234.50089 
L 129.345667 232.06262 
L 129.7691 233.062708 
L 130.192533 232.529011 
L 130.615966 234.060377 
L 131.462832 233.331452 
L 131.886265 232.481573 
L 132.309698 234.112332 
L 132.733131 232.901504 
L 133.156564 230.392321 
L 133.579997 231.636968 
L 134.00343 231.764652 
L 134.426863 230.789737 
L 134.850296 232.165706 
L 135.273729 232.794889 
L 135.697162 228.392326 
L 136.120595 230.127035 
L 136.544028 230.524208 
L 137.390894 232.590036 
L 137.814327 231.312753 
L 138.23776 231.660781 
L 138.661193 229.878084 
L 139.508059 233.764668 
L 139.931492 231.387589 
L 140.778358 233.308362 
L 141.201791 233.956243 
L 141.625224 237.334423 
L 142.048657 234.425517 
L 142.47209 235.189881 
L 142.895523 238.522504 
L 143.318956 235.506774 
L 143.742389 233.707747 
L 144.165822 232.705484 
L 144.589255 236.570227 
L 145.012688 235.444884 
L 145.436121 235.992753 
L 145.859554 236.204715 
L 146.282987 233.122565 
L 146.70642 235.950668 
L 147.129853 235.580495 
L 147.553286 233.513608 
L 147.976719 236.431027 
L 148.400152 234.935239 
L 148.823585 236.019024 
L 149.247018 236.006722 
L 149.670451 235.455458 
L 150.093884 233.926454 
L 150.517317 235.428778 
L 150.94075 235.985521 
L 151.364183 233.675624 
L 151.787616 233.655804 
L 152.211049 233.114675 
L 152.634482 239.402073 
L 153.057915 236.320043 
L 153.481348 237.03155 
L 153.904781 236.858039 
L 154.328214 237.069792 
L 154.751647 238.306373 
L 155.17508 236.079547 
L 155.598513 236.182683 
L 156.021946 238.233817 
L 156.868812 237.134717 
L 157.292245 237.045591 
L 157.715678 237.762452 
L 158.139111 236.321055 
L 158.562544 235.764284 
L 158.985977 236.603733 
L 159.40941 236.930255 
L 159.832843 238.498116 
L 160.256276 236.46425 
L 160.679709 238.789417 
L 161.103142 238.990707 
L 161.526575 239.609846 
L 161.950008 238.356579 
L 162.373441 235.381627 
L 162.796874 236.765858 
L 163.220307 238.554644 
L 164.067173 236.866761 
L 164.490606 238.115357 
L 164.914039 236.009197 
L 165.337472 238.140003 
L 165.760905 236.872032 
L 166.184338 239.374288 
L 166.607771 239.488354 
L 167.031204 236.669735 
L 167.454637 239.65219 
L 167.87807 238.519311 
L 168.301503 241.125644 
L 168.724935 238.101505 
L 169.148368 238.250347 
L 169.571801 238.754019 
L 169.995234 240.365687 
L 170.418667 238.446283 
L 170.8421 240.116201 
L 171.265533 239.299177 
L 171.688966 240.487446 
L 172.112399 238.831074 
L 172.535832 240.217067 
L 172.959265 239.725586 
L 173.382698 237.557506 
L 173.806131 240.270294 
L 174.229564 240.81662 
L 174.652997 238.732779 
L 175.07643 241.615444 
L 175.499863 237.25592 
L 175.923296 239.317685 
L 176.770162 239.476838 
L 177.193595 240.951541 
L 177.617028 240.124887 
L 178.040461 238.66316 
L 178.463894 240.56181 
L 178.887327 241.334949 
L 180.157626 240.454612 
L 180.581059 240.948641 
L 181.004492 238.040533 
L 181.851358 240.837881 
L 182.274791 241.198738 
L 182.698224 240.417654 
L 183.54509 239.550899 
L 183.968523 241.079061 
L 184.391956 240.184181 
L 184.815389 239.918257 
L 185.238822 239.461285 
L 185.662255 239.473633 
L 186.085688 237.804141 
L 186.509121 240.173664 
L 186.932554 241.029047 
L 187.355987 239.362355 
L 187.77942 240.206828 
L 188.202853 242.291983 
L 188.626286 238.040518 
L 189.049719 241.683087 
L 189.473152 237.73071 
L 189.896585 241.668199 
L 190.743451 238.879684 
L 191.166884 239.828208 
L 191.590317 240.165275 
L 192.01375 238.887739 
L 192.437183 237.974936 
L 192.860616 240.814972 
L 193.284049 240.584348 
L 193.707482 241.002167 
L 194.130915 239.06895 
L 194.554348 241.964132 
L 194.977781 241.444243 
L 195.401214 239.926907 
L 195.824647 237.83185 
L 196.24808 238.417967 
L 196.671513 237.346324 
L 197.094946 239.756776 
L 197.518379 238.792758 
L 197.941812 241.462881 
L 198.365245 238.565599 
L 198.788678 239.18876 
L 199.212111 238.802342 
L 199.635544 238.921111 
L 200.058977 238.702494 
L 200.48241 241.297549 
L 200.905843 241.984295 
L 201.329276 240.84568 
L 201.752709 240.661166 
L 202.176142 239.081166 
L 202.599575 242.442422 
L 203.023008 240.463878 
L 203.446441 239.854408 
L 204.293307 239.12612 
L 204.71674 240.495867 
L 205.563606 238.813852 
L 206.410472 239.988772 
L 206.833905 238.563319 
L 207.257338 237.70808 
L 207.680771 240.471488 
L 208.104204 239.839809 
L 208.527637 241.774173 
L 208.95107 239.405537 
L 209.374503 239.484561 
L 209.797936 239.786187 
L 210.221369 240.98344 
L 210.644802 242.6632 
L 211.068235 239.646449 
L 211.491668 239.544081 
L 211.915101 241.437307 
L 212.338534 241.60216 
L 212.761967 242.652261 
L 213.1854 240.084527 
L 213.608833 242.955368 
L 214.455699 240.638297 
L 214.879132 239.678616 
L 215.302565 243.072908 
L 215.725998 242.0578 
L 216.149431 240.45895 
L 216.572864 242.571161 
L 216.996297 240.493506 
L 217.41973 243.374299 
L 217.843163 245.030722 
L 218.266596 240.78414 
L 218.690029 241.199962 
L 219.113462 243.699709 
L 219.536895 241.916721 
L 219.960328 241.51333 
L 220.383761 240.484044 
L 220.807194 240.388638 
L 221.230627 240.149668 
L 221.65406 238.794272 
L 222.077493 242.272477 
L 222.500926 242.191847 
L 222.924359 240.27179 
L 223.347792 242.341843 
L 224.618091 238.819848 
L 225.464957 240.771412 
L 225.88839 238.749544 
L 226.311823 237.853449 
L 226.735256 238.987002 
L 227.158689 240.91327 
L 227.582122 238.737893 
L 228.005555 237.739415 
L 228.428988 238.006084 
L 228.852421 241.15566 
L 229.275854 240.042007 
L 229.699287 239.316456 
L 230.12272 239.833698 
L 230.546153 239.847211 
L 230.969586 241.792275 
L 231.393019 240.115615 
L 232.239885 242.002987 
L 232.663318 242.269982 
L 233.086751 241.313744 
L 233.510184 239.413808 
L 233.933617 241.540368 
L 234.35705 238.638631 
L 234.780483 241.579087 
L 235.203916 243.109367 
L 235.627349 243.526935 
L 236.050782 240.384788 
L 236.474215 242.015267 
L 236.897648 242.860433 
L 237.321081 243.422291 
L 237.744514 243.365109 
L 238.167947 238.038449 
L 238.59138 239.082421 
L 239.014813 237.966991 
L 239.438246 241.301638 
L 239.861679 240.03413 
L 240.285112 239.448216 
L 240.708545 241.446799 
L 241.131978 238.180394 
L 241.555411 241.508144 
L 241.978844 242.20101 
L 242.402277 241.903036 
L 242.82571 241.42922 
L 243.249143 240.074951 
L 243.672576 239.789112 
L 244.519441 241.436772 
L 245.366307 240.172305 
L 245.78974 240.698417 
L 246.213173 239.272252 
L 246.636606 240.671557 
L 247.060039 238.537946 
L 247.483472 240.728376 
L 247.906905 241.391402 
L 248.330338 239.21069 
L 248.753771 238.588339 
L 249.600637 241.80613 
L 250.02407 240.737422 
L 250.447503 240.24365 
L 250.870936 238.704073 
L 251.294369 241.395923 
L 251.717802 238.741719 
L 252.141235 242.137814 
L 252.564668 241.456114 
L 252.988101 241.069178 
L 253.411534 236.985142 
L 253.834967 241.423361 
L 254.2584 240.982931 
L 255.105266 236.289602 
L 255.528699 241.243238 
L 255.952132 238.626627 
L 256.375565 239.168284 
L 256.798998 241.946408 
L 257.222431 241.348989 
L 257.645864 240.417541 
L 258.069297 239.095224 
L 258.49273 238.582593 
L 258.916163 239.58046 
L 259.339596 241.050655 
L 259.763029 239.595914 
L 260.186462 241.871034 
L 261.033328 241.035757 
L 261.456761 241.151675 
L 261.880194 241.632002 
L 262.303627 241.932271 
L 262.72706 239.833935 
L 263.150493 240.699679 
L 263.573926 244.296734 
L 263.997359 241.817609 
L 264.420792 240.684649 
L 264.844225 245.376179 
L 265.267658 243.088066 
L 265.691091 241.539781 
L 266.114524 237.764604 
L 266.96139 241.675269 
L 267.808256 239.769884 
L 268.231689 241.720042 
L 268.655122 240.473691 
L 269.078555 241.187291 
L 269.501988 243.666553 
L 269.925421 240.738582 
L 270.348854 243.272178 
L 270.772287 244.468522 
L 271.19572 241.899434 
L 271.619153 241.48515 
L 272.042586 240.848902 
L 272.466019 243.442034 
L 272.889452 240.996987 
L 273.312885 244.074345 
L 273.736318 246.094513 
L 274.159751 241.45041 
L 274.583184 244.833056 
L 275.006617 240.307947 
L 275.43005 245.800441 
L 276.276916 240.094704 
L 276.700349 242.648337 
L 277.123782 242.936829 
L 277.547215 242.389348 
L 277.970648 241.353943 
L 278.394081 241.918236 
L 278.817514 242.941475 
L 279.240947 243.509627 
L 279.66438 244.333043 
L 280.087813 244.678869 
L 280.511246 244.662594 
L 280.934679 244.795407 
L 281.358112 244.699841 
L 281.781545 244.102019 
L 282.204978 245.61942 
L 282.628411 244.122182 
L 283.051844 242.070174 
L 283.475277 245.056193 
L 283.89871 245.815829 
L 284.322143 243.78496 
L 284.745576 243.522108 
L 285.169009 243.127127 
L 286.015875 245.541863 
L 286.439308 242.963164 
L 286.862741 244.568302 
L 287.286174 243.993794 
L 287.709607 244.22037 
L 288.13304 246.464778 
L 288.556473 245.040252 
L 288.979906 248.705455 
L 289.403339 246.200146 
L 289.826772 245.901536 
L 290.250205 245.146639 
L 290.673638 243.235253 
L 291.097071 244.522392 
L 291.520504 243.505743 
L 291.943937 243.428274 
L 292.36737 243.872102 
L 292.790803 245.22381 
L 293.214236 243.099963 
L 293.637669 243.093722 
L 294.061102 244.937689 
L 294.484535 244.086596 
L 294.907968 245.820704 
L 295.331401 242.688806 
L 295.754834 245.336835 
L 296.178267 246.309827 
L 296.6017 243.957223 
L 297.025133 243.471606 
L 297.448566 245.854924 
L 297.871999 243.601935 
L 298.718865 245.238291 
L 299.142298 243.635443 
L 299.565731 243.851281 
L 299.989164 242.980633 
L 300.412597 241.472959 
L 300.83603 242.003764 
L 301.259463 241.200219 
L 301.682896 242.75632 
L 302.106329 240.306633 
L 302.529762 242.099849 
L 303.376628 242.785727 
L 303.800061 243.877246 
L 304.223494 246.002359 
L 304.646927 243.179915 
L 305.07036 244.83362 
L 305.493793 242.626758 
L 305.917226 241.960871 
L 306.764092 242.956729 
L 307.187525 243.04166 
L 307.610958 241.615973 
L 308.034391 241.381156 
L 308.457824 242.100906 
L 308.881257 241.185664 
L 309.30469 241.698036 
L 309.728123 239.355719 
L 310.151556 246.294963 
L 310.574989 243.411915 
L 310.998422 243.43651 
L 311.421855 244.256348 
L 311.845288 244.541602 
L 312.268721 243.907938 
L 312.692154 243.50641 
L 313.115587 244.839208 
L 313.53902 242.728829 
L 313.962453 245.46337 
L 314.385886 241.873092 
L 314.809319 240.840944 
L 315.232752 239.416565 
L 315.656185 243.88163 
L 316.079618 240.075992 
L 316.503051 244.022143 
L 316.926484 243.350104 
L 317.349917 241.044293 
L 317.77335 242.247272 
L 318.620216 241.890769 
L 319.043649 241.323701 
L 319.467081 244.22871 
L 319.890514 244.607004 
L 320.73738 242.132371 
L 321.160813 243.115853 
L 321.584246 240.740823 
L 322.007679 242.975098 
L 322.431112 242.494602 
L 322.854545 238.716869 
L 323.701411 243.719589 
L 324.548277 239.968031 
L 324.97171 241.964203 
L 325.395143 240.798907 
L 325.818576 244.030697 
L 326.242009 240.271134 
L 326.665442 244.060429 
L 327.088875 241.491602 
L 327.512308 239.934067 
L 327.935741 243.337982 
L 328.359174 241.654015 
L 328.782607 242.327663 
L 329.20604 242.071589 
L 329.629473 242.44922 
L 330.052906 244.827651 
L 330.476339 243.643181 
L 330.899772 243.426427 
L 331.746638 244.606372 
L 332.170071 243.94984 
L 332.593504 245.164419 
L 333.016937 241.313477 
L 333.44037 244.155214 
L 333.863803 241.997471 
L 334.287236 241.643609 
L 334.710669 242.134706 
L 335.134102 245.516889 
L 335.557535 242.98059 
L 335.980968 242.656334 
L 336.404401 244.401371 
L 336.827834 244.910696 
L 337.251267 243.317008 
L 337.6747 243.707496 
L 338.098133 246.026719 
L 338.521566 241.767218 
L 338.944999 244.021922 
L 339.368432 244.261943 
L 339.791865 244.08744 
L 340.215298 244.872861 
L 340.638731 243.613022 
L 341.062164 243.278616 
L 341.485597 241.484635 
L 341.90903 244.801768 
L 342.332463 243.738976 
L 342.755896 241.577169 
L 343.179329 243.123909 
L 343.602762 241.351395 
L 344.026195 244.59162 
L 344.449628 240.845454 
L 344.873061 243.583072 
L 345.296494 241.70641 
L 345.719927 243.326706 
L 346.14336 244.115763 
L 346.566793 243.56364 
L 346.990226 244.544768 
L 347.413659 243.58165 
L 347.837092 243.074999 
L 348.260525 243.46219 
L 348.683958 243.110461 
L 349.107391 242.416954 
L 349.530824 244.634078 
L 349.954257 244.682132 
L 350.37769 245.386204 
L 350.801123 243.697523 
L 351.224556 243.639737 
L 351.647989 245.415429 
L 352.494855 244.194203 
L 352.918288 245.994154 
L 353.341721 244.915589 
L 353.765154 242.994772 
L 354.188587 242.838185 
L 354.61202 246.032387 
L 355.035453 247.383105 
L 355.458886 244.60913 
L 355.882319 243.52068 
L 356.305752 244.21952 
L 356.729185 245.339369 
L 357.152618 246.132084 
L 357.576051 244.750391 
L 357.999484 245.397787 
L 358.422917 246.559332 
L 358.84635 243.644502 
L 359.693216 247.090339 
L 360.116649 244.868364 
L 360.540082 247.011654 
L 360.963515 245.713029 
L 361.386948 242.807309 
L 361.810381 246.422069 
L 362.233814 246.40851 
L 362.657247 245.51867 
L 363.08068 244.153461 
L 363.504113 247.78067 
L 363.927546 245.002621 
L 364.350979 245.710226 
L 364.774412 246.057814 
L 366.044711 245.065687 
L 366.468144 243.487185 
L 366.891577 245.670293 
L 367.31501 243.404057 
L 367.738443 242.457654 
L 368.161876 246.085631 
L 368.585309 244.038897 
L 369.008742 244.157581 
L 369.432175 244.665141 
L 369.855608 245.960497 
L 370.279041 246.388125 
L 370.702474 246.145084 
L 371.125907 244.117013 
L 371.54934 244.264427 
L 371.972773 244.64696 
L 372.396206 241.492033 
L 372.819639 243.362707 
L 373.243072 242.807573 
L 373.581818 242.041007 
L 373.581818 242.041007 
" style="fill:none;stroke:#1ac938;stroke-linecap:round;stroke-width:1.2;"/>
   </g>
   <g id="line2d_56">
    <path clip-path="url(#pe53fc7c01f)" d="M 69.218182 206.903122 
L 70.911914 206.903122 
L 71.335347 199.859722 
L 73.029079 199.859722 
L 73.452512 198.976863 
L 75.146244 198.976863 
L 75.569677 200.267277 
L 77.263409 200.267277 
L 77.686842 201.213354 
L 79.380574 201.213354 
L 79.804007 201.826183 
L 83.614904 201.845436 
L 84.038337 200.843436 
L 85.732069 200.843436 
L 86.155502 199.222095 
L 87.849234 199.222095 
L 88.272667 202.021331 
L 89.966399 202.021331 
L 90.389832 204.655918 
L 92.083564 204.655918 
L 92.506997 205.081295 
L 94.200728 205.081295 
L 94.624161 207.945621 
L 96.317893 207.945621 
L 96.741326 214.99208 
L 98.435058 214.99208 
L 98.858491 215.677094 
L 100.552223 215.677094 
L 100.975656 214.57127 
L 102.669388 214.57127 
L 103.092821 211.696653 
L 104.786553 211.696653 
L 105.209986 215.865325 
L 106.903718 215.865325 
L 107.327151 213.057371 
L 109.020883 213.057371 
L 109.444316 214.208872 
L 111.138048 214.208872 
L 111.561481 213.079022 
L 113.255213 213.079022 
L 113.678646 215.103144 
L 115.372378 215.103144 
L 115.795811 214.982122 
L 117.489543 214.982122 
L 117.912976 211.089095 
L 119.606708 211.089095 
L 120.030141 205.60241 
L 121.723873 205.60241 
L 122.147306 201.990236 
L 123.841038 201.990236 
L 124.264471 195.780437 
L 125.958203 195.780437 
L 126.381636 197.510947 
L 128.075368 197.510947 
L 128.498801 199.285975 
L 132.309698 199.19848 
L 132.733131 197.710278 
L 134.426863 197.710278 
L 134.850296 196.996669 
L 136.544028 196.996669 
L 136.967461 195.31904 
L 138.661193 195.31904 
L 139.084626 197.451995 
L 140.778358 197.451995 
L 141.201791 201.512184 
L 142.895523 201.512184 
L 143.318956 202.31306 
L 145.012688 202.31306 
L 145.436121 200.788546 
L 147.129853 200.788546 
L 147.553286 203.894347 
L 149.247018 203.894347 
L 149.670451 198.594371 
L 151.364183 198.594371 
L 151.787616 197.758143 
L 153.481348 197.758143 
L 153.904781 196.040711 
L 155.598513 196.040711 
L 156.021946 196.505275 
L 157.715678 196.505275 
L 158.139111 199.509345 
L 159.832843 199.509345 
L 160.256276 189.861248 
L 161.950008 189.861248 
L 162.373441 196.095792 
L 164.067173 196.095792 
L 164.490606 196.969429 
L 166.184338 196.969429 
L 166.607771 197.778198 
L 168.301503 197.778198 
L 168.724935 196.468689 
L 170.418667 196.468689 
L 170.8421 197.159333 
L 172.535832 197.159333 
L 172.959265 198.264903 
L 174.652997 198.264903 
L 175.07643 199.649655 
L 176.770162 199.649655 
L 177.193595 200.016867 
L 178.887327 200.016867 
L 179.31076 198.247685 
L 181.004492 198.247685 
L 181.427925 195.229749 
L 183.121657 195.229749 
L 183.54509 195.937338 
L 185.238822 195.937338 
L 185.662255 194.913964 
L 187.355987 194.913964 
L 187.77942 195.717717 
L 189.473152 195.717717 
L 189.896585 196.821861 
L 191.590317 196.821861 
L 192.01375 189.984757 
L 193.707482 189.984757 
L 194.130915 189.769755 
L 195.824647 189.769755 
L 196.24808 190.382931 
L 197.941812 190.382931 
L 198.365245 192.439781 
L 200.058977 192.439781 
L 200.48241 191.112183 
L 202.176142 191.112183 
L 202.599575 194.736031 
L 204.293307 194.736031 
L 204.71674 192.676841 
L 206.410472 192.676841 
L 206.833905 194.730895 
L 208.527637 194.730895 
L 208.95107 194.502328 
L 210.644802 194.502328 
L 211.068235 190.602872 
L 212.761967 190.602872 
L 213.1854 188.167869 
L 214.879132 188.167869 
L 215.302565 187.824385 
L 216.996297 187.824385 
L 217.41973 185.648643 
L 219.113462 185.648643 
L 219.536895 193.106739 
L 221.230627 193.106739 
L 221.65406 194.917449 
L 223.347792 194.917449 
L 223.771225 190.837649 
L 225.464957 190.837649 
L 225.88839 192.446109 
L 227.582122 192.446109 
L 228.005555 189.696618 
L 229.699287 189.696618 
L 230.12272 187.366757 
L 231.816452 187.366757 
L 232.239885 182.814545 
L 233.933617 182.814545 
L 234.35705 187.321867 
L 236.050782 187.321867 
L 236.474215 190.965701 
L 238.167947 190.965701 
L 238.59138 188.879372 
L 240.285112 188.879372 
L 240.708545 188.474477 
L 242.402277 188.474477 
L 242.82571 189.587813 
L 244.519441 189.587813 
L 244.942874 192.656608 
L 246.636606 192.656608 
L 247.060039 194.53367 
L 248.753771 194.53367 
L 249.177204 195.104634 
L 250.870936 195.104634 
L 251.294369 196.334437 
L 252.988101 196.334437 
L 253.411534 197.788649 
L 255.105266 197.788649 
L 255.528699 199.40368 
L 257.222431 199.40368 
L 257.645864 200.453817 
L 259.339596 200.453817 
L 259.763029 201.196233 
L 261.456761 201.196233 
L 261.880194 202.103377 
L 263.573926 202.103377 
L 263.997359 198.782705 
L 265.691091 198.782705 
L 266.114524 198.004091 
L 267.808256 198.004091 
L 268.231689 198.371155 
L 269.925421 198.371155 
L 270.348854 199.141008 
L 272.042586 199.141008 
L 272.466019 199.977773 
L 274.159751 199.977773 
L 274.583184 201.910559 
L 276.276916 201.910559 
L 276.700349 205.602714 
L 278.394081 205.602714 
L 278.817514 207.912214 
L 280.511246 207.912214 
L 280.934679 206.487211 
L 282.628411 206.487211 
L 283.051844 208.063105 
L 283.797086 208.063105 
L 283.797086 208.063105 
" style="fill:none;stroke:#e8000b;stroke-linecap:round;stroke-width:1.2;"/>
   </g>
   <g id="matplotlib.axis_5">
    <g id="xtick_17">
     <g id="line2d_57">
      <g>
       <use style="stroke:#000000;" x="68.371316" xlink:href="#m588bf6f124" y="252"/>
      </g>
     </g>
     <g id="line2d_58">
      <g>
       <use style="stroke:#000000;" x="68.371316" xlink:href="#mc8d58e07b8" y="179.52"/>
      </g>
     </g>
     <g id="text_12">
      <!-- $\mathdefault{0}$ -->
      <g transform="translate(65.907316 261.798875)scale(0.088 -0.088)">
       <use transform="translate(0 0.125)" xlink:href="#ArialMT-48"/>
      </g>
     </g>
    </g>
    <g id="xtick_18">
     <g id="line2d_59">
      <g>
       <use style="stroke:#000000;" x="110.714615" xlink:href="#m588bf6f124" y="252"/>
      </g>
     </g>
     <g id="line2d_60">
      <g>
       <use style="stroke:#000000;" x="110.714615" xlink:href="#mc8d58e07b8" y="179.52"/>
      </g>
     </g>
     <g id="text_13">
      <!-- $\mathdefault{1}$ -->
      <g transform="translate(108.250615 261.798875)scale(0.088 -0.088)">
       <use transform="translate(0 0.125)" xlink:href="#ArialMT-49"/>
      </g>
     </g>
    </g>
    <g id="xtick_19">
     <g id="line2d_61">
      <g>
       <use style="stroke:#000000;" x="153.057915" xlink:href="#m588bf6f124" y="252"/>
      </g>
     </g>
     <g id="line2d_62">
      <g>
       <use style="stroke:#000000;" x="153.057915" xlink:href="#mc8d58e07b8" y="179.52"/>
      </g>
     </g>
     <g id="text_14">
      <!-- $\mathdefault{2}$ -->
      <g transform="translate(150.593915 261.798875)scale(0.088 -0.088)">
       <use transform="translate(0 0.125)" xlink:href="#ArialMT-50"/>
      </g>
     </g>
    </g>
    <g id="xtick_20">
     <g id="line2d_63">
      <g>
       <use style="stroke:#000000;" x="195.401214" xlink:href="#m588bf6f124" y="252"/>
      </g>
     </g>
     <g id="line2d_64">
      <g>
       <use style="stroke:#000000;" x="195.401214" xlink:href="#mc8d58e07b8" y="179.52"/>
      </g>
     </g>
     <g id="text_15">
      <!-- $\mathdefault{3}$ -->
      <defs>
       <path d="M 4.203125 18.890625 
L 12.984375 20.0625 
Q 14.5 12.59375 18.140625 9.296875 
Q 21.78125 6 27 6 
Q 33.203125 6 37.46875 10.296875 
Q 41.75 14.59375 41.75 20.953125 
Q 41.75 27 37.796875 30.921875 
Q 33.84375 34.859375 27.734375 34.859375 
Q 25.25 34.859375 21.53125 33.890625 
L 22.515625 41.609375 
Q 23.390625 41.5 23.921875 41.5 
Q 29.546875 41.5 34.03125 44.421875 
Q 38.53125 47.359375 38.53125 53.46875 
Q 38.53125 58.296875 35.25 61.46875 
Q 31.984375 64.65625 26.8125 64.65625 
Q 21.6875 64.65625 18.265625 61.421875 
Q 14.84375 58.203125 13.875 51.765625 
L 5.078125 53.328125 
Q 6.6875 62.15625 12.390625 67.015625 
Q 18.109375 71.875 26.609375 71.875 
Q 32.46875 71.875 37.390625 69.359375 
Q 42.328125 66.84375 44.9375 62.5 
Q 47.5625 58.15625 47.5625 53.265625 
Q 47.5625 48.640625 45.0625 44.828125 
Q 42.578125 41.015625 37.703125 38.765625 
Q 44.046875 37.3125 47.5625 32.6875 
Q 51.078125 28.078125 51.078125 21.140625 
Q 51.078125 11.765625 44.234375 5.25 
Q 37.40625 -1.265625 26.953125 -1.265625 
Q 17.53125 -1.265625 11.296875 4.34375 
Q 5.078125 9.96875 4.203125 18.890625 
z
" id="ArialMT-51"/>
      </defs>
      <g transform="translate(192.937214 261.798875)scale(0.088 -0.088)">
       <use transform="translate(0 0.125)" xlink:href="#ArialMT-51"/>
      </g>
     </g>
    </g>
    <g id="xtick_21">
     <g id="line2d_65">
      <g>
       <use style="stroke:#000000;" x="237.744514" xlink:href="#m588bf6f124" y="252"/>
      </g>
     </g>
     <g id="line2d_66">
      <g>
       <use style="stroke:#000000;" x="237.744514" xlink:href="#mc8d58e07b8" y="179.52"/>
      </g>
     </g>
     <g id="text_16">
      <!-- $\mathdefault{4}$ -->
      <defs>
       <path d="M 32.328125 0 
L 32.328125 17.140625 
L 1.265625 17.140625 
L 1.265625 25.203125 
L 33.9375 71.578125 
L 41.109375 71.578125 
L 41.109375 25.203125 
L 50.78125 25.203125 
L 50.78125 17.140625 
L 41.109375 17.140625 
L 41.109375 0 
z
M 32.328125 25.203125 
L 32.328125 57.46875 
L 9.90625 25.203125 
z
" id="ArialMT-52"/>
      </defs>
      <g transform="translate(235.280514 261.798875)scale(0.088 -0.088)">
       <use transform="translate(0 0.421875)" xlink:href="#ArialMT-52"/>
      </g>
     </g>
    </g>
    <g id="xtick_22">
     <g id="line2d_67">
      <g>
       <use style="stroke:#000000;" x="280.087813" xlink:href="#m588bf6f124" y="252"/>
      </g>
     </g>
     <g id="line2d_68">
      <g>
       <use style="stroke:#000000;" x="280.087813" xlink:href="#mc8d58e07b8" y="179.52"/>
      </g>
     </g>
     <g id="text_17">
      <!-- $\mathdefault{5}$ -->
      <g transform="translate(277.623813 261.798875)scale(0.088 -0.088)">
       <use transform="translate(0 0.390625)" xlink:href="#ArialMT-53"/>
      </g>
     </g>
    </g>
    <g id="xtick_23">
     <g id="line2d_69">
      <g>
       <use style="stroke:#000000;" x="322.431112" xlink:href="#m588bf6f124" y="252"/>
      </g>
     </g>
     <g id="line2d_70">
      <g>
       <use style="stroke:#000000;" x="322.431112" xlink:href="#mc8d58e07b8" y="179.52"/>
      </g>
     </g>
     <g id="text_18">
      <!-- $\mathdefault{6}$ -->
      <g transform="translate(319.967112 261.798875)scale(0.088 -0.088)">
       <use transform="translate(0 0.125)" xlink:href="#ArialMT-54"/>
      </g>
     </g>
    </g>
    <g id="xtick_24">
     <g id="line2d_71">
      <g>
       <use style="stroke:#000000;" x="364.774412" xlink:href="#m588bf6f124" y="252"/>
      </g>
     </g>
     <g id="line2d_72">
      <g>
       <use style="stroke:#000000;" x="364.774412" xlink:href="#mc8d58e07b8" y="179.52"/>
      </g>
     </g>
     <g id="text_19">
      <!-- $\mathdefault{7}$ -->
      <g transform="translate(362.310412 261.798875)scale(0.088 -0.088)">
       <use transform="translate(0 0.34375)" xlink:href="#ArialMT-55"/>
      </g>
     </g>
    </g>
    <g id="text_20">
     <!-- evaluations -->
     <defs>
      <path d="M 21 0 
L 1.265625 51.859375 
L 10.546875 51.859375 
L 21.6875 20.796875 
Q 23.484375 15.765625 25 10.359375 
Q 26.171875 14.453125 28.265625 20.21875 
L 39.796875 51.859375 
L 48.828125 51.859375 
L 29.203125 0 
z
" id="ArialMT-118"/>
      <path d="M 40.4375 6.390625 
Q 35.546875 2.25 31.03125 0.53125 
Q 26.515625 -1.171875 21.34375 -1.171875 
Q 12.796875 -1.171875 8.203125 3 
Q 3.609375 7.171875 3.609375 13.671875 
Q 3.609375 17.484375 5.34375 20.625 
Q 7.078125 23.78125 9.890625 25.6875 
Q 12.703125 27.59375 16.21875 28.5625 
Q 18.796875 29.25 24.03125 29.890625 
Q 34.671875 31.15625 39.703125 32.90625 
Q 39.75 34.71875 39.75 35.203125 
Q 39.75 40.578125 37.25 42.78125 
Q 33.890625 45.75 27.25 45.75 
Q 21.046875 45.75 18.09375 43.578125 
Q 15.140625 41.40625 13.71875 35.890625 
L 5.125 37.0625 
Q 6.296875 42.578125 8.984375 45.96875 
Q 11.671875 49.359375 16.75 51.1875 
Q 21.828125 53.03125 28.515625 53.03125 
Q 35.15625 53.03125 39.296875 51.46875 
Q 43.453125 49.90625 45.40625 47.53125 
Q 47.359375 45.171875 48.140625 41.546875 
Q 48.578125 39.3125 48.578125 33.453125 
L 48.578125 21.734375 
Q 48.578125 9.46875 49.140625 6.21875 
Q 49.703125 2.984375 51.375 0 
L 42.1875 0 
Q 40.828125 2.734375 40.4375 6.390625 
z
M 39.703125 26.03125 
Q 34.90625 24.078125 25.34375 22.703125 
Q 19.921875 21.921875 17.671875 20.9375 
Q 15.4375 19.96875 14.203125 18.09375 
Q 12.984375 16.21875 12.984375 13.921875 
Q 12.984375 10.40625 15.640625 8.0625 
Q 18.3125 5.71875 23.4375 5.71875 
Q 28.515625 5.71875 32.46875 7.9375 
Q 36.421875 10.15625 38.28125 14.015625 
Q 39.703125 17 39.703125 22.796875 
z
" id="ArialMT-97"/>
      <path d="M 6.390625 0 
L 6.390625 71.578125 
L 15.1875 71.578125 
L 15.1875 0 
z
" id="ArialMT-108"/>
      <path d="M 40.578125 0 
L 40.578125 7.625 
Q 34.515625 -1.171875 24.125 -1.171875 
Q 19.53125 -1.171875 15.546875 0.578125 
Q 11.578125 2.34375 9.640625 5 
Q 7.71875 7.671875 6.9375 11.53125 
Q 6.390625 14.109375 6.390625 19.734375 
L 6.390625 51.859375 
L 15.1875 51.859375 
L 15.1875 23.09375 
Q 15.1875 16.21875 15.71875 13.8125 
Q 16.546875 10.359375 19.234375 8.375 
Q 21.921875 6.390625 25.875 6.390625 
Q 29.828125 6.390625 33.296875 8.421875 
Q 36.765625 10.453125 38.203125 13.9375 
Q 39.65625 17.4375 39.65625 24.078125 
L 39.65625 51.859375 
L 48.4375 51.859375 
L 48.4375 0 
z
" id="ArialMT-117"/>
      <path d="M 3.328125 25.921875 
Q 3.328125 40.328125 11.328125 47.265625 
Q 18.015625 53.03125 27.640625 53.03125 
Q 38.328125 53.03125 45.109375 46.015625 
Q 51.90625 39.015625 51.90625 26.65625 
Q 51.90625 16.65625 48.90625 10.90625 
Q 45.90625 5.171875 40.15625 2 
Q 34.421875 -1.171875 27.640625 -1.171875 
Q 16.75 -1.171875 10.03125 5.8125 
Q 3.328125 12.796875 3.328125 25.921875 
z
M 12.359375 25.921875 
Q 12.359375 15.96875 16.703125 11.015625 
Q 21.046875 6.0625 27.640625 6.0625 
Q 34.1875 6.0625 38.53125 11.03125 
Q 42.875 16.015625 42.875 26.21875 
Q 42.875 35.84375 38.5 40.796875 
Q 34.125 45.75 27.640625 45.75 
Q 21.046875 45.75 16.703125 40.8125 
Q 12.359375 35.890625 12.359375 25.921875 
z
" id="ArialMT-111"/>
     </defs>
     <g transform="translate(197.118 274.419375)scale(0.096 -0.096)">
      <use xlink:href="#ArialMT-101"/>
      <use x="55.615234" xlink:href="#ArialMT-118"/>
      <use x="105.615234" xlink:href="#ArialMT-97"/>
      <use x="161.230469" xlink:href="#ArialMT-108"/>
      <use x="183.447266" xlink:href="#ArialMT-117"/>
      <use x="239.0625" xlink:href="#ArialMT-97"/>
      <use x="294.677734" xlink:href="#ArialMT-116"/>
      <use x="322.460938" xlink:href="#ArialMT-105"/>
      <use x="344.677734" xlink:href="#ArialMT-111"/>
      <use x="400.292969" xlink:href="#ArialMT-110"/>
      <use x="455.908203" xlink:href="#ArialMT-115"/>
     </g>
    </g>
    <g id="text_21">
     <!-- $\times\mathdefault{10^{4}}\mathdefault{}$ -->
     <defs>
      <path d="M 70.125 53.71875 
L 47.796875 31.296875 
L 70.125 8.984375 
L 64.3125 3.078125 
L 41.890625 25.484375 
L 19.484375 3.078125 
L 13.71875 8.984375 
L 35.984375 31.296875 
L 13.71875 53.71875 
L 19.484375 59.625 
L 41.890625 37.203125 
L 64.3125 59.625 
z
" id="DejaVuSans-215"/>
     </defs>
     <g transform="translate(367.592 275.534875)scale(0.088 -0.088)">
      <use transform="translate(0 0.201563)" xlink:href="#DejaVuSans-215"/>
      <use transform="translate(83.789062 0.201563)" xlink:href="#ArialMT-49"/>
      <use transform="translate(139.404297 0.201563)" xlink:href="#ArialMT-48"/>
      <use transform="translate(196.761875 69.895313)scale(0.7)" xlink:href="#ArialMT-52"/>
     </g>
    </g>
   </g>
   <g id="matplotlib.axis_6">
    <g id="ytick_8">
     <g id="line2d_73">
      <g>
       <use style="stroke:#000000;" x="54" xlink:href="#m333a544417" y="226.73467"/>
      </g>
     </g>
     <g id="line2d_74">
      <g>
       <use style="stroke:#000000;" x="388.8" xlink:href="#m176fcd08b3" y="226.73467"/>
      </g>
     </g>
     <g id="text_22">
      <!-- 0.4 -->
      <g transform="translate(38.268 229.884107)scale(0.088 -0.088)">
       <use xlink:href="#ArialMT-48"/>
       <use x="55.615234" xlink:href="#ArialMT-46"/>
       <use x="83.398438" xlink:href="#ArialMT-52"/>
      </g>
     </g>
    </g>
    <g id="ytick_9">
     <g id="line2d_75">
      <g>
       <use style="stroke:#000000;" x="54" xlink:href="#m333a544417" y="197.634911"/>
      </g>
     </g>
     <g id="line2d_76">
      <g>
       <use style="stroke:#000000;" x="388.8" xlink:href="#m176fcd08b3" y="197.634911"/>
      </g>
     </g>
     <g id="text_23">
      <!-- 0.6 -->
      <g transform="translate(38.268 200.784348)scale(0.088 -0.088)">
       <use xlink:href="#ArialMT-48"/>
       <use x="55.615234" xlink:href="#ArialMT-46"/>
       <use x="83.398438" xlink:href="#ArialMT-54"/>
      </g>
     </g>
    </g>
    <g id="text_24">
     <!-- $CR$ -->
     <defs>
      <path d="M 69.484375 67.28125 
L 67.484375 56.890625 
Q 62.796875 61.625 57.546875 63.921875 
Q 52.296875 66.21875 46.1875 66.21875 
Q 37.84375 66.21875 31.515625 62.203125 
Q 25.203125 58.203125 20.609375 50 
Q 17.671875 44.734375 16.125 38.84375 
Q 14.59375 32.953125 14.59375 27 
Q 14.59375 17.046875 19.75 11.8125 
Q 24.90625 6.59375 34.71875 6.59375 
Q 41.5 6.59375 47.75 8.765625 
Q 54 10.9375 59.90625 15.28125 
L 57.625 3.609375 
Q 51.8125 1.125 45.875 -0.140625 
Q 39.9375 -1.421875 33.984375 -1.421875 
Q 19.96875 -1.421875 12.078125 6.1875 
Q 4.203125 13.8125 4.203125 27.390625 
Q 4.203125 36.078125 7.203125 44.46875 
Q 10.203125 52.875 15.828125 59.8125 
Q 21.78125 67.1875 29.421875 70.703125 
Q 37.0625 74.21875 47.21875 74.21875 
Q 53.46875 74.21875 59.0625 72.484375 
Q 64.65625 70.75 69.484375 67.28125 
z
" id="DejaVuSans-Oblique-67"/>
      <path d="M 25.203125 64.796875 
L 20.21875 38.921875 
L 32.90625 38.921875 
Q 40.375 38.921875 44.984375 43.046875 
Q 49.609375 47.171875 49.609375 53.8125 
Q 49.609375 59.125 46.5 61.953125 
Q 43.40625 64.796875 37.59375 64.796875 
z
M 43.3125 35.015625 
Q 46.4375 34.28125 48.515625 31.390625 
Q 50.59375 28.515625 53.328125 19.921875 
L 59.515625 0 
L 49.125 0 
L 43.40625 18.703125 
Q 41.21875 25.921875 38.328125 28.359375 
Q 35.453125 30.8125 29.5 30.8125 
L 18.609375 30.8125 
L 12.59375 0 
L 2.6875 0 
L 16.890625 72.90625 
L 39.109375 72.90625 
Q 49.21875 72.90625 54.609375 68.328125 
Q 60.015625 63.765625 60.015625 55.171875 
Q 60.015625 47.5625 55.421875 41.984375 
Q 50.828125 36.421875 43.3125 35.015625 
z
" id="DejaVuSans-Oblique-82"/>
     </defs>
     <g transform="translate(32.36 222.48)rotate(-90)scale(0.096 -0.096)">
      <use transform="translate(0 0.78125)" xlink:href="#DejaVuSans-Oblique-67"/>
      <use transform="translate(69.824219 0.78125)" xlink:href="#DejaVuSans-Oblique-82"/>
     </g>
    </g>
   </g>
   <g id="patch_15">
    <path d="M 54 252 
L 54 179.52 
" style="fill:none;stroke:#000000;stroke-linecap:square;stroke-linejoin:miter;"/>
   </g>
   <g id="patch_16">
    <path d="M 388.8 252 
L 388.8 179.52 
" style="fill:none;stroke:#000000;stroke-linecap:square;stroke-linejoin:miter;"/>
   </g>
   <g id="patch_17">
    <path d="M 54 252 
L 388.8 252 
" style="fill:none;stroke:#000000;stroke-linecap:square;stroke-linejoin:miter;"/>
   </g>
   <g id="patch_18">
    <path d="M 54 179.52 
L 388.8 179.52 
" style="fill:none;stroke:#000000;stroke-linecap:square;stroke-linejoin:miter;"/>
   </g>
  </g>
 </g>
 <defs>
  <clipPath id="pc188758ee5">
   <rect height="72.48" width="334.8" x="54" y="34.56"/>
  </clipPath>
  <clipPath id="pb2b3a26e15">
   <rect height="72.48" width="334.8" x="54" y="107.04"/>
  </clipPath>
  <clipPath id="pe53fc7c01f">
   <rect height="72.48" width="334.8" x="54" y="179.52"/>
  </clipPath>
 </defs>
</svg>
