<?xml version="1.0" encoding="utf-8" standalone="no"?>
<!DOCTYPE svg PUBLIC "-//W3C//DTD SVG 1.1//EN"
  "http://www.w3.org/Graphics/SVG/1.1/DTD/svg11.dtd">
<!-- Created with matplotlib (https://matplotlib.org/) -->
<svg height="288pt" version="1.1" viewBox="0 0 432 288" width="432pt" xmlns="http://www.w3.org/2000/svg" xmlns:xlink="http://www.w3.org/1999/xlink">
 <defs>
  <style type="text/css">
*{stroke-linecap:butt;stroke-linejoin:round;}
  </style>
 </defs>
 <g id="figure_1">
  <g id="patch_1">
   <path d="M 0 288 
L 432 288 
L 432 0 
L 0 0 
z
" style="fill:#ffffff;"/>
  </g>
  <g id="axes_1">
   <g id="patch_2">
    <path d="M 54 107.04 
L 388.8 107.04 
L 388.8 34.56 
L 54 34.56 
z
" style="fill:#ffffff;"/>
   </g>
   <g id="line2d_1">
    <path clip-path="url(#pfc06e1a9fd)" d="M 69.218182 37.854545 
L 70.080842 38.388702 
L 70.943501 38.396751 
L 72.668821 39.098517 
L 73.531481 39.176583 
L 75.256801 39.496124 
L 76.11946 39.971215 
L 76.98212 39.971215 
L 77.84478 40.28028 
L 78.70744 40.746639 
L 80.432759 40.746639 
L 81.295419 41.59144 
L 83.883399 41.683958 
L 86.471378 42.595755 
L 89.059358 42.644911 
L 89.922017 43.088881 
L 91.647337 43.25462 
L 92.509997 43.878544 
L 93.372657 43.93711 
L 95.097976 44.628688 
L 95.960636 44.628688 
L 97.685956 44.740486 
L 98.548616 44.740486 
L 99.411275 44.961727 
L 100.273935 44.961727 
L 101.136595 45.493716 
L 101.999255 45.493716 
L 102.861915 45.801054 
L 103.724574 45.810575 
L 104.587234 46.079079 
L 105.449894 46.489536 
L 106.312554 46.489536 
L 107.175214 47.108445 
L 108.900533 47.108445 
L 109.763193 47.247193 
L 110.625853 47.247193 
L 113.213832 47.749686 
L 114.076492 48.200672 
L 116.664472 48.200672 
L 118.389791 49.044829 
L 120.115111 49.239554 
L 121.840431 49.239554 
L 122.70309 49.635504 
L 123.56575 49.676388 
L 124.42841 49.882761 
L 125.29107 50.261976 
L 126.15373 50.261976 
L 127.01639 51.06013 
L 132.192348 51.067515 
L 133.917668 51.932367 
L 136.505647 51.932367 
L 138.230967 52.269978 
L 141.681606 53.13983 
L 144.269586 53.212526 
L 145.994905 53.696976 
L 146.857565 54.36702 
L 147.720225 54.723852 
L 149.445545 54.723852 
L 150.308205 54.961703 
L 151.170864 54.961703 
L 152.033524 55.235717 
L 153.758844 55.235717 
L 154.621504 55.609731 
L 156.346823 56.052438 
L 158.934803 56.473389 
L 159.797463 56.498983 
L 160.660122 57.041188 
L 161.522782 57.041188 
L 162.385442 57.217484 
L 163.248102 57.217484 
L 167.561401 57.980922 
L 169.286721 57.980922 
L 170.14938 58.696434 
L 171.8747 58.697329 
L 173.60002 59.319895 
L 174.462679 59.319895 
L 175.325339 59.798619 
L 177.913319 59.798619 
L 178.775978 60.438695 
L 179.638638 60.694278 
L 180.501298 60.694278 
L 181.363958 60.820091 
L 182.226618 60.820091 
L 183.089278 60.935135 
L 183.951937 61.692927 
L 185.677257 61.794406 
L 186.539917 61.810276 
L 188.265236 62.258318 
L 189.127896 62.810426 
L 189.990556 62.810426 
L 190.853216 63.029761 
L 193.441195 63.340176 
L 194.303855 63.727676 
L 195.166515 63.743212 
L 196.029175 64.39705 
L 199.479814 64.528504 
L 200.342474 64.792235 
L 201.205134 64.840354 
L 202.067794 65.305388 
L 202.930453 65.626287 
L 203.793113 65.626287 
L 204.655773 66.031953 
L 205.518433 66.309831 
L 208.969072 66.407213 
L 211.557051 66.914399 
L 212.419711 67.487911 
L 213.282371 67.487911 
L 214.145031 67.75804 
L 215.007691 67.778592 
L 215.870351 68.151339 
L 216.73301 68.300377 
L 217.59567 68.725576 
L 219.32099 68.725576 
L 220.18365 68.967463 
L 221.046309 68.967463 
L 222.771629 69.646123 
L 224.496949 69.68083 
L 226.222268 70.473404 
L 227.084928 70.473404 
L 227.947588 71.120697 
L 229.672908 71.144231 
L 230.535567 71.434273 
L 233.123547 71.648824 
L 233.986207 72.05691 
L 235.711526 72.167343 
L 236.574186 72.4425 
L 237.436846 73.248052 
L 240.887485 73.304826 
L 243.475465 73.487426 
L 245.200784 74.200069 
L 246.926104 74.200069 
L 247.788764 74.925935 
L 249.514083 74.925935 
L 250.376743 75.704127 
L 252.102063 75.704127 
L 252.964723 76.400862 
L 254.690042 76.400862 
L 255.552702 77.439127 
L 259.003341 77.439127 
L 259.866001 77.611057 
L 260.728661 78.008691 
L 262.453981 78.008691 
L 263.31664 78.291719 
L 264.1793 78.798541 
L 266.76728 78.798541 
L 267.62994 79.488439 
L 268.492599 79.62691 
L 270.217919 79.729675 
L 271.080579 80.243352 
L 272.805898 80.243352 
L 273.668558 80.400811 
L 274.531218 80.692278 
L 275.393878 80.692278 
L 276.256538 80.959184 
L 277.119198 80.959184 
L 277.981857 81.526555 
L 278.844517 81.526555 
L 280.569837 81.857688 
L 281.432497 82.090525 
L 282.295156 82.614667 
L 283.157816 82.646441 
L 284.020476 83.128458 
L 284.883136 83.128458 
L 286.608456 83.365319 
L 287.471115 83.454614 
L 290.059095 84.309995 
L 290.921755 84.309995 
L 291.784414 84.460332 
L 292.647074 84.460332 
L 293.509734 84.744871 
L 294.372394 85.86303 
L 297.823033 85.86303 
L 298.685693 86.428658 
L 302.136332 86.428658 
L 303.861652 86.99828 
L 304.724312 87.107006 
L 305.586971 87.397284 
L 306.449631 88.274335 
L 308.174951 88.274335 
L 309.037611 88.511575 
L 309.900271 88.999391 
L 310.76293 89.695046 
L 316.801549 89.698718 
L 317.664209 90.288194 
L 318.526869 90.620394 
L 321.114848 90.673876 
L 321.977508 91.342665 
L 322.840168 91.409476 
L 323.702828 92.113381 
L 325.428147 92.117335 
L 326.290807 92.91859 
L 329.741446 92.91859 
L 330.604106 93.28273 
L 332.329426 93.287466 
L 333.192086 93.744072 
L 334.917405 93.833367 
L 335.780065 93.977418 
L 336.642725 94.508149 
L 337.505385 94.540589 
L 338.368044 95.486821 
L 339.230704 95.837515 
L 340.956024 95.866225 
L 342.681344 95.955247 
L 343.544003 96.42045 
L 344.406663 96.42045 
L 345.269323 96.837663 
L 346.131983 96.837663 
L 346.994643 97.055995 
L 347.857302 97.055995 
L 348.719962 97.51009 
L 350.445282 97.51009 
L 351.307942 97.686971 
L 352.170602 98.13087 
L 353.895921 98.188983 
L 354.758581 98.319354 
L 355.621241 98.994433 
L 356.483901 99.028833 
L 357.34656 99.477237 
L 359.07188 99.637391 
L 359.93454 100.041334 
L 360.7972 100.111692 
L 361.65986 100.651869 
L 362.522519 100.651869 
L 363.385179 101.075211 
L 364.247839 101.097428 
L 365.110499 101.514254 
L 366.835818 101.607278 
L 367.698478 102.120204 
L 368.561138 102.120204 
L 369.423798 102.79434 
L 371.149118 102.89344 
L 372.011777 103.006206 
L 372.279202 103.377016 
L 372.279202 103.377016 
" style="fill:none;stroke:#1ac938;stroke-linecap:round;stroke-width:1.2;"/>
   </g>
   <g id="line2d_2">
    <path clip-path="url(#pfc06e1a9fd)" d="M 69.218182 38.116702 
L 70.943501 38.786485 
L 71.806161 39.337066 
L 72.668821 39.627468 
L 74.394141 39.627468 
L 75.256801 39.770025 
L 76.11946 40.357047 
L 76.98212 40.754891 
L 79.5701 40.754891 
L 80.432759 41.384242 
L 81.295419 41.503306 
L 83.883399 41.503306 
L 85.608718 42.177262 
L 89.922017 42.196199 
L 90.784677 42.614555 
L 91.647337 43.352288 
L 92.509997 43.352288 
L 93.372657 43.563545 
L 95.097976 43.563545 
L 95.960636 43.697892 
L 96.823296 43.697892 
L 97.685956 43.923031 
L 98.548616 43.959378 
L 99.411275 44.150203 
L 101.136595 44.229158 
L 101.999255 44.664523 
L 102.861915 44.881739 
L 103.724574 44.982557 
L 104.587234 45.573494 
L 106.312554 45.573494 
L 107.175214 45.933874 
L 108.900533 45.933874 
L 109.763193 46.055212 
L 110.625853 46.552975 
L 112.351173 46.639249 
L 113.213832 47.618996 
L 115.801812 47.618996 
L 116.664472 48.272034 
L 117.527132 48.563557 
L 121.840431 48.627766 
L 122.70309 48.739371 
L 124.42841 49.315397 
L 125.29107 49.845068 
L 126.15373 50.030136 
L 127.01639 50.030136 
L 127.879049 50.539994 
L 128.741709 50.539994 
L 129.604369 50.85934 
L 130.467029 50.85934 
L 131.329689 51.141385 
L 133.917668 51.182688 
L 134.780328 51.645333 
L 135.642988 51.709413 
L 136.505647 51.914547 
L 138.230967 52.484083 
L 139.093627 53.225964 
L 140.818947 53.227249 
L 141.681606 53.657163 
L 142.544266 53.778558 
L 143.406926 54.277764 
L 144.269586 54.43835 
L 145.132246 54.451658 
L 145.994905 55.254039 
L 148.582885 55.356645 
L 149.445545 55.877129 
L 151.170864 55.962284 
L 152.033524 56.26131 
L 153.758844 56.26131 
L 156.346823 57.170275 
L 157.209483 57.170275 
L 158.072143 57.327438 
L 158.934803 57.704786 
L 159.797463 57.704786 
L 160.660122 58.291832 
L 161.522782 58.429184 
L 162.385442 58.429184 
L 164.973421 59.434261 
L 165.836081 59.434261 
L 166.698741 59.816246 
L 170.14938 60.017294 
L 171.01204 60.661771 
L 171.8747 60.661771 
L 172.73736 61.193223 
L 176.187999 61.193223 
L 177.050659 61.323897 
L 178.775978 61.417545 
L 180.501298 61.958014 
L 181.363958 61.958014 
L 183.089278 62.383989 
L 184.814597 62.709036 
L 185.677257 62.709036 
L 186.539917 62.996416 
L 187.402577 63.040806 
L 188.265236 63.275362 
L 189.990556 63.275362 
L 190.853216 64.084305 
L 193.441195 64.144482 
L 194.303855 64.565923 
L 196.891835 64.577209 
L 197.754494 65.079093 
L 198.617154 65.357004 
L 199.479814 65.390664 
L 201.205134 65.920468 
L 202.067794 66.528236 
L 204.655773 66.528236 
L 205.518433 66.94458 
L 206.381093 67.032165 
L 207.243752 67.342002 
L 208.106412 67.817371 
L 213.282371 67.920855 
L 214.145031 68.024126 
L 215.007691 68.383765 
L 215.870351 68.519868 
L 216.73301 69.062371 
L 217.59567 69.416782 
L 218.45833 69.418058 
L 219.32099 69.54818 
L 220.18365 70.382428 
L 224.496949 70.5571 
L 225.359609 71.048627 
L 226.222268 71.048627 
L 227.084928 71.5066 
L 227.947588 71.767031 
L 228.810248 72.56299 
L 230.535567 72.56299 
L 231.398227 73.11708 
L 233.123547 73.11708 
L 233.986207 73.280876 
L 234.848867 73.280876 
L 235.711526 74.308174 
L 238.299506 74.35697 
L 239.162166 74.838799 
L 240.887485 75.492755 
L 242.612805 75.492755 
L 243.475465 75.733369 
L 244.338125 76.395729 
L 245.200784 76.395729 
L 246.063444 76.909579 
L 246.926104 76.909579 
L 247.788764 77.714651 
L 252.102063 77.763178 
L 252.964723 77.942233 
L 253.827382 77.976 
L 254.690042 79.254065 
L 255.552702 79.254065 
L 256.415362 79.431047 
L 258.140682 79.519126 
L 259.003341 79.925792 
L 260.728661 79.991332 
L 261.591321 80.963555 
L 263.31664 80.963555 
L 264.1793 81.333363 
L 265.04196 81.466193 
L 265.90462 81.758783 
L 266.76728 81.758783 
L 268.492599 82.268686 
L 269.355259 82.271265 
L 270.217919 82.540453 
L 271.080579 83.168568 
L 271.943239 83.168568 
L 272.805898 83.313351 
L 274.531218 83.421608 
L 275.393878 83.593204 
L 276.256538 84.047433 
L 277.119198 84.261746 
L 277.981857 84.261746 
L 278.844517 84.395752 
L 279.707177 84.792152 
L 280.569837 84.935273 
L 281.432497 85.280882 
L 283.157816 85.280882 
L 285.745796 85.950022 
L 286.608456 86.017324 
L 287.471115 86.292678 
L 288.333775 86.708541 
L 289.196435 86.855719 
L 290.059095 87.199812 
L 290.921755 87.231536 
L 291.784414 87.386306 
L 292.647074 87.828448 
L 293.509734 87.985293 
L 294.372394 87.985293 
L 296.097713 88.508697 
L 297.823033 88.570491 
L 299.548353 88.894439 
L 300.411013 89.223091 
L 302.998992 89.759748 
L 305.586971 89.835137 
L 306.449631 90.458194 
L 308.174951 90.458194 
L 309.037611 90.642806 
L 309.900271 91.306107 
L 313.35091 91.354484 
L 314.21357 92.055056 
L 316.801549 92.064004 
L 320.252188 92.800846 
L 321.114848 92.906303 
L 322.840168 93.706883 
L 323.702828 93.706883 
L 324.565487 94.428819 
L 326.290807 94.428819 
L 327.153467 94.715885 
L 328.878787 94.72741 
L 329.741446 95.062041 
L 330.604106 95.062041 
L 334.054745 95.71384 
L 334.917405 96.065771 
L 336.642725 96.375708 
L 338.368044 96.864278 
L 339.230704 97.400179 
L 342.681344 97.400179 
L 343.544003 97.876561 
L 347.857302 98.185798 
L 349.582622 98.767015 
L 350.445282 99.731391 
L 353.895921 99.809204 
L 354.758581 100.032067 
L 357.34656 100.356118 
L 358.20922 100.700911 
L 359.07188 100.847582 
L 359.93454 101.281252 
L 361.65986 101.370466 
L 362.522519 101.67693 
L 363.385179 101.67693 
L 365.973159 102.436588 
L 366.835818 102.436588 
L 367.698478 102.591187 
L 368.561138 102.591187 
L 369.423798 102.741316 
L 370.286458 103.038557 
L 372.011777 103.051591 
L 372.874437 103.304106 
L 373.581818 103.745455 
L 373.581818 103.745455 
" style="fill:none;stroke:#e8000b;stroke-linecap:round;stroke-width:1.2;"/>
   </g>
   <g id="matplotlib.axis_1">
    <g id="xtick_1">
     <g id="line2d_3">
      <defs>
       <path d="M 0 0 
L 0 -3 
" id="m7c1c24350e" style="stroke:#000000;"/>
      </defs>
      <g>
       <use style="stroke:#000000;" x="67.492862" xlink:href="#m7c1c24350e" y="107.04"/>
      </g>
     </g>
     <g id="line2d_4">
      <defs>
       <path d="M 0 0 
L 0 3 
" id="m2635713461" style="stroke:#000000;"/>
      </defs>
      <g>
       <use style="stroke:#000000;" x="67.492862" xlink:href="#m2635713461" y="34.56"/>
      </g>
     </g>
    </g>
    <g id="xtick_2">
     <g id="line2d_5">
      <g>
       <use style="stroke:#000000;" x="110.625853" xlink:href="#m7c1c24350e" y="107.04"/>
      </g>
     </g>
     <g id="line2d_6">
      <g>
       <use style="stroke:#000000;" x="110.625853" xlink:href="#m2635713461" y="34.56"/>
      </g>
     </g>
    </g>
    <g id="xtick_3">
     <g id="line2d_7">
      <g>
       <use style="stroke:#000000;" x="153.758844" xlink:href="#m7c1c24350e" y="107.04"/>
      </g>
     </g>
     <g id="line2d_8">
      <g>
       <use style="stroke:#000000;" x="153.758844" xlink:href="#m2635713461" y="34.56"/>
      </g>
     </g>
    </g>
    <g id="xtick_4">
     <g id="line2d_9">
      <g>
       <use style="stroke:#000000;" x="196.891835" xlink:href="#m7c1c24350e" y="107.04"/>
      </g>
     </g>
     <g id="line2d_10">
      <g>
       <use style="stroke:#000000;" x="196.891835" xlink:href="#m2635713461" y="34.56"/>
      </g>
     </g>
    </g>
    <g id="xtick_5">
     <g id="line2d_11">
      <g>
       <use style="stroke:#000000;" x="240.024825" xlink:href="#m7c1c24350e" y="107.04"/>
      </g>
     </g>
     <g id="line2d_12">
      <g>
       <use style="stroke:#000000;" x="240.024825" xlink:href="#m2635713461" y="34.56"/>
      </g>
     </g>
    </g>
    <g id="xtick_6">
     <g id="line2d_13">
      <g>
       <use style="stroke:#000000;" x="283.157816" xlink:href="#m7c1c24350e" y="107.04"/>
      </g>
     </g>
     <g id="line2d_14">
      <g>
       <use style="stroke:#000000;" x="283.157816" xlink:href="#m2635713461" y="34.56"/>
      </g>
     </g>
    </g>
    <g id="xtick_7">
     <g id="line2d_15">
      <g>
       <use style="stroke:#000000;" x="326.290807" xlink:href="#m7c1c24350e" y="107.04"/>
      </g>
     </g>
     <g id="line2d_16">
      <g>
       <use style="stroke:#000000;" x="326.290807" xlink:href="#m2635713461" y="34.56"/>
      </g>
     </g>
    </g>
    <g id="xtick_8">
     <g id="line2d_17">
      <g>
       <use style="stroke:#000000;" x="369.423798" xlink:href="#m7c1c24350e" y="107.04"/>
      </g>
     </g>
     <g id="line2d_18">
      <g>
       <use style="stroke:#000000;" x="369.423798" xlink:href="#m2635713461" y="34.56"/>
      </g>
     </g>
    </g>
   </g>
   <g id="matplotlib.axis_2">
    <g id="ytick_1">
     <g id="line2d_19">
      <defs>
       <path d="M 0 0 
L 3 0 
" id="m6846de3f49" style="stroke:#000000;"/>
      </defs>
      <g>
       <use style="stroke:#000000;" x="54" xlink:href="#m6846de3f49" y="86.876837"/>
      </g>
     </g>
     <g id="line2d_20">
      <defs>
       <path d="M 0 0 
L -3 0 
" id="m65bd8d0cae" style="stroke:#000000;"/>
      </defs>
      <g>
       <use style="stroke:#000000;" x="388.8" xlink:href="#m65bd8d0cae" y="86.876837"/>
      </g>
     </g>
     <g id="text_1">
      <!-- $\mathdefault{10^{-8}}$ -->
      <defs>
       <path d="M 37.25 0 
L 28.46875 0 
L 28.46875 56 
Q 25.296875 52.984375 20.140625 49.953125 
Q 14.984375 46.921875 10.890625 45.40625 
L 10.890625 53.90625 
Q 18.265625 57.375 23.78125 62.296875 
Q 29.296875 67.234375 31.59375 71.875 
L 37.25 71.875 
z
" id="ArialMT-49"/>
       <path d="M 4.15625 35.296875 
Q 4.15625 48 6.765625 55.734375 
Q 9.375 63.484375 14.515625 67.671875 
Q 19.671875 71.875 27.484375 71.875 
Q 33.25 71.875 37.59375 69.546875 
Q 41.9375 67.234375 44.765625 62.859375 
Q 47.609375 58.5 49.21875 52.21875 
Q 50.828125 45.953125 50.828125 35.296875 
Q 50.828125 22.703125 48.234375 14.96875 
Q 45.65625 7.234375 40.5 3 
Q 35.359375 -1.21875 27.484375 -1.21875 
Q 17.140625 -1.21875 11.234375 6.203125 
Q 4.15625 15.140625 4.15625 35.296875 
z
M 13.1875 35.296875 
Q 13.1875 17.671875 17.3125 11.828125 
Q 21.4375 6 27.484375 6 
Q 33.546875 6 37.671875 11.859375 
Q 41.796875 17.71875 41.796875 35.296875 
Q 41.796875 52.984375 37.671875 58.78125 
Q 33.546875 64.59375 27.390625 64.59375 
Q 21.34375 64.59375 17.71875 59.46875 
Q 13.1875 52.9375 13.1875 35.296875 
z
" id="ArialMT-48"/>
       <path d="M 52.828125 31.203125 
L 5.5625 31.203125 
L 5.5625 39.40625 
L 52.828125 39.40625 
z
" id="ArialMT-8722"/>
       <path d="M 17.671875 38.8125 
Q 12.203125 40.828125 9.5625 44.53125 
Q 6.9375 48.25 6.9375 53.421875 
Q 6.9375 61.234375 12.546875 66.546875 
Q 18.171875 71.875 27.484375 71.875 
Q 36.859375 71.875 42.578125 66.421875 
Q 48.296875 60.984375 48.296875 53.171875 
Q 48.296875 48.1875 45.671875 44.5 
Q 43.0625 40.828125 37.75 38.8125 
Q 44.34375 36.671875 47.78125 31.875 
Q 51.21875 27.09375 51.21875 20.453125 
Q 51.21875 11.28125 44.71875 5.03125 
Q 38.234375 -1.21875 27.640625 -1.21875 
Q 17.046875 -1.21875 10.546875 5.046875 
Q 4.046875 11.328125 4.046875 20.703125 
Q 4.046875 27.6875 7.59375 32.390625 
Q 11.140625 37.109375 17.671875 38.8125 
z
M 15.921875 53.71875 
Q 15.921875 48.640625 19.1875 45.40625 
Q 22.46875 42.1875 27.6875 42.1875 
Q 32.765625 42.1875 36.015625 45.375 
Q 39.265625 48.578125 39.265625 53.21875 
Q 39.265625 58.0625 35.90625 61.359375 
Q 32.5625 64.65625 27.59375 64.65625 
Q 22.5625 64.65625 19.234375 61.421875 
Q 15.921875 58.203125 15.921875 53.71875 
z
M 13.09375 20.65625 
Q 13.09375 16.890625 14.875 13.375 
Q 16.65625 9.859375 20.171875 7.921875 
Q 23.6875 6 27.734375 6 
Q 34.03125 6 38.125 10.046875 
Q 42.234375 14.109375 42.234375 20.359375 
Q 42.234375 26.703125 38.015625 30.859375 
Q 33.796875 35.015625 27.4375 35.015625 
Q 21.234375 35.015625 17.15625 30.90625 
Q 13.09375 26.8125 13.09375 20.65625 
z
" id="ArialMT-56"/>
      </defs>
      <g transform="translate(33.076 91.414337)scale(0.088 -0.088)">
       <use transform="translate(0 0.99375)" xlink:href="#ArialMT-49"/>
       <use transform="translate(55.615234 0.99375)" xlink:href="#ArialMT-48"/>
       <use transform="translate(112.972813 70.6875)scale(0.7)" xlink:href="#ArialMT-8722"/>
       <use transform="translate(153.851719 70.6875)scale(0.7)" xlink:href="#ArialMT-56"/>
      </g>
     </g>
    </g>
    <g id="ytick_2">
     <g id="line2d_21">
      <g>
       <use style="stroke:#000000;" x="54" xlink:href="#m6846de3f49" y="66.290637"/>
      </g>
     </g>
     <g id="line2d_22">
      <g>
       <use style="stroke:#000000;" x="388.8" xlink:href="#m65bd8d0cae" y="66.290637"/>
      </g>
     </g>
     <g id="text_2">
      <!-- $\mathdefault{10^{-3}}$ -->
      <defs>
       <path d="M 4.203125 18.890625 
L 12.984375 20.0625 
Q 14.5 12.59375 18.140625 9.296875 
Q 21.78125 6 27 6 
Q 33.203125 6 37.46875 10.296875 
Q 41.75 14.59375 41.75 20.953125 
Q 41.75 27 37.796875 30.921875 
Q 33.84375 34.859375 27.734375 34.859375 
Q 25.25 34.859375 21.53125 33.890625 
L 22.515625 41.609375 
Q 23.390625 41.5 23.921875 41.5 
Q 29.546875 41.5 34.03125 44.421875 
Q 38.53125 47.359375 38.53125 53.46875 
Q 38.53125 58.296875 35.25 61.46875 
Q 31.984375 64.65625 26.8125 64.65625 
Q 21.6875 64.65625 18.265625 61.421875 
Q 14.84375 58.203125 13.875 51.765625 
L 5.078125 53.328125 
Q 6.6875 62.15625 12.390625 67.015625 
Q 18.109375 71.875 26.609375 71.875 
Q 32.46875 71.875 37.390625 69.359375 
Q 42.328125 66.84375 44.9375 62.5 
Q 47.5625 58.15625 47.5625 53.265625 
Q 47.5625 48.640625 45.0625 44.828125 
Q 42.578125 41.015625 37.703125 38.765625 
Q 44.046875 37.3125 47.5625 32.6875 
Q 51.078125 28.078125 51.078125 21.140625 
Q 51.078125 11.765625 44.234375 5.25 
Q 37.40625 -1.265625 26.953125 -1.265625 
Q 17.53125 -1.265625 11.296875 4.34375 
Q 5.078125 9.96875 4.203125 18.890625 
z
" id="ArialMT-51"/>
      </defs>
      <g transform="translate(33.076 70.828137)scale(0.088 -0.088)">
       <use transform="translate(0 0.99375)" xlink:href="#ArialMT-49"/>
       <use transform="translate(55.615234 0.99375)" xlink:href="#ArialMT-48"/>
       <use transform="translate(112.972813 70.6875)scale(0.7)" xlink:href="#ArialMT-8722"/>
       <use transform="translate(153.851719 70.6875)scale(0.7)" xlink:href="#ArialMT-51"/>
      </g>
     </g>
    </g>
    <g id="ytick_3">
     <g id="line2d_23">
      <g>
       <use style="stroke:#000000;" x="54" xlink:href="#m6846de3f49" y="45.704436"/>
      </g>
     </g>
     <g id="line2d_24">
      <g>
       <use style="stroke:#000000;" x="388.8" xlink:href="#m65bd8d0cae" y="45.704436"/>
      </g>
     </g>
     <g id="text_3">
      <!-- $\mathdefault{10^{2}}$ -->
      <defs>
       <path d="M 50.34375 8.453125 
L 50.34375 0 
L 3.03125 0 
Q 2.9375 3.171875 4.046875 6.109375 
Q 5.859375 10.9375 9.828125 15.625 
Q 13.8125 20.3125 21.34375 26.46875 
Q 33.015625 36.03125 37.109375 41.625 
Q 41.21875 47.21875 41.21875 52.203125 
Q 41.21875 57.421875 37.46875 61 
Q 33.734375 64.59375 27.734375 64.59375 
Q 21.390625 64.59375 17.578125 60.78125 
Q 13.765625 56.984375 13.71875 50.25 
L 4.6875 51.171875 
Q 5.609375 61.28125 11.65625 66.578125 
Q 17.71875 71.875 27.9375 71.875 
Q 38.234375 71.875 44.234375 66.15625 
Q 50.25 60.453125 50.25 52 
Q 50.25 47.703125 48.484375 43.546875 
Q 46.734375 39.40625 42.65625 34.8125 
Q 38.578125 30.21875 29.109375 22.21875 
Q 21.1875 15.578125 18.9375 13.203125 
Q 16.703125 10.84375 15.234375 8.453125 
z
" id="ArialMT-50"/>
      </defs>
      <g transform="translate(36.684 50.241936)scale(0.088 -0.088)">
       <use transform="translate(0 0.99375)" xlink:href="#ArialMT-49"/>
       <use transform="translate(55.615234 0.99375)" xlink:href="#ArialMT-48"/>
       <use transform="translate(112.972813 70.6875)scale(0.7)" xlink:href="#ArialMT-50"/>
      </g>
     </g>
    </g>
    <g id="text_4">
     <!-- fitness -->
     <defs>
      <path d="M 8.6875 0 
L 8.6875 45.015625 
L 0.921875 45.015625 
L 0.921875 51.859375 
L 8.6875 51.859375 
L 8.6875 57.375 
Q 8.6875 62.59375 9.625 65.140625 
Q 10.890625 68.5625 14.078125 70.671875 
Q 17.28125 72.796875 23.046875 72.796875 
Q 26.765625 72.796875 31.25 71.921875 
L 29.9375 64.265625 
Q 27.203125 64.75 24.75 64.75 
Q 20.75 64.75 19.09375 63.03125 
Q 17.4375 61.328125 17.4375 56.640625 
L 17.4375 51.859375 
L 27.546875 51.859375 
L 27.546875 45.015625 
L 17.4375 45.015625 
L 17.4375 0 
z
" id="ArialMT-102"/>
      <path d="M 6.640625 61.46875 
L 6.640625 71.578125 
L 15.4375 71.578125 
L 15.4375 61.46875 
z
M 6.640625 0 
L 6.640625 51.859375 
L 15.4375 51.859375 
L 15.4375 0 
z
" id="ArialMT-105"/>
      <path d="M 25.78125 7.859375 
L 27.046875 0.09375 
Q 23.34375 -0.6875 20.40625 -0.6875 
Q 15.625 -0.6875 12.984375 0.828125 
Q 10.359375 2.34375 9.28125 4.8125 
Q 8.203125 7.28125 8.203125 15.1875 
L 8.203125 45.015625 
L 1.765625 45.015625 
L 1.765625 51.859375 
L 8.203125 51.859375 
L 8.203125 64.703125 
L 16.9375 69.96875 
L 16.9375 51.859375 
L 25.78125 51.859375 
L 25.78125 45.015625 
L 16.9375 45.015625 
L 16.9375 14.703125 
Q 16.9375 10.9375 17.40625 9.859375 
Q 17.875 8.796875 18.921875 8.15625 
Q 19.96875 7.515625 21.921875 7.515625 
Q 23.390625 7.515625 25.78125 7.859375 
z
" id="ArialMT-116"/>
      <path d="M 6.59375 0 
L 6.59375 51.859375 
L 14.5 51.859375 
L 14.5 44.484375 
Q 20.21875 53.03125 31 53.03125 
Q 35.6875 53.03125 39.625 51.34375 
Q 43.5625 49.65625 45.515625 46.921875 
Q 47.46875 44.1875 48.25 40.4375 
Q 48.734375 37.984375 48.734375 31.890625 
L 48.734375 0 
L 39.9375 0 
L 39.9375 31.546875 
Q 39.9375 36.921875 38.90625 39.578125 
Q 37.890625 42.234375 35.28125 43.8125 
Q 32.671875 45.40625 29.15625 45.40625 
Q 23.53125 45.40625 19.453125 41.84375 
Q 15.375 38.28125 15.375 28.328125 
L 15.375 0 
z
" id="ArialMT-110"/>
      <path d="M 42.09375 16.703125 
L 51.171875 15.578125 
Q 49.03125 7.625 43.21875 3.21875 
Q 37.40625 -1.171875 28.375 -1.171875 
Q 17 -1.171875 10.328125 5.828125 
Q 3.65625 12.84375 3.65625 25.484375 
Q 3.65625 38.578125 10.390625 45.796875 
Q 17.140625 53.03125 27.875 53.03125 
Q 38.28125 53.03125 44.875 45.953125 
Q 51.46875 38.875 51.46875 26.03125 
Q 51.46875 25.25 51.421875 23.6875 
L 12.75 23.6875 
Q 13.234375 15.140625 17.578125 10.59375 
Q 21.921875 6.0625 28.421875 6.0625 
Q 33.25 6.0625 36.671875 8.59375 
Q 40.09375 11.140625 42.09375 16.703125 
z
M 13.234375 30.90625 
L 42.1875 30.90625 
Q 41.609375 37.453125 38.875 40.71875 
Q 34.671875 45.796875 27.984375 45.796875 
Q 21.921875 45.796875 17.796875 41.75 
Q 13.671875 37.703125 13.234375 30.90625 
z
" id="ArialMT-101"/>
      <path d="M 3.078125 15.484375 
L 11.765625 16.84375 
Q 12.5 11.625 15.84375 8.84375 
Q 19.1875 6.0625 25.203125 6.0625 
Q 31.25 6.0625 34.171875 8.515625 
Q 37.109375 10.984375 37.109375 14.3125 
Q 37.109375 17.28125 34.515625 19 
Q 32.71875 20.171875 25.53125 21.96875 
Q 15.875 24.421875 12.140625 26.203125 
Q 8.40625 27.984375 6.46875 31.125 
Q 4.546875 34.28125 4.546875 38.09375 
Q 4.546875 41.546875 6.125 44.5 
Q 7.71875 47.46875 10.453125 49.421875 
Q 12.5 50.921875 16.03125 51.96875 
Q 19.578125 53.03125 23.640625 53.03125 
Q 29.734375 53.03125 34.34375 51.265625 
Q 38.96875 49.515625 41.15625 46.5 
Q 43.359375 43.5 44.1875 38.484375 
L 35.59375 37.3125 
Q 35.015625 41.3125 32.203125 43.546875 
Q 29.390625 45.796875 24.265625 45.796875 
Q 18.21875 45.796875 15.625 43.796875 
Q 13.03125 41.796875 13.03125 39.109375 
Q 13.03125 37.40625 14.109375 36.03125 
Q 15.1875 34.625 17.484375 33.6875 
Q 18.796875 33.203125 25.25 31.453125 
Q 34.578125 28.953125 38.25 27.359375 
Q 41.9375 25.78125 44.03125 22.75 
Q 46.140625 19.734375 46.140625 15.234375 
Q 46.140625 10.84375 43.578125 6.953125 
Q 41.015625 3.078125 36.171875 0.953125 
Q 31.34375 -1.171875 25.25 -1.171875 
Q 15.140625 -1.171875 9.84375 3.03125 
Q 4.546875 7.234375 3.078125 15.484375 
z
" id="ArialMT-115"/>
     </defs>
     <g transform="translate(27.168 84.672)rotate(-90)scale(0.096 -0.096)">
      <use xlink:href="#ArialMT-102"/>
      <use x="27.783203" xlink:href="#ArialMT-105"/>
      <use x="50" xlink:href="#ArialMT-116"/>
      <use x="77.783203" xlink:href="#ArialMT-110"/>
      <use x="133.398438" xlink:href="#ArialMT-101"/>
      <use x="189.013672" xlink:href="#ArialMT-115"/>
      <use x="239.013672" xlink:href="#ArialMT-115"/>
     </g>
    </g>
   </g>
   <g id="patch_3">
    <path d="M 54 107.04 
L 54 34.56 
" style="fill:none;stroke:#000000;stroke-linecap:square;stroke-linejoin:miter;"/>
   </g>
   <g id="patch_4">
    <path d="M 388.8 107.04 
L 388.8 34.56 
" style="fill:none;stroke:#000000;stroke-linecap:square;stroke-linejoin:miter;"/>
   </g>
   <g id="patch_5">
    <path d="M 54 107.04 
L 388.8 107.04 
" style="fill:none;stroke:#000000;stroke-linecap:square;stroke-linejoin:miter;"/>
   </g>
   <g id="patch_6">
    <path d="M 54 34.56 
L 388.8 34.56 
" style="fill:none;stroke:#000000;stroke-linecap:square;stroke-linejoin:miter;"/>
   </g>
   <g id="legend_1">
    <g id="patch_7">
     <path d="M 343.075125 68.49575 
L 384.64 68.49575 
Q 386.4 68.49575 386.4 66.73575 
L 386.4 42.72 
Q 386.4 40.96 384.64 40.96 
L 343.075125 40.96 
Q 341.315125 40.96 341.315125 42.72 
L 341.315125 66.73575 
Q 341.315125 68.49575 343.075125 68.49575 
z
" style="fill:#4c4c4c;opacity:0.5;stroke:#4c4c4c;stroke-linejoin:miter;stroke-width:0.8;"/>
    </g>
    <g id="patch_8">
     <path d="M 341.075125 66.49575 
L 382.64 66.49575 
Q 384.4 66.49575 384.4 64.73575 
L 384.4 40.72 
Q 384.4 38.96 382.64 38.96 
L 341.075125 38.96 
Q 339.315125 38.96 339.315125 40.72 
L 339.315125 64.73575 
Q 339.315125 66.49575 341.075125 66.49575 
z
" style="fill:#ffffff;stroke:#000000;stroke-linejoin:miter;stroke-width:0.8;"/>
    </g>
    <g id="line2d_25">
     <path d="M 342.835125 45.698875 
L 349.875125 45.698875 
" style="fill:none;stroke:#e8000b;stroke-linecap:round;stroke-width:1.2;"/>
    </g>
    <g id="line2d_26"/>
    <g id="text_5">
     <!-- PEDE -->
     <defs>
      <path d="M 7.71875 0 
L 7.71875 71.578125 
L 34.71875 71.578125 
Q 41.84375 71.578125 45.609375 70.90625 
Q 50.875 70.015625 54.4375 67.546875 
Q 58.015625 65.09375 60.1875 60.640625 
Q 62.359375 56.203125 62.359375 50.875 
Q 62.359375 41.75 56.546875 35.421875 
Q 50.734375 29.109375 35.546875 29.109375 
L 17.1875 29.109375 
L 17.1875 0 
z
M 17.1875 37.546875 
L 35.6875 37.546875 
Q 44.875 37.546875 48.734375 40.96875 
Q 52.59375 44.390625 52.59375 50.59375 
Q 52.59375 55.078125 50.3125 58.265625 
Q 48.046875 61.46875 44.34375 62.5 
Q 41.9375 63.140625 35.5 63.140625 
L 17.1875 63.140625 
z
" id="ArialMT-80"/>
      <path d="M 7.90625 0 
L 7.90625 71.578125 
L 59.671875 71.578125 
L 59.671875 63.140625 
L 17.390625 63.140625 
L 17.390625 41.21875 
L 56.984375 41.21875 
L 56.984375 32.8125 
L 17.390625 32.8125 
L 17.390625 8.453125 
L 61.328125 8.453125 
L 61.328125 0 
z
" id="ArialMT-69"/>
      <path d="M 7.71875 0 
L 7.71875 71.578125 
L 32.375 71.578125 
Q 40.71875 71.578125 45.125 70.5625 
Q 51.265625 69.140625 55.609375 65.4375 
Q 61.28125 60.640625 64.078125 53.1875 
Q 66.890625 45.75 66.890625 36.1875 
Q 66.890625 28.03125 64.984375 21.734375 
Q 63.09375 15.4375 60.109375 11.296875 
Q 57.125 7.171875 53.578125 4.796875 
Q 50.046875 2.4375 45.046875 1.21875 
Q 40.046875 0 33.546875 0 
z
M 17.1875 8.453125 
L 32.46875 8.453125 
Q 39.546875 8.453125 43.578125 9.765625 
Q 47.609375 11.078125 50 13.484375 
Q 53.375 16.84375 55.25 22.53125 
Q 57.125 28.21875 57.125 36.328125 
Q 57.125 47.5625 53.4375 53.59375 
Q 49.75 59.625 44.484375 61.671875 
Q 40.671875 63.140625 32.234375 63.140625 
L 17.1875 63.140625 
z
" id="ArialMT-68"/>
     </defs>
     <g transform="translate(356.915125 48.778875)scale(0.088 -0.088)">
      <use xlink:href="#ArialMT-80"/>
      <use x="66.699219" xlink:href="#ArialMT-69"/>
      <use x="133.398438" xlink:href="#ArialMT-68"/>
      <use x="205.615234" xlink:href="#ArialMT-69"/>
     </g>
    </g>
    <g id="line2d_27">
     <path d="M 342.835125 58.14675 
L 349.875125 58.14675 
" style="fill:none;stroke:#1ac938;stroke-linecap:round;stroke-width:1.2;"/>
    </g>
    <g id="line2d_28"/>
    <g id="text_6">
     <!-- JADE -->
     <defs>
      <path d="M 2.875 20.3125 
L 11.421875 21.484375 
Q 11.765625 13.28125 14.5 10.25 
Q 17.234375 7.234375 22.078125 7.234375 
Q 25.640625 7.234375 28.21875 8.859375 
Q 30.8125 10.5 31.78125 13.296875 
Q 32.765625 16.109375 32.765625 22.265625 
L 32.765625 71.578125 
L 42.234375 71.578125 
L 42.234375 22.796875 
Q 42.234375 13.8125 40.0625 8.875 
Q 37.890625 3.953125 33.171875 1.359375 
Q 28.46875 -1.21875 22.125 -1.21875 
Q 12.703125 -1.21875 7.6875 4.203125 
Q 2.6875 9.625 2.875 20.3125 
z
" id="ArialMT-74"/>
      <path d="M -0.140625 0 
L 27.34375 71.578125 
L 37.546875 71.578125 
L 66.84375 0 
L 56.0625 0 
L 47.703125 21.6875 
L 17.78125 21.6875 
L 9.90625 0 
z
M 20.515625 29.390625 
L 44.78125 29.390625 
L 37.3125 49.21875 
Q 33.890625 58.25 32.234375 64.0625 
Q 30.859375 57.171875 28.375 50.390625 
z
" id="ArialMT-65"/>
     </defs>
     <g transform="translate(356.915125 61.22675)scale(0.088 -0.088)">
      <use xlink:href="#ArialMT-74"/>
      <use x="50" xlink:href="#ArialMT-65"/>
      <use x="116.699219" xlink:href="#ArialMT-68"/>
      <use x="188.916016" xlink:href="#ArialMT-69"/>
     </g>
    </g>
   </g>
  </g>
  <g id="axes_2">
   <g id="patch_9">
    <path d="M 54 179.52 
L 388.8 179.52 
L 388.8 107.04 
L 54 107.04 
z
" style="fill:#ffffff;"/>
   </g>
   <g id="line2d_29">
    <path clip-path="url(#pac443dd1bd)" d="M 69.218182 134.915123 
L 70.080842 130.408381 
L 70.943501 151.582093 
L 71.806161 133.988865 
L 72.668821 140.234119 
L 73.531481 155.099977 
L 74.394141 137.088241 
L 75.256801 145.325017 
L 76.11946 139.307502 
L 76.98212 139.805976 
L 77.84478 139.777635 
L 78.70744 142.855262 
L 79.5701 129.208396 
L 80.432759 149.4266 
L 81.295419 128.571618 
L 82.158079 135.657547 
L 83.020739 128.874972 
L 83.883399 146.901754 
L 84.746059 134.023261 
L 85.608718 144.776403 
L 86.471378 142.861289 
L 87.334038 139.308311 
L 88.196698 128.090469 
L 89.059358 134.033349 
L 89.922017 141.340542 
L 90.784677 129.704404 
L 91.647337 146.185354 
L 92.509997 124.105654 
L 93.372657 136.127544 
L 94.235316 135.513914 
L 95.097976 133.513726 
L 95.960636 128.285148 
L 96.823296 143.503168 
L 97.685956 135.689669 
L 98.548616 148.606573 
L 99.411275 137.883981 
L 100.273935 147.582461 
L 101.136595 152.878269 
L 101.999255 137.82318 
L 102.861915 132.941816 
L 103.724574 135.269294 
L 104.587234 114.080386 
L 105.449894 131.16078 
L 106.312554 135.413129 
L 107.175214 130.2658 
L 108.037874 127.416544 
L 108.900533 131.798415 
L 109.763193 132.888256 
L 110.625853 130.693429 
L 111.488513 126.032116 
L 112.351173 139.332583 
L 113.213832 119.75912 
L 114.076492 123.196142 
L 114.939152 114.642483 
L 115.801812 140.872721 
L 116.664472 130.620177 
L 117.527132 130.748477 
L 118.389791 136.735179 
L 119.252451 137.078836 
L 120.115111 140.364639 
L 120.977771 129.246159 
L 121.840431 123.298186 
L 122.70309 129.215771 
L 123.56575 122.315697 
L 124.42841 121.474956 
L 125.29107 135.18692 
L 126.15373 118.76301 
L 127.01639 121.615722 
L 127.879049 127.640642 
L 128.741709 121.389309 
L 129.604369 132.207085 
L 130.467029 119.52448 
L 131.329689 122.888156 
L 132.192348 136.937924 
L 133.055008 125.654542 
L 133.917668 136.945127 
L 134.780328 132.171994 
L 135.642988 123.939387 
L 136.505647 120.769909 
L 137.368307 122.348814 
L 138.230967 123.375798 
L 139.093627 121.069336 
L 139.956287 127.216708 
L 140.818947 118.892078 
L 141.681606 124.441676 
L 142.544266 127.447405 
L 143.406926 124.763933 
L 144.269586 114.472019 
L 145.132246 125.923653 
L 145.994905 128.089779 
L 146.857565 123.975865 
L 147.720225 127.41785 
L 148.582885 122.292187 
L 149.445545 124.848543 
L 150.308205 130.040818 
L 151.170864 126.157751 
L 152.033524 130.697857 
L 152.896184 125.35532 
L 153.758844 121.479631 
L 154.621504 123.031316 
L 155.484163 121.987291 
L 156.346823 113.167322 
L 157.209483 134.700465 
L 158.072143 123.805924 
L 158.934803 120.020013 
L 159.797463 121.220083 
L 160.660122 129.175475 
L 161.522782 125.343597 
L 162.385442 117.703883 
L 163.248102 121.005388 
L 164.110762 118.053381 
L 164.973421 122.796253 
L 165.836081 123.051528 
L 166.698741 136.659097 
L 167.561401 138.843875 
L 168.424061 133.298303 
L 169.286721 122.542171 
L 170.14938 122.340769 
L 171.01204 133.150014 
L 171.8747 129.107519 
L 172.73736 114.042938 
L 173.60002 124.91346 
L 174.462679 137.204773 
L 175.325339 121.494981 
L 176.187999 128.16653 
L 177.050659 124.345358 
L 177.913319 133.887494 
L 178.775978 127.275749 
L 179.638638 130.003826 
L 180.501298 142.712725 
L 181.363958 126.597474 
L 182.226618 127.15973 
L 183.089278 139.718594 
L 183.951937 137.861192 
L 184.814597 125.865317 
L 185.677257 138.727928 
L 186.539917 131.351297 
L 187.402577 120.336694 
L 188.265236 138.914157 
L 189.127896 126.152605 
L 189.990556 124.394498 
L 190.853216 126.504972 
L 191.715876 122.200643 
L 192.578536 126.769757 
L 193.441195 125.934498 
L 194.303855 119.45277 
L 195.166515 132.520561 
L 196.029175 129.556128 
L 196.891835 134.656722 
L 197.754494 138.833715 
L 198.617154 131.38437 
L 199.479814 130.025626 
L 200.342474 123.569567 
L 201.205134 129.956888 
L 202.067794 117.804339 
L 202.930453 133.657747 
L 203.793113 126.11923 
L 204.655773 132.677574 
L 205.518433 131.808729 
L 206.381093 126.26773 
L 207.243752 119.493102 
L 208.106412 127.371899 
L 209.831732 135.321917 
L 210.694392 117.208996 
L 211.557051 134.606692 
L 212.419711 134.547968 
L 213.282371 126.293038 
L 214.145031 127.322851 
L 215.007691 129.483794 
L 215.870351 128.473903 
L 216.73301 134.17477 
L 217.59567 121.733948 
L 218.45833 139.800921 
L 219.32099 134.717169 
L 220.18365 130.582425 
L 221.046309 120.150392 
L 221.908969 145.105423 
L 222.771629 125.107521 
L 223.634289 124.862868 
L 224.496949 142.672033 
L 225.359609 119.362957 
L 226.222268 129.25931 
L 227.084928 110.334545 
L 227.947588 130.303317 
L 228.810248 126.4859 
L 229.672908 117.1635 
L 230.535567 116.063227 
L 231.398227 121.651478 
L 233.123547 129.510206 
L 233.986207 119.724227 
L 234.848867 139.071002 
L 235.711526 129.534284 
L 236.574186 117.791881 
L 237.436846 135.803261 
L 238.299506 126.936345 
L 239.162166 130.439587 
L 240.024825 127.467523 
L 240.887485 133.856543 
L 241.750145 133.499329 
L 242.612805 126.447638 
L 243.475465 121.215583 
L 244.338125 121.913437 
L 245.200784 129.760286 
L 246.063444 134.162598 
L 246.926104 133.821056 
L 247.788764 131.334542 
L 248.651424 132.165777 
L 249.514083 143.840883 
L 250.376743 128.009716 
L 251.239403 130.080863 
L 252.102063 124.856038 
L 252.964723 132.079993 
L 253.827382 129.412917 
L 254.690042 124.68169 
L 255.552702 129.881577 
L 256.415362 125.322959 
L 257.278022 131.307216 
L 258.140682 140.586957 
L 259.003341 126.571591 
L 259.866001 143.077347 
L 260.728661 141.421839 
L 261.591321 129.14404 
L 262.453981 129.478901 
L 263.31664 130.074254 
L 264.1793 129.528269 
L 265.04196 133.067803 
L 265.90462 142.998976 
L 266.76728 126.518724 
L 267.62994 121.69529 
L 268.492599 124.545619 
L 269.355259 131.641833 
L 270.217919 121.083259 
L 271.080579 128.393858 
L 271.943239 127.893505 
L 272.805898 131.664371 
L 273.668558 128.85786 
L 274.531218 127.563754 
L 275.393878 121.456324 
L 276.256538 127.50434 
L 277.119198 138.485813 
L 277.981857 146.799505 
L 278.844517 132.507627 
L 279.707177 130.978396 
L 280.569837 134.500161 
L 281.432497 135.640258 
L 282.295156 132.116192 
L 283.157816 129.342082 
L 284.020476 127.445825 
L 284.883136 137.45029 
L 285.745796 138.119664 
L 286.608456 132.995471 
L 287.471115 140.999919 
L 288.333775 138.230842 
L 289.196435 133.660352 
L 290.059095 138.300859 
L 290.921755 134.169709 
L 291.784414 132.728803 
L 292.647074 135.560894 
L 293.509734 128.885945 
L 294.372394 123.890521 
L 295.235054 146.785526 
L 296.097713 135.584574 
L 296.960373 135.474483 
L 297.823033 141.097307 
L 298.685693 133.760906 
L 299.548353 138.830975 
L 300.411013 130.628395 
L 301.273672 131.679305 
L 302.136332 145.354575 
L 302.998992 137.780319 
L 303.861652 136.956758 
L 304.724312 138.975372 
L 305.586971 139.919165 
L 306.449631 132.421522 
L 307.312291 134.913101 
L 308.174951 136.319357 
L 309.037611 133.053989 
L 309.900271 129.257311 
L 310.76293 131.102199 
L 311.62559 124.500669 
L 312.48825 119.190154 
L 313.35091 133.340716 
L 314.21357 141.658528 
L 315.076229 132.200907 
L 315.938889 132.008582 
L 316.801549 118.009054 
L 317.664209 135.202711 
L 318.526869 126.531681 
L 319.389529 135.398858 
L 320.252188 126.994549 
L 321.114848 126.941946 
L 321.977508 140.397384 
L 322.840168 133.890801 
L 323.702828 140.690682 
L 324.565487 141.368201 
L 325.428147 137.917869 
L 326.290807 125.167984 
L 327.153467 134.703577 
L 328.016127 129.92109 
L 328.878787 130.425966 
L 329.741446 130.255284 
L 330.604106 131.61618 
L 331.466766 126.112117 
L 333.192086 139.915165 
L 334.054745 115.008716 
L 334.917405 138.82865 
L 335.780065 128.135266 
L 336.642725 127.153224 
L 337.505385 143.878489 
L 338.368044 139.415062 
L 339.230704 128.332906 
L 340.093364 127.600425 
L 340.956024 134.763643 
L 341.818684 146.708388 
L 342.681344 129.772849 
L 343.544003 141.355803 
L 344.406663 130.643342 
L 345.269323 126.630557 
L 346.131983 124.293507 
L 346.994643 133.090651 
L 347.857302 132.303389 
L 348.719962 133.735651 
L 349.582622 130.167175 
L 350.445282 137.329753 
L 351.307942 137.591638 
L 352.170602 124.474064 
L 353.033261 127.371872 
L 353.895921 138.959147 
L 354.758581 134.780611 
L 355.621241 121.584023 
L 357.34656 144.973432 
L 358.20922 127.356263 
L 359.07188 131.086467 
L 359.93454 121.911719 
L 360.7972 131.741409 
L 361.65986 123.12489 
L 362.522519 120.8255 
L 363.385179 139.012939 
L 364.247839 115.698531 
L 365.110499 139.8161 
L 365.973159 128.439888 
L 366.835818 157.278262 
L 367.698478 131.077956 
L 368.561138 125.76463 
L 369.423798 135.248072 
L 370.286458 130.50451 
L 371.149118 120.152 
L 372.011777 141.513605 
L 372.279202 137.284396 
L 372.279202 137.284396 
" style="fill:none;stroke:#1ac938;stroke-linecap:round;stroke-width:1.2;"/>
   </g>
   <g id="line2d_30">
    <path clip-path="url(#pac443dd1bd)" d="M 69.218182 126.343561 
L 76.98212 126.448598 
L 77.84478 116.244027 
L 81.295419 116.244027 
L 82.158079 115.236282 
L 85.608718 115.236282 
L 86.471378 125.605001 
L 89.922017 125.605001 
L 90.784677 120.043406 
L 94.235316 120.043406 
L 95.097976 129.4025 
L 98.548616 129.4025 
L 99.411275 130.851978 
L 102.861915 130.851978 
L 103.724574 128.623064 
L 107.175214 128.623064 
L 108.037874 132.070616 
L 111.488513 132.070616 
L 112.351173 133.926708 
L 115.801812 133.926708 
L 116.664472 146.234447 
L 120.115111 146.234447 
L 120.977771 139.970091 
L 124.42841 139.970091 
L 125.29107 142.856371 
L 128.741709 142.856371 
L 129.604369 152.317014 
L 133.055008 152.317014 
L 133.917668 139.874071 
L 137.368307 139.874071 
L 138.230967 147.6911 
L 141.681606 147.6911 
L 142.544266 158.22314 
L 145.994905 158.22314 
L 146.857565 161.351681 
L 150.308205 161.351681 
L 151.170864 158.309485 
L 154.621504 158.309485 
L 155.484163 148.474745 
L 158.934803 148.474745 
L 159.797463 150.740872 
L 163.248102 150.740872 
L 164.110762 152.060966 
L 167.561401 152.060966 
L 168.424061 152.568809 
L 171.8747 152.568809 
L 172.73736 148.221644 
L 176.187999 148.221644 
L 177.050659 144.395349 
L 180.501298 144.395349 
L 181.363958 147.66766 
L 184.814597 147.66766 
L 185.677257 150.725571 
L 189.127896 150.725571 
L 189.990556 149.444233 
L 193.441195 149.444233 
L 194.303855 151.331389 
L 197.754494 151.331389 
L 198.617154 145.522063 
L 202.067794 145.522063 
L 202.930453 155.094415 
L 206.381093 155.094415 
L 207.243752 153.083429 
L 210.694392 153.083429 
L 211.557051 163.545685 
L 215.007691 163.545685 
L 215.870351 162.103228 
L 219.32099 162.103228 
L 220.18365 154.985559 
L 223.634289 154.985559 
L 224.496949 144.459035 
L 227.947588 144.459035 
L 228.810248 150.120653 
L 232.260887 150.120653 
L 233.123547 151.579632 
L 236.574186 151.579632 
L 237.436846 144.458369 
L 240.887485 144.458369 
L 241.750145 142.422416 
L 245.200784 142.422416 
L 246.063444 149.041854 
L 249.514083 149.041854 
L 250.376743 152.470293 
L 258.140682 152.38079 
L 259.003341 149.398333 
L 262.453981 149.398333 
L 263.31664 155.522836 
L 266.76728 155.522836 
L 267.62994 168.283091 
L 271.080579 168.283091 
L 271.943239 166.527004 
L 275.393878 166.527004 
L 276.256538 176.225455 
L 279.707177 176.225455 
L 280.569837 175.847115 
L 284.020476 175.847115 
L 284.883136 170.385226 
L 288.333775 170.385226 
L 289.196435 154.704469 
L 292.647074 154.704469 
L 293.509734 140.161078 
L 296.960373 140.161078 
L 297.823033 146.260005 
L 301.273672 146.260005 
L 302.136332 145.829701 
L 305.586971 145.829701 
L 306.449631 140.102234 
L 309.900271 140.102234 
L 310.76293 134.352298 
L 314.21357 134.352298 
L 315.076229 125.532393 
L 318.526869 125.532393 
L 319.389529 131.23384 
L 322.840168 131.23384 
L 323.702828 142.903891 
L 327.153467 142.903891 
L 328.016127 146.543991 
L 331.466766 146.543991 
L 332.329426 146.071758 
L 335.780065 146.071758 
L 336.642725 137.609877 
L 340.093364 137.609877 
L 340.956024 132.360214 
L 344.406663 132.360214 
L 345.269323 139.866735 
L 348.719962 139.866735 
L 349.582622 136.684599 
L 353.033261 136.684599 
L 353.895921 133.078653 
L 357.34656 133.078653 
L 358.20922 141.191066 
L 361.65986 141.191066 
L 362.522519 136.044391 
L 365.973159 136.044391 
L 366.835818 130.953968 
L 370.286458 130.953968 
L 371.149118 134.570239 
L 373.581818 134.570239 
L 373.581818 134.570239 
" style="fill:none;stroke:#e8000b;stroke-linecap:round;stroke-width:1.2;"/>
   </g>
   <g id="matplotlib.axis_3">
    <g id="xtick_9">
     <g id="line2d_31">
      <g>
       <use style="stroke:#000000;" x="67.492862" xlink:href="#m7c1c24350e" y="179.52"/>
      </g>
     </g>
     <g id="line2d_32">
      <g>
       <use style="stroke:#000000;" x="67.492862" xlink:href="#m2635713461" y="107.04"/>
      </g>
     </g>
    </g>
    <g id="xtick_10">
     <g id="line2d_33">
      <g>
       <use style="stroke:#000000;" x="110.625853" xlink:href="#m7c1c24350e" y="179.52"/>
      </g>
     </g>
     <g id="line2d_34">
      <g>
       <use style="stroke:#000000;" x="110.625853" xlink:href="#m2635713461" y="107.04"/>
      </g>
     </g>
    </g>
    <g id="xtick_11">
     <g id="line2d_35">
      <g>
       <use style="stroke:#000000;" x="153.758844" xlink:href="#m7c1c24350e" y="179.52"/>
      </g>
     </g>
     <g id="line2d_36">
      <g>
       <use style="stroke:#000000;" x="153.758844" xlink:href="#m2635713461" y="107.04"/>
      </g>
     </g>
    </g>
    <g id="xtick_12">
     <g id="line2d_37">
      <g>
       <use style="stroke:#000000;" x="196.891835" xlink:href="#m7c1c24350e" y="179.52"/>
      </g>
     </g>
     <g id="line2d_38">
      <g>
       <use style="stroke:#000000;" x="196.891835" xlink:href="#m2635713461" y="107.04"/>
      </g>
     </g>
    </g>
    <g id="xtick_13">
     <g id="line2d_39">
      <g>
       <use style="stroke:#000000;" x="240.024825" xlink:href="#m7c1c24350e" y="179.52"/>
      </g>
     </g>
     <g id="line2d_40">
      <g>
       <use style="stroke:#000000;" x="240.024825" xlink:href="#m2635713461" y="107.04"/>
      </g>
     </g>
    </g>
    <g id="xtick_14">
     <g id="line2d_41">
      <g>
       <use style="stroke:#000000;" x="283.157816" xlink:href="#m7c1c24350e" y="179.52"/>
      </g>
     </g>
     <g id="line2d_42">
      <g>
       <use style="stroke:#000000;" x="283.157816" xlink:href="#m2635713461" y="107.04"/>
      </g>
     </g>
    </g>
    <g id="xtick_15">
     <g id="line2d_43">
      <g>
       <use style="stroke:#000000;" x="326.290807" xlink:href="#m7c1c24350e" y="179.52"/>
      </g>
     </g>
     <g id="line2d_44">
      <g>
       <use style="stroke:#000000;" x="326.290807" xlink:href="#m2635713461" y="107.04"/>
      </g>
     </g>
    </g>
    <g id="xtick_16">
     <g id="line2d_45">
      <g>
       <use style="stroke:#000000;" x="369.423798" xlink:href="#m7c1c24350e" y="179.52"/>
      </g>
     </g>
     <g id="line2d_46">
      <g>
       <use style="stroke:#000000;" x="369.423798" xlink:href="#m2635713461" y="107.04"/>
      </g>
     </g>
    </g>
   </g>
   <g id="matplotlib.axis_4">
    <g id="ytick_4">
     <g id="line2d_47">
      <g>
       <use style="stroke:#000000;" x="54" xlink:href="#m6846de3f49" y="176.885308"/>
      </g>
     </g>
     <g id="line2d_48">
      <g>
       <use style="stroke:#000000;" x="388.8" xlink:href="#m65bd8d0cae" y="176.885308"/>
      </g>
     </g>
     <g id="text_7">
      <!-- 0.4 -->
      <defs>
       <path d="M 9.078125 0 
L 9.078125 10.015625 
L 19.09375 10.015625 
L 19.09375 0 
z
" id="ArialMT-46"/>
       <path d="M 32.328125 0 
L 32.328125 17.140625 
L 1.265625 17.140625 
L 1.265625 25.203125 
L 33.9375 71.578125 
L 41.109375 71.578125 
L 41.109375 25.203125 
L 50.78125 25.203125 
L 50.78125 17.140625 
L 41.109375 17.140625 
L 41.109375 0 
z
M 32.328125 25.203125 
L 32.328125 57.46875 
L 9.90625 25.203125 
z
" id="ArialMT-52"/>
      </defs>
      <g transform="translate(38.268 180.034746)scale(0.088 -0.088)">
       <use xlink:href="#ArialMT-48"/>
       <use x="55.615234" xlink:href="#ArialMT-46"/>
       <use x="83.398438" xlink:href="#ArialMT-52"/>
      </g>
     </g>
    </g>
    <g id="ytick_5">
     <g id="line2d_49">
      <g>
       <use style="stroke:#000000;" x="54" xlink:href="#m6846de3f49" y="145.56402"/>
      </g>
     </g>
     <g id="line2d_50">
      <g>
       <use style="stroke:#000000;" x="388.8" xlink:href="#m65bd8d0cae" y="145.56402"/>
      </g>
     </g>
     <g id="text_8">
      <!-- 0.5 -->
      <defs>
       <path d="M 4.15625 18.75 
L 13.375 19.53125 
Q 14.40625 12.796875 18.140625 9.390625 
Q 21.875 6 27.15625 6 
Q 33.5 6 37.890625 10.78125 
Q 42.28125 15.578125 42.28125 23.484375 
Q 42.28125 31 38.0625 35.34375 
Q 33.84375 39.703125 27 39.703125 
Q 22.75 39.703125 19.328125 37.765625 
Q 15.921875 35.84375 13.96875 32.765625 
L 5.71875 33.84375 
L 12.640625 70.609375 
L 48.25 70.609375 
L 48.25 62.203125 
L 19.671875 62.203125 
L 15.828125 42.96875 
Q 22.265625 47.46875 29.34375 47.46875 
Q 38.71875 47.46875 45.15625 40.96875 
Q 51.609375 34.46875 51.609375 24.265625 
Q 51.609375 14.546875 45.953125 7.46875 
Q 39.0625 -1.21875 27.15625 -1.21875 
Q 17.390625 -1.21875 11.203125 4.25 
Q 5.03125 9.71875 4.15625 18.75 
z
" id="ArialMT-53"/>
      </defs>
      <g transform="translate(38.268 148.713457)scale(0.088 -0.088)">
       <use xlink:href="#ArialMT-48"/>
       <use x="55.615234" xlink:href="#ArialMT-46"/>
       <use x="83.398438" xlink:href="#ArialMT-53"/>
      </g>
     </g>
    </g>
    <g id="ytick_6">
     <g id="line2d_51">
      <g>
       <use style="stroke:#000000;" x="54" xlink:href="#m6846de3f49" y="114.242731"/>
      </g>
     </g>
     <g id="line2d_52">
      <g>
       <use style="stroke:#000000;" x="388.8" xlink:href="#m65bd8d0cae" y="114.242731"/>
      </g>
     </g>
     <g id="text_9">
      <!-- 0.6 -->
      <defs>
       <path d="M 49.75 54.046875 
L 41.015625 53.375 
Q 39.84375 58.546875 37.703125 60.890625 
Q 34.125 64.65625 28.90625 64.65625 
Q 24.703125 64.65625 21.53125 62.3125 
Q 17.390625 59.28125 14.984375 53.46875 
Q 12.59375 47.65625 12.5 36.921875 
Q 15.671875 41.75 20.265625 44.09375 
Q 24.859375 46.4375 29.890625 46.4375 
Q 38.671875 46.4375 44.84375 39.96875 
Q 51.03125 33.5 51.03125 23.25 
Q 51.03125 16.5 48.125 10.71875 
Q 45.21875 4.9375 40.140625 1.859375 
Q 35.0625 -1.21875 28.609375 -1.21875 
Q 17.625 -1.21875 10.6875 6.859375 
Q 3.765625 14.9375 3.765625 33.5 
Q 3.765625 54.25 11.421875 63.671875 
Q 18.109375 71.875 29.4375 71.875 
Q 37.890625 71.875 43.28125 67.140625 
Q 48.6875 62.40625 49.75 54.046875 
z
M 13.875 23.1875 
Q 13.875 18.65625 15.796875 14.5 
Q 17.71875 10.359375 21.1875 8.171875 
Q 24.65625 6 28.46875 6 
Q 34.03125 6 38.03125 10.484375 
Q 42.046875 14.984375 42.046875 22.703125 
Q 42.046875 30.125 38.078125 34.390625 
Q 34.125 38.671875 28.125 38.671875 
Q 22.171875 38.671875 18.015625 34.390625 
Q 13.875 30.125 13.875 23.1875 
z
" id="ArialMT-54"/>
      </defs>
      <g transform="translate(38.268 117.392169)scale(0.088 -0.088)">
       <use xlink:href="#ArialMT-48"/>
       <use x="55.615234" xlink:href="#ArialMT-46"/>
       <use x="83.398438" xlink:href="#ArialMT-54"/>
      </g>
     </g>
    </g>
    <g id="text_10">
     <!-- $F$ -->
     <defs>
      <path d="M 16.890625 72.90625 
L 58.6875 72.90625 
L 57.078125 64.59375 
L 25.09375 64.59375 
L 20.90625 43.109375 
L 49.8125 43.109375 
L 48.1875 34.8125 
L 19.28125 34.8125 
L 12.5 0 
L 2.6875 0 
z
" id="DejaVuSans-Oblique-70"/>
     </defs>
     <g transform="translate(32.36 146.064)rotate(-90)scale(0.096 -0.096)">
      <use transform="translate(0 0.09375)" xlink:href="#DejaVuSans-Oblique-70"/>
     </g>
    </g>
   </g>
   <g id="patch_10">
    <path d="M 54 179.52 
L 54 107.04 
" style="fill:none;stroke:#000000;stroke-linecap:square;stroke-linejoin:miter;"/>
   </g>
   <g id="patch_11">
    <path d="M 388.8 179.52 
L 388.8 107.04 
" style="fill:none;stroke:#000000;stroke-linecap:square;stroke-linejoin:miter;"/>
   </g>
   <g id="patch_12">
    <path d="M 54 179.52 
L 388.8 179.52 
" style="fill:none;stroke:#000000;stroke-linecap:square;stroke-linejoin:miter;"/>
   </g>
   <g id="patch_13">
    <path d="M 54 107.04 
L 388.8 107.04 
" style="fill:none;stroke:#000000;stroke-linecap:square;stroke-linejoin:miter;"/>
   </g>
  </g>
  <g id="axes_3">
   <g id="patch_14">
    <path d="M 54 252 
L 388.8 252 
L 388.8 179.52 
L 54 179.52 
z
" style="fill:#ffffff;"/>
   </g>
   <g id="line2d_53">
    <path clip-path="url(#pf9d30dc91b)" d="M 69.218182 237.401002 
L 70.080842 234.790539 
L 70.943501 238.070967 
L 71.806161 235.359439 
L 72.668821 228.158272 
L 73.531481 236.321966 
L 74.394141 233.567566 
L 75.256801 237.41759 
L 76.11946 234.790578 
L 76.98212 236.79211 
L 77.84478 232.465292 
L 78.70744 233.626097 
L 79.5701 231.609479 
L 80.432759 232.707228 
L 81.295419 229.010858 
L 82.158079 234.220543 
L 83.020739 231.510875 
L 83.883399 234.283734 
L 84.746059 231.143545 
L 85.608718 234.986837 
L 86.471378 232.597478 
L 87.334038 231.376184 
L 88.196698 234.580561 
L 89.059358 235.326265 
L 89.922017 231.372511 
L 90.784677 235.894775 
L 91.647337 233.316976 
L 92.509997 231.9082 
L 93.372657 232.573137 
L 94.235316 232.055201 
L 95.097976 235.464805 
L 95.960636 235.382334 
L 96.823296 230.043347 
L 97.685956 233.829789 
L 98.548616 236.154297 
L 99.411275 230.542505 
L 100.273935 229.446914 
L 101.136595 235.400392 
L 101.999255 232.708849 
L 102.861915 229.488091 
L 103.724574 234.376141 
L 104.587234 235.238623 
L 105.449894 238.094191 
L 106.312554 236.522765 
L 107.175214 235.536912 
L 108.037874 227.22004 
L 108.900533 222.676165 
L 109.763193 230.254871 
L 110.625853 233.436101 
L 111.488513 228.64627 
L 112.351173 230.05119 
L 113.213832 230.538249 
L 114.076492 230.227208 
L 114.939152 235.183019 
L 115.801812 226.715866 
L 116.664472 230.098576 
L 117.527132 227.400296 
L 118.389791 227.507518 
L 119.252451 226.853594 
L 120.115111 221.712874 
L 120.977771 223.861195 
L 121.840431 222.901491 
L 122.70309 225.412791 
L 123.56575 224.280584 
L 124.42841 221.960076 
L 125.29107 225.268172 
L 126.15373 220.304336 
L 127.01639 224.12105 
L 127.879049 223.438202 
L 128.741709 224.284566 
L 129.604369 222.030461 
L 130.467029 224.441705 
L 131.329689 221.894401 
L 132.192348 230.899948 
L 133.055008 223.393593 
L 133.917668 222.202038 
L 134.780328 224.99379 
L 135.642988 222.865118 
L 136.505647 223.029485 
L 137.368307 222.231749 
L 138.230967 227.421282 
L 139.093627 221.423683 
L 139.956287 221.976366 
L 140.818947 224.248105 
L 141.681606 227.848907 
L 143.406926 221.079846 
L 144.269586 225.419416 
L 145.132246 223.055504 
L 145.994905 224.321781 
L 146.857565 218.24224 
L 147.720225 223.006385 
L 148.582885 221.4362 
L 149.445545 225.983673 
L 150.308205 223.139455 
L 151.170864 227.724019 
L 152.033524 221.496994 
L 152.896184 218.609988 
L 153.758844 219.130633 
L 154.621504 216.381905 
L 155.484163 215.438108 
L 156.346823 217.850217 
L 157.209483 218.482761 
L 158.072143 227.344723 
L 158.934803 226.545375 
L 159.797463 225.481596 
L 160.660122 220.642888 
L 161.522782 214.79297 
L 162.385442 221.007122 
L 163.248102 219.545308 
L 164.110762 220.149153 
L 164.973421 218.911142 
L 166.698741 224.539462 
L 167.561401 218.898859 
L 168.424061 224.964347 
L 169.286721 215.060978 
L 171.8747 222.376384 
L 172.73736 223.353241 
L 174.462679 218.905566 
L 175.325339 216.225158 
L 176.187999 219.096402 
L 177.050659 219.790971 
L 177.913319 222.6081 
L 178.775978 215.088057 
L 179.638638 223.328125 
L 180.501298 215.895027 
L 181.363958 213.776044 
L 182.226618 217.243071 
L 183.089278 217.210459 
L 183.951937 213.952977 
L 184.814597 217.916123 
L 185.677257 220.460701 
L 186.539917 218.810293 
L 187.402577 214.654644 
L 188.265236 213.935852 
L 189.127896 216.715263 
L 189.990556 219.04467 
L 191.715876 212.077896 
L 192.578536 213.740804 
L 193.441195 216.387246 
L 194.303855 213.051065 
L 195.166515 217.740494 
L 196.029175 212.773001 
L 196.891835 217.706383 
L 197.754494 213.400418 
L 198.617154 211.769625 
L 199.479814 216.13033 
L 200.342474 209.689342 
L 201.205134 216.738918 
L 202.067794 214.681844 
L 202.930453 215.594041 
L 203.793113 209.3573 
L 204.655773 219.99195 
L 205.518433 216.142975 
L 206.381093 209.868824 
L 207.243752 212.580177 
L 208.106412 214.482393 
L 208.969072 210.420961 
L 209.831732 215.962493 
L 210.694392 211.944488 
L 211.557051 213.038166 
L 212.419711 208.798273 
L 213.282371 215.157602 
L 215.007691 209.676276 
L 215.870351 211.402044 
L 216.73301 207.342613 
L 217.59567 209.479633 
L 218.45833 205.21385 
L 219.32099 211.720243 
L 220.18365 207.160901 
L 221.046309 205.800508 
L 221.908969 212.215135 
L 222.771629 203.221692 
L 223.634289 212.683069 
L 224.496949 212.753627 
L 225.359609 208.935416 
L 226.222268 211.282408 
L 227.084928 211.358148 
L 227.947588 211.983153 
L 228.810248 210.506894 
L 229.672908 204.777403 
L 230.535567 214.9974 
L 231.398227 208.589006 
L 232.260887 208.413309 
L 233.123547 213.702913 
L 233.986207 205.778914 
L 234.848867 214.921828 
L 235.711526 208.109625 
L 236.574186 208.526196 
L 237.436846 209.228573 
L 239.162166 214.613664 
L 240.024825 207.414761 
L 240.887485 205.477504 
L 241.750145 211.59039 
L 242.612805 210.322898 
L 243.475465 209.577452 
L 244.338125 209.594799 
L 245.200784 212.462863 
L 246.063444 212.506462 
L 246.926104 209.336972 
L 247.788764 210.025383 
L 248.651424 213.882058 
L 249.514083 210.287268 
L 250.376743 210.732766 
L 251.239403 211.61728 
L 252.102063 212.062437 
L 252.964723 216.919472 
L 253.827382 212.531058 
L 254.690042 207.387061 
L 255.552702 212.698878 
L 256.415362 212.05061 
L 257.278022 213.758446 
L 258.140682 211.831813 
L 259.003341 215.336925 
L 259.866001 213.878521 
L 260.728661 210.058128 
L 261.591321 211.984266 
L 262.453981 206.334927 
L 263.31664 217.050048 
L 264.1793 212.968231 
L 265.04196 205.012373 
L 265.90462 206.816155 
L 266.76728 212.282825 
L 267.62994 215.355874 
L 268.492599 210.177804 
L 269.355259 215.014671 
L 270.217919 206.306968 
L 271.080579 213.140588 
L 271.943239 212.978037 
L 272.805898 210.425758 
L 273.668558 210.454883 
L 275.393878 208.499248 
L 276.256538 211.562763 
L 277.119198 215.53862 
L 277.981857 207.586997 
L 278.844517 212.414385 
L 279.707177 209.382799 
L 280.569837 208.000799 
L 282.295156 209.977495 
L 283.157816 211.752123 
L 284.020476 202.899363 
L 284.883136 213.557964 
L 285.745796 207.972569 
L 286.608456 209.969466 
L 287.471115 202.902571 
L 288.333775 207.469378 
L 289.196435 209.889811 
L 290.059095 217.700093 
L 290.921755 210.692285 
L 291.784414 214.110205 
L 292.647074 213.627733 
L 293.509734 205.725562 
L 294.372394 215.689497 
L 295.235054 210.909215 
L 296.097713 214.018168 
L 296.960373 211.904942 
L 297.823033 210.52485 
L 298.685693 210.536398 
L 299.548353 206.291397 
L 300.411013 210.863594 
L 301.273672 208.840738 
L 302.136332 202.524627 
L 302.998992 214.443867 
L 303.861652 202.673843 
L 304.724312 205.774055 
L 305.586971 204.364946 
L 306.449631 213.08869 
L 307.312291 204.83745 
L 308.174951 212.120969 
L 309.037611 214.781605 
L 309.900271 205.119614 
L 310.76293 206.345637 
L 311.62559 210.335073 
L 312.48825 206.619906 
L 313.35091 208.920698 
L 314.21357 207.413486 
L 315.938889 210.418505 
L 316.801549 205.028553 
L 317.664209 205.84364 
L 318.526869 212.408899 
L 319.389529 205.944294 
L 320.252188 206.454874 
L 321.114848 208.824423 
L 321.977508 203.790888 
L 322.840168 205.717105 
L 323.702828 206.278409 
L 324.565487 206.590338 
L 325.428147 209.513346 
L 326.290807 205.292488 
L 327.153467 202.668899 
L 328.016127 204.960001 
L 328.878787 205.366635 
L 329.741446 200.516896 
L 330.604106 208.545599 
L 331.466766 206.180005 
L 332.329426 208.116162 
L 333.192086 208.094051 
L 334.917405 196.686445 
L 335.780065 203.895462 
L 336.642725 204.114292 
L 337.505385 200.118989 
L 338.368044 206.594127 
L 339.230704 206.36666 
L 340.093364 206.91513 
L 340.956024 204.829904 
L 341.818684 206.71097 
L 342.681344 212.564819 
L 343.544003 210.836717 
L 344.406663 210.91243 
L 345.269323 204.121959 
L 346.131983 205.000311 
L 346.994643 203.287668 
L 347.857302 206.559609 
L 348.719962 204.315417 
L 349.582622 205.063511 
L 350.445282 205.326691 
L 351.307942 210.60944 
L 352.170602 205.467779 
L 353.033261 206.081189 
L 353.895921 207.318005 
L 354.758581 205.845193 
L 355.621241 207.66975 
L 356.483901 204.303987 
L 357.34656 208.344758 
L 358.20922 202.877488 
L 359.07188 207.587855 
L 359.93454 202.557474 
L 360.7972 205.53635 
L 361.65986 202.107259 
L 362.522519 205.406933 
L 363.385179 200.813091 
L 364.247839 203.275281 
L 365.110499 201.216903 
L 365.973159 203.837783 
L 366.835818 199.333833 
L 367.698478 205.035711 
L 368.561138 204.656893 
L 369.423798 202.024488 
L 370.286458 204.161858 
L 371.149118 204.322171 
L 372.011777 196.295007 
L 372.279202 198.029358 
L 372.279202 198.029358 
" style="fill:none;stroke:#1ac938;stroke-linecap:round;stroke-width:1.2;"/>
   </g>
   <g id="line2d_54">
    <path clip-path="url(#pf9d30dc91b)" d="M 69.218182 219.074954 
L 72.668821 219.074954 
L 73.531481 213.953779 
L 76.98212 213.953779 
L 77.84478 219.917555 
L 81.295419 219.917555 
L 82.158079 223.033259 
L 85.608718 223.033259 
L 86.471378 221.680444 
L 89.922017 221.680444 
L 90.784677 221.550905 
L 94.235316 221.550905 
L 95.097976 210.954681 
L 102.861915 210.852982 
L 103.724574 211.871649 
L 107.175214 211.871649 
L 108.037874 211.21747 
L 111.488513 211.21747 
L 112.351173 215.894859 
L 115.801812 215.894859 
L 116.664472 218.56753 
L 120.115111 218.56753 
L 120.977771 218.110222 
L 124.42841 218.110222 
L 125.29107 223.607823 
L 128.741709 223.607823 
L 129.604369 210.338779 
L 133.055008 210.338779 
L 133.917668 207.005614 
L 137.368307 207.005614 
L 138.230967 200.837496 
L 141.681606 200.837496 
L 142.544266 201.159891 
L 145.994905 201.159891 
L 146.857565 198.018713 
L 150.308205 198.018713 
L 151.170864 206.532992 
L 154.621504 206.532992 
L 155.484163 207.103683 
L 163.248102 207.095939 
L 164.110762 223.694174 
L 167.561401 223.694174 
L 168.424061 231.251861 
L 171.8747 231.251861 
L 172.73736 235.851203 
L 176.187999 235.851203 
L 177.050659 233.293354 
L 180.501298 233.293354 
L 181.363958 243.777455 
L 184.814597 243.777455 
L 185.677257 248.705455 
L 189.127896 248.705455 
L 189.990556 240.971545 
L 193.441195 240.971545 
L 194.303855 239.50255 
L 197.754494 239.50255 
L 198.617154 225.699527 
L 202.067794 225.699527 
L 202.930453 219.685908 
L 206.381093 219.685908 
L 207.243752 230.966655 
L 215.007691 230.975745 
L 215.870351 231.346342 
L 219.32099 231.346342 
L 220.18365 232.874229 
L 223.634289 232.874229 
L 224.496949 218.034754 
L 227.947588 218.034754 
L 228.810248 211.724 
L 236.574186 211.636889 
L 237.436846 215.88615 
L 240.887485 215.88615 
L 241.750145 211.144493 
L 245.200784 211.144493 
L 246.063444 201.027767 
L 249.514083 201.027767 
L 250.376743 198.19908 
L 253.827382 198.19908 
L 254.690042 192.499735 
L 258.140682 192.499735 
L 259.003341 188.306352 
L 262.453981 188.306352 
L 263.31664 191.307839 
L 266.76728 191.307839 
L 267.62994 189.984174 
L 271.080579 189.984174 
L 271.943239 198.99174 
L 275.393878 198.99174 
L 276.256538 201.626373 
L 279.707177 201.626373 
L 280.569837 212.939458 
L 284.020476 212.939458 
L 284.883136 211.442101 
L 288.333775 211.442101 
L 289.196435 204.256472 
L 292.647074 204.256472 
L 293.509734 214.249803 
L 296.960373 214.249803 
L 297.823033 216.573495 
L 301.273672 216.573495 
L 302.136332 216.850567 
L 305.586971 216.850567 
L 306.449631 209.395741 
L 309.900271 209.395741 
L 310.76293 203.278142 
L 314.21357 203.278142 
L 315.076229 207.955314 
L 318.526869 207.955314 
L 319.389529 212.85017 
L 327.153467 212.928713 
L 328.016127 201.025576 
L 331.466766 201.025576 
L 332.329426 196.353409 
L 335.780065 196.353409 
L 336.642725 195.873236 
L 340.093364 195.873236 
L 340.956024 195.039521 
L 344.406663 195.039521 
L 345.269323 185.124662 
L 348.719962 185.124662 
L 349.582622 197.96282 
L 353.033261 197.96282 
L 353.895921 186.405038 
L 357.34656 186.405038 
L 358.20922 182.814545 
L 361.65986 182.814545 
L 362.522519 190.554348 
L 365.973159 190.554348 
L 366.835818 191.336657 
L 370.286458 191.336657 
L 371.149118 189.008663 
L 373.581818 189.008663 
L 373.581818 189.008663 
" style="fill:none;stroke:#e8000b;stroke-linecap:round;stroke-width:1.2;"/>
   </g>
   <g id="matplotlib.axis_5">
    <g id="xtick_17">
     <g id="line2d_55">
      <g>
       <use style="stroke:#000000;" x="67.492862" xlink:href="#m7c1c24350e" y="252"/>
      </g>
     </g>
     <g id="line2d_56">
      <g>
       <use style="stroke:#000000;" x="67.492862" xlink:href="#m2635713461" y="179.52"/>
      </g>
     </g>
     <g id="text_11">
      <!-- $\mathdefault{0.0}$ -->
      <g transform="translate(61.332862 261.798875)scale(0.088 -0.088)">
       <use transform="translate(0 0.125)" xlink:href="#ArialMT-48"/>
       <use transform="translate(55.615234 0.125)" xlink:href="#ArialMT-46"/>
       <use transform="translate(83.398438 0.125)" xlink:href="#ArialMT-48"/>
      </g>
     </g>
    </g>
    <g id="xtick_18">
     <g id="line2d_57">
      <g>
       <use style="stroke:#000000;" x="110.625853" xlink:href="#m7c1c24350e" y="252"/>
      </g>
     </g>
     <g id="line2d_58">
      <g>
       <use style="stroke:#000000;" x="110.625853" xlink:href="#m2635713461" y="179.52"/>
      </g>
     </g>
     <g id="text_12">
      <!-- $\mathdefault{0.5}$ -->
      <g transform="translate(104.465853 261.798875)scale(0.088 -0.088)">
       <use transform="translate(0 0.125)" xlink:href="#ArialMT-48"/>
       <use transform="translate(55.615234 0.125)" xlink:href="#ArialMT-46"/>
       <use transform="translate(83.398438 0.125)" xlink:href="#ArialMT-53"/>
      </g>
     </g>
    </g>
    <g id="xtick_19">
     <g id="line2d_59">
      <g>
       <use style="stroke:#000000;" x="153.758844" xlink:href="#m7c1c24350e" y="252"/>
      </g>
     </g>
     <g id="line2d_60">
      <g>
       <use style="stroke:#000000;" x="153.758844" xlink:href="#m2635713461" y="179.52"/>
      </g>
     </g>
     <g id="text_13">
      <!-- $\mathdefault{1.0}$ -->
      <g transform="translate(147.598844 261.798875)scale(0.088 -0.088)">
       <use transform="translate(0 0.125)" xlink:href="#ArialMT-49"/>
       <use transform="translate(55.615234 0.125)" xlink:href="#ArialMT-46"/>
       <use transform="translate(83.398438 0.125)" xlink:href="#ArialMT-48"/>
      </g>
     </g>
    </g>
    <g id="xtick_20">
     <g id="line2d_61">
      <g>
       <use style="stroke:#000000;" x="196.891835" xlink:href="#m7c1c24350e" y="252"/>
      </g>
     </g>
     <g id="line2d_62">
      <g>
       <use style="stroke:#000000;" x="196.891835" xlink:href="#m2635713461" y="179.52"/>
      </g>
     </g>
     <g id="text_14">
      <!-- $\mathdefault{1.5}$ -->
      <g transform="translate(190.731835 261.798875)scale(0.088 -0.088)">
       <use transform="translate(0 0.125)" xlink:href="#ArialMT-49"/>
       <use transform="translate(55.615234 0.125)" xlink:href="#ArialMT-46"/>
       <use transform="translate(83.398438 0.125)" xlink:href="#ArialMT-53"/>
      </g>
     </g>
    </g>
    <g id="xtick_21">
     <g id="line2d_63">
      <g>
       <use style="stroke:#000000;" x="240.024825" xlink:href="#m7c1c24350e" y="252"/>
      </g>
     </g>
     <g id="line2d_64">
      <g>
       <use style="stroke:#000000;" x="240.024825" xlink:href="#m2635713461" y="179.52"/>
      </g>
     </g>
     <g id="text_15">
      <!-- $\mathdefault{2.0}$ -->
      <g transform="translate(233.864825 261.798875)scale(0.088 -0.088)">
       <use transform="translate(0 0.125)" xlink:href="#ArialMT-50"/>
       <use transform="translate(55.615234 0.125)" xlink:href="#ArialMT-46"/>
       <use transform="translate(83.398438 0.125)" xlink:href="#ArialMT-48"/>
      </g>
     </g>
    </g>
    <g id="xtick_22">
     <g id="line2d_65">
      <g>
       <use style="stroke:#000000;" x="283.157816" xlink:href="#m7c1c24350e" y="252"/>
      </g>
     </g>
     <g id="line2d_66">
      <g>
       <use style="stroke:#000000;" x="283.157816" xlink:href="#m2635713461" y="179.52"/>
      </g>
     </g>
     <g id="text_16">
      <!-- $\mathdefault{2.5}$ -->
      <g transform="translate(276.997816 261.798875)scale(0.088 -0.088)">
       <use transform="translate(0 0.125)" xlink:href="#ArialMT-50"/>
       <use transform="translate(55.615234 0.125)" xlink:href="#ArialMT-46"/>
       <use transform="translate(83.398438 0.125)" xlink:href="#ArialMT-53"/>
      </g>
     </g>
    </g>
    <g id="xtick_23">
     <g id="line2d_67">
      <g>
       <use style="stroke:#000000;" x="326.290807" xlink:href="#m7c1c24350e" y="252"/>
      </g>
     </g>
     <g id="line2d_68">
      <g>
       <use style="stroke:#000000;" x="326.290807" xlink:href="#m2635713461" y="179.52"/>
      </g>
     </g>
     <g id="text_17">
      <!-- $\mathdefault{3.0}$ -->
      <g transform="translate(320.130807 261.798875)scale(0.088 -0.088)">
       <use transform="translate(0 0.125)" xlink:href="#ArialMT-51"/>
       <use transform="translate(55.615234 0.125)" xlink:href="#ArialMT-46"/>
       <use transform="translate(83.398438 0.125)" xlink:href="#ArialMT-48"/>
      </g>
     </g>
    </g>
    <g id="xtick_24">
     <g id="line2d_69">
      <g>
       <use style="stroke:#000000;" x="369.423798" xlink:href="#m7c1c24350e" y="252"/>
      </g>
     </g>
     <g id="line2d_70">
      <g>
       <use style="stroke:#000000;" x="369.423798" xlink:href="#m2635713461" y="179.52"/>
      </g>
     </g>
     <g id="text_18">
      <!-- $\mathdefault{3.5}$ -->
      <g transform="translate(363.263798 261.798875)scale(0.088 -0.088)">
       <use transform="translate(0 0.125)" xlink:href="#ArialMT-51"/>
       <use transform="translate(55.615234 0.125)" xlink:href="#ArialMT-46"/>
       <use transform="translate(83.398438 0.125)" xlink:href="#ArialMT-53"/>
      </g>
     </g>
    </g>
    <g id="text_19">
     <!-- evaluations -->
     <defs>
      <path d="M 21 0 
L 1.265625 51.859375 
L 10.546875 51.859375 
L 21.6875 20.796875 
Q 23.484375 15.765625 25 10.359375 
Q 26.171875 14.453125 28.265625 20.21875 
L 39.796875 51.859375 
L 48.828125 51.859375 
L 29.203125 0 
z
" id="ArialMT-118"/>
      <path d="M 40.4375 6.390625 
Q 35.546875 2.25 31.03125 0.53125 
Q 26.515625 -1.171875 21.34375 -1.171875 
Q 12.796875 -1.171875 8.203125 3 
Q 3.609375 7.171875 3.609375 13.671875 
Q 3.609375 17.484375 5.34375 20.625 
Q 7.078125 23.78125 9.890625 25.6875 
Q 12.703125 27.59375 16.21875 28.5625 
Q 18.796875 29.25 24.03125 29.890625 
Q 34.671875 31.15625 39.703125 32.90625 
Q 39.75 34.71875 39.75 35.203125 
Q 39.75 40.578125 37.25 42.78125 
Q 33.890625 45.75 27.25 45.75 
Q 21.046875 45.75 18.09375 43.578125 
Q 15.140625 41.40625 13.71875 35.890625 
L 5.125 37.0625 
Q 6.296875 42.578125 8.984375 45.96875 
Q 11.671875 49.359375 16.75 51.1875 
Q 21.828125 53.03125 28.515625 53.03125 
Q 35.15625 53.03125 39.296875 51.46875 
Q 43.453125 49.90625 45.40625 47.53125 
Q 47.359375 45.171875 48.140625 41.546875 
Q 48.578125 39.3125 48.578125 33.453125 
L 48.578125 21.734375 
Q 48.578125 9.46875 49.140625 6.21875 
Q 49.703125 2.984375 51.375 0 
L 42.1875 0 
Q 40.828125 2.734375 40.4375 6.390625 
z
M 39.703125 26.03125 
Q 34.90625 24.078125 25.34375 22.703125 
Q 19.921875 21.921875 17.671875 20.9375 
Q 15.4375 19.96875 14.203125 18.09375 
Q 12.984375 16.21875 12.984375 13.921875 
Q 12.984375 10.40625 15.640625 8.0625 
Q 18.3125 5.71875 23.4375 5.71875 
Q 28.515625 5.71875 32.46875 7.9375 
Q 36.421875 10.15625 38.28125 14.015625 
Q 39.703125 17 39.703125 22.796875 
z
" id="ArialMT-97"/>
      <path d="M 6.390625 0 
L 6.390625 71.578125 
L 15.1875 71.578125 
L 15.1875 0 
z
" id="ArialMT-108"/>
      <path d="M 40.578125 0 
L 40.578125 7.625 
Q 34.515625 -1.171875 24.125 -1.171875 
Q 19.53125 -1.171875 15.546875 0.578125 
Q 11.578125 2.34375 9.640625 5 
Q 7.71875 7.671875 6.9375 11.53125 
Q 6.390625 14.109375 6.390625 19.734375 
L 6.390625 51.859375 
L 15.1875 51.859375 
L 15.1875 23.09375 
Q 15.1875 16.21875 15.71875 13.8125 
Q 16.546875 10.359375 19.234375 8.375 
Q 21.921875 6.390625 25.875 6.390625 
Q 29.828125 6.390625 33.296875 8.421875 
Q 36.765625 10.453125 38.203125 13.9375 
Q 39.65625 17.4375 39.65625 24.078125 
L 39.65625 51.859375 
L 48.4375 51.859375 
L 48.4375 0 
z
" id="ArialMT-117"/>
      <path d="M 3.328125 25.921875 
Q 3.328125 40.328125 11.328125 47.265625 
Q 18.015625 53.03125 27.640625 53.03125 
Q 38.328125 53.03125 45.109375 46.015625 
Q 51.90625 39.015625 51.90625 26.65625 
Q 51.90625 16.65625 48.90625 10.90625 
Q 45.90625 5.171875 40.15625 2 
Q 34.421875 -1.171875 27.640625 -1.171875 
Q 16.75 -1.171875 10.03125 5.8125 
Q 3.328125 12.796875 3.328125 25.921875 
z
M 12.359375 25.921875 
Q 12.359375 15.96875 16.703125 11.015625 
Q 21.046875 6.0625 27.640625 6.0625 
Q 34.1875 6.0625 38.53125 11.03125 
Q 42.875 16.015625 42.875 26.21875 
Q 42.875 35.84375 38.5 40.796875 
Q 34.125 45.75 27.640625 45.75 
Q 21.046875 45.75 16.703125 40.8125 
Q 12.359375 35.890625 12.359375 25.921875 
z
" id="ArialMT-111"/>
     </defs>
     <g transform="translate(197.118 274.419375)scale(0.096 -0.096)">
      <use xlink:href="#ArialMT-101"/>
      <use x="55.615234" xlink:href="#ArialMT-118"/>
      <use x="105.615234" xlink:href="#ArialMT-97"/>
      <use x="161.230469" xlink:href="#ArialMT-108"/>
      <use x="183.447266" xlink:href="#ArialMT-117"/>
      <use x="239.0625" xlink:href="#ArialMT-97"/>
      <use x="294.677734" xlink:href="#ArialMT-116"/>
      <use x="322.460938" xlink:href="#ArialMT-105"/>
      <use x="344.677734" xlink:href="#ArialMT-111"/>
      <use x="400.292969" xlink:href="#ArialMT-110"/>
      <use x="455.908203" xlink:href="#ArialMT-115"/>
     </g>
    </g>
    <g id="text_20">
     <!-- $\times\mathdefault{10^{4}}\mathdefault{}$ -->
     <defs>
      <path d="M 70.125 53.71875 
L 47.796875 31.296875 
L 70.125 8.984375 
L 64.3125 3.078125 
L 41.890625 25.484375 
L 19.484375 3.078125 
L 13.71875 8.984375 
L 35.984375 31.296875 
L 13.71875 53.71875 
L 19.484375 59.625 
L 41.890625 37.203125 
L 64.3125 59.625 
z
" id="DejaVuSans-215"/>
     </defs>
     <g transform="translate(367.592 275.534875)scale(0.088 -0.088)">
      <use transform="translate(0 0.201563)" xlink:href="#DejaVuSans-215"/>
      <use transform="translate(83.789062 0.201563)" xlink:href="#ArialMT-49"/>
      <use transform="translate(139.404297 0.201563)" xlink:href="#ArialMT-48"/>
      <use transform="translate(196.761875 69.895313)scale(0.7)" xlink:href="#ArialMT-52"/>
     </g>
    </g>
   </g>
   <g id="matplotlib.axis_6">
    <g id="ytick_7">
     <g id="line2d_71">
      <g>
       <use style="stroke:#000000;" x="54" xlink:href="#m6846de3f49" y="235.942454"/>
      </g>
     </g>
     <g id="line2d_72">
      <g>
       <use style="stroke:#000000;" x="388.8" xlink:href="#m65bd8d0cae" y="235.942454"/>
      </g>
     </g>
     <g id="text_21">
      <!-- 0.5 -->
      <g transform="translate(38.268 239.091891)scale(0.088 -0.088)">
       <use xlink:href="#ArialMT-48"/>
       <use x="55.615234" xlink:href="#ArialMT-46"/>
       <use x="83.398438" xlink:href="#ArialMT-53"/>
      </g>
     </g>
    </g>
    <g id="ytick_8">
     <g id="line2d_73">
      <g>
       <use style="stroke:#000000;" x="54" xlink:href="#m6846de3f49" y="204.111733"/>
      </g>
     </g>
     <g id="line2d_74">
      <g>
       <use style="stroke:#000000;" x="388.8" xlink:href="#m65bd8d0cae" y="204.111733"/>
      </g>
     </g>
     <g id="text_22">
      <!-- 0.6 -->
      <g transform="translate(38.268 207.261171)scale(0.088 -0.088)">
       <use xlink:href="#ArialMT-48"/>
       <use x="55.615234" xlink:href="#ArialMT-46"/>
       <use x="83.398438" xlink:href="#ArialMT-54"/>
      </g>
     </g>
    </g>
    <g id="text_23">
     <!-- $CR$ -->
     <defs>
      <path d="M 69.484375 67.28125 
L 67.484375 56.890625 
Q 62.796875 61.625 57.546875 63.921875 
Q 52.296875 66.21875 46.1875 66.21875 
Q 37.84375 66.21875 31.515625 62.203125 
Q 25.203125 58.203125 20.609375 50 
Q 17.671875 44.734375 16.125 38.84375 
Q 14.59375 32.953125 14.59375 27 
Q 14.59375 17.046875 19.75 11.8125 
Q 24.90625 6.59375 34.71875 6.59375 
Q 41.5 6.59375 47.75 8.765625 
Q 54 10.9375 59.90625 15.28125 
L 57.625 3.609375 
Q 51.8125 1.125 45.875 -0.140625 
Q 39.9375 -1.421875 33.984375 -1.421875 
Q 19.96875 -1.421875 12.078125 6.1875 
Q 4.203125 13.8125 4.203125 27.390625 
Q 4.203125 36.078125 7.203125 44.46875 
Q 10.203125 52.875 15.828125 59.8125 
Q 21.78125 67.1875 29.421875 70.703125 
Q 37.0625 74.21875 47.21875 74.21875 
Q 53.46875 74.21875 59.0625 72.484375 
Q 64.65625 70.75 69.484375 67.28125 
z
" id="DejaVuSans-Oblique-67"/>
      <path d="M 25.203125 64.796875 
L 20.21875 38.921875 
L 32.90625 38.921875 
Q 40.375 38.921875 44.984375 43.046875 
Q 49.609375 47.171875 49.609375 53.8125 
Q 49.609375 59.125 46.5 61.953125 
Q 43.40625 64.796875 37.59375 64.796875 
z
M 43.3125 35.015625 
Q 46.4375 34.28125 48.515625 31.390625 
Q 50.59375 28.515625 53.328125 19.921875 
L 59.515625 0 
L 49.125 0 
L 43.40625 18.703125 
Q 41.21875 25.921875 38.328125 28.359375 
Q 35.453125 30.8125 29.5 30.8125 
L 18.609375 30.8125 
L 12.59375 0 
L 2.6875 0 
L 16.890625 72.90625 
L 39.109375 72.90625 
Q 49.21875 72.90625 54.609375 68.328125 
Q 60.015625 63.765625 60.015625 55.171875 
Q 60.015625 47.5625 55.421875 41.984375 
Q 50.828125 36.421875 43.3125 35.015625 
z
" id="DejaVuSans-Oblique-82"/>
     </defs>
     <g transform="translate(32.36 222.48)rotate(-90)scale(0.096 -0.096)">
      <use transform="translate(0 0.78125)" xlink:href="#DejaVuSans-Oblique-67"/>
      <use transform="translate(69.824219 0.78125)" xlink:href="#DejaVuSans-Oblique-82"/>
     </g>
    </g>
   </g>
   <g id="patch_15">
    <path d="M 54 252 
L 54 179.52 
" style="fill:none;stroke:#000000;stroke-linecap:square;stroke-linejoin:miter;"/>
   </g>
   <g id="patch_16">
    <path d="M 388.8 252 
L 388.8 179.52 
" style="fill:none;stroke:#000000;stroke-linecap:square;stroke-linejoin:miter;"/>
   </g>
   <g id="patch_17">
    <path d="M 54 252 
L 388.8 252 
" style="fill:none;stroke:#000000;stroke-linecap:square;stroke-linejoin:miter;"/>
   </g>
   <g id="patch_18">
    <path d="M 54 179.52 
L 388.8 179.52 
" style="fill:none;stroke:#000000;stroke-linecap:square;stroke-linejoin:miter;"/>
   </g>
  </g>
 </g>
 <defs>
  <clipPath id="pfc06e1a9fd">
   <rect height="72.48" width="334.8" x="54" y="34.56"/>
  </clipPath>
  <clipPath id="pac443dd1bd">
   <rect height="72.48" width="334.8" x="54" y="107.04"/>
  </clipPath>
  <clipPath id="pf9d30dc91b">
   <rect height="72.48" width="334.8" x="54" y="179.52"/>
  </clipPath>
 </defs>
</svg>
