<?xml version="1.0" encoding="utf-8" standalone="no"?>
<!DOCTYPE svg PUBLIC "-//W3C//DTD SVG 1.1//EN"
  "http://www.w3.org/Graphics/SVG/1.1/DTD/svg11.dtd">
<!-- Created with matplotlib (https://matplotlib.org/) -->
<svg height="288pt" version="1.1" viewBox="0 0 432 288" width="432pt" xmlns="http://www.w3.org/2000/svg" xmlns:xlink="http://www.w3.org/1999/xlink">
 <defs>
  <style type="text/css">
*{stroke-linecap:butt;stroke-linejoin:round;}
  </style>
 </defs>
 <g id="figure_1">
  <g id="patch_1">
   <path d="M 0 288 
L 432 288 
L 432 0 
L 0 0 
z
" style="fill:#ffffff;"/>
  </g>
  <g id="axes_1">
   <g id="patch_2">
    <path d="M 54 143.28 
L 388.8 143.28 
L 388.8 34.56 
L 54 34.56 
z
" style="fill:#ffffff;"/>
   </g>
   <g id="matplotlib.axis_1">
    <g id="xtick_1">
     <g id="line2d_1">
      <defs>
       <path d="M 0 0 
L 0 -3 
" id="ma07dd9683e" style="stroke:#000000;"/>
      </defs>
      <g>
       <use style="stroke:#000000;" x="69.050502" xlink:href="#ma07dd9683e" y="143.28"/>
      </g>
     </g>
     <g id="line2d_2">
      <defs>
       <path d="M 0 0 
L 0 3 
" id="m20f3abc7af" style="stroke:#000000;"/>
      </defs>
      <g>
       <use style="stroke:#000000;" x="69.050502" xlink:href="#m20f3abc7af" y="34.56"/>
      </g>
     </g>
    </g>
    <g id="xtick_2">
     <g id="line2d_3">
      <g>
       <use style="stroke:#000000;" x="108.974374" xlink:href="#ma07dd9683e" y="143.28"/>
      </g>
     </g>
     <g id="line2d_4">
      <g>
       <use style="stroke:#000000;" x="108.974374" xlink:href="#m20f3abc7af" y="34.56"/>
      </g>
     </g>
    </g>
    <g id="xtick_3">
     <g id="line2d_5">
      <g>
       <use style="stroke:#000000;" x="148.898247" xlink:href="#ma07dd9683e" y="143.28"/>
      </g>
     </g>
     <g id="line2d_6">
      <g>
       <use style="stroke:#000000;" x="148.898247" xlink:href="#m20f3abc7af" y="34.56"/>
      </g>
     </g>
    </g>
    <g id="xtick_4">
     <g id="line2d_7">
      <g>
       <use style="stroke:#000000;" x="188.82212" xlink:href="#ma07dd9683e" y="143.28"/>
      </g>
     </g>
     <g id="line2d_8">
      <g>
       <use style="stroke:#000000;" x="188.82212" xlink:href="#m20f3abc7af" y="34.56"/>
      </g>
     </g>
    </g>
    <g id="xtick_5">
     <g id="line2d_9">
      <g>
       <use style="stroke:#000000;" x="228.745993" xlink:href="#ma07dd9683e" y="143.28"/>
      </g>
     </g>
     <g id="line2d_10">
      <g>
       <use style="stroke:#000000;" x="228.745993" xlink:href="#m20f3abc7af" y="34.56"/>
      </g>
     </g>
    </g>
    <g id="xtick_6">
     <g id="line2d_11">
      <g>
       <use style="stroke:#000000;" x="268.669865" xlink:href="#ma07dd9683e" y="143.28"/>
      </g>
     </g>
     <g id="line2d_12">
      <g>
       <use style="stroke:#000000;" x="268.669865" xlink:href="#m20f3abc7af" y="34.56"/>
      </g>
     </g>
    </g>
    <g id="xtick_7">
     <g id="line2d_13">
      <g>
       <use style="stroke:#000000;" x="308.593738" xlink:href="#ma07dd9683e" y="143.28"/>
      </g>
     </g>
     <g id="line2d_14">
      <g>
       <use style="stroke:#000000;" x="308.593738" xlink:href="#m20f3abc7af" y="34.56"/>
      </g>
     </g>
    </g>
    <g id="xtick_8">
     <g id="line2d_15">
      <g>
       <use style="stroke:#000000;" x="348.517611" xlink:href="#ma07dd9683e" y="143.28"/>
      </g>
     </g>
     <g id="line2d_16">
      <g>
       <use style="stroke:#000000;" x="348.517611" xlink:href="#m20f3abc7af" y="34.56"/>
      </g>
     </g>
    </g>
    <g id="xtick_9">
     <g id="line2d_17">
      <g>
       <use style="stroke:#000000;" x="388.441484" xlink:href="#ma07dd9683e" y="143.28"/>
      </g>
     </g>
     <g id="line2d_18">
      <g>
       <use style="stroke:#000000;" x="388.441484" xlink:href="#m20f3abc7af" y="34.56"/>
      </g>
     </g>
    </g>
   </g>
   <g id="matplotlib.axis_2">
    <g id="ytick_1">
     <g id="line2d_19">
      <defs>
       <path d="M 0 0 
L 3 0 
" id="mea0da97655" style="stroke:#000000;"/>
      </defs>
      <g>
       <use style="stroke:#000000;" x="54" xlink:href="#mea0da97655" y="129.962329"/>
      </g>
     </g>
     <g id="line2d_20">
      <defs>
       <path d="M 0 0 
L -3 0 
" id="m5bdc7663b1" style="stroke:#000000;"/>
      </defs>
      <g>
       <use style="stroke:#000000;" x="388.8" xlink:href="#m5bdc7663b1" y="129.962329"/>
      </g>
     </g>
     <g id="text_1">
      <!-- $\mathdefault{10^{-6}}$ -->
      <defs>
       <path d="M 37.25 0 
L 28.46875 0 
L 28.46875 56 
Q 25.296875 52.984375 20.140625 49.953125 
Q 14.984375 46.921875 10.890625 45.40625 
L 10.890625 53.90625 
Q 18.265625 57.375 23.78125 62.296875 
Q 29.296875 67.234375 31.59375 71.875 
L 37.25 71.875 
z
" id="ArialMT-49"/>
       <path d="M 4.15625 35.296875 
Q 4.15625 48 6.765625 55.734375 
Q 9.375 63.484375 14.515625 67.671875 
Q 19.671875 71.875 27.484375 71.875 
Q 33.25 71.875 37.59375 69.546875 
Q 41.9375 67.234375 44.765625 62.859375 
Q 47.609375 58.5 49.21875 52.21875 
Q 50.828125 45.953125 50.828125 35.296875 
Q 50.828125 22.703125 48.234375 14.96875 
Q 45.65625 7.234375 40.5 3 
Q 35.359375 -1.21875 27.484375 -1.21875 
Q 17.140625 -1.21875 11.234375 6.203125 
Q 4.15625 15.140625 4.15625 35.296875 
z
M 13.1875 35.296875 
Q 13.1875 17.671875 17.3125 11.828125 
Q 21.4375 6 27.484375 6 
Q 33.546875 6 37.671875 11.859375 
Q 41.796875 17.71875 41.796875 35.296875 
Q 41.796875 52.984375 37.671875 58.78125 
Q 33.546875 64.59375 27.390625 64.59375 
Q 21.34375 64.59375 17.71875 59.46875 
Q 13.1875 52.9375 13.1875 35.296875 
z
" id="ArialMT-48"/>
       <path d="M 52.828125 31.203125 
L 5.5625 31.203125 
L 5.5625 39.40625 
L 52.828125 39.40625 
z
" id="ArialMT-8722"/>
       <path d="M 49.75 54.046875 
L 41.015625 53.375 
Q 39.84375 58.546875 37.703125 60.890625 
Q 34.125 64.65625 28.90625 64.65625 
Q 24.703125 64.65625 21.53125 62.3125 
Q 17.390625 59.28125 14.984375 53.46875 
Q 12.59375 47.65625 12.5 36.921875 
Q 15.671875 41.75 20.265625 44.09375 
Q 24.859375 46.4375 29.890625 46.4375 
Q 38.671875 46.4375 44.84375 39.96875 
Q 51.03125 33.5 51.03125 23.25 
Q 51.03125 16.5 48.125 10.71875 
Q 45.21875 4.9375 40.140625 1.859375 
Q 35.0625 -1.21875 28.609375 -1.21875 
Q 17.625 -1.21875 10.6875 6.859375 
Q 3.765625 14.9375 3.765625 33.5 
Q 3.765625 54.25 11.421875 63.671875 
Q 18.109375 71.875 29.4375 71.875 
Q 37.890625 71.875 43.28125 67.140625 
Q 48.6875 62.40625 49.75 54.046875 
z
M 13.875 23.1875 
Q 13.875 18.65625 15.796875 14.5 
Q 17.71875 10.359375 21.1875 8.171875 
Q 24.65625 6 28.46875 6 
Q 34.03125 6 38.03125 10.484375 
Q 42.046875 14.984375 42.046875 22.703125 
Q 42.046875 30.125 38.078125 34.390625 
Q 34.125 38.671875 28.125 38.671875 
Q 22.171875 38.671875 18.015625 34.390625 
Q 13.875 30.125 13.875 23.1875 
z
" id="ArialMT-54"/>
      </defs>
      <g transform="translate(33.076 134.499829)scale(0.088 -0.088)">
       <use transform="translate(0 0.99375)" xlink:href="#ArialMT-49"/>
       <use transform="translate(55.615234 0.99375)" xlink:href="#ArialMT-48"/>
       <use transform="translate(112.972813 70.6875)scale(0.7)" xlink:href="#ArialMT-8722"/>
       <use transform="translate(153.851719 70.6875)scale(0.7)" xlink:href="#ArialMT-54"/>
      </g>
     </g>
    </g>
    <g id="ytick_2">
     <g id="line2d_21">
      <g>
       <use style="stroke:#000000;" x="54" xlink:href="#mea0da97655" y="106.978594"/>
      </g>
     </g>
     <g id="line2d_22">
      <g>
       <use style="stroke:#000000;" x="388.8" xlink:href="#m5bdc7663b1" y="106.978594"/>
      </g>
     </g>
     <g id="text_2">
      <!-- $\mathdefault{10^{-4}}$ -->
      <defs>
       <path d="M 32.328125 0 
L 32.328125 17.140625 
L 1.265625 17.140625 
L 1.265625 25.203125 
L 33.9375 71.578125 
L 41.109375 71.578125 
L 41.109375 25.203125 
L 50.78125 25.203125 
L 50.78125 17.140625 
L 41.109375 17.140625 
L 41.109375 0 
z
M 32.328125 25.203125 
L 32.328125 57.46875 
L 9.90625 25.203125 
z
" id="ArialMT-52"/>
      </defs>
      <g transform="translate(33.076 111.472094)scale(0.088 -0.088)">
       <use transform="translate(0 0.201563)" xlink:href="#ArialMT-49"/>
       <use transform="translate(55.615234 0.201563)" xlink:href="#ArialMT-48"/>
       <use transform="translate(112.972813 69.895313)scale(0.7)" xlink:href="#ArialMT-8722"/>
       <use transform="translate(153.851719 69.895313)scale(0.7)" xlink:href="#ArialMT-52"/>
      </g>
     </g>
    </g>
    <g id="ytick_3">
     <g id="line2d_23">
      <g>
       <use style="stroke:#000000;" x="54" xlink:href="#mea0da97655" y="83.99486"/>
      </g>
     </g>
     <g id="line2d_24">
      <g>
       <use style="stroke:#000000;" x="388.8" xlink:href="#m5bdc7663b1" y="83.99486"/>
      </g>
     </g>
     <g id="text_3">
      <!-- $\mathdefault{10^{-2}}$ -->
      <defs>
       <path d="M 50.34375 8.453125 
L 50.34375 0 
L 3.03125 0 
Q 2.9375 3.171875 4.046875 6.109375 
Q 5.859375 10.9375 9.828125 15.625 
Q 13.8125 20.3125 21.34375 26.46875 
Q 33.015625 36.03125 37.109375 41.625 
Q 41.21875 47.21875 41.21875 52.203125 
Q 41.21875 57.421875 37.46875 61 
Q 33.734375 64.59375 27.734375 64.59375 
Q 21.390625 64.59375 17.578125 60.78125 
Q 13.765625 56.984375 13.71875 50.25 
L 4.6875 51.171875 
Q 5.609375 61.28125 11.65625 66.578125 
Q 17.71875 71.875 27.9375 71.875 
Q 38.234375 71.875 44.234375 66.15625 
Q 50.25 60.453125 50.25 52 
Q 50.25 47.703125 48.484375 43.546875 
Q 46.734375 39.40625 42.65625 34.8125 
Q 38.578125 30.21875 29.109375 22.21875 
Q 21.1875 15.578125 18.9375 13.203125 
Q 16.703125 10.84375 15.234375 8.453125 
z
" id="ArialMT-50"/>
      </defs>
      <g transform="translate(33.076 88.53236)scale(0.088 -0.088)">
       <use transform="translate(0 0.99375)" xlink:href="#ArialMT-49"/>
       <use transform="translate(55.615234 0.99375)" xlink:href="#ArialMT-48"/>
       <use transform="translate(112.972813 70.6875)scale(0.7)" xlink:href="#ArialMT-8722"/>
       <use transform="translate(153.851719 70.6875)scale(0.7)" xlink:href="#ArialMT-50"/>
      </g>
     </g>
    </g>
    <g id="ytick_4">
     <g id="line2d_25">
      <g>
       <use style="stroke:#000000;" x="54" xlink:href="#mea0da97655" y="61.011125"/>
      </g>
     </g>
     <g id="line2d_26">
      <g>
       <use style="stroke:#000000;" x="388.8" xlink:href="#m5bdc7663b1" y="61.011125"/>
      </g>
     </g>
     <g id="text_4">
      <!-- $\mathdefault{10^{0}}$ -->
      <g transform="translate(36.684 65.548625)scale(0.088 -0.088)">
       <use transform="translate(0 0.99375)" xlink:href="#ArialMT-49"/>
       <use transform="translate(55.615234 0.99375)" xlink:href="#ArialMT-48"/>
       <use transform="translate(112.972813 70.6875)scale(0.7)" xlink:href="#ArialMT-48"/>
      </g>
     </g>
    </g>
    <g id="ytick_5">
     <g id="line2d_27">
      <g>
       <use style="stroke:#000000;" x="54" xlink:href="#mea0da97655" y="38.02739"/>
      </g>
     </g>
     <g id="line2d_28">
      <g>
       <use style="stroke:#000000;" x="388.8" xlink:href="#m5bdc7663b1" y="38.02739"/>
      </g>
     </g>
     <g id="text_5">
      <!-- $\mathdefault{10^{2}}$ -->
      <g transform="translate(36.684 42.56489)scale(0.088 -0.088)">
       <use transform="translate(0 0.99375)" xlink:href="#ArialMT-49"/>
       <use transform="translate(55.615234 0.99375)" xlink:href="#ArialMT-48"/>
       <use transform="translate(112.972813 70.6875)scale(0.7)" xlink:href="#ArialMT-50"/>
      </g>
     </g>
    </g>
    <g id="text_6">
     <!-- fitness -->
     <defs>
      <path d="M 8.6875 0 
L 8.6875 45.015625 
L 0.921875 45.015625 
L 0.921875 51.859375 
L 8.6875 51.859375 
L 8.6875 57.375 
Q 8.6875 62.59375 9.625 65.140625 
Q 10.890625 68.5625 14.078125 70.671875 
Q 17.28125 72.796875 23.046875 72.796875 
Q 26.765625 72.796875 31.25 71.921875 
L 29.9375 64.265625 
Q 27.203125 64.75 24.75 64.75 
Q 20.75 64.75 19.09375 63.03125 
Q 17.4375 61.328125 17.4375 56.640625 
L 17.4375 51.859375 
L 27.546875 51.859375 
L 27.546875 45.015625 
L 17.4375 45.015625 
L 17.4375 0 
z
" id="ArialMT-102"/>
      <path d="M 6.640625 61.46875 
L 6.640625 71.578125 
L 15.4375 71.578125 
L 15.4375 61.46875 
z
M 6.640625 0 
L 6.640625 51.859375 
L 15.4375 51.859375 
L 15.4375 0 
z
" id="ArialMT-105"/>
      <path d="M 25.78125 7.859375 
L 27.046875 0.09375 
Q 23.34375 -0.6875 20.40625 -0.6875 
Q 15.625 -0.6875 12.984375 0.828125 
Q 10.359375 2.34375 9.28125 4.8125 
Q 8.203125 7.28125 8.203125 15.1875 
L 8.203125 45.015625 
L 1.765625 45.015625 
L 1.765625 51.859375 
L 8.203125 51.859375 
L 8.203125 64.703125 
L 16.9375 69.96875 
L 16.9375 51.859375 
L 25.78125 51.859375 
L 25.78125 45.015625 
L 16.9375 45.015625 
L 16.9375 14.703125 
Q 16.9375 10.9375 17.40625 9.859375 
Q 17.875 8.796875 18.921875 8.15625 
Q 19.96875 7.515625 21.921875 7.515625 
Q 23.390625 7.515625 25.78125 7.859375 
z
" id="ArialMT-116"/>
      <path d="M 6.59375 0 
L 6.59375 51.859375 
L 14.5 51.859375 
L 14.5 44.484375 
Q 20.21875 53.03125 31 53.03125 
Q 35.6875 53.03125 39.625 51.34375 
Q 43.5625 49.65625 45.515625 46.921875 
Q 47.46875 44.1875 48.25 40.4375 
Q 48.734375 37.984375 48.734375 31.890625 
L 48.734375 0 
L 39.9375 0 
L 39.9375 31.546875 
Q 39.9375 36.921875 38.90625 39.578125 
Q 37.890625 42.234375 35.28125 43.8125 
Q 32.671875 45.40625 29.15625 45.40625 
Q 23.53125 45.40625 19.453125 41.84375 
Q 15.375 38.28125 15.375 28.328125 
L 15.375 0 
z
" id="ArialMT-110"/>
      <path d="M 42.09375 16.703125 
L 51.171875 15.578125 
Q 49.03125 7.625 43.21875 3.21875 
Q 37.40625 -1.171875 28.375 -1.171875 
Q 17 -1.171875 10.328125 5.828125 
Q 3.65625 12.84375 3.65625 25.484375 
Q 3.65625 38.578125 10.390625 45.796875 
Q 17.140625 53.03125 27.875 53.03125 
Q 38.28125 53.03125 44.875 45.953125 
Q 51.46875 38.875 51.46875 26.03125 
Q 51.46875 25.25 51.421875 23.6875 
L 12.75 23.6875 
Q 13.234375 15.140625 17.578125 10.59375 
Q 21.921875 6.0625 28.421875 6.0625 
Q 33.25 6.0625 36.671875 8.59375 
Q 40.09375 11.140625 42.09375 16.703125 
z
M 13.234375 30.90625 
L 42.1875 30.90625 
Q 41.609375 37.453125 38.875 40.71875 
Q 34.671875 45.796875 27.984375 45.796875 
Q 21.921875 45.796875 17.796875 41.75 
Q 13.671875 37.703125 13.234375 30.90625 
z
" id="ArialMT-101"/>
      <path d="M 3.078125 15.484375 
L 11.765625 16.84375 
Q 12.5 11.625 15.84375 8.84375 
Q 19.1875 6.0625 25.203125 6.0625 
Q 31.25 6.0625 34.171875 8.515625 
Q 37.109375 10.984375 37.109375 14.3125 
Q 37.109375 17.28125 34.515625 19 
Q 32.71875 20.171875 25.53125 21.96875 
Q 15.875 24.421875 12.140625 26.203125 
Q 8.40625 27.984375 6.46875 31.125 
Q 4.546875 34.28125 4.546875 38.09375 
Q 4.546875 41.546875 6.125 44.5 
Q 7.71875 47.46875 10.453125 49.421875 
Q 12.5 50.921875 16.03125 51.96875 
Q 19.578125 53.03125 23.640625 53.03125 
Q 29.734375 53.03125 34.34375 51.265625 
Q 38.96875 49.515625 41.15625 46.5 
Q 43.359375 43.5 44.1875 38.484375 
L 35.59375 37.3125 
Q 35.015625 41.3125 32.203125 43.546875 
Q 29.390625 45.796875 24.265625 45.796875 
Q 18.21875 45.796875 15.625 43.796875 
Q 13.03125 41.796875 13.03125 39.109375 
Q 13.03125 37.40625 14.109375 36.03125 
Q 15.1875 34.625 17.484375 33.6875 
Q 18.796875 33.203125 25.25 31.453125 
Q 34.578125 28.953125 38.25 27.359375 
Q 41.9375 25.78125 44.03125 22.75 
Q 46.140625 19.734375 46.140625 15.234375 
Q 46.140625 10.84375 43.578125 6.953125 
Q 41.015625 3.078125 36.171875 0.953125 
Q 31.34375 -1.171875 25.25 -1.171875 
Q 15.140625 -1.171875 9.84375 3.03125 
Q 4.546875 7.234375 3.078125 15.484375 
z
" id="ArialMT-115"/>
     </defs>
     <g transform="translate(27.168 102.792)rotate(-90)scale(0.096 -0.096)">
      <use xlink:href="#ArialMT-102"/>
      <use x="27.783203" xlink:href="#ArialMT-105"/>
      <use x="50" xlink:href="#ArialMT-116"/>
      <use x="77.783203" xlink:href="#ArialMT-110"/>
      <use x="133.398438" xlink:href="#ArialMT-101"/>
      <use x="189.013672" xlink:href="#ArialMT-115"/>
      <use x="239.013672" xlink:href="#ArialMT-115"/>
     </g>
    </g>
   </g>
   <g id="line2d_29">
    <path clip-path="url(#p8716fa6ea6)" d="M 69.218182 39.767307 
L 69.306014 39.767317 
L 69.393847 39.92148 
L 69.569512 40.890251 
L 70.008674 41.640104 
L 70.18434 42.547526 
L 70.272172 42.655479 
L 70.447837 43.510513 
L 70.623502 43.510513 
L 70.799167 43.786181 
L 71.150497 47.588013 
L 71.58966 47.588013 
L 71.677492 47.763845 
L 71.853157 49.133141 
L 71.94099 49.133141 
L 72.116655 50.055001 
L 72.29232 50.055001 
L 72.467985 50.70618 
L 72.64365 50.851744 
L 72.731483 50.851744 
L 72.907148 51.038124 
L 73.082813 52.851255 
L 73.170645 52.851357 
L 73.34631 55.128829 
L 73.521975 55.128829 
L 73.69764 57.97374 
L 73.873305 59.337826 
L 73.961138 59.337826 
L 74.136803 59.522101 
L 74.312468 61.155441 
L 74.575966 61.155441 
L 74.751631 61.478635 
L 75.102961 61.478635 
L 75.278626 62.801624 
L 75.454291 62.801624 
L 75.629956 63.493278 
L 76.156951 63.503571 
L 76.508281 64.742385 
L 76.947444 64.742385 
L 77.123109 65.386142 
L 77.298774 65.770608 
L 77.737936 65.770608 
L 77.913601 66.446828 
L 78.001434 66.446828 
L 78.264931 66.909098 
L 78.440596 68.351123 
L 78.879759 68.40045 
L 79.055424 72.411023 
L 79.231089 72.658764 
L 79.406754 73.62759 
L 79.582419 73.874103 
L 79.845917 73.953334 
L 80.021582 74.14376 
L 80.372912 74.315743 
L 80.724242 74.328708 
L 80.812074 74.600785 
L 80.98774 76.372447 
L 81.163405 77.595348 
L 81.426902 78.023525 
L 81.602567 80.859899 
L 81.6904 80.859899 
L 81.866065 88.514628 
L 82.129562 88.514628 
L 82.305227 88.665413 
L 82.656557 88.669179 
L 82.832222 89.090024 
L 83.44705 89.174559 
L 83.534883 89.716664 
L 83.710548 96.755617 
L 83.974045 96.755617 
L 84.14971 99.820016 
L 84.50104 99.832391 
L 84.588873 99.957733 
L 84.764538 100.467886 
L 84.85237 100.467886 
L 85.028035 101.504229 
L 85.555031 101.504229 
L 85.730696 102.124506 
L 85.906361 102.124506 
L 86.082026 102.237177 
L 86.169858 102.237177 
L 86.345523 103.75511 
L 86.784686 103.847099 
L 86.960351 104.303828 
L 87.136016 104.545352 
L 87.223848 104.556333 
L 87.399513 105.24685 
L 87.487346 105.24685 
L 87.663011 105.665078 
L 87.926509 105.694128 
L 88.014341 105.986404 
L 88.190006 107.277113 
L 88.629169 107.277113 
L 89.156164 109.646402 
L 89.243996 109.646402 
L 89.419661 109.932802 
L 89.507494 109.932802 
L 89.683159 110.24299 
L 89.858824 111.602284 
L 90.034489 112.141405 
L 90.210154 112.184173 
L 90.385819 112.439637 
L 90.561484 112.512705 
L 90.737149 112.810756 
L 90.824982 112.810756 
L 91.000647 113.528885 
L 91.176312 113.528885 
L 91.351977 113.735302 
L 91.615474 113.735302 
L 91.791139 117.801832 
L 92.230302 117.801832 
L 92.318135 117.947984 
L 92.4938 118.608421 
L 92.669465 118.608421 
L 92.84513 119.3125 
L 93.020795 119.3125 
L 93.19646 119.580203 
L 93.284292 119.580203 
L 93.459957 120.188444 
L 93.635622 120.323753 
L 93.811287 120.376737 
L 93.986952 121.264004 
L 94.25045 121.321419 
L 94.426115 122.574898 
L 94.777445 122.574898 
L 94.95311 123.738132 
L 95.30444 123.738132 
L 95.480105 124.789689 
L 95.919268 124.789689 
L 96.182765 125.644199 
L 96.270598 125.665787 
L 96.446263 126.295805 
L 96.621928 126.295805 
L 96.797593 126.654085 
L 97.061091 126.654085 
L 97.324588 127.224381 
L 97.763751 127.311237 
L 97.939416 127.611922 
L 98.115081 128.455058 
L 98.554244 128.532913 
L 98.729909 129.522069 
L 98.993406 129.522069 
L 99.169071 129.799347 
L 99.696066 129.82361 
L 99.871731 130.097627 
L 99.959564 130.097627 
L 100.135229 130.5928 
L 100.486559 130.654409 
L 100.925722 131.168208 
L 101.101387 131.168208 
L 101.540549 132.128293 
L 101.804047 132.128293 
L 101.891879 132.326006 
L 102.067544 133.811432 
L 102.506707 133.841333 
L 102.682372 134.558818 
L 102.858037 134.558818 
L 103.033702 134.857919 
L 103.209367 134.857919 
L 103.824195 136.168121 
L 104.175525 136.168121 
L 104.35119 136.826022 
L 104.614687 136.826022 
L 104.790352 137.089651 
L 105.141683 137.089651 
L 105.165637 138.214311 
L 105.165637 138.214311 
" style="fill:none;stroke:#e8000b;stroke-linecap:round;stroke-width:1.2;"/>
   </g>
   <g id="line2d_30">
    <path clip-path="url(#p8716fa6ea6)" d="M 69.218182 39.501818 
L 69.306014 39.501831 
L 69.481679 39.920616 
L 69.569512 39.922614 
L 69.745177 40.308804 
L 70.096507 40.312744 
L 70.272172 40.921258 
L 70.447837 40.921258 
L 70.53567 41.134963 
L 70.711335 43.719935 
L 70.799167 43.871055 
L 70.974832 45.461358 
L 71.150497 45.461358 
L 71.413995 45.779312 
L 71.58966 45.806926 
L 71.853157 47.7808 
L 72.116655 48.789068 
L 72.29232 50.40886 
L 72.467985 50.496696 
L 72.64365 51.255564 
L 72.731483 51.255564 
L 72.907148 51.656004 
L 72.99498 51.656004 
L 73.170645 55.907197 
L 73.609808 55.95532 
L 73.785473 56.076995 
L 73.961138 56.079388 
L 74.224635 60.227976 
L 74.839463 60.227976 
L 75.015128 60.824851 
L 75.542123 60.902012 
L 75.717788 61.917047 
L 75.893453 61.917047 
L 76.069118 62.772797 
L 76.508281 62.772797 
L 76.683946 67.954521 
L 76.947444 67.954521 
L 77.123109 75.178932 
L 79.494587 75.178932 
L 79.670252 79.439559 
L 80.197247 79.439559 
L 80.372912 79.851691 
L 80.548577 79.851837 
L 80.724242 80.89792 
L 80.899907 81.59204 
L 81.602567 81.59204 
L 81.778232 82.881588 
L 82.832222 82.881588 
L 83.007887 83.21383 
L 83.44705 83.21383 
L 83.622715 85.972233 
L 85.2037 86.082052 
L 85.379366 86.314602 
L 85.467198 86.331736 
L 85.642863 86.517467 
L 86.082026 86.517467 
L 86.257691 87.96331 
L 87.487346 87.96331 
L 87.663011 91.199841 
L 90.210154 91.199841 
L 90.385819 99.346642 
L 90.824982 99.352829 
L 91.000647 100.37163 
L 91.264144 100.37163 
L 91.439809 101.064692 
L 91.615474 101.064692 
L 91.791139 101.283357 
L 92.054637 101.353369 
L 92.230302 101.353369 
L 92.405967 101.62767 
L 92.4938 101.62767 
L 92.669465 103.555849 
L 93.372125 103.610015 
L 93.54779 105.04364 
L 93.723455 105.04364 
L 93.89912 105.775998 
L 94.074785 105.84102 
L 94.25045 106.964226 
L 95.392273 106.964226 
L 95.567938 107.488633 
L 95.743603 107.488633 
L 95.919268 108.880289 
L 96.709761 108.880289 
L 96.885426 109.297576 
L 97.412421 109.297576 
L 97.588086 109.764418 
L 97.763751 109.764418 
L 97.939416 110.092439 
L 98.378578 110.092439 
L 98.554244 113.669816 
L 100.310894 113.669816 
L 100.486559 113.951862 
L 106.634835 113.951862 
L 106.8105 114.073845 
L 107.688826 114.180163 
L 107.952323 114.187064 
L 108.127988 116.214371 
L 108.215821 116.214371 
L 108.391486 121.953956 
L 108.830648 121.975765 
L 109.094146 122.513451 
L 109.357643 122.513451 
L 109.445476 122.715108 
L 109.621141 125.668912 
L 109.796806 125.767546 
L 110.235969 125.780363 
L 110.323801 125.946678 
L 110.499466 126.918895 
L 110.850796 126.918895 
L 111.026461 127.50845 
L 111.816954 127.561831 
L 111.992619 128.503509 
L 112.607447 128.547704 
L 112.783112 129.159458 
L 112.958777 129.159458 
L 113.134442 129.787896 
L 113.661437 129.787896 
L 113.837102 130.731168 
L 114.45193 130.731168 
L 114.539762 130.854194 
L 114.715427 131.267361 
L 114.80326 131.267361 
L 114.978925 131.427104 
L 115.418087 131.427104 
L 115.593752 132.29631 
L 116.032915 132.29631 
L 116.20858 132.408279 
L 116.55991 132.408279 
L 116.735575 132.733985 
L 124.113507 132.733985 
L 124.289172 132.967024 
L 124.991832 132.967024 
L 125.167497 135.247084 
L 136.673557 135.327149 
L 136.849222 135.731462 
L 137.991045 135.731462 
L 138.16671 135.867721 
L 139.396365 135.935448 
L 139.57203 136.045226 
L 139.659863 136.045226 
L 139.835528 136.444409 
L 140.274691 136.45102 
L 140.450356 137.178335 
L 142.031341 137.178335 
L 142.207006 137.342033 
L 146.071637 137.342033 
L 146.247302 137.902621 
L 154.942721 137.904582 
L 154.982645 138.338182 
L 154.982645 138.338182 
" style="fill:none;stroke:#1ac938;stroke-linecap:round;stroke-width:1.2;"/>
   </g>
   <g id="line2d_31">
    <path clip-path="url(#p8716fa6ea6)" d="M 69.218182 40.256832 
L 69.393847 40.361044 
L 69.569512 41.143419 
L 69.920842 41.148539 
L 70.096507 41.726273 
L 70.360005 41.836629 
L 70.53567 42.306171 
L 70.711335 42.32734 
L 70.887 42.796615 
L 71.062665 42.796615 
L 71.23833 43.786674 
L 71.501827 43.838527 
L 71.677492 44.241205 
L 72.028822 44.325108 
L 72.204488 44.406965 
L 72.380153 44.855179 
L 72.555818 44.868152 
L 72.731483 45.61378 
L 72.907148 45.61378 
L 73.082813 45.787869 
L 73.258478 45.794569 
L 73.434143 46.418917 
L 73.609808 46.420709 
L 73.785473 46.606114 
L 74.04897 46.655602 
L 74.400301 49.157371 
L 74.663798 49.182621 
L 74.839463 49.590247 
L 75.190793 49.6565 
L 75.542123 51.56012 
L 75.805621 51.574417 
L 75.981286 53.054723 
L 76.244783 53.120837 
L 76.420448 53.735698 
L 76.596114 53.914786 
L 76.859611 53.914786 
L 77.035276 55.11008 
L 77.474439 55.11008 
L 77.737936 56.31376 
L 77.913601 56.31376 
L 78.089266 56.534191 
L 78.352764 56.585972 
L 78.528429 61.760193 
L 79.318922 61.788411 
L 79.494587 62.507737 
L 79.670252 62.507737 
L 79.845917 63.298213 
L 80.021582 63.299524 
L 80.372912 66.408036 
L 81.6904 66.451193 
L 81.866065 74.853768 
L 83.359218 74.853768 
L 83.534883 80.641169 
L 84.588873 80.641169 
L 84.764538 81.588364 
L 85.818528 81.650052 
L 86.082026 82.167386 
L 86.345523 82.167386 
L 86.521188 82.382832 
L 86.784686 82.383411 
L 86.960351 85.044073 
L 87.311681 85.044073 
L 87.487346 86.169872 
L 87.750844 86.169872 
L 87.926509 87.478121 
L 89.156164 87.478121 
L 89.331829 87.895847 
L 89.858824 87.895847 
L 90.034489 89.90947 
L 90.561484 89.90947 
L 90.737149 90.764386 
L 91.439809 90.764386 
L 91.615474 91.335941 
L 91.703307 91.335941 
L 91.878972 92.972883 
L 92.14247 92.972883 
L 92.318135 93.172039 
L 93.19646 93.172039 
L 93.372125 95.438013 
L 93.54779 95.438013 
L 93.723455 96.041379 
L 97.236756 96.085344 
L 97.412421 97.807154 
L 97.588086 97.807154 
L 97.763751 100.347602 
L 98.115081 100.347602 
L 98.290746 102.960403 
L 98.466411 103.142371 
L 98.554244 103.142371 
L 98.729909 103.442176 
L 98.993406 103.442176 
L 99.169071 103.861382 
L 99.432569 103.861382 
L 99.520401 104.06739 
L 99.696066 104.881888 
L 99.783899 104.881888 
L 99.959564 106.312872 
L 100.135229 106.312872 
L 100.223061 106.772494 
L 100.398726 107.837144 
L 102.155377 107.837144 
L 102.331042 108.992514 
L 103.209367 108.992514 
L 103.385032 109.685451 
L 104.087692 109.685451 
L 104.263357 109.831729 
L 106.547003 109.926341 
L 106.722668 110.042387 
L 107.688826 110.110589 
L 107.864491 112.768253 
L 108.215821 112.768253 
L 108.391486 113.247753 
L 109.445476 113.247753 
L 109.621141 113.492352 
L 110.060304 113.492352 
L 110.235969 114.240982 
L 111.114294 114.240982 
L 111.289959 114.474316 
L 111.377791 114.474316 
L 111.553456 115.232954 
L 111.904787 115.232954 
L 112.080452 115.667012 
L 112.256117 115.667012 
L 112.431782 116.845612 
L 121.215034 116.845612 
L 121.390699 117.368477 
L 128.856463 117.368477 
L 129.032128 118.172839 
L 129.822621 118.172839 
L 129.998286 120.272298 
L 130.964443 120.272298 
L 131.140108 120.549304 
L 131.403606 123.217503 
L 132.106266 123.298644 
L 132.281931 124.062246 
L 134.038582 124.156178 
L 134.214247 124.257826 
L 134.477744 124.257826 
L 134.653409 124.552142 
L 134.829074 124.552142 
L 135.004739 127.495332 
L 139.045035 127.495332 
L 139.2207 128.024195 
L 140.977351 128.024195 
L 141.153016 129.476386 
L 144.929814 129.476386 
L 145.105479 131.418377 
L 170.57691 131.418377 
L 170.752575 131.738874 
L 172.509225 131.738874 
L 172.68489 134.863044 
L 179.008832 134.863044 
L 179.184497 135.863463 
L 179.447995 135.863463 
L 179.62366 136.088513 
L 186.738094 136.088513 
L 186.913759 137.860183 
L 196.663168 137.860183 
L 196.711077 138.201949 
L 196.711077 138.201949 
" style="fill:none;stroke:#023eff;stroke-linecap:round;stroke-width:1.2;"/>
   </g>
   <g id="line2d_32">
    <path clip-path="url(#p8716fa6ea6)" d="M 69.218182 39.966133 
L 69.306014 39.966136 
L 69.481679 41.286654 
L 69.920842 41.309345 
L 70.096507 41.941466 
L 70.711335 42.019893 
L 70.887 42.392744 
L 71.062665 43.724458 
L 71.765325 43.727913 
L 72.028822 44.530698 
L 72.819315 44.637344 
L 72.99498 44.924957 
L 73.170645 44.924964 
L 73.34631 45.077625 
L 73.434143 45.077625 
L 73.609808 45.5376 
L 73.785473 45.670778 
L 73.961138 45.682521 
L 74.136803 45.935397 
L 74.312468 46.456886 
L 74.575966 46.458618 
L 74.751631 46.635126 
L 75.190793 46.741888 
L 75.366458 48.118016 
L 75.542123 48.118016 
L 75.981286 50.825721 
L 76.244783 50.825733 
L 76.420448 51.490831 
L 76.683946 51.499 
L 76.859611 51.813079 
L 77.123109 51.839001 
L 77.298774 52.491986 
L 78.089266 52.559897 
L 78.264931 53.143608 
L 78.440596 60.818485 
L 78.704094 60.818485 
L 78.879759 61.002118 
L 79.055424 63.092242 
L 79.406754 63.092675 
L 79.582419 63.735162 
L 79.933749 63.899948 
L 80.109414 70.69488 
L 80.372912 71.24201 
L 80.460744 71.244173 
L 80.812074 71.831455 
L 80.98774 71.831455 
L 81.163405 72.401672 
L 81.514735 72.42777 
L 81.6904 72.514029 
L 81.866065 72.514029 
L 82.129562 72.812647 
L 82.39306 72.819776 
L 82.568725 77.035943 
L 83.09572 77.035943 
L 83.271385 77.679139 
L 83.79838 77.679139 
L 83.974045 77.890031 
L 84.061878 77.890438 
L 84.237543 78.176125 
L 84.413208 82.255703 
L 85.467198 82.357679 
L 85.642863 85.368501 
L 86.082026 85.368501 
L 86.257691 85.506266 
L 86.696853 85.576368 
L 86.784686 85.770217 
L 86.872518 86.982149 
L 87.048183 92.199902 
L 87.136016 92.199902 
L 87.311681 94.522404 
L 88.102174 94.548787 
L 88.277839 94.680155 
L 88.629169 94.680155 
L 88.804834 97.959251 
L 88.980499 99.422788 
L 89.068331 99.422788 
L 89.243996 103.19938 
L 90.034489 103.19938 
L 90.210154 103.619787 
L 90.385819 103.772179 
L 90.561484 103.772179 
L 90.737149 105.150899 
L 91.000647 105.150899 
L 91.176312 106.484221 
L 92.14247 106.484221 
L 92.318135 107.724134 
L 93.108627 107.814172 
L 93.372125 107.881266 
L 93.723455 107.881266 
L 93.89912 108.381531 
L 95.216608 108.381531 
L 95.392273 108.92014 
L 96.621928 108.92014 
L 96.797593 110.000501 
L 97.148923 110.000501 
L 97.324588 110.474312 
L 98.290746 110.474312 
L 98.466411 111.432678 
L 100.135229 111.432678 
L 100.310894 113.786684 
L 108.742816 113.786684 
L 109.094146 117.939404 
L 112.870944 117.939404 
L 113.046609 119.222904 
L 116.823408 119.222904 
L 116.999073 119.339768 
L 117.877398 119.342641 
L 118.053063 119.516626 
L 119.194886 119.516626 
L 119.370551 120.201494 
L 119.897546 120.201494 
L 120.073211 120.390845 
L 120.512374 120.390845 
L 120.688039 122.02804 
L 128.329468 122.02804 
L 128.505133 122.154228 
L 131.227941 122.243468 
L 131.403606 122.461993 
L 131.579271 122.461993 
L 131.754936 123.853326 
L 132.984591 123.853326 
L 133.160256 124.098008 
L 133.248089 124.098008 
L 133.423754 124.969477 
L 135.004739 124.969477 
L 135.092572 125.088 
L 135.268237 126.078381 
L 136.585725 126.078381 
L 136.76139 126.341239 
L 138.957203 126.341239 
L 139.132868 127.53137 
L 145.720307 127.53137 
L 145.895972 127.796766 
L 146.071637 127.796766 
L 146.247302 128.342673 
L 175.583364 128.368182 
L 175.759029 129.186312 
L 194.555188 129.186312 
L 194.730853 129.824629 
L 195.609178 129.861538 
L 195.784843 130.667046 
L 223.188589 130.667046 
L 223.364255 130.898203 
L 223.452087 130.898203 
L 223.627752 132.710136 
L 230.390856 132.710136 
L 230.566521 132.852593 
L 230.742186 135.760822 
L 338.337023 135.760822 
L 338.512688 136.006837 
L 340.708501 136.006837 
L 340.884166 136.863053 
L 350.721409 136.863053 
L 350.897074 137.303805 
L 373.557864 137.303805 
L 373.581818 138.27216 
L 373.581818 138.27216 
" style="fill:none;stroke:#00d7ff;stroke-linecap:round;stroke-width:1.2;"/>
   </g>
   <g id="patch_3">
    <path d="M 54 143.28 
L 54 34.56 
" style="fill:none;stroke:#000000;stroke-linecap:square;stroke-linejoin:miter;"/>
   </g>
   <g id="patch_4">
    <path d="M 388.8 143.28 
L 388.8 34.56 
" style="fill:none;stroke:#000000;stroke-linecap:square;stroke-linejoin:miter;"/>
   </g>
   <g id="patch_5">
    <path d="M 54 143.28 
L 388.8 143.28 
" style="fill:none;stroke:#000000;stroke-linecap:square;stroke-linejoin:miter;"/>
   </g>
   <g id="patch_6">
    <path d="M 54 34.56 
L 388.8 34.56 
" style="fill:none;stroke:#000000;stroke-linecap:square;stroke-linejoin:miter;"/>
   </g>
   <g id="legend_1">
    <g id="patch_7">
     <path d="M 330.587375 93.469875 
L 384.64 93.469875 
Q 386.4 93.469875 386.4 91.709875 
L 386.4 42.72 
Q 386.4 40.96 384.64 40.96 
L 330.587375 40.96 
Q 328.827375 40.96 328.827375 42.72 
L 328.827375 91.709875 
Q 328.827375 93.469875 330.587375 93.469875 
z
" style="fill:#4c4c4c;opacity:0.5;stroke:#4c4c4c;stroke-linejoin:miter;stroke-width:0.8;"/>
    </g>
    <g id="patch_8">
     <path d="M 328.587375 91.469875 
L 382.64 91.469875 
Q 384.4 91.469875 384.4 89.709875 
L 384.4 40.72 
Q 384.4 38.96 382.64 38.96 
L 328.587375 38.96 
Q 326.827375 38.96 326.827375 40.72 
L 326.827375 89.709875 
Q 326.827375 91.469875 328.587375 91.469875 
z
" style="fill:#ffffff;stroke:#000000;stroke-linejoin:miter;stroke-width:0.8;"/>
    </g>
    <g id="line2d_33">
     <path d="M 330.347375 45.725 
L 337.387375 45.725 
" style="fill:none;stroke:#e8000b;stroke-linecap:round;stroke-width:1.2;"/>
    </g>
    <g id="line2d_34"/>
    <g id="text_7">
     <!-- nstep=1 -->
     <defs>
      <path d="M 6.59375 -19.875 
L 6.59375 51.859375 
L 14.59375 51.859375 
L 14.59375 45.125 
Q 17.4375 49.078125 21 51.046875 
Q 24.5625 53.03125 29.640625 53.03125 
Q 36.28125 53.03125 41.359375 49.609375 
Q 46.4375 46.1875 49.015625 39.953125 
Q 51.609375 33.734375 51.609375 26.3125 
Q 51.609375 18.359375 48.75 11.984375 
Q 45.90625 5.609375 40.453125 2.21875 
Q 35.015625 -1.171875 29 -1.171875 
Q 24.609375 -1.171875 21.109375 0.6875 
Q 17.625 2.546875 15.375 5.375 
L 15.375 -19.875 
z
M 14.546875 25.640625 
Q 14.546875 15.625 18.59375 10.84375 
Q 22.65625 6.0625 28.421875 6.0625 
Q 34.28125 6.0625 38.453125 11.015625 
Q 42.625 15.96875 42.625 26.375 
Q 42.625 36.28125 38.546875 41.203125 
Q 34.46875 46.140625 28.8125 46.140625 
Q 23.1875 46.140625 18.859375 40.890625 
Q 14.546875 35.640625 14.546875 25.640625 
z
" id="ArialMT-112"/>
      <path d="M 52.828125 42.09375 
L 5.5625 42.09375 
L 5.5625 50.296875 
L 52.828125 50.296875 
z
M 52.828125 20.359375 
L 5.5625 20.359375 
L 5.5625 28.5625 
L 52.828125 28.5625 
z
" id="ArialMT-61"/>
     </defs>
     <g transform="translate(344.427375 48.805)scale(0.088 -0.088)">
      <use xlink:href="#ArialMT-110"/>
      <use x="55.615234" xlink:href="#ArialMT-115"/>
      <use x="105.615234" xlink:href="#ArialMT-116"/>
      <use x="133.398438" xlink:href="#ArialMT-101"/>
      <use x="189.013672" xlink:href="#ArialMT-112"/>
      <use x="244.628906" xlink:href="#ArialMT-61"/>
      <use x="303.027344" xlink:href="#ArialMT-49"/>
     </g>
    </g>
    <g id="line2d_35">
     <path d="M 330.347375 58.172875 
L 337.387375 58.172875 
" style="fill:none;stroke:#1ac938;stroke-linecap:round;stroke-width:1.2;"/>
    </g>
    <g id="line2d_36"/>
    <g id="text_8">
     <!-- nstep=5 -->
     <defs>
      <path d="M 4.15625 18.75 
L 13.375 19.53125 
Q 14.40625 12.796875 18.140625 9.390625 
Q 21.875 6 27.15625 6 
Q 33.5 6 37.890625 10.78125 
Q 42.28125 15.578125 42.28125 23.484375 
Q 42.28125 31 38.0625 35.34375 
Q 33.84375 39.703125 27 39.703125 
Q 22.75 39.703125 19.328125 37.765625 
Q 15.921875 35.84375 13.96875 32.765625 
L 5.71875 33.84375 
L 12.640625 70.609375 
L 48.25 70.609375 
L 48.25 62.203125 
L 19.671875 62.203125 
L 15.828125 42.96875 
Q 22.265625 47.46875 29.34375 47.46875 
Q 38.71875 47.46875 45.15625 40.96875 
Q 51.609375 34.46875 51.609375 24.265625 
Q 51.609375 14.546875 45.953125 7.46875 
Q 39.0625 -1.21875 27.15625 -1.21875 
Q 17.390625 -1.21875 11.203125 4.25 
Q 5.03125 9.71875 4.15625 18.75 
z
" id="ArialMT-53"/>
     </defs>
     <g transform="translate(344.427375 61.252875)scale(0.088 -0.088)">
      <use xlink:href="#ArialMT-110"/>
      <use x="55.615234" xlink:href="#ArialMT-115"/>
      <use x="105.615234" xlink:href="#ArialMT-116"/>
      <use x="133.398438" xlink:href="#ArialMT-101"/>
      <use x="189.013672" xlink:href="#ArialMT-112"/>
      <use x="244.628906" xlink:href="#ArialMT-61"/>
      <use x="303.027344" xlink:href="#ArialMT-53"/>
     </g>
    </g>
    <g id="line2d_37">
     <path d="M 330.347375 70.646875 
L 337.387375 70.646875 
" style="fill:none;stroke:#023eff;stroke-linecap:round;stroke-width:1.2;"/>
    </g>
    <g id="line2d_38"/>
    <g id="text_9">
     <!-- nstep=10 -->
     <g transform="translate(344.427375 73.726875)scale(0.088 -0.088)">
      <use xlink:href="#ArialMT-110"/>
      <use x="55.615234" xlink:href="#ArialMT-115"/>
      <use x="105.615234" xlink:href="#ArialMT-116"/>
      <use x="133.398438" xlink:href="#ArialMT-101"/>
      <use x="189.013672" xlink:href="#ArialMT-112"/>
      <use x="244.628906" xlink:href="#ArialMT-61"/>
      <use x="303.027344" xlink:href="#ArialMT-49"/>
      <use x="358.642578" xlink:href="#ArialMT-48"/>
     </g>
    </g>
    <g id="line2d_39">
     <path d="M 330.347375 83.120875 
L 337.387375 83.120875 
" style="fill:none;stroke:#00d7ff;stroke-linecap:round;stroke-width:1.2;"/>
    </g>
    <g id="line2d_40"/>
    <g id="text_10">
     <!-- nstep=50 -->
     <g transform="translate(344.427375 86.200875)scale(0.088 -0.088)">
      <use xlink:href="#ArialMT-110"/>
      <use x="55.615234" xlink:href="#ArialMT-115"/>
      <use x="105.615234" xlink:href="#ArialMT-116"/>
      <use x="133.398438" xlink:href="#ArialMT-101"/>
      <use x="189.013672" xlink:href="#ArialMT-112"/>
      <use x="244.628906" xlink:href="#ArialMT-61"/>
      <use x="303.027344" xlink:href="#ArialMT-53"/>
      <use x="358.642578" xlink:href="#ArialMT-48"/>
     </g>
    </g>
   </g>
  </g>
  <g id="axes_2">
   <g id="patch_9">
    <path d="M 54 252 
L 388.8 252 
L 388.8 143.28 
L 54 143.28 
z
" style="fill:#ffffff;"/>
   </g>
   <g id="matplotlib.axis_3">
    <g id="xtick_10">
     <g id="line2d_41">
      <g>
       <use style="stroke:#000000;" x="69.050502" xlink:href="#ma07dd9683e" y="252"/>
      </g>
     </g>
     <g id="line2d_42">
      <g>
       <use style="stroke:#000000;" x="69.050502" xlink:href="#m20f3abc7af" y="143.28"/>
      </g>
     </g>
     <g id="text_11">
      <!-- $\mathdefault{0}$ -->
      <g transform="translate(66.586502 261.798875)scale(0.088 -0.088)">
       <use transform="translate(0 0.125)" xlink:href="#ArialMT-48"/>
      </g>
     </g>
    </g>
    <g id="xtick_11">
     <g id="line2d_43">
      <g>
       <use style="stroke:#000000;" x="108.974374" xlink:href="#ma07dd9683e" y="252"/>
      </g>
     </g>
     <g id="line2d_44">
      <g>
       <use style="stroke:#000000;" x="108.974374" xlink:href="#m20f3abc7af" y="143.28"/>
      </g>
     </g>
     <g id="text_12">
      <!-- $\mathdefault{1}$ -->
      <g transform="translate(106.510374 261.798875)scale(0.088 -0.088)">
       <use transform="translate(0 0.125)" xlink:href="#ArialMT-49"/>
      </g>
     </g>
    </g>
    <g id="xtick_12">
     <g id="line2d_45">
      <g>
       <use style="stroke:#000000;" x="148.898247" xlink:href="#ma07dd9683e" y="252"/>
      </g>
     </g>
     <g id="line2d_46">
      <g>
       <use style="stroke:#000000;" x="148.898247" xlink:href="#m20f3abc7af" y="143.28"/>
      </g>
     </g>
     <g id="text_13">
      <!-- $\mathdefault{2}$ -->
      <g transform="translate(146.434247 261.798875)scale(0.088 -0.088)">
       <use transform="translate(0 0.125)" xlink:href="#ArialMT-50"/>
      </g>
     </g>
    </g>
    <g id="xtick_13">
     <g id="line2d_47">
      <g>
       <use style="stroke:#000000;" x="188.82212" xlink:href="#ma07dd9683e" y="252"/>
      </g>
     </g>
     <g id="line2d_48">
      <g>
       <use style="stroke:#000000;" x="188.82212" xlink:href="#m20f3abc7af" y="143.28"/>
      </g>
     </g>
     <g id="text_14">
      <!-- $\mathdefault{3}$ -->
      <defs>
       <path d="M 4.203125 18.890625 
L 12.984375 20.0625 
Q 14.5 12.59375 18.140625 9.296875 
Q 21.78125 6 27 6 
Q 33.203125 6 37.46875 10.296875 
Q 41.75 14.59375 41.75 20.953125 
Q 41.75 27 37.796875 30.921875 
Q 33.84375 34.859375 27.734375 34.859375 
Q 25.25 34.859375 21.53125 33.890625 
L 22.515625 41.609375 
Q 23.390625 41.5 23.921875 41.5 
Q 29.546875 41.5 34.03125 44.421875 
Q 38.53125 47.359375 38.53125 53.46875 
Q 38.53125 58.296875 35.25 61.46875 
Q 31.984375 64.65625 26.8125 64.65625 
Q 21.6875 64.65625 18.265625 61.421875 
Q 14.84375 58.203125 13.875 51.765625 
L 5.078125 53.328125 
Q 6.6875 62.15625 12.390625 67.015625 
Q 18.109375 71.875 26.609375 71.875 
Q 32.46875 71.875 37.390625 69.359375 
Q 42.328125 66.84375 44.9375 62.5 
Q 47.5625 58.15625 47.5625 53.265625 
Q 47.5625 48.640625 45.0625 44.828125 
Q 42.578125 41.015625 37.703125 38.765625 
Q 44.046875 37.3125 47.5625 32.6875 
Q 51.078125 28.078125 51.078125 21.140625 
Q 51.078125 11.765625 44.234375 5.25 
Q 37.40625 -1.265625 26.953125 -1.265625 
Q 17.53125 -1.265625 11.296875 4.34375 
Q 5.078125 9.96875 4.203125 18.890625 
z
" id="ArialMT-51"/>
      </defs>
      <g transform="translate(186.35812 261.798875)scale(0.088 -0.088)">
       <use transform="translate(0 0.125)" xlink:href="#ArialMT-51"/>
      </g>
     </g>
    </g>
    <g id="xtick_14">
     <g id="line2d_49">
      <g>
       <use style="stroke:#000000;" x="228.745993" xlink:href="#ma07dd9683e" y="252"/>
      </g>
     </g>
     <g id="line2d_50">
      <g>
       <use style="stroke:#000000;" x="228.745993" xlink:href="#m20f3abc7af" y="143.28"/>
      </g>
     </g>
     <g id="text_15">
      <!-- $\mathdefault{4}$ -->
      <g transform="translate(226.281993 261.798875)scale(0.088 -0.088)">
       <use transform="translate(0 0.421875)" xlink:href="#ArialMT-52"/>
      </g>
     </g>
    </g>
    <g id="xtick_15">
     <g id="line2d_51">
      <g>
       <use style="stroke:#000000;" x="268.669865" xlink:href="#ma07dd9683e" y="252"/>
      </g>
     </g>
     <g id="line2d_52">
      <g>
       <use style="stroke:#000000;" x="268.669865" xlink:href="#m20f3abc7af" y="143.28"/>
      </g>
     </g>
     <g id="text_16">
      <!-- $\mathdefault{5}$ -->
      <g transform="translate(266.205865 261.798875)scale(0.088 -0.088)">
       <use transform="translate(0 0.390625)" xlink:href="#ArialMT-53"/>
      </g>
     </g>
    </g>
    <g id="xtick_16">
     <g id="line2d_53">
      <g>
       <use style="stroke:#000000;" x="308.593738" xlink:href="#ma07dd9683e" y="252"/>
      </g>
     </g>
     <g id="line2d_54">
      <g>
       <use style="stroke:#000000;" x="308.593738" xlink:href="#m20f3abc7af" y="143.28"/>
      </g>
     </g>
     <g id="text_17">
      <!-- $\mathdefault{6}$ -->
      <g transform="translate(306.129738 261.798875)scale(0.088 -0.088)">
       <use transform="translate(0 0.125)" xlink:href="#ArialMT-54"/>
      </g>
     </g>
    </g>
    <g id="xtick_17">
     <g id="line2d_55">
      <g>
       <use style="stroke:#000000;" x="348.517611" xlink:href="#ma07dd9683e" y="252"/>
      </g>
     </g>
     <g id="line2d_56">
      <g>
       <use style="stroke:#000000;" x="348.517611" xlink:href="#m20f3abc7af" y="143.28"/>
      </g>
     </g>
     <g id="text_18">
      <!-- $\mathdefault{7}$ -->
      <defs>
       <path d="M 4.734375 62.203125 
L 4.734375 70.65625 
L 51.078125 70.65625 
L 51.078125 63.8125 
Q 44.234375 56.546875 37.515625 44.484375 
Q 30.8125 32.421875 27.15625 19.671875 
Q 24.515625 10.6875 23.78125 0 
L 14.75 0 
Q 14.890625 8.453125 18.0625 20.40625 
Q 21.234375 32.375 27.171875 43.484375 
Q 33.109375 54.59375 39.796875 62.203125 
z
" id="ArialMT-55"/>
      </defs>
      <g transform="translate(346.053611 261.798875)scale(0.088 -0.088)">
       <use transform="translate(0 0.34375)" xlink:href="#ArialMT-55"/>
      </g>
     </g>
    </g>
    <g id="xtick_18">
     <g id="line2d_57">
      <g>
       <use style="stroke:#000000;" x="388.441484" xlink:href="#ma07dd9683e" y="252"/>
      </g>
     </g>
     <g id="line2d_58">
      <g>
       <use style="stroke:#000000;" x="388.441484" xlink:href="#m20f3abc7af" y="143.28"/>
      </g>
     </g>
     <g id="text_19">
      <!-- $\mathdefault{8}$ -->
      <defs>
       <path d="M 17.671875 38.8125 
Q 12.203125 40.828125 9.5625 44.53125 
Q 6.9375 48.25 6.9375 53.421875 
Q 6.9375 61.234375 12.546875 66.546875 
Q 18.171875 71.875 27.484375 71.875 
Q 36.859375 71.875 42.578125 66.421875 
Q 48.296875 60.984375 48.296875 53.171875 
Q 48.296875 48.1875 45.671875 44.5 
Q 43.0625 40.828125 37.75 38.8125 
Q 44.34375 36.671875 47.78125 31.875 
Q 51.21875 27.09375 51.21875 20.453125 
Q 51.21875 11.28125 44.71875 5.03125 
Q 38.234375 -1.21875 27.640625 -1.21875 
Q 17.046875 -1.21875 10.546875 5.046875 
Q 4.046875 11.328125 4.046875 20.703125 
Q 4.046875 27.6875 7.59375 32.390625 
Q 11.140625 37.109375 17.671875 38.8125 
z
M 15.921875 53.71875 
Q 15.921875 48.640625 19.1875 45.40625 
Q 22.46875 42.1875 27.6875 42.1875 
Q 32.765625 42.1875 36.015625 45.375 
Q 39.265625 48.578125 39.265625 53.21875 
Q 39.265625 58.0625 35.90625 61.359375 
Q 32.5625 64.65625 27.59375 64.65625 
Q 22.5625 64.65625 19.234375 61.421875 
Q 15.921875 58.203125 15.921875 53.71875 
z
M 13.09375 20.65625 
Q 13.09375 16.890625 14.875 13.375 
Q 16.65625 9.859375 20.171875 7.921875 
Q 23.6875 6 27.734375 6 
Q 34.03125 6 38.125 10.046875 
Q 42.234375 14.109375 42.234375 20.359375 
Q 42.234375 26.703125 38.015625 30.859375 
Q 33.796875 35.015625 27.4375 35.015625 
Q 21.234375 35.015625 17.15625 30.90625 
Q 13.09375 26.8125 13.09375 20.65625 
z
" id="ArialMT-56"/>
      </defs>
      <g transform="translate(385.977484 261.798875)scale(0.088 -0.088)">
       <use transform="translate(0 0.125)" xlink:href="#ArialMT-56"/>
      </g>
     </g>
    </g>
    <g id="text_20">
     <!-- evaluations -->
     <defs>
      <path d="M 21 0 
L 1.265625 51.859375 
L 10.546875 51.859375 
L 21.6875 20.796875 
Q 23.484375 15.765625 25 10.359375 
Q 26.171875 14.453125 28.265625 20.21875 
L 39.796875 51.859375 
L 48.828125 51.859375 
L 29.203125 0 
z
" id="ArialMT-118"/>
      <path d="M 40.4375 6.390625 
Q 35.546875 2.25 31.03125 0.53125 
Q 26.515625 -1.171875 21.34375 -1.171875 
Q 12.796875 -1.171875 8.203125 3 
Q 3.609375 7.171875 3.609375 13.671875 
Q 3.609375 17.484375 5.34375 20.625 
Q 7.078125 23.78125 9.890625 25.6875 
Q 12.703125 27.59375 16.21875 28.5625 
Q 18.796875 29.25 24.03125 29.890625 
Q 34.671875 31.15625 39.703125 32.90625 
Q 39.75 34.71875 39.75 35.203125 
Q 39.75 40.578125 37.25 42.78125 
Q 33.890625 45.75 27.25 45.75 
Q 21.046875 45.75 18.09375 43.578125 
Q 15.140625 41.40625 13.71875 35.890625 
L 5.125 37.0625 
Q 6.296875 42.578125 8.984375 45.96875 
Q 11.671875 49.359375 16.75 51.1875 
Q 21.828125 53.03125 28.515625 53.03125 
Q 35.15625 53.03125 39.296875 51.46875 
Q 43.453125 49.90625 45.40625 47.53125 
Q 47.359375 45.171875 48.140625 41.546875 
Q 48.578125 39.3125 48.578125 33.453125 
L 48.578125 21.734375 
Q 48.578125 9.46875 49.140625 6.21875 
Q 49.703125 2.984375 51.375 0 
L 42.1875 0 
Q 40.828125 2.734375 40.4375 6.390625 
z
M 39.703125 26.03125 
Q 34.90625 24.078125 25.34375 22.703125 
Q 19.921875 21.921875 17.671875 20.9375 
Q 15.4375 19.96875 14.203125 18.09375 
Q 12.984375 16.21875 12.984375 13.921875 
Q 12.984375 10.40625 15.640625 8.0625 
Q 18.3125 5.71875 23.4375 5.71875 
Q 28.515625 5.71875 32.46875 7.9375 
Q 36.421875 10.15625 38.28125 14.015625 
Q 39.703125 17 39.703125 22.796875 
z
" id="ArialMT-97"/>
      <path d="M 6.390625 0 
L 6.390625 71.578125 
L 15.1875 71.578125 
L 15.1875 0 
z
" id="ArialMT-108"/>
      <path d="M 40.578125 0 
L 40.578125 7.625 
Q 34.515625 -1.171875 24.125 -1.171875 
Q 19.53125 -1.171875 15.546875 0.578125 
Q 11.578125 2.34375 9.640625 5 
Q 7.71875 7.671875 6.9375 11.53125 
Q 6.390625 14.109375 6.390625 19.734375 
L 6.390625 51.859375 
L 15.1875 51.859375 
L 15.1875 23.09375 
Q 15.1875 16.21875 15.71875 13.8125 
Q 16.546875 10.359375 19.234375 8.375 
Q 21.921875 6.390625 25.875 6.390625 
Q 29.828125 6.390625 33.296875 8.421875 
Q 36.765625 10.453125 38.203125 13.9375 
Q 39.65625 17.4375 39.65625 24.078125 
L 39.65625 51.859375 
L 48.4375 51.859375 
L 48.4375 0 
z
" id="ArialMT-117"/>
      <path d="M 3.328125 25.921875 
Q 3.328125 40.328125 11.328125 47.265625 
Q 18.015625 53.03125 27.640625 53.03125 
Q 38.328125 53.03125 45.109375 46.015625 
Q 51.90625 39.015625 51.90625 26.65625 
Q 51.90625 16.65625 48.90625 10.90625 
Q 45.90625 5.171875 40.15625 2 
Q 34.421875 -1.171875 27.640625 -1.171875 
Q 16.75 -1.171875 10.03125 5.8125 
Q 3.328125 12.796875 3.328125 25.921875 
z
M 12.359375 25.921875 
Q 12.359375 15.96875 16.703125 11.015625 
Q 21.046875 6.0625 27.640625 6.0625 
Q 34.1875 6.0625 38.53125 11.03125 
Q 42.875 16.015625 42.875 26.21875 
Q 42.875 35.84375 38.5 40.796875 
Q 34.125 45.75 27.640625 45.75 
Q 21.046875 45.75 16.703125 40.8125 
Q 12.359375 35.890625 12.359375 25.921875 
z
" id="ArialMT-111"/>
     </defs>
     <g transform="translate(197.118 274.419375)scale(0.096 -0.096)">
      <use xlink:href="#ArialMT-101"/>
      <use x="55.615234" xlink:href="#ArialMT-118"/>
      <use x="105.615234" xlink:href="#ArialMT-97"/>
      <use x="161.230469" xlink:href="#ArialMT-108"/>
      <use x="183.447266" xlink:href="#ArialMT-117"/>
      <use x="239.0625" xlink:href="#ArialMT-97"/>
      <use x="294.677734" xlink:href="#ArialMT-116"/>
      <use x="322.460938" xlink:href="#ArialMT-105"/>
      <use x="344.677734" xlink:href="#ArialMT-111"/>
      <use x="400.292969" xlink:href="#ArialMT-110"/>
      <use x="455.908203" xlink:href="#ArialMT-115"/>
     </g>
    </g>
    <g id="text_21">
     <!-- $\times\mathdefault{10^{4}}\mathdefault{}$ -->
     <defs>
      <path d="M 70.125 53.71875 
L 47.796875 31.296875 
L 70.125 8.984375 
L 64.3125 3.078125 
L 41.890625 25.484375 
L 19.484375 3.078125 
L 13.71875 8.984375 
L 35.984375 31.296875 
L 13.71875 53.71875 
L 19.484375 59.625 
L 41.890625 37.203125 
L 64.3125 59.625 
z
" id="DejaVuSans-215"/>
     </defs>
     <g transform="translate(367.592 275.534875)scale(0.088 -0.088)">
      <use transform="translate(0 0.201563)" xlink:href="#DejaVuSans-215"/>
      <use transform="translate(83.789062 0.201563)" xlink:href="#ArialMT-49"/>
      <use transform="translate(139.404297 0.201563)" xlink:href="#ArialMT-48"/>
      <use transform="translate(196.761875 69.895313)scale(0.7)" xlink:href="#ArialMT-52"/>
     </g>
    </g>
   </g>
   <g id="matplotlib.axis_4">
    <g id="ytick_6">
     <g id="line2d_59">
      <g>
       <use style="stroke:#000000;" x="54" xlink:href="#mea0da97655" y="224.093365"/>
      </g>
     </g>
     <g id="line2d_60">
      <g>
       <use style="stroke:#000000;" x="388.8" xlink:href="#m5bdc7663b1" y="224.093365"/>
      </g>
     </g>
     <g id="text_22">
      <!-- 0.5 -->
      <defs>
       <path d="M 9.078125 0 
L 9.078125 10.015625 
L 19.09375 10.015625 
L 19.09375 0 
z
" id="ArialMT-46"/>
      </defs>
      <g transform="translate(38.268 227.242802)scale(0.088 -0.088)">
       <use xlink:href="#ArialMT-48"/>
       <use x="55.615234" xlink:href="#ArialMT-46"/>
       <use x="83.398438" xlink:href="#ArialMT-53"/>
      </g>
     </g>
    </g>
    <g id="ytick_7">
     <g id="line2d_61">
      <g>
       <use style="stroke:#000000;" x="54" xlink:href="#mea0da97655" y="193.79184"/>
      </g>
     </g>
     <g id="line2d_62">
      <g>
       <use style="stroke:#000000;" x="388.8" xlink:href="#m5bdc7663b1" y="193.79184"/>
      </g>
     </g>
     <g id="text_23">
      <!-- 1.0 -->
      <g transform="translate(38.268 196.941277)scale(0.088 -0.088)">
       <use xlink:href="#ArialMT-49"/>
       <use x="55.615234" xlink:href="#ArialMT-46"/>
       <use x="83.398438" xlink:href="#ArialMT-48"/>
      </g>
     </g>
    </g>
    <g id="ytick_8">
     <g id="line2d_63">
      <g>
       <use style="stroke:#000000;" x="54" xlink:href="#mea0da97655" y="163.490315"/>
      </g>
     </g>
     <g id="line2d_64">
      <g>
       <use style="stroke:#000000;" x="388.8" xlink:href="#m5bdc7663b1" y="163.490315"/>
      </g>
     </g>
     <g id="text_24">
      <!-- 1.5 -->
      <g transform="translate(38.268 166.639752)scale(0.088 -0.088)">
       <use xlink:href="#ArialMT-49"/>
       <use x="55.615234" xlink:href="#ArialMT-46"/>
       <use x="83.398438" xlink:href="#ArialMT-53"/>
      </g>
     </g>
    </g>
    <g id="text_25">
     <!-- $\beta$ -->
     <defs>
      <path d="M 13.625 3.375 
L 8.9375 -20.796875 
L -0.09375 -20.796875 
L 14.5 54.34375 
Q 18.84375 76.609375 39.65625 76.609375 
Q 60.75 76.609375 57.171875 57.8125 
Q 54.734375 44.4375 45.21875 39.546875 
Q 58.015625 35.15625 55.515625 22.125 
Q 51.125 -1.078125 27.484375 -1.03125 
Q 17.140625 -0.984375 13.625 3.375 
z
M 15.921875 15.09375 
Q 19.671875 6.59375 29.296875 6.640625 
Q 43.359375 6.640625 46.34375 21.96875 
Q 49.03125 35.75 26.171875 34.671875 
L 27.78125 42.96875 
Q 45.453125 42.671875 48.53125 58.59375 
Q 50.640625 69.34375 39.203125 69.28125 
Q 26.421875 69.28125 23.484375 54.046875 
z
" id="DejaVuSans-Oblique-946"/>
     </defs>
     <g transform="translate(32.252 200.712)rotate(-90)scale(0.096 -0.096)">
      <use transform="translate(0 0.390625)" xlink:href="#DejaVuSans-Oblique-946"/>
     </g>
    </g>
   </g>
   <g id="line2d_65">
    <path clip-path="url(#pfcd46d4941)" d="M 69.218182 202.643392 
L 69.306014 203.571352 
L 69.393847 206.911892 
L 69.657344 234.273236 
L 69.833009 240.472726 
L 69.920842 236.212421 
L 70.096507 242.581592 
L 70.18434 242.449824 
L 70.53567 245.295664 
L 70.711335 243.20371 
L 70.799167 238.65711 
L 70.887 239.159216 
L 70.974832 240.292148 
L 71.062665 243.701179 
L 71.23833 237.749791 
L 71.326162 238.75922 
L 71.413995 242.414305 
L 71.501827 241.359065 
L 71.58966 238.791774 
L 71.677492 240.222985 
L 71.765325 239.624169 
L 71.853157 240.174452 
L 72.028822 239.316685 
L 72.116655 239.94456 
L 72.29232 244.738053 
L 72.555818 236.771666 
L 72.64365 232.62678 
L 72.99498 240.831669 
L 73.082813 235.57211 
L 73.170645 238.465367 
L 73.258478 235.279204 
L 73.434143 241.769068 
L 73.521975 234.028349 
L 73.69764 240.090828 
L 73.785473 238.626567 
L 73.873305 235.271176 
L 74.136803 241.860805 
L 74.224635 238.281527 
L 74.488133 244.412308 
L 74.663798 242.092413 
L 74.751631 243.213716 
L 74.839463 238.121423 
L 74.927296 238.452504 
L 75.102961 230.352031 
L 75.190793 236.335314 
L 75.278626 235.603334 
L 75.454291 237.774371 
L 75.542123 233.267605 
L 75.629956 234.43019 
L 75.717788 237.452259 
L 75.805621 236.561606 
L 75.981286 229.594224 
L 76.069118 233.064206 
L 76.156951 225.629404 
L 76.244783 227.224093 
L 76.332616 229.913556 
L 76.420448 228.889955 
L 76.596114 235.920723 
L 76.859611 230.481484 
L 77.035276 236.595297 
L 77.210941 238.53962 
L 77.298774 237.072475 
L 77.474439 239.872091 
L 77.562271 239.370991 
L 77.650104 236.844316 
L 77.737936 240.067896 
L 77.913601 236.778755 
L 78.001434 238.538607 
L 78.177099 234.414276 
L 78.264931 234.903541 
L 78.352764 229.378798 
L 78.616261 234.728045 
L 78.704094 234.32984 
L 78.879759 234.991871 
L 78.967592 235.936797 
L 79.055424 234.479392 
L 79.143257 235.562941 
L 79.231089 234.960344 
L 79.318922 236.066442 
L 79.406754 236.0571 
L 79.494587 234.814431 
L 79.582419 238.845174 
L 79.670252 238.514119 
L 79.758084 236.413201 
L 79.933749 239.928013 
L 80.021582 236.323934 
L 80.109414 237.195368 
L 80.197247 240.274391 
L 80.285079 239.875936 
L 80.372912 238.440755 
L 80.460744 230.122349 
L 80.724242 238.353759 
L 80.899907 241.267259 
L 80.98774 239.49958 
L 81.163405 233.77117 
L 81.33907 239.647463 
L 81.602567 235.449064 
L 81.6904 238.674245 
L 81.778232 237.316274 
L 81.866065 242.467189 
L 81.953897 235.057269 
L 82.04173 235.530617 
L 82.217395 239.18322 
L 82.305227 229.763775 
L 82.39306 233.239768 
L 82.480892 228.301332 
L 82.568725 232.152346 
L 82.832222 226.775335 
L 83.09572 222.226058 
L 83.183553 223.82337 
L 83.271385 219.621887 
L 83.359218 228.486816 
L 83.44705 225.358556 
L 83.710548 229.381303 
L 83.886213 224.786026 
L 84.061878 228.116265 
L 84.14971 231.385223 
L 84.413208 222.691782 
L 84.50104 223.095622 
L 84.764538 233.19744 
L 84.940203 236.803624 
L 85.115868 231.592525 
L 85.2037 232.794759 
L 85.291533 227.13212 
L 85.379366 228.659935 
L 85.555031 224.453973 
L 85.642863 224.63368 
L 85.994193 241.391921 
L 86.082026 233.178017 
L 86.169858 237.545332 
L 86.345523 227.771311 
L 86.433356 229.85715 
L 86.696853 211.691763 
L 86.872518 224.086326 
L 86.960351 220.627648 
L 87.048183 220.976968 
L 87.311681 217.822825 
L 87.487346 215.044781 
L 87.663011 218.934741 
L 87.750844 217.1249 
L 87.838676 219.161424 
L 87.926509 215.689443 
L 88.014341 225.225569 
L 88.102174 219.145328 
L 88.365671 236.159406 
L 88.541336 224.894945 
L 88.717001 219.184072 
L 88.892666 228.409147 
L 88.980499 228.737258 
L 89.068331 228.077599 
L 89.243996 218.211917 
L 89.331829 226.253652 
L 89.683159 209.833525 
L 89.770992 211.587179 
L 89.858824 208.194803 
L 89.946657 215.65065 
L 90.034489 205.788197 
L 90.122322 210.852648 
L 90.210154 210.427233 
L 90.297987 197.305657 
L 90.561484 218.482989 
L 90.649317 216.445979 
L 90.737149 220.512371 
L 90.824982 215.746269 
L 91.000647 225.413105 
L 91.088479 222.698267 
L 91.351977 231.635521 
L 91.439809 224.086538 
L 91.615474 231.041927 
L 91.703307 225.925291 
L 91.791139 228.054076 
L 91.966805 217.582089 
L 92.230302 227.859797 
L 92.669465 214.827886 
L 92.757297 213.147122 
L 92.84513 214.871279 
L 92.932962 214.194407 
L 93.020795 207.840924 
L 93.284292 212.760227 
L 93.459957 212.230602 
L 93.54779 215.593257 
L 93.811287 201.568385 
L 93.986952 206.904061 
L 94.074785 205.182954 
L 94.338283 217.522181 
L 94.426115 212.471512 
L 94.513948 213.790541 
L 94.60178 214.610239 
L 94.777445 219.093152 
L 94.865278 216.45368 
L 94.95311 209.069673 
L 95.040943 215.34035 
L 95.128775 213.180409 
L 95.216608 216.223305 
L 95.30444 214.368007 
L 95.392273 216.344703 
L 95.567938 209.359123 
L 95.65577 209.461596 
L 95.919268 199.743144 
L 96.0071 202.047112 
L 96.094933 207.776692 
L 96.182765 205.047953 
L 96.358431 206.141543 
L 96.621928 194.391523 
L 96.709761 194.971935 
L 96.973258 203.764817 
L 97.412421 182.167998 
L 97.588086 183.049157 
L 97.763751 181.403643 
L 97.939416 187.238819 
L 98.027248 189.944716 
L 98.202913 185.073434 
L 98.290746 186.929022 
L 98.554244 168.41751 
L 98.642076 169.098514 
L 98.817741 180.985373 
L 98.905574 181.858041 
L 98.993406 177.51669 
L 99.081239 181.615718 
L 99.256904 172.363129 
L 99.432569 181.988719 
L 99.696066 171.345067 
L 99.783899 175.647245 
L 100.047396 171.701964 
L 100.135229 171.838446 
L 100.223061 170.221131 
L 100.310894 162.100336 
L 100.486559 170.447485 
L 100.574391 163.961554 
L 100.662224 165.465028 
L 100.837889 158.748941 
L 100.925722 174.331528 
L 101.013554 165.961232 
L 101.101387 167.799705 
L 101.364884 161.158414 
L 101.452717 162.184057 
L 101.540549 163.807101 
L 101.628382 162.48068 
L 101.716214 164.406164 
L 101.804047 160.265508 
L 101.891879 162.167743 
L 101.979712 159.478543 
L 102.067544 162.327664 
L 102.155377 160.984327 
L 102.243209 161.294241 
L 102.331042 161.391908 
L 102.506707 164.595409 
L 102.594539 162.916199 
L 102.682372 165.138239 
L 102.858037 153.602546 
L 102.94587 151.198853 
L 103.033702 151.331872 
L 103.209367 150.972072 
L 103.385032 153.602471 
L 103.560697 148.221818 
L 103.64853 148.474359 
L 103.99986 166.647513 
L 104.175525 151.3902 
L 104.263357 163.861119 
L 104.35119 158.954209 
L 104.439022 161.759258 
L 104.614687 154.351129 
L 104.70252 154.466535 
L 104.790352 155.203694 
L 104.878185 153.033963 
L 104.966017 155.905781 
L 105.05385 154.733898 
L 105.141683 154.984221 
L 105.165637 155.386773 
L 105.165637 155.386773 
" style="fill:none;stroke:#e8000b;stroke-linecap:round;stroke-width:1.2;"/>
   </g>
   <g id="line2d_66">
    <path clip-path="url(#pfcd46d4941)" d="M 69.218182 201.621698 
L 69.569512 201.621698 
L 69.745177 207.253783 
L 70.008674 207.253783 
L 70.18434 222.842645 
L 70.447837 222.842645 
L 70.623502 233.566439 
L 70.887 233.566439 
L 71.062665 233.884751 
L 71.326162 233.884751 
L 71.501827 237.489222 
L 71.765325 237.489222 
L 71.94099 237.754813 
L 72.204488 237.754813 
L 72.380153 237.595069 
L 72.64365 237.595069 
L 72.819315 240.473322 
L 73.082813 240.473322 
L 73.258478 240.293376 
L 73.521975 240.293376 
L 73.69764 235.887733 
L 73.961138 235.887733 
L 74.136803 238.569157 
L 74.400301 238.569157 
L 74.575966 242.670888 
L 74.839463 242.670888 
L 75.015128 242.946814 
L 75.278626 242.946814 
L 75.454291 244.864405 
L 75.717788 244.864405 
L 75.893453 245.030848 
L 76.156951 245.030848 
L 76.332616 241.897733 
L 76.596114 241.897733 
L 76.771779 243.753344 
L 77.035276 243.753344 
L 77.210941 240.655577 
L 77.474439 240.655577 
L 77.650104 240.139374 
L 77.913601 240.139374 
L 78.089266 238.740088 
L 78.352764 238.740088 
L 78.528429 243.510307 
L 78.791927 243.510307 
L 78.967592 238.301398 
L 79.231089 238.301398 
L 79.406754 235.463628 
L 79.670252 235.463628 
L 79.845917 240.64164 
L 80.109414 240.64164 
L 80.285079 233.221644 
L 80.98774 233.189897 
L 81.163405 237.777265 
L 81.426902 237.777265 
L 81.602567 237.895897 
L 81.866065 237.895897 
L 82.04173 237.08202 
L 82.305227 237.08202 
L 82.480892 237.194708 
L 82.74439 237.194708 
L 82.920055 231.925773 
L 83.183553 231.925773 
L 83.359218 236.036393 
L 83.622715 236.036393 
L 83.79838 242.458386 
L 84.50104 242.505695 
L 84.676705 237.904495 
L 84.940203 237.904495 
L 85.115868 238.079702 
L 85.379366 238.079702 
L 85.555031 240.761757 
L 85.818528 240.761757 
L 85.994193 244.680197 
L 86.257691 244.680197 
L 86.433356 245.41728 
L 86.696853 245.41728 
L 86.872518 246.284238 
L 87.136016 246.284238 
L 87.311681 246.486091 
L 87.575179 246.486091 
L 87.750844 241.445478 
L 88.014341 241.445478 
L 88.190006 242.181192 
L 88.453504 242.181192 
L 88.629169 239.949345 
L 88.892666 239.949345 
L 89.068331 242.217758 
L 89.770992 242.132947 
L 89.946657 235.72555 
L 90.210154 235.72555 
L 90.385819 234.898608 
L 90.649317 234.898608 
L 90.824982 233.73661 
L 91.088479 233.73661 
L 91.264144 229.735687 
L 91.527642 229.735687 
L 91.703307 233.627114 
L 91.966805 233.627114 
L 92.14247 233.835673 
L 92.405967 233.835673 
L 92.581632 233.032323 
L 92.84513 233.032323 
L 93.020795 234.31745 
L 93.284292 234.31745 
L 93.459957 233.422496 
L 93.723455 233.422496 
L 93.89912 232.541313 
L 94.162618 232.541313 
L 94.338283 234.282606 
L 94.60178 234.282606 
L 94.777445 230.655267 
L 95.040943 230.655267 
L 95.216608 234.810422 
L 95.480105 234.810422 
L 95.65577 235.068186 
L 95.919268 235.068186 
L 96.094933 237.738046 
L 96.358431 237.738046 
L 96.534096 242.077819 
L 96.797593 242.077819 
L 96.973258 237.078728 
L 97.236756 237.078728 
L 97.412421 232.264332 
L 97.675918 232.264332 
L 97.851583 233.51344 
L 98.115081 233.51344 
L 98.290746 232.487 
L 98.554244 232.487 
L 98.729909 233.801186 
L 98.993406 233.801186 
L 99.169071 230.249372 
L 99.432569 230.249372 
L 99.608234 229.501876 
L 99.871731 229.501876 
L 100.047396 233.793668 
L 100.310894 233.793668 
L 100.486559 235.709683 
L 100.750057 235.709683 
L 100.925722 238.448894 
L 101.189219 238.448894 
L 101.364884 239.954666 
L 101.628382 239.954666 
L 101.804047 241.631729 
L 102.067544 241.631729 
L 102.243209 242.316961 
L 102.506707 242.316961 
L 102.682372 237.420741 
L 102.94587 237.420741 
L 103.121535 238.685642 
L 103.385032 238.685642 
L 103.560697 240.711125 
L 103.824195 240.711125 
L 103.99986 235.250158 
L 104.263357 235.250158 
L 104.439022 233.657756 
L 104.70252 233.657756 
L 104.878185 232.846437 
L 105.141683 232.846437 
L 105.317348 237.588279 
L 105.580845 237.588279 
L 105.75651 235.077858 
L 106.020008 235.077858 
L 106.195673 237.228901 
L 106.45917 237.228901 
L 106.634835 212.048527 
L 106.898333 212.048527 
L 107.073998 199.709407 
L 107.337496 199.709407 
L 107.513161 197.855304 
L 107.776658 197.855304 
L 107.952323 201.457305 
L 108.215821 201.457305 
L 108.391486 198.139557 
L 108.654983 198.139557 
L 108.830648 196.250234 
L 109.094146 196.250234 
L 109.269811 202.346675 
L 109.533309 202.346675 
L 109.708974 205.486337 
L 109.972471 205.486337 
L 110.148136 207.358602 
L 110.411634 207.358602 
L 110.587299 212.318498 
L 110.850796 212.318498 
L 111.026461 213.666069 
L 111.289959 213.666069 
L 111.465624 210.166899 
L 111.729122 210.166899 
L 111.904787 206.05736 
L 112.168284 206.05736 
L 112.343949 203.229828 
L 112.607447 203.229828 
L 112.783112 204.657383 
L 113.046609 204.657383 
L 113.222274 201.58005 
L 113.485772 201.58005 
L 113.661437 199.51495 
L 113.924935 199.51495 
L 114.1006 190.458986 
L 114.364097 190.458986 
L 114.539762 196.447801 
L 114.80326 196.447801 
L 114.978925 197.401706 
L 115.242422 197.401706 
L 115.418087 197.0904 
L 115.681585 197.0904 
L 115.85725 202.202361 
L 116.120748 202.202361 
L 116.296413 213.795547 
L 116.55991 213.795547 
L 116.735575 230.01215 
L 116.999073 230.01215 
L 117.174738 236.560908 
L 117.438235 236.560908 
L 117.6139 240.328323 
L 117.877398 240.328323 
L 118.053063 241.394766 
L 118.316561 241.394766 
L 118.492226 243.231146 
L 118.755723 243.231146 
L 118.931388 242.361749 
L 119.194886 242.361749 
L 119.370551 242.021929 
L 119.634048 242.021929 
L 119.809713 241.525223 
L 120.073211 241.525223 
L 120.248876 235.837507 
L 120.512374 235.837507 
L 120.688039 236.773877 
L 120.951536 236.773877 
L 121.127201 236.388573 
L 121.390699 236.388573 
L 121.566364 239.599009 
L 121.829861 239.599009 
L 122.005526 237.798599 
L 122.269024 237.798599 
L 122.444689 237.368583 
L 122.708187 237.368583 
L 122.883852 235.434764 
L 123.147349 235.434764 
L 123.323014 239.493264 
L 123.586512 239.493264 
L 123.762177 234.591041 
L 124.025674 234.591041 
L 124.201339 233.817305 
L 124.464837 233.817305 
L 124.640502 232.666275 
L 124.904 232.666275 
L 125.079665 237.120808 
L 125.343162 237.120808 
L 125.518827 241.557952 
L 125.782325 241.557952 
L 125.95799 241.691329 
L 126.221487 241.691329 
L 126.397152 235.335506 
L 126.66065 235.335506 
L 126.836315 238.170746 
L 127.099813 238.170746 
L 127.275478 238.971653 
L 127.538975 238.971653 
L 127.71464 238.589292 
L 127.978138 238.589292 
L 128.153803 240.18453 
L 128.4173 240.18453 
L 128.592965 240.69324 
L 128.856463 240.69324 
L 129.032128 241.560078 
L 129.295626 241.560078 
L 129.471291 241.910221 
L 129.734788 241.910221 
L 129.910453 237.705933 
L 130.173951 237.705933 
L 130.349616 244.378166 
L 130.613113 244.378166 
L 130.788778 245.912284 
L 131.052276 245.912284 
L 131.227941 244.203343 
L 131.491439 244.203343 
L 131.667104 244.020756 
L 132.369764 244.095902 
L 132.545429 245.569552 
L 132.808926 245.569552 
L 132.984591 244.530138 
L 133.248089 244.530138 
L 133.423754 241.168063 
L 133.687252 241.168063 
L 133.862917 239.077926 
L 134.126414 239.077926 
L 134.302079 238.665119 
L 134.565577 238.665119 
L 134.741242 243.356318 
L 135.004739 243.356318 
L 135.180404 238.40155 
L 135.443902 238.40155 
L 135.619567 200.858069 
L 135.883065 200.858069 
L 136.05873 183.984427 
L 136.322227 183.984427 
L 136.497892 171.652522 
L 136.76139 171.652522 
L 136.937055 176.793442 
L 137.200552 176.793442 
L 137.376217 162.140258 
L 137.639715 162.140258 
L 137.81538 163.385729 
L 138.957203 163.440427 
L 139.132868 162.687234 
L 139.396365 162.687234 
L 139.57203 162.183334 
L 139.835528 162.183334 
L 140.011193 163.263447 
L 140.274691 163.263447 
L 140.450356 162.45628 
L 140.713853 162.45628 
L 140.889518 157.318557 
L 141.153016 157.318557 
L 141.328681 184.7258 
L 141.592178 184.7258 
L 141.767843 200.08228 
L 142.031341 200.08228 
L 142.207006 203.625947 
L 142.470504 203.625947 
L 142.646169 211.450686 
L 142.909666 211.450686 
L 143.085331 214.636253 
L 143.348829 214.636253 
L 143.524494 216.335346 
L 143.787991 216.335346 
L 143.963656 216.640899 
L 144.227154 216.640899 
L 144.402819 216.245763 
L 144.666317 216.245763 
L 144.841982 219.450981 
L 145.105479 219.450981 
L 145.281144 218.758532 
L 145.544642 218.758532 
L 145.720307 224.216028 
L 146.422967 224.202793 
L 146.598632 232.193446 
L 146.86213 232.193446 
L 147.037795 221.40759 
L 147.301292 221.40759 
L 147.476957 218.608114 
L 148.179617 218.52129 
L 148.355282 221.024304 
L 148.61878 221.024304 
L 148.794445 219.931173 
L 149.057943 219.931173 
L 149.233608 221.501893 
L 149.497105 221.501893 
L 149.67277 223.218867 
L 149.936268 223.218867 
L 150.111933 223.437845 
L 150.37543 223.437845 
L 150.551095 224.686729 
L 150.814593 224.686729 
L 150.990258 226.065233 
L 151.253756 226.065233 
L 151.429421 224.956969 
L 151.692918 224.956969 
L 151.868583 222.767161 
L 152.132081 222.767161 
L 152.307746 220.808074 
L 152.571243 220.808074 
L 152.746908 214.332711 
L 153.010406 214.332711 
L 153.186071 205.329252 
L 153.449569 205.329252 
L 153.625234 195.101404 
L 153.888731 195.101404 
L 154.064396 193.823202 
L 154.327894 193.823202 
L 154.503559 191.005628 
L 154.767056 191.005628 
L 154.942721 191.594816 
L 154.982645 191.594816 
L 154.982645 191.594816 
" style="fill:none;stroke:#1ac938;stroke-linecap:round;stroke-width:1.2;"/>
   </g>
   <g id="line2d_67">
    <path clip-path="url(#pfcd46d4941)" d="M 69.218182 202.24431 
L 70.008674 202.24431 
L 70.18434 214.897178 
L 70.887 214.897178 
L 71.062665 221.426507 
L 71.765325 221.426507 
L 71.94099 228.146062 
L 72.64365 228.146062 
L 72.819315 224.575088 
L 73.521975 224.575088 
L 73.69764 226.788801 
L 74.400301 226.788801 
L 74.575966 233.086842 
L 75.278626 233.086842 
L 75.454291 236.071576 
L 76.156951 236.071576 
L 76.332616 237.361086 
L 77.035276 237.361086 
L 77.210941 236.098839 
L 77.913601 236.098839 
L 78.089266 232.145689 
L 78.791927 232.145689 
L 78.967592 231.910049 
L 79.670252 231.910049 
L 79.845917 234.713874 
L 80.548577 234.713874 
L 80.724242 237.346402 
L 81.426902 237.346402 
L 81.602567 234.801589 
L 82.305227 234.801589 
L 82.480892 233.336091 
L 83.183553 233.336091 
L 83.359218 236.025602 
L 84.061878 236.025602 
L 84.237543 236.817443 
L 84.940203 236.817443 
L 85.115868 239.037882 
L 85.818528 239.037882 
L 85.994193 231.572933 
L 86.696853 231.572933 
L 86.872518 234.247013 
L 87.575179 234.247013 
L 87.750844 237.598214 
L 88.453504 237.598214 
L 88.629169 235.49761 
L 89.331829 235.49761 
L 89.507494 235.330152 
L 90.210154 235.330152 
L 90.385819 243.747397 
L 91.088479 243.747397 
L 91.264144 244.319384 
L 91.966805 244.319384 
L 92.14247 244.127776 
L 93.723455 244.226079 
L 93.89912 243.255198 
L 94.60178 243.255198 
L 94.777445 244.227741 
L 95.480105 244.227741 
L 95.65577 243.724218 
L 96.358431 243.724218 
L 96.534096 223.750973 
L 97.236756 223.750973 
L 97.412421 223.623889 
L 98.115081 223.623889 
L 98.290746 227.358333 
L 98.993406 227.358333 
L 99.169071 231.239459 
L 99.871731 231.239459 
L 100.047396 236.051572 
L 100.750057 236.051572 
L 100.925722 240.464478 
L 101.628382 240.464478 
L 101.804047 239.514539 
L 102.506707 239.514539 
L 102.682372 234.463409 
L 103.385032 234.463409 
L 103.560697 237.663404 
L 104.263357 237.663404 
L 104.439022 234.900511 
L 105.141683 234.900511 
L 105.317348 238.271906 
L 106.020008 238.271906 
L 106.195673 237.817608 
L 106.898333 237.817608 
L 107.073998 233.195914 
L 107.776658 233.195914 
L 107.952323 230.196655 
L 108.654983 230.196655 
L 108.830648 235.356984 
L 109.533309 235.356984 
L 109.708974 234.973758 
L 110.411634 234.973758 
L 110.587299 236.178179 
L 111.289959 236.178179 
L 111.465624 233.068362 
L 112.168284 233.068362 
L 112.343949 236.369775 
L 113.046609 236.369775 
L 113.222274 238.881004 
L 113.924935 238.881004 
L 114.1006 242.765068 
L 114.80326 242.765068 
L 114.978925 242.299599 
L 115.681585 242.299599 
L 115.85725 243.625783 
L 116.55991 243.625783 
L 116.735575 245.125919 
L 117.438235 245.125919 
L 117.6139 239.916682 
L 118.316561 239.916682 
L 118.492226 241.029318 
L 119.194886 241.029318 
L 119.370551 237.654919 
L 120.951536 237.6836 
L 121.127201 239.657869 
L 121.829861 239.657869 
L 122.005526 238.98121 
L 122.708187 238.98121 
L 122.883852 237.704703 
L 123.586512 237.704703 
L 123.762177 237.019251 
L 124.464837 237.019251 
L 124.640502 240.51578 
L 125.343162 240.51578 
L 125.518827 242.403549 
L 126.221487 242.403549 
L 126.397152 240.802485 
L 127.099813 240.802485 
L 127.275478 243.652607 
L 127.978138 243.652607 
L 128.153803 245.443623 
L 128.856463 245.443623 
L 129.032128 240.380219 
L 129.734788 240.380219 
L 129.910453 232.123571 
L 130.613113 232.123571 
L 130.788778 229.595427 
L 131.491439 229.595427 
L 131.667104 226.722432 
L 132.369764 226.722432 
L 132.545429 229.127313 
L 133.248089 229.127313 
L 133.423754 231.229891 
L 134.126414 231.229891 
L 134.302079 232.913979 
L 135.004739 232.913979 
L 135.180404 234.679597 
L 135.883065 234.679597 
L 136.05873 235.470846 
L 136.76139 235.470846 
L 136.937055 229.641333 
L 137.639715 229.641333 
L 137.81538 231.024054 
L 138.51804 231.024054 
L 138.693705 227.617997 
L 139.396365 227.617997 
L 139.57203 235.096188 
L 140.274691 235.096188 
L 140.450356 238.047976 
L 142.031341 238.121674 
L 142.207006 238.594158 
L 142.909666 238.594158 
L 143.085331 237.923541 
L 143.787991 237.923541 
L 143.963656 236.822839 
L 144.666317 236.822839 
L 144.841982 235.202973 
L 145.544642 235.202973 
L 145.720307 238.620001 
L 146.422967 238.620001 
L 146.598632 239.146995 
L 147.301292 239.146995 
L 147.476957 236.290502 
L 148.179617 236.290502 
L 148.355282 235.929595 
L 149.057943 235.929595 
L 149.233608 236.080899 
L 149.936268 236.080899 
L 150.111933 238.071657 
L 150.814593 238.071657 
L 150.990258 237.198978 
L 151.692918 237.198978 
L 151.868583 236.051078 
L 152.571243 236.051078 
L 152.746908 235.294092 
L 153.449569 235.294092 
L 153.625234 239.467059 
L 154.327894 239.467059 
L 154.503559 235.161701 
L 155.206219 235.161701 
L 155.381884 240.174256 
L 156.084544 240.174256 
L 156.260209 242.5658 
L 156.962869 242.5658 
L 157.138534 237.936931 
L 157.841195 237.936931 
L 158.01686 240.204767 
L 158.71952 240.204767 
L 158.895185 241.445569 
L 159.597845 241.445569 
L 159.77351 241.037972 
L 160.47617 241.037972 
L 160.651835 243.767824 
L 161.354495 243.767824 
L 161.53016 244.170278 
L 162.232821 244.170278 
L 162.408486 244.024801 
L 163.111146 244.024801 
L 163.286811 245.158173 
L 163.989471 245.158173 
L 164.165136 244.854894 
L 164.867796 244.854894 
L 165.043461 241.802805 
L 165.746121 241.802805 
L 165.921786 237.743448 
L 166.624447 237.743448 
L 166.800112 236.585807 
L 167.502772 236.585807 
L 167.678437 232.846362 
L 168.381097 232.846362 
L 168.556762 226.191714 
L 169.259422 226.191714 
L 169.435087 216.559978 
L 170.137747 216.559978 
L 170.313412 219.232482 
L 171.016073 219.232482 
L 171.191738 222.368945 
L 171.894398 222.368945 
L 172.070063 222.596876 
L 172.772723 222.596876 
L 172.948388 222.942152 
L 173.651048 222.942152 
L 173.826713 219.797692 
L 174.529373 219.797692 
L 174.705038 218.414881 
L 175.407699 218.414881 
L 175.583364 216.750189 
L 176.286024 216.750189 
L 176.461689 219.393076 
L 177.164349 219.393076 
L 177.340014 227.050691 
L 178.042674 227.050691 
L 178.218339 218.519746 
L 178.920999 218.519746 
L 179.096664 212.193583 
L 179.799325 212.193583 
L 179.97499 206.116593 
L 180.67765 206.116593 
L 180.853315 203.586132 
L 181.555975 203.586132 
L 181.73164 202.196878 
L 182.4343 202.196878 
L 182.609965 202.461768 
L 183.312625 202.461768 
L 183.48829 205.761108 
L 184.190951 205.761108 
L 184.366616 206.412109 
L 185.069276 206.412109 
L 185.244941 208.11048 
L 185.947601 208.11048 
L 186.123266 214.099729 
L 186.825926 214.099729 
L 187.001591 215.733343 
L 187.704251 215.733343 
L 187.879916 215.13303 
L 188.582577 215.13303 
L 188.758242 211.838469 
L 189.460902 211.838469 
L 189.636567 212.879069 
L 190.339227 212.879069 
L 190.514892 207.921646 
L 191.217552 207.921646 
L 191.393217 210.208515 
L 192.095877 210.208515 
L 192.271542 217.101739 
L 192.974203 217.101739 
L 193.149868 218.93648 
L 193.852528 218.93648 
L 194.028193 220.449969 
L 194.730853 220.449969 
L 194.906518 220.594469 
L 195.609178 220.594469 
L 195.784843 217.610412 
L 196.487503 217.610412 
L 196.663168 223.799375 
L 196.711077 223.799375 
L 196.711077 223.799375 
" style="fill:none;stroke:#023eff;stroke-linecap:round;stroke-width:1.2;"/>
   </g>
   <g id="line2d_68">
    <path clip-path="url(#pfcd46d4941)" d="M 69.218182 202.246322 
L 73.521975 202.246322 
L 73.69764 217.193239 
L 77.913601 217.193239 
L 78.089266 231.328635 
L 82.305227 231.328635 
L 82.480892 235.676762 
L 86.696853 235.676762 
L 86.872518 238.846514 
L 91.088479 238.846514 
L 91.264144 237.910498 
L 95.480105 237.910498 
L 95.65577 240.06508 
L 99.871731 240.06508 
L 100.047396 239.674241 
L 104.263357 239.674241 
L 104.439022 241.725814 
L 108.654983 241.725814 
L 108.830648 240.911214 
L 117.438235 240.972214 
L 117.6139 235.56472 
L 121.829861 235.56472 
L 122.005526 239.364078 
L 126.221487 239.364078 
L 126.397152 240.304373 
L 130.613113 240.304373 
L 130.788778 237.951622 
L 135.004739 237.951622 
L 135.180404 237.327063 
L 139.396365 237.327063 
L 139.57203 234.066212 
L 143.787991 234.066212 
L 143.963656 235.713739 
L 148.179617 235.713739 
L 148.355282 234.344402 
L 152.571243 234.344402 
L 152.746908 238.093514 
L 156.962869 238.093514 
L 157.138534 240.062578 
L 161.354495 240.062578 
L 161.53016 243.412968 
L 165.746121 243.412968 
L 165.921786 243.78526 
L 170.137747 243.78526 
L 170.313412 244.873229 
L 174.529373 244.873229 
L 174.705038 239.81162 
L 178.920999 239.81162 
L 179.096664 242.664614 
L 183.312625 242.664614 
L 183.48829 243.346805 
L 187.704251 243.346805 
L 187.879916 238.363662 
L 192.095877 238.363662 
L 192.271542 238.700977 
L 196.487503 238.700977 
L 196.663168 239.238181 
L 200.879129 239.238181 
L 201.054794 239.084586 
L 205.270755 239.084586 
L 205.44642 237.056293 
L 209.662381 237.056293 
L 209.838046 238.969261 
L 214.054007 238.969261 
L 214.229672 239.646691 
L 218.445633 239.646691 
L 218.621298 244.482197 
L 222.837259 244.482197 
L 223.012924 243.895701 
L 231.620511 243.802009 
L 231.796176 239.499014 
L 236.012137 239.499014 
L 236.187802 236.500817 
L 240.403763 236.500817 
L 240.579428 239.541395 
L 244.795389 239.541395 
L 244.971054 243.358783 
L 249.187015 243.358783 
L 249.36268 240.705042 
L 253.578641 240.705042 
L 253.754306 238.406285 
L 257.970267 238.406285 
L 258.145932 241.632916 
L 262.361893 241.632916 
L 262.537558 240.779078 
L 266.753519 240.779078 
L 266.929184 244.623788 
L 271.145145 244.623788 
L 271.32081 244.98207 
L 275.536771 244.98207 
L 275.712437 245.156931 
L 279.928397 245.156931 
L 280.104063 242.346227 
L 284.320023 242.346227 
L 284.495689 246.968158 
L 288.711649 246.968158 
L 288.887315 246.839138 
L 293.103275 246.839138 
L 293.278941 246.045003 
L 301.886527 246.147249 
L 302.062193 247.058182 
L 306.278153 247.058182 
L 306.453819 246.896094 
L 310.669779 246.896094 
L 310.845445 246.38647 
L 315.061405 246.38647 
L 315.237071 245.542909 
L 319.453031 245.542909 
L 319.628697 239.130867 
L 323.844657 239.130867 
L 324.020323 237.917155 
L 328.236284 237.917155 
L 328.411949 236.295621 
L 332.62791 236.295621 
L 332.803575 226.293758 
L 337.019536 226.293758 
L 337.195201 231.608708 
L 341.411162 231.608708 
L 341.586827 234.866917 
L 345.802788 234.866917 
L 345.978453 236.6701 
L 350.194414 236.6701 
L 350.370079 237.284411 
L 354.58604 237.284411 
L 354.761705 239.933321 
L 358.977666 239.933321 
L 359.153331 242.635074 
L 363.369292 242.635074 
L 363.544957 241.60189 
L 367.760918 241.60189 
L 367.936583 242.315318 
L 372.152544 242.315318 
L 372.328209 241.247069 
L 373.581818 241.247069 
L 373.581818 241.247069 
" style="fill:none;stroke:#00d7ff;stroke-linecap:round;stroke-width:1.2;"/>
   </g>
   <g id="patch_10">
    <path d="M 54 252 
L 54 143.28 
" style="fill:none;stroke:#000000;stroke-linecap:square;stroke-linejoin:miter;"/>
   </g>
   <g id="patch_11">
    <path d="M 388.8 252 
L 388.8 143.28 
" style="fill:none;stroke:#000000;stroke-linecap:square;stroke-linejoin:miter;"/>
   </g>
   <g id="patch_12">
    <path d="M 54 252 
L 388.8 252 
" style="fill:none;stroke:#000000;stroke-linecap:square;stroke-linejoin:miter;"/>
   </g>
   <g id="patch_13">
    <path d="M 54 143.28 
L 388.8 143.28 
" style="fill:none;stroke:#000000;stroke-linecap:square;stroke-linejoin:miter;"/>
   </g>
  </g>
 </g>
 <defs>
  <clipPath id="p8716fa6ea6">
   <rect height="108.72" width="334.8" x="54" y="34.56"/>
  </clipPath>
  <clipPath id="pfcd46d4941">
   <rect height="108.72" width="334.8" x="54" y="143.28"/>
  </clipPath>
 </defs>
</svg>
