<?xml version="1.0" encoding="utf-8" standalone="no"?>
<!DOCTYPE svg PUBLIC "-//W3C//DTD SVG 1.1//EN"
  "http://www.w3.org/Graphics/SVG/1.1/DTD/svg11.dtd">
<!-- Created with matplotlib (https://matplotlib.org/) -->
<svg height="288pt" version="1.1" viewBox="0 0 432 288" width="432pt" xmlns="http://www.w3.org/2000/svg" xmlns:xlink="http://www.w3.org/1999/xlink">
 <defs>
  <style type="text/css">
*{stroke-linecap:butt;stroke-linejoin:round;}
  </style>
 </defs>
 <g id="figure_1">
  <g id="patch_1">
   <path d="M 0 288 
L 432 288 
L 432 0 
L 0 0 
z
" style="fill:#ffffff;"/>
  </g>
  <g id="axes_1">
   <g id="patch_2">
    <path d="M 54 88.92 
L 388.8 88.92 
L 388.8 34.56 
L 54 34.56 
z
" style="fill:#ffffff;"/>
   </g>
   <g id="matplotlib.axis_1">
    <g id="xtick_1">
     <g id="line2d_1">
      <defs>
       <path d="M 0 0 
L 0 -3 
" id="mb293b3c879" style="stroke:#000000;"/>
      </defs>
      <g>
       <use style="stroke:#000000;" x="63.475472" xlink:href="#mb293b3c879" y="88.92"/>
      </g>
     </g>
     <g id="line2d_2">
      <defs>
       <path d="M 0 0 
L 0 3 
" id="mb141e49700" style="stroke:#000000;"/>
      </defs>
      <g>
       <use style="stroke:#000000;" x="63.475472" xlink:href="#mb141e49700" y="34.56"/>
      </g>
     </g>
    </g>
    <g id="xtick_2">
     <g id="line2d_3">
      <g>
       <use style="stroke:#000000;" x="104.883093" xlink:href="#mb293b3c879" y="88.92"/>
      </g>
     </g>
     <g id="line2d_4">
      <g>
       <use style="stroke:#000000;" x="104.883093" xlink:href="#mb141e49700" y="34.56"/>
      </g>
     </g>
    </g>
    <g id="xtick_3">
     <g id="line2d_5">
      <g>
       <use style="stroke:#000000;" x="146.290715" xlink:href="#mb293b3c879" y="88.92"/>
      </g>
     </g>
     <g id="line2d_6">
      <g>
       <use style="stroke:#000000;" x="146.290715" xlink:href="#mb141e49700" y="34.56"/>
      </g>
     </g>
    </g>
    <g id="xtick_4">
     <g id="line2d_7">
      <g>
       <use style="stroke:#000000;" x="187.698337" xlink:href="#mb293b3c879" y="88.92"/>
      </g>
     </g>
     <g id="line2d_8">
      <g>
       <use style="stroke:#000000;" x="187.698337" xlink:href="#mb141e49700" y="34.56"/>
      </g>
     </g>
    </g>
    <g id="xtick_5">
     <g id="line2d_9">
      <g>
       <use style="stroke:#000000;" x="229.105958" xlink:href="#mb293b3c879" y="88.92"/>
      </g>
     </g>
     <g id="line2d_10">
      <g>
       <use style="stroke:#000000;" x="229.105958" xlink:href="#mb141e49700" y="34.56"/>
      </g>
     </g>
    </g>
    <g id="xtick_6">
     <g id="line2d_11">
      <g>
       <use style="stroke:#000000;" x="270.51358" xlink:href="#mb293b3c879" y="88.92"/>
      </g>
     </g>
     <g id="line2d_12">
      <g>
       <use style="stroke:#000000;" x="270.51358" xlink:href="#mb141e49700" y="34.56"/>
      </g>
     </g>
    </g>
    <g id="xtick_7">
     <g id="line2d_13">
      <g>
       <use style="stroke:#000000;" x="311.921202" xlink:href="#mb293b3c879" y="88.92"/>
      </g>
     </g>
     <g id="line2d_14">
      <g>
       <use style="stroke:#000000;" x="311.921202" xlink:href="#mb141e49700" y="34.56"/>
      </g>
     </g>
    </g>
    <g id="xtick_8">
     <g id="line2d_15">
      <g>
       <use style="stroke:#000000;" x="353.328823" xlink:href="#mb293b3c879" y="88.92"/>
      </g>
     </g>
     <g id="line2d_16">
      <g>
       <use style="stroke:#000000;" x="353.328823" xlink:href="#mb141e49700" y="34.56"/>
      </g>
     </g>
    </g>
   </g>
   <g id="matplotlib.axis_2">
    <g id="ytick_1">
     <g id="line2d_17">
      <defs>
       <path d="M 0 0 
L 3 0 
" id="m02c2efda6a" style="stroke:#000000;"/>
      </defs>
      <g>
       <use style="stroke:#000000;" x="54" xlink:href="#m02c2efda6a" y="76.84"/>
      </g>
     </g>
     <g id="line2d_18">
      <defs>
       <path d="M 0 0 
L -3 0 
" id="mff9ea0a4bc" style="stroke:#000000;"/>
      </defs>
      <g>
       <use style="stroke:#000000;" x="388.8" xlink:href="#mff9ea0a4bc" y="76.84"/>
      </g>
     </g>
     <g id="text_1">
      <!-- 0.5 -->
      <defs>
       <path d="M 4.15625 35.296875 
Q 4.15625 48 6.765625 55.734375 
Q 9.375 63.484375 14.515625 67.671875 
Q 19.671875 71.875 27.484375 71.875 
Q 33.25 71.875 37.59375 69.546875 
Q 41.9375 67.234375 44.765625 62.859375 
Q 47.609375 58.5 49.21875 52.21875 
Q 50.828125 45.953125 50.828125 35.296875 
Q 50.828125 22.703125 48.234375 14.96875 
Q 45.65625 7.234375 40.5 3 
Q 35.359375 -1.21875 27.484375 -1.21875 
Q 17.140625 -1.21875 11.234375 6.203125 
Q 4.15625 15.140625 4.15625 35.296875 
z
M 13.1875 35.296875 
Q 13.1875 17.671875 17.3125 11.828125 
Q 21.4375 6 27.484375 6 
Q 33.546875 6 37.671875 11.859375 
Q 41.796875 17.71875 41.796875 35.296875 
Q 41.796875 52.984375 37.671875 58.78125 
Q 33.546875 64.59375 27.390625 64.59375 
Q 21.34375 64.59375 17.71875 59.46875 
Q 13.1875 52.9375 13.1875 35.296875 
z
" id="ArialMT-48"/>
       <path d="M 9.078125 0 
L 9.078125 10.015625 
L 19.09375 10.015625 
L 19.09375 0 
z
" id="ArialMT-46"/>
       <path d="M 4.15625 18.75 
L 13.375 19.53125 
Q 14.40625 12.796875 18.140625 9.390625 
Q 21.875 6 27.15625 6 
Q 33.5 6 37.890625 10.78125 
Q 42.28125 15.578125 42.28125 23.484375 
Q 42.28125 31 38.0625 35.34375 
Q 33.84375 39.703125 27 39.703125 
Q 22.75 39.703125 19.328125 37.765625 
Q 15.921875 35.84375 13.96875 32.765625 
L 5.71875 33.84375 
L 12.640625 70.609375 
L 48.25 70.609375 
L 48.25 62.203125 
L 19.671875 62.203125 
L 15.828125 42.96875 
Q 22.265625 47.46875 29.34375 47.46875 
Q 38.71875 47.46875 45.15625 40.96875 
Q 51.609375 34.46875 51.609375 24.265625 
Q 51.609375 14.546875 45.953125 7.46875 
Q 39.0625 -1.21875 27.15625 -1.21875 
Q 17.390625 -1.21875 11.203125 4.25 
Q 5.03125 9.71875 4.15625 18.75 
z
" id="ArialMT-53"/>
      </defs>
      <g transform="translate(38.268 79.989438)scale(0.088 -0.088)">
       <use xlink:href="#ArialMT-48"/>
       <use x="55.615234" xlink:href="#ArialMT-46"/>
       <use x="83.398438" xlink:href="#ArialMT-53"/>
      </g>
     </g>
    </g>
    <g id="ytick_2">
     <g id="line2d_19">
      <g>
       <use style="stroke:#000000;" x="54" xlink:href="#m02c2efda6a" y="61.74"/>
      </g>
     </g>
     <g id="line2d_20">
      <g>
       <use style="stroke:#000000;" x="388.8" xlink:href="#mff9ea0a4bc" y="61.74"/>
      </g>
     </g>
     <g id="text_2">
      <!-- 1.0 -->
      <defs>
       <path d="M 37.25 0 
L 28.46875 0 
L 28.46875 56 
Q 25.296875 52.984375 20.140625 49.953125 
Q 14.984375 46.921875 10.890625 45.40625 
L 10.890625 53.90625 
Q 18.265625 57.375 23.78125 62.296875 
Q 29.296875 67.234375 31.59375 71.875 
L 37.25 71.875 
z
" id="ArialMT-49"/>
      </defs>
      <g transform="translate(38.268 64.889438)scale(0.088 -0.088)">
       <use xlink:href="#ArialMT-49"/>
       <use x="55.615234" xlink:href="#ArialMT-46"/>
       <use x="83.398438" xlink:href="#ArialMT-48"/>
      </g>
     </g>
    </g>
    <g id="ytick_3">
     <g id="line2d_21">
      <g>
       <use style="stroke:#000000;" x="54" xlink:href="#m02c2efda6a" y="46.64"/>
      </g>
     </g>
     <g id="line2d_22">
      <g>
       <use style="stroke:#000000;" x="388.8" xlink:href="#mff9ea0a4bc" y="46.64"/>
      </g>
     </g>
     <g id="text_3">
      <!-- 1.5 -->
      <g transform="translate(38.268 49.789438)scale(0.088 -0.088)">
       <use xlink:href="#ArialMT-49"/>
       <use x="55.615234" xlink:href="#ArialMT-46"/>
       <use x="83.398438" xlink:href="#ArialMT-53"/>
      </g>
     </g>
    </g>
    <g id="text_4">
     <!-- $\beta$ -->
     <defs>
      <path d="M 13.625 3.375 
L 8.9375 -20.796875 
L -0.09375 -20.796875 
L 14.5 54.34375 
Q 18.84375 76.609375 39.65625 76.609375 
Q 60.75 76.609375 57.171875 57.8125 
Q 54.734375 44.4375 45.21875 39.546875 
Q 58.015625 35.15625 55.515625 22.125 
Q 51.125 -1.078125 27.484375 -1.03125 
Q 17.140625 -0.984375 13.625 3.375 
z
M 15.921875 15.09375 
Q 19.671875 6.59375 29.296875 6.640625 
Q 43.359375 6.640625 46.34375 21.96875 
Q 49.03125 35.75 26.171875 34.671875 
L 27.78125 42.96875 
Q 45.453125 42.671875 48.53125 58.59375 
Q 50.640625 69.34375 39.203125 69.28125 
Q 26.421875 69.28125 23.484375 54.046875 
z
" id="DejaVuSans-Oblique-946"/>
     </defs>
     <g transform="translate(32.252 64.812)rotate(-90)scale(0.096 -0.096)">
      <use transform="translate(0 0.390625)" xlink:href="#DejaVuSans-Oblique-946"/>
     </g>
    </g>
   </g>
   <g id="line2d_23">
    <path clip-path="url(#p6fbf0234f8)" d="M 63.649384 66.150947 
L 63.74048 66.613373 
L 63.831577 68.278047 
L 64.104868 81.912882 
L 64.287061 85.002241 
L 64.378158 82.879226 
L 64.560351 86.053141 
L 64.651448 85.987478 
L 65.015835 87.40563 
L 65.198029 86.363158 
L 65.289126 84.097475 
L 65.380222 84.347687 
L 65.471319 84.912255 
L 65.562416 86.611059 
L 65.744609 83.645335 
L 65.835706 84.148359 
L 65.926803 85.969778 
L 66.0179 85.443926 
L 66.108996 84.164581 
L 66.200093 84.877789 
L 66.29119 84.579384 
L 66.382287 84.853604 
L 66.56448 84.426157 
L 66.655577 84.739043 
L 66.837771 87.127759 
L 67.111061 83.157911 
L 67.202158 81.092412 
L 67.566545 85.181111 
L 67.657641 82.560143 
L 67.748738 84.001924 
L 67.839835 82.414181 
L 68.022029 85.64824 
L 68.113125 81.790848 
L 68.295319 84.811932 
L 68.386416 84.082254 
L 68.477512 82.41018 
L 68.659706 85.353492 
L 68.750803 85.693955 
L 68.841899 83.910313 
L 69.11519 86.965432 
L 69.297383 85.809371 
L 69.38848 86.368144 
L 69.479577 83.830528 
L 69.570674 83.995514 
L 69.752867 79.958848 
L 69.843964 82.940466 
L 69.935061 82.575702 
L 70.117254 83.657584 
L 70.208351 81.411751 
L 70.299448 81.991096 
L 70.390545 83.497068 
L 70.481641 83.053233 
L 70.663835 79.581214 
L 70.754932 81.310392 
L 70.846028 77.605446 
L 70.937125 78.400119 
L 71.028222 79.740345 
L 71.119319 79.23026 
L 71.301512 82.733865 
L 71.574802 80.023358 
L 71.756996 83.070022 
L 71.93919 84.038926 
L 72.030286 83.307812 
L 72.21248 84.70293 
L 72.303577 84.453219 
L 72.394673 83.194114 
L 72.48577 84.800504 
L 72.667964 83.161444 
L 72.75906 84.038421 
L 72.941254 81.983166 
L 73.032351 82.226978 
L 73.123448 79.473862 
L 73.396738 82.139524 
L 73.487835 81.941089 
L 73.670028 82.270995 
L 73.761125 82.741875 
L 73.852222 82.015614 
L 73.943318 82.555574 
L 74.034415 82.255285 
L 74.216609 82.801825 
L 74.307706 82.182573 
L 74.398802 84.191192 
L 74.489899 84.026219 
L 74.580996 82.979279 
L 74.763189 84.730797 
L 74.854286 82.934795 
L 74.945383 83.369053 
L 75.03648 84.903406 
L 75.127576 84.704846 
L 75.218673 83.98966 
L 75.30977 79.844392 
L 75.58306 83.946307 
L 75.765254 85.398176 
L 75.856351 84.517298 
L 76.038544 81.66269 
L 76.220738 84.590992 
L 76.494028 82.498826 
L 76.585125 84.106013 
L 76.676221 83.429303 
L 76.767318 85.996131 
L 76.858415 82.303585 
L 76.949512 82.539466 
L 77.131705 84.359648 
L 77.222802 79.665706 
L 77.313899 81.397879 
L 77.404996 78.936934 
L 77.496092 80.85599 
L 77.769383 78.176492 
L 78.042673 75.909474 
L 78.13377 76.705455 
L 78.224867 74.611752 
L 78.315963 79.029365 
L 78.40706 77.470476 
L 78.68035 79.47511 
L 78.862544 77.18517 
L 79.044737 78.844711 
L 79.135834 80.473713 
L 79.409125 76.141556 
L 79.500221 76.3428 
L 79.773512 81.376786 
L 79.955705 83.173837 
L 80.137899 80.577017 
L 80.228995 81.17612 
L 80.320092 78.354287 
L 80.411189 79.115635 
L 80.593382 77.0197 
L 80.684479 77.109252 
L 80.95777 81.922886 
L 81.048866 85.460299 
L 81.139963 81.367107 
L 81.23106 83.543448 
L 81.413253 78.672811 
L 81.50435 79.712237 
L 81.77764 70.659975 
L 81.959834 76.836492 
L 82.050931 75.112948 
L 82.142028 75.287022 
L 82.415318 73.715235 
L 82.597511 72.330867 
L 82.779705 74.26933 
L 82.870802 73.367442 
L 82.961898 74.382292 
L 83.052995 72.652118 
L 83.144092 77.404205 
L 83.235189 74.374271 
L 83.508479 82.852807 
L 83.690673 77.239447 
L 83.872866 74.393578 
L 84.05506 78.990661 
L 84.146156 79.154167 
L 84.237253 78.825443 
L 84.419447 73.909129 
L 84.510544 77.916525 
L 84.874931 69.733969 
L 84.966027 70.607858 
L 85.057124 68.917353 
L 85.148221 72.632786 
L 85.239318 67.718082 
L 85.330414 70.241823 
L 85.421511 70.029828 
L 85.512608 63.491022 
L 85.785898 74.044211 
L 85.876995 73.029119 
L 85.968092 75.055502 
L 86.059189 72.680436 
L 86.241382 77.497659 
L 86.332479 76.144788 
L 86.605769 80.598443 
L 86.696866 76.836598 
L 86.879059 80.302641 
L 86.970156 77.752894 
L 87.061253 78.813721 
L 87.243447 73.59527 
L 87.516737 78.716906 
L 87.972221 72.222783 
L 88.063317 71.385216 
L 88.154414 72.244406 
L 88.245511 71.907104 
L 88.336608 68.741006 
L 88.609898 71.192417 
L 88.792092 70.928492 
L 88.883188 72.604186 
L 89.156479 65.615245 
L 89.338672 68.274144 
L 89.429769 67.416474 
L 89.703059 73.565416 
L 89.794156 71.048543 
L 90.158543 74.34827 
L 90.24964 73.032956 
L 90.340737 69.353322 
L 90.431833 72.478156 
L 90.52293 71.401804 
L 90.614027 72.918154 
L 90.705124 71.993614 
L 90.79622 72.97865 
L 90.978414 69.497563 
L 91.069511 69.548627 
L 91.342801 64.705682 
L 91.433898 65.853807 
L 91.524995 68.708998 
L 91.616091 67.3492 
L 91.798285 67.894163 
L 92.071575 62.038837 
L 92.162672 62.32807 
L 92.435962 66.709781 
L 92.891446 55.947552 
L 93.07364 56.386655 
L 93.255833 55.566655 
L 93.438027 58.474468 
L 93.529124 59.822883 
L 93.711317 57.395402 
L 93.802414 58.320088 
L 94.075704 49.095343 
L 94.166801 49.434704 
L 94.348994 55.35822 
L 94.440091 55.793093 
L 94.531188 53.62969 
L 94.622285 55.672337 
L 94.804478 51.061543 
L 94.986672 55.858213 
L 95.259962 50.554218 
L 95.351059 52.698099 
L 95.624349 50.732068 
L 95.715446 50.800081 
L 95.806543 49.994132 
L 95.897639 45.947339 
L 96.079833 50.10693 
L 96.17093 46.87483 
L 96.262027 47.624048 
L 96.44422 44.277256 
L 96.535317 52.042445 
L 96.626414 47.871319 
L 96.71751 48.787476 
L 96.990801 45.477956 
L 97.081897 45.989059 
L 97.172994 46.797862 
L 97.264091 46.136874 
L 97.355188 47.096391 
L 97.446285 45.032999 
L 97.537381 45.98093 
L 97.628478 44.640835 
L 97.719575 46.060622 
L 97.810672 45.391205 
L 97.901768 45.545642 
L 97.992865 45.594312 
L 98.175059 47.190696 
L 98.266155 46.353904 
L 98.357252 47.461201 
L 98.539446 41.71268 
L 98.630542 40.51486 
L 98.721639 40.581147 
L 98.903833 40.40185 
L 99.086026 41.712643 
L 99.26822 39.03133 
L 99.359317 39.157178 
L 99.723704 48.21331 
L 99.905897 40.610213 
L 99.996994 46.824781 
L 100.088091 44.379546 
L 100.179188 45.777371 
L 100.361381 42.085718 
L 100.452478 42.143227 
L 100.543575 42.510572 
L 100.634671 41.429341 
L 100.725768 42.860439 
L 100.816865 42.276461 
L 100.907962 42.401203 
L 100.932806 42.601804 
L 100.932806 42.601804 
" style="fill:none;stroke:#e8000b;stroke-linecap:round;stroke-width:1.2;"/>
   </g>
   <g id="patch_3">
    <path d="M 54 88.92 
L 54 34.56 
" style="fill:none;stroke:#000000;stroke-linecap:square;stroke-linejoin:miter;"/>
   </g>
   <g id="patch_4">
    <path d="M 388.8 88.92 
L 388.8 34.56 
" style="fill:none;stroke:#000000;stroke-linecap:square;stroke-linejoin:miter;"/>
   </g>
   <g id="patch_5">
    <path d="M 54 88.92 
L 388.8 88.92 
" style="fill:none;stroke:#000000;stroke-linecap:square;stroke-linejoin:miter;"/>
   </g>
   <g id="patch_6">
    <path d="M 54 34.56 
L 388.8 34.56 
" style="fill:none;stroke:#000000;stroke-linecap:square;stroke-linejoin:miter;"/>
   </g>
   <g id="text_5">
    <!-- Alpine N.1 -->
    <defs>
     <path d="M -0.140625 0 
L 27.34375 71.578125 
L 37.546875 71.578125 
L 66.84375 0 
L 56.0625 0 
L 47.703125 21.6875 
L 17.78125 21.6875 
L 9.90625 0 
z
M 20.515625 29.390625 
L 44.78125 29.390625 
L 37.3125 49.21875 
Q 33.890625 58.25 32.234375 64.0625 
Q 30.859375 57.171875 28.375 50.390625 
z
" id="ArialMT-65"/>
     <path d="M 6.390625 0 
L 6.390625 71.578125 
L 15.1875 71.578125 
L 15.1875 0 
z
" id="ArialMT-108"/>
     <path d="M 6.59375 -19.875 
L 6.59375 51.859375 
L 14.59375 51.859375 
L 14.59375 45.125 
Q 17.4375 49.078125 21 51.046875 
Q 24.5625 53.03125 29.640625 53.03125 
Q 36.28125 53.03125 41.359375 49.609375 
Q 46.4375 46.1875 49.015625 39.953125 
Q 51.609375 33.734375 51.609375 26.3125 
Q 51.609375 18.359375 48.75 11.984375 
Q 45.90625 5.609375 40.453125 2.21875 
Q 35.015625 -1.171875 29 -1.171875 
Q 24.609375 -1.171875 21.109375 0.6875 
Q 17.625 2.546875 15.375 5.375 
L 15.375 -19.875 
z
M 14.546875 25.640625 
Q 14.546875 15.625 18.59375 10.84375 
Q 22.65625 6.0625 28.421875 6.0625 
Q 34.28125 6.0625 38.453125 11.015625 
Q 42.625 15.96875 42.625 26.375 
Q 42.625 36.28125 38.546875 41.203125 
Q 34.46875 46.140625 28.8125 46.140625 
Q 23.1875 46.140625 18.859375 40.890625 
Q 14.546875 35.640625 14.546875 25.640625 
z
" id="ArialMT-112"/>
     <path d="M 6.640625 61.46875 
L 6.640625 71.578125 
L 15.4375 71.578125 
L 15.4375 61.46875 
z
M 6.640625 0 
L 6.640625 51.859375 
L 15.4375 51.859375 
L 15.4375 0 
z
" id="ArialMT-105"/>
     <path d="M 6.59375 0 
L 6.59375 51.859375 
L 14.5 51.859375 
L 14.5 44.484375 
Q 20.21875 53.03125 31 53.03125 
Q 35.6875 53.03125 39.625 51.34375 
Q 43.5625 49.65625 45.515625 46.921875 
Q 47.46875 44.1875 48.25 40.4375 
Q 48.734375 37.984375 48.734375 31.890625 
L 48.734375 0 
L 39.9375 0 
L 39.9375 31.546875 
Q 39.9375 36.921875 38.90625 39.578125 
Q 37.890625 42.234375 35.28125 43.8125 
Q 32.671875 45.40625 29.15625 45.40625 
Q 23.53125 45.40625 19.453125 41.84375 
Q 15.375 38.28125 15.375 28.328125 
L 15.375 0 
z
" id="ArialMT-110"/>
     <path d="M 42.09375 16.703125 
L 51.171875 15.578125 
Q 49.03125 7.625 43.21875 3.21875 
Q 37.40625 -1.171875 28.375 -1.171875 
Q 17 -1.171875 10.328125 5.828125 
Q 3.65625 12.84375 3.65625 25.484375 
Q 3.65625 38.578125 10.390625 45.796875 
Q 17.140625 53.03125 27.875 53.03125 
Q 38.28125 53.03125 44.875 45.953125 
Q 51.46875 38.875 51.46875 26.03125 
Q 51.46875 25.25 51.421875 23.6875 
L 12.75 23.6875 
Q 13.234375 15.140625 17.578125 10.59375 
Q 21.921875 6.0625 28.421875 6.0625 
Q 33.25 6.0625 36.671875 8.59375 
Q 40.09375 11.140625 42.09375 16.703125 
z
M 13.234375 30.90625 
L 42.1875 30.90625 
Q 41.609375 37.453125 38.875 40.71875 
Q 34.671875 45.796875 27.984375 45.796875 
Q 21.921875 45.796875 17.796875 41.75 
Q 13.671875 37.703125 13.234375 30.90625 
z
" id="ArialMT-101"/>
     <path id="ArialMT-32"/>
     <path d="M 7.625 0 
L 7.625 71.578125 
L 17.328125 71.578125 
L 54.9375 15.375 
L 54.9375 71.578125 
L 64.015625 71.578125 
L 64.015625 0 
L 54.296875 0 
L 16.703125 56.25 
L 16.703125 0 
z
" id="ArialMT-78"/>
    </defs>
    <g transform="translate(199.25475 28.56)scale(0.096 -0.096)">
     <use xlink:href="#ArialMT-65"/>
     <use x="66.699219" xlink:href="#ArialMT-108"/>
     <use x="88.916016" xlink:href="#ArialMT-112"/>
     <use x="144.53125" xlink:href="#ArialMT-105"/>
     <use x="166.748047" xlink:href="#ArialMT-110"/>
     <use x="222.363281" xlink:href="#ArialMT-101"/>
     <use x="277.978516" xlink:href="#ArialMT-32"/>
     <use x="305.761719" xlink:href="#ArialMT-78"/>
     <use x="377.978516" xlink:href="#ArialMT-46"/>
     <use x="405.761719" xlink:href="#ArialMT-49"/>
    </g>
   </g>
   <g id="legend_1">
    <g id="patch_7">
     <path d="M 337.824 57.064 
L 384.64 57.064 
Q 386.4 57.064 386.4 55.304 
L 386.4 42.72 
Q 386.4 40.96 384.64 40.96 
L 337.824 40.96 
Q 336.064 40.96 336.064 42.72 
L 336.064 55.304 
Q 336.064 57.064 337.824 57.064 
z
" style="fill:#4c4c4c;opacity:0.5;stroke:#4c4c4c;stroke-linejoin:miter;stroke-width:0.8;"/>
    </g>
    <g id="patch_8">
     <path d="M 335.824 55.064 
L 382.64 55.064 
Q 384.4 55.064 384.4 53.304 
L 384.4 40.72 
Q 384.4 38.96 382.64 38.96 
L 335.824 38.96 
Q 334.064 38.96 334.064 40.72 
L 334.064 53.304 
Q 334.064 55.064 335.824 55.064 
z
" style="fill:#ffffff;stroke:#000000;stroke-linejoin:miter;stroke-width:0.8;"/>
    </g>
    <g id="line2d_24">
     <path d="M 337.584 45.736 
L 344.624 45.736 
" style="fill:none;stroke:#e8000b;stroke-linecap:round;stroke-width:1.2;"/>
    </g>
    <g id="line2d_25"/>
    <g id="text_6">
     <!-- $n_{step}$=1 -->
     <defs>
      <path d="M 55.71875 33.015625 
L 49.3125 0 
L 40.28125 0 
L 46.6875 32.671875 
Q 47.125 34.96875 47.359375 36.71875 
Q 47.609375 38.484375 47.609375 39.5 
Q 47.609375 43.609375 45.015625 45.890625 
Q 42.4375 48.1875 37.796875 48.1875 
Q 30.5625 48.1875 25.34375 43.375 
Q 20.125 38.578125 18.5 30.328125 
L 12.5 0 
L 3.515625 0 
L 14.109375 54.6875 
L 23.09375 54.6875 
L 21.296875 46.09375 
Q 25.046875 50.828125 30.3125 53.40625 
Q 35.59375 56 41.40625 56 
Q 48.640625 56 52.609375 52.09375 
Q 56.59375 48.1875 56.59375 41.109375 
Q 56.59375 39.359375 56.375 37.359375 
Q 56.15625 35.359375 55.71875 33.015625 
z
" id="DejaVuSans-Oblique-110"/>
      <path d="M 50 53.078125 
L 48.296875 44.578125 
Q 44.734375 46.53125 40.765625 47.5 
Q 36.8125 48.484375 32.625 48.484375 
Q 25.53125 48.484375 21.453125 46.0625 
Q 17.390625 43.65625 17.390625 39.5 
Q 17.390625 34.671875 26.859375 32.078125 
Q 27.59375 31.890625 27.9375 31.78125 
L 30.8125 30.90625 
Q 39.796875 28.421875 42.796875 25.6875 
Q 45.796875 22.953125 45.796875 18.21875 
Q 45.796875 9.515625 38.890625 4.046875 
Q 31.984375 -1.421875 20.796875 -1.421875 
Q 16.453125 -1.421875 11.671875 -0.578125 
Q 6.890625 0.25 1.125 2 
L 2.875 11.28125 
Q 7.8125 8.734375 12.59375 7.421875 
Q 17.390625 6.109375 21.78125 6.109375 
Q 28.375 6.109375 32.5 8.9375 
Q 36.625 11.765625 36.625 16.109375 
Q 36.625 20.796875 25.78125 23.6875 
L 24.859375 23.921875 
L 21.78125 24.703125 
Q 14.9375 26.515625 11.765625 29.46875 
Q 8.59375 32.421875 8.59375 37.015625 
Q 8.59375 45.75 15.15625 50.875 
Q 21.734375 56 33.015625 56 
Q 37.453125 56 41.671875 55.265625 
Q 45.90625 54.546875 50 53.078125 
z
" id="DejaVuSans-Oblique-115"/>
      <path d="M 42.28125 54.6875 
L 40.921875 47.703125 
L 23 47.703125 
L 17.1875 18.015625 
Q 16.890625 16.359375 16.75 15.234375 
Q 16.609375 14.109375 16.609375 13.484375 
Q 16.609375 10.359375 18.484375 8.9375 
Q 20.359375 7.515625 24.515625 7.515625 
L 33.59375 7.515625 
L 32.078125 0 
L 23.484375 0 
Q 15.484375 0 11.546875 3.125 
Q 7.625 6.25 7.625 12.59375 
Q 7.625 13.71875 7.765625 15.0625 
Q 7.90625 16.40625 8.203125 18.015625 
L 14.015625 47.703125 
L 6.390625 47.703125 
L 7.8125 54.6875 
L 15.28125 54.6875 
L 18.3125 70.21875 
L 27.296875 70.21875 
L 24.3125 54.6875 
z
" id="DejaVuSans-Oblique-116"/>
      <path d="M 48.09375 32.234375 
Q 48.25 33.015625 48.3125 33.84375 
Q 48.390625 34.671875 48.390625 35.5 
Q 48.390625 41.453125 44.890625 44.921875 
Q 41.40625 48.390625 35.40625 48.390625 
Q 28.71875 48.390625 23.578125 44.15625 
Q 18.453125 39.9375 15.828125 32.171875 
z
M 55.90625 25.203125 
L 14.109375 25.203125 
Q 13.8125 23.34375 13.71875 22.265625 
Q 13.625 21.1875 13.625 20.40625 
Q 13.625 13.625 17.796875 9.90625 
Q 21.96875 6.203125 29.59375 6.203125 
Q 35.453125 6.203125 40.671875 7.515625 
Q 45.90625 8.84375 50.390625 11.375 
L 48.6875 2.484375 
Q 43.84375 0.53125 38.6875 -0.4375 
Q 33.546875 -1.421875 28.21875 -1.421875 
Q 16.84375 -1.421875 10.71875 4.015625 
Q 4.59375 9.46875 4.59375 19.484375 
Q 4.59375 28.03125 7.640625 35.375 
Q 10.6875 42.71875 16.609375 48.484375 
Q 20.40625 52.09375 25.65625 54.046875 
Q 30.90625 56 36.8125 56 
Q 46.09375 56 51.578125 50.4375 
Q 57.078125 44.875 57.078125 35.5 
Q 57.078125 33.25 56.78125 30.6875 
Q 56.5 28.125 55.90625 25.203125 
z
" id="DejaVuSans-Oblique-101"/>
      <path d="M 49.609375 33.6875 
Q 49.609375 40.875 46.484375 44.671875 
Q 43.359375 48.484375 37.5 48.484375 
Q 33.5 48.484375 29.859375 46.4375 
Q 26.21875 44.390625 23.390625 40.484375 
Q 20.609375 36.625 18.9375 31.15625 
Q 17.28125 25.6875 17.28125 20.3125 
Q 17.28125 13.484375 20.40625 9.796875 
Q 23.53125 6.109375 29.296875 6.109375 
Q 33.546875 6.109375 37.1875 8.109375 
Q 40.828125 10.109375 43.40625 13.921875 
Q 46.1875 17.921875 47.890625 23.34375 
Q 49.609375 28.765625 49.609375 33.6875 
z
M 21.78125 46.390625 
Q 25.390625 51.125 30.296875 53.5625 
Q 35.203125 56 41.21875 56 
Q 49.609375 56 54.25 50.5 
Q 58.890625 45.015625 58.890625 35.109375 
Q 58.890625 27 56 19.65625 
Q 53.125 12.3125 47.703125 6.5 
Q 44.09375 2.640625 39.546875 0.609375 
Q 35.015625 -1.421875 29.984375 -1.421875 
Q 24.171875 -1.421875 20.21875 1 
Q 16.265625 3.421875 14.3125 8.203125 
L 8.6875 -20.796875 
L -0.296875 -20.796875 
L 14.40625 54.6875 
L 23.390625 54.6875 
z
" id="DejaVuSans-Oblique-112"/>
      <path d="M 52.828125 42.09375 
L 5.5625 42.09375 
L 5.5625 50.296875 
L 52.828125 50.296875 
z
M 52.828125 20.359375 
L 5.5625 20.359375 
L 5.5625 28.5625 
L 52.828125 28.5625 
z
" id="ArialMT-61"/>
     </defs>
     <g transform="translate(351.664 48.816)scale(0.088 -0.088)">
      <use transform="translate(0 0.125)" xlink:href="#DejaVuSans-Oblique-110"/>
      <use transform="translate(63.378906 -16.28125)scale(0.7)" xlink:href="#DejaVuSans-Oblique-115"/>
      <use transform="translate(99.848633 -16.28125)scale(0.7)" xlink:href="#DejaVuSans-Oblique-116"/>
      <use transform="translate(127.294922 -16.28125)scale(0.7)" xlink:href="#DejaVuSans-Oblique-101"/>
      <use transform="translate(170.361328 -16.28125)scale(0.7)" xlink:href="#DejaVuSans-Oblique-112"/>
      <use transform="translate(217.529297 0.125)" xlink:href="#ArialMT-61"/>
      <use transform="translate(275.927734 0.125)" xlink:href="#ArialMT-49"/>
     </g>
    </g>
   </g>
  </g>
  <g id="axes_2">
   <g id="patch_9">
    <path d="M 54 143.28 
L 388.8 143.28 
L 388.8 88.92 
L 54 88.92 
z
" style="fill:#ffffff;"/>
   </g>
   <g id="matplotlib.axis_3">
    <g id="xtick_9">
     <g id="line2d_26">
      <g>
       <use style="stroke:#000000;" x="63.475472" xlink:href="#mb293b3c879" y="143.28"/>
      </g>
     </g>
     <g id="line2d_27">
      <g>
       <use style="stroke:#000000;" x="63.475472" xlink:href="#mb141e49700" y="88.92"/>
      </g>
     </g>
    </g>
    <g id="xtick_10">
     <g id="line2d_28">
      <g>
       <use style="stroke:#000000;" x="104.883093" xlink:href="#mb293b3c879" y="143.28"/>
      </g>
     </g>
     <g id="line2d_29">
      <g>
       <use style="stroke:#000000;" x="104.883093" xlink:href="#mb141e49700" y="88.92"/>
      </g>
     </g>
    </g>
    <g id="xtick_11">
     <g id="line2d_30">
      <g>
       <use style="stroke:#000000;" x="146.290715" xlink:href="#mb293b3c879" y="143.28"/>
      </g>
     </g>
     <g id="line2d_31">
      <g>
       <use style="stroke:#000000;" x="146.290715" xlink:href="#mb141e49700" y="88.92"/>
      </g>
     </g>
    </g>
    <g id="xtick_12">
     <g id="line2d_32">
      <g>
       <use style="stroke:#000000;" x="187.698337" xlink:href="#mb293b3c879" y="143.28"/>
      </g>
     </g>
     <g id="line2d_33">
      <g>
       <use style="stroke:#000000;" x="187.698337" xlink:href="#mb141e49700" y="88.92"/>
      </g>
     </g>
    </g>
    <g id="xtick_13">
     <g id="line2d_34">
      <g>
       <use style="stroke:#000000;" x="229.105958" xlink:href="#mb293b3c879" y="143.28"/>
      </g>
     </g>
     <g id="line2d_35">
      <g>
       <use style="stroke:#000000;" x="229.105958" xlink:href="#mb141e49700" y="88.92"/>
      </g>
     </g>
    </g>
    <g id="xtick_14">
     <g id="line2d_36">
      <g>
       <use style="stroke:#000000;" x="270.51358" xlink:href="#mb293b3c879" y="143.28"/>
      </g>
     </g>
     <g id="line2d_37">
      <g>
       <use style="stroke:#000000;" x="270.51358" xlink:href="#mb141e49700" y="88.92"/>
      </g>
     </g>
    </g>
    <g id="xtick_15">
     <g id="line2d_38">
      <g>
       <use style="stroke:#000000;" x="311.921202" xlink:href="#mb293b3c879" y="143.28"/>
      </g>
     </g>
     <g id="line2d_39">
      <g>
       <use style="stroke:#000000;" x="311.921202" xlink:href="#mb141e49700" y="88.92"/>
      </g>
     </g>
    </g>
    <g id="xtick_16">
     <g id="line2d_40">
      <g>
       <use style="stroke:#000000;" x="353.328823" xlink:href="#mb293b3c879" y="143.28"/>
      </g>
     </g>
     <g id="line2d_41">
      <g>
       <use style="stroke:#000000;" x="353.328823" xlink:href="#mb141e49700" y="88.92"/>
      </g>
     </g>
    </g>
   </g>
   <g id="matplotlib.axis_4">
    <g id="ytick_4">
     <g id="line2d_42">
      <g>
       <use style="stroke:#000000;" x="54" xlink:href="#m02c2efda6a" y="131.2"/>
      </g>
     </g>
     <g id="line2d_43">
      <g>
       <use style="stroke:#000000;" x="388.8" xlink:href="#mff9ea0a4bc" y="131.2"/>
      </g>
     </g>
     <g id="text_7">
      <!-- 0.5 -->
      <g transform="translate(38.268 134.349438)scale(0.088 -0.088)">
       <use xlink:href="#ArialMT-48"/>
       <use x="55.615234" xlink:href="#ArialMT-46"/>
       <use x="83.398438" xlink:href="#ArialMT-53"/>
      </g>
     </g>
    </g>
    <g id="ytick_5">
     <g id="line2d_44">
      <g>
       <use style="stroke:#000000;" x="54" xlink:href="#m02c2efda6a" y="116.1"/>
      </g>
     </g>
     <g id="line2d_45">
      <g>
       <use style="stroke:#000000;" x="388.8" xlink:href="#mff9ea0a4bc" y="116.1"/>
      </g>
     </g>
     <g id="text_8">
      <!-- 1.0 -->
      <g transform="translate(38.268 119.249438)scale(0.088 -0.088)">
       <use xlink:href="#ArialMT-49"/>
       <use x="55.615234" xlink:href="#ArialMT-46"/>
       <use x="83.398438" xlink:href="#ArialMT-48"/>
      </g>
     </g>
    </g>
    <g id="ytick_6">
     <g id="line2d_46">
      <g>
       <use style="stroke:#000000;" x="54" xlink:href="#m02c2efda6a" y="101"/>
      </g>
     </g>
     <g id="line2d_47">
      <g>
       <use style="stroke:#000000;" x="388.8" xlink:href="#mff9ea0a4bc" y="101"/>
      </g>
     </g>
     <g id="text_9">
      <!-- 1.5 -->
      <g transform="translate(38.268 104.149438)scale(0.088 -0.088)">
       <use xlink:href="#ArialMT-49"/>
       <use x="55.615234" xlink:href="#ArialMT-46"/>
       <use x="83.398438" xlink:href="#ArialMT-53"/>
      </g>
     </g>
    </g>
    <g id="text_10">
     <!-- $\beta$ -->
     <g transform="translate(32.252 119.172)rotate(-90)scale(0.096 -0.096)">
      <use transform="translate(0 0.390625)" xlink:href="#DejaVuSans-Oblique-946"/>
     </g>
    </g>
   </g>
   <g id="line2d_48">
    <path clip-path="url(#p5843ae954f)" d="M 63.649384 120.001812 
L 64.013771 120.001812 
L 64.195964 122.80842 
L 64.469255 122.80842 
L 64.651448 130.576735 
L 64.924738 130.576735 
L 65.106932 135.920667 
L 65.380222 135.920667 
L 65.562416 136.07929 
L 65.835706 136.07929 
L 66.0179 137.875487 
L 66.29119 137.875487 
L 66.473384 138.007838 
L 67.202158 137.928233 
L 67.384351 139.362538 
L 68.113125 139.272867 
L 68.295319 137.077425 
L 68.568609 137.077425 
L 68.750803 138.413645 
L 69.024093 138.413645 
L 69.206287 140.45764 
L 69.479577 140.45764 
L 69.66177 140.59514 
L 69.935061 140.59514 
L 70.117254 141.550723 
L 70.846028 141.633666 
L 71.028222 140.072357 
L 71.301512 140.072357 
L 71.483706 140.997054 
L 71.756996 140.997054 
L 71.93919 139.45336 
L 72.21248 139.45336 
L 72.394673 139.196124 
L 72.667964 139.196124 
L 72.850157 138.498824 
L 73.123448 138.498824 
L 73.305641 140.875943 
L 73.578931 140.875943 
L 73.761125 138.280215 
L 74.034415 138.280215 
L 74.216609 136.866083 
L 74.489899 136.866083 
L 74.672093 139.446415 
L 74.945383 139.446415 
L 75.127576 135.748847 
L 75.856351 135.733027 
L 76.038544 138.019026 
L 76.767318 138.078143 
L 76.949512 137.672568 
L 77.678286 137.728724 
L 77.860479 135.103083 
L 78.13377 135.103083 
L 78.315963 137.151506 
L 78.589254 137.151506 
L 78.771447 140.351744 
L 79.500221 140.37532 
L 79.682415 138.082428 
L 80.411189 138.169738 
L 80.593382 139.506272 
L 80.866673 139.506272 
L 81.048866 141.458928 
L 81.322157 141.458928 
L 81.50435 141.826235 
L 81.77764 141.826235 
L 81.959834 142.258261 
L 82.688608 142.35885 
L 82.870802 139.846987 
L 83.144092 139.846987 
L 83.326286 140.213612 
L 83.599576 140.213612 
L 83.781769 139.101427 
L 84.05506 139.101427 
L 84.237253 140.231833 
L 84.966027 140.18957 
L 85.148221 136.996606 
L 85.421511 136.996606 
L 85.603705 136.58452 
L 85.876995 136.58452 
L 86.059189 136.005468 
L 86.332479 136.005468 
L 86.514672 134.011709 
L 86.787963 134.011709 
L 86.970156 135.950903 
L 87.69893 136.054833 
L 87.881124 135.654504 
L 88.154414 135.654504 
L 88.336608 136.294915 
L 88.609898 136.294915 
L 88.792092 135.848937 
L 89.065382 135.848937 
L 89.247575 135.409821 
L 89.520866 135.409821 
L 89.703059 136.277551 
L 89.97635 136.277551 
L 90.158543 134.469958 
L 90.431833 134.469958 
L 90.614027 136.540575 
L 90.887317 136.540575 
L 91.069511 136.669025 
L 91.342801 136.669025 
L 91.524995 137.999482 
L 91.798285 137.999482 
L 91.980478 140.162098 
L 92.253769 140.162098 
L 92.435962 137.670928 
L 92.709253 137.670928 
L 92.891446 135.271795 
L 93.164736 135.271795 
L 93.34693 135.894256 
L 93.62022 135.894256 
L 93.802414 135.382756 
L 94.075704 135.382756 
L 94.257898 136.037647 
L 94.531188 136.037647 
L 94.713381 134.26769 
L 94.986672 134.26769 
L 95.168865 133.895195 
L 95.442156 133.895195 
L 95.624349 136.033901 
L 95.897639 136.033901 
L 96.079833 136.988699 
L 96.353123 136.988699 
L 96.535317 138.353716 
L 96.808607 138.353716 
L 96.990801 139.104079 
L 97.264091 139.104079 
L 97.446285 139.939801 
L 97.719575 139.939801 
L 97.901768 140.281269 
L 98.175059 140.281269 
L 98.357252 137.841361 
L 98.630542 137.841361 
L 98.812736 138.471693 
L 99.086026 138.471693 
L 99.26822 139.481041 
L 99.54151 139.481041 
L 99.723704 136.759706 
L 99.996994 136.759706 
L 100.179188 135.966173 
L 100.452478 135.966173 
L 100.634671 135.561873 
L 100.907962 135.561873 
L 101.090155 137.92485 
L 101.363446 137.92485 
L 101.545639 136.673845 
L 101.818929 136.673845 
L 102.001123 137.745763 
L 102.274413 137.745763 
L 102.456607 125.197759 
L 102.729897 125.197759 
L 102.912091 119.04887 
L 103.185381 119.04887 
L 103.367574 118.124925 
L 103.640865 118.124925 
L 103.823058 119.919891 
L 104.096349 119.919891 
L 104.278542 118.266575 
L 104.551832 118.266575 
L 104.734026 117.325079 
L 105.007316 117.325079 
L 105.18951 120.363086 
L 105.4628 120.363086 
L 105.644994 121.927657 
L 105.918284 121.927657 
L 106.100477 122.860653 
L 106.373768 122.860653 
L 106.555961 125.332292 
L 106.829252 125.332292 
L 107.011445 126.00382 
L 107.284735 126.00382 
L 107.466929 124.260097 
L 107.740219 124.260097 
L 107.922413 122.212212 
L 108.195703 122.212212 
L 108.377897 120.803183 
L 108.651187 120.803183 
L 108.83338 121.514569 
L 109.106671 121.514569 
L 109.288864 119.981058 
L 109.562155 119.981058 
L 109.744348 118.951967 
L 110.017638 118.951967 
L 110.199832 114.439157 
L 110.473122 114.439157 
L 110.655316 117.423531 
L 110.928606 117.423531 
L 111.1108 117.898886 
L 111.38409 117.898886 
L 111.566284 117.743754 
L 111.839574 117.743754 
L 112.021767 120.291171 
L 112.295058 120.291171 
L 112.477251 126.068342 
L 112.750541 126.068342 
L 112.932735 134.149477 
L 113.206025 134.149477 
L 113.388219 137.412885 
L 113.661509 137.412885 
L 113.843703 139.290281 
L 114.116993 139.290281 
L 114.299187 139.821716 
L 114.572477 139.821716 
L 114.75467 140.73683 
L 115.027961 140.73683 
L 115.210154 140.303588 
L 115.483445 140.303588 
L 115.665638 140.134247 
L 115.938928 140.134247 
L 116.121122 139.886726 
L 116.394412 139.886726 
L 116.576606 137.052397 
L 116.849896 137.052397 
L 117.03209 137.519013 
L 117.30538 137.519013 
L 117.487573 137.327007 
L 117.760864 137.327007 
L 117.943057 138.926846 
L 118.216348 138.926846 
L 118.398541 138.029657 
L 118.671831 138.029657 
L 118.854025 137.81537 
L 119.127315 137.81537 
L 119.309509 136.8517 
L 119.582799 136.8517 
L 119.764993 138.874151 
L 120.038283 138.874151 
L 120.220476 136.431252 
L 120.493767 136.431252 
L 120.67596 136.04568 
L 120.949251 136.04568 
L 121.131444 135.472093 
L 121.404734 135.472093 
L 121.586928 137.691897 
L 121.860218 137.691897 
L 122.042412 139.903036 
L 122.771186 139.969501 
L 122.953379 136.802237 
L 123.22667 136.802237 
L 123.408863 138.215107 
L 123.682154 138.215107 
L 123.864347 138.614219 
L 124.137637 138.614219 
L 124.319831 138.423679 
L 124.593121 138.423679 
L 124.775315 139.218626 
L 125.048605 139.218626 
L 125.230799 139.472129 
L 125.504089 139.472129 
L 125.686283 139.904095 
L 125.959573 139.904095 
L 126.141766 140.07858 
L 126.415057 140.07858 
L 126.59725 137.983479 
L 126.87054 137.983479 
L 127.052734 141.308418 
L 127.326024 141.308418 
L 127.508218 142.072907 
L 127.781508 142.072907 
L 127.963702 141.2213 
L 129.14796 141.167759 
L 129.330153 141.902116 
L 129.603444 141.902116 
L 129.785637 141.38415 
L 130.058927 141.38415 
L 130.241121 139.708745 
L 130.514411 139.708745 
L 130.696605 138.667177 
L 130.969895 138.667177 
L 131.152089 138.461466 
L 131.425379 138.461466 
L 131.607572 140.799206 
L 131.880863 140.799206 
L 132.063056 138.330123 
L 132.336347 138.330123 
L 132.51854 119.621277 
L 132.79183 119.621277 
L 132.974024 111.212724 
L 133.247314 111.212724 
L 133.429508 105.06743 
L 133.702798 105.06743 
L 133.884992 107.629277 
L 134.158282 107.629277 
L 134.340475 100.327234 
L 134.613766 100.327234 
L 134.795959 100.947882 
L 135.980217 100.97514 
L 136.162411 100.599805 
L 136.435701 100.599805 
L 136.617895 100.348699 
L 136.891185 100.348699 
L 137.073378 100.886946 
L 137.346669 100.886946 
L 137.528862 100.484715 
L 137.802153 100.484715 
L 137.984346 97.924461 
L 138.257636 97.924461 
L 138.43983 111.582168 
L 138.71312 111.582168 
L 138.895314 119.234682 
L 139.168604 119.234682 
L 139.350798 121.000579 
L 139.624088 121.000579 
L 139.806281 124.89984 
L 140.079572 124.89984 
L 140.261765 126.487287 
L 140.535056 126.487287 
L 140.717249 127.333987 
L 140.990539 127.333987 
L 141.172733 127.486252 
L 141.446023 127.486252 
L 141.628217 127.289345 
L 141.901507 127.289345 
L 142.083701 128.886585 
L 142.356991 128.886585 
L 142.539185 128.541521 
L 142.812475 128.541521 
L 142.994668 131.261126 
L 143.723443 131.25453 
L 143.905636 135.236471 
L 144.178926 135.236471 
L 144.36112 129.861612 
L 144.63441 129.861612 
L 144.816604 128.466564 
L 145.545378 128.423297 
L 145.727571 129.670611 
L 146.000862 129.670611 
L 146.183055 129.125877 
L 146.456346 129.125877 
L 146.638539 129.908606 
L 146.911829 129.908606 
L 147.094023 130.764216 
L 147.822797 130.873338 
L 148.004991 131.495688 
L 148.278281 131.495688 
L 148.460474 132.182631 
L 148.733765 132.182631 
L 148.915958 131.630355 
L 149.189249 131.630355 
L 149.371442 130.539119 
L 149.644732 130.539119 
L 149.826926 129.562858 
L 150.100216 129.562858 
L 150.28241 126.336025 
L 150.5557 126.336025 
L 150.737894 121.849378 
L 151.011184 121.849378 
L 151.193377 116.752588 
L 151.466668 116.752588 
L 151.648861 116.115629 
L 151.922152 116.115629 
L 152.104345 114.711562 
L 152.377635 114.711562 
L 152.559829 115.005168 
L 152.601237 115.005168 
L 152.601237 115.005168 
" style="fill:none;stroke:#1ac938;stroke-linecap:round;stroke-width:1.2;"/>
   </g>
   <g id="patch_10">
    <path d="M 54 143.28 
L 54 88.92 
" style="fill:none;stroke:#000000;stroke-linecap:square;stroke-linejoin:miter;"/>
   </g>
   <g id="patch_11">
    <path d="M 388.8 143.28 
L 388.8 88.92 
" style="fill:none;stroke:#000000;stroke-linecap:square;stroke-linejoin:miter;"/>
   </g>
   <g id="patch_12">
    <path d="M 54 143.28 
L 388.8 143.28 
" style="fill:none;stroke:#000000;stroke-linecap:square;stroke-linejoin:miter;"/>
   </g>
   <g id="patch_13">
    <path d="M 54 88.92 
L 388.8 88.92 
" style="fill:none;stroke:#000000;stroke-linecap:square;stroke-linejoin:miter;"/>
   </g>
   <g id="legend_2">
    <g id="patch_14">
     <path d="M 337.824 111.386875 
L 384.64 111.386875 
Q 386.4 111.386875 386.4 109.626875 
L 386.4 97.08 
Q 386.4 95.32 384.64 95.32 
L 337.824 95.32 
Q 336.064 95.32 336.064 97.08 
L 336.064 109.626875 
Q 336.064 111.386875 337.824 111.386875 
z
" style="fill:#4c4c4c;opacity:0.5;stroke:#4c4c4c;stroke-linejoin:miter;stroke-width:0.8;"/>
    </g>
    <g id="patch_15">
     <path d="M 335.824 109.386875 
L 382.64 109.386875 
Q 384.4 109.386875 384.4 107.626875 
L 384.4 95.08 
Q 384.4 93.32 382.64 93.32 
L 335.824 93.32 
Q 334.064 93.32 334.064 95.08 
L 334.064 107.626875 
Q 334.064 109.386875 335.824 109.386875 
z
" style="fill:#ffffff;stroke:#000000;stroke-linejoin:miter;stroke-width:0.8;"/>
    </g>
    <g id="line2d_49">
     <path d="M 337.584 100.058875 
L 344.624 100.058875 
" style="fill:none;stroke:#1ac938;stroke-linecap:round;stroke-width:1.2;"/>
    </g>
    <g id="line2d_50"/>
    <g id="text_11">
     <!-- $n_{step}$=5 -->
     <g transform="translate(351.664 103.138875)scale(0.088 -0.088)">
      <use transform="translate(0 0.390625)" xlink:href="#DejaVuSans-Oblique-110"/>
      <use transform="translate(63.378906 -16.015625)scale(0.7)" xlink:href="#DejaVuSans-Oblique-115"/>
      <use transform="translate(99.848633 -16.015625)scale(0.7)" xlink:href="#DejaVuSans-Oblique-116"/>
      <use transform="translate(127.294922 -16.015625)scale(0.7)" xlink:href="#DejaVuSans-Oblique-101"/>
      <use transform="translate(170.361328 -16.015625)scale(0.7)" xlink:href="#DejaVuSans-Oblique-112"/>
      <use transform="translate(217.529297 0.390625)" xlink:href="#ArialMT-61"/>
      <use transform="translate(275.927734 0.390625)" xlink:href="#ArialMT-53"/>
     </g>
    </g>
   </g>
  </g>
  <g id="axes_3">
   <g id="patch_16">
    <path d="M 54 197.64 
L 388.8 197.64 
L 388.8 143.28 
L 54 143.28 
z
" style="fill:#ffffff;"/>
   </g>
   <g id="matplotlib.axis_5">
    <g id="xtick_17">
     <g id="line2d_51">
      <g>
       <use style="stroke:#000000;" x="63.475472" xlink:href="#mb293b3c879" y="197.64"/>
      </g>
     </g>
     <g id="line2d_52">
      <g>
       <use style="stroke:#000000;" x="63.475472" xlink:href="#mb141e49700" y="143.28"/>
      </g>
     </g>
    </g>
    <g id="xtick_18">
     <g id="line2d_53">
      <g>
       <use style="stroke:#000000;" x="104.883093" xlink:href="#mb293b3c879" y="197.64"/>
      </g>
     </g>
     <g id="line2d_54">
      <g>
       <use style="stroke:#000000;" x="104.883093" xlink:href="#mb141e49700" y="143.28"/>
      </g>
     </g>
    </g>
    <g id="xtick_19">
     <g id="line2d_55">
      <g>
       <use style="stroke:#000000;" x="146.290715" xlink:href="#mb293b3c879" y="197.64"/>
      </g>
     </g>
     <g id="line2d_56">
      <g>
       <use style="stroke:#000000;" x="146.290715" xlink:href="#mb141e49700" y="143.28"/>
      </g>
     </g>
    </g>
    <g id="xtick_20">
     <g id="line2d_57">
      <g>
       <use style="stroke:#000000;" x="187.698337" xlink:href="#mb293b3c879" y="197.64"/>
      </g>
     </g>
     <g id="line2d_58">
      <g>
       <use style="stroke:#000000;" x="187.698337" xlink:href="#mb141e49700" y="143.28"/>
      </g>
     </g>
    </g>
    <g id="xtick_21">
     <g id="line2d_59">
      <g>
       <use style="stroke:#000000;" x="229.105958" xlink:href="#mb293b3c879" y="197.64"/>
      </g>
     </g>
     <g id="line2d_60">
      <g>
       <use style="stroke:#000000;" x="229.105958" xlink:href="#mb141e49700" y="143.28"/>
      </g>
     </g>
    </g>
    <g id="xtick_22">
     <g id="line2d_61">
      <g>
       <use style="stroke:#000000;" x="270.51358" xlink:href="#mb293b3c879" y="197.64"/>
      </g>
     </g>
     <g id="line2d_62">
      <g>
       <use style="stroke:#000000;" x="270.51358" xlink:href="#mb141e49700" y="143.28"/>
      </g>
     </g>
    </g>
    <g id="xtick_23">
     <g id="line2d_63">
      <g>
       <use style="stroke:#000000;" x="311.921202" xlink:href="#mb293b3c879" y="197.64"/>
      </g>
     </g>
     <g id="line2d_64">
      <g>
       <use style="stroke:#000000;" x="311.921202" xlink:href="#mb141e49700" y="143.28"/>
      </g>
     </g>
    </g>
    <g id="xtick_24">
     <g id="line2d_65">
      <g>
       <use style="stroke:#000000;" x="353.328823" xlink:href="#mb293b3c879" y="197.64"/>
      </g>
     </g>
     <g id="line2d_66">
      <g>
       <use style="stroke:#000000;" x="353.328823" xlink:href="#mb141e49700" y="143.28"/>
      </g>
     </g>
    </g>
   </g>
   <g id="matplotlib.axis_6">
    <g id="ytick_7">
     <g id="line2d_67">
      <g>
       <use style="stroke:#000000;" x="54" xlink:href="#m02c2efda6a" y="185.56"/>
      </g>
     </g>
     <g id="line2d_68">
      <g>
       <use style="stroke:#000000;" x="388.8" xlink:href="#mff9ea0a4bc" y="185.56"/>
      </g>
     </g>
     <g id="text_12">
      <!-- 0.5 -->
      <g transform="translate(38.268 188.709438)scale(0.088 -0.088)">
       <use xlink:href="#ArialMT-48"/>
       <use x="55.615234" xlink:href="#ArialMT-46"/>
       <use x="83.398438" xlink:href="#ArialMT-53"/>
      </g>
     </g>
    </g>
    <g id="ytick_8">
     <g id="line2d_69">
      <g>
       <use style="stroke:#000000;" x="54" xlink:href="#m02c2efda6a" y="170.46"/>
      </g>
     </g>
     <g id="line2d_70">
      <g>
       <use style="stroke:#000000;" x="388.8" xlink:href="#mff9ea0a4bc" y="170.46"/>
      </g>
     </g>
     <g id="text_13">
      <!-- 1.0 -->
      <g transform="translate(38.268 173.609438)scale(0.088 -0.088)">
       <use xlink:href="#ArialMT-49"/>
       <use x="55.615234" xlink:href="#ArialMT-46"/>
       <use x="83.398438" xlink:href="#ArialMT-48"/>
      </g>
     </g>
    </g>
    <g id="ytick_9">
     <g id="line2d_71">
      <g>
       <use style="stroke:#000000;" x="54" xlink:href="#m02c2efda6a" y="155.36"/>
      </g>
     </g>
     <g id="line2d_72">
      <g>
       <use style="stroke:#000000;" x="388.8" xlink:href="#mff9ea0a4bc" y="155.36"/>
      </g>
     </g>
     <g id="text_14">
      <!-- 1.5 -->
      <g transform="translate(38.268 158.509438)scale(0.088 -0.088)">
       <use xlink:href="#ArialMT-49"/>
       <use x="55.615234" xlink:href="#ArialMT-46"/>
       <use x="83.398438" xlink:href="#ArialMT-53"/>
      </g>
     </g>
    </g>
    <g id="text_15">
     <!-- $\beta$ -->
     <g transform="translate(32.252 173.532)rotate(-90)scale(0.096 -0.096)">
      <use transform="translate(0 0.390625)" xlink:href="#DejaVuSans-Oblique-946"/>
     </g>
    </g>
   </g>
   <g id="line2d_73">
    <path clip-path="url(#p2a07cff3c3)" d="M 63.649384 174.672075 
L 64.469255 174.672075 
L 64.651448 180.977312 
L 65.380222 180.977312 
L 65.562416 184.231039 
L 66.29119 184.231039 
L 66.473384 187.579559 
L 67.202158 187.579559 
L 67.384351 185.800055 
L 68.113125 185.800055 
L 68.295319 186.903203 
L 69.024093 186.903203 
L 69.206287 190.041672 
L 69.935061 190.041672 
L 70.117254 191.529039 
L 70.846028 191.529039 
L 71.028222 192.171634 
L 71.756996 192.171634 
L 71.93919 191.542625 
L 72.667964 191.542625 
L 72.850157 189.572672 
L 73.578931 189.572672 
L 73.761125 189.455247 
L 74.489899 189.455247 
L 74.672093 190.852462 
L 75.400867 190.852462 
L 75.58306 192.164317 
L 76.311834 192.164317 
L 76.494028 190.896173 
L 77.222802 190.896173 
L 77.404996 190.165879 
L 78.13377 190.165879 
L 78.315963 191.506129 
L 79.044737 191.506129 
L 79.226931 191.900723 
L 79.955705 191.900723 
L 80.137899 193.007223 
L 80.866673 193.007223 
L 81.048866 189.287254 
L 81.77764 189.287254 
L 81.959834 190.619814 
L 82.688608 190.619814 
L 82.870802 192.289801 
L 83.599576 192.289801 
L 83.781769 191.243018 
L 85.421511 191.159569 
L 85.603705 195.35409 
L 86.332479 195.35409 
L 86.514672 195.639126 
L 89.065382 195.59263 
L 89.247575 195.108816 
L 89.97635 195.108816 
L 90.158543 195.593458 
L 90.887317 195.593458 
L 91.069511 195.34254 
L 91.798285 195.34254 
L 91.980478 185.389378 
L 93.62022 185.326048 
L 93.802414 187.187014 
L 94.531188 187.187014 
L 94.713381 189.121075 
L 95.442156 189.121075 
L 95.624349 191.519071 
L 96.353123 191.519071 
L 96.535317 193.718131 
L 97.264091 193.718131 
L 97.446285 193.244753 
L 98.175059 193.244753 
L 98.357252 190.72765 
L 99.086026 190.72765 
L 99.26822 192.322286 
L 99.996994 192.322286 
L 100.179188 190.945468 
L 100.907962 190.945468 
L 101.090155 192.625518 
L 101.818929 192.625518 
L 102.001123 192.39913 
L 102.729897 192.39913 
L 102.912091 190.096025 
L 103.640865 190.096025 
L 103.823058 188.601421 
L 104.551832 188.601421 
L 104.734026 191.17294 
L 105.4628 191.17294 
L 105.644994 190.981969 
L 106.373768 190.981969 
L 106.555961 191.582162 
L 107.284735 191.582162 
L 107.466929 190.032463 
L 108.195703 190.032463 
L 108.377897 191.677639 
L 109.106671 191.677639 
L 109.288864 192.929047 
L 110.017638 192.929047 
L 110.199832 194.864572 
L 110.928606 194.864572 
L 111.1108 194.632617 
L 111.839574 194.632617 
L 112.021767 195.293487 
L 112.750541 195.293487 
L 112.932735 196.041042 
L 113.661509 196.041042 
L 113.843703 193.445151 
L 114.572477 193.445151 
L 114.75467 193.999605 
L 115.483445 193.999605 
L 115.665638 192.318058 
L 117.30538 192.33235 
L 117.487573 193.316177 
L 118.216348 193.316177 
L 118.398541 192.978982 
L 119.127315 192.978982 
L 119.309509 192.342867 
L 120.038283 192.342867 
L 120.220476 192.001289 
L 120.949251 192.001289 
L 121.131444 193.743696 
L 121.860218 193.743696 
L 122.042412 194.684418 
L 122.771186 194.684418 
L 122.953379 193.886568 
L 123.682154 193.886568 
L 123.864347 195.306854 
L 124.593121 195.306854 
L 124.775315 196.199362 
L 125.504089 196.199362 
L 125.686283 193.676143 
L 126.415057 193.676143 
L 126.59725 189.561651 
L 127.326024 189.561651 
L 127.508218 188.301814 
L 128.236992 188.301814 
L 128.419186 186.870129 
L 129.14796 186.870129 
L 129.330153 188.068541 
L 130.058927 188.068541 
L 130.241121 189.116308 
L 130.969895 189.116308 
L 131.152089 189.95553 
L 131.880863 189.95553 
L 132.063056 190.835382 
L 132.79183 190.835382 
L 132.974024 191.22968 
L 133.702798 191.22968 
L 133.884992 188.32469 
L 134.613766 188.32469 
L 134.795959 189.013734 
L 135.524733 189.013734 
L 135.706927 187.316411 
L 136.435701 187.316411 
L 136.617895 191.042979 
L 137.346669 191.042979 
L 137.528862 192.513928 
L 139.168604 192.550654 
L 139.350798 192.786104 
L 140.079572 192.786104 
L 140.261765 192.451919 
L 140.990539 192.451919 
L 141.172733 191.903412 
L 141.901507 191.903412 
L 142.083701 191.096193 
L 142.812475 191.096193 
L 142.994668 192.798982 
L 143.723443 192.798982 
L 143.905636 193.061597 
L 144.63441 193.061597 
L 144.816604 191.638135 
L 145.545378 191.638135 
L 145.727571 191.458287 
L 147.367313 191.533685 
L 147.549507 192.525729 
L 148.278281 192.525729 
L 148.460474 192.090851 
L 149.189249 192.090851 
L 149.371442 191.518825 
L 150.100216 191.518825 
L 150.28241 191.141599 
L 151.011184 191.141599 
L 151.193377 193.221092 
L 151.922152 193.221092 
L 152.104345 191.075626 
L 152.833119 191.075626 
L 153.015313 193.573506 
L 153.744087 193.573506 
L 153.92628 194.765272 
L 154.655055 194.765272 
L 154.837248 192.458592 
L 155.566022 192.458592 
L 155.748216 193.58871 
L 156.47699 193.58871 
L 156.659184 194.207033 
L 157.387958 194.207033 
L 157.570151 194.003917 
L 158.298925 194.003917 
L 158.481119 195.36427 
L 159.209893 195.36427 
L 159.392087 195.564823 
L 161.031828 195.492328 
L 161.214022 196.057115 
L 161.942796 196.057115 
L 162.12499 195.905984 
L 162.853764 195.905984 
L 163.035957 194.385052 
L 163.764731 194.385052 
L 163.946925 192.362174 
L 164.675699 192.362174 
L 164.857893 191.785293 
L 165.586667 191.785293 
L 165.76886 189.921835 
L 166.497634 189.921835 
L 166.679828 186.605659 
L 167.408602 186.605659 
L 167.590796 181.805927 
L 168.31957 181.805927 
L 168.501763 183.137702 
L 169.230537 183.137702 
L 169.412731 184.700679 
L 170.141505 184.700679 
L 170.323699 184.814263 
L 171.052473 184.814263 
L 171.234666 184.986322 
L 171.96344 184.986322 
L 172.145634 183.41936 
L 172.874408 183.41936 
L 173.056602 182.730271 
L 173.785376 182.730271 
L 173.967569 181.900714 
L 174.696344 181.900714 
L 174.878537 183.217729 
L 175.607311 183.217729 
L 175.789505 187.033709 
L 176.518279 187.033709 
L 176.700472 182.782528 
L 177.429247 182.782528 
L 177.61144 179.630044 
L 178.340214 179.630044 
L 178.522408 176.60173 
L 179.251182 176.60173 
L 179.433375 175.340738 
L 180.16215 175.340738 
L 180.344343 174.648439 
L 181.073117 174.648439 
L 181.255311 174.78044 
L 181.984085 174.78044 
L 182.166278 176.424582 
L 182.895053 176.424582 
L 183.077246 176.748992 
L 183.80602 176.748992 
L 183.988214 177.595333 
L 184.716988 177.595333 
L 184.899181 180.579924 
L 185.627956 180.579924 
L 185.810149 181.393994 
L 186.538923 181.393994 
L 186.721117 181.094843 
L 187.449891 181.094843 
L 187.632085 179.453082 
L 188.360859 179.453082 
L 188.543052 179.971638 
L 189.271826 179.971638 
L 189.45402 177.501232 
L 190.182794 177.501232 
L 190.364988 178.640836 
L 191.093762 178.640836 
L 191.275955 182.0759 
L 192.004729 182.0759 
L 192.186923 182.990197 
L 192.915697 182.990197 
L 193.097891 183.744406 
L 194.737632 183.816413 
L 194.919826 182.329384 
L 195.6486 182.329384 
L 195.830794 185.413498 
L 195.880483 185.413498 
L 195.880483 185.413498 
" style="fill:none;stroke:#023eff;stroke-linecap:round;stroke-width:1.2;"/>
   </g>
   <g id="patch_17">
    <path d="M 54 197.64 
L 54 143.28 
" style="fill:none;stroke:#000000;stroke-linecap:square;stroke-linejoin:miter;"/>
   </g>
   <g id="patch_18">
    <path d="M 388.8 197.64 
L 388.8 143.28 
" style="fill:none;stroke:#000000;stroke-linecap:square;stroke-linejoin:miter;"/>
   </g>
   <g id="patch_19">
    <path d="M 54 197.64 
L 388.8 197.64 
" style="fill:none;stroke:#000000;stroke-linecap:square;stroke-linejoin:miter;"/>
   </g>
   <g id="patch_20">
    <path d="M 54 143.28 
L 388.8 143.28 
" style="fill:none;stroke:#000000;stroke-linecap:square;stroke-linejoin:miter;"/>
   </g>
   <g id="legend_3">
    <g id="patch_21">
     <path d="M 332.896 165.784 
L 384.64 165.784 
Q 386.4 165.784 386.4 164.024 
L 386.4 151.44 
Q 386.4 149.68 384.64 149.68 
L 332.896 149.68 
Q 331.136 149.68 331.136 151.44 
L 331.136 164.024 
Q 331.136 165.784 332.896 165.784 
z
" style="fill:#4c4c4c;opacity:0.5;stroke:#4c4c4c;stroke-linejoin:miter;stroke-width:0.8;"/>
    </g>
    <g id="patch_22">
     <path d="M 330.896 163.784 
L 382.64 163.784 
Q 384.4 163.784 384.4 162.024 
L 384.4 149.44 
Q 384.4 147.68 382.64 147.68 
L 330.896 147.68 
Q 329.136 147.68 329.136 149.44 
L 329.136 162.024 
Q 329.136 163.784 330.896 163.784 
z
" style="fill:#ffffff;stroke:#000000;stroke-linejoin:miter;stroke-width:0.8;"/>
    </g>
    <g id="line2d_74">
     <path d="M 332.656 154.456 
L 339.696 154.456 
" style="fill:none;stroke:#023eff;stroke-linecap:round;stroke-width:1.2;"/>
    </g>
    <g id="line2d_75"/>
    <g id="text_16">
     <!-- $n_{step}$=10 -->
     <g transform="translate(346.736 157.536)scale(0.088 -0.088)">
      <use transform="translate(0 0.125)" xlink:href="#DejaVuSans-Oblique-110"/>
      <use transform="translate(63.378906 -16.28125)scale(0.7)" xlink:href="#DejaVuSans-Oblique-115"/>
      <use transform="translate(99.848633 -16.28125)scale(0.7)" xlink:href="#DejaVuSans-Oblique-116"/>
      <use transform="translate(127.294922 -16.28125)scale(0.7)" xlink:href="#DejaVuSans-Oblique-101"/>
      <use transform="translate(170.361328 -16.28125)scale(0.7)" xlink:href="#DejaVuSans-Oblique-112"/>
      <use transform="translate(217.529297 0.125)" xlink:href="#ArialMT-61"/>
      <use transform="translate(275.927734 0.125)" xlink:href="#ArialMT-49"/>
      <use transform="translate(331.542969 0.125)" xlink:href="#ArialMT-48"/>
     </g>
    </g>
   </g>
  </g>
  <g id="axes_4">
   <g id="patch_23">
    <path d="M 54 252 
L 388.8 252 
L 388.8 197.64 
L 54 197.64 
z
" style="fill:#ffffff;"/>
   </g>
   <g id="matplotlib.axis_7">
    <g id="xtick_25">
     <g id="line2d_76">
      <g>
       <use style="stroke:#000000;" x="63.475472" xlink:href="#mb293b3c879" y="252"/>
      </g>
     </g>
     <g id="line2d_77">
      <g>
       <use style="stroke:#000000;" x="63.475472" xlink:href="#mb141e49700" y="197.64"/>
      </g>
     </g>
     <g id="text_17">
      <!-- $\mathdefault{0}$ -->
      <g transform="translate(61.011472 261.798875)scale(0.088 -0.088)">
       <use transform="translate(0 0.125)" xlink:href="#ArialMT-48"/>
      </g>
     </g>
    </g>
    <g id="xtick_26">
     <g id="line2d_78">
      <g>
       <use style="stroke:#000000;" x="104.883093" xlink:href="#mb293b3c879" y="252"/>
      </g>
     </g>
     <g id="line2d_79">
      <g>
       <use style="stroke:#000000;" x="104.883093" xlink:href="#mb141e49700" y="197.64"/>
      </g>
     </g>
     <g id="text_18">
      <!-- $\mathdefault{1}$ -->
      <g transform="translate(102.419093 261.798875)scale(0.088 -0.088)">
       <use transform="translate(0 0.125)" xlink:href="#ArialMT-49"/>
      </g>
     </g>
    </g>
    <g id="xtick_27">
     <g id="line2d_80">
      <g>
       <use style="stroke:#000000;" x="146.290715" xlink:href="#mb293b3c879" y="252"/>
      </g>
     </g>
     <g id="line2d_81">
      <g>
       <use style="stroke:#000000;" x="146.290715" xlink:href="#mb141e49700" y="197.64"/>
      </g>
     </g>
     <g id="text_19">
      <!-- $\mathdefault{2}$ -->
      <defs>
       <path d="M 50.34375 8.453125 
L 50.34375 0 
L 3.03125 0 
Q 2.9375 3.171875 4.046875 6.109375 
Q 5.859375 10.9375 9.828125 15.625 
Q 13.8125 20.3125 21.34375 26.46875 
Q 33.015625 36.03125 37.109375 41.625 
Q 41.21875 47.21875 41.21875 52.203125 
Q 41.21875 57.421875 37.46875 61 
Q 33.734375 64.59375 27.734375 64.59375 
Q 21.390625 64.59375 17.578125 60.78125 
Q 13.765625 56.984375 13.71875 50.25 
L 4.6875 51.171875 
Q 5.609375 61.28125 11.65625 66.578125 
Q 17.71875 71.875 27.9375 71.875 
Q 38.234375 71.875 44.234375 66.15625 
Q 50.25 60.453125 50.25 52 
Q 50.25 47.703125 48.484375 43.546875 
Q 46.734375 39.40625 42.65625 34.8125 
Q 38.578125 30.21875 29.109375 22.21875 
Q 21.1875 15.578125 18.9375 13.203125 
Q 16.703125 10.84375 15.234375 8.453125 
z
" id="ArialMT-50"/>
      </defs>
      <g transform="translate(143.826715 261.798875)scale(0.088 -0.088)">
       <use transform="translate(0 0.125)" xlink:href="#ArialMT-50"/>
      </g>
     </g>
    </g>
    <g id="xtick_28">
     <g id="line2d_82">
      <g>
       <use style="stroke:#000000;" x="187.698337" xlink:href="#mb293b3c879" y="252"/>
      </g>
     </g>
     <g id="line2d_83">
      <g>
       <use style="stroke:#000000;" x="187.698337" xlink:href="#mb141e49700" y="197.64"/>
      </g>
     </g>
     <g id="text_20">
      <!-- $\mathdefault{3}$ -->
      <defs>
       <path d="M 4.203125 18.890625 
L 12.984375 20.0625 
Q 14.5 12.59375 18.140625 9.296875 
Q 21.78125 6 27 6 
Q 33.203125 6 37.46875 10.296875 
Q 41.75 14.59375 41.75 20.953125 
Q 41.75 27 37.796875 30.921875 
Q 33.84375 34.859375 27.734375 34.859375 
Q 25.25 34.859375 21.53125 33.890625 
L 22.515625 41.609375 
Q 23.390625 41.5 23.921875 41.5 
Q 29.546875 41.5 34.03125 44.421875 
Q 38.53125 47.359375 38.53125 53.46875 
Q 38.53125 58.296875 35.25 61.46875 
Q 31.984375 64.65625 26.8125 64.65625 
Q 21.6875 64.65625 18.265625 61.421875 
Q 14.84375 58.203125 13.875 51.765625 
L 5.078125 53.328125 
Q 6.6875 62.15625 12.390625 67.015625 
Q 18.109375 71.875 26.609375 71.875 
Q 32.46875 71.875 37.390625 69.359375 
Q 42.328125 66.84375 44.9375 62.5 
Q 47.5625 58.15625 47.5625 53.265625 
Q 47.5625 48.640625 45.0625 44.828125 
Q 42.578125 41.015625 37.703125 38.765625 
Q 44.046875 37.3125 47.5625 32.6875 
Q 51.078125 28.078125 51.078125 21.140625 
Q 51.078125 11.765625 44.234375 5.25 
Q 37.40625 -1.265625 26.953125 -1.265625 
Q 17.53125 -1.265625 11.296875 4.34375 
Q 5.078125 9.96875 4.203125 18.890625 
z
" id="ArialMT-51"/>
      </defs>
      <g transform="translate(185.234337 261.798875)scale(0.088 -0.088)">
       <use transform="translate(0 0.125)" xlink:href="#ArialMT-51"/>
      </g>
     </g>
    </g>
    <g id="xtick_29">
     <g id="line2d_84">
      <g>
       <use style="stroke:#000000;" x="229.105958" xlink:href="#mb293b3c879" y="252"/>
      </g>
     </g>
     <g id="line2d_85">
      <g>
       <use style="stroke:#000000;" x="229.105958" xlink:href="#mb141e49700" y="197.64"/>
      </g>
     </g>
     <g id="text_21">
      <!-- $\mathdefault{4}$ -->
      <defs>
       <path d="M 32.328125 0 
L 32.328125 17.140625 
L 1.265625 17.140625 
L 1.265625 25.203125 
L 33.9375 71.578125 
L 41.109375 71.578125 
L 41.109375 25.203125 
L 50.78125 25.203125 
L 50.78125 17.140625 
L 41.109375 17.140625 
L 41.109375 0 
z
M 32.328125 25.203125 
L 32.328125 57.46875 
L 9.90625 25.203125 
z
" id="ArialMT-52"/>
      </defs>
      <g transform="translate(226.641958 261.798875)scale(0.088 -0.088)">
       <use transform="translate(0 0.421875)" xlink:href="#ArialMT-52"/>
      </g>
     </g>
    </g>
    <g id="xtick_30">
     <g id="line2d_86">
      <g>
       <use style="stroke:#000000;" x="270.51358" xlink:href="#mb293b3c879" y="252"/>
      </g>
     </g>
     <g id="line2d_87">
      <g>
       <use style="stroke:#000000;" x="270.51358" xlink:href="#mb141e49700" y="197.64"/>
      </g>
     </g>
     <g id="text_22">
      <!-- $\mathdefault{5}$ -->
      <g transform="translate(268.04958 261.798875)scale(0.088 -0.088)">
       <use transform="translate(0 0.390625)" xlink:href="#ArialMT-53"/>
      </g>
     </g>
    </g>
    <g id="xtick_31">
     <g id="line2d_88">
      <g>
       <use style="stroke:#000000;" x="311.921202" xlink:href="#mb293b3c879" y="252"/>
      </g>
     </g>
     <g id="line2d_89">
      <g>
       <use style="stroke:#000000;" x="311.921202" xlink:href="#mb141e49700" y="197.64"/>
      </g>
     </g>
     <g id="text_23">
      <!-- $\mathdefault{6}$ -->
      <defs>
       <path d="M 49.75 54.046875 
L 41.015625 53.375 
Q 39.84375 58.546875 37.703125 60.890625 
Q 34.125 64.65625 28.90625 64.65625 
Q 24.703125 64.65625 21.53125 62.3125 
Q 17.390625 59.28125 14.984375 53.46875 
Q 12.59375 47.65625 12.5 36.921875 
Q 15.671875 41.75 20.265625 44.09375 
Q 24.859375 46.4375 29.890625 46.4375 
Q 38.671875 46.4375 44.84375 39.96875 
Q 51.03125 33.5 51.03125 23.25 
Q 51.03125 16.5 48.125 10.71875 
Q 45.21875 4.9375 40.140625 1.859375 
Q 35.0625 -1.21875 28.609375 -1.21875 
Q 17.625 -1.21875 10.6875 6.859375 
Q 3.765625 14.9375 3.765625 33.5 
Q 3.765625 54.25 11.421875 63.671875 
Q 18.109375 71.875 29.4375 71.875 
Q 37.890625 71.875 43.28125 67.140625 
Q 48.6875 62.40625 49.75 54.046875 
z
M 13.875 23.1875 
Q 13.875 18.65625 15.796875 14.5 
Q 17.71875 10.359375 21.1875 8.171875 
Q 24.65625 6 28.46875 6 
Q 34.03125 6 38.03125 10.484375 
Q 42.046875 14.984375 42.046875 22.703125 
Q 42.046875 30.125 38.078125 34.390625 
Q 34.125 38.671875 28.125 38.671875 
Q 22.171875 38.671875 18.015625 34.390625 
Q 13.875 30.125 13.875 23.1875 
z
" id="ArialMT-54"/>
      </defs>
      <g transform="translate(309.457202 261.798875)scale(0.088 -0.088)">
       <use transform="translate(0 0.125)" xlink:href="#ArialMT-54"/>
      </g>
     </g>
    </g>
    <g id="xtick_32">
     <g id="line2d_90">
      <g>
       <use style="stroke:#000000;" x="353.328823" xlink:href="#mb293b3c879" y="252"/>
      </g>
     </g>
     <g id="line2d_91">
      <g>
       <use style="stroke:#000000;" x="353.328823" xlink:href="#mb141e49700" y="197.64"/>
      </g>
     </g>
     <g id="text_24">
      <!-- $\mathdefault{7}$ -->
      <defs>
       <path d="M 4.734375 62.203125 
L 4.734375 70.65625 
L 51.078125 70.65625 
L 51.078125 63.8125 
Q 44.234375 56.546875 37.515625 44.484375 
Q 30.8125 32.421875 27.15625 19.671875 
Q 24.515625 10.6875 23.78125 0 
L 14.75 0 
Q 14.890625 8.453125 18.0625 20.40625 
Q 21.234375 32.375 27.171875 43.484375 
Q 33.109375 54.59375 39.796875 62.203125 
z
" id="ArialMT-55"/>
      </defs>
      <g transform="translate(350.864823 261.798875)scale(0.088 -0.088)">
       <use transform="translate(0 0.34375)" xlink:href="#ArialMT-55"/>
      </g>
     </g>
    </g>
    <g id="text_25">
     <!-- evaluations -->
     <defs>
      <path d="M 21 0 
L 1.265625 51.859375 
L 10.546875 51.859375 
L 21.6875 20.796875 
Q 23.484375 15.765625 25 10.359375 
Q 26.171875 14.453125 28.265625 20.21875 
L 39.796875 51.859375 
L 48.828125 51.859375 
L 29.203125 0 
z
" id="ArialMT-118"/>
      <path d="M 40.4375 6.390625 
Q 35.546875 2.25 31.03125 0.53125 
Q 26.515625 -1.171875 21.34375 -1.171875 
Q 12.796875 -1.171875 8.203125 3 
Q 3.609375 7.171875 3.609375 13.671875 
Q 3.609375 17.484375 5.34375 20.625 
Q 7.078125 23.78125 9.890625 25.6875 
Q 12.703125 27.59375 16.21875 28.5625 
Q 18.796875 29.25 24.03125 29.890625 
Q 34.671875 31.15625 39.703125 32.90625 
Q 39.75 34.71875 39.75 35.203125 
Q 39.75 40.578125 37.25 42.78125 
Q 33.890625 45.75 27.25 45.75 
Q 21.046875 45.75 18.09375 43.578125 
Q 15.140625 41.40625 13.71875 35.890625 
L 5.125 37.0625 
Q 6.296875 42.578125 8.984375 45.96875 
Q 11.671875 49.359375 16.75 51.1875 
Q 21.828125 53.03125 28.515625 53.03125 
Q 35.15625 53.03125 39.296875 51.46875 
Q 43.453125 49.90625 45.40625 47.53125 
Q 47.359375 45.171875 48.140625 41.546875 
Q 48.578125 39.3125 48.578125 33.453125 
L 48.578125 21.734375 
Q 48.578125 9.46875 49.140625 6.21875 
Q 49.703125 2.984375 51.375 0 
L 42.1875 0 
Q 40.828125 2.734375 40.4375 6.390625 
z
M 39.703125 26.03125 
Q 34.90625 24.078125 25.34375 22.703125 
Q 19.921875 21.921875 17.671875 20.9375 
Q 15.4375 19.96875 14.203125 18.09375 
Q 12.984375 16.21875 12.984375 13.921875 
Q 12.984375 10.40625 15.640625 8.0625 
Q 18.3125 5.71875 23.4375 5.71875 
Q 28.515625 5.71875 32.46875 7.9375 
Q 36.421875 10.15625 38.28125 14.015625 
Q 39.703125 17 39.703125 22.796875 
z
" id="ArialMT-97"/>
      <path d="M 40.578125 0 
L 40.578125 7.625 
Q 34.515625 -1.171875 24.125 -1.171875 
Q 19.53125 -1.171875 15.546875 0.578125 
Q 11.578125 2.34375 9.640625 5 
Q 7.71875 7.671875 6.9375 11.53125 
Q 6.390625 14.109375 6.390625 19.734375 
L 6.390625 51.859375 
L 15.1875 51.859375 
L 15.1875 23.09375 
Q 15.1875 16.21875 15.71875 13.8125 
Q 16.546875 10.359375 19.234375 8.375 
Q 21.921875 6.390625 25.875 6.390625 
Q 29.828125 6.390625 33.296875 8.421875 
Q 36.765625 10.453125 38.203125 13.9375 
Q 39.65625 17.4375 39.65625 24.078125 
L 39.65625 51.859375 
L 48.4375 51.859375 
L 48.4375 0 
z
" id="ArialMT-117"/>
      <path d="M 25.78125 7.859375 
L 27.046875 0.09375 
Q 23.34375 -0.6875 20.40625 -0.6875 
Q 15.625 -0.6875 12.984375 0.828125 
Q 10.359375 2.34375 9.28125 4.8125 
Q 8.203125 7.28125 8.203125 15.1875 
L 8.203125 45.015625 
L 1.765625 45.015625 
L 1.765625 51.859375 
L 8.203125 51.859375 
L 8.203125 64.703125 
L 16.9375 69.96875 
L 16.9375 51.859375 
L 25.78125 51.859375 
L 25.78125 45.015625 
L 16.9375 45.015625 
L 16.9375 14.703125 
Q 16.9375 10.9375 17.40625 9.859375 
Q 17.875 8.796875 18.921875 8.15625 
Q 19.96875 7.515625 21.921875 7.515625 
Q 23.390625 7.515625 25.78125 7.859375 
z
" id="ArialMT-116"/>
      <path d="M 3.328125 25.921875 
Q 3.328125 40.328125 11.328125 47.265625 
Q 18.015625 53.03125 27.640625 53.03125 
Q 38.328125 53.03125 45.109375 46.015625 
Q 51.90625 39.015625 51.90625 26.65625 
Q 51.90625 16.65625 48.90625 10.90625 
Q 45.90625 5.171875 40.15625 2 
Q 34.421875 -1.171875 27.640625 -1.171875 
Q 16.75 -1.171875 10.03125 5.8125 
Q 3.328125 12.796875 3.328125 25.921875 
z
M 12.359375 25.921875 
Q 12.359375 15.96875 16.703125 11.015625 
Q 21.046875 6.0625 27.640625 6.0625 
Q 34.1875 6.0625 38.53125 11.03125 
Q 42.875 16.015625 42.875 26.21875 
Q 42.875 35.84375 38.5 40.796875 
Q 34.125 45.75 27.640625 45.75 
Q 21.046875 45.75 16.703125 40.8125 
Q 12.359375 35.890625 12.359375 25.921875 
z
" id="ArialMT-111"/>
      <path d="M 3.078125 15.484375 
L 11.765625 16.84375 
Q 12.5 11.625 15.84375 8.84375 
Q 19.1875 6.0625 25.203125 6.0625 
Q 31.25 6.0625 34.171875 8.515625 
Q 37.109375 10.984375 37.109375 14.3125 
Q 37.109375 17.28125 34.515625 19 
Q 32.71875 20.171875 25.53125 21.96875 
Q 15.875 24.421875 12.140625 26.203125 
Q 8.40625 27.984375 6.46875 31.125 
Q 4.546875 34.28125 4.546875 38.09375 
Q 4.546875 41.546875 6.125 44.5 
Q 7.71875 47.46875 10.453125 49.421875 
Q 12.5 50.921875 16.03125 51.96875 
Q 19.578125 53.03125 23.640625 53.03125 
Q 29.734375 53.03125 34.34375 51.265625 
Q 38.96875 49.515625 41.15625 46.5 
Q 43.359375 43.5 44.1875 38.484375 
L 35.59375 37.3125 
Q 35.015625 41.3125 32.203125 43.546875 
Q 29.390625 45.796875 24.265625 45.796875 
Q 18.21875 45.796875 15.625 43.796875 
Q 13.03125 41.796875 13.03125 39.109375 
Q 13.03125 37.40625 14.109375 36.03125 
Q 15.1875 34.625 17.484375 33.6875 
Q 18.796875 33.203125 25.25 31.453125 
Q 34.578125 28.953125 38.25 27.359375 
Q 41.9375 25.78125 44.03125 22.75 
Q 46.140625 19.734375 46.140625 15.234375 
Q 46.140625 10.84375 43.578125 6.953125 
Q 41.015625 3.078125 36.171875 0.953125 
Q 31.34375 -1.171875 25.25 -1.171875 
Q 15.140625 -1.171875 9.84375 3.03125 
Q 4.546875 7.234375 3.078125 15.484375 
z
" id="ArialMT-115"/>
     </defs>
     <g transform="translate(197.118 274.419375)scale(0.096 -0.096)">
      <use xlink:href="#ArialMT-101"/>
      <use x="55.615234" xlink:href="#ArialMT-118"/>
      <use x="105.615234" xlink:href="#ArialMT-97"/>
      <use x="161.230469" xlink:href="#ArialMT-108"/>
      <use x="183.447266" xlink:href="#ArialMT-117"/>
      <use x="239.0625" xlink:href="#ArialMT-97"/>
      <use x="294.677734" xlink:href="#ArialMT-116"/>
      <use x="322.460938" xlink:href="#ArialMT-105"/>
      <use x="344.677734" xlink:href="#ArialMT-111"/>
      <use x="400.292969" xlink:href="#ArialMT-110"/>
      <use x="455.908203" xlink:href="#ArialMT-115"/>
     </g>
    </g>
    <g id="text_26">
     <!-- $\times\mathdefault{10^{4}}\mathdefault{}$ -->
     <defs>
      <path d="M 70.125 53.71875 
L 47.796875 31.296875 
L 70.125 8.984375 
L 64.3125 3.078125 
L 41.890625 25.484375 
L 19.484375 3.078125 
L 13.71875 8.984375 
L 35.984375 31.296875 
L 13.71875 53.71875 
L 19.484375 59.625 
L 41.890625 37.203125 
L 64.3125 59.625 
z
" id="DejaVuSans-215"/>
     </defs>
     <g transform="translate(367.592 275.534875)scale(0.088 -0.088)">
      <use transform="translate(0 0.201563)" xlink:href="#DejaVuSans-215"/>
      <use transform="translate(83.789062 0.201563)" xlink:href="#ArialMT-49"/>
      <use transform="translate(139.404297 0.201563)" xlink:href="#ArialMT-48"/>
      <use transform="translate(196.761875 69.895313)scale(0.7)" xlink:href="#ArialMT-52"/>
     </g>
    </g>
   </g>
   <g id="matplotlib.axis_8">
    <g id="ytick_10">
     <g id="line2d_92">
      <g>
       <use style="stroke:#000000;" x="54" xlink:href="#m02c2efda6a" y="239.92"/>
      </g>
     </g>
     <g id="line2d_93">
      <g>
       <use style="stroke:#000000;" x="388.8" xlink:href="#mff9ea0a4bc" y="239.92"/>
      </g>
     </g>
     <g id="text_27">
      <!-- 0.5 -->
      <g transform="translate(38.268 243.069437)scale(0.088 -0.088)">
       <use xlink:href="#ArialMT-48"/>
       <use x="55.615234" xlink:href="#ArialMT-46"/>
       <use x="83.398438" xlink:href="#ArialMT-53"/>
      </g>
     </g>
    </g>
    <g id="ytick_11">
     <g id="line2d_94">
      <g>
       <use style="stroke:#000000;" x="54" xlink:href="#m02c2efda6a" y="224.82"/>
      </g>
     </g>
     <g id="line2d_95">
      <g>
       <use style="stroke:#000000;" x="388.8" xlink:href="#mff9ea0a4bc" y="224.82"/>
      </g>
     </g>
     <g id="text_28">
      <!-- 1.0 -->
      <g transform="translate(38.268 227.969437)scale(0.088 -0.088)">
       <use xlink:href="#ArialMT-49"/>
       <use x="55.615234" xlink:href="#ArialMT-46"/>
       <use x="83.398438" xlink:href="#ArialMT-48"/>
      </g>
     </g>
    </g>
    <g id="ytick_12">
     <g id="line2d_96">
      <g>
       <use style="stroke:#000000;" x="54" xlink:href="#m02c2efda6a" y="209.72"/>
      </g>
     </g>
     <g id="line2d_97">
      <g>
       <use style="stroke:#000000;" x="388.8" xlink:href="#mff9ea0a4bc" y="209.72"/>
      </g>
     </g>
     <g id="text_29">
      <!-- 1.5 -->
      <g transform="translate(38.268 212.869438)scale(0.088 -0.088)">
       <use xlink:href="#ArialMT-49"/>
       <use x="55.615234" xlink:href="#ArialMT-46"/>
       <use x="83.398438" xlink:href="#ArialMT-53"/>
      </g>
     </g>
    </g>
    <g id="text_30">
     <!-- $\beta$ -->
     <g transform="translate(32.252 227.892)rotate(-90)scale(0.096 -0.096)">
      <use transform="translate(0 0.390625)" xlink:href="#DejaVuSans-Oblique-946"/>
     </g>
    </g>
   </g>
   <g id="line2d_98">
    <path clip-path="url(#p1ac6ae78a3)" d="M 63.649384 229.033078 
L 68.113125 229.033078 
L 68.295319 236.481496 
L 72.667964 236.481496 
L 72.850157 243.525514 
L 77.222802 243.525514 
L 77.404996 245.692294 
L 81.77764 245.692294 
L 81.959834 247.271859 
L 86.332479 247.271859 
L 86.514672 246.805419 
L 90.887317 246.805419 
L 91.069511 247.879101 
L 95.442156 247.879101 
L 95.624349 247.684336 
L 99.996994 247.684336 
L 100.179188 248.706686 
L 104.551832 248.706686 
L 104.734026 248.300751 
L 113.661509 248.331148 
L 113.843703 245.63646 
L 118.216348 245.63646 
L 118.398541 247.529774 
L 122.771186 247.529774 
L 122.953379 247.998346 
L 127.326024 247.998346 
L 127.508218 246.825912 
L 131.880863 246.825912 
L 132.063056 246.514679 
L 136.435701 246.514679 
L 136.617895 244.889717 
L 140.990539 244.889717 
L 141.172733 245.71072 
L 145.545378 245.71072 
L 145.727571 245.028345 
L 150.100216 245.028345 
L 150.28241 246.896621 
L 154.655055 246.896621 
L 154.837248 247.877854 
L 159.209893 247.877854 
L 159.392087 249.547437 
L 163.764731 249.547437 
L 163.946925 249.732958 
L 168.31957 249.732958 
L 168.501763 250.275121 
L 172.874408 250.275121 
L 173.056602 247.752795 
L 177.429247 247.752795 
L 177.61144 249.174513 
L 181.984085 249.174513 
L 182.166278 249.514466 
L 186.538923 249.514466 
L 186.721117 247.031242 
L 191.093762 247.031242 
L 191.275955 247.199335 
L 195.6486 247.199335 
L 195.830794 247.467037 
L 204.758277 247.390496 
L 204.94047 246.379748 
L 209.313115 246.379748 
L 209.495309 247.333027 
L 213.867954 247.333027 
L 214.050147 247.670607 
L 218.422792 247.670607 
L 218.604986 250.08026 
L 222.97763 250.08026 
L 223.159824 249.787994 
L 232.087307 249.741305 
L 232.269501 247.597016 
L 236.642146 247.597016 
L 236.824339 246.10294 
L 241.196984 246.10294 
L 241.379177 247.618136 
L 245.751822 247.618136 
L 245.934016 249.520435 
L 250.306661 249.520435 
L 250.488854 248.19801 
L 254.861499 248.19801 
L 255.043693 247.052482 
L 259.416337 247.052482 
L 259.598531 248.660392 
L 263.971176 248.660392 
L 264.153369 248.234904 
L 268.526014 248.234904 
L 268.708208 250.150818 
L 273.080853 250.150818 
L 273.263046 250.329359 
L 282.190529 250.416496 
L 282.372723 249.015853 
L 286.745368 249.015853 
L 286.927561 251.319076 
L 295.855045 251.254782 
L 296.037238 250.859045 
L 304.964721 250.909996 
L 305.146915 251.363937 
L 314.074398 251.283164 
L 314.256592 251.029206 
L 318.629236 251.029206 
L 318.81143 250.608839 
L 323.184075 250.608839 
L 323.366268 247.413559 
L 327.738913 247.413559 
L 327.921107 246.808737 
L 332.293752 246.808737 
L 332.475945 246.000686 
L 336.84859 246.000686 
L 337.030784 241.01651 
L 341.403428 241.01651 
L 341.585622 243.665082 
L 345.958267 243.665082 
L 346.14046 245.288728 
L 350.513105 245.288728 
L 350.695299 246.187298 
L 355.067944 246.187298 
L 355.250137 246.493425 
L 359.622782 246.493425 
L 359.804975 247.813442 
L 364.17762 247.813442 
L 364.359814 249.159793 
L 368.732459 249.159793 
L 368.914652 248.644931 
L 373.287297 248.644931 
L 373.469491 249.00045 
L 377.842135 249.00045 
L 378.024329 248.468115 
L 379.324528 248.468115 
L 379.324528 248.468115 
" style="fill:none;stroke:#00d7ff;stroke-linecap:round;stroke-width:1.2;"/>
   </g>
   <g id="patch_24">
    <path d="M 54 252 
L 54 197.64 
" style="fill:none;stroke:#000000;stroke-linecap:square;stroke-linejoin:miter;"/>
   </g>
   <g id="patch_25">
    <path d="M 388.8 252 
L 388.8 197.64 
" style="fill:none;stroke:#000000;stroke-linecap:square;stroke-linejoin:miter;"/>
   </g>
   <g id="patch_26">
    <path d="M 54 252 
L 388.8 252 
" style="fill:none;stroke:#000000;stroke-linecap:square;stroke-linejoin:miter;"/>
   </g>
   <g id="patch_27">
    <path d="M 54 197.64 
L 388.8 197.64 
" style="fill:none;stroke:#000000;stroke-linecap:square;stroke-linejoin:miter;"/>
   </g>
   <g id="legend_4">
    <g id="patch_28">
     <path d="M 332.896 220.144 
L 384.64 220.144 
Q 386.4 220.144 386.4 218.384 
L 386.4 205.8 
Q 386.4 204.04 384.64 204.04 
L 332.896 204.04 
Q 331.136 204.04 331.136 205.8 
L 331.136 218.384 
Q 331.136 220.144 332.896 220.144 
z
" style="fill:#4c4c4c;opacity:0.5;stroke:#4c4c4c;stroke-linejoin:miter;stroke-width:0.8;"/>
    </g>
    <g id="patch_29">
     <path d="M 330.896 218.144 
L 382.64 218.144 
Q 384.4 218.144 384.4 216.384 
L 384.4 203.8 
Q 384.4 202.04 382.64 202.04 
L 330.896 202.04 
Q 329.136 202.04 329.136 203.8 
L 329.136 216.384 
Q 329.136 218.144 330.896 218.144 
z
" style="fill:#ffffff;stroke:#000000;stroke-linejoin:miter;stroke-width:0.8;"/>
    </g>
    <g id="line2d_99">
     <path d="M 332.656 208.816 
L 339.696 208.816 
" style="fill:none;stroke:#00d7ff;stroke-linecap:round;stroke-width:1.2;"/>
    </g>
    <g id="line2d_100"/>
    <g id="text_31">
     <!-- $n_{step}$=50 -->
     <g transform="translate(346.736 211.896)scale(0.088 -0.088)">
      <use transform="translate(0 0.125)" xlink:href="#DejaVuSans-Oblique-110"/>
      <use transform="translate(63.378906 -16.28125)scale(0.7)" xlink:href="#DejaVuSans-Oblique-115"/>
      <use transform="translate(99.848633 -16.28125)scale(0.7)" xlink:href="#DejaVuSans-Oblique-116"/>
      <use transform="translate(127.294922 -16.28125)scale(0.7)" xlink:href="#DejaVuSans-Oblique-101"/>
      <use transform="translate(170.361328 -16.28125)scale(0.7)" xlink:href="#DejaVuSans-Oblique-112"/>
      <use transform="translate(217.529297 0.125)" xlink:href="#ArialMT-61"/>
      <use transform="translate(275.927734 0.125)" xlink:href="#ArialMT-53"/>
      <use transform="translate(331.542969 0.125)" xlink:href="#ArialMT-48"/>
     </g>
    </g>
   </g>
  </g>
 </g>
 <defs>
  <clipPath id="p6fbf0234f8">
   <rect height="54.36" width="334.8" x="54" y="34.56"/>
  </clipPath>
  <clipPath id="p5843ae954f">
   <rect height="54.36" width="334.8" x="54" y="88.92"/>
  </clipPath>
  <clipPath id="p2a07cff3c3">
   <rect height="54.36" width="334.8" x="54" y="143.28"/>
  </clipPath>
  <clipPath id="p1ac6ae78a3">
   <rect height="54.36" width="334.8" x="54" y="197.64"/>
  </clipPath>
 </defs>
</svg>
