<?xml version="1.0" encoding="utf-8" standalone="no"?>
<!DOCTYPE svg PUBLIC "-//W3C//DTD SVG 1.1//EN"
  "http://www.w3.org/Graphics/SVG/1.1/DTD/svg11.dtd">
<!-- Created with matplotlib (https://matplotlib.org/) -->
<svg height="288pt" version="1.1" viewBox="0 0 432 288" width="432pt" xmlns="http://www.w3.org/2000/svg" xmlns:xlink="http://www.w3.org/1999/xlink">
 <defs>
  <style type="text/css">
*{stroke-linecap:butt;stroke-linejoin:round;}
  </style>
 </defs>
 <g id="figure_1">
  <g id="patch_1">
   <path d="M 0 288 
L 432 288 
L 432 0 
L 0 0 
z
" style="fill:#ffffff;"/>
  </g>
  <g id="axes_1">
   <g id="patch_2">
    <path d="M 54 88.92 
L 388.8 88.92 
L 388.8 34.56 
L 54 34.56 
z
" style="fill:#ffffff;"/>
   </g>
   <g id="matplotlib.axis_1">
    <g id="xtick_1">
     <g id="line2d_1">
      <defs>
       <path d="M 0 0 
L 0 -3 
" id="m1c75e23862" style="stroke:#000000;"/>
      </defs>
      <g>
       <use style="stroke:#000000;" x="63.475472" xlink:href="#m1c75e23862" y="88.92"/>
      </g>
     </g>
     <g id="line2d_2">
      <defs>
       <path d="M 0 0 
L 0 3 
" id="ma7f8a4fdcb" style="stroke:#000000;"/>
      </defs>
      <g>
       <use style="stroke:#000000;" x="63.475472" xlink:href="#ma7f8a4fdcb" y="34.56"/>
      </g>
     </g>
    </g>
    <g id="xtick_2">
     <g id="line2d_3">
      <g>
       <use style="stroke:#000000;" x="116.555778" xlink:href="#m1c75e23862" y="88.92"/>
      </g>
     </g>
     <g id="line2d_4">
      <g>
       <use style="stroke:#000000;" x="116.555778" xlink:href="#ma7f8a4fdcb" y="34.56"/>
      </g>
     </g>
    </g>
    <g id="xtick_3">
     <g id="line2d_5">
      <g>
       <use style="stroke:#000000;" x="169.636085" xlink:href="#m1c75e23862" y="88.92"/>
      </g>
     </g>
     <g id="line2d_6">
      <g>
       <use style="stroke:#000000;" x="169.636085" xlink:href="#ma7f8a4fdcb" y="34.56"/>
      </g>
     </g>
    </g>
    <g id="xtick_4">
     <g id="line2d_7">
      <g>
       <use style="stroke:#000000;" x="222.716392" xlink:href="#m1c75e23862" y="88.92"/>
      </g>
     </g>
     <g id="line2d_8">
      <g>
       <use style="stroke:#000000;" x="222.716392" xlink:href="#ma7f8a4fdcb" y="34.56"/>
      </g>
     </g>
    </g>
    <g id="xtick_5">
     <g id="line2d_9">
      <g>
       <use style="stroke:#000000;" x="275.796698" xlink:href="#m1c75e23862" y="88.92"/>
      </g>
     </g>
     <g id="line2d_10">
      <g>
       <use style="stroke:#000000;" x="275.796698" xlink:href="#ma7f8a4fdcb" y="34.56"/>
      </g>
     </g>
    </g>
    <g id="xtick_6">
     <g id="line2d_11">
      <g>
       <use style="stroke:#000000;" x="328.877005" xlink:href="#m1c75e23862" y="88.92"/>
      </g>
     </g>
     <g id="line2d_12">
      <g>
       <use style="stroke:#000000;" x="328.877005" xlink:href="#ma7f8a4fdcb" y="34.56"/>
      </g>
     </g>
    </g>
    <g id="xtick_7">
     <g id="line2d_13">
      <g>
       <use style="stroke:#000000;" x="381.957312" xlink:href="#m1c75e23862" y="88.92"/>
      </g>
     </g>
     <g id="line2d_14">
      <g>
       <use style="stroke:#000000;" x="381.957312" xlink:href="#ma7f8a4fdcb" y="34.56"/>
      </g>
     </g>
    </g>
   </g>
   <g id="matplotlib.axis_2">
    <g id="ytick_1">
     <g id="line2d_15">
      <defs>
       <path d="M 0 0 
L 3 0 
" id="m8b0f9c4fa4" style="stroke:#000000;"/>
      </defs>
      <g>
       <use style="stroke:#000000;" x="54" xlink:href="#m8b0f9c4fa4" y="76.84"/>
      </g>
     </g>
     <g id="line2d_16">
      <defs>
       <path d="M 0 0 
L -3 0 
" id="m37262a6792" style="stroke:#000000;"/>
      </defs>
      <g>
       <use style="stroke:#000000;" x="388.8" xlink:href="#m37262a6792" y="76.84"/>
      </g>
     </g>
     <g id="text_1">
      <!-- 0.5 -->
      <defs>
       <path d="M 4.15625 35.296875 
Q 4.15625 48 6.765625 55.734375 
Q 9.375 63.484375 14.515625 67.671875 
Q 19.671875 71.875 27.484375 71.875 
Q 33.25 71.875 37.59375 69.546875 
Q 41.9375 67.234375 44.765625 62.859375 
Q 47.609375 58.5 49.21875 52.21875 
Q 50.828125 45.953125 50.828125 35.296875 
Q 50.828125 22.703125 48.234375 14.96875 
Q 45.65625 7.234375 40.5 3 
Q 35.359375 -1.21875 27.484375 -1.21875 
Q 17.140625 -1.21875 11.234375 6.203125 
Q 4.15625 15.140625 4.15625 35.296875 
z
M 13.1875 35.296875 
Q 13.1875 17.671875 17.3125 11.828125 
Q 21.4375 6 27.484375 6 
Q 33.546875 6 37.671875 11.859375 
Q 41.796875 17.71875 41.796875 35.296875 
Q 41.796875 52.984375 37.671875 58.78125 
Q 33.546875 64.59375 27.390625 64.59375 
Q 21.34375 64.59375 17.71875 59.46875 
Q 13.1875 52.9375 13.1875 35.296875 
z
" id="ArialMT-48"/>
       <path d="M 9.078125 0 
L 9.078125 10.015625 
L 19.09375 10.015625 
L 19.09375 0 
z
" id="ArialMT-46"/>
       <path d="M 4.15625 18.75 
L 13.375 19.53125 
Q 14.40625 12.796875 18.140625 9.390625 
Q 21.875 6 27.15625 6 
Q 33.5 6 37.890625 10.78125 
Q 42.28125 15.578125 42.28125 23.484375 
Q 42.28125 31 38.0625 35.34375 
Q 33.84375 39.703125 27 39.703125 
Q 22.75 39.703125 19.328125 37.765625 
Q 15.921875 35.84375 13.96875 32.765625 
L 5.71875 33.84375 
L 12.640625 70.609375 
L 48.25 70.609375 
L 48.25 62.203125 
L 19.671875 62.203125 
L 15.828125 42.96875 
Q 22.265625 47.46875 29.34375 47.46875 
Q 38.71875 47.46875 45.15625 40.96875 
Q 51.609375 34.46875 51.609375 24.265625 
Q 51.609375 14.546875 45.953125 7.46875 
Q 39.0625 -1.21875 27.15625 -1.21875 
Q 17.390625 -1.21875 11.203125 4.25 
Q 5.03125 9.71875 4.15625 18.75 
z
" id="ArialMT-53"/>
      </defs>
      <g transform="translate(38.268 79.989438)scale(0.088 -0.088)">
       <use xlink:href="#ArialMT-48"/>
       <use x="55.615234" xlink:href="#ArialMT-46"/>
       <use x="83.398438" xlink:href="#ArialMT-53"/>
      </g>
     </g>
    </g>
    <g id="ytick_2">
     <g id="line2d_17">
      <g>
       <use style="stroke:#000000;" x="54" xlink:href="#m8b0f9c4fa4" y="61.74"/>
      </g>
     </g>
     <g id="line2d_18">
      <g>
       <use style="stroke:#000000;" x="388.8" xlink:href="#m37262a6792" y="61.74"/>
      </g>
     </g>
     <g id="text_2">
      <!-- 1.0 -->
      <defs>
       <path d="M 37.25 0 
L 28.46875 0 
L 28.46875 56 
Q 25.296875 52.984375 20.140625 49.953125 
Q 14.984375 46.921875 10.890625 45.40625 
L 10.890625 53.90625 
Q 18.265625 57.375 23.78125 62.296875 
Q 29.296875 67.234375 31.59375 71.875 
L 37.25 71.875 
z
" id="ArialMT-49"/>
      </defs>
      <g transform="translate(38.268 64.889438)scale(0.088 -0.088)">
       <use xlink:href="#ArialMT-49"/>
       <use x="55.615234" xlink:href="#ArialMT-46"/>
       <use x="83.398438" xlink:href="#ArialMT-48"/>
      </g>
     </g>
    </g>
    <g id="ytick_3">
     <g id="line2d_19">
      <g>
       <use style="stroke:#000000;" x="54" xlink:href="#m8b0f9c4fa4" y="46.64"/>
      </g>
     </g>
     <g id="line2d_20">
      <g>
       <use style="stroke:#000000;" x="388.8" xlink:href="#m37262a6792" y="46.64"/>
      </g>
     </g>
     <g id="text_3">
      <!-- 1.5 -->
      <g transform="translate(38.268 49.789438)scale(0.088 -0.088)">
       <use xlink:href="#ArialMT-49"/>
       <use x="55.615234" xlink:href="#ArialMT-46"/>
       <use x="83.398438" xlink:href="#ArialMT-53"/>
      </g>
     </g>
    </g>
    <g id="text_4">
     <!-- $\beta$ -->
     <defs>
      <path d="M 13.625 3.375 
L 8.9375 -20.796875 
L -0.09375 -20.796875 
L 14.5 54.34375 
Q 18.84375 76.609375 39.65625 76.609375 
Q 60.75 76.609375 57.171875 57.8125 
Q 54.734375 44.4375 45.21875 39.546875 
Q 58.015625 35.15625 55.515625 22.125 
Q 51.125 -1.078125 27.484375 -1.03125 
Q 17.140625 -0.984375 13.625 3.375 
z
M 15.921875 15.09375 
Q 19.671875 6.59375 29.296875 6.640625 
Q 43.359375 6.640625 46.34375 21.96875 
Q 49.03125 35.75 26.171875 34.671875 
L 27.78125 42.96875 
Q 45.453125 42.671875 48.53125 58.59375 
Q 50.640625 69.34375 39.203125 69.28125 
Q 26.421875 69.28125 23.484375 54.046875 
z
" id="DejaVuSans-Oblique-946"/>
     </defs>
     <g transform="translate(32.252 64.812)rotate(-90)scale(0.096 -0.096)">
      <use transform="translate(0 0.390625)" xlink:href="#DejaVuSans-Oblique-946"/>
     </g>
    </g>
   </g>
   <g id="line2d_21">
    <path clip-path="url(#p67c6a94433)" d="M 63.921346 63.189856 
L 64.1549 70.302756 
L 64.622006 75.610554 
L 64.85556 77.097761 
L 65.089113 81.245061 
L 65.322666 77.761859 
L 65.789773 81.248197 
L 66.023326 81.529393 
L 66.490433 78.723392 
L 66.723986 80.296737 
L 66.95754 81.04142 
L 67.191093 80.940903 
L 67.424647 82.714073 
L 67.6582 81.998228 
L 67.891753 84.417074 
L 68.125307 82.381804 
L 68.35886 82.150466 
L 68.592413 82.390435 
L 68.825967 83.169406 
L 69.05952 82.769807 
L 69.293073 83.186737 
L 69.993733 86.640456 
L 70.46084 84.470339 
L 70.694393 84.430297 
L 70.927947 83.759941 
L 71.1615 83.610381 
L 71.395053 79.057599 
L 71.628607 82.444591 
L 71.86216 78.994692 
L 72.56282 84.308961 
L 72.796374 84.667174 
L 73.029927 84.149554 
L 73.26348 82.994205 
L 73.497034 83.471655 
L 73.730587 84.679614 
L 73.96414 84.059578 
L 74.197694 84.780592 
L 74.431247 84.388696 
L 74.6648 84.476054 
L 75.131907 79.113319 
L 75.36546 82.24092 
L 75.599014 80.393068 
L 75.832567 81.047939 
L 76.299674 77.531774 
L 76.76678 81.301135 
L 77.233887 83.584548 
L 77.467441 82.02429 
L 77.700994 82.04216 
L 77.934547 83.260058 
L 78.168101 83.48201 
L 78.401654 83.472019 
L 78.635207 80.273246 
L 78.868761 80.948977 
L 79.102314 82.575802 
L 79.335867 82.745223 
L 79.569421 79.988515 
L 79.802974 80.922561 
L 80.036527 80.738028 
L 80.270081 82.229318 
L 80.503634 82.918637 
L 80.737187 85.013901 
L 81.204294 84.771889 
L 81.437847 85.415834 
L 81.904954 84.019784 
L 82.138508 84.664892 
L 82.372061 83.75509 
L 82.605614 83.639787 
L 82.839168 82.256004 
L 83.072721 82.433031 
L 83.306274 85.444575 
L 83.539828 83.491699 
L 83.773381 83.078693 
L 84.006934 80.063087 
L 84.707594 84.408195 
L 84.941148 84.098917 
L 85.408254 84.677653 
L 85.641808 84.639985 
L 85.875361 83.59549 
L 86.108914 84.734121 
L 86.342468 84.845304 
L 86.576021 82.95173 
L 86.809574 83.403472 
L 87.043128 85.113851 
L 87.276681 85.808696 
L 87.510235 85.331306 
L 87.743788 85.996192 
L 87.977341 85.185654 
L 88.210895 81.138015 
L 88.444448 81.663525 
L 88.678001 80.472623 
L 88.911555 83.771652 
L 89.145108 85.42076 
L 89.378661 85.894397 
L 89.612215 83.785076 
L 89.845768 85.26541 
L 90.312875 85.916776 
L 91.013535 81.30658 
L 91.247088 82.358319 
L 91.480641 84.955392 
L 91.714195 85.749748 
L 91.947748 83.341752 
L 92.181302 84.151194 
L 92.414855 83.070243 
L 92.648408 83.025424 
L 92.881962 84.997714 
L 93.115515 85.58343 
L 93.349068 84.082719 
L 93.582622 84.296957 
L 93.816175 84.275349 
L 94.049728 84.505059 
L 94.516835 86.002199 
L 94.750388 85.42104 
L 94.983942 85.288465 
L 95.217495 84.693653 
L 95.451048 86.202339 
L 96.151708 80.002102 
L 96.618815 84.048107 
L 96.852369 83.462164 
L 97.085922 84.474681 
L 97.319475 83.909882 
L 97.786582 86.367097 
L 98.020135 85.144324 
L 98.253689 86.288152 
L 98.487242 85.596568 
L 98.720795 85.297491 
L 98.954349 85.334737 
L 99.187902 85.723773 
L 99.421455 85.746893 
L 99.655009 86.190395 
L 99.888562 83.987208 
L 100.122115 84.292923 
L 100.589222 86.046623 
L 100.822775 84.815749 
L 101.056329 85.408578 
L 101.289882 85.378376 
L 101.523435 85.888599 
L 101.756989 85.680261 
L 101.990542 86.453864 
L 102.224096 84.952343 
L 102.457649 84.858164 
L 102.691202 83.555366 
L 102.924756 84.071447 
L 103.158309 81.164947 
L 103.391862 80.869831 
L 103.625416 79.968208 
L 104.326076 83.988534 
L 104.559629 84.077575 
L 104.793182 83.903098 
L 105.026736 84.067736 
L 105.727396 79.37264 
L 105.960949 83.495272 
L 106.194502 84.571059 
L 106.428056 84.632272 
L 107.128716 85.162425 
L 107.362269 83.341725 
L 107.595823 83.127932 
L 107.829376 83.137268 
L 108.062929 84.273531 
L 108.296483 86.047282 
L 108.530036 86.125361 
L 108.997143 80.174367 
L 109.230696 82.174224 
L 109.464249 85.39543 
L 109.697803 83.482038 
L 109.931356 80.460121 
L 110.164909 83.017609 
L 110.632016 84.440173 
L 111.099123 85.212999 
L 111.332676 85.159236 
L 111.56623 85.912818 
L 111.799783 85.943843 
L 112.033336 85.121423 
L 112.500443 80.773666 
L 112.96755 81.051797 
L 113.66821 84.30372 
L 113.901763 81.838641 
L 114.135316 81.300525 
L 114.835976 81.80331 
L 115.06953 80.395045 
L 115.303083 80.413373 
L 115.536636 84.436274 
L 115.77019 84.825761 
L 116.003743 84.624395 
L 116.237296 82.534323 
L 116.47085 83.188633 
L 116.937957 86.597045 
L 117.17151 85.239194 
L 117.405063 85.403979 
L 117.638617 85.786919 
L 117.87217 85.204629 
L 118.57283 80.916003 
L 119.039937 81.822473 
L 119.27349 83.698204 
L 119.507043 82.496602 
L 119.740597 83.488355 
L 120.207703 85.863407 
L 120.441257 84.113582 
L 120.67481 83.979321 
L 120.908363 82.489357 
L 121.141917 82.945348 
L 121.37547 84.829821 
L 121.609024 84.735141 
L 121.842577 84.445166 
L 122.07613 83.896449 
L 122.309684 83.888696 
L 122.543237 82.16477 
L 122.77679 83.164877 
L 123.010344 82.833776 
L 123.243897 81.637249 
L 123.711004 82.88715 
L 123.944557 82.837679 
L 124.17811 84.1421 
L 124.411664 80.791596 
L 124.645217 84.251473 
L 124.87877 84.130998 
L 125.112324 83.682954 
L 125.345877 84.423612 
L 125.812984 82.133777 
L 126.046537 83.329708 
L 126.280091 83.330641 
L 126.513644 82.221874 
L 126.747197 82.181944 
L 126.980751 83.135863 
L 127.214304 82.998827 
L 127.447857 82.571513 
L 127.681411 82.403936 
L 127.914964 82.537243 
L 128.148517 83.739853 
L 128.382071 83.660755 
L 128.615624 84.219271 
L 128.849177 82.293309 
L 129.082731 82.699883 
L 129.316284 82.76106 
L 129.549837 82.276387 
L 129.783391 80.374423 
L 130.016944 82.08702 
L 130.250497 82.03985 
L 130.484051 80.988857 
L 130.717604 82.039674 
L 130.951157 82.532229 
L 131.418264 79.447923 
L 131.651818 80.895895 
L 132.352478 82.669327 
L 132.586031 82.528082 
L 132.819584 80.070283 
L 133.053138 80.20332 
L 133.286691 81.776059 
L 133.520244 81.63431 
L 133.753798 80.890943 
L 133.987351 79.465177 
L 134.220904 80.461538 
L 134.454458 80.504627 
L 134.921564 82.685008 
L 135.155118 82.869857 
L 135.388671 83.216519 
L 135.622224 81.992589 
L 135.855778 82.977596 
L 136.089331 81.104647 
L 136.322885 83.265751 
L 136.556438 82.791011 
L 136.789991 83.095679 
L 137.023545 82.52621 
L 137.257098 83.512284 
L 137.724205 81.017058 
L 137.957758 80.411084 
L 138.191311 83.438101 
L 138.424865 83.996831 
L 138.658418 82.642468 
L 138.891971 80.600916 
L 139.125525 81.643744 
L 139.359078 83.835547 
L 139.592631 84.633069 
L 139.826185 83.83173 
L 140.059738 84.664375 
L 140.293291 84.400499 
L 140.526845 84.556615 
L 140.993952 83.25302 
L 141.227505 83.639927 
L 141.694612 82.893775 
L 141.928165 82.028053 
L 142.161718 83.27461 
L 142.395272 83.011251 
L 142.628825 79.173167 
L 143.095932 80.135765 
L 143.329485 79.244304 
L 143.563038 82.257059 
L 143.796592 81.850648 
L 144.030145 80.465865 
L 144.263698 79.755515 
L 144.497252 79.897882 
L 144.730805 80.393537 
L 144.964358 80.37738 
L 145.197912 80.775054 
L 145.898572 83.696146 
L 146.132125 84.400806 
L 146.599232 82.85236 
L 146.832785 79.260942 
L 147.533445 82.615607 
L 147.766999 84.540833 
L 148.000552 85.528368 
L 148.234105 84.384774 
L 148.467659 84.994136 
L 148.701212 85.918868 
L 148.934765 85.625869 
L 149.168319 84.900508 
L 149.401872 84.876471 
L 149.635425 82.457808 
L 149.868979 81.216623 
L 150.102532 79.023668 
L 150.336085 81.86665 
L 150.569639 82.382111 
L 150.803192 82.065029 
L 151.036746 82.455371 
L 151.270299 84.220356 
L 151.503852 83.434003 
L 151.737406 84.027102 
L 151.970959 85.332311 
L 152.204512 85.154765 
L 152.438066 84.561082 
L 152.905172 81.249336 
L 153.138726 81.847429 
L 153.372279 82.053493 
L 153.605832 82.723569 
L 153.839386 84.728915 
L 154.072939 85.599335 
L 154.306492 84.70543 
L 154.540046 84.564883 
L 154.773599 84.215717 
L 155.007152 85.111001 
L 155.474259 81.293151 
L 155.707813 82.822644 
L 155.941366 82.799954 
L 156.408473 84.359701 
L 156.642026 84.497744 
L 156.875579 83.137509 
L 157.109133 83.92182 
L 157.342686 82.601448 
L 157.576239 82.485304 
L 157.809793 83.068308 
L 158.276899 82.598306 
L 158.510453 84.217817 
L 158.744006 84.477228 
L 158.977559 82.314907 
L 159.211113 83.010021 
L 159.444666 82.122912 
L 159.678219 83.374271 
L 159.911773 83.793831 
L 160.145326 82.634369 
L 160.378879 84.207685 
L 160.612433 84.928406 
L 160.845986 84.14914 
L 161.07954 82.561008 
L 161.313093 79.414809 
L 161.546646 80.57981 
L 162.013753 85.581421 
L 162.247306 85.364433 
L 162.48086 85.673466 
L 162.714413 85.655989 
L 162.947966 86.187405 
L 163.18152 85.716757 
L 163.648626 77.870622 
L 163.88218 79.961666 
L 164.349286 82.258174 
L 164.58284 81.459969 
L 164.816393 78.691192 
L 165.2835 83.686352 
L 165.517053 83.271133 
L 165.750607 82.618642 
L 165.98416 83.941147 
L 166.217713 84.520704 
L 166.451267 82.078902 
L 166.68482 85.100865 
L 166.918373 83.919494 
L 167.151927 84.436551 
L 167.38548 82.415782 
L 167.619033 83.488494 
L 167.852587 83.870297 
L 168.08614 83.968194 
L 168.319693 85.675451 
L 168.553247 84.884593 
L 168.7868 84.534861 
L 169.020353 68.056592 
L 169.48746 79.513811 
L 169.721013 82.339727 
L 169.954567 83.679839 
L 170.18812 83.611605 
L 170.421674 84.294931 
L 170.655227 85.38705 
L 170.88878 84.391583 
L 171.122334 84.775296 
L 171.355887 85.556561 
L 171.58944 81.69004 
L 171.822994 82.108304 
L 172.056547 80.745762 
L 172.2901 81.701145 
L 172.523654 81.502312 
L 172.757207 81.474851 
L 173.224314 83.185027 
L 173.457867 83.512351 
L 173.69142 81.284308 
L 174.158527 83.443848 
L 174.39208 80.732059 
L 174.625634 80.109455 
L 174.859187 79.131864 
L 175.559847 77.886718 
L 175.793401 77.014524 
L 176.026954 80.000066 
L 176.260507 79.460287 
L 176.494061 79.813936 
L 176.961167 82.12734 
L 177.194721 82.004656 
L 177.428274 84.086642 
L 177.661827 85.145882 
L 178.128934 81.025418 
L 178.362487 81.774999 
L 178.596041 79.845711 
L 178.829594 80.206693 
L 179.063147 81.731522 
L 179.296701 82.117283 
L 179.530254 80.751761 
L 179.763807 80.221105 
L 179.997361 80.82107 
L 180.464468 82.915561 
L 180.698021 81.90193 
L 181.165128 83.372449 
L 181.398681 83.555857 
L 181.632234 81.767419 
L 181.865788 82.645767 
L 182.099341 82.810416 
L 182.566448 84.53126 
L 182.800001 84.966794 
L 183.267108 84.053584 
L 183.734214 84.157321 
L 183.967768 83.883977 
L 184.201321 85.387154 
L 184.434874 83.99927 
L 184.668428 83.495089 
L 184.901981 84.39638 
L 185.369088 84.373569 
L 185.602641 82.117872 
L 185.836195 81.945201 
L 186.069748 82.885412 
L 186.303301 82.818655 
L 186.536855 83.894658 
L 186.770408 79.675393 
L 187.003961 82.580817 
L 187.237515 83.824497 
L 187.471068 84.173234 
L 187.704621 80.5043 
L 187.938175 80.908304 
L 188.171728 84.501651 
L 188.638835 81.675311 
L 188.872388 83.455116 
L 189.105941 83.508927 
L 189.339495 82.666643 
L 189.806601 85.539774 
L 190.040155 85.500279 
L 190.273708 84.253599 
L 190.507262 83.770541 
L 190.740815 84.658375 
L 190.974368 83.029194 
L 191.207922 83.414091 
L 191.441475 80.936646 
L 191.675028 82.005533 
L 191.908582 81.686522 
L 192.375688 83.795532 
L 192.609242 83.839251 
L 192.842795 84.057706 
L 193.076348 85.22352 
L 193.309902 84.185141 
L 193.543455 84.136177 
L 193.777008 84.624732 
L 194.010562 84.539217 
L 194.477668 85.186044 
L 194.711222 84.56025 
L 194.944775 84.861533 
L 195.178329 84.651167 
L 195.411882 84.068815 
L 195.645435 82.683656 
L 195.878989 85.12585 
L 196.579649 85.674898 
L 197.046755 83.737767 
L 197.280309 84.594526 
L 197.513862 83.869676 
L 197.747415 82.604416 
L 197.980969 82.556928 
L 198.214522 85.102868 
L 198.448075 84.791772 
L 198.681629 85.025863 
L 198.915182 82.784572 
L 199.148735 82.396773 
L 199.382289 83.451055 
L 199.615842 83.560576 
L 199.849396 81.632591 
L 200.316502 82.732352 
L 200.550056 82.283065 
L 200.783609 82.328729 
L 201.017162 80.236461 
L 201.250716 80.325302 
L 201.484269 83.278745 
L 201.717822 79.969078 
L 201.951376 81.068932 
L 202.184929 78.335252 
L 202.418482 80.625701 
L 202.652036 80.558778 
L 202.885589 81.193142 
L 203.119142 80.780713 
L 203.352696 81.416731 
L 203.586249 80.218302 
L 203.819802 82.343207 
L 204.053356 80.247385 
L 204.286909 82.384349 
L 204.520462 81.680853 
L 204.754016 82.699445 
L 204.987569 81.115675 
L 205.454676 82.699998 
L 205.688229 82.256663 
L 205.921783 82.557748 
L 206.155336 81.539592 
L 206.388889 82.979558 
L 206.622443 82.641221 
L 206.855996 83.792081 
L 207.089549 84.286097 
L 207.323103 84.075578 
L 207.556656 84.316552 
L 207.790209 84.720658 
L 208.023763 84.356761 
L 208.257316 84.696197 
L 208.490869 84.811621 
L 208.724423 85.510381 
L 208.957976 85.822051 
L 209.191529 85.736855 
L 209.425083 80.061789 
L 209.658636 80.287015 
L 209.89219 82.328248 
L 210.125743 81.357655 
L 210.359296 80.874332 
L 210.826403 82.17233 
L 211.059956 81.291579 
L 211.29351 82.498901 
L 211.527063 79.562748 
L 211.760616 80.485772 
L 211.99417 80.013802 
L 212.227723 75.609564 
L 212.69483 81.299546 
L 212.928383 81.233233 
L 213.161936 80.168539 
L 213.39549 80.879415 
L 213.629043 83.178662 
L 213.862596 82.842017 
L 214.09615 83.488717 
L 214.329703 84.569827 
L 214.79681 83.756956 
L 215.263917 81.049569 
L 215.49747 82.082137 
L 215.731023 82.313891 
L 215.964577 79.292489 
L 216.19813 77.915505 
L 216.431683 81.923227 
L 216.665237 81.202154 
L 216.89879 78.071955 
L 217.132343 72.8778 
L 217.365897 76.568728 
L 217.59945 77.420425 
L 217.833003 75.967201 
L 218.30011 77.733924 
L 218.533663 80.351735 
L 218.767217 79.0273 
L 219.00077 78.687543 
L 219.467877 82.926967 
L 219.70143 82.539039 
L 219.934984 83.262795 
L 220.40209 85.497043 
L 220.635644 80.521022 
L 221.336304 82.928641 
L 221.569857 82.845452 
L 221.80341 82.210409 
L 222.036964 82.41448 
L 222.270517 80.203656 
L 222.50407 81.600949 
L 222.737624 81.269956 
L 222.971177 81.534811 
L 223.20473 83.396722 
L 223.671837 85.202752 
L 223.90539 85.536948 
L 224.138944 84.244463 
L 224.372497 82.017426 
L 224.606051 85.42456 
L 224.839604 85.30741 
L 225.073157 85.044315 
L 225.306711 85.644066 
L 225.773817 81.249486 
L 226.007371 80.940901 
L 226.240924 81.586 
L 226.474477 81.668979 
L 226.708031 79.521048 
L 226.941584 80.262263 
L 227.175137 81.657345 
L 227.408691 83.755176 
L 227.642244 83.756038 
L 228.109351 82.925412 
L 228.342904 81.534015 
L 228.576457 83.581454 
L 228.810011 84.154326 
L 229.043564 80.326267 
L 229.277118 80.990165 
L 229.510671 80.40656 
L 229.744224 82.012507 
L 229.977778 79.569055 
L 230.211331 80.604675 
L 230.444884 82.423356 
L 230.911991 81.651443 
L 231.145544 85.206178 
L 231.379098 84.112542 
L 231.612651 84.351389 
L 231.846204 84.056906 
L 232.079758 79.303829 
L 232.313311 79.01267 
L 232.546864 77.264651 
L 232.780418 79.495081 
L 233.013971 80.505081 
L 233.247524 79.658354 
L 233.481078 79.329841 
L 233.714631 74.746278 
L 233.948184 76.482046 
L 234.181738 79.959484 
L 234.415291 81.102731 
L 234.648845 81.05925 
L 234.882398 80.526126 
L 235.115951 80.904511 
L 235.349505 82.749867 
L 235.583058 83.070913 
L 235.816611 81.581067 
L 236.050165 80.930166 
L 236.283718 82.026116 
L 236.517271 81.227017 
L 236.984378 82.783763 
L 237.217931 78.378275 
L 237.451485 77.815996 
L 237.685038 77.595066 
L 238.152145 82.471026 
L 238.619251 82.134956 
L 238.852805 82.615723 
L 239.086358 83.640093 
L 239.319912 81.916003 
L 239.553465 81.608883 
L 239.787018 80.34373 
L 240.020572 77.247776 
L 240.254125 76.637453 
L 240.487678 80.174654 
L 240.721232 79.312485 
L 240.954785 82.242415 
L 241.188338 82.604114 
L 241.421892 81.891176 
L 241.655445 77.833317 
L 241.888998 80.774056 
L 242.122552 81.996854 
L 242.356105 81.581288 
L 243.056765 84.431013 
L 243.290318 80.218488 
L 243.523872 72.874524 
L 243.990979 77.724174 
L 244.224532 82.672594 
L 244.458085 83.047571 
L 244.691639 82.190989 
L 244.925192 82.719251 
L 245.158745 82.675534 
L 245.392299 83.070717 
L 245.625852 84.313485 
L 245.859405 84.759291 
L 246.092959 81.086777 
L 246.326512 80.831371 
L 246.560065 81.402607 
L 246.793619 81.042313 
L 247.027172 78.225777 
L 247.260725 79.503787 
L 247.494279 79.930349 
L 247.727832 82.463696 
L 247.961385 82.538291 
L 248.194939 81.654883 
L 248.428492 82.461612 
L 248.662045 81.765992 
L 248.895599 82.227639 
L 249.129152 81.575638 
L 249.596259 78.83135 
L 249.829812 77.88492 
L 250.063366 77.887463 
L 250.296919 79.675459 
L 250.530472 78.345481 
L 250.764026 78.400256 
L 250.997579 78.139807 
L 251.231132 78.054421 
L 251.464686 80.639254 
L 251.698239 81.291474 
L 251.931792 81.069248 
L 252.165346 80.104077 
L 252.398899 82.452459 
L 252.866006 83.387272 
L 253.099559 78.488262 
L 253.333112 79.365029 
L 253.566666 81.371333 
L 253.800219 78.699919 
L 254.033773 81.075116 
L 254.267326 81.692696 
L 254.500879 81.702297 
L 254.734433 81.492927 
L 254.967986 81.977879 
L 255.201539 83.399323 
L 255.435093 82.130495 
L 255.668646 83.356455 
L 255.902199 81.247334 
L 256.602859 84.220058 
L 256.836413 83.728264 
L 257.069966 81.516867 
L 257.303519 82.921191 
L 257.770626 79.017139 
L 258.004179 78.103278 
L 258.237733 79.836395 
L 258.471286 79.716538 
L 258.70484 78.722116 
L 259.4055 82.040506 
L 259.872606 81.767711 
L 260.339713 82.737779 
L 260.573266 81.044231 
L 260.80682 80.872041 
L 261.040373 83.960656 
L 261.50748 85.286281 
L 261.741033 84.617539 
L 261.974586 85.04041 
L 262.20814 84.091372 
L 262.441693 84.095777 
L 262.9088 81.848179 
L 263.142353 82.506526 
L 263.375906 82.729739 
L 263.60946 82.451308 
L 263.843013 83.057136 
L 264.076567 80.880657 
L 264.31012 81.049131 
L 264.543673 80.978451 
L 264.777227 82.203629 
L 265.01078 81.577637 
L 265.244333 81.407096 
L 265.477887 80.993659 
L 265.71144 79.813936 
L 265.944993 82.189845 
L 266.178547 78.578521 
L 266.4121 82.915528 
L 266.879207 78.612445 
L 267.11276 81.070148 
L 267.346313 78.67715 
L 267.579867 78.029021 
L 267.81342 79.534111 
L 268.046973 82.775171 
L 268.747634 84.694454 
L 268.981187 83.847386 
L 269.21474 80.694842 
L 269.448294 80.738475 
L 269.681847 81.095721 
L 269.9154 82.652005 
L 270.148954 81.667516 
L 270.61606 82.557151 
L 270.849614 82.204592 
L 271.083167 82.787052 
L 271.31672 80.189189 
L 271.783827 81.655317 
L 272.01738 79.000546 
L 272.250934 79.578131 
L 272.484487 82.784019 
L 272.71804 81.980162 
L 272.951594 83.500833 
L 273.185147 81.493144 
L 273.418701 81.51012 
L 273.652254 81.651947 
L 273.885807 80.341892 
L 274.119361 80.912803 
L 274.352914 79.943594 
L 274.820021 83.190196 
L 275.053574 83.799078 
L 275.287127 81.134605 
L 275.520681 80.44261 
L 275.987787 84.051757 
L 276.221341 83.625377 
L 276.454894 82.948021 
L 276.688447 83.064019 
L 276.922001 83.601179 
L 277.389107 80.806254 
L 277.622661 81.278792 
L 277.856214 82.244923 
L 278.089767 80.939198 
L 278.323321 81.22876 
L 278.556874 79.644965 
L 279.023981 82.086747 
L 279.257534 81.647968 
L 279.491088 81.779642 
L 279.724641 83.997949 
L 280.191748 84.6331 
L 280.658854 82.854986 
L 280.892408 83.020952 
L 281.125961 84.627731 
L 281.359514 83.262423 
L 281.593068 80.167771 
L 281.826621 80.750734 
L 282.060174 80.916451 
L 282.293728 80.7661 
L 282.527281 82.665667 
L 282.760834 82.217631 
L 282.994388 83.25402 
L 283.227941 83.290348 
L 283.461495 83.460923 
L 283.695048 81.717965 
L 283.928601 83.657476 
L 284.395708 82.474558 
L 284.629261 82.436438 
L 284.862815 82.897441 
L 285.096368 80.357863 
L 285.329921 76.322946 
L 285.563475 78.382833 
L 286.030581 83.428247 
L 286.264135 81.54363 
L 286.497688 82.086553 
L 286.964795 85.061718 
L 287.198348 85.299999 
L 287.431901 85.854172 
L 287.665455 80.156755 
L 287.899008 78.721476 
L 288.132562 79.218867 
L 288.599668 82.3207 
L 288.833222 82.763432 
L 289.300328 81.791627 
L 289.533882 79.784797 
L 289.767435 79.266258 
L 290.000988 81.056396 
L 290.234542 80.905445 
L 290.468095 80.961269 
L 290.701648 77.279553 
L 291.168755 80.847149 
L 291.402308 80.953566 
L 291.635862 82.527396 
L 291.869415 82.772905 
L 292.336522 82.775483 
L 292.570075 83.369971 
L 292.803628 82.505004 
L 293.037182 84.140293 
L 293.270735 79.922698 
L 293.504289 79.994166 
L 293.737842 82.896344 
L 293.971395 80.092925 
L 294.204949 82.371553 
L 294.438502 80.473106 
L 294.672055 82.463796 
L 295.139162 82.57385 
L 295.606269 84.517127 
L 295.839822 83.97665 
L 296.073375 80.988499 
L 296.306929 82.416137 
L 296.540482 82.626384 
L 297.007589 85.434737 
L 297.241142 85.433916 
L 297.474695 84.505957 
L 297.708249 84.20942 
L 297.941802 81.139467 
L 298.408909 81.835901 
L 298.642462 82.999521 
L 298.876016 83.059781 
L 299.109569 83.830331 
L 299.343122 82.391066 
L 299.576676 82.643994 
L 299.810229 83.669109 
L 300.043782 80.41747 
L 300.277336 83.435589 
L 300.510889 83.027221 
L 300.744442 84.735791 
L 300.977996 82.414344 
L 301.211549 84.084753 
L 301.445102 78.797647 
L 301.678656 77.428191 
L 301.912209 82.89475 
L 302.145762 82.839154 
L 302.612869 85.005419 
L 302.846423 81.43436 
L 303.079976 82.78469 
L 303.313529 82.389884 
L 303.547083 80.919897 
L 303.780636 81.183868 
L 304.247743 83.123706 
L 304.481296 84.136336 
L 304.714849 84.139184 
L 304.948403 81.882711 
L 305.181956 82.116855 
L 305.415509 81.933578 
L 305.649063 82.851759 
L 305.882616 82.743308 
L 306.116169 82.474651 
L 306.349723 81.830614 
L 306.583276 81.517238 
L 306.816829 79.973449 
L 307.050383 79.226124 
L 307.283936 79.243429 
L 307.517489 81.099398 
L 307.751043 80.842128 
L 307.984596 82.95298 
L 308.21815 82.442142 
L 308.451703 80.015759 
L 308.685256 81.78785 
L 308.91881 82.275007 
L 309.152363 82.24614 
L 309.853023 83.987949 
L 310.086576 83.926869 
L 310.32013 82.743388 
L 310.553683 82.675064 
L 310.787236 83.919621 
L 311.02079 83.603409 
L 311.254343 83.767213 
L 311.72145 79.959248 
L 311.955003 79.027287 
L 312.188556 78.601556 
L 312.42211 79.354276 
L 312.655663 79.625049 
L 313.12277 82.971825 
L 313.356323 82.494 
L 313.589877 81.187846 
L 313.82343 81.987465 
L 314.056983 81.47879 
L 314.290537 82.242515 
L 314.52409 81.360041 
L 315.22475 80.209095 
L 315.458303 80.589168 
L 315.691857 80.520022 
L 315.92541 78.666616 
L 316.158963 79.061289 
L 316.392517 78.631623 
L 316.62607 79.029464 
L 317.093177 82.482164 
L 317.32673 82.896902 
L 317.560284 83.565962 
L 317.793837 85.275054 
L 318.02739 84.604143 
L 318.260944 82.263008 
L 318.494497 82.299276 
L 318.72805 83.398362 
L 318.961604 79.889673 
L 319.195157 79.724757 
L 319.42871 79.941421 
L 319.895817 80.619396 
L 320.12937 82.002286 
L 320.362924 81.089156 
L 320.83003 76.524722 
L 321.063584 81.341198 
L 321.297137 81.474344 
L 321.53069 81.258518 
L 321.764244 80.787498 
L 321.997797 79.193356 
L 322.23135 78.803904 
L 322.464904 75.506124 
L 322.698457 75.235863 
L 322.932011 75.211855 
L 323.165564 78.617279 
L 323.399117 79.10214 
L 323.632671 78.904462 
L 323.866224 80.34524 
L 324.099777 76.805277 
L 324.333331 78.396963 
L 324.800437 75.349164 
L 325.033991 78.496508 
L 325.267544 76.604395 
L 325.501097 76.319704 
L 325.734651 74.820077 
L 325.968204 74.568401 
L 326.201757 76.036033 
L 326.435311 75.966465 
L 326.668864 74.795768 
L 326.902417 75.943207 
L 327.135971 74.024987 
L 327.369524 78.006738 
L 327.603078 78.799955 
L 327.836631 78.928327 
L 328.303738 77.954551 
L 328.537291 79.826606 
L 328.770844 79.743484 
L 329.004398 76.662846 
L 329.237951 80.541435 
L 329.705058 83.272562 
L 330.405718 82.104388 
L 330.872824 83.981319 
L 331.106378 81.900138 
L 331.339931 82.532166 
L 331.573484 81.759159 
L 331.807038 80.33901 
L 332.040591 80.024369 
L 332.274145 81.803134 
L 332.507698 82.616969 
L 332.741251 80.131386 
L 332.974805 80.405006 
L 333.208358 82.14263 
L 333.441911 80.337217 
L 333.909018 79.718601 
L 334.376125 83.386559 
L 334.609678 83.105713 
L 334.843231 79.499662 
L 335.076785 82.761333 
L 335.310338 84.429112 
L 335.543891 84.322833 
L 336.010998 81.774016 
L 336.244551 81.711291 
L 336.478105 82.701878 
L 336.945211 77.866168 
L 337.178765 79.577509 
L 337.412318 78.962625 
L 337.645872 79.156149 
L 338.112978 76.825656 
L 338.346532 78.270965 
L 338.580085 78.081542 
L 339.047192 80.570978 
L 339.280745 82.081229 
L 339.514298 82.364379 
L 339.747852 82.316148 
L 339.981405 82.982041 
L 340.214958 81.797656 
L 340.448512 82.130057 
L 340.682065 83.985796 
L 341.382725 78.540722 
L 341.849832 79.952772 
L 342.083385 81.597307 
L 342.316939 81.879872 
L 342.550492 83.665677 
L 342.784045 83.93513 
L 343.017599 84.99889 
L 343.484705 83.854256 
L 343.718259 84.344916 
L 343.951812 82.13663 
L 344.185365 81.467892 
L 344.652472 76.345452 
L 344.886025 77.281445 
L 345.119579 77.465519 
L 345.353132 77.928318 
L 346.053792 84.360754 
L 346.287345 83.880964 
L 346.297962 82.949184 
L 346.297962 82.949184 
" style="fill:none;stroke:#e8000b;stroke-linecap:round;stroke-width:1.2;"/>
   </g>
   <g id="patch_3">
    <path d="M 54 88.92 
L 54 34.56 
" style="fill:none;stroke:#000000;stroke-linecap:square;stroke-linejoin:miter;"/>
   </g>
   <g id="patch_4">
    <path d="M 388.8 88.92 
L 388.8 34.56 
" style="fill:none;stroke:#000000;stroke-linecap:square;stroke-linejoin:miter;"/>
   </g>
   <g id="patch_5">
    <path d="M 54 88.92 
L 388.8 88.92 
" style="fill:none;stroke:#000000;stroke-linecap:square;stroke-linejoin:miter;"/>
   </g>
   <g id="patch_6">
    <path d="M 54 34.56 
L 388.8 34.56 
" style="fill:none;stroke:#000000;stroke-linecap:square;stroke-linejoin:miter;"/>
   </g>
   <g id="text_5">
    <!-- Griewank -->
    <defs>
     <path d="M 41.21875 28.078125 
L 41.21875 36.46875 
L 71.53125 36.53125 
L 71.53125 9.96875 
Q 64.546875 4.390625 57.125 1.578125 
Q 49.703125 -1.21875 41.890625 -1.21875 
Q 31.34375 -1.21875 22.71875 3.296875 
Q 14.109375 7.8125 9.71875 16.359375 
Q 5.328125 24.90625 5.328125 35.453125 
Q 5.328125 45.90625 9.6875 54.953125 
Q 14.0625 64.015625 22.265625 68.40625 
Q 30.46875 72.796875 41.15625 72.796875 
Q 48.921875 72.796875 55.1875 70.28125 
Q 61.46875 67.78125 65.03125 63.28125 
Q 68.609375 58.796875 70.453125 51.5625 
L 61.921875 49.21875 
Q 60.296875 54.6875 57.90625 57.8125 
Q 55.515625 60.9375 51.0625 62.8125 
Q 46.625 64.703125 41.21875 64.703125 
Q 34.71875 64.703125 29.984375 62.71875 
Q 25.25 60.75 22.34375 57.515625 
Q 19.4375 54.296875 17.828125 50.4375 
Q 15.09375 43.796875 15.09375 36.03125 
Q 15.09375 26.46875 18.390625 20.015625 
Q 21.6875 13.578125 27.984375 10.453125 
Q 34.28125 7.328125 41.359375 7.328125 
Q 47.515625 7.328125 53.375 9.6875 
Q 59.234375 12.0625 62.25 14.75 
L 62.25 28.078125 
z
" id="ArialMT-71"/>
     <path d="M 6.5 0 
L 6.5 51.859375 
L 14.40625 51.859375 
L 14.40625 44 
Q 17.4375 49.515625 20 51.265625 
Q 22.5625 53.03125 25.640625 53.03125 
Q 30.078125 53.03125 34.671875 50.203125 
L 31.640625 42.046875 
Q 28.421875 43.953125 25.203125 43.953125 
Q 22.3125 43.953125 20.015625 42.21875 
Q 17.71875 40.484375 16.75 37.40625 
Q 15.28125 32.71875 15.28125 27.15625 
L 15.28125 0 
z
" id="ArialMT-114"/>
     <path d="M 6.640625 61.46875 
L 6.640625 71.578125 
L 15.4375 71.578125 
L 15.4375 61.46875 
z
M 6.640625 0 
L 6.640625 51.859375 
L 15.4375 51.859375 
L 15.4375 0 
z
" id="ArialMT-105"/>
     <path d="M 42.09375 16.703125 
L 51.171875 15.578125 
Q 49.03125 7.625 43.21875 3.21875 
Q 37.40625 -1.171875 28.375 -1.171875 
Q 17 -1.171875 10.328125 5.828125 
Q 3.65625 12.84375 3.65625 25.484375 
Q 3.65625 38.578125 10.390625 45.796875 
Q 17.140625 53.03125 27.875 53.03125 
Q 38.28125 53.03125 44.875 45.953125 
Q 51.46875 38.875 51.46875 26.03125 
Q 51.46875 25.25 51.421875 23.6875 
L 12.75 23.6875 
Q 13.234375 15.140625 17.578125 10.59375 
Q 21.921875 6.0625 28.421875 6.0625 
Q 33.25 6.0625 36.671875 8.59375 
Q 40.09375 11.140625 42.09375 16.703125 
z
M 13.234375 30.90625 
L 42.1875 30.90625 
Q 41.609375 37.453125 38.875 40.71875 
Q 34.671875 45.796875 27.984375 45.796875 
Q 21.921875 45.796875 17.796875 41.75 
Q 13.671875 37.703125 13.234375 30.90625 
z
" id="ArialMT-101"/>
     <path d="M 16.15625 0 
L 0.296875 51.859375 
L 9.375 51.859375 
L 17.625 21.921875 
L 20.703125 10.796875 
Q 20.90625 11.625 23.390625 21.484375 
L 31.640625 51.859375 
L 40.671875 51.859375 
L 48.4375 21.78125 
L 51.03125 11.859375 
L 54 21.875 
L 62.890625 51.859375 
L 71.4375 51.859375 
L 55.21875 0 
L 46.09375 0 
L 37.84375 31.0625 
L 35.84375 39.890625 
L 25.34375 0 
z
" id="ArialMT-119"/>
     <path d="M 40.4375 6.390625 
Q 35.546875 2.25 31.03125 0.53125 
Q 26.515625 -1.171875 21.34375 -1.171875 
Q 12.796875 -1.171875 8.203125 3 
Q 3.609375 7.171875 3.609375 13.671875 
Q 3.609375 17.484375 5.34375 20.625 
Q 7.078125 23.78125 9.890625 25.6875 
Q 12.703125 27.59375 16.21875 28.5625 
Q 18.796875 29.25 24.03125 29.890625 
Q 34.671875 31.15625 39.703125 32.90625 
Q 39.75 34.71875 39.75 35.203125 
Q 39.75 40.578125 37.25 42.78125 
Q 33.890625 45.75 27.25 45.75 
Q 21.046875 45.75 18.09375 43.578125 
Q 15.140625 41.40625 13.71875 35.890625 
L 5.125 37.0625 
Q 6.296875 42.578125 8.984375 45.96875 
Q 11.671875 49.359375 16.75 51.1875 
Q 21.828125 53.03125 28.515625 53.03125 
Q 35.15625 53.03125 39.296875 51.46875 
Q 43.453125 49.90625 45.40625 47.53125 
Q 47.359375 45.171875 48.140625 41.546875 
Q 48.578125 39.3125 48.578125 33.453125 
L 48.578125 21.734375 
Q 48.578125 9.46875 49.140625 6.21875 
Q 49.703125 2.984375 51.375 0 
L 42.1875 0 
Q 40.828125 2.734375 40.4375 6.390625 
z
M 39.703125 26.03125 
Q 34.90625 24.078125 25.34375 22.703125 
Q 19.921875 21.921875 17.671875 20.9375 
Q 15.4375 19.96875 14.203125 18.09375 
Q 12.984375 16.21875 12.984375 13.921875 
Q 12.984375 10.40625 15.640625 8.0625 
Q 18.3125 5.71875 23.4375 5.71875 
Q 28.515625 5.71875 32.46875 7.9375 
Q 36.421875 10.15625 38.28125 14.015625 
Q 39.703125 17 39.703125 22.796875 
z
" id="ArialMT-97"/>
     <path d="M 6.59375 0 
L 6.59375 51.859375 
L 14.5 51.859375 
L 14.5 44.484375 
Q 20.21875 53.03125 31 53.03125 
Q 35.6875 53.03125 39.625 51.34375 
Q 43.5625 49.65625 45.515625 46.921875 
Q 47.46875 44.1875 48.25 40.4375 
Q 48.734375 37.984375 48.734375 31.890625 
L 48.734375 0 
L 39.9375 0 
L 39.9375 31.546875 
Q 39.9375 36.921875 38.90625 39.578125 
Q 37.890625 42.234375 35.28125 43.8125 
Q 32.671875 45.40625 29.15625 45.40625 
Q 23.53125 45.40625 19.453125 41.84375 
Q 15.375 38.28125 15.375 28.328125 
L 15.375 0 
z
" id="ArialMT-110"/>
     <path d="M 6.640625 0 
L 6.640625 71.578125 
L 15.4375 71.578125 
L 15.4375 30.765625 
L 36.234375 51.859375 
L 47.609375 51.859375 
L 27.78125 32.625 
L 49.609375 0 
L 38.765625 0 
L 21.625 26.515625 
L 15.4375 20.5625 
L 15.4375 0 
z
" id="ArialMT-107"/>
    </defs>
    <g transform="translate(201.1275 28.56)scale(0.096 -0.096)">
     <use xlink:href="#ArialMT-71"/>
     <use x="77.783203" xlink:href="#ArialMT-114"/>
     <use x="111.083984" xlink:href="#ArialMT-105"/>
     <use x="133.300781" xlink:href="#ArialMT-101"/>
     <use x="188.916016" xlink:href="#ArialMT-119"/>
     <use x="261.132812" xlink:href="#ArialMT-97"/>
     <use x="316.748047" xlink:href="#ArialMT-110"/>
     <use x="372.363281" xlink:href="#ArialMT-107"/>
    </g>
   </g>
   <g id="legend_1">
    <g id="patch_7">
     <path d="M 337.824 57.064 
L 384.64 57.064 
Q 386.4 57.064 386.4 55.304 
L 386.4 42.72 
Q 386.4 40.96 384.64 40.96 
L 337.824 40.96 
Q 336.064 40.96 336.064 42.72 
L 336.064 55.304 
Q 336.064 57.064 337.824 57.064 
z
" style="fill:#4c4c4c;opacity:0.5;stroke:#4c4c4c;stroke-linejoin:miter;stroke-width:0.8;"/>
    </g>
    <g id="patch_8">
     <path d="M 335.824 55.064 
L 382.64 55.064 
Q 384.4 55.064 384.4 53.304 
L 384.4 40.72 
Q 384.4 38.96 382.64 38.96 
L 335.824 38.96 
Q 334.064 38.96 334.064 40.72 
L 334.064 53.304 
Q 334.064 55.064 335.824 55.064 
z
" style="fill:#ffffff;stroke:#000000;stroke-linejoin:miter;stroke-width:0.8;"/>
    </g>
    <g id="line2d_22">
     <path d="M 337.584 45.736 
L 344.624 45.736 
" style="fill:none;stroke:#e8000b;stroke-linecap:round;stroke-width:1.2;"/>
    </g>
    <g id="line2d_23"/>
    <g id="text_6">
     <!-- $n_{step}$=1 -->
     <defs>
      <path d="M 55.71875 33.015625 
L 49.3125 0 
L 40.28125 0 
L 46.6875 32.671875 
Q 47.125 34.96875 47.359375 36.71875 
Q 47.609375 38.484375 47.609375 39.5 
Q 47.609375 43.609375 45.015625 45.890625 
Q 42.4375 48.1875 37.796875 48.1875 
Q 30.5625 48.1875 25.34375 43.375 
Q 20.125 38.578125 18.5 30.328125 
L 12.5 0 
L 3.515625 0 
L 14.109375 54.6875 
L 23.09375 54.6875 
L 21.296875 46.09375 
Q 25.046875 50.828125 30.3125 53.40625 
Q 35.59375 56 41.40625 56 
Q 48.640625 56 52.609375 52.09375 
Q 56.59375 48.1875 56.59375 41.109375 
Q 56.59375 39.359375 56.375 37.359375 
Q 56.15625 35.359375 55.71875 33.015625 
z
" id="DejaVuSans-Oblique-110"/>
      <path d="M 50 53.078125 
L 48.296875 44.578125 
Q 44.734375 46.53125 40.765625 47.5 
Q 36.8125 48.484375 32.625 48.484375 
Q 25.53125 48.484375 21.453125 46.0625 
Q 17.390625 43.65625 17.390625 39.5 
Q 17.390625 34.671875 26.859375 32.078125 
Q 27.59375 31.890625 27.9375 31.78125 
L 30.8125 30.90625 
Q 39.796875 28.421875 42.796875 25.6875 
Q 45.796875 22.953125 45.796875 18.21875 
Q 45.796875 9.515625 38.890625 4.046875 
Q 31.984375 -1.421875 20.796875 -1.421875 
Q 16.453125 -1.421875 11.671875 -0.578125 
Q 6.890625 0.25 1.125 2 
L 2.875 11.28125 
Q 7.8125 8.734375 12.59375 7.421875 
Q 17.390625 6.109375 21.78125 6.109375 
Q 28.375 6.109375 32.5 8.9375 
Q 36.625 11.765625 36.625 16.109375 
Q 36.625 20.796875 25.78125 23.6875 
L 24.859375 23.921875 
L 21.78125 24.703125 
Q 14.9375 26.515625 11.765625 29.46875 
Q 8.59375 32.421875 8.59375 37.015625 
Q 8.59375 45.75 15.15625 50.875 
Q 21.734375 56 33.015625 56 
Q 37.453125 56 41.671875 55.265625 
Q 45.90625 54.546875 50 53.078125 
z
" id="DejaVuSans-Oblique-115"/>
      <path d="M 42.28125 54.6875 
L 40.921875 47.703125 
L 23 47.703125 
L 17.1875 18.015625 
Q 16.890625 16.359375 16.75 15.234375 
Q 16.609375 14.109375 16.609375 13.484375 
Q 16.609375 10.359375 18.484375 8.9375 
Q 20.359375 7.515625 24.515625 7.515625 
L 33.59375 7.515625 
L 32.078125 0 
L 23.484375 0 
Q 15.484375 0 11.546875 3.125 
Q 7.625 6.25 7.625 12.59375 
Q 7.625 13.71875 7.765625 15.0625 
Q 7.90625 16.40625 8.203125 18.015625 
L 14.015625 47.703125 
L 6.390625 47.703125 
L 7.8125 54.6875 
L 15.28125 54.6875 
L 18.3125 70.21875 
L 27.296875 70.21875 
L 24.3125 54.6875 
z
" id="DejaVuSans-Oblique-116"/>
      <path d="M 48.09375 32.234375 
Q 48.25 33.015625 48.3125 33.84375 
Q 48.390625 34.671875 48.390625 35.5 
Q 48.390625 41.453125 44.890625 44.921875 
Q 41.40625 48.390625 35.40625 48.390625 
Q 28.71875 48.390625 23.578125 44.15625 
Q 18.453125 39.9375 15.828125 32.171875 
z
M 55.90625 25.203125 
L 14.109375 25.203125 
Q 13.8125 23.34375 13.71875 22.265625 
Q 13.625 21.1875 13.625 20.40625 
Q 13.625 13.625 17.796875 9.90625 
Q 21.96875 6.203125 29.59375 6.203125 
Q 35.453125 6.203125 40.671875 7.515625 
Q 45.90625 8.84375 50.390625 11.375 
L 48.6875 2.484375 
Q 43.84375 0.53125 38.6875 -0.4375 
Q 33.546875 -1.421875 28.21875 -1.421875 
Q 16.84375 -1.421875 10.71875 4.015625 
Q 4.59375 9.46875 4.59375 19.484375 
Q 4.59375 28.03125 7.640625 35.375 
Q 10.6875 42.71875 16.609375 48.484375 
Q 20.40625 52.09375 25.65625 54.046875 
Q 30.90625 56 36.8125 56 
Q 46.09375 56 51.578125 50.4375 
Q 57.078125 44.875 57.078125 35.5 
Q 57.078125 33.25 56.78125 30.6875 
Q 56.5 28.125 55.90625 25.203125 
z
" id="DejaVuSans-Oblique-101"/>
      <path d="M 49.609375 33.6875 
Q 49.609375 40.875 46.484375 44.671875 
Q 43.359375 48.484375 37.5 48.484375 
Q 33.5 48.484375 29.859375 46.4375 
Q 26.21875 44.390625 23.390625 40.484375 
Q 20.609375 36.625 18.9375 31.15625 
Q 17.28125 25.6875 17.28125 20.3125 
Q 17.28125 13.484375 20.40625 9.796875 
Q 23.53125 6.109375 29.296875 6.109375 
Q 33.546875 6.109375 37.1875 8.109375 
Q 40.828125 10.109375 43.40625 13.921875 
Q 46.1875 17.921875 47.890625 23.34375 
Q 49.609375 28.765625 49.609375 33.6875 
z
M 21.78125 46.390625 
Q 25.390625 51.125 30.296875 53.5625 
Q 35.203125 56 41.21875 56 
Q 49.609375 56 54.25 50.5 
Q 58.890625 45.015625 58.890625 35.109375 
Q 58.890625 27 56 19.65625 
Q 53.125 12.3125 47.703125 6.5 
Q 44.09375 2.640625 39.546875 0.609375 
Q 35.015625 -1.421875 29.984375 -1.421875 
Q 24.171875 -1.421875 20.21875 1 
Q 16.265625 3.421875 14.3125 8.203125 
L 8.6875 -20.796875 
L -0.296875 -20.796875 
L 14.40625 54.6875 
L 23.390625 54.6875 
z
" id="DejaVuSans-Oblique-112"/>
      <path d="M 52.828125 42.09375 
L 5.5625 42.09375 
L 5.5625 50.296875 
L 52.828125 50.296875 
z
M 52.828125 20.359375 
L 5.5625 20.359375 
L 5.5625 28.5625 
L 52.828125 28.5625 
z
" id="ArialMT-61"/>
     </defs>
     <g transform="translate(351.664 48.816)scale(0.088 -0.088)">
      <use transform="translate(0 0.125)" xlink:href="#DejaVuSans-Oblique-110"/>
      <use transform="translate(63.378906 -16.28125)scale(0.7)" xlink:href="#DejaVuSans-Oblique-115"/>
      <use transform="translate(99.848633 -16.28125)scale(0.7)" xlink:href="#DejaVuSans-Oblique-116"/>
      <use transform="translate(127.294922 -16.28125)scale(0.7)" xlink:href="#DejaVuSans-Oblique-101"/>
      <use transform="translate(170.361328 -16.28125)scale(0.7)" xlink:href="#DejaVuSans-Oblique-112"/>
      <use transform="translate(217.529297 0.125)" xlink:href="#ArialMT-61"/>
      <use transform="translate(275.927734 0.125)" xlink:href="#ArialMT-49"/>
     </g>
    </g>
   </g>
  </g>
  <g id="axes_2">
   <g id="patch_9">
    <path d="M 54 143.28 
L 388.8 143.28 
L 388.8 88.92 
L 54 88.92 
z
" style="fill:#ffffff;"/>
   </g>
   <g id="matplotlib.axis_3">
    <g id="xtick_8">
     <g id="line2d_24">
      <g>
       <use style="stroke:#000000;" x="63.475472" xlink:href="#m1c75e23862" y="143.28"/>
      </g>
     </g>
     <g id="line2d_25">
      <g>
       <use style="stroke:#000000;" x="63.475472" xlink:href="#ma7f8a4fdcb" y="88.92"/>
      </g>
     </g>
    </g>
    <g id="xtick_9">
     <g id="line2d_26">
      <g>
       <use style="stroke:#000000;" x="116.555778" xlink:href="#m1c75e23862" y="143.28"/>
      </g>
     </g>
     <g id="line2d_27">
      <g>
       <use style="stroke:#000000;" x="116.555778" xlink:href="#ma7f8a4fdcb" y="88.92"/>
      </g>
     </g>
    </g>
    <g id="xtick_10">
     <g id="line2d_28">
      <g>
       <use style="stroke:#000000;" x="169.636085" xlink:href="#m1c75e23862" y="143.28"/>
      </g>
     </g>
     <g id="line2d_29">
      <g>
       <use style="stroke:#000000;" x="169.636085" xlink:href="#ma7f8a4fdcb" y="88.92"/>
      </g>
     </g>
    </g>
    <g id="xtick_11">
     <g id="line2d_30">
      <g>
       <use style="stroke:#000000;" x="222.716392" xlink:href="#m1c75e23862" y="143.28"/>
      </g>
     </g>
     <g id="line2d_31">
      <g>
       <use style="stroke:#000000;" x="222.716392" xlink:href="#ma7f8a4fdcb" y="88.92"/>
      </g>
     </g>
    </g>
    <g id="xtick_12">
     <g id="line2d_32">
      <g>
       <use style="stroke:#000000;" x="275.796698" xlink:href="#m1c75e23862" y="143.28"/>
      </g>
     </g>
     <g id="line2d_33">
      <g>
       <use style="stroke:#000000;" x="275.796698" xlink:href="#ma7f8a4fdcb" y="88.92"/>
      </g>
     </g>
    </g>
    <g id="xtick_13">
     <g id="line2d_34">
      <g>
       <use style="stroke:#000000;" x="328.877005" xlink:href="#m1c75e23862" y="143.28"/>
      </g>
     </g>
     <g id="line2d_35">
      <g>
       <use style="stroke:#000000;" x="328.877005" xlink:href="#ma7f8a4fdcb" y="88.92"/>
      </g>
     </g>
    </g>
    <g id="xtick_14">
     <g id="line2d_36">
      <g>
       <use style="stroke:#000000;" x="381.957312" xlink:href="#m1c75e23862" y="143.28"/>
      </g>
     </g>
     <g id="line2d_37">
      <g>
       <use style="stroke:#000000;" x="381.957312" xlink:href="#ma7f8a4fdcb" y="88.92"/>
      </g>
     </g>
    </g>
   </g>
   <g id="matplotlib.axis_4">
    <g id="ytick_4">
     <g id="line2d_38">
      <g>
       <use style="stroke:#000000;" x="54" xlink:href="#m8b0f9c4fa4" y="131.2"/>
      </g>
     </g>
     <g id="line2d_39">
      <g>
       <use style="stroke:#000000;" x="388.8" xlink:href="#m37262a6792" y="131.2"/>
      </g>
     </g>
     <g id="text_7">
      <!-- 0.5 -->
      <g transform="translate(38.268 134.349438)scale(0.088 -0.088)">
       <use xlink:href="#ArialMT-48"/>
       <use x="55.615234" xlink:href="#ArialMT-46"/>
       <use x="83.398438" xlink:href="#ArialMT-53"/>
      </g>
     </g>
    </g>
    <g id="ytick_5">
     <g id="line2d_40">
      <g>
       <use style="stroke:#000000;" x="54" xlink:href="#m8b0f9c4fa4" y="116.1"/>
      </g>
     </g>
     <g id="line2d_41">
      <g>
       <use style="stroke:#000000;" x="388.8" xlink:href="#m37262a6792" y="116.1"/>
      </g>
     </g>
     <g id="text_8">
      <!-- 1.0 -->
      <g transform="translate(38.268 119.249438)scale(0.088 -0.088)">
       <use xlink:href="#ArialMT-49"/>
       <use x="55.615234" xlink:href="#ArialMT-46"/>
       <use x="83.398438" xlink:href="#ArialMT-48"/>
      </g>
     </g>
    </g>
    <g id="ytick_6">
     <g id="line2d_42">
      <g>
       <use style="stroke:#000000;" x="54" xlink:href="#m8b0f9c4fa4" y="101"/>
      </g>
     </g>
     <g id="line2d_43">
      <g>
       <use style="stroke:#000000;" x="388.8" xlink:href="#m37262a6792" y="101"/>
      </g>
     </g>
     <g id="text_9">
      <!-- 1.5 -->
      <g transform="translate(38.268 104.149438)scale(0.088 -0.088)">
       <use xlink:href="#ArialMT-49"/>
       <use x="55.615234" xlink:href="#ArialMT-46"/>
       <use x="83.398438" xlink:href="#ArialMT-53"/>
      </g>
     </g>
    </g>
    <g id="text_10">
     <!-- $\beta$ -->
     <g transform="translate(32.252 119.172)rotate(-90)scale(0.096 -0.096)">
      <use transform="translate(0 0.390625)" xlink:href="#DejaVuSans-Oblique-946"/>
     </g>
    </g>
   </g>
   <g id="line2d_44">
    <path clip-path="url(#pd4f5b70747)" d="M 63.921346 112.447843 
L 64.85556 112.447843 
L 65.089113 120.107911 
L 66.023326 120.107911 
L 66.25688 121.377177 
L 67.191093 121.377177 
L 67.424647 130.87759 
L 68.35886 130.87759 
L 68.592413 134.569951 
L 69.526627 134.569951 
L 69.76018 133.68304 
L 70.694393 133.68304 
L 70.927947 135.268983 
L 71.86216 135.268983 
L 72.095713 136.206019 
L 73.029927 136.206019 
L 73.26348 135.928122 
L 74.197694 135.928122 
L 74.431247 137.33472 
L 75.36546 137.33472 
L 75.599014 136.415261 
L 76.533227 136.415261 
L 76.76678 136.867496 
L 77.700994 136.867496 
L 77.934547 135.882936 
L 78.868761 135.882936 
L 79.102314 137.622325 
L 80.036527 137.622325 
L 80.270081 138.055895 
L 81.204294 138.055895 
L 81.437847 139.718698 
L 83.539828 139.741358 
L 83.773381 136.104628 
L 84.707594 136.104628 
L 84.941148 138.2184 
L 85.875361 138.2184 
L 86.108914 138.46398 
L 87.043128 138.46398 
L 87.276681 139.016401 
L 88.210895 139.016401 
L 88.444448 139.663911 
L 89.378661 139.663911 
L 89.612215 139.864626 
L 90.546428 139.864626 
L 90.779981 140.097259 
L 91.714195 140.097259 
L 92.181302 139.979841 
L 92.881962 139.979841 
L 93.115515 140.596642 
L 94.049728 140.596642 
L 94.283282 137.63332 
L 95.217495 137.63332 
L 95.451048 137.222383 
L 96.385262 137.222383 
L 96.618815 138.386045 
L 97.553029 138.386045 
L 97.786582 135.846046 
L 98.720795 135.846046 
L 98.954349 139.807929 
L 99.888562 139.807929 
L 100.122115 139.19199 
L 101.056329 139.19199 
L 101.289882 134.800634 
L 102.224096 134.800634 
L 102.457649 139.012993 
L 103.391862 139.012993 
L 103.625416 139.21125 
L 104.559629 139.21125 
L 104.793182 139.841064 
L 105.727396 139.841064 
L 105.960949 140.383202 
L 106.895163 140.383202 
L 107.128716 137.558316 
L 108.062929 137.558316 
L 108.296483 137.877021 
L 109.230696 137.877021 
L 109.464249 139.766704 
L 110.398463 139.766704 
L 110.632016 136.963943 
L 111.56623 136.963943 
L 111.799783 136.286174 
L 112.733996 136.286174 
L 112.96755 136.850645 
L 113.901763 136.850645 
L 114.135316 139.769164 
L 115.06953 139.769164 
L 115.303083 139.615648 
L 116.237296 139.615648 
L 116.47085 137.099623 
L 117.405063 137.099623 
L 117.638617 137.951214 
L 118.57283 137.951214 
L 118.806383 137.101313 
L 119.740597 137.101313 
L 119.97415 137.716536 
L 120.908363 137.716536 
L 121.141917 138.965199 
L 122.07613 138.965199 
L 122.309684 138.713783 
L 123.243897 138.713783 
L 123.47745 140.168652 
L 124.411664 140.168652 
L 124.645217 137.069865 
L 125.57943 137.069865 
L 125.812984 137.235054 
L 126.747197 137.235054 
L 126.980751 138.052533 
L 127.914964 138.052533 
L 128.148517 137.292207 
L 129.082731 137.292207 
L 129.316284 138.186178 
L 130.250497 138.186178 
L 130.484051 139.3038 
L 132.586031 139.285038 
L 132.819584 140.286295 
L 133.753798 140.286295 
L 133.987351 140.939297 
L 136.089331 140.910909 
L 136.322885 141.394417 
L 137.257098 141.394417 
L 137.490651 140.646504 
L 138.424865 140.646504 
L 138.658418 139.975931 
L 139.592631 139.975931 
L 139.826185 140.837262 
L 140.760398 140.837262 
L 140.993952 140.152331 
L 141.928165 140.152331 
L 142.161718 139.418314 
L 143.095932 139.418314 
L 143.329485 134.74435 
L 144.263698 134.74435 
L 144.497252 136.376253 
L 145.431465 136.376253 
L 145.665018 136.543712 
L 146.599232 136.543712 
L 146.832785 136.778173 
L 147.766999 136.778173 
L 148.000552 138.450596 
L 148.934765 138.450596 
L 149.168319 139.300946 
L 150.102532 139.300946 
L 150.336085 140.206419 
L 151.270299 140.206419 
L 151.503852 140.790272 
L 152.438066 140.790272 
L 152.671619 139.631705 
L 153.605832 139.631705 
L 153.839386 135.735544 
L 154.773599 135.735544 
L 155.007152 138.582964 
L 155.941366 138.582964 
L 156.174919 134.550278 
L 157.109133 134.550278 
L 157.342686 137.95145 
L 158.276899 137.95145 
L 158.510453 139.203098 
L 159.444666 139.203098 
L 159.678219 137.122861 
L 161.7802 137.012184 
L 162.013753 138.391673 
L 162.947966 138.391673 
L 163.18152 137.0528 
L 164.115733 137.0528 
L 164.349286 137.496868 
L 166.451267 137.461912 
L 166.68482 138.960885 
L 167.619033 138.960885 
L 167.852587 139.670991 
L 168.7868 139.670991 
L 169.020353 137.197201 
L 169.954567 137.197201 
L 170.18812 137.944138 
L 171.122334 137.944138 
L 171.355887 136.128398 
L 172.2901 136.128398 
L 172.523654 137.913622 
L 173.457867 137.913622 
L 173.69142 138.596701 
L 174.625634 138.596701 
L 174.859187 138.092414 
L 175.793401 138.092414 
L 176.026954 138.963582 
L 176.961167 138.963582 
L 177.194721 138.067992 
L 179.296701 137.968514 
L 179.530254 137.540417 
L 180.464468 137.540417 
L 180.698021 137.781934 
L 181.632234 137.781934 
L 181.865788 137.261901 
L 182.800001 137.261901 
L 183.033554 138.47551 
L 183.967768 138.47551 
L 184.201321 138.292456 
L 185.135535 138.292456 
L 185.369088 139.271891 
L 186.303301 139.271891 
L 186.536855 140.849776 
L 187.471068 140.849776 
L 187.704621 138.486422 
L 188.638835 138.486422 
L 189.105941 138.371853 
L 189.806601 138.371853 
L 190.040155 137.29178 
L 190.974368 137.29178 
L 191.207922 138.863193 
L 192.142135 138.863193 
L 192.375688 139.330879 
L 194.477668 139.409385 
L 194.711222 136.183328 
L 195.645435 136.183328 
L 195.878989 135.785348 
L 196.813202 135.785348 
L 197.046755 136.324401 
L 197.980969 136.324401 
L 198.214522 137.046989 
L 199.148735 137.046989 
L 199.382289 136.205562 
L 200.316502 136.205562 
L 200.550056 136.334503 
L 201.484269 136.334503 
L 201.717822 136.743208 
L 202.652036 136.743208 
L 202.885589 138.861762 
L 203.819802 138.861762 
L 204.053356 138.288091 
L 204.987569 138.288091 
L 205.221123 138.729379 
L 206.155336 138.729379 
L 206.388889 139.529631 
L 208.490869 139.507677 
L 208.724423 138.935559 
L 209.658636 138.935559 
L 209.89219 139.744779 
L 211.99417 139.740946 
L 212.227723 140.551966 
L 213.161936 140.551966 
L 213.39549 138.231115 
L 214.329703 138.231115 
L 214.563257 136.983402 
L 215.49747 136.983402 
L 215.731023 135.735422 
L 216.665237 135.735422 
L 216.89879 136.389192 
L 217.833003 136.389192 
L 218.066557 137.797397 
L 219.00077 137.797397 
L 219.234323 138.085297 
L 220.168537 138.085297 
L 220.40209 137.38925 
L 221.336304 137.38925 
L 221.569857 136.59528 
L 222.50407 136.59528 
L 222.737624 137.226285 
L 223.671837 137.226285 
L 223.90539 138.574785 
L 224.839604 138.574785 
L 225.073157 138.443318 
L 226.007371 138.443318 
L 226.240924 134.323156 
L 227.175137 134.323156 
L 227.408691 134.860455 
L 228.342904 134.860455 
L 228.576457 133.963996 
L 229.510671 133.963996 
L 229.744224 136.181972 
L 230.678438 136.181972 
L 230.911991 135.670916 
L 231.846204 135.670916 
L 232.313311 135.559021 
L 233.013971 135.559021 
L 233.247524 136.550653 
L 234.181738 136.550653 
L 234.415291 133.681855 
L 235.349505 133.681855 
L 235.583058 137.167081 
L 236.517271 137.167081 
L 236.750825 136.986743 
L 237.685038 136.986743 
L 237.918591 136.421825 
L 238.852805 136.421825 
L 239.086358 137.547778 
L 240.020572 137.547778 
L 240.254125 138.283188 
L 241.188338 138.283188 
L 241.421892 136.046636 
L 242.356105 136.046636 
L 242.589658 137.49537 
L 243.523872 137.49537 
L 243.757425 137.832827 
L 244.691639 137.832827 
L 244.925192 139.220852 
L 245.859405 139.220852 
L 246.092959 137.696762 
L 247.027172 137.696762 
L 247.260725 136.101489 
L 248.194939 136.101489 
L 248.428492 137.55035 
L 249.362706 137.55035 
L 249.596259 138.274726 
L 250.530472 138.274726 
L 250.764026 136.97873 
L 251.698239 136.97873 
L 251.931792 138.154193 
L 252.866006 138.154193 
L 253.099559 138.629469 
L 254.033773 138.629469 
L 254.267326 138.271772 
L 255.201539 138.271772 
L 255.435093 136.722211 
L 256.369306 136.722211 
L 256.602859 137.529874 
L 257.537073 137.529874 
L 257.770626 137.381507 
L 259.872606 137.297613 
L 260.10616 138.113039 
L 261.040373 138.113039 
L 261.273926 138.707575 
L 262.20814 138.707575 
L 262.441693 138.92157 
L 263.375906 138.92157 
L 263.60946 137.884534 
L 264.543673 137.884534 
L 264.777227 135.736898 
L 265.71144 135.736898 
L 265.944993 138.300408 
L 268.046973 138.26213 
L 268.280527 137.880873 
L 269.21474 137.880873 
L 269.448294 139.223621 
L 270.382507 139.223621 
L 270.61606 136.532219 
L 271.550274 136.532219 
L 271.783827 138.576861 
L 272.71804 138.576861 
L 272.951594 137.492083 
L 273.885807 137.492083 
L 274.119361 136.814902 
L 275.053574 136.814902 
L 275.287127 137.112979 
L 276.221341 137.112979 
L 276.454894 137.945071 
L 277.389107 137.945071 
L 277.622661 133.37531 
L 278.556874 133.37531 
L 278.790428 132.343615 
L 279.724641 132.343615 
L 279.958194 134.605272 
L 280.892408 134.605272 
L 281.125961 134.845853 
L 282.060174 134.845853 
L 282.293728 131.802484 
L 283.227941 131.802484 
L 283.461495 132.834894 
L 284.395708 132.834894 
L 284.629261 135.069511 
L 285.563475 135.069511 
L 285.797028 136.035129 
L 286.731241 136.035129 
L 286.964795 135.298333 
L 287.899008 135.298333 
L 288.132562 134.898426 
L 289.066775 134.898426 
L 289.300328 133.339977 
L 290.234542 133.339977 
L 290.468095 133.77756 
L 291.402308 133.77756 
L 291.635862 134.950228 
L 292.570075 134.950228 
L 292.803628 136.731994 
L 293.737842 136.731994 
L 293.971395 133.826518 
L 294.905609 133.826518 
L 295.139162 134.620558 
L 296.073375 134.620558 
L 296.306929 134.996378 
L 297.241142 134.996378 
L 297.474695 137.612777 
L 298.408909 137.612777 
L 298.642462 134.433215 
L 299.576676 134.433215 
L 299.810229 132.909324 
L 300.744442 132.909324 
L 300.977996 136.229146 
L 301.912209 136.229146 
L 302.145762 135.254239 
L 303.079976 135.254239 
L 303.313529 136.213424 
L 304.247743 136.213424 
L 304.481296 135.413712 
L 305.415509 135.413712 
L 305.649063 134.87286 
L 306.583276 134.87286 
L 306.816829 136.745836 
L 307.751043 136.745836 
L 307.984596 135.885335 
L 308.91881 135.885335 
L 309.152363 134.01436 
L 310.086576 134.01436 
L 310.32013 134.267255 
L 311.254343 134.267255 
L 311.487896 134.828489 
L 312.42211 134.828489 
L 312.655663 135.158314 
L 313.589877 135.158314 
L 313.82343 133.520393 
L 314.757643 133.520393 
L 314.991197 133.06636 
L 315.92541 133.06636 
L 316.158963 133.555545 
L 317.093177 133.555545 
L 317.32673 135.479706 
L 318.260944 135.479706 
L 318.494497 135.895578 
L 319.42871 135.895578 
L 319.895817 136.010894 
L 320.596477 136.010894 
L 320.83003 138.412193 
L 321.764244 138.412193 
L 321.997797 135.754815 
L 324.099777 135.702738 
L 324.333331 138.232829 
L 326.435311 138.267065 
L 326.668864 138.81257 
L 327.603078 138.81257 
L 327.836631 138.445891 
L 328.770844 138.445891 
L 329.004398 139.059472 
L 329.938611 139.059472 
L 330.172164 137.560317 
L 331.106378 137.560317 
L 331.339931 135.15335 
L 332.274145 135.15335 
L 332.507698 136.216418 
L 333.441911 136.216418 
L 333.675465 138.243009 
L 334.609678 138.243009 
L 334.843231 135.743539 
L 335.777445 135.743539 
L 336.010998 136.725248 
L 336.945211 136.725248 
L 337.178765 136.994965 
L 338.112978 136.994965 
L 338.346532 138.582748 
L 339.280745 138.582748 
L 339.514298 137.756048 
L 340.448512 137.756048 
L 340.682065 138.114677 
L 341.616278 138.114677 
L 341.849832 135.511869 
L 343.951812 135.572706 
L 344.185365 137.41901 
L 345.119579 137.41901 
L 345.353132 138.788921 
L 346.287345 138.788921 
L 346.520899 139.567728 
L 347.455112 139.567728 
L 347.688666 139.715716 
L 348.622879 139.715716 
L 348.856432 139.436548 
L 349.790646 139.436548 
L 350.024199 137.942412 
L 350.958412 137.942412 
L 351.191966 136.969112 
L 352.126179 136.969112 
L 352.359733 138.575095 
L 353.293946 138.575095 
L 353.527499 137.776204 
L 354.461713 137.776204 
L 354.695266 136.68309 
L 355.629479 136.68309 
L 355.863033 135.330042 
L 356.542461 135.330042 
L 356.542461 135.330042 
" style="fill:none;stroke:#1ac938;stroke-linecap:round;stroke-width:1.2;"/>
   </g>
   <g id="patch_10">
    <path d="M 54 143.28 
L 54 88.92 
" style="fill:none;stroke:#000000;stroke-linecap:square;stroke-linejoin:miter;"/>
   </g>
   <g id="patch_11">
    <path d="M 388.8 143.28 
L 388.8 88.92 
" style="fill:none;stroke:#000000;stroke-linecap:square;stroke-linejoin:miter;"/>
   </g>
   <g id="patch_12">
    <path d="M 54 143.28 
L 388.8 143.28 
" style="fill:none;stroke:#000000;stroke-linecap:square;stroke-linejoin:miter;"/>
   </g>
   <g id="patch_13">
    <path d="M 54 88.92 
L 388.8 88.92 
" style="fill:none;stroke:#000000;stroke-linecap:square;stroke-linejoin:miter;"/>
   </g>
   <g id="legend_2">
    <g id="patch_14">
     <path d="M 337.824 111.386875 
L 384.64 111.386875 
Q 386.4 111.386875 386.4 109.626875 
L 386.4 97.08 
Q 386.4 95.32 384.64 95.32 
L 337.824 95.32 
Q 336.064 95.32 336.064 97.08 
L 336.064 109.626875 
Q 336.064 111.386875 337.824 111.386875 
z
" style="fill:#4c4c4c;opacity:0.5;stroke:#4c4c4c;stroke-linejoin:miter;stroke-width:0.8;"/>
    </g>
    <g id="patch_15">
     <path d="M 335.824 109.386875 
L 382.64 109.386875 
Q 384.4 109.386875 384.4 107.626875 
L 384.4 95.08 
Q 384.4 93.32 382.64 93.32 
L 335.824 93.32 
Q 334.064 93.32 334.064 95.08 
L 334.064 107.626875 
Q 334.064 109.386875 335.824 109.386875 
z
" style="fill:#ffffff;stroke:#000000;stroke-linejoin:miter;stroke-width:0.8;"/>
    </g>
    <g id="line2d_45">
     <path d="M 337.584 100.058875 
L 344.624 100.058875 
" style="fill:none;stroke:#1ac938;stroke-linecap:round;stroke-width:1.2;"/>
    </g>
    <g id="line2d_46"/>
    <g id="text_11">
     <!-- $n_{step}$=5 -->
     <g transform="translate(351.664 103.138875)scale(0.088 -0.088)">
      <use transform="translate(0 0.390625)" xlink:href="#DejaVuSans-Oblique-110"/>
      <use transform="translate(63.378906 -16.015625)scale(0.7)" xlink:href="#DejaVuSans-Oblique-115"/>
      <use transform="translate(99.848633 -16.015625)scale(0.7)" xlink:href="#DejaVuSans-Oblique-116"/>
      <use transform="translate(127.294922 -16.015625)scale(0.7)" xlink:href="#DejaVuSans-Oblique-101"/>
      <use transform="translate(170.361328 -16.015625)scale(0.7)" xlink:href="#DejaVuSans-Oblique-112"/>
      <use transform="translate(217.529297 0.390625)" xlink:href="#ArialMT-61"/>
      <use transform="translate(275.927734 0.390625)" xlink:href="#ArialMT-53"/>
     </g>
    </g>
   </g>
  </g>
  <g id="axes_3">
   <g id="patch_16">
    <path d="M 54 197.64 
L 388.8 197.64 
L 388.8 143.28 
L 54 143.28 
z
" style="fill:#ffffff;"/>
   </g>
   <g id="matplotlib.axis_5">
    <g id="xtick_15">
     <g id="line2d_47">
      <g>
       <use style="stroke:#000000;" x="63.475472" xlink:href="#m1c75e23862" y="197.64"/>
      </g>
     </g>
     <g id="line2d_48">
      <g>
       <use style="stroke:#000000;" x="63.475472" xlink:href="#ma7f8a4fdcb" y="143.28"/>
      </g>
     </g>
    </g>
    <g id="xtick_16">
     <g id="line2d_49">
      <g>
       <use style="stroke:#000000;" x="116.555778" xlink:href="#m1c75e23862" y="197.64"/>
      </g>
     </g>
     <g id="line2d_50">
      <g>
       <use style="stroke:#000000;" x="116.555778" xlink:href="#ma7f8a4fdcb" y="143.28"/>
      </g>
     </g>
    </g>
    <g id="xtick_17">
     <g id="line2d_51">
      <g>
       <use style="stroke:#000000;" x="169.636085" xlink:href="#m1c75e23862" y="197.64"/>
      </g>
     </g>
     <g id="line2d_52">
      <g>
       <use style="stroke:#000000;" x="169.636085" xlink:href="#ma7f8a4fdcb" y="143.28"/>
      </g>
     </g>
    </g>
    <g id="xtick_18">
     <g id="line2d_53">
      <g>
       <use style="stroke:#000000;" x="222.716392" xlink:href="#m1c75e23862" y="197.64"/>
      </g>
     </g>
     <g id="line2d_54">
      <g>
       <use style="stroke:#000000;" x="222.716392" xlink:href="#ma7f8a4fdcb" y="143.28"/>
      </g>
     </g>
    </g>
    <g id="xtick_19">
     <g id="line2d_55">
      <g>
       <use style="stroke:#000000;" x="275.796698" xlink:href="#m1c75e23862" y="197.64"/>
      </g>
     </g>
     <g id="line2d_56">
      <g>
       <use style="stroke:#000000;" x="275.796698" xlink:href="#ma7f8a4fdcb" y="143.28"/>
      </g>
     </g>
    </g>
    <g id="xtick_20">
     <g id="line2d_57">
      <g>
       <use style="stroke:#000000;" x="328.877005" xlink:href="#m1c75e23862" y="197.64"/>
      </g>
     </g>
     <g id="line2d_58">
      <g>
       <use style="stroke:#000000;" x="328.877005" xlink:href="#ma7f8a4fdcb" y="143.28"/>
      </g>
     </g>
    </g>
    <g id="xtick_21">
     <g id="line2d_59">
      <g>
       <use style="stroke:#000000;" x="381.957312" xlink:href="#m1c75e23862" y="197.64"/>
      </g>
     </g>
     <g id="line2d_60">
      <g>
       <use style="stroke:#000000;" x="381.957312" xlink:href="#ma7f8a4fdcb" y="143.28"/>
      </g>
     </g>
    </g>
   </g>
   <g id="matplotlib.axis_6">
    <g id="ytick_7">
     <g id="line2d_61">
      <g>
       <use style="stroke:#000000;" x="54" xlink:href="#m8b0f9c4fa4" y="185.56"/>
      </g>
     </g>
     <g id="line2d_62">
      <g>
       <use style="stroke:#000000;" x="388.8" xlink:href="#m37262a6792" y="185.56"/>
      </g>
     </g>
     <g id="text_12">
      <!-- 0.5 -->
      <g transform="translate(38.268 188.709438)scale(0.088 -0.088)">
       <use xlink:href="#ArialMT-48"/>
       <use x="55.615234" xlink:href="#ArialMT-46"/>
       <use x="83.398438" xlink:href="#ArialMT-53"/>
      </g>
     </g>
    </g>
    <g id="ytick_8">
     <g id="line2d_63">
      <g>
       <use style="stroke:#000000;" x="54" xlink:href="#m8b0f9c4fa4" y="170.46"/>
      </g>
     </g>
     <g id="line2d_64">
      <g>
       <use style="stroke:#000000;" x="388.8" xlink:href="#m37262a6792" y="170.46"/>
      </g>
     </g>
     <g id="text_13">
      <!-- 1.0 -->
      <g transform="translate(38.268 173.609438)scale(0.088 -0.088)">
       <use xlink:href="#ArialMT-49"/>
       <use x="55.615234" xlink:href="#ArialMT-46"/>
       <use x="83.398438" xlink:href="#ArialMT-48"/>
      </g>
     </g>
    </g>
    <g id="ytick_9">
     <g id="line2d_65">
      <g>
       <use style="stroke:#000000;" x="54" xlink:href="#m8b0f9c4fa4" y="155.36"/>
      </g>
     </g>
     <g id="line2d_66">
      <g>
       <use style="stroke:#000000;" x="388.8" xlink:href="#m37262a6792" y="155.36"/>
      </g>
     </g>
     <g id="text_14">
      <!-- 1.5 -->
      <g transform="translate(38.268 158.509438)scale(0.088 -0.088)">
       <use xlink:href="#ArialMT-49"/>
       <use x="55.615234" xlink:href="#ArialMT-46"/>
       <use x="83.398438" xlink:href="#ArialMT-53"/>
      </g>
     </g>
    </g>
    <g id="text_15">
     <!-- $\beta$ -->
     <g transform="translate(32.252 173.532)rotate(-90)scale(0.096 -0.096)">
      <use transform="translate(0 0.390625)" xlink:href="#DejaVuSans-Oblique-946"/>
     </g>
    </g>
   </g>
   <g id="line2d_67">
    <path clip-path="url(#pdd52fb4412)" d="M 63.921346 174.673078 
L 66.023326 174.673078 
L 66.25688 179.470112 
L 68.35886 179.470112 
L 68.592413 182.815401 
L 70.694393 182.815401 
L 70.927947 185.908842 
L 73.029927 185.908842 
L 73.26348 190.188312 
L 75.36546 190.188312 
L 75.599014 187.941976 
L 77.700994 187.941976 
L 77.934547 188.099048 
L 80.036527 188.099048 
L 80.270081 187.735708 
L 82.372061 187.735708 
L 82.605614 185.155892 
L 84.707594 185.155892 
L 84.941148 186.029366 
L 87.043128 186.029366 
L 87.276681 186.609833 
L 91.714195 186.691775 
L 91.947748 189.981694 
L 94.049728 189.981694 
L 94.283282 191.271668 
L 96.385262 191.271668 
L 96.618815 191.593972 
L 98.720795 191.593972 
L 98.954349 193.059006 
L 101.056329 193.059006 
L 101.289882 193.833415 
L 103.391862 193.833415 
L 103.625416 193.342868 
L 108.062929 193.392195 
L 108.296483 192.695184 
L 110.398463 192.695184 
L 110.632016 193.027213 
L 112.733996 193.027213 
L 112.96755 193.61388 
L 115.06953 193.61388 
L 115.303083 194.051914 
L 117.405063 194.051914 
L 117.638617 194.591073 
L 122.07613 194.610351 
L 122.309684 194.037175 
L 124.411664 194.037175 
L 124.87877 194.160718 
L 129.082731 194.271031 
L 129.316284 193.320515 
L 131.418264 193.320515 
L 131.651818 193.595335 
L 133.753798 193.595335 
L 133.987351 192.061503 
L 136.089331 192.061503 
L 136.322885 191.11548 
L 138.424865 191.11548 
L 138.658418 192.115601 
L 140.760398 192.115601 
L 140.993952 190.186517 
L 143.095932 190.186517 
L 143.329485 191.009875 
L 145.431465 191.009875 
L 145.665018 189.894655 
L 147.766999 189.894655 
L 148.000552 191.247335 
L 150.102532 191.247335 
L 150.336085 192.51705 
L 154.773599 192.49487 
L 155.007152 191.953195 
L 157.109133 191.953195 
L 157.342686 192.400641 
L 159.444666 192.400641 
L 159.678219 193.198496 
L 161.7802 193.198496 
L 162.013753 192.933141 
L 164.115733 192.933141 
L 164.349286 193.391211 
L 166.451267 193.391211 
L 166.68482 192.755959 
L 171.122334 192.79611 
L 171.355887 193.608978 
L 173.457867 193.608978 
L 173.69142 191.540799 
L 175.793401 191.540799 
L 176.026954 193.012349 
L 178.128934 193.012349 
L 178.362487 192.266814 
L 180.464468 192.266814 
L 180.698021 192.989812 
L 185.135535 193.073547 
L 185.369088 193.298117 
L 187.471068 193.298117 
L 187.704621 193.788862 
L 189.806601 193.788862 
L 190.040155 194.47843 
L 192.142135 194.47843 
L 192.375688 194.205147 
L 194.477668 194.205147 
L 194.711222 194.997299 
L 196.813202 194.997299 
L 197.046755 192.952834 
L 199.148735 192.952834 
L 199.382289 192.662817 
L 201.484269 192.662817 
L 201.717822 191.403639 
L 203.819802 191.403639 
L 204.053356 191.1008 
L 206.155336 191.1008 
L 206.388889 192.411608 
L 208.490869 192.411608 
L 208.724423 193.444973 
L 210.826403 193.444973 
L 211.059956 193.092851 
L 213.161936 193.092851 
L 213.39549 191.545866 
L 215.49747 191.545866 
L 215.731023 190.709245 
L 217.833003 190.709245 
L 218.066557 192.232376 
L 220.168537 192.232376 
L 220.40209 193.391825 
L 222.50407 193.391825 
L 222.737624 191.014027 
L 224.839604 191.014027 
L 225.073157 191.621593 
L 227.175137 191.621593 
L 227.408691 192.04785 
L 229.510671 192.04785 
L 229.744224 191.73925 
L 231.846204 191.73925 
L 232.079758 190.273628 
L 234.181738 190.273628 
L 234.415291 190.0986 
L 236.517271 190.0986 
L 236.750825 191.136927 
L 238.852805 191.136927 
L 239.086358 190.070729 
L 241.188338 190.070729 
L 241.421892 190.285812 
L 243.523872 190.285812 
L 243.757425 190.984132 
L 245.859405 190.984132 
L 246.092959 192.160811 
L 248.194939 192.160811 
L 248.428492 191.925285 
L 252.866006 191.881521 
L 253.099559 190.300211 
L 255.201539 190.300211 
L 255.435093 191.954153 
L 257.537073 191.954153 
L 257.770626 192.407982 
L 259.872606 192.407982 
L 260.10616 189.587952 
L 262.20814 189.587952 
L 262.441693 190.505159 
L 264.543673 190.505159 
L 264.777227 191.958607 
L 266.879207 191.958607 
L 267.11276 192.169612 
L 269.21474 192.169612 
L 269.448294 192.610806 
L 273.885807 192.543737 
L 274.119361 191.626126 
L 276.221341 191.626126 
L 276.454894 190.501746 
L 280.892408 190.555578 
L 281.125961 192.66248 
L 283.227941 192.66248 
L 283.461495 192.322802 
L 285.563475 192.322802 
L 285.797028 192.889025 
L 287.899008 192.889025 
L 288.132562 192.366301 
L 290.234542 192.366301 
L 290.468095 192.058723 
L 292.570075 192.058723 
L 292.803628 192.348113 
L 297.241142 192.4271 
L 297.474695 187.35563 
L 299.576676 187.35563 
L 300.043782 187.476877 
L 301.912209 187.476877 
L 302.145762 189.106451 
L 304.247743 189.106451 
L 304.481296 188.58599 
L 306.583276 188.58599 
L 306.816829 189.648851 
L 308.91881 189.648851 
L 309.152363 189.459332 
L 311.254343 189.459332 
L 311.487896 190.507173 
L 313.589877 190.507173 
L 313.82343 190.045405 
L 315.92541 190.045405 
L 316.158963 191.760481 
L 318.260944 191.760481 
L 318.494497 190.793976 
L 320.596477 190.793976 
L 320.83003 190.318029 
L 325.267544 190.357245 
L 325.501097 188.958993 
L 327.603078 188.958993 
L 327.836631 189.374874 
L 329.938611 189.374874 
L 330.172164 191.382495 
L 332.274145 191.382495 
L 332.507698 190.863857 
L 334.609678 190.863857 
L 334.843231 191.571845 
L 336.945211 191.571845 
L 337.178765 193.144226 
L 339.280745 193.144226 
L 339.514298 192.891658 
L 343.951812 192.871787 
L 344.185365 192.418244 
L 346.287345 192.418244 
L 346.520899 194.01759 
L 348.622879 194.01759 
L 348.856432 193.45065 
L 350.958412 193.45065 
L 351.191966 193.097962 
L 353.293946 193.097962 
L 353.527499 190.117242 
L 355.629479 190.117242 
L 355.863033 192.613795 
L 357.965013 192.613795 
L 358.315343 192.866211 
L 358.315343 192.866211 
" style="fill:none;stroke:#023eff;stroke-linecap:round;stroke-width:1.2;"/>
   </g>
   <g id="patch_17">
    <path d="M 54 197.64 
L 54 143.28 
" style="fill:none;stroke:#000000;stroke-linecap:square;stroke-linejoin:miter;"/>
   </g>
   <g id="patch_18">
    <path d="M 388.8 197.64 
L 388.8 143.28 
" style="fill:none;stroke:#000000;stroke-linecap:square;stroke-linejoin:miter;"/>
   </g>
   <g id="patch_19">
    <path d="M 54 197.64 
L 388.8 197.64 
" style="fill:none;stroke:#000000;stroke-linecap:square;stroke-linejoin:miter;"/>
   </g>
   <g id="patch_20">
    <path d="M 54 143.28 
L 388.8 143.28 
" style="fill:none;stroke:#000000;stroke-linecap:square;stroke-linejoin:miter;"/>
   </g>
   <g id="legend_3">
    <g id="patch_21">
     <path d="M 332.896 165.784 
L 384.64 165.784 
Q 386.4 165.784 386.4 164.024 
L 386.4 151.44 
Q 386.4 149.68 384.64 149.68 
L 332.896 149.68 
Q 331.136 149.68 331.136 151.44 
L 331.136 164.024 
Q 331.136 165.784 332.896 165.784 
z
" style="fill:#4c4c4c;opacity:0.5;stroke:#4c4c4c;stroke-linejoin:miter;stroke-width:0.8;"/>
    </g>
    <g id="patch_22">
     <path d="M 330.896 163.784 
L 382.64 163.784 
Q 384.4 163.784 384.4 162.024 
L 384.4 149.44 
Q 384.4 147.68 382.64 147.68 
L 330.896 147.68 
Q 329.136 147.68 329.136 149.44 
L 329.136 162.024 
Q 329.136 163.784 330.896 163.784 
z
" style="fill:#ffffff;stroke:#000000;stroke-linejoin:miter;stroke-width:0.8;"/>
    </g>
    <g id="line2d_68">
     <path d="M 332.656 154.456 
L 339.696 154.456 
" style="fill:none;stroke:#023eff;stroke-linecap:round;stroke-width:1.2;"/>
    </g>
    <g id="line2d_69"/>
    <g id="text_16">
     <!-- $n_{step}$=10 -->
     <g transform="translate(346.736 157.536)scale(0.088 -0.088)">
      <use transform="translate(0 0.125)" xlink:href="#DejaVuSans-Oblique-110"/>
      <use transform="translate(63.378906 -16.28125)scale(0.7)" xlink:href="#DejaVuSans-Oblique-115"/>
      <use transform="translate(99.848633 -16.28125)scale(0.7)" xlink:href="#DejaVuSans-Oblique-116"/>
      <use transform="translate(127.294922 -16.28125)scale(0.7)" xlink:href="#DejaVuSans-Oblique-101"/>
      <use transform="translate(170.361328 -16.28125)scale(0.7)" xlink:href="#DejaVuSans-Oblique-112"/>
      <use transform="translate(217.529297 0.125)" xlink:href="#ArialMT-61"/>
      <use transform="translate(275.927734 0.125)" xlink:href="#ArialMT-49"/>
      <use transform="translate(331.542969 0.125)" xlink:href="#ArialMT-48"/>
     </g>
    </g>
   </g>
  </g>
  <g id="axes_4">
   <g id="patch_23">
    <path d="M 54 252 
L 388.8 252 
L 388.8 197.64 
L 54 197.64 
z
" style="fill:#ffffff;"/>
   </g>
   <g id="matplotlib.axis_7">
    <g id="xtick_22">
     <g id="line2d_70">
      <g>
       <use style="stroke:#000000;" x="63.475472" xlink:href="#m1c75e23862" y="252"/>
      </g>
     </g>
     <g id="line2d_71">
      <g>
       <use style="stroke:#000000;" x="63.475472" xlink:href="#ma7f8a4fdcb" y="197.64"/>
      </g>
     </g>
     <g id="text_17">
      <!-- $\mathdefault{0.0}$ -->
      <g transform="translate(57.315472 261.798875)scale(0.088 -0.088)">
       <use transform="translate(0 0.125)" xlink:href="#ArialMT-48"/>
       <use transform="translate(55.615234 0.125)" xlink:href="#ArialMT-46"/>
       <use transform="translate(83.398438 0.125)" xlink:href="#ArialMT-48"/>
      </g>
     </g>
    </g>
    <g id="xtick_23">
     <g id="line2d_72">
      <g>
       <use style="stroke:#000000;" x="116.555778" xlink:href="#m1c75e23862" y="252"/>
      </g>
     </g>
     <g id="line2d_73">
      <g>
       <use style="stroke:#000000;" x="116.555778" xlink:href="#ma7f8a4fdcb" y="197.64"/>
      </g>
     </g>
     <g id="text_18">
      <!-- $\mathdefault{0.5}$ -->
      <g transform="translate(110.395778 261.798875)scale(0.088 -0.088)">
       <use transform="translate(0 0.125)" xlink:href="#ArialMT-48"/>
       <use transform="translate(55.615234 0.125)" xlink:href="#ArialMT-46"/>
       <use transform="translate(83.398438 0.125)" xlink:href="#ArialMT-53"/>
      </g>
     </g>
    </g>
    <g id="xtick_24">
     <g id="line2d_74">
      <g>
       <use style="stroke:#000000;" x="169.636085" xlink:href="#m1c75e23862" y="252"/>
      </g>
     </g>
     <g id="line2d_75">
      <g>
       <use style="stroke:#000000;" x="169.636085" xlink:href="#ma7f8a4fdcb" y="197.64"/>
      </g>
     </g>
     <g id="text_19">
      <!-- $\mathdefault{1.0}$ -->
      <g transform="translate(163.476085 261.798875)scale(0.088 -0.088)">
       <use transform="translate(0 0.125)" xlink:href="#ArialMT-49"/>
       <use transform="translate(55.615234 0.125)" xlink:href="#ArialMT-46"/>
       <use transform="translate(83.398438 0.125)" xlink:href="#ArialMT-48"/>
      </g>
     </g>
    </g>
    <g id="xtick_25">
     <g id="line2d_76">
      <g>
       <use style="stroke:#000000;" x="222.716392" xlink:href="#m1c75e23862" y="252"/>
      </g>
     </g>
     <g id="line2d_77">
      <g>
       <use style="stroke:#000000;" x="222.716392" xlink:href="#ma7f8a4fdcb" y="197.64"/>
      </g>
     </g>
     <g id="text_20">
      <!-- $\mathdefault{1.5}$ -->
      <g transform="translate(216.556392 261.798875)scale(0.088 -0.088)">
       <use transform="translate(0 0.125)" xlink:href="#ArialMT-49"/>
       <use transform="translate(55.615234 0.125)" xlink:href="#ArialMT-46"/>
       <use transform="translate(83.398438 0.125)" xlink:href="#ArialMT-53"/>
      </g>
     </g>
    </g>
    <g id="xtick_26">
     <g id="line2d_78">
      <g>
       <use style="stroke:#000000;" x="275.796698" xlink:href="#m1c75e23862" y="252"/>
      </g>
     </g>
     <g id="line2d_79">
      <g>
       <use style="stroke:#000000;" x="275.796698" xlink:href="#ma7f8a4fdcb" y="197.64"/>
      </g>
     </g>
     <g id="text_21">
      <!-- $\mathdefault{2.0}$ -->
      <defs>
       <path d="M 50.34375 8.453125 
L 50.34375 0 
L 3.03125 0 
Q 2.9375 3.171875 4.046875 6.109375 
Q 5.859375 10.9375 9.828125 15.625 
Q 13.8125 20.3125 21.34375 26.46875 
Q 33.015625 36.03125 37.109375 41.625 
Q 41.21875 47.21875 41.21875 52.203125 
Q 41.21875 57.421875 37.46875 61 
Q 33.734375 64.59375 27.734375 64.59375 
Q 21.390625 64.59375 17.578125 60.78125 
Q 13.765625 56.984375 13.71875 50.25 
L 4.6875 51.171875 
Q 5.609375 61.28125 11.65625 66.578125 
Q 17.71875 71.875 27.9375 71.875 
Q 38.234375 71.875 44.234375 66.15625 
Q 50.25 60.453125 50.25 52 
Q 50.25 47.703125 48.484375 43.546875 
Q 46.734375 39.40625 42.65625 34.8125 
Q 38.578125 30.21875 29.109375 22.21875 
Q 21.1875 15.578125 18.9375 13.203125 
Q 16.703125 10.84375 15.234375 8.453125 
z
" id="ArialMT-50"/>
      </defs>
      <g transform="translate(269.636698 261.798875)scale(0.088 -0.088)">
       <use transform="translate(0 0.125)" xlink:href="#ArialMT-50"/>
       <use transform="translate(55.615234 0.125)" xlink:href="#ArialMT-46"/>
       <use transform="translate(83.398438 0.125)" xlink:href="#ArialMT-48"/>
      </g>
     </g>
    </g>
    <g id="xtick_27">
     <g id="line2d_80">
      <g>
       <use style="stroke:#000000;" x="328.877005" xlink:href="#m1c75e23862" y="252"/>
      </g>
     </g>
     <g id="line2d_81">
      <g>
       <use style="stroke:#000000;" x="328.877005" xlink:href="#ma7f8a4fdcb" y="197.64"/>
      </g>
     </g>
     <g id="text_22">
      <!-- $\mathdefault{2.5}$ -->
      <g transform="translate(322.717005 261.798875)scale(0.088 -0.088)">
       <use transform="translate(0 0.125)" xlink:href="#ArialMT-50"/>
       <use transform="translate(55.615234 0.125)" xlink:href="#ArialMT-46"/>
       <use transform="translate(83.398438 0.125)" xlink:href="#ArialMT-53"/>
      </g>
     </g>
    </g>
    <g id="xtick_28">
     <g id="line2d_82">
      <g>
       <use style="stroke:#000000;" x="381.957312" xlink:href="#m1c75e23862" y="252"/>
      </g>
     </g>
     <g id="line2d_83">
      <g>
       <use style="stroke:#000000;" x="381.957312" xlink:href="#ma7f8a4fdcb" y="197.64"/>
      </g>
     </g>
     <g id="text_23">
      <!-- $\mathdefault{3.0}$ -->
      <defs>
       <path d="M 4.203125 18.890625 
L 12.984375 20.0625 
Q 14.5 12.59375 18.140625 9.296875 
Q 21.78125 6 27 6 
Q 33.203125 6 37.46875 10.296875 
Q 41.75 14.59375 41.75 20.953125 
Q 41.75 27 37.796875 30.921875 
Q 33.84375 34.859375 27.734375 34.859375 
Q 25.25 34.859375 21.53125 33.890625 
L 22.515625 41.609375 
Q 23.390625 41.5 23.921875 41.5 
Q 29.546875 41.5 34.03125 44.421875 
Q 38.53125 47.359375 38.53125 53.46875 
Q 38.53125 58.296875 35.25 61.46875 
Q 31.984375 64.65625 26.8125 64.65625 
Q 21.6875 64.65625 18.265625 61.421875 
Q 14.84375 58.203125 13.875 51.765625 
L 5.078125 53.328125 
Q 6.6875 62.15625 12.390625 67.015625 
Q 18.109375 71.875 26.609375 71.875 
Q 32.46875 71.875 37.390625 69.359375 
Q 42.328125 66.84375 44.9375 62.5 
Q 47.5625 58.15625 47.5625 53.265625 
Q 47.5625 48.640625 45.0625 44.828125 
Q 42.578125 41.015625 37.703125 38.765625 
Q 44.046875 37.3125 47.5625 32.6875 
Q 51.078125 28.078125 51.078125 21.140625 
Q 51.078125 11.765625 44.234375 5.25 
Q 37.40625 -1.265625 26.953125 -1.265625 
Q 17.53125 -1.265625 11.296875 4.34375 
Q 5.078125 9.96875 4.203125 18.890625 
z
" id="ArialMT-51"/>
      </defs>
      <g transform="translate(375.797312 261.798875)scale(0.088 -0.088)">
       <use transform="translate(0 0.125)" xlink:href="#ArialMT-51"/>
       <use transform="translate(55.615234 0.125)" xlink:href="#ArialMT-46"/>
       <use transform="translate(83.398438 0.125)" xlink:href="#ArialMT-48"/>
      </g>
     </g>
    </g>
    <g id="text_24">
     <!-- evaluations -->
     <defs>
      <path d="M 21 0 
L 1.265625 51.859375 
L 10.546875 51.859375 
L 21.6875 20.796875 
Q 23.484375 15.765625 25 10.359375 
Q 26.171875 14.453125 28.265625 20.21875 
L 39.796875 51.859375 
L 48.828125 51.859375 
L 29.203125 0 
z
" id="ArialMT-118"/>
      <path d="M 6.390625 0 
L 6.390625 71.578125 
L 15.1875 71.578125 
L 15.1875 0 
z
" id="ArialMT-108"/>
      <path d="M 40.578125 0 
L 40.578125 7.625 
Q 34.515625 -1.171875 24.125 -1.171875 
Q 19.53125 -1.171875 15.546875 0.578125 
Q 11.578125 2.34375 9.640625 5 
Q 7.71875 7.671875 6.9375 11.53125 
Q 6.390625 14.109375 6.390625 19.734375 
L 6.390625 51.859375 
L 15.1875 51.859375 
L 15.1875 23.09375 
Q 15.1875 16.21875 15.71875 13.8125 
Q 16.546875 10.359375 19.234375 8.375 
Q 21.921875 6.390625 25.875 6.390625 
Q 29.828125 6.390625 33.296875 8.421875 
Q 36.765625 10.453125 38.203125 13.9375 
Q 39.65625 17.4375 39.65625 24.078125 
L 39.65625 51.859375 
L 48.4375 51.859375 
L 48.4375 0 
z
" id="ArialMT-117"/>
      <path d="M 25.78125 7.859375 
L 27.046875 0.09375 
Q 23.34375 -0.6875 20.40625 -0.6875 
Q 15.625 -0.6875 12.984375 0.828125 
Q 10.359375 2.34375 9.28125 4.8125 
Q 8.203125 7.28125 8.203125 15.1875 
L 8.203125 45.015625 
L 1.765625 45.015625 
L 1.765625 51.859375 
L 8.203125 51.859375 
L 8.203125 64.703125 
L 16.9375 69.96875 
L 16.9375 51.859375 
L 25.78125 51.859375 
L 25.78125 45.015625 
L 16.9375 45.015625 
L 16.9375 14.703125 
Q 16.9375 10.9375 17.40625 9.859375 
Q 17.875 8.796875 18.921875 8.15625 
Q 19.96875 7.515625 21.921875 7.515625 
Q 23.390625 7.515625 25.78125 7.859375 
z
" id="ArialMT-116"/>
      <path d="M 3.328125 25.921875 
Q 3.328125 40.328125 11.328125 47.265625 
Q 18.015625 53.03125 27.640625 53.03125 
Q 38.328125 53.03125 45.109375 46.015625 
Q 51.90625 39.015625 51.90625 26.65625 
Q 51.90625 16.65625 48.90625 10.90625 
Q 45.90625 5.171875 40.15625 2 
Q 34.421875 -1.171875 27.640625 -1.171875 
Q 16.75 -1.171875 10.03125 5.8125 
Q 3.328125 12.796875 3.328125 25.921875 
z
M 12.359375 25.921875 
Q 12.359375 15.96875 16.703125 11.015625 
Q 21.046875 6.0625 27.640625 6.0625 
Q 34.1875 6.0625 38.53125 11.03125 
Q 42.875 16.015625 42.875 26.21875 
Q 42.875 35.84375 38.5 40.796875 
Q 34.125 45.75 27.640625 45.75 
Q 21.046875 45.75 16.703125 40.8125 
Q 12.359375 35.890625 12.359375 25.921875 
z
" id="ArialMT-111"/>
      <path d="M 3.078125 15.484375 
L 11.765625 16.84375 
Q 12.5 11.625 15.84375 8.84375 
Q 19.1875 6.0625 25.203125 6.0625 
Q 31.25 6.0625 34.171875 8.515625 
Q 37.109375 10.984375 37.109375 14.3125 
Q 37.109375 17.28125 34.515625 19 
Q 32.71875 20.171875 25.53125 21.96875 
Q 15.875 24.421875 12.140625 26.203125 
Q 8.40625 27.984375 6.46875 31.125 
Q 4.546875 34.28125 4.546875 38.09375 
Q 4.546875 41.546875 6.125 44.5 
Q 7.71875 47.46875 10.453125 49.421875 
Q 12.5 50.921875 16.03125 51.96875 
Q 19.578125 53.03125 23.640625 53.03125 
Q 29.734375 53.03125 34.34375 51.265625 
Q 38.96875 49.515625 41.15625 46.5 
Q 43.359375 43.5 44.1875 38.484375 
L 35.59375 37.3125 
Q 35.015625 41.3125 32.203125 43.546875 
Q 29.390625 45.796875 24.265625 45.796875 
Q 18.21875 45.796875 15.625 43.796875 
Q 13.03125 41.796875 13.03125 39.109375 
Q 13.03125 37.40625 14.109375 36.03125 
Q 15.1875 34.625 17.484375 33.6875 
Q 18.796875 33.203125 25.25 31.453125 
Q 34.578125 28.953125 38.25 27.359375 
Q 41.9375 25.78125 44.03125 22.75 
Q 46.140625 19.734375 46.140625 15.234375 
Q 46.140625 10.84375 43.578125 6.953125 
Q 41.015625 3.078125 36.171875 0.953125 
Q 31.34375 -1.171875 25.25 -1.171875 
Q 15.140625 -1.171875 9.84375 3.03125 
Q 4.546875 7.234375 3.078125 15.484375 
z
" id="ArialMT-115"/>
     </defs>
     <g transform="translate(197.118 274.419375)scale(0.096 -0.096)">
      <use xlink:href="#ArialMT-101"/>
      <use x="55.615234" xlink:href="#ArialMT-118"/>
      <use x="105.615234" xlink:href="#ArialMT-97"/>
      <use x="161.230469" xlink:href="#ArialMT-108"/>
      <use x="183.447266" xlink:href="#ArialMT-117"/>
      <use x="239.0625" xlink:href="#ArialMT-97"/>
      <use x="294.677734" xlink:href="#ArialMT-116"/>
      <use x="322.460938" xlink:href="#ArialMT-105"/>
      <use x="344.677734" xlink:href="#ArialMT-111"/>
      <use x="400.292969" xlink:href="#ArialMT-110"/>
      <use x="455.908203" xlink:href="#ArialMT-115"/>
     </g>
    </g>
    <g id="text_25">
     <!-- $\times\mathdefault{10^{4}}\mathdefault{}$ -->
     <defs>
      <path d="M 70.125 53.71875 
L 47.796875 31.296875 
L 70.125 8.984375 
L 64.3125 3.078125 
L 41.890625 25.484375 
L 19.484375 3.078125 
L 13.71875 8.984375 
L 35.984375 31.296875 
L 13.71875 53.71875 
L 19.484375 59.625 
L 41.890625 37.203125 
L 64.3125 59.625 
z
" id="DejaVuSans-215"/>
      <path d="M 32.328125 0 
L 32.328125 17.140625 
L 1.265625 17.140625 
L 1.265625 25.203125 
L 33.9375 71.578125 
L 41.109375 71.578125 
L 41.109375 25.203125 
L 50.78125 25.203125 
L 50.78125 17.140625 
L 41.109375 17.140625 
L 41.109375 0 
z
M 32.328125 25.203125 
L 32.328125 57.46875 
L 9.90625 25.203125 
z
" id="ArialMT-52"/>
     </defs>
     <g transform="translate(367.592 275.534875)scale(0.088 -0.088)">
      <use transform="translate(0 0.201563)" xlink:href="#DejaVuSans-215"/>
      <use transform="translate(83.789062 0.201563)" xlink:href="#ArialMT-49"/>
      <use transform="translate(139.404297 0.201563)" xlink:href="#ArialMT-48"/>
      <use transform="translate(196.761875 69.895313)scale(0.7)" xlink:href="#ArialMT-52"/>
     </g>
    </g>
   </g>
   <g id="matplotlib.axis_8">
    <g id="ytick_10">
     <g id="line2d_84">
      <g>
       <use style="stroke:#000000;" x="54" xlink:href="#m8b0f9c4fa4" y="239.92"/>
      </g>
     </g>
     <g id="line2d_85">
      <g>
       <use style="stroke:#000000;" x="388.8" xlink:href="#m37262a6792" y="239.92"/>
      </g>
     </g>
     <g id="text_26">
      <!-- 0.5 -->
      <g transform="translate(38.268 243.069437)scale(0.088 -0.088)">
       <use xlink:href="#ArialMT-48"/>
       <use x="55.615234" xlink:href="#ArialMT-46"/>
       <use x="83.398438" xlink:href="#ArialMT-53"/>
      </g>
     </g>
    </g>
    <g id="ytick_11">
     <g id="line2d_86">
      <g>
       <use style="stroke:#000000;" x="54" xlink:href="#m8b0f9c4fa4" y="224.82"/>
      </g>
     </g>
     <g id="line2d_87">
      <g>
       <use style="stroke:#000000;" x="388.8" xlink:href="#m37262a6792" y="224.82"/>
      </g>
     </g>
     <g id="text_27">
      <!-- 1.0 -->
      <g transform="translate(38.268 227.969437)scale(0.088 -0.088)">
       <use xlink:href="#ArialMT-49"/>
       <use x="55.615234" xlink:href="#ArialMT-46"/>
       <use x="83.398438" xlink:href="#ArialMT-48"/>
      </g>
     </g>
    </g>
    <g id="ytick_12">
     <g id="line2d_88">
      <g>
       <use style="stroke:#000000;" x="54" xlink:href="#m8b0f9c4fa4" y="209.72"/>
      </g>
     </g>
     <g id="line2d_89">
      <g>
       <use style="stroke:#000000;" x="388.8" xlink:href="#m37262a6792" y="209.72"/>
      </g>
     </g>
     <g id="text_28">
      <!-- 1.5 -->
      <g transform="translate(38.268 212.869438)scale(0.088 -0.088)">
       <use xlink:href="#ArialMT-49"/>
       <use x="55.615234" xlink:href="#ArialMT-46"/>
       <use x="83.398438" xlink:href="#ArialMT-53"/>
      </g>
     </g>
    </g>
    <g id="text_29">
     <!-- $\beta$ -->
     <g transform="translate(32.252 227.892)rotate(-90)scale(0.096 -0.096)">
      <use transform="translate(0 0.390625)" xlink:href="#DejaVuSans-Oblique-946"/>
     </g>
    </g>
   </g>
   <g id="line2d_90">
    <path clip-path="url(#p8ed1cd2898)" d="M 63.921346 227.373472 
L 75.36546 227.373472 
L 75.599014 235.780537 
L 87.043128 235.780537 
L 87.276681 240.660816 
L 98.720795 240.660816 
L 98.954349 244.960677 
L 110.398463 244.960677 
L 110.632016 245.697215 
L 122.07613 245.697215 
L 122.309684 246.851389 
L 133.753798 246.851389 
L 133.987351 247.644989 
L 145.431465 247.644989 
L 145.665018 247.447784 
L 157.109133 247.447784 
L 157.342686 247.163119 
L 168.7868 247.163119 
L 169.020353 245.710664 
L 180.464468 245.710664 
L 180.698021 245.872942 
L 192.142135 245.872942 
L 192.375688 244.693609 
L 203.819802 244.693609 
L 204.053356 245.803234 
L 215.49747 245.803234 
L 215.731023 244.43218 
L 227.175137 244.43218 
L 227.408691 247.732735 
L 250.530472 247.815104 
L 250.764026 247.316176 
L 262.20814 247.316176 
L 262.441693 248.271343 
L 273.885807 248.271343 
L 274.119361 247.231881 
L 285.563475 247.231881 
L 285.797028 246.352014 
L 297.241142 246.352014 
L 297.474695 246.138273 
L 308.91881 246.138273 
L 309.152363 246.695193 
L 320.596477 246.695193 
L 320.83003 247.127246 
L 332.274145 247.127246 
L 332.507698 246.487388 
L 343.951812 246.487388 
L 344.185365 245.329972 
L 355.629479 245.329972 
L 355.863033 246.711387 
L 367.307147 246.711387 
L 367.5407 249.062579 
L 378.984814 249.062579 
L 379.324528 249.962543 
L 379.324528 249.962543 
" style="fill:none;stroke:#00d7ff;stroke-linecap:round;stroke-width:1.2;"/>
   </g>
   <g id="patch_24">
    <path d="M 54 252 
L 54 197.64 
" style="fill:none;stroke:#000000;stroke-linecap:square;stroke-linejoin:miter;"/>
   </g>
   <g id="patch_25">
    <path d="M 388.8 252 
L 388.8 197.64 
" style="fill:none;stroke:#000000;stroke-linecap:square;stroke-linejoin:miter;"/>
   </g>
   <g id="patch_26">
    <path d="M 54 252 
L 388.8 252 
" style="fill:none;stroke:#000000;stroke-linecap:square;stroke-linejoin:miter;"/>
   </g>
   <g id="patch_27">
    <path d="M 54 197.64 
L 388.8 197.64 
" style="fill:none;stroke:#000000;stroke-linecap:square;stroke-linejoin:miter;"/>
   </g>
   <g id="legend_4">
    <g id="patch_28">
     <path d="M 332.896 220.144 
L 384.64 220.144 
Q 386.4 220.144 386.4 218.384 
L 386.4 205.8 
Q 386.4 204.04 384.64 204.04 
L 332.896 204.04 
Q 331.136 204.04 331.136 205.8 
L 331.136 218.384 
Q 331.136 220.144 332.896 220.144 
z
" style="fill:#4c4c4c;opacity:0.5;stroke:#4c4c4c;stroke-linejoin:miter;stroke-width:0.8;"/>
    </g>
    <g id="patch_29">
     <path d="M 330.896 218.144 
L 382.64 218.144 
Q 384.4 218.144 384.4 216.384 
L 384.4 203.8 
Q 384.4 202.04 382.64 202.04 
L 330.896 202.04 
Q 329.136 202.04 329.136 203.8 
L 329.136 216.384 
Q 329.136 218.144 330.896 218.144 
z
" style="fill:#ffffff;stroke:#000000;stroke-linejoin:miter;stroke-width:0.8;"/>
    </g>
    <g id="line2d_91">
     <path d="M 332.656 208.816 
L 339.696 208.816 
" style="fill:none;stroke:#00d7ff;stroke-linecap:round;stroke-width:1.2;"/>
    </g>
    <g id="line2d_92"/>
    <g id="text_30">
     <!-- $n_{step}$=50 -->
     <g transform="translate(346.736 211.896)scale(0.088 -0.088)">
      <use transform="translate(0 0.125)" xlink:href="#DejaVuSans-Oblique-110"/>
      <use transform="translate(63.378906 -16.28125)scale(0.7)" xlink:href="#DejaVuSans-Oblique-115"/>
      <use transform="translate(99.848633 -16.28125)scale(0.7)" xlink:href="#DejaVuSans-Oblique-116"/>
      <use transform="translate(127.294922 -16.28125)scale(0.7)" xlink:href="#DejaVuSans-Oblique-101"/>
      <use transform="translate(170.361328 -16.28125)scale(0.7)" xlink:href="#DejaVuSans-Oblique-112"/>
      <use transform="translate(217.529297 0.125)" xlink:href="#ArialMT-61"/>
      <use transform="translate(275.927734 0.125)" xlink:href="#ArialMT-53"/>
      <use transform="translate(331.542969 0.125)" xlink:href="#ArialMT-48"/>
     </g>
    </g>
   </g>
  </g>
 </g>
 <defs>
  <clipPath id="p67c6a94433">
   <rect height="54.36" width="334.8" x="54" y="34.56"/>
  </clipPath>
  <clipPath id="pd4f5b70747">
   <rect height="54.36" width="334.8" x="54" y="88.92"/>
  </clipPath>
  <clipPath id="pdd52fb4412">
   <rect height="54.36" width="334.8" x="54" y="143.28"/>
  </clipPath>
  <clipPath id="p8ed1cd2898">
   <rect height="54.36" width="334.8" x="54" y="197.64"/>
  </clipPath>
 </defs>
</svg>
