<?xml version="1.0" encoding="utf-8" standalone="no"?>
<!DOCTYPE svg PUBLIC "-//W3C//DTD SVG 1.1//EN"
  "http://www.w3.org/Graphics/SVG/1.1/DTD/svg11.dtd">
<!-- Created with matplotlib (https://matplotlib.org/) -->
<svg height="288pt" version="1.1" viewBox="0 0 432 288" width="432pt" xmlns="http://www.w3.org/2000/svg" xmlns:xlink="http://www.w3.org/1999/xlink">
 <defs>
  <style type="text/css">
*{stroke-linecap:butt;stroke-linejoin:round;}
  </style>
 </defs>
 <g id="figure_1">
  <g id="patch_1">
   <path d="M 0 288 
L 432 288 
L 432 0 
L 0 0 
z
" style="fill:#ffffff;"/>
  </g>
  <g id="axes_1">
   <g id="patch_2">
    <path d="M 54 143.28 
L 388.8 143.28 
L 388.8 34.56 
L 54 34.56 
z
" style="fill:#ffffff;"/>
   </g>
   <g id="matplotlib.axis_1">
    <g id="xtick_1">
     <g id="line2d_1">
      <defs>
       <path d="M 0 0 
L 0 -3 
" id="mf274785bfd" style="stroke:#000000;"/>
      </defs>
      <g>
       <use style="stroke:#000000;" x="68.164065" xlink:href="#mf274785bfd" y="143.28"/>
      </g>
     </g>
     <g id="line2d_2">
      <defs>
       <path d="M 0 0 
L 0 3 
" id="m70f2f244a1" style="stroke:#000000;"/>
      </defs>
      <g>
       <use style="stroke:#000000;" x="68.164065" xlink:href="#m70f2f244a1" y="34.56"/>
      </g>
     </g>
    </g>
    <g id="xtick_2">
     <g id="line2d_3">
      <g>
       <use style="stroke:#000000;" x="118.360097" xlink:href="#mf274785bfd" y="143.28"/>
      </g>
     </g>
     <g id="line2d_4">
      <g>
       <use style="stroke:#000000;" x="118.360097" xlink:href="#m70f2f244a1" y="34.56"/>
      </g>
     </g>
    </g>
    <g id="xtick_3">
     <g id="line2d_5">
      <g>
       <use style="stroke:#000000;" x="168.556128" xlink:href="#mf274785bfd" y="143.28"/>
      </g>
     </g>
     <g id="line2d_6">
      <g>
       <use style="stroke:#000000;" x="168.556128" xlink:href="#m70f2f244a1" y="34.56"/>
      </g>
     </g>
    </g>
    <g id="xtick_4">
     <g id="line2d_7">
      <g>
       <use style="stroke:#000000;" x="218.752159" xlink:href="#mf274785bfd" y="143.28"/>
      </g>
     </g>
     <g id="line2d_8">
      <g>
       <use style="stroke:#000000;" x="218.752159" xlink:href="#m70f2f244a1" y="34.56"/>
      </g>
     </g>
    </g>
    <g id="xtick_5">
     <g id="line2d_9">
      <g>
       <use style="stroke:#000000;" x="268.948191" xlink:href="#mf274785bfd" y="143.28"/>
      </g>
     </g>
     <g id="line2d_10">
      <g>
       <use style="stroke:#000000;" x="268.948191" xlink:href="#m70f2f244a1" y="34.56"/>
      </g>
     </g>
    </g>
    <g id="xtick_6">
     <g id="line2d_11">
      <g>
       <use style="stroke:#000000;" x="319.144222" xlink:href="#mf274785bfd" y="143.28"/>
      </g>
     </g>
     <g id="line2d_12">
      <g>
       <use style="stroke:#000000;" x="319.144222" xlink:href="#m70f2f244a1" y="34.56"/>
      </g>
     </g>
    </g>
    <g id="xtick_7">
     <g id="line2d_13">
      <g>
       <use style="stroke:#000000;" x="369.340254" xlink:href="#mf274785bfd" y="143.28"/>
      </g>
     </g>
     <g id="line2d_14">
      <g>
       <use style="stroke:#000000;" x="369.340254" xlink:href="#m70f2f244a1" y="34.56"/>
      </g>
     </g>
    </g>
   </g>
   <g id="matplotlib.axis_2">
    <g id="ytick_1">
     <g id="line2d_15">
      <defs>
       <path d="M 0 0 
L 3 0 
" id="ma8af63f160" style="stroke:#000000;"/>
      </defs>
      <g>
       <use style="stroke:#000000;" x="54" xlink:href="#ma8af63f160" y="142.042935"/>
      </g>
     </g>
     <g id="line2d_16">
      <defs>
       <path d="M 0 0 
L -3 0 
" id="m752ed38b96" style="stroke:#000000;"/>
      </defs>
      <g>
       <use style="stroke:#000000;" x="388.8" xlink:href="#m752ed38b96" y="142.042935"/>
      </g>
     </g>
     <g id="text_1">
      <!-- $\mathdefault{10^{0}}$ -->
      <defs>
       <path d="M 37.25 0 
L 28.46875 0 
L 28.46875 56 
Q 25.296875 52.984375 20.140625 49.953125 
Q 14.984375 46.921875 10.890625 45.40625 
L 10.890625 53.90625 
Q 18.265625 57.375 23.78125 62.296875 
Q 29.296875 67.234375 31.59375 71.875 
L 37.25 71.875 
z
" id="ArialMT-49"/>
       <path d="M 4.15625 35.296875 
Q 4.15625 48 6.765625 55.734375 
Q 9.375 63.484375 14.515625 67.671875 
Q 19.671875 71.875 27.484375 71.875 
Q 33.25 71.875 37.59375 69.546875 
Q 41.9375 67.234375 44.765625 62.859375 
Q 47.609375 58.5 49.21875 52.21875 
Q 50.828125 45.953125 50.828125 35.296875 
Q 50.828125 22.703125 48.234375 14.96875 
Q 45.65625 7.234375 40.5 3 
Q 35.359375 -1.21875 27.484375 -1.21875 
Q 17.140625 -1.21875 11.234375 6.203125 
Q 4.15625 15.140625 4.15625 35.296875 
z
M 13.1875 35.296875 
Q 13.1875 17.671875 17.3125 11.828125 
Q 21.4375 6 27.484375 6 
Q 33.546875 6 37.671875 11.859375 
Q 41.796875 17.71875 41.796875 35.296875 
Q 41.796875 52.984375 37.671875 58.78125 
Q 33.546875 64.59375 27.390625 64.59375 
Q 21.34375 64.59375 17.71875 59.46875 
Q 13.1875 52.9375 13.1875 35.296875 
z
" id="ArialMT-48"/>
      </defs>
      <g transform="translate(36.684 146.580435)scale(0.088 -0.088)">
       <use transform="translate(0 0.99375)" xlink:href="#ArialMT-49"/>
       <use transform="translate(55.615234 0.99375)" xlink:href="#ArialMT-48"/>
       <use transform="translate(112.972813 70.6875)scale(0.7)" xlink:href="#ArialMT-48"/>
      </g>
     </g>
    </g>
    <g id="ytick_2">
     <g id="line2d_17">
      <g>
       <use style="stroke:#000000;" x="54" xlink:href="#ma8af63f160" y="46.907003"/>
      </g>
     </g>
     <g id="line2d_18">
      <g>
       <use style="stroke:#000000;" x="388.8" xlink:href="#m752ed38b96" y="46.907003"/>
      </g>
     </g>
     <g id="text_2">
      <!-- $\mathdefault{10^{1}}$ -->
      <g transform="translate(36.684 51.444503)scale(0.088 -0.088)">
       <use transform="translate(0 0.99375)" xlink:href="#ArialMT-49"/>
       <use transform="translate(55.615234 0.99375)" xlink:href="#ArialMT-48"/>
       <use transform="translate(112.972813 70.6875)scale(0.7)" xlink:href="#ArialMT-49"/>
      </g>
     </g>
    </g>
    <g id="ytick_3">
     <g id="line2d_19">
      <defs>
       <path d="M 0 0 
L 3.2 0 
" id="mb1d7ad57c3" style="stroke:#000000;stroke-width:0.8;"/>
      </defs>
      <g>
       <use style="stroke:#000000;stroke-width:0.8;" x="54" xlink:href="#mb1d7ad57c3" y="113.404166"/>
      </g>
     </g>
     <g id="line2d_20">
      <defs>
       <path d="M 0 0 
L -3.2 0 
" id="m6fdca30121" style="stroke:#000000;stroke-width:0.8;"/>
      </defs>
      <g>
       <use style="stroke:#000000;stroke-width:0.8;" x="388.8" xlink:href="#m6fdca30121" y="113.404166"/>
      </g>
     </g>
    </g>
    <g id="ytick_4">
     <g id="line2d_21">
      <g>
       <use style="stroke:#000000;stroke-width:0.8;" x="54" xlink:href="#mb1d7ad57c3" y="96.65156"/>
      </g>
     </g>
     <g id="line2d_22">
      <g>
       <use style="stroke:#000000;stroke-width:0.8;" x="388.8" xlink:href="#m6fdca30121" y="96.65156"/>
      </g>
     </g>
    </g>
    <g id="ytick_5">
     <g id="line2d_23">
      <g>
       <use style="stroke:#000000;stroke-width:0.8;" x="54" xlink:href="#mb1d7ad57c3" y="84.765396"/>
      </g>
     </g>
     <g id="line2d_24">
      <g>
       <use style="stroke:#000000;stroke-width:0.8;" x="388.8" xlink:href="#m6fdca30121" y="84.765396"/>
      </g>
     </g>
    </g>
    <g id="ytick_6">
     <g id="line2d_25">
      <g>
       <use style="stroke:#000000;stroke-width:0.8;" x="54" xlink:href="#mb1d7ad57c3" y="75.545772"/>
      </g>
     </g>
     <g id="line2d_26">
      <g>
       <use style="stroke:#000000;stroke-width:0.8;" x="388.8" xlink:href="#m6fdca30121" y="75.545772"/>
      </g>
     </g>
    </g>
    <g id="ytick_7">
     <g id="line2d_27">
      <g>
       <use style="stroke:#000000;stroke-width:0.8;" x="54" xlink:href="#mb1d7ad57c3" y="68.01279"/>
      </g>
     </g>
     <g id="line2d_28">
      <g>
       <use style="stroke:#000000;stroke-width:0.8;" x="388.8" xlink:href="#m6fdca30121" y="68.01279"/>
      </g>
     </g>
    </g>
    <g id="ytick_8">
     <g id="line2d_29">
      <g>
       <use style="stroke:#000000;stroke-width:0.8;" x="54" xlink:href="#mb1d7ad57c3" y="61.643745"/>
      </g>
     </g>
     <g id="line2d_30">
      <g>
       <use style="stroke:#000000;stroke-width:0.8;" x="388.8" xlink:href="#m6fdca30121" y="61.643745"/>
      </g>
     </g>
    </g>
    <g id="ytick_9">
     <g id="line2d_31">
      <g>
       <use style="stroke:#000000;stroke-width:0.8;" x="54" xlink:href="#mb1d7ad57c3" y="56.126627"/>
      </g>
     </g>
     <g id="line2d_32">
      <g>
       <use style="stroke:#000000;stroke-width:0.8;" x="388.8" xlink:href="#m6fdca30121" y="56.126627"/>
      </g>
     </g>
    </g>
    <g id="ytick_10">
     <g id="line2d_33">
      <g>
       <use style="stroke:#000000;stroke-width:0.8;" x="54" xlink:href="#mb1d7ad57c3" y="51.260184"/>
      </g>
     </g>
     <g id="line2d_34">
      <g>
       <use style="stroke:#000000;stroke-width:0.8;" x="388.8" xlink:href="#m6fdca30121" y="51.260184"/>
      </g>
     </g>
    </g>
    <g id="text_3">
     <!-- fitness -->
     <defs>
      <path d="M 8.6875 0 
L 8.6875 45.015625 
L 0.921875 45.015625 
L 0.921875 51.859375 
L 8.6875 51.859375 
L 8.6875 57.375 
Q 8.6875 62.59375 9.625 65.140625 
Q 10.890625 68.5625 14.078125 70.671875 
Q 17.28125 72.796875 23.046875 72.796875 
Q 26.765625 72.796875 31.25 71.921875 
L 29.9375 64.265625 
Q 27.203125 64.75 24.75 64.75 
Q 20.75 64.75 19.09375 63.03125 
Q 17.4375 61.328125 17.4375 56.640625 
L 17.4375 51.859375 
L 27.546875 51.859375 
L 27.546875 45.015625 
L 17.4375 45.015625 
L 17.4375 0 
z
" id="ArialMT-102"/>
      <path d="M 6.640625 61.46875 
L 6.640625 71.578125 
L 15.4375 71.578125 
L 15.4375 61.46875 
z
M 6.640625 0 
L 6.640625 51.859375 
L 15.4375 51.859375 
L 15.4375 0 
z
" id="ArialMT-105"/>
      <path d="M 25.78125 7.859375 
L 27.046875 0.09375 
Q 23.34375 -0.6875 20.40625 -0.6875 
Q 15.625 -0.6875 12.984375 0.828125 
Q 10.359375 2.34375 9.28125 4.8125 
Q 8.203125 7.28125 8.203125 15.1875 
L 8.203125 45.015625 
L 1.765625 45.015625 
L 1.765625 51.859375 
L 8.203125 51.859375 
L 8.203125 64.703125 
L 16.9375 69.96875 
L 16.9375 51.859375 
L 25.78125 51.859375 
L 25.78125 45.015625 
L 16.9375 45.015625 
L 16.9375 14.703125 
Q 16.9375 10.9375 17.40625 9.859375 
Q 17.875 8.796875 18.921875 8.15625 
Q 19.96875 7.515625 21.921875 7.515625 
Q 23.390625 7.515625 25.78125 7.859375 
z
" id="ArialMT-116"/>
      <path d="M 6.59375 0 
L 6.59375 51.859375 
L 14.5 51.859375 
L 14.5 44.484375 
Q 20.21875 53.03125 31 53.03125 
Q 35.6875 53.03125 39.625 51.34375 
Q 43.5625 49.65625 45.515625 46.921875 
Q 47.46875 44.1875 48.25 40.4375 
Q 48.734375 37.984375 48.734375 31.890625 
L 48.734375 0 
L 39.9375 0 
L 39.9375 31.546875 
Q 39.9375 36.921875 38.90625 39.578125 
Q 37.890625 42.234375 35.28125 43.8125 
Q 32.671875 45.40625 29.15625 45.40625 
Q 23.53125 45.40625 19.453125 41.84375 
Q 15.375 38.28125 15.375 28.328125 
L 15.375 0 
z
" id="ArialMT-110"/>
      <path d="M 42.09375 16.703125 
L 51.171875 15.578125 
Q 49.03125 7.625 43.21875 3.21875 
Q 37.40625 -1.171875 28.375 -1.171875 
Q 17 -1.171875 10.328125 5.828125 
Q 3.65625 12.84375 3.65625 25.484375 
Q 3.65625 38.578125 10.390625 45.796875 
Q 17.140625 53.03125 27.875 53.03125 
Q 38.28125 53.03125 44.875 45.953125 
Q 51.46875 38.875 51.46875 26.03125 
Q 51.46875 25.25 51.421875 23.6875 
L 12.75 23.6875 
Q 13.234375 15.140625 17.578125 10.59375 
Q 21.921875 6.0625 28.421875 6.0625 
Q 33.25 6.0625 36.671875 8.59375 
Q 40.09375 11.140625 42.09375 16.703125 
z
M 13.234375 30.90625 
L 42.1875 30.90625 
Q 41.609375 37.453125 38.875 40.71875 
Q 34.671875 45.796875 27.984375 45.796875 
Q 21.921875 45.796875 17.796875 41.75 
Q 13.671875 37.703125 13.234375 30.90625 
z
" id="ArialMT-101"/>
      <path d="M 3.078125 15.484375 
L 11.765625 16.84375 
Q 12.5 11.625 15.84375 8.84375 
Q 19.1875 6.0625 25.203125 6.0625 
Q 31.25 6.0625 34.171875 8.515625 
Q 37.109375 10.984375 37.109375 14.3125 
Q 37.109375 17.28125 34.515625 19 
Q 32.71875 20.171875 25.53125 21.96875 
Q 15.875 24.421875 12.140625 26.203125 
Q 8.40625 27.984375 6.46875 31.125 
Q 4.546875 34.28125 4.546875 38.09375 
Q 4.546875 41.546875 6.125 44.5 
Q 7.71875 47.46875 10.453125 49.421875 
Q 12.5 50.921875 16.03125 51.96875 
Q 19.578125 53.03125 23.640625 53.03125 
Q 29.734375 53.03125 34.34375 51.265625 
Q 38.96875 49.515625 41.15625 46.5 
Q 43.359375 43.5 44.1875 38.484375 
L 35.59375 37.3125 
Q 35.015625 41.3125 32.203125 43.546875 
Q 29.390625 45.796875 24.265625 45.796875 
Q 18.21875 45.796875 15.625 43.796875 
Q 13.03125 41.796875 13.03125 39.109375 
Q 13.03125 37.40625 14.109375 36.03125 
Q 15.1875 34.625 17.484375 33.6875 
Q 18.796875 33.203125 25.25 31.453125 
Q 34.578125 28.953125 38.25 27.359375 
Q 41.9375 25.78125 44.03125 22.75 
Q 46.140625 19.734375 46.140625 15.234375 
Q 46.140625 10.84375 43.578125 6.953125 
Q 41.015625 3.078125 36.171875 0.953125 
Q 31.34375 -1.171875 25.25 -1.171875 
Q 15.140625 -1.171875 9.84375 3.03125 
Q 4.546875 7.234375 3.078125 15.484375 
z
" id="ArialMT-115"/>
     </defs>
     <g transform="translate(30.776 102.792)rotate(-90)scale(0.096 -0.096)">
      <use xlink:href="#ArialMT-102"/>
      <use x="27.783203" xlink:href="#ArialMT-105"/>
      <use x="50" xlink:href="#ArialMT-116"/>
      <use x="77.783203" xlink:href="#ArialMT-110"/>
      <use x="133.398438" xlink:href="#ArialMT-101"/>
      <use x="189.013672" xlink:href="#ArialMT-115"/>
      <use x="239.013672" xlink:href="#ArialMT-115"/>
     </g>
    </g>
   </g>
   <g id="line2d_35">
    <path clip-path="url(#pa3720fd805)" d="M 69.218182 40.617586 
L 69.770338 46.169965 
L 70.322495 46.169965 
L 70.874651 47.457266 
L 71.426807 50.643452 
L 71.978964 50.643452 
L 72.53112 51.627048 
L 73.083276 53.398444 
L 73.635433 53.398444 
L 74.187589 55.796682 
L 74.739745 61.189668 
L 75.291902 61.189668 
L 75.844058 64.468435 
L 76.948371 64.470776 
L 77.500527 65.576131 
L 79.156996 65.576131 
L 79.709152 68.598609 
L 80.261309 70.706909 
L 81.365621 70.707138 
L 81.917778 71.637769 
L 82.469934 73.56994 
L 83.574247 73.56994 
L 84.126403 74.300767 
L 84.678559 74.300767 
L 85.230716 74.509047 
L 85.782872 74.522935 
L 86.335029 75.096377 
L 86.887185 75.096377 
L 87.439341 75.263529 
L 90.752279 75.263529 
L 91.304436 75.670473 
L 91.856592 76.732157 
L 92.960905 76.732157 
L 93.513061 77.885457 
L 94.065217 77.885457 
L 94.617374 78.26194 
L 95.16953 78.474565 
L 97.378155 78.538586 
L 97.930312 80.044606 
L 98.482468 80.370482 
L 99.586781 80.370482 
L 100.138937 81.348466 
L 101.24325 81.418498 
L 101.795406 81.783084 
L 102.347563 83.173051 
L 102.899719 83.880234 
L 105.108344 83.884141 
L 105.660501 85.738004 
L 106.212657 86.287102 
L 107.31697 86.306128 
L 107.869126 87.595293 
L 110.629908 87.596812 
L 111.182064 87.71687 
L 111.73422 87.71687 
L 112.286377 88.887637 
L 115.599315 88.979594 
L 116.151471 89.450039 
L 116.703628 89.510224 
L 117.255784 92.486673 
L 119.464409 92.573413 
L 120.016566 95.047449 
L 120.568722 95.047449 
L 121.120878 95.299958 
L 121.673035 96.330479 
L 124.433816 96.330479 
L 124.985973 96.866157 
L 126.642442 96.866157 
L 127.194598 99.243806 
L 129.403223 99.247062 
L 130.507536 99.541041 
L 131.059692 99.603348 
L 131.611849 100.00063 
L 132.716162 100.089002 
L 133.268318 102.582455 
L 138.237725 102.648714 
L 138.789881 103.13145 
L 139.342038 103.13145 
L 139.894194 103.659127 
L 140.44635 103.659225 
L 140.998507 104.868918 
L 144.311445 104.892924 
L 144.863601 111.44541 
L 148.176539 111.445478 
L 148.728696 111.61983 
L 150.385165 111.621929 
L 150.937321 111.804278 
L 151.489477 113.4145 
L 152.59379 113.4145 
L 153.145946 113.707114 
L 153.698103 114.199861 
L 154.802415 114.294199 
L 155.354572 115.522423 
L 157.011041 115.522423 
L 157.563197 117.425383 
L 161.428291 117.453877 
L 161.980448 118.132619 
L 163.636917 118.585247 
L 164.74123 118.585247 
L 165.293386 120.019114 
L 171.367106 120.116656 
L 172.471418 120.139734 
L 173.023575 120.61283 
L 173.575731 121.266712 
L 174.680044 121.266712 
L 175.2322 121.471656 
L 175.784356 121.471656 
L 176.336513 121.828107 
L 176.888669 123.139241 
L 178.545138 123.145194 
L 179.097295 123.421268 
L 180.753764 123.650164 
L 181.30592 124.0519 
L 182.410233 124.144027 
L 182.962389 124.414491 
L 183.514545 124.414491 
L 184.618858 124.579044 
L 185.723171 124.597918 
L 186.275327 125.246276 
L 190.692578 125.321901 
L 191.244734 126.104657 
L 192.349047 126.116146 
L 192.901203 126.299269 
L 194.005516 126.345591 
L 194.557672 126.74308 
L 196.766298 126.74308 
L 197.318454 127.233642 
L 198.422767 127.233642 
L 198.974923 129.949316 
L 201.735705 129.949774 
L 202.287861 131.156463 
L 203.94433 131.336763 
L 205.600799 131.35491 
L 206.152955 132.009163 
L 207.809424 132.009163 
L 208.361581 132.639236 
L 212.226675 132.639774 
L 212.778832 133.269635 
L 217.748239 133.351455 
L 219.404708 133.398853 
L 219.956864 133.399298 
L 220.50902 134.793645 
L 223.269802 134.904527 
L 223.821959 134.910127 
L 224.374115 135.479906 
L 228.791366 135.575636 
L 229.343522 135.872747 
L 232.65646 135.964034 
L 233.208616 136.083409 
L 233.760773 136.084272 
L 234.312929 136.282655 
L 237.073711 136.391916 
L 237.625867 136.944886 
L 239.834493 136.979656 
L 240.386649 137.340059 
L 242.595274 137.340059 
L 243.147431 137.47102 
L 248.116838 137.533624 
L 249.22115 137.630993 
L 249.773307 137.633235 
L 250.877619 137.889534 
L 251.178796 138.338182 
L 251.178796 138.338182 
" style="fill:none;stroke:#e8000b;stroke-linecap:round;stroke-width:1.2;"/>
   </g>
   <g id="line2d_36">
    <path clip-path="url(#pa3720fd805)" d="M 69.218182 44.724637 
L 71.426807 44.725441 
L 71.978964 44.919538 
L 72.53112 46.119904 
L 73.083276 48.679445 
L 73.635433 52.359482 
L 74.187589 52.573053 
L 74.739745 56.472231 
L 75.291902 56.473022 
L 75.844058 60.934256 
L 76.948371 60.936677 
L 77.500527 62.339584 
L 78.60484 63.344125 
L 79.156996 63.703401 
L 79.709152 66.487669 
L 80.261309 67.230771 
L 80.813465 68.337199 
L 81.365621 75.286628 
L 81.917778 75.286628 
L 82.469934 75.9885 
L 83.574247 76.007799 
L 84.126403 76.287265 
L 84.678559 77.420529 
L 85.230716 77.420529 
L 85.782872 78.245844 
L 87.439341 78.325249 
L 87.991498 79.140628 
L 88.543654 80.198514 
L 89.09581 80.209529 
L 89.647967 83.022159 
L 101.24325 83.022159 
L 101.795406 84.303108 
L 102.347563 84.489652 
L 102.899719 85.088137 
L 107.31697 85.088137 
L 107.869126 87.178439 
L 111.182064 87.178439 
L 111.73422 90.565835 
L 112.286377 91.163367 
L 113.390689 91.163367 
L 113.942846 93.708022 
L 115.599315 93.708375 
L 116.151471 97.241955 
L 121.673035 97.241955 
L 122.225191 98.610522 
L 125.538129 98.713167 
L 126.090285 99.664301 
L 126.642442 99.664301 
L 127.194598 102.214315 
L 129.403223 102.214315 
L 129.95538 103.705265 
L 132.164005 103.819631 
L 132.716162 104.264437 
L 133.820474 104.264742 
L 134.372631 104.63728 
L 137.685569 104.652318 
L 138.237725 104.969584 
L 139.342038 104.969584 
L 139.894194 106.015747 
L 142.102819 106.015747 
L 142.654976 110.604637 
L 145.415757 110.604637 
L 145.967914 110.74179 
L 147.624383 110.742926 
L 148.176539 111.015474 
L 148.728696 111.494367 
L 149.280852 111.679948 
L 149.833008 112.258386 
L 151.489477 112.258386 
L 152.041634 114.307909 
L 154.250259 114.307909 
L 154.802415 117.362738 
L 156.458884 117.365126 
L 157.011041 117.747108 
L 161.428291 117.765994 
L 161.980448 119.830376 
L 165.293386 119.843564 
L 165.845542 122.112783 
L 184.618858 122.112783 
L 185.171014 122.602064 
L 190.140421 122.609859 
L 190.692578 122.980612 
L 193.45336 122.980612 
L 194.005516 123.11743 
L 195.661985 123.11743 
L 196.214141 125.672063 
L 197.318454 125.672161 
L 197.87061 127.0113 
L 213.330988 127.011306 
L 213.883144 127.196552 
L 219.956864 127.196769 
L 220.50902 127.330683 
L 221.061177 127.330683 
L 221.613333 128.025417 
L 230.999991 128.025417 
L 231.552147 128.290593 
L 233.208616 128.290593 
L 233.760773 128.51921 
L 234.865085 128.51921 
L 235.417242 128.93075 
L 235.969398 128.93075 
L 236.521554 129.508006 
L 248.116838 129.508006 
L 248.668994 129.746604 
L 249.773307 129.746604 
L 250.325463 131.205831 
L 250.877619 131.20751 
L 251.429776 131.393968 
L 256.399183 131.393968 
L 256.951339 131.745595 
L 257.503496 132.797759 
L 259.159965 132.797759 
L 259.712121 132.998999 
L 260.816434 132.998999 
L 261.36859 133.148432 
L 263.025059 133.148432 
L 264.129372 133.259858 
L 270.203092 133.284036 
L 272.411717 133.745013 
L 272.963873 134.09873 
L 278.485437 134.163901 
L 279.037593 134.296565 
L 280.694062 134.296565 
L 281.246218 135.275177 
L 282.350531 135.276205 
L 282.902687 137.083821 
L 308.854036 137.083821 
L 309.406192 137.448502 
L 312.71913 137.474791 
L 313.271286 137.713603 
L 328.179508 137.714558 
L 328.731664 137.867877 
L 334.805384 137.975769 
L 334.830482 138.168736 
L 334.830482 138.168736 
" style="fill:none;stroke:#1ac938;stroke-linecap:round;stroke-width:1.2;"/>
   </g>
   <g id="line2d_37">
    <path clip-path="url(#pa3720fd805)" d="M 69.218182 39.501818 
L 72.53112 39.514055 
L 73.083276 41.984579 
L 74.187589 41.986565 
L 74.739745 43.155102 
L 75.291902 43.1565 
L 75.844058 48.077215 
L 76.396214 48.077217 
L 76.948371 48.216011 
L 77.500527 49.033285 
L 78.60484 49.033822 
L 79.156996 52.241875 
L 80.261309 52.242079 
L 80.813465 56.224144 
L 81.365621 56.510516 
L 82.469934 56.521798 
L 83.02209 57.322714 
L 84.678559 57.322714 
L 85.230716 58.887697 
L 86.887185 58.887697 
L 87.439341 60.217547 
L 87.991498 60.217547 
L 88.543654 60.444997 
L 89.09581 62.08968 
L 90.752279 62.089769 
L 91.304436 62.433677 
L 92.408748 64.184321 
L 92.960905 64.796023 
L 93.513061 65.169865 
L 94.065217 65.170666 
L 94.617374 67.763437 
L 95.721686 67.791558 
L 96.273843 70.029942 
L 97.930312 70.029942 
L 98.482468 70.274021 
L 99.586781 74.940568 
L 101.795406 74.940578 
L 102.347563 75.102232 
L 102.899719 75.102524 
L 103.451875 75.901198 
L 106.764813 75.939938 
L 107.31697 76.702496 
L 107.869126 76.702496 
L 108.421282 77.578012 
L 108.973439 79.648912 
L 112.838533 79.648912 
L 113.390689 81.359958 
L 115.599315 81.409347 
L 116.151471 81.776098 
L 116.703628 81.960609 
L 117.255784 82.894525 
L 118.912253 82.922601 
L 119.464409 85.741556 
L 123.329504 85.787398 
L 123.88166 86.115651 
L 126.090285 86.294692 
L 126.642442 86.295619 
L 127.194598 86.460939 
L 127.746754 87.189345 
L 129.403223 87.189345 
L 129.95538 89.197798 
L 131.611849 89.197844 
L 132.716162 89.634727 
L 133.268318 91.020201 
L 134.372631 91.020214 
L 134.924787 91.161939 
L 138.789881 91.161939 
L 139.342038 91.991233 
L 139.894194 91.991233 
L 140.44635 93.22647 
L 140.998507 93.411512 
L 142.654976 93.411512 
L 143.207132 94.657025 
L 144.311445 94.657025 
L 144.863601 95.650986 
L 146.52007 95.740984 
L 147.072227 96.362761 
L 148.728696 96.362761 
L 149.280852 96.731543 
L 149.833008 96.731543 
L 150.385165 97.942792 
L 153.145946 97.942854 
L 153.698103 99.389069 
L 156.458884 99.389069 
L 157.011041 99.529881 
L 158.66751 99.529881 
L 159.219666 100.737363 
L 160.323979 100.737363 
L 160.876135 102.102041 
L 161.428291 102.537704 
L 164.189073 102.537704 
L 164.74123 104.21377 
L 172.471418 104.21377 
L 173.023575 104.621045 
L 173.575731 106.035769 
L 180.753764 106.119842 
L 181.30592 106.994975 
L 181.858076 106.994975 
L 182.410233 108.131582 
L 182.962389 108.131611 
L 183.514545 108.354972 
L 184.618858 108.354972 
L 185.723171 109.92764 
L 187.931796 109.92764 
L 188.483952 111.522205 
L 190.140421 111.522205 
L 190.692578 113.308754 
L 192.901203 113.308754 
L 193.45336 115.467 
L 200.079236 115.467 
L 200.631392 116.864298 
L 206.705112 116.864298 
L 207.257268 117.440536 
L 214.435301 117.449187 
L 214.987457 117.837129 
L 218.300395 117.880636 
L 218.852551 118.066528 
L 220.50902 118.066528 
L 221.061177 118.534504 
L 222.165489 118.561902 
L 222.717646 118.789665 
L 225.478428 118.789665 
L 226.030584 123.449827 
L 226.58274 123.449827 
L 227.134897 125.175328 
L 232.65646 125.224705 
L 233.208616 125.336134 
L 233.760773 127.851379 
L 234.865085 127.851379 
L 235.417242 128.361914 
L 239.282336 128.361914 
L 239.834493 128.61629 
L 240.386649 128.61629 
L 240.938805 129.326379 
L 242.043118 129.326379 
L 242.595274 129.616937 
L 243.699587 129.616937 
L 244.251743 130.188464 
L 246.460369 130.196539 
L 247.012525 130.739822 
L 253.086245 130.739822 
L 253.638401 131.342661 
L 260.816434 131.344324 
L 261.36859 131.484024 
L 270.755248 131.57426 
L 271.307404 131.706688 
L 272.963873 131.804319 
L 274.620342 131.856097 
L 275.724655 131.856097 
L 276.276811 132.397392 
L 311.614817 132.39773 
L 312.166974 132.698797 
L 313.271286 132.698797 
L 313.823443 133.105397 
L 315.479912 133.105397 
L 316.032068 134.381506 
L 317.688537 134.381506 
L 319.345006 134.682354 
L 321.553632 134.682354 
L 322.105788 134.845857 
L 335.35754 134.848338 
L 335.909697 135.135677 
L 341.43126 135.161664 
L 341.983416 135.320701 
L 343.087729 135.320701 
L 343.639885 135.489072 
L 345.848511 135.496591 
L 346.400667 135.657628 
L 349.161449 135.677141 
L 349.713605 136.583618 
L 356.891638 136.583618 
L 357.443794 136.794785 
L 361.861045 136.794785 
L 362.413201 137.615882 
L 366.830452 137.721519 
L 367.934765 137.768277 
L 368.486921 138.00557 
L 373.456328 138.044914 
L 373.581818 138.127815 
L 373.581818 138.127815 
" style="fill:none;stroke:#023eff;stroke-linecap:round;stroke-width:1.2;"/>
   </g>
   <g id="line2d_38">
    <path clip-path="url(#pa3720fd805)" d="M 69.218182 40.697834 
L 69.770338 40.851588 
L 70.874651 40.853086 
L 71.426807 41.561477 
L 71.978964 43.022841 
L 75.291902 43.094426 
L 75.844058 43.174294 
L 76.396214 44.829598 
L 78.052683 44.829666 
L 78.60484 44.982178 
L 79.156996 45.289217 
L 79.709152 45.79877 
L 80.813465 45.84663 
L 81.365621 48.015731 
L 81.917778 48.351826 
L 82.469934 48.351826 
L 83.02209 48.982682 
L 83.574247 51.199172 
L 84.126403 51.199257 
L 85.230716 52.056417 
L 89.09581 52.143097 
L 89.647967 52.402179 
L 90.200123 52.402179 
L 90.752279 52.910952 
L 95.721686 52.991135 
L 96.273843 53.031433 
L 96.825999 53.605938 
L 98.482468 53.611252 
L 99.034624 56.055371 
L 99.586781 59.424031 
L 101.795406 59.424769 
L 102.347563 60.109118 
L 102.899719 61.110349 
L 103.451875 61.110349 
L 104.004032 62.393823 
L 106.764813 62.426256 
L 107.31697 62.534773 
L 107.869126 63.12428 
L 108.973439 63.127161 
L 109.525595 67.453604 
L 115.599315 67.453604 
L 116.151471 67.848141 
L 117.255784 67.848209 
L 117.80794 67.973327 
L 118.360097 71.347953 
L 119.464409 71.347953 
L 120.016566 71.617267 
L 121.120878 71.617451 
L 121.673035 71.747239 
L 123.88166 71.747239 
L 124.433816 73.682361 
L 126.090285 73.689903 
L 126.642442 73.933541 
L 128.298911 74.027601 
L 128.851067 75.411321 
L 131.059692 75.487032 
L 131.611849 76.095129 
L 132.164005 76.095135 
L 133.268318 77.688796 
L 134.372631 77.690026 
L 134.924787 81.593165 
L 137.685569 81.690632 
L 138.237725 81.776937 
L 138.789881 84.515437 
L 139.342038 84.515437 
L 139.894194 85.944709 
L 141.550663 85.949226 
L 142.102819 86.286593 
L 142.654976 86.286593 
L 143.207132 86.861054 
L 143.759288 87.642269 
L 144.311445 87.642269 
L 144.863601 88.707532 
L 147.072227 88.800245 
L 147.624383 88.82963 
L 148.176539 89.784252 
L 148.728696 89.784252 
L 149.280852 91.045493 
L 152.59379 91.127646 
L 153.145946 94.175034 
L 154.250259 94.175104 
L 154.802415 94.310766 
L 155.906728 94.408366 
L 156.458884 96.539286 
L 157.011041 96.693655 
L 158.115353 96.693655 
L 158.66751 97.26149 
L 159.219666 98.900093 
L 160.323979 98.900093 
L 160.876135 99.24394 
L 161.428291 99.244254 
L 161.980448 100.0636 
L 162.532604 100.065107 
L 163.084761 101.259571 
L 163.636917 101.259571 
L 164.189073 101.691526 
L 166.397699 101.706174 
L 166.949855 105.100787 
L 170.262793 105.151068 
L 170.814949 105.414665 
L 171.367106 105.414665 
L 171.919262 106.237876 
L 173.023575 106.237876 
L 173.575731 108.562357 
L 174.680044 108.562357 
L 175.2322 109.812102 
L 179.097295 109.945568 
L 179.649451 110.347092 
L 180.201607 110.411935 
L 180.753764 110.741035 
L 182.962389 110.742748 
L 183.514545 111.802771 
L 186.275327 111.803174 
L 186.827483 113.851269 
L 187.37964 113.884687 
L 187.931796 114.210579 
L 188.483952 114.756252 
L 189.036109 114.756252 
L 189.588265 115.455784 
L 190.140421 116.597307 
L 190.692578 116.597307 
L 191.244734 117.092453 
L 192.349047 117.190859 
L 192.901203 117.635584 
L 193.45336 117.828223 
L 196.214141 117.876573 
L 196.766298 118.748586 
L 197.318454 118.779139 
L 197.87061 119.198307 
L 198.422767 119.198307 
L 198.974923 120.267628 
L 199.527079 120.268056 
L 200.079236 120.94173 
L 201.183548 120.985633 
L 202.287861 121.374319 
L 203.392174 121.37448 
L 203.94433 122.637112 
L 205.048643 122.637112 
L 205.600799 123.699266 
L 206.152955 123.699459 
L 206.705112 123.922786 
L 207.809424 123.92555 
L 208.913737 124.396072 
L 209.465894 124.396072 
L 210.01805 124.750151 
L 210.570206 125.532285 
L 211.674519 125.532285 
L 212.226675 126.828017 
L 212.778832 126.828017 
L 213.330988 127.021682 
L 213.883144 128.055496 
L 214.435301 128.23669 
L 216.09177 128.23669 
L 216.643926 128.911724 
L 219.404708 129.000877 
L 219.956864 129.748696 
L 221.613333 129.749394 
L 222.165489 130.135543 
L 222.717646 130.260243 
L 223.269802 130.260243 
L 223.821959 131.025673 
L 224.926271 131.101257 
L 225.478428 131.336426 
L 227.134897 131.423986 
L 227.687053 131.676558 
L 231.552147 131.68476 
L 232.104304 132.098911 
L 235.417242 132.1414 
L 235.969398 132.711759 
L 236.521554 134.001216 
L 242.595274 134.142331 
L 243.147431 134.418143 
L 244.8039 134.44936 
L 245.356056 135.112815 
L 247.012525 135.119959 
L 247.564681 135.578972 
L 251.981932 135.663011 
L 254.190558 135.973429 
L 256.399183 136.080704 
L 256.951339 136.698226 
L 260.264277 136.796257 
L 261.36859 136.901553 
L 261.920746 136.901553 
L 262.472903 137.084166 
L 265.785841 137.084166 
L 266.337997 137.613003 
L 268.546622 137.632598 
L 269.098779 137.866348 
L 270.203092 137.876788 
L 270.253288 138.134779 
L 270.253288 138.134779 
" style="fill:none;stroke:#00d7ff;stroke-linecap:round;stroke-width:1.2;"/>
   </g>
   <g id="patch_3">
    <path d="M 54 143.28 
L 54 34.56 
" style="fill:none;stroke:#000000;stroke-linecap:square;stroke-linejoin:miter;"/>
   </g>
   <g id="patch_4">
    <path d="M 388.8 143.28 
L 388.8 34.56 
" style="fill:none;stroke:#000000;stroke-linecap:square;stroke-linejoin:miter;"/>
   </g>
   <g id="patch_5">
    <path d="M 54 143.28 
L 388.8 143.28 
" style="fill:none;stroke:#000000;stroke-linecap:square;stroke-linejoin:miter;"/>
   </g>
   <g id="patch_6">
    <path d="M 54 34.56 
L 388.8 34.56 
" style="fill:none;stroke:#000000;stroke-linecap:square;stroke-linejoin:miter;"/>
   </g>
   <g id="legend_1">
    <g id="patch_7">
     <path d="M 330.587375 93.469875 
L 384.64 93.469875 
Q 386.4 93.469875 386.4 91.709875 
L 386.4 42.72 
Q 386.4 40.96 384.64 40.96 
L 330.587375 40.96 
Q 328.827375 40.96 328.827375 42.72 
L 328.827375 91.709875 
Q 328.827375 93.469875 330.587375 93.469875 
z
" style="fill:#4c4c4c;opacity:0.5;stroke:#4c4c4c;stroke-linejoin:miter;stroke-width:0.8;"/>
    </g>
    <g id="patch_8">
     <path d="M 328.587375 91.469875 
L 382.64 91.469875 
Q 384.4 91.469875 384.4 89.709875 
L 384.4 40.72 
Q 384.4 38.96 382.64 38.96 
L 328.587375 38.96 
Q 326.827375 38.96 326.827375 40.72 
L 326.827375 89.709875 
Q 326.827375 91.469875 328.587375 91.469875 
z
" style="fill:#ffffff;stroke:#000000;stroke-linejoin:miter;stroke-width:0.8;"/>
    </g>
    <g id="line2d_39">
     <path d="M 330.347375 45.725 
L 337.387375 45.725 
" style="fill:none;stroke:#e8000b;stroke-linecap:round;stroke-width:1.2;"/>
    </g>
    <g id="line2d_40"/>
    <g id="text_4">
     <!-- nstep=1 -->
     <defs>
      <path d="M 6.59375 -19.875 
L 6.59375 51.859375 
L 14.59375 51.859375 
L 14.59375 45.125 
Q 17.4375 49.078125 21 51.046875 
Q 24.5625 53.03125 29.640625 53.03125 
Q 36.28125 53.03125 41.359375 49.609375 
Q 46.4375 46.1875 49.015625 39.953125 
Q 51.609375 33.734375 51.609375 26.3125 
Q 51.609375 18.359375 48.75 11.984375 
Q 45.90625 5.609375 40.453125 2.21875 
Q 35.015625 -1.171875 29 -1.171875 
Q 24.609375 -1.171875 21.109375 0.6875 
Q 17.625 2.546875 15.375 5.375 
L 15.375 -19.875 
z
M 14.546875 25.640625 
Q 14.546875 15.625 18.59375 10.84375 
Q 22.65625 6.0625 28.421875 6.0625 
Q 34.28125 6.0625 38.453125 11.015625 
Q 42.625 15.96875 42.625 26.375 
Q 42.625 36.28125 38.546875 41.203125 
Q 34.46875 46.140625 28.8125 46.140625 
Q 23.1875 46.140625 18.859375 40.890625 
Q 14.546875 35.640625 14.546875 25.640625 
z
" id="ArialMT-112"/>
      <path d="M 52.828125 42.09375 
L 5.5625 42.09375 
L 5.5625 50.296875 
L 52.828125 50.296875 
z
M 52.828125 20.359375 
L 5.5625 20.359375 
L 5.5625 28.5625 
L 52.828125 28.5625 
z
" id="ArialMT-61"/>
     </defs>
     <g transform="translate(344.427375 48.805)scale(0.088 -0.088)">
      <use xlink:href="#ArialMT-110"/>
      <use x="55.615234" xlink:href="#ArialMT-115"/>
      <use x="105.615234" xlink:href="#ArialMT-116"/>
      <use x="133.398438" xlink:href="#ArialMT-101"/>
      <use x="189.013672" xlink:href="#ArialMT-112"/>
      <use x="244.628906" xlink:href="#ArialMT-61"/>
      <use x="303.027344" xlink:href="#ArialMT-49"/>
     </g>
    </g>
    <g id="line2d_41">
     <path d="M 330.347375 58.172875 
L 337.387375 58.172875 
" style="fill:none;stroke:#1ac938;stroke-linecap:round;stroke-width:1.2;"/>
    </g>
    <g id="line2d_42"/>
    <g id="text_5">
     <!-- nstep=5 -->
     <defs>
      <path d="M 4.15625 18.75 
L 13.375 19.53125 
Q 14.40625 12.796875 18.140625 9.390625 
Q 21.875 6 27.15625 6 
Q 33.5 6 37.890625 10.78125 
Q 42.28125 15.578125 42.28125 23.484375 
Q 42.28125 31 38.0625 35.34375 
Q 33.84375 39.703125 27 39.703125 
Q 22.75 39.703125 19.328125 37.765625 
Q 15.921875 35.84375 13.96875 32.765625 
L 5.71875 33.84375 
L 12.640625 70.609375 
L 48.25 70.609375 
L 48.25 62.203125 
L 19.671875 62.203125 
L 15.828125 42.96875 
Q 22.265625 47.46875 29.34375 47.46875 
Q 38.71875 47.46875 45.15625 40.96875 
Q 51.609375 34.46875 51.609375 24.265625 
Q 51.609375 14.546875 45.953125 7.46875 
Q 39.0625 -1.21875 27.15625 -1.21875 
Q 17.390625 -1.21875 11.203125 4.25 
Q 5.03125 9.71875 4.15625 18.75 
z
" id="ArialMT-53"/>
     </defs>
     <g transform="translate(344.427375 61.252875)scale(0.088 -0.088)">
      <use xlink:href="#ArialMT-110"/>
      <use x="55.615234" xlink:href="#ArialMT-115"/>
      <use x="105.615234" xlink:href="#ArialMT-116"/>
      <use x="133.398438" xlink:href="#ArialMT-101"/>
      <use x="189.013672" xlink:href="#ArialMT-112"/>
      <use x="244.628906" xlink:href="#ArialMT-61"/>
      <use x="303.027344" xlink:href="#ArialMT-53"/>
     </g>
    </g>
    <g id="line2d_43">
     <path d="M 330.347375 70.646875 
L 337.387375 70.646875 
" style="fill:none;stroke:#023eff;stroke-linecap:round;stroke-width:1.2;"/>
    </g>
    <g id="line2d_44"/>
    <g id="text_6">
     <!-- nstep=10 -->
     <g transform="translate(344.427375 73.726875)scale(0.088 -0.088)">
      <use xlink:href="#ArialMT-110"/>
      <use x="55.615234" xlink:href="#ArialMT-115"/>
      <use x="105.615234" xlink:href="#ArialMT-116"/>
      <use x="133.398438" xlink:href="#ArialMT-101"/>
      <use x="189.013672" xlink:href="#ArialMT-112"/>
      <use x="244.628906" xlink:href="#ArialMT-61"/>
      <use x="303.027344" xlink:href="#ArialMT-49"/>
      <use x="358.642578" xlink:href="#ArialMT-48"/>
     </g>
    </g>
    <g id="line2d_45">
     <path d="M 330.347375 83.120875 
L 337.387375 83.120875 
" style="fill:none;stroke:#00d7ff;stroke-linecap:round;stroke-width:1.2;"/>
    </g>
    <g id="line2d_46"/>
    <g id="text_7">
     <!-- nstep=50 -->
     <g transform="translate(344.427375 86.200875)scale(0.088 -0.088)">
      <use xlink:href="#ArialMT-110"/>
      <use x="55.615234" xlink:href="#ArialMT-115"/>
      <use x="105.615234" xlink:href="#ArialMT-116"/>
      <use x="133.398438" xlink:href="#ArialMT-101"/>
      <use x="189.013672" xlink:href="#ArialMT-112"/>
      <use x="244.628906" xlink:href="#ArialMT-61"/>
      <use x="303.027344" xlink:href="#ArialMT-53"/>
      <use x="358.642578" xlink:href="#ArialMT-48"/>
     </g>
    </g>
   </g>
  </g>
  <g id="axes_2">
   <g id="patch_9">
    <path d="M 54 252 
L 388.8 252 
L 388.8 143.28 
L 54 143.28 
z
" style="fill:#ffffff;"/>
   </g>
   <g id="matplotlib.axis_3">
    <g id="xtick_8">
     <g id="line2d_47">
      <g>
       <use style="stroke:#000000;" x="68.164065" xlink:href="#mf274785bfd" y="252"/>
      </g>
     </g>
     <g id="line2d_48">
      <g>
       <use style="stroke:#000000;" x="68.164065" xlink:href="#m70f2f244a1" y="143.28"/>
      </g>
     </g>
     <g id="text_8">
      <!-- $\mathdefault{0.0}$ -->
      <defs>
       <path d="M 9.078125 0 
L 9.078125 10.015625 
L 19.09375 10.015625 
L 19.09375 0 
z
" id="ArialMT-46"/>
      </defs>
      <g transform="translate(62.004065 261.798875)scale(0.088 -0.088)">
       <use transform="translate(0 0.125)" xlink:href="#ArialMT-48"/>
       <use transform="translate(55.615234 0.125)" xlink:href="#ArialMT-46"/>
       <use transform="translate(83.398438 0.125)" xlink:href="#ArialMT-48"/>
      </g>
     </g>
    </g>
    <g id="xtick_9">
     <g id="line2d_49">
      <g>
       <use style="stroke:#000000;" x="118.360097" xlink:href="#mf274785bfd" y="252"/>
      </g>
     </g>
     <g id="line2d_50">
      <g>
       <use style="stroke:#000000;" x="118.360097" xlink:href="#m70f2f244a1" y="143.28"/>
      </g>
     </g>
     <g id="text_9">
      <!-- $\mathdefault{0.2}$ -->
      <defs>
       <path d="M 50.34375 8.453125 
L 50.34375 0 
L 3.03125 0 
Q 2.9375 3.171875 4.046875 6.109375 
Q 5.859375 10.9375 9.828125 15.625 
Q 13.8125 20.3125 21.34375 26.46875 
Q 33.015625 36.03125 37.109375 41.625 
Q 41.21875 47.21875 41.21875 52.203125 
Q 41.21875 57.421875 37.46875 61 
Q 33.734375 64.59375 27.734375 64.59375 
Q 21.390625 64.59375 17.578125 60.78125 
Q 13.765625 56.984375 13.71875 50.25 
L 4.6875 51.171875 
Q 5.609375 61.28125 11.65625 66.578125 
Q 17.71875 71.875 27.9375 71.875 
Q 38.234375 71.875 44.234375 66.15625 
Q 50.25 60.453125 50.25 52 
Q 50.25 47.703125 48.484375 43.546875 
Q 46.734375 39.40625 42.65625 34.8125 
Q 38.578125 30.21875 29.109375 22.21875 
Q 21.1875 15.578125 18.9375 13.203125 
Q 16.703125 10.84375 15.234375 8.453125 
z
" id="ArialMT-50"/>
      </defs>
      <g transform="translate(112.200097 261.798875)scale(0.088 -0.088)">
       <use transform="translate(0 0.125)" xlink:href="#ArialMT-48"/>
       <use transform="translate(55.615234 0.125)" xlink:href="#ArialMT-46"/>
       <use transform="translate(83.398438 0.125)" xlink:href="#ArialMT-50"/>
      </g>
     </g>
    </g>
    <g id="xtick_10">
     <g id="line2d_51">
      <g>
       <use style="stroke:#000000;" x="168.556128" xlink:href="#mf274785bfd" y="252"/>
      </g>
     </g>
     <g id="line2d_52">
      <g>
       <use style="stroke:#000000;" x="168.556128" xlink:href="#m70f2f244a1" y="143.28"/>
      </g>
     </g>
     <g id="text_10">
      <!-- $\mathdefault{0.4}$ -->
      <defs>
       <path d="M 32.328125 0 
L 32.328125 17.140625 
L 1.265625 17.140625 
L 1.265625 25.203125 
L 33.9375 71.578125 
L 41.109375 71.578125 
L 41.109375 25.203125 
L 50.78125 25.203125 
L 50.78125 17.140625 
L 41.109375 17.140625 
L 41.109375 0 
z
M 32.328125 25.203125 
L 32.328125 57.46875 
L 9.90625 25.203125 
z
" id="ArialMT-52"/>
      </defs>
      <g transform="translate(162.396128 261.798875)scale(0.088 -0.088)">
       <use transform="translate(0 0.125)" xlink:href="#ArialMT-48"/>
       <use transform="translate(55.615234 0.125)" xlink:href="#ArialMT-46"/>
       <use transform="translate(83.398438 0.125)" xlink:href="#ArialMT-52"/>
      </g>
     </g>
    </g>
    <g id="xtick_11">
     <g id="line2d_53">
      <g>
       <use style="stroke:#000000;" x="218.752159" xlink:href="#mf274785bfd" y="252"/>
      </g>
     </g>
     <g id="line2d_54">
      <g>
       <use style="stroke:#000000;" x="218.752159" xlink:href="#m70f2f244a1" y="143.28"/>
      </g>
     </g>
     <g id="text_11">
      <!-- $\mathdefault{0.6}$ -->
      <defs>
       <path d="M 49.75 54.046875 
L 41.015625 53.375 
Q 39.84375 58.546875 37.703125 60.890625 
Q 34.125 64.65625 28.90625 64.65625 
Q 24.703125 64.65625 21.53125 62.3125 
Q 17.390625 59.28125 14.984375 53.46875 
Q 12.59375 47.65625 12.5 36.921875 
Q 15.671875 41.75 20.265625 44.09375 
Q 24.859375 46.4375 29.890625 46.4375 
Q 38.671875 46.4375 44.84375 39.96875 
Q 51.03125 33.5 51.03125 23.25 
Q 51.03125 16.5 48.125 10.71875 
Q 45.21875 4.9375 40.140625 1.859375 
Q 35.0625 -1.21875 28.609375 -1.21875 
Q 17.625 -1.21875 10.6875 6.859375 
Q 3.765625 14.9375 3.765625 33.5 
Q 3.765625 54.25 11.421875 63.671875 
Q 18.109375 71.875 29.4375 71.875 
Q 37.890625 71.875 43.28125 67.140625 
Q 48.6875 62.40625 49.75 54.046875 
z
M 13.875 23.1875 
Q 13.875 18.65625 15.796875 14.5 
Q 17.71875 10.359375 21.1875 8.171875 
Q 24.65625 6 28.46875 6 
Q 34.03125 6 38.03125 10.484375 
Q 42.046875 14.984375 42.046875 22.703125 
Q 42.046875 30.125 38.078125 34.390625 
Q 34.125 38.671875 28.125 38.671875 
Q 22.171875 38.671875 18.015625 34.390625 
Q 13.875 30.125 13.875 23.1875 
z
" id="ArialMT-54"/>
      </defs>
      <g transform="translate(212.592159 261.798875)scale(0.088 -0.088)">
       <use transform="translate(0 0.125)" xlink:href="#ArialMT-48"/>
       <use transform="translate(55.615234 0.125)" xlink:href="#ArialMT-46"/>
       <use transform="translate(83.398438 0.125)" xlink:href="#ArialMT-54"/>
      </g>
     </g>
    </g>
    <g id="xtick_12">
     <g id="line2d_55">
      <g>
       <use style="stroke:#000000;" x="268.948191" xlink:href="#mf274785bfd" y="252"/>
      </g>
     </g>
     <g id="line2d_56">
      <g>
       <use style="stroke:#000000;" x="268.948191" xlink:href="#m70f2f244a1" y="143.28"/>
      </g>
     </g>
     <g id="text_12">
      <!-- $\mathdefault{0.8}$ -->
      <defs>
       <path d="M 17.671875 38.8125 
Q 12.203125 40.828125 9.5625 44.53125 
Q 6.9375 48.25 6.9375 53.421875 
Q 6.9375 61.234375 12.546875 66.546875 
Q 18.171875 71.875 27.484375 71.875 
Q 36.859375 71.875 42.578125 66.421875 
Q 48.296875 60.984375 48.296875 53.171875 
Q 48.296875 48.1875 45.671875 44.5 
Q 43.0625 40.828125 37.75 38.8125 
Q 44.34375 36.671875 47.78125 31.875 
Q 51.21875 27.09375 51.21875 20.453125 
Q 51.21875 11.28125 44.71875 5.03125 
Q 38.234375 -1.21875 27.640625 -1.21875 
Q 17.046875 -1.21875 10.546875 5.046875 
Q 4.046875 11.328125 4.046875 20.703125 
Q 4.046875 27.6875 7.59375 32.390625 
Q 11.140625 37.109375 17.671875 38.8125 
z
M 15.921875 53.71875 
Q 15.921875 48.640625 19.1875 45.40625 
Q 22.46875 42.1875 27.6875 42.1875 
Q 32.765625 42.1875 36.015625 45.375 
Q 39.265625 48.578125 39.265625 53.21875 
Q 39.265625 58.0625 35.90625 61.359375 
Q 32.5625 64.65625 27.59375 64.65625 
Q 22.5625 64.65625 19.234375 61.421875 
Q 15.921875 58.203125 15.921875 53.71875 
z
M 13.09375 20.65625 
Q 13.09375 16.890625 14.875 13.375 
Q 16.65625 9.859375 20.171875 7.921875 
Q 23.6875 6 27.734375 6 
Q 34.03125 6 38.125 10.046875 
Q 42.234375 14.109375 42.234375 20.359375 
Q 42.234375 26.703125 38.015625 30.859375 
Q 33.796875 35.015625 27.4375 35.015625 
Q 21.234375 35.015625 17.15625 30.90625 
Q 13.09375 26.8125 13.09375 20.65625 
z
" id="ArialMT-56"/>
      </defs>
      <g transform="translate(262.788191 261.798875)scale(0.088 -0.088)">
       <use transform="translate(0 0.125)" xlink:href="#ArialMT-48"/>
       <use transform="translate(55.615234 0.125)" xlink:href="#ArialMT-46"/>
       <use transform="translate(83.398438 0.125)" xlink:href="#ArialMT-56"/>
      </g>
     </g>
    </g>
    <g id="xtick_13">
     <g id="line2d_57">
      <g>
       <use style="stroke:#000000;" x="319.144222" xlink:href="#mf274785bfd" y="252"/>
      </g>
     </g>
     <g id="line2d_58">
      <g>
       <use style="stroke:#000000;" x="319.144222" xlink:href="#m70f2f244a1" y="143.28"/>
      </g>
     </g>
     <g id="text_13">
      <!-- $\mathdefault{1.0}$ -->
      <g transform="translate(312.984222 261.798875)scale(0.088 -0.088)">
       <use transform="translate(0 0.125)" xlink:href="#ArialMT-49"/>
       <use transform="translate(55.615234 0.125)" xlink:href="#ArialMT-46"/>
       <use transform="translate(83.398438 0.125)" xlink:href="#ArialMT-48"/>
      </g>
     </g>
    </g>
    <g id="xtick_14">
     <g id="line2d_59">
      <g>
       <use style="stroke:#000000;" x="369.340254" xlink:href="#mf274785bfd" y="252"/>
      </g>
     </g>
     <g id="line2d_60">
      <g>
       <use style="stroke:#000000;" x="369.340254" xlink:href="#m70f2f244a1" y="143.28"/>
      </g>
     </g>
     <g id="text_14">
      <!-- $\mathdefault{1.2}$ -->
      <g transform="translate(363.180254 261.798875)scale(0.088 -0.088)">
       <use transform="translate(0 0.125)" xlink:href="#ArialMT-49"/>
       <use transform="translate(55.615234 0.125)" xlink:href="#ArialMT-46"/>
       <use transform="translate(83.398438 0.125)" xlink:href="#ArialMT-50"/>
      </g>
     </g>
    </g>
    <g id="text_15">
     <!-- evaluations -->
     <defs>
      <path d="M 21 0 
L 1.265625 51.859375 
L 10.546875 51.859375 
L 21.6875 20.796875 
Q 23.484375 15.765625 25 10.359375 
Q 26.171875 14.453125 28.265625 20.21875 
L 39.796875 51.859375 
L 48.828125 51.859375 
L 29.203125 0 
z
" id="ArialMT-118"/>
      <path d="M 40.4375 6.390625 
Q 35.546875 2.25 31.03125 0.53125 
Q 26.515625 -1.171875 21.34375 -1.171875 
Q 12.796875 -1.171875 8.203125 3 
Q 3.609375 7.171875 3.609375 13.671875 
Q 3.609375 17.484375 5.34375 20.625 
Q 7.078125 23.78125 9.890625 25.6875 
Q 12.703125 27.59375 16.21875 28.5625 
Q 18.796875 29.25 24.03125 29.890625 
Q 34.671875 31.15625 39.703125 32.90625 
Q 39.75 34.71875 39.75 35.203125 
Q 39.75 40.578125 37.25 42.78125 
Q 33.890625 45.75 27.25 45.75 
Q 21.046875 45.75 18.09375 43.578125 
Q 15.140625 41.40625 13.71875 35.890625 
L 5.125 37.0625 
Q 6.296875 42.578125 8.984375 45.96875 
Q 11.671875 49.359375 16.75 51.1875 
Q 21.828125 53.03125 28.515625 53.03125 
Q 35.15625 53.03125 39.296875 51.46875 
Q 43.453125 49.90625 45.40625 47.53125 
Q 47.359375 45.171875 48.140625 41.546875 
Q 48.578125 39.3125 48.578125 33.453125 
L 48.578125 21.734375 
Q 48.578125 9.46875 49.140625 6.21875 
Q 49.703125 2.984375 51.375 0 
L 42.1875 0 
Q 40.828125 2.734375 40.4375 6.390625 
z
M 39.703125 26.03125 
Q 34.90625 24.078125 25.34375 22.703125 
Q 19.921875 21.921875 17.671875 20.9375 
Q 15.4375 19.96875 14.203125 18.09375 
Q 12.984375 16.21875 12.984375 13.921875 
Q 12.984375 10.40625 15.640625 8.0625 
Q 18.3125 5.71875 23.4375 5.71875 
Q 28.515625 5.71875 32.46875 7.9375 
Q 36.421875 10.15625 38.28125 14.015625 
Q 39.703125 17 39.703125 22.796875 
z
" id="ArialMT-97"/>
      <path d="M 6.390625 0 
L 6.390625 71.578125 
L 15.1875 71.578125 
L 15.1875 0 
z
" id="ArialMT-108"/>
      <path d="M 40.578125 0 
L 40.578125 7.625 
Q 34.515625 -1.171875 24.125 -1.171875 
Q 19.53125 -1.171875 15.546875 0.578125 
Q 11.578125 2.34375 9.640625 5 
Q 7.71875 7.671875 6.9375 11.53125 
Q 6.390625 14.109375 6.390625 19.734375 
L 6.390625 51.859375 
L 15.1875 51.859375 
L 15.1875 23.09375 
Q 15.1875 16.21875 15.71875 13.8125 
Q 16.546875 10.359375 19.234375 8.375 
Q 21.921875 6.390625 25.875 6.390625 
Q 29.828125 6.390625 33.296875 8.421875 
Q 36.765625 10.453125 38.203125 13.9375 
Q 39.65625 17.4375 39.65625 24.078125 
L 39.65625 51.859375 
L 48.4375 51.859375 
L 48.4375 0 
z
" id="ArialMT-117"/>
      <path d="M 3.328125 25.921875 
Q 3.328125 40.328125 11.328125 47.265625 
Q 18.015625 53.03125 27.640625 53.03125 
Q 38.328125 53.03125 45.109375 46.015625 
Q 51.90625 39.015625 51.90625 26.65625 
Q 51.90625 16.65625 48.90625 10.90625 
Q 45.90625 5.171875 40.15625 2 
Q 34.421875 -1.171875 27.640625 -1.171875 
Q 16.75 -1.171875 10.03125 5.8125 
Q 3.328125 12.796875 3.328125 25.921875 
z
M 12.359375 25.921875 
Q 12.359375 15.96875 16.703125 11.015625 
Q 21.046875 6.0625 27.640625 6.0625 
Q 34.1875 6.0625 38.53125 11.03125 
Q 42.875 16.015625 42.875 26.21875 
Q 42.875 35.84375 38.5 40.796875 
Q 34.125 45.75 27.640625 45.75 
Q 21.046875 45.75 16.703125 40.8125 
Q 12.359375 35.890625 12.359375 25.921875 
z
" id="ArialMT-111"/>
     </defs>
     <g transform="translate(197.118 274.419375)scale(0.096 -0.096)">
      <use xlink:href="#ArialMT-101"/>
      <use x="55.615234" xlink:href="#ArialMT-118"/>
      <use x="105.615234" xlink:href="#ArialMT-97"/>
      <use x="161.230469" xlink:href="#ArialMT-108"/>
      <use x="183.447266" xlink:href="#ArialMT-117"/>
      <use x="239.0625" xlink:href="#ArialMT-97"/>
      <use x="294.677734" xlink:href="#ArialMT-116"/>
      <use x="322.460938" xlink:href="#ArialMT-105"/>
      <use x="344.677734" xlink:href="#ArialMT-111"/>
      <use x="400.292969" xlink:href="#ArialMT-110"/>
      <use x="455.908203" xlink:href="#ArialMT-115"/>
     </g>
    </g>
    <g id="text_16">
     <!-- $\times\mathdefault{10^{4}}\mathdefault{}$ -->
     <defs>
      <path d="M 70.125 53.71875 
L 47.796875 31.296875 
L 70.125 8.984375 
L 64.3125 3.078125 
L 41.890625 25.484375 
L 19.484375 3.078125 
L 13.71875 8.984375 
L 35.984375 31.296875 
L 13.71875 53.71875 
L 19.484375 59.625 
L 41.890625 37.203125 
L 64.3125 59.625 
z
" id="DejaVuSans-215"/>
     </defs>
     <g transform="translate(367.592 275.534875)scale(0.088 -0.088)">
      <use transform="translate(0 0.201563)" xlink:href="#DejaVuSans-215"/>
      <use transform="translate(83.789062 0.201563)" xlink:href="#ArialMT-49"/>
      <use transform="translate(139.404297 0.201563)" xlink:href="#ArialMT-48"/>
      <use transform="translate(196.761875 69.895313)scale(0.7)" xlink:href="#ArialMT-52"/>
     </g>
    </g>
   </g>
   <g id="matplotlib.axis_4">
    <g id="ytick_11">
     <g id="line2d_61">
      <g>
       <use style="stroke:#000000;" x="54" xlink:href="#ma8af63f160" y="240.549414"/>
      </g>
     </g>
     <g id="line2d_62">
      <g>
       <use style="stroke:#000000;" x="388.8" xlink:href="#m752ed38b96" y="240.549414"/>
      </g>
     </g>
     <g id="text_17">
      <!-- 0.2 -->
      <g transform="translate(38.268 243.698852)scale(0.088 -0.088)">
       <use xlink:href="#ArialMT-48"/>
       <use x="55.615234" xlink:href="#ArialMT-46"/>
       <use x="83.398438" xlink:href="#ArialMT-50"/>
      </g>
     </g>
    </g>
    <g id="ytick_12">
     <g id="line2d_63">
      <g>
       <use style="stroke:#000000;" x="54" xlink:href="#ma8af63f160" y="222.111893"/>
      </g>
     </g>
     <g id="line2d_64">
      <g>
       <use style="stroke:#000000;" x="388.8" xlink:href="#m752ed38b96" y="222.111893"/>
      </g>
     </g>
     <g id="text_18">
      <!-- 0.4 -->
      <g transform="translate(38.268 225.261331)scale(0.088 -0.088)">
       <use xlink:href="#ArialMT-48"/>
       <use x="55.615234" xlink:href="#ArialMT-46"/>
       <use x="83.398438" xlink:href="#ArialMT-52"/>
      </g>
     </g>
    </g>
    <g id="ytick_13">
     <g id="line2d_65">
      <g>
       <use style="stroke:#000000;" x="54" xlink:href="#ma8af63f160" y="203.674372"/>
      </g>
     </g>
     <g id="line2d_66">
      <g>
       <use style="stroke:#000000;" x="388.8" xlink:href="#m752ed38b96" y="203.674372"/>
      </g>
     </g>
     <g id="text_19">
      <!-- 0.6 -->
      <g transform="translate(38.268 206.82381)scale(0.088 -0.088)">
       <use xlink:href="#ArialMT-48"/>
       <use x="55.615234" xlink:href="#ArialMT-46"/>
       <use x="83.398438" xlink:href="#ArialMT-54"/>
      </g>
     </g>
    </g>
    <g id="ytick_14">
     <g id="line2d_67">
      <g>
       <use style="stroke:#000000;" x="54" xlink:href="#ma8af63f160" y="185.236851"/>
      </g>
     </g>
     <g id="line2d_68">
      <g>
       <use style="stroke:#000000;" x="388.8" xlink:href="#m752ed38b96" y="185.236851"/>
      </g>
     </g>
     <g id="text_20">
      <!-- 0.8 -->
      <g transform="translate(38.268 188.386289)scale(0.088 -0.088)">
       <use xlink:href="#ArialMT-48"/>
       <use x="55.615234" xlink:href="#ArialMT-46"/>
       <use x="83.398438" xlink:href="#ArialMT-56"/>
      </g>
     </g>
    </g>
    <g id="ytick_15">
     <g id="line2d_69">
      <g>
       <use style="stroke:#000000;" x="54" xlink:href="#ma8af63f160" y="166.79933"/>
      </g>
     </g>
     <g id="line2d_70">
      <g>
       <use style="stroke:#000000;" x="388.8" xlink:href="#m752ed38b96" y="166.79933"/>
      </g>
     </g>
     <g id="text_21">
      <!-- 1.0 -->
      <g transform="translate(38.268 169.948768)scale(0.088 -0.088)">
       <use xlink:href="#ArialMT-49"/>
       <use x="55.615234" xlink:href="#ArialMT-46"/>
       <use x="83.398438" xlink:href="#ArialMT-48"/>
      </g>
     </g>
    </g>
    <g id="ytick_16">
     <g id="line2d_71">
      <g>
       <use style="stroke:#000000;" x="54" xlink:href="#ma8af63f160" y="148.361809"/>
      </g>
     </g>
     <g id="line2d_72">
      <g>
       <use style="stroke:#000000;" x="388.8" xlink:href="#m752ed38b96" y="148.361809"/>
      </g>
     </g>
     <g id="text_22">
      <!-- 1.2 -->
      <g transform="translate(38.268 151.511246)scale(0.088 -0.088)">
       <use xlink:href="#ArialMT-49"/>
       <use x="55.615234" xlink:href="#ArialMT-46"/>
       <use x="83.398438" xlink:href="#ArialMT-50"/>
      </g>
     </g>
    </g>
    <g id="text_23">
     <!-- $\beta$ -->
     <defs>
      <path d="M 13.625 3.375 
L 8.9375 -20.796875 
L -0.09375 -20.796875 
L 14.5 54.34375 
Q 18.84375 76.609375 39.65625 76.609375 
Q 60.75 76.609375 57.171875 57.8125 
Q 54.734375 44.4375 45.21875 39.546875 
Q 58.015625 35.15625 55.515625 22.125 
Q 51.125 -1.078125 27.484375 -1.03125 
Q 17.140625 -0.984375 13.625 3.375 
z
M 15.921875 15.09375 
Q 19.671875 6.59375 29.296875 6.640625 
Q 43.359375 6.640625 46.34375 21.96875 
Q 49.03125 35.75 26.171875 34.671875 
L 27.78125 42.96875 
Q 45.453125 42.671875 48.53125 58.59375 
Q 50.640625 69.34375 39.203125 69.28125 
Q 26.421875 69.28125 23.484375 54.046875 
z
" id="DejaVuSans-Oblique-946"/>
     </defs>
     <g transform="translate(32.252 200.712)rotate(-90)scale(0.096 -0.096)">
      <use transform="translate(0 0.390625)" xlink:href="#DejaVuSans-Oblique-946"/>
     </g>
    </g>
   </g>
   <g id="line2d_73">
    <path clip-path="url(#pfb43b5c379)" d="M 69.218182 178.709883 
L 69.770338 204.43977 
L 70.322495 213.502189 
L 70.874651 229.020788 
L 71.426807 240.11983 
L 71.978964 240.350994 
L 72.53112 234.420456 
L 73.083276 241.381953 
L 73.635433 240.591325 
L 74.187589 239.533149 
L 74.739745 242.838756 
L 75.291902 241.219506 
L 75.844058 241.898746 
L 76.396214 224.969811 
L 77.500527 235.239173 
L 78.052683 236.71978 
L 78.60484 234.797585 
L 79.156996 238.941425 
L 80.261309 231.257883 
L 80.813465 232.971098 
L 81.365621 235.35963 
L 81.917778 230.577691 
L 82.469934 233.070607 
L 83.574247 223.601448 
L 84.126403 229.309187 
L 84.678559 227.541659 
L 85.230716 229.450812 
L 85.782872 228.477499 
L 86.335029 232.855284 
L 86.887185 230.235833 
L 87.439341 223.077748 
L 87.991498 223.960953 
L 88.543654 229.340186 
L 89.09581 230.590127 
L 89.647967 236.995187 
L 90.200123 235.843672 
L 90.752279 231.174461 
L 91.304436 233.628127 
L 91.856592 229.972569 
L 92.408748 236.273117 
L 93.513061 220.106086 
L 94.065217 225.523071 
L 94.617374 221.036872 
L 95.16953 228.692699 
L 95.721686 231.121631 
L 96.273843 240.178559 
L 96.825999 239.733231 
L 97.378155 236.113635 
L 97.930312 220.298494 
L 98.482468 225.868331 
L 99.034624 225.916849 
L 99.586781 227.622549 
L 100.138937 235.905868 
L 100.691094 240.692981 
L 101.24325 233.345016 
L 101.795406 231.70041 
L 102.347563 227.630068 
L 102.899719 225.690232 
L 103.451875 225.880887 
L 104.004032 235.752086 
L 104.556188 229.266515 
L 105.108344 230.336711 
L 105.660501 235.460473 
L 106.212657 227.640783 
L 106.764813 226.459944 
L 107.31697 226.699655 
L 107.869126 214.249304 
L 108.421282 218.902616 
L 108.973439 225.024926 
L 109.525595 225.447808 
L 110.077751 212.601664 
L 110.629908 221.665764 
L 111.182064 219.916799 
L 111.73422 226.043963 
L 112.838533 216.801062 
L 113.390689 224.862325 
L 113.942846 225.415886 
L 114.495002 227.161033 
L 115.047158 230.8542 
L 115.599315 229.098991 
L 116.151471 228.65231 
L 116.703628 227.181556 
L 117.255784 221.647733 
L 117.80794 214.150622 
L 118.360097 212.927624 
L 118.912253 218.358049 
L 119.464409 232.708144 
L 120.016566 236.630883 
L 120.568722 233.033404 
L 121.120878 231.881056 
L 121.673035 231.012686 
L 122.225191 234.173841 
L 122.777347 233.305041 
L 123.329504 237.972637 
L 123.88166 234.134205 
L 124.433816 226.303755 
L 124.985973 220.248121 
L 126.090285 228.703445 
L 126.642442 225.9469 
L 127.194598 217.995203 
L 127.746754 229.908665 
L 128.851067 217.72162 
L 129.403223 216.617292 
L 129.95538 214.525589 
L 130.507536 217.655585 
L 131.059692 222.910139 
L 132.164005 223.585654 
L 132.716162 220.171704 
L 133.268318 223.515589 
L 133.820474 227.856167 
L 134.372631 230.245149 
L 134.924787 229.329484 
L 135.476943 223.159396 
L 136.0291 221.928098 
L 137.133412 229.506516 
L 137.685569 225.2397 
L 138.237725 228.444742 
L 138.789881 228.159093 
L 139.342038 224.161182 
L 139.894194 226.049662 
L 140.998507 238.736983 
L 141.550663 243.6435 
L 142.102819 238.269796 
L 142.654976 237.270435 
L 143.759288 238.044068 
L 144.311445 237.272815 
L 144.863601 234.457539 
L 145.415757 235.592609 
L 145.967914 238.480811 
L 146.52007 240.228048 
L 147.624383 230.688176 
L 148.176539 234.294664 
L 148.728696 233.98097 
L 149.280852 234.95492 
L 149.833008 233.448276 
L 150.385165 230.388001 
L 150.937321 233.724715 
L 151.489477 234.026783 
L 152.041634 226.548424 
L 152.59379 225.211384 
L 153.145946 233.471402 
L 153.698103 231.033695 
L 154.250259 235.460634 
L 154.802415 235.468028 
L 155.354572 224.637172 
L 155.906728 234.829483 
L 156.458884 237.960834 
L 157.011041 239.749391 
L 157.563197 237.299244 
L 158.115353 241.646079 
L 158.66751 241.951961 
L 159.219666 237.300252 
L 159.771822 239.558656 
L 160.323979 244.229179 
L 160.876135 208.952142 
L 161.428291 210.200035 
L 162.532604 233.386099 
L 163.084761 238.994024 
L 163.636917 238.992221 
L 164.189073 230.758344 
L 164.74123 235.29272 
L 165.293386 232.137707 
L 165.845542 230.333309 
L 166.397699 233.341973 
L 167.502011 243.799251 
L 168.054168 244.371993 
L 168.606324 245.205678 
L 169.15848 238.719103 
L 169.710637 242.356553 
L 170.262793 242.059337 
L 170.814949 237.13323 
L 171.367106 230.436396 
L 171.919262 226.494431 
L 172.471418 218.359514 
L 173.023575 219.346802 
L 173.575731 210.976271 
L 174.127887 220.650038 
L 174.680044 217.892023 
L 175.2322 213.505801 
L 175.784356 225.625851 
L 176.336513 230.580706 
L 176.888669 233.290286 
L 177.440826 227.302438 
L 177.992982 226.085848 
L 178.545138 231.189552 
L 179.097295 225.812116 
L 179.649451 230.605258 
L 180.201607 233.423658 
L 180.753764 218.934547 
L 181.30592 226.496762 
L 181.858076 220.211581 
L 182.410233 218.011191 
L 182.962389 230.463648 
L 183.514545 230.933572 
L 184.066702 232.294723 
L 184.618858 232.953205 
L 185.171014 233.05866 
L 185.723171 238.976158 
L 186.275327 232.596295 
L 186.827483 232.222491 
L 187.37964 231.617957 
L 187.931796 233.657146 
L 188.483952 224.255134 
L 189.588265 225.777076 
L 190.140421 227.110958 
L 190.692578 229.450255 
L 191.244734 226.201691 
L 191.79689 225.557245 
L 192.349047 223.796736 
L 192.901203 219.702518 
L 193.45336 221.223221 
L 194.005516 214.93115 
L 194.557672 223.469524 
L 195.109829 229.399985 
L 195.661985 229.712216 
L 196.214141 236.340248 
L 197.318454 221.846026 
L 197.87061 224.178847 
L 198.422767 224.443122 
L 198.974923 225.544743 
L 199.527079 227.52078 
L 200.079236 231.9527 
L 200.631392 230.213762 
L 201.183548 221.287513 
L 201.735705 210.007011 
L 202.287861 218.838075 
L 202.840017 211.061573 
L 203.392174 209.316431 
L 203.94433 217.464787 
L 204.496486 223.334976 
L 205.048643 225.633964 
L 205.600799 219.150285 
L 206.152955 228.660949 
L 206.705112 227.400776 
L 207.257268 231.905728 
L 207.809424 239.931548 
L 208.361581 244.640033 
L 208.913737 238.53112 
L 209.465894 244.561775 
L 210.01805 238.272659 
L 210.570206 233.48119 
L 211.122363 207.015664 
L 211.674519 206.728483 
L 212.226675 222.909394 
L 212.778832 232.474494 
L 213.330988 232.882259 
L 213.883144 231.929776 
L 214.435301 236.031216 
L 214.987457 235.075669 
L 215.539613 234.41063 
L 216.09177 223.703027 
L 216.643926 221.378073 
L 217.748239 236.301514 
L 218.852551 231.372392 
L 219.404708 232.487969 
L 219.956864 226.14209 
L 220.50902 231.066416 
L 221.061177 232.641766 
L 221.613333 231.442959 
L 222.165489 232.095758 
L 222.717646 231.870163 
L 223.269802 223.47152 
L 223.821959 229.709215 
L 224.374115 232.187874 
L 224.926271 231.943995 
L 225.478428 225.352125 
L 226.030584 227.838975 
L 226.58274 232.388089 
L 227.134897 230.72245 
L 227.687053 230.27917 
L 228.239209 220.174617 
L 228.791366 215.765025 
L 229.343522 216.526339 
L 229.895678 218.212476 
L 230.447835 223.626083 
L 230.999991 223.323767 
L 231.552147 220.421958 
L 232.104304 222.142501 
L 232.65646 215.565332 
L 233.760773 212.904481 
L 234.312929 218.678327 
L 234.865085 231.408946 
L 235.417242 230.393432 
L 235.969398 226.975938 
L 236.521554 230.067989 
L 237.073711 232.522214 
L 237.625867 232.361545 
L 238.178023 228.945185 
L 238.73018 233.131343 
L 239.282336 231.407679 
L 239.834493 222.410677 
L 240.386649 223.90767 
L 240.938805 232.088767 
L 241.490962 232.249304 
L 242.043118 232.626727 
L 242.595274 232.358702 
L 243.147431 236.724431 
L 243.699587 235.879888 
L 244.251743 241.082969 
L 244.8039 242.734155 
L 245.356056 242.198019 
L 245.908212 238.545437 
L 246.460369 240.014016 
L 247.012525 233.294577 
L 247.564681 229.216271 
L 248.116838 223.498789 
L 248.668994 222.732733 
L 249.22115 225.346746 
L 249.773307 223.249256 
L 250.325463 226.135262 
L 250.877619 226.169665 
L 251.178796 225.394374 
L 251.178796 225.394374 
" style="fill:none;stroke:#e8000b;stroke-linecap:round;stroke-width:1.2;"/>
   </g>
   <g id="line2d_74">
    <path clip-path="url(#pfb43b5c379)" d="M 69.218182 166.178822 
L 71.426807 166.178822 
L 71.978964 202.94192 
L 74.187589 202.94192 
L 74.739745 215.172944 
L 76.948371 215.172944 
L 77.500527 218.730135 
L 79.709152 218.730135 
L 80.261309 228.824916 
L 82.469934 228.824916 
L 83.02209 236.073289 
L 85.230716 236.073289 
L 85.782872 236.395629 
L 87.991498 236.395629 
L 88.543654 236.152981 
L 90.752279 236.152981 
L 91.304436 225.317985 
L 93.513061 225.317985 
L 94.065217 217.705301 
L 96.273843 217.705301 
L 96.825999 228.913289 
L 99.034624 228.913289 
L 99.586781 235.929491 
L 101.795406 235.929491 
L 102.347563 241.455027 
L 104.556188 241.455027 
L 105.108344 240.647675 
L 107.31697 240.647675 
L 107.869126 229.37102 
L 110.077751 229.37102 
L 110.629908 228.916412 
L 112.838533 228.916412 
L 113.390689 234.287513 
L 115.599315 234.287513 
L 116.151471 239.649044 
L 118.360097 239.649044 
L 118.912253 240.398182 
L 121.120878 240.398182 
L 121.673035 238.213061 
L 123.88166 238.213061 
L 124.433816 242.393468 
L 129.403223 242.374471 
L 129.95538 240.197955 
L 132.164005 240.197955 
L 132.716162 234.011783 
L 134.924787 234.011783 
L 135.476943 230.279208 
L 137.685569 230.279208 
L 138.237725 230.421701 
L 140.44635 230.421701 
L 140.998507 231.432504 
L 143.207132 231.432504 
L 143.759288 226.873539 
L 145.967914 226.873539 
L 146.52007 232.531292 
L 148.728696 232.531292 
L 149.280852 234.709065 
L 151.489477 234.709065 
L 152.041634 235.836456 
L 154.250259 235.836456 
L 154.802415 237.526552 
L 157.011041 237.526552 
L 157.563197 238.535098 
L 159.771822 238.535098 
L 160.323979 240.879135 
L 162.532604 240.879135 
L 163.084761 240.219148 
L 165.293386 240.219148 
L 165.845542 239.99638 
L 168.054168 239.99638 
L 168.606324 240.33994 
L 170.814949 240.33994 
L 171.367106 243.630024 
L 173.575731 243.630024 
L 174.127887 244.959838 
L 176.336513 244.959838 
L 176.888669 245.455325 
L 179.097295 245.455325 
L 179.649451 243.789695 
L 181.858076 243.789695 
L 182.410233 241.501774 
L 184.618858 241.501774 
L 185.171014 238.21598 
L 187.37964 238.21598 
L 187.931796 241.646189 
L 190.140421 241.646189 
L 190.692578 239.885915 
L 192.901203 239.885915 
L 193.45336 240.364714 
L 198.422767 240.267956 
L 198.974923 244.025969 
L 201.183548 244.025969 
L 201.735705 239.530007 
L 203.94433 239.530007 
L 204.496486 247.058182 
L 206.705112 247.058182 
L 207.257268 244.762392 
L 209.465894 244.762392 
L 210.01805 245.596291 
L 212.226675 245.596291 
L 212.778832 244.134615 
L 214.987457 244.134615 
L 215.539613 235.749685 
L 217.748239 235.749685 
L 218.300395 236.425615 
L 220.50902 236.425615 
L 221.061177 243.085406 
L 223.269802 243.085406 
L 223.821959 242.052038 
L 226.030584 242.052038 
L 226.58274 243.990281 
L 228.791366 243.990281 
L 229.343522 244.455471 
L 231.552147 244.455471 
L 232.104304 245.702969 
L 234.312929 245.702969 
L 234.865085 244.946927 
L 237.073711 244.946927 
L 237.625867 246.176332 
L 242.595274 246.208444 
L 243.147431 241.248436 
L 245.356056 241.248436 
L 245.908212 241.112975 
L 250.877619 241.182459 
L 251.429776 243.260064 
L 253.638401 243.260064 
L 254.190558 243.1169 
L 259.159965 243.139736 
L 259.712121 239.760353 
L 261.920746 239.760353 
L 262.472903 239.140708 
L 264.681528 239.140708 
L 265.233684 236.034136 
L 270.203092 236.052119 
L 270.755248 228.424848 
L 272.963873 228.424848 
L 273.51603 230.292848 
L 275.724655 230.292848 
L 276.276811 221.585809 
L 278.485437 221.585809 
L 279.037593 224.321261 
L 281.246218 224.321261 
L 281.798375 231.939968 
L 284.007 231.939968 
L 284.559157 235.588419 
L 286.767782 235.588419 
L 287.319938 240.668768 
L 289.528564 240.668768 
L 290.08072 236.090399 
L 292.289345 236.090399 
L 292.841502 237.164171 
L 295.050127 237.164171 
L 295.602283 235.64618 
L 297.810909 235.64618 
L 298.363065 229.337346 
L 300.571691 229.337346 
L 301.123847 233.254106 
L 303.332472 233.254106 
L 303.884629 229.300076 
L 306.093254 229.300076 
L 306.64541 230.306304 
L 308.854036 230.306304 
L 309.406192 232.103627 
L 311.614817 232.103627 
L 312.166974 238.517189 
L 314.375599 238.517189 
L 314.927755 234.415222 
L 317.136381 234.415222 
L 317.688537 236.967894 
L 319.897163 236.967894 
L 320.449319 229.143507 
L 322.657944 229.143507 
L 323.210101 231.081574 
L 325.418726 231.081574 
L 325.970882 223.933219 
L 328.179508 223.933219 
L 328.731664 235.725907 
L 330.94029 235.725907 
L 331.492446 233.973793 
L 333.701071 233.973793 
L 334.253228 237.986706 
L 334.830482 237.986706 
L 334.830482 237.986706 
" style="fill:none;stroke:#1ac938;stroke-linecap:round;stroke-width:1.2;"/>
   </g>
   <g id="line2d_75">
    <path clip-path="url(#pfb43b5c379)" d="M 69.218182 148.221818 
L 74.187589 148.221818 
L 74.739745 184.769868 
L 79.709152 184.769868 
L 80.261309 205.217805 
L 85.230716 205.217805 
L 85.782872 212.363974 
L 90.752279 212.363974 
L 91.304436 218.191896 
L 96.273843 218.191896 
L 96.825999 209.341328 
L 101.795406 209.341328 
L 102.347563 219.557591 
L 107.31697 219.557591 
L 107.869126 223.030129 
L 112.838533 223.030129 
L 113.390689 227.474036 
L 118.360097 227.474036 
L 118.912253 225.175169 
L 123.88166 225.175169 
L 124.433816 223.411736 
L 129.403223 223.411736 
L 129.95538 220.018166 
L 134.924787 220.018166 
L 135.476943 228.269762 
L 140.44635 228.269762 
L 140.998507 225.167627 
L 145.967914 225.167627 
L 146.52007 228.599022 
L 151.489477 228.599022 
L 152.041634 237.177745 
L 157.011041 237.177745 
L 157.563197 237.43656 
L 162.532604 237.43656 
L 163.084761 239.055477 
L 168.054168 239.055477 
L 168.606324 239.615811 
L 173.575731 239.615811 
L 174.127887 235.300046 
L 179.097295 235.300046 
L 179.649451 233.175029 
L 184.618858 233.175029 
L 185.171014 236.694713 
L 190.140421 236.694713 
L 190.692578 239.703753 
L 195.661985 239.703753 
L 196.214141 239.428231 
L 201.183548 239.428231 
L 201.735705 233.434791 
L 206.705112 233.434791 
L 207.257268 236.489978 
L 212.226675 236.489978 
L 212.778832 235.975259 
L 217.748239 235.975259 
L 218.300395 240.519204 
L 223.269802 240.519204 
L 223.821959 232.072582 
L 228.791366 232.072582 
L 229.343522 232.620592 
L 234.312929 232.620592 
L 234.865085 227.590196 
L 239.834493 227.590196 
L 240.386649 230.722899 
L 245.356056 230.722899 
L 245.908212 231.150099 
L 250.877619 231.150099 
L 251.429776 235.425909 
L 256.399183 235.425909 
L 256.951339 234.199731 
L 261.920746 234.199731 
L 262.472903 237.245178 
L 267.44231 237.245178 
L 267.994466 243.413424 
L 272.963873 243.413424 
L 273.51603 242.93735 
L 278.485437 242.93735 
L 279.037593 241.932197 
L 284.007 241.932197 
L 284.559157 245.021792 
L 289.528564 245.021792 
L 290.08072 237.003877 
L 295.050127 237.003877 
L 295.602283 237.806654 
L 300.571691 237.806654 
L 301.123847 238.834565 
L 306.093254 238.834565 
L 306.64541 238.591769 
L 311.614817 238.591769 
L 312.166974 229.815332 
L 317.136381 229.815332 
L 317.688537 231.344877 
L 322.657944 231.344877 
L 323.210101 236.04886 
L 328.179508 236.04886 
L 328.731664 238.113842 
L 333.701071 238.113842 
L 334.253228 228.843171 
L 339.222635 228.843171 
L 339.774791 234.400432 
L 344.744198 234.400432 
L 345.296354 230.671915 
L 350.265762 230.671915 
L 350.817918 236.176564 
L 355.787325 236.176564 
L 356.339481 237.639053 
L 361.308889 237.639053 
L 361.861045 240.219561 
L 366.830452 240.219561 
L 367.382608 233.701795 
L 372.352015 233.701795 
L 372.904172 240.073297 
L 373.581818 240.073297 
L 373.581818 240.073297 
" style="fill:none;stroke:#023eff;stroke-linecap:round;stroke-width:1.2;"/>
   </g>
   <g id="line2d_76">
    <path clip-path="url(#pfb43b5c379)" d="M 69.218182 169.878 
L 96.273843 169.878 
L 96.825999 198.055586 
L 123.88166 198.055586 
L 124.433816 209.396153 
L 151.489477 209.396153 
L 152.041634 209.71128 
L 179.097295 209.71128 
L 179.649451 214.84927 
L 206.705112 214.84927 
L 207.257268 220.403746 
L 234.312929 220.403746 
L 234.865085 225.039003 
L 261.920746 225.039003 
L 262.472903 222.353894 
L 270.253288 222.353894 
L 270.253288 222.353894 
" style="fill:none;stroke:#00d7ff;stroke-linecap:round;stroke-width:1.2;"/>
   </g>
   <g id="patch_10">
    <path d="M 54 252 
L 54 143.28 
" style="fill:none;stroke:#000000;stroke-linecap:square;stroke-linejoin:miter;"/>
   </g>
   <g id="patch_11">
    <path d="M 388.8 252 
L 388.8 143.28 
" style="fill:none;stroke:#000000;stroke-linecap:square;stroke-linejoin:miter;"/>
   </g>
   <g id="patch_12">
    <path d="M 54 252 
L 388.8 252 
" style="fill:none;stroke:#000000;stroke-linecap:square;stroke-linejoin:miter;"/>
   </g>
   <g id="patch_13">
    <path d="M 54 143.28 
L 388.8 143.28 
" style="fill:none;stroke:#000000;stroke-linecap:square;stroke-linejoin:miter;"/>
   </g>
  </g>
 </g>
 <defs>
  <clipPath id="pa3720fd805">
   <rect height="108.72" width="334.8" x="54" y="34.56"/>
  </clipPath>
  <clipPath id="pfb43b5c379">
   <rect height="108.72" width="334.8" x="54" y="143.28"/>
  </clipPath>
 </defs>
</svg>
