<?xml version="1.0" encoding="utf-8" standalone="no"?>
<!DOCTYPE svg PUBLIC "-//W3C//DTD SVG 1.1//EN"
  "http://www.w3.org/Graphics/SVG/1.1/DTD/svg11.dtd">
<!-- Created with matplotlib (https://matplotlib.org/) -->
<svg height="288pt" version="1.1" viewBox="0 0 432 288" width="432pt" xmlns="http://www.w3.org/2000/svg" xmlns:xlink="http://www.w3.org/1999/xlink">
 <defs>
  <style type="text/css">
*{stroke-linecap:butt;stroke-linejoin:round;}
  </style>
 </defs>
 <g id="figure_1">
  <g id="patch_1">
   <path d="M 0 288 
L 432 288 
L 432 0 
L 0 0 
z
" style="fill:#ffffff;"/>
  </g>
  <g id="axes_1">
   <g id="patch_2">
    <path d="M 54 88.92 
L 388.8 88.92 
L 388.8 34.56 
L 54 34.56 
z
" style="fill:#ffffff;"/>
   </g>
   <g id="matplotlib.axis_1">
    <g id="xtick_1">
     <g id="line2d_1">
      <defs>
       <path d="M 0 0 
L 0 -3 
" id="m09a78fb5b0" style="stroke:#000000;"/>
      </defs>
      <g>
       <use style="stroke:#000000;" x="63.475472" xlink:href="#m09a78fb5b0" y="88.92"/>
      </g>
     </g>
     <g id="line2d_2">
      <defs>
       <path d="M 0 0 
L 0 3 
" id="m65e2395de8" style="stroke:#000000;"/>
      </defs>
      <g>
       <use style="stroke:#000000;" x="63.475472" xlink:href="#m65e2395de8" y="34.56"/>
      </g>
     </g>
    </g>
    <g id="xtick_2">
     <g id="line2d_3">
      <g>
       <use style="stroke:#000000;" x="115.385909" xlink:href="#m09a78fb5b0" y="88.92"/>
      </g>
     </g>
     <g id="line2d_4">
      <g>
       <use style="stroke:#000000;" x="115.385909" xlink:href="#m65e2395de8" y="34.56"/>
      </g>
     </g>
    </g>
    <g id="xtick_3">
     <g id="line2d_5">
      <g>
       <use style="stroke:#000000;" x="167.296347" xlink:href="#m09a78fb5b0" y="88.92"/>
      </g>
     </g>
     <g id="line2d_6">
      <g>
       <use style="stroke:#000000;" x="167.296347" xlink:href="#m65e2395de8" y="34.56"/>
      </g>
     </g>
    </g>
    <g id="xtick_4">
     <g id="line2d_7">
      <g>
       <use style="stroke:#000000;" x="219.206784" xlink:href="#m09a78fb5b0" y="88.92"/>
      </g>
     </g>
     <g id="line2d_8">
      <g>
       <use style="stroke:#000000;" x="219.206784" xlink:href="#m65e2395de8" y="34.56"/>
      </g>
     </g>
    </g>
    <g id="xtick_5">
     <g id="line2d_9">
      <g>
       <use style="stroke:#000000;" x="271.117221" xlink:href="#m09a78fb5b0" y="88.92"/>
      </g>
     </g>
     <g id="line2d_10">
      <g>
       <use style="stroke:#000000;" x="271.117221" xlink:href="#m65e2395de8" y="34.56"/>
      </g>
     </g>
    </g>
    <g id="xtick_6">
     <g id="line2d_11">
      <g>
       <use style="stroke:#000000;" x="323.027659" xlink:href="#m09a78fb5b0" y="88.92"/>
      </g>
     </g>
     <g id="line2d_12">
      <g>
       <use style="stroke:#000000;" x="323.027659" xlink:href="#m65e2395de8" y="34.56"/>
      </g>
     </g>
    </g>
    <g id="xtick_7">
     <g id="line2d_13">
      <g>
       <use style="stroke:#000000;" x="374.938096" xlink:href="#m09a78fb5b0" y="88.92"/>
      </g>
     </g>
     <g id="line2d_14">
      <g>
       <use style="stroke:#000000;" x="374.938096" xlink:href="#m65e2395de8" y="34.56"/>
      </g>
     </g>
    </g>
   </g>
   <g id="matplotlib.axis_2">
    <g id="ytick_1">
     <g id="line2d_15">
      <defs>
       <path d="M 0 0 
L 3 0 
" id="m3f47e0c999" style="stroke:#000000;"/>
      </defs>
      <g>
       <use style="stroke:#000000;" x="54" xlink:href="#m3f47e0c999" y="76.84"/>
      </g>
     </g>
     <g id="line2d_16">
      <defs>
       <path d="M 0 0 
L -3 0 
" id="m566234d2d6" style="stroke:#000000;"/>
      </defs>
      <g>
       <use style="stroke:#000000;" x="388.8" xlink:href="#m566234d2d6" y="76.84"/>
      </g>
     </g>
     <g id="text_1">
      <!-- 0.5 -->
      <defs>
       <path d="M 4.15625 35.296875 
Q 4.15625 48 6.765625 55.734375 
Q 9.375 63.484375 14.515625 67.671875 
Q 19.671875 71.875 27.484375 71.875 
Q 33.25 71.875 37.59375 69.546875 
Q 41.9375 67.234375 44.765625 62.859375 
Q 47.609375 58.5 49.21875 52.21875 
Q 50.828125 45.953125 50.828125 35.296875 
Q 50.828125 22.703125 48.234375 14.96875 
Q 45.65625 7.234375 40.5 3 
Q 35.359375 -1.21875 27.484375 -1.21875 
Q 17.140625 -1.21875 11.234375 6.203125 
Q 4.15625 15.140625 4.15625 35.296875 
z
M 13.1875 35.296875 
Q 13.1875 17.671875 17.3125 11.828125 
Q 21.4375 6 27.484375 6 
Q 33.546875 6 37.671875 11.859375 
Q 41.796875 17.71875 41.796875 35.296875 
Q 41.796875 52.984375 37.671875 58.78125 
Q 33.546875 64.59375 27.390625 64.59375 
Q 21.34375 64.59375 17.71875 59.46875 
Q 13.1875 52.9375 13.1875 35.296875 
z
" id="ArialMT-48"/>
       <path d="M 9.078125 0 
L 9.078125 10.015625 
L 19.09375 10.015625 
L 19.09375 0 
z
" id="ArialMT-46"/>
       <path d="M 4.15625 18.75 
L 13.375 19.53125 
Q 14.40625 12.796875 18.140625 9.390625 
Q 21.875 6 27.15625 6 
Q 33.5 6 37.890625 10.78125 
Q 42.28125 15.578125 42.28125 23.484375 
Q 42.28125 31 38.0625 35.34375 
Q 33.84375 39.703125 27 39.703125 
Q 22.75 39.703125 19.328125 37.765625 
Q 15.921875 35.84375 13.96875 32.765625 
L 5.71875 33.84375 
L 12.640625 70.609375 
L 48.25 70.609375 
L 48.25 62.203125 
L 19.671875 62.203125 
L 15.828125 42.96875 
Q 22.265625 47.46875 29.34375 47.46875 
Q 38.71875 47.46875 45.15625 40.96875 
Q 51.609375 34.46875 51.609375 24.265625 
Q 51.609375 14.546875 45.953125 7.46875 
Q 39.0625 -1.21875 27.15625 -1.21875 
Q 17.390625 -1.21875 11.203125 4.25 
Q 5.03125 9.71875 4.15625 18.75 
z
" id="ArialMT-53"/>
      </defs>
      <g transform="translate(38.268 79.989438)scale(0.088 -0.088)">
       <use xlink:href="#ArialMT-48"/>
       <use x="55.615234" xlink:href="#ArialMT-46"/>
       <use x="83.398438" xlink:href="#ArialMT-53"/>
      </g>
     </g>
    </g>
    <g id="ytick_2">
     <g id="line2d_17">
      <g>
       <use style="stroke:#000000;" x="54" xlink:href="#m3f47e0c999" y="61.74"/>
      </g>
     </g>
     <g id="line2d_18">
      <g>
       <use style="stroke:#000000;" x="388.8" xlink:href="#m566234d2d6" y="61.74"/>
      </g>
     </g>
     <g id="text_2">
      <!-- 1.0 -->
      <defs>
       <path d="M 37.25 0 
L 28.46875 0 
L 28.46875 56 
Q 25.296875 52.984375 20.140625 49.953125 
Q 14.984375 46.921875 10.890625 45.40625 
L 10.890625 53.90625 
Q 18.265625 57.375 23.78125 62.296875 
Q 29.296875 67.234375 31.59375 71.875 
L 37.25 71.875 
z
" id="ArialMT-49"/>
      </defs>
      <g transform="translate(38.268 64.889438)scale(0.088 -0.088)">
       <use xlink:href="#ArialMT-49"/>
       <use x="55.615234" xlink:href="#ArialMT-46"/>
       <use x="83.398438" xlink:href="#ArialMT-48"/>
      </g>
     </g>
    </g>
    <g id="ytick_3">
     <g id="line2d_19">
      <g>
       <use style="stroke:#000000;" x="54" xlink:href="#m3f47e0c999" y="46.64"/>
      </g>
     </g>
     <g id="line2d_20">
      <g>
       <use style="stroke:#000000;" x="388.8" xlink:href="#m566234d2d6" y="46.64"/>
      </g>
     </g>
     <g id="text_3">
      <!-- 1.5 -->
      <g transform="translate(38.268 49.789438)scale(0.088 -0.088)">
       <use xlink:href="#ArialMT-49"/>
       <use x="55.615234" xlink:href="#ArialMT-46"/>
       <use x="83.398438" xlink:href="#ArialMT-53"/>
      </g>
     </g>
    </g>
    <g id="text_4">
     <!-- $\beta$ -->
     <defs>
      <path d="M 13.625 3.375 
L 8.9375 -20.796875 
L -0.09375 -20.796875 
L 14.5 54.34375 
Q 18.84375 76.609375 39.65625 76.609375 
Q 60.75 76.609375 57.171875 57.8125 
Q 54.734375 44.4375 45.21875 39.546875 
Q 58.015625 35.15625 55.515625 22.125 
Q 51.125 -1.078125 27.484375 -1.03125 
Q 17.140625 -0.984375 13.625 3.375 
z
M 15.921875 15.09375 
Q 19.671875 6.59375 29.296875 6.640625 
Q 43.359375 6.640625 46.34375 21.96875 
Q 49.03125 35.75 26.171875 34.671875 
L 27.78125 42.96875 
Q 45.453125 42.671875 48.53125 58.59375 
Q 50.640625 69.34375 39.203125 69.28125 
Q 26.421875 69.28125 23.484375 54.046875 
z
" id="DejaVuSans-Oblique-946"/>
     </defs>
     <g transform="translate(32.252 64.812)rotate(-90)scale(0.096 -0.096)">
      <use transform="translate(0 0.390625)" xlink:href="#DejaVuSans-Oblique-946"/>
     </g>
    </g>
   </g>
   <g id="line2d_21">
    <path clip-path="url(#p25501161bb)" d="M 64.565591 65.641812 
L 65.136606 74.070739 
L 65.707621 77.039522 
L 66.278635 82.123305 
L 66.84965 85.759271 
L 67.420665 85.834999 
L 67.99168 83.892197 
L 68.562695 86.172734 
L 69.704724 85.567079 
L 70.275739 86.649972 
L 70.846754 86.119517 
L 71.417769 86.342031 
L 71.988783 80.796233 
L 73.130813 84.160403 
L 73.701828 84.645439 
L 74.272843 84.015742 
L 74.843857 85.373234 
L 75.985887 82.856161 
L 76.556902 83.417398 
L 77.127917 84.199864 
L 77.698932 82.633335 
L 78.269946 83.449996 
L 79.411976 80.347967 
L 79.982991 82.217782 
L 80.554006 81.638752 
L 81.12502 82.264177 
L 81.696035 81.945327 
L 82.26705 83.379458 
L 82.838065 82.521344 
L 83.40908 80.176407 
L 83.980094 80.465739 
L 84.551109 82.227937 
L 85.122124 82.637409 
L 85.693139 84.735661 
L 86.264154 84.358433 
L 86.835169 82.828832 
L 87.406183 83.632636 
L 87.977198 82.435101 
L 88.548213 84.499116 
L 89.690243 79.202912 
L 90.261257 80.977477 
L 90.832272 79.507831 
L 91.403287 82.015825 
L 91.974302 82.811526 
L 92.545317 85.77851 
L 93.116331 85.632624 
L 93.687346 84.44687 
L 94.258361 79.265943 
L 94.829376 81.090582 
L 95.400391 81.106476 
L 95.971406 81.665251 
L 96.54242 84.378807 
L 97.113435 85.947031 
L 97.68445 83.539891 
L 98.255465 83.001129 
L 98.82648 81.667714 
L 99.397494 81.032238 
L 99.968509 81.094695 
L 100.539524 84.32843 
L 101.110539 82.203803 
L 101.681554 82.554391 
L 102.252568 84.232899 
L 102.823583 81.671225 
L 103.394598 81.28439 
L 103.965613 81.362918 
L 104.536628 77.284272 
L 105.107643 78.808664 
L 105.678657 80.814289 
L 106.249672 80.952822 
L 106.820687 76.744517 
L 107.391702 79.713851 
L 107.962717 79.140903 
L 108.533731 81.148118 
L 109.675761 78.12021 
L 110.246776 80.761022 
L 110.817791 80.942364 
L 111.388805 81.514062 
L 111.95982 82.723917 
L 112.530835 82.148923 
L 113.10185 82.002594 
L 113.672865 81.520785 
L 114.24388 79.707944 
L 114.814894 77.251945 
L 115.385909 76.851299 
L 115.956924 78.630267 
L 116.527939 83.331256 
L 117.098954 84.616317 
L 117.669968 83.437809 
L 118.811998 82.775836 
L 119.383013 83.811408 
L 119.954028 83.526795 
L 120.525042 85.055866 
L 121.096057 83.798423 
L 121.667072 81.233224 
L 122.238087 79.249441 
L 123.380117 82.019345 
L 123.951131 81.116321 
L 124.522146 78.511402 
L 125.093161 82.414167 
L 126.235191 78.421778 
L 126.806205 78.060008 
L 127.37722 77.374781 
L 127.948235 78.400145 
L 128.51925 80.1215 
L 129.661279 80.342794 
L 130.232294 79.224408 
L 130.803309 80.319841 
L 131.374324 81.741783 
L 131.945339 82.524396 
L 132.516353 82.224431 
L 133.087368 80.203154 
L 133.658383 79.79979 
L 134.800413 82.282425 
L 135.371428 80.884647 
L 135.942442 81.934596 
L 136.513457 81.841019 
L 137.084472 80.531332 
L 137.655487 81.149985 
L 138.797516 85.306261 
L 139.368531 86.9136 
L 139.939546 85.153213 
L 140.510561 84.82583 
L 141.65259 85.079267 
L 142.223605 84.826609 
L 142.79462 83.904345 
L 143.365635 84.276186 
L 143.93665 85.22234 
L 144.507665 85.794723 
L 145.649694 82.669529 
L 146.220709 83.850988 
L 146.791724 83.748225 
L 147.362739 84.067284 
L 147.933753 83.573718 
L 148.504768 82.571194 
L 149.075783 83.664277 
L 149.646798 83.763233 
L 150.217813 81.313376 
L 150.788827 80.875371 
L 151.359842 83.581294 
L 151.930857 82.782719 
L 152.501872 84.232952 
L 153.072887 84.235374 
L 153.643902 80.687263 
L 154.214916 84.026191 
L 154.785931 85.052 
L 155.356946 85.637918 
L 155.927961 84.835267 
L 156.498976 86.25926 
L 157.06999 86.359464 
L 157.641005 84.835598 
L 158.21202 85.575435 
L 158.783035 87.105465 
L 159.35405 75.54896 
L 159.925064 75.95776 
L 161.067094 83.553349 
L 161.638109 85.390465 
L 162.209124 85.389875 
L 162.780139 82.692515 
L 163.351153 84.177945 
L 163.922168 83.144385 
L 164.493183 82.553277 
L 165.064198 83.538894 
L 166.206227 86.964623 
L 167.348257 87.425359 
L 167.919272 85.300403 
L 168.490287 86.492006 
L 169.061301 86.39464 
L 169.632316 84.780883 
L 170.203331 82.587048 
L 170.774346 81.295688 
L 171.345361 78.630747 
L 171.916376 78.954176 
L 172.48739 76.21205 
L 173.058405 79.381107 
L 173.62942 78.477601 
L 174.200435 77.040706 
L 174.77145 81.011148 
L 175.342464 82.634323 
L 175.913479 83.521962 
L 176.484494 81.560385 
L 177.055509 81.161839 
L 177.626524 82.833776 
L 178.197538 81.072167 
L 178.768553 82.642366 
L 179.339568 83.565653 
L 179.910583 78.819124 
L 180.481598 81.296452 
L 181.052612 79.237471 
L 181.623627 78.516639 
L 182.194642 82.595975 
L 182.765657 82.749919 
L 183.336672 83.195822 
L 183.907687 83.411536 
L 184.478701 83.446082 
L 185.049716 85.384612 
L 185.620731 83.294615 
L 186.762761 82.974118 
L 187.333775 83.642142 
L 187.90479 80.56211 
L 189.04682 81.060688 
L 189.617835 81.497658 
L 190.188849 82.263995 
L 190.759864 81.199789 
L 191.330879 80.988673 
L 191.901894 80.411942 
L 192.472909 79.070706 
L 193.043924 79.568877 
L 193.614938 77.50764 
L 194.185953 80.30475 
L 194.756968 82.247527 
L 195.327983 82.349811 
L 195.898998 84.521107 
L 197.041027 79.772904 
L 197.612042 80.537119 
L 198.183057 80.623694 
L 198.754072 80.984577 
L 199.325086 81.631913 
L 199.896101 83.083778 
L 200.467116 82.514114 
L 201.038131 79.589939 
L 201.609146 75.894527 
L 202.180161 78.787521 
L 202.751175 76.239994 
L 203.32219 75.668298 
L 203.893205 78.337641 
L 204.46422 80.260673 
L 205.035235 81.013805 
L 205.606249 78.889798 
L 206.177264 82.005424 
L 206.748279 81.5926 
L 207.319294 83.06839 
L 207.890309 85.697591 
L 208.461323 87.240057 
L 209.032338 85.238821 
L 209.603353 87.214421 
L 210.174368 85.154151 
L 210.745383 83.5845 
L 211.316398 74.914583 
L 211.887412 74.820505 
L 212.458427 80.121256 
L 213.029442 83.254714 
L 213.600457 83.388295 
L 214.171472 83.076268 
L 214.742486 84.419871 
L 215.884516 83.888978 
L 216.455531 80.381244 
L 217.026546 79.619606 
L 218.168575 84.508418 
L 219.310605 82.893673 
L 219.88162 83.259128 
L 220.452635 81.180264 
L 221.023649 82.793438 
L 221.594664 83.309511 
L 222.165679 82.91679 
L 222.736694 83.130643 
L 223.307709 83.056739 
L 223.878723 80.305404 
L 224.449738 82.348828 
L 225.020753 83.160819 
L 225.591768 83.080926 
L 226.162783 80.921477 
L 226.733797 81.736151 
L 227.304812 83.226408 
L 227.875827 82.680757 
L 228.446842 82.535541 
L 229.017857 79.225362 
L 229.588872 77.780811 
L 230.159886 78.030212 
L 230.730901 78.582579 
L 231.301916 80.356038 
L 231.872931 80.257001 
L 232.443946 79.306389 
L 233.01496 79.870027 
L 233.585975 77.715393 
L 234.728005 76.843718 
L 235.29902 78.735188 
L 235.870034 82.905648 
L 236.441049 82.572973 
L 237.012064 81.453426 
L 238.154094 83.270346 
L 238.725108 83.217713 
L 239.296123 82.098538 
L 239.867138 83.469893 
L 240.438153 82.905233 
L 241.009168 79.957879 
L 241.580183 80.448283 
L 242.151197 83.128352 
L 243.864242 83.216781 
L 244.435257 84.646963 
L 245.006271 84.370297 
L 245.577286 86.074789 
L 246.148301 86.615705 
L 246.719316 86.440071 
L 247.290331 85.243511 
L 247.861345 85.724607 
L 248.43236 83.523367 
L 249.003375 82.187343 
L 249.57439 80.314337 
L 250.145405 80.063383 
L 250.71642 80.919714 
L 251.287434 80.232592 
L 251.858449 81.178027 
L 252.429464 81.189297 
L 252.740927 80.935317 
L 252.740927 80.935317 
" style="fill:none;stroke:#e8000b;stroke-linecap:round;stroke-width:1.2;"/>
   </g>
   <g id="patch_3">
    <path d="M 54 88.92 
L 54 34.56 
" style="fill:none;stroke:#000000;stroke-linecap:square;stroke-linejoin:miter;"/>
   </g>
   <g id="patch_4">
    <path d="M 388.8 88.92 
L 388.8 34.56 
" style="fill:none;stroke:#000000;stroke-linecap:square;stroke-linejoin:miter;"/>
   </g>
   <g id="patch_5">
    <path d="M 54 88.92 
L 388.8 88.92 
" style="fill:none;stroke:#000000;stroke-linecap:square;stroke-linejoin:miter;"/>
   </g>
   <g id="patch_6">
    <path d="M 54 34.56 
L 388.8 34.56 
" style="fill:none;stroke:#000000;stroke-linecap:square;stroke-linejoin:miter;"/>
   </g>
   <g id="text_5">
    <!-- Periodic -->
    <defs>
     <path d="M 7.71875 0 
L 7.71875 71.578125 
L 34.71875 71.578125 
Q 41.84375 71.578125 45.609375 70.90625 
Q 50.875 70.015625 54.4375 67.546875 
Q 58.015625 65.09375 60.1875 60.640625 
Q 62.359375 56.203125 62.359375 50.875 
Q 62.359375 41.75 56.546875 35.421875 
Q 50.734375 29.109375 35.546875 29.109375 
L 17.1875 29.109375 
L 17.1875 0 
z
M 17.1875 37.546875 
L 35.6875 37.546875 
Q 44.875 37.546875 48.734375 40.96875 
Q 52.59375 44.390625 52.59375 50.59375 
Q 52.59375 55.078125 50.3125 58.265625 
Q 48.046875 61.46875 44.34375 62.5 
Q 41.9375 63.140625 35.5 63.140625 
L 17.1875 63.140625 
z
" id="ArialMT-80"/>
     <path d="M 42.09375 16.703125 
L 51.171875 15.578125 
Q 49.03125 7.625 43.21875 3.21875 
Q 37.40625 -1.171875 28.375 -1.171875 
Q 17 -1.171875 10.328125 5.828125 
Q 3.65625 12.84375 3.65625 25.484375 
Q 3.65625 38.578125 10.390625 45.796875 
Q 17.140625 53.03125 27.875 53.03125 
Q 38.28125 53.03125 44.875 45.953125 
Q 51.46875 38.875 51.46875 26.03125 
Q 51.46875 25.25 51.421875 23.6875 
L 12.75 23.6875 
Q 13.234375 15.140625 17.578125 10.59375 
Q 21.921875 6.0625 28.421875 6.0625 
Q 33.25 6.0625 36.671875 8.59375 
Q 40.09375 11.140625 42.09375 16.703125 
z
M 13.234375 30.90625 
L 42.1875 30.90625 
Q 41.609375 37.453125 38.875 40.71875 
Q 34.671875 45.796875 27.984375 45.796875 
Q 21.921875 45.796875 17.796875 41.75 
Q 13.671875 37.703125 13.234375 30.90625 
z
" id="ArialMT-101"/>
     <path d="M 6.5 0 
L 6.5 51.859375 
L 14.40625 51.859375 
L 14.40625 44 
Q 17.4375 49.515625 20 51.265625 
Q 22.5625 53.03125 25.640625 53.03125 
Q 30.078125 53.03125 34.671875 50.203125 
L 31.640625 42.046875 
Q 28.421875 43.953125 25.203125 43.953125 
Q 22.3125 43.953125 20.015625 42.21875 
Q 17.71875 40.484375 16.75 37.40625 
Q 15.28125 32.71875 15.28125 27.15625 
L 15.28125 0 
z
" id="ArialMT-114"/>
     <path d="M 6.640625 61.46875 
L 6.640625 71.578125 
L 15.4375 71.578125 
L 15.4375 61.46875 
z
M 6.640625 0 
L 6.640625 51.859375 
L 15.4375 51.859375 
L 15.4375 0 
z
" id="ArialMT-105"/>
     <path d="M 3.328125 25.921875 
Q 3.328125 40.328125 11.328125 47.265625 
Q 18.015625 53.03125 27.640625 53.03125 
Q 38.328125 53.03125 45.109375 46.015625 
Q 51.90625 39.015625 51.90625 26.65625 
Q 51.90625 16.65625 48.90625 10.90625 
Q 45.90625 5.171875 40.15625 2 
Q 34.421875 -1.171875 27.640625 -1.171875 
Q 16.75 -1.171875 10.03125 5.8125 
Q 3.328125 12.796875 3.328125 25.921875 
z
M 12.359375 25.921875 
Q 12.359375 15.96875 16.703125 11.015625 
Q 21.046875 6.0625 27.640625 6.0625 
Q 34.1875 6.0625 38.53125 11.03125 
Q 42.875 16.015625 42.875 26.21875 
Q 42.875 35.84375 38.5 40.796875 
Q 34.125 45.75 27.640625 45.75 
Q 21.046875 45.75 16.703125 40.8125 
Q 12.359375 35.890625 12.359375 25.921875 
z
" id="ArialMT-111"/>
     <path d="M 40.234375 0 
L 40.234375 6.546875 
Q 35.296875 -1.171875 25.734375 -1.171875 
Q 19.53125 -1.171875 14.328125 2.25 
Q 9.125 5.671875 6.265625 11.796875 
Q 3.421875 17.921875 3.421875 25.875 
Q 3.421875 33.640625 6 39.96875 
Q 8.59375 46.296875 13.765625 49.65625 
Q 18.953125 53.03125 25.34375 53.03125 
Q 30.03125 53.03125 33.6875 51.046875 
Q 37.359375 49.078125 39.65625 45.90625 
L 39.65625 71.578125 
L 48.390625 71.578125 
L 48.390625 0 
z
M 12.453125 25.875 
Q 12.453125 15.921875 16.640625 10.984375 
Q 20.84375 6.0625 26.5625 6.0625 
Q 32.328125 6.0625 36.34375 10.765625 
Q 40.375 15.484375 40.375 25.140625 
Q 40.375 35.796875 36.265625 40.765625 
Q 32.171875 45.75 26.171875 45.75 
Q 20.3125 45.75 16.375 40.96875 
Q 12.453125 36.1875 12.453125 25.875 
z
" id="ArialMT-100"/>
     <path d="M 40.4375 19 
L 49.078125 17.875 
Q 47.65625 8.9375 41.8125 3.875 
Q 35.984375 -1.171875 27.484375 -1.171875 
Q 16.84375 -1.171875 10.375 5.78125 
Q 3.90625 12.75 3.90625 25.734375 
Q 3.90625 34.125 6.6875 40.421875 
Q 9.46875 46.734375 15.15625 49.875 
Q 20.84375 53.03125 27.546875 53.03125 
Q 35.984375 53.03125 41.359375 48.75 
Q 46.734375 44.484375 48.25 36.625 
L 39.703125 35.296875 
Q 38.484375 40.53125 35.375 43.15625 
Q 32.28125 45.796875 27.875 45.796875 
Q 21.234375 45.796875 17.078125 41.03125 
Q 12.9375 36.28125 12.9375 25.984375 
Q 12.9375 15.53125 16.9375 10.796875 
Q 20.953125 6.0625 27.390625 6.0625 
Q 32.5625 6.0625 36.03125 9.234375 
Q 39.5 12.40625 40.4375 19 
z
" id="ArialMT-99"/>
    </defs>
    <g transform="translate(204.05925 28.56)scale(0.096 -0.096)">
     <use xlink:href="#ArialMT-80"/>
     <use x="66.699219" xlink:href="#ArialMT-101"/>
     <use x="122.314453" xlink:href="#ArialMT-114"/>
     <use x="155.615234" xlink:href="#ArialMT-105"/>
     <use x="177.832031" xlink:href="#ArialMT-111"/>
     <use x="233.447266" xlink:href="#ArialMT-100"/>
     <use x="289.0625" xlink:href="#ArialMT-105"/>
     <use x="311.279297" xlink:href="#ArialMT-99"/>
    </g>
   </g>
   <g id="legend_1">
    <g id="patch_7">
     <path d="M 337.824 57.064 
L 384.64 57.064 
Q 386.4 57.064 386.4 55.304 
L 386.4 42.72 
Q 386.4 40.96 384.64 40.96 
L 337.824 40.96 
Q 336.064 40.96 336.064 42.72 
L 336.064 55.304 
Q 336.064 57.064 337.824 57.064 
z
" style="fill:#4c4c4c;opacity:0.5;stroke:#4c4c4c;stroke-linejoin:miter;stroke-width:0.8;"/>
    </g>
    <g id="patch_8">
     <path d="M 335.824 55.064 
L 382.64 55.064 
Q 384.4 55.064 384.4 53.304 
L 384.4 40.72 
Q 384.4 38.96 382.64 38.96 
L 335.824 38.96 
Q 334.064 38.96 334.064 40.72 
L 334.064 53.304 
Q 334.064 55.064 335.824 55.064 
z
" style="fill:#ffffff;stroke:#000000;stroke-linejoin:miter;stroke-width:0.8;"/>
    </g>
    <g id="line2d_22">
     <path d="M 337.584 45.736 
L 344.624 45.736 
" style="fill:none;stroke:#e8000b;stroke-linecap:round;stroke-width:1.2;"/>
    </g>
    <g id="line2d_23"/>
    <g id="text_6">
     <!-- $n_{step}$=1 -->
     <defs>
      <path d="M 55.71875 33.015625 
L 49.3125 0 
L 40.28125 0 
L 46.6875 32.671875 
Q 47.125 34.96875 47.359375 36.71875 
Q 47.609375 38.484375 47.609375 39.5 
Q 47.609375 43.609375 45.015625 45.890625 
Q 42.4375 48.1875 37.796875 48.1875 
Q 30.5625 48.1875 25.34375 43.375 
Q 20.125 38.578125 18.5 30.328125 
L 12.5 0 
L 3.515625 0 
L 14.109375 54.6875 
L 23.09375 54.6875 
L 21.296875 46.09375 
Q 25.046875 50.828125 30.3125 53.40625 
Q 35.59375 56 41.40625 56 
Q 48.640625 56 52.609375 52.09375 
Q 56.59375 48.1875 56.59375 41.109375 
Q 56.59375 39.359375 56.375 37.359375 
Q 56.15625 35.359375 55.71875 33.015625 
z
" id="DejaVuSans-Oblique-110"/>
      <path d="M 50 53.078125 
L 48.296875 44.578125 
Q 44.734375 46.53125 40.765625 47.5 
Q 36.8125 48.484375 32.625 48.484375 
Q 25.53125 48.484375 21.453125 46.0625 
Q 17.390625 43.65625 17.390625 39.5 
Q 17.390625 34.671875 26.859375 32.078125 
Q 27.59375 31.890625 27.9375 31.78125 
L 30.8125 30.90625 
Q 39.796875 28.421875 42.796875 25.6875 
Q 45.796875 22.953125 45.796875 18.21875 
Q 45.796875 9.515625 38.890625 4.046875 
Q 31.984375 -1.421875 20.796875 -1.421875 
Q 16.453125 -1.421875 11.671875 -0.578125 
Q 6.890625 0.25 1.125 2 
L 2.875 11.28125 
Q 7.8125 8.734375 12.59375 7.421875 
Q 17.390625 6.109375 21.78125 6.109375 
Q 28.375 6.109375 32.5 8.9375 
Q 36.625 11.765625 36.625 16.109375 
Q 36.625 20.796875 25.78125 23.6875 
L 24.859375 23.921875 
L 21.78125 24.703125 
Q 14.9375 26.515625 11.765625 29.46875 
Q 8.59375 32.421875 8.59375 37.015625 
Q 8.59375 45.75 15.15625 50.875 
Q 21.734375 56 33.015625 56 
Q 37.453125 56 41.671875 55.265625 
Q 45.90625 54.546875 50 53.078125 
z
" id="DejaVuSans-Oblique-115"/>
      <path d="M 42.28125 54.6875 
L 40.921875 47.703125 
L 23 47.703125 
L 17.1875 18.015625 
Q 16.890625 16.359375 16.75 15.234375 
Q 16.609375 14.109375 16.609375 13.484375 
Q 16.609375 10.359375 18.484375 8.9375 
Q 20.359375 7.515625 24.515625 7.515625 
L 33.59375 7.515625 
L 32.078125 0 
L 23.484375 0 
Q 15.484375 0 11.546875 3.125 
Q 7.625 6.25 7.625 12.59375 
Q 7.625 13.71875 7.765625 15.0625 
Q 7.90625 16.40625 8.203125 18.015625 
L 14.015625 47.703125 
L 6.390625 47.703125 
L 7.8125 54.6875 
L 15.28125 54.6875 
L 18.3125 70.21875 
L 27.296875 70.21875 
L 24.3125 54.6875 
z
" id="DejaVuSans-Oblique-116"/>
      <path d="M 48.09375 32.234375 
Q 48.25 33.015625 48.3125 33.84375 
Q 48.390625 34.671875 48.390625 35.5 
Q 48.390625 41.453125 44.890625 44.921875 
Q 41.40625 48.390625 35.40625 48.390625 
Q 28.71875 48.390625 23.578125 44.15625 
Q 18.453125 39.9375 15.828125 32.171875 
z
M 55.90625 25.203125 
L 14.109375 25.203125 
Q 13.8125 23.34375 13.71875 22.265625 
Q 13.625 21.1875 13.625 20.40625 
Q 13.625 13.625 17.796875 9.90625 
Q 21.96875 6.203125 29.59375 6.203125 
Q 35.453125 6.203125 40.671875 7.515625 
Q 45.90625 8.84375 50.390625 11.375 
L 48.6875 2.484375 
Q 43.84375 0.53125 38.6875 -0.4375 
Q 33.546875 -1.421875 28.21875 -1.421875 
Q 16.84375 -1.421875 10.71875 4.015625 
Q 4.59375 9.46875 4.59375 19.484375 
Q 4.59375 28.03125 7.640625 35.375 
Q 10.6875 42.71875 16.609375 48.484375 
Q 20.40625 52.09375 25.65625 54.046875 
Q 30.90625 56 36.8125 56 
Q 46.09375 56 51.578125 50.4375 
Q 57.078125 44.875 57.078125 35.5 
Q 57.078125 33.25 56.78125 30.6875 
Q 56.5 28.125 55.90625 25.203125 
z
" id="DejaVuSans-Oblique-101"/>
      <path d="M 49.609375 33.6875 
Q 49.609375 40.875 46.484375 44.671875 
Q 43.359375 48.484375 37.5 48.484375 
Q 33.5 48.484375 29.859375 46.4375 
Q 26.21875 44.390625 23.390625 40.484375 
Q 20.609375 36.625 18.9375 31.15625 
Q 17.28125 25.6875 17.28125 20.3125 
Q 17.28125 13.484375 20.40625 9.796875 
Q 23.53125 6.109375 29.296875 6.109375 
Q 33.546875 6.109375 37.1875 8.109375 
Q 40.828125 10.109375 43.40625 13.921875 
Q 46.1875 17.921875 47.890625 23.34375 
Q 49.609375 28.765625 49.609375 33.6875 
z
M 21.78125 46.390625 
Q 25.390625 51.125 30.296875 53.5625 
Q 35.203125 56 41.21875 56 
Q 49.609375 56 54.25 50.5 
Q 58.890625 45.015625 58.890625 35.109375 
Q 58.890625 27 56 19.65625 
Q 53.125 12.3125 47.703125 6.5 
Q 44.09375 2.640625 39.546875 0.609375 
Q 35.015625 -1.421875 29.984375 -1.421875 
Q 24.171875 -1.421875 20.21875 1 
Q 16.265625 3.421875 14.3125 8.203125 
L 8.6875 -20.796875 
L -0.296875 -20.796875 
L 14.40625 54.6875 
L 23.390625 54.6875 
z
" id="DejaVuSans-Oblique-112"/>
      <path d="M 52.828125 42.09375 
L 5.5625 42.09375 
L 5.5625 50.296875 
L 52.828125 50.296875 
z
M 52.828125 20.359375 
L 5.5625 20.359375 
L 5.5625 28.5625 
L 52.828125 28.5625 
z
" id="ArialMT-61"/>
     </defs>
     <g transform="translate(351.664 48.816)scale(0.088 -0.088)">
      <use transform="translate(0 0.125)" xlink:href="#DejaVuSans-Oblique-110"/>
      <use transform="translate(63.378906 -16.28125)scale(0.7)" xlink:href="#DejaVuSans-Oblique-115"/>
      <use transform="translate(99.848633 -16.28125)scale(0.7)" xlink:href="#DejaVuSans-Oblique-116"/>
      <use transform="translate(127.294922 -16.28125)scale(0.7)" xlink:href="#DejaVuSans-Oblique-101"/>
      <use transform="translate(170.361328 -16.28125)scale(0.7)" xlink:href="#DejaVuSans-Oblique-112"/>
      <use transform="translate(217.529297 0.125)" xlink:href="#ArialMT-61"/>
      <use transform="translate(275.927734 0.125)" xlink:href="#ArialMT-49"/>
     </g>
    </g>
   </g>
  </g>
  <g id="axes_2">
   <g id="patch_9">
    <path d="M 54 143.28 
L 388.8 143.28 
L 388.8 88.92 
L 54 88.92 
z
" style="fill:#ffffff;"/>
   </g>
   <g id="matplotlib.axis_3">
    <g id="xtick_8">
     <g id="line2d_24">
      <g>
       <use style="stroke:#000000;" x="63.475472" xlink:href="#m09a78fb5b0" y="143.28"/>
      </g>
     </g>
     <g id="line2d_25">
      <g>
       <use style="stroke:#000000;" x="63.475472" xlink:href="#m65e2395de8" y="88.92"/>
      </g>
     </g>
    </g>
    <g id="xtick_9">
     <g id="line2d_26">
      <g>
       <use style="stroke:#000000;" x="115.385909" xlink:href="#m09a78fb5b0" y="143.28"/>
      </g>
     </g>
     <g id="line2d_27">
      <g>
       <use style="stroke:#000000;" x="115.385909" xlink:href="#m65e2395de8" y="88.92"/>
      </g>
     </g>
    </g>
    <g id="xtick_10">
     <g id="line2d_28">
      <g>
       <use style="stroke:#000000;" x="167.296347" xlink:href="#m09a78fb5b0" y="143.28"/>
      </g>
     </g>
     <g id="line2d_29">
      <g>
       <use style="stroke:#000000;" x="167.296347" xlink:href="#m65e2395de8" y="88.92"/>
      </g>
     </g>
    </g>
    <g id="xtick_11">
     <g id="line2d_30">
      <g>
       <use style="stroke:#000000;" x="219.206784" xlink:href="#m09a78fb5b0" y="143.28"/>
      </g>
     </g>
     <g id="line2d_31">
      <g>
       <use style="stroke:#000000;" x="219.206784" xlink:href="#m65e2395de8" y="88.92"/>
      </g>
     </g>
    </g>
    <g id="xtick_12">
     <g id="line2d_32">
      <g>
       <use style="stroke:#000000;" x="271.117221" xlink:href="#m09a78fb5b0" y="143.28"/>
      </g>
     </g>
     <g id="line2d_33">
      <g>
       <use style="stroke:#000000;" x="271.117221" xlink:href="#m65e2395de8" y="88.92"/>
      </g>
     </g>
    </g>
    <g id="xtick_13">
     <g id="line2d_34">
      <g>
       <use style="stroke:#000000;" x="323.027659" xlink:href="#m09a78fb5b0" y="143.28"/>
      </g>
     </g>
     <g id="line2d_35">
      <g>
       <use style="stroke:#000000;" x="323.027659" xlink:href="#m65e2395de8" y="88.92"/>
      </g>
     </g>
    </g>
    <g id="xtick_14">
     <g id="line2d_36">
      <g>
       <use style="stroke:#000000;" x="374.938096" xlink:href="#m09a78fb5b0" y="143.28"/>
      </g>
     </g>
     <g id="line2d_37">
      <g>
       <use style="stroke:#000000;" x="374.938096" xlink:href="#m65e2395de8" y="88.92"/>
      </g>
     </g>
    </g>
   </g>
   <g id="matplotlib.axis_4">
    <g id="ytick_4">
     <g id="line2d_38">
      <g>
       <use style="stroke:#000000;" x="54" xlink:href="#m3f47e0c999" y="131.2"/>
      </g>
     </g>
     <g id="line2d_39">
      <g>
       <use style="stroke:#000000;" x="388.8" xlink:href="#m566234d2d6" y="131.2"/>
      </g>
     </g>
     <g id="text_7">
      <!-- 0.5 -->
      <g transform="translate(38.268 134.349438)scale(0.088 -0.088)">
       <use xlink:href="#ArialMT-48"/>
       <use x="55.615234" xlink:href="#ArialMT-46"/>
       <use x="83.398438" xlink:href="#ArialMT-53"/>
      </g>
     </g>
    </g>
    <g id="ytick_5">
     <g id="line2d_40">
      <g>
       <use style="stroke:#000000;" x="54" xlink:href="#m3f47e0c999" y="116.1"/>
      </g>
     </g>
     <g id="line2d_41">
      <g>
       <use style="stroke:#000000;" x="388.8" xlink:href="#m566234d2d6" y="116.1"/>
      </g>
     </g>
     <g id="text_8">
      <!-- 1.0 -->
      <g transform="translate(38.268 119.249438)scale(0.088 -0.088)">
       <use xlink:href="#ArialMT-49"/>
       <use x="55.615234" xlink:href="#ArialMT-46"/>
       <use x="83.398438" xlink:href="#ArialMT-48"/>
      </g>
     </g>
    </g>
    <g id="ytick_6">
     <g id="line2d_42">
      <g>
       <use style="stroke:#000000;" x="54" xlink:href="#m3f47e0c999" y="101"/>
      </g>
     </g>
     <g id="line2d_43">
      <g>
       <use style="stroke:#000000;" x="388.8" xlink:href="#m566234d2d6" y="101"/>
      </g>
     </g>
     <g id="text_9">
      <!-- 1.5 -->
      <g transform="translate(38.268 104.149438)scale(0.088 -0.088)">
       <use xlink:href="#ArialMT-49"/>
       <use x="55.615234" xlink:href="#ArialMT-46"/>
       <use x="83.398438" xlink:href="#ArialMT-53"/>
      </g>
     </g>
    </g>
    <g id="text_10">
     <!-- $\beta$ -->
     <g transform="translate(32.252 119.172)rotate(-90)scale(0.096 -0.096)">
      <use transform="translate(0 0.390625)" xlink:href="#DejaVuSans-Oblique-946"/>
     </g>
    </g>
   </g>
   <g id="line2d_44">
    <path clip-path="url(#p90b36fdb18)" d="M 64.565591 115.896726 
L 66.84965 115.896726 
L 67.420665 127.940054 
L 69.704724 127.940054 
L 70.275739 131.94685 
L 72.559798 131.94685 
L 73.130813 133.11216 
L 75.414872 133.11216 
L 75.985887 136.419138 
L 78.269946 136.419138 
L 78.840961 138.793653 
L 86.835169 138.81976 
L 87.406183 135.270293 
L 89.690243 135.270293 
L 90.261257 132.776432 
L 92.545317 132.776432 
L 93.116331 136.448089 
L 95.400391 136.448089 
L 95.971406 138.746546 
L 98.255465 138.746546 
L 98.82648 140.556672 
L 101.110539 140.556672 
L 101.681554 140.29219 
L 103.965613 140.29219 
L 104.536628 136.598038 
L 106.820687 136.598038 
L 107.391702 136.449112 
L 109.675761 136.449112 
L 110.246776 138.208646 
L 112.530835 138.208646 
L 113.10185 139.965045 
L 115.385909 139.965045 
L 115.956924 140.210458 
L 118.240983 140.210458 
L 118.811998 139.494627 
L 121.096057 139.494627 
L 121.667072 140.864099 
L 126.806205 140.857875 
L 127.37722 140.144864 
L 129.661279 140.144864 
L 130.232294 138.118319 
L 132.516353 138.118319 
L 133.087368 136.895554 
L 138.226502 136.942234 
L 138.797516 137.273365 
L 141.081576 137.273365 
L 141.65259 135.779881 
L 143.93665 135.779881 
L 144.507665 137.633321 
L 146.791724 137.633321 
L 147.362739 138.346743 
L 149.646798 138.346743 
L 150.217813 138.716068 
L 152.501872 138.716068 
L 153.072887 139.269732 
L 155.356946 139.269732 
L 155.927961 139.600124 
L 158.21202 139.600124 
L 158.783035 140.368014 
L 161.067094 140.368014 
L 161.638109 140.151807 
L 169.632316 140.191378 
L 170.203331 141.269186 
L 172.48739 141.269186 
L 173.058405 141.704823 
L 175.342464 141.704823 
L 175.913479 141.867141 
L 178.197538 141.867141 
L 178.768553 141.321493 
L 181.052612 141.321493 
L 181.623627 140.571986 
L 183.907687 140.571986 
L 184.478701 139.495584 
L 186.762761 139.495584 
L 187.333775 140.619296 
L 189.617835 140.619296 
L 190.188849 140.042642 
L 192.472909 140.042642 
L 193.043924 140.199493 
L 198.183057 140.167796 
L 198.754072 141.398894 
L 201.038131 141.398894 
L 201.609146 139.926049 
L 203.893205 139.926049 
L 204.46422 142.392226 
L 206.748279 142.392226 
L 207.319294 141.640141 
L 209.603353 141.640141 
L 210.174368 141.913321 
L 212.458427 141.913321 
L 213.029442 141.434486 
L 215.313501 141.434486 
L 215.884516 138.687643 
L 218.168575 138.687643 
L 218.73959 138.909073 
L 221.023649 138.909073 
L 221.594664 141.090773 
L 223.878723 141.090773 
L 224.449738 140.752249 
L 226.733797 140.752249 
L 227.304812 141.387203 
L 229.588872 141.387203 
L 230.159886 141.539596 
L 232.443946 141.539596 
L 233.01496 141.948268 
L 235.29902 141.948268 
L 235.870034 141.700594 
L 238.154094 141.700594 
L 238.725108 142.103338 
L 243.864242 142.113857 
L 244.435257 140.488995 
L 252.429464 140.467381 
L 253.000479 141.147989 
L 260.994686 141.108571 
L 261.565701 140.001509 
L 263.84976 140.001509 
L 264.420775 139.798518 
L 266.704834 139.798518 
L 267.275849 138.780827 
L 272.414982 138.786718 
L 272.985997 136.288079 
L 275.270056 136.288079 
L 275.841071 136.900022 
L 278.125131 136.900022 
L 278.696145 134.047659 
L 280.980205 134.047659 
L 281.551219 134.943773 
L 283.835279 134.943773 
L 284.406293 137.439607 
L 286.690353 137.439607 
L 287.261368 138.634813 
L 289.545427 138.634813 
L 290.116442 140.299099 
L 292.400501 140.299099 
L 292.971516 138.799258 
L 295.255575 138.799258 
L 295.82659 139.151018 
L 298.110649 139.151018 
L 298.681664 138.653736 
L 300.965723 138.653736 
L 301.536738 136.587007 
L 303.820797 136.587007 
L 304.391812 137.870109 
L 306.675871 137.870109 
L 307.246886 136.574797 
L 309.530945 136.574797 
L 310.10196 136.90443 
L 312.386019 136.90443 
L 312.957034 137.49322 
L 315.241093 137.49322 
L 315.812108 139.594257 
L 318.096167 139.594257 
L 318.667182 138.250482 
L 320.951241 138.250482 
L 321.522256 139.08672 
L 323.806315 139.08672 
L 324.37733 136.523506 
L 326.66139 136.523506 
L 327.232404 137.158403 
L 329.516464 137.158403 
L 330.087478 134.816653 
L 332.371538 134.816653 
L 332.942552 138.679854 
L 335.226612 138.679854 
L 335.797627 138.105873 
L 338.081686 138.105873 
L 338.652701 139.420475 
L 339.249671 139.420475 
L 339.249671 139.420475 
" style="fill:none;stroke:#1ac938;stroke-linecap:round;stroke-width:1.2;"/>
   </g>
   <g id="patch_10">
    <path d="M 54 143.28 
L 54 88.92 
" style="fill:none;stroke:#000000;stroke-linecap:square;stroke-linejoin:miter;"/>
   </g>
   <g id="patch_11">
    <path d="M 388.8 143.28 
L 388.8 88.92 
" style="fill:none;stroke:#000000;stroke-linecap:square;stroke-linejoin:miter;"/>
   </g>
   <g id="patch_12">
    <path d="M 54 143.28 
L 388.8 143.28 
" style="fill:none;stroke:#000000;stroke-linecap:square;stroke-linejoin:miter;"/>
   </g>
   <g id="patch_13">
    <path d="M 54 88.92 
L 388.8 88.92 
" style="fill:none;stroke:#000000;stroke-linecap:square;stroke-linejoin:miter;"/>
   </g>
   <g id="legend_2">
    <g id="patch_14">
     <path d="M 337.824 111.386875 
L 384.64 111.386875 
Q 386.4 111.386875 386.4 109.626875 
L 386.4 97.08 
Q 386.4 95.32 384.64 95.32 
L 337.824 95.32 
Q 336.064 95.32 336.064 97.08 
L 336.064 109.626875 
Q 336.064 111.386875 337.824 111.386875 
z
" style="fill:#4c4c4c;opacity:0.5;stroke:#4c4c4c;stroke-linejoin:miter;stroke-width:0.8;"/>
    </g>
    <g id="patch_15">
     <path d="M 335.824 109.386875 
L 382.64 109.386875 
Q 384.4 109.386875 384.4 107.626875 
L 384.4 95.08 
Q 384.4 93.32 382.64 93.32 
L 335.824 93.32 
Q 334.064 93.32 334.064 95.08 
L 334.064 107.626875 
Q 334.064 109.386875 335.824 109.386875 
z
" style="fill:#ffffff;stroke:#000000;stroke-linejoin:miter;stroke-width:0.8;"/>
    </g>
    <g id="line2d_45">
     <path d="M 337.584 100.058875 
L 344.624 100.058875 
" style="fill:none;stroke:#1ac938;stroke-linecap:round;stroke-width:1.2;"/>
    </g>
    <g id="line2d_46"/>
    <g id="text_11">
     <!-- $n_{step}$=5 -->
     <g transform="translate(351.664 103.138875)scale(0.088 -0.088)">
      <use transform="translate(0 0.390625)" xlink:href="#DejaVuSans-Oblique-110"/>
      <use transform="translate(63.378906 -16.015625)scale(0.7)" xlink:href="#DejaVuSans-Oblique-115"/>
      <use transform="translate(99.848633 -16.015625)scale(0.7)" xlink:href="#DejaVuSans-Oblique-116"/>
      <use transform="translate(127.294922 -16.015625)scale(0.7)" xlink:href="#DejaVuSans-Oblique-101"/>
      <use transform="translate(170.361328 -16.015625)scale(0.7)" xlink:href="#DejaVuSans-Oblique-112"/>
      <use transform="translate(217.529297 0.390625)" xlink:href="#ArialMT-61"/>
      <use transform="translate(275.927734 0.390625)" xlink:href="#ArialMT-53"/>
     </g>
    </g>
   </g>
  </g>
  <g id="axes_3">
   <g id="patch_16">
    <path d="M 54 197.64 
L 388.8 197.64 
L 388.8 143.28 
L 54 143.28 
z
" style="fill:#ffffff;"/>
   </g>
   <g id="matplotlib.axis_5">
    <g id="xtick_15">
     <g id="line2d_47">
      <g>
       <use style="stroke:#000000;" x="63.475472" xlink:href="#m09a78fb5b0" y="197.64"/>
      </g>
     </g>
     <g id="line2d_48">
      <g>
       <use style="stroke:#000000;" x="63.475472" xlink:href="#m65e2395de8" y="143.28"/>
      </g>
     </g>
    </g>
    <g id="xtick_16">
     <g id="line2d_49">
      <g>
       <use style="stroke:#000000;" x="115.385909" xlink:href="#m09a78fb5b0" y="197.64"/>
      </g>
     </g>
     <g id="line2d_50">
      <g>
       <use style="stroke:#000000;" x="115.385909" xlink:href="#m65e2395de8" y="143.28"/>
      </g>
     </g>
    </g>
    <g id="xtick_17">
     <g id="line2d_51">
      <g>
       <use style="stroke:#000000;" x="167.296347" xlink:href="#m09a78fb5b0" y="197.64"/>
      </g>
     </g>
     <g id="line2d_52">
      <g>
       <use style="stroke:#000000;" x="167.296347" xlink:href="#m65e2395de8" y="143.28"/>
      </g>
     </g>
    </g>
    <g id="xtick_18">
     <g id="line2d_53">
      <g>
       <use style="stroke:#000000;" x="219.206784" xlink:href="#m09a78fb5b0" y="197.64"/>
      </g>
     </g>
     <g id="line2d_54">
      <g>
       <use style="stroke:#000000;" x="219.206784" xlink:href="#m65e2395de8" y="143.28"/>
      </g>
     </g>
    </g>
    <g id="xtick_19">
     <g id="line2d_55">
      <g>
       <use style="stroke:#000000;" x="271.117221" xlink:href="#m09a78fb5b0" y="197.64"/>
      </g>
     </g>
     <g id="line2d_56">
      <g>
       <use style="stroke:#000000;" x="271.117221" xlink:href="#m65e2395de8" y="143.28"/>
      </g>
     </g>
    </g>
    <g id="xtick_20">
     <g id="line2d_57">
      <g>
       <use style="stroke:#000000;" x="323.027659" xlink:href="#m09a78fb5b0" y="197.64"/>
      </g>
     </g>
     <g id="line2d_58">
      <g>
       <use style="stroke:#000000;" x="323.027659" xlink:href="#m65e2395de8" y="143.28"/>
      </g>
     </g>
    </g>
    <g id="xtick_21">
     <g id="line2d_59">
      <g>
       <use style="stroke:#000000;" x="374.938096" xlink:href="#m09a78fb5b0" y="197.64"/>
      </g>
     </g>
     <g id="line2d_60">
      <g>
       <use style="stroke:#000000;" x="374.938096" xlink:href="#m65e2395de8" y="143.28"/>
      </g>
     </g>
    </g>
   </g>
   <g id="matplotlib.axis_6">
    <g id="ytick_7">
     <g id="line2d_61">
      <g>
       <use style="stroke:#000000;" x="54" xlink:href="#m3f47e0c999" y="185.56"/>
      </g>
     </g>
     <g id="line2d_62">
      <g>
       <use style="stroke:#000000;" x="388.8" xlink:href="#m566234d2d6" y="185.56"/>
      </g>
     </g>
     <g id="text_12">
      <!-- 0.5 -->
      <g transform="translate(38.268 188.709438)scale(0.088 -0.088)">
       <use xlink:href="#ArialMT-48"/>
       <use x="55.615234" xlink:href="#ArialMT-46"/>
       <use x="83.398438" xlink:href="#ArialMT-53"/>
      </g>
     </g>
    </g>
    <g id="ytick_8">
     <g id="line2d_63">
      <g>
       <use style="stroke:#000000;" x="54" xlink:href="#m3f47e0c999" y="170.46"/>
      </g>
     </g>
     <g id="line2d_64">
      <g>
       <use style="stroke:#000000;" x="388.8" xlink:href="#m566234d2d6" y="170.46"/>
      </g>
     </g>
     <g id="text_13">
      <!-- 1.0 -->
      <g transform="translate(38.268 173.609438)scale(0.088 -0.088)">
       <use xlink:href="#ArialMT-49"/>
       <use x="55.615234" xlink:href="#ArialMT-46"/>
       <use x="83.398438" xlink:href="#ArialMT-48"/>
      </g>
     </g>
    </g>
    <g id="ytick_9">
     <g id="line2d_65">
      <g>
       <use style="stroke:#000000;" x="54" xlink:href="#m3f47e0c999" y="155.36"/>
      </g>
     </g>
     <g id="line2d_66">
      <g>
       <use style="stroke:#000000;" x="388.8" xlink:href="#m566234d2d6" y="155.36"/>
      </g>
     </g>
     <g id="text_14">
      <!-- 1.5 -->
      <g transform="translate(38.268 158.509438)scale(0.088 -0.088)">
       <use xlink:href="#ArialMT-49"/>
       <use x="55.615234" xlink:href="#ArialMT-46"/>
       <use x="83.398438" xlink:href="#ArialMT-53"/>
      </g>
     </g>
    </g>
    <g id="text_15">
     <!-- $\beta$ -->
     <g transform="translate(32.252 173.532)rotate(-90)scale(0.096 -0.096)">
      <use transform="translate(0 0.390625)" xlink:href="#DejaVuSans-Oblique-946"/>
     </g>
    </g>
   </g>
   <g id="line2d_67">
    <path clip-path="url(#p127ff7fede)" d="M 64.565591 164.37414 
L 69.704724 164.37414 
L 70.275739 176.34702 
L 75.414872 176.34702 
L 75.985887 183.045618 
L 81.12502 183.045618 
L 81.696035 185.386651 
L 86.835169 185.386651 
L 87.406183 187.295837 
L 92.545317 187.295837 
L 93.116331 184.396454 
L 98.255465 184.396454 
L 98.82648 187.743229 
L 103.965613 187.743229 
L 104.536628 188.880807 
L 109.675761 188.880807 
L 110.246776 190.3366 
L 115.385909 190.3366 
L 115.956924 189.583507 
L 121.096057 189.583507 
L 121.667072 189.005819 
L 126.806205 189.005819 
L 127.37722 187.89411 
L 132.516353 187.89411 
L 133.087368 190.597274 
L 138.226502 190.597274 
L 138.797516 189.581037 
L 143.93665 189.581037 
L 144.507665 190.705137 
L 149.646798 190.705137 
L 150.217813 193.515465 
L 161.067094 193.600251 
L 161.638109 194.130597 
L 166.777242 194.130597 
L 167.348257 194.314158 
L 172.48739 194.314158 
L 173.058405 192.900344 
L 178.197538 192.900344 
L 178.768553 192.204204 
L 183.907687 192.204204 
L 184.478701 193.357228 
L 189.617835 193.357228 
L 190.188849 194.342967 
L 201.038131 194.252708 
L 201.609146 192.2893 
L 206.748279 192.2893 
L 207.319294 193.290158 
L 212.458427 193.290158 
L 213.029442 193.121539 
L 218.168575 193.121539 
L 218.73959 194.610103 
L 223.878723 194.610103 
L 224.449738 191.84305 
L 229.588872 191.84305 
L 230.159886 192.022574 
L 235.29902 192.022574 
L 235.870034 190.374653 
L 241.009168 190.374653 
L 241.580183 191.400904 
L 246.719316 191.400904 
L 247.290331 191.540852 
L 252.429464 191.540852 
L 253.000479 192.941576 
L 258.139612 192.941576 
L 258.710627 192.539889 
L 263.84976 192.539889 
L 264.420775 193.537556 
L 269.559908 193.537556 
L 270.130923 195.558229 
L 275.270056 195.558229 
L 275.841071 195.40227 
L 280.980205 195.40227 
L 281.551219 195.07299 
L 286.690353 195.07299 
L 287.261368 196.085119 
L 292.400501 196.085119 
L 292.971516 193.458507 
L 298.110649 193.458507 
L 298.681664 193.721491 
L 303.820797 193.721491 
L 304.391812 194.058228 
L 315.241093 193.978689 
L 315.812108 191.103591 
L 320.951241 191.103591 
L 321.522256 191.604659 
L 326.66139 191.604659 
L 327.232404 193.145651 
L 332.371538 193.145651 
L 332.942552 193.822124 
L 338.081686 193.822124 
L 338.652701 190.785118 
L 343.791834 190.785118 
L 344.362849 192.605637 
L 349.501982 192.605637 
L 350.072997 191.384202 
L 355.21213 191.384202 
L 355.783145 193.187486 
L 360.922278 193.187486 
L 361.493293 193.666586 
L 366.632426 193.666586 
L 367.203441 194.511942 
L 372.342574 194.511942 
L 372.913589 192.376769 
L 378.052723 192.376769 
L 378.623737 194.464028 
L 379.324528 194.464028 
L 379.324528 194.464028 
" style="fill:none;stroke:#023eff;stroke-linecap:round;stroke-width:1.2;"/>
   </g>
   <g id="patch_17">
    <path d="M 54 197.64 
L 54 143.28 
" style="fill:none;stroke:#000000;stroke-linecap:square;stroke-linejoin:miter;"/>
   </g>
   <g id="patch_18">
    <path d="M 388.8 197.64 
L 388.8 143.28 
" style="fill:none;stroke:#000000;stroke-linecap:square;stroke-linejoin:miter;"/>
   </g>
   <g id="patch_19">
    <path d="M 54 197.64 
L 388.8 197.64 
" style="fill:none;stroke:#000000;stroke-linecap:square;stroke-linejoin:miter;"/>
   </g>
   <g id="patch_20">
    <path d="M 54 143.28 
L 388.8 143.28 
" style="fill:none;stroke:#000000;stroke-linecap:square;stroke-linejoin:miter;"/>
   </g>
   <g id="legend_3">
    <g id="patch_21">
     <path d="M 332.896 165.784 
L 384.64 165.784 
Q 386.4 165.784 386.4 164.024 
L 386.4 151.44 
Q 386.4 149.68 384.64 149.68 
L 332.896 149.68 
Q 331.136 149.68 331.136 151.44 
L 331.136 164.024 
Q 331.136 165.784 332.896 165.784 
z
" style="fill:#4c4c4c;opacity:0.5;stroke:#4c4c4c;stroke-linejoin:miter;stroke-width:0.8;"/>
    </g>
    <g id="patch_22">
     <path d="M 330.896 163.784 
L 382.64 163.784 
Q 384.4 163.784 384.4 162.024 
L 384.4 149.44 
Q 384.4 147.68 382.64 147.68 
L 330.896 147.68 
Q 329.136 147.68 329.136 149.44 
L 329.136 162.024 
Q 329.136 163.784 330.896 163.784 
z
" style="fill:#ffffff;stroke:#000000;stroke-linejoin:miter;stroke-width:0.8;"/>
    </g>
    <g id="line2d_68">
     <path d="M 332.656 154.456 
L 339.696 154.456 
" style="fill:none;stroke:#023eff;stroke-linecap:round;stroke-width:1.2;"/>
    </g>
    <g id="line2d_69"/>
    <g id="text_16">
     <!-- $n_{step}$=10 -->
     <g transform="translate(346.736 157.536)scale(0.088 -0.088)">
      <use transform="translate(0 0.125)" xlink:href="#DejaVuSans-Oblique-110"/>
      <use transform="translate(63.378906 -16.28125)scale(0.7)" xlink:href="#DejaVuSans-Oblique-115"/>
      <use transform="translate(99.848633 -16.28125)scale(0.7)" xlink:href="#DejaVuSans-Oblique-116"/>
      <use transform="translate(127.294922 -16.28125)scale(0.7)" xlink:href="#DejaVuSans-Oblique-101"/>
      <use transform="translate(170.361328 -16.28125)scale(0.7)" xlink:href="#DejaVuSans-Oblique-112"/>
      <use transform="translate(217.529297 0.125)" xlink:href="#ArialMT-61"/>
      <use transform="translate(275.927734 0.125)" xlink:href="#ArialMT-49"/>
      <use transform="translate(331.542969 0.125)" xlink:href="#ArialMT-48"/>
     </g>
    </g>
   </g>
  </g>
  <g id="axes_4">
   <g id="patch_23">
    <path d="M 54 252 
L 388.8 252 
L 388.8 197.64 
L 54 197.64 
z
" style="fill:#ffffff;"/>
   </g>
   <g id="matplotlib.axis_7">
    <g id="xtick_22">
     <g id="line2d_70">
      <g>
       <use style="stroke:#000000;" x="63.475472" xlink:href="#m09a78fb5b0" y="252"/>
      </g>
     </g>
     <g id="line2d_71">
      <g>
       <use style="stroke:#000000;" x="63.475472" xlink:href="#m65e2395de8" y="197.64"/>
      </g>
     </g>
     <g id="text_17">
      <!-- $\mathdefault{0.0}$ -->
      <g transform="translate(57.315472 261.798875)scale(0.088 -0.088)">
       <use transform="translate(0 0.125)" xlink:href="#ArialMT-48"/>
       <use transform="translate(55.615234 0.125)" xlink:href="#ArialMT-46"/>
       <use transform="translate(83.398438 0.125)" xlink:href="#ArialMT-48"/>
      </g>
     </g>
    </g>
    <g id="xtick_23">
     <g id="line2d_72">
      <g>
       <use style="stroke:#000000;" x="115.385909" xlink:href="#m09a78fb5b0" y="252"/>
      </g>
     </g>
     <g id="line2d_73">
      <g>
       <use style="stroke:#000000;" x="115.385909" xlink:href="#m65e2395de8" y="197.64"/>
      </g>
     </g>
     <g id="text_18">
      <!-- $\mathdefault{0.2}$ -->
      <defs>
       <path d="M 50.34375 8.453125 
L 50.34375 0 
L 3.03125 0 
Q 2.9375 3.171875 4.046875 6.109375 
Q 5.859375 10.9375 9.828125 15.625 
Q 13.8125 20.3125 21.34375 26.46875 
Q 33.015625 36.03125 37.109375 41.625 
Q 41.21875 47.21875 41.21875 52.203125 
Q 41.21875 57.421875 37.46875 61 
Q 33.734375 64.59375 27.734375 64.59375 
Q 21.390625 64.59375 17.578125 60.78125 
Q 13.765625 56.984375 13.71875 50.25 
L 4.6875 51.171875 
Q 5.609375 61.28125 11.65625 66.578125 
Q 17.71875 71.875 27.9375 71.875 
Q 38.234375 71.875 44.234375 66.15625 
Q 50.25 60.453125 50.25 52 
Q 50.25 47.703125 48.484375 43.546875 
Q 46.734375 39.40625 42.65625 34.8125 
Q 38.578125 30.21875 29.109375 22.21875 
Q 21.1875 15.578125 18.9375 13.203125 
Q 16.703125 10.84375 15.234375 8.453125 
z
" id="ArialMT-50"/>
      </defs>
      <g transform="translate(109.225909 261.798875)scale(0.088 -0.088)">
       <use transform="translate(0 0.125)" xlink:href="#ArialMT-48"/>
       <use transform="translate(55.615234 0.125)" xlink:href="#ArialMT-46"/>
       <use transform="translate(83.398438 0.125)" xlink:href="#ArialMT-50"/>
      </g>
     </g>
    </g>
    <g id="xtick_24">
     <g id="line2d_74">
      <g>
       <use style="stroke:#000000;" x="167.296347" xlink:href="#m09a78fb5b0" y="252"/>
      </g>
     </g>
     <g id="line2d_75">
      <g>
       <use style="stroke:#000000;" x="167.296347" xlink:href="#m65e2395de8" y="197.64"/>
      </g>
     </g>
     <g id="text_19">
      <!-- $\mathdefault{0.4}$ -->
      <defs>
       <path d="M 32.328125 0 
L 32.328125 17.140625 
L 1.265625 17.140625 
L 1.265625 25.203125 
L 33.9375 71.578125 
L 41.109375 71.578125 
L 41.109375 25.203125 
L 50.78125 25.203125 
L 50.78125 17.140625 
L 41.109375 17.140625 
L 41.109375 0 
z
M 32.328125 25.203125 
L 32.328125 57.46875 
L 9.90625 25.203125 
z
" id="ArialMT-52"/>
      </defs>
      <g transform="translate(161.136347 261.798875)scale(0.088 -0.088)">
       <use transform="translate(0 0.125)" xlink:href="#ArialMT-48"/>
       <use transform="translate(55.615234 0.125)" xlink:href="#ArialMT-46"/>
       <use transform="translate(83.398438 0.125)" xlink:href="#ArialMT-52"/>
      </g>
     </g>
    </g>
    <g id="xtick_25">
     <g id="line2d_76">
      <g>
       <use style="stroke:#000000;" x="219.206784" xlink:href="#m09a78fb5b0" y="252"/>
      </g>
     </g>
     <g id="line2d_77">
      <g>
       <use style="stroke:#000000;" x="219.206784" xlink:href="#m65e2395de8" y="197.64"/>
      </g>
     </g>
     <g id="text_20">
      <!-- $\mathdefault{0.6}$ -->
      <defs>
       <path d="M 49.75 54.046875 
L 41.015625 53.375 
Q 39.84375 58.546875 37.703125 60.890625 
Q 34.125 64.65625 28.90625 64.65625 
Q 24.703125 64.65625 21.53125 62.3125 
Q 17.390625 59.28125 14.984375 53.46875 
Q 12.59375 47.65625 12.5 36.921875 
Q 15.671875 41.75 20.265625 44.09375 
Q 24.859375 46.4375 29.890625 46.4375 
Q 38.671875 46.4375 44.84375 39.96875 
Q 51.03125 33.5 51.03125 23.25 
Q 51.03125 16.5 48.125 10.71875 
Q 45.21875 4.9375 40.140625 1.859375 
Q 35.0625 -1.21875 28.609375 -1.21875 
Q 17.625 -1.21875 10.6875 6.859375 
Q 3.765625 14.9375 3.765625 33.5 
Q 3.765625 54.25 11.421875 63.671875 
Q 18.109375 71.875 29.4375 71.875 
Q 37.890625 71.875 43.28125 67.140625 
Q 48.6875 62.40625 49.75 54.046875 
z
M 13.875 23.1875 
Q 13.875 18.65625 15.796875 14.5 
Q 17.71875 10.359375 21.1875 8.171875 
Q 24.65625 6 28.46875 6 
Q 34.03125 6 38.03125 10.484375 
Q 42.046875 14.984375 42.046875 22.703125 
Q 42.046875 30.125 38.078125 34.390625 
Q 34.125 38.671875 28.125 38.671875 
Q 22.171875 38.671875 18.015625 34.390625 
Q 13.875 30.125 13.875 23.1875 
z
" id="ArialMT-54"/>
      </defs>
      <g transform="translate(213.046784 261.798875)scale(0.088 -0.088)">
       <use transform="translate(0 0.125)" xlink:href="#ArialMT-48"/>
       <use transform="translate(55.615234 0.125)" xlink:href="#ArialMT-46"/>
       <use transform="translate(83.398438 0.125)" xlink:href="#ArialMT-54"/>
      </g>
     </g>
    </g>
    <g id="xtick_26">
     <g id="line2d_78">
      <g>
       <use style="stroke:#000000;" x="271.117221" xlink:href="#m09a78fb5b0" y="252"/>
      </g>
     </g>
     <g id="line2d_79">
      <g>
       <use style="stroke:#000000;" x="271.117221" xlink:href="#m65e2395de8" y="197.64"/>
      </g>
     </g>
     <g id="text_21">
      <!-- $\mathdefault{0.8}$ -->
      <defs>
       <path d="M 17.671875 38.8125 
Q 12.203125 40.828125 9.5625 44.53125 
Q 6.9375 48.25 6.9375 53.421875 
Q 6.9375 61.234375 12.546875 66.546875 
Q 18.171875 71.875 27.484375 71.875 
Q 36.859375 71.875 42.578125 66.421875 
Q 48.296875 60.984375 48.296875 53.171875 
Q 48.296875 48.1875 45.671875 44.5 
Q 43.0625 40.828125 37.75 38.8125 
Q 44.34375 36.671875 47.78125 31.875 
Q 51.21875 27.09375 51.21875 20.453125 
Q 51.21875 11.28125 44.71875 5.03125 
Q 38.234375 -1.21875 27.640625 -1.21875 
Q 17.046875 -1.21875 10.546875 5.046875 
Q 4.046875 11.328125 4.046875 20.703125 
Q 4.046875 27.6875 7.59375 32.390625 
Q 11.140625 37.109375 17.671875 38.8125 
z
M 15.921875 53.71875 
Q 15.921875 48.640625 19.1875 45.40625 
Q 22.46875 42.1875 27.6875 42.1875 
Q 32.765625 42.1875 36.015625 45.375 
Q 39.265625 48.578125 39.265625 53.21875 
Q 39.265625 58.0625 35.90625 61.359375 
Q 32.5625 64.65625 27.59375 64.65625 
Q 22.5625 64.65625 19.234375 61.421875 
Q 15.921875 58.203125 15.921875 53.71875 
z
M 13.09375 20.65625 
Q 13.09375 16.890625 14.875 13.375 
Q 16.65625 9.859375 20.171875 7.921875 
Q 23.6875 6 27.734375 6 
Q 34.03125 6 38.125 10.046875 
Q 42.234375 14.109375 42.234375 20.359375 
Q 42.234375 26.703125 38.015625 30.859375 
Q 33.796875 35.015625 27.4375 35.015625 
Q 21.234375 35.015625 17.15625 30.90625 
Q 13.09375 26.8125 13.09375 20.65625 
z
" id="ArialMT-56"/>
      </defs>
      <g transform="translate(264.957221 261.798875)scale(0.088 -0.088)">
       <use transform="translate(0 0.125)" xlink:href="#ArialMT-48"/>
       <use transform="translate(55.615234 0.125)" xlink:href="#ArialMT-46"/>
       <use transform="translate(83.398438 0.125)" xlink:href="#ArialMT-56"/>
      </g>
     </g>
    </g>
    <g id="xtick_27">
     <g id="line2d_80">
      <g>
       <use style="stroke:#000000;" x="323.027659" xlink:href="#m09a78fb5b0" y="252"/>
      </g>
     </g>
     <g id="line2d_81">
      <g>
       <use style="stroke:#000000;" x="323.027659" xlink:href="#m65e2395de8" y="197.64"/>
      </g>
     </g>
     <g id="text_22">
      <!-- $\mathdefault{1.0}$ -->
      <g transform="translate(316.867659 261.798875)scale(0.088 -0.088)">
       <use transform="translate(0 0.125)" xlink:href="#ArialMT-49"/>
       <use transform="translate(55.615234 0.125)" xlink:href="#ArialMT-46"/>
       <use transform="translate(83.398438 0.125)" xlink:href="#ArialMT-48"/>
      </g>
     </g>
    </g>
    <g id="xtick_28">
     <g id="line2d_82">
      <g>
       <use style="stroke:#000000;" x="374.938096" xlink:href="#m09a78fb5b0" y="252"/>
      </g>
     </g>
     <g id="line2d_83">
      <g>
       <use style="stroke:#000000;" x="374.938096" xlink:href="#m65e2395de8" y="197.64"/>
      </g>
     </g>
     <g id="text_23">
      <!-- $\mathdefault{1.2}$ -->
      <g transform="translate(368.778096 261.798875)scale(0.088 -0.088)">
       <use transform="translate(0 0.125)" xlink:href="#ArialMT-49"/>
       <use transform="translate(55.615234 0.125)" xlink:href="#ArialMT-46"/>
       <use transform="translate(83.398438 0.125)" xlink:href="#ArialMT-50"/>
      </g>
     </g>
    </g>
    <g id="text_24">
     <!-- evaluations -->
     <defs>
      <path d="M 21 0 
L 1.265625 51.859375 
L 10.546875 51.859375 
L 21.6875 20.796875 
Q 23.484375 15.765625 25 10.359375 
Q 26.171875 14.453125 28.265625 20.21875 
L 39.796875 51.859375 
L 48.828125 51.859375 
L 29.203125 0 
z
" id="ArialMT-118"/>
      <path d="M 40.4375 6.390625 
Q 35.546875 2.25 31.03125 0.53125 
Q 26.515625 -1.171875 21.34375 -1.171875 
Q 12.796875 -1.171875 8.203125 3 
Q 3.609375 7.171875 3.609375 13.671875 
Q 3.609375 17.484375 5.34375 20.625 
Q 7.078125 23.78125 9.890625 25.6875 
Q 12.703125 27.59375 16.21875 28.5625 
Q 18.796875 29.25 24.03125 29.890625 
Q 34.671875 31.15625 39.703125 32.90625 
Q 39.75 34.71875 39.75 35.203125 
Q 39.75 40.578125 37.25 42.78125 
Q 33.890625 45.75 27.25 45.75 
Q 21.046875 45.75 18.09375 43.578125 
Q 15.140625 41.40625 13.71875 35.890625 
L 5.125 37.0625 
Q 6.296875 42.578125 8.984375 45.96875 
Q 11.671875 49.359375 16.75 51.1875 
Q 21.828125 53.03125 28.515625 53.03125 
Q 35.15625 53.03125 39.296875 51.46875 
Q 43.453125 49.90625 45.40625 47.53125 
Q 47.359375 45.171875 48.140625 41.546875 
Q 48.578125 39.3125 48.578125 33.453125 
L 48.578125 21.734375 
Q 48.578125 9.46875 49.140625 6.21875 
Q 49.703125 2.984375 51.375 0 
L 42.1875 0 
Q 40.828125 2.734375 40.4375 6.390625 
z
M 39.703125 26.03125 
Q 34.90625 24.078125 25.34375 22.703125 
Q 19.921875 21.921875 17.671875 20.9375 
Q 15.4375 19.96875 14.203125 18.09375 
Q 12.984375 16.21875 12.984375 13.921875 
Q 12.984375 10.40625 15.640625 8.0625 
Q 18.3125 5.71875 23.4375 5.71875 
Q 28.515625 5.71875 32.46875 7.9375 
Q 36.421875 10.15625 38.28125 14.015625 
Q 39.703125 17 39.703125 22.796875 
z
" id="ArialMT-97"/>
      <path d="M 6.390625 0 
L 6.390625 71.578125 
L 15.1875 71.578125 
L 15.1875 0 
z
" id="ArialMT-108"/>
      <path d="M 40.578125 0 
L 40.578125 7.625 
Q 34.515625 -1.171875 24.125 -1.171875 
Q 19.53125 -1.171875 15.546875 0.578125 
Q 11.578125 2.34375 9.640625 5 
Q 7.71875 7.671875 6.9375 11.53125 
Q 6.390625 14.109375 6.390625 19.734375 
L 6.390625 51.859375 
L 15.1875 51.859375 
L 15.1875 23.09375 
Q 15.1875 16.21875 15.71875 13.8125 
Q 16.546875 10.359375 19.234375 8.375 
Q 21.921875 6.390625 25.875 6.390625 
Q 29.828125 6.390625 33.296875 8.421875 
Q 36.765625 10.453125 38.203125 13.9375 
Q 39.65625 17.4375 39.65625 24.078125 
L 39.65625 51.859375 
L 48.4375 51.859375 
L 48.4375 0 
z
" id="ArialMT-117"/>
      <path d="M 25.78125 7.859375 
L 27.046875 0.09375 
Q 23.34375 -0.6875 20.40625 -0.6875 
Q 15.625 -0.6875 12.984375 0.828125 
Q 10.359375 2.34375 9.28125 4.8125 
Q 8.203125 7.28125 8.203125 15.1875 
L 8.203125 45.015625 
L 1.765625 45.015625 
L 1.765625 51.859375 
L 8.203125 51.859375 
L 8.203125 64.703125 
L 16.9375 69.96875 
L 16.9375 51.859375 
L 25.78125 51.859375 
L 25.78125 45.015625 
L 16.9375 45.015625 
L 16.9375 14.703125 
Q 16.9375 10.9375 17.40625 9.859375 
Q 17.875 8.796875 18.921875 8.15625 
Q 19.96875 7.515625 21.921875 7.515625 
Q 23.390625 7.515625 25.78125 7.859375 
z
" id="ArialMT-116"/>
      <path d="M 6.59375 0 
L 6.59375 51.859375 
L 14.5 51.859375 
L 14.5 44.484375 
Q 20.21875 53.03125 31 53.03125 
Q 35.6875 53.03125 39.625 51.34375 
Q 43.5625 49.65625 45.515625 46.921875 
Q 47.46875 44.1875 48.25 40.4375 
Q 48.734375 37.984375 48.734375 31.890625 
L 48.734375 0 
L 39.9375 0 
L 39.9375 31.546875 
Q 39.9375 36.921875 38.90625 39.578125 
Q 37.890625 42.234375 35.28125 43.8125 
Q 32.671875 45.40625 29.15625 45.40625 
Q 23.53125 45.40625 19.453125 41.84375 
Q 15.375 38.28125 15.375 28.328125 
L 15.375 0 
z
" id="ArialMT-110"/>
      <path d="M 3.078125 15.484375 
L 11.765625 16.84375 
Q 12.5 11.625 15.84375 8.84375 
Q 19.1875 6.0625 25.203125 6.0625 
Q 31.25 6.0625 34.171875 8.515625 
Q 37.109375 10.984375 37.109375 14.3125 
Q 37.109375 17.28125 34.515625 19 
Q 32.71875 20.171875 25.53125 21.96875 
Q 15.875 24.421875 12.140625 26.203125 
Q 8.40625 27.984375 6.46875 31.125 
Q 4.546875 34.28125 4.546875 38.09375 
Q 4.546875 41.546875 6.125 44.5 
Q 7.71875 47.46875 10.453125 49.421875 
Q 12.5 50.921875 16.03125 51.96875 
Q 19.578125 53.03125 23.640625 53.03125 
Q 29.734375 53.03125 34.34375 51.265625 
Q 38.96875 49.515625 41.15625 46.5 
Q 43.359375 43.5 44.1875 38.484375 
L 35.59375 37.3125 
Q 35.015625 41.3125 32.203125 43.546875 
Q 29.390625 45.796875 24.265625 45.796875 
Q 18.21875 45.796875 15.625 43.796875 
Q 13.03125 41.796875 13.03125 39.109375 
Q 13.03125 37.40625 14.109375 36.03125 
Q 15.1875 34.625 17.484375 33.6875 
Q 18.796875 33.203125 25.25 31.453125 
Q 34.578125 28.953125 38.25 27.359375 
Q 41.9375 25.78125 44.03125 22.75 
Q 46.140625 19.734375 46.140625 15.234375 
Q 46.140625 10.84375 43.578125 6.953125 
Q 41.015625 3.078125 36.171875 0.953125 
Q 31.34375 -1.171875 25.25 -1.171875 
Q 15.140625 -1.171875 9.84375 3.03125 
Q 4.546875 7.234375 3.078125 15.484375 
z
" id="ArialMT-115"/>
     </defs>
     <g transform="translate(197.118 274.419375)scale(0.096 -0.096)">
      <use xlink:href="#ArialMT-101"/>
      <use x="55.615234" xlink:href="#ArialMT-118"/>
      <use x="105.615234" xlink:href="#ArialMT-97"/>
      <use x="161.230469" xlink:href="#ArialMT-108"/>
      <use x="183.447266" xlink:href="#ArialMT-117"/>
      <use x="239.0625" xlink:href="#ArialMT-97"/>
      <use x="294.677734" xlink:href="#ArialMT-116"/>
      <use x="322.460938" xlink:href="#ArialMT-105"/>
      <use x="344.677734" xlink:href="#ArialMT-111"/>
      <use x="400.292969" xlink:href="#ArialMT-110"/>
      <use x="455.908203" xlink:href="#ArialMT-115"/>
     </g>
    </g>
    <g id="text_25">
     <!-- $\times\mathdefault{10^{4}}\mathdefault{}$ -->
     <defs>
      <path d="M 70.125 53.71875 
L 47.796875 31.296875 
L 70.125 8.984375 
L 64.3125 3.078125 
L 41.890625 25.484375 
L 19.484375 3.078125 
L 13.71875 8.984375 
L 35.984375 31.296875 
L 13.71875 53.71875 
L 19.484375 59.625 
L 41.890625 37.203125 
L 64.3125 59.625 
z
" id="DejaVuSans-215"/>
     </defs>
     <g transform="translate(367.592 275.534875)scale(0.088 -0.088)">
      <use transform="translate(0 0.201563)" xlink:href="#DejaVuSans-215"/>
      <use transform="translate(83.789062 0.201563)" xlink:href="#ArialMT-49"/>
      <use transform="translate(139.404297 0.201563)" xlink:href="#ArialMT-48"/>
      <use transform="translate(196.761875 69.895313)scale(0.7)" xlink:href="#ArialMT-52"/>
     </g>
    </g>
   </g>
   <g id="matplotlib.axis_8">
    <g id="ytick_10">
     <g id="line2d_84">
      <g>
       <use style="stroke:#000000;" x="54" xlink:href="#m3f47e0c999" y="239.92"/>
      </g>
     </g>
     <g id="line2d_85">
      <g>
       <use style="stroke:#000000;" x="388.8" xlink:href="#m566234d2d6" y="239.92"/>
      </g>
     </g>
     <g id="text_26">
      <!-- 0.5 -->
      <g transform="translate(38.268 243.069437)scale(0.088 -0.088)">
       <use xlink:href="#ArialMT-48"/>
       <use x="55.615234" xlink:href="#ArialMT-46"/>
       <use x="83.398438" xlink:href="#ArialMT-53"/>
      </g>
     </g>
    </g>
    <g id="ytick_11">
     <g id="line2d_86">
      <g>
       <use style="stroke:#000000;" x="54" xlink:href="#m3f47e0c999" y="224.82"/>
      </g>
     </g>
     <g id="line2d_87">
      <g>
       <use style="stroke:#000000;" x="388.8" xlink:href="#m566234d2d6" y="224.82"/>
      </g>
     </g>
     <g id="text_27">
      <!-- 1.0 -->
      <g transform="translate(38.268 227.969437)scale(0.088 -0.088)">
       <use xlink:href="#ArialMT-49"/>
       <use x="55.615234" xlink:href="#ArialMT-46"/>
       <use x="83.398438" xlink:href="#ArialMT-48"/>
      </g>
     </g>
    </g>
    <g id="ytick_12">
     <g id="line2d_88">
      <g>
       <use style="stroke:#000000;" x="54" xlink:href="#m3f47e0c999" y="209.72"/>
      </g>
     </g>
     <g id="line2d_89">
      <g>
       <use style="stroke:#000000;" x="388.8" xlink:href="#m566234d2d6" y="209.72"/>
      </g>
     </g>
     <g id="text_28">
      <!-- 1.5 -->
      <g transform="translate(38.268 212.869438)scale(0.088 -0.088)">
       <use xlink:href="#ArialMT-49"/>
       <use x="55.615234" xlink:href="#ArialMT-46"/>
       <use x="83.398438" xlink:href="#ArialMT-53"/>
      </g>
     </g>
    </g>
    <g id="text_29">
     <!-- $\beta$ -->
     <g transform="translate(32.252 227.892)rotate(-90)scale(0.096 -0.096)">
      <use transform="translate(0 0.390625)" xlink:href="#DejaVuSans-Oblique-946"/>
     </g>
    </g>
   </g>
   <g id="line2d_90">
    <path clip-path="url(#p9d26550d90)" d="M 64.565591 225.82855 
L 92.545317 225.82855 
L 93.116331 235.059326 
L 121.096057 235.059326 
L 121.667072 238.774414 
L 178.197538 238.877648 
L 178.768553 240.560817 
L 206.748279 240.560817 
L 207.319294 242.380423 
L 235.29902 242.380423 
L 235.870034 243.8989 
L 263.84976 243.8989 
L 264.420775 243.019278 
L 272.466893 243.019278 
L 272.466893 243.019278 
" style="fill:none;stroke:#00d7ff;stroke-linecap:round;stroke-width:1.2;"/>
   </g>
   <g id="patch_24">
    <path d="M 54 252 
L 54 197.64 
" style="fill:none;stroke:#000000;stroke-linecap:square;stroke-linejoin:miter;"/>
   </g>
   <g id="patch_25">
    <path d="M 388.8 252 
L 388.8 197.64 
" style="fill:none;stroke:#000000;stroke-linecap:square;stroke-linejoin:miter;"/>
   </g>
   <g id="patch_26">
    <path d="M 54 252 
L 388.8 252 
" style="fill:none;stroke:#000000;stroke-linecap:square;stroke-linejoin:miter;"/>
   </g>
   <g id="patch_27">
    <path d="M 54 197.64 
L 388.8 197.64 
" style="fill:none;stroke:#000000;stroke-linecap:square;stroke-linejoin:miter;"/>
   </g>
   <g id="legend_4">
    <g id="patch_28">
     <path d="M 332.896 220.144 
L 384.64 220.144 
Q 386.4 220.144 386.4 218.384 
L 386.4 205.8 
Q 386.4 204.04 384.64 204.04 
L 332.896 204.04 
Q 331.136 204.04 331.136 205.8 
L 331.136 218.384 
Q 331.136 220.144 332.896 220.144 
z
" style="fill:#4c4c4c;opacity:0.5;stroke:#4c4c4c;stroke-linejoin:miter;stroke-width:0.8;"/>
    </g>
    <g id="patch_29">
     <path d="M 330.896 218.144 
L 382.64 218.144 
Q 384.4 218.144 384.4 216.384 
L 384.4 203.8 
Q 384.4 202.04 382.64 202.04 
L 330.896 202.04 
Q 329.136 202.04 329.136 203.8 
L 329.136 216.384 
Q 329.136 218.144 330.896 218.144 
z
" style="fill:#ffffff;stroke:#000000;stroke-linejoin:miter;stroke-width:0.8;"/>
    </g>
    <g id="line2d_91">
     <path d="M 332.656 208.816 
L 339.696 208.816 
" style="fill:none;stroke:#00d7ff;stroke-linecap:round;stroke-width:1.2;"/>
    </g>
    <g id="line2d_92"/>
    <g id="text_30">
     <!-- $n_{step}$=50 -->
     <g transform="translate(346.736 211.896)scale(0.088 -0.088)">
      <use transform="translate(0 0.125)" xlink:href="#DejaVuSans-Oblique-110"/>
      <use transform="translate(63.378906 -16.28125)scale(0.7)" xlink:href="#DejaVuSans-Oblique-115"/>
      <use transform="translate(99.848633 -16.28125)scale(0.7)" xlink:href="#DejaVuSans-Oblique-116"/>
      <use transform="translate(127.294922 -16.28125)scale(0.7)" xlink:href="#DejaVuSans-Oblique-101"/>
      <use transform="translate(170.361328 -16.28125)scale(0.7)" xlink:href="#DejaVuSans-Oblique-112"/>
      <use transform="translate(217.529297 0.125)" xlink:href="#ArialMT-61"/>
      <use transform="translate(275.927734 0.125)" xlink:href="#ArialMT-53"/>
      <use transform="translate(331.542969 0.125)" xlink:href="#ArialMT-48"/>
     </g>
    </g>
   </g>
  </g>
 </g>
 <defs>
  <clipPath id="p25501161bb">
   <rect height="54.36" width="334.8" x="54" y="34.56"/>
  </clipPath>
  <clipPath id="p90b36fdb18">
   <rect height="54.36" width="334.8" x="54" y="88.92"/>
  </clipPath>
  <clipPath id="p127ff7fede">
   <rect height="54.36" width="334.8" x="54" y="143.28"/>
  </clipPath>
  <clipPath id="p9d26550d90">
   <rect height="54.36" width="334.8" x="54" y="197.64"/>
  </clipPath>
 </defs>
</svg>
