<?xml version="1.0" encoding="utf-8" standalone="no"?>
<!DOCTYPE svg PUBLIC "-//W3C//DTD SVG 1.1//EN"
  "http://www.w3.org/Graphics/SVG/1.1/DTD/svg11.dtd">
<!-- Created with matplotlib (https://matplotlib.org/) -->
<svg height="288pt" version="1.1" viewBox="0 0 432 288" width="432pt" xmlns="http://www.w3.org/2000/svg" xmlns:xlink="http://www.w3.org/1999/xlink">
 <defs>
  <style type="text/css">
*{stroke-linecap:butt;stroke-linejoin:round;}
  </style>
 </defs>
 <g id="figure_1">
  <g id="patch_1">
   <path d="M 0 288 
L 432 288 
L 432 0 
L 0 0 
z
" style="fill:#ffffff;"/>
  </g>
  <g id="axes_1">
   <g id="patch_2">
    <path d="M 54 88.92 
L 388.8 88.92 
L 388.8 34.56 
L 54 34.56 
z
" style="fill:#ffffff;"/>
   </g>
   <g id="matplotlib.axis_1">
    <g id="xtick_1">
     <g id="line2d_1">
      <defs>
       <path d="M 0 0 
L 0 -3 
" id="m964230c17c" style="stroke:#000000;"/>
      </defs>
      <g>
       <use style="stroke:#000000;" x="63.475472" xlink:href="#m964230c17c" y="88.92"/>
      </g>
     </g>
     <g id="line2d_2">
      <defs>
       <path d="M 0 0 
L 0 3 
" id="m2fc2e531a0" style="stroke:#000000;"/>
      </defs>
      <g>
       <use style="stroke:#000000;" x="63.475472" xlink:href="#m2fc2e531a0" y="34.56"/>
      </g>
     </g>
    </g>
    <g id="xtick_2">
     <g id="line2d_3">
      <g>
       <use style="stroke:#000000;" x="127.544817" xlink:href="#m964230c17c" y="88.92"/>
      </g>
     </g>
     <g id="line2d_4">
      <g>
       <use style="stroke:#000000;" x="127.544817" xlink:href="#m2fc2e531a0" y="34.56"/>
      </g>
     </g>
    </g>
    <g id="xtick_3">
     <g id="line2d_5">
      <g>
       <use style="stroke:#000000;" x="191.614162" xlink:href="#m964230c17c" y="88.92"/>
      </g>
     </g>
     <g id="line2d_6">
      <g>
       <use style="stroke:#000000;" x="191.614162" xlink:href="#m2fc2e531a0" y="34.56"/>
      </g>
     </g>
    </g>
    <g id="xtick_4">
     <g id="line2d_7">
      <g>
       <use style="stroke:#000000;" x="255.683506" xlink:href="#m964230c17c" y="88.92"/>
      </g>
     </g>
     <g id="line2d_8">
      <g>
       <use style="stroke:#000000;" x="255.683506" xlink:href="#m2fc2e531a0" y="34.56"/>
      </g>
     </g>
    </g>
    <g id="xtick_5">
     <g id="line2d_9">
      <g>
       <use style="stroke:#000000;" x="319.752851" xlink:href="#m964230c17c" y="88.92"/>
      </g>
     </g>
     <g id="line2d_10">
      <g>
       <use style="stroke:#000000;" x="319.752851" xlink:href="#m2fc2e531a0" y="34.56"/>
      </g>
     </g>
    </g>
    <g id="xtick_6">
     <g id="line2d_11">
      <g>
       <use style="stroke:#000000;" x="383.822196" xlink:href="#m964230c17c" y="88.92"/>
      </g>
     </g>
     <g id="line2d_12">
      <g>
       <use style="stroke:#000000;" x="383.822196" xlink:href="#m2fc2e531a0" y="34.56"/>
      </g>
     </g>
    </g>
   </g>
   <g id="matplotlib.axis_2">
    <g id="ytick_1">
     <g id="line2d_13">
      <defs>
       <path d="M 0 0 
L 3 0 
" id="m6618abffdd" style="stroke:#000000;"/>
      </defs>
      <g>
       <use style="stroke:#000000;" x="54" xlink:href="#m6618abffdd" y="76.84"/>
      </g>
     </g>
     <g id="line2d_14">
      <defs>
       <path d="M 0 0 
L -3 0 
" id="ma3b165e702" style="stroke:#000000;"/>
      </defs>
      <g>
       <use style="stroke:#000000;" x="388.8" xlink:href="#ma3b165e702" y="76.84"/>
      </g>
     </g>
     <g id="text_1">
      <!-- 0.5 -->
      <defs>
       <path d="M 4.15625 35.296875 
Q 4.15625 48 6.765625 55.734375 
Q 9.375 63.484375 14.515625 67.671875 
Q 19.671875 71.875 27.484375 71.875 
Q 33.25 71.875 37.59375 69.546875 
Q 41.9375 67.234375 44.765625 62.859375 
Q 47.609375 58.5 49.21875 52.21875 
Q 50.828125 45.953125 50.828125 35.296875 
Q 50.828125 22.703125 48.234375 14.96875 
Q 45.65625 7.234375 40.5 3 
Q 35.359375 -1.21875 27.484375 -1.21875 
Q 17.140625 -1.21875 11.234375 6.203125 
Q 4.15625 15.140625 4.15625 35.296875 
z
M 13.1875 35.296875 
Q 13.1875 17.671875 17.3125 11.828125 
Q 21.4375 6 27.484375 6 
Q 33.546875 6 37.671875 11.859375 
Q 41.796875 17.71875 41.796875 35.296875 
Q 41.796875 52.984375 37.671875 58.78125 
Q 33.546875 64.59375 27.390625 64.59375 
Q 21.34375 64.59375 17.71875 59.46875 
Q 13.1875 52.9375 13.1875 35.296875 
z
" id="ArialMT-48"/>
       <path d="M 9.078125 0 
L 9.078125 10.015625 
L 19.09375 10.015625 
L 19.09375 0 
z
" id="ArialMT-46"/>
       <path d="M 4.15625 18.75 
L 13.375 19.53125 
Q 14.40625 12.796875 18.140625 9.390625 
Q 21.875 6 27.15625 6 
Q 33.5 6 37.890625 10.78125 
Q 42.28125 15.578125 42.28125 23.484375 
Q 42.28125 31 38.0625 35.34375 
Q 33.84375 39.703125 27 39.703125 
Q 22.75 39.703125 19.328125 37.765625 
Q 15.921875 35.84375 13.96875 32.765625 
L 5.71875 33.84375 
L 12.640625 70.609375 
L 48.25 70.609375 
L 48.25 62.203125 
L 19.671875 62.203125 
L 15.828125 42.96875 
Q 22.265625 47.46875 29.34375 47.46875 
Q 38.71875 47.46875 45.15625 40.96875 
Q 51.609375 34.46875 51.609375 24.265625 
Q 51.609375 14.546875 45.953125 7.46875 
Q 39.0625 -1.21875 27.15625 -1.21875 
Q 17.390625 -1.21875 11.203125 4.25 
Q 5.03125 9.71875 4.15625 18.75 
z
" id="ArialMT-53"/>
      </defs>
      <g transform="translate(38.268 79.989438)scale(0.088 -0.088)">
       <use xlink:href="#ArialMT-48"/>
       <use x="55.615234" xlink:href="#ArialMT-46"/>
       <use x="83.398438" xlink:href="#ArialMT-53"/>
      </g>
     </g>
    </g>
    <g id="ytick_2">
     <g id="line2d_15">
      <g>
       <use style="stroke:#000000;" x="54" xlink:href="#m6618abffdd" y="61.74"/>
      </g>
     </g>
     <g id="line2d_16">
      <g>
       <use style="stroke:#000000;" x="388.8" xlink:href="#ma3b165e702" y="61.74"/>
      </g>
     </g>
     <g id="text_2">
      <!-- 1.0 -->
      <defs>
       <path d="M 37.25 0 
L 28.46875 0 
L 28.46875 56 
Q 25.296875 52.984375 20.140625 49.953125 
Q 14.984375 46.921875 10.890625 45.40625 
L 10.890625 53.90625 
Q 18.265625 57.375 23.78125 62.296875 
Q 29.296875 67.234375 31.59375 71.875 
L 37.25 71.875 
z
" id="ArialMT-49"/>
      </defs>
      <g transform="translate(38.268 64.889438)scale(0.088 -0.088)">
       <use xlink:href="#ArialMT-49"/>
       <use x="55.615234" xlink:href="#ArialMT-46"/>
       <use x="83.398438" xlink:href="#ArialMT-48"/>
      </g>
     </g>
    </g>
    <g id="ytick_3">
     <g id="line2d_17">
      <g>
       <use style="stroke:#000000;" x="54" xlink:href="#m6618abffdd" y="46.64"/>
      </g>
     </g>
     <g id="line2d_18">
      <g>
       <use style="stroke:#000000;" x="388.8" xlink:href="#ma3b165e702" y="46.64"/>
      </g>
     </g>
     <g id="text_3">
      <!-- 1.5 -->
      <g transform="translate(38.268 49.789438)scale(0.088 -0.088)">
       <use xlink:href="#ArialMT-49"/>
       <use x="55.615234" xlink:href="#ArialMT-46"/>
       <use x="83.398438" xlink:href="#ArialMT-53"/>
      </g>
     </g>
    </g>
    <g id="text_4">
     <!-- $\beta$ -->
     <defs>
      <path d="M 13.625 3.375 
L 8.9375 -20.796875 
L -0.09375 -20.796875 
L 14.5 54.34375 
Q 18.84375 76.609375 39.65625 76.609375 
Q 60.75 76.609375 57.171875 57.8125 
Q 54.734375 44.4375 45.21875 39.546875 
Q 58.015625 35.15625 55.515625 22.125 
Q 51.125 -1.078125 27.484375 -1.03125 
Q 17.140625 -0.984375 13.625 3.375 
z
M 15.921875 15.09375 
Q 19.671875 6.59375 29.296875 6.640625 
Q 43.359375 6.640625 46.34375 21.96875 
Q 49.03125 35.75 26.171875 34.671875 
L 27.78125 42.96875 
Q 45.453125 42.671875 48.53125 58.59375 
Q 50.640625 69.34375 39.203125 69.28125 
Q 26.421875 69.28125 23.484375 54.046875 
z
" id="DejaVuSans-Oblique-946"/>
     </defs>
     <g transform="translate(32.252 64.812)rotate(-90)scale(0.096 -0.096)">
      <use transform="translate(0 0.390625)" xlink:href="#DejaVuSans-Oblique-946"/>
     </g>
    </g>
   </g>
   <g id="line2d_19">
    <path clip-path="url(#pcd8a57d7d7)" d="M 64.013654 64.856041 
L 64.295559 72.08388 
L 64.577464 74.507408 
L 64.85937 75.736801 
L 65.141275 78.97362 
L 65.42318 78.807702 
L 65.705085 81.392026 
L 65.98699 80.305536 
L 66.268895 80.525502 
L 66.5508 83.787858 
L 66.832705 84.214998 
L 67.11461 84.102964 
L 67.396516 83.278404 
L 67.678421 83.861045 
L 67.960326 84.01302 
L 68.242231 83.689211 
L 68.524136 85.076846 
L 69.087946 80.279269 
L 69.369851 81.559426 
L 69.651757 79.160596 
L 70.215567 83.975478 
L 70.497472 80.81985 
L 70.779377 83.175226 
L 71.343187 83.025929 
L 71.625092 79.618124 
L 71.906997 79.578459 
L 72.188903 80.678396 
L 72.470808 80.536403 
L 72.752713 81.352829 
L 73.034618 81.705145 
L 73.316523 82.911902 
L 73.598428 81.98081 
L 73.880333 81.481735 
L 74.162238 81.931998 
L 74.444144 83.238824 
L 74.726049 81.916546 
L 75.007954 81.649935 
L 75.289859 80.175529 
L 75.571764 80.192951 
L 75.853669 78.760353 
L 76.135574 73.513328 
L 76.417479 74.522088 
L 76.699384 79.976682 
L 77.263195 83.455763 
L 77.5451 83.679948 
L 77.827005 82.182323 
L 78.10891 82.426481 
L 78.390815 84.960665 
L 78.67272 83.985274 
L 78.954625 85.021562 
L 79.236531 83.2086 
L 79.518436 83.844608 
L 80.082246 82.681575 
L 80.364151 83.282574 
L 80.646056 82.588011 
L 80.927961 82.318642 
L 81.209866 80.731076 
L 81.491771 81.290528 
L 81.773677 80.296895 
L 82.055582 77.572436 
L 82.337487 77.960122 
L 82.619392 78.004426 
L 83.465107 84.096592 
L 83.747012 83.418441 
L 84.310823 79.577245 
L 84.874633 82.203422 
L 85.156538 79.762549 
L 85.438443 79.111444 
L 85.720348 80.138947 
L 86.002253 80.407976 
L 86.284158 81.322355 
L 86.566064 81.444443 
L 86.847969 83.258363 
L 87.129874 83.863605 
L 87.411779 83.538933 
L 87.693684 81.934832 
L 88.539399 84.130647 
L 88.821305 82.624156 
L 89.10321 82.205557 
L 89.385115 78.890071 
L 89.66702 78.866975 
L 89.948925 83.465178 
L 90.512735 83.138611 
L 90.79464 83.762452 
L 91.076545 81.627613 
L 91.640356 80.50538 
L 91.922261 82.043378 
L 92.204166 79.808406 
L 92.486071 80.924396 
L 92.767976 78.812687 
L 93.049881 81.455049 
L 93.331786 82.622891 
L 93.613692 82.171682 
L 94.177502 82.416291 
L 94.459407 83.995698 
L 94.741312 79.11974 
L 95.023217 78.379074 
L 95.305122 80.121643 
L 95.587027 80.824726 
L 95.868932 80.39663 
L 96.150838 82.852437 
L 96.432743 82.428246 
L 96.714648 83.681579 
L 96.996553 82.73731 
L 97.278458 78.865133 
L 97.560363 83.355432 
L 97.842268 82.972303 
L 98.124173 83.228531 
L 98.406079 83.322556 
L 98.687984 80.690182 
L 98.969889 80.12305 
L 99.251794 80.123291 
L 99.533699 79.544933 
L 99.815604 80.821312 
L 100.379414 81.965647 
L 100.661319 83.650716 
L 100.943225 83.570902 
L 101.22513 84.234649 
L 101.507035 80.793719 
L 101.78894 81.308258 
L 102.070845 81.493759 
L 102.35275 79.23526 
L 102.634655 75.725723 
L 102.91656 76.156576 
L 103.198466 75.296484 
L 103.480371 77.365152 
L 103.762276 76.961818 
L 104.044181 78.93988 
L 104.326086 80.124599 
L 104.607991 80.465673 
L 104.889896 78.863165 
L 105.171801 81.037125 
L 105.453706 81.28832 
L 105.735612 81.169696 
L 106.299422 79.04997 
L 106.581327 74.27947 
L 107.145137 77.885089 
L 107.427042 80.416245 
L 107.708947 76.693307 
L 107.990853 80.623792 
L 108.272758 82.086034 
L 108.554663 81.262218 
L 108.836568 80.083242 
L 109.118473 82.476865 
L 109.964188 78.947856 
L 110.246093 80.789416 
L 110.809904 82.48626 
L 111.091809 83.479881 
L 111.655619 78.438515 
L 111.937524 79.418514 
L 112.219429 78.29113 
L 112.78324 85.081949 
L 113.34705 84.02725 
L 113.628955 80.98152 
L 113.91086 83.425478 
L 114.192765 82.791153 
L 114.47467 82.620067 
L 114.756575 83.331518 
L 115.03848 80.945608 
L 115.602291 78.439959 
L 115.884196 78.471501 
L 116.166101 76.951271 
L 116.729911 81.737545 
L 117.011816 81.724893 
L 117.293721 81.072253 
L 117.575627 82.584771 
L 117.857532 82.100937 
L 118.421342 80.382335 
L 118.703247 80.289557 
L 118.985152 79.441604 
L 119.267057 80.550438 
L 119.548962 79.942294 
L 119.830867 79.985184 
L 120.112773 78.966954 
L 120.394678 81.575299 
L 120.676583 80.103158 
L 120.958488 79.804741 
L 121.804203 82.423271 
L 122.086108 81.661444 
L 122.368014 82.78381 
L 122.649919 80.511 
L 122.931824 81.546442 
L 123.213729 81.610121 
L 123.495634 79.763638 
L 123.777539 79.926694 
L 124.059444 80.561832 
L 124.623254 81.239641 
L 125.187065 84.288562 
L 125.46897 82.032136 
L 125.750875 82.137033 
L 126.314685 85.341604 
L 127.160401 83.805418 
L 127.442306 84.10303 
L 127.724211 83.078576 
L 128.006116 83.596044 
L 128.288021 82.095127 
L 128.569926 84.016432 
L 128.851831 83.416273 
L 129.133736 83.173234 
L 129.415641 83.336579 
L 129.697547 82.370519 
L 129.979452 83.021933 
L 130.543262 81.567372 
L 130.825167 83.185509 
L 131.107072 81.714207 
L 131.388977 81.158402 
L 131.670882 81.984389 
L 131.952788 81.453031 
L 132.234693 82.185476 
L 132.516598 82.101453 
L 132.798503 79.744616 
L 133.080408 79.884793 
L 133.362313 82.040827 
L 133.644218 81.729326 
L 133.926123 81.036816 
L 134.208028 79.499123 
L 134.489934 79.752419 
L 134.771839 80.523083 
L 135.053744 80.54399 
L 135.335649 78.344544 
L 135.617554 77.345977 
L 136.181364 78.594101 
L 136.463269 78.103701 
L 136.745175 78.363975 
L 137.02708 78.263735 
L 137.308985 79.551732 
L 137.59089 74.441308 
L 138.1547 79.796264 
L 138.436605 80.385186 
L 138.71851 79.05707 
L 139.000415 80.458803 
L 139.282321 80.063948 
L 139.564226 81.562555 
L 140.128036 82.309614 
L 140.409941 80.441443 
L 140.691846 81.281289 
L 140.973751 83.215288 
L 141.255656 79.566052 
L 141.537562 83.496313 
L 141.819467 83.018056 
L 142.101372 81.336505 
L 142.383277 82.919814 
L 142.665182 83.010319 
L 142.947087 81.341016 
L 143.228992 82.543454 
L 144.074708 81.273504 
L 144.356613 81.616154 
L 144.638518 80.885807 
L 144.920423 81.101856 
L 145.484233 78.810077 
L 145.766138 79.522419 
L 146.048043 81.068334 
L 146.329949 81.535878 
L 146.611854 79.251514 
L 146.893759 79.374095 
L 147.175664 78.939524 
L 147.457569 76.268275 
L 147.739474 76.133931 
L 148.585189 82.238619 
L 148.867095 78.804307 
L 149.149 79.397573 
L 149.71281 77.675198 
L 149.994715 80.851059 
L 150.27662 81.334053 
L 150.558525 81.561481 
L 150.84043 81.116912 
L 151.122336 81.618692 
L 151.404241 82.478139 
L 151.686146 78.652573 
L 151.968051 78.166752 
L 152.249956 79.175938 
L 152.531861 81.079651 
L 152.813766 79.593728 
L 153.377576 83.720263 
L 153.659482 82.644388 
L 153.941387 83.745422 
L 154.505197 84.300045 
L 154.787102 85.211683 
L 155.069007 83.954849 
L 155.632817 82.832216 
L 156.196628 82.347459 
L 156.478533 82.682023 
L 156.760438 85.236147 
L 157.042343 81.737647 
L 157.324248 80.755878 
L 157.606153 80.415073 
L 157.888058 79.730408 
L 158.169963 80.663517 
L 158.451869 77.433753 
L 158.733774 76.305544 
L 159.015679 78.771943 
L 159.297584 80.124704 
L 159.579489 78.342805 
L 159.861394 79.271202 
L 160.143299 79.81344 
L 160.425204 81.650585 
L 160.70711 80.123707 
L 160.989015 80.7377 
L 161.27092 82.240059 
L 161.552825 82.49401 
L 161.83473 82.460102 
L 162.116635 81.779866 
L 162.39854 81.952084 
L 162.680445 81.826565 
L 162.96235 80.053821 
L 163.526161 82.960527 
L 163.808066 83.13758 
L 164.089971 83.716436 
L 164.371876 81.096567 
L 164.653781 81.331943 
L 164.935686 80.38895 
L 165.217591 79.939007 
L 165.499497 81.483746 
L 165.781402 81.974395 
L 166.345212 77.70231 
L 166.909022 81.820979 
L 167.190927 80.462716 
L 167.472832 80.136076 
L 167.754737 79.636651 
L 168.036643 81.993141 
L 168.318548 81.506844 
L 168.600453 78.49409 
L 168.882358 80.847738 
L 169.164263 79.574779 
L 169.446168 81.603282 
L 169.728073 82.520332 
L 170.009978 82.941176 
L 170.291884 81.975117 
L 170.573789 81.75829 
L 170.855694 82.366347 
L 171.137599 82.33501 
L 171.701409 79.578295 
L 171.983314 80.018113 
L 172.547124 82.546915 
L 173.110935 82.222605 
L 173.39284 81.116441 
L 173.674745 80.999261 
L 173.95665 76.838642 
L 174.238555 80.007166 
L 174.52046 80.409154 
L 174.802365 79.048138 
L 175.084271 80.665227 
L 175.366176 81.204546 
L 175.648081 80.628368 
L 175.929986 81.155738 
L 176.211891 80.354805 
L 176.493796 81.024073 
L 176.775701 81.340404 
L 177.057606 83.357847 
L 177.339511 83.534648 
L 177.621417 83.939456 
L 177.903322 84.769107 
L 178.749037 78.068355 
L 179.030942 80.046188 
L 179.312847 78.858168 
L 179.594752 76.677909 
L 179.876658 76.743656 
L 180.158563 77.792991 
L 180.440468 74.995216 
L 180.722373 77.311762 
L 181.004278 77.495921 
L 181.286183 76.485363 
L 181.568088 76.795549 
L 181.849993 80.37836 
L 182.131898 81.135344 
L 182.413804 83.689993 
L 182.695709 80.313644 
L 182.977614 81.699006 
L 183.259519 81.486452 
L 183.541424 82.122422 
L 183.823329 81.200078 
L 184.105234 83.020426 
L 184.669045 79.962142 
L 185.232855 81.848074 
L 185.51476 80.242538 
L 185.796665 79.647095 
L 186.07857 77.933355 
L 186.360475 80.425343 
L 186.64238 81.189293 
L 186.924285 82.438923 
L 187.206191 80.693332 
L 187.488096 80.524166 
L 187.770001 81.68942 
L 188.333811 81.532473 
L 188.615716 80.366747 
L 189.179526 79.156619 
L 189.461432 79.471505 
L 189.743337 78.415872 
L 190.025242 79.241512 
L 190.307147 79.540957 
L 190.589052 80.047389 
L 191.434767 74.792764 
L 191.716672 77.552495 
L 191.998578 77.126085 
L 192.562388 80.641772 
L 193.126198 79.33436 
L 193.408103 81.1917 
L 193.971913 83.181891 
L 194.253819 83.046941 
L 194.535724 84.060138 
L 194.817629 81.048348 
L 195.099534 80.297084 
L 195.663344 82.203273 
L 195.945249 80.896521 
L 196.509059 82.528066 
L 196.790965 84.303251 
L 197.07287 84.125568 
L 197.918585 79.015186 
L 198.20049 79.81177 
L 198.482395 80.266779 
L 198.7643 79.692966 
L 199.046206 75.85677 
L 199.891921 77.973637 
L 200.173826 78.597359 
L 200.455731 77.694362 
L 200.737636 78.406745 
L 201.019541 77.24947 
L 201.301446 79.046102 
L 201.583352 78.837797 
L 201.865257 81.124036 
L 202.147162 82.368027 
L 202.429067 82.903645 
L 202.710972 84.277883 
L 202.992877 83.662232 
L 203.274782 84.336733 
L 203.556687 83.700831 
L 203.838593 83.421747 
L 204.120498 83.912869 
L 204.684308 83.85656 
L 205.248118 81.734246 
L 205.530023 82.134145 
L 205.811928 79.871433 
L 206.657644 83.868962 
L 206.939549 83.708126 
L 207.221454 83.924499 
L 207.503359 82.204975 
L 207.785264 75.606985 
L 208.067169 79.282313 
L 208.63098 82.645381 
L 208.912885 80.645139 
L 209.19479 80.882337 
L 209.476695 79.93523 
L 209.7586 81.092785 
L 210.32241 79.347667 
L 210.604315 81.167803 
L 210.88622 81.670298 
L 211.168126 82.91463 
L 211.450031 80.892577 
L 211.731936 81.377518 
L 212.013841 82.143765 
L 212.295746 83.412001 
L 212.577651 80.247786 
L 212.859556 81.197698 
L 213.141461 81.635789 
L 213.423367 82.863191 
L 213.987177 82.693463 
L 214.269082 83.627336 
L 214.550987 82.603886 
L 214.832892 80.73752 
L 215.114797 81.194363 
L 215.396702 82.179554 
L 215.960513 80.955033 
L 216.242418 82.196618 
L 216.524323 81.067503 
L 216.806228 82.192598 
L 217.088133 82.198578 
L 217.370038 78.626878 
L 217.933848 81.301915 
L 218.215754 78.483708 
L 218.779564 80.610292 
L 219.061469 83.892197 
L 219.343374 82.854941 
L 219.625279 79.901466 
L 219.907184 80.143038 
L 220.189089 80.055696 
L 220.470994 81.155265 
L 220.7529 79.123746 
L 221.034805 79.825612 
L 221.31671 80.124581 
L 221.598615 81.376188 
L 221.88052 81.77755 
L 222.162425 79.932432 
L 222.44433 83.844639 
L 222.726235 80.426396 
L 223.008141 81.483818 
L 223.290046 79.114484 
L 223.571951 77.749729 
L 223.853856 78.285439 
L 224.135761 79.915727 
L 224.417666 79.264939 
L 224.699571 80.695426 
L 224.981476 77.76108 
L 225.263381 79.709464 
L 225.545287 80.394491 
L 225.827192 81.700202 
L 226.391002 82.976315 
L 226.672907 82.337325 
L 226.954812 82.722773 
L 227.236717 80.579693 
L 227.518622 80.958234 
L 227.800528 81.590156 
L 228.082433 83.159338 
L 228.364338 82.537448 
L 228.646243 81.452238 
L 228.928148 82.259277 
L 229.210053 82.129259 
L 229.491958 80.948506 
L 229.773863 82.586098 
L 230.055768 81.565948 
L 230.619579 78.134224 
L 230.901484 80.757062 
L 231.747199 81.77324 
L 232.029104 82.498408 
L 232.311009 82.686071 
L 232.592915 82.301705 
L 232.87482 83.036447 
L 233.156725 84.108439 
L 233.43863 82.978386 
L 234.00244 83.839564 
L 234.284345 83.851907 
L 234.56625 83.067988 
L 235.130061 85.064394 
L 235.411966 85.284407 
L 235.693871 84.691964 
L 235.975776 82.335152 
L 236.257681 82.149458 
L 236.539586 81.773785 
L 236.821491 81.811441 
L 237.103396 77.141459 
L 237.385302 79.754446 
L 237.667207 76.237608 
L 237.949112 76.468494 
L 238.231017 74.820663 
L 238.512922 77.563496 
L 238.794827 77.61826 
L 239.076732 79.242327 
L 239.358637 80.185639 
L 239.640542 80.073561 
L 239.922448 75.534352 
L 240.204353 78.961029 
L 240.768163 81.347165 
L 241.050068 81.426257 
L 241.331973 81.775924 
L 242.177689 80.626321 
L 242.459594 80.837441 
L 242.741499 79.767197 
L 243.305309 80.78998 
L 243.587214 80.158726 
L 243.869119 80.575992 
L 244.151024 83.409384 
L 244.432929 84.307111 
L 244.99674 83.301868 
L 245.278645 78.719872 
L 245.56055 77.719715 
L 245.842455 78.264723 
L 246.12436 78.002445 
L 246.406265 78.840921 
L 246.68817 80.677401 
L 246.970076 79.578972 
L 247.251981 80.100181 
L 247.815791 82.575509 
L 248.097696 81.390661 
L 248.379601 82.05648 
L 248.661506 81.915873 
L 248.943411 81.096668 
L 249.225317 82.777762 
L 249.507222 79.804005 
L 249.789127 81.717567 
L 250.071032 81.417976 
L 250.352937 80.137201 
L 250.634842 80.901249 
L 250.916747 78.190834 
L 251.198652 78.647833 
L 251.480557 81.119568 
L 251.762463 80.432039 
L 252.044368 79.444478 
L 252.326273 79.49891 
L 252.608178 76.970488 
L 252.890083 76.070746 
L 253.171988 76.273715 
L 253.453893 76.880761 
L 253.735798 78.10811 
L 254.017704 77.286323 
L 254.299609 79.536644 
L 254.581514 78.215859 
L 254.863419 78.322631 
L 255.145324 79.93426 
L 255.427229 80.755961 
L 255.709134 81.227242 
L 255.991039 80.718073 
L 256.272944 81.398963 
L 256.55485 80.201812 
L 257.400565 81.536545 
L 257.68247 78.88067 
L 257.964375 79.308205 
L 258.24628 77.040671 
L 258.528185 80.356841 
L 258.810091 81.218147 
L 259.373901 78.131152 
L 259.655806 78.790862 
L 260.219616 71.000263 
L 260.501521 73.804321 
L 260.783426 72.729278 
L 261.065331 75.556566 
L 261.347237 76.117524 
L 261.629142 75.768025 
L 261.911047 80.301039 
L 262.192952 80.847849 
L 262.474857 81.142526 
L 262.756762 78.470617 
L 263.038667 78.003592 
L 263.320572 79.959084 
L 263.602478 80.088184 
L 263.884383 78.996043 
L 264.166288 80.074851 
L 264.448193 79.668207 
L 264.730098 80.620425 
L 265.012003 79.918947 
L 265.293908 81.226966 
L 265.857718 77.502663 
L 266.421529 80.422095 
L 266.703434 77.295133 
L 266.985339 79.946569 
L 267.267244 78.779236 
L 267.549149 75.295713 
L 267.831054 76.875948 
L 268.112959 75.004947 
L 268.394865 77.522335 
L 268.67677 75.431823 
L 268.958675 76.195697 
L 269.24058 76.623043 
L 269.522485 77.827548 
L 270.086295 75.367788 
L 270.3682 78.734631 
L 270.650105 79.506973 
L 270.932011 78.852078 
L 271.213916 80.682428 
L 271.495821 78.96832 
L 271.777726 79.002128 
L 272.059631 79.512659 
L 272.341536 74.094387 
L 272.623441 76.524349 
L 272.905346 76.190191 
L 273.187252 76.137559 
L 273.469157 76.294906 
L 273.751062 75.547076 
L 274.032967 77.453164 
L 274.314872 75.205318 
L 274.596777 78.265542 
L 275.724398 81.718789 
L 276.006303 81.372401 
L 276.288208 82.155876 
L 276.852018 77.965909 
L 277.133923 78.319961 
L 277.415828 79.030651 
L 277.697733 77.268274 
L 277.979639 79.672292 
L 278.261544 77.336713 
L 278.543449 78.325387 
L 278.825354 80.366908 
L 279.107259 79.863425 
L 279.389164 79.684896 
L 279.671069 79.024311 
L 279.952974 77.216325 
L 280.234879 78.890802 
L 280.516785 79.007335 
L 280.79869 78.010559 
L 281.3625 77.12948 
L 281.644405 79.974586 
L 281.92631 79.865214 
L 282.208215 81.408632 
L 282.49012 81.659427 
L 282.772026 79.724409 
L 283.053931 79.489479 
L 283.335836 80.347736 
L 283.617741 79.337878 
L 283.899646 81.393528 
L 284.181551 81.219141 
L 284.463456 81.608295 
L 284.745361 75.740541 
L 285.591077 80.003361 
L 285.872982 80.181743 
L 286.154887 79.73757 
L 286.718697 77.921032 
L 287.000602 75.864349 
L 287.282507 80.141072 
L 287.564413 81.208728 
L 287.846318 81.126036 
L 288.128223 80.285133 
L 288.410128 81.081877 
L 288.973938 76.216759 
L 289.255843 76.346147 
L 289.537748 76.616673 
L 289.819653 78.748632 
L 290.101559 77.549217 
L 290.383464 77.849849 
L 290.665369 77.385812 
L 290.947274 76.336945 
L 291.229179 76.704096 
L 291.511084 76.346118 
L 291.792989 77.153224 
L 292.074894 77.365413 
L 292.3568 81.038809 
L 292.638705 78.930283 
L 292.92061 79.493948 
L 293.202515 80.361874 
L 293.766325 69.767793 
L 294.04823 74.225876 
L 294.330135 75.797898 
L 294.893946 73.059111 
L 295.175851 73.259766 
L 295.457756 71.960592 
L 296.021566 75.83801 
L 296.303471 74.926911 
L 296.585376 76.08027 
L 296.867281 75.83161 
L 297.149187 76.349661 
L 297.431092 78.455987 
L 297.712997 78.014872 
L 297.994902 78.507539 
L 298.276807 79.791466 
L 298.558712 79.392481 
L 298.840617 78.775406 
L 299.122522 80.047054 
L 299.404427 80.299544 
L 299.686333 78.29488 
L 299.968238 80.200031 
L 300.250143 79.003018 
L 300.532048 79.138879 
L 300.813953 77.2077 
L 301.095858 78.801871 
L 301.377763 79.381942 
L 301.659668 80.288407 
L 302.223479 80.047407 
L 302.505384 79.260352 
L 302.787289 79.862284 
L 303.069194 77.079615 
L 303.351099 79.92995 
L 303.633004 77.983398 
L 304.196814 76.877852 
L 304.47872 76.926454 
L 304.760625 77.921089 
L 305.04253 78.050168 
L 305.324435 79.017011 
L 305.60634 79.34999 
L 305.888245 77.450337 
L 306.17015 77.746233 
L 306.733961 80.181788 
L 307.015866 79.671352 
L 307.297771 80.393887 
L 307.861581 80.528146 
L 308.143486 79.80473 
L 308.425391 78.227229 
L 308.707296 78.672925 
L 309.271107 80.99952 
L 309.553012 83.55647 
L 309.834917 81.616673 
L 310.116822 80.452521 
L 310.398727 80.506439 
L 310.680632 81.151125 
L 311.244442 82.933121 
L 311.526348 83.238924 
L 311.808253 81.599908 
L 312.090158 78.403948 
L 312.653968 82.351414 
L 312.935873 82.742143 
L 314.063494 77.771281 
L 314.627304 80.827215 
L 315.191114 81.456934 
L 315.473019 80.839319 
L 315.754924 80.78516 
L 316.036829 82.058824 
L 316.318735 80.974365 
L 316.60064 81.491262 
L 316.882545 79.192343 
L 317.446355 82.95476 
L 317.72826 80.15265 
L 318.010165 80.926977 
L 318.29207 77.918054 
L 318.855881 79.651359 
L 319.137786 80.688224 
L 319.419691 80.661351 
L 319.701596 79.732097 
L 319.983501 82.483363 
L 320.265406 82.029866 
L 320.547311 80.519091 
L 320.829216 80.410402 
L 321.111122 79.807493 
L 321.393027 82.624098 
L 321.674932 82.645156 
L 321.956837 83.041202 
L 322.238742 84.119696 
L 322.520647 83.677228 
L 322.802552 83.496571 
L 323.084457 83.826234 
L 323.366362 82.559676 
L 323.648268 82.873396 
L 324.212078 80.383011 
L 324.493983 79.90706 
L 324.775888 77.420384 
L 325.057793 77.460405 
L 325.339698 76.96386 
L 325.903509 78.81925 
L 326.185414 77.318679 
L 326.749224 78.451013 
L 327.031129 78.800983 
L 327.313034 74.290827 
L 327.594939 72.545388 
L 327.876844 74.612024 
L 328.158749 75.605849 
L 328.440655 77.993663 
L 329.004465 78.786415 
L 329.28637 79.04206 
L 329.568275 77.614522 
L 329.85018 80.057673 
L 330.132085 79.056126 
L 330.41399 80.406217 
L 330.695896 80.25717 
L 330.977801 79.189127 
L 331.067498 79.806409 
L 331.067498 79.806409 
" style="fill:none;stroke:#e8000b;stroke-linecap:round;stroke-width:1.2;"/>
   </g>
   <g id="patch_3">
    <path d="M 54 88.92 
L 54 34.56 
" style="fill:none;stroke:#000000;stroke-linecap:square;stroke-linejoin:miter;"/>
   </g>
   <g id="patch_4">
    <path d="M 388.8 88.92 
L 388.8 34.56 
" style="fill:none;stroke:#000000;stroke-linecap:square;stroke-linejoin:miter;"/>
   </g>
   <g id="patch_5">
    <path d="M 54 88.92 
L 388.8 88.92 
" style="fill:none;stroke:#000000;stroke-linecap:square;stroke-linejoin:miter;"/>
   </g>
   <g id="patch_6">
    <path d="M 54 34.56 
L 388.8 34.56 
" style="fill:none;stroke:#000000;stroke-linecap:square;stroke-linejoin:miter;"/>
   </g>
   <g id="text_5">
    <!-- Rosenbrock -->
    <defs>
     <path d="M 7.859375 0 
L 7.859375 71.578125 
L 39.59375 71.578125 
Q 49.171875 71.578125 54.140625 69.640625 
Q 59.125 67.71875 62.109375 62.828125 
Q 65.09375 57.953125 65.09375 52.046875 
Q 65.09375 44.4375 60.15625 39.203125 
Q 55.21875 33.984375 44.921875 32.5625 
Q 48.6875 30.765625 50.640625 29 
Q 54.78125 25.203125 58.5 19.484375 
L 70.953125 0 
L 59.03125 0 
L 49.5625 14.890625 
Q 45.40625 21.34375 42.71875 24.75 
Q 40.046875 28.171875 37.921875 29.53125 
Q 35.796875 30.90625 33.59375 31.453125 
Q 31.984375 31.78125 28.328125 31.78125 
L 17.328125 31.78125 
L 17.328125 0 
z
M 17.328125 39.984375 
L 37.703125 39.984375 
Q 44.1875 39.984375 47.84375 41.328125 
Q 51.515625 42.671875 53.421875 45.625 
Q 55.328125 48.578125 55.328125 52.046875 
Q 55.328125 57.125 51.640625 60.390625 
Q 47.953125 63.671875 39.984375 63.671875 
L 17.328125 63.671875 
z
" id="ArialMT-82"/>
     <path d="M 3.328125 25.921875 
Q 3.328125 40.328125 11.328125 47.265625 
Q 18.015625 53.03125 27.640625 53.03125 
Q 38.328125 53.03125 45.109375 46.015625 
Q 51.90625 39.015625 51.90625 26.65625 
Q 51.90625 16.65625 48.90625 10.90625 
Q 45.90625 5.171875 40.15625 2 
Q 34.421875 -1.171875 27.640625 -1.171875 
Q 16.75 -1.171875 10.03125 5.8125 
Q 3.328125 12.796875 3.328125 25.921875 
z
M 12.359375 25.921875 
Q 12.359375 15.96875 16.703125 11.015625 
Q 21.046875 6.0625 27.640625 6.0625 
Q 34.1875 6.0625 38.53125 11.03125 
Q 42.875 16.015625 42.875 26.21875 
Q 42.875 35.84375 38.5 40.796875 
Q 34.125 45.75 27.640625 45.75 
Q 21.046875 45.75 16.703125 40.8125 
Q 12.359375 35.890625 12.359375 25.921875 
z
" id="ArialMT-111"/>
     <path d="M 3.078125 15.484375 
L 11.765625 16.84375 
Q 12.5 11.625 15.84375 8.84375 
Q 19.1875 6.0625 25.203125 6.0625 
Q 31.25 6.0625 34.171875 8.515625 
Q 37.109375 10.984375 37.109375 14.3125 
Q 37.109375 17.28125 34.515625 19 
Q 32.71875 20.171875 25.53125 21.96875 
Q 15.875 24.421875 12.140625 26.203125 
Q 8.40625 27.984375 6.46875 31.125 
Q 4.546875 34.28125 4.546875 38.09375 
Q 4.546875 41.546875 6.125 44.5 
Q 7.71875 47.46875 10.453125 49.421875 
Q 12.5 50.921875 16.03125 51.96875 
Q 19.578125 53.03125 23.640625 53.03125 
Q 29.734375 53.03125 34.34375 51.265625 
Q 38.96875 49.515625 41.15625 46.5 
Q 43.359375 43.5 44.1875 38.484375 
L 35.59375 37.3125 
Q 35.015625 41.3125 32.203125 43.546875 
Q 29.390625 45.796875 24.265625 45.796875 
Q 18.21875 45.796875 15.625 43.796875 
Q 13.03125 41.796875 13.03125 39.109375 
Q 13.03125 37.40625 14.109375 36.03125 
Q 15.1875 34.625 17.484375 33.6875 
Q 18.796875 33.203125 25.25 31.453125 
Q 34.578125 28.953125 38.25 27.359375 
Q 41.9375 25.78125 44.03125 22.75 
Q 46.140625 19.734375 46.140625 15.234375 
Q 46.140625 10.84375 43.578125 6.953125 
Q 41.015625 3.078125 36.171875 0.953125 
Q 31.34375 -1.171875 25.25 -1.171875 
Q 15.140625 -1.171875 9.84375 3.03125 
Q 4.546875 7.234375 3.078125 15.484375 
z
" id="ArialMT-115"/>
     <path d="M 42.09375 16.703125 
L 51.171875 15.578125 
Q 49.03125 7.625 43.21875 3.21875 
Q 37.40625 -1.171875 28.375 -1.171875 
Q 17 -1.171875 10.328125 5.828125 
Q 3.65625 12.84375 3.65625 25.484375 
Q 3.65625 38.578125 10.390625 45.796875 
Q 17.140625 53.03125 27.875 53.03125 
Q 38.28125 53.03125 44.875 45.953125 
Q 51.46875 38.875 51.46875 26.03125 
Q 51.46875 25.25 51.421875 23.6875 
L 12.75 23.6875 
Q 13.234375 15.140625 17.578125 10.59375 
Q 21.921875 6.0625 28.421875 6.0625 
Q 33.25 6.0625 36.671875 8.59375 
Q 40.09375 11.140625 42.09375 16.703125 
z
M 13.234375 30.90625 
L 42.1875 30.90625 
Q 41.609375 37.453125 38.875 40.71875 
Q 34.671875 45.796875 27.984375 45.796875 
Q 21.921875 45.796875 17.796875 41.75 
Q 13.671875 37.703125 13.234375 30.90625 
z
" id="ArialMT-101"/>
     <path d="M 6.59375 0 
L 6.59375 51.859375 
L 14.5 51.859375 
L 14.5 44.484375 
Q 20.21875 53.03125 31 53.03125 
Q 35.6875 53.03125 39.625 51.34375 
Q 43.5625 49.65625 45.515625 46.921875 
Q 47.46875 44.1875 48.25 40.4375 
Q 48.734375 37.984375 48.734375 31.890625 
L 48.734375 0 
L 39.9375 0 
L 39.9375 31.546875 
Q 39.9375 36.921875 38.90625 39.578125 
Q 37.890625 42.234375 35.28125 43.8125 
Q 32.671875 45.40625 29.15625 45.40625 
Q 23.53125 45.40625 19.453125 41.84375 
Q 15.375 38.28125 15.375 28.328125 
L 15.375 0 
z
" id="ArialMT-110"/>
     <path d="M 14.703125 0 
L 6.546875 0 
L 6.546875 71.578125 
L 15.328125 71.578125 
L 15.328125 46.046875 
Q 20.90625 53.03125 29.546875 53.03125 
Q 34.328125 53.03125 38.59375 51.09375 
Q 42.875 49.171875 45.625 45.671875 
Q 48.390625 42.1875 49.953125 37.25 
Q 51.515625 32.328125 51.515625 26.703125 
Q 51.515625 13.375 44.921875 6.09375 
Q 38.328125 -1.171875 29.109375 -1.171875 
Q 19.921875 -1.171875 14.703125 6.5 
z
M 14.59375 26.3125 
Q 14.59375 17 17.140625 12.84375 
Q 21.296875 6.0625 28.375 6.0625 
Q 34.125 6.0625 38.328125 11.0625 
Q 42.53125 16.0625 42.53125 25.984375 
Q 42.53125 36.140625 38.5 40.96875 
Q 34.46875 45.796875 28.765625 45.796875 
Q 23 45.796875 18.796875 40.796875 
Q 14.59375 35.796875 14.59375 26.3125 
z
" id="ArialMT-98"/>
     <path d="M 6.5 0 
L 6.5 51.859375 
L 14.40625 51.859375 
L 14.40625 44 
Q 17.4375 49.515625 20 51.265625 
Q 22.5625 53.03125 25.640625 53.03125 
Q 30.078125 53.03125 34.671875 50.203125 
L 31.640625 42.046875 
Q 28.421875 43.953125 25.203125 43.953125 
Q 22.3125 43.953125 20.015625 42.21875 
Q 17.71875 40.484375 16.75 37.40625 
Q 15.28125 32.71875 15.28125 27.15625 
L 15.28125 0 
z
" id="ArialMT-114"/>
     <path d="M 40.4375 19 
L 49.078125 17.875 
Q 47.65625 8.9375 41.8125 3.875 
Q 35.984375 -1.171875 27.484375 -1.171875 
Q 16.84375 -1.171875 10.375 5.78125 
Q 3.90625 12.75 3.90625 25.734375 
Q 3.90625 34.125 6.6875 40.421875 
Q 9.46875 46.734375 15.15625 49.875 
Q 20.84375 53.03125 27.546875 53.03125 
Q 35.984375 53.03125 41.359375 48.75 
Q 46.734375 44.484375 48.25 36.625 
L 39.703125 35.296875 
Q 38.484375 40.53125 35.375 43.15625 
Q 32.28125 45.796875 27.875 45.796875 
Q 21.234375 45.796875 17.078125 41.03125 
Q 12.9375 36.28125 12.9375 25.984375 
Q 12.9375 15.53125 16.9375 10.796875 
Q 20.953125 6.0625 27.390625 6.0625 
Q 32.5625 6.0625 36.03125 9.234375 
Q 39.5 12.40625 40.4375 19 
z
" id="ArialMT-99"/>
     <path d="M 6.640625 0 
L 6.640625 71.578125 
L 15.4375 71.578125 
L 15.4375 30.765625 
L 36.234375 51.859375 
L 47.609375 51.859375 
L 27.78125 32.625 
L 49.609375 0 
L 38.765625 0 
L 21.625 26.515625 
L 15.4375 20.5625 
L 15.4375 0 
z
" id="ArialMT-107"/>
    </defs>
    <g transform="translate(195.789 28.56)scale(0.096 -0.096)">
     <use xlink:href="#ArialMT-82"/>
     <use x="72.216797" xlink:href="#ArialMT-111"/>
     <use x="127.832031" xlink:href="#ArialMT-115"/>
     <use x="177.832031" xlink:href="#ArialMT-101"/>
     <use x="233.447266" xlink:href="#ArialMT-110"/>
     <use x="289.0625" xlink:href="#ArialMT-98"/>
     <use x="344.677734" xlink:href="#ArialMT-114"/>
     <use x="377.978516" xlink:href="#ArialMT-111"/>
     <use x="433.59375" xlink:href="#ArialMT-99"/>
     <use x="483.59375" xlink:href="#ArialMT-107"/>
    </g>
   </g>
   <g id="legend_1">
    <g id="patch_7">
     <path d="M 337.824 57.064 
L 384.64 57.064 
Q 386.4 57.064 386.4 55.304 
L 386.4 42.72 
Q 386.4 40.96 384.64 40.96 
L 337.824 40.96 
Q 336.064 40.96 336.064 42.72 
L 336.064 55.304 
Q 336.064 57.064 337.824 57.064 
z
" style="fill:#4c4c4c;opacity:0.5;stroke:#4c4c4c;stroke-linejoin:miter;stroke-width:0.8;"/>
    </g>
    <g id="patch_8">
     <path d="M 335.824 55.064 
L 382.64 55.064 
Q 384.4 55.064 384.4 53.304 
L 384.4 40.72 
Q 384.4 38.96 382.64 38.96 
L 335.824 38.96 
Q 334.064 38.96 334.064 40.72 
L 334.064 53.304 
Q 334.064 55.064 335.824 55.064 
z
" style="fill:#ffffff;stroke:#000000;stroke-linejoin:miter;stroke-width:0.8;"/>
    </g>
    <g id="line2d_20">
     <path d="M 337.584 45.736 
L 344.624 45.736 
" style="fill:none;stroke:#e8000b;stroke-linecap:round;stroke-width:1.2;"/>
    </g>
    <g id="line2d_21"/>
    <g id="text_6">
     <!-- $n_{step}$=1 -->
     <defs>
      <path d="M 55.71875 33.015625 
L 49.3125 0 
L 40.28125 0 
L 46.6875 32.671875 
Q 47.125 34.96875 47.359375 36.71875 
Q 47.609375 38.484375 47.609375 39.5 
Q 47.609375 43.609375 45.015625 45.890625 
Q 42.4375 48.1875 37.796875 48.1875 
Q 30.5625 48.1875 25.34375 43.375 
Q 20.125 38.578125 18.5 30.328125 
L 12.5 0 
L 3.515625 0 
L 14.109375 54.6875 
L 23.09375 54.6875 
L 21.296875 46.09375 
Q 25.046875 50.828125 30.3125 53.40625 
Q 35.59375 56 41.40625 56 
Q 48.640625 56 52.609375 52.09375 
Q 56.59375 48.1875 56.59375 41.109375 
Q 56.59375 39.359375 56.375 37.359375 
Q 56.15625 35.359375 55.71875 33.015625 
z
" id="DejaVuSans-Oblique-110"/>
      <path d="M 50 53.078125 
L 48.296875 44.578125 
Q 44.734375 46.53125 40.765625 47.5 
Q 36.8125 48.484375 32.625 48.484375 
Q 25.53125 48.484375 21.453125 46.0625 
Q 17.390625 43.65625 17.390625 39.5 
Q 17.390625 34.671875 26.859375 32.078125 
Q 27.59375 31.890625 27.9375 31.78125 
L 30.8125 30.90625 
Q 39.796875 28.421875 42.796875 25.6875 
Q 45.796875 22.953125 45.796875 18.21875 
Q 45.796875 9.515625 38.890625 4.046875 
Q 31.984375 -1.421875 20.796875 -1.421875 
Q 16.453125 -1.421875 11.671875 -0.578125 
Q 6.890625 0.25 1.125 2 
L 2.875 11.28125 
Q 7.8125 8.734375 12.59375 7.421875 
Q 17.390625 6.109375 21.78125 6.109375 
Q 28.375 6.109375 32.5 8.9375 
Q 36.625 11.765625 36.625 16.109375 
Q 36.625 20.796875 25.78125 23.6875 
L 24.859375 23.921875 
L 21.78125 24.703125 
Q 14.9375 26.515625 11.765625 29.46875 
Q 8.59375 32.421875 8.59375 37.015625 
Q 8.59375 45.75 15.15625 50.875 
Q 21.734375 56 33.015625 56 
Q 37.453125 56 41.671875 55.265625 
Q 45.90625 54.546875 50 53.078125 
z
" id="DejaVuSans-Oblique-115"/>
      <path d="M 42.28125 54.6875 
L 40.921875 47.703125 
L 23 47.703125 
L 17.1875 18.015625 
Q 16.890625 16.359375 16.75 15.234375 
Q 16.609375 14.109375 16.609375 13.484375 
Q 16.609375 10.359375 18.484375 8.9375 
Q 20.359375 7.515625 24.515625 7.515625 
L 33.59375 7.515625 
L 32.078125 0 
L 23.484375 0 
Q 15.484375 0 11.546875 3.125 
Q 7.625 6.25 7.625 12.59375 
Q 7.625 13.71875 7.765625 15.0625 
Q 7.90625 16.40625 8.203125 18.015625 
L 14.015625 47.703125 
L 6.390625 47.703125 
L 7.8125 54.6875 
L 15.28125 54.6875 
L 18.3125 70.21875 
L 27.296875 70.21875 
L 24.3125 54.6875 
z
" id="DejaVuSans-Oblique-116"/>
      <path d="M 48.09375 32.234375 
Q 48.25 33.015625 48.3125 33.84375 
Q 48.390625 34.671875 48.390625 35.5 
Q 48.390625 41.453125 44.890625 44.921875 
Q 41.40625 48.390625 35.40625 48.390625 
Q 28.71875 48.390625 23.578125 44.15625 
Q 18.453125 39.9375 15.828125 32.171875 
z
M 55.90625 25.203125 
L 14.109375 25.203125 
Q 13.8125 23.34375 13.71875 22.265625 
Q 13.625 21.1875 13.625 20.40625 
Q 13.625 13.625 17.796875 9.90625 
Q 21.96875 6.203125 29.59375 6.203125 
Q 35.453125 6.203125 40.671875 7.515625 
Q 45.90625 8.84375 50.390625 11.375 
L 48.6875 2.484375 
Q 43.84375 0.53125 38.6875 -0.4375 
Q 33.546875 -1.421875 28.21875 -1.421875 
Q 16.84375 -1.421875 10.71875 4.015625 
Q 4.59375 9.46875 4.59375 19.484375 
Q 4.59375 28.03125 7.640625 35.375 
Q 10.6875 42.71875 16.609375 48.484375 
Q 20.40625 52.09375 25.65625 54.046875 
Q 30.90625 56 36.8125 56 
Q 46.09375 56 51.578125 50.4375 
Q 57.078125 44.875 57.078125 35.5 
Q 57.078125 33.25 56.78125 30.6875 
Q 56.5 28.125 55.90625 25.203125 
z
" id="DejaVuSans-Oblique-101"/>
      <path d="M 49.609375 33.6875 
Q 49.609375 40.875 46.484375 44.671875 
Q 43.359375 48.484375 37.5 48.484375 
Q 33.5 48.484375 29.859375 46.4375 
Q 26.21875 44.390625 23.390625 40.484375 
Q 20.609375 36.625 18.9375 31.15625 
Q 17.28125 25.6875 17.28125 20.3125 
Q 17.28125 13.484375 20.40625 9.796875 
Q 23.53125 6.109375 29.296875 6.109375 
Q 33.546875 6.109375 37.1875 8.109375 
Q 40.828125 10.109375 43.40625 13.921875 
Q 46.1875 17.921875 47.890625 23.34375 
Q 49.609375 28.765625 49.609375 33.6875 
z
M 21.78125 46.390625 
Q 25.390625 51.125 30.296875 53.5625 
Q 35.203125 56 41.21875 56 
Q 49.609375 56 54.25 50.5 
Q 58.890625 45.015625 58.890625 35.109375 
Q 58.890625 27 56 19.65625 
Q 53.125 12.3125 47.703125 6.5 
Q 44.09375 2.640625 39.546875 0.609375 
Q 35.015625 -1.421875 29.984375 -1.421875 
Q 24.171875 -1.421875 20.21875 1 
Q 16.265625 3.421875 14.3125 8.203125 
L 8.6875 -20.796875 
L -0.296875 -20.796875 
L 14.40625 54.6875 
L 23.390625 54.6875 
z
" id="DejaVuSans-Oblique-112"/>
      <path d="M 52.828125 42.09375 
L 5.5625 42.09375 
L 5.5625 50.296875 
L 52.828125 50.296875 
z
M 52.828125 20.359375 
L 5.5625 20.359375 
L 5.5625 28.5625 
L 52.828125 28.5625 
z
" id="ArialMT-61"/>
     </defs>
     <g transform="translate(351.664 48.816)scale(0.088 -0.088)">
      <use transform="translate(0 0.125)" xlink:href="#DejaVuSans-Oblique-110"/>
      <use transform="translate(63.378906 -16.28125)scale(0.7)" xlink:href="#DejaVuSans-Oblique-115"/>
      <use transform="translate(99.848633 -16.28125)scale(0.7)" xlink:href="#DejaVuSans-Oblique-116"/>
      <use transform="translate(127.294922 -16.28125)scale(0.7)" xlink:href="#DejaVuSans-Oblique-101"/>
      <use transform="translate(170.361328 -16.28125)scale(0.7)" xlink:href="#DejaVuSans-Oblique-112"/>
      <use transform="translate(217.529297 0.125)" xlink:href="#ArialMT-61"/>
      <use transform="translate(275.927734 0.125)" xlink:href="#ArialMT-49"/>
     </g>
    </g>
   </g>
  </g>
  <g id="axes_2">
   <g id="patch_9">
    <path d="M 54 143.28 
L 388.8 143.28 
L 388.8 88.92 
L 54 88.92 
z
" style="fill:#ffffff;"/>
   </g>
   <g id="matplotlib.axis_3">
    <g id="xtick_7">
     <g id="line2d_22">
      <g>
       <use style="stroke:#000000;" x="63.475472" xlink:href="#m964230c17c" y="143.28"/>
      </g>
     </g>
     <g id="line2d_23">
      <g>
       <use style="stroke:#000000;" x="63.475472" xlink:href="#m2fc2e531a0" y="88.92"/>
      </g>
     </g>
    </g>
    <g id="xtick_8">
     <g id="line2d_24">
      <g>
       <use style="stroke:#000000;" x="127.544817" xlink:href="#m964230c17c" y="143.28"/>
      </g>
     </g>
     <g id="line2d_25">
      <g>
       <use style="stroke:#000000;" x="127.544817" xlink:href="#m2fc2e531a0" y="88.92"/>
      </g>
     </g>
    </g>
    <g id="xtick_9">
     <g id="line2d_26">
      <g>
       <use style="stroke:#000000;" x="191.614162" xlink:href="#m964230c17c" y="143.28"/>
      </g>
     </g>
     <g id="line2d_27">
      <g>
       <use style="stroke:#000000;" x="191.614162" xlink:href="#m2fc2e531a0" y="88.92"/>
      </g>
     </g>
    </g>
    <g id="xtick_10">
     <g id="line2d_28">
      <g>
       <use style="stroke:#000000;" x="255.683506" xlink:href="#m964230c17c" y="143.28"/>
      </g>
     </g>
     <g id="line2d_29">
      <g>
       <use style="stroke:#000000;" x="255.683506" xlink:href="#m2fc2e531a0" y="88.92"/>
      </g>
     </g>
    </g>
    <g id="xtick_11">
     <g id="line2d_30">
      <g>
       <use style="stroke:#000000;" x="319.752851" xlink:href="#m964230c17c" y="143.28"/>
      </g>
     </g>
     <g id="line2d_31">
      <g>
       <use style="stroke:#000000;" x="319.752851" xlink:href="#m2fc2e531a0" y="88.92"/>
      </g>
     </g>
    </g>
    <g id="xtick_12">
     <g id="line2d_32">
      <g>
       <use style="stroke:#000000;" x="383.822196" xlink:href="#m964230c17c" y="143.28"/>
      </g>
     </g>
     <g id="line2d_33">
      <g>
       <use style="stroke:#000000;" x="383.822196" xlink:href="#m2fc2e531a0" y="88.92"/>
      </g>
     </g>
    </g>
   </g>
   <g id="matplotlib.axis_4">
    <g id="ytick_4">
     <g id="line2d_34">
      <g>
       <use style="stroke:#000000;" x="54" xlink:href="#m6618abffdd" y="131.2"/>
      </g>
     </g>
     <g id="line2d_35">
      <g>
       <use style="stroke:#000000;" x="388.8" xlink:href="#ma3b165e702" y="131.2"/>
      </g>
     </g>
     <g id="text_7">
      <!-- 0.5 -->
      <g transform="translate(38.268 134.349438)scale(0.088 -0.088)">
       <use xlink:href="#ArialMT-48"/>
       <use x="55.615234" xlink:href="#ArialMT-46"/>
       <use x="83.398438" xlink:href="#ArialMT-53"/>
      </g>
     </g>
    </g>
    <g id="ytick_5">
     <g id="line2d_36">
      <g>
       <use style="stroke:#000000;" x="54" xlink:href="#m6618abffdd" y="116.1"/>
      </g>
     </g>
     <g id="line2d_37">
      <g>
       <use style="stroke:#000000;" x="388.8" xlink:href="#ma3b165e702" y="116.1"/>
      </g>
     </g>
     <g id="text_8">
      <!-- 1.0 -->
      <g transform="translate(38.268 119.249438)scale(0.088 -0.088)">
       <use xlink:href="#ArialMT-49"/>
       <use x="55.615234" xlink:href="#ArialMT-46"/>
       <use x="83.398438" xlink:href="#ArialMT-48"/>
      </g>
     </g>
    </g>
    <g id="ytick_6">
     <g id="line2d_38">
      <g>
       <use style="stroke:#000000;" x="54" xlink:href="#m6618abffdd" y="101"/>
      </g>
     </g>
     <g id="line2d_39">
      <g>
       <use style="stroke:#000000;" x="388.8" xlink:href="#ma3b165e702" y="101"/>
      </g>
     </g>
     <g id="text_9">
      <!-- 1.5 -->
      <g transform="translate(38.268 104.149438)scale(0.088 -0.088)">
       <use xlink:href="#ArialMT-49"/>
       <use x="55.615234" xlink:href="#ArialMT-46"/>
       <use x="83.398438" xlink:href="#ArialMT-53"/>
      </g>
     </g>
    </g>
    <g id="text_10">
     <!-- $\beta$ -->
     <g transform="translate(32.252 119.172)rotate(-90)scale(0.096 -0.096)">
      <use transform="translate(0 0.390625)" xlink:href="#DejaVuSans-Oblique-946"/>
     </g>
    </g>
   </g>
   <g id="line2d_40">
    <path clip-path="url(#pd28489a712)" d="M 64.013654 116.949266 
L 65.141275 116.949266 
L 65.42318 122.010942 
L 66.5508 122.010942 
L 66.832705 128.394716 
L 67.960326 128.394716 
L 68.242231 131.492961 
L 69.369851 131.492961 
L 69.651757 134.838298 
L 70.779377 134.838298 
L 71.061282 135.72818 
L 72.188903 135.72818 
L 72.470808 136.153234 
L 73.598428 136.153234 
L 73.880333 137.128559 
L 75.007954 137.128559 
L 75.289859 134.88545 
L 76.417479 134.88545 
L 76.699384 135.847975 
L 77.827005 135.847975 
L 78.10891 136.711316 
L 79.236531 136.711316 
L 79.518436 137.448516 
L 80.646056 137.448516 
L 80.927961 135.657068 
L 82.055582 135.657068 
L 82.337487 132.799805 
L 83.465107 132.799805 
L 83.747012 135.404788 
L 84.874633 135.404788 
L 85.156538 136.962359 
L 87.693684 136.973067 
L 87.975589 137.54681 
L 89.10321 137.54681 
L 89.385115 132.966009 
L 90.512735 132.966009 
L 90.79464 134.703695 
L 91.922261 134.703695 
L 92.204166 136.40838 
L 93.331786 136.40838 
L 93.613692 137.67225 
L 94.741312 137.67225 
L 95.023217 136.983945 
L 96.150838 136.983945 
L 96.432743 138.233124 
L 98.969889 138.301485 
L 99.251794 137.779598 
L 100.379414 137.779598 
L 100.661319 134.572495 
L 101.78894 134.572495 
L 102.070845 136.518473 
L 103.198466 136.518473 
L 103.480371 136.705854 
L 104.607991 136.705854 
L 104.889896 137.030906 
L 106.017517 137.030906 
L 106.299422 137.563685 
L 107.427042 137.563685 
L 107.708947 135.139425 
L 108.836568 135.139425 
L 109.118473 136.265564 
L 110.246093 136.265564 
L 110.527999 134.967052 
L 111.655619 134.967052 
L 111.937524 134.783596 
L 113.065145 134.783596 
L 113.34705 134.546096 
L 114.47467 134.546096 
L 114.756575 132.16545 
L 115.884196 132.16545 
L 116.166101 133.163568 
L 117.293721 133.163568 
L 117.575627 134.371917 
L 118.703247 134.371917 
L 118.985152 133.855207 
L 120.112773 133.855207 
L 120.394678 134.81544 
L 121.522298 134.81544 
L 121.804203 135.307942 
L 122.931824 135.307942 
L 123.213729 132.391677 
L 124.341349 132.391677 
L 124.623254 134.092235 
L 125.750875 134.092235 
L 126.03278 135.90615 
L 127.160401 135.90615 
L 127.442306 134.828978 
L 128.569926 134.828978 
L 128.851831 135.534389 
L 129.979452 135.534389 
L 130.261357 134.339478 
L 131.388977 134.339478 
L 131.670882 133.979003 
L 132.798503 133.979003 
L 133.080408 134.781332 
L 134.208028 134.781332 
L 134.489934 136.03607 
L 135.617554 136.03607 
L 135.899459 137.053402 
L 137.02708 137.053402 
L 137.308985 136.880638 
L 139.846131 136.92738 
L 140.409941 137.034486 
L 141.255656 137.034486 
L 141.537562 137.800594 
L 144.074708 137.854458 
L 144.356613 137.314487 
L 145.484233 137.314487 
L 145.766138 137.489105 
L 146.893759 137.489105 
L 147.175664 138.975658 
L 148.303284 138.975658 
L 148.585189 138.090261 
L 149.71281 138.090261 
L 149.994715 135.611095 
L 151.122336 135.611095 
L 151.404241 136.548066 
L 152.531861 136.548066 
L 152.813766 136.946705 
L 153.941387 136.946705 
L 154.223292 136.002024 
L 155.350912 136.002024 
L 155.632817 136.905919 
L 156.760438 136.905919 
L 157.042343 133.921027 
L 158.169963 133.921027 
L 158.451869 131.784596 
L 159.579489 131.784596 
L 159.861394 134.677082 
L 160.989015 134.677082 
L 161.27092 134.455185 
L 162.39854 134.455185 
L 162.680445 136.384479 
L 163.808066 136.384479 
L 164.089971 136.808407 
L 165.217591 136.808407 
L 165.499497 134.045458 
L 166.627117 134.045458 
L 166.909022 133.697035 
L 168.036643 133.697035 
L 168.318548 134.459367 
L 169.446168 134.459367 
L 169.728073 135.115491 
L 172.265219 135.201904 
L 172.547124 133.657696 
L 173.674745 133.657696 
L 173.95665 133.34092 
L 175.084271 133.34092 
L 175.366176 132.601703 
L 176.493796 132.601703 
L 176.775701 134.534965 
L 177.903322 134.534965 
L 178.185227 135.951644 
L 179.312847 135.951644 
L 179.594752 136.111127 
L 180.722373 136.111127 
L 181.004278 135.439997 
L 182.131898 135.439997 
L 182.413804 136.507524 
L 183.541424 136.507524 
L 183.823329 137.203343 
L 184.95095 137.203343 
L 185.232855 137.655508 
L 186.360475 137.655508 
L 186.64238 137.197969 
L 187.770001 137.197969 
L 188.051906 133.921459 
L 189.179526 133.921459 
L 189.461432 137.039966 
L 190.589052 137.039966 
L 190.870957 134.567818 
L 191.998578 134.567818 
L 192.280483 135.824788 
L 193.408103 135.824788 
L 193.690008 133.399864 
L 194.817629 133.399864 
L 195.099534 135.17987 
L 196.227154 135.17987 
L 196.509059 132.50937 
L 197.63668 132.50937 
L 197.918585 136.298762 
L 199.046206 136.298762 
L 199.328111 137.270449 
L 200.455731 137.270449 
L 200.737636 135.924479 
L 201.865257 135.924479 
L 202.147162 137.611305 
L 203.274782 137.611305 
L 203.556687 138.698766 
L 204.684308 138.698766 
L 204.966213 137.650913 
L 206.093833 137.650913 
L 206.375739 137.885908 
L 207.503359 137.885908 
L 207.785264 139.23276 
L 208.912885 139.23276 
L 209.19479 139.550418 
L 210.32241 139.550418 
L 210.604315 139.847688 
L 211.731936 139.847688 
L 212.013841 138.06042 
L 213.141461 138.06042 
L 213.423367 139.10639 
L 214.550987 139.10639 
L 214.832892 138.11189 
L 215.960513 138.11189 
L 216.242418 138.339615 
L 217.370038 138.339615 
L 217.651943 139.386854 
L 218.779564 139.386854 
L 219.061469 140.00191 
L 220.189089 140.00191 
L 220.470994 137.051442 
L 221.598615 137.051442 
L 221.88052 137.273088 
L 223.008141 137.273088 
L 223.290046 135.701892 
L 224.417666 135.701892 
L 224.699571 133.517101 
L 225.827192 133.517101 
L 226.109097 134.738329 
L 227.236717 134.738329 
L 227.518622 132.314815 
L 228.646243 132.314815 
L 228.928148 133.613793 
L 230.055768 133.613793 
L 230.337674 130.250507 
L 231.465294 130.250507 
L 231.747199 129.365414 
L 232.87482 129.365414 
L 233.156725 131.335176 
L 234.284345 131.335176 
L 234.56625 134.440118 
L 235.693871 134.440118 
L 235.975776 134.188993 
L 237.103396 134.188993 
L 237.385302 133.980914 
L 238.512922 133.980914 
L 238.794827 135.170578 
L 241.331973 135.219728 
L 241.613878 134.716819 
L 242.741499 134.716819 
L 243.023404 135.403555 
L 244.151024 135.403555 
L 244.432929 134.728842 
L 245.56055 134.728842 
L 245.842455 134.487221 
L 248.379601 134.587671 
L 248.661506 135.581326 
L 249.789127 135.581326 
L 250.071032 136.059402 
L 251.198652 136.059402 
L 251.480557 134.944059 
L 252.608178 134.944059 
L 252.890083 132.432051 
L 254.017704 132.432051 
L 254.299609 136.113824 
L 256.836755 136.194479 
L 257.11866 135.438337 
L 258.24628 135.438337 
L 258.528185 135.559346 
L 259.655806 135.559346 
L 259.937711 135.903659 
L 261.065331 135.903659 
L 261.347237 136.091448 
L 262.474857 136.091448 
L 262.756762 133.453824 
L 263.884383 133.453824 
L 264.166288 135.714053 
L 265.293908 135.714053 
L 265.575813 137.037828 
L 266.703434 137.037828 
L 266.985339 134.253246 
L 268.112959 134.253246 
L 268.394865 129.591841 
L 269.522485 129.591841 
L 269.80439 129.760593 
L 270.932011 129.760593 
L 271.213916 127.671852 
L 272.341536 127.671852 
L 272.623441 128.463752 
L 273.751062 128.463752 
L 274.032967 126.521142 
L 275.160587 126.521142 
L 275.442492 124.493101 
L 276.570113 124.493101 
L 276.852018 125.761361 
L 277.608036 125.761361 
L 277.608036 125.761361 
" style="fill:none;stroke:#1ac938;stroke-linecap:round;stroke-width:1.2;"/>
   </g>
   <g id="patch_10">
    <path d="M 54 143.28 
L 54 88.92 
" style="fill:none;stroke:#000000;stroke-linecap:square;stroke-linejoin:miter;"/>
   </g>
   <g id="patch_11">
    <path d="M 388.8 143.28 
L 388.8 88.92 
" style="fill:none;stroke:#000000;stroke-linecap:square;stroke-linejoin:miter;"/>
   </g>
   <g id="patch_12">
    <path d="M 54 143.28 
L 388.8 143.28 
" style="fill:none;stroke:#000000;stroke-linecap:square;stroke-linejoin:miter;"/>
   </g>
   <g id="patch_13">
    <path d="M 54 88.92 
L 388.8 88.92 
" style="fill:none;stroke:#000000;stroke-linecap:square;stroke-linejoin:miter;"/>
   </g>
   <g id="legend_2">
    <g id="patch_14">
     <path d="M 337.824 111.386875 
L 384.64 111.386875 
Q 386.4 111.386875 386.4 109.626875 
L 386.4 97.08 
Q 386.4 95.32 384.64 95.32 
L 337.824 95.32 
Q 336.064 95.32 336.064 97.08 
L 336.064 109.626875 
Q 336.064 111.386875 337.824 111.386875 
z
" style="fill:#4c4c4c;opacity:0.5;stroke:#4c4c4c;stroke-linejoin:miter;stroke-width:0.8;"/>
    </g>
    <g id="patch_15">
     <path d="M 335.824 109.386875 
L 382.64 109.386875 
Q 384.4 109.386875 384.4 107.626875 
L 384.4 95.08 
Q 384.4 93.32 382.64 93.32 
L 335.824 93.32 
Q 334.064 93.32 334.064 95.08 
L 334.064 107.626875 
Q 334.064 109.386875 335.824 109.386875 
z
" style="fill:#ffffff;stroke:#000000;stroke-linejoin:miter;stroke-width:0.8;"/>
    </g>
    <g id="line2d_41">
     <path d="M 337.584 100.058875 
L 344.624 100.058875 
" style="fill:none;stroke:#1ac938;stroke-linecap:round;stroke-width:1.2;"/>
    </g>
    <g id="line2d_42"/>
    <g id="text_11">
     <!-- $n_{step}$=5 -->
     <g transform="translate(351.664 103.138875)scale(0.088 -0.088)">
      <use transform="translate(0 0.390625)" xlink:href="#DejaVuSans-Oblique-110"/>
      <use transform="translate(63.378906 -16.015625)scale(0.7)" xlink:href="#DejaVuSans-Oblique-115"/>
      <use transform="translate(99.848633 -16.015625)scale(0.7)" xlink:href="#DejaVuSans-Oblique-116"/>
      <use transform="translate(127.294922 -16.015625)scale(0.7)" xlink:href="#DejaVuSans-Oblique-101"/>
      <use transform="translate(170.361328 -16.015625)scale(0.7)" xlink:href="#DejaVuSans-Oblique-112"/>
      <use transform="translate(217.529297 0.390625)" xlink:href="#ArialMT-61"/>
      <use transform="translate(275.927734 0.390625)" xlink:href="#ArialMT-53"/>
     </g>
    </g>
   </g>
  </g>
  <g id="axes_3">
   <g id="patch_16">
    <path d="M 54 197.64 
L 388.8 197.64 
L 388.8 143.28 
L 54 143.28 
z
" style="fill:#ffffff;"/>
   </g>
   <g id="matplotlib.axis_5">
    <g id="xtick_13">
     <g id="line2d_43">
      <g>
       <use style="stroke:#000000;" x="63.475472" xlink:href="#m964230c17c" y="197.64"/>
      </g>
     </g>
     <g id="line2d_44">
      <g>
       <use style="stroke:#000000;" x="63.475472" xlink:href="#m2fc2e531a0" y="143.28"/>
      </g>
     </g>
    </g>
    <g id="xtick_14">
     <g id="line2d_45">
      <g>
       <use style="stroke:#000000;" x="127.544817" xlink:href="#m964230c17c" y="197.64"/>
      </g>
     </g>
     <g id="line2d_46">
      <g>
       <use style="stroke:#000000;" x="127.544817" xlink:href="#m2fc2e531a0" y="143.28"/>
      </g>
     </g>
    </g>
    <g id="xtick_15">
     <g id="line2d_47">
      <g>
       <use style="stroke:#000000;" x="191.614162" xlink:href="#m964230c17c" y="197.64"/>
      </g>
     </g>
     <g id="line2d_48">
      <g>
       <use style="stroke:#000000;" x="191.614162" xlink:href="#m2fc2e531a0" y="143.28"/>
      </g>
     </g>
    </g>
    <g id="xtick_16">
     <g id="line2d_49">
      <g>
       <use style="stroke:#000000;" x="255.683506" xlink:href="#m964230c17c" y="197.64"/>
      </g>
     </g>
     <g id="line2d_50">
      <g>
       <use style="stroke:#000000;" x="255.683506" xlink:href="#m2fc2e531a0" y="143.28"/>
      </g>
     </g>
    </g>
    <g id="xtick_17">
     <g id="line2d_51">
      <g>
       <use style="stroke:#000000;" x="319.752851" xlink:href="#m964230c17c" y="197.64"/>
      </g>
     </g>
     <g id="line2d_52">
      <g>
       <use style="stroke:#000000;" x="319.752851" xlink:href="#m2fc2e531a0" y="143.28"/>
      </g>
     </g>
    </g>
    <g id="xtick_18">
     <g id="line2d_53">
      <g>
       <use style="stroke:#000000;" x="383.822196" xlink:href="#m964230c17c" y="197.64"/>
      </g>
     </g>
     <g id="line2d_54">
      <g>
       <use style="stroke:#000000;" x="383.822196" xlink:href="#m2fc2e531a0" y="143.28"/>
      </g>
     </g>
    </g>
   </g>
   <g id="matplotlib.axis_6">
    <g id="ytick_7">
     <g id="line2d_55">
      <g>
       <use style="stroke:#000000;" x="54" xlink:href="#m6618abffdd" y="185.56"/>
      </g>
     </g>
     <g id="line2d_56">
      <g>
       <use style="stroke:#000000;" x="388.8" xlink:href="#ma3b165e702" y="185.56"/>
      </g>
     </g>
     <g id="text_12">
      <!-- 0.5 -->
      <g transform="translate(38.268 188.709438)scale(0.088 -0.088)">
       <use xlink:href="#ArialMT-48"/>
       <use x="55.615234" xlink:href="#ArialMT-46"/>
       <use x="83.398438" xlink:href="#ArialMT-53"/>
      </g>
     </g>
    </g>
    <g id="ytick_8">
     <g id="line2d_57">
      <g>
       <use style="stroke:#000000;" x="54" xlink:href="#m6618abffdd" y="170.46"/>
      </g>
     </g>
     <g id="line2d_58">
      <g>
       <use style="stroke:#000000;" x="388.8" xlink:href="#ma3b165e702" y="170.46"/>
      </g>
     </g>
     <g id="text_13">
      <!-- 1.0 -->
      <g transform="translate(38.268 173.609438)scale(0.088 -0.088)">
       <use xlink:href="#ArialMT-49"/>
       <use x="55.615234" xlink:href="#ArialMT-46"/>
       <use x="83.398438" xlink:href="#ArialMT-48"/>
      </g>
     </g>
    </g>
    <g id="ytick_9">
     <g id="line2d_59">
      <g>
       <use style="stroke:#000000;" x="54" xlink:href="#m6618abffdd" y="155.36"/>
      </g>
     </g>
     <g id="line2d_60">
      <g>
       <use style="stroke:#000000;" x="388.8" xlink:href="#ma3b165e702" y="155.36"/>
      </g>
     </g>
     <g id="text_14">
      <!-- 1.5 -->
      <g transform="translate(38.268 158.509438)scale(0.088 -0.088)">
       <use xlink:href="#ArialMT-49"/>
       <use x="55.615234" xlink:href="#ArialMT-46"/>
       <use x="83.398438" xlink:href="#ArialMT-53"/>
      </g>
     </g>
    </g>
    <g id="text_15">
     <!-- $\beta$ -->
     <g transform="translate(32.252 173.532)rotate(-90)scale(0.096 -0.096)">
      <use transform="translate(0 0.390625)" xlink:href="#DejaVuSans-Oblique-946"/>
     </g>
    </g>
   </g>
   <g id="line2d_61">
    <path clip-path="url(#p4f3dcad9f6)" d="M 64.013654 170.431688 
L 66.5508 170.431688 
L 66.832705 178.618553 
L 69.369851 178.618553 
L 69.651757 183.035577 
L 72.188903 183.035577 
L 72.470808 187.674061 
L 75.007954 187.674061 
L 75.289859 186.664171 
L 77.827005 186.664171 
L 78.10891 191.359164 
L 80.646056 191.359164 
L 80.927961 192.925398 
L 86.284158 192.939825 
L 86.566064 193.095689 
L 89.10321 193.095689 
L 89.385115 192.686108 
L 91.922261 192.686108 
L 92.204166 192.096979 
L 94.741312 192.096979 
L 95.023217 191.375287 
L 97.560363 191.375287 
L 97.842268 190.941099 
L 100.379414 190.941099 
L 100.661319 191.602497 
L 103.198466 191.602497 
L 103.480371 190.556361 
L 106.017517 190.556361 
L 106.299422 187.675599 
L 108.836568 187.675599 
L 109.118473 190.695838 
L 114.47467 190.73246 
L 114.756575 187.639611 
L 117.293721 187.639611 
L 117.575627 192.412339 
L 120.112773 192.412339 
L 120.394678 191.889283 
L 122.931824 191.889283 
L 123.213729 192.162587 
L 128.569926 192.239647 
L 128.851831 191.220048 
L 131.388977 191.220048 
L 131.670882 192.459341 
L 134.208028 192.459341 
L 134.489934 191.529814 
L 137.02708 191.529814 
L 137.308985 192.285288 
L 139.846131 192.285288 
L 140.128036 191.638856 
L 142.665182 191.638856 
L 142.947087 189.604821 
L 145.484233 189.604821 
L 145.766138 188.105583 
L 148.303284 188.105583 
L 148.585189 190.077109 
L 151.122336 190.077109 
L 151.404241 190.675568 
L 153.941387 190.675568 
L 154.223292 192.675726 
L 156.760438 192.675726 
L 157.042343 191.042897 
L 159.579489 191.042897 
L 159.861394 188.375566 
L 162.39854 188.375566 
L 162.680445 189.565093 
L 165.217591 189.565093 
L 165.499497 188.445239 
L 168.036643 188.445239 
L 168.318548 187.563417 
L 170.855694 187.563417 
L 171.137599 190.870209 
L 173.674745 190.870209 
L 173.95665 191.382093 
L 176.493796 191.382093 
L 176.775701 191.743502 
L 179.312847 191.743502 
L 179.594752 190.412474 
L 182.131898 190.412474 
L 182.413804 191.936957 
L 184.95095 191.936957 
L 185.232855 191.394143 
L 187.770001 191.394143 
L 188.051906 191.863419 
L 190.589052 191.863419 
L 190.870957 190.582122 
L 193.408103 190.582122 
L 193.690008 191.139272 
L 196.227154 191.139272 
L 196.509059 192.754153 
L 199.046206 192.754153 
L 199.328111 190.270271 
L 201.865257 190.270271 
L 202.147162 191.350968 
L 204.684308 191.350968 
L 204.966213 190.805001 
L 207.503359 190.805001 
L 207.785264 192.133411 
L 210.32241 192.133411 
L 210.604315 192.368239 
L 213.141461 192.368239 
L 213.423367 192.059116 
L 215.960513 192.059116 
L 216.242418 192.389026 
L 218.779564 192.389026 
L 219.061469 192.071448 
L 221.598615 192.071448 
L 221.88052 189.296125 
L 224.417666 189.296125 
L 224.699571 189.983343 
L 227.236717 189.983343 
L 227.518622 190.967391 
L 230.055768 190.967391 
L 230.337674 189.954468 
L 232.87482 189.954468 
L 233.156725 189.762205 
L 235.693871 189.762205 
L 235.975776 192.648516 
L 238.512922 192.648516 
L 238.794827 194.006569 
L 241.331973 194.006569 
L 241.613878 190.863451 
L 244.151024 190.863451 
L 244.432929 191.62536 
L 246.970076 191.62536 
L 247.251981 189.670524 
L 249.789127 189.670524 
L 250.071032 189.473585 
L 252.608178 189.473585 
L 252.890083 190.237443 
L 255.427229 190.237443 
L 255.709134 192.114873 
L 258.24628 192.114873 
L 258.528185 191.829053 
L 263.884383 191.921924 
L 264.166288 190.724181 
L 266.703434 190.724181 
L 266.985339 191.716324 
L 269.522485 191.716324 
L 269.80439 191.167163 
L 272.341536 191.167163 
L 272.623441 191.826405 
L 275.160587 191.826405 
L 275.442492 189.730604 
L 277.979639 189.730604 
L 278.261544 189.511039 
L 280.79869 189.511039 
L 281.080595 187.618419 
L 283.617741 187.618419 
L 283.899646 189.861059 
L 286.436792 189.861059 
L 286.718697 190.070257 
L 289.255843 190.070257 
L 289.537748 191.703971 
L 292.074894 191.703971 
L 292.3568 190.823466 
L 294.893946 190.823466 
L 295.175851 191.841683 
L 297.712997 191.841683 
L 297.994902 192.505608 
L 300.532048 192.505608 
L 300.813953 192.224059 
L 306.17015 192.245217 
L 306.452055 190.362494 
L 308.989201 190.362494 
L 309.271107 191.285445 
L 311.808253 191.285445 
L 312.090158 190.025022 
L 314.627304 190.025022 
L 314.909209 188.04457 
L 317.446355 188.04457 
L 317.72826 191.404844 
L 319.1506 191.404844 
L 319.1506 191.404844 
" style="fill:none;stroke:#023eff;stroke-linecap:round;stroke-width:1.2;"/>
   </g>
   <g id="patch_17">
    <path d="M 54 197.64 
L 54 143.28 
" style="fill:none;stroke:#000000;stroke-linecap:square;stroke-linejoin:miter;"/>
   </g>
   <g id="patch_18">
    <path d="M 388.8 197.64 
L 388.8 143.28 
" style="fill:none;stroke:#000000;stroke-linecap:square;stroke-linejoin:miter;"/>
   </g>
   <g id="patch_19">
    <path d="M 54 197.64 
L 388.8 197.64 
" style="fill:none;stroke:#000000;stroke-linecap:square;stroke-linejoin:miter;"/>
   </g>
   <g id="patch_20">
    <path d="M 54 143.28 
L 388.8 143.28 
" style="fill:none;stroke:#000000;stroke-linecap:square;stroke-linejoin:miter;"/>
   </g>
   <g id="legend_3">
    <g id="patch_21">
     <path d="M 332.896 165.784 
L 384.64 165.784 
Q 386.4 165.784 386.4 164.024 
L 386.4 151.44 
Q 386.4 149.68 384.64 149.68 
L 332.896 149.68 
Q 331.136 149.68 331.136 151.44 
L 331.136 164.024 
Q 331.136 165.784 332.896 165.784 
z
" style="fill:#4c4c4c;opacity:0.5;stroke:#4c4c4c;stroke-linejoin:miter;stroke-width:0.8;"/>
    </g>
    <g id="patch_22">
     <path d="M 330.896 163.784 
L 382.64 163.784 
Q 384.4 163.784 384.4 162.024 
L 384.4 149.44 
Q 384.4 147.68 382.64 147.68 
L 330.896 147.68 
Q 329.136 147.68 329.136 149.44 
L 329.136 162.024 
Q 329.136 163.784 330.896 163.784 
z
" style="fill:#ffffff;stroke:#000000;stroke-linejoin:miter;stroke-width:0.8;"/>
    </g>
    <g id="line2d_62">
     <path d="M 332.656 154.456 
L 339.696 154.456 
" style="fill:none;stroke:#023eff;stroke-linecap:round;stroke-width:1.2;"/>
    </g>
    <g id="line2d_63"/>
    <g id="text_16">
     <!-- $n_{step}$=10 -->
     <g transform="translate(346.736 157.536)scale(0.088 -0.088)">
      <use transform="translate(0 0.125)" xlink:href="#DejaVuSans-Oblique-110"/>
      <use transform="translate(63.378906 -16.28125)scale(0.7)" xlink:href="#DejaVuSans-Oblique-115"/>
      <use transform="translate(99.848633 -16.28125)scale(0.7)" xlink:href="#DejaVuSans-Oblique-116"/>
      <use transform="translate(127.294922 -16.28125)scale(0.7)" xlink:href="#DejaVuSans-Oblique-101"/>
      <use transform="translate(170.361328 -16.28125)scale(0.7)" xlink:href="#DejaVuSans-Oblique-112"/>
      <use transform="translate(217.529297 0.125)" xlink:href="#ArialMT-61"/>
      <use transform="translate(275.927734 0.125)" xlink:href="#ArialMT-49"/>
      <use transform="translate(331.542969 0.125)" xlink:href="#ArialMT-48"/>
     </g>
    </g>
   </g>
  </g>
  <g id="axes_4">
   <g id="patch_23">
    <path d="M 54 252 
L 388.8 252 
L 388.8 197.64 
L 54 197.64 
z
" style="fill:#ffffff;"/>
   </g>
   <g id="matplotlib.axis_7">
    <g id="xtick_19">
     <g id="line2d_64">
      <g>
       <use style="stroke:#000000;" x="63.475472" xlink:href="#m964230c17c" y="252"/>
      </g>
     </g>
     <g id="line2d_65">
      <g>
       <use style="stroke:#000000;" x="63.475472" xlink:href="#m2fc2e531a0" y="197.64"/>
      </g>
     </g>
     <g id="text_17">
      <!-- $\mathdefault{0.0}$ -->
      <g transform="translate(57.315472 261.798875)scale(0.088 -0.088)">
       <use transform="translate(0 0.125)" xlink:href="#ArialMT-48"/>
       <use transform="translate(55.615234 0.125)" xlink:href="#ArialMT-46"/>
       <use transform="translate(83.398438 0.125)" xlink:href="#ArialMT-48"/>
      </g>
     </g>
    </g>
    <g id="xtick_20">
     <g id="line2d_66">
      <g>
       <use style="stroke:#000000;" x="127.544817" xlink:href="#m964230c17c" y="252"/>
      </g>
     </g>
     <g id="line2d_67">
      <g>
       <use style="stroke:#000000;" x="127.544817" xlink:href="#m2fc2e531a0" y="197.64"/>
      </g>
     </g>
     <g id="text_18">
      <!-- $\mathdefault{0.5}$ -->
      <g transform="translate(121.384817 261.798875)scale(0.088 -0.088)">
       <use transform="translate(0 0.125)" xlink:href="#ArialMT-48"/>
       <use transform="translate(55.615234 0.125)" xlink:href="#ArialMT-46"/>
       <use transform="translate(83.398438 0.125)" xlink:href="#ArialMT-53"/>
      </g>
     </g>
    </g>
    <g id="xtick_21">
     <g id="line2d_68">
      <g>
       <use style="stroke:#000000;" x="191.614162" xlink:href="#m964230c17c" y="252"/>
      </g>
     </g>
     <g id="line2d_69">
      <g>
       <use style="stroke:#000000;" x="191.614162" xlink:href="#m2fc2e531a0" y="197.64"/>
      </g>
     </g>
     <g id="text_19">
      <!-- $\mathdefault{1.0}$ -->
      <g transform="translate(185.454162 261.798875)scale(0.088 -0.088)">
       <use transform="translate(0 0.125)" xlink:href="#ArialMT-49"/>
       <use transform="translate(55.615234 0.125)" xlink:href="#ArialMT-46"/>
       <use transform="translate(83.398438 0.125)" xlink:href="#ArialMT-48"/>
      </g>
     </g>
    </g>
    <g id="xtick_22">
     <g id="line2d_70">
      <g>
       <use style="stroke:#000000;" x="255.683506" xlink:href="#m964230c17c" y="252"/>
      </g>
     </g>
     <g id="line2d_71">
      <g>
       <use style="stroke:#000000;" x="255.683506" xlink:href="#m2fc2e531a0" y="197.64"/>
      </g>
     </g>
     <g id="text_20">
      <!-- $\mathdefault{1.5}$ -->
      <g transform="translate(249.523506 261.798875)scale(0.088 -0.088)">
       <use transform="translate(0 0.125)" xlink:href="#ArialMT-49"/>
       <use transform="translate(55.615234 0.125)" xlink:href="#ArialMT-46"/>
       <use transform="translate(83.398438 0.125)" xlink:href="#ArialMT-53"/>
      </g>
     </g>
    </g>
    <g id="xtick_23">
     <g id="line2d_72">
      <g>
       <use style="stroke:#000000;" x="319.752851" xlink:href="#m964230c17c" y="252"/>
      </g>
     </g>
     <g id="line2d_73">
      <g>
       <use style="stroke:#000000;" x="319.752851" xlink:href="#m2fc2e531a0" y="197.64"/>
      </g>
     </g>
     <g id="text_21">
      <!-- $\mathdefault{2.0}$ -->
      <defs>
       <path d="M 50.34375 8.453125 
L 50.34375 0 
L 3.03125 0 
Q 2.9375 3.171875 4.046875 6.109375 
Q 5.859375 10.9375 9.828125 15.625 
Q 13.8125 20.3125 21.34375 26.46875 
Q 33.015625 36.03125 37.109375 41.625 
Q 41.21875 47.21875 41.21875 52.203125 
Q 41.21875 57.421875 37.46875 61 
Q 33.734375 64.59375 27.734375 64.59375 
Q 21.390625 64.59375 17.578125 60.78125 
Q 13.765625 56.984375 13.71875 50.25 
L 4.6875 51.171875 
Q 5.609375 61.28125 11.65625 66.578125 
Q 17.71875 71.875 27.9375 71.875 
Q 38.234375 71.875 44.234375 66.15625 
Q 50.25 60.453125 50.25 52 
Q 50.25 47.703125 48.484375 43.546875 
Q 46.734375 39.40625 42.65625 34.8125 
Q 38.578125 30.21875 29.109375 22.21875 
Q 21.1875 15.578125 18.9375 13.203125 
Q 16.703125 10.84375 15.234375 8.453125 
z
" id="ArialMT-50"/>
      </defs>
      <g transform="translate(313.592851 261.798875)scale(0.088 -0.088)">
       <use transform="translate(0 0.125)" xlink:href="#ArialMT-50"/>
       <use transform="translate(55.615234 0.125)" xlink:href="#ArialMT-46"/>
       <use transform="translate(83.398438 0.125)" xlink:href="#ArialMT-48"/>
      </g>
     </g>
    </g>
    <g id="xtick_24">
     <g id="line2d_74">
      <g>
       <use style="stroke:#000000;" x="383.822196" xlink:href="#m964230c17c" y="252"/>
      </g>
     </g>
     <g id="line2d_75">
      <g>
       <use style="stroke:#000000;" x="383.822196" xlink:href="#m2fc2e531a0" y="197.64"/>
      </g>
     </g>
     <g id="text_22">
      <!-- $\mathdefault{2.5}$ -->
      <g transform="translate(377.662196 261.798875)scale(0.088 -0.088)">
       <use transform="translate(0 0.125)" xlink:href="#ArialMT-50"/>
       <use transform="translate(55.615234 0.125)" xlink:href="#ArialMT-46"/>
       <use transform="translate(83.398438 0.125)" xlink:href="#ArialMT-53"/>
      </g>
     </g>
    </g>
    <g id="text_23">
     <!-- evaluations -->
     <defs>
      <path d="M 21 0 
L 1.265625 51.859375 
L 10.546875 51.859375 
L 21.6875 20.796875 
Q 23.484375 15.765625 25 10.359375 
Q 26.171875 14.453125 28.265625 20.21875 
L 39.796875 51.859375 
L 48.828125 51.859375 
L 29.203125 0 
z
" id="ArialMT-118"/>
      <path d="M 40.4375 6.390625 
Q 35.546875 2.25 31.03125 0.53125 
Q 26.515625 -1.171875 21.34375 -1.171875 
Q 12.796875 -1.171875 8.203125 3 
Q 3.609375 7.171875 3.609375 13.671875 
Q 3.609375 17.484375 5.34375 20.625 
Q 7.078125 23.78125 9.890625 25.6875 
Q 12.703125 27.59375 16.21875 28.5625 
Q 18.796875 29.25 24.03125 29.890625 
Q 34.671875 31.15625 39.703125 32.90625 
Q 39.75 34.71875 39.75 35.203125 
Q 39.75 40.578125 37.25 42.78125 
Q 33.890625 45.75 27.25 45.75 
Q 21.046875 45.75 18.09375 43.578125 
Q 15.140625 41.40625 13.71875 35.890625 
L 5.125 37.0625 
Q 6.296875 42.578125 8.984375 45.96875 
Q 11.671875 49.359375 16.75 51.1875 
Q 21.828125 53.03125 28.515625 53.03125 
Q 35.15625 53.03125 39.296875 51.46875 
Q 43.453125 49.90625 45.40625 47.53125 
Q 47.359375 45.171875 48.140625 41.546875 
Q 48.578125 39.3125 48.578125 33.453125 
L 48.578125 21.734375 
Q 48.578125 9.46875 49.140625 6.21875 
Q 49.703125 2.984375 51.375 0 
L 42.1875 0 
Q 40.828125 2.734375 40.4375 6.390625 
z
M 39.703125 26.03125 
Q 34.90625 24.078125 25.34375 22.703125 
Q 19.921875 21.921875 17.671875 20.9375 
Q 15.4375 19.96875 14.203125 18.09375 
Q 12.984375 16.21875 12.984375 13.921875 
Q 12.984375 10.40625 15.640625 8.0625 
Q 18.3125 5.71875 23.4375 5.71875 
Q 28.515625 5.71875 32.46875 7.9375 
Q 36.421875 10.15625 38.28125 14.015625 
Q 39.703125 17 39.703125 22.796875 
z
" id="ArialMT-97"/>
      <path d="M 6.390625 0 
L 6.390625 71.578125 
L 15.1875 71.578125 
L 15.1875 0 
z
" id="ArialMT-108"/>
      <path d="M 40.578125 0 
L 40.578125 7.625 
Q 34.515625 -1.171875 24.125 -1.171875 
Q 19.53125 -1.171875 15.546875 0.578125 
Q 11.578125 2.34375 9.640625 5 
Q 7.71875 7.671875 6.9375 11.53125 
Q 6.390625 14.109375 6.390625 19.734375 
L 6.390625 51.859375 
L 15.1875 51.859375 
L 15.1875 23.09375 
Q 15.1875 16.21875 15.71875 13.8125 
Q 16.546875 10.359375 19.234375 8.375 
Q 21.921875 6.390625 25.875 6.390625 
Q 29.828125 6.390625 33.296875 8.421875 
Q 36.765625 10.453125 38.203125 13.9375 
Q 39.65625 17.4375 39.65625 24.078125 
L 39.65625 51.859375 
L 48.4375 51.859375 
L 48.4375 0 
z
" id="ArialMT-117"/>
      <path d="M 25.78125 7.859375 
L 27.046875 0.09375 
Q 23.34375 -0.6875 20.40625 -0.6875 
Q 15.625 -0.6875 12.984375 0.828125 
Q 10.359375 2.34375 9.28125 4.8125 
Q 8.203125 7.28125 8.203125 15.1875 
L 8.203125 45.015625 
L 1.765625 45.015625 
L 1.765625 51.859375 
L 8.203125 51.859375 
L 8.203125 64.703125 
L 16.9375 69.96875 
L 16.9375 51.859375 
L 25.78125 51.859375 
L 25.78125 45.015625 
L 16.9375 45.015625 
L 16.9375 14.703125 
Q 16.9375 10.9375 17.40625 9.859375 
Q 17.875 8.796875 18.921875 8.15625 
Q 19.96875 7.515625 21.921875 7.515625 
Q 23.390625 7.515625 25.78125 7.859375 
z
" id="ArialMT-116"/>
      <path d="M 6.640625 61.46875 
L 6.640625 71.578125 
L 15.4375 71.578125 
L 15.4375 61.46875 
z
M 6.640625 0 
L 6.640625 51.859375 
L 15.4375 51.859375 
L 15.4375 0 
z
" id="ArialMT-105"/>
     </defs>
     <g transform="translate(197.118 274.419375)scale(0.096 -0.096)">
      <use xlink:href="#ArialMT-101"/>
      <use x="55.615234" xlink:href="#ArialMT-118"/>
      <use x="105.615234" xlink:href="#ArialMT-97"/>
      <use x="161.230469" xlink:href="#ArialMT-108"/>
      <use x="183.447266" xlink:href="#ArialMT-117"/>
      <use x="239.0625" xlink:href="#ArialMT-97"/>
      <use x="294.677734" xlink:href="#ArialMT-116"/>
      <use x="322.460938" xlink:href="#ArialMT-105"/>
      <use x="344.677734" xlink:href="#ArialMT-111"/>
      <use x="400.292969" xlink:href="#ArialMT-110"/>
      <use x="455.908203" xlink:href="#ArialMT-115"/>
     </g>
    </g>
    <g id="text_24">
     <!-- $\times\mathdefault{10^{4}}\mathdefault{}$ -->
     <defs>
      <path d="M 70.125 53.71875 
L 47.796875 31.296875 
L 70.125 8.984375 
L 64.3125 3.078125 
L 41.890625 25.484375 
L 19.484375 3.078125 
L 13.71875 8.984375 
L 35.984375 31.296875 
L 13.71875 53.71875 
L 19.484375 59.625 
L 41.890625 37.203125 
L 64.3125 59.625 
z
" id="DejaVuSans-215"/>
      <path d="M 32.328125 0 
L 32.328125 17.140625 
L 1.265625 17.140625 
L 1.265625 25.203125 
L 33.9375 71.578125 
L 41.109375 71.578125 
L 41.109375 25.203125 
L 50.78125 25.203125 
L 50.78125 17.140625 
L 41.109375 17.140625 
L 41.109375 0 
z
M 32.328125 25.203125 
L 32.328125 57.46875 
L 9.90625 25.203125 
z
" id="ArialMT-52"/>
     </defs>
     <g transform="translate(367.592 275.534875)scale(0.088 -0.088)">
      <use transform="translate(0 0.201563)" xlink:href="#DejaVuSans-215"/>
      <use transform="translate(83.789062 0.201563)" xlink:href="#ArialMT-49"/>
      <use transform="translate(139.404297 0.201563)" xlink:href="#ArialMT-48"/>
      <use transform="translate(196.761875 69.895313)scale(0.7)" xlink:href="#ArialMT-52"/>
     </g>
    </g>
   </g>
   <g id="matplotlib.axis_8">
    <g id="ytick_10">
     <g id="line2d_76">
      <g>
       <use style="stroke:#000000;" x="54" xlink:href="#m6618abffdd" y="239.92"/>
      </g>
     </g>
     <g id="line2d_77">
      <g>
       <use style="stroke:#000000;" x="388.8" xlink:href="#ma3b165e702" y="239.92"/>
      </g>
     </g>
     <g id="text_25">
      <!-- 0.5 -->
      <g transform="translate(38.268 243.069437)scale(0.088 -0.088)">
       <use xlink:href="#ArialMT-48"/>
       <use x="55.615234" xlink:href="#ArialMT-46"/>
       <use x="83.398438" xlink:href="#ArialMT-53"/>
      </g>
     </g>
    </g>
    <g id="ytick_11">
     <g id="line2d_78">
      <g>
       <use style="stroke:#000000;" x="54" xlink:href="#m6618abffdd" y="224.82"/>
      </g>
     </g>
     <g id="line2d_79">
      <g>
       <use style="stroke:#000000;" x="388.8" xlink:href="#ma3b165e702" y="224.82"/>
      </g>
     </g>
     <g id="text_26">
      <!-- 1.0 -->
      <g transform="translate(38.268 227.969437)scale(0.088 -0.088)">
       <use xlink:href="#ArialMT-49"/>
       <use x="55.615234" xlink:href="#ArialMT-46"/>
       <use x="83.398438" xlink:href="#ArialMT-48"/>
      </g>
     </g>
    </g>
    <g id="ytick_12">
     <g id="line2d_80">
      <g>
       <use style="stroke:#000000;" x="54" xlink:href="#m6618abffdd" y="209.72"/>
      </g>
     </g>
     <g id="line2d_81">
      <g>
       <use style="stroke:#000000;" x="388.8" xlink:href="#ma3b165e702" y="209.72"/>
      </g>
     </g>
     <g id="text_27">
      <!-- 1.5 -->
      <g transform="translate(38.268 212.869438)scale(0.088 -0.088)">
       <use xlink:href="#ArialMT-49"/>
       <use x="55.615234" xlink:href="#ArialMT-46"/>
       <use x="83.398438" xlink:href="#ArialMT-53"/>
      </g>
     </g>
    </g>
    <g id="text_28">
     <!-- $\beta$ -->
     <g transform="translate(32.252 227.892)rotate(-90)scale(0.096 -0.096)">
      <use transform="translate(0 0.390625)" xlink:href="#DejaVuSans-Oblique-946"/>
     </g>
    </g>
   </g>
   <g id="line2d_82">
    <path clip-path="url(#pda8393ae5b)" d="M 64.013654 218.73414 
L 77.827005 218.73414 
L 78.10891 226.105015 
L 91.922261 226.105015 
L 92.204166 233.840302 
L 106.017517 233.840302 
L 106.299422 239.176238 
L 120.112773 239.176238 
L 120.394678 241.506616 
L 134.208028 241.506616 
L 134.489934 244.897426 
L 148.303284 244.897426 
L 148.585189 245.616743 
L 176.493796 245.586986 
L 176.775701 246.509333 
L 190.589052 246.509333 
L 190.870957 246.665243 
L 218.779564 246.605734 
L 219.061469 247.189269 
L 232.87482 247.189269 
L 233.156725 248.090002 
L 246.970076 248.090002 
L 247.251981 244.866269 
L 261.065331 244.866269 
L 261.347237 246.507192 
L 275.160587 246.507192 
L 275.442492 243.73848 
L 289.255843 243.73848 
L 289.537748 245.737291 
L 303.351099 245.737291 
L 303.633004 245.103675 
L 317.446355 245.103675 
L 317.72826 245.443902 
L 331.541611 245.443902 
L 331.823516 245.068483 
L 345.636867 245.068483 
L 345.918772 245.987071 
L 359.732123 245.987071 
L 360.014028 245.070559 
L 373.827379 245.070559 
L 374.109284 243.593201 
L 379.324528 243.593201 
L 379.324528 243.593201 
" style="fill:none;stroke:#00d7ff;stroke-linecap:round;stroke-width:1.2;"/>
   </g>
   <g id="patch_24">
    <path d="M 54 252 
L 54 197.64 
" style="fill:none;stroke:#000000;stroke-linecap:square;stroke-linejoin:miter;"/>
   </g>
   <g id="patch_25">
    <path d="M 388.8 252 
L 388.8 197.64 
" style="fill:none;stroke:#000000;stroke-linecap:square;stroke-linejoin:miter;"/>
   </g>
   <g id="patch_26">
    <path d="M 54 252 
L 388.8 252 
" style="fill:none;stroke:#000000;stroke-linecap:square;stroke-linejoin:miter;"/>
   </g>
   <g id="patch_27">
    <path d="M 54 197.64 
L 388.8 197.64 
" style="fill:none;stroke:#000000;stroke-linecap:square;stroke-linejoin:miter;"/>
   </g>
   <g id="legend_4">
    <g id="patch_28">
     <path d="M 332.896 220.144 
L 384.64 220.144 
Q 386.4 220.144 386.4 218.384 
L 386.4 205.8 
Q 386.4 204.04 384.64 204.04 
L 332.896 204.04 
Q 331.136 204.04 331.136 205.8 
L 331.136 218.384 
Q 331.136 220.144 332.896 220.144 
z
" style="fill:#4c4c4c;opacity:0.5;stroke:#4c4c4c;stroke-linejoin:miter;stroke-width:0.8;"/>
    </g>
    <g id="patch_29">
     <path d="M 330.896 218.144 
L 382.64 218.144 
Q 384.4 218.144 384.4 216.384 
L 384.4 203.8 
Q 384.4 202.04 382.64 202.04 
L 330.896 202.04 
Q 329.136 202.04 329.136 203.8 
L 329.136 216.384 
Q 329.136 218.144 330.896 218.144 
z
" style="fill:#ffffff;stroke:#000000;stroke-linejoin:miter;stroke-width:0.8;"/>
    </g>
    <g id="line2d_83">
     <path d="M 332.656 208.816 
L 339.696 208.816 
" style="fill:none;stroke:#00d7ff;stroke-linecap:round;stroke-width:1.2;"/>
    </g>
    <g id="line2d_84"/>
    <g id="text_29">
     <!-- $n_{step}$=50 -->
     <g transform="translate(346.736 211.896)scale(0.088 -0.088)">
      <use transform="translate(0 0.125)" xlink:href="#DejaVuSans-Oblique-110"/>
      <use transform="translate(63.378906 -16.28125)scale(0.7)" xlink:href="#DejaVuSans-Oblique-115"/>
      <use transform="translate(99.848633 -16.28125)scale(0.7)" xlink:href="#DejaVuSans-Oblique-116"/>
      <use transform="translate(127.294922 -16.28125)scale(0.7)" xlink:href="#DejaVuSans-Oblique-101"/>
      <use transform="translate(170.361328 -16.28125)scale(0.7)" xlink:href="#DejaVuSans-Oblique-112"/>
      <use transform="translate(217.529297 0.125)" xlink:href="#ArialMT-61"/>
      <use transform="translate(275.927734 0.125)" xlink:href="#ArialMT-53"/>
      <use transform="translate(331.542969 0.125)" xlink:href="#ArialMT-48"/>
     </g>
    </g>
   </g>
  </g>
 </g>
 <defs>
  <clipPath id="pcd8a57d7d7">
   <rect height="54.36" width="334.8" x="54" y="34.56"/>
  </clipPath>
  <clipPath id="pd28489a712">
   <rect height="54.36" width="334.8" x="54" y="88.92"/>
  </clipPath>
  <clipPath id="p4f3dcad9f6">
   <rect height="54.36" width="334.8" x="54" y="143.28"/>
  </clipPath>
  <clipPath id="pda8393ae5b">
   <rect height="54.36" width="334.8" x="54" y="197.64"/>
  </clipPath>
 </defs>
</svg>
