<?xml version="1.0" encoding="utf-8" standalone="no"?>
<!DOCTYPE svg PUBLIC "-//W3C//DTD SVG 1.1//EN"
  "http://www.w3.org/Graphics/SVG/1.1/DTD/svg11.dtd">
<!-- Created with matplotlib (https://matplotlib.org/) -->
<svg height="288pt" version="1.1" viewBox="0 0 432 288" width="432pt" xmlns="http://www.w3.org/2000/svg" xmlns:xlink="http://www.w3.org/1999/xlink">
 <defs>
  <style type="text/css">
*{stroke-linecap:butt;stroke-linejoin:round;}
  </style>
 </defs>
 <g id="figure_1">
  <g id="patch_1">
   <path d="M 0 288 
L 432 288 
L 432 0 
L 0 0 
z
" style="fill:#ffffff;"/>
  </g>
  <g id="axes_1">
   <g id="patch_2">
    <path d="M 54 88.92 
L 388.8 88.92 
L 388.8 34.56 
L 54 34.56 
z
" style="fill:#ffffff;"/>
   </g>
   <g id="matplotlib.axis_1">
    <g id="xtick_1">
     <g id="line2d_1">
      <defs>
       <path d="M 0 0 
L 0 -3 
" id="mca0af6e749" style="stroke:#000000;"/>
      </defs>
      <g>
       <use style="stroke:#000000;" x="63.475472" xlink:href="#mca0af6e749" y="88.92"/>
      </g>
     </g>
     <g id="line2d_2">
      <defs>
       <path d="M 0 0 
L 0 3 
" id="m8ec23f0202" style="stroke:#000000;"/>
      </defs>
      <g>
       <use style="stroke:#000000;" x="63.475472" xlink:href="#m8ec23f0202" y="34.56"/>
      </g>
     </g>
    </g>
    <g id="xtick_2">
     <g id="line2d_3">
      <g>
       <use style="stroke:#000000;" x="120.166619" xlink:href="#mca0af6e749" y="88.92"/>
      </g>
     </g>
     <g id="line2d_4">
      <g>
       <use style="stroke:#000000;" x="120.166619" xlink:href="#m8ec23f0202" y="34.56"/>
      </g>
     </g>
    </g>
    <g id="xtick_3">
     <g id="line2d_5">
      <g>
       <use style="stroke:#000000;" x="176.857766" xlink:href="#mca0af6e749" y="88.92"/>
      </g>
     </g>
     <g id="line2d_6">
      <g>
       <use style="stroke:#000000;" x="176.857766" xlink:href="#m8ec23f0202" y="34.56"/>
      </g>
     </g>
    </g>
    <g id="xtick_4">
     <g id="line2d_7">
      <g>
       <use style="stroke:#000000;" x="233.548913" xlink:href="#mca0af6e749" y="88.92"/>
      </g>
     </g>
     <g id="line2d_8">
      <g>
       <use style="stroke:#000000;" x="233.548913" xlink:href="#m8ec23f0202" y="34.56"/>
      </g>
     </g>
    </g>
    <g id="xtick_5">
     <g id="line2d_9">
      <g>
       <use style="stroke:#000000;" x="290.24006" xlink:href="#mca0af6e749" y="88.92"/>
      </g>
     </g>
     <g id="line2d_10">
      <g>
       <use style="stroke:#000000;" x="290.24006" xlink:href="#m8ec23f0202" y="34.56"/>
      </g>
     </g>
    </g>
    <g id="xtick_6">
     <g id="line2d_11">
      <g>
       <use style="stroke:#000000;" x="346.931207" xlink:href="#mca0af6e749" y="88.92"/>
      </g>
     </g>
     <g id="line2d_12">
      <g>
       <use style="stroke:#000000;" x="346.931207" xlink:href="#m8ec23f0202" y="34.56"/>
      </g>
     </g>
    </g>
   </g>
   <g id="matplotlib.axis_2">
    <g id="ytick_1">
     <g id="line2d_13">
      <defs>
       <path d="M 0 0 
L 3 0 
" id="m38a8a1300f" style="stroke:#000000;"/>
      </defs>
      <g>
       <use style="stroke:#000000;" x="54" xlink:href="#m38a8a1300f" y="76.84"/>
      </g>
     </g>
     <g id="line2d_14">
      <defs>
       <path d="M 0 0 
L -3 0 
" id="mfa8c9dbd12" style="stroke:#000000;"/>
      </defs>
      <g>
       <use style="stroke:#000000;" x="388.8" xlink:href="#mfa8c9dbd12" y="76.84"/>
      </g>
     </g>
     <g id="text_1">
      <!-- 0.5 -->
      <defs>
       <path d="M 4.15625 35.296875 
Q 4.15625 48 6.765625 55.734375 
Q 9.375 63.484375 14.515625 67.671875 
Q 19.671875 71.875 27.484375 71.875 
Q 33.25 71.875 37.59375 69.546875 
Q 41.9375 67.234375 44.765625 62.859375 
Q 47.609375 58.5 49.21875 52.21875 
Q 50.828125 45.953125 50.828125 35.296875 
Q 50.828125 22.703125 48.234375 14.96875 
Q 45.65625 7.234375 40.5 3 
Q 35.359375 -1.21875 27.484375 -1.21875 
Q 17.140625 -1.21875 11.234375 6.203125 
Q 4.15625 15.140625 4.15625 35.296875 
z
M 13.1875 35.296875 
Q 13.1875 17.671875 17.3125 11.828125 
Q 21.4375 6 27.484375 6 
Q 33.546875 6 37.671875 11.859375 
Q 41.796875 17.71875 41.796875 35.296875 
Q 41.796875 52.984375 37.671875 58.78125 
Q 33.546875 64.59375 27.390625 64.59375 
Q 21.34375 64.59375 17.71875 59.46875 
Q 13.1875 52.9375 13.1875 35.296875 
z
" id="ArialMT-48"/>
       <path d="M 9.078125 0 
L 9.078125 10.015625 
L 19.09375 10.015625 
L 19.09375 0 
z
" id="ArialMT-46"/>
       <path d="M 4.15625 18.75 
L 13.375 19.53125 
Q 14.40625 12.796875 18.140625 9.390625 
Q 21.875 6 27.15625 6 
Q 33.5 6 37.890625 10.78125 
Q 42.28125 15.578125 42.28125 23.484375 
Q 42.28125 31 38.0625 35.34375 
Q 33.84375 39.703125 27 39.703125 
Q 22.75 39.703125 19.328125 37.765625 
Q 15.921875 35.84375 13.96875 32.765625 
L 5.71875 33.84375 
L 12.640625 70.609375 
L 48.25 70.609375 
L 48.25 62.203125 
L 19.671875 62.203125 
L 15.828125 42.96875 
Q 22.265625 47.46875 29.34375 47.46875 
Q 38.71875 47.46875 45.15625 40.96875 
Q 51.609375 34.46875 51.609375 24.265625 
Q 51.609375 14.546875 45.953125 7.46875 
Q 39.0625 -1.21875 27.15625 -1.21875 
Q 17.390625 -1.21875 11.203125 4.25 
Q 5.03125 9.71875 4.15625 18.75 
z
" id="ArialMT-53"/>
      </defs>
      <g transform="translate(38.268 79.989438)scale(0.088 -0.088)">
       <use xlink:href="#ArialMT-48"/>
       <use x="55.615234" xlink:href="#ArialMT-46"/>
       <use x="83.398438" xlink:href="#ArialMT-53"/>
      </g>
     </g>
    </g>
    <g id="ytick_2">
     <g id="line2d_15">
      <g>
       <use style="stroke:#000000;" x="54" xlink:href="#m38a8a1300f" y="61.74"/>
      </g>
     </g>
     <g id="line2d_16">
      <g>
       <use style="stroke:#000000;" x="388.8" xlink:href="#mfa8c9dbd12" y="61.74"/>
      </g>
     </g>
     <g id="text_2">
      <!-- 1.0 -->
      <defs>
       <path d="M 37.25 0 
L 28.46875 0 
L 28.46875 56 
Q 25.296875 52.984375 20.140625 49.953125 
Q 14.984375 46.921875 10.890625 45.40625 
L 10.890625 53.90625 
Q 18.265625 57.375 23.78125 62.296875 
Q 29.296875 67.234375 31.59375 71.875 
L 37.25 71.875 
z
" id="ArialMT-49"/>
      </defs>
      <g transform="translate(38.268 64.889438)scale(0.088 -0.088)">
       <use xlink:href="#ArialMT-49"/>
       <use x="55.615234" xlink:href="#ArialMT-46"/>
       <use x="83.398438" xlink:href="#ArialMT-48"/>
      </g>
     </g>
    </g>
    <g id="ytick_3">
     <g id="line2d_17">
      <g>
       <use style="stroke:#000000;" x="54" xlink:href="#m38a8a1300f" y="46.64"/>
      </g>
     </g>
     <g id="line2d_18">
      <g>
       <use style="stroke:#000000;" x="388.8" xlink:href="#mfa8c9dbd12" y="46.64"/>
      </g>
     </g>
     <g id="text_3">
      <!-- 1.5 -->
      <g transform="translate(38.268 49.789438)scale(0.088 -0.088)">
       <use xlink:href="#ArialMT-49"/>
       <use x="55.615234" xlink:href="#ArialMT-46"/>
       <use x="83.398438" xlink:href="#ArialMT-53"/>
      </g>
     </g>
    </g>
    <g id="text_4">
     <!-- $\beta$ -->
     <defs>
      <path d="M 13.625 3.375 
L 8.9375 -20.796875 
L -0.09375 -20.796875 
L 14.5 54.34375 
Q 18.84375 76.609375 39.65625 76.609375 
Q 60.75 76.609375 57.171875 57.8125 
Q 54.734375 44.4375 45.21875 39.546875 
Q 58.015625 35.15625 55.515625 22.125 
Q 51.125 -1.078125 27.484375 -1.03125 
Q 17.140625 -0.984375 13.625 3.375 
z
M 15.921875 15.09375 
Q 19.671875 6.59375 29.296875 6.640625 
Q 43.359375 6.640625 46.34375 21.96875 
Q 49.03125 35.75 26.171875 34.671875 
L 27.78125 42.96875 
Q 45.453125 42.671875 48.53125 58.59375 
Q 50.640625 69.34375 39.203125 69.28125 
Q 26.421875 69.28125 23.484375 54.046875 
z
" id="DejaVuSans-Oblique-946"/>
     </defs>
     <g transform="translate(32.252 64.812)rotate(-90)scale(0.096 -0.096)">
      <use transform="translate(0 0.390625)" xlink:href="#DejaVuSans-Oblique-946"/>
     </g>
    </g>
   </g>
   <g id="line2d_19">
    <path clip-path="url(#p1cae6eb522)" d="M 63.951677 62.589266 
L 64.201118 66.871514 
L 64.7 70.577313 
L 64.949442 75.836016 
L 65.198883 77.029189 
L 65.448324 77.065626 
L 65.697765 78.508036 
L 65.947206 78.487901 
L 66.196647 79.242648 
L 66.695529 81.333373 
L 66.94497 78.727862 
L 67.443852 82.589168 
L 67.693293 82.679168 
L 67.942734 83.101274 
L 68.192175 79.287926 
L 68.441616 77.877047 
L 68.691057 79.291932 
L 68.940498 77.828584 
L 69.189939 78.400691 
L 69.43938 81.015695 
L 69.688821 82.159361 
L 70.187704 80.449128 
L 70.437145 81.801256 
L 70.686586 82.275013 
L 70.936027 82.177644 
L 71.185468 83.313416 
L 71.68435 79.101309 
L 71.933791 79.705485 
L 72.432673 84.413173 
L 72.682114 84.710508 
L 72.931555 85.281648 
L 73.180996 84.711328 
L 73.430437 85.031415 
L 73.679878 82.920742 
L 73.929319 83.102894 
L 74.17876 82.146942 
L 74.428201 81.87917 
L 74.677642 82.0889 
L 74.927083 82.734968 
L 75.176524 82.778831 
L 75.425965 81.609638 
L 75.675407 81.997177 
L 75.924848 83.531206 
L 76.174289 83.456914 
L 76.42373 83.582904 
L 76.673171 83.494707 
L 76.922612 82.995037 
L 77.172053 82.030595 
L 77.421494 79.812439 
L 77.670935 79.884756 
L 77.920376 80.907508 
L 78.169817 79.211975 
L 78.419258 76.552335 
L 78.668699 77.425564 
L 79.167581 81.071628 
L 79.417022 81.175703 
L 79.666463 81.09742 
L 79.915904 81.335205 
L 80.165345 83.276864 
L 80.414786 83.284501 
L 80.664227 80.797722 
L 80.913669 82.847938 
L 81.16311 82.545574 
L 81.412551 82.705436 
L 81.661992 82.166684 
L 81.911433 81.321429 
L 82.160874 82.26342 
L 82.410315 81.851244 
L 82.659756 81.823373 
L 82.909197 79.37288 
L 83.158638 78.945615 
L 83.408079 79.450139 
L 83.65752 80.515428 
L 83.906961 80.126395 
L 84.156402 79.251016 
L 84.405843 79.581791 
L 84.655284 80.705024 
L 84.904725 78.906278 
L 85.154166 76.106437 
L 85.403607 76.081835 
L 85.902489 78.501309 
L 86.151931 76.982113 
L 86.650813 78.314869 
L 86.900254 77.208567 
L 87.149695 76.807993 
L 87.648577 78.508216 
L 88.147459 73.206651 
L 88.3969 69.063637 
L 88.646341 68.563543 
L 88.895782 66.087776 
L 89.145223 66.565536 
L 89.644105 73.029555 
L 89.893546 74.495945 
L 90.142987 71.966495 
L 90.392428 71.997628 
L 90.641869 70.417681 
L 90.89131 70.8583 
L 91.140751 70.423062 
L 91.390192 69.637178 
L 91.639634 70.398823 
L 91.889075 72.801502 
L 92.138516 72.662253 
L 92.387957 73.55132 
L 92.637398 75.008577 
L 92.886839 74.133232 
L 93.13628 75.504085 
L 93.385721 74.056593 
L 93.635162 74.467752 
L 93.884603 76.173859 
L 94.134044 72.976972 
L 94.383485 74.744163 
L 94.632926 75.438259 
L 95.131808 77.387177 
L 95.381249 73.914616 
L 95.63069 73.103034 
L 95.880131 76.021071 
L 96.129572 74.970625 
L 96.379013 74.789641 
L 96.628454 72.766174 
L 96.877896 75.121723 
L 97.127337 75.16783 
L 97.626219 78.567537 
L 97.87566 78.260085 
L 98.125101 75.872581 
L 98.374542 75.181168 
L 98.623983 70.567077 
L 98.873424 70.746469 
L 99.122865 71.399077 
L 99.372306 72.750926 
L 99.621747 71.748307 
L 99.871188 72.242989 
L 100.120629 71.406185 
L 100.37007 71.130657 
L 100.619511 71.605029 
L 101.118393 74.708055 
L 101.367834 73.938957 
L 101.617275 75.333186 
L 101.866716 78.163054 
L 102.116158 76.786633 
L 102.365599 79.179322 
L 102.61504 76.328108 
L 102.864481 79.818694 
L 103.113922 79.579107 
L 103.612804 79.373572 
L 103.862245 81.007559 
L 104.111686 78.085859 
L 104.361127 79.056534 
L 104.610568 77.344595 
L 105.10945 82.053314 
L 105.608332 79.230996 
L 105.857773 81.266795 
L 106.107214 77.943119 
L 106.356655 79.646034 
L 106.606096 76.183665 
L 106.855537 76.702956 
L 107.35442 76.596495 
L 107.853302 74.88084 
L 108.102743 72.671921 
L 108.352184 75.105889 
L 108.601625 74.063581 
L 108.851066 75.051289 
L 109.100507 77.414466 
L 109.599389 76.106047 
L 109.84883 76.734083 
L 110.098271 77.884009 
L 110.347712 77.653418 
L 110.597153 75.183374 
L 110.846594 76.373491 
L 111.096035 75.684361 
L 111.345476 75.438209 
L 111.594917 74.762264 
L 111.844358 74.460361 
L 112.093799 71.981786 
L 112.34324 75.378616 
L 112.592681 77.005177 
L 112.842123 77.781825 
L 113.341005 81.697616 
L 113.839887 83.022746 
L 114.089328 83.338031 
L 114.338769 83.052852 
L 114.58821 83.645157 
L 114.837651 83.314597 
L 115.087092 79.486694 
L 115.336533 81.406801 
L 115.835415 78.234551 
L 116.084856 77.136504 
L 116.334297 77.633332 
L 116.583738 77.242653 
L 117.581502 71.196034 
L 117.830943 72.05804 
L 118.080385 66.297542 
L 118.329826 65.812707 
L 118.579267 68.12507 
L 118.828708 69.275631 
L 119.078149 68.541868 
L 119.32759 72.278347 
L 119.826472 75.731367 
L 120.075913 75.82772 
L 120.574795 71.330699 
L 121.073677 73.401874 
L 121.323118 73.719721 
L 121.572559 74.416925 
L 121.822 73.621811 
L 122.071441 75.927893 
L 122.320882 75.844315 
L 122.570323 77.908839 
L 122.819764 78.288513 
L 123.069205 77.731661 
L 123.568088 74.145466 
L 123.817529 76.211221 
L 124.06697 75.272248 
L 124.316411 76.440694 
L 124.815293 75.253254 
L 125.064734 76.878626 
L 125.314175 79.490955 
L 125.563616 77.499633 
L 125.813057 78.009617 
L 126.062498 78.787805 
L 126.311939 76.587484 
L 126.56138 77.751831 
L 126.810821 80.161916 
L 127.060262 79.371636 
L 127.309703 79.119435 
L 127.559144 79.280122 
L 127.808585 80.086022 
L 128.058026 80.026352 
L 128.80635 75.919887 
L 129.055791 77.061772 
L 129.305232 78.830847 
L 129.554673 77.794102 
L 129.804114 74.805784 
L 130.053555 76.478426 
L 130.302996 77.116483 
L 130.552437 78.470183 
L 131.051319 75.02224 
L 131.30076 74.122447 
L 131.550201 74.5866 
L 131.799642 76.836193 
L 132.049083 75.610704 
L 132.298524 78.289528 
L 132.547965 77.162899 
L 133.046847 77.84064 
L 133.545729 79.9375 
L 133.79517 78.293191 
L 134.044612 78.172865 
L 134.294053 78.884062 
L 134.543494 77.1419 
L 134.792935 76.917704 
L 135.042376 77.620747 
L 135.291817 77.277578 
L 135.541258 78.158128 
L 135.790699 76.47956 
L 136.04014 76.07683 
L 136.289581 78.934678 
L 136.539022 79.587926 
L 136.788463 80.847488 
L 137.037904 78.164836 
L 137.536786 76.083305 
L 138.285109 81.175989 
L 138.53455 80.563424 
L 138.783991 80.82426 
L 139.033432 78.902308 
L 139.282874 79.904413 
L 139.781756 77.267096 
L 140.031197 77.114657 
L 140.280638 80.755415 
L 140.530079 79.908903 
L 140.77952 80.828881 
L 141.028961 80.836563 
L 141.278402 77.984147 
L 141.527843 79.048654 
L 141.777284 81.692315 
L 142.026725 77.555633 
L 142.276166 76.941676 
L 142.525607 75.35925 
L 142.775048 75.334537 
L 143.024489 74.015474 
L 143.27393 74.742359 
L 143.523371 77.21618 
L 143.772812 77.648903 
L 144.022253 77.508876 
L 144.271694 77.6742 
L 144.521136 76.193982 
L 144.770577 76.652142 
L 145.269459 72.088079 
L 145.5189 75.465177 
L 146.017782 73.051794 
L 146.267223 76.379165 
L 146.516664 76.691544 
L 146.766105 76.488473 
L 147.015546 74.802506 
L 147.264987 75.172245 
L 147.763869 79.899581 
L 148.01331 80.041987 
L 148.262751 80.562417 
L 148.512192 79.525227 
L 148.761633 77.947791 
L 149.011074 78.662432 
L 149.260515 77.54483 
L 149.509956 78.782037 
L 149.759397 78.059949 
L 150.008839 78.10209 
L 150.25828 77.784101 
L 150.757162 78.985154 
L 151.006603 77.220544 
L 151.754926 78.965758 
L 152.004367 76.652398 
L 152.253808 79.174741 
L 152.503249 77.76741 
L 152.75269 77.44049 
L 153.002131 78.211611 
L 153.251572 75.618719 
L 153.999895 79.835031 
L 154.249336 79.675759 
L 154.498777 80.357678 
L 154.748218 82.494894 
L 154.997659 83.048617 
L 155.247101 82.481976 
L 155.496542 82.582271 
L 155.745983 81.599448 
L 155.995424 78.418069 
L 156.244865 79.743635 
L 156.494306 79.145451 
L 156.743747 79.203572 
L 157.242629 79.000896 
L 157.49207 78.831854 
L 157.741511 79.560711 
L 157.990952 79.135394 
L 158.240393 81.639395 
L 158.489834 81.650188 
L 158.988716 79.723501 
L 159.238157 76.404727 
L 159.487598 76.000613 
L 159.737039 76.982803 
L 159.98648 75.448006 
L 160.235921 73.186653 
L 160.734804 78.339435 
L 160.984245 79.097918 
L 161.233686 78.180729 
L 161.483127 76.533307 
L 161.732568 76.25893 
L 161.982009 77.167361 
L 162.23145 74.411596 
L 162.480891 69.407699 
L 162.730332 68.129118 
L 163.478655 73.672193 
L 163.728096 73.283404 
L 163.977537 74.459561 
L 164.226978 74.01039 
L 164.476419 71.724245 
L 164.72586 72.793069 
L 164.975301 76.787652 
L 165.224742 77.133419 
L 165.474183 76.878322 
L 165.723624 77.937832 
L 165.973066 76.11817 
L 166.222507 73.420365 
L 166.471948 75.229578 
L 166.721389 75.00874 
L 166.97083 73.816287 
L 167.220271 74.294507 
L 167.469712 70.875512 
L 167.719153 70.238177 
L 168.218035 69.945314 
L 168.467476 72.274398 
L 168.716917 72.934565 
L 168.966358 72.806352 
L 169.215799 73.371469 
L 169.714681 76.669993 
L 169.964122 77.02149 
L 170.213563 76.869246 
L 170.463004 77.555547 
L 171.211328 80.791845 
L 171.460769 80.620367 
L 171.71021 79.003105 
L 171.959651 79.364492 
L 172.458533 77.409407 
L 172.957415 77.980499 
L 173.206856 73.170695 
L 173.456297 73.607327 
L 173.955179 71.405512 
L 174.20462 74.190277 
L 174.454061 74.646932 
L 174.703502 74.462085 
L 174.952943 75.273298 
L 175.202384 74.750709 
L 175.451825 78.232136 
L 175.701266 76.755069 
L 175.950707 73.304252 
L 176.200148 72.088396 
L 176.44959 71.554419 
L 176.699031 72.360879 
L 176.948472 71.812986 
L 177.197913 73.074884 
L 177.447354 75.643305 
L 177.696795 75.869566 
L 178.195677 76.984623 
L 178.445118 76.883666 
L 178.694559 76.997584 
L 178.944 77.843963 
L 179.193441 77.343504 
L 179.442882 75.197121 
L 179.692323 72.085229 
L 179.941764 76.322837 
L 180.440646 73.360941 
L 180.690087 74.78483 
L 181.188969 80.558103 
L 181.43841 81.196006 
L 181.687852 80.00118 
L 181.937293 79.750674 
L 182.186734 78.4288 
L 182.436175 78.003214 
L 182.685616 78.537779 
L 182.935057 76.371193 
L 183.433939 79.162544 
L 183.68338 75.744059 
L 183.932821 76.180437 
L 184.182262 75.16935 
L 184.431703 73.665636 
L 184.681144 74.427296 
L 184.930585 72.284207 
L 185.180026 74.254895 
L 185.429467 73.268066 
L 185.678908 76.636397 
L 185.928349 77.537404 
L 186.427231 80.87551 
L 186.926113 78.820304 
L 187.175555 79.793907 
L 187.424996 81.827501 
L 187.674437 79.988351 
L 187.923878 74.755461 
L 188.173319 74.618404 
L 188.672201 67.806016 
L 188.921642 68.624268 
L 189.171083 67.179209 
L 189.420524 68.532605 
L 189.669965 68.375633 
L 190.168847 71.016869 
L 190.418288 66.587105 
L 190.667729 68.095272 
L 190.91717 70.673705 
L 191.166611 68.69548 
L 191.416052 68.891213 
L 191.665493 65.491853 
L 191.914934 64.590533 
L 192.164375 61.817206 
L 192.413817 61.924366 
L 192.663258 61.649149 
L 192.912699 64.942305 
L 193.16214 66.568731 
L 193.411581 69.145307 
L 193.661022 70.213114 
L 193.910463 72.662574 
L 194.159904 70.776656 
L 194.409345 71.579888 
L 194.658786 69.694408 
L 194.908227 69.16542 
L 195.157668 65.423878 
L 195.407109 63.525735 
L 196.155432 65.737225 
L 196.404873 65.779651 
L 196.654314 64.612673 
L 196.903755 62.195006 
L 197.402637 62.144929 
L 197.652079 61.193335 
L 197.90152 63.548561 
L 198.150961 63.77114 
L 198.400402 65.382733 
L 198.899284 65.253376 
L 199.148725 64.718124 
L 199.398166 67.215254 
L 199.647607 65.397214 
L 199.897048 64.532435 
L 200.146489 61.934518 
L 200.645371 64.414664 
L 200.894812 65.24967 
L 201.144253 65.684987 
L 201.393694 65.070221 
L 201.643135 69.316431 
L 202.142017 64.906537 
L 202.640899 67.161987 
L 202.89034 65.295451 
L 203.139782 67.628245 
L 203.389223 68.8312 
L 203.638664 67.629534 
L 204.137546 69.700718 
L 204.386987 68.543273 
L 204.636428 64.35525 
L 204.885869 65.079465 
L 205.13531 65.005313 
L 205.384751 64.132465 
L 205.634192 61.431859 
L 205.883633 63.058128 
L 206.133074 62.339505 
L 206.382515 62.142624 
L 206.631956 63.818576 
L 206.881397 62.365474 
L 207.130838 62.327534 
L 207.380279 65.424813 
L 207.62972 65.663856 
L 207.879161 71.396354 
L 208.128602 72.410623 
L 208.378044 71.61685 
L 208.627485 71.865073 
L 208.876926 70.118827 
L 209.126367 69.836945 
L 209.375808 69.270765 
L 209.625249 70.463986 
L 209.87469 73.82784 
L 210.124131 72.827825 
L 210.373572 73.230928 
L 210.872454 69.819393 
L 211.121895 70.742109 
L 211.620777 75.407267 
L 211.870218 75.430798 
L 212.618541 71.022646 
L 212.867982 73.157129 
L 213.117423 73.730162 
L 213.366864 73.071525 
L 213.616306 70.127277 
L 213.865747 73.228405 
L 214.364629 77.082992 
L 214.61407 77.41849 
L 214.863511 76.475281 
L 215.112952 74.36702 
L 215.362393 74.821095 
L 215.861275 74.380459 
L 216.110716 76.231268 
L 216.360157 75.392793 
L 216.609598 76.111396 
L 216.859039 70.097142 
L 217.357921 73.48097 
L 217.607362 74.170064 
L 217.856803 75.561338 
L 218.106244 74.818839 
L 218.355685 74.961743 
L 219.104009 79.184725 
L 219.35345 79.895869 
L 220.101773 76.079065 
L 220.351214 76.984202 
L 220.850096 74.748938 
L 221.348978 73.100578 
L 221.84786 73.273494 
L 222.097301 73.181177 
L 222.346742 74.124677 
L 222.596183 73.819864 
L 222.845624 74.146788 
L 223.095065 75.502537 
L 223.344506 75.019078 
L 223.593947 76.023596 
L 223.843388 73.782062 
L 224.092829 73.855086 
L 224.342271 76.803695 
L 224.591712 75.948353 
L 224.841153 79.718294 
L 225.090594 80.273649 
L 225.340035 78.724765 
L 225.589476 79.86429 
L 225.838917 79.1283 
L 226.088358 77.065834 
L 226.337799 78.211951 
L 226.58724 78.172023 
L 226.836681 79.302964 
L 227.086122 77.542879 
L 227.335563 80.232689 
L 227.585004 78.95407 
L 228.333327 81.76614 
L 228.582768 81.157623 
L 228.832209 78.079423 
L 229.08165 76.661946 
L 229.331091 76.32664 
L 229.580533 76.206176 
L 229.829974 76.532196 
L 230.079415 76.259628 
L 230.328856 77.642703 
L 230.578297 76.831479 
L 230.827738 77.282011 
L 231.077179 77.473882 
L 231.32662 77.075183 
L 231.576061 79.981882 
L 231.825502 79.31344 
L 232.074943 77.143083 
L 232.324384 78.512385 
L 232.573825 77.705704 
L 232.823266 76.111857 
L 233.322148 74.792828 
L 233.82103 76.757675 
L 234.319912 77.686743 
L 234.569353 74.427048 
L 235.068236 79.425099 
L 235.317677 80.264296 
L 235.567118 81.625506 
L 235.816559 84.653304 
L 236.066 84.266676 
L 236.315441 84.494764 
L 236.564882 82.816015 
L 237.063764 76.5836 
L 237.313205 76.4134 
L 237.562646 72.947076 
L 237.812087 74.956708 
L 238.061528 71.483278 
L 238.310969 76.526688 
L 238.56041 72.625139 
L 238.809851 71.864384 
L 239.059292 74.309431 
L 239.558174 76.325357 
L 239.807615 75.273406 
L 240.057056 72.721969 
L 240.306498 75.670801 
L 240.555939 76.221991 
L 240.80538 76.323361 
L 241.054821 75.742783 
L 241.304262 76.813071 
L 241.553703 77.130832 
L 241.803144 76.139377 
L 242.302026 72.319701 
L 242.551467 73.194987 
L 242.800908 74.821012 
L 243.050349 74.676189 
L 243.29979 74.119764 
L 243.549231 75.975922 
L 243.798672 75.409882 
L 244.048113 72.849322 
L 244.297554 75.099509 
L 244.796436 72.739872 
L 245.045877 75.644756 
L 245.295318 76.706619 
L 245.54476 78.458951 
L 245.794201 79.031173 
L 246.043642 74.961558 
L 246.293083 76.078162 
L 246.542524 78.634126 
L 246.791965 79.553247 
L 247.041406 78.876225 
L 247.290847 79.134282 
L 247.540288 78.639292 
L 247.789729 79.970061 
L 248.03917 78.83484 
L 248.288611 80.164579 
L 248.538052 75.827703 
L 249.036934 81.038654 
L 249.286375 82.340606 
L 249.535816 82.02718 
L 249.785257 83.552275 
L 250.034698 82.061103 
L 250.284139 83.156325 
L 250.53358 80.061581 
L 250.783022 80.534807 
L 251.032463 80.755454 
L 251.281904 80.156239 
L 251.531345 80.956352 
L 252.030227 79.606932 
L 252.279668 77.55298 
L 252.529109 77.98299 
L 253.027991 79.862375 
L 253.277432 79.069936 
L 253.526873 77.849978 
L 253.776314 78.80432 
L 254.025755 71.569859 
L 254.275196 72.478786 
L 254.524637 72.552801 
L 254.774078 73.071434 
L 255.023519 74.525713 
L 255.522401 80.377305 
L 255.771842 79.750393 
L 256.270725 80.353225 
L 256.520166 80.007156 
L 257.019048 80.146669 
L 257.268489 79.204995 
L 257.51793 76.091216 
L 257.767371 77.636704 
L 258.515694 75.786768 
L 258.765135 74.092485 
L 259.014576 71.601626 
L 259.264017 71.848732 
L 259.513458 71.17992 
L 259.762899 71.663104 
L 260.01234 68.715184 
L 260.261781 61.394383 
L 260.511222 63.873024 
L 260.760663 65.132414 
L 261.010104 64.716904 
L 261.259545 65.024994 
L 261.508987 65.934384 
L 261.758428 64.935759 
L 262.007869 64.966299 
L 262.25731 63.675244 
L 262.506751 66.167784 
L 262.756192 63.50126 
L 263.005633 65.399462 
L 263.255074 62.713771 
L 263.504515 61.4788 
L 264.003397 58.044267 
L 264.252838 60.396131 
L 264.75172 61.93521 
L 265.001161 59.031556 
L 265.250602 58.235875 
L 265.500043 58.618255 
L 265.749484 62.289483 
L 265.998925 63.33632 
L 266.497807 67.50395 
L 266.747249 65.917269 
L 267.246131 69.922172 
L 267.495572 69.012459 
L 267.994454 69.386347 
L 268.243895 72.294515 
L 268.992218 71.288212 
L 269.241659 71.596892 
L 269.4911 71.312198 
L 269.740541 71.321574 
L 269.989982 72.690678 
L 270.239423 70.451596 
L 270.738305 71.088157 
L 270.987746 72.276294 
L 271.237187 74.138383 
L 271.486628 72.846953 
L 271.736069 76.90849 
L 271.985511 76.074416 
L 272.484393 71.853804 
L 272.733834 71.766254 
L 273.482157 73.840719 
L 273.731598 73.045118 
L 273.981039 73.586305 
L 274.23048 75.151722 
L 274.978803 71.026441 
L 275.228244 70.761771 
L 275.477685 69.595221 
L 276.226008 71.534347 
L 276.475449 70.941477 
L 276.974331 68.723249 
L 277.223772 70.134588 
L 277.473214 69.522226 
L 277.722655 69.289942 
L 277.972096 69.931347 
L 278.221537 66.103573 
L 278.470978 66.109587 
L 278.96986 62.425882 
L 279.219301 60.970676 
L 279.468742 61.048306 
L 279.718183 63.780293 
L 279.967624 67.823384 
L 280.217065 66.20336 
L 280.466506 65.613794 
L 280.965388 62.645971 
L 281.214829 63.122745 
L 281.46427 64.632012 
L 281.713711 62.717158 
L 281.963152 66.289249 
L 282.212593 64.131857 
L 282.462034 63.773586 
L 282.711476 62.834367 
L 282.960917 64.435081 
L 283.210358 68.744502 
L 283.459799 68.815117 
L 283.70924 70.068782 
L 283.958681 68.483394 
L 284.208122 69.460246 
L 284.457563 71.495928 
L 284.707004 69.210788 
L 284.956445 68.509644 
L 285.205886 65.513193 
L 285.455327 65.421843 
L 285.704768 62.361083 
L 285.954209 61.707858 
L 286.20365 60.502482 
L 286.453091 61.14271 
L 286.702532 62.326319 
L 287.201414 65.806397 
L 287.700296 63.023721 
L 287.949738 65.31968 
L 288.199179 64.13259 
L 288.44862 63.580683 
L 288.698061 63.755181 
L 288.947502 64.10985 
L 289.196943 64.035768 
L 289.446384 63.818473 
L 289.945266 59.400796 
L 290.194707 62.284694 
L 290.444148 62.781833 
L 290.693589 62.567053 
L 291.192471 59.168351 
L 291.691353 61.056813 
L 291.940794 60.446338 
L 292.439676 62.360514 
L 292.689117 62.335895 
L 293.187999 64.06949 
L 293.437441 62.127549 
L 293.686882 59.010247 
L 293.936323 57.939041 
L 294.185764 58.911229 
L 294.435205 56.746816 
L 294.684646 56.315152 
L 295.183528 60.236542 
L 295.432969 59.478225 
L 295.68241 56.464297 
L 295.931851 58.216416 
L 296.430733 57.874343 
L 296.929615 51.38586 
L 297.179056 55.453135 
L 297.428497 51.194409 
L 297.677938 49.501949 
L 297.927379 52.473369 
L 298.17682 50.253947 
L 298.426261 50.993184 
L 298.675703 50.168637 
L 298.925144 49.781656 
L 299.174585 50.969593 
L 299.424026 51.411431 
L 299.673467 51.382448 
L 300.172349 47.783601 
L 300.671231 49.946449 
L 300.920672 50.313881 
L 301.170113 48.776063 
L 301.419554 48.957023 
L 301.668995 47.930717 
L 301.918436 49.217234 
L 302.417318 47.784672 
L 302.666759 50.434619 
L 302.9162 49.280362 
L 303.165641 49.676171 
L 303.415082 51.896972 
L 303.664523 50.297206 
L 303.913965 52.624241 
L 304.412847 52.596023 
L 304.662288 51.597452 
L 305.16117 51.697464 
L 305.410611 51.351005 
L 305.660052 50.074366 
L 305.909493 51.497027 
L 306.158934 50.599832 
L 306.657816 52.196652 
L 306.907257 54.554393 
L 307.156698 55.771767 
L 307.65558 50.765809 
L 307.905021 54.395265 
L 308.154462 55.754719 
L 308.403903 58.655894 
L 308.902785 61.300567 
L 309.152226 61.046275 
L 309.401668 65.1432 
L 310.399432 61.3295 
L 310.648873 64.140563 
L 310.898314 63.129623 
L 311.397196 60.280636 
L 311.646637 61.6886 
L 311.896078 61.775875 
L 312.145519 60.974782 
L 312.644401 64.063955 
L 312.893842 64.221861 
L 313.143283 63.279495 
L 313.392724 63.407372 
L 313.642165 60.994822 
L 313.891606 65.02581 
L 314.141047 64.957271 
L 314.390488 65.061671 
L 314.63993 64.487882 
L 315.138812 61.098423 
L 315.637694 62.303774 
L 315.887135 61.780159 
L 316.136576 60.034466 
L 316.386017 62.674589 
L 316.635458 60.342827 
L 317.13434 66.137771 
L 317.383781 73.952001 
L 317.633222 71.056007 
L 317.882663 70.541716 
L 318.132104 69.225111 
L 318.381545 61.530162 
L 318.630986 62.309703 
L 319.129868 65.201544 
L 319.379309 67.319823 
L 319.62875 67.938537 
L 319.878192 67.876741 
L 320.127633 71.446382 
L 320.626515 73.628416 
L 320.875956 77.067507 
L 321.125397 72.78699 
L 321.374838 74.353549 
L 321.624279 75.172069 
L 321.87372 75.029739 
L 322.123161 75.703195 
L 322.372602 77.025242 
L 322.622043 76.531857 
L 322.871484 75.658967 
L 323.120925 76.940898 
L 323.370366 75.00587 
L 323.619807 78.423939 
L 323.869248 79.178521 
L 324.118689 79.072105 
L 324.36813 79.313786 
L 324.617571 79.018741 
L 325.116454 76.695229 
L 325.365895 78.361646 
L 325.615336 82.251997 
L 325.864777 82.786636 
L 326.114218 82.841428 
L 326.6131 83.492625 
L 326.862541 83.493944 
L 327.111982 84.351811 
L 327.610864 81.09826 
L 327.860305 81.874859 
L 328.109746 82.190148 
L 328.359187 82.139546 
L 328.608628 78.962609 
L 329.10751 78.434118 
L 329.356951 80.192727 
L 329.606392 78.066124 
L 329.855833 77.779329 
L 330.105274 78.501561 
L 330.354715 76.160297 
L 330.604157 78.181103 
L 330.853598 78.556028 
L 331.103039 78.323449 
L 331.35248 80.200866 
L 331.601921 83.085919 
L 331.851362 83.285888 
L 332.100803 81.024502 
L 332.350244 80.716524 
L 332.599685 78.344096 
L 332.849126 80.742455 
L 333.098567 80.254529 
L 333.348008 76.857383 
L 333.597449 77.622279 
L 333.84689 79.063407 
L 334.345772 76.415997 
L 334.595213 78.327434 
L 334.844654 79.332654 
L 335.094095 77.57972 
L 335.592977 80.552715 
L 335.842419 78.067344 
L 336.09186 77.876419 
L 336.341301 77.063475 
L 336.590742 77.222642 
L 336.840183 78.444927 
L 337.089624 78.035128 
L 337.339065 79.188174 
L 337.588506 79.284348 
L 338.087388 77.546304 
L 338.336829 79.665384 
L 338.58627 80.072368 
L 338.835711 77.860942 
L 339.085152 77.335509 
L 339.334593 77.425272 
L 339.584034 77.781544 
L 339.833475 77.822394 
L 340.082916 77.436517 
L 340.332357 78.223232 
L 340.581798 77.715572 
L 341.080681 80.802592 
L 341.579563 78.612328 
L 341.829004 79.192805 
L 342.078445 81.751054 
L 342.327886 82.893201 
L 342.577327 80.146095 
L 342.826768 80.936132 
L 343.076209 76.445442 
L 343.32565 75.938131 
L 343.575091 79.837907 
L 343.824532 79.587461 
L 344.073973 78.902104 
L 344.323414 77.123042 
L 344.822296 78.734218 
L 345.071737 78.983275 
L 345.321178 80.135545 
L 345.82006 78.432396 
L 346.318942 80.851031 
L 346.568384 77.901453 
L 346.817825 78.870127 
L 347.067266 77.974865 
L 347.316707 78.146316 
L 347.566148 77.852704 
L 348.06503 74.583108 
L 348.314471 74.606287 
L 348.563912 69.944001 
L 348.813353 71.97085 
L 349.062794 72.460283 
L 349.312235 71.873379 
L 349.561676 72.279337 
L 349.811117 73.266798 
L 350.060558 73.027878 
L 350.55944 68.416106 
L 351.058322 69.386809 
L 351.307763 67.433218 
L 351.557204 68.616928 
L 351.806646 67.072298 
L 352.056087 63.339149 
L 352.305528 64.087808 
L 352.554969 67.271536 
L 352.80441 68.731378 
L 353.053851 67.666207 
L 353.303292 65.761824 
L 354.051615 66.975603 
L 354.301056 68.786156 
L 354.550497 69.570725 
L 354.799938 68.527953 
L 355.049379 68.233885 
L 355.29882 69.618952 
L 355.797702 68.058577 
L 356.047143 68.736332 
L 356.296584 66.921669 
L 356.546025 67.661727 
L 356.795466 64.515294 
L 357.044908 64.280036 
L 357.294349 63.358287 
L 357.54379 63.455685 
L 358.042672 71.720077 
L 358.541554 73.014994 
L 359.040436 71.362661 
L 359.289877 71.573189 
L 359.539318 70.975461 
L 359.788759 72.748147 
L 360.0382 73.202836 
L 360.287641 72.752341 
L 360.537082 72.802335 
L 360.786523 75.053238 
L 361.035964 74.546754 
L 361.285405 75.20809 
L 361.534846 73.132631 
L 361.784287 72.063852 
L 362.033728 73.513782 
L 362.28317 74.253986 
L 362.532611 74.594416 
L 362.782052 73.655214 
L 363.031493 74.317494 
L 363.280934 77.383385 
L 363.530375 75.872531 
L 363.779816 77.136542 
L 364.029257 75.382733 
L 364.528139 78.941058 
L 364.77758 79.206187 
L 365.027021 80.057473 
L 365.525903 78.22633 
L 365.775344 78.260814 
L 366.024785 77.858941 
L 366.274226 76.649003 
L 366.523667 73.135162 
L 366.773108 73.13281 
L 367.022549 72.256948 
L 367.27199 70.852754 
L 367.770873 72.857899 
L 368.020314 70.818528 
L 368.768637 75.501487 
L 369.018078 75.431583 
L 369.267519 77.598823 
L 369.51696 76.362208 
L 369.766401 76.954824 
L 370.015842 76.192192 
L 370.265283 77.07463 
L 370.764165 80.510809 
L 371.013606 79.827097 
L 371.263047 79.713417 
L 371.512488 78.291326 
L 371.761929 78.970373 
L 372.01137 76.561885 
L 372.260811 77.22432 
L 372.510252 76.698722 
L 372.759693 78.356657 
L 373.009135 75.8541 
L 373.258576 76.495744 
L 373.508017 75.374301 
L 373.757458 77.202505 
L 374.006899 77.771835 
L 374.25634 76.747854 
L 374.505781 77.28681 
L 375.004663 75.325221 
L 375.503545 75.767044 
L 375.752986 75.82086 
L 376.002427 75.686775 
L 376.251868 75.342258 
L 376.75075 77.392209 
L 377.000191 75.469179 
L 377.249632 77.266225 
L 377.499073 73.567618 
L 377.748514 73.642808 
L 377.997955 72.668755 
L 378.247397 70.977214 
L 378.496838 70.782134 
L 378.99572 72.786128 
L 379.245161 73.111269 
L 379.324528 72.645144 
L 379.324528 72.645144 
" style="fill:none;stroke:#e8000b;stroke-linecap:round;stroke-width:1.2;"/>
   </g>
   <g id="patch_3">
    <path d="M 54 88.92 
L 54 34.56 
" style="fill:none;stroke:#000000;stroke-linecap:square;stroke-linejoin:miter;"/>
   </g>
   <g id="patch_4">
    <path d="M 388.8 88.92 
L 388.8 34.56 
" style="fill:none;stroke:#000000;stroke-linecap:square;stroke-linejoin:miter;"/>
   </g>
   <g id="patch_5">
    <path d="M 54 88.92 
L 388.8 88.92 
" style="fill:none;stroke:#000000;stroke-linecap:square;stroke-linejoin:miter;"/>
   </g>
   <g id="patch_6">
    <path d="M 54 34.56 
L 388.8 34.56 
" style="fill:none;stroke:#000000;stroke-linecap:square;stroke-linejoin:miter;"/>
   </g>
   <g id="text_5">
    <!-- Xin-She Yang's N.4 -->
    <defs>
     <path d="M 0.4375 0 
L 28.125 37.3125 
L 3.71875 71.578125 
L 14.984375 71.578125 
L 27.984375 53.21875 
Q 32.03125 47.515625 33.734375 44.4375 
Q 36.140625 48.34375 39.40625 52.59375 
L 53.8125 71.578125 
L 64.109375 71.578125 
L 38.96875 37.84375 
L 66.0625 0 
L 54.34375 0 
L 36.328125 25.53125 
Q 34.8125 27.734375 33.203125 30.328125 
Q 30.8125 26.421875 29.78125 24.953125 
L 11.8125 0 
z
" id="ArialMT-88"/>
     <path d="M 6.640625 61.46875 
L 6.640625 71.578125 
L 15.4375 71.578125 
L 15.4375 61.46875 
z
M 6.640625 0 
L 6.640625 51.859375 
L 15.4375 51.859375 
L 15.4375 0 
z
" id="ArialMT-105"/>
     <path d="M 6.59375 0 
L 6.59375 51.859375 
L 14.5 51.859375 
L 14.5 44.484375 
Q 20.21875 53.03125 31 53.03125 
Q 35.6875 53.03125 39.625 51.34375 
Q 43.5625 49.65625 45.515625 46.921875 
Q 47.46875 44.1875 48.25 40.4375 
Q 48.734375 37.984375 48.734375 31.890625 
L 48.734375 0 
L 39.9375 0 
L 39.9375 31.546875 
Q 39.9375 36.921875 38.90625 39.578125 
Q 37.890625 42.234375 35.28125 43.8125 
Q 32.671875 45.40625 29.15625 45.40625 
Q 23.53125 45.40625 19.453125 41.84375 
Q 15.375 38.28125 15.375 28.328125 
L 15.375 0 
z
" id="ArialMT-110"/>
     <path d="M 3.171875 21.484375 
L 3.171875 30.328125 
L 30.171875 30.328125 
L 30.171875 21.484375 
z
" id="ArialMT-45"/>
     <path d="M 4.5 23 
L 13.421875 23.78125 
Q 14.0625 18.40625 16.375 14.96875 
Q 18.703125 11.53125 23.578125 9.40625 
Q 28.46875 7.28125 34.578125 7.28125 
Q 39.984375 7.28125 44.140625 8.890625 
Q 48.296875 10.5 50.3125 13.296875 
Q 52.34375 16.109375 52.34375 19.4375 
Q 52.34375 22.796875 50.390625 25.3125 
Q 48.4375 27.828125 43.953125 29.546875 
Q 41.0625 30.671875 31.203125 33.03125 
Q 21.34375 35.40625 17.390625 37.5 
Q 12.25 40.1875 9.734375 44.15625 
Q 7.234375 48.140625 7.234375 53.078125 
Q 7.234375 58.5 10.296875 63.203125 
Q 13.375 67.921875 19.28125 70.359375 
Q 25.203125 72.796875 32.421875 72.796875 
Q 40.375 72.796875 46.453125 70.234375 
Q 52.546875 67.671875 55.8125 62.6875 
Q 59.078125 57.71875 59.328125 51.421875 
L 50.25 50.734375 
Q 49.515625 57.515625 45.28125 60.984375 
Q 41.0625 64.453125 32.8125 64.453125 
Q 24.21875 64.453125 20.28125 61.296875 
Q 16.359375 58.15625 16.359375 53.71875 
Q 16.359375 49.859375 19.140625 47.359375 
Q 21.875 44.875 33.421875 42.265625 
Q 44.96875 39.65625 49.265625 37.703125 
Q 55.515625 34.8125 58.484375 30.390625 
Q 61.46875 25.984375 61.46875 20.21875 
Q 61.46875 14.5 58.203125 9.4375 
Q 54.9375 4.390625 48.796875 1.578125 
Q 42.671875 -1.21875 35.015625 -1.21875 
Q 25.296875 -1.21875 18.71875 1.609375 
Q 12.15625 4.4375 8.421875 10.125 
Q 4.6875 15.828125 4.5 23 
z
" id="ArialMT-83"/>
     <path d="M 6.59375 0 
L 6.59375 71.578125 
L 15.375 71.578125 
L 15.375 45.90625 
Q 21.53125 53.03125 30.90625 53.03125 
Q 36.671875 53.03125 40.921875 50.75 
Q 45.171875 48.484375 47 44.484375 
Q 48.828125 40.484375 48.828125 32.859375 
L 48.828125 0 
L 40.046875 0 
L 40.046875 32.859375 
Q 40.046875 39.453125 37.1875 42.453125 
Q 34.328125 45.453125 29.109375 45.453125 
Q 25.203125 45.453125 21.75 43.421875 
Q 18.3125 41.40625 16.84375 37.9375 
Q 15.375 34.46875 15.375 28.375 
L 15.375 0 
z
" id="ArialMT-104"/>
     <path d="M 42.09375 16.703125 
L 51.171875 15.578125 
Q 49.03125 7.625 43.21875 3.21875 
Q 37.40625 -1.171875 28.375 -1.171875 
Q 17 -1.171875 10.328125 5.828125 
Q 3.65625 12.84375 3.65625 25.484375 
Q 3.65625 38.578125 10.390625 45.796875 
Q 17.140625 53.03125 27.875 53.03125 
Q 38.28125 53.03125 44.875 45.953125 
Q 51.46875 38.875 51.46875 26.03125 
Q 51.46875 25.25 51.421875 23.6875 
L 12.75 23.6875 
Q 13.234375 15.140625 17.578125 10.59375 
Q 21.921875 6.0625 28.421875 6.0625 
Q 33.25 6.0625 36.671875 8.59375 
Q 40.09375 11.140625 42.09375 16.703125 
z
M 13.234375 30.90625 
L 42.1875 30.90625 
Q 41.609375 37.453125 38.875 40.71875 
Q 34.671875 45.796875 27.984375 45.796875 
Q 21.921875 45.796875 17.796875 41.75 
Q 13.671875 37.703125 13.234375 30.90625 
z
" id="ArialMT-101"/>
     <path id="ArialMT-32"/>
     <path d="M 27.875 0 
L 27.875 30.328125 
L 0.296875 71.578125 
L 11.8125 71.578125 
L 25.921875 50 
Q 29.828125 43.953125 33.203125 37.890625 
Q 36.421875 43.5 41.015625 50.53125 
L 54.890625 71.578125 
L 65.921875 71.578125 
L 37.359375 30.328125 
L 37.359375 0 
z
" id="ArialMT-89"/>
     <path d="M 40.4375 6.390625 
Q 35.546875 2.25 31.03125 0.53125 
Q 26.515625 -1.171875 21.34375 -1.171875 
Q 12.796875 -1.171875 8.203125 3 
Q 3.609375 7.171875 3.609375 13.671875 
Q 3.609375 17.484375 5.34375 20.625 
Q 7.078125 23.78125 9.890625 25.6875 
Q 12.703125 27.59375 16.21875 28.5625 
Q 18.796875 29.25 24.03125 29.890625 
Q 34.671875 31.15625 39.703125 32.90625 
Q 39.75 34.71875 39.75 35.203125 
Q 39.75 40.578125 37.25 42.78125 
Q 33.890625 45.75 27.25 45.75 
Q 21.046875 45.75 18.09375 43.578125 
Q 15.140625 41.40625 13.71875 35.890625 
L 5.125 37.0625 
Q 6.296875 42.578125 8.984375 45.96875 
Q 11.671875 49.359375 16.75 51.1875 
Q 21.828125 53.03125 28.515625 53.03125 
Q 35.15625 53.03125 39.296875 51.46875 
Q 43.453125 49.90625 45.40625 47.53125 
Q 47.359375 45.171875 48.140625 41.546875 
Q 48.578125 39.3125 48.578125 33.453125 
L 48.578125 21.734375 
Q 48.578125 9.46875 49.140625 6.21875 
Q 49.703125 2.984375 51.375 0 
L 42.1875 0 
Q 40.828125 2.734375 40.4375 6.390625 
z
M 39.703125 26.03125 
Q 34.90625 24.078125 25.34375 22.703125 
Q 19.921875 21.921875 17.671875 20.9375 
Q 15.4375 19.96875 14.203125 18.09375 
Q 12.984375 16.21875 12.984375 13.921875 
Q 12.984375 10.40625 15.640625 8.0625 
Q 18.3125 5.71875 23.4375 5.71875 
Q 28.515625 5.71875 32.46875 7.9375 
Q 36.421875 10.15625 38.28125 14.015625 
Q 39.703125 17 39.703125 22.796875 
z
" id="ArialMT-97"/>
     <path d="M 4.984375 -4.296875 
L 13.53125 -5.5625 
Q 14.0625 -9.515625 16.5 -11.328125 
Q 19.78125 -13.765625 25.4375 -13.765625 
Q 31.546875 -13.765625 34.859375 -11.328125 
Q 38.1875 -8.890625 39.359375 -4.5 
Q 40.046875 -1.8125 39.984375 6.78125 
Q 34.234375 0 25.640625 0 
Q 14.9375 0 9.078125 7.71875 
Q 3.21875 15.4375 3.21875 26.21875 
Q 3.21875 33.640625 5.90625 39.90625 
Q 8.59375 46.1875 13.6875 49.609375 
Q 18.796875 53.03125 25.6875 53.03125 
Q 34.859375 53.03125 40.828125 45.609375 
L 40.828125 51.859375 
L 48.921875 51.859375 
L 48.921875 7.03125 
Q 48.921875 -5.078125 46.453125 -10.125 
Q 44 -15.1875 38.640625 -18.109375 
Q 33.296875 -21.046875 25.484375 -21.046875 
Q 16.21875 -21.046875 10.5 -16.875 
Q 4.78125 -12.703125 4.984375 -4.296875 
z
M 12.25 26.859375 
Q 12.25 16.65625 16.296875 11.96875 
Q 20.359375 7.28125 26.46875 7.28125 
Q 32.515625 7.28125 36.609375 11.9375 
Q 40.71875 16.609375 40.71875 26.5625 
Q 40.71875 36.078125 36.5 40.90625 
Q 32.28125 45.75 26.3125 45.75 
Q 20.453125 45.75 16.34375 40.984375 
Q 12.25 36.234375 12.25 26.859375 
z
" id="ArialMT-103"/>
     <path d="M 6.640625 46.234375 
L 4.390625 59.625 
L 4.390625 71.578125 
L 14.40625 71.578125 
L 14.40625 59.625 
L 12.0625 46.234375 
z
" id="ArialMT-39"/>
     <path d="M 3.078125 15.484375 
L 11.765625 16.84375 
Q 12.5 11.625 15.84375 8.84375 
Q 19.1875 6.0625 25.203125 6.0625 
Q 31.25 6.0625 34.171875 8.515625 
Q 37.109375 10.984375 37.109375 14.3125 
Q 37.109375 17.28125 34.515625 19 
Q 32.71875 20.171875 25.53125 21.96875 
Q 15.875 24.421875 12.140625 26.203125 
Q 8.40625 27.984375 6.46875 31.125 
Q 4.546875 34.28125 4.546875 38.09375 
Q 4.546875 41.546875 6.125 44.5 
Q 7.71875 47.46875 10.453125 49.421875 
Q 12.5 50.921875 16.03125 51.96875 
Q 19.578125 53.03125 23.640625 53.03125 
Q 29.734375 53.03125 34.34375 51.265625 
Q 38.96875 49.515625 41.15625 46.5 
Q 43.359375 43.5 44.1875 38.484375 
L 35.59375 37.3125 
Q 35.015625 41.3125 32.203125 43.546875 
Q 29.390625 45.796875 24.265625 45.796875 
Q 18.21875 45.796875 15.625 43.796875 
Q 13.03125 41.796875 13.03125 39.109375 
Q 13.03125 37.40625 14.109375 36.03125 
Q 15.1875 34.625 17.484375 33.6875 
Q 18.796875 33.203125 25.25 31.453125 
Q 34.578125 28.953125 38.25 27.359375 
Q 41.9375 25.78125 44.03125 22.75 
Q 46.140625 19.734375 46.140625 15.234375 
Q 46.140625 10.84375 43.578125 6.953125 
Q 41.015625 3.078125 36.171875 0.953125 
Q 31.34375 -1.171875 25.25 -1.171875 
Q 15.140625 -1.171875 9.84375 3.03125 
Q 4.546875 7.234375 3.078125 15.484375 
z
" id="ArialMT-115"/>
     <path d="M 7.625 0 
L 7.625 71.578125 
L 17.328125 71.578125 
L 54.9375 15.375 
L 54.9375 71.578125 
L 64.015625 71.578125 
L 64.015625 0 
L 54.296875 0 
L 16.703125 56.25 
L 16.703125 0 
z
" id="ArialMT-78"/>
     <path d="M 32.328125 0 
L 32.328125 17.140625 
L 1.265625 17.140625 
L 1.265625 25.203125 
L 33.9375 71.578125 
L 41.109375 71.578125 
L 41.109375 25.203125 
L 50.78125 25.203125 
L 50.78125 17.140625 
L 41.109375 17.140625 
L 41.109375 0 
z
M 32.328125 25.203125 
L 32.328125 57.46875 
L 9.90625 25.203125 
z
" id="ArialMT-52"/>
    </defs>
    <g transform="translate(180.09975 28.56)scale(0.096 -0.096)">
     <use xlink:href="#ArialMT-88"/>
     <use x="66.699219" xlink:href="#ArialMT-105"/>
     <use x="88.916016" xlink:href="#ArialMT-110"/>
     <use x="144.53125" xlink:href="#ArialMT-45"/>
     <use x="177.832031" xlink:href="#ArialMT-83"/>
     <use x="244.53125" xlink:href="#ArialMT-104"/>
     <use x="300.146484" xlink:href="#ArialMT-101"/>
     <use x="355.761719" xlink:href="#ArialMT-32"/>
     <use x="381.794922" xlink:href="#ArialMT-89"/>
     <use x="441.119141" xlink:href="#ArialMT-97"/>
     <use x="496.734375" xlink:href="#ArialMT-110"/>
     <use x="552.349609" xlink:href="#ArialMT-103"/>
     <use x="607.964844" xlink:href="#ArialMT-39"/>
     <use x="627.056641" xlink:href="#ArialMT-115"/>
     <use x="677.056641" xlink:href="#ArialMT-32"/>
     <use x="704.839844" xlink:href="#ArialMT-78"/>
     <use x="777.056641" xlink:href="#ArialMT-46"/>
     <use x="804.839844" xlink:href="#ArialMT-52"/>
    </g>
   </g>
   <g id="legend_1">
    <g id="patch_7">
     <path d="M 337.824 57.064 
L 384.64 57.064 
Q 386.4 57.064 386.4 55.304 
L 386.4 42.72 
Q 386.4 40.96 384.64 40.96 
L 337.824 40.96 
Q 336.064 40.96 336.064 42.72 
L 336.064 55.304 
Q 336.064 57.064 337.824 57.064 
z
" style="fill:#4c4c4c;opacity:0.5;stroke:#4c4c4c;stroke-linejoin:miter;stroke-width:0.8;"/>
    </g>
    <g id="patch_8">
     <path d="M 335.824 55.064 
L 382.64 55.064 
Q 384.4 55.064 384.4 53.304 
L 384.4 40.72 
Q 384.4 38.96 382.64 38.96 
L 335.824 38.96 
Q 334.064 38.96 334.064 40.72 
L 334.064 53.304 
Q 334.064 55.064 335.824 55.064 
z
" style="fill:#ffffff;stroke:#000000;stroke-linejoin:miter;stroke-width:0.8;"/>
    </g>
    <g id="line2d_20">
     <path d="M 337.584 45.736 
L 344.624 45.736 
" style="fill:none;stroke:#e8000b;stroke-linecap:round;stroke-width:1.2;"/>
    </g>
    <g id="line2d_21"/>
    <g id="text_6">
     <!-- $n_{step}$=1 -->
     <defs>
      <path d="M 55.71875 33.015625 
L 49.3125 0 
L 40.28125 0 
L 46.6875 32.671875 
Q 47.125 34.96875 47.359375 36.71875 
Q 47.609375 38.484375 47.609375 39.5 
Q 47.609375 43.609375 45.015625 45.890625 
Q 42.4375 48.1875 37.796875 48.1875 
Q 30.5625 48.1875 25.34375 43.375 
Q 20.125 38.578125 18.5 30.328125 
L 12.5 0 
L 3.515625 0 
L 14.109375 54.6875 
L 23.09375 54.6875 
L 21.296875 46.09375 
Q 25.046875 50.828125 30.3125 53.40625 
Q 35.59375 56 41.40625 56 
Q 48.640625 56 52.609375 52.09375 
Q 56.59375 48.1875 56.59375 41.109375 
Q 56.59375 39.359375 56.375 37.359375 
Q 56.15625 35.359375 55.71875 33.015625 
z
" id="DejaVuSans-Oblique-110"/>
      <path d="M 50 53.078125 
L 48.296875 44.578125 
Q 44.734375 46.53125 40.765625 47.5 
Q 36.8125 48.484375 32.625 48.484375 
Q 25.53125 48.484375 21.453125 46.0625 
Q 17.390625 43.65625 17.390625 39.5 
Q 17.390625 34.671875 26.859375 32.078125 
Q 27.59375 31.890625 27.9375 31.78125 
L 30.8125 30.90625 
Q 39.796875 28.421875 42.796875 25.6875 
Q 45.796875 22.953125 45.796875 18.21875 
Q 45.796875 9.515625 38.890625 4.046875 
Q 31.984375 -1.421875 20.796875 -1.421875 
Q 16.453125 -1.421875 11.671875 -0.578125 
Q 6.890625 0.25 1.125 2 
L 2.875 11.28125 
Q 7.8125 8.734375 12.59375 7.421875 
Q 17.390625 6.109375 21.78125 6.109375 
Q 28.375 6.109375 32.5 8.9375 
Q 36.625 11.765625 36.625 16.109375 
Q 36.625 20.796875 25.78125 23.6875 
L 24.859375 23.921875 
L 21.78125 24.703125 
Q 14.9375 26.515625 11.765625 29.46875 
Q 8.59375 32.421875 8.59375 37.015625 
Q 8.59375 45.75 15.15625 50.875 
Q 21.734375 56 33.015625 56 
Q 37.453125 56 41.671875 55.265625 
Q 45.90625 54.546875 50 53.078125 
z
" id="DejaVuSans-Oblique-115"/>
      <path d="M 42.28125 54.6875 
L 40.921875 47.703125 
L 23 47.703125 
L 17.1875 18.015625 
Q 16.890625 16.359375 16.75 15.234375 
Q 16.609375 14.109375 16.609375 13.484375 
Q 16.609375 10.359375 18.484375 8.9375 
Q 20.359375 7.515625 24.515625 7.515625 
L 33.59375 7.515625 
L 32.078125 0 
L 23.484375 0 
Q 15.484375 0 11.546875 3.125 
Q 7.625 6.25 7.625 12.59375 
Q 7.625 13.71875 7.765625 15.0625 
Q 7.90625 16.40625 8.203125 18.015625 
L 14.015625 47.703125 
L 6.390625 47.703125 
L 7.8125 54.6875 
L 15.28125 54.6875 
L 18.3125 70.21875 
L 27.296875 70.21875 
L 24.3125 54.6875 
z
" id="DejaVuSans-Oblique-116"/>
      <path d="M 48.09375 32.234375 
Q 48.25 33.015625 48.3125 33.84375 
Q 48.390625 34.671875 48.390625 35.5 
Q 48.390625 41.453125 44.890625 44.921875 
Q 41.40625 48.390625 35.40625 48.390625 
Q 28.71875 48.390625 23.578125 44.15625 
Q 18.453125 39.9375 15.828125 32.171875 
z
M 55.90625 25.203125 
L 14.109375 25.203125 
Q 13.8125 23.34375 13.71875 22.265625 
Q 13.625 21.1875 13.625 20.40625 
Q 13.625 13.625 17.796875 9.90625 
Q 21.96875 6.203125 29.59375 6.203125 
Q 35.453125 6.203125 40.671875 7.515625 
Q 45.90625 8.84375 50.390625 11.375 
L 48.6875 2.484375 
Q 43.84375 0.53125 38.6875 -0.4375 
Q 33.546875 -1.421875 28.21875 -1.421875 
Q 16.84375 -1.421875 10.71875 4.015625 
Q 4.59375 9.46875 4.59375 19.484375 
Q 4.59375 28.03125 7.640625 35.375 
Q 10.6875 42.71875 16.609375 48.484375 
Q 20.40625 52.09375 25.65625 54.046875 
Q 30.90625 56 36.8125 56 
Q 46.09375 56 51.578125 50.4375 
Q 57.078125 44.875 57.078125 35.5 
Q 57.078125 33.25 56.78125 30.6875 
Q 56.5 28.125 55.90625 25.203125 
z
" id="DejaVuSans-Oblique-101"/>
      <path d="M 49.609375 33.6875 
Q 49.609375 40.875 46.484375 44.671875 
Q 43.359375 48.484375 37.5 48.484375 
Q 33.5 48.484375 29.859375 46.4375 
Q 26.21875 44.390625 23.390625 40.484375 
Q 20.609375 36.625 18.9375 31.15625 
Q 17.28125 25.6875 17.28125 20.3125 
Q 17.28125 13.484375 20.40625 9.796875 
Q 23.53125 6.109375 29.296875 6.109375 
Q 33.546875 6.109375 37.1875 8.109375 
Q 40.828125 10.109375 43.40625 13.921875 
Q 46.1875 17.921875 47.890625 23.34375 
Q 49.609375 28.765625 49.609375 33.6875 
z
M 21.78125 46.390625 
Q 25.390625 51.125 30.296875 53.5625 
Q 35.203125 56 41.21875 56 
Q 49.609375 56 54.25 50.5 
Q 58.890625 45.015625 58.890625 35.109375 
Q 58.890625 27 56 19.65625 
Q 53.125 12.3125 47.703125 6.5 
Q 44.09375 2.640625 39.546875 0.609375 
Q 35.015625 -1.421875 29.984375 -1.421875 
Q 24.171875 -1.421875 20.21875 1 
Q 16.265625 3.421875 14.3125 8.203125 
L 8.6875 -20.796875 
L -0.296875 -20.796875 
L 14.40625 54.6875 
L 23.390625 54.6875 
z
" id="DejaVuSans-Oblique-112"/>
      <path d="M 52.828125 42.09375 
L 5.5625 42.09375 
L 5.5625 50.296875 
L 52.828125 50.296875 
z
M 52.828125 20.359375 
L 5.5625 20.359375 
L 5.5625 28.5625 
L 52.828125 28.5625 
z
" id="ArialMT-61"/>
     </defs>
     <g transform="translate(351.664 48.816)scale(0.088 -0.088)">
      <use transform="translate(0 0.125)" xlink:href="#DejaVuSans-Oblique-110"/>
      <use transform="translate(63.378906 -16.28125)scale(0.7)" xlink:href="#DejaVuSans-Oblique-115"/>
      <use transform="translate(99.848633 -16.28125)scale(0.7)" xlink:href="#DejaVuSans-Oblique-116"/>
      <use transform="translate(127.294922 -16.28125)scale(0.7)" xlink:href="#DejaVuSans-Oblique-101"/>
      <use transform="translate(170.361328 -16.28125)scale(0.7)" xlink:href="#DejaVuSans-Oblique-112"/>
      <use transform="translate(217.529297 0.125)" xlink:href="#ArialMT-61"/>
      <use transform="translate(275.927734 0.125)" xlink:href="#ArialMT-49"/>
     </g>
    </g>
   </g>
  </g>
  <g id="axes_2">
   <g id="patch_9">
    <path d="M 54 143.28 
L 388.8 143.28 
L 388.8 88.92 
L 54 88.92 
z
" style="fill:#ffffff;"/>
   </g>
   <g id="matplotlib.axis_3">
    <g id="xtick_7">
     <g id="line2d_22">
      <g>
       <use style="stroke:#000000;" x="63.475472" xlink:href="#mca0af6e749" y="143.28"/>
      </g>
     </g>
     <g id="line2d_23">
      <g>
       <use style="stroke:#000000;" x="63.475472" xlink:href="#m8ec23f0202" y="88.92"/>
      </g>
     </g>
    </g>
    <g id="xtick_8">
     <g id="line2d_24">
      <g>
       <use style="stroke:#000000;" x="120.166619" xlink:href="#mca0af6e749" y="143.28"/>
      </g>
     </g>
     <g id="line2d_25">
      <g>
       <use style="stroke:#000000;" x="120.166619" xlink:href="#m8ec23f0202" y="88.92"/>
      </g>
     </g>
    </g>
    <g id="xtick_9">
     <g id="line2d_26">
      <g>
       <use style="stroke:#000000;" x="176.857766" xlink:href="#mca0af6e749" y="143.28"/>
      </g>
     </g>
     <g id="line2d_27">
      <g>
       <use style="stroke:#000000;" x="176.857766" xlink:href="#m8ec23f0202" y="88.92"/>
      </g>
     </g>
    </g>
    <g id="xtick_10">
     <g id="line2d_28">
      <g>
       <use style="stroke:#000000;" x="233.548913" xlink:href="#mca0af6e749" y="143.28"/>
      </g>
     </g>
     <g id="line2d_29">
      <g>
       <use style="stroke:#000000;" x="233.548913" xlink:href="#m8ec23f0202" y="88.92"/>
      </g>
     </g>
    </g>
    <g id="xtick_11">
     <g id="line2d_30">
      <g>
       <use style="stroke:#000000;" x="290.24006" xlink:href="#mca0af6e749" y="143.28"/>
      </g>
     </g>
     <g id="line2d_31">
      <g>
       <use style="stroke:#000000;" x="290.24006" xlink:href="#m8ec23f0202" y="88.92"/>
      </g>
     </g>
    </g>
    <g id="xtick_12">
     <g id="line2d_32">
      <g>
       <use style="stroke:#000000;" x="346.931207" xlink:href="#mca0af6e749" y="143.28"/>
      </g>
     </g>
     <g id="line2d_33">
      <g>
       <use style="stroke:#000000;" x="346.931207" xlink:href="#m8ec23f0202" y="88.92"/>
      </g>
     </g>
    </g>
   </g>
   <g id="matplotlib.axis_4">
    <g id="ytick_4">
     <g id="line2d_34">
      <g>
       <use style="stroke:#000000;" x="54" xlink:href="#m38a8a1300f" y="131.2"/>
      </g>
     </g>
     <g id="line2d_35">
      <g>
       <use style="stroke:#000000;" x="388.8" xlink:href="#mfa8c9dbd12" y="131.2"/>
      </g>
     </g>
     <g id="text_7">
      <!-- 0.5 -->
      <g transform="translate(38.268 134.349438)scale(0.088 -0.088)">
       <use xlink:href="#ArialMT-48"/>
       <use x="55.615234" xlink:href="#ArialMT-46"/>
       <use x="83.398438" xlink:href="#ArialMT-53"/>
      </g>
     </g>
    </g>
    <g id="ytick_5">
     <g id="line2d_36">
      <g>
       <use style="stroke:#000000;" x="54" xlink:href="#m38a8a1300f" y="116.1"/>
      </g>
     </g>
     <g id="line2d_37">
      <g>
       <use style="stroke:#000000;" x="388.8" xlink:href="#mfa8c9dbd12" y="116.1"/>
      </g>
     </g>
     <g id="text_8">
      <!-- 1.0 -->
      <g transform="translate(38.268 119.249438)scale(0.088 -0.088)">
       <use xlink:href="#ArialMT-49"/>
       <use x="55.615234" xlink:href="#ArialMT-46"/>
       <use x="83.398438" xlink:href="#ArialMT-48"/>
      </g>
     </g>
    </g>
    <g id="ytick_6">
     <g id="line2d_38">
      <g>
       <use style="stroke:#000000;" x="54" xlink:href="#m38a8a1300f" y="101"/>
      </g>
     </g>
     <g id="line2d_39">
      <g>
       <use style="stroke:#000000;" x="388.8" xlink:href="#mfa8c9dbd12" y="101"/>
      </g>
     </g>
     <g id="text_9">
      <!-- 1.5 -->
      <g transform="translate(38.268 104.149438)scale(0.088 -0.088)">
       <use xlink:href="#ArialMT-49"/>
       <use x="55.615234" xlink:href="#ArialMT-46"/>
       <use x="83.398438" xlink:href="#ArialMT-53"/>
      </g>
     </g>
    </g>
    <g id="text_10">
     <!-- $\beta$ -->
     <g transform="translate(32.252 119.172)rotate(-90)scale(0.096 -0.096)">
      <use transform="translate(0 0.390625)" xlink:href="#DejaVuSans-Oblique-946"/>
     </g>
    </g>
   </g>
   <g id="line2d_40">
    <path clip-path="url(#pc5fb5f9649)" d="M 63.951677 120.312075 
L 64.949442 120.312075 
L 65.198883 128.908983 
L 66.196647 128.908983 
L 66.446088 132.855602 
L 67.443852 132.855602 
L 67.693293 134.173152 
L 68.691057 134.173152 
L 68.940498 132.57239 
L 69.938262 132.57239 
L 70.187704 131.62271 
L 71.185468 131.62271 
L 71.68435 131.738096 
L 72.432673 131.738096 
L 72.682114 132.810762 
L 73.679878 132.810762 
L 73.929319 134.2651 
L 74.927083 134.2651 
L 75.176524 134.682456 
L 76.174289 134.682456 
L 76.42373 136.100809 
L 77.421494 136.100809 
L 77.670935 135.443899 
L 78.668699 135.443899 
L 78.91814 136.052701 
L 79.915904 136.052701 
L 80.165345 138.398187 
L 81.16311 138.398187 
L 81.412551 138.790579 
L 82.410315 138.790579 
L 82.659756 136.992055 
L 83.65752 136.992055 
L 83.906961 136.392444 
L 84.904725 136.392444 
L 85.154166 136.149014 
L 86.151931 136.149014 
L 86.401372 137.528632 
L 88.646341 137.623389 
L 88.895782 137.372004 
L 89.893546 137.372004 
L 90.142987 139.145113 
L 91.140751 139.145113 
L 91.390192 133.28521 
L 92.387957 133.28521 
L 92.637398 133.002492 
L 93.635162 133.002492 
L 93.884603 134.550096 
L 94.882367 134.550096 
L 95.131808 135.601744 
L 96.129572 135.601744 
L 96.379013 136.264353 
L 97.376778 136.264353 
L 97.626219 137.01524 
L 98.623983 137.01524 
L 98.873424 135.066224 
L 101.118393 135.00031 
L 101.367834 136.280259 
L 102.365599 136.280259 
L 102.61504 136.973189 
L 103.612804 136.973189 
L 103.862245 137.949169 
L 104.860009 137.949169 
L 105.10945 136.608127 
L 106.107214 136.608127 
L 106.356655 135.742386 
L 107.35442 135.742386 
L 107.603861 132.770368 
L 108.601625 132.770368 
L 108.851066 134.139369 
L 111.096035 134.134743 
L 111.345476 133.663171 
L 112.34324 133.663171 
L 112.592681 133.813717 
L 113.590446 133.813717 
L 113.839887 131.955446 
L 114.837651 131.955446 
L 115.087092 134.127527 
L 116.084856 134.127527 
L 116.334297 135.604983 
L 117.332061 135.604983 
L 117.581502 135.81601 
L 118.579267 135.81601 
L 118.828708 133.971939 
L 119.826472 133.971939 
L 120.075913 136.273826 
L 121.073677 136.273826 
L 121.323118 137.39047 
L 123.568088 137.321773 
L 123.817529 138.416338 
L 124.815293 138.416338 
L 125.064734 135.949867 
L 126.062498 135.949867 
L 126.311939 136.366655 
L 128.556908 136.265174 
L 128.80635 138.667495 
L 129.804114 138.667495 
L 130.053555 137.746179 
L 131.051319 137.746179 
L 131.30076 140.279744 
L 132.298524 140.279744 
L 132.547965 139.383209 
L 133.545729 139.383209 
L 133.79517 138.723175 
L 134.792935 138.723175 
L 135.042376 137.963697 
L 136.04014 137.963697 
L 136.289581 137.753341 
L 137.287345 137.753341 
L 137.536786 136.505202 
L 138.53455 136.505202 
L 138.783991 133.84201 
L 139.781756 133.84201 
L 140.031197 135.523609 
L 141.028961 135.523609 
L 141.278402 132.534764 
L 142.276166 132.534764 
L 142.525607 135.717346 
L 143.523371 135.717346 
L 143.772812 136.05793 
L 144.770577 136.05793 
L 145.020018 133.975446 
L 146.017782 133.975446 
L 146.267223 134.70389 
L 147.264987 134.70389 
L 147.514428 134.924545 
L 149.759397 134.909882 
L 150.008839 134.672579 
L 151.006603 134.672579 
L 151.256044 134.227148 
L 152.253808 134.227148 
L 152.503249 135.950566 
L 153.501013 135.950566 
L 153.750454 135.569838 
L 154.748218 135.569838 
L 154.997659 137.074321 
L 155.995424 137.074321 
L 156.244865 136.477079 
L 157.242629 136.477079 
L 157.49207 136.947962 
L 158.489834 136.947962 
L 158.739275 136.750633 
L 159.737039 136.750633 
L 159.98648 136.475468 
L 160.984245 136.475468 
L 161.233686 135.825542 
L 162.23145 135.825542 
L 162.480891 135.339946 
L 163.478655 135.339946 
L 163.728096 132.640345 
L 164.72586 132.640345 
L 164.975301 133.346475 
L 165.973066 133.346475 
L 166.222507 133.032228 
L 167.220271 133.032228 
L 167.469712 135.237643 
L 168.467476 135.237643 
L 168.716917 136.90643 
L 169.714681 136.90643 
L 169.964122 136.270095 
L 170.961886 136.270095 
L 171.211328 133.367148 
L 172.209092 133.367148 
L 172.458533 133.8975 
L 173.456297 133.8975 
L 173.705738 131.957967 
L 174.703502 131.957967 
L 174.952943 134.002721 
L 175.950707 134.002721 
L 176.200148 132.153073 
L 177.197913 132.153073 
L 177.447354 130.846487 
L 178.445118 130.846487 
L 178.694559 132.288281 
L 179.692323 132.288281 
L 179.941764 129.796626 
L 180.939528 129.796626 
L 181.188969 133.137014 
L 182.186734 133.137014 
L 182.436175 129.332046 
L 183.433939 129.332046 
L 183.68338 125.841464 
L 184.681144 125.841464 
L 184.930585 130.233266 
L 185.928349 130.233266 
L 186.17779 132.482135 
L 187.175555 132.482135 
L 187.424996 133.133155 
L 188.42276 133.133155 
L 188.672201 132.027339 
L 189.669965 132.027339 
L 189.919406 132.1929 
L 190.91717 132.1929 
L 191.166611 133.527463 
L 192.164375 133.527463 
L 192.413817 133.982123 
L 193.411581 133.982123 
L 193.661022 134.675255 
L 194.658786 134.675255 
L 194.908227 134.285746 
L 195.905991 134.285746 
L 196.155432 132.421131 
L 197.153196 132.421131 
L 197.402637 133.558138 
L 198.400402 133.558138 
L 198.649843 134.46153 
L 199.647607 134.46153 
L 199.897048 133.420292 
L 200.894812 133.420292 
L 201.144253 133.833311 
L 202.142017 133.833311 
L 202.391458 132.058733 
L 203.389223 132.058733 
L 203.638664 133.273994 
L 204.636428 133.273994 
L 204.885869 133.735407 
L 205.883633 133.735407 
L 206.133074 132.933015 
L 207.130838 132.933015 
L 207.380279 131.124719 
L 208.378044 131.124719 
L 208.627485 132.403633 
L 209.625249 132.403633 
L 209.87469 133.400642 
L 210.872454 133.400642 
L 211.121895 132.418905 
L 212.119659 132.418905 
L 212.3691 133.195679 
L 213.366864 133.195679 
L 213.616306 130.820441 
L 214.61407 130.820441 
L 214.863511 132.959294 
L 215.861275 132.959294 
L 216.110716 129.815283 
L 217.10848 129.815283 
L 217.357921 124.387022 
L 218.355685 124.387022 
L 218.605126 125.838171 
L 219.602891 125.838171 
L 219.852332 126.15653 
L 220.850096 126.15653 
L 221.099537 128.890252 
L 222.097301 128.890252 
L 222.346742 127.892203 
L 223.344506 127.892203 
L 223.593947 128.444532 
L 224.591712 128.444532 
L 224.841153 128.661695 
L 225.838917 128.661695 
L 226.088358 132.272304 
L 227.086122 132.272304 
L 227.335563 133.017644 
L 228.333327 133.017644 
L 228.582768 131.863231 
L 229.580533 131.863231 
L 229.829974 133.890766 
L 230.827738 133.890766 
L 231.077179 134.823521 
L 232.074943 134.823521 
L 232.324384 134.411335 
L 234.569353 134.39306 
L 234.818795 134.175548 
L 235.816559 134.175548 
L 236.066 135.026101 
L 237.063764 135.026101 
L 237.313205 135.240753 
L 239.558174 135.3277 
L 239.807615 136.786116 
L 240.80538 136.786116 
L 241.054821 136.257765 
L 242.052585 136.257765 
L 242.302026 136.394097 
L 243.29979 136.394097 
L 243.549231 137.199853 
L 244.546995 137.199853 
L 244.796436 137.821448 
L 247.041406 137.839696 
L 247.290847 136.82856 
L 249.535816 136.825756 
L 249.785257 137.866086 
L 250.783022 137.866086 
L 251.032463 137.285557 
L 252.030227 137.285557 
L 252.279668 134.737665 
L 253.277432 134.737665 
L 253.526873 136.189005 
L 254.524637 136.189005 
L 254.774078 136.481841 
L 255.771842 136.481841 
L 256.021283 136.038973 
L 257.019048 136.038973 
L 257.268489 132.853212 
L 258.266253 132.853212 
L 258.515694 132.130907 
L 259.513458 132.130907 
L 259.762899 132.625883 
L 260.760663 132.625883 
L 261.010104 130.802444 
L 262.007869 130.802444 
L 262.25731 134.483296 
L 263.255074 134.483296 
L 263.504515 136.59967 
L 264.502279 136.59967 
L 264.75172 134.698145 
L 265.749484 134.698145 
L 265.998925 136.825331 
L 266.99669 136.825331 
L 267.246131 135.494906 
L 268.243895 135.494906 
L 268.493336 137.894905 
L 269.4911 137.894905 
L 269.740541 137.009423 
L 270.738305 137.009423 
L 270.987746 134.233302 
L 273.232716 134.249228 
L 273.482157 132.508312 
L 274.479921 132.508312 
L 274.729362 133.523316 
L 276.974331 133.586237 
L 277.223772 126.472007 
L 278.221537 126.472007 
L 278.470978 126.867131 
L 279.468742 126.867131 
L 279.718183 127.26818 
L 280.715947 127.26818 
L 281.214829 127.153515 
L 281.963152 127.153515 
L 282.212593 129.364545 
L 283.210358 129.364545 
L 283.459799 130.318497 
L 284.457563 130.318497 
L 284.707004 128.059326 
L 286.951973 128.1556 
L 287.201414 129.985435 
L 288.199179 129.985435 
L 288.44862 127.24094 
L 289.446384 127.24094 
L 289.695825 131.958709 
L 290.693589 131.958709 
L 290.94303 132.089376 
L 291.940794 132.089376 
L 292.190235 130.092634 
L 293.187999 130.092634 
L 293.437441 131.056247 
L 294.435205 131.056247 
L 294.684646 131.759545 
L 295.68241 131.759545 
L 295.931851 133.635946 
L 296.929615 133.635946 
L 297.179056 131.837321 
L 298.17682 131.837321 
L 298.426261 132.899122 
L 299.424026 132.899122 
L 299.673467 133.322856 
L 300.671231 133.322856 
L 300.920672 134.700377 
L 301.918436 134.700377 
L 302.167877 135.51195 
L 303.165641 135.51195 
L 303.415082 132.220529 
L 304.412847 132.220529 
L 304.662288 131.4227 
L 305.660052 131.4227 
L 305.909493 131.139834 
L 306.907257 131.139834 
L 307.156698 135.092209 
L 308.154462 135.092209 
L 308.403903 135.599452 
L 309.401668 135.599452 
L 309.651109 134.814977 
L 310.648873 134.814977 
L 310.898314 131.821031 
L 311.896078 131.821031 
L 312.145519 131.254784 
L 313.143283 131.254784 
L 313.392724 133.732749 
L 314.390488 133.732749 
L 314.63993 133.604854 
L 315.637694 133.604854 
L 315.887135 132.807252 
L 316.714826 132.807252 
L 316.714826 132.807252 
" style="fill:none;stroke:#1ac938;stroke-linecap:round;stroke-width:1.2;"/>
   </g>
   <g id="patch_10">
    <path d="M 54 143.28 
L 54 88.92 
" style="fill:none;stroke:#000000;stroke-linecap:square;stroke-linejoin:miter;"/>
   </g>
   <g id="patch_11">
    <path d="M 388.8 143.28 
L 388.8 88.92 
" style="fill:none;stroke:#000000;stroke-linecap:square;stroke-linejoin:miter;"/>
   </g>
   <g id="patch_12">
    <path d="M 54 143.28 
L 388.8 143.28 
" style="fill:none;stroke:#000000;stroke-linecap:square;stroke-linejoin:miter;"/>
   </g>
   <g id="patch_13">
    <path d="M 54 88.92 
L 388.8 88.92 
" style="fill:none;stroke:#000000;stroke-linecap:square;stroke-linejoin:miter;"/>
   </g>
   <g id="legend_2">
    <g id="patch_14">
     <path d="M 337.824 111.386875 
L 384.64 111.386875 
Q 386.4 111.386875 386.4 109.626875 
L 386.4 97.08 
Q 386.4 95.32 384.64 95.32 
L 337.824 95.32 
Q 336.064 95.32 336.064 97.08 
L 336.064 109.626875 
Q 336.064 111.386875 337.824 111.386875 
z
" style="fill:#4c4c4c;opacity:0.5;stroke:#4c4c4c;stroke-linejoin:miter;stroke-width:0.8;"/>
    </g>
    <g id="patch_15">
     <path d="M 335.824 109.386875 
L 382.64 109.386875 
Q 384.4 109.386875 384.4 107.626875 
L 384.4 95.08 
Q 384.4 93.32 382.64 93.32 
L 335.824 93.32 
Q 334.064 93.32 334.064 95.08 
L 334.064 107.626875 
Q 334.064 109.386875 335.824 109.386875 
z
" style="fill:#ffffff;stroke:#000000;stroke-linejoin:miter;stroke-width:0.8;"/>
    </g>
    <g id="line2d_41">
     <path d="M 337.584 100.058875 
L 344.624 100.058875 
" style="fill:none;stroke:#1ac938;stroke-linecap:round;stroke-width:1.2;"/>
    </g>
    <g id="line2d_42"/>
    <g id="text_11">
     <!-- $n_{step}$=5 -->
     <g transform="translate(351.664 103.138875)scale(0.088 -0.088)">
      <use transform="translate(0 0.390625)" xlink:href="#DejaVuSans-Oblique-110"/>
      <use transform="translate(63.378906 -16.015625)scale(0.7)" xlink:href="#DejaVuSans-Oblique-115"/>
      <use transform="translate(99.848633 -16.015625)scale(0.7)" xlink:href="#DejaVuSans-Oblique-116"/>
      <use transform="translate(127.294922 -16.015625)scale(0.7)" xlink:href="#DejaVuSans-Oblique-101"/>
      <use transform="translate(170.361328 -16.015625)scale(0.7)" xlink:href="#DejaVuSans-Oblique-112"/>
      <use transform="translate(217.529297 0.390625)" xlink:href="#ArialMT-61"/>
      <use transform="translate(275.927734 0.390625)" xlink:href="#ArialMT-53"/>
     </g>
    </g>
   </g>
  </g>
  <g id="axes_3">
   <g id="patch_16">
    <path d="M 54 197.64 
L 388.8 197.64 
L 388.8 143.28 
L 54 143.28 
z
" style="fill:#ffffff;"/>
   </g>
   <g id="matplotlib.axis_5">
    <g id="xtick_13">
     <g id="line2d_43">
      <g>
       <use style="stroke:#000000;" x="63.475472" xlink:href="#mca0af6e749" y="197.64"/>
      </g>
     </g>
     <g id="line2d_44">
      <g>
       <use style="stroke:#000000;" x="63.475472" xlink:href="#m8ec23f0202" y="143.28"/>
      </g>
     </g>
    </g>
    <g id="xtick_14">
     <g id="line2d_45">
      <g>
       <use style="stroke:#000000;" x="120.166619" xlink:href="#mca0af6e749" y="197.64"/>
      </g>
     </g>
     <g id="line2d_46">
      <g>
       <use style="stroke:#000000;" x="120.166619" xlink:href="#m8ec23f0202" y="143.28"/>
      </g>
     </g>
    </g>
    <g id="xtick_15">
     <g id="line2d_47">
      <g>
       <use style="stroke:#000000;" x="176.857766" xlink:href="#mca0af6e749" y="197.64"/>
      </g>
     </g>
     <g id="line2d_48">
      <g>
       <use style="stroke:#000000;" x="176.857766" xlink:href="#m8ec23f0202" y="143.28"/>
      </g>
     </g>
    </g>
    <g id="xtick_16">
     <g id="line2d_49">
      <g>
       <use style="stroke:#000000;" x="233.548913" xlink:href="#mca0af6e749" y="197.64"/>
      </g>
     </g>
     <g id="line2d_50">
      <g>
       <use style="stroke:#000000;" x="233.548913" xlink:href="#m8ec23f0202" y="143.28"/>
      </g>
     </g>
    </g>
    <g id="xtick_17">
     <g id="line2d_51">
      <g>
       <use style="stroke:#000000;" x="290.24006" xlink:href="#mca0af6e749" y="197.64"/>
      </g>
     </g>
     <g id="line2d_52">
      <g>
       <use style="stroke:#000000;" x="290.24006" xlink:href="#m8ec23f0202" y="143.28"/>
      </g>
     </g>
    </g>
    <g id="xtick_18">
     <g id="line2d_53">
      <g>
       <use style="stroke:#000000;" x="346.931207" xlink:href="#mca0af6e749" y="197.64"/>
      </g>
     </g>
     <g id="line2d_54">
      <g>
       <use style="stroke:#000000;" x="346.931207" xlink:href="#m8ec23f0202" y="143.28"/>
      </g>
     </g>
    </g>
   </g>
   <g id="matplotlib.axis_6">
    <g id="ytick_7">
     <g id="line2d_55">
      <g>
       <use style="stroke:#000000;" x="54" xlink:href="#m38a8a1300f" y="185.56"/>
      </g>
     </g>
     <g id="line2d_56">
      <g>
       <use style="stroke:#000000;" x="388.8" xlink:href="#mfa8c9dbd12" y="185.56"/>
      </g>
     </g>
     <g id="text_12">
      <!-- 0.5 -->
      <g transform="translate(38.268 188.709438)scale(0.088 -0.088)">
       <use xlink:href="#ArialMT-48"/>
       <use x="55.615234" xlink:href="#ArialMT-46"/>
       <use x="83.398438" xlink:href="#ArialMT-53"/>
      </g>
     </g>
    </g>
    <g id="ytick_8">
     <g id="line2d_57">
      <g>
       <use style="stroke:#000000;" x="54" xlink:href="#m38a8a1300f" y="170.46"/>
      </g>
     </g>
     <g id="line2d_58">
      <g>
       <use style="stroke:#000000;" x="388.8" xlink:href="#mfa8c9dbd12" y="170.46"/>
      </g>
     </g>
     <g id="text_13">
      <!-- 1.0 -->
      <g transform="translate(38.268 173.609438)scale(0.088 -0.088)">
       <use xlink:href="#ArialMT-49"/>
       <use x="55.615234" xlink:href="#ArialMT-46"/>
       <use x="83.398438" xlink:href="#ArialMT-48"/>
      </g>
     </g>
    </g>
    <g id="ytick_9">
     <g id="line2d_59">
      <g>
       <use style="stroke:#000000;" x="54" xlink:href="#m38a8a1300f" y="155.36"/>
      </g>
     </g>
     <g id="line2d_60">
      <g>
       <use style="stroke:#000000;" x="388.8" xlink:href="#mfa8c9dbd12" y="155.36"/>
      </g>
     </g>
     <g id="text_14">
      <!-- 1.5 -->
      <g transform="translate(38.268 158.509438)scale(0.088 -0.088)">
       <use xlink:href="#ArialMT-49"/>
       <use x="55.615234" xlink:href="#ArialMT-46"/>
       <use x="83.398438" xlink:href="#ArialMT-53"/>
      </g>
     </g>
    </g>
    <g id="text_15">
     <!-- $\beta$ -->
     <g transform="translate(32.252 173.532)rotate(-90)scale(0.096 -0.096)">
      <use transform="translate(0 0.390625)" xlink:href="#DejaVuSans-Oblique-946"/>
     </g>
    </g>
   </g>
   <g id="line2d_61">
    <path clip-path="url(#pa70a9f110b)" d="M 63.951677 173.013472 
L 66.196647 173.013472 
L 66.446088 177.099213 
L 68.691057 177.099213 
L 68.940498 182.185479 
L 71.185468 182.185479 
L 71.434909 188.34584 
L 73.679878 188.34584 
L 73.929319 189.215959 
L 76.174289 189.215959 
L 76.42373 191.040356 
L 78.668699 191.040356 
L 78.91814 192.297211 
L 81.16311 192.297211 
L 81.412551 191.836971 
L 86.151931 191.897195 
L 86.650813 192.012563 
L 88.646341 192.012563 
L 88.895782 192.731509 
L 93.635162 192.779058 
L 93.884603 192.053027 
L 96.129572 192.053027 
L 96.379013 189.579737 
L 98.623983 189.579737 
L 98.873424 186.340471 
L 101.118393 186.340471 
L 101.367834 186.499236 
L 103.612804 186.499236 
L 103.862245 187.889249 
L 106.107214 187.889249 
L 106.356655 186.876374 
L 108.601625 186.876374 
L 108.851066 185.901113 
L 111.096035 185.901113 
L 111.345476 189.735536 
L 113.590446 189.735536 
L 113.839887 190.206179 
L 116.084856 190.206179 
L 116.334297 189.781527 
L 118.579267 189.781527 
L 118.828708 190.668411 
L 121.073677 190.668411 
L 121.323118 190.116432 
L 123.568088 190.116432 
L 123.817529 188.766404 
L 126.062498 188.766404 
L 126.311939 188.617161 
L 128.556908 188.617161 
L 128.80635 188.449651 
L 131.051319 188.449651 
L 131.30076 190.704507 
L 133.545729 190.704507 
L 133.79517 189.726701 
L 136.04014 189.726701 
L 136.289581 191.123582 
L 138.53455 191.123582 
L 138.783991 194.498846 
L 141.028961 194.498846 
L 141.278402 193.475094 
L 143.523371 193.475094 
L 143.772812 192.755857 
L 146.017782 192.755857 
L 146.267223 190.68228 
L 148.512192 190.68228 
L 148.761633 193.089187 
L 151.006603 193.089187 
L 151.256044 194.616121 
L 153.501013 194.616121 
L 153.750454 193.654825 
L 158.489834 193.654006 
L 158.739275 190.842309 
L 160.984245 190.842309 
L 161.233686 190.626688 
L 163.478655 190.626688 
L 163.728096 186.694129 
L 165.973066 186.694129 
L 166.222507 192.344341 
L 168.467476 192.344341 
L 168.716917 192.955881 
L 170.961886 192.955881 
L 171.211328 191.398513 
L 175.950707 191.338842 
L 176.200148 190.949962 
L 178.445118 190.949962 
L 178.694559 190.815067 
L 180.939528 190.815067 
L 181.188969 191.858179 
L 183.433939 191.858179 
L 183.68338 191.21405 
L 185.928349 191.21405 
L 186.17779 190.076027 
L 188.42276 190.076027 
L 188.672201 190.518412 
L 190.91717 190.518412 
L 191.166611 191.408165 
L 193.411581 191.408165 
L 193.661022 189.858902 
L 195.905991 189.858902 
L 196.155432 190.784651 
L 198.400402 190.784651 
L 198.649843 189.825438 
L 200.894812 189.825438 
L 201.144253 185.580162 
L 203.389223 185.580162 
L 203.638664 184.342027 
L 205.883633 184.342027 
L 206.133074 185.695175 
L 210.872454 185.658408 
L 211.121895 185.378805 
L 213.366864 185.378805 
L 213.616306 185.544097 
L 215.861275 185.544097 
L 216.110716 187.714116 
L 218.355685 187.714116 
L 218.605126 188.420691 
L 223.344506 188.360646 
L 223.593947 186.153856 
L 225.838917 186.153856 
L 226.088358 187.912949 
L 228.333327 187.912949 
L 228.582768 188.3635 
L 230.827738 188.3635 
L 231.077179 189.25711 
L 233.322148 189.25711 
L 233.571589 189.579034 
L 235.816559 189.579034 
L 236.066 190.681161 
L 238.310969 190.681161 
L 238.56041 189.874598 
L 240.80538 189.874598 
L 241.054821 190.483968 
L 243.29979 190.483968 
L 243.549231 190.14474 
L 245.794201 190.14474 
L 246.043642 189.061158 
L 248.288611 189.061158 
L 248.538052 188.634298 
L 250.783022 188.634298 
L 251.032463 185.77517 
L 253.277432 185.77517 
L 253.526873 186.226653 
L 255.771842 186.226653 
L 256.021283 189.794319 
L 258.266253 189.794319 
L 258.515694 190.564275 
L 260.760663 190.564275 
L 261.010104 191.220938 
L 263.255074 191.220938 
L 263.504515 188.788639 
L 265.749484 188.788639 
L 265.998925 187.482342 
L 268.243895 187.482342 
L 268.493336 187.095939 
L 270.738305 187.095939 
L 270.987746 184.271619 
L 275.727126 184.374488 
L 275.976567 183.812592 
L 278.221537 183.812592 
L 278.470978 184.451058 
L 280.715947 184.451058 
L 280.965388 184.165206 
L 283.210358 184.165206 
L 283.459799 184.660501 
L 288.199179 184.60649 
L 288.44862 183.748974 
L 290.693589 183.748974 
L 290.94303 184.117231 
L 293.187999 184.117231 
L 293.437441 185.5146 
L 294.661969 185.5146 
L 294.661969 185.5146 
" style="fill:none;stroke:#023eff;stroke-linecap:round;stroke-width:1.2;"/>
   </g>
   <g id="patch_17">
    <path d="M 54 197.64 
L 54 143.28 
" style="fill:none;stroke:#000000;stroke-linecap:square;stroke-linejoin:miter;"/>
   </g>
   <g id="patch_18">
    <path d="M 388.8 197.64 
L 388.8 143.28 
" style="fill:none;stroke:#000000;stroke-linecap:square;stroke-linejoin:miter;"/>
   </g>
   <g id="patch_19">
    <path d="M 54 197.64 
L 388.8 197.64 
" style="fill:none;stroke:#000000;stroke-linecap:square;stroke-linejoin:miter;"/>
   </g>
   <g id="patch_20">
    <path d="M 54 143.28 
L 388.8 143.28 
" style="fill:none;stroke:#000000;stroke-linecap:square;stroke-linejoin:miter;"/>
   </g>
   <g id="legend_3">
    <g id="patch_21">
     <path d="M 332.896 165.784 
L 384.64 165.784 
Q 386.4 165.784 386.4 164.024 
L 386.4 151.44 
Q 386.4 149.68 384.64 149.68 
L 332.896 149.68 
Q 331.136 149.68 331.136 151.44 
L 331.136 164.024 
Q 331.136 165.784 332.896 165.784 
z
" style="fill:#4c4c4c;opacity:0.5;stroke:#4c4c4c;stroke-linejoin:miter;stroke-width:0.8;"/>
    </g>
    <g id="patch_22">
     <path d="M 330.896 163.784 
L 382.64 163.784 
Q 384.4 163.784 384.4 162.024 
L 384.4 149.44 
Q 384.4 147.68 382.64 147.68 
L 330.896 147.68 
Q 329.136 147.68 329.136 149.44 
L 329.136 162.024 
Q 329.136 163.784 330.896 163.784 
z
" style="fill:#ffffff;stroke:#000000;stroke-linejoin:miter;stroke-width:0.8;"/>
    </g>
    <g id="line2d_62">
     <path d="M 332.656 154.456 
L 339.696 154.456 
" style="fill:none;stroke:#023eff;stroke-linecap:round;stroke-width:1.2;"/>
    </g>
    <g id="line2d_63"/>
    <g id="text_16">
     <!-- $n_{step}$=10 -->
     <g transform="translate(346.736 157.536)scale(0.088 -0.088)">
      <use transform="translate(0 0.125)" xlink:href="#DejaVuSans-Oblique-110"/>
      <use transform="translate(63.378906 -16.28125)scale(0.7)" xlink:href="#DejaVuSans-Oblique-115"/>
      <use transform="translate(99.848633 -16.28125)scale(0.7)" xlink:href="#DejaVuSans-Oblique-116"/>
      <use transform="translate(127.294922 -16.28125)scale(0.7)" xlink:href="#DejaVuSans-Oblique-101"/>
      <use transform="translate(170.361328 -16.28125)scale(0.7)" xlink:href="#DejaVuSans-Oblique-112"/>
      <use transform="translate(217.529297 0.125)" xlink:href="#ArialMT-61"/>
      <use transform="translate(275.927734 0.125)" xlink:href="#ArialMT-49"/>
      <use transform="translate(331.542969 0.125)" xlink:href="#ArialMT-48"/>
     </g>
    </g>
   </g>
  </g>
  <g id="axes_4">
   <g id="patch_23">
    <path d="M 54 252 
L 388.8 252 
L 388.8 197.64 
L 54 197.64 
z
" style="fill:#ffffff;"/>
   </g>
   <g id="matplotlib.axis_7">
    <g id="xtick_19">
     <g id="line2d_64">
      <g>
       <use style="stroke:#000000;" x="63.475472" xlink:href="#mca0af6e749" y="252"/>
      </g>
     </g>
     <g id="line2d_65">
      <g>
       <use style="stroke:#000000;" x="63.475472" xlink:href="#m8ec23f0202" y="197.64"/>
      </g>
     </g>
     <g id="text_17">
      <!-- $\mathdefault{0.0}$ -->
      <g transform="translate(57.315472 261.798875)scale(0.088 -0.088)">
       <use transform="translate(0 0.125)" xlink:href="#ArialMT-48"/>
       <use transform="translate(55.615234 0.125)" xlink:href="#ArialMT-46"/>
       <use transform="translate(83.398438 0.125)" xlink:href="#ArialMT-48"/>
      </g>
     </g>
    </g>
    <g id="xtick_20">
     <g id="line2d_66">
      <g>
       <use style="stroke:#000000;" x="120.166619" xlink:href="#mca0af6e749" y="252"/>
      </g>
     </g>
     <g id="line2d_67">
      <g>
       <use style="stroke:#000000;" x="120.166619" xlink:href="#m8ec23f0202" y="197.64"/>
      </g>
     </g>
     <g id="text_18">
      <!-- $\mathdefault{0.5}$ -->
      <g transform="translate(114.006619 261.798875)scale(0.088 -0.088)">
       <use transform="translate(0 0.125)" xlink:href="#ArialMT-48"/>
       <use transform="translate(55.615234 0.125)" xlink:href="#ArialMT-46"/>
       <use transform="translate(83.398438 0.125)" xlink:href="#ArialMT-53"/>
      </g>
     </g>
    </g>
    <g id="xtick_21">
     <g id="line2d_68">
      <g>
       <use style="stroke:#000000;" x="176.857766" xlink:href="#mca0af6e749" y="252"/>
      </g>
     </g>
     <g id="line2d_69">
      <g>
       <use style="stroke:#000000;" x="176.857766" xlink:href="#m8ec23f0202" y="197.64"/>
      </g>
     </g>
     <g id="text_19">
      <!-- $\mathdefault{1.0}$ -->
      <g transform="translate(170.697766 261.798875)scale(0.088 -0.088)">
       <use transform="translate(0 0.125)" xlink:href="#ArialMT-49"/>
       <use transform="translate(55.615234 0.125)" xlink:href="#ArialMT-46"/>
       <use transform="translate(83.398438 0.125)" xlink:href="#ArialMT-48"/>
      </g>
     </g>
    </g>
    <g id="xtick_22">
     <g id="line2d_70">
      <g>
       <use style="stroke:#000000;" x="233.548913" xlink:href="#mca0af6e749" y="252"/>
      </g>
     </g>
     <g id="line2d_71">
      <g>
       <use style="stroke:#000000;" x="233.548913" xlink:href="#m8ec23f0202" y="197.64"/>
      </g>
     </g>
     <g id="text_20">
      <!-- $\mathdefault{1.5}$ -->
      <g transform="translate(227.388913 261.798875)scale(0.088 -0.088)">
       <use transform="translate(0 0.125)" xlink:href="#ArialMT-49"/>
       <use transform="translate(55.615234 0.125)" xlink:href="#ArialMT-46"/>
       <use transform="translate(83.398438 0.125)" xlink:href="#ArialMT-53"/>
      </g>
     </g>
    </g>
    <g id="xtick_23">
     <g id="line2d_72">
      <g>
       <use style="stroke:#000000;" x="290.24006" xlink:href="#mca0af6e749" y="252"/>
      </g>
     </g>
     <g id="line2d_73">
      <g>
       <use style="stroke:#000000;" x="290.24006" xlink:href="#m8ec23f0202" y="197.64"/>
      </g>
     </g>
     <g id="text_21">
      <!-- $\mathdefault{2.0}$ -->
      <defs>
       <path d="M 50.34375 8.453125 
L 50.34375 0 
L 3.03125 0 
Q 2.9375 3.171875 4.046875 6.109375 
Q 5.859375 10.9375 9.828125 15.625 
Q 13.8125 20.3125 21.34375 26.46875 
Q 33.015625 36.03125 37.109375 41.625 
Q 41.21875 47.21875 41.21875 52.203125 
Q 41.21875 57.421875 37.46875 61 
Q 33.734375 64.59375 27.734375 64.59375 
Q 21.390625 64.59375 17.578125 60.78125 
Q 13.765625 56.984375 13.71875 50.25 
L 4.6875 51.171875 
Q 5.609375 61.28125 11.65625 66.578125 
Q 17.71875 71.875 27.9375 71.875 
Q 38.234375 71.875 44.234375 66.15625 
Q 50.25 60.453125 50.25 52 
Q 50.25 47.703125 48.484375 43.546875 
Q 46.734375 39.40625 42.65625 34.8125 
Q 38.578125 30.21875 29.109375 22.21875 
Q 21.1875 15.578125 18.9375 13.203125 
Q 16.703125 10.84375 15.234375 8.453125 
z
" id="ArialMT-50"/>
      </defs>
      <g transform="translate(284.08006 261.798875)scale(0.088 -0.088)">
       <use transform="translate(0 0.125)" xlink:href="#ArialMT-50"/>
       <use transform="translate(55.615234 0.125)" xlink:href="#ArialMT-46"/>
       <use transform="translate(83.398438 0.125)" xlink:href="#ArialMT-48"/>
      </g>
     </g>
    </g>
    <g id="xtick_24">
     <g id="line2d_74">
      <g>
       <use style="stroke:#000000;" x="346.931207" xlink:href="#mca0af6e749" y="252"/>
      </g>
     </g>
     <g id="line2d_75">
      <g>
       <use style="stroke:#000000;" x="346.931207" xlink:href="#m8ec23f0202" y="197.64"/>
      </g>
     </g>
     <g id="text_22">
      <!-- $\mathdefault{2.5}$ -->
      <g transform="translate(340.771207 261.798875)scale(0.088 -0.088)">
       <use transform="translate(0 0.125)" xlink:href="#ArialMT-50"/>
       <use transform="translate(55.615234 0.125)" xlink:href="#ArialMT-46"/>
       <use transform="translate(83.398438 0.125)" xlink:href="#ArialMT-53"/>
      </g>
     </g>
    </g>
    <g id="text_23">
     <!-- evaluations -->
     <defs>
      <path d="M 21 0 
L 1.265625 51.859375 
L 10.546875 51.859375 
L 21.6875 20.796875 
Q 23.484375 15.765625 25 10.359375 
Q 26.171875 14.453125 28.265625 20.21875 
L 39.796875 51.859375 
L 48.828125 51.859375 
L 29.203125 0 
z
" id="ArialMT-118"/>
      <path d="M 6.390625 0 
L 6.390625 71.578125 
L 15.1875 71.578125 
L 15.1875 0 
z
" id="ArialMT-108"/>
      <path d="M 40.578125 0 
L 40.578125 7.625 
Q 34.515625 -1.171875 24.125 -1.171875 
Q 19.53125 -1.171875 15.546875 0.578125 
Q 11.578125 2.34375 9.640625 5 
Q 7.71875 7.671875 6.9375 11.53125 
Q 6.390625 14.109375 6.390625 19.734375 
L 6.390625 51.859375 
L 15.1875 51.859375 
L 15.1875 23.09375 
Q 15.1875 16.21875 15.71875 13.8125 
Q 16.546875 10.359375 19.234375 8.375 
Q 21.921875 6.390625 25.875 6.390625 
Q 29.828125 6.390625 33.296875 8.421875 
Q 36.765625 10.453125 38.203125 13.9375 
Q 39.65625 17.4375 39.65625 24.078125 
L 39.65625 51.859375 
L 48.4375 51.859375 
L 48.4375 0 
z
" id="ArialMT-117"/>
      <path d="M 25.78125 7.859375 
L 27.046875 0.09375 
Q 23.34375 -0.6875 20.40625 -0.6875 
Q 15.625 -0.6875 12.984375 0.828125 
Q 10.359375 2.34375 9.28125 4.8125 
Q 8.203125 7.28125 8.203125 15.1875 
L 8.203125 45.015625 
L 1.765625 45.015625 
L 1.765625 51.859375 
L 8.203125 51.859375 
L 8.203125 64.703125 
L 16.9375 69.96875 
L 16.9375 51.859375 
L 25.78125 51.859375 
L 25.78125 45.015625 
L 16.9375 45.015625 
L 16.9375 14.703125 
Q 16.9375 10.9375 17.40625 9.859375 
Q 17.875 8.796875 18.921875 8.15625 
Q 19.96875 7.515625 21.921875 7.515625 
Q 23.390625 7.515625 25.78125 7.859375 
z
" id="ArialMT-116"/>
      <path d="M 3.328125 25.921875 
Q 3.328125 40.328125 11.328125 47.265625 
Q 18.015625 53.03125 27.640625 53.03125 
Q 38.328125 53.03125 45.109375 46.015625 
Q 51.90625 39.015625 51.90625 26.65625 
Q 51.90625 16.65625 48.90625 10.90625 
Q 45.90625 5.171875 40.15625 2 
Q 34.421875 -1.171875 27.640625 -1.171875 
Q 16.75 -1.171875 10.03125 5.8125 
Q 3.328125 12.796875 3.328125 25.921875 
z
M 12.359375 25.921875 
Q 12.359375 15.96875 16.703125 11.015625 
Q 21.046875 6.0625 27.640625 6.0625 
Q 34.1875 6.0625 38.53125 11.03125 
Q 42.875 16.015625 42.875 26.21875 
Q 42.875 35.84375 38.5 40.796875 
Q 34.125 45.75 27.640625 45.75 
Q 21.046875 45.75 16.703125 40.8125 
Q 12.359375 35.890625 12.359375 25.921875 
z
" id="ArialMT-111"/>
     </defs>
     <g transform="translate(197.118 274.419375)scale(0.096 -0.096)">
      <use xlink:href="#ArialMT-101"/>
      <use x="55.615234" xlink:href="#ArialMT-118"/>
      <use x="105.615234" xlink:href="#ArialMT-97"/>
      <use x="161.230469" xlink:href="#ArialMT-108"/>
      <use x="183.447266" xlink:href="#ArialMT-117"/>
      <use x="239.0625" xlink:href="#ArialMT-97"/>
      <use x="294.677734" xlink:href="#ArialMT-116"/>
      <use x="322.460938" xlink:href="#ArialMT-105"/>
      <use x="344.677734" xlink:href="#ArialMT-111"/>
      <use x="400.292969" xlink:href="#ArialMT-110"/>
      <use x="455.908203" xlink:href="#ArialMT-115"/>
     </g>
    </g>
    <g id="text_24">
     <!-- $\times\mathdefault{10^{4}}\mathdefault{}$ -->
     <defs>
      <path d="M 70.125 53.71875 
L 47.796875 31.296875 
L 70.125 8.984375 
L 64.3125 3.078125 
L 41.890625 25.484375 
L 19.484375 3.078125 
L 13.71875 8.984375 
L 35.984375 31.296875 
L 13.71875 53.71875 
L 19.484375 59.625 
L 41.890625 37.203125 
L 64.3125 59.625 
z
" id="DejaVuSans-215"/>
     </defs>
     <g transform="translate(367.592 275.534875)scale(0.088 -0.088)">
      <use transform="translate(0 0.201563)" xlink:href="#DejaVuSans-215"/>
      <use transform="translate(83.789062 0.201563)" xlink:href="#ArialMT-49"/>
      <use transform="translate(139.404297 0.201563)" xlink:href="#ArialMT-48"/>
      <use transform="translate(196.761875 69.895313)scale(0.7)" xlink:href="#ArialMT-52"/>
     </g>
    </g>
   </g>
   <g id="matplotlib.axis_8">
    <g id="ytick_10">
     <g id="line2d_76">
      <g>
       <use style="stroke:#000000;" x="54" xlink:href="#m38a8a1300f" y="239.92"/>
      </g>
     </g>
     <g id="line2d_77">
      <g>
       <use style="stroke:#000000;" x="388.8" xlink:href="#mfa8c9dbd12" y="239.92"/>
      </g>
     </g>
     <g id="text_25">
      <!-- 0.5 -->
      <g transform="translate(38.268 243.069437)scale(0.088 -0.088)">
       <use xlink:href="#ArialMT-48"/>
       <use x="55.615234" xlink:href="#ArialMT-46"/>
       <use x="83.398438" xlink:href="#ArialMT-53"/>
      </g>
     </g>
    </g>
    <g id="ytick_11">
     <g id="line2d_78">
      <g>
       <use style="stroke:#000000;" x="54" xlink:href="#m38a8a1300f" y="224.82"/>
      </g>
     </g>
     <g id="line2d_79">
      <g>
       <use style="stroke:#000000;" x="388.8" xlink:href="#mfa8c9dbd12" y="224.82"/>
      </g>
     </g>
     <g id="text_26">
      <!-- 1.0 -->
      <g transform="translate(38.268 227.969437)scale(0.088 -0.088)">
       <use xlink:href="#ArialMT-49"/>
       <use x="55.615234" xlink:href="#ArialMT-46"/>
       <use x="83.398438" xlink:href="#ArialMT-48"/>
      </g>
     </g>
    </g>
    <g id="ytick_12">
     <g id="line2d_80">
      <g>
       <use style="stroke:#000000;" x="54" xlink:href="#m38a8a1300f" y="209.72"/>
      </g>
     </g>
     <g id="line2d_81">
      <g>
       <use style="stroke:#000000;" x="388.8" xlink:href="#mfa8c9dbd12" y="209.72"/>
      </g>
     </g>
     <g id="text_27">
      <!-- 1.5 -->
      <g transform="translate(38.268 212.869438)scale(0.088 -0.088)">
       <use xlink:href="#ArialMT-49"/>
       <use x="55.615234" xlink:href="#ArialMT-46"/>
       <use x="83.398438" xlink:href="#ArialMT-53"/>
      </g>
     </g>
    </g>
    <g id="text_28">
     <!-- $\beta$ -->
     <g transform="translate(32.252 227.892)rotate(-90)scale(0.096 -0.096)">
      <use transform="translate(0 0.390625)" xlink:href="#DejaVuSans-Oblique-946"/>
     </g>
    </g>
   </g>
   <g id="line2d_82">
    <path clip-path="url(#p9bd972ae78)" d="M 63.951677 225.82855 
L 76.174289 225.82855 
L 76.42373 235.069303 
L 88.646341 235.069303 
L 88.895782 237.090253 
L 101.118393 237.090253 
L 101.367834 240.475008 
L 113.590446 240.475008 
L 113.839887 242.577046 
L 126.062498 242.577046 
L 126.311939 243.552103 
L 138.53455 243.552103 
L 138.783991 244.059601 
L 151.006603 244.059601 
L 151.256044 245.328204 
L 163.478655 245.328204 
L 163.728096 246.37584 
L 175.950707 246.37584 
L 176.200148 246.134515 
L 188.42276 246.134515 
L 188.672201 246.597824 
L 200.894812 246.597824 
L 201.144253 246.022276 
L 213.366864 246.022276 
L 213.616306 247.032475 
L 225.838917 247.032475 
L 226.088358 243.546313 
L 238.310969 243.546313 
L 238.56041 239.96221 
L 250.783022 239.96221 
L 251.032463 239.343508 
L 263.255074 239.343508 
L 263.504515 242.950894 
L 275.727126 242.950894 
L 275.976567 243.558695 
L 288.199179 243.558695 
L 288.44862 245.507706 
L 300.671231 245.507706 
L 300.920672 246.972401 
L 313.143283 246.972401 
L 313.392724 245.075787 
L 325.615336 245.075787 
L 325.864777 243.377981 
L 332.429611 243.377981 
L 332.429611 243.377981 
" style="fill:none;stroke:#00d7ff;stroke-linecap:round;stroke-width:1.2;"/>
   </g>
   <g id="patch_24">
    <path d="M 54 252 
L 54 197.64 
" style="fill:none;stroke:#000000;stroke-linecap:square;stroke-linejoin:miter;"/>
   </g>
   <g id="patch_25">
    <path d="M 388.8 252 
L 388.8 197.64 
" style="fill:none;stroke:#000000;stroke-linecap:square;stroke-linejoin:miter;"/>
   </g>
   <g id="patch_26">
    <path d="M 54 252 
L 388.8 252 
" style="fill:none;stroke:#000000;stroke-linecap:square;stroke-linejoin:miter;"/>
   </g>
   <g id="patch_27">
    <path d="M 54 197.64 
L 388.8 197.64 
" style="fill:none;stroke:#000000;stroke-linecap:square;stroke-linejoin:miter;"/>
   </g>
   <g id="legend_4">
    <g id="patch_28">
     <path d="M 332.896 220.144 
L 384.64 220.144 
Q 386.4 220.144 386.4 218.384 
L 386.4 205.8 
Q 386.4 204.04 384.64 204.04 
L 332.896 204.04 
Q 331.136 204.04 331.136 205.8 
L 331.136 218.384 
Q 331.136 220.144 332.896 220.144 
z
" style="fill:#4c4c4c;opacity:0.5;stroke:#4c4c4c;stroke-linejoin:miter;stroke-width:0.8;"/>
    </g>
    <g id="patch_29">
     <path d="M 330.896 218.144 
L 382.64 218.144 
Q 384.4 218.144 384.4 216.384 
L 384.4 203.8 
Q 384.4 202.04 382.64 202.04 
L 330.896 202.04 
Q 329.136 202.04 329.136 203.8 
L 329.136 216.384 
Q 329.136 218.144 330.896 218.144 
z
" style="fill:#ffffff;stroke:#000000;stroke-linejoin:miter;stroke-width:0.8;"/>
    </g>
    <g id="line2d_83">
     <path d="M 332.656 208.816 
L 339.696 208.816 
" style="fill:none;stroke:#00d7ff;stroke-linecap:round;stroke-width:1.2;"/>
    </g>
    <g id="line2d_84"/>
    <g id="text_29">
     <!-- $n_{step}$=50 -->
     <g transform="translate(346.736 211.896)scale(0.088 -0.088)">
      <use transform="translate(0 0.125)" xlink:href="#DejaVuSans-Oblique-110"/>
      <use transform="translate(63.378906 -16.28125)scale(0.7)" xlink:href="#DejaVuSans-Oblique-115"/>
      <use transform="translate(99.848633 -16.28125)scale(0.7)" xlink:href="#DejaVuSans-Oblique-116"/>
      <use transform="translate(127.294922 -16.28125)scale(0.7)" xlink:href="#DejaVuSans-Oblique-101"/>
      <use transform="translate(170.361328 -16.28125)scale(0.7)" xlink:href="#DejaVuSans-Oblique-112"/>
      <use transform="translate(217.529297 0.125)" xlink:href="#ArialMT-61"/>
      <use transform="translate(275.927734 0.125)" xlink:href="#ArialMT-53"/>
      <use transform="translate(331.542969 0.125)" xlink:href="#ArialMT-48"/>
     </g>
    </g>
   </g>
  </g>
 </g>
 <defs>
  <clipPath id="p1cae6eb522">
   <rect height="54.36" width="334.8" x="54" y="34.56"/>
  </clipPath>
  <clipPath id="pc5fb5f9649">
   <rect height="54.36" width="334.8" x="54" y="88.92"/>
  </clipPath>
  <clipPath id="pa70a9f110b">
   <rect height="54.36" width="334.8" x="54" y="143.28"/>
  </clipPath>
  <clipPath id="p9bd972ae78">
   <rect height="54.36" width="334.8" x="54" y="197.64"/>
  </clipPath>
 </defs>
</svg>
