<?xml version="1.0" encoding="utf-8" standalone="no"?>
<!DOCTYPE svg PUBLIC "-//W3C//DTD SVG 1.1//EN"
  "http://www.w3.org/Graphics/SVG/1.1/DTD/svg11.dtd">
<!-- Created with matplotlib (https://matplotlib.org/) -->
<svg height="288pt" version="1.1" viewBox="0 0 432 288" width="432pt" xmlns="http://www.w3.org/2000/svg" xmlns:xlink="http://www.w3.org/1999/xlink">
 <defs>
  <style type="text/css">
*{stroke-linecap:butt;stroke-linejoin:round;}
  </style>
 </defs>
 <g id="figure_1">
  <g id="patch_1">
   <path d="M 0 288 
L 432 288 
L 432 0 
L 0 0 
z
" style="fill:#ffffff;"/>
  </g>
  <g id="axes_1">
   <g id="patch_2">
    <path d="M 54 143.28 
L 388.8 143.28 
L 388.8 34.56 
L 54 34.56 
z
" style="fill:#ffffff;"/>
   </g>
   <g id="line2d_1">
    <path clip-path="url(#p885a1c1ef3)" d="M 69.218182 39.883131 
L 69.529885 41.059865 
L 71.088399 41.065976 
L 71.400102 41.195198 
L 71.711804 41.195198 
L 72.023507 43.154184 
L 72.33521 43.154184 
L 72.646913 43.38374 
L 73.582021 43.457184 
L 73.893724 44.197366 
L 74.51713 44.212692 
L 74.828833 44.517297 
L 75.140535 44.517394 
L 75.452238 44.878547 
L 75.763941 44.878547 
L 76.075644 45.580543 
L 76.387347 45.631136 
L 76.69905 46.148206 
L 77.322455 46.148206 
L 77.634158 46.890632 
L 78.569266 46.897279 
L 78.880969 47.317465 
L 79.504375 47.317465 
L 79.816078 47.687201 
L 81.374592 47.687518 
L 81.686295 48.081089 
L 81.997997 48.081089 
L 82.3097 49.268681 
L 83.244809 49.372449 
L 83.556512 50.843119 
L 85.738431 50.843119 
L 86.050134 51.126003 
L 86.361837 51.126003 
L 86.67354 55.27961 
L 88.232054 55.279653 
L 88.543757 55.483827 
L 88.85546 55.483827 
L 89.167162 57.933557 
L 92.595893 57.978384 
L 93.219299 58.493709 
L 95.089516 58.493709 
L 95.401219 58.618256 
L 96.024624 58.618259 
L 96.336327 60.264249 
L 100.076761 60.27252 
L 100.388464 63.59962 
L 101.323572 63.59962 
L 101.635275 65.973156 
L 103.193789 65.975274 
L 104.440601 66.395207 
L 104.752303 66.891406 
L 105.064006 85.741303 
L 112.856577 85.806697 
L 113.16828 87.266495 
L 115.038497 87.27985 
L 115.350199 89.296587 
L 115.973605 89.296587 
L 116.285308 89.617017 
L 116.597011 89.617017 
L 116.908713 89.737827 
L 118.155525 89.737827 
L 118.467228 89.870764 
L 118.77893 91.371551 
L 119.714039 91.371551 
L 120.025742 92.061531 
L 121.272553 92.061531 
L 121.895959 93.471014 
L 125.948095 93.548313 
L 126.259798 94.051214 
L 126.883204 94.051214 
L 127.194907 96.33007 
L 129.688529 96.33007 
L 130.000232 96.807763 
L 130.623638 96.807763 
L 130.93534 97.288582 
L 132.182152 97.295134 
L 132.493854 97.970373 
L 134.364071 97.974863 
L 134.675774 98.611262 
L 135.922586 98.611262 
L 136.234288 98.944189 
L 136.545991 98.944189 
L 136.857694 99.991849 
L 137.792802 99.991849 
L 138.104505 100.90242 
L 138.416208 100.90242 
L 138.727911 101.465413 
L 140.286425 101.465413 
L 140.598128 101.982318 
L 141.221533 102.06489 
L 142.156642 102.06489 
L 142.468345 102.961177 
L 142.780048 102.961177 
L 143.09175 103.176503 
L 143.715156 103.176503 
L 144.026859 103.644062 
L 145.585373 103.72648 
L 146.208779 103.866639 
L 148.702401 103.866639 
L 149.63751 106.044666 
L 150.884321 106.11427 
L 151.196024 106.546624 
L 151.507727 106.788507 
L 153.377943 106.788507 
L 153.689646 107.893715 
L 154.936458 107.979447 
L 155.559863 108.880983 
L 156.806675 108.889953 
L 157.118377 109.168713 
L 157.43008 109.79177 
L 160.858811 109.79177 
L 161.170514 110.207969 
L 162.105622 110.208937 
L 162.417325 113.597289 
L 163.352434 113.597289 
L 163.664137 114.371384 
L 166.469462 114.371384 
L 166.781165 114.890075 
L 167.716273 114.890075 
L 168.027976 116.630721 
L 174.262032 116.657813 
L 174.573735 118.341967 
L 176.132249 118.366745 
L 179.56098 118.366745 
L 179.872683 118.564147 
L 180.496089 118.564147 
L 180.807792 119.404233 
L 187.665254 119.404233 
L 187.976957 119.919034 
L 188.912065 119.919034 
L 189.223768 120.29503 
L 197.639744 120.29503 
L 197.951447 120.562234 
L 198.886555 120.562234 
L 199.198258 120.983031 
L 201.380178 120.983031 
L 201.691881 121.492417 
L 207.302532 121.580466 
L 207.614234 121.799552 
L 209.796154 121.799552 
L 210.107857 122.587752 
L 213.224885 122.587752 
L 213.536588 122.825941 
L 214.471696 122.825941 
L 214.783399 124.329733 
L 218.523833 124.329733 
L 218.835536 124.856173 
L 219.147239 125.039584 
L 226.939809 125.039584 
L 227.251512 126.831714 
L 230.680243 126.831714 
L 230.991946 127.467931 
L 236.914299 127.467931 
L 237.226002 127.604649 
L 237.849408 127.604649 
L 238.161111 129.143646 
L 239.719625 129.143646 
L 240.031328 129.488323 
L 252.499441 129.55345 
L 253.122846 129.641371 
L 253.434549 130.681915 
L 255.616469 130.681915 
L 255.928172 131.630906 
L 277.435666 131.630906 
L 277.747369 133.839415 
L 306.735731 133.88699 
L 307.047434 134.464452 
L 311.099571 134.464452 
L 311.411274 134.822807 
L 319.203844 134.822807 
L 319.458874 138.338182 
L 319.458874 138.338182 
" style="fill:none;stroke:#1ac938;stroke-linecap:round;stroke-width:1.2;"/>
   </g>
   <g id="matplotlib.axis_1">
    <g id="xtick_1">
     <g id="line2d_2">
      <defs>
       <path d="M 0 0 
L 0 -3 
" id="m8bf44c3a68" style="stroke:#000000;"/>
      </defs>
      <g>
       <use style="stroke:#000000;" x="68.623113" xlink:href="#m8bf44c3a68" y="143.28"/>
      </g>
     </g>
     <g id="line2d_3">
      <defs>
       <path d="M 0 0 
L 0 3 
" id="m22eb578cff" style="stroke:#000000;"/>
      </defs>
      <g>
       <use style="stroke:#000000;" x="68.623113" xlink:href="#m22eb578cff" y="34.56"/>
      </g>
     </g>
    </g>
    <g id="xtick_2">
     <g id="line2d_4">
      <g>
       <use style="stroke:#000000;" x="139.464663" xlink:href="#m8bf44c3a68" y="143.28"/>
      </g>
     </g>
     <g id="line2d_5">
      <g>
       <use style="stroke:#000000;" x="139.464663" xlink:href="#m22eb578cff" y="34.56"/>
      </g>
     </g>
    </g>
    <g id="xtick_3">
     <g id="line2d_6">
      <g>
       <use style="stroke:#000000;" x="210.306213" xlink:href="#m8bf44c3a68" y="143.28"/>
      </g>
     </g>
     <g id="line2d_7">
      <g>
       <use style="stroke:#000000;" x="210.306213" xlink:href="#m22eb578cff" y="34.56"/>
      </g>
     </g>
    </g>
    <g id="xtick_4">
     <g id="line2d_8">
      <g>
       <use style="stroke:#000000;" x="281.147763" xlink:href="#m8bf44c3a68" y="143.28"/>
      </g>
     </g>
     <g id="line2d_9">
      <g>
       <use style="stroke:#000000;" x="281.147763" xlink:href="#m22eb578cff" y="34.56"/>
      </g>
     </g>
    </g>
    <g id="xtick_5">
     <g id="line2d_10">
      <g>
       <use style="stroke:#000000;" x="351.989314" xlink:href="#m8bf44c3a68" y="143.28"/>
      </g>
     </g>
     <g id="line2d_11">
      <g>
       <use style="stroke:#000000;" x="351.989314" xlink:href="#m22eb578cff" y="34.56"/>
      </g>
     </g>
    </g>
   </g>
   <g id="matplotlib.axis_2">
    <g id="ytick_1">
     <g id="line2d_12">
      <defs>
       <path d="M 0 0 
L 3 0 
" id="me567145056" style="stroke:#000000;"/>
      </defs>
      <g>
       <use style="stroke:#000000;" x="54" xlink:href="#me567145056" y="129.125375"/>
      </g>
     </g>
     <g id="line2d_13">
      <defs>
       <path d="M 0 0 
L -3 0 
" id="m1ca2bbf8ce" style="stroke:#000000;"/>
      </defs>
      <g>
       <use style="stroke:#000000;" x="388.8" xlink:href="#m1ca2bbf8ce" y="129.125375"/>
      </g>
     </g>
     <g id="text_1">
      <!-- $\mathdefault{10^{-6}}$ -->
      <defs>
       <path d="M 37.25 0 
L 28.46875 0 
L 28.46875 56 
Q 25.296875 52.984375 20.140625 49.953125 
Q 14.984375 46.921875 10.890625 45.40625 
L 10.890625 53.90625 
Q 18.265625 57.375 23.78125 62.296875 
Q 29.296875 67.234375 31.59375 71.875 
L 37.25 71.875 
z
" id="ArialMT-49"/>
       <path d="M 4.15625 35.296875 
Q 4.15625 48 6.765625 55.734375 
Q 9.375 63.484375 14.515625 67.671875 
Q 19.671875 71.875 27.484375 71.875 
Q 33.25 71.875 37.59375 69.546875 
Q 41.9375 67.234375 44.765625 62.859375 
Q 47.609375 58.5 49.21875 52.21875 
Q 50.828125 45.953125 50.828125 35.296875 
Q 50.828125 22.703125 48.234375 14.96875 
Q 45.65625 7.234375 40.5 3 
Q 35.359375 -1.21875 27.484375 -1.21875 
Q 17.140625 -1.21875 11.234375 6.203125 
Q 4.15625 15.140625 4.15625 35.296875 
z
M 13.1875 35.296875 
Q 13.1875 17.671875 17.3125 11.828125 
Q 21.4375 6 27.484375 6 
Q 33.546875 6 37.671875 11.859375 
Q 41.796875 17.71875 41.796875 35.296875 
Q 41.796875 52.984375 37.671875 58.78125 
Q 33.546875 64.59375 27.390625 64.59375 
Q 21.34375 64.59375 17.71875 59.46875 
Q 13.1875 52.9375 13.1875 35.296875 
z
" id="ArialMT-48"/>
       <path d="M 52.828125 31.203125 
L 5.5625 31.203125 
L 5.5625 39.40625 
L 52.828125 39.40625 
z
" id="ArialMT-8722"/>
       <path d="M 49.75 54.046875 
L 41.015625 53.375 
Q 39.84375 58.546875 37.703125 60.890625 
Q 34.125 64.65625 28.90625 64.65625 
Q 24.703125 64.65625 21.53125 62.3125 
Q 17.390625 59.28125 14.984375 53.46875 
Q 12.59375 47.65625 12.5 36.921875 
Q 15.671875 41.75 20.265625 44.09375 
Q 24.859375 46.4375 29.890625 46.4375 
Q 38.671875 46.4375 44.84375 39.96875 
Q 51.03125 33.5 51.03125 23.25 
Q 51.03125 16.5 48.125 10.71875 
Q 45.21875 4.9375 40.140625 1.859375 
Q 35.0625 -1.21875 28.609375 -1.21875 
Q 17.625 -1.21875 10.6875 6.859375 
Q 3.765625 14.9375 3.765625 33.5 
Q 3.765625 54.25 11.421875 63.671875 
Q 18.109375 71.875 29.4375 71.875 
Q 37.890625 71.875 43.28125 67.140625 
Q 48.6875 62.40625 49.75 54.046875 
z
M 13.875 23.1875 
Q 13.875 18.65625 15.796875 14.5 
Q 17.71875 10.359375 21.1875 8.171875 
Q 24.65625 6 28.46875 6 
Q 34.03125 6 38.03125 10.484375 
Q 42.046875 14.984375 42.046875 22.703125 
Q 42.046875 30.125 38.078125 34.390625 
Q 34.125 38.671875 28.125 38.671875 
Q 22.171875 38.671875 18.015625 34.390625 
Q 13.875 30.125 13.875 23.1875 
z
" id="ArialMT-54"/>
      </defs>
      <g transform="translate(33.076 133.662875)scale(0.088 -0.088)">
       <use transform="translate(0 0.99375)" xlink:href="#ArialMT-49"/>
       <use transform="translate(55.615234 0.99375)" xlink:href="#ArialMT-48"/>
       <use transform="translate(112.972813 70.6875)scale(0.7)" xlink:href="#ArialMT-8722"/>
       <use transform="translate(153.851719 70.6875)scale(0.7)" xlink:href="#ArialMT-54"/>
      </g>
     </g>
    </g>
    <g id="ytick_2">
     <g id="line2d_14">
      <g>
       <use style="stroke:#000000;" x="54" xlink:href="#me567145056" y="106.354289"/>
      </g>
     </g>
     <g id="line2d_15">
      <g>
       <use style="stroke:#000000;" x="388.8" xlink:href="#m1ca2bbf8ce" y="106.354289"/>
      </g>
     </g>
     <g id="text_2">
      <!-- $\mathdefault{10^{-4}}$ -->
      <defs>
       <path d="M 32.328125 0 
L 32.328125 17.140625 
L 1.265625 17.140625 
L 1.265625 25.203125 
L 33.9375 71.578125 
L 41.109375 71.578125 
L 41.109375 25.203125 
L 50.78125 25.203125 
L 50.78125 17.140625 
L 41.109375 17.140625 
L 41.109375 0 
z
M 32.328125 25.203125 
L 32.328125 57.46875 
L 9.90625 25.203125 
z
" id="ArialMT-52"/>
      </defs>
      <g transform="translate(33.076 110.847789)scale(0.088 -0.088)">
       <use transform="translate(0 0.201563)" xlink:href="#ArialMT-49"/>
       <use transform="translate(55.615234 0.201563)" xlink:href="#ArialMT-48"/>
       <use transform="translate(112.972813 69.895313)scale(0.7)" xlink:href="#ArialMT-8722"/>
       <use transform="translate(153.851719 69.895313)scale(0.7)" xlink:href="#ArialMT-52"/>
      </g>
     </g>
    </g>
    <g id="ytick_3">
     <g id="line2d_16">
      <g>
       <use style="stroke:#000000;" x="54" xlink:href="#me567145056" y="83.583203"/>
      </g>
     </g>
     <g id="line2d_17">
      <g>
       <use style="stroke:#000000;" x="388.8" xlink:href="#m1ca2bbf8ce" y="83.583203"/>
      </g>
     </g>
     <g id="text_3">
      <!-- $\mathdefault{10^{-2}}$ -->
      <defs>
       <path d="M 50.34375 8.453125 
L 50.34375 0 
L 3.03125 0 
Q 2.9375 3.171875 4.046875 6.109375 
Q 5.859375 10.9375 9.828125 15.625 
Q 13.8125 20.3125 21.34375 26.46875 
Q 33.015625 36.03125 37.109375 41.625 
Q 41.21875 47.21875 41.21875 52.203125 
Q 41.21875 57.421875 37.46875 61 
Q 33.734375 64.59375 27.734375 64.59375 
Q 21.390625 64.59375 17.578125 60.78125 
Q 13.765625 56.984375 13.71875 50.25 
L 4.6875 51.171875 
Q 5.609375 61.28125 11.65625 66.578125 
Q 17.71875 71.875 27.9375 71.875 
Q 38.234375 71.875 44.234375 66.15625 
Q 50.25 60.453125 50.25 52 
Q 50.25 47.703125 48.484375 43.546875 
Q 46.734375 39.40625 42.65625 34.8125 
Q 38.578125 30.21875 29.109375 22.21875 
Q 21.1875 15.578125 18.9375 13.203125 
Q 16.703125 10.84375 15.234375 8.453125 
z
" id="ArialMT-50"/>
      </defs>
      <g transform="translate(33.076 88.120703)scale(0.088 -0.088)">
       <use transform="translate(0 0.99375)" xlink:href="#ArialMT-49"/>
       <use transform="translate(55.615234 0.99375)" xlink:href="#ArialMT-48"/>
       <use transform="translate(112.972813 70.6875)scale(0.7)" xlink:href="#ArialMT-8722"/>
       <use transform="translate(153.851719 70.6875)scale(0.7)" xlink:href="#ArialMT-50"/>
      </g>
     </g>
    </g>
    <g id="ytick_4">
     <g id="line2d_18">
      <g>
       <use style="stroke:#000000;" x="54" xlink:href="#me567145056" y="60.812118"/>
      </g>
     </g>
     <g id="line2d_19">
      <g>
       <use style="stroke:#000000;" x="388.8" xlink:href="#m1ca2bbf8ce" y="60.812118"/>
      </g>
     </g>
     <g id="text_4">
      <!-- $\mathdefault{10^{0}}$ -->
      <g transform="translate(36.684 65.349618)scale(0.088 -0.088)">
       <use transform="translate(0 0.99375)" xlink:href="#ArialMT-49"/>
       <use transform="translate(55.615234 0.99375)" xlink:href="#ArialMT-48"/>
       <use transform="translate(112.972813 70.6875)scale(0.7)" xlink:href="#ArialMT-48"/>
      </g>
     </g>
    </g>
    <g id="ytick_5">
     <g id="line2d_20">
      <g>
       <use style="stroke:#000000;" x="54" xlink:href="#me567145056" y="38.041032"/>
      </g>
     </g>
     <g id="line2d_21">
      <g>
       <use style="stroke:#000000;" x="388.8" xlink:href="#m1ca2bbf8ce" y="38.041032"/>
      </g>
     </g>
     <g id="text_5">
      <!-- $\mathdefault{10^{2}}$ -->
      <g transform="translate(36.684 42.578532)scale(0.088 -0.088)">
       <use transform="translate(0 0.99375)" xlink:href="#ArialMT-49"/>
       <use transform="translate(55.615234 0.99375)" xlink:href="#ArialMT-48"/>
       <use transform="translate(112.972813 70.6875)scale(0.7)" xlink:href="#ArialMT-50"/>
      </g>
     </g>
    </g>
    <g id="text_6">
     <!-- fitness -->
     <defs>
      <path d="M 8.6875 0 
L 8.6875 45.015625 
L 0.921875 45.015625 
L 0.921875 51.859375 
L 8.6875 51.859375 
L 8.6875 57.375 
Q 8.6875 62.59375 9.625 65.140625 
Q 10.890625 68.5625 14.078125 70.671875 
Q 17.28125 72.796875 23.046875 72.796875 
Q 26.765625 72.796875 31.25 71.921875 
L 29.9375 64.265625 
Q 27.203125 64.75 24.75 64.75 
Q 20.75 64.75 19.09375 63.03125 
Q 17.4375 61.328125 17.4375 56.640625 
L 17.4375 51.859375 
L 27.546875 51.859375 
L 27.546875 45.015625 
L 17.4375 45.015625 
L 17.4375 0 
z
" id="ArialMT-102"/>
      <path d="M 6.640625 61.46875 
L 6.640625 71.578125 
L 15.4375 71.578125 
L 15.4375 61.46875 
z
M 6.640625 0 
L 6.640625 51.859375 
L 15.4375 51.859375 
L 15.4375 0 
z
" id="ArialMT-105"/>
      <path d="M 25.78125 7.859375 
L 27.046875 0.09375 
Q 23.34375 -0.6875 20.40625 -0.6875 
Q 15.625 -0.6875 12.984375 0.828125 
Q 10.359375 2.34375 9.28125 4.8125 
Q 8.203125 7.28125 8.203125 15.1875 
L 8.203125 45.015625 
L 1.765625 45.015625 
L 1.765625 51.859375 
L 8.203125 51.859375 
L 8.203125 64.703125 
L 16.9375 69.96875 
L 16.9375 51.859375 
L 25.78125 51.859375 
L 25.78125 45.015625 
L 16.9375 45.015625 
L 16.9375 14.703125 
Q 16.9375 10.9375 17.40625 9.859375 
Q 17.875 8.796875 18.921875 8.15625 
Q 19.96875 7.515625 21.921875 7.515625 
Q 23.390625 7.515625 25.78125 7.859375 
z
" id="ArialMT-116"/>
      <path d="M 6.59375 0 
L 6.59375 51.859375 
L 14.5 51.859375 
L 14.5 44.484375 
Q 20.21875 53.03125 31 53.03125 
Q 35.6875 53.03125 39.625 51.34375 
Q 43.5625 49.65625 45.515625 46.921875 
Q 47.46875 44.1875 48.25 40.4375 
Q 48.734375 37.984375 48.734375 31.890625 
L 48.734375 0 
L 39.9375 0 
L 39.9375 31.546875 
Q 39.9375 36.921875 38.90625 39.578125 
Q 37.890625 42.234375 35.28125 43.8125 
Q 32.671875 45.40625 29.15625 45.40625 
Q 23.53125 45.40625 19.453125 41.84375 
Q 15.375 38.28125 15.375 28.328125 
L 15.375 0 
z
" id="ArialMT-110"/>
      <path d="M 42.09375 16.703125 
L 51.171875 15.578125 
Q 49.03125 7.625 43.21875 3.21875 
Q 37.40625 -1.171875 28.375 -1.171875 
Q 17 -1.171875 10.328125 5.828125 
Q 3.65625 12.84375 3.65625 25.484375 
Q 3.65625 38.578125 10.390625 45.796875 
Q 17.140625 53.03125 27.875 53.03125 
Q 38.28125 53.03125 44.875 45.953125 
Q 51.46875 38.875 51.46875 26.03125 
Q 51.46875 25.25 51.421875 23.6875 
L 12.75 23.6875 
Q 13.234375 15.140625 17.578125 10.59375 
Q 21.921875 6.0625 28.421875 6.0625 
Q 33.25 6.0625 36.671875 8.59375 
Q 40.09375 11.140625 42.09375 16.703125 
z
M 13.234375 30.90625 
L 42.1875 30.90625 
Q 41.609375 37.453125 38.875 40.71875 
Q 34.671875 45.796875 27.984375 45.796875 
Q 21.921875 45.796875 17.796875 41.75 
Q 13.671875 37.703125 13.234375 30.90625 
z
" id="ArialMT-101"/>
      <path d="M 3.078125 15.484375 
L 11.765625 16.84375 
Q 12.5 11.625 15.84375 8.84375 
Q 19.1875 6.0625 25.203125 6.0625 
Q 31.25 6.0625 34.171875 8.515625 
Q 37.109375 10.984375 37.109375 14.3125 
Q 37.109375 17.28125 34.515625 19 
Q 32.71875 20.171875 25.53125 21.96875 
Q 15.875 24.421875 12.140625 26.203125 
Q 8.40625 27.984375 6.46875 31.125 
Q 4.546875 34.28125 4.546875 38.09375 
Q 4.546875 41.546875 6.125 44.5 
Q 7.71875 47.46875 10.453125 49.421875 
Q 12.5 50.921875 16.03125 51.96875 
Q 19.578125 53.03125 23.640625 53.03125 
Q 29.734375 53.03125 34.34375 51.265625 
Q 38.96875 49.515625 41.15625 46.5 
Q 43.359375 43.5 44.1875 38.484375 
L 35.59375 37.3125 
Q 35.015625 41.3125 32.203125 43.546875 
Q 29.390625 45.796875 24.265625 45.796875 
Q 18.21875 45.796875 15.625 43.796875 
Q 13.03125 41.796875 13.03125 39.109375 
Q 13.03125 37.40625 14.109375 36.03125 
Q 15.1875 34.625 17.484375 33.6875 
Q 18.796875 33.203125 25.25 31.453125 
Q 34.578125 28.953125 38.25 27.359375 
Q 41.9375 25.78125 44.03125 22.75 
Q 46.140625 19.734375 46.140625 15.234375 
Q 46.140625 10.84375 43.578125 6.953125 
Q 41.015625 3.078125 36.171875 0.953125 
Q 31.34375 -1.171875 25.25 -1.171875 
Q 15.140625 -1.171875 9.84375 3.03125 
Q 4.546875 7.234375 3.078125 15.484375 
z
" id="ArialMT-115"/>
     </defs>
     <g transform="translate(27.168 102.792)rotate(-90)scale(0.096 -0.096)">
      <use xlink:href="#ArialMT-102"/>
      <use x="27.783203" xlink:href="#ArialMT-105"/>
      <use x="50" xlink:href="#ArialMT-116"/>
      <use x="77.783203" xlink:href="#ArialMT-110"/>
      <use x="133.398438" xlink:href="#ArialMT-101"/>
      <use x="189.013672" xlink:href="#ArialMT-115"/>
      <use x="239.013672" xlink:href="#ArialMT-115"/>
     </g>
    </g>
   </g>
   <g id="line2d_22">
    <path clip-path="url(#p885a1c1ef3)" d="M 69.218182 39.501818 
L 69.529885 39.501831 
L 69.841587 39.916012 
L 70.464993 39.918721 
L 70.776696 40.301337 
L 72.33521 40.305241 
L 72.646913 40.774997 
L 72.958616 40.908125 
L 73.582021 40.908125 
L 73.893724 41.119853 
L 74.205427 43.680909 
L 74.51713 43.680909 
L 74.828833 43.83063 
L 75.140535 45.245996 
L 75.452238 45.40622 
L 76.075644 45.40622 
L 76.69905 45.721231 
L 77.634158 45.74859 
L 78.257564 47.704202 
L 78.569266 47.704202 
L 79.504375 48.703141 
L 79.816078 50.260353 
L 80.751186 50.394969 
L 81.062889 51.145902 
L 81.686295 51.146817 
L 81.997997 51.543551 
L 82.621403 51.543551 
L 82.933106 55.755396 
L 84.803323 55.80309 
L 85.115026 55.923639 
L 86.050134 55.92601 
L 86.67354 60.036214 
L 89.167162 60.036214 
L 89.478865 60.626922 
L 91.660785 60.704015 
L 91.972488 61.709658 
L 92.907596 61.709658 
L 93.219299 62.55749 
L 95.089516 62.55749 
L 95.401219 67.691272 
L 96.64803 67.691272 
L 96.959733 74.848842 
L 105.687412 74.848842 
L 105.999115 78.862279 
L 106.310818 79.070049 
L 108.181034 79.070049 
L 108.492737 79.478368 
L 109.427846 79.478512 
L 109.739549 80.514918 
L 110.051251 80.514918 
L 110.362954 80.977166 
L 110.674657 81.202615 
L 113.16828 81.202615 
L 113.479982 82.480232 
L 117.532119 82.480232 
L 117.843822 82.8094 
L 119.714039 82.8094 
L 120.025742 85.542281 
L 125.948095 85.651085 
L 126.259798 85.881483 
L 126.883204 85.898459 
L 127.194907 86.082471 
L 129.065123 86.082471 
L 129.376826 87.514937 
L 134.052369 87.514937 
L 134.364071 90.721523 
L 143.715156 90.721523 
L 144.026859 98.792948 
L 145.897076 98.799079 
L 146.208779 99.808454 
L 147.45559 99.808454 
L 147.767293 100.495103 
L 148.702401 100.495103 
L 149.014104 100.711745 
L 150.884321 100.781109 
L 151.196024 101.052872 
L 151.819429 101.052872 
L 152.131132 102.963212 
L 154.936458 103.016876 
L 155.24816 104.437237 
L 156.183269 104.437237 
L 156.494972 105.047425 
L 157.118377 105.211199 
L 157.43008 105.22724 
L 157.741783 106.340054 
L 162.105622 106.340054 
L 162.417325 106.859609 
L 163.352434 106.859609 
L 163.664137 108.238389 
L 166.781165 108.238389 
L 167.092868 108.651815 
L 169.274787 108.651815 
L 169.58649 109.114338 
L 170.521599 109.114338 
L 171.145004 109.439324 
L 172.703518 109.439324 
L 173.015221 112.983603 
L 179.56098 112.983603 
L 179.872683 113.26304 
L 202.003584 113.26304 
L 202.315286 113.383894 
L 205.744017 113.489228 
L 206.679126 113.496065 
L 206.990829 115.504615 
L 207.614234 115.504615 
L 207.925937 121.191097 
L 209.796154 121.212703 
L 210.107857 121.522149 
L 210.731263 121.745415 
L 211.666371 121.745415 
L 211.978074 121.945206 
L 212.289777 124.871681 
L 214.783399 124.982101 
L 215.095102 125.146878 
L 215.406805 126.110099 
L 216.965319 126.110099 
L 217.277022 126.694199 
L 220.39405 126.747086 
L 220.705753 127.680052 
L 223.199375 127.723839 
L 223.511078 128.329933 
L 224.446187 128.329933 
L 224.757889 128.952556 
L 226.939809 128.952556 
L 227.251512 129.887101 
L 229.745135 129.887101 
L 230.056837 130.008988 
L 230.36854 130.418332 
L 230.991946 130.418332 
L 231.303649 130.576598 
L 233.173866 130.576598 
L 233.485568 131.437761 
L 237.226002 131.548695 
L 237.537705 131.871387 
L 264.032445 131.871387 
L 264.344148 132.10227 
L 267.149473 132.10227 
L 267.461176 134.361235 
L 308.605948 134.440559 
L 308.917651 134.841131 
L 313.281491 134.841131 
L 313.904896 134.976129 
L 318.268736 135.04323 
L 318.892141 135.151992 
L 319.203844 135.151992 
L 319.515547 135.547482 
L 321.385764 135.554032 
L 321.697467 136.274617 
L 327.61982 136.274617 
L 327.931523 136.4368 
L 341.95815 136.4368 
L 342.269853 136.992202 
L 373.440135 136.994145 
L 373.581818 137.423733 
L 373.581818 137.423733 
" style="fill:none;stroke:#e8000b;stroke-linecap:round;stroke-width:1.2;"/>
   </g>
   <g id="patch_3">
    <path d="M 54 143.28 
L 54 34.56 
" style="fill:none;stroke:#000000;stroke-linecap:square;stroke-linejoin:miter;"/>
   </g>
   <g id="patch_4">
    <path d="M 388.8 143.28 
L 388.8 34.56 
" style="fill:none;stroke:#000000;stroke-linecap:square;stroke-linejoin:miter;"/>
   </g>
   <g id="patch_5">
    <path d="M 54 143.28 
L 388.8 143.28 
" style="fill:none;stroke:#000000;stroke-linecap:square;stroke-linejoin:miter;"/>
   </g>
   <g id="patch_6">
    <path d="M 54 34.56 
L 388.8 34.56 
" style="fill:none;stroke:#000000;stroke-linecap:square;stroke-linejoin:miter;"/>
   </g>
   <g id="text_7">
    <!-- Alpine N.1 -->
    <defs>
     <path d="M -0.140625 0 
L 27.34375 71.578125 
L 37.546875 71.578125 
L 66.84375 0 
L 56.0625 0 
L 47.703125 21.6875 
L 17.78125 21.6875 
L 9.90625 0 
z
M 20.515625 29.390625 
L 44.78125 29.390625 
L 37.3125 49.21875 
Q 33.890625 58.25 32.234375 64.0625 
Q 30.859375 57.171875 28.375 50.390625 
z
" id="ArialMT-65"/>
     <path d="M 6.390625 0 
L 6.390625 71.578125 
L 15.1875 71.578125 
L 15.1875 0 
z
" id="ArialMT-108"/>
     <path d="M 6.59375 -19.875 
L 6.59375 51.859375 
L 14.59375 51.859375 
L 14.59375 45.125 
Q 17.4375 49.078125 21 51.046875 
Q 24.5625 53.03125 29.640625 53.03125 
Q 36.28125 53.03125 41.359375 49.609375 
Q 46.4375 46.1875 49.015625 39.953125 
Q 51.609375 33.734375 51.609375 26.3125 
Q 51.609375 18.359375 48.75 11.984375 
Q 45.90625 5.609375 40.453125 2.21875 
Q 35.015625 -1.171875 29 -1.171875 
Q 24.609375 -1.171875 21.109375 0.6875 
Q 17.625 2.546875 15.375 5.375 
L 15.375 -19.875 
z
M 14.546875 25.640625 
Q 14.546875 15.625 18.59375 10.84375 
Q 22.65625 6.0625 28.421875 6.0625 
Q 34.28125 6.0625 38.453125 11.015625 
Q 42.625 15.96875 42.625 26.375 
Q 42.625 36.28125 38.546875 41.203125 
Q 34.46875 46.140625 28.8125 46.140625 
Q 23.1875 46.140625 18.859375 40.890625 
Q 14.546875 35.640625 14.546875 25.640625 
z
" id="ArialMT-112"/>
     <path id="ArialMT-32"/>
     <path d="M 7.625 0 
L 7.625 71.578125 
L 17.328125 71.578125 
L 54.9375 15.375 
L 54.9375 71.578125 
L 64.015625 71.578125 
L 64.015625 0 
L 54.296875 0 
L 16.703125 56.25 
L 16.703125 0 
z
" id="ArialMT-78"/>
     <path d="M 9.078125 0 
L 9.078125 10.015625 
L 19.09375 10.015625 
L 19.09375 0 
z
" id="ArialMT-46"/>
    </defs>
    <g transform="translate(199.25475 28.56)scale(0.096 -0.096)">
     <use xlink:href="#ArialMT-65"/>
     <use x="66.699219" xlink:href="#ArialMT-108"/>
     <use x="88.916016" xlink:href="#ArialMT-112"/>
     <use x="144.53125" xlink:href="#ArialMT-105"/>
     <use x="166.748047" xlink:href="#ArialMT-110"/>
     <use x="222.363281" xlink:href="#ArialMT-101"/>
     <use x="277.978516" xlink:href="#ArialMT-32"/>
     <use x="305.761719" xlink:href="#ArialMT-78"/>
     <use x="377.978516" xlink:href="#ArialMT-46"/>
     <use x="405.761719" xlink:href="#ArialMT-49"/>
    </g>
   </g>
   <g id="legend_1">
    <g id="patch_7">
     <path d="M 343.075125 68.49575 
L 384.64 68.49575 
Q 386.4 68.49575 386.4 66.73575 
L 386.4 42.72 
Q 386.4 40.96 384.64 40.96 
L 343.075125 40.96 
Q 341.315125 40.96 341.315125 42.72 
L 341.315125 66.73575 
Q 341.315125 68.49575 343.075125 68.49575 
z
" style="fill:#4c4c4c;opacity:0.5;stroke:#4c4c4c;stroke-linejoin:miter;stroke-width:0.8;"/>
    </g>
    <g id="patch_8">
     <path d="M 341.075125 66.49575 
L 382.64 66.49575 
Q 384.4 66.49575 384.4 64.73575 
L 384.4 40.72 
Q 384.4 38.96 382.64 38.96 
L 341.075125 38.96 
Q 339.315125 38.96 339.315125 40.72 
L 339.315125 64.73575 
Q 339.315125 66.49575 341.075125 66.49575 
z
" style="fill:#ffffff;stroke:#000000;stroke-linejoin:miter;stroke-width:0.8;"/>
    </g>
    <g id="line2d_23">
     <path d="M 342.835125 45.698875 
L 349.875125 45.698875 
" style="fill:none;stroke:#e8000b;stroke-linecap:round;stroke-width:1.2;"/>
    </g>
    <g id="line2d_24"/>
    <g id="text_8">
     <!-- PECS -->
     <defs>
      <path d="M 7.71875 0 
L 7.71875 71.578125 
L 34.71875 71.578125 
Q 41.84375 71.578125 45.609375 70.90625 
Q 50.875 70.015625 54.4375 67.546875 
Q 58.015625 65.09375 60.1875 60.640625 
Q 62.359375 56.203125 62.359375 50.875 
Q 62.359375 41.75 56.546875 35.421875 
Q 50.734375 29.109375 35.546875 29.109375 
L 17.1875 29.109375 
L 17.1875 0 
z
M 17.1875 37.546875 
L 35.6875 37.546875 
Q 44.875 37.546875 48.734375 40.96875 
Q 52.59375 44.390625 52.59375 50.59375 
Q 52.59375 55.078125 50.3125 58.265625 
Q 48.046875 61.46875 44.34375 62.5 
Q 41.9375 63.140625 35.5 63.140625 
L 17.1875 63.140625 
z
" id="ArialMT-80"/>
      <path d="M 7.90625 0 
L 7.90625 71.578125 
L 59.671875 71.578125 
L 59.671875 63.140625 
L 17.390625 63.140625 
L 17.390625 41.21875 
L 56.984375 41.21875 
L 56.984375 32.8125 
L 17.390625 32.8125 
L 17.390625 8.453125 
L 61.328125 8.453125 
L 61.328125 0 
z
" id="ArialMT-69"/>
      <path d="M 58.796875 25.09375 
L 68.265625 22.703125 
Q 65.28125 11.03125 57.546875 4.90625 
Q 49.8125 -1.21875 38.625 -1.21875 
Q 27.046875 -1.21875 19.796875 3.484375 
Q 12.546875 8.203125 8.765625 17.140625 
Q 4.984375 26.078125 4.984375 36.328125 
Q 4.984375 47.515625 9.25 55.828125 
Q 13.53125 64.15625 21.40625 68.46875 
Q 29.296875 72.796875 38.765625 72.796875 
Q 49.515625 72.796875 56.828125 67.328125 
Q 64.15625 61.859375 67.046875 51.953125 
L 57.71875 49.75 
Q 55.21875 57.5625 50.484375 61.125 
Q 45.75 64.703125 38.578125 64.703125 
Q 30.328125 64.703125 24.78125 60.734375 
Q 19.234375 56.78125 16.984375 50.109375 
Q 14.75 43.453125 14.75 36.375 
Q 14.75 27.25 17.40625 20.4375 
Q 20.0625 13.625 25.671875 10.25 
Q 31.296875 6.890625 37.84375 6.890625 
Q 45.796875 6.890625 51.3125 11.46875 
Q 56.84375 16.0625 58.796875 25.09375 
z
" id="ArialMT-67"/>
      <path d="M 4.5 23 
L 13.421875 23.78125 
Q 14.0625 18.40625 16.375 14.96875 
Q 18.703125 11.53125 23.578125 9.40625 
Q 28.46875 7.28125 34.578125 7.28125 
Q 39.984375 7.28125 44.140625 8.890625 
Q 48.296875 10.5 50.3125 13.296875 
Q 52.34375 16.109375 52.34375 19.4375 
Q 52.34375 22.796875 50.390625 25.3125 
Q 48.4375 27.828125 43.953125 29.546875 
Q 41.0625 30.671875 31.203125 33.03125 
Q 21.34375 35.40625 17.390625 37.5 
Q 12.25 40.1875 9.734375 44.15625 
Q 7.234375 48.140625 7.234375 53.078125 
Q 7.234375 58.5 10.296875 63.203125 
Q 13.375 67.921875 19.28125 70.359375 
Q 25.203125 72.796875 32.421875 72.796875 
Q 40.375 72.796875 46.453125 70.234375 
Q 52.546875 67.671875 55.8125 62.6875 
Q 59.078125 57.71875 59.328125 51.421875 
L 50.25 50.734375 
Q 49.515625 57.515625 45.28125 60.984375 
Q 41.0625 64.453125 32.8125 64.453125 
Q 24.21875 64.453125 20.28125 61.296875 
Q 16.359375 58.15625 16.359375 53.71875 
Q 16.359375 49.859375 19.140625 47.359375 
Q 21.875 44.875 33.421875 42.265625 
Q 44.96875 39.65625 49.265625 37.703125 
Q 55.515625 34.8125 58.484375 30.390625 
Q 61.46875 25.984375 61.46875 20.21875 
Q 61.46875 14.5 58.203125 9.4375 
Q 54.9375 4.390625 48.796875 1.578125 
Q 42.671875 -1.21875 35.015625 -1.21875 
Q 25.296875 -1.21875 18.71875 1.609375 
Q 12.15625 4.4375 8.421875 10.125 
Q 4.6875 15.828125 4.5 23 
z
" id="ArialMT-83"/>
     </defs>
     <g transform="translate(356.915125 48.778875)scale(0.088 -0.088)">
      <use xlink:href="#ArialMT-80"/>
      <use x="66.699219" xlink:href="#ArialMT-69"/>
      <use x="133.398438" xlink:href="#ArialMT-67"/>
      <use x="205.615234" xlink:href="#ArialMT-83"/>
     </g>
    </g>
    <g id="line2d_25">
     <path d="M 342.835125 58.14675 
L 349.875125 58.14675 
" style="fill:none;stroke:#1ac938;stroke-linecap:round;stroke-width:1.2;"/>
    </g>
    <g id="line2d_26"/>
    <g id="text_9">
     <!-- JACS -->
     <defs>
      <path d="M 2.875 20.3125 
L 11.421875 21.484375 
Q 11.765625 13.28125 14.5 10.25 
Q 17.234375 7.234375 22.078125 7.234375 
Q 25.640625 7.234375 28.21875 8.859375 
Q 30.8125 10.5 31.78125 13.296875 
Q 32.765625 16.109375 32.765625 22.265625 
L 32.765625 71.578125 
L 42.234375 71.578125 
L 42.234375 22.796875 
Q 42.234375 13.8125 40.0625 8.875 
Q 37.890625 3.953125 33.171875 1.359375 
Q 28.46875 -1.21875 22.125 -1.21875 
Q 12.703125 -1.21875 7.6875 4.203125 
Q 2.6875 9.625 2.875 20.3125 
z
" id="ArialMT-74"/>
     </defs>
     <g transform="translate(356.915125 61.22675)scale(0.088 -0.088)">
      <use xlink:href="#ArialMT-74"/>
      <use x="50" xlink:href="#ArialMT-65"/>
      <use x="116.699219" xlink:href="#ArialMT-67"/>
      <use x="188.916016" xlink:href="#ArialMT-83"/>
     </g>
    </g>
   </g>
  </g>
  <g id="axes_2">
   <g id="patch_9">
    <path d="M 54 252 
L 388.8 252 
L 388.8 143.28 
L 54 143.28 
z
" style="fill:#ffffff;"/>
   </g>
   <g id="line2d_27">
    <path clip-path="url(#p66352101c4)" d="M 69.218182 184.383317 
L 69.529885 204.910128 
L 69.841587 186.160408 
L 70.15329 208.277363 
L 70.464993 207.041762 
L 70.776696 203.168488 
L 71.088399 215.331424 
L 71.400102 212.517809 
L 71.711804 227.211195 
L 72.023507 223.919673 
L 72.33521 231.600785 
L 72.646913 233.635841 
L 72.958616 234.62725 
L 73.270318 231.664156 
L 73.582021 231.436096 
L 73.893724 240.341175 
L 74.205427 237.307297 
L 74.51713 237.343522 
L 74.828833 244.209257 
L 75.140535 241.67505 
L 75.452238 235.757064 
L 75.763941 244.366279 
L 76.075644 238.510944 
L 76.387347 235.888496 
L 76.69905 240.90503 
L 77.010752 242.855031 
L 77.322455 240.28173 
L 77.634158 238.767019 
L 77.945861 245.26953 
L 78.257564 243.684182 
L 78.569266 243.423395 
L 78.880969 238.78919 
L 79.192672 244.662012 
L 79.504375 245.805296 
L 79.816078 238.283519 
L 80.127781 246.926763 
L 80.439483 244.086639 
L 80.751186 242.852167 
L 81.062889 228.025351 
L 81.686295 244.490305 
L 81.997997 238.635275 
L 82.3097 241.264897 
L 82.621403 245.420314 
L 82.933106 240.974541 
L 83.244809 242.354151 
L 83.868214 238.82879 
L 84.179917 237.688959 
L 84.49162 243.213546 
L 84.803323 241.446679 
L 85.115026 230.258625 
L 85.426729 244.399851 
L 85.738431 241.77873 
L 86.050134 235.224253 
L 86.361837 239.621113 
L 86.67354 235.570118 
L 86.985243 246.862893 
L 87.296945 240.330619 
L 87.608648 243.073138 
L 87.920351 228.44793 
L 88.232054 234.735206 
L 88.543757 237.332962 
L 88.85546 238.909336 
L 89.167162 246.341265 
L 89.478865 242.724683 
L 89.790568 232.183529 
L 90.102271 241.658358 
L 90.413974 237.002785 
L 90.725676 242.874909 
L 91.037379 243.041591 
L 91.349082 242.981799 
L 91.660785 245.024397 
L 91.972488 225.190922 
L 92.284191 246.085327 
L 92.595893 236.986623 
L 92.907596 244.377628 
L 93.219299 243.406967 
L 93.531002 233.963031 
L 93.842705 241.861525 
L 94.154407 237.57232 
L 94.46611 237.868102 
L 95.089516 236.412589 
L 95.401219 244.229425 
L 95.712922 238.522056 
L 96.024624 229.077351 
L 96.336327 240.892702 
L 96.959733 246.251901 
L 97.271436 245.813252 
L 97.583139 244.367822 
L 97.894841 246.338851 
L 98.206544 241.495869 
L 98.518247 241.872777 
L 98.82995 234.05212 
L 99.141653 238.137402 
L 99.453355 238.207733 
L 99.765058 239.404328 
L 100.076761 244.530881 
L 100.388464 234.663343 
L 100.700167 244.304504 
L 101.01187 245.397563 
L 101.323572 242.745928 
L 101.635275 238.63017 
L 101.946978 231.443649 
L 102.258681 241.918041 
L 102.570384 242.977279 
L 102.882086 245.552396 
L 103.193789 243.800702 
L 103.505492 243.641335 
L 103.817195 245.545088 
L 104.128898 241.188132 
L 104.440601 240.386388 
L 104.752303 245.082275 
L 105.375709 245.265759 
L 105.687412 243.3852 
L 105.999115 239.316083 
L 106.310818 243.078247 
L 106.62252 240.424144 
L 106.934223 239.212276 
L 107.245926 240.825 
L 107.557629 240.271919 
L 107.869332 239.230879 
L 108.181034 242.593 
L 108.80444 234.859592 
L 109.116143 245.307022 
L 109.427846 245.619799 
L 110.051251 226.123749 
L 110.362954 247.058182 
L 110.674657 236.819402 
L 110.98636 241.824993 
L 111.609765 234.450386 
L 111.921468 238.692633 
L 112.233171 233.466564 
L 112.544874 237.391612 
L 112.856577 236.362103 
L 113.16828 237.615528 
L 113.479982 223.633257 
L 113.791685 229.578146 
L 114.103388 226.792148 
L 114.415091 236.416048 
L 114.726794 234.586411 
L 115.038497 237.332213 
L 115.350199 237.573472 
L 115.661902 237.507814 
L 115.973605 230.759088 
L 116.285308 239.582797 
L 116.597011 242.346376 
L 116.908713 238.984638 
L 117.220416 233.438617 
L 117.532119 237.787665 
L 117.843822 240.262014 
L 118.155525 239.16331 
L 118.467228 243.315724 
L 118.77893 241.61289 
L 119.090633 246.915118 
L 119.402336 241.448409 
L 119.714039 244.265633 
L 120.025742 245.533326 
L 120.337444 232.09144 
L 120.649147 234.257949 
L 120.96085 232.324266 
L 121.272553 233.315367 
L 121.584256 221.779026 
L 121.895959 241.414632 
L 122.207661 235.955611 
L 122.519364 243.053094 
L 122.831067 244.175848 
L 123.454473 234.711035 
L 123.766175 241.568667 
L 124.077878 238.774881 
L 124.389581 240.458411 
L 124.701284 240.926702 
L 125.012987 233.650667 
L 125.32469 241.929389 
L 125.636392 240.167997 
L 125.948095 239.773964 
L 126.259798 243.002744 
L 126.571501 242.399324 
L 126.883204 243.771353 
L 127.194907 231.708166 
L 127.506609 241.881663 
L 127.818312 238.352188 
L 128.130015 233.16478 
L 128.441718 239.514788 
L 128.753421 241.259331 
L 129.065123 240.050235 
L 129.376826 233.771086 
L 129.688529 238.986177 
L 130.000232 230.042689 
L 130.311935 235.412403 
L 130.623638 228.102644 
L 130.93534 226.838039 
L 131.247043 239.291109 
L 131.558746 224.86853 
L 131.870449 233.576339 
L 132.182152 237.910476 
L 132.493854 238.754391 
L 132.805557 232.928901 
L 133.11726 231.933167 
L 133.428963 239.620803 
L 133.740666 235.527484 
L 134.052369 233.899625 
L 134.364071 237.898915 
L 134.675774 235.490806 
L 134.987477 225.649802 
L 135.29918 234.37849 
L 135.610883 230.510655 
L 135.922586 236.848298 
L 136.234288 233.815734 
L 136.545991 241.291822 
L 136.857694 234.106283 
L 137.169397 234.250777 
L 137.4811 235.01578 
L 137.792802 227.434657 
L 138.104505 234.166554 
L 138.416208 229.195758 
L 139.039614 239.32892 
L 139.351317 223.680934 
L 139.663019 235.071922 
L 139.974722 240.328964 
L 140.286425 229.835524 
L 140.598128 243.081947 
L 140.909831 243.861589 
L 141.533236 230.261451 
L 141.844939 233.680992 
L 142.156642 242.071235 
L 142.780048 238.056167 
L 143.09175 242.128372 
L 143.403453 241.608912 
L 143.715156 236.231827 
L 144.026859 228.064828 
L 144.338562 240.928952 
L 144.650264 241.123751 
L 144.961967 243.397746 
L 145.27367 237.798857 
L 145.585373 229.547047 
L 145.897076 227.202499 
L 146.208779 237.049172 
L 146.520481 234.070483 
L 146.832184 238.442595 
L 147.143887 238.109576 
L 147.45559 235.550916 
L 147.767293 236.133105 
L 148.078996 227.383188 
L 148.390698 223.596688 
L 148.702401 230.50828 
L 149.014104 214.982786 
L 149.325807 229.098252 
L 149.63751 225.967947 
L 149.949212 232.818579 
L 150.260915 227.663212 
L 150.572618 229.319382 
L 150.884321 232.980678 
L 151.196024 228.237961 
L 151.507727 232.226856 
L 151.819429 234.330973 
L 152.131132 225.46602 
L 152.442835 233.264623 
L 152.754538 237.841655 
L 153.066241 236.596273 
L 153.377943 240.049572 
L 153.689646 235.509575 
L 154.001349 239.973127 
L 154.313052 239.142006 
L 154.624755 244.035351 
L 154.936458 240.951959 
L 155.24816 241.679683 
L 155.559863 242.837199 
L 155.871566 239.853046 
L 156.183269 239.221367 
L 156.806675 224.65576 
L 157.118377 234.596576 
L 157.43008 235.560709 
L 157.741783 224.578785 
L 158.053486 240.594264 
L 158.365189 237.97056 
L 158.676891 233.842288 
L 158.988594 238.224765 
L 159.300297 235.599169 
L 159.923703 226.868327 
L 160.235406 231.60099 
L 160.547108 233.930904 
L 160.858811 230.330851 
L 161.170514 229.153699 
L 161.482217 228.465403 
L 161.79392 236.776819 
L 162.105622 230.49754 
L 162.417325 229.4066 
L 163.040731 232.730654 
L 163.352434 230.378114 
L 163.664137 239.404856 
L 163.975839 238.198143 
L 164.599245 234.586799 
L 164.910948 239.208927 
L 165.222651 231.39117 
L 165.534353 226.610994 
L 165.846056 229.571111 
L 166.157759 227.874943 
L 166.469462 220.703254 
L 167.092868 237.669863 
L 168.027976 226.212288 
L 168.339679 237.327885 
L 168.651382 236.496953 
L 168.963085 236.271409 
L 169.274787 233.15341 
L 169.58649 234.407357 
L 169.898193 237.949901 
L 170.209896 231.822053 
L 170.521599 234.822252 
L 171.145004 222.064824 
L 171.456707 228.244798 
L 171.76841 229.629615 
L 172.080113 232.146597 
L 172.391816 237.916618 
L 172.703518 234.818813 
L 173.326924 237.597958 
L 173.638627 234.946553 
L 173.95033 229.307583 
L 174.262032 240.047695 
L 174.885438 225.800459 
L 175.197141 224.142377 
L 175.508844 240.494834 
L 175.820547 225.982701 
L 176.132249 237.381674 
L 176.443952 228.481792 
L 176.755655 236.221727 
L 177.379061 238.687505 
L 177.690764 231.572885 
L 178.002466 237.431959 
L 178.314169 219.401464 
L 178.625872 243.84841 
L 178.937575 241.098517 
L 179.249278 241.679657 
L 179.872683 235.441805 
L 180.184386 241.501389 
L 180.496089 238.701321 
L 180.807792 229.13772 
L 181.119495 240.314195 
L 181.431197 239.52024 
L 181.7429 237.719417 
L 182.366306 241.562517 
L 182.678009 234.568074 
L 182.989711 236.946939 
L 183.301414 236.210993 
L 183.613117 234.720981 
L 184.236523 226.559059 
L 184.548226 223.285221 
L 184.859928 235.904211 
L 185.171631 234.791825 
L 185.483334 237.140702 
L 186.10674 227.852348 
L 186.418443 225.66888 
L 187.353551 235.236626 
L 187.665254 227.327961 
L 187.976957 228.798587 
L 188.288659 233.030639 
L 188.600362 232.17211 
L 188.912065 228.457434 
L 189.223768 233.970013 
L 189.535471 227.313918 
L 189.847174 232.037723 
L 190.158876 229.169361 
L 190.470579 235.852698 
L 190.782282 237.906846 
L 191.093985 230.280847 
L 191.405688 218.525953 
L 191.71739 225.214456 
L 192.029093 228.814629 
L 192.340796 228.950623 
L 192.652499 232.160021 
L 192.964202 232.377744 
L 193.275905 230.312342 
L 193.587607 233.974568 
L 193.89931 234.378216 
L 194.211013 228.851967 
L 194.522716 221.067889 
L 194.834419 230.929792 
L 195.146121 229.307583 
L 195.457824 240.159643 
L 195.769527 236.758822 
L 196.08123 236.13078 
L 196.392933 237.941668 
L 196.704636 223.788748 
L 197.016338 240.610234 
L 197.328041 236.684084 
L 197.639744 243.306848 
L 197.951447 245.724469 
L 198.26315 240.297492 
L 198.574853 226.323748 
L 198.886555 244.041561 
L 199.198258 229.731349 
L 199.509961 239.134657 
L 199.821664 238.616793 
L 200.133367 224.365606 
L 200.445069 232.880529 
L 200.756772 235.452248 
L 201.068475 232.580377 
L 201.380178 237.61517 
L 201.691881 239.941887 
L 202.003584 237.905239 
L 202.315286 237.463941 
L 202.626989 230.88825 
L 202.938692 237.623138 
L 203.250395 235.082632 
L 203.562098 234.940185 
L 203.8738 239.980891 
L 204.185503 231.542213 
L 204.497206 229.183978 
L 204.808909 232.775086 
L 205.120612 226.259069 
L 205.432315 233.805291 
L 205.744017 230.860775 
L 206.05572 234.292439 
L 206.367423 211.715479 
L 206.679126 224.995297 
L 206.990829 228.207877 
L 207.302532 224.379606 
L 207.614234 222.593261 
L 207.925937 218.525932 
L 208.23764 225.068578 
L 208.549343 208.643409 
L 208.861046 216.102187 
L 209.172748 216.237973 
L 209.484451 231.371777 
L 209.796154 216.707473 
L 210.107857 229.096208 
L 210.41956 218.526211 
L 210.731263 233.154145 
L 211.354668 217.489484 
L 211.666371 218.501163 
L 211.978074 217.288876 
L 212.289777 228.306869 
L 212.601479 212.796723 
L 212.913182 220.662193 
L 213.224885 220.808602 
L 213.536588 219.118495 
L 213.848291 229.674273 
L 214.159994 233.159765 
L 214.783399 223.523233 
L 215.095102 234.373578 
L 215.406805 230.764711 
L 215.718508 228.795357 
L 216.03021 232.645 
L 216.653616 235.755925 
L 216.965319 230.691926 
L 217.277022 236.348054 
L 217.588725 236.47575 
L 217.900427 232.776636 
L 218.21213 239.656845 
L 218.523833 238.942857 
L 218.835536 227.679965 
L 219.147239 233.625734 
L 219.770644 241.342619 
L 220.082347 237.638399 
L 220.39405 240.384486 
L 221.017456 223.772469 
L 221.329158 225.795587 
L 221.640861 231.746579 
L 221.952564 223.927238 
L 222.264267 223.843598 
L 222.57597 229.055871 
L 222.887673 221.714245 
L 223.199375 221.674445 
L 223.511078 215.072457 
L 223.822781 221.806173 
L 224.134484 224.37342 
L 224.446187 214.301298 
L 224.757889 226.094223 
L 225.069592 227.883903 
L 225.381295 218.665727 
L 225.692998 226.641651 
L 226.004701 224.954852 
L 226.316404 234.399423 
L 226.628106 233.928462 
L 226.939809 230.848575 
L 227.251512 233.453154 
L 227.563215 225.608087 
L 227.874918 230.987113 
L 228.186621 224.201458 
L 228.498323 225.626196 
L 228.810026 223.491054 
L 229.121729 229.789062 
L 229.433432 217.123571 
L 229.745135 228.756319 
L 230.056837 232.154471 
L 230.36854 225.928586 
L 230.680243 230.605603 
L 230.991946 228.219313 
L 231.303649 227.840396 
L 231.615352 230.82035 
L 231.927054 230.921342 
L 232.238757 230.024197 
L 232.55046 223.997111 
L 232.862163 237.382781 
L 233.173866 234.205224 
L 233.797271 222.784728 
L 234.108974 227.646833 
L 234.420677 227.707179 
L 234.73238 235.804171 
L 235.044083 225.120232 
L 235.355785 225.627979 
L 235.667488 232.718912 
L 235.979191 221.323943 
L 236.602597 224.147473 
L 236.914299 221.309946 
L 237.226002 222.245173 
L 237.537705 220.838118 
L 237.849408 206.691009 
L 238.161111 225.835609 
L 238.472814 210.299053 
L 238.784516 218.140699 
L 239.096219 213.472275 
L 239.407922 218.95302 
L 239.719625 209.930304 
L 240.343031 214.609608 
L 240.654733 227.079876 
L 240.966436 218.941066 
L 241.278139 214.201326 
L 241.589842 222.961704 
L 241.901545 220.977086 
L 242.213247 227.212951 
L 242.52495 229.136083 
L 242.836653 222.680886 
L 243.148356 219.619803 
L 243.460059 221.344038 
L 243.771762 227.918676 
L 244.083464 230.324822 
L 244.395167 221.682141 
L 244.70687 231.575839 
L 245.018573 224.360564 
L 245.330276 223.240375 
L 245.641978 227.845691 
L 245.953681 239.567616 
L 246.577087 232.129494 
L 246.88879 233.068029 
L 247.200493 220.85925 
L 247.512195 221.609966 
L 248.135601 232.128201 
L 248.447304 226.962142 
L 248.759007 219.844692 
L 249.07071 221.403052 
L 249.382412 221.734904 
L 249.694115 218.239091 
L 250.005818 212.444039 
L 250.317521 224.89062 
L 250.629224 225.454709 
L 250.940926 224.597318 
L 251.252629 220.190635 
L 251.564332 226.249414 
L 251.876035 211.411528 
L 252.187738 224.420222 
L 252.499441 214.571177 
L 253.122846 219.69857 
L 253.434549 218.731715 
L 253.746252 214.222985 
L 254.057955 215.539825 
L 254.369657 219.248219 
L 254.68136 207.670072 
L 255.304766 223.999408 
L 255.616469 224.300801 
L 255.928172 211.993224 
L 256.239874 213.808948 
L 256.551577 223.833026 
L 256.86328 230.242927 
L 257.174983 215.086842 
L 257.486686 226.31448 
L 257.798389 216.167638 
L 258.110091 214.059317 
L 258.421794 223.29566 
L 258.733497 215.549265 
L 259.0452 221.944249 
L 259.356903 222.824679 
L 259.668605 225.538452 
L 259.980308 222.392979 
L 260.292011 231.093924 
L 260.603714 215.56206 
L 260.915417 217.263465 
L 261.22712 235.240054 
L 261.538822 232.687412 
L 261.850525 221.126172 
L 262.162228 227.820777 
L 262.473931 218.517943 
L 262.785634 227.231784 
L 263.097336 224.895411 
L 263.409039 223.447725 
L 263.720742 227.837566 
L 264.032445 227.666461 
L 264.344148 226.748635 
L 264.655851 229.27745 
L 264.967553 219.855322 
L 265.279256 219.421565 
L 265.590959 213.26079 
L 265.902662 217.884093 
L 266.214365 231.265871 
L 266.526067 216.284501 
L 266.83777 227.476734 
L 267.149473 220.861886 
L 267.461176 230.063732 
L 268.084582 217.322397 
L 268.707987 224.669747 
L 269.01969 217.394188 
L 269.331393 224.478649 
L 269.643096 203.536546 
L 269.954799 225.030782 
L 270.266501 218.061819 
L 270.578204 217.344481 
L 270.889907 215.665854 
L 271.20161 229.526822 
L 271.513313 228.536624 
L 272.136718 221.658205 
L 272.448421 222.03271 
L 272.760124 217.095516 
L 273.071827 223.469234 
L 273.38353 222.12007 
L 273.695232 223.665347 
L 274.006935 225.886874 
L 274.318638 220.274444 
L 274.630341 221.666839 
L 274.942044 230.375781 
L 275.253746 223.160786 
L 275.877152 225.909988 
L 276.188855 223.872923 
L 276.500558 219.982974 
L 276.812261 220.634147 
L 277.123963 207.21792 
L 277.435666 221.40188 
L 277.747369 209.578952 
L 278.059072 221.191779 
L 278.370775 214.127307 
L 278.682478 219.682443 
L 278.99418 217.050197 
L 279.305883 213.460377 
L 279.617586 219.791734 
L 279.929289 217.883684 
L 280.240992 219.74136 
L 280.552694 223.70876 
L 280.864397 217.126282 
L 281.1761 215.445344 
L 281.487803 224.658744 
L 281.799506 212.725449 
L 282.111209 219.569412 
L 282.422911 219.484208 
L 282.734614 227.945788 
L 283.046317 227.164009 
L 283.35802 217.677654 
L 283.669723 225.745979 
L 283.981425 225.111744 
L 284.293128 224.217532 
L 284.604831 224.740246 
L 284.916534 215.162869 
L 285.228237 230.23378 
L 285.53994 224.108874 
L 285.851642 230.512798 
L 286.163345 217.288846 
L 286.475048 224.934902 
L 286.786751 222.787455 
L 287.098454 223.542279 
L 287.410156 222.076485 
L 287.721859 227.74662 
L 288.033562 227.983114 
L 288.345265 226.721491 
L 288.656968 230.547044 
L 288.968671 224.81956 
L 289.280373 230.435446 
L 289.592076 224.356343 
L 289.903779 232.403036 
L 290.215482 231.184835 
L 290.527185 224.097338 
L 291.15059 237.12636 
L 291.462293 225.215827 
L 291.773996 224.738527 
L 292.085699 222.058355 
L 292.397402 226.317313 
L 293.020807 216.531534 
L 293.33251 220.711645 
L 293.644213 210.908343 
L 293.955916 221.416661 
L 294.267619 212.026935 
L 294.579321 208.695425 
L 294.891024 213.787677 
L 295.202727 208.56129 
L 295.51443 211.203565 
L 296.137835 208.560983 
L 296.449538 214.196431 
L 296.761241 213.484532 
L 297.072944 217.717111 
L 297.384647 217.323088 
L 297.69635 219.177388 
L 298.008052 215.143414 
L 298.319755 206.286074 
L 298.631458 221.891342 
L 298.943161 217.41955 
L 299.254864 223.173516 
L 299.566567 211.097773 
L 299.878269 224.430257 
L 300.189972 224.44888 
L 300.501675 219.881637 
L 300.813378 227.642346 
L 301.436783 223.806743 
L 301.748486 227.125208 
L 302.371892 217.77682 
L 302.683595 218.281029 
L 302.995298 223.610921 
L 303.307 226.569667 
L 303.618703 214.199224 
L 303.930406 223.52486 
L 304.242109 220.872125 
L 304.553812 233.443717 
L 304.865514 218.734753 
L 305.177217 224.890046 
L 305.48892 216.766327 
L 305.800623 234.916552 
L 306.112326 222.08067 
L 306.424029 228.823878 
L 306.735731 220.734598 
L 307.047434 204.819969 
L 307.359137 228.678692 
L 307.67084 219.223969 
L 308.294245 226.428411 
L 308.605948 218.917198 
L 308.917651 229.315757 
L 309.229354 227.440739 
L 309.541057 218.405081 
L 309.85276 224.897754 
L 310.164462 223.620637 
L 310.476165 223.920338 
L 310.787868 222.641145 
L 311.099571 214.12927 
L 311.411274 223.953515 
L 311.722977 217.903225 
L 312.034679 221.073043 
L 312.346382 219.205203 
L 312.658085 221.953002 
L 312.969788 215.526883 
L 313.281491 214.977934 
L 313.593193 212.466255 
L 313.904896 211.778216 
L 314.216599 216.230827 
L 314.528302 215.901574 
L 314.840005 217.83875 
L 315.151708 227.303093 
L 315.46341 218.478853 
L 315.775113 216.721299 
L 316.086816 219.565119 
L 316.398519 218.648681 
L 316.710222 220.630243 
L 317.021924 227.153012 
L 317.333627 226.670147 
L 317.64533 216.683591 
L 317.957033 223.085025 
L 318.268736 224.906119 
L 318.580439 214.204466 
L 318.892141 208.952417 
L 319.203844 201.209922 
L 319.458874 210.139028 
L 319.458874 210.139028 
" style="fill:none;stroke:#1ac938;stroke-linecap:round;stroke-width:1.2;"/>
   </g>
   <g id="matplotlib.axis_3">
    <g id="xtick_6">
     <g id="line2d_28">
      <g>
       <use style="stroke:#000000;" x="68.623113" xlink:href="#m8bf44c3a68" y="252"/>
      </g>
     </g>
     <g id="line2d_29">
      <g>
       <use style="stroke:#000000;" x="68.623113" xlink:href="#m22eb578cff" y="143.28"/>
      </g>
     </g>
     <g id="text_10">
      <!-- $\mathdefault{0.0}$ -->
      <g transform="translate(62.463113 261.798875)scale(0.088 -0.088)">
       <use transform="translate(0 0.125)" xlink:href="#ArialMT-48"/>
       <use transform="translate(55.615234 0.125)" xlink:href="#ArialMT-46"/>
       <use transform="translate(83.398438 0.125)" xlink:href="#ArialMT-48"/>
      </g>
     </g>
    </g>
    <g id="xtick_7">
     <g id="line2d_30">
      <g>
       <use style="stroke:#000000;" x="139.464663" xlink:href="#m8bf44c3a68" y="252"/>
      </g>
     </g>
     <g id="line2d_31">
      <g>
       <use style="stroke:#000000;" x="139.464663" xlink:href="#m22eb578cff" y="143.28"/>
      </g>
     </g>
     <g id="text_11">
      <!-- $\mathdefault{0.5}$ -->
      <defs>
       <path d="M 4.15625 18.75 
L 13.375 19.53125 
Q 14.40625 12.796875 18.140625 9.390625 
Q 21.875 6 27.15625 6 
Q 33.5 6 37.890625 10.78125 
Q 42.28125 15.578125 42.28125 23.484375 
Q 42.28125 31 38.0625 35.34375 
Q 33.84375 39.703125 27 39.703125 
Q 22.75 39.703125 19.328125 37.765625 
Q 15.921875 35.84375 13.96875 32.765625 
L 5.71875 33.84375 
L 12.640625 70.609375 
L 48.25 70.609375 
L 48.25 62.203125 
L 19.671875 62.203125 
L 15.828125 42.96875 
Q 22.265625 47.46875 29.34375 47.46875 
Q 38.71875 47.46875 45.15625 40.96875 
Q 51.609375 34.46875 51.609375 24.265625 
Q 51.609375 14.546875 45.953125 7.46875 
Q 39.0625 -1.21875 27.15625 -1.21875 
Q 17.390625 -1.21875 11.203125 4.25 
Q 5.03125 9.71875 4.15625 18.75 
z
" id="ArialMT-53"/>
      </defs>
      <g transform="translate(133.304663 261.798875)scale(0.088 -0.088)">
       <use transform="translate(0 0.125)" xlink:href="#ArialMT-48"/>
       <use transform="translate(55.615234 0.125)" xlink:href="#ArialMT-46"/>
       <use transform="translate(83.398438 0.125)" xlink:href="#ArialMT-53"/>
      </g>
     </g>
    </g>
    <g id="xtick_8">
     <g id="line2d_32">
      <g>
       <use style="stroke:#000000;" x="210.306213" xlink:href="#m8bf44c3a68" y="252"/>
      </g>
     </g>
     <g id="line2d_33">
      <g>
       <use style="stroke:#000000;" x="210.306213" xlink:href="#m22eb578cff" y="143.28"/>
      </g>
     </g>
     <g id="text_12">
      <!-- $\mathdefault{1.0}$ -->
      <g transform="translate(204.146213 261.798875)scale(0.088 -0.088)">
       <use transform="translate(0 0.125)" xlink:href="#ArialMT-49"/>
       <use transform="translate(55.615234 0.125)" xlink:href="#ArialMT-46"/>
       <use transform="translate(83.398438 0.125)" xlink:href="#ArialMT-48"/>
      </g>
     </g>
    </g>
    <g id="xtick_9">
     <g id="line2d_34">
      <g>
       <use style="stroke:#000000;" x="281.147763" xlink:href="#m8bf44c3a68" y="252"/>
      </g>
     </g>
     <g id="line2d_35">
      <g>
       <use style="stroke:#000000;" x="281.147763" xlink:href="#m22eb578cff" y="143.28"/>
      </g>
     </g>
     <g id="text_13">
      <!-- $\mathdefault{1.5}$ -->
      <g transform="translate(274.987763 261.798875)scale(0.088 -0.088)">
       <use transform="translate(0 0.125)" xlink:href="#ArialMT-49"/>
       <use transform="translate(55.615234 0.125)" xlink:href="#ArialMT-46"/>
       <use transform="translate(83.398438 0.125)" xlink:href="#ArialMT-53"/>
      </g>
     </g>
    </g>
    <g id="xtick_10">
     <g id="line2d_36">
      <g>
       <use style="stroke:#000000;" x="351.989314" xlink:href="#m8bf44c3a68" y="252"/>
      </g>
     </g>
     <g id="line2d_37">
      <g>
       <use style="stroke:#000000;" x="351.989314" xlink:href="#m22eb578cff" y="143.28"/>
      </g>
     </g>
     <g id="text_14">
      <!-- $\mathdefault{2.0}$ -->
      <g transform="translate(345.829314 261.798875)scale(0.088 -0.088)">
       <use transform="translate(0 0.125)" xlink:href="#ArialMT-50"/>
       <use transform="translate(55.615234 0.125)" xlink:href="#ArialMT-46"/>
       <use transform="translate(83.398438 0.125)" xlink:href="#ArialMT-48"/>
      </g>
     </g>
    </g>
    <g id="text_15">
     <!-- evaluations -->
     <defs>
      <path d="M 21 0 
L 1.265625 51.859375 
L 10.546875 51.859375 
L 21.6875 20.796875 
Q 23.484375 15.765625 25 10.359375 
Q 26.171875 14.453125 28.265625 20.21875 
L 39.796875 51.859375 
L 48.828125 51.859375 
L 29.203125 0 
z
" id="ArialMT-118"/>
      <path d="M 40.4375 6.390625 
Q 35.546875 2.25 31.03125 0.53125 
Q 26.515625 -1.171875 21.34375 -1.171875 
Q 12.796875 -1.171875 8.203125 3 
Q 3.609375 7.171875 3.609375 13.671875 
Q 3.609375 17.484375 5.34375 20.625 
Q 7.078125 23.78125 9.890625 25.6875 
Q 12.703125 27.59375 16.21875 28.5625 
Q 18.796875 29.25 24.03125 29.890625 
Q 34.671875 31.15625 39.703125 32.90625 
Q 39.75 34.71875 39.75 35.203125 
Q 39.75 40.578125 37.25 42.78125 
Q 33.890625 45.75 27.25 45.75 
Q 21.046875 45.75 18.09375 43.578125 
Q 15.140625 41.40625 13.71875 35.890625 
L 5.125 37.0625 
Q 6.296875 42.578125 8.984375 45.96875 
Q 11.671875 49.359375 16.75 51.1875 
Q 21.828125 53.03125 28.515625 53.03125 
Q 35.15625 53.03125 39.296875 51.46875 
Q 43.453125 49.90625 45.40625 47.53125 
Q 47.359375 45.171875 48.140625 41.546875 
Q 48.578125 39.3125 48.578125 33.453125 
L 48.578125 21.734375 
Q 48.578125 9.46875 49.140625 6.21875 
Q 49.703125 2.984375 51.375 0 
L 42.1875 0 
Q 40.828125 2.734375 40.4375 6.390625 
z
M 39.703125 26.03125 
Q 34.90625 24.078125 25.34375 22.703125 
Q 19.921875 21.921875 17.671875 20.9375 
Q 15.4375 19.96875 14.203125 18.09375 
Q 12.984375 16.21875 12.984375 13.921875 
Q 12.984375 10.40625 15.640625 8.0625 
Q 18.3125 5.71875 23.4375 5.71875 
Q 28.515625 5.71875 32.46875 7.9375 
Q 36.421875 10.15625 38.28125 14.015625 
Q 39.703125 17 39.703125 22.796875 
z
" id="ArialMT-97"/>
      <path d="M 40.578125 0 
L 40.578125 7.625 
Q 34.515625 -1.171875 24.125 -1.171875 
Q 19.53125 -1.171875 15.546875 0.578125 
Q 11.578125 2.34375 9.640625 5 
Q 7.71875 7.671875 6.9375 11.53125 
Q 6.390625 14.109375 6.390625 19.734375 
L 6.390625 51.859375 
L 15.1875 51.859375 
L 15.1875 23.09375 
Q 15.1875 16.21875 15.71875 13.8125 
Q 16.546875 10.359375 19.234375 8.375 
Q 21.921875 6.390625 25.875 6.390625 
Q 29.828125 6.390625 33.296875 8.421875 
Q 36.765625 10.453125 38.203125 13.9375 
Q 39.65625 17.4375 39.65625 24.078125 
L 39.65625 51.859375 
L 48.4375 51.859375 
L 48.4375 0 
z
" id="ArialMT-117"/>
      <path d="M 3.328125 25.921875 
Q 3.328125 40.328125 11.328125 47.265625 
Q 18.015625 53.03125 27.640625 53.03125 
Q 38.328125 53.03125 45.109375 46.015625 
Q 51.90625 39.015625 51.90625 26.65625 
Q 51.90625 16.65625 48.90625 10.90625 
Q 45.90625 5.171875 40.15625 2 
Q 34.421875 -1.171875 27.640625 -1.171875 
Q 16.75 -1.171875 10.03125 5.8125 
Q 3.328125 12.796875 3.328125 25.921875 
z
M 12.359375 25.921875 
Q 12.359375 15.96875 16.703125 11.015625 
Q 21.046875 6.0625 27.640625 6.0625 
Q 34.1875 6.0625 38.53125 11.03125 
Q 42.875 16.015625 42.875 26.21875 
Q 42.875 35.84375 38.5 40.796875 
Q 34.125 45.75 27.640625 45.75 
Q 21.046875 45.75 16.703125 40.8125 
Q 12.359375 35.890625 12.359375 25.921875 
z
" id="ArialMT-111"/>
     </defs>
     <g transform="translate(197.118 274.419375)scale(0.096 -0.096)">
      <use xlink:href="#ArialMT-101"/>
      <use x="55.615234" xlink:href="#ArialMT-118"/>
      <use x="105.615234" xlink:href="#ArialMT-97"/>
      <use x="161.230469" xlink:href="#ArialMT-108"/>
      <use x="183.447266" xlink:href="#ArialMT-117"/>
      <use x="239.0625" xlink:href="#ArialMT-97"/>
      <use x="294.677734" xlink:href="#ArialMT-116"/>
      <use x="322.460938" xlink:href="#ArialMT-105"/>
      <use x="344.677734" xlink:href="#ArialMT-111"/>
      <use x="400.292969" xlink:href="#ArialMT-110"/>
      <use x="455.908203" xlink:href="#ArialMT-115"/>
     </g>
    </g>
    <g id="text_16">
     <!-- $\times\mathdefault{10^{4}}\mathdefault{}$ -->
     <defs>
      <path d="M 70.125 53.71875 
L 47.796875 31.296875 
L 70.125 8.984375 
L 64.3125 3.078125 
L 41.890625 25.484375 
L 19.484375 3.078125 
L 13.71875 8.984375 
L 35.984375 31.296875 
L 13.71875 53.71875 
L 19.484375 59.625 
L 41.890625 37.203125 
L 64.3125 59.625 
z
" id="DejaVuSans-215"/>
     </defs>
     <g transform="translate(367.592 275.534875)scale(0.088 -0.088)">
      <use transform="translate(0 0.201563)" xlink:href="#DejaVuSans-215"/>
      <use transform="translate(83.789062 0.201563)" xlink:href="#ArialMT-49"/>
      <use transform="translate(139.404297 0.201563)" xlink:href="#ArialMT-48"/>
      <use transform="translate(196.761875 69.895313)scale(0.7)" xlink:href="#ArialMT-52"/>
     </g>
    </g>
   </g>
   <g id="matplotlib.axis_4">
    <g id="ytick_6">
     <g id="line2d_38">
      <g>
       <use style="stroke:#000000;" x="54" xlink:href="#me567145056" y="221.809481"/>
      </g>
     </g>
     <g id="line2d_39">
      <g>
       <use style="stroke:#000000;" x="388.8" xlink:href="#m1ca2bbf8ce" y="221.809481"/>
      </g>
     </g>
     <g id="text_17">
      <!-- 0.5 -->
      <g transform="translate(38.268 224.958918)scale(0.088 -0.088)">
       <use xlink:href="#ArialMT-48"/>
       <use x="55.615234" xlink:href="#ArialMT-46"/>
       <use x="83.398438" xlink:href="#ArialMT-53"/>
      </g>
     </g>
    </g>
    <g id="ytick_7">
     <g id="line2d_40">
      <g>
       <use style="stroke:#000000;" x="54" xlink:href="#me567145056" y="188.416372"/>
      </g>
     </g>
     <g id="line2d_41">
      <g>
       <use style="stroke:#000000;" x="388.8" xlink:href="#m1ca2bbf8ce" y="188.416372"/>
      </g>
     </g>
     <g id="text_18">
      <!-- 1.0 -->
      <g transform="translate(38.268 191.565809)scale(0.088 -0.088)">
       <use xlink:href="#ArialMT-49"/>
       <use x="55.615234" xlink:href="#ArialMT-46"/>
       <use x="83.398438" xlink:href="#ArialMT-48"/>
      </g>
     </g>
    </g>
    <g id="ytick_8">
     <g id="line2d_42">
      <g>
       <use style="stroke:#000000;" x="54" xlink:href="#me567145056" y="155.023263"/>
      </g>
     </g>
     <g id="line2d_43">
      <g>
       <use style="stroke:#000000;" x="388.8" xlink:href="#m1ca2bbf8ce" y="155.023263"/>
      </g>
     </g>
     <g id="text_19">
      <!-- 1.5 -->
      <g transform="translate(38.268 158.172701)scale(0.088 -0.088)">
       <use xlink:href="#ArialMT-49"/>
       <use x="55.615234" xlink:href="#ArialMT-46"/>
       <use x="83.398438" xlink:href="#ArialMT-53"/>
      </g>
     </g>
    </g>
    <g id="text_20">
     <!-- $\beta$ -->
     <defs>
      <path d="M 13.625 3.375 
L 8.9375 -20.796875 
L -0.09375 -20.796875 
L 14.5 54.34375 
Q 18.84375 76.609375 39.65625 76.609375 
Q 60.75 76.609375 57.171875 57.8125 
Q 54.734375 44.4375 45.21875 39.546875 
Q 58.015625 35.15625 55.515625 22.125 
Q 51.125 -1.078125 27.484375 -1.03125 
Q 17.140625 -0.984375 13.625 3.375 
z
M 15.921875 15.09375 
Q 19.671875 6.59375 29.296875 6.640625 
Q 43.359375 6.640625 46.34375 21.96875 
Q 49.03125 35.75 26.171875 34.671875 
L 27.78125 42.96875 
Q 45.453125 42.671875 48.53125 58.59375 
Q 50.640625 69.34375 39.203125 69.28125 
Q 26.421875 69.28125 23.484375 54.046875 
z
" id="DejaVuSans-Oblique-946"/>
     </defs>
     <g transform="translate(32.252 200.712)rotate(-90)scale(0.096 -0.096)">
      <use transform="translate(0 0.390625)" xlink:href="#DejaVuSans-Oblique-946"/>
     </g>
    </g>
   </g>
   <g id="line2d_44">
    <path clip-path="url(#p66352101c4)" d="M 69.218182 197.045089 
L 70.464993 197.045089 
L 70.776696 203.251802 
L 72.023507 203.251802 
L 72.33521 220.431153 
L 73.582021 220.431153 
L 73.893724 232.249067 
L 75.140535 232.249067 
L 75.452238 232.599856 
L 76.69905 232.599856 
L 77.010752 236.572081 
L 78.257564 236.572081 
L 78.569266 236.864769 
L 79.816078 236.864769 
L 80.127781 236.688727 
L 81.374592 236.688727 
L 81.686295 239.860641 
L 82.933106 239.860641 
L 83.244809 239.662336 
L 84.49162 239.662336 
L 84.803323 234.807196 
L 86.050134 234.807196 
L 86.361837 237.762199 
L 87.608648 237.762199 
L 87.920351 242.282419 
L 89.167162 242.282419 
L 89.478865 242.586496 
L 90.725676 242.586496 
L 91.037379 244.699734 
L 92.284191 244.699734 
L 92.595893 244.883159 
L 93.842705 244.883159 
L 94.154407 241.43038 
L 95.401219 241.43038 
L 95.712922 243.475315 
L 96.959733 243.475315 
L 97.271436 240.061491 
L 98.518247 240.061491 
L 98.82995 239.492621 
L 100.076761 239.492621 
L 100.388464 237.950569 
L 101.635275 237.950569 
L 101.946978 243.207481 
L 103.193789 243.207481 
L 103.505492 237.467122 
L 104.752303 237.467122 
L 105.064006 234.339821 
L 106.310818 234.339821 
L 106.62252 240.046132 
L 107.869332 240.046132 
L 108.181034 231.869093 
L 110.98636 231.834107 
L 111.298063 236.889513 
L 112.544874 236.889513 
L 112.856577 237.020248 
L 114.103388 237.020248 
L 114.415091 236.123334 
L 115.661902 236.123334 
L 115.973605 236.247519 
L 117.220416 236.247519 
L 117.532119 230.441009 
L 118.77893 230.441009 
L 119.090633 234.971023 
L 120.337444 234.971023 
L 120.649147 242.048235 
L 123.454473 242.100371 
L 123.766175 237.029723 
L 125.012987 237.029723 
L 125.32469 237.222806 
L 126.571501 237.222806 
L 126.883204 240.178504 
L 128.130015 240.178504 
L 128.441718 244.496732 
L 129.688529 244.496732 
L 130.000232 245.309018 
L 131.247043 245.309018 
L 131.558746 246.264429 
L 132.805557 246.264429 
L 133.11726 246.486877 
L 134.364071 246.486877 
L 134.675774 240.931983 
L 135.922586 240.931983 
L 136.234288 241.74276 
L 137.4811 241.74276 
L 137.792802 239.283204 
L 139.039614 239.283204 
L 139.351317 241.783056 
L 142.156642 241.689593 
L 142.468345 234.628467 
L 143.715156 234.628467 
L 144.026859 233.717153 
L 145.27367 233.717153 
L 145.585373 232.4366 
L 146.832184 232.4366 
L 147.143887 228.027474 
L 148.390698 228.027474 
L 148.702401 232.315932 
L 149.949212 232.315932 
L 150.260915 232.54577 
L 151.507727 232.54577 
L 151.819429 231.660457 
L 153.066241 231.660457 
L 153.377943 233.076702 
L 154.624755 233.076702 
L 154.936458 232.090438 
L 156.183269 232.090438 
L 156.494972 231.11935 
L 157.741783 231.11935 
L 158.053486 233.038303 
L 159.300297 233.038303 
L 159.612 229.040876 
L 160.858811 229.040876 
L 161.170514 233.61997 
L 162.417325 233.61997 
L 162.729028 233.904034 
L 163.975839 233.904034 
L 164.287542 236.846291 
L 165.534353 236.846291 
L 165.846056 241.62884 
L 167.092868 241.62884 
L 167.40457 236.119705 
L 168.651382 236.119705 
L 168.963085 230.81411 
L 170.209896 230.81411 
L 170.521599 232.19066 
L 171.76841 232.19066 
L 172.080113 231.059496 
L 173.326924 231.059496 
L 173.638627 232.507765 
L 174.885438 232.507765 
L 175.197141 228.593568 
L 176.443952 228.593568 
L 176.755655 227.769807 
L 178.002466 227.769807 
L 178.314169 232.49948 
L 179.56098 232.49948 
L 179.872683 234.610981 
L 181.119495 234.610981 
L 181.431197 237.629666 
L 182.678009 237.629666 
L 182.989711 239.289068 
L 184.236523 239.289068 
L 184.548226 241.137237 
L 185.795037 241.137237 
L 186.10674 241.892381 
L 187.353551 241.892381 
L 187.665254 236.496613 
L 188.912065 236.496613 
L 189.223768 237.890569 
L 190.470579 237.890569 
L 190.782282 240.122706 
L 192.029093 240.122706 
L 192.340796 234.104572 
L 193.587607 234.104572 
L 193.89931 232.349701 
L 195.146121 232.349701 
L 195.457824 231.455606 
L 196.704636 231.455606 
L 197.016338 236.681245 
L 198.26315 236.681245 
L 198.574853 233.914692 
L 199.821664 233.914692 
L 200.133367 236.2852 
L 201.380178 236.2852 
L 201.691881 208.53574 
L 202.938692 208.53574 
L 203.250395 194.937692 
L 204.497206 194.937692 
L 204.808909 192.89442 
L 206.05572 192.89442 
L 206.367423 196.863924 
L 207.614234 196.863924 
L 207.925937 193.207675 
L 209.172748 193.207675 
L 209.484451 191.12559 
L 210.731263 191.12559 
L 211.042965 197.844034 
L 212.289777 197.844034 
L 212.601479 201.304028 
L 213.848291 201.304028 
L 214.159994 203.367314 
L 215.406805 203.367314 
L 215.718508 208.833255 
L 216.965319 208.833255 
L 217.277022 210.318315 
L 218.523833 210.318315 
L 218.835536 206.462135 
L 220.082347 206.462135 
L 220.39405 201.93331 
L 221.640861 201.93331 
L 221.952564 198.817293 
L 223.199375 198.817293 
L 223.511078 200.390497 
L 224.757889 200.390497 
L 225.069592 196.999193 
L 226.316404 196.999193 
L 226.628106 194.723395 
L 227.874918 194.723395 
L 228.186621 184.743476 
L 229.433432 184.743476 
L 229.745135 191.343313 
L 230.991946 191.343313 
L 231.303649 192.394543 
L 232.55046 192.394543 
L 232.862163 192.051475 
L 234.108974 192.051475 
L 234.420677 197.684996 
L 235.667488 197.684996 
L 235.979191 210.461004 
L 237.226002 210.461004 
L 237.537705 228.332144 
L 238.784516 228.332144 
L 239.096219 235.549054 
L 240.343031 235.549054 
L 240.654733 239.700848 
L 241.901545 239.700848 
L 242.213247 240.876097 
L 243.460059 240.876097 
L 243.771762 242.899838 
L 245.018573 242.899838 
L 245.330276 241.941739 
L 246.577087 241.941739 
L 246.88879 241.567248 
L 248.135601 241.567248 
L 248.447304 241.019864 
L 249.694115 241.019864 
L 250.005818 234.751846 
L 251.252629 234.751846 
L 251.564332 235.783752 
L 252.811143 235.783752 
L 253.122846 235.359136 
L 254.369657 235.359136 
L 254.68136 238.897124 
L 255.928172 238.897124 
L 256.239874 236.913023 
L 257.486686 236.913023 
L 257.798389 236.439134 
L 259.0452 236.439134 
L 259.356903 234.308012 
L 260.603714 234.308012 
L 260.915417 238.78059 
L 262.162228 238.78059 
L 262.473931 233.378207 
L 263.720742 233.378207 
L 264.032445 232.525528 
L 265.279256 232.525528 
L 265.590959 231.257062 
L 266.83777 231.257062 
L 267.149473 236.166079 
L 268.396284 236.166079 
L 268.707987 241.055933 
L 269.954799 241.055933 
L 270.266501 241.202918 
L 271.513313 241.202918 
L 271.825015 234.198627 
L 273.071827 234.198627 
L 273.38353 237.323139 
L 274.630341 237.323139 
L 274.942044 238.20576 
L 276.188855 238.20576 
L 276.500558 237.784389 
L 277.747369 237.784389 
L 278.059072 239.542385 
L 279.305883 239.542385 
L 279.617586 240.102997 
L 280.864397 240.102997 
L 281.1761 241.058275 
L 282.422911 241.058275 
L 282.734614 241.444143 
L 283.981425 241.444143 
L 284.293128 236.810902 
L 285.53994 236.810902 
L 285.851642 244.163886 
L 287.098454 244.163886 
L 287.410156 245.854526 
L 288.656968 245.854526 
L 288.968671 243.971226 
L 290.215482 243.971226 
L 290.527185 243.77001 
L 293.33251 243.852823 
L 293.644213 245.476826 
L 294.891024 245.476826 
L 295.202727 244.331362 
L 296.449538 244.331362 
L 296.761241 240.626264 
L 298.008052 240.626264 
L 298.319755 238.322876 
L 299.566567 238.322876 
L 299.878269 237.867951 
L 301.125081 237.867951 
L 301.436783 243.037781 
L 302.683595 243.037781 
L 302.995298 237.577492 
L 304.242109 237.577492 
L 304.553812 196.20355 
L 305.800623 196.20355 
L 306.112326 177.608336 
L 307.359137 177.608336 
L 307.67084 164.018239 
L 308.917651 164.018239 
L 309.229354 169.683673 
L 310.476165 169.683673 
L 310.787868 153.535464 
L 312.034679 153.535464 
L 312.346382 154.908007 
L 313.593193 154.908007 
L 313.904896 155.028932 
L 316.710222 154.968286 
L 317.021924 154.138246 
L 318.268736 154.138246 
L 318.580439 153.582935 
L 319.82725 153.582935 
L 320.138953 154.773249 
L 321.385764 154.773249 
L 321.697467 153.883729 
L 322.944278 153.883729 
L 323.255981 148.221818 
L 324.502792 148.221818 
L 324.814495 178.425348 
L 326.061306 178.425348 
L 326.373009 195.348609 
L 327.61982 195.348609 
L 327.931523 199.253827 
L 329.178335 199.253827 
L 329.490037 207.876902 
L 330.736849 207.876902 
L 331.048551 211.387484 
L 332.295363 211.387484 
L 332.607066 213.259932 
L 333.853877 213.259932 
L 334.16558 213.596659 
L 335.412391 213.596659 
L 335.724094 213.161208 
L 336.970905 213.161208 
L 337.282608 216.693447 
L 338.529419 216.693447 
L 338.841122 215.930349 
L 340.087933 215.930349 
L 340.399636 221.944659 
L 343.204961 221.930073 
L 343.516664 230.735991 
L 344.763476 230.735991 
L 345.075178 218.849684 
L 346.32199 218.849684 
L 346.633692 215.764584 
L 349.439018 215.668901 
L 349.750721 218.427291 
L 350.997532 218.427291 
L 351.309235 217.222632 
L 352.556046 217.222632 
L 352.867749 218.953608 
L 354.11456 218.953608 
L 354.426263 220.84576 
L 355.673074 220.84576 
L 355.984777 221.08708 
L 357.231588 221.08708 
L 357.543291 222.463384 
L 358.790102 222.463384 
L 359.101805 223.982533 
L 360.348617 223.982533 
L 360.660319 222.761196 
L 361.907131 222.761196 
L 362.218834 220.347967 
L 363.465645 220.347967 
L 363.777348 218.189 
L 365.024159 218.189 
L 365.335862 211.052974 
L 366.582673 211.052974 
L 366.894376 201.130915 
L 368.141187 201.130915 
L 368.45289 189.859547 
L 369.699701 189.859547 
L 370.011404 188.450934 
L 371.258215 188.450934 
L 371.569918 185.34589 
L 372.816729 185.34589 
L 373.128432 185.995191 
L 373.581818 185.995191 
L 373.581818 185.995191 
" style="fill:none;stroke:#e8000b;stroke-linecap:round;stroke-width:1.2;"/>
   </g>
   <g id="patch_10">
    <path d="M 54 252 
L 54 143.28 
" style="fill:none;stroke:#000000;stroke-linecap:square;stroke-linejoin:miter;"/>
   </g>
   <g id="patch_11">
    <path d="M 388.8 252 
L 388.8 143.28 
" style="fill:none;stroke:#000000;stroke-linecap:square;stroke-linejoin:miter;"/>
   </g>
   <g id="patch_12">
    <path d="M 54 252 
L 388.8 252 
" style="fill:none;stroke:#000000;stroke-linecap:square;stroke-linejoin:miter;"/>
   </g>
   <g id="patch_13">
    <path d="M 54 143.28 
L 388.8 143.28 
" style="fill:none;stroke:#000000;stroke-linecap:square;stroke-linejoin:miter;"/>
   </g>
  </g>
 </g>
 <defs>
  <clipPath id="p885a1c1ef3">
   <rect height="108.72" width="334.8" x="54" y="34.56"/>
  </clipPath>
  <clipPath id="p66352101c4">
   <rect height="108.72" width="334.8" x="54" y="143.28"/>
  </clipPath>
 </defs>
</svg>
