<?xml version="1.0" encoding="utf-8" standalone="no"?>
<!DOCTYPE svg PUBLIC "-//W3C//DTD SVG 1.1//EN"
  "http://www.w3.org/Graphics/SVG/1.1/DTD/svg11.dtd">
<!-- Created with matplotlib (https://matplotlib.org/) -->
<svg height="288pt" version="1.1" viewBox="0 0 432 288" width="432pt" xmlns="http://www.w3.org/2000/svg" xmlns:xlink="http://www.w3.org/1999/xlink">
 <defs>
  <style type="text/css">
*{stroke-linecap:butt;stroke-linejoin:round;}
  </style>
 </defs>
 <g id="figure_1">
  <g id="patch_1">
   <path d="M 0 288 
L 432 288 
L 432 0 
L 0 0 
z
" style="fill:#ffffff;"/>
  </g>
  <g id="axes_1">
   <g id="patch_2">
    <path d="M 54 143.28 
L 388.8 143.28 
L 388.8 34.56 
L 54 34.56 
z
" style="fill:#ffffff;"/>
   </g>
   <g id="line2d_1">
    <path clip-path="url(#p68521ce96f)" d="M 69.218182 40.332756 
L 70.701348 40.363912 
L 71.195736 45.616987 
L 73.173291 45.666169 
L 73.66768 49.010062 
L 74.162068 50.125967 
L 74.656457 50.639672 
L 75.150846 53.985164 
L 75.645234 58.970003 
L 76.139623 58.970511 
L 76.634012 59.822411 
L 78.117178 59.822513 
L 78.611566 60.128577 
L 79.105955 60.128875 
L 79.600344 62.628633 
L 83.061064 62.721792 
L 83.555453 63.799436 
L 85.533008 63.799436 
L 86.027396 64.331623 
L 86.521785 64.331623 
L 87.016174 65.275872 
L 88.004951 65.275872 
L 88.49934 69.605817 
L 89.982506 69.606138 
L 90.971283 70.450391 
L 93.937615 70.450391 
L 94.432003 71.633413 
L 97.398335 71.690723 
L 97.892724 75.624471 
L 102.342222 75.651277 
L 103.330999 76.112981 
L 105.802943 76.112981 
L 106.297331 78.528676 
L 109.263663 78.528693 
L 109.758052 82.248571 
L 111.241218 82.248571 
L 111.735607 82.720618 
L 114.20755 82.720702 
L 114.701938 82.845773 
L 115.196327 82.845773 
L 116.185104 83.203352 
L 116.679493 83.203352 
L 117.173882 84.406208 
L 119.151436 84.480697 
L 119.645825 84.787469 
L 120.634602 84.787469 
L 121.128991 85.131742 
L 122.117768 85.131742 
L 122.612157 87.347752 
L 126.567266 87.358026 
L 127.061655 87.731481 
L 127.556044 87.731481 
L 128.050432 90.844258 
L 133.983096 90.872769 
L 134.477485 91.050552 
L 135.960651 91.066417 
L 136.455039 91.187054 
L 136.949428 91.519399 
L 137.443817 92.008323 
L 139.421371 92.062594 
L 139.91576 92.632671 
L 140.904537 92.632671 
L 141.398926 93.189473 
L 141.893315 93.189473 
L 142.387703 100.734875 
L 149.309145 100.806188 
L 150.297922 100.889891 
L 150.792311 100.889891 
L 151.286699 101.4772 
L 154.253031 101.4772 
L 154.74742 101.836229 
L 155.736197 101.836229 
L 156.230586 102.124829 
L 157.219363 102.124829 
L 157.713752 103.357065 
L 160.185695 103.365469 
L 160.680084 104.000748 
L 164.635193 104.002891 
L 165.129582 107.831884 
L 176.006132 107.907245 
L 176.500521 108.8264 
L 184.905128 108.8264 
L 185.399517 109.671959 
L 189.849015 109.760928 
L 190.343403 110.495448 
L 193.309735 110.557657 
L 193.804124 111.021404 
L 194.298513 112.390527 
L 200.231177 112.390527 
L 200.725565 112.561658 
L 202.208731 112.577707 
L 202.70312 112.792333 
L 208.141395 112.899301 
L 209.130172 113.00597 
L 210.11895 113.006093 
L 210.613338 113.688925 
L 211.602116 113.688925 
L 212.096504 113.820358 
L 212.590893 113.820358 
L 213.085282 114.064374 
L 216.051614 114.064374 
L 216.546002 114.434008 
L 218.523557 114.523979 
L 219.512334 114.598258 
L 221.984278 114.598258 
L 222.478666 116.2816 
L 226.433775 116.2816 
L 226.928164 116.661542 
L 228.41133 116.661542 
L 228.905719 116.796006 
L 230.388885 116.796006 
L 230.883273 117.524558 
L 232.366439 117.524558 
L 232.860828 117.793986 
L 239.782269 117.886895 
L 240.276658 118.47716 
L 242.748601 118.47856 
L 243.24299 119.315837 
L 246.209322 119.316973 
L 246.70371 120.159271 
L 249.175654 120.159271 
L 249.670042 122.165994 
L 253.130763 122.23524 
L 253.625152 123.841089 
L 261.53537 123.865479 
L 262.029759 124.041548 
L 263.512925 124.041548 
L 264.007314 124.563487 
L 264.501702 124.563487 
L 264.996091 124.974883 
L 268.456811 124.992577 
L 268.9512 125.179035 
L 276.36703 125.243189 
L 277.850196 125.296047 
L 281.805305 125.322796 
L 282.299694 126.464852 
L 289.221135 126.541417 
L 289.715524 126.663287 
L 295.648188 126.663287 
L 296.142576 127.224892 
L 298.120131 127.224892 
L 298.61452 127.991139 
L 306.03035 127.991549 
L 306.524738 128.51767 
L 308.007904 128.517932 
L 308.502293 130.707581 
L 314.929345 130.707639 
L 315.423734 131.838985 
L 319.378843 131.867912 
L 320.367621 131.951324 
L 321.850787 131.951324 
L 322.345175 133.642061 
L 325.311507 133.694279 
L 325.805896 134.90139 
L 330.749783 134.905223 
L 331.244171 135.118287 
L 334.210503 135.118287 
L 334.704892 135.481188 
L 344.098276 135.571305 
L 344.592665 136.141742 
L 356.457993 136.176949 
L 356.952381 136.710171 
L 358.929936 136.76104 
L 359.424325 137.472632 
L 368.817709 137.472632 
L 369.312098 137.596095 
L 373.267207 137.685821 
L 373.581818 138.338182 
L 373.581818 138.338182 
" style="fill:none;stroke:#1ac938;stroke-linecap:round;stroke-width:1.2;"/>
   </g>
   <g id="matplotlib.axis_1">
    <g id="xtick_1">
     <g id="line2d_2">
      <defs>
       <path d="M 0 0 
L 0 -3 
" id="m7fd3d3183c" style="stroke:#000000;"/>
      </defs>
      <g>
       <use style="stroke:#000000;" x="68.274349" xlink:href="#m7fd3d3183c" y="143.28"/>
      </g>
     </g>
     <g id="line2d_3">
      <defs>
       <path d="M 0 0 
L 0 3 
" id="m24cd45a4aa" style="stroke:#000000;"/>
      </defs>
      <g>
       <use style="stroke:#000000;" x="68.274349" xlink:href="#m24cd45a4aa" y="34.56"/>
      </g>
     </g>
    </g>
    <g id="xtick_2">
     <g id="line2d_4">
      <g>
       <use style="stroke:#000000;" x="113.218772" xlink:href="#m7fd3d3183c" y="143.28"/>
      </g>
     </g>
     <g id="line2d_5">
      <g>
       <use style="stroke:#000000;" x="113.218772" xlink:href="#m24cd45a4aa" y="34.56"/>
      </g>
     </g>
    </g>
    <g id="xtick_3">
     <g id="line2d_6">
      <g>
       <use style="stroke:#000000;" x="158.163196" xlink:href="#m7fd3d3183c" y="143.28"/>
      </g>
     </g>
     <g id="line2d_7">
      <g>
       <use style="stroke:#000000;" x="158.163196" xlink:href="#m24cd45a4aa" y="34.56"/>
      </g>
     </g>
    </g>
    <g id="xtick_4">
     <g id="line2d_8">
      <g>
       <use style="stroke:#000000;" x="203.10762" xlink:href="#m7fd3d3183c" y="143.28"/>
      </g>
     </g>
     <g id="line2d_9">
      <g>
       <use style="stroke:#000000;" x="203.10762" xlink:href="#m24cd45a4aa" y="34.56"/>
      </g>
     </g>
    </g>
    <g id="xtick_5">
     <g id="line2d_10">
      <g>
       <use style="stroke:#000000;" x="248.052043" xlink:href="#m7fd3d3183c" y="143.28"/>
      </g>
     </g>
     <g id="line2d_11">
      <g>
       <use style="stroke:#000000;" x="248.052043" xlink:href="#m24cd45a4aa" y="34.56"/>
      </g>
     </g>
    </g>
    <g id="xtick_6">
     <g id="line2d_12">
      <g>
       <use style="stroke:#000000;" x="292.996467" xlink:href="#m7fd3d3183c" y="143.28"/>
      </g>
     </g>
     <g id="line2d_13">
      <g>
       <use style="stroke:#000000;" x="292.996467" xlink:href="#m24cd45a4aa" y="34.56"/>
      </g>
     </g>
    </g>
    <g id="xtick_7">
     <g id="line2d_14">
      <g>
       <use style="stroke:#000000;" x="337.94089" xlink:href="#m7fd3d3183c" y="143.28"/>
      </g>
     </g>
     <g id="line2d_15">
      <g>
       <use style="stroke:#000000;" x="337.94089" xlink:href="#m24cd45a4aa" y="34.56"/>
      </g>
     </g>
    </g>
    <g id="xtick_8">
     <g id="line2d_16">
      <g>
       <use style="stroke:#000000;" x="382.885314" xlink:href="#m7fd3d3183c" y="143.28"/>
      </g>
     </g>
     <g id="line2d_17">
      <g>
       <use style="stroke:#000000;" x="382.885314" xlink:href="#m24cd45a4aa" y="34.56"/>
      </g>
     </g>
    </g>
   </g>
   <g id="matplotlib.axis_2">
    <g id="ytick_1">
     <g id="line2d_18">
      <defs>
       <path d="M 0 0 
L 3 0 
" id="m92093fc952" style="stroke:#000000;"/>
      </defs>
      <g>
       <use style="stroke:#000000;" x="54" xlink:href="#m92093fc952" y="141.892694"/>
      </g>
     </g>
     <g id="line2d_19">
      <defs>
       <path d="M 0 0 
L -3 0 
" id="m8de4ddd1cd" style="stroke:#000000;"/>
      </defs>
      <g>
       <use style="stroke:#000000;" x="388.8" xlink:href="#m8de4ddd1cd" y="141.892694"/>
      </g>
     </g>
     <g id="text_1">
      <!-- $\mathdefault{10^{0}}$ -->
      <defs>
       <path d="M 37.25 0 
L 28.46875 0 
L 28.46875 56 
Q 25.296875 52.984375 20.140625 49.953125 
Q 14.984375 46.921875 10.890625 45.40625 
L 10.890625 53.90625 
Q 18.265625 57.375 23.78125 62.296875 
Q 29.296875 67.234375 31.59375 71.875 
L 37.25 71.875 
z
" id="ArialMT-49"/>
       <path d="M 4.15625 35.296875 
Q 4.15625 48 6.765625 55.734375 
Q 9.375 63.484375 14.515625 67.671875 
Q 19.671875 71.875 27.484375 71.875 
Q 33.25 71.875 37.59375 69.546875 
Q 41.9375 67.234375 44.765625 62.859375 
Q 47.609375 58.5 49.21875 52.21875 
Q 50.828125 45.953125 50.828125 35.296875 
Q 50.828125 22.703125 48.234375 14.96875 
Q 45.65625 7.234375 40.5 3 
Q 35.359375 -1.21875 27.484375 -1.21875 
Q 17.140625 -1.21875 11.234375 6.203125 
Q 4.15625 15.140625 4.15625 35.296875 
z
M 13.1875 35.296875 
Q 13.1875 17.671875 17.3125 11.828125 
Q 21.4375 6 27.484375 6 
Q 33.546875 6 37.671875 11.859375 
Q 41.796875 17.71875 41.796875 35.296875 
Q 41.796875 52.984375 37.671875 58.78125 
Q 33.546875 64.59375 27.390625 64.59375 
Q 21.34375 64.59375 17.71875 59.46875 
Q 13.1875 52.9375 13.1875 35.296875 
z
" id="ArialMT-48"/>
      </defs>
      <g transform="translate(36.684 146.430194)scale(0.088 -0.088)">
       <use transform="translate(0 0.99375)" xlink:href="#ArialMT-49"/>
       <use transform="translate(55.615234 0.99375)" xlink:href="#ArialMT-48"/>
       <use transform="translate(112.972813 70.6875)scale(0.7)" xlink:href="#ArialMT-48"/>
      </g>
     </g>
    </g>
    <g id="ytick_2">
     <g id="line2d_20">
      <g>
       <use style="stroke:#000000;" x="54" xlink:href="#m92093fc952" y="41.797937"/>
      </g>
     </g>
     <g id="line2d_21">
      <g>
       <use style="stroke:#000000;" x="388.8" xlink:href="#m8de4ddd1cd" y="41.797937"/>
      </g>
     </g>
     <g id="text_2">
      <!-- $\mathdefault{10^{1}}$ -->
      <g transform="translate(36.684 46.335437)scale(0.088 -0.088)">
       <use transform="translate(0 0.99375)" xlink:href="#ArialMT-49"/>
       <use transform="translate(55.615234 0.99375)" xlink:href="#ArialMT-48"/>
       <use transform="translate(112.972813 70.6875)scale(0.7)" xlink:href="#ArialMT-49"/>
      </g>
     </g>
    </g>
    <g id="ytick_3">
     <g id="line2d_22">
      <defs>
       <path d="M 0 0 
L 3.2 0 
" id="mfabd4ba6d3" style="stroke:#000000;stroke-width:0.8;"/>
      </defs>
      <g>
       <use style="stroke:#000000;stroke-width:0.8;" x="54" xlink:href="#mfabd4ba6d3" y="111.76117"/>
      </g>
     </g>
     <g id="line2d_23">
      <defs>
       <path d="M 0 0 
L -3.2 0 
" id="m198ec99127" style="stroke:#000000;stroke-width:0.8;"/>
      </defs>
      <g>
       <use style="stroke:#000000;stroke-width:0.8;" x="388.8" xlink:href="#m198ec99127" y="111.76117"/>
      </g>
     </g>
    </g>
    <g id="ytick_4">
     <g id="line2d_24">
      <g>
       <use style="stroke:#000000;stroke-width:0.8;" x="54" xlink:href="#mfabd4ba6d3" y="94.135358"/>
      </g>
     </g>
     <g id="line2d_25">
      <g>
       <use style="stroke:#000000;stroke-width:0.8;" x="388.8" xlink:href="#m198ec99127" y="94.135358"/>
      </g>
     </g>
    </g>
    <g id="ytick_5">
     <g id="line2d_26">
      <g>
       <use style="stroke:#000000;stroke-width:0.8;" x="54" xlink:href="#mfabd4ba6d3" y="81.629646"/>
      </g>
     </g>
     <g id="line2d_27">
      <g>
       <use style="stroke:#000000;stroke-width:0.8;" x="388.8" xlink:href="#m198ec99127" y="81.629646"/>
      </g>
     </g>
    </g>
    <g id="ytick_6">
     <g id="line2d_28">
      <g>
       <use style="stroke:#000000;stroke-width:0.8;" x="54" xlink:href="#mfabd4ba6d3" y="71.929461"/>
      </g>
     </g>
     <g id="line2d_29">
      <g>
       <use style="stroke:#000000;stroke-width:0.8;" x="388.8" xlink:href="#m198ec99127" y="71.929461"/>
      </g>
     </g>
    </g>
    <g id="ytick_7">
     <g id="line2d_30">
      <g>
       <use style="stroke:#000000;stroke-width:0.8;" x="54" xlink:href="#mfabd4ba6d3" y="64.003834"/>
      </g>
     </g>
     <g id="line2d_31">
      <g>
       <use style="stroke:#000000;stroke-width:0.8;" x="388.8" xlink:href="#m198ec99127" y="64.003834"/>
      </g>
     </g>
    </g>
    <g id="ytick_8">
     <g id="line2d_32">
      <g>
       <use style="stroke:#000000;stroke-width:0.8;" x="54" xlink:href="#mfabd4ba6d3" y="57.302811"/>
      </g>
     </g>
     <g id="line2d_33">
      <g>
       <use style="stroke:#000000;stroke-width:0.8;" x="388.8" xlink:href="#m198ec99127" y="57.302811"/>
      </g>
     </g>
    </g>
    <g id="ytick_9">
     <g id="line2d_34">
      <g>
       <use style="stroke:#000000;stroke-width:0.8;" x="54" xlink:href="#mfabd4ba6d3" y="51.498121"/>
      </g>
     </g>
     <g id="line2d_35">
      <g>
       <use style="stroke:#000000;stroke-width:0.8;" x="388.8" xlink:href="#m198ec99127" y="51.498121"/>
      </g>
     </g>
    </g>
    <g id="ytick_10">
     <g id="line2d_36">
      <g>
       <use style="stroke:#000000;stroke-width:0.8;" x="54" xlink:href="#mfabd4ba6d3" y="46.378022"/>
      </g>
     </g>
     <g id="line2d_37">
      <g>
       <use style="stroke:#000000;stroke-width:0.8;" x="388.8" xlink:href="#m198ec99127" y="46.378022"/>
      </g>
     </g>
    </g>
    <g id="text_3">
     <!-- fitness -->
     <defs>
      <path d="M 8.6875 0 
L 8.6875 45.015625 
L 0.921875 45.015625 
L 0.921875 51.859375 
L 8.6875 51.859375 
L 8.6875 57.375 
Q 8.6875 62.59375 9.625 65.140625 
Q 10.890625 68.5625 14.078125 70.671875 
Q 17.28125 72.796875 23.046875 72.796875 
Q 26.765625 72.796875 31.25 71.921875 
L 29.9375 64.265625 
Q 27.203125 64.75 24.75 64.75 
Q 20.75 64.75 19.09375 63.03125 
Q 17.4375 61.328125 17.4375 56.640625 
L 17.4375 51.859375 
L 27.546875 51.859375 
L 27.546875 45.015625 
L 17.4375 45.015625 
L 17.4375 0 
z
" id="ArialMT-102"/>
      <path d="M 6.640625 61.46875 
L 6.640625 71.578125 
L 15.4375 71.578125 
L 15.4375 61.46875 
z
M 6.640625 0 
L 6.640625 51.859375 
L 15.4375 51.859375 
L 15.4375 0 
z
" id="ArialMT-105"/>
      <path d="M 25.78125 7.859375 
L 27.046875 0.09375 
Q 23.34375 -0.6875 20.40625 -0.6875 
Q 15.625 -0.6875 12.984375 0.828125 
Q 10.359375 2.34375 9.28125 4.8125 
Q 8.203125 7.28125 8.203125 15.1875 
L 8.203125 45.015625 
L 1.765625 45.015625 
L 1.765625 51.859375 
L 8.203125 51.859375 
L 8.203125 64.703125 
L 16.9375 69.96875 
L 16.9375 51.859375 
L 25.78125 51.859375 
L 25.78125 45.015625 
L 16.9375 45.015625 
L 16.9375 14.703125 
Q 16.9375 10.9375 17.40625 9.859375 
Q 17.875 8.796875 18.921875 8.15625 
Q 19.96875 7.515625 21.921875 7.515625 
Q 23.390625 7.515625 25.78125 7.859375 
z
" id="ArialMT-116"/>
      <path d="M 6.59375 0 
L 6.59375 51.859375 
L 14.5 51.859375 
L 14.5 44.484375 
Q 20.21875 53.03125 31 53.03125 
Q 35.6875 53.03125 39.625 51.34375 
Q 43.5625 49.65625 45.515625 46.921875 
Q 47.46875 44.1875 48.25 40.4375 
Q 48.734375 37.984375 48.734375 31.890625 
L 48.734375 0 
L 39.9375 0 
L 39.9375 31.546875 
Q 39.9375 36.921875 38.90625 39.578125 
Q 37.890625 42.234375 35.28125 43.8125 
Q 32.671875 45.40625 29.15625 45.40625 
Q 23.53125 45.40625 19.453125 41.84375 
Q 15.375 38.28125 15.375 28.328125 
L 15.375 0 
z
" id="ArialMT-110"/>
      <path d="M 42.09375 16.703125 
L 51.171875 15.578125 
Q 49.03125 7.625 43.21875 3.21875 
Q 37.40625 -1.171875 28.375 -1.171875 
Q 17 -1.171875 10.328125 5.828125 
Q 3.65625 12.84375 3.65625 25.484375 
Q 3.65625 38.578125 10.390625 45.796875 
Q 17.140625 53.03125 27.875 53.03125 
Q 38.28125 53.03125 44.875 45.953125 
Q 51.46875 38.875 51.46875 26.03125 
Q 51.46875 25.25 51.421875 23.6875 
L 12.75 23.6875 
Q 13.234375 15.140625 17.578125 10.59375 
Q 21.921875 6.0625 28.421875 6.0625 
Q 33.25 6.0625 36.671875 8.59375 
Q 40.09375 11.140625 42.09375 16.703125 
z
M 13.234375 30.90625 
L 42.1875 30.90625 
Q 41.609375 37.453125 38.875 40.71875 
Q 34.671875 45.796875 27.984375 45.796875 
Q 21.921875 45.796875 17.796875 41.75 
Q 13.671875 37.703125 13.234375 30.90625 
z
" id="ArialMT-101"/>
      <path d="M 3.078125 15.484375 
L 11.765625 16.84375 
Q 12.5 11.625 15.84375 8.84375 
Q 19.1875 6.0625 25.203125 6.0625 
Q 31.25 6.0625 34.171875 8.515625 
Q 37.109375 10.984375 37.109375 14.3125 
Q 37.109375 17.28125 34.515625 19 
Q 32.71875 20.171875 25.53125 21.96875 
Q 15.875 24.421875 12.140625 26.203125 
Q 8.40625 27.984375 6.46875 31.125 
Q 4.546875 34.28125 4.546875 38.09375 
Q 4.546875 41.546875 6.125 44.5 
Q 7.71875 47.46875 10.453125 49.421875 
Q 12.5 50.921875 16.03125 51.96875 
Q 19.578125 53.03125 23.640625 53.03125 
Q 29.734375 53.03125 34.34375 51.265625 
Q 38.96875 49.515625 41.15625 46.5 
Q 43.359375 43.5 44.1875 38.484375 
L 35.59375 37.3125 
Q 35.015625 41.3125 32.203125 43.546875 
Q 29.390625 45.796875 24.265625 45.796875 
Q 18.21875 45.796875 15.625 43.796875 
Q 13.03125 41.796875 13.03125 39.109375 
Q 13.03125 37.40625 14.109375 36.03125 
Q 15.1875 34.625 17.484375 33.6875 
Q 18.796875 33.203125 25.25 31.453125 
Q 34.578125 28.953125 38.25 27.359375 
Q 41.9375 25.78125 44.03125 22.75 
Q 46.140625 19.734375 46.140625 15.234375 
Q 46.140625 10.84375 43.578125 6.953125 
Q 41.015625 3.078125 36.171875 0.953125 
Q 31.34375 -1.171875 25.25 -1.171875 
Q 15.140625 -1.171875 9.84375 3.03125 
Q 4.546875 7.234375 3.078125 15.484375 
z
" id="ArialMT-115"/>
     </defs>
     <g transform="translate(30.776 102.792)rotate(-90)scale(0.096 -0.096)">
      <use xlink:href="#ArialMT-102"/>
      <use x="27.783203" xlink:href="#ArialMT-105"/>
      <use x="50" xlink:href="#ArialMT-116"/>
      <use x="77.783203" xlink:href="#ArialMT-110"/>
      <use x="133.398438" xlink:href="#ArialMT-101"/>
      <use x="189.013672" xlink:href="#ArialMT-115"/>
      <use x="239.013672" xlink:href="#ArialMT-115"/>
     </g>
    </g>
   </g>
   <g id="line2d_38">
    <path clip-path="url(#p68521ce96f)" d="M 69.218182 39.501818 
L 71.195736 39.502664 
L 71.690125 39.706879 
L 72.184514 40.969812 
L 72.678902 43.662765 
L 73.173291 47.534619 
L 73.66768 47.759322 
L 74.162068 51.861739 
L 74.656457 51.862572 
L 75.150846 56.556341 
L 76.139623 56.558888 
L 76.634012 58.034919 
L 77.622789 59.09182 
L 78.117178 59.469824 
L 78.611566 62.399217 
L 79.105955 63.181053 
L 79.600344 64.345151 
L 80.094732 71.65681 
L 80.589121 71.65681 
L 81.08351 72.395266 
L 82.072287 72.415571 
L 82.566676 72.709603 
L 83.061064 73.901937 
L 83.555453 73.901937 
L 84.049842 74.770271 
L 85.038619 74.836791 
L 85.533008 74.853814 
L 86.027396 75.711694 
L 86.521785 76.824721 
L 87.016174 76.83631 
L 87.510562 79.795544 
L 97.892724 79.795544 
L 98.387113 81.143261 
L 98.881501 81.339528 
L 99.37589 81.969208 
L 103.330999 81.969208 
L 103.825388 84.168465 
L 106.79172 84.168465 
L 107.286109 87.732423 
L 107.780497 88.361101 
L 108.769275 88.361101 
L 109.263663 91.038393 
L 110.746829 91.038764 
L 111.241218 94.756527 
L 116.185104 94.756527 
L 116.679493 96.196429 
L 119.645825 96.304424 
L 120.140214 97.305134 
L 120.634602 97.305134 
L 121.128991 99.988064 
L 123.106546 99.988064 
L 123.600934 101.556728 
L 125.0841 101.558941 
L 125.578489 101.677055 
L 126.072878 102.145046 
L 127.061655 102.145367 
L 127.556044 102.537322 
L 130.522376 102.553144 
L 131.016764 102.886948 
L 132.005542 102.886948 
L 132.49993 103.987641 
L 134.477485 103.987641 
L 134.971873 108.81572 
L 137.443817 108.81572 
L 137.938205 108.960022 
L 139.421371 108.961217 
L 139.91576 109.247971 
L 140.410149 109.751826 
L 140.904537 109.947079 
L 141.398926 110.555667 
L 142.882092 110.555667 
L 143.376481 112.71202 
L 145.354035 112.71202 
L 145.848424 115.926077 
L 147.33159 115.92859 
L 147.825979 116.330482 
L 151.781088 116.350353 
L 152.275477 118.522337 
L 155.241809 118.536213 
L 155.736197 120.923712 
L 172.545412 120.923712 
L 173.0398 121.438496 
L 177.489298 121.446697 
L 177.983687 121.836774 
L 180.45563 121.836774 
L 180.950019 121.980724 
L 182.433185 121.980724 
L 182.927573 124.668514 
L 183.916351 124.668617 
L 184.410739 126.077556 
L 198.253622 126.077563 
L 198.748011 126.272465 
L 204.186286 126.272693 
L 204.680674 126.413587 
L 205.175063 126.413587 
L 205.669452 127.144533 
L 214.074059 127.144533 
L 214.568448 127.423531 
L 216.051614 127.423531 
L 216.546002 127.664064 
L 217.53478 127.664064 
L 218.029168 128.097055 
L 218.523557 128.097055 
L 219.017946 128.704399 
L 229.400107 128.704399 
L 229.894496 128.955435 
L 230.883273 128.955435 
L 231.377662 130.490722 
L 231.872051 130.492488 
L 232.366439 130.688665 
L 236.815937 130.688665 
L 237.310326 131.05862 
L 237.804715 132.165627 
L 239.287881 132.165627 
L 239.782269 132.377355 
L 240.771047 132.377355 
L 241.265435 132.534578 
L 242.748601 132.534578 
L 243.24299 132.651812 
L 249.175654 132.67725 
L 251.153208 133.162255 
L 251.647597 133.534408 
L 256.591484 133.602977 
L 257.085872 133.742555 
L 258.569038 133.742555 
L 259.063427 134.772177 
L 260.052204 134.773258 
L 260.546593 136.675094 
L 283.78286 136.675094 
L 284.277249 137.058783 
L 287.243581 137.086442 
L 287.737969 137.337702 
L 301.086463 137.338707 
L 301.580852 137.500017 
L 306.03035 137.55693 
L 307.019127 137.613533 
L 307.041599 137.816558 
L 307.041599 137.816558 
" style="fill:none;stroke:#e8000b;stroke-linecap:round;stroke-width:1.2;"/>
   </g>
   <g id="patch_3">
    <path d="M 54 143.28 
L 54 34.56 
" style="fill:none;stroke:#000000;stroke-linecap:square;stroke-linejoin:miter;"/>
   </g>
   <g id="patch_4">
    <path d="M 388.8 143.28 
L 388.8 34.56 
" style="fill:none;stroke:#000000;stroke-linecap:square;stroke-linejoin:miter;"/>
   </g>
   <g id="patch_5">
    <path d="M 54 143.28 
L 388.8 143.28 
" style="fill:none;stroke:#000000;stroke-linecap:square;stroke-linejoin:miter;"/>
   </g>
   <g id="patch_6">
    <path d="M 54 34.56 
L 388.8 34.56 
" style="fill:none;stroke:#000000;stroke-linecap:square;stroke-linejoin:miter;"/>
   </g>
   <g id="legend_1">
    <g id="patch_7">
     <path d="M 343.075125 68.49575 
L 384.64 68.49575 
Q 386.4 68.49575 386.4 66.73575 
L 386.4 42.72 
Q 386.4 40.96 384.64 40.96 
L 343.075125 40.96 
Q 341.315125 40.96 341.315125 42.72 
L 341.315125 66.73575 
Q 341.315125 68.49575 343.075125 68.49575 
z
" style="fill:#4c4c4c;opacity:0.5;stroke:#4c4c4c;stroke-linejoin:miter;stroke-width:0.8;"/>
    </g>
    <g id="patch_8">
     <path d="M 341.075125 66.49575 
L 382.64 66.49575 
Q 384.4 66.49575 384.4 64.73575 
L 384.4 40.72 
Q 384.4 38.96 382.64 38.96 
L 341.075125 38.96 
Q 339.315125 38.96 339.315125 40.72 
L 339.315125 64.73575 
Q 339.315125 66.49575 341.075125 66.49575 
z
" style="fill:#ffffff;stroke:#000000;stroke-linejoin:miter;stroke-width:0.8;"/>
    </g>
    <g id="line2d_39">
     <path d="M 342.835125 45.698875 
L 349.875125 45.698875 
" style="fill:none;stroke:#e8000b;stroke-linecap:round;stroke-width:1.2;"/>
    </g>
    <g id="line2d_40"/>
    <g id="text_4">
     <!-- PECS -->
     <defs>
      <path d="M 7.71875 0 
L 7.71875 71.578125 
L 34.71875 71.578125 
Q 41.84375 71.578125 45.609375 70.90625 
Q 50.875 70.015625 54.4375 67.546875 
Q 58.015625 65.09375 60.1875 60.640625 
Q 62.359375 56.203125 62.359375 50.875 
Q 62.359375 41.75 56.546875 35.421875 
Q 50.734375 29.109375 35.546875 29.109375 
L 17.1875 29.109375 
L 17.1875 0 
z
M 17.1875 37.546875 
L 35.6875 37.546875 
Q 44.875 37.546875 48.734375 40.96875 
Q 52.59375 44.390625 52.59375 50.59375 
Q 52.59375 55.078125 50.3125 58.265625 
Q 48.046875 61.46875 44.34375 62.5 
Q 41.9375 63.140625 35.5 63.140625 
L 17.1875 63.140625 
z
" id="ArialMT-80"/>
      <path d="M 7.90625 0 
L 7.90625 71.578125 
L 59.671875 71.578125 
L 59.671875 63.140625 
L 17.390625 63.140625 
L 17.390625 41.21875 
L 56.984375 41.21875 
L 56.984375 32.8125 
L 17.390625 32.8125 
L 17.390625 8.453125 
L 61.328125 8.453125 
L 61.328125 0 
z
" id="ArialMT-69"/>
      <path d="M 58.796875 25.09375 
L 68.265625 22.703125 
Q 65.28125 11.03125 57.546875 4.90625 
Q 49.8125 -1.21875 38.625 -1.21875 
Q 27.046875 -1.21875 19.796875 3.484375 
Q 12.546875 8.203125 8.765625 17.140625 
Q 4.984375 26.078125 4.984375 36.328125 
Q 4.984375 47.515625 9.25 55.828125 
Q 13.53125 64.15625 21.40625 68.46875 
Q 29.296875 72.796875 38.765625 72.796875 
Q 49.515625 72.796875 56.828125 67.328125 
Q 64.15625 61.859375 67.046875 51.953125 
L 57.71875 49.75 
Q 55.21875 57.5625 50.484375 61.125 
Q 45.75 64.703125 38.578125 64.703125 
Q 30.328125 64.703125 24.78125 60.734375 
Q 19.234375 56.78125 16.984375 50.109375 
Q 14.75 43.453125 14.75 36.375 
Q 14.75 27.25 17.40625 20.4375 
Q 20.0625 13.625 25.671875 10.25 
Q 31.296875 6.890625 37.84375 6.890625 
Q 45.796875 6.890625 51.3125 11.46875 
Q 56.84375 16.0625 58.796875 25.09375 
z
" id="ArialMT-67"/>
      <path d="M 4.5 23 
L 13.421875 23.78125 
Q 14.0625 18.40625 16.375 14.96875 
Q 18.703125 11.53125 23.578125 9.40625 
Q 28.46875 7.28125 34.578125 7.28125 
Q 39.984375 7.28125 44.140625 8.890625 
Q 48.296875 10.5 50.3125 13.296875 
Q 52.34375 16.109375 52.34375 19.4375 
Q 52.34375 22.796875 50.390625 25.3125 
Q 48.4375 27.828125 43.953125 29.546875 
Q 41.0625 30.671875 31.203125 33.03125 
Q 21.34375 35.40625 17.390625 37.5 
Q 12.25 40.1875 9.734375 44.15625 
Q 7.234375 48.140625 7.234375 53.078125 
Q 7.234375 58.5 10.296875 63.203125 
Q 13.375 67.921875 19.28125 70.359375 
Q 25.203125 72.796875 32.421875 72.796875 
Q 40.375 72.796875 46.453125 70.234375 
Q 52.546875 67.671875 55.8125 62.6875 
Q 59.078125 57.71875 59.328125 51.421875 
L 50.25 50.734375 
Q 49.515625 57.515625 45.28125 60.984375 
Q 41.0625 64.453125 32.8125 64.453125 
Q 24.21875 64.453125 20.28125 61.296875 
Q 16.359375 58.15625 16.359375 53.71875 
Q 16.359375 49.859375 19.140625 47.359375 
Q 21.875 44.875 33.421875 42.265625 
Q 44.96875 39.65625 49.265625 37.703125 
Q 55.515625 34.8125 58.484375 30.390625 
Q 61.46875 25.984375 61.46875 20.21875 
Q 61.46875 14.5 58.203125 9.4375 
Q 54.9375 4.390625 48.796875 1.578125 
Q 42.671875 -1.21875 35.015625 -1.21875 
Q 25.296875 -1.21875 18.71875 1.609375 
Q 12.15625 4.4375 8.421875 10.125 
Q 4.6875 15.828125 4.5 23 
z
" id="ArialMT-83"/>
     </defs>
     <g transform="translate(356.915125 48.778875)scale(0.088 -0.088)">
      <use xlink:href="#ArialMT-80"/>
      <use x="66.699219" xlink:href="#ArialMT-69"/>
      <use x="133.398438" xlink:href="#ArialMT-67"/>
      <use x="205.615234" xlink:href="#ArialMT-83"/>
     </g>
    </g>
    <g id="line2d_41">
     <path d="M 342.835125 58.14675 
L 349.875125 58.14675 
" style="fill:none;stroke:#1ac938;stroke-linecap:round;stroke-width:1.2;"/>
    </g>
    <g id="line2d_42"/>
    <g id="text_5">
     <!-- JACS -->
     <defs>
      <path d="M 2.875 20.3125 
L 11.421875 21.484375 
Q 11.765625 13.28125 14.5 10.25 
Q 17.234375 7.234375 22.078125 7.234375 
Q 25.640625 7.234375 28.21875 8.859375 
Q 30.8125 10.5 31.78125 13.296875 
Q 32.765625 16.109375 32.765625 22.265625 
L 32.765625 71.578125 
L 42.234375 71.578125 
L 42.234375 22.796875 
Q 42.234375 13.8125 40.0625 8.875 
Q 37.890625 3.953125 33.171875 1.359375 
Q 28.46875 -1.21875 22.125 -1.21875 
Q 12.703125 -1.21875 7.6875 4.203125 
Q 2.6875 9.625 2.875 20.3125 
z
" id="ArialMT-74"/>
      <path d="M -0.140625 0 
L 27.34375 71.578125 
L 37.546875 71.578125 
L 66.84375 0 
L 56.0625 0 
L 47.703125 21.6875 
L 17.78125 21.6875 
L 9.90625 0 
z
M 20.515625 29.390625 
L 44.78125 29.390625 
L 37.3125 49.21875 
Q 33.890625 58.25 32.234375 64.0625 
Q 30.859375 57.171875 28.375 50.390625 
z
" id="ArialMT-65"/>
     </defs>
     <g transform="translate(356.915125 61.22675)scale(0.088 -0.088)">
      <use xlink:href="#ArialMT-74"/>
      <use x="50" xlink:href="#ArialMT-65"/>
      <use x="116.699219" xlink:href="#ArialMT-67"/>
      <use x="188.916016" xlink:href="#ArialMT-83"/>
     </g>
    </g>
   </g>
  </g>
  <g id="axes_2">
   <g id="patch_9">
    <path d="M 54 252 
L 388.8 252 
L 388.8 143.28 
L 54 143.28 
z
" style="fill:#ffffff;"/>
   </g>
   <g id="line2d_43">
    <path clip-path="url(#pef7746a7fe)" d="M 69.218182 148.221818 
L 69.71257 178.961029 
L 70.206959 150.165804 
L 70.701348 183.982808 
L 71.195736 181.671273 
L 71.690125 175.906932 
L 72.184514 194.827463 
L 72.678902 191.065491 
L 73.173291 203.867187 
L 73.66768 213.718682 
L 74.162068 209.466829 
L 74.656457 214.082519 
L 75.150846 211.254569 
L 75.645234 221.428638 
L 76.139623 227.221165 
L 76.634012 222.102834 
L 77.1284 219.375499 
L 77.622789 221.409608 
L 78.117178 228.763275 
L 78.611566 229.876564 
L 79.105955 226.869452 
L 79.600344 238.07104 
L 80.094732 224.854826 
L 80.589121 227.434767 
L 81.08351 226.861435 
L 81.577898 228.589159 
L 82.072287 235.12314 
L 82.566676 229.356007 
L 83.061064 234.404323 
L 83.555453 241.36797 
L 84.049842 239.323497 
L 84.54423 225.218538 
L 85.038619 238.921199 
L 85.533008 230.633357 
L 86.027396 238.63845 
L 86.521785 241.910928 
L 87.016174 241.950611 
L 87.510562 240.025676 
L 88.004951 240.997019 
L 88.49934 244.306356 
L 88.993728 234.356533 
L 89.488117 232.153238 
L 89.982506 245.861954 
L 90.476894 243.829192 
L 90.971283 238.612166 
L 91.465671 241.761374 
L 91.96006 243.786298 
L 92.454449 241.448787 
L 92.948837 232.738225 
L 93.443226 235.854681 
L 94.432003 245.145113 
L 94.926392 242.918549 
L 95.420781 242.186694 
L 95.915169 247.058182 
L 96.409558 244.043154 
L 96.903947 226.406147 
L 97.398335 243.08387 
L 97.892724 226.611921 
L 98.387113 231.236383 
L 98.881501 243.186244 
L 99.37589 240.748606 
L 99.870279 229.443676 
L 100.364667 236.938908 
L 100.859056 228.818085 
L 101.353445 238.890071 
L 101.847833 243.956093 
L 102.342222 240.52715 
L 102.836611 241.796501 
L 103.330999 242.412443 
L 103.825388 241.543035 
L 104.319777 220.876443 
L 104.814165 238.372575 
L 105.308554 229.296671 
L 105.802943 235.954916 
L 106.297331 236.303565 
L 106.79172 239.309939 
L 107.286109 240.515665 
L 107.780497 227.926263 
L 108.274886 232.080734 
L 108.769275 244.184163 
L 109.263663 227.477852 
L 109.758052 238.277775 
L 110.252441 225.173505 
L 110.746829 245.124788 
L 111.241218 222.927338 
L 111.735607 238.427349 
L 112.229995 229.404275 
L 112.724384 215.76855 
L 113.218772 238.941008 
L 114.20755 216.442104 
L 114.701938 228.589192 
L 115.690716 240.684742 
L 116.185104 235.768005 
L 116.679493 239.199763 
L 117.173882 239.995699 
L 117.66827 236.936769 
L 118.162659 243.773271 
L 118.657048 232.79588 
L 119.151436 241.980151 
L 119.645825 236.697989 
L 120.140214 219.241586 
L 120.634602 229.168544 
L 121.128991 210.880935 
L 121.62338 231.718235 
L 122.117768 242.162754 
L 122.612157 234.174198 
L 123.106546 234.480046 
L 123.600934 239.89175 
L 124.095323 236.023149 
L 124.589712 233.056287 
L 125.0841 227.923223 
L 125.578489 206.380659 
L 126.072878 220.227217 
L 127.061655 232.174982 
L 127.556044 212.287619 
L 128.050432 235.579113 
L 128.544821 238.344089 
L 129.03921 223.199185 
L 129.533598 224.688722 
L 130.027987 242.784774 
L 130.522376 231.188062 
L 131.016764 241.208615 
L 131.511153 230.745408 
L 132.005542 238.863603 
L 132.49993 230.426707 
L 132.994319 224.243713 
L 133.488708 235.417743 
L 133.983096 237.468119 
L 134.477485 241.158613 
L 134.971873 225.48897 
L 135.466262 213.867771 
L 135.960651 237.139061 
L 136.455039 229.377622 
L 136.949428 213.509631 
L 137.443817 227.959445 
L 137.938205 236.728005 
L 138.432594 227.59355 
L 138.926983 237.222731 
L 139.421371 233.806947 
L 139.91576 233.421655 
L 140.410149 230.987469 
L 140.904537 235.803417 
L 141.398926 212.44209 
L 141.893315 240.031714 
L 142.387703 243.978487 
L 142.882092 242.21143 
L 143.376481 225.770169 
L 143.870869 241.3682 
L 144.859647 231.920975 
L 145.354035 237.525775 
L 145.848424 237.806091 
L 146.342813 232.137065 
L 146.837201 227.816958 
L 147.33159 243.722143 
L 147.825979 220.865765 
L 148.320367 236.75158 
L 148.814756 243.631534 
L 149.803533 229.39682 
L 150.297922 233.592612 
L 150.792311 233.938326 
L 151.286699 228.334319 
L 151.781088 245.96253 
L 152.275477 225.846246 
L 152.769865 239.024103 
L 153.264254 244.483474 
L 153.758643 239.738032 
L 154.253031 237.101406 
L 154.74742 239.21519 
L 155.241809 230.194091 
L 155.736197 237.228346 
L 156.230586 237.141403 
L 156.724974 239.884704 
L 157.219363 236.451186 
L 157.713752 239.672713 
L 158.20814 246.233852 
L 158.702529 239.48376 
L 159.196918 240.925184 
L 159.691306 239.73055 
L 160.185695 231.774175 
L 160.680084 233.893521 
L 161.174472 241.132273 
L 161.668861 242.037236 
L 162.657638 239.680879 
L 163.152027 246.169432 
L 163.646416 242.522393 
L 164.140804 230.543193 
L 164.635193 230.278167 
L 165.129582 228.838883 
L 165.62397 226.58905 
L 166.118359 232.366195 
L 166.612748 223.248043 
L 167.107136 240.969487 
L 167.601525 240.186321 
L 168.095914 223.129184 
L 168.590302 232.240375 
L 169.084691 246.522619 
L 169.57908 219.07677 
L 170.073468 226.202729 
L 170.567857 226.792572 
L 171.062246 243.127042 
L 171.556634 234.390799 
L 172.051023 244.501645 
L 172.545412 231.829374 
L 173.0398 235.854127 
L 173.534189 227.208832 
L 174.028578 225.016608 
L 174.522966 237.82586 
L 175.017355 240.420924 
L 175.511744 222.538419 
L 176.006132 226.589218 
L 176.500521 236.131343 
L 176.99491 241.221494 
L 177.489298 234.007562 
L 177.983687 232.705162 
L 178.478075 236.191257 
L 178.972464 237.942567 
L 179.466853 230.884397 
L 179.961241 231.278762 
L 180.45563 238.813804 
L 180.950019 234.096984 
L 181.444407 232.234014 
L 181.938796 244.46246 
L 182.433185 241.630648 
L 182.927573 232.616637 
L 183.421962 227.212884 
L 183.916351 245.130975 
L 184.410739 245.23256 
L 184.905128 236.358318 
L 185.399517 241.389614 
L 185.893905 235.891419 
L 186.388294 224.171866 
L 186.882683 240.192179 
L 187.377071 222.177928 
L 187.87146 234.998574 
L 188.365849 240.120673 
L 188.860237 229.38365 
L 189.354626 225.758934 
L 189.849015 214.444829 
L 190.343403 223.648827 
L 190.837792 226.531762 
L 191.332181 234.861297 
L 191.826569 226.013334 
L 192.320958 234.357929 
L 192.815347 220.942456 
L 193.309735 226.065609 
L 193.804124 240.305525 
L 194.298513 228.179788 
L 194.792901 234.84611 
L 195.28729 222.808428 
L 195.781679 229.810563 
L 196.276067 229.78155 
L 196.770456 241.48128 
L 197.264845 224.966058 
L 197.759233 239.056197 
L 198.253622 243.055597 
L 198.748011 237.21431 
L 199.242399 234.116922 
L 199.736788 240.506788 
L 200.231177 228.788656 
L 200.725565 214.013182 
L 201.219954 227.669514 
L 201.714342 228.101933 
L 202.208731 218.937103 
L 202.70312 206.927925 
L 203.197508 230.039194 
L 203.691897 226.292927 
L 204.186286 233.887339 
L 204.680674 235.285181 
L 205.175063 238.115279 
L 205.669452 231.639025 
L 206.658229 224.495637 
L 207.152618 242.929201 
L 207.647006 232.451981 
L 208.141395 241.168203 
L 208.635784 242.290346 
L 209.130172 230.670517 
L 209.624561 228.599678 
L 210.11895 218.523441 
L 210.613338 231.443963 
L 211.107727 240.47608 
L 211.602116 239.128671 
L 212.096504 218.435782 
L 212.590893 236.3864 
L 213.085282 238.962492 
L 213.57967 224.845931 
L 214.074059 222.402587 
L 215.062836 240.021355 
L 215.557225 221.739101 
L 216.051614 220.209734 
L 216.546002 228.503435 
L 217.040391 232.668545 
L 217.53478 229.981369 
L 218.029168 241.784704 
L 219.017946 227.719506 
L 219.512334 233.648172 
L 220.006723 235.224651 
L 220.501112 227.250189 
L 221.489889 232.356566 
L 221.984278 240.849973 
L 222.478666 234.979081 
L 222.973055 242.803473 
L 223.467443 232.737746 
L 223.961832 243.370986 
L 224.456221 237.110201 
L 224.950609 219.862428 
L 225.444998 234.67809 
L 225.939387 241.950294 
L 226.433775 225.376498 
L 226.928164 242.957778 
L 227.422553 230.855654 
L 227.916941 239.054548 
L 228.41133 226.944135 
L 228.905719 237.282619 
L 229.400107 227.356228 
L 229.894496 234.702031 
L 230.388885 229.997544 
L 230.883273 223.38032 
L 231.377662 242.45342 
L 231.872051 234.285116 
L 232.366439 240.773182 
L 232.860828 233.167044 
L 233.355217 232.541451 
L 233.849605 227.671074 
L 234.343994 239.615197 
L 234.838383 229.465328 
L 235.332771 229.897098 
L 236.321549 222.614121 
L 236.815937 239.608705 
L 237.310326 244.942759 
L 237.804715 236.382286 
L 238.299103 216.222873 
L 239.287881 242.544298 
L 239.782269 203.96253 
L 240.276658 241.349901 
L 240.771047 236.489774 
L 241.265435 236.219939 
L 241.759824 220.160678 
L 242.254213 232.007236 
L 242.748601 220.462151 
L 243.24299 224.877171 
L 243.737379 234.084716 
L 244.231767 240.393688 
L 244.726156 232.912065 
L 245.220544 238.223661 
L 245.714933 224.70303 
L 246.209322 236.423118 
L 246.70371 236.454219 
L 247.198099 224.793976 
L 247.692488 225.4458 
L 248.186876 233.243243 
L 248.681265 235.299823 
L 249.175654 230.798947 
L 249.670042 240.224335 
L 250.164431 230.598184 
L 250.65882 234.280652 
L 251.153208 233.076663 
L 251.647597 243.034704 
L 252.141986 223.707435 
L 252.636374 231.93057 
L 253.130763 243.005645 
L 253.625152 245.052725 
L 254.11954 233.468061 
L 254.613929 240.466959 
L 255.108318 235.008681 
L 255.602706 227.462699 
L 256.097095 243.264837 
L 256.591484 236.813572 
L 257.085872 238.111451 
L 257.580261 233.36227 
L 258.07465 212.676444 
L 258.569038 237.753565 
L 259.063427 233.913008 
L 260.052204 243.928141 
L 260.546593 235.456775 
L 261.040982 237.358179 
L 261.53537 224.970776 
L 262.029759 232.598358 
L 262.524148 228.89368 
L 263.018536 240.778843 
L 263.512925 224.454778 
L 264.007314 227.420589 
L 264.501702 229.293299 
L 264.996091 233.716565 
L 265.49048 216.669638 
L 265.984868 236.662676 
L 266.479257 200.132757 
L 266.973645 231.544539 
L 267.468034 237.961518 
L 267.962423 218.38062 
L 268.456811 226.805924 
L 268.9512 217.620687 
L 269.445589 236.097532 
L 269.939977 230.191826 
L 270.434366 234.307495 
L 270.928755 232.483228 
L 271.423143 225.203682 
L 271.917532 242.02732 
L 272.411921 240.771392 
L 272.906309 241.523713 
L 273.400698 239.285906 
L 273.895087 233.926137 
L 274.389475 215.336634 
L 274.883864 233.000258 
L 275.378253 205.442354 
L 275.872641 230.995948 
L 276.36703 213.598763 
L 277.355807 236.97338 
L 277.850196 240.524198 
L 278.344585 236.379003 
L 278.838973 235.159088 
L 279.333362 235.25999 
L 279.827751 235.880981 
L 280.322139 231.206415 
L 280.816528 238.204657 
L 281.310917 239.719017 
L 281.805305 235.388146 
L 282.299694 240.98562 
L 282.794083 239.517929 
L 283.288471 240.707982 
L 283.78286 241.299965 
L 284.277249 229.563751 
L 284.771637 243.685427 
L 285.266026 240.064191 
L 285.760415 242.285425 
L 286.254803 240.419265 
L 286.749192 234.69508 
L 287.243581 235.653901 
L 287.737969 234.634817 
L 288.232358 232.639815 
L 288.726746 242.510562 
L 289.221135 236.983159 
L 289.715524 237.064993 
L 290.209912 235.761198 
L 290.704301 218.764534 
L 291.19869 233.928059 
L 291.693078 238.949525 
L 292.187467 227.212807 
L 292.681856 232.271612 
L 293.176244 238.653276 
L 293.670633 241.554875 
L 294.165022 234.548027 
L 294.65941 215.832799 
L 295.153799 242.27112 
L 295.648188 240.230281 
L 296.142576 232.585451 
L 296.636965 229.399737 
L 297.131354 236.120697 
L 297.625742 223.654225 
L 298.120131 245.585064 
L 298.61452 233.717976 
L 299.108908 243.675136 
L 299.603297 225.67639 
L 300.097686 234.937498 
L 300.592074 231.050788 
L 301.086463 235.31218 
L 301.580852 243.412149 
L 302.07524 220.827885 
L 302.569629 239.378189 
L 303.064018 236.176488 
L 303.558406 239.955674 
L 304.052795 224.906925 
L 304.547184 233.205844 
L 305.041572 226.06855 
L 305.535961 215.182884 
L 306.03035 215.945894 
L 306.524738 228.828465 
L 307.019127 236.265245 
L 307.513516 235.96033 
L 308.007904 224.037988 
L 308.502293 219.136275 
L 308.996682 223.583827 
L 309.49107 240.321396 
L 309.985459 236.682188 
L 310.479848 229.908003 
L 310.974236 242.362848 
L 311.468625 227.741432 
L 311.963013 228.937383 
L 312.457402 240.270207 
L 312.951791 228.120612 
L 313.446179 232.860647 
L 313.940568 221.151675 
L 314.434957 241.647673 
L 314.929345 233.350375 
L 315.423734 220.544775 
L 315.918123 228.131255 
L 316.412511 224.434534 
L 316.9069 232.770319 
L 317.401289 238.246619 
L 317.895677 232.344882 
L 318.390066 236.123389 
L 318.884455 223.332096 
L 319.378843 226.942271 
L 319.873232 227.310537 
L 320.367621 241.058801 
L 320.862009 233.916796 
L 321.356398 231.775915 
L 321.850787 210.837679 
L 322.345175 231.6516 
L 322.839564 235.597984 
L 323.333953 219.856202 
L 323.828341 230.628869 
L 324.32273 229.517129 
L 324.817119 233.562589 
L 325.311507 223.703731 
L 325.805896 225.553514 
L 326.300285 229.111484 
L 326.794673 216.352918 
L 327.289062 221.376237 
L 327.783451 233.477315 
L 328.277839 231.807273 
L 328.772228 238.678131 
L 329.266617 221.94585 
L 329.761005 234.09357 
L 330.255394 242.270277 
L 330.749783 233.211692 
L 331.244171 233.888926 
L 331.73856 221.974921 
L 332.232949 237.11225 
L 332.727337 232.595462 
L 333.716114 220.504547 
L 334.210503 224.318426 
L 334.704892 233.765491 
L 335.19928 230.632504 
L 335.693669 240.36657 
L 336.188058 232.81903 
L 336.682446 236.815558 
L 337.176835 226.867042 
L 337.671224 229.445776 
L 338.165612 230.770041 
L 338.660001 229.536549 
L 339.15439 231.737748 
L 339.648778 240.394102 
L 340.143167 231.751755 
L 340.637556 235.577121 
L 341.131944 235.138384 
L 341.626333 239.465011 
L 342.120722 222.640089 
L 342.61511 225.60652 
L 343.109499 232.590777 
L 343.603888 233.520093 
L 344.098276 240.116207 
L 344.592665 238.336168 
L 345.087054 237.173793 
L 345.581442 223.756289 
L 346.075831 235.817213 
L 346.57022 235.044251 
L 347.064608 243.580778 
L 347.558997 227.202698 
L 348.053386 237.216597 
L 349.042163 237.45511 
L 349.536552 231.083421 
L 350.03094 238.902108 
L 350.525329 244.598216 
L 351.019718 240.980012 
L 351.514106 239.104298 
L 352.008495 233.043726 
L 352.502884 237.330729 
L 352.997272 237.212189 
L 353.491661 240.850307 
L 353.98605 238.819394 
L 355.469215 238.534009 
L 355.963604 234.412784 
L 356.457993 222.050335 
L 356.952381 234.56327 
L 357.44677 240.20664 
L 357.941159 237.421367 
L 358.435547 221.555027 
L 358.929936 244.024397 
L 359.424325 240.894161 
L 359.918713 226.890658 
L 360.413102 237.651747 
L 360.907491 226.576127 
L 361.401879 228.646677 
L 361.896268 234.443957 
L 362.390657 222.780011 
L 362.885045 239.456984 
L 363.379434 224.148498 
L 363.873823 238.957491 
L 364.368211 232.514518 
L 364.8626 244.731479 
L 365.356989 235.898504 
L 365.851377 234.254933 
L 366.345766 241.104498 
L 366.840155 220.629815 
L 367.334543 230.760801 
L 367.828932 226.028362 
L 368.323321 238.491123 
L 368.817709 223.834045 
L 369.312098 231.663454 
L 369.806487 229.635502 
L 370.300875 243.041891 
L 370.795264 234.860988 
L 371.289653 229.333884 
L 371.784041 225.637992 
L 372.772819 237.563334 
L 373.267207 234.660132 
L 373.581818 222.035277 
L 373.581818 222.035277 
" style="fill:none;stroke:#1ac938;stroke-linecap:round;stroke-width:1.2;"/>
   </g>
   <g id="matplotlib.axis_3">
    <g id="xtick_9">
     <g id="line2d_44">
      <g>
       <use style="stroke:#000000;" x="68.274349" xlink:href="#m7fd3d3183c" y="252"/>
      </g>
     </g>
     <g id="line2d_45">
      <g>
       <use style="stroke:#000000;" x="68.274349" xlink:href="#m24cd45a4aa" y="143.28"/>
      </g>
     </g>
     <g id="text_6">
      <!-- $\mathdefault{0.0}$ -->
      <defs>
       <path d="M 9.078125 0 
L 9.078125 10.015625 
L 19.09375 10.015625 
L 19.09375 0 
z
" id="ArialMT-46"/>
      </defs>
      <g transform="translate(62.114349 261.798875)scale(0.088 -0.088)">
       <use transform="translate(0 0.125)" xlink:href="#ArialMT-48"/>
       <use transform="translate(55.615234 0.125)" xlink:href="#ArialMT-46"/>
       <use transform="translate(83.398438 0.125)" xlink:href="#ArialMT-48"/>
      </g>
     </g>
    </g>
    <g id="xtick_10">
     <g id="line2d_46">
      <g>
       <use style="stroke:#000000;" x="113.218772" xlink:href="#m7fd3d3183c" y="252"/>
      </g>
     </g>
     <g id="line2d_47">
      <g>
       <use style="stroke:#000000;" x="113.218772" xlink:href="#m24cd45a4aa" y="143.28"/>
      </g>
     </g>
     <g id="text_7">
      <!-- $\mathdefault{0.2}$ -->
      <defs>
       <path d="M 50.34375 8.453125 
L 50.34375 0 
L 3.03125 0 
Q 2.9375 3.171875 4.046875 6.109375 
Q 5.859375 10.9375 9.828125 15.625 
Q 13.8125 20.3125 21.34375 26.46875 
Q 33.015625 36.03125 37.109375 41.625 
Q 41.21875 47.21875 41.21875 52.203125 
Q 41.21875 57.421875 37.46875 61 
Q 33.734375 64.59375 27.734375 64.59375 
Q 21.390625 64.59375 17.578125 60.78125 
Q 13.765625 56.984375 13.71875 50.25 
L 4.6875 51.171875 
Q 5.609375 61.28125 11.65625 66.578125 
Q 17.71875 71.875 27.9375 71.875 
Q 38.234375 71.875 44.234375 66.15625 
Q 50.25 60.453125 50.25 52 
Q 50.25 47.703125 48.484375 43.546875 
Q 46.734375 39.40625 42.65625 34.8125 
Q 38.578125 30.21875 29.109375 22.21875 
Q 21.1875 15.578125 18.9375 13.203125 
Q 16.703125 10.84375 15.234375 8.453125 
z
" id="ArialMT-50"/>
      </defs>
      <g transform="translate(107.058772 261.798875)scale(0.088 -0.088)">
       <use transform="translate(0 0.125)" xlink:href="#ArialMT-48"/>
       <use transform="translate(55.615234 0.125)" xlink:href="#ArialMT-46"/>
       <use transform="translate(83.398438 0.125)" xlink:href="#ArialMT-50"/>
      </g>
     </g>
    </g>
    <g id="xtick_11">
     <g id="line2d_48">
      <g>
       <use style="stroke:#000000;" x="158.163196" xlink:href="#m7fd3d3183c" y="252"/>
      </g>
     </g>
     <g id="line2d_49">
      <g>
       <use style="stroke:#000000;" x="158.163196" xlink:href="#m24cd45a4aa" y="143.28"/>
      </g>
     </g>
     <g id="text_8">
      <!-- $\mathdefault{0.4}$ -->
      <defs>
       <path d="M 32.328125 0 
L 32.328125 17.140625 
L 1.265625 17.140625 
L 1.265625 25.203125 
L 33.9375 71.578125 
L 41.109375 71.578125 
L 41.109375 25.203125 
L 50.78125 25.203125 
L 50.78125 17.140625 
L 41.109375 17.140625 
L 41.109375 0 
z
M 32.328125 25.203125 
L 32.328125 57.46875 
L 9.90625 25.203125 
z
" id="ArialMT-52"/>
      </defs>
      <g transform="translate(152.003196 261.798875)scale(0.088 -0.088)">
       <use transform="translate(0 0.125)" xlink:href="#ArialMT-48"/>
       <use transform="translate(55.615234 0.125)" xlink:href="#ArialMT-46"/>
       <use transform="translate(83.398438 0.125)" xlink:href="#ArialMT-52"/>
      </g>
     </g>
    </g>
    <g id="xtick_12">
     <g id="line2d_50">
      <g>
       <use style="stroke:#000000;" x="203.10762" xlink:href="#m7fd3d3183c" y="252"/>
      </g>
     </g>
     <g id="line2d_51">
      <g>
       <use style="stroke:#000000;" x="203.10762" xlink:href="#m24cd45a4aa" y="143.28"/>
      </g>
     </g>
     <g id="text_9">
      <!-- $\mathdefault{0.6}$ -->
      <defs>
       <path d="M 49.75 54.046875 
L 41.015625 53.375 
Q 39.84375 58.546875 37.703125 60.890625 
Q 34.125 64.65625 28.90625 64.65625 
Q 24.703125 64.65625 21.53125 62.3125 
Q 17.390625 59.28125 14.984375 53.46875 
Q 12.59375 47.65625 12.5 36.921875 
Q 15.671875 41.75 20.265625 44.09375 
Q 24.859375 46.4375 29.890625 46.4375 
Q 38.671875 46.4375 44.84375 39.96875 
Q 51.03125 33.5 51.03125 23.25 
Q 51.03125 16.5 48.125 10.71875 
Q 45.21875 4.9375 40.140625 1.859375 
Q 35.0625 -1.21875 28.609375 -1.21875 
Q 17.625 -1.21875 10.6875 6.859375 
Q 3.765625 14.9375 3.765625 33.5 
Q 3.765625 54.25 11.421875 63.671875 
Q 18.109375 71.875 29.4375 71.875 
Q 37.890625 71.875 43.28125 67.140625 
Q 48.6875 62.40625 49.75 54.046875 
z
M 13.875 23.1875 
Q 13.875 18.65625 15.796875 14.5 
Q 17.71875 10.359375 21.1875 8.171875 
Q 24.65625 6 28.46875 6 
Q 34.03125 6 38.03125 10.484375 
Q 42.046875 14.984375 42.046875 22.703125 
Q 42.046875 30.125 38.078125 34.390625 
Q 34.125 38.671875 28.125 38.671875 
Q 22.171875 38.671875 18.015625 34.390625 
Q 13.875 30.125 13.875 23.1875 
z
" id="ArialMT-54"/>
      </defs>
      <g transform="translate(196.94762 261.798875)scale(0.088 -0.088)">
       <use transform="translate(0 0.125)" xlink:href="#ArialMT-48"/>
       <use transform="translate(55.615234 0.125)" xlink:href="#ArialMT-46"/>
       <use transform="translate(83.398438 0.125)" xlink:href="#ArialMT-54"/>
      </g>
     </g>
    </g>
    <g id="xtick_13">
     <g id="line2d_52">
      <g>
       <use style="stroke:#000000;" x="248.052043" xlink:href="#m7fd3d3183c" y="252"/>
      </g>
     </g>
     <g id="line2d_53">
      <g>
       <use style="stroke:#000000;" x="248.052043" xlink:href="#m24cd45a4aa" y="143.28"/>
      </g>
     </g>
     <g id="text_10">
      <!-- $\mathdefault{0.8}$ -->
      <defs>
       <path d="M 17.671875 38.8125 
Q 12.203125 40.828125 9.5625 44.53125 
Q 6.9375 48.25 6.9375 53.421875 
Q 6.9375 61.234375 12.546875 66.546875 
Q 18.171875 71.875 27.484375 71.875 
Q 36.859375 71.875 42.578125 66.421875 
Q 48.296875 60.984375 48.296875 53.171875 
Q 48.296875 48.1875 45.671875 44.5 
Q 43.0625 40.828125 37.75 38.8125 
Q 44.34375 36.671875 47.78125 31.875 
Q 51.21875 27.09375 51.21875 20.453125 
Q 51.21875 11.28125 44.71875 5.03125 
Q 38.234375 -1.21875 27.640625 -1.21875 
Q 17.046875 -1.21875 10.546875 5.046875 
Q 4.046875 11.328125 4.046875 20.703125 
Q 4.046875 27.6875 7.59375 32.390625 
Q 11.140625 37.109375 17.671875 38.8125 
z
M 15.921875 53.71875 
Q 15.921875 48.640625 19.1875 45.40625 
Q 22.46875 42.1875 27.6875 42.1875 
Q 32.765625 42.1875 36.015625 45.375 
Q 39.265625 48.578125 39.265625 53.21875 
Q 39.265625 58.0625 35.90625 61.359375 
Q 32.5625 64.65625 27.59375 64.65625 
Q 22.5625 64.65625 19.234375 61.421875 
Q 15.921875 58.203125 15.921875 53.71875 
z
M 13.09375 20.65625 
Q 13.09375 16.890625 14.875 13.375 
Q 16.65625 9.859375 20.171875 7.921875 
Q 23.6875 6 27.734375 6 
Q 34.03125 6 38.125 10.046875 
Q 42.234375 14.109375 42.234375 20.359375 
Q 42.234375 26.703125 38.015625 30.859375 
Q 33.796875 35.015625 27.4375 35.015625 
Q 21.234375 35.015625 17.15625 30.90625 
Q 13.09375 26.8125 13.09375 20.65625 
z
" id="ArialMT-56"/>
      </defs>
      <g transform="translate(241.892043 261.798875)scale(0.088 -0.088)">
       <use transform="translate(0 0.125)" xlink:href="#ArialMT-48"/>
       <use transform="translate(55.615234 0.125)" xlink:href="#ArialMT-46"/>
       <use transform="translate(83.398438 0.125)" xlink:href="#ArialMT-56"/>
      </g>
     </g>
    </g>
    <g id="xtick_14">
     <g id="line2d_54">
      <g>
       <use style="stroke:#000000;" x="292.996467" xlink:href="#m7fd3d3183c" y="252"/>
      </g>
     </g>
     <g id="line2d_55">
      <g>
       <use style="stroke:#000000;" x="292.996467" xlink:href="#m24cd45a4aa" y="143.28"/>
      </g>
     </g>
     <g id="text_11">
      <!-- $\mathdefault{1.0}$ -->
      <g transform="translate(286.836467 261.798875)scale(0.088 -0.088)">
       <use transform="translate(0 0.125)" xlink:href="#ArialMT-49"/>
       <use transform="translate(55.615234 0.125)" xlink:href="#ArialMT-46"/>
       <use transform="translate(83.398438 0.125)" xlink:href="#ArialMT-48"/>
      </g>
     </g>
    </g>
    <g id="xtick_15">
     <g id="line2d_56">
      <g>
       <use style="stroke:#000000;" x="337.94089" xlink:href="#m7fd3d3183c" y="252"/>
      </g>
     </g>
     <g id="line2d_57">
      <g>
       <use style="stroke:#000000;" x="337.94089" xlink:href="#m24cd45a4aa" y="143.28"/>
      </g>
     </g>
     <g id="text_12">
      <!-- $\mathdefault{1.2}$ -->
      <g transform="translate(331.78089 261.798875)scale(0.088 -0.088)">
       <use transform="translate(0 0.125)" xlink:href="#ArialMT-49"/>
       <use transform="translate(55.615234 0.125)" xlink:href="#ArialMT-46"/>
       <use transform="translate(83.398438 0.125)" xlink:href="#ArialMT-50"/>
      </g>
     </g>
    </g>
    <g id="xtick_16">
     <g id="line2d_58">
      <g>
       <use style="stroke:#000000;" x="382.885314" xlink:href="#m7fd3d3183c" y="252"/>
      </g>
     </g>
     <g id="line2d_59">
      <g>
       <use style="stroke:#000000;" x="382.885314" xlink:href="#m24cd45a4aa" y="143.28"/>
      </g>
     </g>
     <g id="text_13">
      <!-- $\mathdefault{1.4}$ -->
      <g transform="translate(376.725314 261.798875)scale(0.088 -0.088)">
       <use transform="translate(0 0.125)" xlink:href="#ArialMT-49"/>
       <use transform="translate(55.615234 0.125)" xlink:href="#ArialMT-46"/>
       <use transform="translate(83.398438 0.125)" xlink:href="#ArialMT-52"/>
      </g>
     </g>
    </g>
    <g id="text_14">
     <!-- evaluations -->
     <defs>
      <path d="M 21 0 
L 1.265625 51.859375 
L 10.546875 51.859375 
L 21.6875 20.796875 
Q 23.484375 15.765625 25 10.359375 
Q 26.171875 14.453125 28.265625 20.21875 
L 39.796875 51.859375 
L 48.828125 51.859375 
L 29.203125 0 
z
" id="ArialMT-118"/>
      <path d="M 40.4375 6.390625 
Q 35.546875 2.25 31.03125 0.53125 
Q 26.515625 -1.171875 21.34375 -1.171875 
Q 12.796875 -1.171875 8.203125 3 
Q 3.609375 7.171875 3.609375 13.671875 
Q 3.609375 17.484375 5.34375 20.625 
Q 7.078125 23.78125 9.890625 25.6875 
Q 12.703125 27.59375 16.21875 28.5625 
Q 18.796875 29.25 24.03125 29.890625 
Q 34.671875 31.15625 39.703125 32.90625 
Q 39.75 34.71875 39.75 35.203125 
Q 39.75 40.578125 37.25 42.78125 
Q 33.890625 45.75 27.25 45.75 
Q 21.046875 45.75 18.09375 43.578125 
Q 15.140625 41.40625 13.71875 35.890625 
L 5.125 37.0625 
Q 6.296875 42.578125 8.984375 45.96875 
Q 11.671875 49.359375 16.75 51.1875 
Q 21.828125 53.03125 28.515625 53.03125 
Q 35.15625 53.03125 39.296875 51.46875 
Q 43.453125 49.90625 45.40625 47.53125 
Q 47.359375 45.171875 48.140625 41.546875 
Q 48.578125 39.3125 48.578125 33.453125 
L 48.578125 21.734375 
Q 48.578125 9.46875 49.140625 6.21875 
Q 49.703125 2.984375 51.375 0 
L 42.1875 0 
Q 40.828125 2.734375 40.4375 6.390625 
z
M 39.703125 26.03125 
Q 34.90625 24.078125 25.34375 22.703125 
Q 19.921875 21.921875 17.671875 20.9375 
Q 15.4375 19.96875 14.203125 18.09375 
Q 12.984375 16.21875 12.984375 13.921875 
Q 12.984375 10.40625 15.640625 8.0625 
Q 18.3125 5.71875 23.4375 5.71875 
Q 28.515625 5.71875 32.46875 7.9375 
Q 36.421875 10.15625 38.28125 14.015625 
Q 39.703125 17 39.703125 22.796875 
z
" id="ArialMT-97"/>
      <path d="M 6.390625 0 
L 6.390625 71.578125 
L 15.1875 71.578125 
L 15.1875 0 
z
" id="ArialMT-108"/>
      <path d="M 40.578125 0 
L 40.578125 7.625 
Q 34.515625 -1.171875 24.125 -1.171875 
Q 19.53125 -1.171875 15.546875 0.578125 
Q 11.578125 2.34375 9.640625 5 
Q 7.71875 7.671875 6.9375 11.53125 
Q 6.390625 14.109375 6.390625 19.734375 
L 6.390625 51.859375 
L 15.1875 51.859375 
L 15.1875 23.09375 
Q 15.1875 16.21875 15.71875 13.8125 
Q 16.546875 10.359375 19.234375 8.375 
Q 21.921875 6.390625 25.875 6.390625 
Q 29.828125 6.390625 33.296875 8.421875 
Q 36.765625 10.453125 38.203125 13.9375 
Q 39.65625 17.4375 39.65625 24.078125 
L 39.65625 51.859375 
L 48.4375 51.859375 
L 48.4375 0 
z
" id="ArialMT-117"/>
      <path d="M 3.328125 25.921875 
Q 3.328125 40.328125 11.328125 47.265625 
Q 18.015625 53.03125 27.640625 53.03125 
Q 38.328125 53.03125 45.109375 46.015625 
Q 51.90625 39.015625 51.90625 26.65625 
Q 51.90625 16.65625 48.90625 10.90625 
Q 45.90625 5.171875 40.15625 2 
Q 34.421875 -1.171875 27.640625 -1.171875 
Q 16.75 -1.171875 10.03125 5.8125 
Q 3.328125 12.796875 3.328125 25.921875 
z
M 12.359375 25.921875 
Q 12.359375 15.96875 16.703125 11.015625 
Q 21.046875 6.0625 27.640625 6.0625 
Q 34.1875 6.0625 38.53125 11.03125 
Q 42.875 16.015625 42.875 26.21875 
Q 42.875 35.84375 38.5 40.796875 
Q 34.125 45.75 27.640625 45.75 
Q 21.046875 45.75 16.703125 40.8125 
Q 12.359375 35.890625 12.359375 25.921875 
z
" id="ArialMT-111"/>
     </defs>
     <g transform="translate(197.118 274.419375)scale(0.096 -0.096)">
      <use xlink:href="#ArialMT-101"/>
      <use x="55.615234" xlink:href="#ArialMT-118"/>
      <use x="105.615234" xlink:href="#ArialMT-97"/>
      <use x="161.230469" xlink:href="#ArialMT-108"/>
      <use x="183.447266" xlink:href="#ArialMT-117"/>
      <use x="239.0625" xlink:href="#ArialMT-97"/>
      <use x="294.677734" xlink:href="#ArialMT-116"/>
      <use x="322.460938" xlink:href="#ArialMT-105"/>
      <use x="344.677734" xlink:href="#ArialMT-111"/>
      <use x="400.292969" xlink:href="#ArialMT-110"/>
      <use x="455.908203" xlink:href="#ArialMT-115"/>
     </g>
    </g>
    <g id="text_15">
     <!-- $\times\mathdefault{10^{4}}\mathdefault{}$ -->
     <defs>
      <path d="M 70.125 53.71875 
L 47.796875 31.296875 
L 70.125 8.984375 
L 64.3125 3.078125 
L 41.890625 25.484375 
L 19.484375 3.078125 
L 13.71875 8.984375 
L 35.984375 31.296875 
L 13.71875 53.71875 
L 19.484375 59.625 
L 41.890625 37.203125 
L 64.3125 59.625 
z
" id="DejaVuSans-215"/>
     </defs>
     <g transform="translate(367.592 275.534875)scale(0.088 -0.088)">
      <use transform="translate(0 0.201563)" xlink:href="#DejaVuSans-215"/>
      <use transform="translate(83.789062 0.201563)" xlink:href="#ArialMT-49"/>
      <use transform="translate(139.404297 0.201563)" xlink:href="#ArialMT-48"/>
      <use transform="translate(196.761875 69.895313)scale(0.7)" xlink:href="#ArialMT-52"/>
     </g>
    </g>
   </g>
   <g id="matplotlib.axis_4">
    <g id="ytick_11">
     <g id="line2d_60">
      <g>
       <use style="stroke:#000000;" x="54" xlink:href="#m92093fc952" y="236.947506"/>
      </g>
     </g>
     <g id="line2d_61">
      <g>
       <use style="stroke:#000000;" x="388.8" xlink:href="#m8de4ddd1cd" y="236.947506"/>
      </g>
     </g>
     <g id="text_16">
      <!-- 0.2 -->
      <g transform="translate(38.268 240.096943)scale(0.088 -0.088)">
       <use xlink:href="#ArialMT-48"/>
       <use x="55.615234" xlink:href="#ArialMT-46"/>
       <use x="83.398438" xlink:href="#ArialMT-50"/>
      </g>
     </g>
    </g>
    <g id="ytick_12">
     <g id="line2d_62">
      <g>
       <use style="stroke:#000000;" x="54" xlink:href="#m92093fc952" y="216.322919"/>
      </g>
     </g>
     <g id="line2d_63">
      <g>
       <use style="stroke:#000000;" x="388.8" xlink:href="#m8de4ddd1cd" y="216.322919"/>
      </g>
     </g>
     <g id="text_17">
      <!-- 0.4 -->
      <g transform="translate(38.268 219.472357)scale(0.088 -0.088)">
       <use xlink:href="#ArialMT-48"/>
       <use x="55.615234" xlink:href="#ArialMT-46"/>
       <use x="83.398438" xlink:href="#ArialMT-52"/>
      </g>
     </g>
    </g>
    <g id="ytick_13">
     <g id="line2d_64">
      <g>
       <use style="stroke:#000000;" x="54" xlink:href="#m92093fc952" y="195.698332"/>
      </g>
     </g>
     <g id="line2d_65">
      <g>
       <use style="stroke:#000000;" x="388.8" xlink:href="#m8de4ddd1cd" y="195.698332"/>
      </g>
     </g>
     <g id="text_18">
      <!-- 0.6 -->
      <g transform="translate(38.268 198.84777)scale(0.088 -0.088)">
       <use xlink:href="#ArialMT-48"/>
       <use x="55.615234" xlink:href="#ArialMT-46"/>
       <use x="83.398438" xlink:href="#ArialMT-54"/>
      </g>
     </g>
    </g>
    <g id="ytick_14">
     <g id="line2d_66">
      <g>
       <use style="stroke:#000000;" x="54" xlink:href="#m92093fc952" y="175.073745"/>
      </g>
     </g>
     <g id="line2d_67">
      <g>
       <use style="stroke:#000000;" x="388.8" xlink:href="#m8de4ddd1cd" y="175.073745"/>
      </g>
     </g>
     <g id="text_19">
      <!-- 0.8 -->
      <g transform="translate(38.268 178.223183)scale(0.088 -0.088)">
       <use xlink:href="#ArialMT-48"/>
       <use x="55.615234" xlink:href="#ArialMT-46"/>
       <use x="83.398438" xlink:href="#ArialMT-56"/>
      </g>
     </g>
    </g>
    <g id="ytick_15">
     <g id="line2d_68">
      <g>
       <use style="stroke:#000000;" x="54" xlink:href="#m92093fc952" y="154.449159"/>
      </g>
     </g>
     <g id="line2d_69">
      <g>
       <use style="stroke:#000000;" x="388.8" xlink:href="#m8de4ddd1cd" y="154.449159"/>
      </g>
     </g>
     <g id="text_20">
      <!-- 1.0 -->
      <g transform="translate(38.268 157.598596)scale(0.088 -0.088)">
       <use xlink:href="#ArialMT-49"/>
       <use x="55.615234" xlink:href="#ArialMT-46"/>
       <use x="83.398438" xlink:href="#ArialMT-48"/>
      </g>
     </g>
    </g>
    <g id="text_21">
     <!-- $\beta$ -->
     <defs>
      <path d="M 13.625 3.375 
L 8.9375 -20.796875 
L -0.09375 -20.796875 
L 14.5 54.34375 
Q 18.84375 76.609375 39.65625 76.609375 
Q 60.75 76.609375 57.171875 57.8125 
Q 54.734375 44.4375 45.21875 39.546875 
Q 58.015625 35.15625 55.515625 22.125 
Q 51.125 -1.078125 27.484375 -1.03125 
Q 17.140625 -0.984375 13.625 3.375 
z
M 15.921875 15.09375 
Q 19.671875 6.59375 29.296875 6.640625 
Q 43.359375 6.640625 46.34375 21.96875 
Q 49.03125 35.75 26.171875 34.671875 
L 27.78125 42.96875 
Q 45.453125 42.671875 48.53125 58.59375 
Q 50.640625 69.34375 39.203125 69.28125 
Q 26.421875 69.28125 23.484375 54.046875 
z
" id="DejaVuSans-Oblique-946"/>
     </defs>
     <g transform="translate(32.252 200.712)rotate(-90)scale(0.096 -0.096)">
      <use transform="translate(0 0.390625)" xlink:href="#DejaVuSans-Oblique-946"/>
     </g>
    </g>
   </g>
   <g id="line2d_70">
    <path clip-path="url(#pef7746a7fe)" d="M 69.218182 153.755045 
L 71.195736 153.755045 
L 71.690125 194.878997 
L 73.66768 194.878997 
L 74.162068 208.560869 
L 76.139623 208.560869 
L 76.634012 212.540015 
L 78.611566 212.540015 
L 79.105955 223.832244 
L 81.08351 223.832244 
L 81.577898 231.940421 
L 83.555453 231.940421 
L 84.049842 232.300998 
L 86.027396 232.300998 
L 86.521785 232.029566 
L 88.49934 232.029566 
L 88.993728 219.909318 
L 90.971283 219.909318 
L 91.465671 211.393616 
L 93.443226 211.393616 
L 93.937615 223.931099 
L 95.915169 223.931099 
L 96.409558 231.779566 
L 98.387113 231.779566 
L 98.881501 237.960543 
L 100.859056 237.960543 
L 101.353445 237.057422 
L 103.330999 237.057422 
L 103.825388 224.443126 
L 105.802943 224.443126 
L 106.297331 223.934593 
L 108.274886 223.934593 
L 108.769275 229.942816 
L 110.746829 229.942816 
L 111.241218 235.940333 
L 113.218772 235.940333 
L 113.713161 236.778335 
L 115.690716 236.778335 
L 116.185104 234.334014 
L 118.162659 234.334014 
L 118.657048 239.010302 
L 123.106546 238.989051 
L 123.600934 236.554356 
L 125.578489 236.554356 
L 126.072878 229.634379 
L 128.050432 229.634379 
L 128.544821 225.459044 
L 130.522376 225.459044 
L 131.016764 225.618439 
L 132.994319 225.618439 
L 133.488708 226.749144 
L 135.466262 226.749144 
L 135.960651 221.649393 
L 137.938205 221.649393 
L 138.432594 227.978271 
L 140.410149 227.978271 
L 140.904537 230.414372 
L 142.882092 230.414372 
L 143.376481 231.675494 
L 145.354035 231.675494 
L 145.848424 233.566071 
L 147.825979 233.566071 
L 148.320367 234.69425 
L 150.297922 234.69425 
L 150.792311 237.316338 
L 152.769865 237.316338 
L 153.264254 236.578063 
L 155.241809 236.578063 
L 155.736197 236.32887 
L 157.713752 236.32887 
L 158.20814 236.713184 
L 160.185695 236.713184 
L 160.680084 240.393538 
L 162.657638 240.393538 
L 163.152027 241.881095 
L 165.129582 241.881095 
L 165.62397 242.435357 
L 167.601525 242.435357 
L 168.095914 240.57215 
L 170.073468 240.57215 
L 170.567857 238.012835 
L 172.545412 238.012835 
L 173.0398 234.337279 
L 175.017355 234.337279 
L 175.511744 238.174381 
L 177.489298 238.174381 
L 177.983687 236.205302 
L 179.961241 236.205302 
L 180.45563 236.740896 
L 184.905128 236.632661 
L 185.399517 240.83645 
L 187.377071 240.83645 
L 187.87146 235.807176 
L 189.849015 235.807176 
L 190.343403 244.228346 
L 192.320958 244.228346 
L 192.815347 241.660228 
L 194.792901 241.660228 
L 195.28729 242.593045 
L 197.264845 242.593045 
L 197.759233 240.957985 
L 199.736788 240.957985 
L 200.231177 231.578431 
L 202.208731 231.578431 
L 202.70312 232.334539 
L 204.680674 232.334539 
L 205.175063 239.784318 
L 207.152618 239.784318 
L 207.647006 238.628372 
L 209.624561 238.628372 
L 210.11895 240.796529 
L 212.096504 240.796529 
L 212.590893 241.316901 
L 214.568448 241.316901 
L 215.062836 242.712378 
L 217.040391 242.712378 
L 217.53478 241.866653 
L 219.512334 241.866653 
L 220.006723 243.241891 
L 224.456221 243.277811 
L 224.950609 237.729446 
L 226.928164 237.729446 
L 227.422553 237.577917 
L 231.872051 237.655643 
L 232.366439 239.979694 
L 234.343994 239.979694 
L 234.838383 239.819548 
L 239.287881 239.845093 
L 239.782269 236.064846 
L 241.759824 236.064846 
L 242.254213 235.371699 
L 244.231767 235.371699 
L 244.726156 231.896624 
L 249.175654 231.91674 
L 249.670042 223.384719 
L 251.647597 223.384719 
L 252.141986 225.474302 
L 254.11954 225.474302 
L 254.613929 215.73443 
L 256.591484 215.73443 
L 257.085872 218.794363 
L 259.063427 218.794363 
L 259.557816 227.316804 
L 261.53537 227.316804 
L 262.029759 231.398035 
L 264.007314 231.398035 
L 264.501702 237.081017 
L 266.479257 237.081017 
L 266.973645 231.95956 
L 268.9512 231.95956 
L 269.445589 233.160704 
L 271.423143 233.160704 
L 271.917532 231.462648 
L 273.895087 231.462648 
L 274.389475 224.405458 
L 276.36703 224.405458 
L 276.861419 228.786825 
L 278.838973 228.786825 
L 279.333362 224.363767 
L 281.310917 224.363767 
L 281.805305 225.489354 
L 283.78286 225.489354 
L 284.277249 227.499876 
L 286.254803 227.499876 
L 286.749192 234.674217 
L 288.726746 234.674217 
L 289.221135 230.085673 
L 291.19869 230.085673 
L 291.693078 232.941145 
L 293.670633 232.941145 
L 294.165022 224.188625 
L 296.142576 224.188625 
L 296.636965 226.356587 
L 298.61452 226.356587 
L 299.108908 218.360292 
L 301.086463 218.360292 
L 301.580852 231.551832 
L 303.558406 231.551832 
L 304.052795 229.591882 
L 306.03035 229.591882 
L 306.524738 234.080808 
L 307.041599 234.080808 
L 307.041599 234.080808 
" style="fill:none;stroke:#e8000b;stroke-linecap:round;stroke-width:1.2;"/>
   </g>
   <g id="patch_10">
    <path d="M 54 252 
L 54 143.28 
" style="fill:none;stroke:#000000;stroke-linecap:square;stroke-linejoin:miter;"/>
   </g>
   <g id="patch_11">
    <path d="M 388.8 252 
L 388.8 143.28 
" style="fill:none;stroke:#000000;stroke-linecap:square;stroke-linejoin:miter;"/>
   </g>
   <g id="patch_12">
    <path d="M 54 252 
L 388.8 252 
" style="fill:none;stroke:#000000;stroke-linecap:square;stroke-linejoin:miter;"/>
   </g>
   <g id="patch_13">
    <path d="M 54 143.28 
L 388.8 143.28 
" style="fill:none;stroke:#000000;stroke-linecap:square;stroke-linejoin:miter;"/>
   </g>
  </g>
 </g>
 <defs>
  <clipPath id="p68521ce96f">
   <rect height="108.72" width="334.8" x="54" y="34.56"/>
  </clipPath>
  <clipPath id="pef7746a7fe">
   <rect height="108.72" width="334.8" x="54" y="143.28"/>
  </clipPath>
 </defs>
</svg>
